M48
; DRILL file {KiCad (6.0.7)} date Sat Sep 17 20:46:49 2022
; FORMAT={-:-/ absolute / metric / decimal}
; #@! TF.CreationDate,2022-09-17T20:46:49+02:00
; #@! TF.GenerationSoftware,Kicad,Pcbnew,(6.0.7)
; #@! TF.FileFunction,Plated,1,2,PTH
FMAT,2
METRIC
; #@! TA.AperFunction,Plated,PTH,ViaDrill
T1C0.300
; #@! TA.AperFunction,Plated,PTH,ViaDrill
T2C0.400
; #@! TA.AperFunction,Plated,PTH,ViaDrill
T3C0.500
; #@! TA.AperFunction,Plated,PTH,ComponentDrill
T4C0.600
; #@! TA.AperFunction,Plated,PTH,ComponentDrill
T5C0.800
; #@! TA.AperFunction,Plated,PTH,ComponentDrill
T6C0.850
; #@! TA.AperFunction,Plated,PTH,ComponentDrill
T7C1.000
%
G90
G05
T1
X115.01Y-91.585
X118.414Y-104.438
X123.646Y-91.382
X124.713Y-98.748
X134.365Y-97.275
X134.416Y-107.435
X136.448Y-101.136
X137.616Y-114.242
X140.133Y-94.79
X140.385Y-113.734
X140.467Y-95.571
X140.817Y-115.004
X141.172Y-89.401
X141.223Y-96.197
X141.477Y-118.662
X141.63Y-113.785
X143.611Y-101.491
X143.611Y-102.304
X143.611Y-103.104
X143.611Y-103.903
X144.22Y-96.157
X144.424Y-117.036
X144.881Y-96.97
X145.541Y-97.732
X146.202Y-100.729
X146.202Y-101.542
X146.342Y-108.744
X147.318Y-109.025
X147.878Y-114.725
X148.31Y-109.151
X148.691Y-114.725
X149.25Y-117.595
X149.504Y-114.725
X150.316Y-114.725
T2
X137.108Y-115.156
X139.09Y-102.558
X146.405Y-104.336
X150.469Y-107.181
X153.05Y-110.95
T3
X153.05Y-105.9
T5
X165.35Y-101.05
X165.35Y-103.05
X165.35Y-105.05
X169.85Y-101.05
X169.85Y-103.05
X169.85Y-105.05
T6
X173.846Y-100.489
X173.846Y-105.389
T7
X112.3Y-87.18
X112.445Y-95.95
X112.445Y-98.49
X112.445Y-101.03
X112.445Y-103.57
X112.445Y-106.11
X112.445Y-108.65
X112.445Y-111.19
X114.84Y-87.18
X114.985Y-95.95
X114.985Y-98.49
X114.985Y-101.03
X114.985Y-103.57
X114.985Y-106.11
X114.985Y-108.65
X114.985Y-111.19
X117.38Y-87.18
X121.97Y-96.203
X121.97Y-98.743
X121.97Y-101.283
X121.97Y-103.823
X121.97Y-106.363
X121.97Y-108.903
X121.97Y-111.443
X123.24Y-121.1
X125.78Y-121.1
X128.32Y-121.1
X128.969Y-95.827
X128.969Y-98.367
X128.969Y-100.907
X128.969Y-103.447
X128.969Y-105.987
X128.969Y-108.527
X130.86Y-85.03
X130.86Y-121.1
X131.509Y-95.827
X131.509Y-98.367
X131.509Y-100.907
X131.509Y-103.447
X131.509Y-105.987
X131.509Y-108.527
X133.4Y-85.03
X133.4Y-121.1
X135.94Y-85.03
X135.94Y-121.1
X138.48Y-85.03
X138.48Y-121.1
X141.02Y-85.03
X141.02Y-121.1
X143.56Y-85.03
X146.1Y-85.03
X146.1Y-121.1
X148.64Y-85.03
X148.64Y-121.1
X151.18Y-121.1
X153.72Y-121.1
X155.0Y-93.4
X155.0Y-97.0
X155.0Y-109.0
X155.0Y-112.6
X156.26Y-121.1
X157.54Y-93.4
X157.54Y-97.0
X157.54Y-109.0
X157.54Y-112.6
X158.8Y-121.1
X160.08Y-93.4
X160.08Y-97.0
X160.08Y-109.0
X160.08Y-112.6
X161.34Y-121.1
X163.06Y-89.8
X163.88Y-121.1
X165.6Y-89.8
X166.42Y-121.1
T4
X176.196Y-99.339G85X176.896Y-99.339
G05
X176.896Y-106.539G85X176.196Y-106.539
G05
T0
M30
