G04 #@! TF.GenerationSoftware,KiCad,Pcbnew,(6.0.7)*
G04 #@! TF.CreationDate,2022-09-17T20:46:44+02:00*
G04 #@! TF.ProjectId,SLAU272_FR5739,534c4155-3237-4325-9f46-52353733392e,rev?*
G04 #@! TF.SameCoordinates,Original*
G04 #@! TF.FileFunction,Soldermask,Bot*
G04 #@! TF.FilePolarity,Negative*
%FSLAX46Y46*%
G04 Gerber Fmt 4.6, Leading zero omitted, Abs format (unit mm)*
G04 Created by KiCad (PCBNEW (6.0.7)) date 2022-09-17 20:46:44*
%MOMM*%
%LPD*%
G01*
G04 APERTURE LIST*
G04 Aperture macros list*
%AMRoundRect*
0 Rectangle with rounded corners*
0 $1 Rounding radius*
0 $2 $3 $4 $5 $6 $7 $8 $9 X,Y pos of 4 corners*
0 Add a 4 corners polygon primitive as box body*
4,1,4,$2,$3,$4,$5,$6,$7,$8,$9,$2,$3,0*
0 Add four circle primitives for the rounded corners*
1,1,$1+$1,$2,$3*
1,1,$1+$1,$4,$5*
1,1,$1+$1,$6,$7*
1,1,$1+$1,$8,$9*
0 Add four rect primitives between the rounded corners*
20,1,$1+$1,$2,$3,$4,$5,0*
20,1,$1+$1,$4,$5,$6,$7,0*
20,1,$1+$1,$6,$7,$8,$9,0*
20,1,$1+$1,$8,$9,$2,$3,0*%
G04 Aperture macros list end*
%ADD10RoundRect,0.250000X-0.600000X-0.600000X0.600000X-0.600000X0.600000X0.600000X-0.600000X0.600000X0*%
%ADD11C,1.700000*%
%ADD12R,1.700000X1.700000*%
%ADD13O,1.700000X1.700000*%
%ADD14C,1.450000*%
%ADD15O,1.900000X1.200000*%
%ADD16R,1.350000X1.350000*%
%ADD17O,1.350000X1.350000*%
G04 APERTURE END LIST*
D10*
X112445000Y-95950000D03*
D11*
X114985000Y-95950000D03*
X112445000Y-98490000D03*
X114985000Y-98490000D03*
X112445000Y-101030000D03*
X114985000Y-101030000D03*
X112445000Y-103570000D03*
X114985000Y-103570000D03*
X112445000Y-106110000D03*
X114985000Y-106110000D03*
X112445000Y-108650000D03*
X114985000Y-108650000D03*
X112445000Y-111190000D03*
X114985000Y-111190000D03*
D12*
X130860000Y-85030000D03*
D13*
X133400000Y-85030000D03*
X135940000Y-85030000D03*
X138480000Y-85030000D03*
X141020000Y-85030000D03*
X143560000Y-85030000D03*
X146100000Y-85030000D03*
X148640000Y-85030000D03*
D12*
X146100000Y-121100000D03*
D13*
X148640000Y-121100000D03*
X151180000Y-121100000D03*
X153720000Y-121100000D03*
X156260000Y-121100000D03*
X158800000Y-121100000D03*
X161340000Y-121100000D03*
X163880000Y-121100000D03*
X166420000Y-121100000D03*
D12*
X121970000Y-96203000D03*
D13*
X121970000Y-98743000D03*
X121970000Y-101283000D03*
X121970000Y-103823000D03*
X121970000Y-106363000D03*
X121970000Y-108903000D03*
X121970000Y-111443000D03*
D12*
X165600000Y-89800000D03*
D13*
X163060000Y-89800000D03*
D12*
X123240000Y-121100000D03*
D13*
X125780000Y-121100000D03*
X128320000Y-121100000D03*
X130860000Y-121100000D03*
X133400000Y-121100000D03*
X135940000Y-121100000D03*
X138480000Y-121100000D03*
X141020000Y-121100000D03*
D12*
X155000000Y-93400000D03*
D13*
X157540000Y-93400000D03*
X160080000Y-93400000D03*
D12*
X155000000Y-97000000D03*
D13*
X157540000Y-97000000D03*
X160080000Y-97000000D03*
D12*
X155000000Y-112600000D03*
D13*
X157540000Y-112600000D03*
X160080000Y-112600000D03*
D12*
X155000000Y-109000000D03*
D13*
X157540000Y-109000000D03*
X160080000Y-109000000D03*
D14*
X173846000Y-100489000D03*
D15*
X176546000Y-99339000D03*
X176546000Y-106539000D03*
D14*
X173846000Y-105389000D03*
D12*
X112300000Y-87180000D03*
D13*
X114840000Y-87180000D03*
X117380000Y-87180000D03*
D16*
X165350000Y-101050000D03*
D17*
X165350000Y-103050000D03*
X165350000Y-105050000D03*
X169850000Y-101050000D03*
X169850000Y-103050000D03*
X169850000Y-105050000D03*
D12*
X128969200Y-95827000D03*
D13*
X131509200Y-95827000D03*
X128969200Y-98367000D03*
X131509200Y-98367000D03*
X128969200Y-100907000D03*
X131509200Y-100907000D03*
X128969200Y-103447000D03*
X131509200Y-103447000D03*
X128969200Y-105987000D03*
X131509200Y-105987000D03*
X128969200Y-108527000D03*
X131509200Y-108527000D03*
M02*
