G04 #@! TF.GenerationSoftware,KiCad,Pcbnew,(6.0.7)*
G04 #@! TF.CreationDate,2022-09-17T20:46:44+02:00*
G04 #@! TF.ProjectId,SLAU272_FR5739,534c4155-3237-4325-9f46-52353733392e,rev?*
G04 #@! TF.SameCoordinates,Original*
G04 #@! TF.FileFunction,Soldermask,Top*
G04 #@! TF.FilePolarity,Negative*
%FSLAX46Y46*%
G04 Gerber Fmt 4.6, Leading zero omitted, Abs format (unit mm)*
G04 Created by KiCad (PCBNEW (6.0.7)) date 2022-09-17 20:46:44*
%MOMM*%
%LPD*%
G01*
G04 APERTURE LIST*
G04 Aperture macros list*
%AMRoundRect*
0 Rectangle with rounded corners*
0 $1 Rounding radius*
0 $2 $3 $4 $5 $6 $7 $8 $9 X,Y pos of 4 corners*
0 Add a 4 corners polygon primitive as box body*
4,1,4,$2,$3,$4,$5,$6,$7,$8,$9,$2,$3,0*
0 Add four circle primitives for the rounded corners*
1,1,$1+$1,$2,$3*
1,1,$1+$1,$4,$5*
1,1,$1+$1,$6,$7*
1,1,$1+$1,$8,$9*
0 Add four rect primitives between the rounded corners*
20,1,$1+$1,$2,$3,$4,$5,0*
20,1,$1+$1,$4,$5,$6,$7,0*
20,1,$1+$1,$6,$7,$8,$9,0*
20,1,$1+$1,$8,$9,$2,$3,0*%
%AMFreePoly0*
4,1,9,5.362500,-0.866500,1.237500,-0.866500,1.237500,-0.450000,-1.237500,-0.450000,-1.237500,0.450000,1.237500,0.450000,1.237500,0.866500,5.362500,0.866500,5.362500,-0.866500,5.362500,-0.866500,$1*%
%AMFreePoly1*
4,1,22,0.500000,-0.750000,0.000000,-0.750000,0.000000,-0.745033,-0.079941,-0.743568,-0.215256,-0.701293,-0.333266,-0.622738,-0.424486,-0.514219,-0.481581,-0.384460,-0.499164,-0.250000,-0.500000,-0.250000,-0.500000,0.250000,-0.499164,0.250000,-0.499963,0.256109,-0.478152,0.396186,-0.417904,0.524511,-0.324060,0.630769,-0.204165,0.706417,-0.067858,0.745374,0.000000,0.744959,0.000000,0.750000,
0.500000,0.750000,0.500000,-0.750000,0.500000,-0.750000,$1*%
%AMFreePoly2*
4,1,20,0.000000,0.744959,0.073905,0.744508,0.209726,0.703889,0.328688,0.626782,0.421226,0.519385,0.479903,0.390333,0.500000,0.250000,0.500000,-0.250000,0.499851,-0.262216,0.476331,-0.402017,0.414519,-0.529596,0.319384,-0.634700,0.198574,-0.708877,0.061801,-0.746166,0.000000,-0.745033,0.000000,-0.750000,-0.500000,-0.750000,-0.500000,0.750000,0.000000,0.750000,0.000000,0.744959,
0.000000,0.744959,$1*%
G04 Aperture macros list end*
%ADD10R,0.400000X1.900000*%
%ADD11RoundRect,0.250000X-0.600000X-0.600000X0.600000X-0.600000X0.600000X0.600000X-0.600000X0.600000X0*%
%ADD12C,1.700000*%
%ADD13RoundRect,0.237500X0.300000X0.237500X-0.300000X0.237500X-0.300000X-0.237500X0.300000X-0.237500X0*%
%ADD14R,1.700000X1.700000*%
%ADD15O,1.700000X1.700000*%
%ADD16RoundRect,0.237500X0.237500X-0.300000X0.237500X0.300000X-0.237500X0.300000X-0.237500X-0.300000X0*%
%ADD17RoundRect,0.237500X-0.250000X-0.237500X0.250000X-0.237500X0.250000X0.237500X-0.250000X0.237500X0*%
%ADD18R,2.300000X0.900000*%
%ADD19FreePoly0,0.000000*%
%ADD20RoundRect,0.237500X-0.237500X0.287500X-0.237500X-0.287500X0.237500X-0.287500X0.237500X0.287500X0*%
%ADD21RoundRect,0.237500X-0.237500X0.250000X-0.237500X-0.250000X0.237500X-0.250000X0.237500X0.250000X0*%
%ADD22RoundRect,0.237500X-0.237500X0.300000X-0.237500X-0.300000X0.237500X-0.300000X0.237500X0.300000X0*%
%ADD23R,1.550000X0.400000*%
%ADD24R,1.900000X1.200000*%
%ADD25C,1.450000*%
%ADD26O,1.900000X1.200000*%
%ADD27R,1.900000X1.500000*%
%ADD28RoundRect,0.237500X0.237500X-0.250000X0.237500X0.250000X-0.237500X0.250000X-0.237500X-0.250000X0*%
%ADD29R,1.350000X1.350000*%
%ADD30O,1.350000X1.350000*%
%ADD31RoundRect,0.100000X-0.100000X0.637500X-0.100000X-0.637500X0.100000X-0.637500X0.100000X0.637500X0*%
%ADD32R,1.400000X2.000000*%
%ADD33RoundRect,0.237500X0.250000X0.237500X-0.250000X0.237500X-0.250000X-0.237500X0.250000X-0.237500X0*%
%ADD34RoundRect,0.237500X-0.300000X-0.237500X0.300000X-0.237500X0.300000X0.237500X-0.300000X0.237500X0*%
%ADD35FreePoly1,0.000000*%
%ADD36FreePoly2,0.000000*%
G04 APERTURE END LIST*
D10*
X150856000Y-92398000D03*
X149656000Y-92398000D03*
X148456000Y-92398000D03*
D11*
X112445000Y-95950000D03*
D12*
X114985000Y-95950000D03*
X112445000Y-98490000D03*
X114985000Y-98490000D03*
X112445000Y-101030000D03*
X114985000Y-101030000D03*
X112445000Y-103570000D03*
X114985000Y-103570000D03*
X112445000Y-106110000D03*
X114985000Y-106110000D03*
X112445000Y-108650000D03*
X114985000Y-108650000D03*
X112445000Y-111190000D03*
X114985000Y-111190000D03*
D13*
X148386000Y-110940000D03*
X146661000Y-110940000D03*
X142898500Y-92144000D03*
X141173500Y-92144000D03*
D14*
X130860000Y-85030000D03*
D15*
X133400000Y-85030000D03*
X135940000Y-85030000D03*
X138480000Y-85030000D03*
X141020000Y-85030000D03*
X143560000Y-85030000D03*
X146100000Y-85030000D03*
X148640000Y-85030000D03*
D14*
X146100000Y-121100000D03*
D15*
X148640000Y-121100000D03*
X151180000Y-121100000D03*
X153720000Y-121100000D03*
X156260000Y-121100000D03*
X158800000Y-121100000D03*
X161340000Y-121100000D03*
X163880000Y-121100000D03*
X166420000Y-121100000D03*
D14*
X121970000Y-96203000D03*
D15*
X121970000Y-98743000D03*
X121970000Y-101283000D03*
X121970000Y-103823000D03*
X121970000Y-106363000D03*
X121970000Y-108903000D03*
X121970000Y-111443000D03*
D16*
X163250000Y-103862500D03*
X163250000Y-102137500D03*
X161750000Y-103862500D03*
X161750000Y-102137500D03*
X151600000Y-103862500D03*
X151600000Y-102137500D03*
X153100000Y-103862500D03*
X153100000Y-102137500D03*
D17*
X141138500Y-93664000D03*
X142963500Y-93664000D03*
D18*
X155312500Y-101500000D03*
D19*
X155400000Y-103000000D03*
D18*
X155312500Y-104500000D03*
D20*
X176100000Y-88825000D03*
X176100000Y-90575000D03*
D14*
X165600000Y-89800000D03*
D15*
X163060000Y-89800000D03*
D21*
X174500000Y-88787500D03*
X174500000Y-90612500D03*
D14*
X123240000Y-121100000D03*
D15*
X125780000Y-121100000D03*
X128320000Y-121100000D03*
X130860000Y-121100000D03*
X133400000Y-121100000D03*
X135940000Y-121100000D03*
X138480000Y-121100000D03*
X141020000Y-121100000D03*
D14*
X155000000Y-93400000D03*
D15*
X157540000Y-93400000D03*
X160080000Y-93400000D03*
D14*
X155000000Y-97000000D03*
D15*
X157540000Y-97000000D03*
X160080000Y-97000000D03*
D14*
X155000000Y-112600000D03*
D15*
X157540000Y-112600000D03*
X160080000Y-112600000D03*
D22*
X164100000Y-109037500D03*
X164100000Y-110762500D03*
X164100000Y-93437500D03*
X164100000Y-95162500D03*
X162600000Y-93437500D03*
X162600000Y-95162500D03*
D14*
X155000000Y-109000000D03*
D15*
X157540000Y-109000000D03*
X160080000Y-109000000D03*
D23*
X173758500Y-104239000D03*
X173758500Y-103589000D03*
X173758500Y-102939000D03*
X173758500Y-102289000D03*
X173758500Y-101639000D03*
D24*
X176546000Y-105839000D03*
D25*
X173846000Y-100489000D03*
D26*
X176546000Y-99339000D03*
X176546000Y-106539000D03*
D27*
X176546000Y-101939000D03*
X176546000Y-103939000D03*
D24*
X176546000Y-100039000D03*
D25*
X173846000Y-105389000D03*
D13*
X142898500Y-90644000D03*
X141173500Y-90644000D03*
D14*
X112300000Y-87180000D03*
D15*
X114840000Y-87180000D03*
X117380000Y-87180000D03*
D22*
X133738000Y-113379500D03*
X133738000Y-115104500D03*
D28*
X135238000Y-115154500D03*
X135238000Y-113329500D03*
D29*
X165350000Y-101050000D03*
D30*
X165350000Y-103050000D03*
X165350000Y-105050000D03*
X169850000Y-101050000D03*
X169850000Y-103050000D03*
X169850000Y-105050000D03*
D22*
X162600000Y-109037500D03*
X162600000Y-110762500D03*
D14*
X128969200Y-95827000D03*
D15*
X131509200Y-95827000D03*
X128969200Y-98367000D03*
X131509200Y-98367000D03*
X128969200Y-100907000D03*
X131509200Y-100907000D03*
X128969200Y-103447000D03*
X131509200Y-103447000D03*
X128969200Y-105987000D03*
X131509200Y-105987000D03*
X128969200Y-108527000D03*
X131509200Y-108527000D03*
D31*
X148140000Y-99353500D03*
X147490000Y-99353500D03*
X146840000Y-99353500D03*
X146190000Y-99353500D03*
X145540000Y-99353500D03*
X144890000Y-99353500D03*
X144240000Y-99353500D03*
X143590000Y-99353500D03*
X142940000Y-99353500D03*
X142290000Y-99353500D03*
X141640000Y-99353500D03*
X140990000Y-99353500D03*
X140340000Y-99353500D03*
X139690000Y-99353500D03*
X139040000Y-99353500D03*
X138390000Y-99353500D03*
X137740000Y-99353500D03*
X137090000Y-99353500D03*
X136440000Y-99353500D03*
X136440000Y-106778500D03*
X137090000Y-106778500D03*
X137740000Y-106778500D03*
X138390000Y-106778500D03*
X139040000Y-106778500D03*
X139690000Y-106778500D03*
X140340000Y-106778500D03*
X140990000Y-106778500D03*
X141640000Y-106778500D03*
X142290000Y-106778500D03*
X142940000Y-106778500D03*
X143590000Y-106778500D03*
X144240000Y-106778500D03*
X144890000Y-106778500D03*
X145540000Y-106778500D03*
X146190000Y-106778500D03*
X146840000Y-106778500D03*
X147490000Y-106778500D03*
X148140000Y-106778500D03*
D32*
X131749000Y-114242000D03*
X127599000Y-114242000D03*
D33*
X135455500Y-111575000D03*
X133630500Y-111575000D03*
D34*
X143205500Y-110940000D03*
X144930500Y-110940000D03*
X144602500Y-93668000D03*
X146327500Y-93668000D03*
D35*
X144815000Y-91382000D03*
D36*
X146115000Y-91382000D03*
M02*
