G04 #@! TF.GenerationSoftware,KiCad,Pcbnew,(6.0.7)*
G04 #@! TF.CreationDate,2022-09-17T20:46:44+02:00*
G04 #@! TF.ProjectId,SLAU272_FR5739,534c4155-3237-4325-9f46-52353733392e,rev?*
G04 #@! TF.SameCoordinates,Original*
G04 #@! TF.FileFunction,Paste,Top*
G04 #@! TF.FilePolarity,Positive*
%FSLAX46Y46*%
G04 Gerber Fmt 4.6, Leading zero omitted, Abs format (unit mm)*
G04 Created by KiCad (PCBNEW (6.0.7)) date 2022-09-17 20:46:44*
%MOMM*%
%LPD*%
G01*
G04 APERTURE LIST*
G04 Aperture macros list*
%AMRoundRect*
0 Rectangle with rounded corners*
0 $1 Rounding radius*
0 $2 $3 $4 $5 $6 $7 $8 $9 X,Y pos of 4 corners*
0 Add a 4 corners polygon primitive as box body*
4,1,4,$2,$3,$4,$5,$6,$7,$8,$9,$2,$3,0*
0 Add four circle primitives for the rounded corners*
1,1,$1+$1,$2,$3*
1,1,$1+$1,$4,$5*
1,1,$1+$1,$6,$7*
1,1,$1+$1,$8,$9*
0 Add four rect primitives between the rounded corners*
20,1,$1+$1,$2,$3,$4,$5,0*
20,1,$1+$1,$4,$5,$6,$7,0*
20,1,$1+$1,$6,$7,$8,$9,0*
20,1,$1+$1,$8,$9,$2,$3,0*%
%AMFreePoly0*
4,1,9,5.362500,-0.866500,1.237500,-0.866500,1.237500,-0.450000,-1.237500,-0.450000,-1.237500,0.450000,1.237500,0.450000,1.237500,0.866500,5.362500,0.866500,5.362500,-0.866500,5.362500,-0.866500,$1*%
G04 Aperture macros list end*
%ADD10R,0.400000X1.900000*%
%ADD11RoundRect,0.237500X0.300000X0.237500X-0.300000X0.237500X-0.300000X-0.237500X0.300000X-0.237500X0*%
%ADD12RoundRect,0.237500X0.237500X-0.300000X0.237500X0.300000X-0.237500X0.300000X-0.237500X-0.300000X0*%
%ADD13RoundRect,0.237500X-0.250000X-0.237500X0.250000X-0.237500X0.250000X0.237500X-0.250000X0.237500X0*%
%ADD14R,2.300000X0.900000*%
%ADD15FreePoly0,0.000000*%
%ADD16RoundRect,0.237500X-0.237500X0.287500X-0.237500X-0.287500X0.237500X-0.287500X0.237500X0.287500X0*%
%ADD17RoundRect,0.237500X-0.237500X0.250000X-0.237500X-0.250000X0.237500X-0.250000X0.237500X0.250000X0*%
%ADD18RoundRect,0.237500X-0.237500X0.300000X-0.237500X-0.300000X0.237500X-0.300000X0.237500X0.300000X0*%
%ADD19R,1.550000X0.400000*%
%ADD20R,1.900000X1.500000*%
%ADD21RoundRect,0.237500X0.237500X-0.250000X0.237500X0.250000X-0.237500X0.250000X-0.237500X-0.250000X0*%
%ADD22RoundRect,0.100000X-0.100000X0.637500X-0.100000X-0.637500X0.100000X-0.637500X0.100000X0.637500X0*%
%ADD23R,1.400000X2.000000*%
%ADD24RoundRect,0.237500X0.250000X0.237500X-0.250000X0.237500X-0.250000X-0.237500X0.250000X-0.237500X0*%
%ADD25RoundRect,0.237500X-0.300000X-0.237500X0.300000X-0.237500X0.300000X0.237500X-0.300000X0.237500X0*%
G04 APERTURE END LIST*
D10*
X150856000Y-92398000D03*
X149656000Y-92398000D03*
X148456000Y-92398000D03*
D11*
X148386000Y-110940000D03*
X146661000Y-110940000D03*
X142898500Y-92144000D03*
X141173500Y-92144000D03*
D12*
X163250000Y-103862500D03*
X163250000Y-102137500D03*
X161750000Y-103862500D03*
X161750000Y-102137500D03*
X151600000Y-103862500D03*
X151600000Y-102137500D03*
X153100000Y-103862500D03*
X153100000Y-102137500D03*
D13*
X141138500Y-93664000D03*
X142963500Y-93664000D03*
D14*
X155312500Y-101500000D03*
D15*
X155400000Y-103000000D03*
D14*
X155312500Y-104500000D03*
D16*
X176100000Y-88825000D03*
X176100000Y-90575000D03*
D17*
X174500000Y-88787500D03*
X174500000Y-90612500D03*
D18*
X164100000Y-109037500D03*
X164100000Y-110762500D03*
X164100000Y-93437500D03*
X164100000Y-95162500D03*
X162600000Y-93437500D03*
X162600000Y-95162500D03*
D19*
X173758500Y-104239000D03*
X173758500Y-103589000D03*
X173758500Y-102939000D03*
X173758500Y-102289000D03*
X173758500Y-101639000D03*
D20*
X176546000Y-101939000D03*
X176546000Y-103939000D03*
D11*
X142898500Y-90644000D03*
X141173500Y-90644000D03*
D18*
X133738000Y-113379500D03*
X133738000Y-115104500D03*
D21*
X135238000Y-115154500D03*
X135238000Y-113329500D03*
D18*
X162600000Y-109037500D03*
X162600000Y-110762500D03*
D22*
X148140000Y-99353500D03*
X147490000Y-99353500D03*
X146840000Y-99353500D03*
X146190000Y-99353500D03*
X145540000Y-99353500D03*
X144890000Y-99353500D03*
X144240000Y-99353500D03*
X143590000Y-99353500D03*
X142940000Y-99353500D03*
X142290000Y-99353500D03*
X141640000Y-99353500D03*
X140990000Y-99353500D03*
X140340000Y-99353500D03*
X139690000Y-99353500D03*
X139040000Y-99353500D03*
X138390000Y-99353500D03*
X137740000Y-99353500D03*
X137090000Y-99353500D03*
X136440000Y-99353500D03*
X136440000Y-106778500D03*
X137090000Y-106778500D03*
X137740000Y-106778500D03*
X138390000Y-106778500D03*
X139040000Y-106778500D03*
X139690000Y-106778500D03*
X140340000Y-106778500D03*
X140990000Y-106778500D03*
X141640000Y-106778500D03*
X142290000Y-106778500D03*
X142940000Y-106778500D03*
X143590000Y-106778500D03*
X144240000Y-106778500D03*
X144890000Y-106778500D03*
X145540000Y-106778500D03*
X146190000Y-106778500D03*
X146840000Y-106778500D03*
X147490000Y-106778500D03*
X148140000Y-106778500D03*
D23*
X131749000Y-114242000D03*
X127599000Y-114242000D03*
D24*
X135455500Y-111575000D03*
X133630500Y-111575000D03*
D25*
X143205500Y-110940000D03*
X144930500Y-110940000D03*
X144602500Y-93668000D03*
X146327500Y-93668000D03*
M02*
