G04 #@! TF.GenerationSoftware,KiCad,Pcbnew,(6.0.7)*
G04 #@! TF.CreationDate,2022-09-17T20:46:44+02:00*
G04 #@! TF.ProjectId,SLAU272_FR5739,534c4155-3237-4325-9f46-52353733392e,rev?*
G04 #@! TF.SameCoordinates,Original*
G04 #@! TF.FileFunction,Legend,Top*
G04 #@! TF.FilePolarity,Positive*
%FSLAX46Y46*%
G04 Gerber Fmt 4.6, Leading zero omitted, Abs format (unit mm)*
G04 Created by KiCad (PCBNEW (6.0.7)) date 2022-09-17 20:46:44*
%MOMM*%
%LPD*%
G01*
G04 APERTURE LIST*
G04 Aperture macros list*
%AMRoundRect*
0 Rectangle with rounded corners*
0 $1 Rounding radius*
0 $2 $3 $4 $5 $6 $7 $8 $9 X,Y pos of 4 corners*
0 Add a 4 corners polygon primitive as box body*
4,1,4,$2,$3,$4,$5,$6,$7,$8,$9,$2,$3,0*
0 Add four circle primitives for the rounded corners*
1,1,$1+$1,$2,$3*
1,1,$1+$1,$4,$5*
1,1,$1+$1,$6,$7*
1,1,$1+$1,$8,$9*
0 Add four rect primitives between the rounded corners*
20,1,$1+$1,$2,$3,$4,$5,0*
20,1,$1+$1,$4,$5,$6,$7,0*
20,1,$1+$1,$6,$7,$8,$9,0*
20,1,$1+$1,$8,$9,$2,$3,0*%
%AMFreePoly0*
4,1,9,5.362500,-0.866500,1.237500,-0.866500,1.237500,-0.450000,-1.237500,-0.450000,-1.237500,0.450000,1.237500,0.450000,1.237500,0.866500,5.362500,0.866500,5.362500,-0.866500,5.362500,-0.866500,$1*%
%AMFreePoly1*
4,1,22,0.500000,-0.750000,0.000000,-0.750000,0.000000,-0.745033,-0.079941,-0.743568,-0.215256,-0.701293,-0.333266,-0.622738,-0.424486,-0.514219,-0.481581,-0.384460,-0.499164,-0.250000,-0.500000,-0.250000,-0.500000,0.250000,-0.499164,0.250000,-0.499963,0.256109,-0.478152,0.396186,-0.417904,0.524511,-0.324060,0.630769,-0.204165,0.706417,-0.067858,0.745374,0.000000,0.744959,0.000000,0.750000,
0.500000,0.750000,0.500000,-0.750000,0.500000,-0.750000,$1*%
%AMFreePoly2*
4,1,20,0.000000,0.744959,0.073905,0.744508,0.209726,0.703889,0.328688,0.626782,0.421226,0.519385,0.479903,0.390333,0.500000,0.250000,0.500000,-0.250000,0.499851,-0.262216,0.476331,-0.402017,0.414519,-0.529596,0.319384,-0.634700,0.198574,-0.708877,0.061801,-0.746166,0.000000,-0.745033,0.000000,-0.750000,-0.500000,-0.750000,-0.500000,0.750000,0.000000,0.750000,0.000000,0.744959,
0.000000,0.744959,$1*%
G04 Aperture macros list end*
%ADD10C,0.120000*%
%ADD11C,0.100000*%
%ADD12C,0.150000*%
%ADD13C,0.250000*%
%ADD14R,0.400000X1.900000*%
%ADD15RoundRect,0.250000X-0.600000X-0.600000X0.600000X-0.600000X0.600000X0.600000X-0.600000X0.600000X0*%
%ADD16C,1.700000*%
%ADD17RoundRect,0.237500X0.300000X0.237500X-0.300000X0.237500X-0.300000X-0.237500X0.300000X-0.237500X0*%
%ADD18R,1.700000X1.700000*%
%ADD19O,1.700000X1.700000*%
%ADD20RoundRect,0.237500X0.237500X-0.300000X0.237500X0.300000X-0.237500X0.300000X-0.237500X-0.300000X0*%
%ADD21RoundRect,0.237500X-0.250000X-0.237500X0.250000X-0.237500X0.250000X0.237500X-0.250000X0.237500X0*%
%ADD22R,2.300000X0.900000*%
%ADD23FreePoly0,0.000000*%
%ADD24RoundRect,0.237500X-0.237500X0.287500X-0.237500X-0.287500X0.237500X-0.287500X0.237500X0.287500X0*%
%ADD25RoundRect,0.237500X-0.237500X0.250000X-0.237500X-0.250000X0.237500X-0.250000X0.237500X0.250000X0*%
%ADD26RoundRect,0.237500X-0.237500X0.300000X-0.237500X-0.300000X0.237500X-0.300000X0.237500X0.300000X0*%
%ADD27R,1.550000X0.400000*%
%ADD28R,1.900000X1.200000*%
%ADD29C,1.450000*%
%ADD30O,1.900000X1.200000*%
%ADD31R,1.900000X1.500000*%
%ADD32RoundRect,0.237500X0.237500X-0.250000X0.237500X0.250000X-0.237500X0.250000X-0.237500X-0.250000X0*%
%ADD33R,1.350000X1.350000*%
%ADD34O,1.350000X1.350000*%
%ADD35RoundRect,0.100000X-0.100000X0.637500X-0.100000X-0.637500X0.100000X-0.637500X0.100000X0.637500X0*%
%ADD36R,1.400000X2.000000*%
%ADD37RoundRect,0.237500X0.250000X0.237500X-0.250000X0.237500X-0.250000X-0.237500X0.250000X-0.237500X0*%
%ADD38RoundRect,0.237500X-0.300000X-0.237500X0.300000X-0.237500X0.300000X0.237500X-0.300000X0.237500X0*%
%ADD39FreePoly1,0.000000*%
%ADD40FreePoly2,0.000000*%
G04 APERTURE END LIST*
D10*
X154850000Y-99800000D02*
X155850000Y-99800000D01*
X155350000Y-100600000D02*
X154850000Y-99800000D01*
X155850000Y-99800000D02*
X155350000Y-100600000D01*
X147759000Y-97186000D02*
X148759000Y-97186000D01*
X148759000Y-97186000D02*
X148259000Y-97986000D01*
X148259000Y-97986000D02*
X147759000Y-97186000D01*
D11*
G36*
X128857200Y-93770000D02*
G01*
X131357200Y-93770000D01*
X131357200Y-93070000D01*
X132082200Y-93795000D01*
X128207200Y-93795000D01*
X128857200Y-93020000D01*
X128857200Y-93770000D01*
G37*
X128857200Y-93770000D02*
X131357200Y-93770000D01*
X131357200Y-93070000D01*
X132082200Y-93795000D01*
X128207200Y-93795000D01*
X128857200Y-93020000D01*
X128857200Y-93770000D01*
G36*
X131469200Y-111117000D02*
G01*
X131469200Y-110367000D01*
X128969200Y-110367000D01*
X128969200Y-111067000D01*
X128244200Y-110342000D01*
X132119200Y-110342000D01*
X131469200Y-111117000D01*
G37*
X131469200Y-111117000D02*
X131469200Y-110367000D01*
X128969200Y-110367000D01*
X128969200Y-111067000D01*
X128244200Y-110342000D01*
X132119200Y-110342000D01*
X131469200Y-111117000D01*
D10*
X133400000Y-104294600D02*
X133400000Y-94912600D01*
X133388800Y-104933900D02*
X134088800Y-104933900D01*
X133400000Y-94912600D02*
X134100000Y-94912600D01*
X133388800Y-104914900D02*
X133388800Y-109441400D01*
X134162000Y-100018000D02*
X133654000Y-100018000D01*
X133654000Y-104336000D02*
X133654000Y-100018000D01*
D12*
X134647619Y-95625533D02*
X133933333Y-95625533D01*
X133790476Y-95577914D01*
X133695238Y-95482676D01*
X133647619Y-95339819D01*
X133647619Y-95244580D01*
X134647619Y-95958866D02*
X134647619Y-96530295D01*
X133647619Y-96244580D02*
X134647619Y-96244580D01*
X133933333Y-96816009D02*
X133933333Y-97292200D01*
X133647619Y-96720771D02*
X134647619Y-97054104D01*
X133647619Y-97387438D01*
X134600000Y-98244580D02*
X134647619Y-98149342D01*
X134647619Y-98006485D01*
X134600000Y-97863628D01*
X134504761Y-97768390D01*
X134409523Y-97720771D01*
X134219047Y-97673152D01*
X134076190Y-97673152D01*
X133885714Y-97720771D01*
X133790476Y-97768390D01*
X133695238Y-97863628D01*
X133647619Y-98006485D01*
X133647619Y-98101723D01*
X133695238Y-98244580D01*
X133742857Y-98292200D01*
X134076190Y-98292200D01*
X134076190Y-98101723D01*
X133695238Y-105245914D02*
X133647619Y-105388771D01*
X133647619Y-105626866D01*
X133695238Y-105722104D01*
X133742857Y-105769723D01*
X133838095Y-105817342D01*
X133933333Y-105817342D01*
X134028571Y-105769723D01*
X134076190Y-105722104D01*
X134123809Y-105626866D01*
X134171428Y-105436390D01*
X134219047Y-105341152D01*
X134266666Y-105293533D01*
X134361904Y-105245914D01*
X134457142Y-105245914D01*
X134552380Y-105293533D01*
X134600000Y-105341152D01*
X134647619Y-105436390D01*
X134647619Y-105674485D01*
X134600000Y-105817342D01*
X134171428Y-106579247D02*
X134123809Y-106722104D01*
X134076190Y-106769723D01*
X133980952Y-106817342D01*
X133838095Y-106817342D01*
X133742857Y-106769723D01*
X133695238Y-106722104D01*
X133647619Y-106626866D01*
X133647619Y-106245914D01*
X134647619Y-106245914D01*
X134647619Y-106579247D01*
X134600000Y-106674485D01*
X134552380Y-106722104D01*
X134457142Y-106769723D01*
X134361904Y-106769723D01*
X134266666Y-106722104D01*
X134219047Y-106674485D01*
X134171428Y-106579247D01*
X134171428Y-106245914D01*
X134647619Y-107150676D02*
X133647619Y-107388771D01*
X134361904Y-107579247D01*
X133647619Y-107769723D01*
X134647619Y-108007819D01*
X133742857Y-108388771D02*
X133695238Y-108436390D01*
X133647619Y-108388771D01*
X133695238Y-108341152D01*
X133742857Y-108388771D01*
X133647619Y-108388771D01*
X134647619Y-108722104D02*
X134647619Y-109293533D01*
X133647619Y-109007819D02*
X134647619Y-109007819D01*
X133647619Y-109626866D02*
X134647619Y-109626866D01*
X148108380Y-89564380D02*
X148775047Y-90564380D01*
X148775047Y-89564380D02*
X148108380Y-90564380D01*
X149013142Y-89564380D02*
X149584571Y-89564380D01*
X149298857Y-90564380D02*
X149298857Y-89564380D01*
X149870285Y-90278666D02*
X150346476Y-90278666D01*
X149775047Y-90564380D02*
X150108380Y-89564380D01*
X150441714Y-90564380D01*
X151251238Y-90564380D02*
X150775047Y-90564380D01*
X150775047Y-89564380D01*
X124191963Y-110948000D02*
X124115773Y-110900380D01*
X124001487Y-110900380D01*
X123887201Y-110948000D01*
X123811011Y-111043238D01*
X123772916Y-111138476D01*
X123734820Y-111328952D01*
X123734820Y-111471809D01*
X123772916Y-111662285D01*
X123811011Y-111757523D01*
X123887201Y-111852761D01*
X124001487Y-111900380D01*
X124077678Y-111900380D01*
X124191963Y-111852761D01*
X124230059Y-111805142D01*
X124230059Y-111471809D01*
X124077678Y-111471809D01*
X124572916Y-111900380D02*
X124572916Y-110900380D01*
X125030059Y-111900380D01*
X125030059Y-110900380D01*
X125411011Y-111900380D02*
X125411011Y-110900380D01*
X125601487Y-110900380D01*
X125715773Y-110948000D01*
X125791963Y-111043238D01*
X125830059Y-111138476D01*
X125868154Y-111328952D01*
X125868154Y-111471809D01*
X125830059Y-111662285D01*
X125791963Y-111757523D01*
X125715773Y-111852761D01*
X125601487Y-111900380D01*
X125411011Y-111900380D01*
X136347142Y-119415023D02*
X135447142Y-119415023D01*
X135447142Y-119110261D01*
X135490000Y-119034071D01*
X135532857Y-118995976D01*
X135618571Y-118957880D01*
X135747142Y-118957880D01*
X135832857Y-118995976D01*
X135875714Y-119034071D01*
X135918571Y-119110261D01*
X135918571Y-119415023D01*
X135532857Y-118653119D02*
X135490000Y-118615023D01*
X135447142Y-118538833D01*
X135447142Y-118348357D01*
X135490000Y-118272166D01*
X135532857Y-118234071D01*
X135618571Y-118195976D01*
X135704285Y-118195976D01*
X135832857Y-118234071D01*
X136347142Y-118691214D01*
X136347142Y-118195976D01*
X136261428Y-117853119D02*
X136304285Y-117815023D01*
X136347142Y-117853119D01*
X136304285Y-117891214D01*
X136261428Y-117853119D01*
X136347142Y-117853119D01*
X135447142Y-117091214D02*
X135447142Y-117472166D01*
X135875714Y-117510261D01*
X135832857Y-117472166D01*
X135790000Y-117395976D01*
X135790000Y-117205500D01*
X135832857Y-117129309D01*
X135875714Y-117091214D01*
X135961428Y-117053119D01*
X136175714Y-117053119D01*
X136261428Y-117091214D01*
X136304285Y-117129309D01*
X136347142Y-117205500D01*
X136347142Y-117395976D01*
X136304285Y-117472166D01*
X136261428Y-117510261D01*
X131267142Y-89167785D02*
X130367142Y-89167785D01*
X130367142Y-88863023D01*
X130410000Y-88786833D01*
X130452857Y-88748738D01*
X130538571Y-88710642D01*
X130667142Y-88710642D01*
X130752857Y-88748738D01*
X130795714Y-88786833D01*
X130838571Y-88863023D01*
X130838571Y-89167785D01*
X131267142Y-87948738D02*
X131267142Y-88405880D01*
X131267142Y-88177309D02*
X130367142Y-88177309D01*
X130495714Y-88253500D01*
X130581428Y-88329690D01*
X130624285Y-88405880D01*
X131181428Y-87605880D02*
X131224285Y-87567785D01*
X131267142Y-87605880D01*
X131224285Y-87643976D01*
X131181428Y-87605880D01*
X131267142Y-87605880D01*
X130367142Y-87072547D02*
X130367142Y-86996357D01*
X130410000Y-86920166D01*
X130452857Y-86882071D01*
X130538571Y-86843976D01*
X130710000Y-86805880D01*
X130924285Y-86805880D01*
X131095714Y-86843976D01*
X131181428Y-86882071D01*
X131224285Y-86920166D01*
X131267142Y-86996357D01*
X131267142Y-87072547D01*
X131224285Y-87148738D01*
X131181428Y-87186833D01*
X131095714Y-87224928D01*
X130924285Y-87263023D01*
X130710000Y-87263023D01*
X130538571Y-87224928D01*
X130452857Y-87186833D01*
X130410000Y-87148738D01*
X130367142Y-87072547D01*
X124239119Y-109360380D02*
X123972452Y-108884190D01*
X123781976Y-109360380D02*
X123781976Y-108360380D01*
X124086738Y-108360380D01*
X124162928Y-108408000D01*
X124201023Y-108455619D01*
X124239119Y-108550857D01*
X124239119Y-108693714D01*
X124201023Y-108788952D01*
X124162928Y-108836571D01*
X124086738Y-108884190D01*
X123781976Y-108884190D01*
X124543880Y-109312761D02*
X124658166Y-109360380D01*
X124848642Y-109360380D01*
X124924833Y-109312761D01*
X124962928Y-109265142D01*
X125001023Y-109169904D01*
X125001023Y-109074666D01*
X124962928Y-108979428D01*
X124924833Y-108931809D01*
X124848642Y-108884190D01*
X124696261Y-108836571D01*
X124620071Y-108788952D01*
X124581976Y-108741333D01*
X124543880Y-108646095D01*
X124543880Y-108550857D01*
X124581976Y-108455619D01*
X124620071Y-108408000D01*
X124696261Y-108360380D01*
X124886738Y-108360380D01*
X125001023Y-108408000D01*
X125229595Y-108360380D02*
X125686738Y-108360380D01*
X125458166Y-109360380D02*
X125458166Y-108360380D01*
X143967142Y-89117972D02*
X143067142Y-89117972D01*
X143067142Y-88813210D01*
X143110000Y-88737020D01*
X143152857Y-88698925D01*
X143238571Y-88660829D01*
X143367142Y-88660829D01*
X143452857Y-88698925D01*
X143495714Y-88737020D01*
X143538571Y-88813210D01*
X143538571Y-89117972D01*
X143967142Y-87898925D02*
X143967142Y-88356067D01*
X143967142Y-88127496D02*
X143067142Y-88127496D01*
X143195714Y-88203687D01*
X143281428Y-88279877D01*
X143324285Y-88356067D01*
X143881428Y-87556067D02*
X143924285Y-87517972D01*
X143967142Y-87556067D01*
X143924285Y-87594163D01*
X143881428Y-87556067D01*
X143967142Y-87556067D01*
X143067142Y-86794163D02*
X143067142Y-87175115D01*
X143495714Y-87213210D01*
X143452857Y-87175115D01*
X143410000Y-87098925D01*
X143410000Y-86908448D01*
X143452857Y-86832258D01*
X143495714Y-86794163D01*
X143581428Y-86756067D01*
X143795714Y-86756067D01*
X143881428Y-86794163D01*
X143924285Y-86832258D01*
X143967142Y-86908448D01*
X143967142Y-87098925D01*
X143924285Y-87175115D01*
X143881428Y-87213210D01*
D13*
X151051428Y-85420047D02*
X151051428Y-83720047D01*
X151451428Y-84934333D01*
X151851428Y-83720047D01*
X151851428Y-85420047D01*
X152365714Y-85339095D02*
X152537142Y-85420047D01*
X152822857Y-85420047D01*
X152937142Y-85339095D01*
X152994285Y-85258142D01*
X153051428Y-85096238D01*
X153051428Y-84934333D01*
X152994285Y-84772428D01*
X152937142Y-84691476D01*
X152822857Y-84610523D01*
X152594285Y-84529571D01*
X152480000Y-84448619D01*
X152422857Y-84367666D01*
X152365714Y-84205761D01*
X152365714Y-84043857D01*
X152422857Y-83881952D01*
X152480000Y-83801000D01*
X152594285Y-83720047D01*
X152880000Y-83720047D01*
X153051428Y-83801000D01*
X153565714Y-85420047D02*
X153565714Y-83720047D01*
X154022857Y-83720047D01*
X154137142Y-83801000D01*
X154194285Y-83881952D01*
X154251428Y-84043857D01*
X154251428Y-84286714D01*
X154194285Y-84448619D01*
X154137142Y-84529571D01*
X154022857Y-84610523D01*
X153565714Y-84610523D01*
X155280000Y-84286714D02*
X155280000Y-85420047D01*
X154994285Y-83639095D02*
X154708571Y-84853380D01*
X155451428Y-84853380D01*
X155794285Y-83720047D02*
X156537142Y-83720047D01*
X156137142Y-84367666D01*
X156308571Y-84367666D01*
X156422857Y-84448619D01*
X156480000Y-84529571D01*
X156537142Y-84691476D01*
X156537142Y-85096238D01*
X156480000Y-85258142D01*
X156422857Y-85339095D01*
X156308571Y-85420047D01*
X155965714Y-85420047D01*
X155851428Y-85339095D01*
X155794285Y-85258142D01*
X157280000Y-83720047D02*
X157394285Y-83720047D01*
X157508571Y-83801000D01*
X157565714Y-83881952D01*
X157622857Y-84043857D01*
X157680000Y-84367666D01*
X157680000Y-84772428D01*
X157622857Y-85096238D01*
X157565714Y-85258142D01*
X157508571Y-85339095D01*
X157394285Y-85420047D01*
X157280000Y-85420047D01*
X157165714Y-85339095D01*
X157108571Y-85258142D01*
X157051428Y-85096238D01*
X156994285Y-84772428D01*
X156994285Y-84367666D01*
X157051428Y-84043857D01*
X157108571Y-83881952D01*
X157165714Y-83801000D01*
X157280000Y-83720047D01*
X158594285Y-84529571D02*
X158194285Y-84529571D01*
X158194285Y-85420047D02*
X158194285Y-83720047D01*
X158765714Y-83720047D01*
X159908571Y-85420047D02*
X159508571Y-84610523D01*
X159222857Y-85420047D02*
X159222857Y-83720047D01*
X159680000Y-83720047D01*
X159794285Y-83801000D01*
X159851428Y-83881952D01*
X159908571Y-84043857D01*
X159908571Y-84286714D01*
X159851428Y-84448619D01*
X159794285Y-84529571D01*
X159680000Y-84610523D01*
X159222857Y-84610523D01*
X160994285Y-83720047D02*
X160422857Y-83720047D01*
X160365714Y-84529571D01*
X160422857Y-84448619D01*
X160537142Y-84367666D01*
X160822857Y-84367666D01*
X160937142Y-84448619D01*
X160994285Y-84529571D01*
X161051428Y-84691476D01*
X161051428Y-85096238D01*
X160994285Y-85258142D01*
X160937142Y-85339095D01*
X160822857Y-85420047D01*
X160537142Y-85420047D01*
X160422857Y-85339095D01*
X160365714Y-85258142D01*
X161451428Y-83720047D02*
X162251428Y-83720047D01*
X161737142Y-85420047D01*
X162594285Y-83720047D02*
X163337142Y-83720047D01*
X162937142Y-84367666D01*
X163108571Y-84367666D01*
X163222857Y-84448619D01*
X163280000Y-84529571D01*
X163337142Y-84691476D01*
X163337142Y-85096238D01*
X163280000Y-85258142D01*
X163222857Y-85339095D01*
X163108571Y-85420047D01*
X162765714Y-85420047D01*
X162651428Y-85339095D01*
X162594285Y-85258142D01*
X163908571Y-85420047D02*
X164137142Y-85420047D01*
X164251428Y-85339095D01*
X164308571Y-85258142D01*
X164422857Y-85015285D01*
X164480000Y-84691476D01*
X164480000Y-84043857D01*
X164422857Y-83881952D01*
X164365714Y-83801000D01*
X164251428Y-83720047D01*
X164022857Y-83720047D01*
X163908571Y-83801000D01*
X163851428Y-83881952D01*
X163794285Y-84043857D01*
X163794285Y-84448619D01*
X163851428Y-84610523D01*
X163908571Y-84691476D01*
X164022857Y-84772428D01*
X164251428Y-84772428D01*
X164365714Y-84691476D01*
X164422857Y-84610523D01*
X164480000Y-84448619D01*
X165908571Y-85420047D02*
X165908571Y-83720047D01*
X166365714Y-83720047D01*
X166480000Y-83801000D01*
X166537142Y-83881952D01*
X166594285Y-84043857D01*
X166594285Y-84286714D01*
X166537142Y-84448619D01*
X166480000Y-84529571D01*
X166365714Y-84610523D01*
X165908571Y-84610523D01*
X167108571Y-85420047D02*
X167108571Y-84286714D01*
X167108571Y-84610523D02*
X167165714Y-84448619D01*
X167222857Y-84367666D01*
X167337142Y-84286714D01*
X167451428Y-84286714D01*
X168022857Y-85420047D02*
X167908571Y-85339095D01*
X167851428Y-85258142D01*
X167794285Y-85096238D01*
X167794285Y-84610523D01*
X167851428Y-84448619D01*
X167908571Y-84367666D01*
X168022857Y-84286714D01*
X168194285Y-84286714D01*
X168308571Y-84367666D01*
X168365714Y-84448619D01*
X168422857Y-84610523D01*
X168422857Y-85096238D01*
X168365714Y-85258142D01*
X168308571Y-85339095D01*
X168194285Y-85420047D01*
X168022857Y-85420047D01*
X168765714Y-84286714D02*
X169222857Y-84286714D01*
X168937142Y-83720047D02*
X168937142Y-85177190D01*
X168994285Y-85339095D01*
X169108571Y-85420047D01*
X169222857Y-85420047D01*
X169794285Y-85420047D02*
X169680000Y-85339095D01*
X169622857Y-85258142D01*
X169565714Y-85096238D01*
X169565714Y-84610523D01*
X169622857Y-84448619D01*
X169680000Y-84367666D01*
X169794285Y-84286714D01*
X169965714Y-84286714D01*
X170080000Y-84367666D01*
X170137142Y-84448619D01*
X170194285Y-84610523D01*
X170194285Y-85096238D01*
X170137142Y-85258142D01*
X170080000Y-85339095D01*
X169965714Y-85420047D01*
X169794285Y-85420047D01*
X170708571Y-84772428D02*
X171622857Y-84772428D01*
X172194285Y-85420047D02*
X172194285Y-83720047D01*
X172194285Y-84367666D02*
X172308571Y-84286714D01*
X172537142Y-84286714D01*
X172651428Y-84367666D01*
X172708571Y-84448619D01*
X172765714Y-84610523D01*
X172765714Y-85096238D01*
X172708571Y-85258142D01*
X172651428Y-85339095D01*
X172537142Y-85420047D01*
X172308571Y-85420047D01*
X172194285Y-85339095D01*
X173451428Y-85420047D02*
X173337142Y-85339095D01*
X173280000Y-85258142D01*
X173222857Y-85096238D01*
X173222857Y-84610523D01*
X173280000Y-84448619D01*
X173337142Y-84367666D01*
X173451428Y-84286714D01*
X173622857Y-84286714D01*
X173737142Y-84367666D01*
X173794285Y-84448619D01*
X173851428Y-84610523D01*
X173851428Y-85096238D01*
X173794285Y-85258142D01*
X173737142Y-85339095D01*
X173622857Y-85420047D01*
X173451428Y-85420047D01*
X174880000Y-85420047D02*
X174880000Y-84529571D01*
X174822857Y-84367666D01*
X174708571Y-84286714D01*
X174480000Y-84286714D01*
X174365714Y-84367666D01*
X174880000Y-85339095D02*
X174765714Y-85420047D01*
X174480000Y-85420047D01*
X174365714Y-85339095D01*
X174308571Y-85177190D01*
X174308571Y-85015285D01*
X174365714Y-84853380D01*
X174480000Y-84772428D01*
X174765714Y-84772428D01*
X174880000Y-84691476D01*
X175451428Y-85420047D02*
X175451428Y-84286714D01*
X175451428Y-84610523D02*
X175508571Y-84448619D01*
X175565714Y-84367666D01*
X175680000Y-84286714D01*
X175794285Y-84286714D01*
X176708571Y-85420047D02*
X176708571Y-83720047D01*
X176708571Y-85339095D02*
X176594285Y-85420047D01*
X176365714Y-85420047D01*
X176251428Y-85339095D01*
X176194285Y-85258142D01*
X176137142Y-85096238D01*
X176137142Y-84610523D01*
X176194285Y-84448619D01*
X176251428Y-84367666D01*
X176365714Y-84286714D01*
X176594285Y-84286714D01*
X176708571Y-84367666D01*
D12*
X110484285Y-84527380D02*
X110817619Y-85527380D01*
X111150952Y-84527380D01*
X111341428Y-84860714D02*
X111722380Y-84860714D01*
X111484285Y-84527380D02*
X111484285Y-85384523D01*
X111531904Y-85479761D01*
X111627142Y-85527380D01*
X111722380Y-85527380D01*
X112198571Y-85527380D02*
X112103333Y-85479761D01*
X112055714Y-85432142D01*
X112008095Y-85336904D01*
X112008095Y-85051190D01*
X112055714Y-84955952D01*
X112103333Y-84908333D01*
X112198571Y-84860714D01*
X112341428Y-84860714D01*
X112436666Y-84908333D01*
X112484285Y-84955952D01*
X112531904Y-85051190D01*
X112531904Y-85336904D01*
X112484285Y-85432142D01*
X112436666Y-85479761D01*
X112341428Y-85527380D01*
X112198571Y-85527380D01*
X113103333Y-85527380D02*
X113008095Y-85479761D01*
X112960476Y-85432142D01*
X112912857Y-85336904D01*
X112912857Y-85051190D01*
X112960476Y-84955952D01*
X113008095Y-84908333D01*
X113103333Y-84860714D01*
X113246190Y-84860714D01*
X113341428Y-84908333D01*
X113389047Y-84955952D01*
X113436666Y-85051190D01*
X113436666Y-85336904D01*
X113389047Y-85432142D01*
X113341428Y-85479761D01*
X113246190Y-85527380D01*
X113103333Y-85527380D01*
X114008095Y-85527380D02*
X113912857Y-85479761D01*
X113865238Y-85384523D01*
X113865238Y-84527380D01*
X145308461Y-109050142D02*
X145308461Y-109264428D01*
X145117985Y-109178714D02*
X145308461Y-109264428D01*
X145498938Y-109178714D01*
X145194176Y-109435857D02*
X145308461Y-109264428D01*
X145422747Y-109435857D01*
X141427142Y-89129734D02*
X140527142Y-89129734D01*
X140527142Y-88824972D01*
X140570000Y-88748782D01*
X140612857Y-88710687D01*
X140698571Y-88672591D01*
X140827142Y-88672591D01*
X140912857Y-88710687D01*
X140955714Y-88748782D01*
X140998571Y-88824972D01*
X140998571Y-89129734D01*
X141427142Y-87910687D02*
X141427142Y-88367829D01*
X141427142Y-88139258D02*
X140527142Y-88139258D01*
X140655714Y-88215449D01*
X140741428Y-88291639D01*
X140784285Y-88367829D01*
X141341428Y-87567829D02*
X141384285Y-87529734D01*
X141427142Y-87567829D01*
X141384285Y-87605925D01*
X141341428Y-87567829D01*
X141427142Y-87567829D01*
X140827142Y-86844020D02*
X141427142Y-86844020D01*
X140484285Y-87034496D02*
X141127142Y-87224972D01*
X141127142Y-86729734D01*
X146507142Y-119415023D02*
X145607142Y-119415023D01*
X145607142Y-119110261D01*
X145650000Y-119034071D01*
X145692857Y-118995976D01*
X145778571Y-118957880D01*
X145907142Y-118957880D01*
X145992857Y-118995976D01*
X146035714Y-119034071D01*
X146078571Y-119110261D01*
X146078571Y-119415023D01*
X145607142Y-118691214D02*
X145607142Y-118195976D01*
X145950000Y-118462642D01*
X145950000Y-118348357D01*
X145992857Y-118272166D01*
X146035714Y-118234071D01*
X146121428Y-118195976D01*
X146335714Y-118195976D01*
X146421428Y-118234071D01*
X146464285Y-118272166D01*
X146507142Y-118348357D01*
X146507142Y-118576928D01*
X146464285Y-118653119D01*
X146421428Y-118691214D01*
X146421428Y-117853119D02*
X146464285Y-117815023D01*
X146507142Y-117853119D01*
X146464285Y-117891214D01*
X146421428Y-117853119D01*
X146507142Y-117853119D01*
X145607142Y-117319785D02*
X145607142Y-117243595D01*
X145650000Y-117167404D01*
X145692857Y-117129309D01*
X145778571Y-117091214D01*
X145950000Y-117053119D01*
X146164285Y-117053119D01*
X146335714Y-117091214D01*
X146421428Y-117129309D01*
X146464285Y-117167404D01*
X146507142Y-117243595D01*
X146507142Y-117319785D01*
X146464285Y-117395976D01*
X146421428Y-117434071D01*
X146335714Y-117472166D01*
X146164285Y-117510261D01*
X145950000Y-117510261D01*
X145778571Y-117472166D01*
X145692857Y-117434071D01*
X145650000Y-117395976D01*
X145607142Y-117319785D01*
X116042857Y-84502380D02*
X116376190Y-85502380D01*
X116709523Y-84502380D01*
X117042857Y-85502380D02*
X117042857Y-84835714D01*
X117042857Y-85026190D02*
X117090476Y-84930952D01*
X117138095Y-84883333D01*
X117233333Y-84835714D01*
X117328571Y-84835714D01*
X118042857Y-85454761D02*
X117947619Y-85502380D01*
X117757142Y-85502380D01*
X117661904Y-85454761D01*
X117614285Y-85359523D01*
X117614285Y-84978571D01*
X117661904Y-84883333D01*
X117757142Y-84835714D01*
X117947619Y-84835714D01*
X118042857Y-84883333D01*
X118090476Y-84978571D01*
X118090476Y-85073809D01*
X117614285Y-85169047D01*
X118376190Y-84835714D02*
X118757142Y-84835714D01*
X118519047Y-85502380D02*
X118519047Y-84645238D01*
X118566666Y-84550000D01*
X118661904Y-84502380D01*
X118757142Y-84502380D01*
X131267142Y-119394265D02*
X130367142Y-119394265D01*
X130367142Y-119089503D01*
X130410000Y-119013313D01*
X130452857Y-118975218D01*
X130538571Y-118937122D01*
X130667142Y-118937122D01*
X130752857Y-118975218D01*
X130795714Y-119013313D01*
X130838571Y-119089503D01*
X130838571Y-119394265D01*
X130452857Y-118632361D02*
X130410000Y-118594265D01*
X130367142Y-118518075D01*
X130367142Y-118327599D01*
X130410000Y-118251408D01*
X130452857Y-118213313D01*
X130538571Y-118175218D01*
X130624285Y-118175218D01*
X130752857Y-118213313D01*
X131267142Y-118670456D01*
X131267142Y-118175218D01*
X131181428Y-117832361D02*
X131224285Y-117794265D01*
X131267142Y-117832361D01*
X131224285Y-117870456D01*
X131181428Y-117832361D01*
X131267142Y-117832361D01*
X130367142Y-117527599D02*
X130367142Y-117032361D01*
X130710000Y-117299027D01*
X130710000Y-117184742D01*
X130752857Y-117108551D01*
X130795714Y-117070456D01*
X130881428Y-117032361D01*
X131095714Y-117032361D01*
X131181428Y-117070456D01*
X131224285Y-117108551D01*
X131267142Y-117184742D01*
X131267142Y-117413313D01*
X131224285Y-117489503D01*
X131181428Y-117527599D01*
X138887142Y-89141496D02*
X137987142Y-89141496D01*
X137987142Y-88836734D01*
X138030000Y-88760544D01*
X138072857Y-88722449D01*
X138158571Y-88684353D01*
X138287142Y-88684353D01*
X138372857Y-88722449D01*
X138415714Y-88760544D01*
X138458571Y-88836734D01*
X138458571Y-89141496D01*
X138887142Y-87922449D02*
X138887142Y-88379591D01*
X138887142Y-88151020D02*
X137987142Y-88151020D01*
X138115714Y-88227211D01*
X138201428Y-88303401D01*
X138244285Y-88379591D01*
X138801428Y-87579591D02*
X138844285Y-87541496D01*
X138887142Y-87579591D01*
X138844285Y-87617687D01*
X138801428Y-87579591D01*
X138887142Y-87579591D01*
X137987142Y-87274830D02*
X137987142Y-86779591D01*
X138330000Y-87046258D01*
X138330000Y-86931972D01*
X138372857Y-86855782D01*
X138415714Y-86817687D01*
X138501428Y-86779591D01*
X138715714Y-86779591D01*
X138801428Y-86817687D01*
X138844285Y-86855782D01*
X138887142Y-86931972D01*
X138887142Y-87160544D01*
X138844285Y-87236734D01*
X138801428Y-87274830D01*
X151672714Y-86246476D02*
X151577476Y-86198857D01*
X151387000Y-86198857D01*
X151291761Y-86246476D01*
X151196523Y-86341714D01*
X151148904Y-86436952D01*
X151148904Y-86627428D01*
X151196523Y-86722666D01*
X151291761Y-86817904D01*
X151387000Y-86865523D01*
X151577476Y-86865523D01*
X151672714Y-86817904D01*
X151482238Y-85865523D02*
X151244142Y-85913142D01*
X151006047Y-86056000D01*
X150863190Y-86294095D01*
X150815571Y-86532190D01*
X150863190Y-86770285D01*
X151006047Y-87008380D01*
X151244142Y-87151238D01*
X151482238Y-87198857D01*
X151720333Y-87151238D01*
X151958428Y-87008380D01*
X152101285Y-86770285D01*
X152148904Y-86532190D01*
X152101285Y-86294095D01*
X151958428Y-86056000D01*
X151720333Y-85913142D01*
X151482238Y-85865523D01*
X152529857Y-86103619D02*
X152577476Y-86056000D01*
X152672714Y-86008380D01*
X152910809Y-86008380D01*
X153006047Y-86056000D01*
X153053666Y-86103619D01*
X153101285Y-86198857D01*
X153101285Y-86294095D01*
X153053666Y-86436952D01*
X152482238Y-87008380D01*
X153101285Y-87008380D01*
X153720333Y-86008380D02*
X153815571Y-86008380D01*
X153910809Y-86056000D01*
X153958428Y-86103619D01*
X154006047Y-86198857D01*
X154053666Y-86389333D01*
X154053666Y-86627428D01*
X154006047Y-86817904D01*
X153958428Y-86913142D01*
X153910809Y-86960761D01*
X153815571Y-87008380D01*
X153720333Y-87008380D01*
X153625095Y-86960761D01*
X153577476Y-86913142D01*
X153529857Y-86817904D01*
X153482238Y-86627428D01*
X153482238Y-86389333D01*
X153529857Y-86198857D01*
X153577476Y-86103619D01*
X153625095Y-86056000D01*
X153720333Y-86008380D01*
X154434619Y-86103619D02*
X154482238Y-86056000D01*
X154577476Y-86008380D01*
X154815571Y-86008380D01*
X154910809Y-86056000D01*
X154958428Y-86103619D01*
X155006047Y-86198857D01*
X155006047Y-86294095D01*
X154958428Y-86436952D01*
X154387000Y-87008380D01*
X155006047Y-87008380D01*
X155387000Y-86103619D02*
X155434619Y-86056000D01*
X155529857Y-86008380D01*
X155767952Y-86008380D01*
X155863190Y-86056000D01*
X155910809Y-86103619D01*
X155958428Y-86198857D01*
X155958428Y-86294095D01*
X155910809Y-86436952D01*
X155339380Y-87008380D01*
X155958428Y-87008380D01*
X157577476Y-86341714D02*
X157577476Y-87151238D01*
X157529857Y-87246476D01*
X157482238Y-87294095D01*
X157387000Y-87341714D01*
X157244142Y-87341714D01*
X157148904Y-87294095D01*
X157577476Y-86960761D02*
X157482238Y-87008380D01*
X157291761Y-87008380D01*
X157196523Y-86960761D01*
X157148904Y-86913142D01*
X157101285Y-86817904D01*
X157101285Y-86532190D01*
X157148904Y-86436952D01*
X157196523Y-86389333D01*
X157291761Y-86341714D01*
X157482238Y-86341714D01*
X157577476Y-86389333D01*
X158053666Y-87008380D02*
X158053666Y-86341714D01*
X158053666Y-86532190D02*
X158101285Y-86436952D01*
X158148904Y-86389333D01*
X158244142Y-86341714D01*
X158339380Y-86341714D01*
X159101285Y-86341714D02*
X159101285Y-87008380D01*
X158672714Y-86341714D02*
X158672714Y-86865523D01*
X158720333Y-86960761D01*
X158815571Y-87008380D01*
X158958428Y-87008380D01*
X159053666Y-86960761D01*
X159101285Y-86913142D01*
X159577476Y-87008380D02*
X159577476Y-86341714D01*
X159577476Y-86436952D02*
X159625095Y-86389333D01*
X159720333Y-86341714D01*
X159863190Y-86341714D01*
X159958428Y-86389333D01*
X160006047Y-86484571D01*
X160006047Y-87008380D01*
X160006047Y-86484571D02*
X160053666Y-86389333D01*
X160148904Y-86341714D01*
X160291761Y-86341714D01*
X160387000Y-86389333D01*
X160434619Y-86484571D01*
X160434619Y-87008380D01*
X161339380Y-87008380D02*
X161339380Y-86484571D01*
X161291761Y-86389333D01*
X161196523Y-86341714D01*
X161006047Y-86341714D01*
X160910809Y-86389333D01*
X161339380Y-86960761D02*
X161244142Y-87008380D01*
X161006047Y-87008380D01*
X160910809Y-86960761D01*
X160863190Y-86865523D01*
X160863190Y-86770285D01*
X160910809Y-86675047D01*
X161006047Y-86627428D01*
X161244142Y-86627428D01*
X161339380Y-86579809D01*
X161672714Y-86341714D02*
X162053666Y-86341714D01*
X161815571Y-86008380D02*
X161815571Y-86865523D01*
X161863190Y-86960761D01*
X161958428Y-87008380D01*
X162053666Y-87008380D01*
X151587142Y-119415023D02*
X150687142Y-119415023D01*
X150687142Y-119110261D01*
X150730000Y-119034071D01*
X150772857Y-118995976D01*
X150858571Y-118957880D01*
X150987142Y-118957880D01*
X151072857Y-118995976D01*
X151115714Y-119034071D01*
X151158571Y-119110261D01*
X151158571Y-119415023D01*
X150687142Y-118691214D02*
X150687142Y-118195976D01*
X151030000Y-118462642D01*
X151030000Y-118348357D01*
X151072857Y-118272166D01*
X151115714Y-118234071D01*
X151201428Y-118195976D01*
X151415714Y-118195976D01*
X151501428Y-118234071D01*
X151544285Y-118272166D01*
X151587142Y-118348357D01*
X151587142Y-118576928D01*
X151544285Y-118653119D01*
X151501428Y-118691214D01*
X151501428Y-117853119D02*
X151544285Y-117815023D01*
X151587142Y-117853119D01*
X151544285Y-117891214D01*
X151501428Y-117853119D01*
X151587142Y-117853119D01*
X150772857Y-117510261D02*
X150730000Y-117472166D01*
X150687142Y-117395976D01*
X150687142Y-117205500D01*
X150730000Y-117129309D01*
X150772857Y-117091214D01*
X150858571Y-117053119D01*
X150944285Y-117053119D01*
X151072857Y-117091214D01*
X151587142Y-117548357D01*
X151587142Y-117053119D01*
X123667690Y-100740380D02*
X124124833Y-100740380D01*
X123896261Y-101740380D02*
X123896261Y-100740380D01*
X124391500Y-101740380D02*
X124391500Y-100740380D01*
X124581976Y-100740380D01*
X124696261Y-100788000D01*
X124772452Y-100883238D01*
X124810547Y-100978476D01*
X124848642Y-101168952D01*
X124848642Y-101311809D01*
X124810547Y-101502285D01*
X124772452Y-101597523D01*
X124696261Y-101692761D01*
X124581976Y-101740380D01*
X124391500Y-101740380D01*
X125191500Y-101740380D02*
X125191500Y-100740380D01*
X133837142Y-119482023D02*
X132937142Y-119482023D01*
X132937142Y-119177261D01*
X132980000Y-119101071D01*
X133022857Y-119062976D01*
X133108571Y-119024880D01*
X133237142Y-119024880D01*
X133322857Y-119062976D01*
X133365714Y-119101071D01*
X133408571Y-119177261D01*
X133408571Y-119482023D01*
X133022857Y-118720119D02*
X132980000Y-118682023D01*
X132937142Y-118605833D01*
X132937142Y-118415357D01*
X132980000Y-118339166D01*
X133022857Y-118301071D01*
X133108571Y-118262976D01*
X133194285Y-118262976D01*
X133322857Y-118301071D01*
X133837142Y-118758214D01*
X133837142Y-118262976D01*
X133751428Y-117920119D02*
X133794285Y-117882023D01*
X133837142Y-117920119D01*
X133794285Y-117958214D01*
X133751428Y-117920119D01*
X133837142Y-117920119D01*
X133237142Y-117196309D02*
X133837142Y-117196309D01*
X132894285Y-117386785D02*
X133537142Y-117577261D01*
X133537142Y-117082023D01*
X149047142Y-119415023D02*
X148147142Y-119415023D01*
X148147142Y-119110261D01*
X148190000Y-119034071D01*
X148232857Y-118995976D01*
X148318571Y-118957880D01*
X148447142Y-118957880D01*
X148532857Y-118995976D01*
X148575714Y-119034071D01*
X148618571Y-119110261D01*
X148618571Y-119415023D01*
X148147142Y-118691214D02*
X148147142Y-118195976D01*
X148490000Y-118462642D01*
X148490000Y-118348357D01*
X148532857Y-118272166D01*
X148575714Y-118234071D01*
X148661428Y-118195976D01*
X148875714Y-118195976D01*
X148961428Y-118234071D01*
X149004285Y-118272166D01*
X149047142Y-118348357D01*
X149047142Y-118576928D01*
X149004285Y-118653119D01*
X148961428Y-118691214D01*
X148961428Y-117853119D02*
X149004285Y-117815023D01*
X149047142Y-117853119D01*
X149004285Y-117891214D01*
X148961428Y-117853119D01*
X149047142Y-117853119D01*
X149047142Y-117053119D02*
X149047142Y-117510261D01*
X149047142Y-117281690D02*
X148147142Y-117281690D01*
X148275714Y-117357880D01*
X148361428Y-117434071D01*
X148404285Y-117510261D01*
X134963619Y-100544071D02*
X134963619Y-100734547D01*
X134916000Y-100829785D01*
X134820761Y-100925023D01*
X134630285Y-100972642D01*
X134296952Y-100972642D01*
X134106476Y-100925023D01*
X134011238Y-100829785D01*
X133963619Y-100734547D01*
X133963619Y-100544071D01*
X134011238Y-100448833D01*
X134106476Y-100353595D01*
X134296952Y-100305976D01*
X134630285Y-100305976D01*
X134820761Y-100353595D01*
X134916000Y-100448833D01*
X134963619Y-100544071D01*
X133963619Y-101877404D02*
X133963619Y-101401214D01*
X134963619Y-101401214D01*
X134963619Y-102115500D02*
X133963619Y-102782166D01*
X134963619Y-102782166D02*
X133963619Y-102115500D01*
X123658630Y-95660380D02*
X124115773Y-95660380D01*
X123887201Y-96660380D02*
X123887201Y-95660380D01*
X124382440Y-96660380D02*
X124382440Y-95660380D01*
X124649106Y-96374666D01*
X124915773Y-95660380D01*
X124915773Y-96660380D01*
X125258630Y-96612761D02*
X125372916Y-96660380D01*
X125563392Y-96660380D01*
X125639582Y-96612761D01*
X125677678Y-96565142D01*
X125715773Y-96469904D01*
X125715773Y-96374666D01*
X125677678Y-96279428D01*
X125639582Y-96231809D01*
X125563392Y-96184190D01*
X125411011Y-96136571D01*
X125334820Y-96088952D01*
X125296725Y-96041333D01*
X125258630Y-95946095D01*
X125258630Y-95850857D01*
X125296725Y-95755619D01*
X125334820Y-95708000D01*
X125411011Y-95660380D01*
X125601487Y-95660380D01*
X125715773Y-95708000D01*
X128727142Y-119415023D02*
X127827142Y-119415023D01*
X127827142Y-119110261D01*
X127870000Y-119034071D01*
X127912857Y-118995976D01*
X127998571Y-118957880D01*
X128127142Y-118957880D01*
X128212857Y-118995976D01*
X128255714Y-119034071D01*
X128298571Y-119110261D01*
X128298571Y-119415023D01*
X127912857Y-118653119D02*
X127870000Y-118615023D01*
X127827142Y-118538833D01*
X127827142Y-118348357D01*
X127870000Y-118272166D01*
X127912857Y-118234071D01*
X127998571Y-118195976D01*
X128084285Y-118195976D01*
X128212857Y-118234071D01*
X128727142Y-118691214D01*
X128727142Y-118195976D01*
X128641428Y-117853119D02*
X128684285Y-117815023D01*
X128727142Y-117853119D01*
X128684285Y-117891214D01*
X128641428Y-117853119D01*
X128727142Y-117853119D01*
X127912857Y-117510261D02*
X127870000Y-117472166D01*
X127827142Y-117395976D01*
X127827142Y-117205500D01*
X127870000Y-117129309D01*
X127912857Y-117091214D01*
X127998571Y-117053119D01*
X128084285Y-117053119D01*
X128212857Y-117091214D01*
X128727142Y-117548357D01*
X128727142Y-117053119D01*
X133807142Y-89165019D02*
X132907142Y-89165019D01*
X132907142Y-88860257D01*
X132950000Y-88784067D01*
X132992857Y-88745972D01*
X133078571Y-88707876D01*
X133207142Y-88707876D01*
X133292857Y-88745972D01*
X133335714Y-88784067D01*
X133378571Y-88860257D01*
X133378571Y-89165019D01*
X133807142Y-87945972D02*
X133807142Y-88403114D01*
X133807142Y-88174543D02*
X132907142Y-88174543D01*
X133035714Y-88250734D01*
X133121428Y-88326924D01*
X133164285Y-88403114D01*
X133721428Y-87603114D02*
X133764285Y-87565019D01*
X133807142Y-87603114D01*
X133764285Y-87641210D01*
X133721428Y-87603114D01*
X133807142Y-87603114D01*
X133807142Y-86803114D02*
X133807142Y-87260257D01*
X133807142Y-87031686D02*
X132907142Y-87031686D01*
X133035714Y-87107876D01*
X133121428Y-87184067D01*
X133164285Y-87260257D01*
X161747142Y-119462760D02*
X160847142Y-119462760D01*
X160847142Y-119157998D01*
X160890000Y-119081808D01*
X160932857Y-119043713D01*
X161018571Y-119005617D01*
X161147142Y-119005617D01*
X161232857Y-119043713D01*
X161275714Y-119081808D01*
X161318571Y-119157998D01*
X161318571Y-119462760D01*
X160847142Y-118738951D02*
X160847142Y-118243713D01*
X161190000Y-118510379D01*
X161190000Y-118396094D01*
X161232857Y-118319903D01*
X161275714Y-118281808D01*
X161361428Y-118243713D01*
X161575714Y-118243713D01*
X161661428Y-118281808D01*
X161704285Y-118319903D01*
X161747142Y-118396094D01*
X161747142Y-118624665D01*
X161704285Y-118700856D01*
X161661428Y-118738951D01*
X161661428Y-117900856D02*
X161704285Y-117862760D01*
X161747142Y-117900856D01*
X161704285Y-117938951D01*
X161661428Y-117900856D01*
X161747142Y-117900856D01*
X160847142Y-117177046D02*
X160847142Y-117329427D01*
X160890000Y-117405617D01*
X160932857Y-117443713D01*
X161061428Y-117519903D01*
X161232857Y-117557998D01*
X161575714Y-117557998D01*
X161661428Y-117519903D01*
X161704285Y-117481808D01*
X161747142Y-117405617D01*
X161747142Y-117253237D01*
X161704285Y-117177046D01*
X161661428Y-117138951D01*
X161575714Y-117100856D01*
X161361428Y-117100856D01*
X161275714Y-117138951D01*
X161232857Y-117177046D01*
X161190000Y-117253237D01*
X161190000Y-117405617D01*
X161232857Y-117481808D01*
X161275714Y-117519903D01*
X161361428Y-117557998D01*
X136347142Y-89153257D02*
X135447142Y-89153257D01*
X135447142Y-88848495D01*
X135490000Y-88772305D01*
X135532857Y-88734210D01*
X135618571Y-88696114D01*
X135747142Y-88696114D01*
X135832857Y-88734210D01*
X135875714Y-88772305D01*
X135918571Y-88848495D01*
X135918571Y-89153257D01*
X136347142Y-87934210D02*
X136347142Y-88391352D01*
X136347142Y-88162781D02*
X135447142Y-88162781D01*
X135575714Y-88238972D01*
X135661428Y-88315162D01*
X135704285Y-88391352D01*
X136261428Y-87591352D02*
X136304285Y-87553257D01*
X136347142Y-87591352D01*
X136304285Y-87629448D01*
X136261428Y-87591352D01*
X136347142Y-87591352D01*
X135532857Y-87248495D02*
X135490000Y-87210400D01*
X135447142Y-87134210D01*
X135447142Y-86943733D01*
X135490000Y-86867543D01*
X135532857Y-86829448D01*
X135618571Y-86791352D01*
X135704285Y-86791352D01*
X135832857Y-86829448D01*
X136347142Y-87286591D01*
X136347142Y-86791352D01*
X159207142Y-119482023D02*
X158307142Y-119482023D01*
X158307142Y-119177261D01*
X158350000Y-119101071D01*
X158392857Y-119062976D01*
X158478571Y-119024880D01*
X158607142Y-119024880D01*
X158692857Y-119062976D01*
X158735714Y-119101071D01*
X158778571Y-119177261D01*
X158778571Y-119482023D01*
X158307142Y-118758214D02*
X158307142Y-118262976D01*
X158650000Y-118529642D01*
X158650000Y-118415357D01*
X158692857Y-118339166D01*
X158735714Y-118301071D01*
X158821428Y-118262976D01*
X159035714Y-118262976D01*
X159121428Y-118301071D01*
X159164285Y-118339166D01*
X159207142Y-118415357D01*
X159207142Y-118643928D01*
X159164285Y-118720119D01*
X159121428Y-118758214D01*
X159121428Y-117920119D02*
X159164285Y-117882023D01*
X159207142Y-117920119D01*
X159164285Y-117958214D01*
X159121428Y-117920119D01*
X159207142Y-117920119D01*
X158307142Y-117158214D02*
X158307142Y-117539166D01*
X158735714Y-117577261D01*
X158692857Y-117539166D01*
X158650000Y-117462976D01*
X158650000Y-117272500D01*
X158692857Y-117196309D01*
X158735714Y-117158214D01*
X158821428Y-117120119D01*
X159035714Y-117120119D01*
X159121428Y-117158214D01*
X159164285Y-117196309D01*
X159207142Y-117272500D01*
X159207142Y-117462976D01*
X159164285Y-117539166D01*
X159121428Y-117577261D01*
X123667690Y-103280380D02*
X124124833Y-103280380D01*
X123896261Y-104280380D02*
X123896261Y-103280380D01*
X124391500Y-104280380D02*
X124391500Y-103280380D01*
X124581976Y-103280380D01*
X124696261Y-103328000D01*
X124772452Y-103423238D01*
X124810547Y-103518476D01*
X124848642Y-103708952D01*
X124848642Y-103851809D01*
X124810547Y-104042285D01*
X124772452Y-104137523D01*
X124696261Y-104232761D01*
X124581976Y-104280380D01*
X124391500Y-104280380D01*
X125343880Y-103280380D02*
X125496261Y-103280380D01*
X125572452Y-103328000D01*
X125648642Y-103423238D01*
X125686738Y-103613714D01*
X125686738Y-103947047D01*
X125648642Y-104137523D01*
X125572452Y-104232761D01*
X125496261Y-104280380D01*
X125343880Y-104280380D01*
X125267690Y-104232761D01*
X125191500Y-104137523D01*
X125153404Y-103947047D01*
X125153404Y-103613714D01*
X125191500Y-103423238D01*
X125267690Y-103328000D01*
X125343880Y-103280380D01*
X146507142Y-89106210D02*
X145607142Y-89106210D01*
X145607142Y-88801448D01*
X145650000Y-88725258D01*
X145692857Y-88687163D01*
X145778571Y-88649067D01*
X145907142Y-88649067D01*
X145992857Y-88687163D01*
X146035714Y-88725258D01*
X146078571Y-88801448D01*
X146078571Y-89106210D01*
X146507142Y-87887163D02*
X146507142Y-88344305D01*
X146507142Y-88115734D02*
X145607142Y-88115734D01*
X145735714Y-88191925D01*
X145821428Y-88268115D01*
X145864285Y-88344305D01*
X146421428Y-87544305D02*
X146464285Y-87506210D01*
X146507142Y-87544305D01*
X146464285Y-87582401D01*
X146421428Y-87544305D01*
X146507142Y-87544305D01*
X145607142Y-86820496D02*
X145607142Y-86972877D01*
X145650000Y-87049067D01*
X145692857Y-87087163D01*
X145821428Y-87163353D01*
X145992857Y-87201448D01*
X146335714Y-87201448D01*
X146421428Y-87163353D01*
X146464285Y-87125258D01*
X146507142Y-87049067D01*
X146507142Y-86896686D01*
X146464285Y-86820496D01*
X146421428Y-86782401D01*
X146335714Y-86744305D01*
X146121428Y-86744305D01*
X146035714Y-86782401D01*
X145992857Y-86820496D01*
X145950000Y-86896686D01*
X145950000Y-87049067D01*
X145992857Y-87125258D01*
X146035714Y-87163353D01*
X146121428Y-87201448D01*
X138887142Y-119408017D02*
X137987142Y-119408017D01*
X137987142Y-119103255D01*
X138030000Y-119027065D01*
X138072857Y-118988970D01*
X138158571Y-118950874D01*
X138287142Y-118950874D01*
X138372857Y-118988970D01*
X138415714Y-119027065D01*
X138458571Y-119103255D01*
X138458571Y-119408017D01*
X138072857Y-118646113D02*
X138030000Y-118608017D01*
X137987142Y-118531827D01*
X137987142Y-118341351D01*
X138030000Y-118265160D01*
X138072857Y-118227065D01*
X138158571Y-118188970D01*
X138244285Y-118188970D01*
X138372857Y-118227065D01*
X138887142Y-118684208D01*
X138887142Y-118188970D01*
X138801428Y-117846113D02*
X138844285Y-117808017D01*
X138887142Y-117846113D01*
X138844285Y-117884208D01*
X138801428Y-117846113D01*
X138887142Y-117846113D01*
X137987142Y-117122303D02*
X137987142Y-117274684D01*
X138030000Y-117350874D01*
X138072857Y-117388970D01*
X138201428Y-117465160D01*
X138372857Y-117503255D01*
X138715714Y-117503255D01*
X138801428Y-117465160D01*
X138844285Y-117427065D01*
X138887142Y-117350874D01*
X138887142Y-117198494D01*
X138844285Y-117122303D01*
X138801428Y-117084208D01*
X138715714Y-117046113D01*
X138501428Y-117046113D01*
X138415714Y-117084208D01*
X138372857Y-117122303D01*
X138330000Y-117198494D01*
X138330000Y-117350874D01*
X138372857Y-117427065D01*
X138415714Y-117465160D01*
X138501428Y-117503255D01*
X166102642Y-119428025D02*
X165202642Y-119428025D01*
X165202642Y-119123263D01*
X165245500Y-119047073D01*
X165288357Y-119008978D01*
X165374071Y-118970882D01*
X165502642Y-118970882D01*
X165588357Y-119008978D01*
X165631214Y-119047073D01*
X165674071Y-119123263D01*
X165674071Y-119428025D01*
X165502642Y-118285168D02*
X166102642Y-118285168D01*
X165159785Y-118475644D02*
X165802642Y-118666121D01*
X165802642Y-118170882D01*
X166016928Y-117866121D02*
X166059785Y-117828025D01*
X166102642Y-117866121D01*
X166059785Y-117904216D01*
X166016928Y-117866121D01*
X166102642Y-117866121D01*
X165502642Y-117142311D02*
X166102642Y-117142311D01*
X165159785Y-117332787D02*
X165802642Y-117523263D01*
X165802642Y-117028025D01*
X165202642Y-115999454D02*
X165416928Y-115999454D01*
X165331214Y-116189930D02*
X165416928Y-115999454D01*
X165331214Y-115808978D01*
X165588357Y-116113740D02*
X165416928Y-115999454D01*
X165588357Y-115885168D01*
X166651642Y-119542311D02*
X167551642Y-119275644D01*
X166651642Y-119008978D01*
X167465928Y-118285168D02*
X167508785Y-118323263D01*
X167551642Y-118437549D01*
X167551642Y-118513740D01*
X167508785Y-118628025D01*
X167423071Y-118704216D01*
X167337357Y-118742311D01*
X167165928Y-118780406D01*
X167037357Y-118780406D01*
X166865928Y-118742311D01*
X166780214Y-118704216D01*
X166694500Y-118628025D01*
X166651642Y-118513740D01*
X166651642Y-118437549D01*
X166694500Y-118323263D01*
X166737357Y-118285168D01*
X166651642Y-117789930D02*
X166651642Y-117637549D01*
X166694500Y-117561359D01*
X166780214Y-117485168D01*
X166951642Y-117447073D01*
X167251642Y-117447073D01*
X167423071Y-117485168D01*
X167508785Y-117561359D01*
X167551642Y-117637549D01*
X167551642Y-117789930D01*
X167508785Y-117866121D01*
X167423071Y-117942311D01*
X167251642Y-117980406D01*
X166951642Y-117980406D01*
X166780214Y-117942311D01*
X166694500Y-117866121D01*
X166651642Y-117789930D01*
X167551642Y-116647073D02*
X167123071Y-116913740D01*
X167551642Y-117104216D02*
X166651642Y-117104216D01*
X166651642Y-116799454D01*
X166694500Y-116723263D01*
X166737357Y-116685168D01*
X166823071Y-116647073D01*
X166951642Y-116647073D01*
X167037357Y-116685168D01*
X167080214Y-116723263D01*
X167123071Y-116799454D01*
X167123071Y-117104216D01*
X167080214Y-116304216D02*
X167080214Y-116037549D01*
X167551642Y-115923263D02*
X167551642Y-116304216D01*
X166651642Y-116304216D01*
X166651642Y-115923263D01*
X156667142Y-119415023D02*
X155767142Y-119415023D01*
X155767142Y-119110261D01*
X155810000Y-119034071D01*
X155852857Y-118995976D01*
X155938571Y-118957880D01*
X156067142Y-118957880D01*
X156152857Y-118995976D01*
X156195714Y-119034071D01*
X156238571Y-119110261D01*
X156238571Y-119415023D01*
X155767142Y-118691214D02*
X155767142Y-118195976D01*
X156110000Y-118462642D01*
X156110000Y-118348357D01*
X156152857Y-118272166D01*
X156195714Y-118234071D01*
X156281428Y-118195976D01*
X156495714Y-118195976D01*
X156581428Y-118234071D01*
X156624285Y-118272166D01*
X156667142Y-118348357D01*
X156667142Y-118576928D01*
X156624285Y-118653119D01*
X156581428Y-118691214D01*
X156581428Y-117853119D02*
X156624285Y-117815023D01*
X156667142Y-117853119D01*
X156624285Y-117891214D01*
X156581428Y-117853119D01*
X156667142Y-117853119D01*
X156067142Y-117129309D02*
X156667142Y-117129309D01*
X155724285Y-117319785D02*
X156367142Y-117510261D01*
X156367142Y-117015023D01*
X149047142Y-89094449D02*
X148147142Y-89094449D01*
X148147142Y-88789687D01*
X148190000Y-88713497D01*
X148232857Y-88675402D01*
X148318571Y-88637306D01*
X148447142Y-88637306D01*
X148532857Y-88675402D01*
X148575714Y-88713497D01*
X148618571Y-88789687D01*
X148618571Y-89094449D01*
X149047142Y-87875402D02*
X149047142Y-88332544D01*
X149047142Y-88103973D02*
X148147142Y-88103973D01*
X148275714Y-88180164D01*
X148361428Y-88256354D01*
X148404285Y-88332544D01*
X148961428Y-87532544D02*
X149004285Y-87494449D01*
X149047142Y-87532544D01*
X149004285Y-87570640D01*
X148961428Y-87532544D01*
X149047142Y-87532544D01*
X148147142Y-87227783D02*
X148147142Y-86694449D01*
X149047142Y-87037306D01*
X123667690Y-98454380D02*
X124124833Y-98454380D01*
X123896261Y-99454380D02*
X123896261Y-98454380D01*
X124848642Y-99359142D02*
X124810547Y-99406761D01*
X124696261Y-99454380D01*
X124620071Y-99454380D01*
X124505785Y-99406761D01*
X124429595Y-99311523D01*
X124391500Y-99216285D01*
X124353404Y-99025809D01*
X124353404Y-98882952D01*
X124391500Y-98692476D01*
X124429595Y-98597238D01*
X124505785Y-98502000D01*
X124620071Y-98454380D01*
X124696261Y-98454380D01*
X124810547Y-98502000D01*
X124848642Y-98549619D01*
X125191500Y-99454380D02*
X125191500Y-98454380D01*
X125648642Y-99454380D02*
X125305785Y-98882952D01*
X125648642Y-98454380D02*
X125191500Y-99025809D01*
X123667690Y-105820380D02*
X124124833Y-105820380D01*
X123896261Y-106820380D02*
X123896261Y-105820380D01*
X124391500Y-106296571D02*
X124658166Y-106296571D01*
X124772452Y-106820380D02*
X124391500Y-106820380D01*
X124391500Y-105820380D01*
X124772452Y-105820380D01*
X125077214Y-106772761D02*
X125191500Y-106820380D01*
X125381976Y-106820380D01*
X125458166Y-106772761D01*
X125496261Y-106725142D01*
X125534357Y-106629904D01*
X125534357Y-106534666D01*
X125496261Y-106439428D01*
X125458166Y-106391809D01*
X125381976Y-106344190D01*
X125229595Y-106296571D01*
X125153404Y-106248952D01*
X125115309Y-106201333D01*
X125077214Y-106106095D01*
X125077214Y-106010857D01*
X125115309Y-105915619D01*
X125153404Y-105868000D01*
X125229595Y-105820380D01*
X125420071Y-105820380D01*
X125534357Y-105868000D01*
X125762928Y-105820380D02*
X126220071Y-105820380D01*
X125991500Y-106820380D02*
X125991500Y-105820380D01*
X154127142Y-119415023D02*
X153227142Y-119415023D01*
X153227142Y-119110261D01*
X153270000Y-119034071D01*
X153312857Y-118995976D01*
X153398571Y-118957880D01*
X153527142Y-118957880D01*
X153612857Y-118995976D01*
X153655714Y-119034071D01*
X153698571Y-119110261D01*
X153698571Y-119415023D01*
X153227142Y-118691214D02*
X153227142Y-118195976D01*
X153570000Y-118462642D01*
X153570000Y-118348357D01*
X153612857Y-118272166D01*
X153655714Y-118234071D01*
X153741428Y-118195976D01*
X153955714Y-118195976D01*
X154041428Y-118234071D01*
X154084285Y-118272166D01*
X154127142Y-118348357D01*
X154127142Y-118576928D01*
X154084285Y-118653119D01*
X154041428Y-118691214D01*
X154041428Y-117853119D02*
X154084285Y-117815023D01*
X154127142Y-117853119D01*
X154084285Y-117891214D01*
X154041428Y-117853119D01*
X154127142Y-117853119D01*
X153227142Y-117548357D02*
X153227142Y-117053119D01*
X153570000Y-117319785D01*
X153570000Y-117205500D01*
X153612857Y-117129309D01*
X153655714Y-117091214D01*
X153741428Y-117053119D01*
X153955714Y-117053119D01*
X154041428Y-117091214D01*
X154084285Y-117129309D01*
X154127142Y-117205500D01*
X154127142Y-117434071D01*
X154084285Y-117510261D01*
X154041428Y-117548357D01*
X126187142Y-119415023D02*
X125287142Y-119415023D01*
X125287142Y-119110261D01*
X125330000Y-119034071D01*
X125372857Y-118995976D01*
X125458571Y-118957880D01*
X125587142Y-118957880D01*
X125672857Y-118995976D01*
X125715714Y-119034071D01*
X125758571Y-119110261D01*
X125758571Y-119415023D01*
X125372857Y-118653119D02*
X125330000Y-118615023D01*
X125287142Y-118538833D01*
X125287142Y-118348357D01*
X125330000Y-118272166D01*
X125372857Y-118234071D01*
X125458571Y-118195976D01*
X125544285Y-118195976D01*
X125672857Y-118234071D01*
X126187142Y-118691214D01*
X126187142Y-118195976D01*
X126101428Y-117853119D02*
X126144285Y-117815023D01*
X126187142Y-117853119D01*
X126144285Y-117891214D01*
X126101428Y-117853119D01*
X126187142Y-117853119D01*
X126187142Y-117053119D02*
X126187142Y-117510261D01*
X126187142Y-117281690D02*
X125287142Y-117281690D01*
X125415714Y-117357880D01*
X125501428Y-117434071D01*
X125544285Y-117510261D01*
X141427142Y-119383369D02*
X140527142Y-119383369D01*
X140527142Y-119078607D01*
X140570000Y-119002417D01*
X140612857Y-118964322D01*
X140698571Y-118926226D01*
X140827142Y-118926226D01*
X140912857Y-118964322D01*
X140955714Y-119002417D01*
X140998571Y-119078607D01*
X140998571Y-119383369D01*
X140612857Y-118621465D02*
X140570000Y-118583369D01*
X140527142Y-118507179D01*
X140527142Y-118316703D01*
X140570000Y-118240512D01*
X140612857Y-118202417D01*
X140698571Y-118164322D01*
X140784285Y-118164322D01*
X140912857Y-118202417D01*
X141427142Y-118659560D01*
X141427142Y-118164322D01*
X141341428Y-117821465D02*
X141384285Y-117783369D01*
X141427142Y-117821465D01*
X141384285Y-117859560D01*
X141341428Y-117821465D01*
X141427142Y-117821465D01*
X140527142Y-117516703D02*
X140527142Y-116983369D01*
X141427142Y-117326226D01*
X164287142Y-119436297D02*
X163387142Y-119436297D01*
X163387142Y-119131535D01*
X163430000Y-119055345D01*
X163472857Y-119017250D01*
X163558571Y-118979154D01*
X163687142Y-118979154D01*
X163772857Y-119017250D01*
X163815714Y-119055345D01*
X163858571Y-119131535D01*
X163858571Y-119436297D01*
X163387142Y-118712488D02*
X163387142Y-118217250D01*
X163730000Y-118483916D01*
X163730000Y-118369631D01*
X163772857Y-118293440D01*
X163815714Y-118255345D01*
X163901428Y-118217250D01*
X164115714Y-118217250D01*
X164201428Y-118255345D01*
X164244285Y-118293440D01*
X164287142Y-118369631D01*
X164287142Y-118598202D01*
X164244285Y-118674393D01*
X164201428Y-118712488D01*
X164201428Y-117874393D02*
X164244285Y-117836297D01*
X164287142Y-117874393D01*
X164244285Y-117912488D01*
X164201428Y-117874393D01*
X164287142Y-117874393D01*
X163387142Y-117569631D02*
X163387142Y-117036297D01*
X164287142Y-117379154D01*
X123647142Y-119415023D02*
X122747142Y-119415023D01*
X122747142Y-119110261D01*
X122790000Y-119034071D01*
X122832857Y-118995976D01*
X122918571Y-118957880D01*
X123047142Y-118957880D01*
X123132857Y-118995976D01*
X123175714Y-119034071D01*
X123218571Y-119110261D01*
X123218571Y-119415023D01*
X122832857Y-118653119D02*
X122790000Y-118615023D01*
X122747142Y-118538833D01*
X122747142Y-118348357D01*
X122790000Y-118272166D01*
X122832857Y-118234071D01*
X122918571Y-118195976D01*
X123004285Y-118195976D01*
X123132857Y-118234071D01*
X123647142Y-118691214D01*
X123647142Y-118195976D01*
X123561428Y-117853119D02*
X123604285Y-117815023D01*
X123647142Y-117853119D01*
X123604285Y-117891214D01*
X123561428Y-117853119D01*
X123647142Y-117853119D01*
X122747142Y-117319785D02*
X122747142Y-117243595D01*
X122790000Y-117167404D01*
X122832857Y-117129309D01*
X122918571Y-117091214D01*
X123090000Y-117053119D01*
X123304285Y-117053119D01*
X123475714Y-117091214D01*
X123561428Y-117129309D01*
X123604285Y-117167404D01*
X123647142Y-117243595D01*
X123647142Y-117319785D01*
X123604285Y-117395976D01*
X123561428Y-117434071D01*
X123475714Y-117472166D01*
X123304285Y-117510261D01*
X123090000Y-117510261D01*
X122918571Y-117472166D01*
X122832857Y-117434071D01*
X122790000Y-117395976D01*
X122747142Y-117319785D01*
X149179809Y-94374190D02*
X149179809Y-94850380D01*
X148846476Y-93850380D02*
X149179809Y-94374190D01*
X149513142Y-93850380D01*
X150370285Y-94850380D02*
X149798857Y-94850380D01*
X150084571Y-94850380D02*
X150084571Y-93850380D01*
X149989333Y-93993238D01*
X149894095Y-94088476D01*
X149798857Y-94136095D01*
X113448333Y-89411904D02*
X113448333Y-89983333D01*
X113410238Y-90097619D01*
X113334047Y-90173809D01*
X113219761Y-90211904D01*
X113143571Y-90211904D01*
X113753095Y-89411904D02*
X114286428Y-89411904D01*
X113943571Y-90211904D01*
X147390166Y-109955714D02*
X147352071Y-109993809D01*
X147237785Y-110031904D01*
X147161595Y-110031904D01*
X147047309Y-109993809D01*
X146971119Y-109917619D01*
X146933023Y-109841428D01*
X146894928Y-109689047D01*
X146894928Y-109574761D01*
X146933023Y-109422380D01*
X146971119Y-109346190D01*
X147047309Y-109270000D01*
X147161595Y-109231904D01*
X147237785Y-109231904D01*
X147352071Y-109270000D01*
X147390166Y-109308095D01*
X147771119Y-110031904D02*
X147923500Y-110031904D01*
X147999690Y-109993809D01*
X148037785Y-109955714D01*
X148113976Y-109841428D01*
X148152071Y-109689047D01*
X148152071Y-109384285D01*
X148113976Y-109308095D01*
X148075880Y-109270000D01*
X147999690Y-109231904D01*
X147847309Y-109231904D01*
X147771119Y-109270000D01*
X147733023Y-109308095D01*
X147694928Y-109384285D01*
X147694928Y-109574761D01*
X147733023Y-109650952D01*
X147771119Y-109689047D01*
X147847309Y-109727142D01*
X147999690Y-109727142D01*
X148075880Y-109689047D01*
X148113976Y-109650952D01*
X148152071Y-109574761D01*
X139489666Y-92404714D02*
X139451571Y-92442809D01*
X139337285Y-92480904D01*
X139261095Y-92480904D01*
X139146809Y-92442809D01*
X139070619Y-92366619D01*
X139032523Y-92290428D01*
X138994428Y-92138047D01*
X138994428Y-92023761D01*
X139032523Y-91871380D01*
X139070619Y-91795190D01*
X139146809Y-91719000D01*
X139261095Y-91680904D01*
X139337285Y-91680904D01*
X139451571Y-91719000D01*
X139489666Y-91757095D01*
X139756333Y-91680904D02*
X140251571Y-91680904D01*
X139984904Y-91985666D01*
X140099190Y-91985666D01*
X140175380Y-92023761D01*
X140213476Y-92061857D01*
X140251571Y-92138047D01*
X140251571Y-92328523D01*
X140213476Y-92404714D01*
X140175380Y-92442809D01*
X140099190Y-92480904D01*
X139870619Y-92480904D01*
X139794428Y-92442809D01*
X139756333Y-92404714D01*
X143222380Y-121433333D02*
X143936666Y-121433333D01*
X144079523Y-121480952D01*
X144174761Y-121576190D01*
X144222380Y-121719047D01*
X144222380Y-121814285D01*
X143650952Y-120814285D02*
X143603333Y-120909523D01*
X143555714Y-120957142D01*
X143460476Y-121004761D01*
X143412857Y-121004761D01*
X143317619Y-120957142D01*
X143270000Y-120909523D01*
X143222380Y-120814285D01*
X143222380Y-120623809D01*
X143270000Y-120528571D01*
X143317619Y-120480952D01*
X143412857Y-120433333D01*
X143460476Y-120433333D01*
X143555714Y-120480952D01*
X143603333Y-120528571D01*
X143650952Y-120623809D01*
X143650952Y-120814285D01*
X143698571Y-120909523D01*
X143746190Y-120957142D01*
X143841428Y-121004761D01*
X144031904Y-121004761D01*
X144127142Y-120957142D01*
X144174761Y-120909523D01*
X144222380Y-120814285D01*
X144222380Y-120623809D01*
X144174761Y-120528571D01*
X144127142Y-120480952D01*
X144031904Y-120433333D01*
X143841428Y-120433333D01*
X143746190Y-120480952D01*
X143698571Y-120528571D01*
X143650952Y-120623809D01*
X121703333Y-93434904D02*
X121703333Y-94006333D01*
X121665238Y-94120619D01*
X121589047Y-94196809D01*
X121474761Y-94234904D01*
X121398571Y-94234904D01*
X122046190Y-93511095D02*
X122084285Y-93473000D01*
X122160476Y-93434904D01*
X122350952Y-93434904D01*
X122427142Y-93473000D01*
X122465238Y-93511095D01*
X122503333Y-93587285D01*
X122503333Y-93663476D01*
X122465238Y-93777761D01*
X122008095Y-94234904D01*
X122503333Y-94234904D01*
X163535714Y-105658333D02*
X163573809Y-105696428D01*
X163611904Y-105810714D01*
X163611904Y-105886904D01*
X163573809Y-106001190D01*
X163497619Y-106077380D01*
X163421428Y-106115476D01*
X163269047Y-106153571D01*
X163154761Y-106153571D01*
X163002380Y-106115476D01*
X162926190Y-106077380D01*
X162850000Y-106001190D01*
X162811904Y-105886904D01*
X162811904Y-105810714D01*
X162850000Y-105696428D01*
X162888095Y-105658333D01*
X163078571Y-104972619D02*
X163611904Y-104972619D01*
X162773809Y-105163095D02*
X163345238Y-105353571D01*
X163345238Y-104858333D01*
X162060714Y-105608333D02*
X162098809Y-105646428D01*
X162136904Y-105760714D01*
X162136904Y-105836904D01*
X162098809Y-105951190D01*
X162022619Y-106027380D01*
X161946428Y-106065476D01*
X161794047Y-106103571D01*
X161679761Y-106103571D01*
X161527380Y-106065476D01*
X161451190Y-106027380D01*
X161375000Y-105951190D01*
X161336904Y-105836904D01*
X161336904Y-105760714D01*
X161375000Y-105646428D01*
X161413095Y-105608333D01*
X161336904Y-104884523D02*
X161336904Y-105265476D01*
X161717857Y-105303571D01*
X161679761Y-105265476D01*
X161641666Y-105189285D01*
X161641666Y-104998809D01*
X161679761Y-104922619D01*
X161717857Y-104884523D01*
X161794047Y-104846428D01*
X161984523Y-104846428D01*
X162060714Y-104884523D01*
X162098809Y-104922619D01*
X162136904Y-104998809D01*
X162136904Y-105189285D01*
X162098809Y-105265476D01*
X162060714Y-105303571D01*
X151885714Y-105658333D02*
X151923809Y-105696428D01*
X151961904Y-105810714D01*
X151961904Y-105886904D01*
X151923809Y-106001190D01*
X151847619Y-106077380D01*
X151771428Y-106115476D01*
X151619047Y-106153571D01*
X151504761Y-106153571D01*
X151352380Y-106115476D01*
X151276190Y-106077380D01*
X151200000Y-106001190D01*
X151161904Y-105886904D01*
X151161904Y-105810714D01*
X151200000Y-105696428D01*
X151238095Y-105658333D01*
X151161904Y-104972619D02*
X151161904Y-105125000D01*
X151200000Y-105201190D01*
X151238095Y-105239285D01*
X151352380Y-105315476D01*
X151504761Y-105353571D01*
X151809523Y-105353571D01*
X151885714Y-105315476D01*
X151923809Y-105277380D01*
X151961904Y-105201190D01*
X151961904Y-105048809D01*
X151923809Y-104972619D01*
X151885714Y-104934523D01*
X151809523Y-104896428D01*
X151619047Y-104896428D01*
X151542857Y-104934523D01*
X151504761Y-104972619D01*
X151466666Y-105048809D01*
X151466666Y-105201190D01*
X151504761Y-105277380D01*
X151542857Y-105315476D01*
X151619047Y-105353571D01*
X153385714Y-105633333D02*
X153423809Y-105671428D01*
X153461904Y-105785714D01*
X153461904Y-105861904D01*
X153423809Y-105976190D01*
X153347619Y-106052380D01*
X153271428Y-106090476D01*
X153119047Y-106128571D01*
X153004761Y-106128571D01*
X152852380Y-106090476D01*
X152776190Y-106052380D01*
X152700000Y-105976190D01*
X152661904Y-105861904D01*
X152661904Y-105785714D01*
X152700000Y-105671428D01*
X152738095Y-105633333D01*
X152661904Y-105366666D02*
X152661904Y-104833333D01*
X153461904Y-105176190D01*
X139413466Y-94029904D02*
X139146800Y-93648952D01*
X138956323Y-94029904D02*
X138956323Y-93229904D01*
X139261085Y-93229904D01*
X139337276Y-93268000D01*
X139375371Y-93306095D01*
X139413466Y-93382285D01*
X139413466Y-93496571D01*
X139375371Y-93572761D01*
X139337276Y-93610857D01*
X139261085Y-93648952D01*
X138956323Y-93648952D01*
X140175371Y-94029904D02*
X139718228Y-94029904D01*
X139946800Y-94029904D02*
X139946800Y-93229904D01*
X139870609Y-93344190D01*
X139794419Y-93420380D01*
X139718228Y-93458476D01*
X157152976Y-99461904D02*
X157152976Y-100109523D01*
X157191071Y-100185714D01*
X157229166Y-100223809D01*
X157305357Y-100261904D01*
X157457738Y-100261904D01*
X157533928Y-100223809D01*
X157572023Y-100185714D01*
X157610119Y-100109523D01*
X157610119Y-99461904D01*
X158410119Y-100261904D02*
X157952976Y-100261904D01*
X158181547Y-100261904D02*
X158181547Y-99461904D01*
X158105357Y-99576190D01*
X158029166Y-99652380D01*
X157952976Y-99690476D01*
X176461904Y-92690476D02*
X175661904Y-92690476D01*
X175661904Y-92500000D01*
X175700000Y-92385714D01*
X175776190Y-92309523D01*
X175852380Y-92271428D01*
X176004761Y-92233333D01*
X176119047Y-92233333D01*
X176271428Y-92271428D01*
X176347619Y-92309523D01*
X176423809Y-92385714D01*
X176461904Y-92500000D01*
X176461904Y-92690476D01*
X176461904Y-91471428D02*
X176461904Y-91928571D01*
X176461904Y-91700000D02*
X175661904Y-91700000D01*
X175776190Y-91776190D01*
X175852380Y-91852380D01*
X175890476Y-91928571D01*
X174861904Y-92333333D02*
X174480952Y-92600000D01*
X174861904Y-92790476D02*
X174061904Y-92790476D01*
X174061904Y-92485714D01*
X174100000Y-92409523D01*
X174138095Y-92371428D01*
X174214285Y-92333333D01*
X174328571Y-92333333D01*
X174404761Y-92371428D01*
X174442857Y-92409523D01*
X174480952Y-92485714D01*
X174480952Y-92790476D01*
X174328571Y-91647619D02*
X174861904Y-91647619D01*
X174023809Y-91838095D02*
X174595238Y-92028571D01*
X174595238Y-91533333D01*
X164385714Y-113314285D02*
X164423809Y-113352380D01*
X164461904Y-113466666D01*
X164461904Y-113542857D01*
X164423809Y-113657142D01*
X164347619Y-113733333D01*
X164271428Y-113771428D01*
X164119047Y-113809523D01*
X164004761Y-113809523D01*
X163852380Y-113771428D01*
X163776190Y-113733333D01*
X163700000Y-113657142D01*
X163661904Y-113542857D01*
X163661904Y-113466666D01*
X163700000Y-113352380D01*
X163738095Y-113314285D01*
X164461904Y-112552380D02*
X164461904Y-113009523D01*
X164461904Y-112780952D02*
X163661904Y-112780952D01*
X163776190Y-112857142D01*
X163852380Y-112933333D01*
X163890476Y-113009523D01*
X163738095Y-112247619D02*
X163700000Y-112209523D01*
X163661904Y-112133333D01*
X163661904Y-111942857D01*
X163700000Y-111866666D01*
X163738095Y-111828571D01*
X163814285Y-111790476D01*
X163890476Y-111790476D01*
X164004761Y-111828571D01*
X164461904Y-112285714D01*
X164461904Y-111790476D01*
X164385714Y-97714285D02*
X164423809Y-97752380D01*
X164461904Y-97866666D01*
X164461904Y-97942857D01*
X164423809Y-98057142D01*
X164347619Y-98133333D01*
X164271428Y-98171428D01*
X164119047Y-98209523D01*
X164004761Y-98209523D01*
X163852380Y-98171428D01*
X163776190Y-98133333D01*
X163700000Y-98057142D01*
X163661904Y-97942857D01*
X163661904Y-97866666D01*
X163700000Y-97752380D01*
X163738095Y-97714285D01*
X164461904Y-96952380D02*
X164461904Y-97409523D01*
X164461904Y-97180952D02*
X163661904Y-97180952D01*
X163776190Y-97257142D01*
X163852380Y-97333333D01*
X163890476Y-97409523D01*
X164461904Y-96190476D02*
X164461904Y-96647619D01*
X164461904Y-96419047D02*
X163661904Y-96419047D01*
X163776190Y-96495238D01*
X163852380Y-96571428D01*
X163890476Y-96647619D01*
X162910714Y-97714285D02*
X162948809Y-97752380D01*
X162986904Y-97866666D01*
X162986904Y-97942857D01*
X162948809Y-98057142D01*
X162872619Y-98133333D01*
X162796428Y-98171428D01*
X162644047Y-98209523D01*
X162529761Y-98209523D01*
X162377380Y-98171428D01*
X162301190Y-98133333D01*
X162225000Y-98057142D01*
X162186904Y-97942857D01*
X162186904Y-97866666D01*
X162225000Y-97752380D01*
X162263095Y-97714285D01*
X162986904Y-96952380D02*
X162986904Y-97409523D01*
X162986904Y-97180952D02*
X162186904Y-97180952D01*
X162301190Y-97257142D01*
X162377380Y-97333333D01*
X162415476Y-97409523D01*
X162186904Y-96685714D02*
X162186904Y-96190476D01*
X162491666Y-96457142D01*
X162491666Y-96342857D01*
X162529761Y-96266666D01*
X162567857Y-96228571D01*
X162644047Y-96190476D01*
X162834523Y-96190476D01*
X162910714Y-96228571D01*
X162948809Y-96266666D01*
X162986904Y-96342857D01*
X162986904Y-96571428D01*
X162948809Y-96647619D01*
X162910714Y-96685714D01*
X174408333Y-97801904D02*
X174408333Y-98373333D01*
X174370238Y-98487619D01*
X174294047Y-98563809D01*
X174179761Y-98601904D01*
X174103571Y-98601904D01*
X175208333Y-98601904D02*
X174751190Y-98601904D01*
X174979761Y-98601904D02*
X174979761Y-97801904D01*
X174903571Y-97916190D01*
X174827380Y-97992380D01*
X174751190Y-98030476D01*
X139489666Y-90904714D02*
X139451571Y-90942809D01*
X139337285Y-90980904D01*
X139261095Y-90980904D01*
X139146809Y-90942809D01*
X139070619Y-90866619D01*
X139032523Y-90790428D01*
X138994428Y-90638047D01*
X138994428Y-90523761D01*
X139032523Y-90371380D01*
X139070619Y-90295190D01*
X139146809Y-90219000D01*
X139261095Y-90180904D01*
X139337285Y-90180904D01*
X139451571Y-90219000D01*
X139489666Y-90257095D01*
X139794428Y-90257095D02*
X139832523Y-90219000D01*
X139908714Y-90180904D01*
X140099190Y-90180904D01*
X140175380Y-90219000D01*
X140213476Y-90257095D01*
X140251571Y-90333285D01*
X140251571Y-90409476D01*
X140213476Y-90523761D01*
X139756333Y-90980904D01*
X140251571Y-90980904D01*
X133139714Y-116686714D02*
X133101619Y-116724809D01*
X132987333Y-116762904D01*
X132911142Y-116762904D01*
X132796857Y-116724809D01*
X132720666Y-116648619D01*
X132682571Y-116572428D01*
X132644476Y-116420047D01*
X132644476Y-116305761D01*
X132682571Y-116153380D01*
X132720666Y-116077190D01*
X132796857Y-116001000D01*
X132911142Y-115962904D01*
X132987333Y-115962904D01*
X133101619Y-116001000D01*
X133139714Y-116039095D01*
X133901619Y-116762904D02*
X133444476Y-116762904D01*
X133673047Y-116762904D02*
X133673047Y-115962904D01*
X133596857Y-116077190D01*
X133520666Y-116153380D01*
X133444476Y-116191476D01*
X134396857Y-115962904D02*
X134473047Y-115962904D01*
X134549238Y-116001000D01*
X134587333Y-116039095D01*
X134625428Y-116115285D01*
X134663523Y-116267666D01*
X134663523Y-116458142D01*
X134625428Y-116610523D01*
X134587333Y-116686714D01*
X134549238Y-116724809D01*
X134473047Y-116762904D01*
X134396857Y-116762904D01*
X134320666Y-116724809D01*
X134282571Y-116686714D01*
X134244476Y-116610523D01*
X134206380Y-116458142D01*
X134206380Y-116267666D01*
X134244476Y-116115285D01*
X134282571Y-116039095D01*
X134320666Y-116001000D01*
X134396857Y-115962904D01*
X136809904Y-114375333D02*
X136428952Y-114642000D01*
X136809904Y-114832476D02*
X136009904Y-114832476D01*
X136009904Y-114527714D01*
X136048000Y-114451523D01*
X136086095Y-114413428D01*
X136162285Y-114375333D01*
X136276571Y-114375333D01*
X136352761Y-114413428D01*
X136390857Y-114451523D01*
X136428952Y-114527714D01*
X136428952Y-114832476D01*
X136009904Y-114108666D02*
X136009904Y-113613428D01*
X136314666Y-113880095D01*
X136314666Y-113765809D01*
X136352761Y-113689619D01*
X136390857Y-113651523D01*
X136467047Y-113613428D01*
X136657523Y-113613428D01*
X136733714Y-113651523D01*
X136771809Y-113689619D01*
X136809904Y-113765809D01*
X136809904Y-113994380D01*
X136771809Y-114070571D01*
X136733714Y-114108666D01*
X166883333Y-99123809D02*
X166997619Y-99161904D01*
X167188095Y-99161904D01*
X167264285Y-99123809D01*
X167302380Y-99085714D01*
X167340476Y-99009523D01*
X167340476Y-98933333D01*
X167302380Y-98857142D01*
X167264285Y-98819047D01*
X167188095Y-98780952D01*
X167035714Y-98742857D01*
X166959523Y-98704761D01*
X166921428Y-98666666D01*
X166883333Y-98590476D01*
X166883333Y-98514285D01*
X166921428Y-98438095D01*
X166959523Y-98400000D01*
X167035714Y-98361904D01*
X167226190Y-98361904D01*
X167340476Y-98400000D01*
X167607142Y-98361904D02*
X167797619Y-99161904D01*
X167950000Y-98590476D01*
X168102380Y-99161904D01*
X168292857Y-98361904D01*
X169016666Y-99161904D02*
X168559523Y-99161904D01*
X168788095Y-99161904D02*
X168788095Y-98361904D01*
X168711904Y-98476190D01*
X168635714Y-98552380D01*
X168559523Y-98590476D01*
X162885714Y-113314285D02*
X162923809Y-113352380D01*
X162961904Y-113466666D01*
X162961904Y-113542857D01*
X162923809Y-113657142D01*
X162847619Y-113733333D01*
X162771428Y-113771428D01*
X162619047Y-113809523D01*
X162504761Y-113809523D01*
X162352380Y-113771428D01*
X162276190Y-113733333D01*
X162200000Y-113657142D01*
X162161904Y-113542857D01*
X162161904Y-113466666D01*
X162200000Y-113352380D01*
X162238095Y-113314285D01*
X162961904Y-112552380D02*
X162961904Y-113009523D01*
X162961904Y-112780952D02*
X162161904Y-112780952D01*
X162276190Y-112857142D01*
X162352380Y-112933333D01*
X162390476Y-113009523D01*
X162428571Y-111866666D02*
X162961904Y-111866666D01*
X162123809Y-112057142D02*
X162695238Y-112247619D01*
X162695238Y-111752380D01*
X149090904Y-103675523D02*
X149738523Y-103675523D01*
X149814714Y-103637428D01*
X149852809Y-103599333D01*
X149890904Y-103523142D01*
X149890904Y-103370761D01*
X149852809Y-103294571D01*
X149814714Y-103256476D01*
X149738523Y-103218380D01*
X149090904Y-103218380D01*
X149167095Y-102875523D02*
X149129000Y-102837428D01*
X149090904Y-102761238D01*
X149090904Y-102570761D01*
X149129000Y-102494571D01*
X149167095Y-102456476D01*
X149243285Y-102418380D01*
X149319476Y-102418380D01*
X149433761Y-102456476D01*
X149890904Y-102913619D01*
X149890904Y-102418380D01*
X136865666Y-111936904D02*
X136599000Y-111555952D01*
X136408523Y-111936904D02*
X136408523Y-111136904D01*
X136713285Y-111136904D01*
X136789476Y-111175000D01*
X136827571Y-111213095D01*
X136865666Y-111289285D01*
X136865666Y-111403571D01*
X136827571Y-111479761D01*
X136789476Y-111517857D01*
X136713285Y-111555952D01*
X136408523Y-111555952D01*
X137170428Y-111213095D02*
X137208523Y-111175000D01*
X137284714Y-111136904D01*
X137475190Y-111136904D01*
X137551380Y-111175000D01*
X137589476Y-111213095D01*
X137627571Y-111289285D01*
X137627571Y-111365476D01*
X137589476Y-111479761D01*
X137132333Y-111936904D01*
X137627571Y-111936904D01*
X143934666Y-109955714D02*
X143896571Y-109993809D01*
X143782285Y-110031904D01*
X143706095Y-110031904D01*
X143591809Y-109993809D01*
X143515619Y-109917619D01*
X143477523Y-109841428D01*
X143439428Y-109689047D01*
X143439428Y-109574761D01*
X143477523Y-109422380D01*
X143515619Y-109346190D01*
X143591809Y-109270000D01*
X143706095Y-109231904D01*
X143782285Y-109231904D01*
X143896571Y-109270000D01*
X143934666Y-109308095D01*
X144391809Y-109574761D02*
X144315619Y-109536666D01*
X144277523Y-109498571D01*
X144239428Y-109422380D01*
X144239428Y-109384285D01*
X144277523Y-109308095D01*
X144315619Y-109270000D01*
X144391809Y-109231904D01*
X144544190Y-109231904D01*
X144620380Y-109270000D01*
X144658476Y-109308095D01*
X144696571Y-109384285D01*
X144696571Y-109422380D01*
X144658476Y-109498571D01*
X144620380Y-109536666D01*
X144544190Y-109574761D01*
X144391809Y-109574761D01*
X144315619Y-109612857D01*
X144277523Y-109650952D01*
X144239428Y-109727142D01*
X144239428Y-109879523D01*
X144277523Y-109955714D01*
X144315619Y-109993809D01*
X144391809Y-110031904D01*
X144544190Y-110031904D01*
X144620380Y-109993809D01*
X144658476Y-109955714D01*
X144696571Y-109879523D01*
X144696571Y-109727142D01*
X144658476Y-109650952D01*
X144620380Y-109612857D01*
X144544190Y-109574761D01*
X145331666Y-95477714D02*
X145293571Y-95515809D01*
X145179285Y-95553904D01*
X145103095Y-95553904D01*
X144988809Y-95515809D01*
X144912619Y-95439619D01*
X144874523Y-95363428D01*
X144836428Y-95211047D01*
X144836428Y-95096761D01*
X144874523Y-94944380D01*
X144912619Y-94868190D01*
X144988809Y-94792000D01*
X145103095Y-94753904D01*
X145179285Y-94753904D01*
X145293571Y-94792000D01*
X145331666Y-94830095D01*
X146093571Y-95553904D02*
X145636428Y-95553904D01*
X145865000Y-95553904D02*
X145865000Y-94753904D01*
X145788809Y-94868190D01*
X145712619Y-94944380D01*
X145636428Y-94982476D01*
X144798333Y-89419904D02*
X144798333Y-89991333D01*
X144760238Y-90105619D01*
X144684047Y-90181809D01*
X144569761Y-90219904D01*
X144493571Y-90219904D01*
X145179285Y-90219904D02*
X145179285Y-89419904D01*
X145484047Y-89419904D01*
X145560238Y-89458000D01*
X145598333Y-89496095D01*
X145636428Y-89572285D01*
X145636428Y-89686571D01*
X145598333Y-89762761D01*
X145560238Y-89800857D01*
X145484047Y-89838952D01*
X145179285Y-89838952D01*
X146398333Y-90219904D02*
X145941190Y-90219904D01*
X146169761Y-90219904D02*
X146169761Y-89419904D01*
X146093571Y-89534190D01*
X146017380Y-89610380D01*
X145941190Y-89648476D01*
D10*
X151456000Y-93598000D02*
X150456000Y-93598000D01*
X147856000Y-91598000D02*
X147856000Y-91198000D01*
X147856000Y-91198000D02*
X148656000Y-91198000D01*
X148656000Y-93598000D02*
X147856000Y-93598000D01*
X150456000Y-91198000D02*
X151456000Y-91198000D01*
X151456000Y-91598000D02*
X151456000Y-93598000D01*
X151656000Y-91598000D02*
X151656000Y-91198000D01*
X151456000Y-91598000D02*
X151456000Y-91198000D01*
X150456000Y-91198000D02*
X150456000Y-90798000D01*
X151656000Y-93598000D02*
X151656000Y-91598000D01*
X147856000Y-93598000D02*
X147856000Y-91598000D01*
X110465000Y-115100000D02*
X110465000Y-105620000D01*
X108765000Y-95950000D02*
X107765000Y-95450000D01*
X110465000Y-105620000D02*
X110465000Y-105620000D01*
X118275000Y-90740000D02*
X118275000Y-116400000D01*
X107765000Y-96450000D02*
X108765000Y-95950000D01*
X109155000Y-101520000D02*
X110465000Y-101520000D01*
X116965000Y-92040000D02*
X116965000Y-115100000D01*
X109155000Y-116400000D02*
X109155000Y-90740000D01*
X109155000Y-90740000D02*
X118275000Y-90740000D01*
X118275000Y-116400000D02*
X109155000Y-116400000D01*
X110465000Y-92040000D02*
X116965000Y-92040000D01*
X110465000Y-101520000D02*
X110465000Y-92040000D01*
X107765000Y-95450000D02*
X107765000Y-96450000D01*
X116965000Y-115100000D02*
X110465000Y-115100000D01*
X110465000Y-105620000D02*
X109155000Y-105620000D01*
X147669767Y-110430000D02*
X147377233Y-110430000D01*
X147669767Y-111450000D02*
X147377233Y-111450000D01*
X142182267Y-91634000D02*
X141889733Y-91634000D01*
X142182267Y-92654000D02*
X141889733Y-92654000D01*
X149970000Y-86360000D02*
X149970000Y-83700000D01*
X130860000Y-86360000D02*
X129530000Y-86360000D01*
X132130000Y-86360000D02*
X149970000Y-86360000D01*
X132130000Y-83700000D02*
X149970000Y-83700000D01*
X132130000Y-86360000D02*
X132130000Y-83700000D01*
X129530000Y-86360000D02*
X129530000Y-85030000D01*
X144770000Y-122430000D02*
X144770000Y-121100000D01*
X146100000Y-122430000D02*
X144770000Y-122430000D01*
X147370000Y-122430000D02*
X147370000Y-119770000D01*
X167750000Y-122430000D02*
X167750000Y-119770000D01*
X147370000Y-122430000D02*
X167750000Y-122430000D01*
X147370000Y-119770000D02*
X167750000Y-119770000D01*
X120640000Y-97473000D02*
X120640000Y-112773000D01*
X120640000Y-112773000D02*
X123300000Y-112773000D01*
X123300000Y-97473000D02*
X123300000Y-112773000D01*
X120640000Y-96203000D02*
X120640000Y-94873000D01*
X120640000Y-97473000D02*
X123300000Y-97473000D01*
X120640000Y-94873000D02*
X121970000Y-94873000D01*
X163760000Y-103146267D02*
X163760000Y-102853733D01*
X162740000Y-103146267D02*
X162740000Y-102853733D01*
X162260000Y-103146267D02*
X162260000Y-102853733D01*
X161240000Y-103146267D02*
X161240000Y-102853733D01*
X151090000Y-103146267D02*
X151090000Y-102853733D01*
X152110000Y-103146267D02*
X152110000Y-102853733D01*
X153610000Y-103146267D02*
X153610000Y-102853733D01*
X152590000Y-103146267D02*
X152590000Y-102853733D01*
X141796276Y-94186500D02*
X142305724Y-94186500D01*
X141796276Y-93141500D02*
X142305724Y-93141500D01*
X156402500Y-105360000D02*
X156402500Y-105130000D01*
X159122500Y-100640000D02*
X159122500Y-101950000D01*
X159122500Y-105360000D02*
X156402500Y-105360000D01*
X155262500Y-100870000D02*
X156402500Y-100870000D01*
X156402500Y-100640000D02*
X156402500Y-100870000D01*
X156402500Y-100640000D02*
X159122500Y-100640000D01*
X159122500Y-104050000D02*
X159122500Y-105360000D01*
X176835000Y-90500000D02*
X176835000Y-88040000D01*
X176835000Y-88040000D02*
X175365000Y-88040000D01*
X175365000Y-88040000D02*
X175365000Y-90500000D01*
X164330000Y-91130000D02*
X161730000Y-91130000D01*
X164330000Y-88470000D02*
X161730000Y-88470000D01*
X165600000Y-88470000D02*
X166930000Y-88470000D01*
X166930000Y-88470000D02*
X166930000Y-89800000D01*
X164330000Y-88470000D02*
X164330000Y-91130000D01*
X161730000Y-88470000D02*
X161730000Y-91130000D01*
X173977500Y-89445276D02*
X173977500Y-89954724D01*
X175022500Y-89445276D02*
X175022500Y-89954724D01*
X123240000Y-122430000D02*
X121910000Y-122430000D01*
X124510000Y-122430000D02*
X142350000Y-122430000D01*
X121910000Y-122430000D02*
X121910000Y-121100000D01*
X142350000Y-122430000D02*
X142350000Y-119770000D01*
X124510000Y-119770000D02*
X142350000Y-119770000D01*
X124510000Y-122430000D02*
X124510000Y-119770000D01*
X156270000Y-92070000D02*
X161410000Y-92070000D01*
X156270000Y-94730000D02*
X161410000Y-94730000D01*
X153670000Y-94730000D02*
X153670000Y-93400000D01*
X161410000Y-94730000D02*
X161410000Y-92070000D01*
X155000000Y-94730000D02*
X153670000Y-94730000D01*
X156270000Y-94730000D02*
X156270000Y-92070000D01*
X156270000Y-95670000D02*
X161410000Y-95670000D01*
X153670000Y-98330000D02*
X153670000Y-97000000D01*
X156270000Y-98330000D02*
X156270000Y-95670000D01*
X161410000Y-98330000D02*
X161410000Y-95670000D01*
X156270000Y-98330000D02*
X161410000Y-98330000D01*
X155000000Y-98330000D02*
X153670000Y-98330000D01*
X156270000Y-113930000D02*
X156270000Y-111270000D01*
X161410000Y-113930000D02*
X161410000Y-111270000D01*
X155000000Y-113930000D02*
X153670000Y-113930000D01*
X153670000Y-113930000D02*
X153670000Y-112600000D01*
X156270000Y-111270000D02*
X161410000Y-111270000D01*
X156270000Y-113930000D02*
X161410000Y-113930000D01*
X164610000Y-109753733D02*
X164610000Y-110046267D01*
X163590000Y-109753733D02*
X163590000Y-110046267D01*
X164610000Y-94153733D02*
X164610000Y-94446267D01*
X163590000Y-94153733D02*
X163590000Y-94446267D01*
X162090000Y-94153733D02*
X162090000Y-94446267D01*
X163110000Y-94153733D02*
X163110000Y-94446267D01*
X156270000Y-110330000D02*
X156270000Y-107670000D01*
X161410000Y-110330000D02*
X161410000Y-107670000D01*
X156270000Y-110330000D02*
X161410000Y-110330000D01*
X155000000Y-110330000D02*
X153670000Y-110330000D01*
X156270000Y-107670000D02*
X161410000Y-107670000D01*
X153670000Y-110330000D02*
X153670000Y-109000000D01*
X173546000Y-99039000D02*
X173546000Y-99489000D01*
X177946000Y-106839000D02*
X177696000Y-106839000D01*
X172797500Y-104639000D02*
X173247500Y-104639000D01*
X175396000Y-99039000D02*
X173546000Y-99039000D01*
X172768500Y-104639000D02*
X172768500Y-104189000D01*
X173546000Y-106839000D02*
X173546000Y-106389000D01*
X175396000Y-106839000D02*
X173546000Y-106839000D01*
X177946000Y-99039000D02*
X177696000Y-99039000D01*
X142182267Y-91154000D02*
X141889733Y-91154000D01*
X142182267Y-90134000D02*
X141889733Y-90134000D01*
X112300000Y-88510000D02*
X110970000Y-88510000D01*
X110970000Y-88510000D02*
X110970000Y-87180000D01*
X113570000Y-85850000D02*
X118710000Y-85850000D01*
X113570000Y-88510000D02*
X113570000Y-85850000D01*
X118710000Y-88510000D02*
X118710000Y-85850000D01*
X113570000Y-88510000D02*
X118710000Y-88510000D01*
X134248000Y-114095733D02*
X134248000Y-114388267D01*
X133228000Y-114095733D02*
X133228000Y-114388267D01*
X134715500Y-114496724D02*
X134715500Y-113987276D01*
X135760500Y-114496724D02*
X135760500Y-113987276D01*
X164100000Y-102050000D02*
X167790000Y-102050000D01*
X164100000Y-106550000D02*
X171100000Y-106550000D01*
X167790000Y-99600000D02*
X171100000Y-99600000D01*
X164100000Y-101050000D02*
X164100000Y-99600000D01*
X164100000Y-102050000D02*
X164100000Y-106300000D01*
X167790000Y-102050000D02*
X167790000Y-99600000D01*
X164100000Y-99600000D02*
X166850000Y-99600000D01*
X171100000Y-99600000D02*
X171100000Y-106550000D01*
X163110000Y-109753733D02*
X163110000Y-110046267D01*
X162090000Y-109753733D02*
X162090000Y-110046267D01*
X127639200Y-95827000D02*
X127639200Y-94497000D01*
X132839200Y-94497000D02*
X132839200Y-109857000D01*
X127639200Y-97097000D02*
X127639200Y-109857000D01*
X130239200Y-97097000D02*
X130239200Y-94497000D01*
X127639200Y-97097000D02*
X130239200Y-97097000D01*
X130239200Y-94497000D02*
X132839200Y-94497000D01*
X127639200Y-94497000D02*
X128969200Y-94497000D01*
X127639200Y-109857000D02*
X132839200Y-109857000D01*
X148650000Y-103066000D02*
X148650000Y-106116000D01*
X135930000Y-103066000D02*
X135930000Y-100016000D01*
X135930000Y-103066000D02*
X135930000Y-106116000D01*
X148650000Y-103066000D02*
X148650000Y-98616000D01*
X131744000Y-115812000D02*
X127604000Y-115812000D01*
X127604000Y-112972000D02*
X127604000Y-112672000D01*
X131744000Y-115512000D02*
X131744000Y-115812000D01*
X127604000Y-115812000D02*
X127604000Y-115512000D01*
X131744000Y-112672000D02*
X131744000Y-112972000D01*
X127604000Y-112672000D02*
X131744000Y-112672000D01*
X134797724Y-111052500D02*
X134288276Y-111052500D01*
X134797724Y-112097500D02*
X134288276Y-112097500D01*
X143921733Y-111450000D02*
X144214267Y-111450000D01*
X143921733Y-110430000D02*
X144214267Y-110430000D01*
X145318733Y-93158000D02*
X145611267Y-93158000D01*
X145318733Y-94178000D02*
X145611267Y-94178000D01*
X144765000Y-90382000D02*
X146165000Y-90382000D01*
X144065000Y-91682000D02*
X144065000Y-91082000D01*
X146865000Y-91082000D02*
X146865000Y-91682000D01*
X146165000Y-92382000D02*
X144765000Y-92382000D01*
X144065000Y-91682000D02*
G75*
G03*
X144765000Y-92382000I699999J-1D01*
G01*
X144765000Y-90382000D02*
G75*
G03*
X144065000Y-91082000I-1J-699999D01*
G01*
X146165000Y-92382000D02*
G75*
G03*
X146865000Y-91682000I0J700000D01*
G01*
X146865000Y-91082000D02*
G75*
G03*
X146165000Y-90382000I-700000J0D01*
G01*
%LPC*%
D14*
X150856000Y-92398000D03*
X149656000Y-92398000D03*
X148456000Y-92398000D03*
D15*
X112445000Y-95950000D03*
D16*
X114985000Y-95950000D03*
X112445000Y-98490000D03*
X114985000Y-98490000D03*
X112445000Y-101030000D03*
X114985000Y-101030000D03*
X112445000Y-103570000D03*
X114985000Y-103570000D03*
X112445000Y-106110000D03*
X114985000Y-106110000D03*
X112445000Y-108650000D03*
X114985000Y-108650000D03*
X112445000Y-111190000D03*
X114985000Y-111190000D03*
D17*
X148386000Y-110940000D03*
X146661000Y-110940000D03*
X142898500Y-92144000D03*
X141173500Y-92144000D03*
D18*
X130860000Y-85030000D03*
D19*
X133400000Y-85030000D03*
X135940000Y-85030000D03*
X138480000Y-85030000D03*
X141020000Y-85030000D03*
X143560000Y-85030000D03*
X146100000Y-85030000D03*
X148640000Y-85030000D03*
D18*
X146100000Y-121100000D03*
D19*
X148640000Y-121100000D03*
X151180000Y-121100000D03*
X153720000Y-121100000D03*
X156260000Y-121100000D03*
X158800000Y-121100000D03*
X161340000Y-121100000D03*
X163880000Y-121100000D03*
X166420000Y-121100000D03*
D18*
X121970000Y-96203000D03*
D19*
X121970000Y-98743000D03*
X121970000Y-101283000D03*
X121970000Y-103823000D03*
X121970000Y-106363000D03*
X121970000Y-108903000D03*
X121970000Y-111443000D03*
D20*
X163250000Y-103862500D03*
X163250000Y-102137500D03*
X161750000Y-103862500D03*
X161750000Y-102137500D03*
X151600000Y-103862500D03*
X151600000Y-102137500D03*
X153100000Y-103862500D03*
X153100000Y-102137500D03*
D21*
X141138500Y-93664000D03*
X142963500Y-93664000D03*
D22*
X155312500Y-101500000D03*
D23*
X155400000Y-103000000D03*
D22*
X155312500Y-104500000D03*
D24*
X176100000Y-88825000D03*
X176100000Y-90575000D03*
D18*
X165600000Y-89800000D03*
D19*
X163060000Y-89800000D03*
D25*
X174500000Y-88787500D03*
X174500000Y-90612500D03*
D18*
X123240000Y-121100000D03*
D19*
X125780000Y-121100000D03*
X128320000Y-121100000D03*
X130860000Y-121100000D03*
X133400000Y-121100000D03*
X135940000Y-121100000D03*
X138480000Y-121100000D03*
X141020000Y-121100000D03*
D18*
X155000000Y-93400000D03*
D19*
X157540000Y-93400000D03*
X160080000Y-93400000D03*
D18*
X155000000Y-97000000D03*
D19*
X157540000Y-97000000D03*
X160080000Y-97000000D03*
D18*
X155000000Y-112600000D03*
D19*
X157540000Y-112600000D03*
X160080000Y-112600000D03*
D26*
X164100000Y-109037500D03*
X164100000Y-110762500D03*
X164100000Y-93437500D03*
X164100000Y-95162500D03*
X162600000Y-93437500D03*
X162600000Y-95162500D03*
D18*
X155000000Y-109000000D03*
D19*
X157540000Y-109000000D03*
X160080000Y-109000000D03*
D27*
X173758500Y-104239000D03*
X173758500Y-103589000D03*
X173758500Y-102939000D03*
X173758500Y-102289000D03*
X173758500Y-101639000D03*
D28*
X176546000Y-105839000D03*
D29*
X173846000Y-100489000D03*
D30*
X176546000Y-99339000D03*
X176546000Y-106539000D03*
D31*
X176546000Y-101939000D03*
X176546000Y-103939000D03*
D28*
X176546000Y-100039000D03*
D29*
X173846000Y-105389000D03*
D17*
X142898500Y-90644000D03*
X141173500Y-90644000D03*
D18*
X112300000Y-87180000D03*
D19*
X114840000Y-87180000D03*
X117380000Y-87180000D03*
D26*
X133738000Y-113379500D03*
X133738000Y-115104500D03*
D32*
X135238000Y-115154500D03*
X135238000Y-113329500D03*
D33*
X165350000Y-101050000D03*
D34*
X165350000Y-103050000D03*
X165350000Y-105050000D03*
X169850000Y-101050000D03*
X169850000Y-103050000D03*
X169850000Y-105050000D03*
D26*
X162600000Y-109037500D03*
X162600000Y-110762500D03*
D18*
X128969200Y-95827000D03*
D19*
X131509200Y-95827000D03*
X128969200Y-98367000D03*
X131509200Y-98367000D03*
X128969200Y-100907000D03*
X131509200Y-100907000D03*
X128969200Y-103447000D03*
X131509200Y-103447000D03*
X128969200Y-105987000D03*
X131509200Y-105987000D03*
X128969200Y-108527000D03*
X131509200Y-108527000D03*
D35*
X148140000Y-99353500D03*
X147490000Y-99353500D03*
X146840000Y-99353500D03*
X146190000Y-99353500D03*
X145540000Y-99353500D03*
X144890000Y-99353500D03*
X144240000Y-99353500D03*
X143590000Y-99353500D03*
X142940000Y-99353500D03*
X142290000Y-99353500D03*
X141640000Y-99353500D03*
X140990000Y-99353500D03*
X140340000Y-99353500D03*
X139690000Y-99353500D03*
X139040000Y-99353500D03*
X138390000Y-99353500D03*
X137740000Y-99353500D03*
X137090000Y-99353500D03*
X136440000Y-99353500D03*
X136440000Y-106778500D03*
X137090000Y-106778500D03*
X137740000Y-106778500D03*
X138390000Y-106778500D03*
X139040000Y-106778500D03*
X139690000Y-106778500D03*
X140340000Y-106778500D03*
X140990000Y-106778500D03*
X141640000Y-106778500D03*
X142290000Y-106778500D03*
X142940000Y-106778500D03*
X143590000Y-106778500D03*
X144240000Y-106778500D03*
X144890000Y-106778500D03*
X145540000Y-106778500D03*
X146190000Y-106778500D03*
X146840000Y-106778500D03*
X147490000Y-106778500D03*
X148140000Y-106778500D03*
D36*
X131749000Y-114242000D03*
X127599000Y-114242000D03*
D37*
X135455500Y-111575000D03*
X133630500Y-111575000D03*
D38*
X143205500Y-110940000D03*
X144930500Y-110940000D03*
X144602500Y-93668000D03*
X146327500Y-93668000D03*
D39*
X144815000Y-91382000D03*
D40*
X146115000Y-91382000D03*
M02*
