G04 #@! TF.GenerationSoftware,KiCad,Pcbnew,(6.0.7)*
G04 #@! TF.CreationDate,2022-09-17T20:46:44+02:00*
G04 #@! TF.ProjectId,SLAU272_FR5739,534c4155-3237-4325-9f46-52353733392e,rev?*
G04 #@! TF.SameCoordinates,Original*
G04 #@! TF.FileFunction,Copper,L2,Bot*
G04 #@! TF.FilePolarity,Positive*
%FSLAX46Y46*%
G04 Gerber Fmt 4.6, Leading zero omitted, Abs format (unit mm)*
G04 Created by KiCad (PCBNEW (6.0.7)) date 2022-09-17 20:46:44*
%MOMM*%
%LPD*%
G01*
G04 APERTURE LIST*
G04 Aperture macros list*
%AMRoundRect*
0 Rectangle with rounded corners*
0 $1 Rounding radius*
0 $2 $3 $4 $5 $6 $7 $8 $9 X,Y pos of 4 corners*
0 Add a 4 corners polygon primitive as box body*
4,1,4,$2,$3,$4,$5,$6,$7,$8,$9,$2,$3,0*
0 Add four circle primitives for the rounded corners*
1,1,$1+$1,$2,$3*
1,1,$1+$1,$4,$5*
1,1,$1+$1,$6,$7*
1,1,$1+$1,$8,$9*
0 Add four rect primitives between the rounded corners*
20,1,$1+$1,$2,$3,$4,$5,0*
20,1,$1+$1,$4,$5,$6,$7,0*
20,1,$1+$1,$6,$7,$8,$9,0*
20,1,$1+$1,$8,$9,$2,$3,0*%
G04 Aperture macros list end*
G04 #@! TA.AperFunction,ComponentPad*
%ADD10RoundRect,0.250000X-0.600000X-0.600000X0.600000X-0.600000X0.600000X0.600000X-0.600000X0.600000X0*%
G04 #@! TD*
G04 #@! TA.AperFunction,ComponentPad*
%ADD11C,1.700000*%
G04 #@! TD*
G04 #@! TA.AperFunction,ComponentPad*
%ADD12R,1.700000X1.700000*%
G04 #@! TD*
G04 #@! TA.AperFunction,ComponentPad*
%ADD13O,1.700000X1.700000*%
G04 #@! TD*
G04 #@! TA.AperFunction,ComponentPad*
%ADD14C,1.450000*%
G04 #@! TD*
G04 #@! TA.AperFunction,ComponentPad*
%ADD15O,1.900000X1.200000*%
G04 #@! TD*
G04 #@! TA.AperFunction,ComponentPad*
%ADD16R,1.350000X1.350000*%
G04 #@! TD*
G04 #@! TA.AperFunction,ComponentPad*
%ADD17O,1.350000X1.350000*%
G04 #@! TD*
G04 #@! TA.AperFunction,ViaPad*
%ADD18C,0.800000*%
G04 #@! TD*
G04 #@! TA.AperFunction,ViaPad*
%ADD19C,0.600000*%
G04 #@! TD*
G04 #@! TA.AperFunction,ViaPad*
%ADD20C,1.000000*%
G04 #@! TD*
G04 #@! TA.AperFunction,Conductor*
%ADD21C,0.254000*%
G04 #@! TD*
G04 #@! TA.AperFunction,Conductor*
%ADD22C,0.508000*%
G04 #@! TD*
G04 #@! TA.AperFunction,Conductor*
%ADD23C,1.000000*%
G04 #@! TD*
G04 APERTURE END LIST*
D10*
X112445000Y-95950000D03*
D11*
X114985000Y-95950000D03*
X112445000Y-98490000D03*
X114985000Y-98490000D03*
X112445000Y-101030000D03*
X114985000Y-101030000D03*
X112445000Y-103570000D03*
X114985000Y-103570000D03*
X112445000Y-106110000D03*
X114985000Y-106110000D03*
X112445000Y-108650000D03*
X114985000Y-108650000D03*
X112445000Y-111190000D03*
X114985000Y-111190000D03*
D12*
X130860000Y-85030000D03*
D13*
X133400000Y-85030000D03*
X135940000Y-85030000D03*
X138480000Y-85030000D03*
X141020000Y-85030000D03*
X143560000Y-85030000D03*
X146100000Y-85030000D03*
X148640000Y-85030000D03*
D12*
X146100000Y-121100000D03*
D13*
X148640000Y-121100000D03*
X151180000Y-121100000D03*
X153720000Y-121100000D03*
X156260000Y-121100000D03*
X158800000Y-121100000D03*
X161340000Y-121100000D03*
X163880000Y-121100000D03*
X166420000Y-121100000D03*
D12*
X121970000Y-96203000D03*
D13*
X121970000Y-98743000D03*
X121970000Y-101283000D03*
X121970000Y-103823000D03*
X121970000Y-106363000D03*
X121970000Y-108903000D03*
X121970000Y-111443000D03*
D12*
X165600000Y-89800000D03*
D13*
X163060000Y-89800000D03*
D12*
X123240000Y-121100000D03*
D13*
X125780000Y-121100000D03*
X128320000Y-121100000D03*
X130860000Y-121100000D03*
X133400000Y-121100000D03*
X135940000Y-121100000D03*
X138480000Y-121100000D03*
X141020000Y-121100000D03*
D12*
X155000000Y-93400000D03*
D13*
X157540000Y-93400000D03*
X160080000Y-93400000D03*
D12*
X155000000Y-97000000D03*
D13*
X157540000Y-97000000D03*
X160080000Y-97000000D03*
D12*
X155000000Y-112600000D03*
D13*
X157540000Y-112600000D03*
X160080000Y-112600000D03*
D12*
X155000000Y-109000000D03*
D13*
X157540000Y-109000000D03*
X160080000Y-109000000D03*
D14*
X173846000Y-100489000D03*
D15*
X176546000Y-99339000D03*
X176546000Y-106539000D03*
D14*
X173846000Y-105389000D03*
D12*
X112300000Y-87180000D03*
D13*
X114840000Y-87180000D03*
X117380000Y-87180000D03*
D16*
X165350000Y-101050000D03*
D17*
X165350000Y-103050000D03*
X165350000Y-105050000D03*
X169850000Y-101050000D03*
X169850000Y-103050000D03*
X169850000Y-105050000D03*
D12*
X128969200Y-95827000D03*
D13*
X131509200Y-95827000D03*
X128969200Y-98367000D03*
X131509200Y-98367000D03*
X128969200Y-100907000D03*
X131509200Y-100907000D03*
X128969200Y-103447000D03*
X131509200Y-103447000D03*
X128969200Y-105987000D03*
X131509200Y-105987000D03*
X128969200Y-108527000D03*
X131509200Y-108527000D03*
D18*
X146404800Y-104336000D03*
X139089600Y-102558000D03*
D19*
X115010400Y-91585200D03*
X124713200Y-98748000D03*
X144423600Y-117036000D03*
D18*
X150468800Y-107180800D03*
D19*
X141477200Y-118661600D03*
X134416000Y-107434800D03*
X118414000Y-104437600D03*
X123646400Y-91382000D03*
X149249600Y-117594800D03*
X141172400Y-89400800D03*
D18*
X153050000Y-110949600D03*
X137108400Y-115156400D03*
D20*
X153050000Y-105900000D03*
D19*
X143610800Y-103903006D03*
X150316400Y-114724600D03*
X143610800Y-103103503D03*
X149503600Y-114724600D03*
X148690800Y-114724600D03*
X143610800Y-102304000D03*
X147878000Y-114724600D03*
X143610800Y-101491200D03*
X141629600Y-113784800D03*
X146341815Y-108743785D03*
X137616400Y-114242000D03*
X136448000Y-101135600D03*
X140816800Y-115004000D03*
X148310040Y-109150869D03*
X140385000Y-113734000D03*
X147318477Y-109025138D03*
X146201600Y-101542000D03*
X140466803Y-95571000D03*
X141223200Y-96197500D03*
X144220400Y-96157200D03*
X144880800Y-96970000D03*
X145541200Y-97732000D03*
X140133137Y-94790211D03*
X146201600Y-100729200D03*
X134365200Y-97274800D03*
D21*
X130237750Y-102178450D02*
X130237750Y-107255550D01*
X131509200Y-100907000D02*
X130237750Y-102178450D01*
X130237750Y-107255550D02*
X131509200Y-108527000D01*
X131509200Y-103447000D02*
X131509200Y-105987000D01*
D22*
X137616400Y-115156400D02*
X139394400Y-116934400D01*
D23*
X153050000Y-105900000D02*
X153050000Y-95350000D01*
D22*
X139394400Y-116934400D02*
X142036000Y-116934400D01*
X153050000Y-117858400D02*
X153050000Y-110949600D01*
X142036000Y-116934400D02*
X144220400Y-119118800D01*
X151789600Y-119118800D02*
X153050000Y-117858400D01*
D23*
X153050000Y-105900000D02*
X153050000Y-110949600D01*
D22*
X144220400Y-119118800D02*
X151789600Y-119118800D01*
X137108400Y-115156400D02*
X137616400Y-115156400D01*
D23*
X153050000Y-95350000D02*
X155000000Y-93400000D01*
D21*
X143610800Y-107231600D02*
X150316400Y-113937200D01*
X143610800Y-103903006D02*
X143610800Y-107231600D01*
X150316400Y-113937200D02*
X150316400Y-114724600D01*
X142983800Y-103643294D02*
X143523591Y-103103503D01*
X149503600Y-114724600D02*
X149503600Y-114010406D01*
X143523591Y-103103503D02*
X143610800Y-103103503D01*
X149503600Y-114010406D02*
X142983800Y-107490606D01*
X142983800Y-107490606D02*
X142983800Y-103643294D01*
X148690800Y-113937200D02*
X142529800Y-107776200D01*
X142529800Y-107776200D02*
X142529800Y-103297791D01*
X148690800Y-114724600D02*
X148690800Y-113937200D01*
X142529800Y-103297791D02*
X143523591Y-102304000D01*
X143523591Y-102304000D02*
X143610800Y-102304000D01*
X142075800Y-102952288D02*
X143536888Y-101491200D01*
X147878000Y-113886400D02*
X142075800Y-108084200D01*
X143536888Y-101491200D02*
X143610800Y-101491200D01*
X147878000Y-114724600D02*
X147878000Y-113886400D01*
X142075800Y-108084200D02*
X142075800Y-102952288D01*
X150943400Y-115099496D02*
X150676896Y-115366000D01*
X146341815Y-108743785D02*
X146341815Y-109075903D01*
X146341815Y-109075903D02*
X150943400Y-113677488D01*
X145668200Y-113784800D02*
X141629600Y-113784800D01*
X150943400Y-113677488D02*
X150943400Y-115099496D01*
X150676896Y-115366000D02*
X147238104Y-115366000D01*
X147238104Y-115366000D02*
X145668200Y-113796096D01*
X145668200Y-113796096D02*
X145668200Y-113784800D01*
X136397200Y-119017200D02*
X138480000Y-121100000D01*
X136381400Y-114613400D02*
X136381400Y-115293000D01*
X137616400Y-114242000D02*
X136752800Y-114242000D01*
X136397200Y-115308800D02*
X136397200Y-119017200D01*
X136381400Y-115293000D02*
X136397200Y-115308800D01*
X136752800Y-114242000D02*
X136381400Y-114613400D01*
X135927400Y-101656200D02*
X135927400Y-117175800D01*
X136448000Y-101135600D02*
X135927400Y-101656200D01*
X135927400Y-117175800D02*
X135940000Y-117188400D01*
X135940000Y-117188400D02*
X135940000Y-121100000D01*
X151851400Y-115475600D02*
X151053000Y-116274000D01*
X148310040Y-109150869D02*
X148310040Y-109760023D01*
X151053000Y-116274000D02*
X146862000Y-116274000D01*
X151851400Y-113301382D02*
X151851400Y-115475600D01*
X146862000Y-116274000D02*
X145592000Y-115004000D01*
X145592000Y-115004000D02*
X140816800Y-115004000D01*
X148310040Y-109760023D02*
X151851400Y-113301382D01*
X150864948Y-115820000D02*
X151397400Y-115287548D01*
X140385000Y-113734000D02*
X141062800Y-114411800D01*
X151397400Y-115287548D02*
X151397400Y-113489435D01*
X141062800Y-114411800D02*
X145641852Y-114411800D01*
X145641852Y-114411800D02*
X147050052Y-115820000D01*
X147318477Y-109410512D02*
X147318477Y-109025138D01*
X151397400Y-113489435D02*
X147318477Y-109410512D01*
X147050052Y-115820000D02*
X150864948Y-115820000D01*
X122424000Y-120284000D02*
X123240000Y-121100000D01*
X115209600Y-111190000D02*
X115801000Y-111781400D01*
X115801000Y-111781400D02*
X115801000Y-118868000D01*
X115801000Y-118868000D02*
X117217000Y-120284000D01*
X117217000Y-120284000D02*
X122424000Y-120284000D01*
X114985000Y-111190000D02*
X115209600Y-111190000D01*
X114985000Y-108650000D02*
X116255000Y-109920000D01*
X116255000Y-109920000D02*
X116255000Y-118679948D01*
X124510000Y-119830000D02*
X125780000Y-121100000D01*
X116255000Y-118679948D02*
X117405052Y-119830000D01*
X117405052Y-119830000D02*
X124510000Y-119830000D01*
X146201600Y-101542000D02*
X146963600Y-101542000D01*
X148640000Y-99865600D02*
X148640000Y-85030000D01*
X146963600Y-101542000D02*
X148640000Y-99865600D01*
X138480000Y-86251200D02*
X139798800Y-86251200D01*
X137664000Y-87067200D02*
X138480000Y-86251200D01*
X140466803Y-95571000D02*
X140027920Y-95571000D01*
X137664000Y-93207080D02*
X137664000Y-87067200D01*
X139798800Y-86251200D02*
X141020000Y-85030000D01*
X140027920Y-95571000D02*
X137664000Y-93207080D01*
X137210000Y-86300000D02*
X138480000Y-85030000D01*
X141223200Y-96197500D02*
X140012368Y-96197500D01*
X137210000Y-93395132D02*
X137210000Y-86300000D01*
X140012368Y-96197500D02*
X137210000Y-93395132D01*
X163060000Y-85532800D02*
X163060000Y-89800000D01*
X135940000Y-85030000D02*
X136756000Y-85846000D01*
X143553600Y-96824000D02*
X144220400Y-96157200D01*
X136756000Y-85846000D02*
X136756000Y-93583184D01*
X139996816Y-96824000D02*
X143553600Y-96824000D01*
X161316700Y-83789500D02*
X163060000Y-85532800D01*
X136756000Y-93583184D02*
X139996816Y-96824000D01*
X135940000Y-85030000D02*
X137180500Y-83789500D01*
X137180500Y-83789500D02*
X161316700Y-83789500D01*
X135686000Y-86403600D02*
X136302000Y-87019600D01*
X144572800Y-97278000D02*
X144880800Y-96970000D01*
X133400000Y-85030000D02*
X134773600Y-86403600D01*
X136302000Y-87019600D02*
X136302000Y-93771236D01*
X139808764Y-97278000D02*
X144572800Y-97278000D01*
X134773600Y-86403600D02*
X135686000Y-86403600D01*
X136302000Y-93771236D02*
X139808764Y-97278000D01*
X135479600Y-86857600D02*
X135848000Y-87226000D01*
X135848000Y-87226000D02*
X135848000Y-93959288D01*
X132687600Y-86857600D02*
X135479600Y-86857600D01*
X139620712Y-97732000D02*
X145541200Y-97732000D01*
X130860000Y-85030000D02*
X132687600Y-86857600D01*
X135848000Y-93959288D02*
X139620712Y-97732000D01*
X116890000Y-100272000D02*
X119499148Y-100272000D01*
X114985000Y-103570000D02*
X116483600Y-102071400D01*
X120651700Y-103271700D02*
X120651700Y-105044700D01*
X119499148Y-100272000D02*
X119992000Y-100764852D01*
X116483600Y-100678400D02*
X116890000Y-100272000D01*
X119992000Y-100764852D02*
X119992000Y-102612000D01*
X116483600Y-102071400D02*
X116483600Y-100678400D01*
X120651700Y-105044700D02*
X121970000Y-106363000D01*
X119992000Y-102612000D02*
X120651700Y-103271700D01*
X120445550Y-107378550D02*
X121970000Y-108903000D01*
X113081450Y-107378550D02*
X120445550Y-107378550D01*
X112445000Y-108650000D02*
X112445000Y-108015000D01*
X112445000Y-108015000D02*
X113081450Y-107378550D01*
X128969200Y-98367000D02*
X127792200Y-99544000D01*
X127792200Y-104810000D02*
X128969200Y-105987000D01*
X127792200Y-99544000D02*
X127792200Y-104810000D01*
X127338200Y-97458000D02*
X127338200Y-101779400D01*
X110633000Y-97127000D02*
X110633000Y-98977530D01*
X128969200Y-95827000D02*
X127338200Y-97458000D01*
X112445000Y-95950000D02*
X111810000Y-95950000D01*
X127338200Y-106896000D02*
X128969200Y-108527000D01*
X120446000Y-100576800D02*
X120446000Y-102304000D01*
X111810000Y-95950000D02*
X110633000Y-97127000D01*
X120451000Y-102304000D02*
X121970000Y-103823000D01*
X119633200Y-99764000D02*
X120446000Y-100576800D01*
X124013600Y-101779400D02*
X127338200Y-101779400D01*
X110633000Y-98977530D02*
X111419470Y-99764000D01*
X121970000Y-103823000D02*
X124013600Y-101779400D01*
X111419470Y-99764000D02*
X119633200Y-99764000D01*
X120446000Y-102304000D02*
X120451000Y-102304000D01*
X127338200Y-101779400D02*
X127338200Y-106896000D01*
X139889183Y-94790211D02*
X138118000Y-93019028D01*
X142338800Y-86251200D02*
X143560000Y-85030000D01*
X140133137Y-94790211D02*
X139889183Y-94790211D01*
X139986853Y-86705200D02*
X140440852Y-86251200D01*
X140440852Y-86251200D02*
X142338800Y-86251200D01*
X138118000Y-93019028D02*
X138118000Y-87273600D01*
X138686400Y-86705200D02*
X139986853Y-86705200D01*
X138118000Y-87273600D02*
X138686400Y-86705200D01*
X146860000Y-85030000D02*
X146100000Y-85030000D01*
X148186000Y-99677548D02*
X148186000Y-86356000D01*
X146201600Y-100729200D02*
X147134348Y-100729200D01*
X147134348Y-100729200D02*
X148186000Y-99677548D01*
X148186000Y-86356000D02*
X146860000Y-85030000D01*
X112445000Y-97855000D02*
X112987000Y-97313000D01*
X134365200Y-97274800D02*
X133501600Y-97274800D01*
X116382000Y-97986000D02*
X116382000Y-99103600D01*
X119997000Y-99310000D02*
X121970000Y-101283000D01*
X112987000Y-97313000D02*
X115709000Y-97313000D01*
X116382000Y-99103600D02*
X116588400Y-99310000D01*
X127609099Y-94650000D02*
X126669000Y-95590099D01*
X116588400Y-99310000D02*
X119997000Y-99310000D01*
X115709000Y-97313000D02*
X116382000Y-97986000D01*
X132993600Y-95192000D02*
X132451600Y-94650000D01*
X126669000Y-100907000D02*
X126293000Y-101283000D01*
X112445000Y-98490000D02*
X112445000Y-97855000D01*
X132451600Y-94650000D02*
X127609099Y-94650000D01*
X126293000Y-101283000D02*
X121970000Y-101283000D01*
X126669000Y-95590099D02*
X126669000Y-100907000D01*
X132993600Y-96766800D02*
X132993600Y-95192000D01*
X133501600Y-97274800D02*
X132993600Y-96766800D01*
G04 #@! TA.AperFunction,Conductor*
G36*
X129747924Y-83528502D02*
G01*
X129794417Y-83582158D01*
X129804521Y-83652432D01*
X129775027Y-83717012D01*
X129755368Y-83735326D01*
X129646739Y-83816739D01*
X129559385Y-83933295D01*
X129508255Y-84069684D01*
X129501500Y-84131866D01*
X129501500Y-85928134D01*
X129508255Y-85990316D01*
X129559385Y-86126705D01*
X129646739Y-86243261D01*
X129763295Y-86330615D01*
X129899684Y-86381745D01*
X129961866Y-86388500D01*
X131267577Y-86388500D01*
X131335698Y-86408502D01*
X131356672Y-86425405D01*
X132182350Y-87251083D01*
X132189926Y-87259409D01*
X132194047Y-87265903D01*
X132199822Y-87271326D01*
X132243865Y-87312685D01*
X132246707Y-87315440D01*
X132266506Y-87335239D01*
X132269631Y-87337663D01*
X132269640Y-87337671D01*
X132269726Y-87337737D01*
X132278751Y-87345445D01*
X132311094Y-87375817D01*
X132318038Y-87379635D01*
X132318040Y-87379636D01*
X132328929Y-87385622D01*
X132345447Y-87396473D01*
X132361533Y-87408950D01*
X132402266Y-87426576D01*
X132412914Y-87431793D01*
X132451797Y-87453169D01*
X132459472Y-87455140D01*
X132459478Y-87455142D01*
X132471511Y-87458231D01*
X132490213Y-87464634D01*
X132508892Y-87472717D01*
X132542728Y-87478076D01*
X132552727Y-87479660D01*
X132564340Y-87482065D01*
X132607318Y-87493100D01*
X132627665Y-87493100D01*
X132647377Y-87494651D01*
X132667479Y-87497835D01*
X132675371Y-87497089D01*
X132711656Y-87493659D01*
X132723514Y-87493100D01*
X135086500Y-87493100D01*
X135154621Y-87513102D01*
X135201114Y-87566758D01*
X135212500Y-87619100D01*
X135212500Y-93880268D01*
X135211970Y-93891502D01*
X135210292Y-93899007D01*
X135210541Y-93906926D01*
X135212438Y-93967300D01*
X135212500Y-93971257D01*
X135212500Y-93999271D01*
X135212996Y-94003196D01*
X135212996Y-94003197D01*
X135213008Y-94003292D01*
X135213941Y-94015137D01*
X135215335Y-94059493D01*
X135217547Y-94067105D01*
X135221013Y-94079036D01*
X135225023Y-94098400D01*
X135226109Y-94106994D01*
X135227573Y-94118587D01*
X135230489Y-94125951D01*
X135230490Y-94125956D01*
X135243907Y-94159844D01*
X135247752Y-94171073D01*
X135249880Y-94178398D01*
X135260131Y-94213681D01*
X135264169Y-94220508D01*
X135264170Y-94220511D01*
X135270488Y-94231194D01*
X135279188Y-94248952D01*
X135283761Y-94260503D01*
X135283765Y-94260509D01*
X135286681Y-94267876D01*
X135291339Y-94274287D01*
X135291340Y-94274289D01*
X135312764Y-94303776D01*
X135319281Y-94313698D01*
X135337826Y-94345056D01*
X135337829Y-94345060D01*
X135341866Y-94351886D01*
X135356250Y-94366270D01*
X135369091Y-94381304D01*
X135381058Y-94397775D01*
X135387166Y-94402828D01*
X135415255Y-94426065D01*
X135424035Y-94434055D01*
X139115457Y-98125477D01*
X139123034Y-98133803D01*
X139127159Y-98140303D01*
X139132937Y-98145729D01*
X139132938Y-98145730D01*
X139176993Y-98187100D01*
X139179835Y-98189855D01*
X139199618Y-98209638D01*
X139202826Y-98212126D01*
X139211855Y-98219837D01*
X139244206Y-98250217D01*
X139251155Y-98254037D01*
X139262041Y-98260022D01*
X139278565Y-98270876D01*
X139286843Y-98277297D01*
X139294645Y-98283349D01*
X139301922Y-98286498D01*
X139335362Y-98300969D01*
X139346023Y-98306192D01*
X139377959Y-98323749D01*
X139377964Y-98323751D01*
X139384909Y-98327569D01*
X139392583Y-98329539D01*
X139392590Y-98329542D01*
X139404625Y-98332632D01*
X139423330Y-98339036D01*
X139425290Y-98339884D01*
X139442004Y-98347117D01*
X139469054Y-98351401D01*
X139485839Y-98354060D01*
X139497452Y-98356465D01*
X139540430Y-98367500D01*
X139560777Y-98367500D01*
X139580488Y-98369051D01*
X139592762Y-98370995D01*
X139600591Y-98372235D01*
X139608483Y-98371489D01*
X139644768Y-98368059D01*
X139656626Y-98367500D01*
X144998159Y-98367500D01*
X145067152Y-98388068D01*
X145141788Y-98436908D01*
X145174359Y-98458222D01*
X145180963Y-98460678D01*
X145180965Y-98460679D01*
X145337758Y-98518990D01*
X145337760Y-98518990D01*
X145344368Y-98521448D01*
X145428195Y-98532633D01*
X145517180Y-98544507D01*
X145517184Y-98544507D01*
X145524161Y-98545438D01*
X145531172Y-98544800D01*
X145531176Y-98544800D01*
X145673659Y-98531832D01*
X145704800Y-98528998D01*
X145711502Y-98526820D01*
X145711504Y-98526820D01*
X145870609Y-98475124D01*
X145870612Y-98475123D01*
X145877308Y-98472947D01*
X146033112Y-98380069D01*
X146164466Y-98254982D01*
X146264843Y-98103902D01*
X146323312Y-97949983D01*
X146326755Y-97940920D01*
X146326756Y-97940918D01*
X146329255Y-97934338D01*
X146334522Y-97896860D01*
X146353948Y-97758639D01*
X146353948Y-97758636D01*
X146354499Y-97754717D01*
X146354816Y-97732000D01*
X146334597Y-97551745D01*
X146319760Y-97509138D01*
X146277264Y-97387106D01*
X146277262Y-97387103D01*
X146274945Y-97380448D01*
X146223299Y-97297797D01*
X146182559Y-97232598D01*
X146178826Y-97226624D01*
X146163428Y-97211118D01*
X146055978Y-97102915D01*
X146055974Y-97102912D01*
X146051015Y-97097918D01*
X145897866Y-97000727D01*
X145763713Y-96952958D01*
X145706250Y-96911264D01*
X145680765Y-96848303D01*
X145680733Y-96848011D01*
X145674197Y-96789745D01*
X145669201Y-96775398D01*
X145616864Y-96625106D01*
X145616862Y-96625103D01*
X145614545Y-96618448D01*
X145528136Y-96480164D01*
X145522159Y-96470598D01*
X145518426Y-96464624D01*
X145461037Y-96406833D01*
X145395578Y-96340915D01*
X145395574Y-96340912D01*
X145390615Y-96335918D01*
X145371319Y-96323672D01*
X145244235Y-96243023D01*
X145237466Y-96238727D01*
X145109249Y-96193071D01*
X145051785Y-96151377D01*
X145026301Y-96088418D01*
X145014582Y-95983943D01*
X145013797Y-95976945D01*
X145011480Y-95970291D01*
X144956464Y-95812306D01*
X144956462Y-95812303D01*
X144954145Y-95805648D01*
X144925371Y-95759599D01*
X144861759Y-95657798D01*
X144858026Y-95651824D01*
X144852714Y-95646475D01*
X144735178Y-95528115D01*
X144735174Y-95528112D01*
X144730215Y-95523118D01*
X144719097Y-95516062D01*
X144670938Y-95485500D01*
X144577066Y-95425927D01*
X144517027Y-95404548D01*
X144412825Y-95367443D01*
X144412820Y-95367442D01*
X144406190Y-95365081D01*
X144399202Y-95364248D01*
X144399199Y-95364247D01*
X144276098Y-95349568D01*
X144226080Y-95343604D01*
X144219077Y-95344340D01*
X144219076Y-95344340D01*
X144052688Y-95361828D01*
X144052686Y-95361829D01*
X144045688Y-95362564D01*
X143873979Y-95421018D01*
X143859857Y-95429706D01*
X143725495Y-95512366D01*
X143725492Y-95512368D01*
X143719488Y-95516062D01*
X143714453Y-95520993D01*
X143714450Y-95520995D01*
X143611309Y-95621999D01*
X143589893Y-95642971D01*
X143491635Y-95795438D01*
X143489226Y-95802058D01*
X143489224Y-95802061D01*
X143454905Y-95896351D01*
X143429597Y-95965885D01*
X143422946Y-96018531D01*
X143394566Y-96083604D01*
X143387036Y-96091831D01*
X143327272Y-96151595D01*
X143264960Y-96185621D01*
X143238177Y-96188500D01*
X142148463Y-96188500D01*
X142080342Y-96168498D01*
X142033849Y-96114842D01*
X142023248Y-96076544D01*
X142021542Y-96061327D01*
X142016597Y-96017245D01*
X142010667Y-96000215D01*
X141959264Y-95852606D01*
X141959262Y-95852603D01*
X141956945Y-95845948D01*
X141902989Y-95759599D01*
X141864559Y-95698098D01*
X141860826Y-95692124D01*
X141844865Y-95676051D01*
X141737978Y-95568415D01*
X141737974Y-95568412D01*
X141733015Y-95563418D01*
X141707353Y-95547132D01*
X141657855Y-95515720D01*
X141579866Y-95466227D01*
X141550663Y-95455828D01*
X141415625Y-95407743D01*
X141415620Y-95407742D01*
X141408990Y-95405381D01*
X141360381Y-95399585D01*
X141337249Y-95396826D01*
X141271976Y-95368898D01*
X141233178Y-95313149D01*
X141202867Y-95226106D01*
X141202865Y-95226103D01*
X141200548Y-95219448D01*
X141177146Y-95181997D01*
X141108162Y-95071598D01*
X141104429Y-95065624D01*
X141089551Y-95050642D01*
X140978986Y-94939302D01*
X140945179Y-94876871D01*
X140943618Y-94832985D01*
X140945884Y-94816858D01*
X140945884Y-94816853D01*
X140946436Y-94812928D01*
X140946753Y-94790211D01*
X140926534Y-94609956D01*
X140924217Y-94603302D01*
X140869201Y-94445317D01*
X140869199Y-94445314D01*
X140866882Y-94438659D01*
X140861377Y-94429849D01*
X140774496Y-94290809D01*
X140770763Y-94284835D01*
X140765259Y-94279292D01*
X140647915Y-94161126D01*
X140647911Y-94161123D01*
X140642952Y-94156129D01*
X140632471Y-94149477D01*
X140565527Y-94106994D01*
X140489803Y-94058938D01*
X140458032Y-94047625D01*
X140325562Y-94000454D01*
X140325557Y-94000453D01*
X140318927Y-93998092D01*
X140311939Y-93997259D01*
X140311936Y-93997258D01*
X140188835Y-93982579D01*
X140138817Y-93976615D01*
X140131814Y-93977351D01*
X140131812Y-93977351D01*
X140049732Y-93985978D01*
X139979894Y-93973206D01*
X139947467Y-93949763D01*
X138790405Y-92792700D01*
X138756379Y-92730388D01*
X138753500Y-92703605D01*
X138753500Y-87589023D01*
X138773502Y-87520902D01*
X138790405Y-87499927D01*
X138912729Y-87377604D01*
X138975041Y-87343579D01*
X139001824Y-87340700D01*
X139907822Y-87340700D01*
X139919061Y-87341230D01*
X139926573Y-87342909D01*
X139934498Y-87342660D01*
X139934499Y-87342660D01*
X139994884Y-87340762D01*
X139998842Y-87340700D01*
X140026836Y-87340700D01*
X140030770Y-87340203D01*
X140030772Y-87340203D01*
X140030859Y-87340192D01*
X140042693Y-87339260D01*
X140087059Y-87337865D01*
X140106598Y-87332188D01*
X140125958Y-87328179D01*
X140138284Y-87326622D01*
X140138293Y-87326620D01*
X140146152Y-87325627D01*
X140187413Y-87309291D01*
X140198641Y-87305447D01*
X140233635Y-87295280D01*
X140233638Y-87295279D01*
X140241247Y-87293068D01*
X140258767Y-87282707D01*
X140276511Y-87274014D01*
X140295441Y-87266519D01*
X140322872Y-87246590D01*
X140331342Y-87240436D01*
X140341262Y-87233920D01*
X140372624Y-87215372D01*
X140379452Y-87211334D01*
X140393839Y-87196947D01*
X140408873Y-87184106D01*
X140418926Y-87176802D01*
X140425340Y-87172142D01*
X140453630Y-87137945D01*
X140461611Y-87129175D01*
X140667180Y-86923605D01*
X140729492Y-86889580D01*
X140756276Y-86886700D01*
X142259780Y-86886700D01*
X142271014Y-86887230D01*
X142278519Y-86888908D01*
X142346812Y-86886762D01*
X142350769Y-86886700D01*
X142378783Y-86886700D01*
X142382708Y-86886204D01*
X142382709Y-86886204D01*
X142382804Y-86886192D01*
X142394649Y-86885259D01*
X142424470Y-86884322D01*
X142431082Y-86884114D01*
X142431083Y-86884114D01*
X142439005Y-86883865D01*
X142458549Y-86878187D01*
X142477912Y-86874177D01*
X142490240Y-86872620D01*
X142490242Y-86872620D01*
X142498099Y-86871627D01*
X142505463Y-86868711D01*
X142505468Y-86868710D01*
X142539356Y-86855293D01*
X142550585Y-86851448D01*
X142567265Y-86846602D01*
X142593193Y-86839069D01*
X142600020Y-86835031D01*
X142600023Y-86835030D01*
X142610706Y-86828712D01*
X142628464Y-86820012D01*
X142640015Y-86815439D01*
X142640021Y-86815435D01*
X142647388Y-86812519D01*
X142683291Y-86786434D01*
X142693210Y-86779919D01*
X142724568Y-86761374D01*
X142724572Y-86761371D01*
X142731398Y-86757334D01*
X142745782Y-86742950D01*
X142760816Y-86730109D01*
X142770873Y-86722802D01*
X142777287Y-86718142D01*
X142805573Y-86683950D01*
X142813563Y-86675169D01*
X143106901Y-86381832D01*
X143169213Y-86347807D01*
X143221117Y-86347458D01*
X143398597Y-86383567D01*
X143403772Y-86383757D01*
X143403774Y-86383757D01*
X143616673Y-86391564D01*
X143616677Y-86391564D01*
X143621837Y-86391753D01*
X143626957Y-86391097D01*
X143626959Y-86391097D01*
X143838288Y-86364025D01*
X143838289Y-86364025D01*
X143843416Y-86363368D01*
X143893717Y-86348277D01*
X144052429Y-86300661D01*
X144052434Y-86300659D01*
X144057384Y-86299174D01*
X144257994Y-86200896D01*
X144439860Y-86071173D01*
X144451171Y-86059902D01*
X144585795Y-85925747D01*
X144598096Y-85913489D01*
X144659343Y-85828255D01*
X144728453Y-85732077D01*
X144729776Y-85733028D01*
X144776645Y-85689857D01*
X144846580Y-85677625D01*
X144912026Y-85705144D01*
X144939875Y-85736994D01*
X144999987Y-85835088D01*
X145146250Y-86003938D01*
X145318126Y-86146632D01*
X145511000Y-86259338D01*
X145719692Y-86339030D01*
X145724760Y-86340061D01*
X145724763Y-86340062D01*
X145832017Y-86361883D01*
X145938597Y-86383567D01*
X145943772Y-86383757D01*
X145943774Y-86383757D01*
X146156673Y-86391564D01*
X146156677Y-86391564D01*
X146161837Y-86391753D01*
X146166957Y-86391097D01*
X146166959Y-86391097D01*
X146378288Y-86364025D01*
X146378289Y-86364025D01*
X146383416Y-86363368D01*
X146433717Y-86348277D01*
X146592429Y-86300661D01*
X146592434Y-86300659D01*
X146597384Y-86299174D01*
X146797994Y-86200896D01*
X146874070Y-86146632D01*
X146906202Y-86123713D01*
X146973276Y-86100439D01*
X147042284Y-86117123D01*
X147068465Y-86137197D01*
X147513595Y-86582327D01*
X147547621Y-86644639D01*
X147550500Y-86671422D01*
X147550500Y-99362125D01*
X147530498Y-99430246D01*
X147513595Y-99451220D01*
X146908020Y-100056795D01*
X146845708Y-100090821D01*
X146818925Y-100093700D01*
X146745788Y-100093700D01*
X146678274Y-100074085D01*
X146564215Y-100001702D01*
X146564213Y-100001701D01*
X146558266Y-99997927D01*
X146544480Y-99993018D01*
X146394025Y-99939443D01*
X146394020Y-99939442D01*
X146387390Y-99937081D01*
X146380402Y-99936248D01*
X146380399Y-99936247D01*
X146254486Y-99921233D01*
X146207280Y-99915604D01*
X146200277Y-99916340D01*
X146200276Y-99916340D01*
X146033888Y-99933828D01*
X146033886Y-99933829D01*
X146026888Y-99934564D01*
X145855179Y-99993018D01*
X145824749Y-100011739D01*
X145706695Y-100084366D01*
X145706692Y-100084368D01*
X145700688Y-100088062D01*
X145695653Y-100092993D01*
X145695650Y-100092995D01*
X145578472Y-100207745D01*
X145571093Y-100214971D01*
X145472835Y-100367438D01*
X145470426Y-100374058D01*
X145470424Y-100374061D01*
X145422215Y-100506515D01*
X145410797Y-100537885D01*
X145388063Y-100717840D01*
X145405763Y-100898360D01*
X145463018Y-101070473D01*
X145466665Y-101076496D01*
X145469568Y-101082778D01*
X145479983Y-101153006D01*
X145471700Y-101179825D01*
X145472835Y-101180238D01*
X145415437Y-101337938D01*
X145410797Y-101350685D01*
X145388063Y-101530640D01*
X145405763Y-101711160D01*
X145463018Y-101883273D01*
X145466665Y-101889295D01*
X145466666Y-101889297D01*
X145551595Y-102029532D01*
X145556980Y-102038424D01*
X145561869Y-102043487D01*
X145561870Y-102043488D01*
X145610304Y-102093642D01*
X145682982Y-102168902D01*
X145715329Y-102190069D01*
X145821183Y-102259338D01*
X145834759Y-102268222D01*
X145841363Y-102270678D01*
X145841365Y-102270679D01*
X145998158Y-102328990D01*
X145998160Y-102328990D01*
X146004768Y-102331448D01*
X146088595Y-102342633D01*
X146177580Y-102354507D01*
X146177584Y-102354507D01*
X146184561Y-102355438D01*
X146191572Y-102354800D01*
X146191576Y-102354800D01*
X146334059Y-102341832D01*
X146365200Y-102338998D01*
X146371902Y-102336820D01*
X146371904Y-102336820D01*
X146531009Y-102285124D01*
X146531012Y-102285123D01*
X146537708Y-102282947D01*
X146678683Y-102198909D01*
X146684786Y-102195271D01*
X146749303Y-102177500D01*
X146884580Y-102177500D01*
X146895814Y-102178030D01*
X146903319Y-102179708D01*
X146971612Y-102177562D01*
X146975569Y-102177500D01*
X147003583Y-102177500D01*
X147007508Y-102177004D01*
X147007509Y-102177004D01*
X147007604Y-102176992D01*
X147019449Y-102176059D01*
X147049270Y-102175122D01*
X147055882Y-102174914D01*
X147055883Y-102174914D01*
X147063805Y-102174665D01*
X147083349Y-102168987D01*
X147102712Y-102164977D01*
X147115040Y-102163420D01*
X147115042Y-102163420D01*
X147122899Y-102162427D01*
X147130263Y-102159511D01*
X147130268Y-102159510D01*
X147164156Y-102146093D01*
X147175385Y-102142248D01*
X147192065Y-102137402D01*
X147217993Y-102129869D01*
X147224820Y-102125831D01*
X147224823Y-102125830D01*
X147235506Y-102119512D01*
X147253264Y-102110812D01*
X147264815Y-102106239D01*
X147264821Y-102106235D01*
X147272188Y-102103319D01*
X147285508Y-102093642D01*
X147308088Y-102077236D01*
X147318010Y-102070719D01*
X147349368Y-102052174D01*
X147349372Y-102052171D01*
X147356198Y-102048134D01*
X147370582Y-102033750D01*
X147385616Y-102020909D01*
X147395673Y-102013602D01*
X147402087Y-102008942D01*
X147430378Y-101974744D01*
X147438367Y-101965965D01*
X149033483Y-100370850D01*
X149041809Y-100363274D01*
X149048303Y-100359153D01*
X149095086Y-100309334D01*
X149097840Y-100306493D01*
X149117639Y-100286694D01*
X149120068Y-100283563D01*
X149120072Y-100283558D01*
X149120139Y-100283472D01*
X149127847Y-100274447D01*
X149152792Y-100247883D01*
X149158217Y-100242106D01*
X149162035Y-100235161D01*
X149162038Y-100235157D01*
X149168026Y-100224266D01*
X149178878Y-100207745D01*
X149181741Y-100204054D01*
X149191350Y-100191666D01*
X149208971Y-100150945D01*
X149214192Y-100140289D01*
X149231748Y-100108355D01*
X149231750Y-100108349D01*
X149235569Y-100101403D01*
X149237540Y-100093728D01*
X149237542Y-100093722D01*
X149240631Y-100081689D01*
X149247034Y-100062987D01*
X149255117Y-100044308D01*
X149256357Y-100036482D01*
X149256358Y-100036477D01*
X149262060Y-100000480D01*
X149264466Y-99988860D01*
X149273528Y-99953563D01*
X149273528Y-99953562D01*
X149275500Y-99945882D01*
X149275500Y-99925534D01*
X149277051Y-99905823D01*
X149278995Y-99893549D01*
X149280235Y-99885720D01*
X149276059Y-99841544D01*
X149275500Y-99829686D01*
X149275500Y-86309235D01*
X149295502Y-86241114D01*
X149336171Y-86201789D01*
X149337994Y-86200896D01*
X149519860Y-86071173D01*
X149531171Y-86059902D01*
X149665795Y-85925747D01*
X149678096Y-85913489D01*
X149739343Y-85828255D01*
X149805435Y-85736277D01*
X149808453Y-85732077D01*
X149829320Y-85689857D01*
X149905136Y-85536453D01*
X149905137Y-85536451D01*
X149907430Y-85531811D01*
X149972370Y-85318069D01*
X150001529Y-85096590D01*
X150003156Y-85030000D01*
X149984852Y-84807361D01*
X149930431Y-84590702D01*
X149930234Y-84590249D01*
X149927273Y-84520674D01*
X149963082Y-84459370D01*
X150026351Y-84427158D01*
X150049569Y-84425000D01*
X161001278Y-84425000D01*
X161069399Y-84445002D01*
X161090373Y-84461905D01*
X162387595Y-85759128D01*
X162421621Y-85821440D01*
X162424500Y-85848223D01*
X162424500Y-88522733D01*
X162404498Y-88590854D01*
X162356680Y-88634496D01*
X162333607Y-88646507D01*
X162329474Y-88649610D01*
X162329471Y-88649612D01*
X162159100Y-88777530D01*
X162154965Y-88780635D01*
X162115525Y-88821907D01*
X162061280Y-88878671D01*
X162000629Y-88942138D01*
X161874743Y-89126680D01*
X161780688Y-89329305D01*
X161720989Y-89544570D01*
X161697251Y-89766695D01*
X161710110Y-89989715D01*
X161711247Y-89994761D01*
X161711248Y-89994767D01*
X161735304Y-90101508D01*
X161759222Y-90207639D01*
X161843266Y-90414616D01*
X161959987Y-90605088D01*
X162106250Y-90773938D01*
X162278126Y-90916632D01*
X162471000Y-91029338D01*
X162679692Y-91109030D01*
X162684760Y-91110061D01*
X162684763Y-91110062D01*
X162792017Y-91131883D01*
X162898597Y-91153567D01*
X162903772Y-91153757D01*
X162903774Y-91153757D01*
X163116673Y-91161564D01*
X163116677Y-91161564D01*
X163121837Y-91161753D01*
X163126957Y-91161097D01*
X163126959Y-91161097D01*
X163338288Y-91134025D01*
X163338289Y-91134025D01*
X163343416Y-91133368D01*
X163348366Y-91131883D01*
X163552429Y-91070661D01*
X163552434Y-91070659D01*
X163557384Y-91069174D01*
X163757994Y-90970896D01*
X163939860Y-90841173D01*
X164048091Y-90733319D01*
X164110462Y-90699404D01*
X164181268Y-90704592D01*
X164238030Y-90747238D01*
X164255012Y-90778341D01*
X164299385Y-90896705D01*
X164386739Y-91013261D01*
X164503295Y-91100615D01*
X164639684Y-91151745D01*
X164701866Y-91158500D01*
X166498134Y-91158500D01*
X166560316Y-91151745D01*
X166696705Y-91100615D01*
X166813261Y-91013261D01*
X166900615Y-90896705D01*
X166951745Y-90760316D01*
X166958500Y-90698134D01*
X166958500Y-88901866D01*
X166951745Y-88839684D01*
X166900615Y-88703295D01*
X166813261Y-88586739D01*
X166696705Y-88499385D01*
X166560316Y-88448255D01*
X166498134Y-88441500D01*
X164701866Y-88441500D01*
X164639684Y-88448255D01*
X164503295Y-88499385D01*
X164386739Y-88586739D01*
X164299385Y-88703295D01*
X164296233Y-88711703D01*
X164254919Y-88821907D01*
X164212277Y-88878671D01*
X164145716Y-88903371D01*
X164076367Y-88888163D01*
X164043743Y-88862476D01*
X163993151Y-88806875D01*
X163993142Y-88806866D01*
X163989670Y-88803051D01*
X163985619Y-88799852D01*
X163985615Y-88799848D01*
X163818414Y-88667800D01*
X163818410Y-88667798D01*
X163814359Y-88664598D01*
X163809835Y-88662101D01*
X163809831Y-88662098D01*
X163760608Y-88634926D01*
X163710636Y-88584494D01*
X163695500Y-88524617D01*
X163695500Y-85611832D01*
X163696030Y-85600593D01*
X163697709Y-85593081D01*
X163695562Y-85524769D01*
X163695500Y-85520812D01*
X163695500Y-85492817D01*
X163694992Y-85488794D01*
X163694059Y-85476952D01*
X163692914Y-85440518D01*
X163692665Y-85432596D01*
X163686988Y-85413057D01*
X163682979Y-85393696D01*
X163681422Y-85381368D01*
X163681419Y-85381358D01*
X163680427Y-85373501D01*
X163677509Y-85366130D01*
X163664094Y-85332246D01*
X163660249Y-85321019D01*
X163659392Y-85318069D01*
X163647869Y-85278407D01*
X163637510Y-85260891D01*
X163628813Y-85243141D01*
X163621319Y-85224212D01*
X163595238Y-85188314D01*
X163588722Y-85178394D01*
X163570173Y-85147029D01*
X163570171Y-85147026D01*
X163566135Y-85140202D01*
X163551747Y-85125814D01*
X163538906Y-85110780D01*
X163531602Y-85100727D01*
X163526942Y-85094313D01*
X163492750Y-85066027D01*
X163483971Y-85058038D01*
X162149528Y-83723595D01*
X162115502Y-83661283D01*
X162120567Y-83590468D01*
X162163114Y-83533632D01*
X162229634Y-83508821D01*
X162238623Y-83508500D01*
X177365500Y-83508500D01*
X177433621Y-83528502D01*
X177480114Y-83582158D01*
X177491500Y-83634500D01*
X177491500Y-98197762D01*
X177471498Y-98265883D01*
X177417842Y-98312376D01*
X177347568Y-98322480D01*
X177318401Y-98314628D01*
X177217685Y-98274038D01*
X177206230Y-98270645D01*
X177009072Y-98232143D01*
X177000209Y-98231066D01*
X176997500Y-98231000D01*
X176818115Y-98231000D01*
X176802876Y-98235475D01*
X176801671Y-98236865D01*
X176800000Y-98244548D01*
X176800000Y-100428885D01*
X176804475Y-100444124D01*
X176805865Y-100445329D01*
X176813548Y-100447000D01*
X176945832Y-100447000D01*
X176951808Y-100446715D01*
X177100494Y-100432529D01*
X177112228Y-100430270D01*
X177303598Y-100374129D01*
X177318708Y-100368085D01*
X177389385Y-100361359D01*
X177452479Y-100393911D01*
X177487958Y-100455407D01*
X177491500Y-100485074D01*
X177491500Y-105397762D01*
X177471498Y-105465883D01*
X177417842Y-105512376D01*
X177347568Y-105522480D01*
X177318401Y-105514628D01*
X177217685Y-105474038D01*
X177206230Y-105470645D01*
X177009072Y-105432143D01*
X177000209Y-105431066D01*
X176997500Y-105431000D01*
X176818115Y-105431000D01*
X176802876Y-105435475D01*
X176801671Y-105436865D01*
X176800000Y-105444548D01*
X176800000Y-107628885D01*
X176804475Y-107644124D01*
X176805865Y-107645329D01*
X176813548Y-107647000D01*
X176945832Y-107647000D01*
X176951808Y-107646715D01*
X177100494Y-107632529D01*
X177112228Y-107630270D01*
X177303598Y-107574129D01*
X177318708Y-107568085D01*
X177389385Y-107561359D01*
X177452479Y-107593911D01*
X177487958Y-107655407D01*
X177491500Y-107685074D01*
X177491500Y-122365500D01*
X177471498Y-122433621D01*
X177417842Y-122480114D01*
X177365500Y-122491500D01*
X167202343Y-122491500D01*
X167134222Y-122471498D01*
X167087729Y-122417842D01*
X167077625Y-122347568D01*
X167107119Y-122282988D01*
X167129175Y-122262921D01*
X167295656Y-122144172D01*
X167295659Y-122144170D01*
X167299860Y-122141173D01*
X167458096Y-121983489D01*
X167588453Y-121802077D01*
X167609320Y-121759857D01*
X167685136Y-121606453D01*
X167685137Y-121606451D01*
X167687430Y-121601811D01*
X167752370Y-121388069D01*
X167781529Y-121166590D01*
X167783156Y-121100000D01*
X167764852Y-120877361D01*
X167710431Y-120660702D01*
X167621354Y-120455840D01*
X167500014Y-120268277D01*
X167349670Y-120103051D01*
X167345619Y-120099852D01*
X167345615Y-120099848D01*
X167178414Y-119967800D01*
X167178410Y-119967798D01*
X167174359Y-119964598D01*
X166978789Y-119856638D01*
X166973920Y-119854914D01*
X166973916Y-119854912D01*
X166773087Y-119783795D01*
X166773083Y-119783794D01*
X166768212Y-119782069D01*
X166763119Y-119781162D01*
X166763116Y-119781161D01*
X166553373Y-119743800D01*
X166553367Y-119743799D01*
X166548284Y-119742894D01*
X166474452Y-119741992D01*
X166330081Y-119740228D01*
X166330079Y-119740228D01*
X166324911Y-119740165D01*
X166104091Y-119773955D01*
X165891756Y-119843357D01*
X165693607Y-119946507D01*
X165689474Y-119949610D01*
X165689471Y-119949612D01*
X165519100Y-120077530D01*
X165514965Y-120080635D01*
X165360629Y-120242138D01*
X165253201Y-120399621D01*
X165198293Y-120444621D01*
X165127768Y-120452792D01*
X165064021Y-120421538D01*
X165043324Y-120397054D01*
X164962822Y-120272617D01*
X164962820Y-120272614D01*
X164960014Y-120268277D01*
X164809670Y-120103051D01*
X164805619Y-120099852D01*
X164805615Y-120099848D01*
X164638414Y-119967800D01*
X164638410Y-119967798D01*
X164634359Y-119964598D01*
X164438789Y-119856638D01*
X164433920Y-119854914D01*
X164433916Y-119854912D01*
X164233087Y-119783795D01*
X164233083Y-119783794D01*
X164228212Y-119782069D01*
X164223119Y-119781162D01*
X164223116Y-119781161D01*
X164013373Y-119743800D01*
X164013367Y-119743799D01*
X164008284Y-119742894D01*
X163934452Y-119741992D01*
X163790081Y-119740228D01*
X163790079Y-119740228D01*
X163784911Y-119740165D01*
X163564091Y-119773955D01*
X163351756Y-119843357D01*
X163153607Y-119946507D01*
X163149474Y-119949610D01*
X163149471Y-119949612D01*
X162979100Y-120077530D01*
X162974965Y-120080635D01*
X162820629Y-120242138D01*
X162713201Y-120399621D01*
X162658293Y-120444621D01*
X162587768Y-120452792D01*
X162524021Y-120421538D01*
X162503324Y-120397054D01*
X162422822Y-120272617D01*
X162422820Y-120272614D01*
X162420014Y-120268277D01*
X162269670Y-120103051D01*
X162265619Y-120099852D01*
X162265615Y-120099848D01*
X162098414Y-119967800D01*
X162098410Y-119967798D01*
X162094359Y-119964598D01*
X161898789Y-119856638D01*
X161893920Y-119854914D01*
X161893916Y-119854912D01*
X161693087Y-119783795D01*
X161693083Y-119783794D01*
X161688212Y-119782069D01*
X161683119Y-119781162D01*
X161683116Y-119781161D01*
X161473373Y-119743800D01*
X161473367Y-119743799D01*
X161468284Y-119742894D01*
X161394452Y-119741992D01*
X161250081Y-119740228D01*
X161250079Y-119740228D01*
X161244911Y-119740165D01*
X161024091Y-119773955D01*
X160811756Y-119843357D01*
X160613607Y-119946507D01*
X160609474Y-119949610D01*
X160609471Y-119949612D01*
X160439100Y-120077530D01*
X160434965Y-120080635D01*
X160280629Y-120242138D01*
X160173201Y-120399621D01*
X160118293Y-120444621D01*
X160047768Y-120452792D01*
X159984021Y-120421538D01*
X159963324Y-120397054D01*
X159882822Y-120272617D01*
X159882820Y-120272614D01*
X159880014Y-120268277D01*
X159729670Y-120103051D01*
X159725619Y-120099852D01*
X159725615Y-120099848D01*
X159558414Y-119967800D01*
X159558410Y-119967798D01*
X159554359Y-119964598D01*
X159358789Y-119856638D01*
X159353920Y-119854914D01*
X159353916Y-119854912D01*
X159153087Y-119783795D01*
X159153083Y-119783794D01*
X159148212Y-119782069D01*
X159143119Y-119781162D01*
X159143116Y-119781161D01*
X158933373Y-119743800D01*
X158933367Y-119743799D01*
X158928284Y-119742894D01*
X158854452Y-119741992D01*
X158710081Y-119740228D01*
X158710079Y-119740228D01*
X158704911Y-119740165D01*
X158484091Y-119773955D01*
X158271756Y-119843357D01*
X158073607Y-119946507D01*
X158069474Y-119949610D01*
X158069471Y-119949612D01*
X157899100Y-120077530D01*
X157894965Y-120080635D01*
X157740629Y-120242138D01*
X157633201Y-120399621D01*
X157578293Y-120444621D01*
X157507768Y-120452792D01*
X157444021Y-120421538D01*
X157423324Y-120397054D01*
X157342822Y-120272617D01*
X157342820Y-120272614D01*
X157340014Y-120268277D01*
X157189670Y-120103051D01*
X157185619Y-120099852D01*
X157185615Y-120099848D01*
X157018414Y-119967800D01*
X157018410Y-119967798D01*
X157014359Y-119964598D01*
X156818789Y-119856638D01*
X156813920Y-119854914D01*
X156813916Y-119854912D01*
X156613087Y-119783795D01*
X156613083Y-119783794D01*
X156608212Y-119782069D01*
X156603119Y-119781162D01*
X156603116Y-119781161D01*
X156393373Y-119743800D01*
X156393367Y-119743799D01*
X156388284Y-119742894D01*
X156314452Y-119741992D01*
X156170081Y-119740228D01*
X156170079Y-119740228D01*
X156164911Y-119740165D01*
X155944091Y-119773955D01*
X155731756Y-119843357D01*
X155533607Y-119946507D01*
X155529474Y-119949610D01*
X155529471Y-119949612D01*
X155359100Y-120077530D01*
X155354965Y-120080635D01*
X155200629Y-120242138D01*
X155093201Y-120399621D01*
X155038293Y-120444621D01*
X154967768Y-120452792D01*
X154904021Y-120421538D01*
X154883324Y-120397054D01*
X154802822Y-120272617D01*
X154802820Y-120272614D01*
X154800014Y-120268277D01*
X154649670Y-120103051D01*
X154645619Y-120099852D01*
X154645615Y-120099848D01*
X154478414Y-119967800D01*
X154478410Y-119967798D01*
X154474359Y-119964598D01*
X154278789Y-119856638D01*
X154273920Y-119854914D01*
X154273916Y-119854912D01*
X154073087Y-119783795D01*
X154073083Y-119783794D01*
X154068212Y-119782069D01*
X154063119Y-119781162D01*
X154063116Y-119781161D01*
X153853373Y-119743800D01*
X153853367Y-119743799D01*
X153848284Y-119742894D01*
X153774452Y-119741992D01*
X153630081Y-119740228D01*
X153630079Y-119740228D01*
X153624911Y-119740165D01*
X153404091Y-119773955D01*
X153191756Y-119843357D01*
X152993607Y-119946507D01*
X152989474Y-119949610D01*
X152989471Y-119949612D01*
X152819100Y-120077530D01*
X152814965Y-120080635D01*
X152660629Y-120242138D01*
X152553201Y-120399621D01*
X152498293Y-120444621D01*
X152427768Y-120452792D01*
X152364021Y-120421538D01*
X152343324Y-120397054D01*
X152262822Y-120272617D01*
X152262820Y-120272614D01*
X152260014Y-120268277D01*
X152109670Y-120103051D01*
X152105619Y-120099852D01*
X152105615Y-120099848D01*
X152037507Y-120046060D01*
X151996444Y-119988143D01*
X151993212Y-119917220D01*
X152028837Y-119855808D01*
X152076766Y-119827312D01*
X152109175Y-119816813D01*
X152115438Y-119813013D01*
X152120980Y-119810475D01*
X152126456Y-119807733D01*
X152133341Y-119805234D01*
X152194732Y-119764985D01*
X152198400Y-119762670D01*
X152261181Y-119724573D01*
X152265386Y-119720859D01*
X152265389Y-119720857D01*
X152269605Y-119717133D01*
X152269631Y-119717162D01*
X152272562Y-119714562D01*
X152275916Y-119711758D01*
X152282035Y-119707746D01*
X152335590Y-119651212D01*
X152337968Y-119648770D01*
X153541528Y-118445210D01*
X153555941Y-118432823D01*
X153567665Y-118424195D01*
X153573564Y-118419854D01*
X153607979Y-118379345D01*
X153614909Y-118371829D01*
X153620653Y-118366085D01*
X153622927Y-118363211D01*
X153622933Y-118363204D01*
X153638372Y-118343689D01*
X153641163Y-118340285D01*
X153683945Y-118289928D01*
X153683948Y-118289924D01*
X153688684Y-118284349D01*
X153692012Y-118277832D01*
X153695389Y-118272768D01*
X153698616Y-118267544D01*
X153703160Y-118261800D01*
X153734242Y-118195296D01*
X153736147Y-118191399D01*
X153769543Y-118125996D01*
X153771284Y-118118882D01*
X153773416Y-118113148D01*
X153775344Y-118107352D01*
X153778444Y-118100720D01*
X153793395Y-118028840D01*
X153794365Y-118024556D01*
X153810469Y-117958742D01*
X153811804Y-117953288D01*
X153812500Y-117942070D01*
X153812537Y-117942072D01*
X153812773Y-117938173D01*
X153813163Y-117933802D01*
X153814652Y-117926643D01*
X153812546Y-117848823D01*
X153812500Y-117845414D01*
X153812500Y-114047842D01*
X153832502Y-113979721D01*
X153886158Y-113933228D01*
X153956432Y-113923124D01*
X153982730Y-113929860D01*
X154032394Y-113948478D01*
X154047649Y-113952105D01*
X154098514Y-113957631D01*
X154105328Y-113958000D01*
X154727885Y-113958000D01*
X154743124Y-113953525D01*
X154744329Y-113952135D01*
X154746000Y-113944452D01*
X154746000Y-113939884D01*
X155254000Y-113939884D01*
X155258475Y-113955123D01*
X155259865Y-113956328D01*
X155267548Y-113957999D01*
X155894669Y-113957999D01*
X155901490Y-113957629D01*
X155952352Y-113952105D01*
X155967604Y-113948479D01*
X156088054Y-113903324D01*
X156103649Y-113894786D01*
X156205724Y-113818285D01*
X156218285Y-113805724D01*
X156294786Y-113703649D01*
X156303325Y-113688052D01*
X156344425Y-113578418D01*
X156387066Y-113521653D01*
X156453628Y-113496953D01*
X156522977Y-113512160D01*
X156557645Y-113540150D01*
X156583219Y-113569674D01*
X156590580Y-113576883D01*
X156754434Y-113712916D01*
X156762881Y-113718831D01*
X156946756Y-113826279D01*
X156956042Y-113830729D01*
X157155001Y-113906703D01*
X157164899Y-113909579D01*
X157268250Y-113930606D01*
X157282299Y-113929410D01*
X157286000Y-113919065D01*
X157286000Y-113918517D01*
X157794000Y-113918517D01*
X157798064Y-113932359D01*
X157811478Y-113934393D01*
X157818184Y-113933534D01*
X157828262Y-113931392D01*
X158032255Y-113870191D01*
X158041842Y-113866433D01*
X158233095Y-113772739D01*
X158241945Y-113767464D01*
X158415328Y-113643792D01*
X158423200Y-113637139D01*
X158574052Y-113486812D01*
X158580730Y-113478965D01*
X158708022Y-113301819D01*
X158709147Y-113302627D01*
X158756669Y-113258876D01*
X158826607Y-113246661D01*
X158892046Y-113274197D01*
X158919870Y-113306028D01*
X158977690Y-113400383D01*
X158983777Y-113408699D01*
X159123213Y-113569667D01*
X159130580Y-113576883D01*
X159294434Y-113712916D01*
X159302881Y-113718831D01*
X159486756Y-113826279D01*
X159496042Y-113830729D01*
X159695001Y-113906703D01*
X159704899Y-113909579D01*
X159808250Y-113930606D01*
X159822299Y-113929410D01*
X159826000Y-113919065D01*
X159826000Y-113918517D01*
X160334000Y-113918517D01*
X160338064Y-113932359D01*
X160351478Y-113934393D01*
X160358184Y-113933534D01*
X160368262Y-113931392D01*
X160572255Y-113870191D01*
X160581842Y-113866433D01*
X160773095Y-113772739D01*
X160781945Y-113767464D01*
X160955328Y-113643792D01*
X160963200Y-113637139D01*
X161114052Y-113486812D01*
X161120730Y-113478965D01*
X161245003Y-113306020D01*
X161250313Y-113297183D01*
X161344670Y-113106267D01*
X161348469Y-113096672D01*
X161410377Y-112892910D01*
X161412555Y-112882837D01*
X161413986Y-112871962D01*
X161411775Y-112857778D01*
X161398617Y-112854000D01*
X160352115Y-112854000D01*
X160336876Y-112858475D01*
X160335671Y-112859865D01*
X160334000Y-112867548D01*
X160334000Y-113918517D01*
X159826000Y-113918517D01*
X159826000Y-112872115D01*
X159821525Y-112856876D01*
X159820135Y-112855671D01*
X159812452Y-112854000D01*
X157812115Y-112854000D01*
X157796876Y-112858475D01*
X157795671Y-112859865D01*
X157794000Y-112867548D01*
X157794000Y-113918517D01*
X157286000Y-113918517D01*
X157286000Y-112872115D01*
X157281525Y-112856876D01*
X157280135Y-112855671D01*
X157272452Y-112854000D01*
X155272115Y-112854000D01*
X155256876Y-112858475D01*
X155255671Y-112859865D01*
X155254000Y-112867548D01*
X155254000Y-113939884D01*
X154746000Y-113939884D01*
X154746000Y-112327885D01*
X155254000Y-112327885D01*
X155258475Y-112343124D01*
X155259865Y-112344329D01*
X155267548Y-112346000D01*
X157267885Y-112346000D01*
X157283124Y-112341525D01*
X157284329Y-112340135D01*
X157286000Y-112332452D01*
X157286000Y-112327885D01*
X157794000Y-112327885D01*
X157798475Y-112343124D01*
X157799865Y-112344329D01*
X157807548Y-112346000D01*
X159807885Y-112346000D01*
X159823124Y-112341525D01*
X159824329Y-112340135D01*
X159826000Y-112332452D01*
X159826000Y-112327885D01*
X160334000Y-112327885D01*
X160338475Y-112343124D01*
X160339865Y-112344329D01*
X160347548Y-112346000D01*
X161398344Y-112346000D01*
X161411875Y-112342027D01*
X161413180Y-112332947D01*
X161371214Y-112165875D01*
X161367894Y-112156124D01*
X161282972Y-111960814D01*
X161278105Y-111951739D01*
X161162426Y-111772926D01*
X161156136Y-111764757D01*
X161012806Y-111607240D01*
X161005273Y-111600215D01*
X160838139Y-111468222D01*
X160829552Y-111462517D01*
X160643117Y-111359599D01*
X160633705Y-111355369D01*
X160432959Y-111284280D01*
X160422988Y-111281646D01*
X160351837Y-111268972D01*
X160338540Y-111270432D01*
X160334000Y-111284989D01*
X160334000Y-112327885D01*
X159826000Y-112327885D01*
X159826000Y-111283102D01*
X159822082Y-111269758D01*
X159807806Y-111267771D01*
X159769324Y-111273660D01*
X159759288Y-111276051D01*
X159556868Y-111342212D01*
X159547359Y-111346209D01*
X159358463Y-111444542D01*
X159349738Y-111450036D01*
X159179433Y-111577905D01*
X159171726Y-111584748D01*
X159024590Y-111738717D01*
X159018104Y-111746727D01*
X158913193Y-111900521D01*
X158858282Y-111945524D01*
X158787757Y-111953695D01*
X158724010Y-111922441D01*
X158703313Y-111897957D01*
X158622427Y-111772926D01*
X158616136Y-111764757D01*
X158472806Y-111607240D01*
X158465273Y-111600215D01*
X158298139Y-111468222D01*
X158289552Y-111462517D01*
X158103117Y-111359599D01*
X158093705Y-111355369D01*
X157892959Y-111284280D01*
X157882988Y-111281646D01*
X157811837Y-111268972D01*
X157798540Y-111270432D01*
X157794000Y-111284989D01*
X157794000Y-112327885D01*
X157286000Y-112327885D01*
X157286000Y-111283102D01*
X157282082Y-111269758D01*
X157267806Y-111267771D01*
X157229324Y-111273660D01*
X157219288Y-111276051D01*
X157016868Y-111342212D01*
X157007359Y-111346209D01*
X156818463Y-111444542D01*
X156809738Y-111450036D01*
X156639433Y-111577905D01*
X156631726Y-111584748D01*
X156554094Y-111665985D01*
X156492570Y-111701415D01*
X156421657Y-111697958D01*
X156363871Y-111656712D01*
X156345018Y-111623164D01*
X156303324Y-111511946D01*
X156294786Y-111496351D01*
X156218285Y-111394276D01*
X156205724Y-111381715D01*
X156103649Y-111305214D01*
X156088054Y-111296676D01*
X155967606Y-111251522D01*
X155952351Y-111247895D01*
X155901486Y-111242369D01*
X155894672Y-111242000D01*
X155272115Y-111242000D01*
X155256876Y-111246475D01*
X155255671Y-111247865D01*
X155254000Y-111255548D01*
X155254000Y-112327885D01*
X154746000Y-112327885D01*
X154746000Y-111260116D01*
X154741525Y-111244877D01*
X154740135Y-111243672D01*
X154732452Y-111242001D01*
X154172994Y-111242001D01*
X154104873Y-111221999D01*
X154058380Y-111168343D01*
X154047779Y-111101956D01*
X154058107Y-111009873D01*
X154058500Y-111006373D01*
X154058500Y-110484500D01*
X154078502Y-110416379D01*
X154132158Y-110369886D01*
X154184500Y-110358500D01*
X155898134Y-110358500D01*
X155960316Y-110351745D01*
X156096705Y-110300615D01*
X156213261Y-110213261D01*
X156300615Y-110096705D01*
X156316170Y-110055213D01*
X156344598Y-109979382D01*
X156387240Y-109922618D01*
X156453802Y-109897918D01*
X156523150Y-109913126D01*
X156557817Y-109941114D01*
X156586250Y-109973938D01*
X156758126Y-110116632D01*
X156951000Y-110229338D01*
X156955825Y-110231180D01*
X156955826Y-110231181D01*
X157005022Y-110249967D01*
X157159692Y-110309030D01*
X157164760Y-110310061D01*
X157164763Y-110310062D01*
X157254903Y-110328401D01*
X157378597Y-110353567D01*
X157383772Y-110353757D01*
X157383774Y-110353757D01*
X157596673Y-110361564D01*
X157596677Y-110361564D01*
X157601837Y-110361753D01*
X157606957Y-110361097D01*
X157606959Y-110361097D01*
X157818288Y-110334025D01*
X157818289Y-110334025D01*
X157823416Y-110333368D01*
X157839972Y-110328401D01*
X158032429Y-110270661D01*
X158032434Y-110270659D01*
X158037384Y-110269174D01*
X158237994Y-110170896D01*
X158419860Y-110041173D01*
X158424543Y-110036507D01*
X158563616Y-109897918D01*
X158578096Y-109883489D01*
X158582804Y-109876938D01*
X158708453Y-109702077D01*
X158709776Y-109703028D01*
X158756645Y-109659857D01*
X158826580Y-109647625D01*
X158892026Y-109675144D01*
X158919875Y-109706994D01*
X158920623Y-109708215D01*
X158979987Y-109805088D01*
X159126250Y-109973938D01*
X159298126Y-110116632D01*
X159491000Y-110229338D01*
X159495825Y-110231180D01*
X159495826Y-110231181D01*
X159545022Y-110249967D01*
X159699692Y-110309030D01*
X159704760Y-110310061D01*
X159704763Y-110310062D01*
X159794903Y-110328401D01*
X159918597Y-110353567D01*
X159923772Y-110353757D01*
X159923774Y-110353757D01*
X160136673Y-110361564D01*
X160136677Y-110361564D01*
X160141837Y-110361753D01*
X160146957Y-110361097D01*
X160146959Y-110361097D01*
X160358288Y-110334025D01*
X160358289Y-110334025D01*
X160363416Y-110333368D01*
X160379972Y-110328401D01*
X160572429Y-110270661D01*
X160572434Y-110270659D01*
X160577384Y-110269174D01*
X160777994Y-110170896D01*
X160959860Y-110041173D01*
X160964543Y-110036507D01*
X161103616Y-109897918D01*
X161118096Y-109883489D01*
X161122804Y-109876938D01*
X161245435Y-109706277D01*
X161248453Y-109702077D01*
X161252361Y-109694171D01*
X161345136Y-109506453D01*
X161345137Y-109506451D01*
X161347430Y-109501811D01*
X161391429Y-109356994D01*
X161410865Y-109293023D01*
X161410865Y-109293021D01*
X161412370Y-109288069D01*
X161441529Y-109066590D01*
X161441941Y-109049716D01*
X161443074Y-109003365D01*
X161443074Y-109003361D01*
X161443156Y-109000000D01*
X161424852Y-108777361D01*
X161370431Y-108560702D01*
X161281354Y-108355840D01*
X161208677Y-108243499D01*
X161162822Y-108172617D01*
X161162820Y-108172614D01*
X161160014Y-108168277D01*
X161009670Y-108003051D01*
X161005619Y-107999852D01*
X161005615Y-107999848D01*
X160838414Y-107867800D01*
X160838410Y-107867798D01*
X160834359Y-107864598D01*
X160638789Y-107756638D01*
X160633920Y-107754914D01*
X160633916Y-107754912D01*
X160433087Y-107683795D01*
X160433083Y-107683794D01*
X160428212Y-107682069D01*
X160423119Y-107681162D01*
X160423116Y-107681161D01*
X160213373Y-107643800D01*
X160213367Y-107643799D01*
X160208284Y-107642894D01*
X160134452Y-107641992D01*
X159990081Y-107640228D01*
X159990079Y-107640228D01*
X159984911Y-107640165D01*
X159764091Y-107673955D01*
X159551756Y-107743357D01*
X159353607Y-107846507D01*
X159349474Y-107849610D01*
X159349471Y-107849612D01*
X159179100Y-107977530D01*
X159174965Y-107980635D01*
X159118536Y-108039684D01*
X159058368Y-108102647D01*
X159020629Y-108142138D01*
X158913201Y-108299621D01*
X158858293Y-108344621D01*
X158787768Y-108352792D01*
X158724021Y-108321538D01*
X158703324Y-108297054D01*
X158622822Y-108172617D01*
X158622820Y-108172614D01*
X158620014Y-108168277D01*
X158469670Y-108003051D01*
X158465619Y-107999852D01*
X158465615Y-107999848D01*
X158298414Y-107867800D01*
X158298410Y-107867798D01*
X158294359Y-107864598D01*
X158098789Y-107756638D01*
X158093920Y-107754914D01*
X158093916Y-107754912D01*
X157893087Y-107683795D01*
X157893083Y-107683794D01*
X157888212Y-107682069D01*
X157883119Y-107681162D01*
X157883116Y-107681161D01*
X157673373Y-107643800D01*
X157673367Y-107643799D01*
X157668284Y-107642894D01*
X157594452Y-107641992D01*
X157450081Y-107640228D01*
X157450079Y-107640228D01*
X157444911Y-107640165D01*
X157224091Y-107673955D01*
X157011756Y-107743357D01*
X156813607Y-107846507D01*
X156809474Y-107849610D01*
X156809471Y-107849612D01*
X156639100Y-107977530D01*
X156634965Y-107980635D01*
X156578537Y-108039684D01*
X156554283Y-108065064D01*
X156492759Y-108100494D01*
X156421846Y-108097037D01*
X156364060Y-108055791D01*
X156345207Y-108022243D01*
X156303767Y-107911703D01*
X156300615Y-107903295D01*
X156213261Y-107786739D01*
X156096705Y-107699385D01*
X155960316Y-107648255D01*
X155898134Y-107641500D01*
X154184500Y-107641500D01*
X154116379Y-107621498D01*
X154069886Y-107567842D01*
X154058500Y-107515500D01*
X154058500Y-106806399D01*
X175120712Y-106806399D01*
X175142194Y-106895537D01*
X175146083Y-106906832D01*
X175228629Y-107088382D01*
X175234576Y-107098724D01*
X175349968Y-107261397D01*
X175357761Y-107270425D01*
X175501831Y-107408342D01*
X175511196Y-107415738D01*
X175678741Y-107523921D01*
X175689345Y-107529417D01*
X175874312Y-107603961D01*
X175885770Y-107607355D01*
X176082928Y-107645857D01*
X176091791Y-107646934D01*
X176094500Y-107647000D01*
X176273885Y-107647000D01*
X176289124Y-107642525D01*
X176290329Y-107641135D01*
X176292000Y-107633452D01*
X176292000Y-106811115D01*
X176287525Y-106795876D01*
X176286135Y-106794671D01*
X176278452Y-106793000D01*
X175135598Y-106793000D01*
X175122067Y-106796973D01*
X175120712Y-106806399D01*
X154058500Y-106806399D01*
X154058500Y-106421211D01*
X173178344Y-106421211D01*
X173187640Y-106433226D01*
X173222637Y-106457731D01*
X173232132Y-106463214D01*
X173417696Y-106549744D01*
X173427988Y-106553490D01*
X173625759Y-106606482D01*
X173636554Y-106608385D01*
X173840525Y-106626231D01*
X173851475Y-106626231D01*
X174055446Y-106608385D01*
X174066241Y-106606482D01*
X174264012Y-106553490D01*
X174274304Y-106549744D01*
X174459868Y-106463214D01*
X174469363Y-106457731D01*
X174505197Y-106432640D01*
X174513573Y-106422161D01*
X174506505Y-106408715D01*
X174368506Y-106270716D01*
X175116352Y-106270716D01*
X175117820Y-106281008D01*
X175131385Y-106285000D01*
X176273885Y-106285000D01*
X176289124Y-106280525D01*
X176290329Y-106279135D01*
X176292000Y-106271452D01*
X176292000Y-105449115D01*
X176287525Y-105433876D01*
X176286135Y-105432671D01*
X176278452Y-105431000D01*
X176146168Y-105431000D01*
X176140192Y-105431285D01*
X175991506Y-105445471D01*
X175979772Y-105447730D01*
X175788401Y-105503872D01*
X175777325Y-105508302D01*
X175600022Y-105599619D01*
X175589976Y-105606069D01*
X175433143Y-105729262D01*
X175424494Y-105737499D01*
X175293788Y-105888123D01*
X175286853Y-105897847D01*
X175186990Y-106070467D01*
X175182016Y-106081331D01*
X175116593Y-106269727D01*
X175116352Y-106270716D01*
X174368506Y-106270716D01*
X173858812Y-105761022D01*
X173844868Y-105753408D01*
X173843035Y-105753539D01*
X173836420Y-105757790D01*
X173184774Y-106409436D01*
X173178344Y-106421211D01*
X154058500Y-106421211D01*
X154058500Y-105971722D01*
X154059492Y-105955944D01*
X154062985Y-105928295D01*
X154063380Y-105900000D01*
X154059101Y-105856360D01*
X154058500Y-105844064D01*
X154058500Y-105018887D01*
X164161837Y-105018887D01*
X164176063Y-105235933D01*
X164177484Y-105241529D01*
X164177485Y-105241534D01*
X164225469Y-105430468D01*
X164229605Y-105446753D01*
X164320668Y-105644285D01*
X164324001Y-105649001D01*
X164400886Y-105757790D01*
X164446204Y-105821914D01*
X164450346Y-105825949D01*
X164468082Y-105843227D01*
X164602009Y-105973692D01*
X164606813Y-105976902D01*
X164659884Y-106012363D01*
X164782863Y-106094536D01*
X164788171Y-106096817D01*
X164788172Y-106096817D01*
X164977409Y-106178119D01*
X164977412Y-106178120D01*
X164982712Y-106180397D01*
X164988342Y-106181671D01*
X165086464Y-106203874D01*
X165194860Y-106228402D01*
X165200631Y-106228629D01*
X165200633Y-106228629D01*
X165273620Y-106231496D01*
X165412205Y-106236941D01*
X165627466Y-106205730D01*
X165632930Y-106203875D01*
X165632935Y-106203874D01*
X165827963Y-106137671D01*
X165827968Y-106137669D01*
X165833435Y-106135813D01*
X166023213Y-106029532D01*
X166190446Y-105890446D01*
X166329532Y-105723213D01*
X166435813Y-105533435D01*
X166437669Y-105527968D01*
X166437671Y-105527963D01*
X166503874Y-105332935D01*
X166503875Y-105332930D01*
X166505730Y-105327466D01*
X166536941Y-105112205D01*
X166538570Y-105050000D01*
X166535711Y-105018887D01*
X168661837Y-105018887D01*
X168676063Y-105235933D01*
X168677484Y-105241529D01*
X168677485Y-105241534D01*
X168725469Y-105430468D01*
X168729605Y-105446753D01*
X168820668Y-105644285D01*
X168824001Y-105649001D01*
X168900886Y-105757790D01*
X168946204Y-105821914D01*
X168950346Y-105825949D01*
X168968082Y-105843227D01*
X169102009Y-105973692D01*
X169106813Y-105976902D01*
X169159884Y-106012363D01*
X169282863Y-106094536D01*
X169288171Y-106096817D01*
X169288172Y-106096817D01*
X169477409Y-106178119D01*
X169477412Y-106178120D01*
X169482712Y-106180397D01*
X169488342Y-106181671D01*
X169586464Y-106203874D01*
X169694860Y-106228402D01*
X169700631Y-106228629D01*
X169700633Y-106228629D01*
X169773620Y-106231496D01*
X169912205Y-106236941D01*
X170127466Y-106205730D01*
X170132930Y-106203875D01*
X170132935Y-106203874D01*
X170327963Y-106137671D01*
X170327968Y-106137669D01*
X170333435Y-106135813D01*
X170523213Y-106029532D01*
X170690446Y-105890446D01*
X170829532Y-105723213D01*
X170935813Y-105533435D01*
X170937669Y-105527968D01*
X170937671Y-105527963D01*
X170982984Y-105394475D01*
X172608769Y-105394475D01*
X172626615Y-105598446D01*
X172628518Y-105609241D01*
X172681510Y-105807012D01*
X172685256Y-105817304D01*
X172771786Y-106002868D01*
X172777269Y-106012363D01*
X172802360Y-106048197D01*
X172812839Y-106056573D01*
X172826285Y-106049505D01*
X173473978Y-105401812D01*
X173480356Y-105390132D01*
X174210408Y-105390132D01*
X174210539Y-105391965D01*
X174214790Y-105398580D01*
X174866436Y-106050226D01*
X174878211Y-106056656D01*
X174890226Y-106047360D01*
X174914731Y-106012363D01*
X174920214Y-106002868D01*
X175006744Y-105817304D01*
X175010490Y-105807012D01*
X175063482Y-105609241D01*
X175065385Y-105598446D01*
X175083231Y-105394475D01*
X175083231Y-105383525D01*
X175065385Y-105179554D01*
X175063482Y-105168759D01*
X175010490Y-104970988D01*
X175006744Y-104960696D01*
X174920214Y-104775132D01*
X174914731Y-104765637D01*
X174889640Y-104729803D01*
X174879161Y-104721427D01*
X174865715Y-104728495D01*
X174218022Y-105376188D01*
X174210408Y-105390132D01*
X173480356Y-105390132D01*
X173481592Y-105387868D01*
X173481461Y-105386035D01*
X173477210Y-105379420D01*
X172825564Y-104727774D01*
X172813789Y-104721344D01*
X172801774Y-104730640D01*
X172777269Y-104765637D01*
X172771786Y-104775132D01*
X172685256Y-104960696D01*
X172681510Y-104970988D01*
X172628518Y-105168759D01*
X172626615Y-105179554D01*
X172608769Y-105383525D01*
X172608769Y-105394475D01*
X170982984Y-105394475D01*
X171003874Y-105332935D01*
X171003875Y-105332930D01*
X171005730Y-105327466D01*
X171036941Y-105112205D01*
X171038570Y-105050000D01*
X171018667Y-104833400D01*
X170959626Y-104624055D01*
X170863423Y-104428974D01*
X170808811Y-104355839D01*
X173178427Y-104355839D01*
X173185495Y-104369285D01*
X173833188Y-105016978D01*
X173847132Y-105024592D01*
X173848965Y-105024461D01*
X173855580Y-105020210D01*
X174507226Y-104368564D01*
X174513656Y-104356789D01*
X174504360Y-104344774D01*
X174469363Y-104320269D01*
X174459868Y-104314786D01*
X174274304Y-104228256D01*
X174264012Y-104224510D01*
X174066241Y-104171518D01*
X174055446Y-104169615D01*
X173851475Y-104151769D01*
X173840525Y-104151769D01*
X173636554Y-104169615D01*
X173625759Y-104171518D01*
X173427988Y-104224510D01*
X173417696Y-104228256D01*
X173232132Y-104314786D01*
X173222637Y-104320269D01*
X173186803Y-104345360D01*
X173178427Y-104355839D01*
X170808811Y-104355839D01*
X170749935Y-104276994D01*
X170736733Y-104259315D01*
X170736732Y-104259314D01*
X170733280Y-104254691D01*
X170700631Y-104224510D01*
X170611078Y-104141729D01*
X170574633Y-104080800D01*
X170576914Y-104009840D01*
X170616038Y-103952330D01*
X170620270Y-103948811D01*
X170690446Y-103890446D01*
X170829532Y-103723213D01*
X170935813Y-103533435D01*
X170937669Y-103527968D01*
X170937671Y-103527963D01*
X171003874Y-103332935D01*
X171003875Y-103332930D01*
X171005730Y-103327466D01*
X171036941Y-103112205D01*
X171038570Y-103050000D01*
X171018667Y-102833400D01*
X171015812Y-102823275D01*
X170983414Y-102708401D01*
X170959626Y-102624055D01*
X170896134Y-102495305D01*
X170865978Y-102434155D01*
X170863423Y-102428974D01*
X170854114Y-102416507D01*
X170736733Y-102259315D01*
X170736732Y-102259314D01*
X170733280Y-102254691D01*
X170722399Y-102244632D01*
X170633469Y-102162427D01*
X170611078Y-102141729D01*
X170574633Y-102080800D01*
X170576914Y-102009840D01*
X170616038Y-101952330D01*
X170617770Y-101950890D01*
X170690446Y-101890446D01*
X170829532Y-101723213D01*
X170935813Y-101533435D01*
X170937669Y-101527968D01*
X170937671Y-101527963D01*
X170939963Y-101521211D01*
X173178344Y-101521211D01*
X173187640Y-101533226D01*
X173222637Y-101557731D01*
X173232132Y-101563214D01*
X173417696Y-101649744D01*
X173427988Y-101653490D01*
X173625759Y-101706482D01*
X173636554Y-101708385D01*
X173840525Y-101726231D01*
X173851475Y-101726231D01*
X174055446Y-101708385D01*
X174066241Y-101706482D01*
X174264012Y-101653490D01*
X174274304Y-101649744D01*
X174459868Y-101563214D01*
X174469363Y-101557731D01*
X174505197Y-101532640D01*
X174513573Y-101522161D01*
X174506505Y-101508715D01*
X173858812Y-100861022D01*
X173844868Y-100853408D01*
X173843035Y-100853539D01*
X173836420Y-100857790D01*
X173184774Y-101509436D01*
X173178344Y-101521211D01*
X170939963Y-101521211D01*
X171003874Y-101332935D01*
X171003875Y-101332930D01*
X171005730Y-101327466D01*
X171036941Y-101112205D01*
X171038570Y-101050000D01*
X171018667Y-100833400D01*
X171004749Y-100784048D01*
X170983651Y-100709241D01*
X170959626Y-100624055D01*
X170895724Y-100494475D01*
X172608769Y-100494475D01*
X172626615Y-100698446D01*
X172628518Y-100709241D01*
X172681510Y-100907012D01*
X172685256Y-100917304D01*
X172771786Y-101102868D01*
X172777269Y-101112363D01*
X172802360Y-101148197D01*
X172812839Y-101156573D01*
X172826285Y-101149505D01*
X173473978Y-100501812D01*
X173480356Y-100490132D01*
X174210408Y-100490132D01*
X174210539Y-100491965D01*
X174214790Y-100498580D01*
X174866436Y-101150226D01*
X174878211Y-101156656D01*
X174890226Y-101147360D01*
X174914731Y-101112363D01*
X174920214Y-101102868D01*
X175006744Y-100917304D01*
X175010490Y-100907012D01*
X175063482Y-100709241D01*
X175065385Y-100698446D01*
X175083231Y-100494475D01*
X175083231Y-100483525D01*
X175065385Y-100279554D01*
X175063482Y-100268759D01*
X175010490Y-100070988D01*
X175006744Y-100060696D01*
X174920214Y-99875132D01*
X174914731Y-99865637D01*
X174889640Y-99829803D01*
X174879161Y-99821427D01*
X174865715Y-99828495D01*
X174218022Y-100476188D01*
X174210408Y-100490132D01*
X173480356Y-100490132D01*
X173481592Y-100487868D01*
X173481461Y-100486035D01*
X173477210Y-100479420D01*
X172825564Y-99827774D01*
X172813789Y-99821344D01*
X172801774Y-99830640D01*
X172777269Y-99865637D01*
X172771786Y-99875132D01*
X172685256Y-100060696D01*
X172681510Y-100070988D01*
X172628518Y-100268759D01*
X172626615Y-100279554D01*
X172608769Y-100483525D01*
X172608769Y-100494475D01*
X170895724Y-100494475D01*
X170863423Y-100428974D01*
X170822469Y-100374129D01*
X170736733Y-100259315D01*
X170736732Y-100259314D01*
X170733280Y-100254691D01*
X170725915Y-100247883D01*
X170577796Y-100110963D01*
X170577793Y-100110961D01*
X170573556Y-100107044D01*
X170389599Y-99990976D01*
X170187572Y-99910376D01*
X169974239Y-99867941D01*
X169968464Y-99867865D01*
X169968460Y-99867865D01*
X169859419Y-99866438D01*
X169756746Y-99865094D01*
X169751049Y-99866073D01*
X169751048Y-99866073D01*
X169548065Y-99900952D01*
X169548062Y-99900953D01*
X169542375Y-99901930D01*
X169338307Y-99977214D01*
X169225533Y-100044308D01*
X169175483Y-100074085D01*
X169151376Y-100088427D01*
X168987842Y-100231842D01*
X168984270Y-100236373D01*
X168857526Y-100397147D01*
X168853181Y-100402658D01*
X168850493Y-100407767D01*
X168829852Y-100447000D01*
X168751905Y-100595154D01*
X168750192Y-100600671D01*
X168691184Y-100790706D01*
X168687403Y-100802882D01*
X168661837Y-101018887D01*
X168676063Y-101235933D01*
X168677484Y-101241529D01*
X168677485Y-101241534D01*
X168727290Y-101437639D01*
X168729605Y-101446753D01*
X168732022Y-101451996D01*
X168758170Y-101508715D01*
X168820668Y-101644285D01*
X168830772Y-101658582D01*
X168911730Y-101773134D01*
X168946204Y-101821914D01*
X168950346Y-101825949D01*
X168959962Y-101835316D01*
X169078891Y-101951171D01*
X169089741Y-101961741D01*
X169124579Y-102023602D01*
X169120442Y-102094478D01*
X169084899Y-102146726D01*
X168987842Y-102231842D01*
X168984270Y-102236373D01*
X168885735Y-102361364D01*
X168853181Y-102402658D01*
X168850493Y-102407767D01*
X168844261Y-102419612D01*
X168751905Y-102595154D01*
X168747251Y-102610143D01*
X168694922Y-102778668D01*
X168687403Y-102802882D01*
X168661837Y-103018887D01*
X168676063Y-103235933D01*
X168677484Y-103241529D01*
X168677485Y-103241534D01*
X168722832Y-103420084D01*
X168729605Y-103446753D01*
X168732022Y-103451996D01*
X168815576Y-103633240D01*
X168820668Y-103644285D01*
X168946204Y-103821914D01*
X168950346Y-103825949D01*
X169089741Y-103961741D01*
X169124579Y-104023602D01*
X169120442Y-104094478D01*
X169084899Y-104146726D01*
X168987842Y-104231842D01*
X168984270Y-104236373D01*
X168874916Y-104375088D01*
X168853181Y-104402658D01*
X168850493Y-104407767D01*
X168810107Y-104484529D01*
X168751905Y-104595154D01*
X168750192Y-104600671D01*
X168692586Y-104786191D01*
X168687403Y-104802882D01*
X168661837Y-105018887D01*
X166535711Y-105018887D01*
X166518667Y-104833400D01*
X166459626Y-104624055D01*
X166363423Y-104428974D01*
X166249935Y-104276994D01*
X166236733Y-104259315D01*
X166236732Y-104259314D01*
X166233280Y-104254691D01*
X166200631Y-104224510D01*
X166111078Y-104141729D01*
X166074633Y-104080800D01*
X166076914Y-104009840D01*
X166116038Y-103952330D01*
X166120270Y-103948811D01*
X166190446Y-103890446D01*
X166329532Y-103723213D01*
X166435813Y-103533435D01*
X166437669Y-103527968D01*
X166437671Y-103527963D01*
X166503874Y-103332935D01*
X166503875Y-103332930D01*
X166505730Y-103327466D01*
X166536941Y-103112205D01*
X166538570Y-103050000D01*
X166518667Y-102833400D01*
X166515812Y-102823275D01*
X166483414Y-102708401D01*
X166459626Y-102624055D01*
X166396134Y-102495305D01*
X166365978Y-102434155D01*
X166363423Y-102428974D01*
X166354114Y-102416507D01*
X166284465Y-102323236D01*
X166259733Y-102256686D01*
X166274907Y-102187330D01*
X166309858Y-102147021D01*
X166381080Y-102093643D01*
X166381081Y-102093642D01*
X166388261Y-102088261D01*
X166475615Y-101971705D01*
X166526745Y-101835316D01*
X166533500Y-101773134D01*
X166533500Y-100326866D01*
X166526745Y-100264684D01*
X166475615Y-100128295D01*
X166388261Y-100011739D01*
X166271705Y-99924385D01*
X166135316Y-99873255D01*
X166073134Y-99866500D01*
X164626866Y-99866500D01*
X164564684Y-99873255D01*
X164428295Y-99924385D01*
X164311739Y-100011739D01*
X164224385Y-100128295D01*
X164173255Y-100264684D01*
X164166500Y-100326866D01*
X164166500Y-101773134D01*
X164173255Y-101835316D01*
X164224385Y-101971705D01*
X164311739Y-102088261D01*
X164370208Y-102132081D01*
X164390269Y-102147116D01*
X164432784Y-102203975D01*
X164437810Y-102274794D01*
X164413654Y-102325948D01*
X164373669Y-102376669D01*
X164353181Y-102402658D01*
X164350493Y-102407767D01*
X164344261Y-102419612D01*
X164251905Y-102595154D01*
X164247251Y-102610143D01*
X164194922Y-102778668D01*
X164187403Y-102802882D01*
X164161837Y-103018887D01*
X164176063Y-103235933D01*
X164177484Y-103241529D01*
X164177485Y-103241534D01*
X164222832Y-103420084D01*
X164229605Y-103446753D01*
X164232022Y-103451996D01*
X164315576Y-103633240D01*
X164320668Y-103644285D01*
X164446204Y-103821914D01*
X164450346Y-103825949D01*
X164589741Y-103961741D01*
X164624579Y-104023602D01*
X164620442Y-104094478D01*
X164584899Y-104146726D01*
X164487842Y-104231842D01*
X164484270Y-104236373D01*
X164374916Y-104375088D01*
X164353181Y-104402658D01*
X164350493Y-104407767D01*
X164310107Y-104484529D01*
X164251905Y-104595154D01*
X164250192Y-104600671D01*
X164192586Y-104786191D01*
X164187403Y-104802882D01*
X164161837Y-105018887D01*
X154058500Y-105018887D01*
X154058500Y-99455839D01*
X173178427Y-99455839D01*
X173185495Y-99469285D01*
X173833188Y-100116978D01*
X173847132Y-100124592D01*
X173848965Y-100124461D01*
X173855580Y-100120210D01*
X174369391Y-99606399D01*
X175120712Y-99606399D01*
X175142194Y-99695537D01*
X175146083Y-99706832D01*
X175228629Y-99888382D01*
X175234576Y-99898724D01*
X175349968Y-100061397D01*
X175357761Y-100070425D01*
X175501831Y-100208342D01*
X175511196Y-100215738D01*
X175678741Y-100323921D01*
X175689345Y-100329417D01*
X175874312Y-100403961D01*
X175885770Y-100407355D01*
X176082928Y-100445857D01*
X176091791Y-100446934D01*
X176094500Y-100447000D01*
X176273885Y-100447000D01*
X176289124Y-100442525D01*
X176290329Y-100441135D01*
X176292000Y-100433452D01*
X176292000Y-99611115D01*
X176287525Y-99595876D01*
X176286135Y-99594671D01*
X176278452Y-99593000D01*
X175135598Y-99593000D01*
X175122067Y-99596973D01*
X175120712Y-99606399D01*
X174369391Y-99606399D01*
X174507226Y-99468564D01*
X174513656Y-99456789D01*
X174504360Y-99444774D01*
X174469363Y-99420269D01*
X174459868Y-99414786D01*
X174274304Y-99328256D01*
X174264012Y-99324510D01*
X174066241Y-99271518D01*
X174055446Y-99269615D01*
X173851475Y-99251769D01*
X173840525Y-99251769D01*
X173636554Y-99269615D01*
X173625759Y-99271518D01*
X173427988Y-99324510D01*
X173417696Y-99328256D01*
X173232132Y-99414786D01*
X173222637Y-99420269D01*
X173186803Y-99445360D01*
X173178427Y-99455839D01*
X154058500Y-99455839D01*
X154058500Y-99070716D01*
X175116352Y-99070716D01*
X175117820Y-99081008D01*
X175131385Y-99085000D01*
X176273885Y-99085000D01*
X176289124Y-99080525D01*
X176290329Y-99079135D01*
X176292000Y-99071452D01*
X176292000Y-98249115D01*
X176287525Y-98233876D01*
X176286135Y-98232671D01*
X176278452Y-98231000D01*
X176146168Y-98231000D01*
X176140192Y-98231285D01*
X175991506Y-98245471D01*
X175979772Y-98247730D01*
X175788401Y-98303872D01*
X175777325Y-98308302D01*
X175600022Y-98399619D01*
X175589976Y-98406069D01*
X175433143Y-98529262D01*
X175424494Y-98537499D01*
X175293788Y-98688123D01*
X175286853Y-98697847D01*
X175186990Y-98870467D01*
X175182016Y-98881331D01*
X175116593Y-99069727D01*
X175116352Y-99070716D01*
X154058500Y-99070716D01*
X154058500Y-98484000D01*
X154078502Y-98415879D01*
X154132158Y-98369386D01*
X154184500Y-98358000D01*
X154727885Y-98358000D01*
X154743124Y-98353525D01*
X154744329Y-98352135D01*
X154746000Y-98344452D01*
X154746000Y-98339884D01*
X155254000Y-98339884D01*
X155258475Y-98355123D01*
X155259865Y-98356328D01*
X155267548Y-98357999D01*
X155894669Y-98357999D01*
X155901490Y-98357629D01*
X155952352Y-98352105D01*
X155967604Y-98348479D01*
X156088054Y-98303324D01*
X156103649Y-98294786D01*
X156205724Y-98218285D01*
X156218285Y-98205724D01*
X156294786Y-98103649D01*
X156303325Y-98088052D01*
X156344425Y-97978418D01*
X156387066Y-97921653D01*
X156453628Y-97896953D01*
X156522977Y-97912160D01*
X156557645Y-97940150D01*
X156583219Y-97969674D01*
X156590580Y-97976883D01*
X156754434Y-98112916D01*
X156762881Y-98118831D01*
X156946756Y-98226279D01*
X156956042Y-98230729D01*
X157155001Y-98306703D01*
X157164899Y-98309579D01*
X157268250Y-98330606D01*
X157282299Y-98329410D01*
X157286000Y-98319065D01*
X157286000Y-98318517D01*
X157794000Y-98318517D01*
X157798064Y-98332359D01*
X157811478Y-98334393D01*
X157818184Y-98333534D01*
X157828262Y-98331392D01*
X158032255Y-98270191D01*
X158041842Y-98266433D01*
X158233095Y-98172739D01*
X158241945Y-98167464D01*
X158415328Y-98043792D01*
X158423200Y-98037139D01*
X158574052Y-97886812D01*
X158580730Y-97878965D01*
X158708022Y-97701819D01*
X158709147Y-97702627D01*
X158756669Y-97658876D01*
X158826607Y-97646661D01*
X158892046Y-97674197D01*
X158919870Y-97706028D01*
X158977690Y-97800383D01*
X158983777Y-97808699D01*
X159123213Y-97969667D01*
X159130580Y-97976883D01*
X159294434Y-98112916D01*
X159302881Y-98118831D01*
X159486756Y-98226279D01*
X159496042Y-98230729D01*
X159695001Y-98306703D01*
X159704899Y-98309579D01*
X159808250Y-98330606D01*
X159822299Y-98329410D01*
X159826000Y-98319065D01*
X159826000Y-98318517D01*
X160334000Y-98318517D01*
X160338064Y-98332359D01*
X160351478Y-98334393D01*
X160358184Y-98333534D01*
X160368262Y-98331392D01*
X160572255Y-98270191D01*
X160581842Y-98266433D01*
X160773095Y-98172739D01*
X160781945Y-98167464D01*
X160955328Y-98043792D01*
X160963200Y-98037139D01*
X161114052Y-97886812D01*
X161120730Y-97878965D01*
X161245003Y-97706020D01*
X161250313Y-97697183D01*
X161344670Y-97506267D01*
X161348469Y-97496672D01*
X161410377Y-97292910D01*
X161412555Y-97282837D01*
X161413986Y-97271962D01*
X161411775Y-97257778D01*
X161398617Y-97254000D01*
X160352115Y-97254000D01*
X160336876Y-97258475D01*
X160335671Y-97259865D01*
X160334000Y-97267548D01*
X160334000Y-98318517D01*
X159826000Y-98318517D01*
X159826000Y-97272115D01*
X159821525Y-97256876D01*
X159820135Y-97255671D01*
X159812452Y-97254000D01*
X157812115Y-97254000D01*
X157796876Y-97258475D01*
X157795671Y-97259865D01*
X157794000Y-97267548D01*
X157794000Y-98318517D01*
X157286000Y-98318517D01*
X157286000Y-97272115D01*
X157281525Y-97256876D01*
X157280135Y-97255671D01*
X157272452Y-97254000D01*
X155272115Y-97254000D01*
X155256876Y-97258475D01*
X155255671Y-97259865D01*
X155254000Y-97267548D01*
X155254000Y-98339884D01*
X154746000Y-98339884D01*
X154746000Y-96727885D01*
X155254000Y-96727885D01*
X155258475Y-96743124D01*
X155259865Y-96744329D01*
X155267548Y-96746000D01*
X157267885Y-96746000D01*
X157283124Y-96741525D01*
X157284329Y-96740135D01*
X157286000Y-96732452D01*
X157286000Y-96727885D01*
X157794000Y-96727885D01*
X157798475Y-96743124D01*
X157799865Y-96744329D01*
X157807548Y-96746000D01*
X159807885Y-96746000D01*
X159823124Y-96741525D01*
X159824329Y-96740135D01*
X159826000Y-96732452D01*
X159826000Y-96727885D01*
X160334000Y-96727885D01*
X160338475Y-96743124D01*
X160339865Y-96744329D01*
X160347548Y-96746000D01*
X161398344Y-96746000D01*
X161411875Y-96742027D01*
X161413180Y-96732947D01*
X161371214Y-96565875D01*
X161367894Y-96556124D01*
X161282972Y-96360814D01*
X161278105Y-96351739D01*
X161162426Y-96172926D01*
X161156136Y-96164757D01*
X161012806Y-96007240D01*
X161005273Y-96000215D01*
X160838139Y-95868222D01*
X160829552Y-95862517D01*
X160643117Y-95759599D01*
X160633705Y-95755369D01*
X160432959Y-95684280D01*
X160422988Y-95681646D01*
X160351837Y-95668972D01*
X160338540Y-95670432D01*
X160334000Y-95684989D01*
X160334000Y-96727885D01*
X159826000Y-96727885D01*
X159826000Y-95683102D01*
X159822082Y-95669758D01*
X159807806Y-95667771D01*
X159769324Y-95673660D01*
X159759288Y-95676051D01*
X159556868Y-95742212D01*
X159547359Y-95746209D01*
X159358463Y-95844542D01*
X159349738Y-95850036D01*
X159179433Y-95977905D01*
X159171726Y-95984748D01*
X159024590Y-96138717D01*
X159018104Y-96146727D01*
X158913193Y-96300521D01*
X158858282Y-96345524D01*
X158787757Y-96353695D01*
X158724010Y-96322441D01*
X158703313Y-96297957D01*
X158622427Y-96172926D01*
X158616136Y-96164757D01*
X158472806Y-96007240D01*
X158465273Y-96000215D01*
X158298139Y-95868222D01*
X158289552Y-95862517D01*
X158103117Y-95759599D01*
X158093705Y-95755369D01*
X157892959Y-95684280D01*
X157882988Y-95681646D01*
X157811837Y-95668972D01*
X157798540Y-95670432D01*
X157794000Y-95684989D01*
X157794000Y-96727885D01*
X157286000Y-96727885D01*
X157286000Y-95683102D01*
X157282082Y-95669758D01*
X157267806Y-95667771D01*
X157229324Y-95673660D01*
X157219288Y-95676051D01*
X157016868Y-95742212D01*
X157007359Y-95746209D01*
X156818463Y-95844542D01*
X156809738Y-95850036D01*
X156639433Y-95977905D01*
X156631726Y-95984748D01*
X156554094Y-96065985D01*
X156492570Y-96101415D01*
X156421657Y-96097958D01*
X156363871Y-96056712D01*
X156345018Y-96023164D01*
X156303324Y-95911946D01*
X156294786Y-95896351D01*
X156218285Y-95794276D01*
X156205724Y-95781715D01*
X156103649Y-95705214D01*
X156088054Y-95696676D01*
X155967606Y-95651522D01*
X155952351Y-95647895D01*
X155901486Y-95642369D01*
X155894672Y-95642000D01*
X155272115Y-95642000D01*
X155256876Y-95646475D01*
X155255671Y-95647865D01*
X155254000Y-95655548D01*
X155254000Y-96727885D01*
X154746000Y-96727885D01*
X154746000Y-95660116D01*
X154741525Y-95644877D01*
X154740135Y-95643672D01*
X154732452Y-95642001D01*
X154488424Y-95642001D01*
X154420303Y-95621999D01*
X154373810Y-95568343D01*
X154363706Y-95498069D01*
X154393200Y-95433489D01*
X154399329Y-95426906D01*
X155030830Y-94795405D01*
X155093142Y-94761379D01*
X155119925Y-94758500D01*
X155898134Y-94758500D01*
X155960316Y-94751745D01*
X156096705Y-94700615D01*
X156213261Y-94613261D01*
X156300615Y-94496705D01*
X156321433Y-94441173D01*
X156344598Y-94379382D01*
X156387240Y-94322618D01*
X156453802Y-94297918D01*
X156523150Y-94313126D01*
X156557817Y-94341114D01*
X156586250Y-94373938D01*
X156758126Y-94516632D01*
X156951000Y-94629338D01*
X156955825Y-94631180D01*
X156955826Y-94631181D01*
X157019723Y-94655581D01*
X157159692Y-94709030D01*
X157164760Y-94710061D01*
X157164763Y-94710062D01*
X157239307Y-94725228D01*
X157378597Y-94753567D01*
X157383772Y-94753757D01*
X157383774Y-94753757D01*
X157596673Y-94761564D01*
X157596677Y-94761564D01*
X157601837Y-94761753D01*
X157606957Y-94761097D01*
X157606959Y-94761097D01*
X157818288Y-94734025D01*
X157818289Y-94734025D01*
X157823416Y-94733368D01*
X157850548Y-94725228D01*
X158032429Y-94670661D01*
X158032434Y-94670659D01*
X158037384Y-94669174D01*
X158237994Y-94570896D01*
X158419860Y-94441173D01*
X158578096Y-94283489D01*
X158597480Y-94256514D01*
X158708453Y-94102077D01*
X158709776Y-94103028D01*
X158756645Y-94059857D01*
X158826580Y-94047625D01*
X158892026Y-94075144D01*
X158919875Y-94106994D01*
X158935066Y-94131783D01*
X158979987Y-94205088D01*
X158983367Y-94208990D01*
X158990522Y-94217250D01*
X159126250Y-94373938D01*
X159298126Y-94516632D01*
X159491000Y-94629338D01*
X159495825Y-94631180D01*
X159495826Y-94631181D01*
X159559723Y-94655581D01*
X159699692Y-94709030D01*
X159704760Y-94710061D01*
X159704763Y-94710062D01*
X159779307Y-94725228D01*
X159918597Y-94753567D01*
X159923772Y-94753757D01*
X159923774Y-94753757D01*
X160136673Y-94761564D01*
X160136677Y-94761564D01*
X160141837Y-94761753D01*
X160146957Y-94761097D01*
X160146959Y-94761097D01*
X160358288Y-94734025D01*
X160358289Y-94734025D01*
X160363416Y-94733368D01*
X160390548Y-94725228D01*
X160572429Y-94670661D01*
X160572434Y-94670659D01*
X160577384Y-94669174D01*
X160777994Y-94570896D01*
X160959860Y-94441173D01*
X161118096Y-94283489D01*
X161137480Y-94256514D01*
X161245435Y-94106277D01*
X161248453Y-94102077D01*
X161255134Y-94088560D01*
X161345136Y-93906453D01*
X161345137Y-93906451D01*
X161347430Y-93901811D01*
X161412370Y-93688069D01*
X161441529Y-93466590D01*
X161443156Y-93400000D01*
X161424852Y-93177361D01*
X161370431Y-92960702D01*
X161281354Y-92755840D01*
X161160014Y-92568277D01*
X161009670Y-92403051D01*
X161005619Y-92399852D01*
X161005615Y-92399848D01*
X160838414Y-92267800D01*
X160838410Y-92267798D01*
X160834359Y-92264598D01*
X160638789Y-92156638D01*
X160633920Y-92154914D01*
X160633916Y-92154912D01*
X160433087Y-92083795D01*
X160433083Y-92083794D01*
X160428212Y-92082069D01*
X160423119Y-92081162D01*
X160423116Y-92081161D01*
X160213373Y-92043800D01*
X160213367Y-92043799D01*
X160208284Y-92042894D01*
X160134452Y-92041992D01*
X159990081Y-92040228D01*
X159990079Y-92040228D01*
X159984911Y-92040165D01*
X159764091Y-92073955D01*
X159551756Y-92143357D01*
X159353607Y-92246507D01*
X159349474Y-92249610D01*
X159349471Y-92249612D01*
X159179100Y-92377530D01*
X159174965Y-92380635D01*
X159171393Y-92384373D01*
X159063729Y-92497037D01*
X159020629Y-92542138D01*
X158913201Y-92699621D01*
X158858293Y-92744621D01*
X158787768Y-92752792D01*
X158724021Y-92721538D01*
X158703324Y-92697054D01*
X158622822Y-92572617D01*
X158622820Y-92572614D01*
X158620014Y-92568277D01*
X158469670Y-92403051D01*
X158465619Y-92399852D01*
X158465615Y-92399848D01*
X158298414Y-92267800D01*
X158298410Y-92267798D01*
X158294359Y-92264598D01*
X158098789Y-92156638D01*
X158093920Y-92154914D01*
X158093916Y-92154912D01*
X157893087Y-92083795D01*
X157893083Y-92083794D01*
X157888212Y-92082069D01*
X157883119Y-92081162D01*
X157883116Y-92081161D01*
X157673373Y-92043800D01*
X157673367Y-92043799D01*
X157668284Y-92042894D01*
X157594452Y-92041992D01*
X157450081Y-92040228D01*
X157450079Y-92040228D01*
X157444911Y-92040165D01*
X157224091Y-92073955D01*
X157011756Y-92143357D01*
X156813607Y-92246507D01*
X156809474Y-92249610D01*
X156809471Y-92249612D01*
X156639100Y-92377530D01*
X156634965Y-92380635D01*
X156578537Y-92439684D01*
X156554283Y-92465064D01*
X156492759Y-92500494D01*
X156421846Y-92497037D01*
X156364060Y-92455791D01*
X156345207Y-92422243D01*
X156303767Y-92311703D01*
X156300615Y-92303295D01*
X156213261Y-92186739D01*
X156096705Y-92099385D01*
X155960316Y-92048255D01*
X155898134Y-92041500D01*
X154101866Y-92041500D01*
X154039684Y-92048255D01*
X153903295Y-92099385D01*
X153786739Y-92186739D01*
X153699385Y-92303295D01*
X153648255Y-92439684D01*
X153641500Y-92501866D01*
X153641500Y-93280076D01*
X153621498Y-93348197D01*
X153604595Y-93369171D01*
X152380621Y-94593145D01*
X152370478Y-94602247D01*
X152340975Y-94625968D01*
X152316127Y-94655581D01*
X152308709Y-94664421D01*
X152305528Y-94668069D01*
X152303885Y-94669881D01*
X152301691Y-94672075D01*
X152274358Y-94705349D01*
X152273696Y-94706147D01*
X152213846Y-94777474D01*
X152211278Y-94782144D01*
X152207897Y-94786261D01*
X152192703Y-94814598D01*
X152164023Y-94868086D01*
X152163394Y-94869245D01*
X152121538Y-94945381D01*
X152121535Y-94945389D01*
X152118567Y-94950787D01*
X152116955Y-94955869D01*
X152114438Y-94960563D01*
X152087238Y-95049531D01*
X152086918Y-95050559D01*
X152058765Y-95139306D01*
X152058171Y-95144602D01*
X152056613Y-95149698D01*
X152047429Y-95240113D01*
X152047218Y-95242187D01*
X152047089Y-95243393D01*
X152041500Y-95293227D01*
X152041500Y-95296754D01*
X152041445Y-95297739D01*
X152040998Y-95303419D01*
X152036626Y-95346462D01*
X152038747Y-95368898D01*
X152040941Y-95392109D01*
X152041500Y-95403967D01*
X152041500Y-105836181D01*
X152040715Y-105850225D01*
X152036719Y-105885851D01*
X152037235Y-105891995D01*
X152041058Y-105937524D01*
X152041500Y-105948067D01*
X152041500Y-110999369D01*
X152041800Y-111002425D01*
X152041800Y-111002432D01*
X152042432Y-111008875D01*
X152055920Y-111146433D01*
X152057702Y-111152334D01*
X152057702Y-111152336D01*
X152062535Y-111168343D01*
X152113084Y-111335769D01*
X152205934Y-111510396D01*
X152209828Y-111515171D01*
X152209833Y-111515178D01*
X152259143Y-111575638D01*
X152286697Y-111641069D01*
X152287500Y-111655273D01*
X152287500Y-112534559D01*
X152267498Y-112602680D01*
X152213842Y-112649173D01*
X152143568Y-112659277D01*
X152078988Y-112629783D01*
X152072405Y-112623654D01*
X149074209Y-109625459D01*
X149040183Y-109563147D01*
X149045516Y-109491620D01*
X149049356Y-109481513D01*
X149098095Y-109353207D01*
X149101681Y-109327689D01*
X149122788Y-109177508D01*
X149122788Y-109177505D01*
X149123339Y-109173586D01*
X149123656Y-109150869D01*
X149103437Y-108970614D01*
X149101120Y-108963960D01*
X149046104Y-108805975D01*
X149046102Y-108805972D01*
X149043785Y-108799317D01*
X149033290Y-108782522D01*
X148951399Y-108651467D01*
X148947666Y-108645493D01*
X148942704Y-108640496D01*
X148824818Y-108521784D01*
X148824814Y-108521781D01*
X148819855Y-108516787D01*
X148791593Y-108498851D01*
X148696667Y-108438610D01*
X148666706Y-108419596D01*
X148609430Y-108399201D01*
X148502465Y-108361112D01*
X148502460Y-108361111D01*
X148495830Y-108358750D01*
X148488842Y-108357917D01*
X148488839Y-108357916D01*
X148365738Y-108343237D01*
X148315720Y-108337273D01*
X148308717Y-108338009D01*
X148308716Y-108338009D01*
X148142328Y-108355497D01*
X148142326Y-108355498D01*
X148135328Y-108356233D01*
X148083537Y-108373864D01*
X147970286Y-108412417D01*
X147970283Y-108412418D01*
X147966266Y-108413786D01*
X147966265Y-108413786D01*
X147963619Y-108414687D01*
X147963461Y-108414222D01*
X147897773Y-108424436D01*
X147835325Y-108397718D01*
X147833255Y-108396054D01*
X147828292Y-108391056D01*
X147675143Y-108293865D01*
X147645940Y-108283466D01*
X147510902Y-108235381D01*
X147510897Y-108235380D01*
X147504267Y-108233019D01*
X147497279Y-108232186D01*
X147497276Y-108232185D01*
X147359102Y-108215709D01*
X147324157Y-108211542D01*
X147317154Y-108212278D01*
X147317153Y-108212278D01*
X147150765Y-108229766D01*
X147150763Y-108229767D01*
X147143765Y-108230502D01*
X147089621Y-108248934D01*
X147018690Y-108251952D01*
X146959611Y-108218440D01*
X146856593Y-108114700D01*
X146856589Y-108114697D01*
X146851630Y-108109703D01*
X146840512Y-108102647D01*
X146766678Y-108055791D01*
X146698481Y-108012512D01*
X146662916Y-107999848D01*
X146534240Y-107954028D01*
X146534235Y-107954027D01*
X146527605Y-107951666D01*
X146520617Y-107950833D01*
X146520614Y-107950832D01*
X146397513Y-107936153D01*
X146347495Y-107930189D01*
X146340492Y-107930925D01*
X146340491Y-107930925D01*
X146174103Y-107948413D01*
X146174101Y-107948414D01*
X146167103Y-107949149D01*
X145995394Y-108007603D01*
X145984915Y-108014050D01*
X145846910Y-108098951D01*
X145846907Y-108098953D01*
X145840903Y-108102647D01*
X145835868Y-108107578D01*
X145835865Y-108107580D01*
X145727732Y-108213472D01*
X145711308Y-108229556D01*
X145708086Y-108234556D01*
X145649894Y-108274459D01*
X145578929Y-108276580D01*
X145521705Y-108243772D01*
X144283205Y-107005272D01*
X144249179Y-106942960D01*
X144246300Y-106916177D01*
X144246300Y-104445615D01*
X144267352Y-104375888D01*
X144280041Y-104356789D01*
X144334443Y-104274908D01*
X144383135Y-104146727D01*
X144396355Y-104111926D01*
X144396356Y-104111924D01*
X144398855Y-104105344D01*
X144401233Y-104088427D01*
X144423548Y-103929645D01*
X144423548Y-103929642D01*
X144424099Y-103925723D01*
X144424416Y-103903006D01*
X144404197Y-103722751D01*
X144351004Y-103570000D01*
X144346864Y-103558113D01*
X144346864Y-103558112D01*
X144344545Y-103551454D01*
X144345016Y-103551290D01*
X144334350Y-103485707D01*
X144341589Y-103456593D01*
X144396355Y-103312423D01*
X144396356Y-103312421D01*
X144398855Y-103305841D01*
X144424099Y-103126220D01*
X144424295Y-103112205D01*
X144424361Y-103107465D01*
X144424361Y-103107460D01*
X144424416Y-103103503D01*
X144404197Y-102923248D01*
X144396893Y-102902272D01*
X144346864Y-102758610D01*
X144346864Y-102758609D01*
X144344545Y-102751951D01*
X144345016Y-102751787D01*
X144334350Y-102686204D01*
X144341589Y-102657090D01*
X144396355Y-102512920D01*
X144396356Y-102512918D01*
X144398855Y-102506338D01*
X144400801Y-102492494D01*
X144423548Y-102330639D01*
X144423548Y-102330636D01*
X144424099Y-102326717D01*
X144424274Y-102314153D01*
X144424361Y-102307962D01*
X144424361Y-102307957D01*
X144424416Y-102304000D01*
X144404197Y-102123745D01*
X144395702Y-102099350D01*
X144346862Y-101959101D01*
X144346861Y-101959100D01*
X144344545Y-101952448D01*
X144342702Y-101949498D01*
X144331534Y-101880813D01*
X144338772Y-101851706D01*
X144396355Y-101700120D01*
X144396356Y-101700118D01*
X144398855Y-101693538D01*
X144400722Y-101680256D01*
X144423548Y-101517839D01*
X144423548Y-101517836D01*
X144424099Y-101513917D01*
X144424252Y-101502938D01*
X144424361Y-101495162D01*
X144424361Y-101495157D01*
X144424416Y-101491200D01*
X144404197Y-101310945D01*
X144401880Y-101304291D01*
X144346864Y-101146306D01*
X144346862Y-101146303D01*
X144344545Y-101139648D01*
X144248426Y-100985824D01*
X144234741Y-100972043D01*
X144125578Y-100862115D01*
X144125574Y-100862112D01*
X144120615Y-100857118D01*
X144109497Y-100850062D01*
X144061338Y-100819500D01*
X143967466Y-100759927D01*
X143938263Y-100749528D01*
X143803225Y-100701443D01*
X143803220Y-100701442D01*
X143796590Y-100699081D01*
X143789602Y-100698248D01*
X143789599Y-100698247D01*
X143666498Y-100683568D01*
X143616480Y-100677604D01*
X143609477Y-100678340D01*
X143609476Y-100678340D01*
X143443088Y-100695828D01*
X143443086Y-100695829D01*
X143436088Y-100696564D01*
X143264379Y-100755018D01*
X143224248Y-100779707D01*
X143115895Y-100846366D01*
X143115892Y-100846368D01*
X143109888Y-100850062D01*
X143104853Y-100854993D01*
X143104850Y-100854995D01*
X142992130Y-100965379D01*
X142980293Y-100976971D01*
X142882035Y-101129438D01*
X142879626Y-101136058D01*
X142879624Y-101136061D01*
X142824129Y-101288532D01*
X142794823Y-101334532D01*
X141682317Y-102447038D01*
X141673991Y-102454614D01*
X141667497Y-102458735D01*
X141639491Y-102488558D01*
X141620715Y-102508553D01*
X141617960Y-102511395D01*
X141598161Y-102531194D01*
X141595737Y-102534319D01*
X141595729Y-102534328D01*
X141595663Y-102534414D01*
X141587955Y-102543439D01*
X141557583Y-102575782D01*
X141553765Y-102582726D01*
X141553764Y-102582728D01*
X141547778Y-102593617D01*
X141536927Y-102610135D01*
X141524450Y-102626221D01*
X141506824Y-102666954D01*
X141501607Y-102677602D01*
X141480231Y-102716485D01*
X141478260Y-102724160D01*
X141478258Y-102724166D01*
X141475169Y-102736199D01*
X141468766Y-102754901D01*
X141460683Y-102773580D01*
X141456737Y-102798492D01*
X141453740Y-102817415D01*
X141451335Y-102829028D01*
X141440300Y-102872006D01*
X141440300Y-102892353D01*
X141438749Y-102912064D01*
X141435565Y-102932167D01*
X141436311Y-102940059D01*
X141439741Y-102976344D01*
X141440300Y-102988202D01*
X141440300Y-108005180D01*
X141439770Y-108016414D01*
X141438092Y-108023919D01*
X141438942Y-108050955D01*
X141440238Y-108092212D01*
X141440300Y-108096169D01*
X141440300Y-108124183D01*
X141440796Y-108128108D01*
X141440796Y-108128109D01*
X141440808Y-108128204D01*
X141441741Y-108140049D01*
X141443135Y-108184405D01*
X141445347Y-108192017D01*
X141448813Y-108203948D01*
X141452823Y-108223312D01*
X141454348Y-108235381D01*
X141455373Y-108243499D01*
X141458289Y-108250863D01*
X141458290Y-108250868D01*
X141471707Y-108284756D01*
X141475552Y-108295985D01*
X141476608Y-108299618D01*
X141487931Y-108338593D01*
X141491969Y-108345420D01*
X141491970Y-108345423D01*
X141498288Y-108356106D01*
X141506988Y-108373864D01*
X141511561Y-108385415D01*
X141511565Y-108385421D01*
X141514481Y-108392788D01*
X141519139Y-108399199D01*
X141519140Y-108399201D01*
X141540564Y-108428688D01*
X141547081Y-108438610D01*
X141565626Y-108469968D01*
X141565629Y-108469972D01*
X141569666Y-108476798D01*
X141584050Y-108491182D01*
X141596891Y-108506216D01*
X141608858Y-108522687D01*
X141614966Y-108527740D01*
X141643055Y-108550977D01*
X141651835Y-108558967D01*
X146115564Y-113022697D01*
X146149590Y-113085009D01*
X146144525Y-113155824D01*
X146101978Y-113212660D01*
X146035458Y-113237471D01*
X145972822Y-113225800D01*
X145960426Y-113219968D01*
X145953404Y-113216390D01*
X145904003Y-113189231D01*
X145896329Y-113187261D01*
X145896327Y-113187260D01*
X145896124Y-113187208D01*
X145895965Y-113187167D01*
X145873652Y-113179134D01*
X145873316Y-113178976D01*
X145873313Y-113178975D01*
X145866141Y-113175600D01*
X145858356Y-113174115D01*
X145858353Y-113174114D01*
X145810788Y-113165041D01*
X145803063Y-113163314D01*
X145779884Y-113157363D01*
X145748482Y-113149300D01*
X145740183Y-113149300D01*
X145716574Y-113147068D01*
X145716209Y-113146998D01*
X145716204Y-113146998D01*
X145708421Y-113145513D01*
X145652187Y-113149051D01*
X145644275Y-113149300D01*
X142173788Y-113149300D01*
X142106274Y-113129685D01*
X141992215Y-113057302D01*
X141992213Y-113057301D01*
X141986266Y-113053527D01*
X141972480Y-113048618D01*
X141822025Y-112995043D01*
X141822020Y-112995042D01*
X141815390Y-112992681D01*
X141808402Y-112991848D01*
X141808399Y-112991847D01*
X141685298Y-112977168D01*
X141635280Y-112971204D01*
X141628277Y-112971940D01*
X141628276Y-112971940D01*
X141461888Y-112989428D01*
X141461886Y-112989429D01*
X141454888Y-112990164D01*
X141283179Y-113048618D01*
X141225940Y-113083832D01*
X141134690Y-113139969D01*
X141134687Y-113139971D01*
X141128688Y-113143662D01*
X141123658Y-113148587D01*
X141123655Y-113148590D01*
X141121541Y-113150661D01*
X141119857Y-113151558D01*
X141118102Y-113152929D01*
X141117861Y-113152621D01*
X141058876Y-113184033D01*
X140988117Y-113178228D01*
X140943976Y-113149423D01*
X140899778Y-113104915D01*
X140899774Y-113104912D01*
X140894815Y-113099918D01*
X140883697Y-113092862D01*
X140810400Y-113046347D01*
X140741666Y-113002727D01*
X140704318Y-112989428D01*
X140577425Y-112944243D01*
X140577420Y-112944242D01*
X140570790Y-112941881D01*
X140563802Y-112941048D01*
X140563799Y-112941047D01*
X140440698Y-112926368D01*
X140390680Y-112920404D01*
X140383677Y-112921140D01*
X140383676Y-112921140D01*
X140217288Y-112938628D01*
X140217286Y-112938629D01*
X140210288Y-112939364D01*
X140038579Y-112997818D01*
X140032575Y-113001512D01*
X139890095Y-113089166D01*
X139890092Y-113089168D01*
X139884088Y-113092862D01*
X139879053Y-113097793D01*
X139879050Y-113097795D01*
X139759525Y-113214843D01*
X139754493Y-113219771D01*
X139656235Y-113372238D01*
X139653826Y-113378858D01*
X139653824Y-113378861D01*
X139606271Y-113509512D01*
X139594197Y-113542685D01*
X139571463Y-113722640D01*
X139589163Y-113903160D01*
X139646418Y-114075273D01*
X139650065Y-114081295D01*
X139650066Y-114081297D01*
X139691452Y-114149633D01*
X139740380Y-114230424D01*
X139745269Y-114235487D01*
X139745270Y-114235488D01*
X139777284Y-114268639D01*
X139866382Y-114360902D01*
X140018159Y-114460222D01*
X140024759Y-114462677D01*
X140031049Y-114465854D01*
X140030249Y-114467438D01*
X140079875Y-114504514D01*
X140104748Y-114571011D01*
X140091937Y-114636145D01*
X140091854Y-114636312D01*
X140088035Y-114642238D01*
X140085626Y-114648858D01*
X140085624Y-114648861D01*
X140057279Y-114726738D01*
X140025997Y-114812685D01*
X140003263Y-114992640D01*
X140020963Y-115173160D01*
X140078218Y-115345273D01*
X140172180Y-115500424D01*
X140298182Y-115630902D01*
X140449959Y-115730222D01*
X140456563Y-115732678D01*
X140456565Y-115732679D01*
X140613358Y-115790990D01*
X140613360Y-115790990D01*
X140619968Y-115793448D01*
X140703795Y-115804633D01*
X140792780Y-115816507D01*
X140792784Y-115816507D01*
X140799761Y-115817438D01*
X140806772Y-115816800D01*
X140806776Y-115816800D01*
X140949259Y-115803832D01*
X140980400Y-115800998D01*
X140987102Y-115798820D01*
X140987104Y-115798820D01*
X141146209Y-115747124D01*
X141146212Y-115747123D01*
X141152908Y-115744947D01*
X141299985Y-115657271D01*
X141364503Y-115639500D01*
X145276578Y-115639500D01*
X145344699Y-115659502D01*
X145365673Y-115676405D01*
X146356745Y-116667477D01*
X146364322Y-116675803D01*
X146368447Y-116682303D01*
X146374225Y-116687729D01*
X146374226Y-116687730D01*
X146418281Y-116729100D01*
X146421123Y-116731855D01*
X146440906Y-116751638D01*
X146444114Y-116754126D01*
X146453143Y-116761837D01*
X146485494Y-116792217D01*
X146492443Y-116796037D01*
X146503329Y-116802022D01*
X146519853Y-116812876D01*
X146535933Y-116825349D01*
X146543210Y-116828498D01*
X146576650Y-116842969D01*
X146587311Y-116848192D01*
X146619247Y-116865749D01*
X146619252Y-116865751D01*
X146626197Y-116869569D01*
X146633871Y-116871539D01*
X146633878Y-116871542D01*
X146645913Y-116874632D01*
X146664618Y-116881036D01*
X146676013Y-116885967D01*
X146683292Y-116889117D01*
X146698401Y-116891510D01*
X146727127Y-116896060D01*
X146738740Y-116898465D01*
X146781718Y-116909500D01*
X146802065Y-116909500D01*
X146821777Y-116911051D01*
X146841879Y-116914235D01*
X146849771Y-116913489D01*
X146886056Y-116910059D01*
X146897914Y-116909500D01*
X150973980Y-116909500D01*
X150985214Y-116910030D01*
X150992719Y-116911708D01*
X151061012Y-116909562D01*
X151064969Y-116909500D01*
X151092983Y-116909500D01*
X151096908Y-116909004D01*
X151096909Y-116909004D01*
X151097004Y-116908992D01*
X151108849Y-116908059D01*
X151138670Y-116907122D01*
X151145282Y-116906914D01*
X151145283Y-116906914D01*
X151153205Y-116906665D01*
X151172749Y-116900987D01*
X151192112Y-116896977D01*
X151204440Y-116895420D01*
X151204442Y-116895420D01*
X151212299Y-116894427D01*
X151219663Y-116891511D01*
X151219668Y-116891510D01*
X151253556Y-116878093D01*
X151264785Y-116874248D01*
X151281465Y-116869402D01*
X151307393Y-116861869D01*
X151314220Y-116857831D01*
X151314223Y-116857830D01*
X151324906Y-116851512D01*
X151342664Y-116842812D01*
X151354215Y-116838239D01*
X151354221Y-116838235D01*
X151361588Y-116835319D01*
X151370977Y-116828498D01*
X151397488Y-116809236D01*
X151407410Y-116802719D01*
X151438768Y-116784174D01*
X151438772Y-116784171D01*
X151445598Y-116780134D01*
X151459982Y-116765750D01*
X151475016Y-116752909D01*
X151485073Y-116745602D01*
X151491487Y-116740942D01*
X151519773Y-116706750D01*
X151527763Y-116697969D01*
X152072405Y-116153328D01*
X152134717Y-116119303D01*
X152205533Y-116124368D01*
X152262368Y-116166915D01*
X152287179Y-116233435D01*
X152287500Y-116242424D01*
X152287500Y-117490372D01*
X152267498Y-117558493D01*
X152250595Y-117579467D01*
X151510667Y-118319395D01*
X151448355Y-118353421D01*
X151421572Y-118356300D01*
X144588427Y-118356300D01*
X144520306Y-118336298D01*
X144499332Y-118319395D01*
X142622810Y-116442872D01*
X142610423Y-116428459D01*
X142601795Y-116416735D01*
X142597454Y-116410836D01*
X142556945Y-116376421D01*
X142549429Y-116369491D01*
X142543685Y-116363747D01*
X142540811Y-116361473D01*
X142540804Y-116361467D01*
X142521289Y-116346028D01*
X142517885Y-116343237D01*
X142467528Y-116300455D01*
X142467524Y-116300452D01*
X142461949Y-116295716D01*
X142455432Y-116292388D01*
X142450368Y-116289011D01*
X142445144Y-116285784D01*
X142439400Y-116281240D01*
X142413109Y-116268952D01*
X142372918Y-116250168D01*
X142368967Y-116248237D01*
X142310117Y-116218187D01*
X142303596Y-116214857D01*
X142296481Y-116213116D01*
X142290735Y-116210979D01*
X142284952Y-116209055D01*
X142278321Y-116205956D01*
X142206443Y-116191006D01*
X142202171Y-116190039D01*
X142130888Y-116172596D01*
X142125289Y-116172249D01*
X142125285Y-116172248D01*
X142119670Y-116171900D01*
X142119672Y-116171861D01*
X142115771Y-116171628D01*
X142111412Y-116171239D01*
X142104244Y-116169748D01*
X142096927Y-116169946D01*
X142026423Y-116171854D01*
X142023014Y-116171900D01*
X139762428Y-116171900D01*
X139694307Y-116151898D01*
X139673333Y-116134995D01*
X138338000Y-114799662D01*
X138303974Y-114737350D01*
X138309039Y-114666535D01*
X138322146Y-114640841D01*
X138336145Y-114619770D01*
X138336147Y-114619766D01*
X138340043Y-114613902D01*
X138404455Y-114444338D01*
X138416181Y-114360902D01*
X138429148Y-114268639D01*
X138429148Y-114268636D01*
X138429699Y-114264717D01*
X138430016Y-114242000D01*
X138409797Y-114061745D01*
X138407480Y-114055091D01*
X138352464Y-113897106D01*
X138352462Y-113897103D01*
X138350145Y-113890448D01*
X138254026Y-113736624D01*
X138249064Y-113731627D01*
X138131178Y-113612915D01*
X138131174Y-113612912D01*
X138126215Y-113607918D01*
X138115097Y-113600862D01*
X138012994Y-113536066D01*
X137973066Y-113510727D01*
X137883868Y-113478965D01*
X137808825Y-113452243D01*
X137808820Y-113452242D01*
X137802190Y-113449881D01*
X137795202Y-113449048D01*
X137795199Y-113449047D01*
X137672098Y-113434368D01*
X137622080Y-113428404D01*
X137615077Y-113429140D01*
X137615076Y-113429140D01*
X137448688Y-113446628D01*
X137448686Y-113446629D01*
X137441688Y-113447364D01*
X137269979Y-113505818D01*
X137210053Y-113542685D01*
X137136692Y-113587817D01*
X137070670Y-113606500D01*
X136831832Y-113606500D01*
X136820593Y-113605970D01*
X136813081Y-113604291D01*
X136805156Y-113604540D01*
X136805155Y-113604540D01*
X136744770Y-113606438D01*
X136740812Y-113606500D01*
X136712817Y-113606500D01*
X136708883Y-113606997D01*
X136708881Y-113606997D01*
X136708794Y-113607008D01*
X136696931Y-113607941D01*
X136692837Y-113608069D01*
X136624125Y-113590206D01*
X136575978Y-113538029D01*
X136562900Y-113482131D01*
X136562900Y-102039966D01*
X136582902Y-101971845D01*
X136636558Y-101925352D01*
X136649964Y-101920133D01*
X136777409Y-101878724D01*
X136777412Y-101878723D01*
X136784108Y-101876547D01*
X136922352Y-101794137D01*
X136933860Y-101787277D01*
X136933862Y-101787276D01*
X136939912Y-101783669D01*
X137071266Y-101658582D01*
X137171643Y-101507502D01*
X137221478Y-101376312D01*
X137233555Y-101344520D01*
X137233556Y-101344518D01*
X137236055Y-101337938D01*
X137242999Y-101288532D01*
X137260748Y-101162239D01*
X137260748Y-101162236D01*
X137261299Y-101158317D01*
X137261616Y-101135600D01*
X137241397Y-100955345D01*
X137237587Y-100944405D01*
X137184064Y-100790706D01*
X137184062Y-100790703D01*
X137181745Y-100784048D01*
X137175365Y-100773838D01*
X137089359Y-100636198D01*
X137085626Y-100630224D01*
X137050800Y-100595154D01*
X136962778Y-100506515D01*
X136962774Y-100506512D01*
X136957815Y-100501518D01*
X136946697Y-100494462D01*
X136885155Y-100455407D01*
X136804666Y-100404327D01*
X136733868Y-100379117D01*
X136640425Y-100345843D01*
X136640420Y-100345842D01*
X136633790Y-100343481D01*
X136626802Y-100342648D01*
X136626799Y-100342647D01*
X136503698Y-100327968D01*
X136453680Y-100322004D01*
X136446677Y-100322740D01*
X136446676Y-100322740D01*
X136280288Y-100340228D01*
X136280286Y-100340229D01*
X136273288Y-100340964D01*
X136101579Y-100399418D01*
X136093600Y-100404327D01*
X135953095Y-100490766D01*
X135953092Y-100490768D01*
X135947088Y-100494462D01*
X135942053Y-100499393D01*
X135942050Y-100499395D01*
X135875783Y-100564289D01*
X135817493Y-100621371D01*
X135719235Y-100773838D01*
X135716826Y-100780458D01*
X135716824Y-100780461D01*
X135659606Y-100937666D01*
X135657197Y-100944285D01*
X135650546Y-100996931D01*
X135622166Y-101062004D01*
X135614636Y-101070231D01*
X135533917Y-101150950D01*
X135525591Y-101158526D01*
X135519097Y-101162647D01*
X135513674Y-101168422D01*
X135472315Y-101212465D01*
X135469560Y-101215307D01*
X135449761Y-101235106D01*
X135447337Y-101238231D01*
X135447329Y-101238240D01*
X135447263Y-101238326D01*
X135439555Y-101247351D01*
X135409183Y-101279694D01*
X135405365Y-101286638D01*
X135405364Y-101286640D01*
X135399378Y-101297529D01*
X135388527Y-101314047D01*
X135376050Y-101330133D01*
X135358424Y-101370866D01*
X135353207Y-101381514D01*
X135331831Y-101420397D01*
X135329860Y-101428072D01*
X135329858Y-101428078D01*
X135326769Y-101440111D01*
X135320366Y-101458813D01*
X135312283Y-101477492D01*
X135308573Y-101500914D01*
X135305340Y-101521327D01*
X135302935Y-101532940D01*
X135291900Y-101575918D01*
X135291900Y-101596265D01*
X135290349Y-101615976D01*
X135287165Y-101636079D01*
X135287911Y-101643971D01*
X135291341Y-101680256D01*
X135291900Y-101692114D01*
X135291900Y-117096780D01*
X135291370Y-117108014D01*
X135289692Y-117115519D01*
X135289941Y-117123438D01*
X135291838Y-117183812D01*
X135291900Y-117187769D01*
X135291900Y-117215783D01*
X135292396Y-117219708D01*
X135292396Y-117219709D01*
X135292408Y-117219804D01*
X135293341Y-117231649D01*
X135294735Y-117276005D01*
X135296946Y-117283614D01*
X135296947Y-117283622D01*
X135299496Y-117292394D01*
X135304500Y-117327549D01*
X135304500Y-119822733D01*
X135284498Y-119890854D01*
X135236680Y-119934496D01*
X135213607Y-119946507D01*
X135209474Y-119949610D01*
X135209471Y-119949612D01*
X135039100Y-120077530D01*
X135034965Y-120080635D01*
X134880629Y-120242138D01*
X134773201Y-120399621D01*
X134718293Y-120444621D01*
X134647768Y-120452792D01*
X134584021Y-120421538D01*
X134563324Y-120397054D01*
X134482822Y-120272617D01*
X134482820Y-120272614D01*
X134480014Y-120268277D01*
X134329670Y-120103051D01*
X134325619Y-120099852D01*
X134325615Y-120099848D01*
X134158414Y-119967800D01*
X134158410Y-119967798D01*
X134154359Y-119964598D01*
X133958789Y-119856638D01*
X133953920Y-119854914D01*
X133953916Y-119854912D01*
X133753087Y-119783795D01*
X133753083Y-119783794D01*
X133748212Y-119782069D01*
X133743119Y-119781162D01*
X133743116Y-119781161D01*
X133533373Y-119743800D01*
X133533367Y-119743799D01*
X133528284Y-119742894D01*
X133454452Y-119741992D01*
X133310081Y-119740228D01*
X133310079Y-119740228D01*
X133304911Y-119740165D01*
X133084091Y-119773955D01*
X132871756Y-119843357D01*
X132673607Y-119946507D01*
X132669474Y-119949610D01*
X132669471Y-119949612D01*
X132499100Y-120077530D01*
X132494965Y-120080635D01*
X132340629Y-120242138D01*
X132233201Y-120399621D01*
X132178293Y-120444621D01*
X132107768Y-120452792D01*
X132044021Y-120421538D01*
X132023324Y-120397054D01*
X131942822Y-120272617D01*
X131942820Y-120272614D01*
X131940014Y-120268277D01*
X131789670Y-120103051D01*
X131785619Y-120099852D01*
X131785615Y-120099848D01*
X131618414Y-119967800D01*
X131618410Y-119967798D01*
X131614359Y-119964598D01*
X131418789Y-119856638D01*
X131413920Y-119854914D01*
X131413916Y-119854912D01*
X131213087Y-119783795D01*
X131213083Y-119783794D01*
X131208212Y-119782069D01*
X131203119Y-119781162D01*
X131203116Y-119781161D01*
X130993373Y-119743800D01*
X130993367Y-119743799D01*
X130988284Y-119742894D01*
X130914452Y-119741992D01*
X130770081Y-119740228D01*
X130770079Y-119740228D01*
X130764911Y-119740165D01*
X130544091Y-119773955D01*
X130331756Y-119843357D01*
X130133607Y-119946507D01*
X130129474Y-119949610D01*
X130129471Y-119949612D01*
X129959100Y-120077530D01*
X129954965Y-120080635D01*
X129800629Y-120242138D01*
X129693201Y-120399621D01*
X129638293Y-120444621D01*
X129567768Y-120452792D01*
X129504021Y-120421538D01*
X129483324Y-120397054D01*
X129402822Y-120272617D01*
X129402820Y-120272614D01*
X129400014Y-120268277D01*
X129249670Y-120103051D01*
X129245619Y-120099852D01*
X129245615Y-120099848D01*
X129078414Y-119967800D01*
X129078410Y-119967798D01*
X129074359Y-119964598D01*
X128878789Y-119856638D01*
X128873920Y-119854914D01*
X128873916Y-119854912D01*
X128673087Y-119783795D01*
X128673083Y-119783794D01*
X128668212Y-119782069D01*
X128663119Y-119781162D01*
X128663116Y-119781161D01*
X128453373Y-119743800D01*
X128453367Y-119743799D01*
X128448284Y-119742894D01*
X128374452Y-119741992D01*
X128230081Y-119740228D01*
X128230079Y-119740228D01*
X128224911Y-119740165D01*
X128004091Y-119773955D01*
X127791756Y-119843357D01*
X127593607Y-119946507D01*
X127589474Y-119949610D01*
X127589471Y-119949612D01*
X127419100Y-120077530D01*
X127414965Y-120080635D01*
X127260629Y-120242138D01*
X127153201Y-120399621D01*
X127098293Y-120444621D01*
X127027768Y-120452792D01*
X126964021Y-120421538D01*
X126943324Y-120397054D01*
X126862822Y-120272617D01*
X126862820Y-120272614D01*
X126860014Y-120268277D01*
X126709670Y-120103051D01*
X126705619Y-120099852D01*
X126705615Y-120099848D01*
X126538414Y-119967800D01*
X126538410Y-119967798D01*
X126534359Y-119964598D01*
X126338789Y-119856638D01*
X126333920Y-119854914D01*
X126333916Y-119854912D01*
X126133087Y-119783795D01*
X126133083Y-119783794D01*
X126128212Y-119782069D01*
X126123119Y-119781162D01*
X126123116Y-119781161D01*
X125913373Y-119743800D01*
X125913367Y-119743799D01*
X125908284Y-119742894D01*
X125834452Y-119741992D01*
X125690081Y-119740228D01*
X125690079Y-119740228D01*
X125684911Y-119740165D01*
X125538048Y-119762638D01*
X125469200Y-119773173D01*
X125469197Y-119773174D01*
X125464091Y-119773955D01*
X125459184Y-119775559D01*
X125459171Y-119775562D01*
X125453661Y-119777363D01*
X125382697Y-119779512D01*
X125325425Y-119746692D01*
X125015250Y-119436517D01*
X125007674Y-119428191D01*
X125003553Y-119421697D01*
X124953734Y-119374914D01*
X124950893Y-119372160D01*
X124931094Y-119352361D01*
X124927969Y-119349937D01*
X124927960Y-119349929D01*
X124927874Y-119349863D01*
X124918849Y-119342155D01*
X124892285Y-119317210D01*
X124886506Y-119311783D01*
X124868669Y-119301977D01*
X124852153Y-119291127D01*
X124836067Y-119278650D01*
X124795334Y-119261024D01*
X124784686Y-119255807D01*
X124773058Y-119249415D01*
X124745803Y-119234431D01*
X124738128Y-119232460D01*
X124738122Y-119232458D01*
X124726089Y-119229369D01*
X124707387Y-119222966D01*
X124688708Y-119214883D01*
X124654872Y-119209524D01*
X124644873Y-119207940D01*
X124633260Y-119205535D01*
X124590282Y-119194500D01*
X124569935Y-119194500D01*
X124550224Y-119192949D01*
X124537950Y-119191005D01*
X124530121Y-119189765D01*
X124522229Y-119190511D01*
X124485944Y-119193941D01*
X124474086Y-119194500D01*
X117720475Y-119194500D01*
X117652354Y-119174498D01*
X117631380Y-119157595D01*
X116927405Y-118453620D01*
X116893379Y-118391308D01*
X116890500Y-118364525D01*
X116890500Y-111710966D01*
X120638257Y-111710966D01*
X120668565Y-111845446D01*
X120671645Y-111855275D01*
X120751770Y-112052603D01*
X120756413Y-112061794D01*
X120867694Y-112243388D01*
X120873777Y-112251699D01*
X121013213Y-112412667D01*
X121020580Y-112419883D01*
X121184434Y-112555916D01*
X121192881Y-112561831D01*
X121376756Y-112669279D01*
X121386042Y-112673729D01*
X121585001Y-112749703D01*
X121594899Y-112752579D01*
X121698250Y-112773606D01*
X121712299Y-112772410D01*
X121716000Y-112762065D01*
X121716000Y-112761517D01*
X122224000Y-112761517D01*
X122228064Y-112775359D01*
X122241478Y-112777393D01*
X122248184Y-112776534D01*
X122258262Y-112774392D01*
X122462255Y-112713191D01*
X122471842Y-112709433D01*
X122663095Y-112615739D01*
X122671945Y-112610464D01*
X122845328Y-112486792D01*
X122853200Y-112480139D01*
X123004052Y-112329812D01*
X123010730Y-112321965D01*
X123135003Y-112149020D01*
X123140313Y-112140183D01*
X123234670Y-111949267D01*
X123238469Y-111939672D01*
X123300377Y-111735910D01*
X123302555Y-111725837D01*
X123303986Y-111714962D01*
X123301775Y-111700778D01*
X123288617Y-111697000D01*
X122242115Y-111697000D01*
X122226876Y-111701475D01*
X122225671Y-111702865D01*
X122224000Y-111710548D01*
X122224000Y-112761517D01*
X121716000Y-112761517D01*
X121716000Y-111715115D01*
X121711525Y-111699876D01*
X121710135Y-111698671D01*
X121702452Y-111697000D01*
X120653225Y-111697000D01*
X120639694Y-111700973D01*
X120638257Y-111710966D01*
X116890500Y-111710966D01*
X116890500Y-109999020D01*
X116891030Y-109987786D01*
X116892708Y-109980281D01*
X116890562Y-109911988D01*
X116890500Y-109908031D01*
X116890500Y-109880017D01*
X116889992Y-109875996D01*
X116889058Y-109864144D01*
X116888973Y-109861412D01*
X116887665Y-109819795D01*
X116881987Y-109800251D01*
X116877977Y-109780888D01*
X116876420Y-109768560D01*
X116876420Y-109768558D01*
X116875427Y-109760701D01*
X116872511Y-109753337D01*
X116872510Y-109753332D01*
X116859093Y-109719444D01*
X116855248Y-109708215D01*
X116851168Y-109694171D01*
X116842869Y-109665607D01*
X116832510Y-109648091D01*
X116823813Y-109630341D01*
X116816319Y-109611412D01*
X116790240Y-109575517D01*
X116783722Y-109565595D01*
X116765170Y-109534224D01*
X116765166Y-109534219D01*
X116761134Y-109527401D01*
X116746747Y-109513014D01*
X116733906Y-109497980D01*
X116726602Y-109487927D01*
X116721942Y-109481513D01*
X116687750Y-109453227D01*
X116678971Y-109445238D01*
X116336877Y-109103144D01*
X116302851Y-109040832D01*
X116305414Y-108977420D01*
X116309504Y-108963960D01*
X116317370Y-108938069D01*
X116346529Y-108716590D01*
X116348156Y-108650000D01*
X116329852Y-108427361D01*
X116294032Y-108284756D01*
X116276689Y-108215709D01*
X116276688Y-108215705D01*
X116275431Y-108210702D01*
X116272494Y-108203948D01*
X116266557Y-108190292D01*
X116257738Y-108119845D01*
X116288404Y-108055814D01*
X116348821Y-108018526D01*
X116382107Y-108014050D01*
X120130128Y-108014050D01*
X120198249Y-108034052D01*
X120219223Y-108050955D01*
X120619164Y-108450896D01*
X120653190Y-108513208D01*
X120651486Y-108573662D01*
X120630989Y-108647570D01*
X120630441Y-108652700D01*
X120630440Y-108652704D01*
X120626933Y-108685522D01*
X120607251Y-108869695D01*
X120607548Y-108874848D01*
X120607548Y-108874851D01*
X120618604Y-109066590D01*
X120620110Y-109092715D01*
X120621247Y-109097761D01*
X120621248Y-109097767D01*
X120637443Y-109169626D01*
X120669222Y-109310639D01*
X120709346Y-109409453D01*
X120747835Y-109504240D01*
X120753266Y-109517616D01*
X120788749Y-109575519D01*
X120865137Y-109700173D01*
X120869987Y-109708088D01*
X121016250Y-109876938D01*
X121188126Y-110019632D01*
X121218753Y-110037529D01*
X121261955Y-110062774D01*
X121310679Y-110114412D01*
X121323750Y-110184195D01*
X121297019Y-110249967D01*
X121256562Y-110283327D01*
X121248457Y-110287546D01*
X121239738Y-110293036D01*
X121069433Y-110420905D01*
X121061726Y-110427748D01*
X120914590Y-110581717D01*
X120908104Y-110589727D01*
X120788098Y-110765649D01*
X120783000Y-110774623D01*
X120693338Y-110967783D01*
X120689775Y-110977470D01*
X120634389Y-111177183D01*
X120635912Y-111185607D01*
X120648292Y-111189000D01*
X123288344Y-111189000D01*
X123301875Y-111185027D01*
X123303180Y-111175947D01*
X123261214Y-111008875D01*
X123257894Y-110999124D01*
X123172972Y-110803814D01*
X123168105Y-110794739D01*
X123052426Y-110615926D01*
X123046136Y-110607757D01*
X122902806Y-110450240D01*
X122895273Y-110443215D01*
X122728139Y-110311222D01*
X122719556Y-110305520D01*
X122682602Y-110285120D01*
X122632631Y-110234687D01*
X122617859Y-110165245D01*
X122642975Y-110098839D01*
X122670327Y-110072232D01*
X122729496Y-110030027D01*
X122849860Y-109944173D01*
X122862884Y-109931195D01*
X122957346Y-109837062D01*
X123008096Y-109786489D01*
X123024740Y-109763327D01*
X123135435Y-109609277D01*
X123138453Y-109605077D01*
X123153062Y-109575519D01*
X123235136Y-109409453D01*
X123235137Y-109409451D01*
X123237430Y-109404811D01*
X123302370Y-109191069D01*
X123331529Y-108969590D01*
X123332383Y-108934639D01*
X123333074Y-108906365D01*
X123333074Y-108906361D01*
X123333156Y-108903000D01*
X123314852Y-108680361D01*
X123260431Y-108463702D01*
X123171354Y-108258840D01*
X123123130Y-108184297D01*
X123052822Y-108075617D01*
X123052820Y-108075614D01*
X123050014Y-108071277D01*
X122899670Y-107906051D01*
X122895619Y-107902852D01*
X122895615Y-107902848D01*
X122728414Y-107770800D01*
X122728410Y-107770798D01*
X122724359Y-107767598D01*
X122683053Y-107744796D01*
X122633084Y-107694364D01*
X122618312Y-107624921D01*
X122643428Y-107558516D01*
X122670780Y-107531909D01*
X122729879Y-107489754D01*
X122849860Y-107404173D01*
X122863457Y-107390624D01*
X122944366Y-107309997D01*
X123008096Y-107246489D01*
X123011389Y-107241907D01*
X123135435Y-107069277D01*
X123138453Y-107065077D01*
X123155211Y-107031171D01*
X123235136Y-106869453D01*
X123235137Y-106869451D01*
X123237430Y-106864811D01*
X123302370Y-106651069D01*
X123331529Y-106429590D01*
X123331734Y-106421211D01*
X123333074Y-106366365D01*
X123333074Y-106366361D01*
X123333156Y-106363000D01*
X123314852Y-106140361D01*
X123260431Y-105923702D01*
X123171354Y-105718840D01*
X123123122Y-105644285D01*
X123052822Y-105535617D01*
X123052820Y-105535614D01*
X123050014Y-105531277D01*
X122899670Y-105366051D01*
X122895619Y-105362852D01*
X122895615Y-105362848D01*
X122728414Y-105230800D01*
X122728410Y-105230798D01*
X122724359Y-105227598D01*
X122683053Y-105204796D01*
X122633084Y-105154364D01*
X122618312Y-105084921D01*
X122643428Y-105018516D01*
X122670780Y-104991909D01*
X122729496Y-104950027D01*
X122849860Y-104864173D01*
X122862884Y-104851195D01*
X122970817Y-104743638D01*
X123008096Y-104706489D01*
X123024740Y-104683327D01*
X123135435Y-104529277D01*
X123138453Y-104525077D01*
X123155211Y-104491171D01*
X123235136Y-104329453D01*
X123235137Y-104329451D01*
X123237430Y-104324811D01*
X123302370Y-104111069D01*
X123331529Y-103889590D01*
X123332299Y-103858069D01*
X123333074Y-103826365D01*
X123333074Y-103826361D01*
X123333156Y-103823000D01*
X123314852Y-103600361D01*
X123292215Y-103510240D01*
X123287389Y-103491025D01*
X123290193Y-103420084D01*
X123320498Y-103371235D01*
X124239928Y-102451805D01*
X124302240Y-102417779D01*
X124329023Y-102414900D01*
X126576700Y-102414900D01*
X126644821Y-102434902D01*
X126691314Y-102488558D01*
X126702700Y-102540900D01*
X126702700Y-106816980D01*
X126702170Y-106828214D01*
X126700492Y-106835719D01*
X126701406Y-106864811D01*
X126702638Y-106904012D01*
X126702700Y-106907969D01*
X126702700Y-106935983D01*
X126703196Y-106939908D01*
X126703196Y-106939909D01*
X126703208Y-106940004D01*
X126704141Y-106951849D01*
X126705535Y-106996205D01*
X126711213Y-107015748D01*
X126715223Y-107035112D01*
X126717773Y-107055299D01*
X126720689Y-107062663D01*
X126720690Y-107062668D01*
X126734107Y-107096556D01*
X126737952Y-107107785D01*
X126750331Y-107150393D01*
X126754369Y-107157220D01*
X126754370Y-107157223D01*
X126760688Y-107167906D01*
X126769388Y-107185664D01*
X126773961Y-107197215D01*
X126773965Y-107197221D01*
X126776881Y-107204588D01*
X126781539Y-107210999D01*
X126781540Y-107211001D01*
X126802964Y-107240488D01*
X126809481Y-107250410D01*
X126828026Y-107281768D01*
X126828029Y-107281772D01*
X126832066Y-107288598D01*
X126846450Y-107302982D01*
X126859291Y-107318016D01*
X126871258Y-107334487D01*
X126877366Y-107339540D01*
X126905455Y-107362777D01*
X126914235Y-107370767D01*
X127618364Y-108074896D01*
X127652390Y-108137208D01*
X127650686Y-108197662D01*
X127630189Y-108271570D01*
X127629641Y-108276700D01*
X127629640Y-108276704D01*
X127623840Y-108330978D01*
X127606451Y-108493695D01*
X127606748Y-108498848D01*
X127606748Y-108498851D01*
X127612211Y-108593590D01*
X127619310Y-108716715D01*
X127620447Y-108721761D01*
X127620448Y-108721767D01*
X127631846Y-108772342D01*
X127668422Y-108934639D01*
X127752466Y-109141616D01*
X127803219Y-109224438D01*
X127866491Y-109327688D01*
X127869187Y-109332088D01*
X128015450Y-109500938D01*
X128187326Y-109643632D01*
X128380200Y-109756338D01*
X128385025Y-109758180D01*
X128385026Y-109758181D01*
X128398502Y-109763327D01*
X128588892Y-109836030D01*
X128593960Y-109837061D01*
X128593963Y-109837062D01*
X128637104Y-109845839D01*
X128807797Y-109880567D01*
X128812972Y-109880757D01*
X128812974Y-109880757D01*
X129025873Y-109888564D01*
X129025877Y-109888564D01*
X129031037Y-109888753D01*
X129036157Y-109888097D01*
X129036159Y-109888097D01*
X129247488Y-109861025D01*
X129247489Y-109861025D01*
X129252616Y-109860368D01*
X129257566Y-109858883D01*
X129461629Y-109797661D01*
X129461634Y-109797659D01*
X129466584Y-109796174D01*
X129667194Y-109697896D01*
X129849060Y-109568173D01*
X129883866Y-109533489D01*
X130003635Y-109414137D01*
X130007296Y-109410489D01*
X130043728Y-109359789D01*
X130137653Y-109229077D01*
X130138976Y-109230028D01*
X130185845Y-109186857D01*
X130255780Y-109174625D01*
X130321226Y-109202144D01*
X130349075Y-109233994D01*
X130409187Y-109332088D01*
X130555450Y-109500938D01*
X130727326Y-109643632D01*
X130920200Y-109756338D01*
X130925025Y-109758180D01*
X130925026Y-109758181D01*
X130938502Y-109763327D01*
X131128892Y-109836030D01*
X131133960Y-109837061D01*
X131133963Y-109837062D01*
X131177104Y-109845839D01*
X131347797Y-109880567D01*
X131352972Y-109880757D01*
X131352974Y-109880757D01*
X131565873Y-109888564D01*
X131565877Y-109888564D01*
X131571037Y-109888753D01*
X131576157Y-109888097D01*
X131576159Y-109888097D01*
X131787488Y-109861025D01*
X131787489Y-109861025D01*
X131792616Y-109860368D01*
X131797566Y-109858883D01*
X132001629Y-109797661D01*
X132001634Y-109797659D01*
X132006584Y-109796174D01*
X132207194Y-109697896D01*
X132389060Y-109568173D01*
X132423866Y-109533489D01*
X132543635Y-109414137D01*
X132547296Y-109410489D01*
X132583728Y-109359789D01*
X132674635Y-109233277D01*
X132677653Y-109229077D01*
X132698520Y-109186857D01*
X132774336Y-109033453D01*
X132774337Y-109033451D01*
X132776630Y-109028811D01*
X132841570Y-108815069D01*
X132870729Y-108593590D01*
X132872356Y-108527000D01*
X132854052Y-108304361D01*
X132799631Y-108087702D01*
X132710554Y-107882840D01*
X132649459Y-107788401D01*
X132592022Y-107699617D01*
X132592020Y-107699614D01*
X132589214Y-107695277D01*
X132438870Y-107530051D01*
X132434819Y-107526852D01*
X132434815Y-107526848D01*
X132267614Y-107394800D01*
X132267610Y-107394798D01*
X132263559Y-107391598D01*
X132222253Y-107368796D01*
X132172284Y-107318364D01*
X132157512Y-107248921D01*
X132182628Y-107182516D01*
X132209980Y-107155909D01*
X132285450Y-107102077D01*
X132389060Y-107028173D01*
X132401529Y-107015748D01*
X132543635Y-106874137D01*
X132547296Y-106870489D01*
X132601777Y-106794671D01*
X132674635Y-106693277D01*
X132677653Y-106689077D01*
X132691929Y-106660193D01*
X132774336Y-106493453D01*
X132774337Y-106493451D01*
X132776630Y-106488811D01*
X132834082Y-106299715D01*
X132840065Y-106280023D01*
X132840065Y-106280021D01*
X132841570Y-106275069D01*
X132870729Y-106053590D01*
X132872356Y-105987000D01*
X132854052Y-105764361D01*
X132799631Y-105547702D01*
X132710554Y-105342840D01*
X132620734Y-105203999D01*
X132592022Y-105159617D01*
X132592020Y-105159614D01*
X132589214Y-105155277D01*
X132438870Y-104990051D01*
X132434819Y-104986852D01*
X132434815Y-104986848D01*
X132267614Y-104854800D01*
X132267610Y-104854798D01*
X132263559Y-104851598D01*
X132222253Y-104828796D01*
X132172284Y-104778364D01*
X132157512Y-104708921D01*
X132182628Y-104642516D01*
X132209980Y-104615909D01*
X132253803Y-104584650D01*
X132389060Y-104488173D01*
X132423866Y-104453489D01*
X132543635Y-104334137D01*
X132547296Y-104330489D01*
X132592603Y-104267438D01*
X132674635Y-104153277D01*
X132677653Y-104149077D01*
X132704638Y-104094478D01*
X132774336Y-103953453D01*
X132774337Y-103953451D01*
X132776630Y-103948811D01*
X132841570Y-103735069D01*
X132870729Y-103513590D01*
X132871109Y-103498029D01*
X132872274Y-103450365D01*
X132872274Y-103450361D01*
X132872356Y-103447000D01*
X132854052Y-103224361D01*
X132799631Y-103007702D01*
X132710554Y-102802840D01*
X132664563Y-102731748D01*
X132592022Y-102619617D01*
X132592020Y-102619614D01*
X132589214Y-102615277D01*
X132438870Y-102450051D01*
X132434819Y-102446852D01*
X132434815Y-102446848D01*
X132267614Y-102314800D01*
X132267610Y-102314798D01*
X132263559Y-102311598D01*
X132222253Y-102288796D01*
X132172284Y-102238364D01*
X132157512Y-102168921D01*
X132182628Y-102102516D01*
X132209980Y-102075909D01*
X132297331Y-102013602D01*
X132389060Y-101948173D01*
X132423866Y-101913489D01*
X132506956Y-101830688D01*
X132547296Y-101790489D01*
X132555688Y-101778811D01*
X132674635Y-101613277D01*
X132677653Y-101609077D01*
X132690124Y-101583845D01*
X132774336Y-101413453D01*
X132774338Y-101413449D01*
X132776630Y-101408811D01*
X132817615Y-101273915D01*
X132840065Y-101200023D01*
X132840065Y-101200021D01*
X132841570Y-101195069D01*
X132870729Y-100973590D01*
X132871175Y-100955345D01*
X132872274Y-100910365D01*
X132872274Y-100910361D01*
X132872356Y-100907000D01*
X132854052Y-100684361D01*
X132799631Y-100467702D01*
X132710554Y-100262840D01*
X132621250Y-100124797D01*
X132592022Y-100079617D01*
X132592020Y-100079614D01*
X132589214Y-100075277D01*
X132438870Y-99910051D01*
X132434819Y-99906852D01*
X132434815Y-99906848D01*
X132267614Y-99774800D01*
X132267610Y-99774798D01*
X132263559Y-99771598D01*
X132222253Y-99748796D01*
X132172284Y-99698364D01*
X132157512Y-99628921D01*
X132182628Y-99562516D01*
X132209980Y-99535909D01*
X132253803Y-99504650D01*
X132389060Y-99408173D01*
X132547296Y-99250489D01*
X132634954Y-99128500D01*
X132674635Y-99073277D01*
X132677653Y-99069077D01*
X132680186Y-99063953D01*
X132774336Y-98873453D01*
X132774337Y-98873451D01*
X132776630Y-98868811D01*
X132835068Y-98676471D01*
X132840065Y-98660023D01*
X132840065Y-98660021D01*
X132841570Y-98655069D01*
X132870729Y-98433590D01*
X132871162Y-98415879D01*
X132872274Y-98370365D01*
X132872274Y-98370361D01*
X132872356Y-98367000D01*
X132854052Y-98144361D01*
X132799631Y-97927702D01*
X132713345Y-97729259D01*
X132704524Y-97658812D01*
X132735191Y-97594780D01*
X132795607Y-97557492D01*
X132866592Y-97558788D01*
X132917989Y-97589921D01*
X132996345Y-97668277D01*
X133003922Y-97676603D01*
X133008047Y-97683103D01*
X133013825Y-97688529D01*
X133013826Y-97688530D01*
X133057881Y-97729900D01*
X133060723Y-97732655D01*
X133080506Y-97752438D01*
X133083714Y-97754926D01*
X133092743Y-97762637D01*
X133125094Y-97793017D01*
X133132043Y-97796837D01*
X133142929Y-97802822D01*
X133159453Y-97813676D01*
X133175533Y-97826149D01*
X133182810Y-97829298D01*
X133216250Y-97843769D01*
X133226911Y-97848992D01*
X133258847Y-97866549D01*
X133258852Y-97866551D01*
X133265797Y-97870369D01*
X133273471Y-97872339D01*
X133273478Y-97872342D01*
X133285513Y-97875432D01*
X133304218Y-97881836D01*
X133311849Y-97885138D01*
X133322892Y-97889917D01*
X133346903Y-97893720D01*
X133366727Y-97896860D01*
X133378340Y-97899265D01*
X133421318Y-97910300D01*
X133441665Y-97910300D01*
X133461377Y-97911851D01*
X133481479Y-97915035D01*
X133489371Y-97914289D01*
X133525656Y-97910859D01*
X133537514Y-97910300D01*
X133822159Y-97910300D01*
X133891152Y-97930868D01*
X133963132Y-97977970D01*
X133998359Y-98001022D01*
X134004963Y-98003478D01*
X134004965Y-98003479D01*
X134161758Y-98061790D01*
X134161760Y-98061790D01*
X134168368Y-98064248D01*
X134244265Y-98074375D01*
X134341180Y-98087307D01*
X134341184Y-98087307D01*
X134348161Y-98088238D01*
X134355172Y-98087600D01*
X134355176Y-98087600D01*
X134497659Y-98074632D01*
X134528800Y-98071798D01*
X134535502Y-98069620D01*
X134535504Y-98069620D01*
X134694609Y-98017924D01*
X134694612Y-98017923D01*
X134701308Y-98015747D01*
X134849005Y-97927702D01*
X134851060Y-97926477D01*
X134851062Y-97926476D01*
X134857112Y-97922869D01*
X134988466Y-97797782D01*
X135088843Y-97646702D01*
X135153255Y-97477138D01*
X135154235Y-97470166D01*
X135177948Y-97301439D01*
X135177948Y-97301436D01*
X135178499Y-97297517D01*
X135178816Y-97274800D01*
X135158597Y-97094545D01*
X135151926Y-97075388D01*
X135101264Y-96929906D01*
X135101262Y-96929903D01*
X135098945Y-96923248D01*
X135002826Y-96769424D01*
X134997864Y-96764427D01*
X134879978Y-96645715D01*
X134879974Y-96645712D01*
X134875015Y-96640718D01*
X134863897Y-96633662D01*
X134799771Y-96592967D01*
X134721866Y-96543527D01*
X134692663Y-96533128D01*
X134557625Y-96485043D01*
X134557620Y-96485042D01*
X134550990Y-96482681D01*
X134544002Y-96481848D01*
X134543999Y-96481847D01*
X134420898Y-96467168D01*
X134370880Y-96461204D01*
X134363877Y-96461940D01*
X134363876Y-96461940D01*
X134197488Y-96479428D01*
X134197486Y-96479429D01*
X134190488Y-96480164D01*
X134018779Y-96538618D01*
X134012775Y-96542312D01*
X133885492Y-96620617D01*
X133819470Y-96639300D01*
X133817023Y-96639300D01*
X133748902Y-96619298D01*
X133727928Y-96602395D01*
X133666005Y-96540472D01*
X133631979Y-96478160D01*
X133629100Y-96451377D01*
X133629100Y-95271032D01*
X133629630Y-95259793D01*
X133631309Y-95252281D01*
X133629162Y-95183969D01*
X133629100Y-95180012D01*
X133629100Y-95152017D01*
X133628592Y-95147994D01*
X133627659Y-95136152D01*
X133626719Y-95106223D01*
X133626265Y-95091795D01*
X133620587Y-95072251D01*
X133616577Y-95052888D01*
X133615020Y-95040560D01*
X133615020Y-95040558D01*
X133614027Y-95032701D01*
X133611111Y-95025337D01*
X133611110Y-95025332D01*
X133597693Y-94991444D01*
X133593848Y-94980215D01*
X133586934Y-94956417D01*
X133581469Y-94937607D01*
X133577346Y-94930635D01*
X133571112Y-94920094D01*
X133562412Y-94902336D01*
X133557839Y-94890785D01*
X133557835Y-94890779D01*
X133554919Y-94883412D01*
X133550041Y-94876697D01*
X133528836Y-94847512D01*
X133522319Y-94837590D01*
X133503774Y-94806232D01*
X133503771Y-94806228D01*
X133499734Y-94799402D01*
X133485350Y-94785018D01*
X133472509Y-94769984D01*
X133465202Y-94759927D01*
X133460542Y-94753513D01*
X133426352Y-94725228D01*
X133417573Y-94717240D01*
X132956846Y-94256514D01*
X132949274Y-94248192D01*
X132945153Y-94241697D01*
X132933969Y-94231194D01*
X132895334Y-94194914D01*
X132892492Y-94192159D01*
X132872694Y-94172361D01*
X132869569Y-94169937D01*
X132869560Y-94169929D01*
X132869474Y-94169863D01*
X132860449Y-94162155D01*
X132833885Y-94137210D01*
X132828106Y-94131783D01*
X132810269Y-94121977D01*
X132793753Y-94111127D01*
X132777667Y-94098650D01*
X132736934Y-94081024D01*
X132726286Y-94075807D01*
X132701409Y-94062131D01*
X132687403Y-94054431D01*
X132679728Y-94052460D01*
X132679722Y-94052458D01*
X132667689Y-94049369D01*
X132648987Y-94042966D01*
X132630308Y-94034883D01*
X132590513Y-94028580D01*
X132586473Y-94027940D01*
X132574860Y-94025535D01*
X132531882Y-94014500D01*
X132511535Y-94014500D01*
X132491824Y-94012949D01*
X132479550Y-94011005D01*
X132471721Y-94009765D01*
X132463829Y-94010511D01*
X132427544Y-94013941D01*
X132415686Y-94014500D01*
X127688131Y-94014500D01*
X127676892Y-94013970D01*
X127669380Y-94012291D01*
X127661455Y-94012540D01*
X127661454Y-94012540D01*
X127601069Y-94014438D01*
X127597111Y-94014500D01*
X127569116Y-94014500D01*
X127565182Y-94014997D01*
X127565180Y-94014997D01*
X127565093Y-94015008D01*
X127553259Y-94015940D01*
X127508894Y-94017335D01*
X127501281Y-94019547D01*
X127501280Y-94019547D01*
X127489351Y-94023013D01*
X127469987Y-94027023D01*
X127457659Y-94028580D01*
X127457657Y-94028580D01*
X127449800Y-94029573D01*
X127442436Y-94032489D01*
X127442431Y-94032490D01*
X127408543Y-94045907D01*
X127397314Y-94049752D01*
X127381210Y-94054431D01*
X127354706Y-94062131D01*
X127347879Y-94066169D01*
X127347876Y-94066170D01*
X127337193Y-94072488D01*
X127319435Y-94081188D01*
X127307884Y-94085761D01*
X127307878Y-94085765D01*
X127300511Y-94088681D01*
X127294100Y-94093339D01*
X127294098Y-94093340D01*
X127264611Y-94114764D01*
X127254689Y-94121281D01*
X127223331Y-94139826D01*
X127223327Y-94139829D01*
X127216501Y-94143866D01*
X127202117Y-94158250D01*
X127187083Y-94171091D01*
X127170612Y-94183058D01*
X127151578Y-94206066D01*
X127142326Y-94217250D01*
X127134336Y-94226031D01*
X126275512Y-95084854D01*
X126267193Y-95092424D01*
X126260697Y-95096546D01*
X126255271Y-95102324D01*
X126255270Y-95102325D01*
X126213915Y-95146364D01*
X126211160Y-95149206D01*
X126191361Y-95169005D01*
X126188937Y-95172130D01*
X126188929Y-95172139D01*
X126188863Y-95172225D01*
X126181155Y-95181250D01*
X126150783Y-95213593D01*
X126146965Y-95220537D01*
X126146964Y-95220539D01*
X126140978Y-95231428D01*
X126130127Y-95247946D01*
X126117650Y-95264032D01*
X126100024Y-95304765D01*
X126094807Y-95315413D01*
X126073431Y-95354296D01*
X126071460Y-95361971D01*
X126071458Y-95361977D01*
X126068369Y-95374010D01*
X126061966Y-95392712D01*
X126053883Y-95411391D01*
X126051773Y-95424712D01*
X126046940Y-95455226D01*
X126044535Y-95466839D01*
X126033500Y-95509817D01*
X126033500Y-95530164D01*
X126031949Y-95549875D01*
X126028765Y-95569978D01*
X126029511Y-95577870D01*
X126032941Y-95614155D01*
X126033500Y-95626013D01*
X126033500Y-100521500D01*
X126013498Y-100589621D01*
X125959842Y-100636114D01*
X125907500Y-100647500D01*
X123245511Y-100647500D01*
X123177390Y-100627498D01*
X123139719Y-100589940D01*
X123052822Y-100455617D01*
X123052820Y-100455614D01*
X123050014Y-100451277D01*
X122899670Y-100286051D01*
X122895619Y-100282852D01*
X122895615Y-100282848D01*
X122728414Y-100150800D01*
X122728410Y-100150798D01*
X122724359Y-100147598D01*
X122683053Y-100124796D01*
X122633084Y-100074364D01*
X122618312Y-100004921D01*
X122643428Y-99938516D01*
X122670780Y-99911909D01*
X122784715Y-99830640D01*
X122849860Y-99784173D01*
X122877518Y-99756612D01*
X123004435Y-99630137D01*
X123008096Y-99626489D01*
X123030960Y-99594671D01*
X123135435Y-99449277D01*
X123138453Y-99445077D01*
X123152816Y-99416017D01*
X123235136Y-99249453D01*
X123235137Y-99249451D01*
X123237430Y-99244811D01*
X123276371Y-99116642D01*
X123300865Y-99036023D01*
X123300865Y-99036021D01*
X123302370Y-99031069D01*
X123331529Y-98809590D01*
X123331611Y-98806240D01*
X123333074Y-98746365D01*
X123333074Y-98746361D01*
X123333156Y-98743000D01*
X123314852Y-98520361D01*
X123260431Y-98303702D01*
X123171354Y-98098840D01*
X123105577Y-97997164D01*
X123052822Y-97915617D01*
X123052820Y-97915614D01*
X123050014Y-97911277D01*
X123036896Y-97896860D01*
X122902798Y-97749488D01*
X122871746Y-97685642D01*
X122880141Y-97615143D01*
X122925317Y-97560375D01*
X122951761Y-97546706D01*
X123058297Y-97506767D01*
X123066705Y-97503615D01*
X123183261Y-97416261D01*
X123270615Y-97299705D01*
X123321745Y-97163316D01*
X123328500Y-97101134D01*
X123328500Y-95304866D01*
X123321745Y-95242684D01*
X123270615Y-95106295D01*
X123183261Y-94989739D01*
X123066705Y-94902385D01*
X122930316Y-94851255D01*
X122868134Y-94844500D01*
X121071866Y-94844500D01*
X121009684Y-94851255D01*
X120873295Y-94902385D01*
X120756739Y-94989739D01*
X120669385Y-95106295D01*
X120618255Y-95242684D01*
X120611500Y-95304866D01*
X120611500Y-97101134D01*
X120618255Y-97163316D01*
X120669385Y-97299705D01*
X120756739Y-97416261D01*
X120873295Y-97503615D01*
X120881704Y-97506767D01*
X120881705Y-97506768D01*
X120990451Y-97547535D01*
X121047216Y-97590176D01*
X121071916Y-97656738D01*
X121056709Y-97726087D01*
X121037316Y-97752568D01*
X120917550Y-97877896D01*
X120910629Y-97885138D01*
X120907715Y-97889410D01*
X120907714Y-97889411D01*
X120879434Y-97930868D01*
X120784743Y-98069680D01*
X120752407Y-98139342D01*
X120693414Y-98266433D01*
X120690688Y-98272305D01*
X120630989Y-98487570D01*
X120607251Y-98709695D01*
X120607548Y-98714853D01*
X120607422Y-98720024D01*
X120605893Y-98719987D01*
X120591408Y-98782411D01*
X120540517Y-98831915D01*
X120470941Y-98846047D01*
X120404770Y-98820319D01*
X120395412Y-98812354D01*
X120379286Y-98797210D01*
X120379282Y-98797207D01*
X120373506Y-98791783D01*
X120355669Y-98781977D01*
X120339153Y-98771127D01*
X120323067Y-98758650D01*
X120282334Y-98741024D01*
X120271686Y-98735807D01*
X120260058Y-98729415D01*
X120232803Y-98714431D01*
X120225128Y-98712460D01*
X120225122Y-98712458D01*
X120213089Y-98709369D01*
X120194387Y-98702966D01*
X120175708Y-98694883D01*
X120133028Y-98688123D01*
X120131873Y-98687940D01*
X120120260Y-98685535D01*
X120077282Y-98674500D01*
X120056935Y-98674500D01*
X120037224Y-98672949D01*
X120024950Y-98671005D01*
X120017121Y-98669765D01*
X120009229Y-98670511D01*
X119972944Y-98673941D01*
X119961086Y-98674500D01*
X117143500Y-98674500D01*
X117075379Y-98654498D01*
X117028886Y-98600842D01*
X117017500Y-98548500D01*
X117017500Y-98065032D01*
X117018030Y-98053793D01*
X117019709Y-98046281D01*
X117017562Y-97977969D01*
X117017500Y-97974012D01*
X117017500Y-97946017D01*
X117016992Y-97941994D01*
X117016059Y-97930152D01*
X117015972Y-97927366D01*
X117014665Y-97885795D01*
X117008987Y-97866251D01*
X117004977Y-97846888D01*
X117003420Y-97834560D01*
X117003420Y-97834558D01*
X117002427Y-97826701D01*
X116999511Y-97819337D01*
X116999510Y-97819332D01*
X116986093Y-97785444D01*
X116982248Y-97774215D01*
X116975921Y-97752438D01*
X116969869Y-97731607D01*
X116965830Y-97724777D01*
X116959512Y-97714094D01*
X116950812Y-97696336D01*
X116946239Y-97684785D01*
X116946235Y-97684779D01*
X116943319Y-97677412D01*
X116917234Y-97641509D01*
X116910719Y-97631590D01*
X116892174Y-97600232D01*
X116892171Y-97600228D01*
X116888134Y-97593402D01*
X116873750Y-97579018D01*
X116860909Y-97563984D01*
X116853602Y-97553927D01*
X116848942Y-97547513D01*
X116814750Y-97519227D01*
X116805969Y-97511237D01*
X116214245Y-96919512D01*
X116206675Y-96911193D01*
X116202553Y-96904697D01*
X116196357Y-96898878D01*
X116152735Y-96857915D01*
X116149893Y-96855160D01*
X116142744Y-96848011D01*
X116108718Y-96785699D01*
X116113783Y-96714884D01*
X116129515Y-96685391D01*
X116150436Y-96656275D01*
X116153453Y-96652077D01*
X116156598Y-96645715D01*
X116250136Y-96456453D01*
X116250137Y-96456451D01*
X116252430Y-96451811D01*
X116317370Y-96238069D01*
X116346529Y-96016590D01*
X116346676Y-96010591D01*
X116348074Y-95953365D01*
X116348074Y-95953361D01*
X116348156Y-95950000D01*
X116329852Y-95727361D01*
X116275431Y-95510702D01*
X116186354Y-95305840D01*
X116131170Y-95220539D01*
X116067822Y-95122617D01*
X116067820Y-95122614D01*
X116065014Y-95118277D01*
X115914670Y-94953051D01*
X115910619Y-94949852D01*
X115910615Y-94949848D01*
X115743414Y-94817800D01*
X115743410Y-94817798D01*
X115739359Y-94814598D01*
X115729161Y-94808968D01*
X115663562Y-94772756D01*
X115543789Y-94706638D01*
X115538920Y-94704914D01*
X115538916Y-94704912D01*
X115338087Y-94633795D01*
X115338083Y-94633794D01*
X115333212Y-94632069D01*
X115328119Y-94631162D01*
X115328116Y-94631161D01*
X115118373Y-94593800D01*
X115118367Y-94593799D01*
X115113284Y-94592894D01*
X115039452Y-94591992D01*
X114895081Y-94590228D01*
X114895079Y-94590228D01*
X114889911Y-94590165D01*
X114669091Y-94623955D01*
X114456756Y-94693357D01*
X114382748Y-94731883D01*
X114336678Y-94755866D01*
X114258607Y-94796507D01*
X114254474Y-94799610D01*
X114254471Y-94799612D01*
X114105377Y-94911555D01*
X114079965Y-94930635D01*
X113950967Y-95065624D01*
X113946027Y-95070793D01*
X113884503Y-95106223D01*
X113813590Y-95102766D01*
X113755804Y-95061520D01*
X113740833Y-95037194D01*
X113738865Y-95032994D01*
X113736550Y-95026054D01*
X113643478Y-94875652D01*
X113518303Y-94750695D01*
X113512072Y-94746854D01*
X113373968Y-94661725D01*
X113373966Y-94661724D01*
X113367738Y-94657885D01*
X113259858Y-94622103D01*
X113206389Y-94604368D01*
X113206387Y-94604368D01*
X113199861Y-94602203D01*
X113193025Y-94601503D01*
X113193022Y-94601502D01*
X113149969Y-94597091D01*
X113095400Y-94591500D01*
X111794600Y-94591500D01*
X111791354Y-94591837D01*
X111791350Y-94591837D01*
X111695692Y-94601762D01*
X111695688Y-94601763D01*
X111688834Y-94602474D01*
X111682298Y-94604655D01*
X111682296Y-94604655D01*
X111602849Y-94631161D01*
X111521054Y-94658450D01*
X111370652Y-94751522D01*
X111365479Y-94756704D01*
X111309353Y-94812928D01*
X111245695Y-94876697D01*
X111241855Y-94882927D01*
X111241854Y-94882928D01*
X111157466Y-95019831D01*
X111152885Y-95027262D01*
X111131367Y-95092138D01*
X111100908Y-95183970D01*
X111097203Y-95195139D01*
X111096503Y-95201975D01*
X111096502Y-95201978D01*
X111094030Y-95226106D01*
X111086500Y-95299600D01*
X111086500Y-95722577D01*
X111066498Y-95790698D01*
X111049595Y-95811672D01*
X110239517Y-96621750D01*
X110231191Y-96629326D01*
X110224697Y-96633447D01*
X110219274Y-96639222D01*
X110177915Y-96683265D01*
X110175160Y-96686107D01*
X110155361Y-96705906D01*
X110152937Y-96709031D01*
X110152929Y-96709040D01*
X110152863Y-96709126D01*
X110145155Y-96718151D01*
X110114783Y-96750494D01*
X110105096Y-96768115D01*
X110104978Y-96768329D01*
X110094127Y-96784847D01*
X110081650Y-96800933D01*
X110064024Y-96841666D01*
X110058807Y-96852314D01*
X110056465Y-96856574D01*
X110037431Y-96891197D01*
X110035460Y-96898872D01*
X110035458Y-96898878D01*
X110032369Y-96910911D01*
X110025966Y-96929613D01*
X110017883Y-96948292D01*
X110016644Y-96956117D01*
X110010940Y-96992127D01*
X110008535Y-97003740D01*
X109997500Y-97046718D01*
X109997500Y-97067065D01*
X109995949Y-97086776D01*
X109992765Y-97106879D01*
X109993511Y-97114771D01*
X109996941Y-97151056D01*
X109997500Y-97162914D01*
X109997500Y-98898510D01*
X109996970Y-98909744D01*
X109995292Y-98917249D01*
X109995541Y-98925168D01*
X109997438Y-98985542D01*
X109997500Y-98989499D01*
X109997500Y-99017513D01*
X109997996Y-99021438D01*
X109997996Y-99021439D01*
X109998008Y-99021534D01*
X109998941Y-99033379D01*
X110000335Y-99077735D01*
X110002547Y-99085347D01*
X110006013Y-99097278D01*
X110010023Y-99116642D01*
X110012573Y-99136829D01*
X110015489Y-99144193D01*
X110015490Y-99144198D01*
X110028907Y-99178086D01*
X110032752Y-99189315D01*
X110045131Y-99231923D01*
X110049169Y-99238750D01*
X110049170Y-99238753D01*
X110055488Y-99249436D01*
X110064188Y-99267194D01*
X110068761Y-99278745D01*
X110068765Y-99278751D01*
X110071681Y-99286118D01*
X110076339Y-99292529D01*
X110076340Y-99292531D01*
X110097764Y-99322018D01*
X110104281Y-99331940D01*
X110122826Y-99363298D01*
X110122829Y-99363302D01*
X110126866Y-99370128D01*
X110141250Y-99384512D01*
X110154091Y-99399546D01*
X110166058Y-99416017D01*
X110195578Y-99440438D01*
X110200250Y-99444303D01*
X110209031Y-99452293D01*
X110914225Y-100157488D01*
X110921795Y-100165807D01*
X110925917Y-100172303D01*
X110931695Y-100177729D01*
X110931696Y-100177730D01*
X110975735Y-100219085D01*
X110978577Y-100221840D01*
X110998376Y-100241639D01*
X111001507Y-100244068D01*
X111001512Y-100244072D01*
X111001598Y-100244139D01*
X111010623Y-100251847D01*
X111024293Y-100264684D01*
X111042964Y-100282217D01*
X111049909Y-100286035D01*
X111049913Y-100286038D01*
X111060804Y-100292026D01*
X111077325Y-100302878D01*
X111087141Y-100310492D01*
X111093404Y-100315350D01*
X111112167Y-100323469D01*
X111129189Y-100330835D01*
X111183764Y-100376246D01*
X111205125Y-100443953D01*
X111193438Y-100499523D01*
X111165688Y-100559305D01*
X111105989Y-100774570D01*
X111082251Y-100996695D01*
X111082548Y-101001848D01*
X111082548Y-101001851D01*
X111092810Y-101179825D01*
X111095110Y-101219715D01*
X111096247Y-101224761D01*
X111096248Y-101224767D01*
X111108627Y-101279694D01*
X111144222Y-101437639D01*
X111184833Y-101537653D01*
X111224800Y-101636079D01*
X111228266Y-101644616D01*
X111266177Y-101706482D01*
X111342291Y-101830688D01*
X111344987Y-101835088D01*
X111491250Y-102003938D01*
X111663126Y-102146632D01*
X111716057Y-102177562D01*
X111736445Y-102189476D01*
X111785169Y-102241114D01*
X111798240Y-102310897D01*
X111771509Y-102376669D01*
X111731055Y-102410027D01*
X111718607Y-102416507D01*
X111714474Y-102419610D01*
X111714471Y-102419612D01*
X111544100Y-102547530D01*
X111539965Y-102550635D01*
X111521097Y-102570379D01*
X111423604Y-102672400D01*
X111385629Y-102712138D01*
X111382720Y-102716403D01*
X111382714Y-102716411D01*
X111356452Y-102754910D01*
X111259743Y-102896680D01*
X111227376Y-102966410D01*
X111171510Y-103086763D01*
X111165688Y-103099305D01*
X111105989Y-103314570D01*
X111082251Y-103536695D01*
X111082548Y-103541848D01*
X111082548Y-103541851D01*
X111088011Y-103636590D01*
X111095110Y-103759715D01*
X111096247Y-103764761D01*
X111096248Y-103764767D01*
X111110130Y-103826365D01*
X111144222Y-103977639D01*
X111205673Y-104128976D01*
X111211952Y-104144438D01*
X111228266Y-104184616D01*
X111268808Y-104250775D01*
X111342291Y-104370688D01*
X111344987Y-104375088D01*
X111491250Y-104543938D01*
X111663126Y-104686632D01*
X111701269Y-104708921D01*
X111736955Y-104729774D01*
X111785679Y-104781412D01*
X111798750Y-104851195D01*
X111772019Y-104916967D01*
X111731562Y-104950327D01*
X111723460Y-104954544D01*
X111714734Y-104960039D01*
X111694677Y-104975099D01*
X111686223Y-104986427D01*
X111692968Y-104998758D01*
X112432188Y-105737978D01*
X112446132Y-105745592D01*
X112447965Y-105745461D01*
X112454580Y-105741210D01*
X113198389Y-104997401D01*
X113205410Y-104984544D01*
X113198611Y-104975213D01*
X113194559Y-104972521D01*
X113157602Y-104952120D01*
X113107631Y-104901687D01*
X113092859Y-104832245D01*
X113117975Y-104765839D01*
X113145327Y-104739232D01*
X113186117Y-104710137D01*
X113324860Y-104611173D01*
X113483096Y-104453489D01*
X113515951Y-104407767D01*
X113613453Y-104272077D01*
X113614776Y-104273028D01*
X113661645Y-104229857D01*
X113731580Y-104217625D01*
X113797026Y-104245144D01*
X113824875Y-104276994D01*
X113840852Y-104303066D01*
X113884987Y-104375088D01*
X114031250Y-104543938D01*
X114203126Y-104686632D01*
X114241269Y-104708921D01*
X114276445Y-104729476D01*
X114325169Y-104781114D01*
X114338240Y-104850897D01*
X114311509Y-104916669D01*
X114271055Y-104950027D01*
X114258607Y-104956507D01*
X114254474Y-104959610D01*
X114254471Y-104959612D01*
X114093161Y-105080727D01*
X114079965Y-105090635D01*
X114076393Y-105094373D01*
X113932206Y-105245256D01*
X113925629Y-105252138D01*
X113852693Y-105359059D01*
X113817898Y-105410066D01*
X113762987Y-105455069D01*
X113692462Y-105463240D01*
X113628715Y-105431986D01*
X113608017Y-105407501D01*
X113578062Y-105361197D01*
X113567377Y-105351995D01*
X113557812Y-105356398D01*
X111691737Y-107222473D01*
X111684977Y-107234853D01*
X111690258Y-107241907D01*
X111736969Y-107269203D01*
X111785693Y-107320841D01*
X111798764Y-107390624D01*
X111772033Y-107456396D01*
X111731584Y-107489752D01*
X111718607Y-107496507D01*
X111714474Y-107499610D01*
X111714471Y-107499612D01*
X111575491Y-107603961D01*
X111539965Y-107630635D01*
X111489164Y-107683795D01*
X111395931Y-107781358D01*
X111385629Y-107792138D01*
X111259743Y-107976680D01*
X111234140Y-108031838D01*
X111180961Y-108146403D01*
X111165688Y-108179305D01*
X111105989Y-108394570D01*
X111082251Y-108616695D01*
X111082548Y-108621848D01*
X111082548Y-108621851D01*
X111088011Y-108716590D01*
X111095110Y-108839715D01*
X111096247Y-108844761D01*
X111096248Y-108844767D01*
X111101866Y-108869695D01*
X111144222Y-109057639D01*
X111202899Y-109202144D01*
X111211952Y-109224438D01*
X111228266Y-109264616D01*
X111266917Y-109327689D01*
X111342291Y-109450688D01*
X111344987Y-109455088D01*
X111491250Y-109623938D01*
X111663126Y-109766632D01*
X111703350Y-109790137D01*
X111736955Y-109809774D01*
X111785679Y-109861412D01*
X111798750Y-109931195D01*
X111772019Y-109996967D01*
X111731562Y-110030327D01*
X111723460Y-110034544D01*
X111714734Y-110040039D01*
X111694677Y-110055099D01*
X111686223Y-110066427D01*
X111692968Y-110078758D01*
X112432188Y-110817978D01*
X112446132Y-110825592D01*
X112447965Y-110825461D01*
X112454580Y-110821210D01*
X113198389Y-110077401D01*
X113205410Y-110064544D01*
X113198611Y-110055213D01*
X113194559Y-110052521D01*
X113157602Y-110032120D01*
X113107631Y-109981687D01*
X113092859Y-109912245D01*
X113117975Y-109845839D01*
X113145327Y-109819232D01*
X113199083Y-109780888D01*
X113324860Y-109691173D01*
X113350516Y-109665607D01*
X113445748Y-109570707D01*
X113483096Y-109533489D01*
X113502850Y-109505999D01*
X113613453Y-109352077D01*
X113614776Y-109353028D01*
X113661645Y-109309857D01*
X113731580Y-109297625D01*
X113797026Y-109325144D01*
X113824875Y-109356994D01*
X113884987Y-109455088D01*
X114031250Y-109623938D01*
X114203126Y-109766632D01*
X114243350Y-109790137D01*
X114276445Y-109809476D01*
X114325169Y-109861114D01*
X114338240Y-109930897D01*
X114311509Y-109996669D01*
X114271055Y-110030027D01*
X114258607Y-110036507D01*
X114254474Y-110039610D01*
X114254471Y-110039612D01*
X114084100Y-110167530D01*
X114079965Y-110170635D01*
X114076393Y-110174373D01*
X113947712Y-110309030D01*
X113925629Y-110332138D01*
X113922715Y-110336410D01*
X113922714Y-110336411D01*
X113905556Y-110361564D01*
X113852693Y-110439059D01*
X113817898Y-110490066D01*
X113762987Y-110535069D01*
X113692462Y-110543240D01*
X113628715Y-110511986D01*
X113608017Y-110487501D01*
X113578062Y-110441197D01*
X113567377Y-110431995D01*
X113557812Y-110436398D01*
X112817022Y-111177188D01*
X112809408Y-111191132D01*
X112809539Y-111192965D01*
X112813790Y-111199580D01*
X113555474Y-111941264D01*
X113567484Y-111947823D01*
X113579223Y-111938855D01*
X113613022Y-111891819D01*
X113614277Y-111892721D01*
X113661391Y-111849355D01*
X113731330Y-111837148D01*
X113796767Y-111864691D01*
X113824580Y-111896513D01*
X113882287Y-111990683D01*
X113882291Y-111990688D01*
X113884987Y-111995088D01*
X114031250Y-112163938D01*
X114203126Y-112306632D01*
X114396000Y-112419338D01*
X114604692Y-112499030D01*
X114609760Y-112500061D01*
X114609763Y-112500062D01*
X114714604Y-112521392D01*
X114823597Y-112543567D01*
X114828772Y-112543757D01*
X114828774Y-112543757D01*
X114912127Y-112546813D01*
X115044118Y-112551653D01*
X115111459Y-112574137D01*
X115155955Y-112629461D01*
X115165500Y-112677568D01*
X115165500Y-118788980D01*
X115164970Y-118800214D01*
X115163292Y-118807719D01*
X115163541Y-118815638D01*
X115165438Y-118876012D01*
X115165500Y-118879969D01*
X115165500Y-118907983D01*
X115165996Y-118911908D01*
X115165996Y-118911909D01*
X115166008Y-118912004D01*
X115166941Y-118923849D01*
X115168335Y-118968205D01*
X115170547Y-118975817D01*
X115174013Y-118987748D01*
X115178023Y-119007112D01*
X115180573Y-119027299D01*
X115183489Y-119034663D01*
X115183490Y-119034668D01*
X115196907Y-119068556D01*
X115200752Y-119079785D01*
X115213131Y-119122393D01*
X115217169Y-119129220D01*
X115217170Y-119129223D01*
X115223488Y-119139906D01*
X115232188Y-119157664D01*
X115236761Y-119169215D01*
X115236765Y-119169221D01*
X115239681Y-119176588D01*
X115244339Y-119182999D01*
X115244340Y-119183001D01*
X115251568Y-119192949D01*
X115262460Y-119207940D01*
X115265764Y-119212488D01*
X115272281Y-119222410D01*
X115290826Y-119253768D01*
X115290829Y-119253772D01*
X115294866Y-119260598D01*
X115309250Y-119274982D01*
X115322091Y-119290016D01*
X115334058Y-119306487D01*
X115340166Y-119311540D01*
X115368255Y-119334777D01*
X115377035Y-119342767D01*
X116711745Y-120677477D01*
X116719322Y-120685803D01*
X116723447Y-120692303D01*
X116729225Y-120697729D01*
X116729226Y-120697730D01*
X116773281Y-120739100D01*
X116776123Y-120741855D01*
X116795906Y-120761638D01*
X116799114Y-120764126D01*
X116808143Y-120771837D01*
X116840494Y-120802217D01*
X116847443Y-120806037D01*
X116858329Y-120812022D01*
X116874853Y-120822876D01*
X116890933Y-120835349D01*
X116898210Y-120838498D01*
X116931650Y-120852969D01*
X116942311Y-120858192D01*
X116974247Y-120875749D01*
X116974252Y-120875751D01*
X116981197Y-120879569D01*
X116988871Y-120881539D01*
X116988878Y-120881542D01*
X117000913Y-120884632D01*
X117019618Y-120891036D01*
X117031013Y-120895967D01*
X117038292Y-120899117D01*
X117065342Y-120903401D01*
X117082127Y-120906060D01*
X117093740Y-120908465D01*
X117136718Y-120919500D01*
X117157065Y-120919500D01*
X117176777Y-120921051D01*
X117196879Y-120924235D01*
X117204771Y-120923489D01*
X117241056Y-120920059D01*
X117252914Y-120919500D01*
X121755500Y-120919500D01*
X121823621Y-120939502D01*
X121870114Y-120993158D01*
X121881500Y-121045500D01*
X121881500Y-121998134D01*
X121888255Y-122060316D01*
X121939385Y-122196705D01*
X121956276Y-122219242D01*
X122009257Y-122289935D01*
X122034105Y-122356441D01*
X122019052Y-122425824D01*
X121968878Y-122476054D01*
X121908431Y-122491500D01*
X108634500Y-122491500D01*
X108566379Y-122471498D01*
X108519886Y-122417842D01*
X108508500Y-122365500D01*
X108508500Y-112314853D01*
X111684977Y-112314853D01*
X111690258Y-112321907D01*
X111851756Y-112416279D01*
X111861042Y-112420729D01*
X112060001Y-112496703D01*
X112069899Y-112499579D01*
X112278595Y-112542038D01*
X112288823Y-112543257D01*
X112501650Y-112551062D01*
X112511936Y-112550595D01*
X112723185Y-112523534D01*
X112733262Y-112521392D01*
X112937255Y-112460191D01*
X112946842Y-112456433D01*
X113138098Y-112362738D01*
X113146944Y-112357465D01*
X113194247Y-112323723D01*
X113202648Y-112313023D01*
X113195660Y-112299870D01*
X112457812Y-111562022D01*
X112443868Y-111554408D01*
X112442035Y-111554539D01*
X112435420Y-111558790D01*
X111691737Y-112302473D01*
X111684977Y-112314853D01*
X108508500Y-112314853D01*
X108508500Y-111161863D01*
X111083050Y-111161863D01*
X111095309Y-111374477D01*
X111096745Y-111384697D01*
X111143565Y-111592446D01*
X111146645Y-111602275D01*
X111226770Y-111799603D01*
X111231413Y-111808794D01*
X111311460Y-111939420D01*
X111321916Y-111948880D01*
X111330694Y-111945096D01*
X112072978Y-111202812D01*
X112080592Y-111188868D01*
X112080461Y-111187035D01*
X112076210Y-111180420D01*
X111334849Y-110439059D01*
X111323313Y-110432759D01*
X111311031Y-110442382D01*
X111263089Y-110512662D01*
X111258004Y-110521613D01*
X111168338Y-110714783D01*
X111164775Y-110724470D01*
X111107864Y-110929681D01*
X111105933Y-110939800D01*
X111083302Y-111151574D01*
X111083050Y-111161863D01*
X108508500Y-111161863D01*
X108508500Y-106081863D01*
X111083050Y-106081863D01*
X111095309Y-106294477D01*
X111096745Y-106304697D01*
X111143565Y-106512446D01*
X111146645Y-106522275D01*
X111226770Y-106719603D01*
X111231413Y-106728794D01*
X111311460Y-106859420D01*
X111321916Y-106868880D01*
X111330694Y-106865096D01*
X112072978Y-106122812D01*
X112080592Y-106108868D01*
X112080461Y-106107035D01*
X112076210Y-106100420D01*
X111334849Y-105359059D01*
X111323313Y-105352759D01*
X111311031Y-105362382D01*
X111263089Y-105432662D01*
X111258004Y-105441613D01*
X111168338Y-105634783D01*
X111164775Y-105644470D01*
X111107864Y-105849681D01*
X111105933Y-105859800D01*
X111083302Y-106071574D01*
X111083050Y-106081863D01*
X108508500Y-106081863D01*
X108508500Y-88078134D01*
X110941500Y-88078134D01*
X110948255Y-88140316D01*
X110999385Y-88276705D01*
X111086739Y-88393261D01*
X111203295Y-88480615D01*
X111339684Y-88531745D01*
X111401866Y-88538500D01*
X113198134Y-88538500D01*
X113260316Y-88531745D01*
X113396705Y-88480615D01*
X113513261Y-88393261D01*
X113600615Y-88276705D01*
X113622799Y-88217529D01*
X113644598Y-88159382D01*
X113687240Y-88102618D01*
X113753802Y-88077918D01*
X113823150Y-88093126D01*
X113857817Y-88121114D01*
X113886250Y-88153938D01*
X114058126Y-88296632D01*
X114251000Y-88409338D01*
X114459692Y-88489030D01*
X114464760Y-88490061D01*
X114464763Y-88490062D01*
X114537061Y-88504771D01*
X114678597Y-88533567D01*
X114683772Y-88533757D01*
X114683774Y-88533757D01*
X114896673Y-88541564D01*
X114896677Y-88541564D01*
X114901837Y-88541753D01*
X114906957Y-88541097D01*
X114906959Y-88541097D01*
X115118288Y-88514025D01*
X115118289Y-88514025D01*
X115123416Y-88513368D01*
X115152071Y-88504771D01*
X115332429Y-88450661D01*
X115332434Y-88450659D01*
X115337384Y-88449174D01*
X115537994Y-88350896D01*
X115719860Y-88221173D01*
X115878096Y-88063489D01*
X116008453Y-87882077D01*
X116009776Y-87883028D01*
X116056645Y-87839857D01*
X116126580Y-87827625D01*
X116192026Y-87855144D01*
X116219875Y-87886994D01*
X116279987Y-87985088D01*
X116426250Y-88153938D01*
X116598126Y-88296632D01*
X116791000Y-88409338D01*
X116999692Y-88489030D01*
X117004760Y-88490061D01*
X117004763Y-88490062D01*
X117077061Y-88504771D01*
X117218597Y-88533567D01*
X117223772Y-88533757D01*
X117223774Y-88533757D01*
X117436673Y-88541564D01*
X117436677Y-88541564D01*
X117441837Y-88541753D01*
X117446957Y-88541097D01*
X117446959Y-88541097D01*
X117658288Y-88514025D01*
X117658289Y-88514025D01*
X117663416Y-88513368D01*
X117692071Y-88504771D01*
X117872429Y-88450661D01*
X117872434Y-88450659D01*
X117877384Y-88449174D01*
X118077994Y-88350896D01*
X118259860Y-88221173D01*
X118418096Y-88063489D01*
X118548453Y-87882077D01*
X118569320Y-87839857D01*
X118645136Y-87686453D01*
X118645137Y-87686451D01*
X118647430Y-87681811D01*
X118708117Y-87482067D01*
X118710865Y-87473023D01*
X118710865Y-87473021D01*
X118712370Y-87468069D01*
X118741529Y-87246590D01*
X118741611Y-87243240D01*
X118743074Y-87183365D01*
X118743074Y-87183361D01*
X118743156Y-87180000D01*
X118724852Y-86957361D01*
X118670431Y-86740702D01*
X118581354Y-86535840D01*
X118487716Y-86391097D01*
X118462822Y-86352617D01*
X118462820Y-86352614D01*
X118460014Y-86348277D01*
X118309670Y-86183051D01*
X118305619Y-86179852D01*
X118305615Y-86179848D01*
X118138414Y-86047800D01*
X118138410Y-86047798D01*
X118134359Y-86044598D01*
X117938789Y-85936638D01*
X117933920Y-85934914D01*
X117933916Y-85934912D01*
X117733087Y-85863795D01*
X117733083Y-85863794D01*
X117728212Y-85862069D01*
X117723119Y-85861162D01*
X117723116Y-85861161D01*
X117513373Y-85823800D01*
X117513367Y-85823799D01*
X117508284Y-85822894D01*
X117434452Y-85821992D01*
X117290081Y-85820228D01*
X117290079Y-85820228D01*
X117284911Y-85820165D01*
X117064091Y-85853955D01*
X116851756Y-85923357D01*
X116821443Y-85939137D01*
X116690619Y-86007240D01*
X116653607Y-86026507D01*
X116649474Y-86029610D01*
X116649471Y-86029612D01*
X116498017Y-86143327D01*
X116474965Y-86160635D01*
X116471393Y-86164373D01*
X116363729Y-86277037D01*
X116320629Y-86322138D01*
X116213201Y-86479621D01*
X116158293Y-86524621D01*
X116087768Y-86532792D01*
X116024021Y-86501538D01*
X116003324Y-86477054D01*
X115922822Y-86352617D01*
X115922820Y-86352614D01*
X115920014Y-86348277D01*
X115769670Y-86183051D01*
X115765619Y-86179852D01*
X115765615Y-86179848D01*
X115598414Y-86047800D01*
X115598410Y-86047798D01*
X115594359Y-86044598D01*
X115398789Y-85936638D01*
X115393920Y-85934914D01*
X115393916Y-85934912D01*
X115193087Y-85863795D01*
X115193083Y-85863794D01*
X115188212Y-85862069D01*
X115183119Y-85861162D01*
X115183116Y-85861161D01*
X114973373Y-85823800D01*
X114973367Y-85823799D01*
X114968284Y-85822894D01*
X114894452Y-85821992D01*
X114750081Y-85820228D01*
X114750079Y-85820228D01*
X114744911Y-85820165D01*
X114524091Y-85853955D01*
X114311756Y-85923357D01*
X114281443Y-85939137D01*
X114150619Y-86007240D01*
X114113607Y-86026507D01*
X114109474Y-86029610D01*
X114109471Y-86029612D01*
X113958017Y-86143327D01*
X113934965Y-86160635D01*
X113858058Y-86241114D01*
X113854283Y-86245064D01*
X113792759Y-86280494D01*
X113721846Y-86277037D01*
X113664060Y-86235791D01*
X113645207Y-86202243D01*
X113603767Y-86091703D01*
X113600615Y-86083295D01*
X113513261Y-85966739D01*
X113396705Y-85879385D01*
X113260316Y-85828255D01*
X113198134Y-85821500D01*
X111401866Y-85821500D01*
X111339684Y-85828255D01*
X111203295Y-85879385D01*
X111086739Y-85966739D01*
X110999385Y-86083295D01*
X110948255Y-86219684D01*
X110941500Y-86281866D01*
X110941500Y-88078134D01*
X108508500Y-88078134D01*
X108508500Y-83634500D01*
X108528502Y-83566379D01*
X108582158Y-83519886D01*
X108634500Y-83508500D01*
X129679803Y-83508500D01*
X129747924Y-83528502D01*
G37*
G04 #@! TD.AperFunction*
G04 #@! TA.AperFunction,Conductor*
G36*
X137407895Y-116041985D02*
G01*
X137452397Y-116070735D01*
X138807590Y-117425928D01*
X138819977Y-117440341D01*
X138832946Y-117457964D01*
X138838529Y-117462707D01*
X138873455Y-117492379D01*
X138880971Y-117499309D01*
X138886715Y-117505053D01*
X138889589Y-117507327D01*
X138889596Y-117507333D01*
X138909111Y-117522772D01*
X138912515Y-117525563D01*
X138962872Y-117568345D01*
X138962876Y-117568348D01*
X138968451Y-117573084D01*
X138974968Y-117576412D01*
X138980032Y-117579789D01*
X138985256Y-117583016D01*
X138991000Y-117587560D01*
X139057504Y-117618642D01*
X139061401Y-117620547D01*
X139126804Y-117653943D01*
X139133918Y-117655684D01*
X139139652Y-117657816D01*
X139145448Y-117659744D01*
X139152080Y-117662844D01*
X139223955Y-117677794D01*
X139228239Y-117678764D01*
X139299512Y-117696204D01*
X139305114Y-117696552D01*
X139305117Y-117696552D01*
X139310730Y-117696900D01*
X139310728Y-117696937D01*
X139314627Y-117697173D01*
X139318998Y-117697563D01*
X139326157Y-117699052D01*
X139403977Y-117696946D01*
X139407386Y-117696900D01*
X141667972Y-117696900D01*
X141736093Y-117716902D01*
X141757067Y-117733805D01*
X143633590Y-119610328D01*
X143645977Y-119624741D01*
X143658946Y-119642364D01*
X143664529Y-119647107D01*
X143699455Y-119676779D01*
X143706971Y-119683709D01*
X143712715Y-119689453D01*
X143715589Y-119691727D01*
X143715596Y-119691733D01*
X143735111Y-119707172D01*
X143738515Y-119709963D01*
X143788872Y-119752745D01*
X143788876Y-119752748D01*
X143794451Y-119757484D01*
X143800968Y-119760812D01*
X143806032Y-119764189D01*
X143811256Y-119767416D01*
X143817000Y-119771960D01*
X143833167Y-119779516D01*
X143883482Y-119803032D01*
X143887433Y-119804963D01*
X143952804Y-119838343D01*
X143959919Y-119840084D01*
X143965665Y-119842221D01*
X143971448Y-119844145D01*
X143978079Y-119847244D01*
X144049957Y-119862194D01*
X144054229Y-119863161D01*
X144125512Y-119880604D01*
X144131111Y-119880951D01*
X144131115Y-119880952D01*
X144136730Y-119881300D01*
X144136728Y-119881339D01*
X144140629Y-119881572D01*
X144144988Y-119881961D01*
X144152156Y-119883452D01*
X144159473Y-119883254D01*
X144229977Y-119881346D01*
X144233386Y-119881300D01*
X144663320Y-119881300D01*
X144731441Y-119901302D01*
X144777934Y-119954958D01*
X144788038Y-120025232D01*
X144781302Y-120051529D01*
X144751029Y-120132282D01*
X144751027Y-120132288D01*
X144748255Y-120139684D01*
X144741500Y-120201866D01*
X144741500Y-121998134D01*
X144748255Y-122060316D01*
X144799385Y-122196705D01*
X144816276Y-122219242D01*
X144869257Y-122289935D01*
X144894105Y-122356441D01*
X144879052Y-122425824D01*
X144828878Y-122476054D01*
X144768431Y-122491500D01*
X141802343Y-122491500D01*
X141734222Y-122471498D01*
X141687729Y-122417842D01*
X141677625Y-122347568D01*
X141707119Y-122282988D01*
X141729175Y-122262921D01*
X141895656Y-122144172D01*
X141895659Y-122144170D01*
X141899860Y-122141173D01*
X142058096Y-121983489D01*
X142188453Y-121802077D01*
X142209320Y-121759857D01*
X142285136Y-121606453D01*
X142285137Y-121606451D01*
X142287430Y-121601811D01*
X142352370Y-121388069D01*
X142381529Y-121166590D01*
X142383156Y-121100000D01*
X142364852Y-120877361D01*
X142310431Y-120660702D01*
X142221354Y-120455840D01*
X142100014Y-120268277D01*
X141949670Y-120103051D01*
X141945619Y-120099852D01*
X141945615Y-120099848D01*
X141778414Y-119967800D01*
X141778410Y-119967798D01*
X141774359Y-119964598D01*
X141578789Y-119856638D01*
X141573920Y-119854914D01*
X141573916Y-119854912D01*
X141373087Y-119783795D01*
X141373083Y-119783794D01*
X141368212Y-119782069D01*
X141363119Y-119781162D01*
X141363116Y-119781161D01*
X141153373Y-119743800D01*
X141153367Y-119743799D01*
X141148284Y-119742894D01*
X141074452Y-119741992D01*
X140930081Y-119740228D01*
X140930079Y-119740228D01*
X140924911Y-119740165D01*
X140704091Y-119773955D01*
X140491756Y-119843357D01*
X140293607Y-119946507D01*
X140289474Y-119949610D01*
X140289471Y-119949612D01*
X140119100Y-120077530D01*
X140114965Y-120080635D01*
X139960629Y-120242138D01*
X139853201Y-120399621D01*
X139798293Y-120444621D01*
X139727768Y-120452792D01*
X139664021Y-120421538D01*
X139643324Y-120397054D01*
X139562822Y-120272617D01*
X139562820Y-120272614D01*
X139560014Y-120268277D01*
X139409670Y-120103051D01*
X139405619Y-120099852D01*
X139405615Y-120099848D01*
X139238414Y-119967800D01*
X139238410Y-119967798D01*
X139234359Y-119964598D01*
X139038789Y-119856638D01*
X139033920Y-119854914D01*
X139033916Y-119854912D01*
X138833087Y-119783795D01*
X138833083Y-119783794D01*
X138828212Y-119782069D01*
X138823119Y-119781162D01*
X138823116Y-119781161D01*
X138613373Y-119743800D01*
X138613367Y-119743799D01*
X138608284Y-119742894D01*
X138534452Y-119741992D01*
X138390081Y-119740228D01*
X138390079Y-119740228D01*
X138384911Y-119740165D01*
X138238048Y-119762638D01*
X138169200Y-119773173D01*
X138169197Y-119773174D01*
X138164091Y-119773955D01*
X138159185Y-119775559D01*
X138159179Y-119775560D01*
X138155113Y-119776890D01*
X138153670Y-119777361D01*
X138082707Y-119779516D01*
X138025426Y-119746694D01*
X137069603Y-118790870D01*
X137035579Y-118728560D01*
X137032700Y-118701777D01*
X137032700Y-116190900D01*
X137052702Y-116122779D01*
X137106358Y-116076286D01*
X137158700Y-116064900D01*
X137203887Y-116064900D01*
X137210340Y-116063528D01*
X137210353Y-116063527D01*
X137337105Y-116036584D01*
X137407895Y-116041985D01*
G37*
G04 #@! TD.AperFunction*
G04 #@! TA.AperFunction,Conductor*
G36*
X119251846Y-100927502D02*
G01*
X119272821Y-100944405D01*
X119319596Y-100991181D01*
X119353621Y-101053494D01*
X119356500Y-101080276D01*
X119356500Y-102532980D01*
X119355970Y-102544214D01*
X119354292Y-102551719D01*
X119356128Y-102610143D01*
X119356438Y-102620012D01*
X119356500Y-102623969D01*
X119356500Y-102651983D01*
X119356996Y-102655908D01*
X119356996Y-102655909D01*
X119357008Y-102656004D01*
X119357941Y-102667849D01*
X119359335Y-102712205D01*
X119361547Y-102719817D01*
X119365013Y-102731748D01*
X119369023Y-102751112D01*
X119371573Y-102771299D01*
X119374489Y-102778663D01*
X119374490Y-102778668D01*
X119387907Y-102812556D01*
X119391752Y-102823785D01*
X119404131Y-102866393D01*
X119408169Y-102873220D01*
X119408170Y-102873223D01*
X119414488Y-102883906D01*
X119423188Y-102901664D01*
X119427761Y-102913215D01*
X119427765Y-102913221D01*
X119430681Y-102920588D01*
X119435339Y-102926999D01*
X119435340Y-102927001D01*
X119456764Y-102956488D01*
X119463281Y-102966410D01*
X119481826Y-102997768D01*
X119481829Y-102997772D01*
X119485866Y-103004598D01*
X119500250Y-103018982D01*
X119513091Y-103034016D01*
X119525058Y-103050487D01*
X119557264Y-103077130D01*
X119559250Y-103078773D01*
X119568031Y-103086763D01*
X119979296Y-103498029D01*
X120013321Y-103560341D01*
X120016200Y-103587124D01*
X120016200Y-104965680D01*
X120015670Y-104976914D01*
X120013992Y-104984419D01*
X120015075Y-105018887D01*
X120016138Y-105052712D01*
X120016200Y-105056669D01*
X120016200Y-105084683D01*
X120016696Y-105088608D01*
X120016696Y-105088609D01*
X120016708Y-105088704D01*
X120017641Y-105100549D01*
X120019035Y-105144905D01*
X120024713Y-105164448D01*
X120028723Y-105183812D01*
X120031273Y-105203999D01*
X120034189Y-105211363D01*
X120034190Y-105211368D01*
X120047607Y-105245256D01*
X120051452Y-105256485D01*
X120063831Y-105299093D01*
X120067869Y-105305920D01*
X120067870Y-105305923D01*
X120074188Y-105316606D01*
X120082888Y-105334364D01*
X120087461Y-105345915D01*
X120087465Y-105345921D01*
X120090381Y-105353288D01*
X120095039Y-105359699D01*
X120095040Y-105359701D01*
X120099654Y-105366051D01*
X120112350Y-105383525D01*
X120116464Y-105389188D01*
X120122981Y-105399110D01*
X120141526Y-105430468D01*
X120141529Y-105430472D01*
X120145566Y-105437298D01*
X120159950Y-105451682D01*
X120172791Y-105466716D01*
X120184758Y-105483187D01*
X120190866Y-105488240D01*
X120218955Y-105511477D01*
X120227735Y-105519467D01*
X120619164Y-105910896D01*
X120653190Y-105973208D01*
X120651486Y-106033662D01*
X120630989Y-106107570D01*
X120630441Y-106112700D01*
X120630440Y-106112704D01*
X120623258Y-106179908D01*
X120607251Y-106329695D01*
X120607548Y-106334848D01*
X120607548Y-106334851D01*
X120616140Y-106483857D01*
X120620110Y-106552715D01*
X120628365Y-106589344D01*
X120623829Y-106660193D01*
X120581708Y-106717345D01*
X120515375Y-106742652D01*
X120485738Y-106741493D01*
X120473502Y-106739555D01*
X120473499Y-106739555D01*
X120465671Y-106738315D01*
X120457779Y-106739061D01*
X120421494Y-106742491D01*
X120409636Y-106743050D01*
X116382525Y-106743050D01*
X116314404Y-106723048D01*
X116267911Y-106669392D01*
X116257807Y-106599118D01*
X116261967Y-106580421D01*
X116315865Y-106403023D01*
X116315865Y-106403021D01*
X116317370Y-106398069D01*
X116346529Y-106176590D01*
X116347480Y-106137671D01*
X116348074Y-106113365D01*
X116348074Y-106113361D01*
X116348156Y-106110000D01*
X116329852Y-105887361D01*
X116275431Y-105670702D01*
X116186354Y-105465840D01*
X116130446Y-105379420D01*
X116067822Y-105282617D01*
X116067820Y-105282614D01*
X116065014Y-105278277D01*
X115914670Y-105113051D01*
X115910619Y-105109852D01*
X115910615Y-105109848D01*
X115743414Y-104977800D01*
X115743410Y-104977798D01*
X115739359Y-104974598D01*
X115698053Y-104951796D01*
X115648084Y-104901364D01*
X115633312Y-104831921D01*
X115658428Y-104765516D01*
X115685780Y-104738909D01*
X115737115Y-104702292D01*
X115864860Y-104611173D01*
X116023096Y-104453489D01*
X116055951Y-104407767D01*
X116150435Y-104276277D01*
X116153453Y-104272077D01*
X116159761Y-104259315D01*
X116250136Y-104076453D01*
X116250137Y-104076451D01*
X116252430Y-104071811D01*
X116291306Y-103943857D01*
X116315865Y-103863023D01*
X116315865Y-103863021D01*
X116317370Y-103858069D01*
X116346529Y-103636590D01*
X116346611Y-103633240D01*
X116348074Y-103573365D01*
X116348074Y-103573361D01*
X116348156Y-103570000D01*
X116329852Y-103347361D01*
X116316904Y-103295811D01*
X116302389Y-103238024D01*
X116305194Y-103167083D01*
X116335498Y-103118234D01*
X116877077Y-102576655D01*
X116885403Y-102569078D01*
X116891903Y-102564953D01*
X116904331Y-102551719D01*
X116938700Y-102515119D01*
X116941455Y-102512277D01*
X116961238Y-102492494D01*
X116963729Y-102489283D01*
X116971438Y-102480256D01*
X116996389Y-102453686D01*
X117001817Y-102447906D01*
X117011622Y-102430071D01*
X117022476Y-102413547D01*
X117030091Y-102403730D01*
X117030092Y-102403729D01*
X117034949Y-102397467D01*
X117052569Y-102356750D01*
X117057792Y-102346089D01*
X117075349Y-102314153D01*
X117075351Y-102314148D01*
X117079169Y-102307203D01*
X117081139Y-102299529D01*
X117081142Y-102299522D01*
X117084232Y-102287487D01*
X117090636Y-102268782D01*
X117095567Y-102257387D01*
X117098717Y-102250108D01*
X117105660Y-102206273D01*
X117108067Y-102194651D01*
X117119100Y-102151682D01*
X117119100Y-102131335D01*
X117120651Y-102111624D01*
X117122595Y-102099350D01*
X117123835Y-102091521D01*
X117119659Y-102047344D01*
X117119100Y-102035486D01*
X117119100Y-101033500D01*
X117139102Y-100965379D01*
X117192758Y-100918886D01*
X117245100Y-100907500D01*
X119183725Y-100907500D01*
X119251846Y-100927502D01*
G37*
G04 #@! TD.AperFunction*
M02*
