<?xml version="1.0" encoding="us-ascii" standalone="no"?><svg xmlns="http://www.w3.org/2000/svg" xmlns:xlink="http://www.w3.org/1999/xlink" contentStyleType="text/css" height="233px" preserveAspectRatio="none" style="width:909px;height:233px;background:#FFFFFF;" version="1.1" viewBox="0 0 909 233" width="909px" zoomAndPan="magnify"><defs/><g><line style="stroke:#333333;stroke-width:0.5;" x1="10" x2="10" y1="10" y2="202.8281"/><line style="stroke:#333333;stroke-width:0.5;" x1="892" x2="892" y1="10" y2="202.8281"/><line style="stroke:#333333;stroke-width:0.5;stroke-dasharray:3.0,5.0;" x1="50" x2="50" y1="10" y2="202.8281"/><line style="stroke:#333333;stroke-width:0.5;stroke-dasharray:3.0,5.0;" x1="104" x2="104" y1="10" y2="202.8281"/><line style="stroke:#333333;stroke-width:0.5;stroke-dasharray:3.0,5.0;" x1="158" x2="158" y1="10" y2="202.8281"/><line style="stroke:#333333;stroke-width:0.5;stroke-dasharray:3.0,5.0;" x1="212" x2="212" y1="10" y2="202.8281"/><line style="stroke:#333333;stroke-width:0.5;stroke-dasharray:3.0,5.0;" x1="266" x2="266" y1="10" y2="202.8281"/><line style="stroke:#333333;stroke-width:0.5;stroke-dasharray:3.0,5.0;" x1="320" x2="320" y1="10" y2="202.8281"/><line style="stroke:#333333;stroke-width:0.5;stroke-dasharray:3.0,5.0;" x1="374" x2="374" y1="10" y2="202.8281"/><line style="stroke:#333333;stroke-width:0.5;stroke-dasharray:3.0,5.0;" x1="428" x2="428" y1="10" y2="202.8281"/><line style="stroke:#333333;stroke-width:0.5;stroke-dasharray:3.0,5.0;" x1="482" x2="482" y1="10" y2="202.8281"/><line style="stroke:#333333;stroke-width:0.5;stroke-dasharray:3.0,5.0;" x1="536" x2="536" y1="10" y2="202.8281"/><line style="stroke:#333333;stroke-width:0.5;stroke-dasharray:3.0,5.0;" x1="590" x2="590" y1="10" y2="202.8281"/><line style="stroke:#333333;stroke-width:0.5;stroke-dasharray:3.0,5.0;" x1="644" x2="644" y1="10" y2="202.8281"/><line style="stroke:#333333;stroke-width:0.5;stroke-dasharray:3.0,5.0;" x1="698" x2="698" y1="10" y2="202.8281"/><line style="stroke:#333333;stroke-width:0.5;stroke-dasharray:3.0,5.0;" x1="752" x2="752" y1="10" y2="202.8281"/><line style="stroke:#333333;stroke-width:0.5;stroke-dasharray:3.0,5.0;" x1="806" x2="806" y1="10" y2="202.8281"/><line style="stroke:#333333;stroke-width:0.5;stroke-dasharray:3.0,5.0;" x1="860" x2="860" y1="10" y2="202.8281"/><line style="stroke:#333333;stroke-width:0.5;" x1="10" x2="892" y1="10" y2="10"/><text fill="#333333" font-family="sans-serif" font-size="14" font-weight="bold" lengthAdjust="spacing" textLength="35" x="15" y="24.5332">State</text><line style="stroke:#333333;stroke-width:0.5;" x1="10" x2="51" y1="28.6094" y2="28.6094"/><line style="stroke:#333333;stroke-width:0.5;" x1="51" x2="61" y1="28.6094" y2="10"/><polygon fill="#E2E2F0" points="62,33.6094,146,33.6094,158,45.6094,146,57.6094,62,57.6094,50,45.6094" style="stroke:#006400;stroke-width:1.5;"/><polygon fill="#E2E2F0" points="170,33.6094,200,33.6094,212,45.6094,200,57.6094,170,57.6094,158,45.6094" style="stroke:#006400;stroke-width:1.5;"/><polygon fill="#E2E2F0" points="224,33.6094,254,33.6094,266,45.6094,254,57.6094,224,57.6094,212,45.6094" style="stroke:#006400;stroke-width:1.5;"/><polygon fill="#E2E2F0" points="278,33.6094,686,33.6094,698,45.6094,686,57.6094,278,57.6094,266,45.6094" style="stroke:#006400;stroke-width:1.5;"/><polygon fill="#E2E2F0" points="710,33.6094,740,33.6094,752,45.6094,740,57.6094,710,57.6094,698,45.6094" style="stroke:#006400;stroke-width:1.5;"/><polygon fill="#E2E2F0" points="764,33.6094,794,33.6094,806,45.6094,794,57.6094,764,57.6094,752,45.6094" style="stroke:#006400;stroke-width:1.5;"/><polygon fill="#E2E2F0" points="818,33.6094,887,33.6094,887,57.6094,818,57.6094,806,45.6094" style="stroke:#E2E2F0;stroke-width:1.5;"/><path d="M887,33.6094 L818,33.6094 L806,45.6094 L818,57.6094 L887,57.6094 " fill="#E2E2F0" style="stroke:#006400;stroke-width:1.5;"/><text fill="#333333" font-family="sans-serif" font-size="12" font-weight="bold" lengthAdjust="spacing" textLength="20" x="94" y="50.5195">Idle</text><text fill="#333333" font-family="sans-serif" font-size="12" font-weight="bold" lengthAdjust="spacing" textLength="36" x="167" y="50.5195">Select</text><text fill="#333333" font-family="sans-serif" font-size="12" font-weight="bold" lengthAdjust="spacing" textLength="46" x="216" y="50.5195">Capture</text><text fill="#333333" font-family="sans-serif" font-size="12" font-weight="bold" lengthAdjust="spacing" textLength="48" x="458" y="50.5195">Shift-DR</text><text fill="#333333" font-family="sans-serif" font-size="12" font-weight="bold" lengthAdjust="spacing" textLength="29" x="710.5" y="50.5195">Exit1</text><text fill="#333333" font-family="sans-serif" font-size="12" font-weight="bold" lengthAdjust="spacing" textLength="41" x="758.5" y="50.5195">Update</text><text fill="#333333" font-family="sans-serif" font-size="12" font-weight="bold" lengthAdjust="spacing" textLength="20" x="818" y="50.5195">Idle</text><line style="stroke:#333333;stroke-width:0.5;" x1="10" x2="892" y1="67.6094" y2="67.6094"/><text fill="#333333" font-family="sans-serif" font-size="14" font-weight="bold" lengthAdjust="spacing" textLength="30" x="15" y="88.3379">TMS</text><line style="stroke:#006400;stroke-width:2.0;" x1="50" x2="50" y1="89.6094" y2="89.6094"/><line style="stroke:#006400;stroke-width:2.0;" x1="50" x2="131" y1="89.6094" y2="89.6094"/><line style="stroke:#006400;stroke-width:2.0;" x1="131" x2="131" y1="75.6094" y2="89.6094"/><line style="stroke:#006400;stroke-width:2.0;" x1="131" x2="185" y1="75.6094" y2="75.6094"/><line style="stroke:#006400;stroke-width:2.0;" x1="185" x2="185" y1="75.6094" y2="89.6094"/><line style="stroke:#006400;stroke-width:2.0;" x1="185" x2="671" y1="89.6094" y2="89.6094"/><line style="stroke:#006400;stroke-width:2.0;" x1="671" x2="671" y1="75.6094" y2="89.6094"/><line style="stroke:#006400;stroke-width:2.0;" x1="671" x2="779" y1="75.6094" y2="75.6094"/><line style="stroke:#006400;stroke-width:2.0;" x1="779" x2="779" y1="75.6094" y2="89.6094"/><line style="stroke:#006400;stroke-width:2.0;" x1="779" x2="887" y1="89.6094" y2="89.6094"/><line style="stroke:#333333;stroke-width:0.5;" x1="10" x2="892" y1="97.6094" y2="97.6094"/><text fill="#333333" font-family="sans-serif" font-size="14" font-weight="bold" lengthAdjust="spacing" textLength="23" x="15" y="112.1426">TDI</text><line style="stroke:#333333;stroke-width:0.5;" x1="10" x2="39" y1="116.2188" y2="116.2188"/><line style="stroke:#333333;stroke-width:0.5;" x1="39" x2="49" y1="116.2188" y2="97.6094"/><polygon fill="#E2E2F0" points="62,121.2188,146,121.2188,158,133.2188,146,145.2188,62,145.2188,50,133.2188" style="stroke:#006400;stroke-width:1.5;"/><polygon fill="#E2E2F0" points="170,121.2188,281,121.2188,293,133.2188,281,145.2188,170,145.2188,158,133.2188" style="stroke:#006400;stroke-width:1.5;"/><polygon fill="#E2E2F0" points="305,121.2188,335,121.2188,347,133.2188,335,145.2188,305,145.2188,293,133.2188" style="stroke:#006400;stroke-width:1.5;"/><polygon fill="#E2E2F0" points="359,121.2188,389,121.2188,401,133.2188,389,145.2188,359,145.2188,347,133.2188" style="stroke:#006400;stroke-width:1.5;"/><polygon fill="#E2E2F0" points="413,121.2188,443,121.2188,455,133.2188,443,145.2188,413,145.2188,401,133.2188" style="stroke:#006400;stroke-width:1.5;"/><polygon fill="#E2E2F0" points="467,121.2188,497,121.2188,509,133.2188,497,145.2188,467,145.2188,455,133.2188" style="stroke:#006400;stroke-width:1.5;"/><polygon fill="#E2E2F0" points="521,121.2188,551,121.2188,563,133.2188,551,145.2188,521,145.2188,509,133.2188" style="stroke:#006400;stroke-width:1.5;"/><polygon fill="#E2E2F0" points="575,121.2188,605,121.2188,617,133.2188,605,145.2188,575,145.2188,563,133.2188" style="stroke:#006400;stroke-width:1.5;"/><polygon fill="#E2E2F0" points="629,121.2188,659,121.2188,671,133.2188,659,145.2188,629,145.2188,617,133.2188" style="stroke:#006400;stroke-width:1.5;"/><polygon fill="#E2E2F0" points="683,121.2188,713,121.2188,725,133.2188,713,145.2188,683,145.2188,671,133.2188" style="stroke:#006400;stroke-width:1.5;"/><polygon fill="#E2E2F0" points="737,121.2188,794,121.2188,806,133.2188,794,145.2188,737,145.2188,725,133.2188" style="stroke:#006400;stroke-width:1.5;"/><polygon fill="#E2E2F0" points="818,121.2188,887,121.2188,887,145.2188,818,145.2188,806,133.2188" style="stroke:#E2E2F0;stroke-width:1.5;"/><path d="M887,121.2188 L818,121.2188 L806,133.2188 L818,145.2188 L887,145.2188 " fill="#E2E2F0" style="stroke:#006400;stroke-width:1.5;"/><text fill="#333333" font-family="sans-serif" font-size="12" font-weight="bold" lengthAdjust="spacing" textLength="32" x="88" y="138.1289">TCLK</text><text fill="#333333" font-family="sans-serif" font-size="12" font-weight="bold" lengthAdjust="spacing" textLength="37" x="207" y="138.1289">TCLK*</text><text fill="#333333" font-family="sans-serif" font-size="12" font-weight="bold" lengthAdjust="spacing" textLength="14" x="313" y="138.1289">b7</text><text fill="#333333" font-family="sans-serif" font-size="12" font-weight="bold" lengthAdjust="spacing" textLength="14" x="367" y="138.1289">b6</text><text fill="#333333" font-family="sans-serif" font-size="12" font-weight="bold" lengthAdjust="spacing" textLength="14" x="421" y="138.1289">b5</text><text fill="#333333" font-family="sans-serif" font-size="12" font-weight="bold" lengthAdjust="spacing" textLength="14" x="475" y="138.1289">b4</text><text fill="#333333" font-family="sans-serif" font-size="12" font-weight="bold" lengthAdjust="spacing" textLength="14" x="529" y="138.1289">b3</text><text fill="#333333" font-family="sans-serif" font-size="12" font-weight="bold" lengthAdjust="spacing" textLength="14" x="583" y="138.1289">b2</text><text fill="#333333" font-family="sans-serif" font-size="12" font-weight="bold" lengthAdjust="spacing" textLength="14" x="637" y="138.1289">b1</text><text fill="#333333" font-family="sans-serif" font-size="12" font-weight="bold" lengthAdjust="spacing" textLength="14" x="691" y="138.1289">b0</text><text fill="#333333" font-family="sans-serif" font-size="12" font-weight="bold" lengthAdjust="spacing" textLength="37" x="747" y="138.1289">TCLK*</text><text fill="#333333" font-family="sans-serif" font-size="12" font-weight="bold" lengthAdjust="spacing" textLength="32" x="818" y="138.1289">TCLK</text><line style="stroke:#333333;stroke-width:0.5;" x1="10" x2="892" y1="155.2188" y2="155.2188"/><text fill="#333333" font-family="sans-serif" font-size="14" font-weight="bold" lengthAdjust="spacing" textLength="29" x="15" y="169.752">SCK</text><line style="stroke:#333333;stroke-width:0.5;" x1="10" x2="45" y1="173.8281" y2="173.8281"/><line style="stroke:#333333;stroke-width:0.5;" x1="45" x2="55" y1="173.8281" y2="155.2188"/><line style="stroke:#006400;stroke-width:1.5;" x1="50" x2="50" y1="180.8281" y2="194.8281"/><line style="stroke:#006400;stroke-width:1.5;" x1="50" x2="77" y1="180.8281" y2="180.8281"/><line style="stroke:#006400;stroke-width:1.5;" x1="77" x2="77" y1="180.8281" y2="194.8281"/><line style="stroke:#006400;stroke-width:1.5;" x1="77" x2="104" y1="194.8281" y2="194.8281"/><line style="stroke:#006400;stroke-width:1.5;" x1="104" x2="104" y1="180.8281" y2="194.8281"/><line style="stroke:#006400;stroke-width:1.5;" x1="104" x2="131" y1="180.8281" y2="180.8281"/><line style="stroke:#006400;stroke-width:1.5;" x1="131" x2="131" y1="180.8281" y2="194.8281"/><line style="stroke:#006400;stroke-width:1.5;" x1="131" x2="158" y1="194.8281" y2="194.8281"/><line style="stroke:#006400;stroke-width:1.5;" x1="158" x2="158" y1="180.8281" y2="194.8281"/><line style="stroke:#006400;stroke-width:1.5;" x1="158" x2="185" y1="180.8281" y2="180.8281"/><line style="stroke:#006400;stroke-width:1.5;" x1="185" x2="185" y1="180.8281" y2="194.8281"/><line style="stroke:#006400;stroke-width:1.5;" x1="185" x2="212" y1="194.8281" y2="194.8281"/><line style="stroke:#006400;stroke-width:1.5;" x1="212" x2="212" y1="180.8281" y2="194.8281"/><line style="stroke:#006400;stroke-width:1.5;" x1="212" x2="239" y1="180.8281" y2="180.8281"/><line style="stroke:#006400;stroke-width:1.5;" x1="239" x2="239" y1="180.8281" y2="194.8281"/><line style="stroke:#006400;stroke-width:1.5;" x1="239" x2="266" y1="194.8281" y2="194.8281"/><line style="stroke:#006400;stroke-width:1.5;" x1="266" x2="266" y1="180.8281" y2="194.8281"/><line style="stroke:#006400;stroke-width:1.5;" x1="266" x2="293" y1="180.8281" y2="180.8281"/><line style="stroke:#006400;stroke-width:1.5;" x1="293" x2="293" y1="180.8281" y2="194.8281"/><line style="stroke:#006400;stroke-width:1.5;" x1="293" x2="320" y1="194.8281" y2="194.8281"/><line style="stroke:#006400;stroke-width:1.5;" x1="320" x2="320" y1="180.8281" y2="194.8281"/><line style="stroke:#006400;stroke-width:1.5;" x1="320" x2="347" y1="180.8281" y2="180.8281"/><line style="stroke:#006400;stroke-width:1.5;" x1="347" x2="347" y1="180.8281" y2="194.8281"/><line style="stroke:#006400;stroke-width:1.5;" x1="347" x2="374" y1="194.8281" y2="194.8281"/><line style="stroke:#006400;stroke-width:1.5;" x1="374" x2="374" y1="180.8281" y2="194.8281"/><line style="stroke:#006400;stroke-width:1.5;" x1="374" x2="401" y1="180.8281" y2="180.8281"/><line style="stroke:#006400;stroke-width:1.5;" x1="401" x2="401" y1="180.8281" y2="194.8281"/><line style="stroke:#006400;stroke-width:1.5;" x1="401" x2="428" y1="194.8281" y2="194.8281"/><line style="stroke:#006400;stroke-width:1.5;" x1="428" x2="428" y1="180.8281" y2="194.8281"/><line style="stroke:#006400;stroke-width:1.5;" x1="428" x2="455" y1="180.8281" y2="180.8281"/><line style="stroke:#006400;stroke-width:1.5;" x1="455" x2="455" y1="180.8281" y2="194.8281"/><line style="stroke:#006400;stroke-width:1.5;" x1="455" x2="482" y1="194.8281" y2="194.8281"/><line style="stroke:#006400;stroke-width:1.5;" x1="482" x2="482" y1="180.8281" y2="194.8281"/><line style="stroke:#006400;stroke-width:1.5;" x1="482" x2="509" y1="180.8281" y2="180.8281"/><line style="stroke:#006400;stroke-width:1.5;" x1="509" x2="509" y1="180.8281" y2="194.8281"/><line style="stroke:#006400;stroke-width:1.5;" x1="509" x2="536" y1="194.8281" y2="194.8281"/><line style="stroke:#006400;stroke-width:1.5;" x1="536" x2="536" y1="180.8281" y2="194.8281"/><line style="stroke:#006400;stroke-width:1.5;" x1="536" x2="563" y1="180.8281" y2="180.8281"/><line style="stroke:#006400;stroke-width:1.5;" x1="563" x2="563" y1="180.8281" y2="194.8281"/><line style="stroke:#006400;stroke-width:1.5;" x1="563" x2="590" y1="194.8281" y2="194.8281"/><line style="stroke:#006400;stroke-width:1.5;" x1="590" x2="590" y1="180.8281" y2="194.8281"/><line style="stroke:#006400;stroke-width:1.5;" x1="590" x2="617" y1="180.8281" y2="180.8281"/><line style="stroke:#006400;stroke-width:1.5;" x1="617" x2="617" y1="180.8281" y2="194.8281"/><line style="stroke:#006400;stroke-width:1.5;" x1="617" x2="644" y1="194.8281" y2="194.8281"/><line style="stroke:#006400;stroke-width:1.5;" x1="644" x2="644" y1="180.8281" y2="194.8281"/><line style="stroke:#006400;stroke-width:1.5;" x1="644" x2="671" y1="180.8281" y2="180.8281"/><line style="stroke:#006400;stroke-width:1.5;" x1="671" x2="671" y1="180.8281" y2="194.8281"/><line style="stroke:#006400;stroke-width:1.5;" x1="671" x2="698" y1="194.8281" y2="194.8281"/><line style="stroke:#006400;stroke-width:1.5;" x1="698" x2="698" y1="180.8281" y2="194.8281"/><line style="stroke:#006400;stroke-width:1.5;" x1="698" x2="725" y1="180.8281" y2="180.8281"/><line style="stroke:#006400;stroke-width:1.5;" x1="725" x2="725" y1="180.8281" y2="194.8281"/><line style="stroke:#006400;stroke-width:1.5;" x1="725" x2="752" y1="194.8281" y2="194.8281"/><line style="stroke:#006400;stroke-width:1.5;" x1="752" x2="752" y1="180.8281" y2="194.8281"/><line style="stroke:#006400;stroke-width:1.5;" x1="752" x2="779" y1="180.8281" y2="180.8281"/><line style="stroke:#006400;stroke-width:1.5;" x1="779" x2="779" y1="180.8281" y2="194.8281"/><line style="stroke:#006400;stroke-width:1.5;" x1="779" x2="806" y1="194.8281" y2="194.8281"/><line style="stroke:#006400;stroke-width:1.5;" x1="806" x2="806" y1="180.8281" y2="194.8281"/><line style="stroke:#006400;stroke-width:1.5;" x1="806" x2="833" y1="180.8281" y2="180.8281"/><line style="stroke:#006400;stroke-width:1.5;" x1="833" x2="833" y1="180.8281" y2="194.8281"/><line style="stroke:#006400;stroke-width:1.5;" x1="833" x2="860" y1="194.8281" y2="194.8281"/><line style="stroke:#006400;stroke-width:1.5;" x1="860" x2="860" y1="180.8281" y2="194.8281"/><line style="stroke:#006400;stroke-width:1.5;" x1="860" x2="887" y1="180.8281" y2="180.8281"/><line style="stroke:#006400;stroke-width:1.5;" x1="887" x2="887" y1="180.8281" y2="194.8281"/><line style="stroke:#006400;stroke-width:1.5;" x1="887" x2="887" y1="194.8281" y2="194.8281"/><line style="stroke:#333333;stroke-width:2.0;" x1="50" x2="50" y1="202.8281" y2="207.8281"/><line style="stroke:#333333;stroke-width:2.0;" x1="104" x2="104" y1="202.8281" y2="207.8281"/><line style="stroke:#333333;stroke-width:2.0;" x1="158" x2="158" y1="202.8281" y2="207.8281"/><line style="stroke:#333333;stroke-width:2.0;" x1="212" x2="212" y1="202.8281" y2="207.8281"/><line style="stroke:#333333;stroke-width:2.0;" x1="266" x2="266" y1="202.8281" y2="207.8281"/><line style="stroke:#333333;stroke-width:2.0;" x1="320" x2="320" y1="202.8281" y2="207.8281"/><line style="stroke:#333333;stroke-width:2.0;" x1="374" x2="374" y1="202.8281" y2="207.8281"/><line style="stroke:#333333;stroke-width:2.0;" x1="428" x2="428" y1="202.8281" y2="207.8281"/><line style="stroke:#333333;stroke-width:2.0;" x1="482" x2="482" y1="202.8281" y2="207.8281"/><line style="stroke:#333333;stroke-width:2.0;" x1="536" x2="536" y1="202.8281" y2="207.8281"/><line style="stroke:#333333;stroke-width:2.0;" x1="590" x2="590" y1="202.8281" y2="207.8281"/><line style="stroke:#333333;stroke-width:2.0;" x1="644" x2="644" y1="202.8281" y2="207.8281"/><line style="stroke:#333333;stroke-width:2.0;" x1="698" x2="698" y1="202.8281" y2="207.8281"/><line style="stroke:#333333;stroke-width:2.0;" x1="752" x2="752" y1="202.8281" y2="207.8281"/><line style="stroke:#333333;stroke-width:2.0;" x1="806" x2="806" y1="202.8281" y2="207.8281"/><line style="stroke:#333333;stroke-width:2.0;" x1="860" x2="860" y1="202.8281" y2="207.8281"/><line style="stroke:#333333;stroke-width:2.0;" x1="50" x2="860" y1="202.8281" y2="202.8281"/><text fill="#333333" font-family="sans-serif" font-size="11" lengthAdjust="spacing" textLength="6" x="47" y="220.2471">0</text><text fill="#333333" font-family="sans-serif" font-size="11" lengthAdjust="spacing" textLength="6" x="101" y="220.2471">2</text><text fill="#333333" font-family="sans-serif" font-size="11" lengthAdjust="spacing" textLength="6" x="155" y="220.2471">4</text><text fill="#333333" font-family="sans-serif" font-size="11" lengthAdjust="spacing" textLength="6" x="209" y="220.2471">6</text><text fill="#333333" font-family="sans-serif" font-size="11" lengthAdjust="spacing" textLength="6" x="263" y="220.2471">8</text><text fill="#333333" font-family="sans-serif" font-size="11" lengthAdjust="spacing" textLength="12" x="314" y="220.2471">10</text><text fill="#333333" font-family="sans-serif" font-size="11" lengthAdjust="spacing" textLength="12" x="368" y="220.2471">12</text><text fill="#333333" font-family="sans-serif" font-size="11" lengthAdjust="spacing" textLength="12" x="422" y="220.2471">14</text><text fill="#333333" font-family="sans-serif" font-size="11" lengthAdjust="spacing" textLength="12" x="476" y="220.2471">16</text><text fill="#333333" font-family="sans-serif" font-size="11" lengthAdjust="spacing" textLength="12" x="530" y="220.2471">18</text><text fill="#333333" font-family="sans-serif" font-size="11" lengthAdjust="spacing" textLength="12" x="584" y="220.2471">20</text><text fill="#333333" font-family="sans-serif" font-size="11" lengthAdjust="spacing" textLength="12" x="638" y="220.2471">22</text><text fill="#333333" font-family="sans-serif" font-size="11" lengthAdjust="spacing" textLength="12" x="692" y="220.2471">24</text><text fill="#333333" font-family="sans-serif" font-size="11" lengthAdjust="spacing" textLength="12" x="746" y="220.2471">26</text><text fill="#333333" font-family="sans-serif" font-size="11" lengthAdjust="spacing" textLength="12" x="800" y="220.2471">28</text><text fill="#333333" font-family="sans-serif" font-size="11" lengthAdjust="spacing" textLength="12" x="854" y="220.2471">30</text><!--SRC=[PP7DReCm3CVlVWehnqcJ841fRv5W1zJjCjW3f26KQ55195ExjvyfNq8xsJ_RVyTsL7TJncbafPTUCvGECxYOcnn-aLKVvJD25jHIMEN55CmBKBPJtwJDpiyGMRmRtsAl1zFLoB5h6gSz1k2Kj9e2L9N4s9k7jWv401aQXqLjDL2_qQ-ozpFGWwDlkpk8QA7MN5iGyIGfjTNABo8sgbuOY6GdFKorcUpzpw1176TjQnh_cd-2E2qDBYc8C5pfG1Ijb10bAyL4wKeHqTQ5W-1Rbv1eF_sI2IWpB_BsC7uiJFxjmkVnl_gQleOutIt7ZzlnS7SzmKz_]--></g></svg>