<?xml version="1.0" encoding="us-ascii" standalone="no"?><svg xmlns="http://www.w3.org/2000/svg" xmlns:xlink="http://www.w3.org/1999/xlink" contentStyleType="text/css" height="520px" preserveAspectRatio="none" style="width:228px;height:520px;background:#FFFFFF;" version="1.1" viewBox="0 0 228 520" width="228px" zoomAndPan="magnify"><defs/><g><ellipse cx="114.5" cy="16" fill="#222222" rx="10" ry="10" style="stroke:#222222;stroke-width:1.0;"/><rect fill="#F1F1F1" height="35.0938" rx="12.5" ry="12.5" style="stroke:#181818;stroke-width:0.5;" width="215" x="7" y="67"/><text fill="#000000" font-family="sans-serif" font-size="12" lengthAdjust="spacing" textLength="195" x="17" y="89.457">IR(IR_EMEX_DATA_EXCHANGE32)</text><rect fill="#F1F1F1" height="35.0938" rx="12.5" ry="12.5" style="stroke:#181818;stroke-width:0.5;" width="106" x="61.5" y="143"/><text fill="#000000" font-family="sans-serif" font-size="12" lengthAdjust="spacing" textLength="86" x="71.5" y="165.457">DR32(Address)</text><rect fill="#F1F1F1" height="35.0938" rx="12.5" ry="12.5" style="stroke:#181818;stroke-width:0.5;" width="86" x="41.5" y="240"/><text fill="#000000" font-family="sans-serif" font-size="12" lengthAdjust="spacing" textLength="66" x="51.5" y="262.457">DR32(Data)</text><g id="elem_#9"><polygon fill="#F1F1F1" points="114.5,337,126.5,349,114.5,361,102.5,349,114.5,337" style="stroke:#181818;stroke-width:0.5;"/></g><rect fill="#F1F1F1" height="35.0938" rx="12.5" ry="12.5" style="stroke:#181818;stroke-width:0.5;" width="73" x="78" y="416"/><text fill="#000000" font-family="sans-serif" font-size="12" lengthAdjust="spacing" textLength="53" x="88" y="438.457">IR(&lt;any&gt;)</text><ellipse cx="114.5" cy="503" fill="none" rx="11" ry="11" style="stroke:#222222;stroke-width:1.0;"/><ellipse cx="114.5" cy="503" fill="#222222" rx="6" ry="6" style="stroke:#222222;stroke-width:1.0;"/><!--link start to IR(IR_EMEX_DATA_EXCHANGE32)--><g id="link_start_IR(IR_EMEX_DATA_EXCHANGE32)"><path d="M114.5,26.25 C114.5,36.74 114.5,48.06 114.5,60.91 " fill="none" id="start-to-IR(IR_EMEX_DATA_EXCHANGE32)" style="stroke:#181818;stroke-width:1.0;"/><polygon fill="#181818" points="114.5,66.91,118.5,57.91,114.5,61.91,110.5,57.91,114.5,66.91" style="stroke:#181818;stroke-width:1.0;"/></g><!--link IR(IR_EMEX_DATA_EXCHANGE32) to addr--><g id="link_IR(IR_EMEX_DATA_EXCHANGE32)_addr"><path d="M114.5,102.29 C114.5,114.4 114.5,124.68 114.5,136.77 " fill="none" id="IR(IR_EMEX_DATA_EXCHANGE32)-to-addr" style="stroke:#181818;stroke-width:1.0;"/><polygon fill="#181818" points="114.5,142.77,118.5,133.77,114.5,137.77,110.5,133.77,114.5,142.77" style="stroke:#181818;stroke-width:1.0;"/></g><!--link addr to DR32(Data)--><g id="link_addr_DR32(Data)"><path d="M109.27,178.05 C103.8,195.38 97.0543,216.7177 91.5743,234.0977 " fill="none" id="addr-to-DR32(Data)" style="stroke:#181818;stroke-width:1.0;"/><polygon fill="#181818" points="89.77,239.82,96.2913,232.4394,91.2736,235.0514,88.6615,230.0337,89.77,239.82" style="stroke:#181818;stroke-width:1.0;"/></g><!--link DR32(Data) to #9--><g id="link_DR32(Data)_#9"><path d="M90.14,275.33 C96.52,294.37 104.7622,318.9514 109.7022,333.6814 " fill="none" id="DR32(Data)-to-#9" style="stroke:#181818;stroke-width:1.0;"/><polygon fill="#181818" points="111.61,339.37,112.5407,329.5652,110.0202,334.6295,104.9559,332.1089,111.61,339.37" style="stroke:#181818;stroke-width:1.0;"/><text fill="#000000" font-family="sans-serif" font-size="11" lengthAdjust="spacing" textLength="78" x="16.3304" y="331.3077">more transfers?</text></g><!--link #9 to addr--><g id="link_#9_addr"><path d="M116.29,338.78 C117.49,332.61 119.09,324.32 120.5,317 C126.99,283.21 131.53,274.27 128.5,240 C126.6,218.49 123.0857,199.9028 119.6457,184.0928 " fill="none" id="#9-to-addr" style="stroke:#181818;stroke-width:1.0;"/><polygon fill="#181818" points="118.37,178.23,116.3749,187.8747,119.433,183.1157,124.192,186.1738,118.37,178.23" style="stroke:#181818;stroke-width:1.0;"/></g><!--link #9 to IR(<any>)--><g id="link_#9_IR(&lt;any&gt;)"><path d="M114.5,361.13 C114.5,375.2 114.5,393.56 114.5,409.85 " fill="none" id="#9-to-IR(&lt;any&gt;)" style="stroke:#181818;stroke-width:1.0;"/><polygon fill="#181818" points="114.5,415.85,118.5,406.85,114.5,410.85,110.5,406.85,114.5,415.85" style="stroke:#181818;stroke-width:1.0;"/><text fill="#000000" font-family="sans-serif" font-size="11" lengthAdjust="spacing" textLength="6" x="115.5" y="393.4189">n</text></g><!--link IR(<any>) to end--><g id="link_IR(&lt;any&gt;)_end"><path d="M114.5,451.19 C114.5,463.99 114.5,475.24 114.5,485.99 " fill="none" id="IR(&lt;any&gt;)-to-end" style="stroke:#181818;stroke-width:1.0;"/><polygon fill="#181818" points="114.5,491.99,118.5,482.99,114.5,486.99,110.5,482.99,114.5,491.99" style="stroke:#181818;stroke-width:1.0;"/></g><!--SRC=[qz3ILD3LjLDGyWpIy0oAT_LrZOXtSGnnZ7UDSFPmz7DtDJRILE82gt09CZRIS4n9AKejBjPKKaWiLaW4Sf3aN19B4g6ACzCKb7BpYr8LIeeIyuhJKekAxPMu580sWIJ1sb9pYbF18dOAqNcnOFjj4lCgxJILeA8QMffSgNafcMa0]--></g></svg>