<?xml version="1.0" encoding="us-ascii" standalone="no"?><svg xmlns="http://www.w3.org/2000/svg" xmlns:xlink="http://www.w3.org/1999/xlink" contentStyleType="text/css" height="520px" preserveAspectRatio="none" style="width:234px;height:520px;background:#FFFFFF;" version="1.1" viewBox="0 0 234 520" width="234px" zoomAndPan="magnify"><defs/><g><ellipse cx="117.5" cy="16" fill="#222222" rx="10" ry="10" style="stroke:#222222;stroke-width:1.0;"/><rect fill="#F1F1F1" height="35.0938" rx="12.5" ry="12.5" style="stroke:#181818;stroke-width:0.5;" width="221" x="7" y="67"/><text fill="#000000" font-family="sans-serif" font-size="12" lengthAdjust="spacing" textLength="201" x="17" y="89.457">IR(IR_EMEX_DATA_EXCHANGE32)</text><rect fill="#F1F1F1" height="35.0938" rx="12.5" ry="12.5" style="stroke:#181818;stroke-width:0.5;" width="105" x="65" y="143.09"/><text fill="#000000" font-family="sans-serif" font-size="12" lengthAdjust="spacing" textLength="85" x="75" y="165.547">DR32(Address)</text><rect fill="#F1F1F1" height="35.0938" rx="12.5" ry="12.5" style="stroke:#181818;stroke-width:0.5;" width="86" x="44.5" y="240.18"/><text fill="#000000" font-family="sans-serif" font-size="12" lengthAdjust="spacing" textLength="66" x="54.5" y="262.637">DR32(Data)</text><g id="elem_#9"><polygon fill="#F1F1F1" points="117.5,337.28,129.5,349.28,117.5,361.28,105.5,349.28,117.5,337.28" style="stroke:#181818;stroke-width:0.5;"/></g><rect fill="#F1F1F1" height="35.0938" rx="12.5" ry="12.5" style="stroke:#181818;stroke-width:0.5;" width="74" x="80.5" y="416.28"/><text fill="#000000" font-family="sans-serif" font-size="12" lengthAdjust="spacing" textLength="54" x="90.5" y="438.737">IR(&lt;any&gt;)</text><ellipse cx="117.5" cy="503.37" fill="none" rx="11" ry="11" style="stroke:#222222;stroke-width:1.0;"/><ellipse cx="117.5" cy="503.37" fill="#222222" rx="6" ry="6" style="stroke:#222222;stroke-width:1.0;"/><!--link start to IR(IR_EMEX_DATA_EXCHANGE32)--><g id="link_start_IR(IR_EMEX_DATA_EXCHANGE32)"><path d="M117.5,26.25 C117.5,36.68 117.5,47.85 117.5,60.67 " fill="none" id="start-to-IR(IR_EMEX_DATA_EXCHANGE32)" style="stroke:#181818;stroke-width:1.0;"/><polygon fill="#181818" points="117.5,66.67,121.5,57.67,117.5,61.67,113.5,57.67,117.5,66.67" style="stroke:#181818;stroke-width:1.0;"/></g><!--link IR(IR_EMEX_DATA_EXCHANGE32) to addr--><g id="link_IR(IR_EMEX_DATA_EXCHANGE32)_addr"><path d="M117.5,102.35 C117.5,114.4 117.5,124.55 117.5,136.63 " fill="none" id="IR(IR_EMEX_DATA_EXCHANGE32)-to-addr" style="stroke:#181818;stroke-width:1.0;"/><polygon fill="#181818" points="117.5,142.63,121.5,133.63,117.5,137.63,113.5,133.63,117.5,142.63" style="stroke:#181818;stroke-width:1.0;"/></g><!--link addr to DR32(Data)--><g id="link_addr_DR32(Data)"><path d="M112.14,178.64 C106.68,195.95 100.0636,216.8975 94.6236,234.1575 " fill="none" id="addr-to-DR32(Data)" style="stroke:#181818;stroke-width:1.0;"/><polygon fill="#181818" points="92.82,239.88,99.3404,232.4987,94.323,235.1113,91.7104,230.0938,92.82,239.88" style="stroke:#181818;stroke-width:1.0;"/></g><!--link DR32(Data) to #9--><g id="link_DR32(Data)_#9"><path d="M93.14,275.57 C99.52,294.62 107.7634,319.211 112.7034,333.951 " fill="none" id="DR32(Data)-to-#9" style="stroke:#181818;stroke-width:1.0;"/><polygon fill="#181818" points="114.61,339.64,115.5427,329.8354,113.0211,334.8992,107.9574,332.3776,114.61,339.64" style="stroke:#181818;stroke-width:1.0;"/><text fill="#000000" font-family="sans-serif" font-size="11" lengthAdjust="spacing" textLength="78" x="19.3304" y="331.5736">more transfers?</text></g><!--link #9 to addr--><g id="link_#9_addr"><path d="M119.4,338.5 C120.58,332.4 122.14,324.38 123.5,317.28 C130,283.45 134.53,274.5 131.5,240.18 C129.61,218.8 126.1577,200.3724 122.7077,184.5424 " fill="none" id="#9-to-addr" style="stroke:#181818;stroke-width:1.0;"/><polygon fill="#181818" points="121.43,178.68,119.4382,188.3254,122.4947,183.5653,127.2547,186.6218,121.43,178.68" style="stroke:#181818;stroke-width:1.0;"/></g><!--link #9 to IR(<any>)--><g id="link_#9_IR(&lt;any&gt;)"><path d="M117.5,361.75 C117.5,375.84 117.5,393.85 117.5,410.01 " fill="none" id="#9-to-IR(&lt;any&gt;)" style="stroke:#181818;stroke-width:1.0;"/><polygon fill="#181818" points="117.5,416.01,121.5,407.01,117.5,411.01,113.5,407.01,117.5,416.01" style="stroke:#181818;stroke-width:1.0;"/><text fill="#000000" font-family="sans-serif" font-size="11" lengthAdjust="spacing" textLength="6" x="118.5" y="393.6989">n</text></g><!--link IR(<any>) to end--><g id="link_IR(&lt;any&gt;)_end"><path d="M117.5,451.87 C117.5,464.53 117.5,475.39 117.5,486.07 " fill="none" id="IR(&lt;any&gt;)-to-end" style="stroke:#181818;stroke-width:1.0;"/><polygon fill="#181818" points="117.5,492.07,121.5,483.07,117.5,487.07,113.5,483.07,117.5,492.07" style="stroke:#181818;stroke-width:1.0;"/></g><!--SRC=[qz3ILD3LjLDGyWpIy0oAT_LrZOXtSGnnZ7UDSFPmz7DtDJRILE82gt09CZRIS4n9AKejBjPKKaWiLaW4Sf3aN19B4g6ACzCKb7BpYr8LIeeIyuhJKekAxPMu580sWIJ1sb9pYbF18dOAqNcnOFjj4lCgxJILeA8QMffSgNafcMa0]--></g></svg>