<?xml version="1.0" encoding="us-ascii" standalone="no"?><svg xmlns="http://www.w3.org/2000/svg" xmlns:xlink="http://www.w3.org/1999/xlink" contentStyleType="text/css" height="524px" preserveAspectRatio="none" style="width:485px;height:524px;background:#FFFFFF;" version="1.1" viewBox="0 0 485 524" width="485px" zoomAndPan="magnify"><defs/><g><g id="Master"><rect fill="#F1F1F1" height="67.7969" rx="12.5" ry="12.5" style="stroke:#181818;stroke-width:0.5;" width="162" x="156.5" y="87"/><line style="stroke:#181818;stroke-width:0.5;" x1="156.5" x2="318.5" y1="114.6094" y2="114.6094"/><text fill="#000000" font-family="sans-serif" font-size="14" lengthAdjust="spacing" textLength="83" x="196" y="106.5332">Master Timer</text><text fill="#000000" font-family="sans-serif" font-size="12" lengthAdjust="spacing" textLength="124" x="161.5" y="132.0664">Count once and cycles</text><text fill="#000000" font-family="sans-serif" font-size="12" lengthAdjust="spacing" textLength="142" x="161.5" y="147.1602">Generates lots of updates</text></g><rect fill="#555555" height="8" style="stroke:none;stroke-width:1.0;" width="80" x="197.5" y="233"/><g id="Slave"><rect fill="#F1F1F1" height="82.8906" rx="12.5" ry="12.5" style="stroke:#181818;stroke-width:0.5;" width="156" x="321.5" y="319"/><line style="stroke:#181818;stroke-width:0.5;" x1="321.5" x2="477.5" y1="346.6094" y2="346.6094"/><text fill="#000000" font-family="sans-serif" font-size="14" lengthAdjust="spacing" textLength="75" x="362" y="338.5332">Slave Timer</text><text fill="#000000" font-family="sans-serif" font-size="12" lengthAdjust="spacing" textLength="136" x="326.5" y="364.0664">Counts number of cycles</text><text fill="#000000" font-family="sans-serif" font-size="12" lengthAdjust="spacing" textLength="112" x="326.5" y="379.1602">Can use a prescaler</text><text fill="#000000" font-family="sans-serif" font-size="12" lengthAdjust="spacing" textLength="99" x="326.5" y="394.2539">to extend counting</text></g><g id="Gpio"><rect fill="#F1F1F1" height="82.8906" rx="12.5" ry="12.5" style="stroke:#181818;stroke-width:0.5;" width="137" x="7" y="319"/><line style="stroke:#181818;stroke-width:0.5;" x1="7" x2="144" y1="346.6094" y2="346.6094"/><text fill="#000000" font-family="sans-serif" font-size="14" lengthAdjust="spacing" textLength="68" x="41.5" y="338.5332">DMA GPIO</text><text fill="#000000" font-family="sans-serif" font-size="12" lengthAdjust="spacing" textLength="94" x="12" y="364.0664">DMA is cyclic and</text><text fill="#000000" font-family="sans-serif" font-size="12" lengthAdjust="spacing" textLength="79" x="12" y="379.1602">follows a table</text><text fill="#000000" font-family="sans-serif" font-size="12" lengthAdjust="spacing" textLength="117" x="12" y="394.2539">with pin set and reset</text></g><ellipse cx="275.5" cy="360.5" fill="none" rx="11" ry="11" style="stroke:#222222;stroke-width:1.0;"/><ellipse cx="275.5" cy="360.5" fill="#222222" rx="6" ry="6" style="stroke:#222222;stroke-width:1.0;"/><ellipse cx="237.5" cy="16" fill="#222222" rx="10" ry="10" style="stroke:#222222;stroke-width:1.0;"/><ellipse cx="399.5" cy="507" fill="none" rx="11" ry="11" style="stroke:#222222;stroke-width:1.0;"/><ellipse cx="399.5" cy="507" fill="#222222" rx="6" ry="6" style="stroke:#222222;stroke-width:1.0;"/><!--link *start* to Master--><g id="link_*start*_Master"><path d="M237.5,26.14 C237.5,39.63 237.5,59.56 237.5,80.76 " fill="none" id="*start*-to-Master" style="stroke:#181818;stroke-width:1.0;"/><polygon fill="#181818" points="237.5,86.76,241.5,77.76,237.5,81.76,233.5,77.76,237.5,86.76" style="stroke:#181818;stroke-width:1.0;"/></g><!--link Master to fork_update--><g id="link_Master_fork_update"><path d="M237.5,155.28 C237.5,183.67 237.5,215.62 237.5,226.78 " fill="none" id="Master-to-fork_update" style="stroke:#181818;stroke-width:1.0;"/><polygon fill="#181818" points="237.5,232.78,241.5,223.78,237.5,227.78,233.5,223.78,237.5,232.78" style="stroke:#181818;stroke-width:1.0;"/><text fill="#000000" font-family="sans-serif" font-size="13" lengthAdjust="spacing" textLength="77" x="238.5" y="199.4951">Update Event</text></g><!--link fork_update to Slave--><g id="link_fork_update_Slave"><path d="M241.5,241 C255.78,251.71 300.6596,285.3706 340.5496,315.2806 " fill="none" id="fork_update-to-Slave" style="stroke:#181818;stroke-width:1.0;"/><polygon fill="#181818" points="345.35,318.88,340.549,310.2806,341.3496,315.8805,335.7497,316.6812,345.35,318.88" style="stroke:#181818;stroke-width:1.0;"/><text fill="#000000" font-family="sans-serif" font-size="13" lengthAdjust="spacing" textLength="99" x="305.5" y="285.4951">Slave timer clock</text></g><!--link fork_update to Gpio--><g id="link_fork_update_Gpio"><path d="M233.5,241 C219.22,251.71 174.3404,285.3706 134.4504,315.2806 " fill="none" id="fork_update-to-Gpio" style="stroke:#181818;stroke-width:1.0;"/><polygon fill="#181818" points="129.65,318.88,139.2503,316.6812,133.6504,315.8805,134.451,310.2806,129.65,318.88" style="stroke:#181818;stroke-width:1.0;"/><text fill="#000000" font-family="sans-serif" font-size="13" lengthAdjust="spacing" textLength="72" x="191.5" y="285.4951">Trigger DMA</text></g><!--link Gpio to Pin--><g id="link_Gpio_Pin"><path d="M144.05,360.5 C188.15,360.5 235.34,360.5 258.18,360.5 " fill="none" id="Gpio-to-Pin" style="stroke:#181818;stroke-width:1.0;"/><polygon fill="#181818" points="264.18,360.5,255.18,356.5,259.18,360.5,255.18,364.5,264.18,360.5" style="stroke:#181818;stroke-width:1.0;"/><text fill="#000000" font-family="sans-serif" font-size="13" lengthAdjust="spacing" textLength="84" x="162.25" y="353.9951">TCLK Toggling</text></g><!--link Slave to *end*--><g id="link_Slave_*end*"><path d="M399.5,402.14 C399.5,434.19 399.5,470.59 399.5,489.78 " fill="none" id="Slave-to-*end*" style="stroke:#181818;stroke-width:1.0;"/><polygon fill="#181818" points="399.5,495.78,403.5,486.78,399.5,490.78,395.5,486.78,399.5,495.78" style="stroke:#181818;stroke-width:1.0;"/><text fill="#000000" font-family="sans-serif" font-size="13" lengthAdjust="spacing" textLength="77" x="400.5" y="446.4951">Update Event</text><text fill="#000000" font-family="sans-serif" font-size="13" lengthAdjust="spacing" textLength="32" x="423" y="462.8467">stops</text></g><!--SRC=[PL3HQiCm37pFLuW-3l838HH6DyBOoWhhdhOnN5T9JLqxH4gx_VqaEoqjUx6ZkulkVCI64MPBGum3hDq1XnaOWWmK-QfW4SV048D5C64BzjTwf0lROC11zX3uo0InXR7VwbnGMj_6OV-T8QXhdURpYPgzUNF4A-Cq5-cSR0d2UDX8EjcRZU72cm0ZIIRe1oHhlAZE74V07qPDgrjSwCwM3yjxQ5PFhyclwLqizAX0SKV9mrbzvuItqVju8d5Xi_4ueIV7E-XT049EfKW2vCbZ9NXTYxayzEFk2yfoVbjfGgvxgU0zVpmUCN1nJQaqrrHDDsjTO7sq-tzAJIV2zU2wJaJog1GOIW5sB0BD9lpYvHdMiUkyDfFNwk-QzZRBPo2EFVq1]--></g></svg>