<?xml version="1.0" encoding="us-ascii" standalone="no"?><svg xmlns="http://www.w3.org/2000/svg" xmlns:xlink="http://www.w3.org/1999/xlink" contentStyleType="text/css" height="523px" preserveAspectRatio="none" style="width:486px;height:523px;background:#FFFFFF;" version="1.1" viewBox="0 0 486 523" width="486px" zoomAndPan="magnify"><defs/><g><g id="Master"><rect fill="#F1F1F1" height="67.7969" rx="12.5" ry="12.5" style="stroke:#181818;stroke-width:0.5;" width="159" x="156" y="87"/><line style="stroke:#181818;stroke-width:0.5;" x1="156" x2="315" y1="114.6094" y2="114.6094"/><text fill="#000000" font-family="sans-serif" font-size="14" lengthAdjust="spacing" textLength="85" x="193" y="106.5332">Master Timer</text><text fill="#000000" font-family="sans-serif" font-size="12" lengthAdjust="spacing" textLength="124" x="161" y="132.0664">Count once and cycles</text><text fill="#000000" font-family="sans-serif" font-size="12" lengthAdjust="spacing" textLength="139" x="161" y="147.1602">Generates lots of updates</text></g><rect fill="#555555" height="8" style="stroke:none;stroke-width:1.0;" width="80" x="195.5" y="232.8"/><g id="Slave"><rect fill="#F1F1F1" height="82.8906" rx="12.5" ry="12.5" style="stroke:#181818;stroke-width:0.5;" width="154" x="321.5" y="318.8"/><line style="stroke:#181818;stroke-width:0.5;" x1="321.5" x2="475.5" y1="346.4094" y2="346.4094"/><text fill="#000000" font-family="sans-serif" font-size="14" lengthAdjust="spacing" textLength="76" x="360.5" y="338.3332">Slave Timer</text><text fill="#000000" font-family="sans-serif" font-size="12" lengthAdjust="spacing" textLength="134" x="326.5" y="363.8664">Counts number of cycles</text><text fill="#000000" font-family="sans-serif" font-size="12" lengthAdjust="spacing" textLength="110" x="326.5" y="378.9602">Can use a prescaler</text><text fill="#000000" font-family="sans-serif" font-size="12" lengthAdjust="spacing" textLength="100" x="326.5" y="394.0539">to extend counting</text></g><g id="Gpio"><rect fill="#F1F1F1" height="82.8906" rx="12.5" ry="12.5" style="stroke:#181818;stroke-width:0.5;" width="135" x="7" y="318.8"/><line style="stroke:#181818;stroke-width:0.5;" x1="7" x2="142" y1="346.4094" y2="346.4094"/><text fill="#000000" font-family="sans-serif" font-size="14" lengthAdjust="spacing" textLength="70" x="39.5" y="338.3332">DMA GPIO</text><text fill="#000000" font-family="sans-serif" font-size="12" lengthAdjust="spacing" textLength="96" x="12" y="363.8664">DMA is cyclic and</text><text fill="#000000" font-family="sans-serif" font-size="12" lengthAdjust="spacing" textLength="78" x="12" y="378.9602">follows a table</text><text fill="#000000" font-family="sans-serif" font-size="12" lengthAdjust="spacing" textLength="115" x="12" y="394.0539">with pin set and reset</text></g><ellipse cx="275.5" cy="360.24" fill="none" rx="11" ry="11" style="stroke:#222222;stroke-width:1.0;"/><ellipse cx="275.5" cy="360.24" fill="#222222" rx="6" ry="6" style="stroke:#222222;stroke-width:1.0;"/><ellipse cx="235.5" cy="16" fill="#222222" rx="10" ry="10" style="stroke:#222222;stroke-width:1.0;"/><ellipse cx="398.5" cy="506.69" fill="none" rx="11" ry="11" style="stroke:#222222;stroke-width:1.0;"/><ellipse cx="398.5" cy="506.69" fill="#222222" rx="6" ry="6" style="stroke:#222222;stroke-width:1.0;"/><!--link *start* to Master--><g id="link_*start*_Master"><path d="M235.5,26.5 C235.5,40.13 235.5,59.92 235.5,80.95 " fill="none" id="*start*-to-Master" style="stroke:#181818;stroke-width:1.0;"/><polygon fill="#181818" points="235.5,86.95,239.5,77.95,235.5,81.95,231.5,77.95,235.5,86.95" style="stroke:#181818;stroke-width:1.0;"/></g><!--link Master to fork_update--><g id="link_Master_fork_update"><path d="M235.5,155.15 C235.5,183.52 235.5,215.43 235.5,226.59 " fill="none" id="Master-to-fork_update" style="stroke:#181818;stroke-width:1.0;"/><polygon fill="#181818" points="235.5,232.59,239.5,223.59,235.5,227.59,231.5,223.59,235.5,232.59" style="stroke:#181818;stroke-width:1.0;"/><text fill="#000000" font-family="sans-serif" font-size="13" lengthAdjust="spacing" textLength="79" x="236.5" y="199.2951">Update Event</text></g><!--link fork_update to Slave--><g id="link_fork_update_Slave"><path d="M239.86,241.05 C254.59,252.02 299.0084,285.1255 338.7684,314.7455 " fill="none" id="fork_update-to-Slave" style="stroke:#181818;stroke-width:1.0;"/><polygon fill="#181818" points="343.58,318.33,338.7523,309.7455,339.5703,315.3429,333.973,316.161,343.58,318.33" style="stroke:#181818;stroke-width:1.0;"/><text fill="#000000" font-family="sans-serif" font-size="13" lengthAdjust="spacing" textLength="101" x="303.5" y="285.2951">Slave timer clock</text></g><!--link fork_update to Gpio--><g id="link_fork_update_Gpio"><path d="M231.19,241.05 C216.64,252.02 172.7997,285.0964 133.5397,314.7164 " fill="none" id="fork_update-to-Gpio" style="stroke:#181818;stroke-width:1.0;"/><polygon fill="#181818" points="128.75,318.33,138.3437,316.1027,132.7414,315.3186,133.5255,309.7164,128.75,318.33" style="stroke:#181818;stroke-width:1.0;"/><text fill="#000000" font-family="sans-serif" font-size="13" lengthAdjust="spacing" textLength="73" x="189.5" y="285.2951">Trigger DMA</text></g><!--link Gpio to Pin--><g id="link_Gpio_Pin"><path d="M142.27,360.24 C186.95,360.24 235.31,360.24 258.34,360.24 " fill="none" id="Gpio-to-Pin" style="stroke:#181818;stroke-width:1.0;"/><polygon fill="#181818" points="264.34,360.24,255.34,356.24,259.34,360.24,255.34,364.24,264.34,360.24" style="stroke:#181818;stroke-width:1.0;"/><text fill="#000000" font-family="sans-serif" font-size="13" lengthAdjust="spacing" textLength="86" x="160.25" y="353.7351">TCLK Toggling</text></g><!--link Slave to *end*--><g id="link_Slave_*end*"><path d="M398.5,401.87 C398.5,433.91 398.5,470.29 398.5,489.48 " fill="none" id="Slave-to-*end*" style="stroke:#181818;stroke-width:1.0;"/><polygon fill="#181818" points="398.5,495.48,402.5,486.48,398.5,490.48,394.5,486.48,398.5,495.48" style="stroke:#181818;stroke-width:1.0;"/><text fill="#000000" font-family="sans-serif" font-size="13" lengthAdjust="spacing" textLength="79" x="399.5" y="446.1851">Update Event</text><text fill="#000000" font-family="sans-serif" font-size="13" lengthAdjust="spacing" textLength="32" x="423" y="462.5367">stops</text></g><!--SRC=[PL3HQiCm37pFLuW-3l838HH6DyBOoWhhdhOnN5T9JLqxH4gx_VqaEoqjUx6ZkulkVCI64MPBGum3hDq1XnaOWWmK-QfW4SV048D5C64BzjTwf0lROC11zX3uo0InXR7VwbnGMj_6OV-T8QXhdURpYPgzUNF4A-Cq5-cSR0d2UDX8EjcRZU72cm0ZIIRe1oHhlAZE74V07qPDgrjSwCwM3yjxQ5PFhyclwLqizAX0SKV9mrbzvuItqVju8d5Xi_4ueIV7E-XT049EfKW2vCbZ9NXTYxayzEFk2yfoVbjfGgvxgU0zVpmUCN1nJQaqrrHDDsjTO7sq-tzAJIV2zU2wJaJog1GOIW5sB0BD9lpYvHdMiUkyDfFNwk-QzZRBPo2EFVq1]--></g></svg>