<?xml version="1.0" encoding="UTF-8" standalone="no"?><svg xmlns="http://www.w3.org/2000/svg" xmlns:xlink="http://www.w3.org/1999/xlink" contentStyleType="text/css" height="518px" preserveAspectRatio="none" style="width:234px;height:518px;background:#FFFFFF;" version="1.1" viewBox="0 0 234 518" width="234px" zoomAndPan="magnify"><defs/><g><ellipse cx="117.5" cy="16" fill="#222222" rx="10" ry="10" style="stroke:none;stroke-width:1.0;"/><rect fill="#F1F1F1" height="35.0938" rx="12.5" ry="12.5" style="stroke:#181818;stroke-width:0.5;" width="221" x="7" y="67"/><text fill="#000000" font-family="sans-serif" font-size="12" lengthAdjust="spacing" textLength="201" x="17" y="89.457">IR(IR_EMEX_DATA_EXCHANGE32)</text><rect fill="#F1F1F1" height="35.0938" rx="12.5" ry="12.5" style="stroke:#181818;stroke-width:0.5;" width="105" x="65" y="143"/><text fill="#000000" font-family="sans-serif" font-size="12" lengthAdjust="spacing" textLength="85" x="75" y="165.457">DR32(Address)</text><rect fill="#F1F1F1" height="35.0938" rx="12.5" ry="12.5" style="stroke:#181818;stroke-width:0.5;" width="86" x="44.5" y="240"/><text fill="#000000" font-family="sans-serif" font-size="12" lengthAdjust="spacing" textLength="66" x="54.5" y="262.457">DR32(Data)</text><g id="elem_#9"><polygon fill="#F1F1F1" points="117.5,337,129.5,349,117.5,361,105.5,349,117.5,337" style="stroke:#181818;stroke-width:0.5;"/></g><rect fill="#F1F1F1" height="35.0938" rx="12.5" ry="12.5" style="stroke:#181818;stroke-width:0.5;" width="74" x="80.5" y="416"/><text fill="#000000" font-family="sans-serif" font-size="12" lengthAdjust="spacing" textLength="54" x="90.5" y="438.457">IR(&lt;any&gt;)</text><ellipse cx="117.5" cy="502" fill="none" rx="10" ry="10" style="stroke:#222222;stroke-width:1.0;"/><ellipse cx="118" cy="502.5" fill="#222222" rx="6" ry="6" style="stroke:none;stroke-width:1.0;"/><!--MD5=[8565c2086b6e882308027e09f31f3764]
link start to IR(IR_EMEX_DATA_EXCHANGE32)--><g id="link_start_IR(IR_EMEX_DATA_EXCHANGE32)"><path d="M117.5,26.25 C117.5,35.43 117.5,49.84 117.5,61.9 " fill="none" id="start-to-IR(IR_EMEX_DATA_EXCHANGE32)" style="stroke:#181818;stroke-width:1.0;"/><polygon fill="#181818" points="117.5,66.91,121.5,57.91,117.5,61.91,113.5,57.91,117.5,66.91" style="stroke:#181818;stroke-width:1.0;"/></g><!--MD5=[63ce88ebae00fd7415f6901e0fd3db54]
link IR(IR_EMEX_DATA_EXCHANGE32) to addr--><g id="link_IR(IR_EMEX_DATA_EXCHANGE32)_addr"><path d="M117.5,102.29 C117.5,112.79 117.5,126.43 117.5,137.75 " fill="none" id="IR(IR_EMEX_DATA_EXCHANGE32)-to-addr" style="stroke:#181818;stroke-width:1.0;"/><polygon fill="#181818" points="117.5,142.77,121.5,133.77,117.5,137.77,113.5,133.77,117.5,142.77" style="stroke:#181818;stroke-width:1.0;"/></g><!--MD5=[09e2db53782a328d7f5cc93bc6b21a73]
link addr to DR32(Data)--><g id="link_addr_DR32(Data)"><path d="M112.27,178.05 C107.31,193.75 99.83,217.46 94.39,234.7 " fill="none" id="addr-to-DR32(Data)" style="stroke:#181818;stroke-width:1.0;"/><polygon fill="#181818" points="92.77,239.82,99.285,232.4339,94.2695,235.0501,91.6532,230.0347,92.77,239.82" style="stroke:#181818;stroke-width:1.0;"/></g><!--MD5=[4923182b5fc9753b94ca99255c681c32]
link DR32(Data) to #9--><g id="link_DR32(Data)_#9"><path d="M93.14,275.33 C98.88,292.44 107.65,318.61 112.95,334.43 " fill="none" id="DR32(Data)-to-#9" style="stroke:#181818;stroke-width:1.0;"/><polygon fill="#181818" points="114.61,339.37,115.5498,329.5661,113.0246,334.628,107.9626,332.1028,114.61,339.37" style="stroke:#181818;stroke-width:1.0;"/><text fill="#000000" font-family="sans-serif" font-size="11" lengthAdjust="spacing" textLength="78" x="19.3304" y="331.3077">more transfers?</text></g><!--MD5=[eae12bab64fd76606d1a008198dc5eb3]
link #9 to addr--><g id="link_#9_addr"><path d="M119.29,338.78 C120.49,332.61 122.09,324.32 123.5,317 C129.99,283.21 134.53,274.27 131.5,240 C129.79,220.67 125.76,198.98 122.46,183.3 " fill="none" id="#9-to-addr" style="stroke:#181818;stroke-width:1.0;"/><polygon fill="#181818" points="121.37,178.23,119.3311,187.8655,122.4108,183.1205,127.1559,186.2002,121.37,178.23" style="stroke:#181818;stroke-width:1.0;"/></g><!--MD5=[7898883e16a68c3c5dc13eb5e0b6e39a]
link #9 to IR(<any>)--><g id="link_#9_IR(&lt;any&gt;)"><path d="M117.5,361.13 C117.5,373.77 117.5,394.72 117.5,410.66 " fill="none" id="#9-to-IR(&lt;any&gt;)" style="stroke:#181818;stroke-width:1.0;"/><polygon fill="#181818" points="117.5,415.85,121.5,406.85,117.5,410.85,113.5,406.85,117.5,415.85" style="stroke:#181818;stroke-width:1.0;"/><text fill="#000000" font-family="sans-serif" font-size="11" lengthAdjust="spacing" textLength="6" x="118.5" y="393.4189">n</text></g><!--MD5=[261f6ed55f2ce02f1309881c700a549b]
link IR(<any>) to end--><g id="link_IR(&lt;any&gt;)_end"><path d="M117.5,451.28 C117.5,462.29 117.5,476.52 117.5,486.94 " fill="none" id="IR(&lt;any&gt;)-to-end" style="stroke:#181818;stroke-width:1.0;"/><polygon fill="#181818" points="117.5,492,121.5,483,117.5,487,113.5,483,117.5,492" style="stroke:#181818;stroke-width:1.0;"/></g><!--MD5=[863bb6fb6a4da20c797451ea62162d6b]
@startuml emex_exchange_flow

(*) - -> "IR(IR_EMEX_DATA_EXCHANGE32)"
- -> "DR32(Address)" as addr
- -> "DR32(Data)"
- -> if "more transfers?"
  - - - -> addr
else
  - -> [n] "IR(<any>)"
  - -> (*)
endif

@enduml

PlantUML version 1.2022.8(Sun Sep 25 11:00:33 CEST 2022)
(GPL source distribution)
Java Runtime: OpenJDK Runtime Environment
JVM: OpenJDK 64-Bit Server VM
Default Encoding: UTF-8
Language: en
Country: US
--></g></svg>