<?xml version="1.0" encoding="UTF-8" standalone="no"?>
<svg
   version="1.1"
   width="4.5247278cm"
   height="2.1219158cm"
   viewBox="0 0 17813.889 8353.9997"
   id="svg644"
   sodipodi:docname="Connectors.svg"
   inkscape:version="1.1.2 (0a00cf5339, 2022-02-04, custom)"
   xmlns:inkscape="http://www.inkscape.org/namespaces/inkscape"
   xmlns:sodipodi="http://sodipodi.sourceforge.net/DTD/sodipodi-0.dtd"
   xmlns="http://www.w3.org/2000/svg"
   xmlns:svg="http://www.w3.org/2000/svg"
   xmlns:rdf="http://www.w3.org/1999/02/22-rdf-syntax-ns#"
   xmlns:cc="http://creativecommons.org/ns#"
   xmlns:dc="http://purl.org/dc/elements/1.1/">
  <defs
     id="defs648" />
  <sodipodi:namedview
     id="namedview646"
     pagecolor="#ffffff"
     bordercolor="#666666"
     borderopacity="1.0"
     inkscape:pageshadow="2"
     inkscape:pageopacity="0.0"
     inkscape:pagecheckerboard="0"
     inkscape:document-units="cm"
     showgrid="false"
     inkscape:zoom="1.0053822"
     inkscape:cx="227.27674"
     inkscape:cy="150.68896"
     inkscape:window-width="1920"
     inkscape:window-height="991"
     inkscape:window-x="-9"
     inkscape:window-y="-9"
     inkscape:window-maximized="1"
     inkscape:current-layer="svg644" />
  <title
     id="title2">SVG Picture created as TestSchematic.svg date 2023/02/13 06:24:23 </title>
  <desc
     id="desc4">Picture generated by Eeschema-SVG </desc>
  <g
     style="fill:#000000;fill-opacity:1;stroke:#000000;stroke-linecap:round;stroke-linejoin:round;stroke-opacity:1"
     id="g6"
     transform="translate(-34795.009,-25696)" />
  <g
     style="fill:#000000;fill-opacity:0;stroke:#000000;stroke-width:60;stroke-linecap:round;stroke-linejoin:round;stroke-opacity:1"
     id="g302"
     transform="translate(-34795.009,-25696)">
    <g
       id="g8" />
    <g
       style="fill:#840000;fill-opacity:0;stroke:#840000;stroke-width:60;stroke-linecap:round;stroke-linejoin:round;stroke-opacity:1"
       id="g10" />
    <g
       style="fill:#ffffc2;fill-opacity:0;stroke:#ffffc2;stroke-width:60;stroke-linecap:round;stroke-linejoin:round;stroke-opacity:1"
       id="g12" />
    <g
       style="fill:#ffffc2;fill-opacity:0.6;stroke:#ffffc2;stroke-width:0.03937;stroke-linecap:round;stroke-linejoin:round;stroke-opacity:1"
       id="g16">
      <rect
         x="42000"
         y="27000"
         width="2000"
         height="7000"
         rx="0.000000"
         id="rect14" />
    </g>
    <g
       style="fill:#840000;fill-opacity:0.6;stroke:#840000;stroke-width:0.03937;stroke-linecap:round;stroke-linejoin:round;stroke-opacity:1"
       id="g18" />
    <g
       style="fill:#840000;fill-opacity:0;stroke:#840000;stroke-width:100;stroke-linecap:round;stroke-linejoin:round;stroke-opacity:1"
       id="g22">
      <rect
         x="42000"
         y="27000"
         width="2000"
         height="7000"
         rx="0.000000"
         id="rect20" />
    </g>
    <g
       style="fill:#840000;fill-opacity:0;stroke:#840000;stroke-width:60;stroke-linecap:round;stroke-linejoin:round;stroke-opacity:1"
       id="g38">
      <rect
         x="42000"
         y="33450"
         width="500"
         height="100"
         rx="0.000000"
         id="rect24" />
      <rect
         x="42000"
         y="32450"
         width="500"
         height="100"
         rx="0.000000"
         id="rect26" />
      <rect
         x="42000"
         y="31450"
         width="500"
         height="100"
         rx="0.000000"
         id="rect28" />
      <rect
         x="42000"
         y="30450"
         width="500"
         height="100"
         rx="0.000000"
         id="rect30" />
      <rect
         x="42000"
         y="29450"
         width="500"
         height="100"
         rx="0.000000"
         id="rect32" />
      <rect
         x="42000"
         y="28450"
         width="500"
         height="100"
         rx="0.000000"
         id="rect34" />
      <rect
         x="42000"
         y="27450"
         width="500"
         height="100"
         rx="0.000000"
         id="rect36" />
    </g>
    <g
       style="fill:#840000;fill-opacity:0;stroke:#840000;stroke-width:100;stroke-linecap:round;stroke-linejoin:round;stroke-opacity:1"
       id="g42">
      <rect
         x="42000"
         y="27000"
         width="2000"
         height="7000"
         rx="0.000000"
         id="rect40" />
    </g>
    <g
       style="fill:#840000;fill-opacity:0;stroke:#840000;stroke-width:60;stroke-linecap:round;stroke-linejoin:round;stroke-opacity:1"
       id="g60">
      <rect
         x="43500"
         y="33450"
         width="500"
         height="100"
         rx="0.000000"
         id="rect44" />
      <rect
         x="43500"
         y="32450"
         width="500"
         height="100"
         rx="0.000000"
         id="rect46" />
      <rect
         x="43500"
         y="31450"
         width="500"
         height="100"
         rx="0.000000"
         id="rect48" />
      <rect
         x="43500"
         y="30450"
         width="500"
         height="100"
         rx="0.000000"
         id="rect50" />
      <rect
         x="43500"
         y="29450"
         width="500"
         height="100"
         rx="0.000000"
         id="rect52" />
      <rect
         x="43500"
         y="28450"
         width="500"
         height="100"
         rx="0.000000"
         id="rect54" />
      <rect
         x="43500"
         y="27450"
         width="500"
         height="100"
         rx="0.000000"
         id="rect56" />
      <path
         d="M 42000,27500 H 40500"
         id="path58" />
    </g>
    <g
       style="fill:#a90000;fill-opacity:0;stroke:#a90000;stroke-width:60;stroke-linecap:round;stroke-linejoin:round;stroke-opacity:1"
       id="g72">
      <text
         x="41250"
         y="27400"
         textLength="538.70081"
         font-size="666.654px"
         lengthAdjust="spacingAndGlyphs"
         text-anchor="middle"
         opacity="0"
         id="text62">1</text>
      <g
         class="stroked-text"
         id="g70">
        <desc
           id="desc64">1</desc>
        <path
           d="m 41392,27376 h -285"
           id="path66" />
        <path
           d="m 41250,27376 v -500 l -48,71 -48,48 -47,24"
           id="path68" />
      </g>
    </g>
    <g
       style="fill:#840000;fill-opacity:0;stroke:#840000;stroke-width:60;stroke-linecap:round;stroke-linejoin:round;stroke-opacity:1"
       id="g76">
      <path
         d="m 44000,31500 h 1500"
         id="path74" />
    </g>
    <g
       style="fill:#a90000;fill-opacity:0;stroke:#a90000;stroke-width:60;stroke-linecap:round;stroke-linejoin:round;stroke-opacity:1"
       id="g90">
      <text
         x="44750"
         y="31400"
         textLength="1012.3622"
         font-size="666.654px"
         lengthAdjust="spacingAndGlyphs"
         text-anchor="middle"
         opacity="0"
         id="text78">10</text>
      <g
         class="stroked-text"
         id="g88">
        <desc
           id="desc80">10</desc>
        <path
           d="m 44654,31376 h -285"
           id="path82" />
        <path
           d="m 44511,31376 v -500 l -47,71 -48,48 -47,24"
           id="path84" />
        <path
           d="m 44964,30876 h 47 l 48,24 24,23 24,48 23,95 v 119 l -23,95 -24,48 -24,24 -48,24 h -47 l -48,-24 -24,-24 -23,-48 -24,-95 v -119 l 24,-95 23,-48 24,-23 48,-24"
           id="path86" />
      </g>
    </g>
    <g
       style="fill:#840000;fill-opacity:0;stroke:#840000;stroke-width:60;stroke-linecap:round;stroke-linejoin:round;stroke-opacity:1"
       id="g94">
      <path
         d="M 42000,32500 H 40500"
         id="path92" />
    </g>
    <g
       style="fill:#a90000;fill-opacity:0;stroke:#a90000;stroke-width:60;stroke-linecap:round;stroke-linejoin:round;stroke-opacity:1"
       id="g110">
      <text
         x="41250"
         y="32400"
         textLength="1012.3622"
         font-size="666.654px"
         lengthAdjust="spacingAndGlyphs"
         text-anchor="middle"
         opacity="0"
         id="text96">11</text>
      <g
         class="stroked-text"
         id="g108">
        <desc
           id="desc98">11</desc>
        <path
           d="m 41154,32376 h -285"
           id="path100" />
        <path
           d="m 41011,32376 v -500 l -47,71 -48,48 -47,24"
           id="path102" />
        <path
           d="m 41630,32376 h -285"
           id="path104" />
        <path
           d="m 41488,32376 v -500 l -48,71 -48,48 -47,24"
           id="path106" />
      </g>
    </g>
    <g
       style="fill:#840000;fill-opacity:0;stroke:#840000;stroke-width:60;stroke-linecap:round;stroke-linejoin:round;stroke-opacity:1"
       id="g114">
      <path
         d="m 44000,32500 h 1500"
         id="path112" />
    </g>
    <g
       style="fill:#a90000;fill-opacity:0;stroke:#a90000;stroke-width:60;stroke-linecap:round;stroke-linejoin:round;stroke-opacity:1"
       id="g128">
      <text
         x="44750"
         y="32400"
         textLength="1012.3622"
         font-size="666.654px"
         lengthAdjust="spacingAndGlyphs"
         text-anchor="middle"
         opacity="0"
         id="text116">12</text>
      <g
         class="stroked-text"
         id="g126">
        <desc
           id="desc118">12</desc>
        <path
           d="m 44654,32376 h -285"
           id="path120" />
        <path
           d="m 44511,32376 v -500 l -47,71 -48,48 -47,24"
           id="path122" />
        <path
           d="m 44845,31923 24,-23 47,-24 h 119 l 48,24 24,23 23,48 v 48 l -23,71 -286,286 h 309"
           id="path124" />
      </g>
    </g>
    <g
       style="fill:#840000;fill-opacity:0;stroke:#840000;stroke-width:60;stroke-linecap:round;stroke-linejoin:round;stroke-opacity:1"
       id="g132">
      <path
         d="M 42000,33500 H 40500"
         id="path130" />
    </g>
    <g
       style="fill:#a90000;fill-opacity:0;stroke:#a90000;stroke-width:60;stroke-linecap:round;stroke-linejoin:round;stroke-opacity:1"
       id="g146">
      <text
         x="41250"
         y="33400"
         textLength="1012.3622"
         font-size="666.654px"
         lengthAdjust="spacingAndGlyphs"
         text-anchor="middle"
         opacity="0"
         id="text134">13</text>
      <g
         class="stroked-text"
         id="g144">
        <desc
           id="desc136">13</desc>
        <path
           d="m 41154,33376 h -285"
           id="path138" />
        <path
           d="m 41011,33376 v -500 l -47,71 -48,48 -47,24"
           id="path140" />
        <path
           d="m 41321,32876 h 309 l -166,190 h 71 l 48,24 24,24 23,47 v 119 l -23,48 -24,24 -48,24 h -143 l -47,-24 -24,-24"
           id="path142" />
      </g>
    </g>
    <g
       style="fill:#840000;fill-opacity:0;stroke:#840000;stroke-width:60;stroke-linecap:round;stroke-linejoin:round;stroke-opacity:1"
       id="g150">
      <path
         d="m 44000,33500 h 1500"
         id="path148" />
    </g>
    <g
       style="fill:#a90000;fill-opacity:0;stroke:#a90000;stroke-width:60;stroke-linecap:round;stroke-linejoin:round;stroke-opacity:1"
       id="g166">
      <text
         x="44750"
         y="33400"
         textLength="1012.3622"
         font-size="666.654px"
         lengthAdjust="spacingAndGlyphs"
         text-anchor="middle"
         opacity="0"
         id="text152">14</text>
      <g
         class="stroked-text"
         id="g164">
        <desc
           id="desc154">14</desc>
        <path
           d="m 44654,33376 h -285"
           id="path156" />
        <path
           d="m 44511,33376 v -500 l -47,71 -48,48 -47,24"
           id="path158" />
        <path
           d="m 45083,33042 v 334"
           id="path160" />
        <path
           d="m 44964,32852 -119,357 h 309"
           id="path162" />
      </g>
    </g>
    <g
       style="fill:#840000;fill-opacity:0;stroke:#840000;stroke-width:60;stroke-linecap:round;stroke-linejoin:round;stroke-opacity:1"
       id="g170">
      <path
         d="m 44000,27500 h 1500"
         id="path168" />
    </g>
    <g
       style="fill:#a90000;fill-opacity:0;stroke:#a90000;stroke-width:60;stroke-linecap:round;stroke-linejoin:round;stroke-opacity:1"
       id="g180">
      <text
         x="44750"
         y="27400"
         textLength="536.18109"
         font-size="666.654px"
         lengthAdjust="spacingAndGlyphs"
         text-anchor="middle"
         opacity="0"
         id="text172">2</text>
      <g
         class="stroked-text"
         id="g178">
        <desc
           id="desc174">2</desc>
        <path
           d="m 44607,26923 23,-23 48,-24 h 119 l 48,24 24,23 23,48 v 48 l -23,71 -286,286 h 309"
           id="path176" />
      </g>
    </g>
    <g
       style="fill:#840000;fill-opacity:0;stroke:#840000;stroke-width:60;stroke-linecap:round;stroke-linejoin:round;stroke-opacity:1"
       id="g184">
      <path
         d="M 42000,28500 H 40500"
         id="path182" />
    </g>
    <g
       style="fill:#a90000;fill-opacity:0;stroke:#a90000;stroke-width:60;stroke-linecap:round;stroke-linejoin:round;stroke-opacity:1"
       id="g194">
      <text
         x="41250"
         y="28400"
         textLength="536.18109"
         font-size="666.654px"
         lengthAdjust="spacingAndGlyphs"
         text-anchor="middle"
         opacity="0"
         id="text186">3</text>
      <g
         class="stroked-text"
         id="g192">
        <desc
           id="desc188">3</desc>
        <path
           d="m 41083,27876 h 309 l -166,190 h 71 l 48,24 24,24 23,47 v 119 l -23,48 -24,24 -48,24 h -143 l -47,-24 -24,-24"
           id="path190" />
      </g>
    </g>
    <g
       style="fill:#840000;fill-opacity:0;stroke:#840000;stroke-width:60;stroke-linecap:round;stroke-linejoin:round;stroke-opacity:1"
       id="g198">
      <path
         d="m 44000,28500 h 1500"
         id="path196" />
    </g>
    <g
       style="fill:#a90000;fill-opacity:0;stroke:#a90000;stroke-width:60;stroke-linecap:round;stroke-linejoin:round;stroke-opacity:1"
       id="g210">
      <text
         x="44750"
         y="28400"
         textLength="536.18109"
         font-size="666.654px"
         lengthAdjust="spacingAndGlyphs"
         text-anchor="middle"
         opacity="0"
         id="text200">4</text>
      <g
         class="stroked-text"
         id="g208">
        <desc
           id="desc202">4</desc>
        <path
           d="m 44845,28042 v 334"
           id="path204" />
        <path
           d="m 44726,27852 -119,357 h 309"
           id="path206" />
      </g>
    </g>
    <g
       style="fill:#840000;fill-opacity:0;stroke:#840000;stroke-width:60;stroke-linecap:round;stroke-linejoin:round;stroke-opacity:1"
       id="g214">
      <path
         d="M 42000,29500 H 40500"
         id="path212" />
    </g>
    <g
       style="fill:#a90000;fill-opacity:0;stroke:#a90000;stroke-width:60;stroke-linecap:round;stroke-linejoin:round;stroke-opacity:1"
       id="g224">
      <text
         x="41250"
         y="29400"
         textLength="536.18109"
         font-size="666.654px"
         lengthAdjust="spacingAndGlyphs"
         text-anchor="middle"
         opacity="0"
         id="text216">5</text>
      <g
         class="stroked-text"
         id="g222">
        <desc
           id="desc218">5</desc>
        <path
           d="m 41369,28876 h -239 l -23,238 23,-24 48,-24 h 119 l 48,24 24,24 23,47 v 119 l -23,48 -24,24 -48,24 h -119 l -48,-24 -23,-24"
           id="path220" />
      </g>
    </g>
    <g
       style="fill:#840000;fill-opacity:0;stroke:#840000;stroke-width:60;stroke-linecap:round;stroke-linejoin:round;stroke-opacity:1"
       id="g228">
      <path
         d="m 44000,29500 h 1500"
         id="path226" />
    </g>
    <g
       style="fill:#a90000;fill-opacity:0;stroke:#a90000;stroke-width:60;stroke-linecap:round;stroke-linejoin:round;stroke-opacity:1"
       id="g238">
      <text
         x="44750"
         y="29400"
         textLength="536.18109"
         font-size="666.654px"
         lengthAdjust="spacingAndGlyphs"
         text-anchor="middle"
         opacity="0"
         id="text230">6</text>
      <g
         class="stroked-text"
         id="g236">
        <desc
           id="desc232">6</desc>
        <path
           d="m 44845,28876 h -95 l -48,24 -24,23 -48,72 -23,95 v 190 l 23,48 24,24 48,24 h 95 l 48,-24 24,-24 23,-48 v -119 l -23,-47 -24,-24 -48,-24 h -95 l -48,24 -24,24 -23,47"
           id="path234" />
      </g>
    </g>
    <g
       style="fill:#840000;fill-opacity:0;stroke:#840000;stroke-width:60;stroke-linecap:round;stroke-linejoin:round;stroke-opacity:1"
       id="g242">
      <path
         d="M 42000,30500 H 40500"
         id="path240" />
    </g>
    <g
       style="fill:#a90000;fill-opacity:0;stroke:#a90000;stroke-width:60;stroke-linecap:round;stroke-linejoin:round;stroke-opacity:1"
       id="g252">
      <text
         x="41250"
         y="30400"
         textLength="536.18109"
         font-size="666.654px"
         lengthAdjust="spacingAndGlyphs"
         text-anchor="middle"
         opacity="0"
         id="text244">7</text>
      <g
         class="stroked-text"
         id="g250">
        <desc
           id="desc246">7</desc>
        <path
           d="m 41083,29876 h 333 l -214,500"
           id="path248" />
      </g>
    </g>
    <g
       style="fill:#840000;fill-opacity:0;stroke:#840000;stroke-width:60;stroke-linecap:round;stroke-linejoin:round;stroke-opacity:1"
       id="g256">
      <path
         d="m 44000,30500 h 1500"
         id="path254" />
    </g>
    <g
       style="fill:#a90000;fill-opacity:0;stroke:#a90000;stroke-width:60;stroke-linecap:round;stroke-linejoin:round;stroke-opacity:1"
       id="g266">
      <text
         x="44750"
         y="30400"
         textLength="536.18109"
         font-size="666.654px"
         lengthAdjust="spacingAndGlyphs"
         text-anchor="middle"
         opacity="0"
         id="text258">8</text>
      <g
         class="stroked-text"
         id="g264">
        <desc
           id="desc260">8</desc>
        <path
           d="m 44702,30090 -48,-24 -24,-24 -23,-47 v -24 l 23,-48 24,-23 48,-24 h 95 l 48,24 24,23 23,48 v 24 l -23,47 -24,24 -48,24 h -95 l -48,24 -24,24 -23,47 v 95 l 23,48 24,24 48,24 h 95 l 48,-24 24,-24 23,-48 v -95 l -23,-47 -24,-24 -48,-24"
           id="path262" />
      </g>
    </g>
    <g
       style="fill:#840000;fill-opacity:0;stroke:#840000;stroke-width:60;stroke-linecap:round;stroke-linejoin:round;stroke-opacity:1"
       id="g270">
      <path
         d="M 42000,31500 H 40500"
         id="path268" />
    </g>
    <g
       style="fill:#a90000;fill-opacity:0;stroke:#a90000;stroke-width:60;stroke-linecap:round;stroke-linejoin:round;stroke-opacity:1"
       id="g280">
      <text
         x="41250"
         y="31400"
         textLength="536.18109"
         font-size="666.654px"
         lengthAdjust="spacingAndGlyphs"
         text-anchor="middle"
         opacity="0"
         id="text272">9</text>
      <g
         class="stroked-text"
         id="g278">
        <desc
           id="desc274">9</desc>
        <path
           d="m 41154,31376 h 96 l 47,-24 24,-24 48,-71 23,-96 v -190 l -23,-48 -24,-23 -48,-24 h -95 l -48,24 -24,23 -23,48 v 119 l 23,48 24,23 48,24 h 95 l 48,-24 24,-23 23,-48"
           id="path276" />
      </g>
    </g>
    <g
       style="fill:#006464;fill-opacity:0;stroke:#006464;stroke-width:60;stroke-linecap:round;stroke-linejoin:round;stroke-opacity:1"
       id="g300">
      <text
         x="43000"
         y="26249.961"
         textLength="1750.4724"
         font-size="666.654px"
         lengthAdjust="spacingAndGlyphs"
         text-anchor="middle"
         opacity="0"
         id="text282">JTAG</text>
      <g
         class="stroked-text"
         id="g298">
        <desc
           id="desc284">JTAG</desc>
        <path
           d="m 42416,25726 v 357 l -24,71 -47,48 -72,24 h -47"
           id="path286" />
        <path
           d="m 42583,25726 h 286"
           id="path288" />
        <path
           d="m 42726,26226 v -500"
           id="path290" />
        <path
           d="m 43011,26083 h 239"
           id="path292" />
        <path
           d="m 42964,26226 166,-500 167,500"
           id="path294" />
        <path
           d="m 43726,25749 -48,-23 h -71 l -72,23 -47,48 -24,48 -24,95 v 71 l 24,96 24,47 47,48 72,24 h 47 l 72,-24 24,-24 v -167 h -96"
           id="path296" />
      </g>
    </g>
  </g>
  <g
     style="fill:#006464;fill-opacity:0;stroke:#006464;stroke-width:60;stroke-linecap:round;stroke-linejoin:round;stroke-opacity:1"
     id="g324"
     transform="translate(-34795.009,-25696)">
    <g
       id="g304" />
    <g
       style="fill:#840000;fill-opacity:0;stroke:#840000;stroke-width:60;stroke-linecap:round;stroke-linejoin:round;stroke-opacity:1"
       id="g308">
      <path
         style="fill:none;fill-opacity:0;stroke:#840000;stroke-width:60;stroke-linecap:round;stroke-linejoin:round;stroke-opacity:1"
         d="m 38500,31500 h -500 v 500 l -500,-500 500,-500 v 500"
         id="path306" />
    </g>
    <g
       style="fill:#006464;fill-opacity:0;stroke:#006464;stroke-width:60;stroke-linecap:round;stroke-linejoin:round;stroke-opacity:1"
       id="g322">
      <text
         x="36206.812"
         y="31749.922"
         textLength="1583.8188"
         font-size="666.654px"
         lengthAdjust="spacingAndGlyphs"
         text-anchor="middle"
         opacity="0"
         id="text310">GND</text>
      <g
         class="stroked-text"
         id="g320">
        <desc
           id="desc312">GND</desc>
        <path
           d="m 35825,31249 -47,-23 h -72 l -71,23 -48,48 -24,48 -23,95 v 71 l 23,96 24,47 48,48 71,24 h 48 l 71,-24 24,-24 v -167 h -95"
           id="path314" />
        <path
           d="m 36063,31726 v -500 l 286,500 v -500"
           id="path316" />
        <path
           d="m 36587,31726 v -500 h 119 l 72,23 47,48 24,48 24,95 v 71 l -24,96 -24,47 -47,48 -72,24 h -119"
           id="path318" />
      </g>
    </g>
  </g>
  <g
     style="fill:#006464;fill-opacity:0;stroke:#006464;stroke-width:60;stroke-linecap:round;stroke-linejoin:round;stroke-opacity:1"
     id="g346"
     transform="translate(-34795.009,-25696)">
    <g
       id="g326" />
    <g
       style="fill:#840000;fill-opacity:0;stroke:#840000;stroke-width:60;stroke-linecap:round;stroke-linejoin:round;stroke-opacity:1"
       id="g330">
      <path
         style="fill:none;fill-opacity:0;stroke:#840000;stroke-width:60;stroke-linecap:round;stroke-linejoin:round;stroke-opacity:1"
         d="m 38500,33500 h -500 v 500 l -500,-500 500,-500 v 500"
         id="path328" />
    </g>
    <g
       style="fill:#006464;fill-opacity:0;stroke:#006464;stroke-width:60;stroke-linecap:round;stroke-linejoin:round;stroke-opacity:1"
       id="g344">
      <text
         x="36206.812"
         y="33749.922"
         textLength="1583.8188"
         font-size="666.654px"
         lengthAdjust="spacingAndGlyphs"
         text-anchor="middle"
         opacity="0"
         id="text332">GND</text>
      <g
         class="stroked-text"
         id="g342">
        <desc
           id="desc334">GND</desc>
        <path
           d="m 35825,33249 -47,-23 h -72 l -71,23 -48,48 -24,48 -23,95 v 71 l 23,96 24,47 48,48 71,24 h 48 l 71,-24 24,-24 v -167 h -95"
           id="path336" />
        <path
           d="m 36063,33726 v -500 l 286,500 v -500"
           id="path338" />
        <path
           d="m 36587,33726 v -500 h 119 l 72,23 47,48 24,48 24,95 v 71 l -24,96 -24,47 -47,48 -72,24 h -119"
           id="path340" />
      </g>
    </g>
  </g>
  <g
     style="fill:#006464;fill-opacity:0;stroke:#006464;stroke-width:62.5197;stroke-linecap:round;stroke-linejoin:round;stroke-opacity:1"
     id="g348"
     transform="translate(-34795.009,-25696)" />
  <g
     style="fill:#006464;fill-opacity:0;stroke:#006464;stroke-width:60;stroke-linecap:round;stroke-linejoin:round;stroke-opacity:1"
     id="g350"
     transform="translate(-34795.009,-25696)" />
  <g
     style="fill:#725600;fill-opacity:0;stroke:#725600;stroke-width:60;stroke-linecap:round;stroke-linejoin:round;stroke-opacity:1"
     id="g378"
     transform="translate(-34795.009,-25696)">
    <text
       x="48075"
       y="27750"
       textLength="3702.874"
       font-size="666.654px"
       lengthAdjust="spacingAndGlyphs"
       text-anchor="start"
       opacity="0"
       id="text352">VCC_TOOL</text>
    <g
       class="stroked-text"
       id="g374">
      <desc
         id="desc354">VCC_TOOL</desc>
      <path
         d="m 48152,27226 167,500 166,-500"
         id="path356" />
      <path
         d="m 48938,27678 -24,24 -71,24 h -48 l -71,-24 -48,-48 -24,-47 -24,-96 v -71 l 24,-95 24,-48 48,-47 71,-24 h 48 l 71,24 24,23"
         id="path358" />
      <path
         d="m 49438,27678 -24,24 -71,24 h -48 l -71,-24 -48,-48 -24,-47 -24,-96 v -71 l 24,-95 24,-48 48,-47 71,-24 h 48 l 71,24 24,23"
         id="path360" />
      <path
         d="m 49533,27773 h 381"
         id="path362" />
      <path
         d="m 49962,27226 h 285"
         id="path364" />
      <path
         d="m 50105,27726 v -500"
         id="path366" />
      <path
         d="m 50509,27226 h 96 l 47,24 48,47 24,95 v 167 l -24,95 -48,48 -47,24 h -96 l -47,-24 -48,-48 -24,-95 v -167 l 24,-95 48,-47 47,-24"
         id="path368" />
      <path
         d="m 51033,27226 h 95 l 48,24 48,47 23,95 v 167 l -23,95 -48,48 -48,24 h -95 l -48,-24 -47,-48 -24,-95 v -167 l 24,-95 47,-47 48,-24"
         id="path370" />
      <path
         d="m 51700,27726 h -238 v -500"
         id="path372" />
    </g>
    <path
       style="fill:none;fill-opacity:0;stroke:#725600;stroke-width:60;stroke-linecap:round;stroke-linejoin:round;stroke-opacity:1"
       d="m 48000,27500 -250,-250 h -250 v 500 h 250 z"
       id="path376" />
  </g>
  <g
     style="fill:#725600;fill-opacity:0;stroke:#725600;stroke-width:62.5197;stroke-linecap:round;stroke-linejoin:round;stroke-opacity:1"
     id="g380"
     transform="translate(-34795.009,-25696)" />
  <g
     style="fill:#725600;fill-opacity:0;stroke:#725600;stroke-width:60;stroke-linecap:round;stroke-linejoin:round;stroke-opacity:1"
     id="g420"
     transform="translate(-34795.009,-25696)">
    <text
       x="48075"
       y="28750"
       textLength="4512.3623"
       font-size="666.654px"
       lengthAdjust="spacingAndGlyphs"
       text-anchor="start"
       opacity="0"
       id="text382">VCC_TARGET</text>
    <g
       class="stroked-text"
       id="g416">
      <desc
         id="desc384">VCC_TARGET</desc>
      <path
         d="m 48152,28226 167,500 166,-500"
         id="path386" />
      <path
         d="m 48938,28678 -24,24 -71,24 h -48 l -71,-24 -48,-48 -24,-47 -24,-96 v -71 l 24,-95 24,-48 48,-47 71,-24 h 48 l 71,24 24,23"
         id="path388" />
      <path
         d="m 49438,28678 -24,24 -71,24 h -48 l -71,-24 -48,-48 -24,-47 -24,-96 v -71 l 24,-95 24,-48 48,-47 71,-24 h 48 l 71,24 24,23"
         id="path390" />
      <path
         d="m 49533,28773 h 381"
         id="path392" />
      <path
         d="m 49962,28226 h 285"
         id="path394" />
      <path
         d="m 50105,28726 v -500"
         id="path396" />
      <path
         d="m 50390,28583 h 238"
         id="path398" />
      <path
         d="m 50343,28726 166,-500 167,500"
         id="path400" />
      <path
         d="m 51128,28726 -166,-238"
         id="path402" />
      <path
         d="m 50843,28726 v -500 h 190 l 48,24 24,23 23,48 v 71 l -23,48 -24,24 -48,24 h -190"
         id="path404" />
      <path
         d="m 51605,28250 -48,-24 h -72 l -71,24 -48,47 -23,48 -24,95 v 71 l 24,96 23,47 48,48 71,24 h 48 l 72,-24 23,-24 v -167 h -95"
         id="path406" />
      <path
         d="m 51843,28464 h 166"
         id="path408" />
      <path
         d="m 52081,28726 h -238 v -500 h 238"
         id="path410" />
      <path
         d="m 52224,28226 h 285"
         id="path412" />
      <path
         d="m 52366,28726 v -500"
         id="path414" />
    </g>
    <path
       style="fill:none;fill-opacity:0;stroke:#725600;stroke-width:60;stroke-linecap:round;stroke-linejoin:round;stroke-opacity:1"
       d="m 47500,28500 250,250 h 250 v -500 h -250 z"
       id="path418" />
  </g>
  <g
     style="fill:#725600;fill-opacity:0;stroke:#725600;stroke-width:62.5197;stroke-linecap:round;stroke-linejoin:round;stroke-opacity:1"
     id="g422"
     transform="translate(-34795.009,-25696)" />
  <g
     style="fill:#725600;fill-opacity:0;stroke:#725600;stroke-width:60;stroke-linecap:round;stroke-linejoin:round;stroke-opacity:1"
     id="g446"
     transform="translate(-34795.009,-25696)">
    <text
       x="48075"
       y="30750"
       textLength="1750.4724"
       font-size="666.654px"
       lengthAdjust="spacingAndGlyphs"
       text-anchor="start"
       opacity="0"
       id="text424">TEST</text>
    <g
       class="stroked-text"
       id="g442">
      <desc
         id="desc426">TEST</desc>
      <path
         d="m 48152,30226 h 286"
         id="path428" />
      <path
         d="m 48295,30726 v -500"
         id="path430" />
      <path
         d="m 48605,30464 h 166"
         id="path432" />
      <path
         d="m 48843,30726 h -238 v -500 h 238"
         id="path434" />
      <path
         d="m 49033,30702 72,24 h 119 l 47,-24 24,-24 24,-48 v -47 l -24,-48 -24,-24 -47,-23 -96,-24 -47,-24 -24,-24 -24,-47 v -48 l 24,-48 24,-23 47,-24 h 119 l 72,24"
         id="path436" />
      <path
         d="m 49462,30226 h 285"
         id="path438" />
      <path
         d="m 49605,30726 v -500"
         id="path440" />
    </g>
    <path
       style="fill:none;fill-opacity:0;stroke:#725600;stroke-width:60;stroke-linecap:round;stroke-linejoin:round;stroke-opacity:1"
       d="m 48000,30500 -250,-250 h -250 v 500 h 250 z"
       id="path444" />
  </g>
  <g
     style="fill:#725600;fill-opacity:0;stroke:#725600;stroke-width:62.5197;stroke-linecap:round;stroke-linejoin:round;stroke-opacity:1"
     id="g448"
     transform="translate(-34795.009,-25696)" />
  <g
     style="fill:#725600;fill-opacity:0;stroke:#725600;stroke-width:60;stroke-linecap:round;stroke-linejoin:round;stroke-opacity:1"
     id="g468"
     transform="translate(-34795.009,-25696)">
    <text
       x="48075"
       y="33750"
       textLength="1536.1812"
       font-size="666.654px"
       lengthAdjust="spacingAndGlyphs"
       text-anchor="start"
       opacity="0"
       id="text450">RXD</text>
    <g
       class="stroked-text"
       id="g464">
      <desc
         id="desc452">RXD</desc>
      <path
         d="m 48509,33726 -166,-238"
         id="path454" />
      <path
         d="m 48224,33726 v -500 h 190 l 48,24 23,23 24,48 v 71 l -24,48 -23,24 -48,24 h -190"
         id="path456" />
      <path
         d="m 48676,33226 333,500"
         id="path458" />
      <path
         d="m 49009,33226 -333,500"
         id="path460" />
      <path
         d="m 49200,33726 v -500 h 119 l 71,24 48,47 24,48 23,95 v 71 l -23,96 -24,47 -48,48 -71,24 h -119"
         id="path462" />
    </g>
    <path
       style="fill:none;fill-opacity:0;stroke:#725600;stroke-width:60;stroke-linecap:round;stroke-linejoin:round;stroke-opacity:1"
       d="m 47500,33500 250,250 h 250 v -500 h -250 z"
       id="path466" />
  </g>
  <g
     style="fill:#725600;fill-opacity:0;stroke:#725600;stroke-width:62.5197;stroke-linecap:round;stroke-linejoin:round;stroke-opacity:1"
     id="g470"
     transform="translate(-34795.009,-25696)" />
  <g
     style="fill:#725600;fill-opacity:0;stroke:#725600;stroke-width:60;stroke-linecap:round;stroke-linejoin:round;stroke-opacity:1"
     id="g490"
     transform="translate(-34795.009,-25696)">
    <text
       x="48075"
       y="32750"
       textLength="1417.126"
       font-size="666.654px"
       lengthAdjust="spacingAndGlyphs"
       text-anchor="start"
       opacity="0"
       id="text472">TXD</text>
    <g
       class="stroked-text"
       id="g486">
      <desc
         id="desc474">TXD</desc>
      <path
         d="m 48152,32226 h 286"
         id="path476" />
      <path
         d="m 48295,32726 v -500"
         id="path478" />
      <path
         d="m 48557,32226 333,500"
         id="path480" />
      <path
         d="m 48890,32226 -333,500"
         id="path482" />
      <path
         d="m 49081,32726 v -500 h 119 l 71,24 48,47 24,48 23,95 v 71 l -23,96 -24,47 -48,48 -71,24 h -119"
         id="path484" />
    </g>
    <path
       style="fill:none;fill-opacity:0;stroke:#725600;stroke-width:60;stroke-linecap:round;stroke-linejoin:round;stroke-opacity:1"
       d="m 48000,32500 -250,-250 h -250 v 500 h 250 z"
       id="path488" />
  </g>
  <g
     style="fill:#725600;fill-opacity:0;stroke:#725600;stroke-width:62.5197;stroke-linecap:round;stroke-linejoin:round;stroke-opacity:1"
     id="g492"
     transform="translate(-34795.009,-25696)" />
  <g
     style="fill:#725600;fill-opacity:0;stroke:#725600;stroke-width:60;stroke-linecap:round;stroke-linejoin:round;stroke-opacity:1"
     id="g520"
     transform="translate(-34795.009,-25696)">
    <text
       x="37925"
       y="27750"
       textLength="3107.6377"
       font-size="666.654px"
       lengthAdjust="spacingAndGlyphs"
       text-anchor="end"
       opacity="0"
       id="text494">TDO/TDI</text>
    <g
       class="stroked-text"
       id="g516">
      <desc
         id="desc496">TDO/TDI</desc>
      <path
         d="m 34895,27226 h 285"
         id="path498" />
      <path
         d="m 35037,27726 v -500"
         id="path500" />
      <path
         d="m 35347,27726 v -500 h 119 l 71,24 48,47 24,48 24,95 v 71 l -24,96 -24,47 -48,48 -71,24 h -119"
         id="path502" />
      <path
         d="m 35942,27226 h 95 l 48,24 48,47 23,95 v 167 l -23,95 -48,48 -48,24 h -95 l -47,-24 -48,-48 -24,-95 v -167 l 24,-95 48,-47 47,-24"
         id="path504" />
      <path
         d="m 36728,27202 -429,643"
         id="path506" />
      <path
         d="m 36823,27226 h 286"
         id="path508" />
      <path
         d="m 36966,27726 v -500"
         id="path510" />
      <path
         d="m 37275,27726 v -500 h 120 l 71,24 48,47 23,48 24,95 v 71 l -24,96 -23,47 -48,48 -71,24 h -120"
         id="path512" />
      <path
         d="m 37775,27726 v -500"
         id="path514" />
    </g>
    <path
       style="fill:none;fill-opacity:0;stroke:#725600;stroke-width:60;stroke-linecap:round;stroke-linejoin:round;stroke-opacity:1"
       d="m 38500,27500 -250,-250 -250,250 250,250 z"
       id="path518" />
  </g>
  <g
     style="fill:#725600;fill-opacity:0;stroke:#725600;stroke-width:62.5197;stroke-linecap:round;stroke-linejoin:round;stroke-opacity:1"
     id="g522"
     transform="translate(-34795.009,-25696)" />
  <g
     style="fill:#725600;fill-opacity:0;stroke:#725600;stroke-width:60;stroke-linecap:round;stroke-linejoin:round;stroke-opacity:1"
     id="g540"
     transform="translate(-34795.009,-25696)">
    <text
       x="37925"
       y="28750"
       textLength="1179.0552"
       font-size="666.654px"
       lengthAdjust="spacingAndGlyphs"
       text-anchor="end"
       opacity="0"
       id="text524">TDI</text>
    <g
       class="stroked-text"
       id="g536">
      <desc
         id="desc526">TDI</desc>
      <path
         d="m 36823,28226 h 286"
         id="path528" />
      <path
         d="m 36966,28726 v -500"
         id="path530" />
      <path
         d="m 37275,28726 v -500 h 120 l 71,24 48,47 23,48 24,95 v 71 l -24,96 -23,47 -48,48 -71,24 h -120"
         id="path532" />
      <path
         d="m 37775,28726 v -500"
         id="path534" />
    </g>
    <path
       style="fill:none;fill-opacity:0;stroke:#725600;stroke-width:60;stroke-linecap:round;stroke-linejoin:round;stroke-opacity:1"
       d="m 38000,28500 250,250 h 250 v -500 h -250 z"
       id="path538" />
  </g>
  <g
     style="fill:#725600;fill-opacity:0;stroke:#725600;stroke-width:62.5197;stroke-linecap:round;stroke-linejoin:round;stroke-opacity:1"
     id="g542"
     transform="translate(-34795.009,-25696)" />
  <g
     style="fill:#725600;fill-opacity:0;stroke:#725600;stroke-width:60;stroke-linecap:round;stroke-linejoin:round;stroke-opacity:1"
     id="g560"
     transform="translate(-34795.009,-25696)">
    <text
       x="37925"
       y="29750"
       textLength="1488.5826"
       font-size="666.654px"
       lengthAdjust="spacingAndGlyphs"
       text-anchor="end"
       opacity="0"
       id="text544">TMS</text>
    <g
       class="stroked-text"
       id="g556">
      <desc
         id="desc546">TMS</desc>
      <path
         d="m 36514,29226 h 285"
         id="path548" />
      <path
         d="m 36656,29726 v -500"
         id="path550" />
      <path
         d="m 36966,29726 v -500 l 167,357 166,-357 v 500"
         id="path552" />
      <path
         d="m 37514,29702 71,24 h 119 l 48,-24 23,-24 24,-48 v -47 l -24,-48 -23,-24 -48,-23 -95,-24 -48,-24 -24,-24 -23,-47 v -48 l 23,-48 24,-23 48,-24 h 119 l 71,24"
         id="path554" />
    </g>
    <path
       style="fill:none;fill-opacity:0;stroke:#725600;stroke-width:60;stroke-linecap:round;stroke-linejoin:round;stroke-opacity:1"
       d="m 38000,29500 250,250 h 250 v -500 h -250 z"
       id="path558" />
  </g>
  <g
     style="fill:#725600;fill-opacity:0;stroke:#725600;stroke-width:62.5197;stroke-linecap:round;stroke-linejoin:round;stroke-opacity:1"
     id="g562"
     transform="translate(-34795.009,-25696)" />
  <g
     style="fill:#725600;fill-opacity:0;stroke:#725600;stroke-width:60;stroke-linecap:round;stroke-linejoin:round;stroke-opacity:1"
     id="g584"
     transform="translate(-34795.009,-25696)">
    <text
       x="37925"
       y="30750"
       textLength="1440.9448"
       font-size="666.654px"
       lengthAdjust="spacingAndGlyphs"
       text-anchor="end"
       opacity="0"
       id="text564">TCK</text>
    <g
       class="stroked-text"
       id="g580">
      <desc
         id="desc566">TCK</desc>
      <path
         d="m 36561,30226 h 286"
         id="path568" />
      <path
         d="m 36704,30726 v -500"
         id="path570" />
      <path
         d="m 37299,30678 -24,24 -71,24 h -48 l -71,-24 -48,-48 -23,-47 -24,-96 v -71 l 24,-95 23,-48 48,-47 71,-24 h 48 l 71,24 24,23"
         id="path572" />
      <path
         d="m 37514,30726 v -500"
         id="path574" />
      <path
         d="m 37799,30726 -214,-286"
         id="path576" />
      <path
         d="m 37799,30226 -285,285"
         id="path578" />
    </g>
    <path
       style="fill:none;fill-opacity:0;stroke:#725600;stroke-width:60;stroke-linecap:round;stroke-linejoin:round;stroke-opacity:1"
       d="m 38000,30500 250,250 h 250 v -500 h -250 z"
       id="path582" />
  </g>
  <g
     style="fill:#725600;fill-opacity:0;stroke:#725600;stroke-width:62.5197;stroke-linecap:round;stroke-linejoin:round;stroke-opacity:1"
     id="g586"
     transform="translate(-34795.009,-25696)" />
  <g
     style="fill:#725600;fill-opacity:0;stroke:#725600;stroke-width:60;stroke-linecap:round;stroke-linejoin:round;stroke-opacity:1"
     id="g606"
     transform="translate(-34795.009,-25696)">
    <text
       x="37925"
       y="32750"
       textLength="1417.126"
       font-size="666.654px"
       lengthAdjust="spacingAndGlyphs"
       text-anchor="end"
       opacity="0"
       id="text588">RST</text>
    <g
       class="stroked-text"
       id="g602">
      <desc
         id="desc590">RST</desc>
      <path
         d="m 36942,32726 -167,-238"
         id="path592" />
      <path
         d="m 36656,32726 v -500 h 191 l 48,24 23,23 24,48 v 71 l -24,48 -23,24 -48,24 h -191"
         id="path594" />
      <path
         d="m 37133,32702 71,24 h 119 l 48,-24 24,-24 23,-48 v -47 l -23,-48 -24,-24 -48,-23 -95,-24 -48,-24 -24,-24 -23,-47 v -48 l 23,-48 24,-23 48,-24 h 119 l 71,24"
         id="path596" />
      <path
         d="m 37561,32226 h 286"
         id="path598" />
      <path
         d="m 37704,32726 v -500"
         id="path600" />
    </g>
    <path
       style="fill:none;fill-opacity:0;stroke:#725600;stroke-width:60;stroke-linecap:round;stroke-linejoin:round;stroke-opacity:1"
       d="m 38000,32500 250,250 h 250 v -500 h -250 z"
       id="path604" />
  </g>
  <g
     style="fill:#009600;fill-opacity:0;stroke:#009600;stroke-width:60;stroke-linecap:round;stroke-linejoin:round;stroke-opacity:1"
     id="g632"
     transform="translate(-34795.009,-25696)">
    <path
       d="m 45500,33500 h 2000"
       id="path608" />
    <path
       d="m 45500,27500 h 2000"
       id="path610" />
    <path
       d="m 45500,28500 h 2000"
       id="path612" />
    <path
       d="m 45500,30500 h 2000"
       id="path614" />
    <path
       d="m 45500,32500 h 2000"
       id="path616" />
    <path
       d="m 38500,32500 h 2000"
       id="path618" />
    <path
       d="m 38500,33500 h 2000"
       id="path620" />
    <path
       d="m 38500,27500 h 2000"
       id="path622" />
    <path
       d="m 38500,28500 h 2000"
       id="path624" />
    <path
       d="m 38500,29500 h 2000"
       id="path626" />
    <path
       d="m 38500,30500 h 2000"
       id="path628" />
    <path
       d="m 38500,31500 h 2000"
       id="path630" />
  </g>
  <g
     style="fill:#000084;fill-opacity:0;stroke:#000084;stroke-width:60;stroke-linecap:round;stroke-linejoin:round;stroke-opacity:1"
     id="g642"
     transform="translate(-34795.009,-25696)">
    <path
       d="m 45260,29260 480,480"
       id="path634" />
    <path
       d="m 45740,29260 -480,480"
       id="path636" />
    <path
       d="m 45260,31260 480,480"
       id="path638" />
    <path
       d="m 45740,31260 -480,480"
       id="path640" />
  </g>
  <metadata
     id="metadata1465">
    <rdf:RDF>
      <cc:Work
         rdf:about="">
        <dc:title>SVG Picture created as TestSchematic.svg date 2023/02/13 06:24:23 </dc:title>
      </cc:Work>
    </rdf:RDF>
  </metadata>
</svg>
