G04 #@! TF.GenerationSoftware,KiCad,Pcbnew,(6.0.7)*
G04 #@! TF.CreationDate,2022-09-17T20:40:59+02:00*
G04 #@! TF.ProjectId,FR2476,46523234-3736-42e6-9b69-6361645f7063,rev?*
G04 #@! TF.SameCoordinates,Original*
G04 #@! TF.FileFunction,Soldermask,Bot*
G04 #@! TF.FilePolarity,Negative*
%FSLAX46Y46*%
G04 Gerber Fmt 4.6, Leading zero omitted, Abs format (unit mm)*
G04 Created by KiCad (PCBNEW (6.0.7)) date 2022-09-17 20:40:59*
%MOMM*%
%LPD*%
G01*
G04 APERTURE LIST*
G04 Aperture macros list*
%AMRoundRect*
0 Rectangle with rounded corners*
0 $1 Rounding radius*
0 $2 $3 $4 $5 $6 $7 $8 $9 X,Y pos of 4 corners*
0 Add a 4 corners polygon primitive as box body*
4,1,4,$2,$3,$4,$5,$6,$7,$8,$9,$2,$3,0*
0 Add four circle primitives for the rounded corners*
1,1,$1+$1,$2,$3*
1,1,$1+$1,$4,$5*
1,1,$1+$1,$6,$7*
1,1,$1+$1,$8,$9*
0 Add four rect primitives between the rounded corners*
20,1,$1+$1,$2,$3,$4,$5,0*
20,1,$1+$1,$4,$5,$6,$7,0*
20,1,$1+$1,$6,$7,$8,$9,0*
20,1,$1+$1,$8,$9,$2,$3,0*%
G04 Aperture macros list end*
%ADD10RoundRect,0.250000X-0.600000X-0.600000X0.600000X-0.600000X0.600000X0.600000X-0.600000X0.600000X0*%
%ADD11C,1.700000*%
%ADD12R,1.700000X1.700000*%
%ADD13O,1.700000X1.700000*%
%ADD14C,1.450000*%
%ADD15O,1.900000X1.200000*%
%ADD16R,1.350000X1.350000*%
%ADD17O,1.350000X1.350000*%
G04 APERTURE END LIST*
D10*
X113400000Y-95950000D03*
D11*
X115940000Y-95950000D03*
X113400000Y-98490000D03*
X115940000Y-98490000D03*
X113400000Y-101030000D03*
X115940000Y-101030000D03*
X113400000Y-103570000D03*
X115940000Y-103570000D03*
X113400000Y-106110000D03*
X115940000Y-106110000D03*
X113400000Y-108650000D03*
X115940000Y-108650000D03*
X113400000Y-111190000D03*
X115940000Y-111190000D03*
D12*
X134670000Y-121053000D03*
D13*
X137210000Y-121053000D03*
X139750000Y-121053000D03*
X142290000Y-121053000D03*
X144830000Y-121053000D03*
X147370000Y-121053000D03*
X149910000Y-121053000D03*
X152450000Y-121053000D03*
D12*
X134670000Y-84985000D03*
D13*
X137210000Y-84985000D03*
X139750000Y-84985000D03*
X142290000Y-84985000D03*
X144830000Y-84985000D03*
X147370000Y-84985000D03*
X149910000Y-84985000D03*
X152450000Y-84985000D03*
D12*
X157530000Y-84985000D03*
D13*
X160070000Y-84985000D03*
X162610000Y-84985000D03*
X165150000Y-84985000D03*
X167690000Y-84985000D03*
X170230000Y-84985000D03*
X172770000Y-84985000D03*
X175310000Y-84985000D03*
D12*
X111810000Y-121053000D03*
D13*
X114350000Y-121053000D03*
X116890000Y-121053000D03*
X119430000Y-121053000D03*
X121970000Y-121053000D03*
X124510000Y-121053000D03*
X127050000Y-121053000D03*
X129590000Y-121053000D03*
D12*
X165600000Y-89800000D03*
D13*
X163060000Y-89800000D03*
D12*
X157530000Y-121053000D03*
D13*
X160070000Y-121053000D03*
X162610000Y-121053000D03*
X165150000Y-121053000D03*
X167690000Y-121053000D03*
X170230000Y-121053000D03*
X172770000Y-121053000D03*
X175310000Y-121053000D03*
D12*
X155000000Y-93400000D03*
D13*
X157540000Y-93400000D03*
X160080000Y-93400000D03*
D12*
X155000000Y-97000000D03*
D13*
X157540000Y-97000000D03*
X160080000Y-97000000D03*
D12*
X155000000Y-112600000D03*
D13*
X157540000Y-112600000D03*
X160080000Y-112600000D03*
D12*
X155000000Y-109000000D03*
D13*
X157540000Y-109000000D03*
X160080000Y-109000000D03*
D14*
X172847500Y-100500000D03*
D15*
X175547500Y-99350000D03*
X175547500Y-106550000D03*
D14*
X172847500Y-105400000D03*
D12*
X112300000Y-87180000D03*
D13*
X114840000Y-87180000D03*
X117380000Y-87180000D03*
D16*
X165350000Y-101050000D03*
D17*
X165350000Y-103050000D03*
X165350000Y-105050000D03*
X169850000Y-101050000D03*
X169850000Y-103050000D03*
X169850000Y-105050000D03*
D12*
X125400000Y-96000000D03*
D13*
X127940000Y-96000000D03*
X125400000Y-98540000D03*
X127940000Y-98540000D03*
X125400000Y-101080000D03*
X127940000Y-101080000D03*
X125400000Y-103620000D03*
X127940000Y-103620000D03*
X125400000Y-106160000D03*
X127940000Y-106160000D03*
X125400000Y-108700000D03*
X127940000Y-108700000D03*
D12*
X124510000Y-84985000D03*
D13*
X127050000Y-84985000D03*
X129590000Y-84985000D03*
M02*
