G04 #@! TF.GenerationSoftware,KiCad,Pcbnew,(6.0.7)*
G04 #@! TF.CreationDate,2022-09-17T20:40:59+02:00*
G04 #@! TF.ProjectId,FR2476,46523234-3736-42e6-9b69-6361645f7063,rev?*
G04 #@! TF.SameCoordinates,Original*
G04 #@! TF.FileFunction,Copper,L2,Bot*
G04 #@! TF.FilePolarity,Positive*
%FSLAX46Y46*%
G04 Gerber Fmt 4.6, Leading zero omitted, Abs format (unit mm)*
G04 Created by KiCad (PCBNEW (6.0.7)) date 2022-09-17 20:40:59*
%MOMM*%
%LPD*%
G01*
G04 APERTURE LIST*
G04 Aperture macros list*
%AMRoundRect*
0 Rectangle with rounded corners*
0 $1 Rounding radius*
0 $2 $3 $4 $5 $6 $7 $8 $9 X,Y pos of 4 corners*
0 Add a 4 corners polygon primitive as box body*
4,1,4,$2,$3,$4,$5,$6,$7,$8,$9,$2,$3,0*
0 Add four circle primitives for the rounded corners*
1,1,$1+$1,$2,$3*
1,1,$1+$1,$4,$5*
1,1,$1+$1,$6,$7*
1,1,$1+$1,$8,$9*
0 Add four rect primitives between the rounded corners*
20,1,$1+$1,$2,$3,$4,$5,0*
20,1,$1+$1,$4,$5,$6,$7,0*
20,1,$1+$1,$6,$7,$8,$9,0*
20,1,$1+$1,$8,$9,$2,$3,0*%
G04 Aperture macros list end*
G04 #@! TA.AperFunction,ComponentPad*
%ADD10RoundRect,0.250000X-0.600000X-0.600000X0.600000X-0.600000X0.600000X0.600000X-0.600000X0.600000X0*%
G04 #@! TD*
G04 #@! TA.AperFunction,ComponentPad*
%ADD11C,1.700000*%
G04 #@! TD*
G04 #@! TA.AperFunction,ComponentPad*
%ADD12R,1.700000X1.700000*%
G04 #@! TD*
G04 #@! TA.AperFunction,ComponentPad*
%ADD13O,1.700000X1.700000*%
G04 #@! TD*
G04 #@! TA.AperFunction,ComponentPad*
%ADD14C,1.450000*%
G04 #@! TD*
G04 #@! TA.AperFunction,ComponentPad*
%ADD15O,1.900000X1.200000*%
G04 #@! TD*
G04 #@! TA.AperFunction,ComponentPad*
%ADD16R,1.350000X1.350000*%
G04 #@! TD*
G04 #@! TA.AperFunction,ComponentPad*
%ADD17O,1.350000X1.350000*%
G04 #@! TD*
G04 #@! TA.AperFunction,ViaPad*
%ADD18C,0.800000*%
G04 #@! TD*
G04 #@! TA.AperFunction,ViaPad*
%ADD19C,0.400000*%
G04 #@! TD*
G04 #@! TA.AperFunction,ViaPad*
%ADD20C,0.600000*%
G04 #@! TD*
G04 #@! TA.AperFunction,ViaPad*
%ADD21C,1.000000*%
G04 #@! TD*
G04 #@! TA.AperFunction,Conductor*
%ADD22C,1.000000*%
G04 #@! TD*
G04 #@! TA.AperFunction,Conductor*
%ADD23C,0.508000*%
G04 #@! TD*
G04 #@! TA.AperFunction,Conductor*
%ADD24C,0.200000*%
G04 #@! TD*
G04 #@! TA.AperFunction,Conductor*
%ADD25C,0.254000*%
G04 #@! TD*
G04 APERTURE END LIST*
D10*
X113400000Y-95950000D03*
D11*
X115940000Y-95950000D03*
X113400000Y-98490000D03*
X115940000Y-98490000D03*
X113400000Y-101030000D03*
X115940000Y-101030000D03*
X113400000Y-103570000D03*
X115940000Y-103570000D03*
X113400000Y-106110000D03*
X115940000Y-106110000D03*
X113400000Y-108650000D03*
X115940000Y-108650000D03*
X113400000Y-111190000D03*
X115940000Y-111190000D03*
D12*
X134670000Y-121053000D03*
D13*
X137210000Y-121053000D03*
X139750000Y-121053000D03*
X142290000Y-121053000D03*
X144830000Y-121053000D03*
X147370000Y-121053000D03*
X149910000Y-121053000D03*
X152450000Y-121053000D03*
D12*
X134670000Y-84985000D03*
D13*
X137210000Y-84985000D03*
X139750000Y-84985000D03*
X142290000Y-84985000D03*
X144830000Y-84985000D03*
X147370000Y-84985000D03*
X149910000Y-84985000D03*
X152450000Y-84985000D03*
D12*
X157530000Y-84985000D03*
D13*
X160070000Y-84985000D03*
X162610000Y-84985000D03*
X165150000Y-84985000D03*
X167690000Y-84985000D03*
X170230000Y-84985000D03*
X172770000Y-84985000D03*
X175310000Y-84985000D03*
D12*
X111810000Y-121053000D03*
D13*
X114350000Y-121053000D03*
X116890000Y-121053000D03*
X119430000Y-121053000D03*
X121970000Y-121053000D03*
X124510000Y-121053000D03*
X127050000Y-121053000D03*
X129590000Y-121053000D03*
D12*
X165600000Y-89800000D03*
D13*
X163060000Y-89800000D03*
D12*
X157530000Y-121053000D03*
D13*
X160070000Y-121053000D03*
X162610000Y-121053000D03*
X165150000Y-121053000D03*
X167690000Y-121053000D03*
X170230000Y-121053000D03*
X172770000Y-121053000D03*
X175310000Y-121053000D03*
D12*
X155000000Y-93400000D03*
D13*
X157540000Y-93400000D03*
X160080000Y-93400000D03*
D12*
X155000000Y-97000000D03*
D13*
X157540000Y-97000000D03*
X160080000Y-97000000D03*
D12*
X155000000Y-112600000D03*
D13*
X157540000Y-112600000D03*
X160080000Y-112600000D03*
D12*
X155000000Y-109000000D03*
D13*
X157540000Y-109000000D03*
X160080000Y-109000000D03*
D14*
X172847500Y-100500000D03*
D15*
X175547500Y-99350000D03*
X175547500Y-106550000D03*
D14*
X172847500Y-105400000D03*
D12*
X112300000Y-87180000D03*
D13*
X114840000Y-87180000D03*
X117380000Y-87180000D03*
D16*
X165350000Y-101050000D03*
D17*
X165350000Y-103050000D03*
X165350000Y-105050000D03*
X169850000Y-101050000D03*
X169850000Y-103050000D03*
X169850000Y-105050000D03*
D12*
X125400000Y-96000000D03*
D13*
X127940000Y-96000000D03*
X125400000Y-98540000D03*
X127940000Y-98540000D03*
X125400000Y-101080000D03*
X127940000Y-101080000D03*
X125400000Y-103620000D03*
X127940000Y-103620000D03*
X125400000Y-106160000D03*
X127940000Y-106160000D03*
X125400000Y-108700000D03*
X127940000Y-108700000D03*
D12*
X124510000Y-84985000D03*
D13*
X127050000Y-84985000D03*
X129590000Y-84985000D03*
D18*
X120954000Y-94303000D03*
X136800000Y-115300000D03*
D19*
X138740000Y-99340000D03*
D20*
X120319000Y-98621000D03*
D18*
X131650000Y-88550000D03*
D20*
X137850000Y-91150000D03*
D18*
X135400000Y-98300000D03*
X122859000Y-108654000D03*
X123140000Y-114970000D03*
D19*
X140680000Y-99440000D03*
D20*
X148400000Y-103700000D03*
D18*
X122950000Y-88800000D03*
D21*
X133600000Y-107000000D03*
D20*
X137350000Y-98450000D03*
D21*
X153050000Y-105900000D03*
D19*
X149904142Y-91025000D03*
X144200000Y-101225000D03*
X144500000Y-100700000D03*
X144150000Y-100200000D03*
X144500000Y-99700000D03*
X147530000Y-99750000D03*
X147130000Y-100230000D03*
X146860000Y-100770000D03*
X144515406Y-102270505D03*
X145811144Y-97977154D03*
X145240812Y-97790812D03*
X144021315Y-103971811D03*
X143319335Y-103976939D03*
X144430279Y-96588536D03*
X144219345Y-103396950D03*
X142290000Y-104530000D03*
X140900000Y-107650000D03*
X143325000Y-108975000D03*
X144050000Y-110250000D03*
X140750000Y-102250000D03*
X144650000Y-110850001D03*
X140150000Y-102250000D03*
D20*
X130750000Y-102750000D03*
D19*
X141858000Y-110850000D03*
X139550000Y-102250000D03*
X138525000Y-100725000D03*
D20*
X129750000Y-101000000D03*
D19*
X140277000Y-109450000D03*
X137200000Y-109600000D03*
X139115392Y-111007608D03*
X143500000Y-117950000D03*
X142950000Y-117400000D03*
X142400000Y-116850000D03*
D20*
X131622000Y-95573000D03*
D19*
X142700000Y-96300000D03*
X143204005Y-95654002D03*
X141775000Y-104850000D03*
D20*
X122813934Y-110985066D03*
X133400000Y-95954000D03*
X123748000Y-111702000D03*
X132765000Y-96462000D03*
D19*
X141331000Y-110400000D03*
D20*
X130225000Y-103447000D03*
D19*
X139175000Y-101750000D03*
X138900000Y-101200000D03*
X140804000Y-109950000D03*
D20*
X129717000Y-104844000D03*
D22*
X132490000Y-93590000D02*
X137350000Y-98450000D01*
X137350000Y-106950000D02*
X137350000Y-107828002D01*
X153050000Y-105900000D02*
X153050000Y-95350000D01*
X133600000Y-107000000D02*
X137300000Y-107000000D01*
X114840000Y-89890000D02*
X115575000Y-90625000D01*
X115575000Y-90625000D02*
X122925000Y-90625000D01*
X129515000Y-90625000D02*
X132480000Y-93590000D01*
D23*
X122950000Y-88800000D02*
X122950000Y-90600000D01*
X122950000Y-90600000D02*
X122925000Y-90625000D01*
D22*
X137350000Y-107828002D02*
X141271999Y-111750001D01*
X153050000Y-110400000D02*
X153050000Y-105900000D01*
X132480000Y-93590000D02*
X132490000Y-93590000D01*
X137300000Y-107000000D02*
X137350000Y-106950000D01*
X137350000Y-98450000D02*
X137350000Y-106950000D01*
X122925000Y-90625000D02*
X129515000Y-90625000D01*
X114840000Y-87180000D02*
X114840000Y-89890000D01*
X151699999Y-111750001D02*
X153050000Y-110400000D01*
X141271999Y-111750001D02*
X151699999Y-111750001D01*
X153050000Y-95350000D02*
X155000000Y-93400000D01*
D24*
X154228425Y-88975070D02*
X152550522Y-88975070D01*
X162288444Y-88135051D02*
X160396347Y-88135051D01*
X169411377Y-86935021D02*
X167437076Y-86935021D01*
X150611210Y-89375080D02*
X149904142Y-90082148D01*
X162648457Y-87775038D02*
X162288444Y-88135051D01*
X154600735Y-88602760D02*
X154228425Y-88975070D01*
X175310000Y-84985000D02*
X174084651Y-86210349D01*
X164622756Y-87775038D02*
X162648457Y-87775038D01*
X172110349Y-86210349D02*
X171785688Y-86535011D01*
X152150512Y-89375080D02*
X150611210Y-89375080D01*
X149904142Y-90082148D02*
X149904142Y-91025000D01*
X174084651Y-86210349D02*
X172110349Y-86210349D01*
X171785688Y-86535011D02*
X169811387Y-86535011D01*
X159928638Y-88602760D02*
X154600735Y-88602760D01*
X160396347Y-88135051D02*
X159928638Y-88602760D01*
X152550522Y-88975070D02*
X152150512Y-89375080D01*
X169811387Y-86535011D02*
X169411377Y-86935021D01*
X165062764Y-87335031D02*
X164622756Y-87775038D01*
X167037066Y-87335031D02*
X165062764Y-87335031D01*
X167437076Y-86935021D02*
X167037066Y-87335031D01*
X172770000Y-84985000D02*
X171619999Y-86135001D01*
X149404142Y-100676177D02*
X147605288Y-102475031D01*
X149404142Y-90016449D02*
X149404142Y-100676177D01*
X164897075Y-86935021D02*
X164457067Y-87375028D01*
X171619999Y-86135001D02*
X169735001Y-86135001D01*
X169700000Y-86100000D02*
X169680698Y-86100000D01*
X154062736Y-88575060D02*
X152384832Y-88575060D01*
X162482767Y-87375028D02*
X162122755Y-87735041D01*
X167271386Y-86535011D02*
X166871377Y-86935021D01*
X164457067Y-87375028D02*
X162482767Y-87375028D01*
X145450031Y-102475031D02*
X144200000Y-101225000D01*
X154435045Y-88202750D02*
X154062736Y-88575060D01*
X160230657Y-87735041D02*
X159762949Y-88202750D01*
X162122755Y-87735041D02*
X160230657Y-87735041D01*
X169245688Y-86535011D02*
X167271386Y-86535011D01*
X159762949Y-88202750D02*
X154435045Y-88202750D01*
X151984823Y-88975070D02*
X150445521Y-88975070D01*
X169735001Y-86135001D02*
X169700000Y-86100000D01*
X150445521Y-88975070D02*
X149404142Y-90016449D01*
X166871377Y-86935021D02*
X164897075Y-86935021D01*
X147605288Y-102475031D02*
X145450031Y-102475031D01*
X169680698Y-86100000D02*
X169245688Y-86535011D01*
X152384832Y-88575060D02*
X151984823Y-88975070D01*
X169079999Y-86135001D02*
X167105698Y-86135001D01*
X147439599Y-102075021D02*
X147078621Y-102075021D01*
X164731387Y-86535011D02*
X164291379Y-86975019D01*
X164291379Y-86975019D02*
X162317077Y-86975020D01*
X154269357Y-87802740D02*
X153897047Y-88175050D01*
X147078621Y-102075021D02*
X147078600Y-102075000D01*
X161957066Y-87335031D02*
X160064969Y-87335031D01*
X152219144Y-88175050D02*
X151819134Y-88575060D01*
X150279832Y-88575060D02*
X149004132Y-89850760D01*
X160064969Y-87335031D02*
X159597260Y-87802740D01*
X145875000Y-102075000D02*
X144500000Y-100700000D01*
X151819134Y-88575060D02*
X150279832Y-88575060D01*
X170230000Y-84985000D02*
X169079999Y-86135001D01*
X159597260Y-87802740D02*
X154269357Y-87802740D01*
X149004132Y-89850760D02*
X149004132Y-100510488D01*
X162317077Y-86975020D02*
X161957066Y-87335031D01*
X166705688Y-86535011D02*
X164731387Y-86535011D01*
X167105698Y-86135001D02*
X166705688Y-86535011D01*
X147078600Y-102075000D02*
X145875000Y-102075000D01*
X149004132Y-100510488D02*
X147439599Y-102075021D01*
X153897047Y-88175050D02*
X152219144Y-88175050D01*
X164581849Y-86118851D02*
X164125689Y-86575010D01*
X159428668Y-87402730D02*
X154103668Y-87402730D01*
X146214992Y-101674990D02*
X144740001Y-100199999D01*
X162151388Y-86575010D02*
X161791377Y-86935021D01*
X144740001Y-100199999D02*
X144150000Y-100200000D01*
X148604122Y-89685071D02*
X148604122Y-100344799D01*
X147273931Y-101674990D02*
X146214992Y-101674990D01*
X154103668Y-87402730D02*
X153731358Y-87775040D01*
X167690000Y-84985000D02*
X166539999Y-86135001D01*
X152053455Y-87775040D02*
X151653445Y-88175050D01*
X164125689Y-86575010D02*
X162151388Y-86575010D01*
X166539999Y-86135001D02*
X164597999Y-86135001D01*
X161791377Y-86935021D02*
X159896377Y-86935021D01*
X148604122Y-100344799D02*
X147273931Y-101674990D01*
X159896377Y-86935021D02*
X159428668Y-87402730D01*
X150114143Y-88175050D02*
X148604122Y-89685071D01*
X151653445Y-88175050D02*
X150114143Y-88175050D01*
X164597999Y-86135001D02*
X164581849Y-86118851D01*
X153731358Y-87775040D02*
X152053455Y-87775040D01*
X151487756Y-87775040D02*
X149948454Y-87775040D01*
X161625688Y-86535011D02*
X159730688Y-86535011D01*
X147108242Y-101274980D02*
X146380680Y-101274980D01*
X153565669Y-87375030D02*
X151887766Y-87375030D01*
X149948454Y-87775040D02*
X148204112Y-89519382D01*
X146380680Y-101274980D02*
X144905691Y-99799991D01*
X161985699Y-86175000D02*
X161625688Y-86535011D01*
X148204112Y-89519382D02*
X148204112Y-100179110D01*
X159262979Y-87002720D02*
X153937979Y-87002720D01*
X148204112Y-100179110D02*
X147108242Y-101274980D01*
X165150000Y-84985000D02*
X163960000Y-86175000D01*
X163960000Y-86175000D02*
X161985699Y-86175000D01*
X144599991Y-99799991D02*
X144500000Y-99700000D01*
X159730688Y-86535011D02*
X159262979Y-87002720D01*
X153937979Y-87002720D02*
X153565669Y-87375030D01*
X144905691Y-99799991D02*
X144599991Y-99799991D01*
X151887766Y-87375030D02*
X151487756Y-87775040D01*
X159564999Y-86135001D02*
X161459999Y-86135001D01*
X161459999Y-86135001D02*
X162610000Y-84985000D01*
X153772290Y-86602710D02*
X159097290Y-86602710D01*
X147804102Y-89353693D02*
X149782765Y-87375030D01*
X151322067Y-87375030D02*
X151722077Y-86975020D01*
X147800010Y-98425387D02*
X147804102Y-98421295D01*
X159097290Y-86602710D02*
X159564999Y-86135001D01*
X147530000Y-99750000D02*
X147800010Y-99479990D01*
X147804102Y-98421295D02*
X147804102Y-89353693D01*
X153399980Y-86975020D02*
X153772290Y-86602710D01*
X147800010Y-99479990D02*
X147800010Y-98425387D01*
X151722077Y-86975020D02*
X153399980Y-86975020D01*
X149782765Y-87375030D02*
X151322067Y-87375030D01*
X158852300Y-86202700D02*
X153500000Y-86202700D01*
X153127691Y-86575010D02*
X151556388Y-86575010D01*
X147029999Y-98629699D02*
X147029999Y-100129999D01*
X147404092Y-89188004D02*
X147404092Y-98255606D01*
X151156378Y-86975020D02*
X149617076Y-86975020D01*
X160070000Y-84985000D02*
X158852300Y-86202700D01*
X151556388Y-86575010D02*
X151156378Y-86975020D01*
X147404092Y-98255606D02*
X147029999Y-98629699D01*
X149617076Y-86975020D02*
X147404092Y-89188004D01*
X153500000Y-86202700D02*
X153127691Y-86575010D01*
X147029999Y-100129999D02*
X147130000Y-100230000D01*
X147004082Y-98089917D02*
X147004082Y-89022316D01*
X150990689Y-86575010D02*
X151390698Y-86175000D01*
X154152002Y-84985000D02*
X157530000Y-84985000D01*
X151390698Y-86175000D02*
X152962002Y-86175000D01*
X152962002Y-86175000D02*
X154152002Y-84985000D01*
X147004082Y-98089917D02*
X146629989Y-98464010D01*
X147004082Y-89022316D02*
X149451388Y-86575010D01*
X146629989Y-98464010D02*
X146629989Y-100539989D01*
X149451388Y-86575010D02*
X150990689Y-86575010D01*
X146629989Y-100539989D02*
X146860000Y-100770000D01*
X149142850Y-86317850D02*
X146604072Y-88856628D01*
X152450000Y-84985000D02*
X152015000Y-84985000D01*
X144734997Y-98725001D02*
X143649999Y-99809999D01*
X150825000Y-86175000D02*
X149285699Y-86175000D01*
X145803299Y-98725001D02*
X144734997Y-98725001D01*
X146604072Y-88856628D02*
X146604072Y-97924228D01*
X143649999Y-101405098D02*
X144515406Y-102270505D01*
X152015000Y-84985000D02*
X150825000Y-86175000D01*
X149285699Y-86175000D02*
X149142850Y-86317850D01*
X146604072Y-97924228D02*
X145803299Y-98725001D01*
X143649999Y-99809999D02*
X143649999Y-101405098D01*
X146204062Y-97584236D02*
X145811144Y-97977154D01*
X149910000Y-84985000D02*
X146204062Y-88690939D01*
X146204062Y-88690939D02*
X146204062Y-97584236D01*
X145804054Y-97227570D02*
X145804053Y-94345947D01*
X145804053Y-94345947D02*
X145804053Y-86550947D01*
X145240812Y-97790812D02*
X145804054Y-97227570D01*
X145804053Y-86550947D02*
X147370000Y-84985000D01*
X143719345Y-103669841D02*
X143719345Y-102040142D01*
X145404045Y-94366248D02*
X145404045Y-85559045D01*
X144021315Y-103971811D02*
X143719345Y-103669841D01*
X145404046Y-96920470D02*
X145404045Y-94366248D01*
X143719345Y-102040142D02*
X143249989Y-101570787D01*
X144712258Y-98182042D02*
X144712258Y-97612258D01*
X145404045Y-85559045D02*
X144830000Y-84985000D01*
X143249989Y-99644311D02*
X144712258Y-98182042D01*
X144712258Y-97612258D02*
X145404046Y-96920470D01*
X143249989Y-101570787D02*
X143249989Y-99644311D01*
X142849979Y-101736476D02*
X142849979Y-99478623D01*
X144312248Y-98016354D02*
X144312248Y-97446570D01*
X143440001Y-86149302D02*
X143440001Y-86135001D01*
X143319335Y-103976939D02*
X143319335Y-102205832D01*
X143440001Y-86135001D02*
X142290000Y-84985000D01*
X145004036Y-96754781D02*
X145004036Y-87713337D01*
X143319335Y-102205832D02*
X142849979Y-101736476D01*
X144312248Y-97446570D02*
X145004036Y-96754781D01*
X145004036Y-87713337D02*
X143440001Y-86149302D01*
X142849979Y-99478623D02*
X144312248Y-98016354D01*
X144430279Y-96588536D02*
X144604026Y-96414789D01*
X140900001Y-86135001D02*
X139750000Y-84985000D01*
X142842001Y-86135001D02*
X140900001Y-86135001D01*
X144604026Y-96414789D02*
X144604026Y-87879026D01*
X144604026Y-87879026D02*
X142851001Y-86126001D01*
X142851001Y-86126001D02*
X142842001Y-86135001D01*
X142449969Y-99311739D02*
X143818354Y-97943354D01*
X142790001Y-104187607D02*
X142790001Y-102242196D01*
X144256188Y-104476940D02*
X143079334Y-104476940D01*
X142449969Y-101902165D02*
X142449969Y-99311739D01*
X144521316Y-103698921D02*
X144521316Y-104211812D01*
X144204016Y-96107692D02*
X144204016Y-88044715D01*
X143079334Y-104476940D02*
X142790001Y-104187607D01*
X142790001Y-102242196D02*
X142449969Y-101902165D01*
X138047998Y-84985000D02*
X137210000Y-84985000D01*
X140734312Y-86535011D02*
X140475000Y-86275698D01*
X139338696Y-86275698D02*
X138047998Y-84985000D01*
X140475000Y-86275698D02*
X139338696Y-86275698D01*
X143818354Y-97943354D02*
X143818354Y-96493354D01*
X144204016Y-88044715D02*
X142694312Y-86535011D01*
X143818354Y-96493354D02*
X144204016Y-96107692D01*
X144219345Y-103396950D02*
X144521316Y-103698921D01*
X142694312Y-86535011D02*
X140734312Y-86535011D01*
X144521316Y-104211812D02*
X144256188Y-104476940D01*
X140568621Y-86935020D02*
X140309309Y-86675708D01*
X139173007Y-86675708D02*
X138632301Y-86135001D01*
X138632301Y-86135001D02*
X135820001Y-86135001D01*
X140309309Y-86675708D02*
X139173007Y-86675708D01*
X135820001Y-86135001D02*
X134670000Y-84985000D01*
X142290000Y-104530000D02*
X142290000Y-102449302D01*
X143804006Y-95942003D02*
X142049959Y-97696055D01*
X142528623Y-86935021D02*
X140568621Y-86935020D01*
X142049959Y-102209261D02*
X142290000Y-102449302D01*
X142049959Y-97696055D02*
X142049959Y-102209261D01*
X143804006Y-95942003D02*
X143804006Y-88210404D01*
X143804006Y-88210404D02*
X142528623Y-86935021D01*
X140914097Y-107650000D02*
X142239097Y-108975000D01*
X140900000Y-107650000D02*
X140914097Y-107650000D01*
X142239097Y-108975000D02*
X143325000Y-108975000D01*
X142630689Y-108074989D02*
X143730690Y-108074989D01*
X140750000Y-102250000D02*
X140750000Y-106194300D01*
X144225011Y-110074989D02*
X144050000Y-110250000D01*
X143730690Y-108074989D02*
X144225011Y-108569310D01*
X140750000Y-106194300D02*
X142630689Y-108074989D01*
X144225011Y-108569310D02*
X144225011Y-110074989D01*
X143549999Y-110490001D02*
X143549999Y-109750001D01*
X143549999Y-109750001D02*
X143825001Y-109474999D01*
X143825001Y-109474999D02*
X143825001Y-108734999D01*
X143565001Y-108474999D02*
X142465001Y-108474999D01*
X142465001Y-108474999D02*
X140150000Y-106159998D01*
X140150000Y-106159998D02*
X140150000Y-102250000D01*
X143825001Y-108734999D02*
X143565001Y-108474999D01*
X144650000Y-110850001D02*
X143909999Y-110850001D01*
X143909999Y-110850001D02*
X143549999Y-110490001D01*
D25*
X127940000Y-96000000D02*
X130750000Y-98810000D01*
D24*
X139525040Y-102250000D02*
X139350040Y-102425000D01*
X140674077Y-108149983D02*
X140848381Y-108149983D01*
X139550000Y-102250000D02*
X139525040Y-102250000D01*
X139350040Y-106825946D02*
X140674077Y-108149983D01*
X141604020Y-109463321D02*
X141858000Y-109717301D01*
X139350040Y-102425000D02*
X139350040Y-106825946D01*
D25*
X130750000Y-98810000D02*
X130750000Y-102750000D01*
D24*
X141604020Y-108905621D02*
X141604020Y-109463321D01*
X140848381Y-108149983D02*
X141604020Y-108905621D01*
X141858000Y-109717301D02*
X141858000Y-110850000D01*
D25*
X129700000Y-100950000D02*
X129750000Y-101000000D01*
X129700000Y-100300000D02*
X129700000Y-100950000D01*
D24*
X138150010Y-107323010D02*
X140277000Y-109450000D01*
D25*
X127940000Y-98540000D02*
X129700000Y-100300000D01*
D24*
X138150010Y-101099990D02*
X138150010Y-107323010D01*
X138525000Y-100725000D02*
X138150010Y-101099990D01*
D25*
X137600000Y-109600000D02*
X137200000Y-109600000D01*
X137707784Y-109600000D02*
X137600000Y-109600000D01*
X139115392Y-111007608D02*
X137707784Y-109600000D01*
X143500000Y-117950000D02*
X132693000Y-117950000D01*
X132693000Y-117950000D02*
X129590000Y-121053000D01*
X132600934Y-117400000D02*
X130124935Y-119875999D01*
X142950000Y-117400000D02*
X132600934Y-117400000D01*
X130124935Y-119875999D02*
X128227001Y-119875999D01*
X128227001Y-119875999D02*
X127050000Y-121053000D01*
X142400000Y-116850000D02*
X132508868Y-116850000D01*
X127574001Y-119875999D02*
X125687001Y-119875999D01*
X128038944Y-119421989D02*
X127772991Y-119687942D01*
X132508868Y-116850000D02*
X129936879Y-119421989D01*
X129936879Y-119421989D02*
X128038944Y-119421989D01*
X127772991Y-119687942D02*
X127762058Y-119687942D01*
X127762058Y-119687942D02*
X127574001Y-119875999D01*
X125687001Y-119875999D02*
X124510000Y-121053000D01*
X130831001Y-103729999D02*
X130831001Y-106269999D01*
X130831001Y-106269999D02*
X129717000Y-107384000D01*
X129717000Y-109670000D02*
X129082000Y-110305000D01*
X122558000Y-110305000D02*
X111810000Y-121053000D01*
X129717000Y-107384000D02*
X129717000Y-109670000D01*
X131622000Y-95573000D02*
X131622000Y-102939000D01*
X131622000Y-102939000D02*
X130831001Y-103729999D01*
X129082000Y-110305000D02*
X122558000Y-110305000D01*
D24*
X143003986Y-94775000D02*
X143003986Y-88541781D01*
X143003986Y-94775000D02*
X142700000Y-95078986D01*
X142197244Y-87735039D02*
X140237241Y-87735036D01*
X139977933Y-87475728D02*
X138841629Y-87475728D01*
X138300922Y-86935021D02*
X133814320Y-86935021D01*
X138841629Y-87475728D02*
X138300922Y-86935021D01*
X143003986Y-88541781D02*
X142197244Y-87735039D01*
X133814320Y-86935021D02*
X131864300Y-84985000D01*
X131864300Y-84985000D02*
X129590000Y-84985000D01*
X142700000Y-95078986D02*
X142700000Y-96300000D01*
X140237241Y-87735036D02*
X139977933Y-87475728D01*
X143403996Y-88376093D02*
X142362933Y-87335030D01*
X143204005Y-95229738D02*
X143403996Y-95029747D01*
X143204005Y-95654002D02*
X143204005Y-95229738D01*
X133980009Y-86535011D02*
X131279997Y-83834999D01*
X140143621Y-87075718D02*
X139007318Y-87075718D01*
X142362933Y-87335030D02*
X140402931Y-87335028D01*
X138466611Y-86535011D02*
X133980009Y-86535011D01*
X131279997Y-83834999D02*
X128200001Y-83834999D01*
X143403996Y-95029747D02*
X143403996Y-88376093D01*
X140402931Y-87335028D02*
X140143621Y-87075718D01*
X128200001Y-83834999D02*
X127050000Y-84985000D01*
X139007318Y-87075718D02*
X138466611Y-86535011D01*
X141775000Y-102500000D02*
X141775000Y-104850000D01*
X124510000Y-84985000D02*
X125800000Y-86275000D01*
X139812245Y-87875738D02*
X140071551Y-88135044D01*
X125800000Y-86275000D02*
X132588601Y-86275000D01*
X140071551Y-88135044D02*
X142031555Y-88135048D01*
X141649949Y-102374949D02*
X141775000Y-102500000D01*
X142603976Y-88707469D02*
X142603976Y-94566026D01*
X133648631Y-87335031D02*
X138135233Y-87335031D01*
X141804001Y-97376314D02*
X141649949Y-97530366D01*
X138675940Y-87875738D02*
X139812245Y-87875738D01*
X138135233Y-87335031D02*
X138675940Y-87875738D01*
X141649949Y-97530366D02*
X141649949Y-102374949D01*
X142031555Y-88135048D02*
X142603976Y-88707469D01*
X141804001Y-95366001D02*
X141804001Y-97376314D01*
X142603976Y-94566026D02*
X141804001Y-95366001D01*
X132588601Y-86275000D02*
X133648631Y-87335031D01*
D25*
X132505288Y-95835000D02*
X132076000Y-96264288D01*
X133400000Y-95954000D02*
X133281000Y-95835000D01*
X131308026Y-106435027D02*
X130228526Y-107514526D01*
X122813934Y-110985066D02*
X122520000Y-110985066D01*
X132076000Y-103127052D02*
X131308026Y-103895026D01*
X122814434Y-110984566D02*
X122813934Y-110985066D01*
X129044487Y-110984566D02*
X122814434Y-110984566D01*
X130228526Y-109800527D02*
X129044487Y-110984566D01*
X130228526Y-107514526D02*
X130228526Y-109800527D01*
X131308026Y-103895026D02*
X131308026Y-106435027D01*
X114350000Y-119155066D02*
X114350000Y-121053000D01*
X133281000Y-95835000D02*
X132505288Y-95835000D01*
X132076000Y-96264288D02*
X132076000Y-103127052D01*
X122520000Y-110985066D02*
X114350000Y-119155066D01*
X116890000Y-117257132D02*
X122445132Y-111702000D01*
X122445132Y-111702000D02*
X123748000Y-111702000D01*
X130682526Y-109988580D02*
X128969106Y-111702000D01*
X132530000Y-96697000D02*
X132530000Y-103315104D01*
X131762026Y-104083078D02*
X131762026Y-106623081D01*
X132765000Y-96462000D02*
X132530000Y-96697000D01*
X131762026Y-106623081D02*
X130682526Y-107702578D01*
X132530000Y-103315104D02*
X131762026Y-104083078D01*
X130682526Y-107702578D02*
X130682526Y-109988580D01*
X128969106Y-111702000D02*
X123748000Y-111702000D01*
X116890000Y-121053000D02*
X116890000Y-117257132D01*
X124630000Y-104390000D02*
X125400000Y-103620000D01*
X115940000Y-103570000D02*
X116760000Y-104390000D01*
X116760000Y-104390000D02*
X124630000Y-104390000D01*
X124002000Y-99682000D02*
X125400000Y-101080000D01*
X116382000Y-97224000D02*
X117152000Y-96454000D01*
X111937000Y-107187000D02*
X111937000Y-97859000D01*
X113400000Y-108650000D02*
X111937000Y-107187000D01*
X124002000Y-96843000D02*
X124002000Y-99682000D01*
X117152000Y-96454000D02*
X123613000Y-96454000D01*
X111937000Y-97859000D02*
X112572000Y-97224000D01*
X112572000Y-97224000D02*
X116382000Y-97224000D01*
X123613000Y-96454000D02*
X124002000Y-96843000D01*
X116636000Y-107384000D02*
X117271000Y-106749000D01*
X117906000Y-105352000D02*
X124592000Y-105352000D01*
X114604000Y-106749000D02*
X115239000Y-107384000D01*
X117271000Y-106749000D02*
X117271000Y-105987000D01*
X115239000Y-107384000D02*
X116636000Y-107384000D01*
X113400000Y-104148000D02*
X114604000Y-105352000D01*
X114604000Y-105352000D02*
X114604000Y-106749000D01*
X124592000Y-105352000D02*
X125400000Y-106160000D01*
X117271000Y-105987000D02*
X117906000Y-105352000D01*
X113400000Y-103570000D02*
X113400000Y-104148000D01*
X114577000Y-94773000D02*
X113400000Y-95950000D01*
X125400000Y-96000000D02*
X118079000Y-96000000D01*
X116852000Y-94773000D02*
X114577000Y-94773000D01*
X118079000Y-96000000D02*
X116852000Y-94773000D01*
X124002000Y-102939000D02*
X124002000Y-103454052D01*
D24*
X138950030Y-101974970D02*
X138950030Y-106991634D01*
D25*
X130225000Y-103447000D02*
X129209000Y-102431000D01*
X117398000Y-100399000D02*
X116760450Y-99761450D01*
X129209000Y-102431000D02*
X124510000Y-102431000D01*
X124510000Y-102431000D02*
X124002000Y-102939000D01*
D24*
X141204010Y-109071310D02*
X141204010Y-109629010D01*
D25*
X116760450Y-99761450D02*
X114671450Y-99761450D01*
D24*
X139175000Y-101750000D02*
X138950030Y-101974970D01*
D25*
X117398000Y-103574000D02*
X117398000Y-100399000D01*
D24*
X141204010Y-109629010D02*
X141331000Y-109756000D01*
X140682691Y-108549991D02*
X141204010Y-109071310D01*
D25*
X117760000Y-103936000D02*
X117398000Y-103574000D01*
D24*
X140508387Y-108549991D02*
X140682691Y-108549991D01*
D25*
X123520052Y-103936000D02*
X117760000Y-103936000D01*
X124002000Y-103454052D02*
X123520052Y-103936000D01*
D24*
X141331000Y-109756000D02*
X141331000Y-110400000D01*
D25*
X114671450Y-99761450D02*
X113400000Y-98490000D01*
D24*
X138950030Y-106991634D02*
X140508387Y-108549991D01*
D25*
X114731000Y-104082000D02*
X115493000Y-104844000D01*
D24*
X138900000Y-101200000D02*
X138550020Y-101549980D01*
D25*
X116509000Y-104844000D02*
X129717000Y-104844000D01*
X115493000Y-104844000D02*
X116509000Y-104844000D01*
D24*
X138550020Y-101549980D02*
X138550020Y-107157322D01*
X140804000Y-109236998D02*
X140804000Y-109950000D01*
X138550020Y-107157322D02*
X140342697Y-108949999D01*
X140517001Y-108949999D02*
X140804000Y-109236998D01*
D25*
X113400000Y-101030000D02*
X114731000Y-102361000D01*
D24*
X140342697Y-108949999D02*
X140517001Y-108949999D01*
D25*
X114731000Y-102361000D02*
X114731000Y-104082000D01*
G04 #@! TA.AperFunction,Conductor*
G36*
X177433621Y-83528502D02*
G01*
X177480114Y-83582158D01*
X177491500Y-83634500D01*
X177491500Y-122365500D01*
X177471498Y-122433621D01*
X177417842Y-122480114D01*
X177365500Y-122491500D01*
X176005346Y-122491500D01*
X175937225Y-122471498D01*
X175890732Y-122417842D01*
X175880628Y-122347568D01*
X175910122Y-122282988D01*
X175949910Y-122252351D01*
X176007994Y-122223896D01*
X176189860Y-122094173D01*
X176348096Y-121936489D01*
X176478453Y-121755077D01*
X176499320Y-121712857D01*
X176575136Y-121559453D01*
X176575137Y-121559451D01*
X176577430Y-121554811D01*
X176642370Y-121341069D01*
X176671529Y-121119590D01*
X176673156Y-121053000D01*
X176654852Y-120830361D01*
X176600431Y-120613702D01*
X176511354Y-120408840D01*
X176390014Y-120221277D01*
X176239670Y-120056051D01*
X176235619Y-120052852D01*
X176235615Y-120052848D01*
X176068414Y-119920800D01*
X176068410Y-119920798D01*
X176064359Y-119917598D01*
X176059831Y-119915098D01*
X176009829Y-119887496D01*
X175868789Y-119809638D01*
X175863920Y-119807914D01*
X175863916Y-119807912D01*
X175663087Y-119736795D01*
X175663083Y-119736794D01*
X175658212Y-119735069D01*
X175653119Y-119734162D01*
X175653116Y-119734161D01*
X175443373Y-119696800D01*
X175443367Y-119696799D01*
X175438284Y-119695894D01*
X175364452Y-119694992D01*
X175220081Y-119693228D01*
X175220079Y-119693228D01*
X175214911Y-119693165D01*
X174994091Y-119726955D01*
X174781756Y-119796357D01*
X174583607Y-119899507D01*
X174579474Y-119902610D01*
X174579471Y-119902612D01*
X174409100Y-120030530D01*
X174404965Y-120033635D01*
X174401393Y-120037373D01*
X174293729Y-120150037D01*
X174250629Y-120195138D01*
X174143201Y-120352621D01*
X174088293Y-120397621D01*
X174017768Y-120405792D01*
X173954021Y-120374538D01*
X173933324Y-120350054D01*
X173852822Y-120225617D01*
X173852820Y-120225614D01*
X173850014Y-120221277D01*
X173699670Y-120056051D01*
X173695619Y-120052852D01*
X173695615Y-120052848D01*
X173528414Y-119920800D01*
X173528410Y-119920798D01*
X173524359Y-119917598D01*
X173519831Y-119915098D01*
X173469829Y-119887496D01*
X173328789Y-119809638D01*
X173323920Y-119807914D01*
X173323916Y-119807912D01*
X173123087Y-119736795D01*
X173123083Y-119736794D01*
X173118212Y-119735069D01*
X173113119Y-119734162D01*
X173113116Y-119734161D01*
X172903373Y-119696800D01*
X172903367Y-119696799D01*
X172898284Y-119695894D01*
X172824452Y-119694992D01*
X172680081Y-119693228D01*
X172680079Y-119693228D01*
X172674911Y-119693165D01*
X172454091Y-119726955D01*
X172241756Y-119796357D01*
X172043607Y-119899507D01*
X172039474Y-119902610D01*
X172039471Y-119902612D01*
X171869100Y-120030530D01*
X171864965Y-120033635D01*
X171861393Y-120037373D01*
X171753729Y-120150037D01*
X171710629Y-120195138D01*
X171603201Y-120352621D01*
X171548293Y-120397621D01*
X171477768Y-120405792D01*
X171414021Y-120374538D01*
X171393324Y-120350054D01*
X171312822Y-120225617D01*
X171312820Y-120225614D01*
X171310014Y-120221277D01*
X171159670Y-120056051D01*
X171155619Y-120052852D01*
X171155615Y-120052848D01*
X170988414Y-119920800D01*
X170988410Y-119920798D01*
X170984359Y-119917598D01*
X170979831Y-119915098D01*
X170929829Y-119887496D01*
X170788789Y-119809638D01*
X170783920Y-119807914D01*
X170783916Y-119807912D01*
X170583087Y-119736795D01*
X170583083Y-119736794D01*
X170578212Y-119735069D01*
X170573119Y-119734162D01*
X170573116Y-119734161D01*
X170363373Y-119696800D01*
X170363367Y-119696799D01*
X170358284Y-119695894D01*
X170284452Y-119694992D01*
X170140081Y-119693228D01*
X170140079Y-119693228D01*
X170134911Y-119693165D01*
X169914091Y-119726955D01*
X169701756Y-119796357D01*
X169503607Y-119899507D01*
X169499474Y-119902610D01*
X169499471Y-119902612D01*
X169329100Y-120030530D01*
X169324965Y-120033635D01*
X169321393Y-120037373D01*
X169213729Y-120150037D01*
X169170629Y-120195138D01*
X169063201Y-120352621D01*
X169008293Y-120397621D01*
X168937768Y-120405792D01*
X168874021Y-120374538D01*
X168853324Y-120350054D01*
X168772822Y-120225617D01*
X168772820Y-120225614D01*
X168770014Y-120221277D01*
X168619670Y-120056051D01*
X168615619Y-120052852D01*
X168615615Y-120052848D01*
X168448414Y-119920800D01*
X168448410Y-119920798D01*
X168444359Y-119917598D01*
X168439831Y-119915098D01*
X168389829Y-119887496D01*
X168248789Y-119809638D01*
X168243920Y-119807914D01*
X168243916Y-119807912D01*
X168043087Y-119736795D01*
X168043083Y-119736794D01*
X168038212Y-119735069D01*
X168033119Y-119734162D01*
X168033116Y-119734161D01*
X167823373Y-119696800D01*
X167823367Y-119696799D01*
X167818284Y-119695894D01*
X167744452Y-119694992D01*
X167600081Y-119693228D01*
X167600079Y-119693228D01*
X167594911Y-119693165D01*
X167374091Y-119726955D01*
X167161756Y-119796357D01*
X166963607Y-119899507D01*
X166959474Y-119902610D01*
X166959471Y-119902612D01*
X166789100Y-120030530D01*
X166784965Y-120033635D01*
X166781393Y-120037373D01*
X166673729Y-120150037D01*
X166630629Y-120195138D01*
X166523201Y-120352621D01*
X166468293Y-120397621D01*
X166397768Y-120405792D01*
X166334021Y-120374538D01*
X166313324Y-120350054D01*
X166232822Y-120225617D01*
X166232820Y-120225614D01*
X166230014Y-120221277D01*
X166079670Y-120056051D01*
X166075619Y-120052852D01*
X166075615Y-120052848D01*
X165908414Y-119920800D01*
X165908410Y-119920798D01*
X165904359Y-119917598D01*
X165899831Y-119915098D01*
X165849829Y-119887496D01*
X165708789Y-119809638D01*
X165703920Y-119807914D01*
X165703916Y-119807912D01*
X165503087Y-119736795D01*
X165503083Y-119736794D01*
X165498212Y-119735069D01*
X165493119Y-119734162D01*
X165493116Y-119734161D01*
X165283373Y-119696800D01*
X165283367Y-119696799D01*
X165278284Y-119695894D01*
X165204452Y-119694992D01*
X165060081Y-119693228D01*
X165060079Y-119693228D01*
X165054911Y-119693165D01*
X164834091Y-119726955D01*
X164621756Y-119796357D01*
X164423607Y-119899507D01*
X164419474Y-119902610D01*
X164419471Y-119902612D01*
X164249100Y-120030530D01*
X164244965Y-120033635D01*
X164241393Y-120037373D01*
X164133729Y-120150037D01*
X164090629Y-120195138D01*
X163983201Y-120352621D01*
X163928293Y-120397621D01*
X163857768Y-120405792D01*
X163794021Y-120374538D01*
X163773324Y-120350054D01*
X163692822Y-120225617D01*
X163692820Y-120225614D01*
X163690014Y-120221277D01*
X163539670Y-120056051D01*
X163535619Y-120052852D01*
X163535615Y-120052848D01*
X163368414Y-119920800D01*
X163368410Y-119920798D01*
X163364359Y-119917598D01*
X163359831Y-119915098D01*
X163309829Y-119887496D01*
X163168789Y-119809638D01*
X163163920Y-119807914D01*
X163163916Y-119807912D01*
X162963087Y-119736795D01*
X162963083Y-119736794D01*
X162958212Y-119735069D01*
X162953119Y-119734162D01*
X162953116Y-119734161D01*
X162743373Y-119696800D01*
X162743367Y-119696799D01*
X162738284Y-119695894D01*
X162664452Y-119694992D01*
X162520081Y-119693228D01*
X162520079Y-119693228D01*
X162514911Y-119693165D01*
X162294091Y-119726955D01*
X162081756Y-119796357D01*
X161883607Y-119899507D01*
X161879474Y-119902610D01*
X161879471Y-119902612D01*
X161709100Y-120030530D01*
X161704965Y-120033635D01*
X161701393Y-120037373D01*
X161593729Y-120150037D01*
X161550629Y-120195138D01*
X161443201Y-120352621D01*
X161388293Y-120397621D01*
X161317768Y-120405792D01*
X161254021Y-120374538D01*
X161233324Y-120350054D01*
X161152822Y-120225617D01*
X161152820Y-120225614D01*
X161150014Y-120221277D01*
X160999670Y-120056051D01*
X160995619Y-120052852D01*
X160995615Y-120052848D01*
X160828414Y-119920800D01*
X160828410Y-119920798D01*
X160824359Y-119917598D01*
X160819831Y-119915098D01*
X160769829Y-119887496D01*
X160628789Y-119809638D01*
X160623920Y-119807914D01*
X160623916Y-119807912D01*
X160423087Y-119736795D01*
X160423083Y-119736794D01*
X160418212Y-119735069D01*
X160413119Y-119734162D01*
X160413116Y-119734161D01*
X160203373Y-119696800D01*
X160203367Y-119696799D01*
X160198284Y-119695894D01*
X160124452Y-119694992D01*
X159980081Y-119693228D01*
X159980079Y-119693228D01*
X159974911Y-119693165D01*
X159754091Y-119726955D01*
X159541756Y-119796357D01*
X159343607Y-119899507D01*
X159339474Y-119902610D01*
X159339471Y-119902612D01*
X159169100Y-120030530D01*
X159164965Y-120033635D01*
X159108537Y-120092684D01*
X159084283Y-120118064D01*
X159022759Y-120153494D01*
X158951846Y-120150037D01*
X158894060Y-120108791D01*
X158875207Y-120075243D01*
X158833767Y-119964703D01*
X158830615Y-119956295D01*
X158743261Y-119839739D01*
X158626705Y-119752385D01*
X158490316Y-119701255D01*
X158428134Y-119694500D01*
X156631866Y-119694500D01*
X156569684Y-119701255D01*
X156433295Y-119752385D01*
X156316739Y-119839739D01*
X156229385Y-119956295D01*
X156178255Y-120092684D01*
X156171500Y-120154866D01*
X156171500Y-121951134D01*
X156178255Y-122013316D01*
X156229385Y-122149705D01*
X156316739Y-122266261D01*
X156323919Y-122271642D01*
X156328682Y-122276405D01*
X156362708Y-122338717D01*
X156357643Y-122409532D01*
X156315096Y-122466368D01*
X156248576Y-122491179D01*
X156239587Y-122491500D01*
X153145346Y-122491500D01*
X153077225Y-122471498D01*
X153030732Y-122417842D01*
X153020628Y-122347568D01*
X153050122Y-122282988D01*
X153089910Y-122252351D01*
X153147994Y-122223896D01*
X153329860Y-122094173D01*
X153488096Y-121936489D01*
X153618453Y-121755077D01*
X153639320Y-121712857D01*
X153715136Y-121559453D01*
X153715137Y-121559451D01*
X153717430Y-121554811D01*
X153782370Y-121341069D01*
X153811529Y-121119590D01*
X153813156Y-121053000D01*
X153794852Y-120830361D01*
X153740431Y-120613702D01*
X153651354Y-120408840D01*
X153530014Y-120221277D01*
X153379670Y-120056051D01*
X153375619Y-120052852D01*
X153375615Y-120052848D01*
X153208414Y-119920800D01*
X153208410Y-119920798D01*
X153204359Y-119917598D01*
X153199831Y-119915098D01*
X153149829Y-119887496D01*
X153008789Y-119809638D01*
X153003920Y-119807914D01*
X153003916Y-119807912D01*
X152803087Y-119736795D01*
X152803083Y-119736794D01*
X152798212Y-119735069D01*
X152793119Y-119734162D01*
X152793116Y-119734161D01*
X152583373Y-119696800D01*
X152583367Y-119696799D01*
X152578284Y-119695894D01*
X152504452Y-119694992D01*
X152360081Y-119693228D01*
X152360079Y-119693228D01*
X152354911Y-119693165D01*
X152134091Y-119726955D01*
X151921756Y-119796357D01*
X151723607Y-119899507D01*
X151719474Y-119902610D01*
X151719471Y-119902612D01*
X151549100Y-120030530D01*
X151544965Y-120033635D01*
X151541393Y-120037373D01*
X151433729Y-120150037D01*
X151390629Y-120195138D01*
X151283201Y-120352621D01*
X151228293Y-120397621D01*
X151157768Y-120405792D01*
X151094021Y-120374538D01*
X151073324Y-120350054D01*
X150992822Y-120225617D01*
X150992820Y-120225614D01*
X150990014Y-120221277D01*
X150839670Y-120056051D01*
X150835619Y-120052852D01*
X150835615Y-120052848D01*
X150668414Y-119920800D01*
X150668410Y-119920798D01*
X150664359Y-119917598D01*
X150659831Y-119915098D01*
X150609829Y-119887496D01*
X150468789Y-119809638D01*
X150463920Y-119807914D01*
X150463916Y-119807912D01*
X150263087Y-119736795D01*
X150263083Y-119736794D01*
X150258212Y-119735069D01*
X150253119Y-119734162D01*
X150253116Y-119734161D01*
X150043373Y-119696800D01*
X150043367Y-119696799D01*
X150038284Y-119695894D01*
X149964452Y-119694992D01*
X149820081Y-119693228D01*
X149820079Y-119693228D01*
X149814911Y-119693165D01*
X149594091Y-119726955D01*
X149381756Y-119796357D01*
X149183607Y-119899507D01*
X149179474Y-119902610D01*
X149179471Y-119902612D01*
X149009100Y-120030530D01*
X149004965Y-120033635D01*
X149001393Y-120037373D01*
X148893729Y-120150037D01*
X148850629Y-120195138D01*
X148743201Y-120352621D01*
X148688293Y-120397621D01*
X148617768Y-120405792D01*
X148554021Y-120374538D01*
X148533324Y-120350054D01*
X148452822Y-120225617D01*
X148452820Y-120225614D01*
X148450014Y-120221277D01*
X148299670Y-120056051D01*
X148295619Y-120052852D01*
X148295615Y-120052848D01*
X148128414Y-119920800D01*
X148128410Y-119920798D01*
X148124359Y-119917598D01*
X148119831Y-119915098D01*
X148069829Y-119887496D01*
X147928789Y-119809638D01*
X147923920Y-119807914D01*
X147923916Y-119807912D01*
X147723087Y-119736795D01*
X147723083Y-119736794D01*
X147718212Y-119735069D01*
X147713119Y-119734162D01*
X147713116Y-119734161D01*
X147503373Y-119696800D01*
X147503367Y-119696799D01*
X147498284Y-119695894D01*
X147424452Y-119694992D01*
X147280081Y-119693228D01*
X147280079Y-119693228D01*
X147274911Y-119693165D01*
X147054091Y-119726955D01*
X146841756Y-119796357D01*
X146643607Y-119899507D01*
X146639474Y-119902610D01*
X146639471Y-119902612D01*
X146469100Y-120030530D01*
X146464965Y-120033635D01*
X146461393Y-120037373D01*
X146353729Y-120150037D01*
X146310629Y-120195138D01*
X146203201Y-120352621D01*
X146148293Y-120397621D01*
X146077768Y-120405792D01*
X146014021Y-120374538D01*
X145993324Y-120350054D01*
X145912822Y-120225617D01*
X145912820Y-120225614D01*
X145910014Y-120221277D01*
X145759670Y-120056051D01*
X145755619Y-120052852D01*
X145755615Y-120052848D01*
X145588414Y-119920800D01*
X145588410Y-119920798D01*
X145584359Y-119917598D01*
X145579831Y-119915098D01*
X145529829Y-119887496D01*
X145388789Y-119809638D01*
X145383920Y-119807914D01*
X145383916Y-119807912D01*
X145183087Y-119736795D01*
X145183083Y-119736794D01*
X145178212Y-119735069D01*
X145173119Y-119734162D01*
X145173116Y-119734161D01*
X144963373Y-119696800D01*
X144963367Y-119696799D01*
X144958284Y-119695894D01*
X144884452Y-119694992D01*
X144740081Y-119693228D01*
X144740079Y-119693228D01*
X144734911Y-119693165D01*
X144514091Y-119726955D01*
X144301756Y-119796357D01*
X144103607Y-119899507D01*
X144099474Y-119902610D01*
X144099471Y-119902612D01*
X143929100Y-120030530D01*
X143924965Y-120033635D01*
X143921393Y-120037373D01*
X143813729Y-120150037D01*
X143770629Y-120195138D01*
X143663201Y-120352621D01*
X143608293Y-120397621D01*
X143537768Y-120405792D01*
X143474021Y-120374538D01*
X143453324Y-120350054D01*
X143372822Y-120225617D01*
X143372820Y-120225614D01*
X143370014Y-120221277D01*
X143219670Y-120056051D01*
X143215619Y-120052852D01*
X143215615Y-120052848D01*
X143048414Y-119920800D01*
X143048410Y-119920798D01*
X143044359Y-119917598D01*
X143039831Y-119915098D01*
X142989829Y-119887496D01*
X142848789Y-119809638D01*
X142843920Y-119807914D01*
X142843916Y-119807912D01*
X142643087Y-119736795D01*
X142643083Y-119736794D01*
X142638212Y-119735069D01*
X142633119Y-119734162D01*
X142633116Y-119734161D01*
X142423373Y-119696800D01*
X142423367Y-119696799D01*
X142418284Y-119695894D01*
X142344452Y-119694992D01*
X142200081Y-119693228D01*
X142200079Y-119693228D01*
X142194911Y-119693165D01*
X141974091Y-119726955D01*
X141761756Y-119796357D01*
X141563607Y-119899507D01*
X141559474Y-119902610D01*
X141559471Y-119902612D01*
X141389100Y-120030530D01*
X141384965Y-120033635D01*
X141381393Y-120037373D01*
X141273729Y-120150037D01*
X141230629Y-120195138D01*
X141123201Y-120352621D01*
X141068293Y-120397621D01*
X140997768Y-120405792D01*
X140934021Y-120374538D01*
X140913324Y-120350054D01*
X140832822Y-120225617D01*
X140832820Y-120225614D01*
X140830014Y-120221277D01*
X140679670Y-120056051D01*
X140675619Y-120052852D01*
X140675615Y-120052848D01*
X140508414Y-119920800D01*
X140508410Y-119920798D01*
X140504359Y-119917598D01*
X140499831Y-119915098D01*
X140449829Y-119887496D01*
X140308789Y-119809638D01*
X140303920Y-119807914D01*
X140303916Y-119807912D01*
X140103087Y-119736795D01*
X140103083Y-119736794D01*
X140098212Y-119735069D01*
X140093119Y-119734162D01*
X140093116Y-119734161D01*
X139883373Y-119696800D01*
X139883367Y-119696799D01*
X139878284Y-119695894D01*
X139804452Y-119694992D01*
X139660081Y-119693228D01*
X139660079Y-119693228D01*
X139654911Y-119693165D01*
X139434091Y-119726955D01*
X139221756Y-119796357D01*
X139023607Y-119899507D01*
X139019474Y-119902610D01*
X139019471Y-119902612D01*
X138849100Y-120030530D01*
X138844965Y-120033635D01*
X138841393Y-120037373D01*
X138733729Y-120150037D01*
X138690629Y-120195138D01*
X138583201Y-120352621D01*
X138528293Y-120397621D01*
X138457768Y-120405792D01*
X138394021Y-120374538D01*
X138373324Y-120350054D01*
X138292822Y-120225617D01*
X138292820Y-120225614D01*
X138290014Y-120221277D01*
X138139670Y-120056051D01*
X138135619Y-120052852D01*
X138135615Y-120052848D01*
X137968414Y-119920800D01*
X137968410Y-119920798D01*
X137964359Y-119917598D01*
X137959831Y-119915098D01*
X137909829Y-119887496D01*
X137768789Y-119809638D01*
X137763920Y-119807914D01*
X137763916Y-119807912D01*
X137563087Y-119736795D01*
X137563083Y-119736794D01*
X137558212Y-119735069D01*
X137553119Y-119734162D01*
X137553116Y-119734161D01*
X137343373Y-119696800D01*
X137343367Y-119696799D01*
X137338284Y-119695894D01*
X137264452Y-119694992D01*
X137120081Y-119693228D01*
X137120079Y-119693228D01*
X137114911Y-119693165D01*
X136894091Y-119726955D01*
X136681756Y-119796357D01*
X136483607Y-119899507D01*
X136479474Y-119902610D01*
X136479471Y-119902612D01*
X136309100Y-120030530D01*
X136304965Y-120033635D01*
X136248537Y-120092684D01*
X136224283Y-120118064D01*
X136162759Y-120153494D01*
X136091846Y-120150037D01*
X136034060Y-120108791D01*
X136015207Y-120075243D01*
X135973767Y-119964703D01*
X135970615Y-119956295D01*
X135883261Y-119839739D01*
X135766705Y-119752385D01*
X135630316Y-119701255D01*
X135568134Y-119694500D01*
X133771866Y-119694500D01*
X133709684Y-119701255D01*
X133573295Y-119752385D01*
X133456739Y-119839739D01*
X133369385Y-119956295D01*
X133318255Y-120092684D01*
X133311500Y-120154866D01*
X133311500Y-121951134D01*
X133318255Y-122013316D01*
X133369385Y-122149705D01*
X133456739Y-122266261D01*
X133463919Y-122271642D01*
X133468682Y-122276405D01*
X133502708Y-122338717D01*
X133497643Y-122409532D01*
X133455096Y-122466368D01*
X133388576Y-122491179D01*
X133379587Y-122491500D01*
X130285346Y-122491500D01*
X130217225Y-122471498D01*
X130170732Y-122417842D01*
X130160628Y-122347568D01*
X130190122Y-122282988D01*
X130229910Y-122252351D01*
X130287994Y-122223896D01*
X130469860Y-122094173D01*
X130628096Y-121936489D01*
X130758453Y-121755077D01*
X130779320Y-121712857D01*
X130855136Y-121559453D01*
X130855137Y-121559451D01*
X130857430Y-121554811D01*
X130922370Y-121341069D01*
X130951529Y-121119590D01*
X130953156Y-121053000D01*
X130934852Y-120830361D01*
X130907389Y-120721024D01*
X130910194Y-120650083D01*
X130940498Y-120601234D01*
X132919328Y-118622405D01*
X132981640Y-118588379D01*
X133008423Y-118585500D01*
X143153542Y-118585500D01*
X143213664Y-118600769D01*
X143237268Y-118613585D01*
X143403139Y-118657101D01*
X143490586Y-118658474D01*
X143567003Y-118659675D01*
X143567006Y-118659675D01*
X143574602Y-118659794D01*
X143582006Y-118658098D01*
X143582008Y-118658098D01*
X143644846Y-118643706D01*
X143741759Y-118621510D01*
X143894958Y-118544459D01*
X143900729Y-118539530D01*
X143900732Y-118539528D01*
X144019578Y-118438023D01*
X144025355Y-118433089D01*
X144125424Y-118293830D01*
X144189385Y-118134720D01*
X144213547Y-117964947D01*
X144213704Y-117950000D01*
X144193102Y-117779758D01*
X144132487Y-117619344D01*
X144035357Y-117478019D01*
X144029686Y-117472966D01*
X143912993Y-117368996D01*
X143912990Y-117368994D01*
X143907321Y-117363943D01*
X143755769Y-117283700D01*
X143717693Y-117274136D01*
X143656498Y-117238140D01*
X143630524Y-117196470D01*
X143585171Y-117076447D01*
X143582487Y-117069344D01*
X143485357Y-116928019D01*
X143479686Y-116922966D01*
X143362993Y-116818996D01*
X143362990Y-116818994D01*
X143357321Y-116813943D01*
X143205769Y-116733700D01*
X143167693Y-116724136D01*
X143106498Y-116688140D01*
X143080524Y-116646470D01*
X143035171Y-116526447D01*
X143032487Y-116519344D01*
X143028186Y-116513086D01*
X142939659Y-116384278D01*
X142939658Y-116384276D01*
X142935357Y-116378019D01*
X142929686Y-116372966D01*
X142812993Y-116268996D01*
X142812990Y-116268994D01*
X142807321Y-116263943D01*
X142655769Y-116183700D01*
X142638196Y-116179286D01*
X142496822Y-116143775D01*
X142496818Y-116143775D01*
X142489451Y-116141924D01*
X142481852Y-116141884D01*
X142481850Y-116141884D01*
X142410394Y-116141510D01*
X142317969Y-116141026D01*
X142310589Y-116142798D01*
X142310587Y-116142798D01*
X142158602Y-116179286D01*
X142158598Y-116179287D01*
X142151223Y-116181058D01*
X142139219Y-116187254D01*
X142113621Y-116200466D01*
X142055831Y-116214500D01*
X132587900Y-116214500D01*
X132576661Y-116213970D01*
X132569149Y-116212291D01*
X132561224Y-116212540D01*
X132561223Y-116212540D01*
X132500838Y-116214438D01*
X132496880Y-116214500D01*
X132468885Y-116214500D01*
X132464951Y-116214997D01*
X132464949Y-116214997D01*
X132464862Y-116215008D01*
X132453028Y-116215940D01*
X132408663Y-116217335D01*
X132401050Y-116219547D01*
X132401049Y-116219547D01*
X132389120Y-116223013D01*
X132369756Y-116227023D01*
X132357428Y-116228580D01*
X132357426Y-116228580D01*
X132349569Y-116229573D01*
X132342205Y-116232489D01*
X132342200Y-116232490D01*
X132308312Y-116245907D01*
X132297083Y-116249752D01*
X132280403Y-116254598D01*
X132254475Y-116262131D01*
X132247648Y-116266169D01*
X132247645Y-116266170D01*
X132236962Y-116272488D01*
X132219204Y-116281188D01*
X132207653Y-116285761D01*
X132207647Y-116285765D01*
X132200280Y-116288681D01*
X132193869Y-116293339D01*
X132193867Y-116293340D01*
X132164380Y-116314764D01*
X132154458Y-116321281D01*
X132123100Y-116339826D01*
X132123096Y-116339829D01*
X132116270Y-116343866D01*
X132101886Y-116358250D01*
X132086852Y-116371091D01*
X132070381Y-116383058D01*
X132065328Y-116389166D01*
X132042091Y-116417255D01*
X132034101Y-116426035D01*
X129710551Y-118749584D01*
X129648239Y-118783610D01*
X129621456Y-118786489D01*
X128117964Y-118786489D01*
X128106735Y-118785960D01*
X128099225Y-118784281D01*
X128091299Y-118784530D01*
X128091298Y-118784530D01*
X128030946Y-118786427D01*
X128026988Y-118786489D01*
X127998961Y-118786489D01*
X127994915Y-118787000D01*
X127983087Y-118787931D01*
X127938739Y-118789325D01*
X127931121Y-118791538D01*
X127931122Y-118791538D01*
X127919198Y-118795002D01*
X127899838Y-118799011D01*
X127887510Y-118800568D01*
X127887507Y-118800569D01*
X127879645Y-118801562D01*
X127872279Y-118804479D01*
X127872273Y-118804480D01*
X127838383Y-118817898D01*
X127827156Y-118821742D01*
X127784551Y-118834120D01*
X127777732Y-118838153D01*
X127777727Y-118838155D01*
X127767035Y-118844479D01*
X127749285Y-118853176D01*
X127730356Y-118860670D01*
X127723940Y-118865331D01*
X127723939Y-118865332D01*
X127694463Y-118886748D01*
X127684539Y-118893267D01*
X127653168Y-118911819D01*
X127653163Y-118911823D01*
X127646345Y-118915855D01*
X127631958Y-118930242D01*
X127616924Y-118943083D01*
X127600457Y-118955047D01*
X127595404Y-118961155D01*
X127572172Y-118989238D01*
X127564182Y-118998018D01*
X127407472Y-119154728D01*
X127382517Y-119174086D01*
X127376287Y-119177770D01*
X127376284Y-119177772D01*
X127369460Y-119181808D01*
X127355076Y-119196192D01*
X127340042Y-119209033D01*
X127329854Y-119216435D01*
X127255793Y-119240499D01*
X125766033Y-119240499D01*
X125754794Y-119239969D01*
X125747282Y-119238290D01*
X125739357Y-119238539D01*
X125739356Y-119238539D01*
X125678971Y-119240437D01*
X125675013Y-119240499D01*
X125647018Y-119240499D01*
X125643084Y-119240996D01*
X125643082Y-119240996D01*
X125642995Y-119241007D01*
X125631161Y-119241939D01*
X125586796Y-119243334D01*
X125579183Y-119245546D01*
X125579182Y-119245546D01*
X125567253Y-119249012D01*
X125547889Y-119253022D01*
X125535561Y-119254579D01*
X125535559Y-119254579D01*
X125527702Y-119255572D01*
X125520338Y-119258488D01*
X125520333Y-119258489D01*
X125486445Y-119271906D01*
X125475216Y-119275751D01*
X125458536Y-119280597D01*
X125432608Y-119288130D01*
X125425781Y-119292168D01*
X125425778Y-119292169D01*
X125415095Y-119298487D01*
X125397337Y-119307187D01*
X125385786Y-119311760D01*
X125385780Y-119311764D01*
X125378413Y-119314680D01*
X125372002Y-119319338D01*
X125372000Y-119319339D01*
X125342513Y-119340763D01*
X125332591Y-119347280D01*
X125301233Y-119365825D01*
X125301229Y-119365828D01*
X125294403Y-119369865D01*
X125280019Y-119384249D01*
X125264985Y-119397090D01*
X125248514Y-119409057D01*
X125243461Y-119415165D01*
X125220224Y-119443254D01*
X125212234Y-119452034D01*
X124964945Y-119699323D01*
X124902633Y-119733349D01*
X124853754Y-119734275D01*
X124643373Y-119696800D01*
X124643367Y-119696799D01*
X124638284Y-119695894D01*
X124564452Y-119694992D01*
X124420081Y-119693228D01*
X124420079Y-119693228D01*
X124414911Y-119693165D01*
X124194091Y-119726955D01*
X123981756Y-119796357D01*
X123783607Y-119899507D01*
X123779474Y-119902610D01*
X123779471Y-119902612D01*
X123609100Y-120030530D01*
X123604965Y-120033635D01*
X123601393Y-120037373D01*
X123493729Y-120150037D01*
X123450629Y-120195138D01*
X123343201Y-120352621D01*
X123288293Y-120397621D01*
X123217768Y-120405792D01*
X123154021Y-120374538D01*
X123133324Y-120350054D01*
X123052822Y-120225617D01*
X123052820Y-120225614D01*
X123050014Y-120221277D01*
X122899670Y-120056051D01*
X122895619Y-120052852D01*
X122895615Y-120052848D01*
X122728414Y-119920800D01*
X122728410Y-119920798D01*
X122724359Y-119917598D01*
X122719831Y-119915098D01*
X122669829Y-119887496D01*
X122528789Y-119809638D01*
X122523920Y-119807914D01*
X122523916Y-119807912D01*
X122323087Y-119736795D01*
X122323083Y-119736794D01*
X122318212Y-119735069D01*
X122313119Y-119734162D01*
X122313116Y-119734161D01*
X122103373Y-119696800D01*
X122103367Y-119696799D01*
X122098284Y-119695894D01*
X122024452Y-119694992D01*
X121880081Y-119693228D01*
X121880079Y-119693228D01*
X121874911Y-119693165D01*
X121654091Y-119726955D01*
X121441756Y-119796357D01*
X121243607Y-119899507D01*
X121239474Y-119902610D01*
X121239471Y-119902612D01*
X121069100Y-120030530D01*
X121064965Y-120033635D01*
X121061393Y-120037373D01*
X120953729Y-120150037D01*
X120910629Y-120195138D01*
X120803201Y-120352621D01*
X120748293Y-120397621D01*
X120677768Y-120405792D01*
X120614021Y-120374538D01*
X120593324Y-120350054D01*
X120512822Y-120225617D01*
X120512820Y-120225614D01*
X120510014Y-120221277D01*
X120359670Y-120056051D01*
X120355619Y-120052852D01*
X120355615Y-120052848D01*
X120188414Y-119920800D01*
X120188410Y-119920798D01*
X120184359Y-119917598D01*
X120179831Y-119915098D01*
X120129829Y-119887496D01*
X119988789Y-119809638D01*
X119983920Y-119807914D01*
X119983916Y-119807912D01*
X119783087Y-119736795D01*
X119783083Y-119736794D01*
X119778212Y-119735069D01*
X119773119Y-119734162D01*
X119773116Y-119734161D01*
X119563373Y-119696800D01*
X119563367Y-119696799D01*
X119558284Y-119695894D01*
X119484452Y-119694992D01*
X119340081Y-119693228D01*
X119340079Y-119693228D01*
X119334911Y-119693165D01*
X119114091Y-119726955D01*
X118901756Y-119796357D01*
X118703607Y-119899507D01*
X118699474Y-119902610D01*
X118699471Y-119902612D01*
X118529100Y-120030530D01*
X118524965Y-120033635D01*
X118521393Y-120037373D01*
X118413729Y-120150037D01*
X118370629Y-120195138D01*
X118263201Y-120352621D01*
X118208293Y-120397621D01*
X118137768Y-120405792D01*
X118074021Y-120374538D01*
X118053324Y-120350054D01*
X117972822Y-120225617D01*
X117972820Y-120225614D01*
X117970014Y-120221277D01*
X117819670Y-120056051D01*
X117815619Y-120052852D01*
X117815615Y-120052848D01*
X117648414Y-119920800D01*
X117648410Y-119920798D01*
X117644359Y-119917598D01*
X117639835Y-119915101D01*
X117639831Y-119915098D01*
X117590608Y-119887926D01*
X117540636Y-119837494D01*
X117525500Y-119777617D01*
X117525500Y-117572554D01*
X117545502Y-117504433D01*
X117562405Y-117483459D01*
X121551196Y-113494669D01*
X153642001Y-113494669D01*
X153642371Y-113501490D01*
X153647895Y-113552352D01*
X153651521Y-113567604D01*
X153696676Y-113688054D01*
X153705214Y-113703649D01*
X153781715Y-113805724D01*
X153794276Y-113818285D01*
X153896351Y-113894786D01*
X153911946Y-113903324D01*
X154032394Y-113948478D01*
X154047649Y-113952105D01*
X154098514Y-113957631D01*
X154105328Y-113958000D01*
X154727885Y-113958000D01*
X154743124Y-113953525D01*
X154744329Y-113952135D01*
X154746000Y-113944452D01*
X154746000Y-113939884D01*
X155254000Y-113939884D01*
X155258475Y-113955123D01*
X155259865Y-113956328D01*
X155267548Y-113957999D01*
X155894669Y-113957999D01*
X155901490Y-113957629D01*
X155952352Y-113952105D01*
X155967604Y-113948479D01*
X156088054Y-113903324D01*
X156103649Y-113894786D01*
X156205724Y-113818285D01*
X156218285Y-113805724D01*
X156294786Y-113703649D01*
X156303325Y-113688052D01*
X156344425Y-113578418D01*
X156387066Y-113521653D01*
X156453628Y-113496953D01*
X156522977Y-113512160D01*
X156557645Y-113540150D01*
X156583219Y-113569674D01*
X156590580Y-113576883D01*
X156754434Y-113712916D01*
X156762881Y-113718831D01*
X156946756Y-113826279D01*
X156956042Y-113830729D01*
X157155001Y-113906703D01*
X157164899Y-113909579D01*
X157268250Y-113930606D01*
X157282299Y-113929410D01*
X157286000Y-113919065D01*
X157286000Y-113918517D01*
X157794000Y-113918517D01*
X157798064Y-113932359D01*
X157811478Y-113934393D01*
X157818184Y-113933534D01*
X157828262Y-113931392D01*
X158032255Y-113870191D01*
X158041842Y-113866433D01*
X158233095Y-113772739D01*
X158241945Y-113767464D01*
X158415328Y-113643792D01*
X158423200Y-113637139D01*
X158574052Y-113486812D01*
X158580730Y-113478965D01*
X158708022Y-113301819D01*
X158709147Y-113302627D01*
X158756669Y-113258876D01*
X158826607Y-113246661D01*
X158892046Y-113274197D01*
X158919870Y-113306028D01*
X158977690Y-113400383D01*
X158983777Y-113408699D01*
X159123213Y-113569667D01*
X159130580Y-113576883D01*
X159294434Y-113712916D01*
X159302881Y-113718831D01*
X159486756Y-113826279D01*
X159496042Y-113830729D01*
X159695001Y-113906703D01*
X159704899Y-113909579D01*
X159808250Y-113930606D01*
X159822299Y-113929410D01*
X159826000Y-113919065D01*
X159826000Y-113918517D01*
X160334000Y-113918517D01*
X160338064Y-113932359D01*
X160351478Y-113934393D01*
X160358184Y-113933534D01*
X160368262Y-113931392D01*
X160572255Y-113870191D01*
X160581842Y-113866433D01*
X160773095Y-113772739D01*
X160781945Y-113767464D01*
X160955328Y-113643792D01*
X160963200Y-113637139D01*
X161114052Y-113486812D01*
X161120730Y-113478965D01*
X161245003Y-113306020D01*
X161250313Y-113297183D01*
X161344670Y-113106267D01*
X161348469Y-113096672D01*
X161410377Y-112892910D01*
X161412555Y-112882837D01*
X161413986Y-112871962D01*
X161411775Y-112857778D01*
X161398617Y-112854000D01*
X160352115Y-112854000D01*
X160336876Y-112858475D01*
X160335671Y-112859865D01*
X160334000Y-112867548D01*
X160334000Y-113918517D01*
X159826000Y-113918517D01*
X159826000Y-112872115D01*
X159821525Y-112856876D01*
X159820135Y-112855671D01*
X159812452Y-112854000D01*
X157812115Y-112854000D01*
X157796876Y-112858475D01*
X157795671Y-112859865D01*
X157794000Y-112867548D01*
X157794000Y-113918517D01*
X157286000Y-113918517D01*
X157286000Y-112872115D01*
X157281525Y-112856876D01*
X157280135Y-112855671D01*
X157272452Y-112854000D01*
X155272115Y-112854000D01*
X155256876Y-112858475D01*
X155255671Y-112859865D01*
X155254000Y-112867548D01*
X155254000Y-113939884D01*
X154746000Y-113939884D01*
X154746000Y-112872115D01*
X154741525Y-112856876D01*
X154740135Y-112855671D01*
X154732452Y-112854000D01*
X153660116Y-112854000D01*
X153644877Y-112858475D01*
X153643672Y-112859865D01*
X153642001Y-112867548D01*
X153642001Y-113494669D01*
X121551196Y-113494669D01*
X122671460Y-112374405D01*
X122733772Y-112340379D01*
X122760555Y-112337500D01*
X123204959Y-112337500D01*
X123273952Y-112358068D01*
X123375030Y-112424211D01*
X123381159Y-112428222D01*
X123387763Y-112430678D01*
X123387765Y-112430679D01*
X123544558Y-112488990D01*
X123544560Y-112488990D01*
X123551168Y-112491448D01*
X123634995Y-112502633D01*
X123723980Y-112514507D01*
X123723984Y-112514507D01*
X123730961Y-112515438D01*
X123737972Y-112514800D01*
X123737976Y-112514800D01*
X123880459Y-112501832D01*
X123911600Y-112498998D01*
X123918302Y-112496820D01*
X123918304Y-112496820D01*
X124077409Y-112445124D01*
X124077412Y-112445123D01*
X124084108Y-112442947D01*
X124226789Y-112357892D01*
X124231186Y-112355271D01*
X124295703Y-112337500D01*
X128890086Y-112337500D01*
X128901320Y-112338030D01*
X128908825Y-112339708D01*
X128977118Y-112337562D01*
X128981075Y-112337500D01*
X129009089Y-112337500D01*
X129013014Y-112337004D01*
X129013015Y-112337004D01*
X129013110Y-112336992D01*
X129024955Y-112336059D01*
X129054776Y-112335122D01*
X129061388Y-112334914D01*
X129061389Y-112334914D01*
X129069311Y-112334665D01*
X129088855Y-112328987D01*
X129108218Y-112324977D01*
X129120546Y-112323420D01*
X129120548Y-112323420D01*
X129128405Y-112322427D01*
X129135769Y-112319511D01*
X129135774Y-112319510D01*
X129169662Y-112306093D01*
X129180891Y-112302248D01*
X129197571Y-112297402D01*
X129223499Y-112289869D01*
X129230326Y-112285831D01*
X129230329Y-112285830D01*
X129241012Y-112279512D01*
X129258770Y-112270812D01*
X129270321Y-112266239D01*
X129270327Y-112266235D01*
X129277694Y-112263319D01*
X129313597Y-112237234D01*
X129323516Y-112230719D01*
X129354874Y-112212174D01*
X129354878Y-112212171D01*
X129361704Y-112208134D01*
X129376088Y-112193750D01*
X129391122Y-112180909D01*
X129401179Y-112173602D01*
X129407593Y-112168942D01*
X129435884Y-112134744D01*
X129443873Y-112125965D01*
X131076009Y-110493830D01*
X131084335Y-110486254D01*
X131090829Y-110482133D01*
X131137612Y-110432314D01*
X131140366Y-110429473D01*
X131160165Y-110409674D01*
X131162589Y-110406549D01*
X131162597Y-110406540D01*
X131162663Y-110406454D01*
X131170371Y-110397429D01*
X131195316Y-110370865D01*
X131200743Y-110365086D01*
X131210549Y-110347249D01*
X131221399Y-110330733D01*
X131233876Y-110314647D01*
X131251502Y-110273914D01*
X131256719Y-110263266D01*
X131274275Y-110231331D01*
X131278095Y-110224383D01*
X131280066Y-110216708D01*
X131280068Y-110216702D01*
X131283157Y-110204669D01*
X131289560Y-110185967D01*
X131297643Y-110167288D01*
X131304586Y-110123453D01*
X131306993Y-110111831D01*
X131310877Y-110096705D01*
X131318026Y-110068862D01*
X131318026Y-110048515D01*
X131319577Y-110028804D01*
X131321521Y-110016530D01*
X131322761Y-110008701D01*
X131320177Y-109981364D01*
X131318585Y-109964524D01*
X131318026Y-109952666D01*
X131318026Y-108018003D01*
X131338028Y-107949882D01*
X131354931Y-107928907D01*
X131538092Y-107745747D01*
X132155509Y-107128331D01*
X132163831Y-107120758D01*
X132170329Y-107116634D01*
X132217113Y-107066814D01*
X132219867Y-107063973D01*
X132239664Y-107044176D01*
X132242083Y-107041057D01*
X132242089Y-107041051D01*
X132242168Y-107040949D01*
X132249870Y-107031933D01*
X132274814Y-107005369D01*
X132274816Y-107005367D01*
X132280243Y-106999587D01*
X132284059Y-106992645D01*
X132284063Y-106992640D01*
X132290051Y-106981748D01*
X132300903Y-106965228D01*
X132302872Y-106962689D01*
X132313375Y-106949149D01*
X132331004Y-106908410D01*
X132336220Y-106897766D01*
X132356781Y-106860366D01*
X132407126Y-106810307D01*
X132476543Y-106795414D01*
X132542992Y-106820415D01*
X132585376Y-106877372D01*
X132592410Y-106935112D01*
X132589048Y-106965088D01*
X132586719Y-106985851D01*
X132587016Y-106989392D01*
X132586645Y-106992925D01*
X132595254Y-107087518D01*
X132595310Y-107088159D01*
X132603268Y-107182934D01*
X132604248Y-107186353D01*
X132604570Y-107189888D01*
X132630880Y-107279282D01*
X132631364Y-107280928D01*
X132631577Y-107281660D01*
X132645695Y-107330896D01*
X132647859Y-107338440D01*
X132657783Y-107373050D01*
X132659406Y-107376208D01*
X132660410Y-107379619D01*
X132686301Y-107429144D01*
X132704410Y-107463783D01*
X132704814Y-107464563D01*
X132744309Y-107541410D01*
X132748187Y-107548956D01*
X132750393Y-107551739D01*
X132752040Y-107554890D01*
X132803645Y-107619073D01*
X132811466Y-107628800D01*
X132812015Y-107629488D01*
X132853690Y-107682069D01*
X132871035Y-107703953D01*
X132873743Y-107706258D01*
X132875968Y-107709025D01*
X132948781Y-107770123D01*
X132949247Y-107770516D01*
X133021650Y-107832136D01*
X133024751Y-107833869D01*
X133027474Y-107836154D01*
X133032869Y-107839120D01*
X133032872Y-107839122D01*
X133110718Y-107881919D01*
X133111485Y-107882344D01*
X133194294Y-107928624D01*
X133197677Y-107929723D01*
X133200787Y-107931433D01*
X133206668Y-107933298D01*
X133206669Y-107933299D01*
X133291233Y-107960124D01*
X133292071Y-107960393D01*
X133354370Y-107980635D01*
X133382392Y-107989740D01*
X133385919Y-107990161D01*
X133389306Y-107991235D01*
X133395427Y-107991922D01*
X133395429Y-107991922D01*
X133483594Y-108001811D01*
X133484468Y-108001912D01*
X133578777Y-108013158D01*
X133584912Y-108012686D01*
X133584914Y-108012686D01*
X133634489Y-108008871D01*
X133644156Y-108008500D01*
X136257412Y-108008500D01*
X136325533Y-108028502D01*
X136372026Y-108082158D01*
X136378033Y-108098079D01*
X136381885Y-108110835D01*
X136382751Y-108113704D01*
X136383126Y-108114969D01*
X136398315Y-108167246D01*
X136409091Y-108204338D01*
X136411544Y-108209070D01*
X136413084Y-108214171D01*
X136415978Y-108219614D01*
X136456731Y-108296262D01*
X136457343Y-108297428D01*
X136469651Y-108321172D01*
X136500108Y-108379928D01*
X136503431Y-108384091D01*
X136505934Y-108388798D01*
X136564755Y-108460920D01*
X136565446Y-108461776D01*
X136596738Y-108500975D01*
X136599242Y-108503479D01*
X136599884Y-108504197D01*
X136603585Y-108508530D01*
X136630935Y-108542064D01*
X136635682Y-108545991D01*
X136635684Y-108545993D01*
X136666262Y-108571289D01*
X136675042Y-108579279D01*
X136879128Y-108783365D01*
X136913154Y-108845677D01*
X136908089Y-108916492D01*
X136865542Y-108973328D01*
X136847824Y-108984425D01*
X136811130Y-109003365D01*
X136798839Y-109009709D01*
X136669615Y-109122439D01*
X136571010Y-109262739D01*
X136508718Y-109422509D01*
X136507726Y-109430042D01*
X136507726Y-109430043D01*
X136487525Y-109583489D01*
X136486335Y-109592526D01*
X136492418Y-109647625D01*
X136503721Y-109750001D01*
X136505153Y-109762975D01*
X136564085Y-109924015D01*
X136568322Y-109930321D01*
X136568324Y-109930324D01*
X136595007Y-109970032D01*
X136659730Y-110066349D01*
X136671876Y-110077401D01*
X136774626Y-110170896D01*
X136786565Y-110181760D01*
X136937268Y-110263585D01*
X137103139Y-110307101D01*
X137190586Y-110308474D01*
X137267003Y-110309675D01*
X137267006Y-110309675D01*
X137274602Y-110309794D01*
X137405392Y-110279839D01*
X137476258Y-110284128D01*
X137522616Y-110313564D01*
X138424484Y-111215432D01*
X138453715Y-111261225D01*
X138479477Y-111331623D01*
X138483714Y-111337929D01*
X138483716Y-111337932D01*
X138515141Y-111384697D01*
X138575122Y-111473957D01*
X138701957Y-111589368D01*
X138852660Y-111671193D01*
X139018531Y-111714709D01*
X139105978Y-111716082D01*
X139182395Y-111717283D01*
X139182398Y-111717283D01*
X139189994Y-111717402D01*
X139197398Y-111715706D01*
X139197400Y-111715706D01*
X139301730Y-111691811D01*
X139357151Y-111679118D01*
X139510350Y-111602067D01*
X139522905Y-111591344D01*
X139587694Y-111562315D01*
X139657894Y-111572922D01*
X139693827Y-111598063D01*
X140515144Y-112419380D01*
X140524246Y-112429523D01*
X140547967Y-112459026D01*
X140552695Y-112462993D01*
X140586420Y-112491292D01*
X140590068Y-112494473D01*
X140591880Y-112496116D01*
X140594074Y-112498310D01*
X140627348Y-112525643D01*
X140628146Y-112526305D01*
X140699473Y-112586155D01*
X140704143Y-112588723D01*
X140708260Y-112592104D01*
X140728078Y-112602730D01*
X140790085Y-112635978D01*
X140791244Y-112636607D01*
X140867380Y-112678463D01*
X140867388Y-112678466D01*
X140872786Y-112681434D01*
X140877868Y-112683046D01*
X140882562Y-112685563D01*
X140971530Y-112712763D01*
X140972558Y-112713083D01*
X141061305Y-112741236D01*
X141066601Y-112741830D01*
X141071697Y-112743388D01*
X141164256Y-112752791D01*
X141165392Y-112752912D01*
X141199007Y-112756682D01*
X141211729Y-112758109D01*
X141211733Y-112758109D01*
X141215226Y-112758501D01*
X141218753Y-112758501D01*
X141219738Y-112758556D01*
X141225418Y-112759003D01*
X141254824Y-112761990D01*
X141262336Y-112762753D01*
X141262338Y-112762753D01*
X141268461Y-112763375D01*
X141314107Y-112759060D01*
X141325966Y-112758501D01*
X151638156Y-112758501D01*
X151651763Y-112759238D01*
X151683261Y-112762660D01*
X151683266Y-112762660D01*
X151689387Y-112763325D01*
X151715637Y-112761028D01*
X151739387Y-112758951D01*
X151744213Y-112758622D01*
X151746685Y-112758501D01*
X151749768Y-112758501D01*
X151761737Y-112757327D01*
X151792505Y-112754311D01*
X151793818Y-112754189D01*
X151838083Y-112750316D01*
X151886412Y-112746088D01*
X151891531Y-112744601D01*
X151896832Y-112744081D01*
X151985833Y-112717210D01*
X151986966Y-112716875D01*
X152070413Y-112692631D01*
X152070417Y-112692629D01*
X152076335Y-112690910D01*
X152081067Y-112688457D01*
X152086168Y-112686917D01*
X152093172Y-112683193D01*
X152168259Y-112643270D01*
X152169425Y-112642658D01*
X152246452Y-112602730D01*
X152251925Y-112599893D01*
X152256088Y-112596570D01*
X152260795Y-112594067D01*
X152332917Y-112535246D01*
X152333773Y-112534555D01*
X152372972Y-112503263D01*
X152375476Y-112500759D01*
X152376194Y-112500117D01*
X152380527Y-112496416D01*
X152414061Y-112469066D01*
X152422245Y-112459174D01*
X152443286Y-112433739D01*
X152451276Y-112424959D01*
X152953794Y-111922441D01*
X153484793Y-111391441D01*
X153547105Y-111357416D01*
X153617920Y-111362480D01*
X153674756Y-111405027D01*
X153699567Y-111471547D01*
X153691870Y-111524766D01*
X153651522Y-111632394D01*
X153647895Y-111647649D01*
X153642369Y-111698514D01*
X153642000Y-111705328D01*
X153642000Y-112327885D01*
X153646475Y-112343124D01*
X153647865Y-112344329D01*
X153655548Y-112346000D01*
X154727885Y-112346000D01*
X154743124Y-112341525D01*
X154744329Y-112340135D01*
X154746000Y-112332452D01*
X154746000Y-112327885D01*
X155254000Y-112327885D01*
X155258475Y-112343124D01*
X155259865Y-112344329D01*
X155267548Y-112346000D01*
X157267885Y-112346000D01*
X157283124Y-112341525D01*
X157284329Y-112340135D01*
X157286000Y-112332452D01*
X157286000Y-112327885D01*
X157794000Y-112327885D01*
X157798475Y-112343124D01*
X157799865Y-112344329D01*
X157807548Y-112346000D01*
X159807885Y-112346000D01*
X159823124Y-112341525D01*
X159824329Y-112340135D01*
X159826000Y-112332452D01*
X159826000Y-112327885D01*
X160334000Y-112327885D01*
X160338475Y-112343124D01*
X160339865Y-112344329D01*
X160347548Y-112346000D01*
X161398344Y-112346000D01*
X161411875Y-112342027D01*
X161413180Y-112332947D01*
X161371214Y-112165875D01*
X161367894Y-112156124D01*
X161282972Y-111960814D01*
X161278105Y-111951739D01*
X161162426Y-111772926D01*
X161156136Y-111764757D01*
X161012806Y-111607240D01*
X161005273Y-111600215D01*
X160838139Y-111468222D01*
X160829552Y-111462517D01*
X160643117Y-111359599D01*
X160633705Y-111355369D01*
X160432959Y-111284280D01*
X160422988Y-111281646D01*
X160351837Y-111268972D01*
X160338540Y-111270432D01*
X160334000Y-111284989D01*
X160334000Y-112327885D01*
X159826000Y-112327885D01*
X159826000Y-111283102D01*
X159822082Y-111269758D01*
X159807806Y-111267771D01*
X159769324Y-111273660D01*
X159759288Y-111276051D01*
X159556868Y-111342212D01*
X159547359Y-111346209D01*
X159358463Y-111444542D01*
X159349738Y-111450036D01*
X159179433Y-111577905D01*
X159171726Y-111584748D01*
X159024590Y-111738717D01*
X159018104Y-111746727D01*
X158913193Y-111900521D01*
X158858282Y-111945524D01*
X158787757Y-111953695D01*
X158724010Y-111922441D01*
X158703313Y-111897957D01*
X158622427Y-111772926D01*
X158616136Y-111764757D01*
X158472806Y-111607240D01*
X158465273Y-111600215D01*
X158298139Y-111468222D01*
X158289552Y-111462517D01*
X158103117Y-111359599D01*
X158093705Y-111355369D01*
X157892959Y-111284280D01*
X157882988Y-111281646D01*
X157811837Y-111268972D01*
X157798540Y-111270432D01*
X157794000Y-111284989D01*
X157794000Y-112327885D01*
X157286000Y-112327885D01*
X157286000Y-111283102D01*
X157282082Y-111269758D01*
X157267806Y-111267771D01*
X157229324Y-111273660D01*
X157219288Y-111276051D01*
X157016868Y-111342212D01*
X157007359Y-111346209D01*
X156818463Y-111444542D01*
X156809738Y-111450036D01*
X156639433Y-111577905D01*
X156631726Y-111584748D01*
X156554094Y-111665985D01*
X156492570Y-111701415D01*
X156421657Y-111697958D01*
X156363871Y-111656712D01*
X156345018Y-111623164D01*
X156303324Y-111511946D01*
X156294786Y-111496351D01*
X156218285Y-111394276D01*
X156205724Y-111381715D01*
X156103649Y-111305214D01*
X156088054Y-111296676D01*
X155967606Y-111251522D01*
X155952351Y-111247895D01*
X155901486Y-111242369D01*
X155894672Y-111242000D01*
X155272115Y-111242000D01*
X155256876Y-111246475D01*
X155255671Y-111247865D01*
X155254000Y-111255548D01*
X155254000Y-112327885D01*
X154746000Y-112327885D01*
X154746000Y-111260116D01*
X154741525Y-111244877D01*
X154740135Y-111243672D01*
X154732452Y-111242001D01*
X154105331Y-111242001D01*
X154098510Y-111242371D01*
X154047648Y-111247895D01*
X154032397Y-111251521D01*
X153926423Y-111291249D01*
X153855616Y-111296432D01*
X153793247Y-111262511D01*
X153759117Y-111200256D01*
X153764064Y-111129432D01*
X153785668Y-111092280D01*
X153791305Y-111085563D01*
X153794472Y-111081931D01*
X153796115Y-111080119D01*
X153798309Y-111077925D01*
X153825642Y-111044651D01*
X153826348Y-111043800D01*
X153882195Y-110977244D01*
X153886154Y-110972526D01*
X153888722Y-110967856D01*
X153892103Y-110963739D01*
X153936015Y-110881842D01*
X153936624Y-110880720D01*
X153978466Y-110804611D01*
X153978468Y-110804606D01*
X153981433Y-110799213D01*
X153983044Y-110794135D01*
X153985563Y-110789437D01*
X154012753Y-110700502D01*
X154013136Y-110699272D01*
X154039371Y-110616570D01*
X154041235Y-110610694D01*
X154041828Y-110605403D01*
X154043388Y-110600302D01*
X154052795Y-110507689D01*
X154052915Y-110506569D01*
X154056966Y-110470454D01*
X154084436Y-110404989D01*
X154142939Y-110364766D01*
X154182180Y-110358500D01*
X155898134Y-110358500D01*
X155960316Y-110351745D01*
X156096705Y-110300615D01*
X156213261Y-110213261D01*
X156300615Y-110096705D01*
X156316170Y-110055213D01*
X156344598Y-109979382D01*
X156387240Y-109922618D01*
X156453802Y-109897918D01*
X156523150Y-109913126D01*
X156557817Y-109941114D01*
X156586250Y-109973938D01*
X156758126Y-110116632D01*
X156951000Y-110229338D01*
X157159692Y-110309030D01*
X157164760Y-110310061D01*
X157164763Y-110310062D01*
X157254903Y-110328401D01*
X157378597Y-110353567D01*
X157383772Y-110353757D01*
X157383774Y-110353757D01*
X157596673Y-110361564D01*
X157596677Y-110361564D01*
X157601837Y-110361753D01*
X157606957Y-110361097D01*
X157606959Y-110361097D01*
X157818288Y-110334025D01*
X157818289Y-110334025D01*
X157823416Y-110333368D01*
X157889426Y-110313564D01*
X158032429Y-110270661D01*
X158032434Y-110270659D01*
X158037384Y-110269174D01*
X158237994Y-110170896D01*
X158419860Y-110041173D01*
X158424543Y-110036507D01*
X158574435Y-109887137D01*
X158578096Y-109883489D01*
X158628566Y-109813253D01*
X158708453Y-109702077D01*
X158709776Y-109703028D01*
X158756645Y-109659857D01*
X158826580Y-109647625D01*
X158892026Y-109675144D01*
X158919875Y-109706994D01*
X158979987Y-109805088D01*
X159126250Y-109973938D01*
X159298126Y-110116632D01*
X159491000Y-110229338D01*
X159699692Y-110309030D01*
X159704760Y-110310061D01*
X159704763Y-110310062D01*
X159794903Y-110328401D01*
X159918597Y-110353567D01*
X159923772Y-110353757D01*
X159923774Y-110353757D01*
X160136673Y-110361564D01*
X160136677Y-110361564D01*
X160141837Y-110361753D01*
X160146957Y-110361097D01*
X160146959Y-110361097D01*
X160358288Y-110334025D01*
X160358289Y-110334025D01*
X160363416Y-110333368D01*
X160429426Y-110313564D01*
X160572429Y-110270661D01*
X160572434Y-110270659D01*
X160577384Y-110269174D01*
X160777994Y-110170896D01*
X160959860Y-110041173D01*
X160964543Y-110036507D01*
X161114435Y-109887137D01*
X161118096Y-109883489D01*
X161171280Y-109809476D01*
X161245435Y-109706277D01*
X161248453Y-109702077D01*
X161252361Y-109694171D01*
X161345136Y-109506453D01*
X161345137Y-109506451D01*
X161347430Y-109501811D01*
X161412370Y-109288069D01*
X161441529Y-109066590D01*
X161443156Y-109000000D01*
X161424852Y-108777361D01*
X161370431Y-108560702D01*
X161281354Y-108355840D01*
X161199495Y-108229305D01*
X161162822Y-108172617D01*
X161162820Y-108172614D01*
X161160014Y-108168277D01*
X161009670Y-108003051D01*
X161005619Y-107999852D01*
X161005615Y-107999848D01*
X160838414Y-107867800D01*
X160838410Y-107867798D01*
X160834359Y-107864598D01*
X160638789Y-107756638D01*
X160633920Y-107754914D01*
X160633916Y-107754912D01*
X160433087Y-107683795D01*
X160433083Y-107683794D01*
X160428212Y-107682069D01*
X160423119Y-107681162D01*
X160423116Y-107681161D01*
X160213373Y-107643800D01*
X160213367Y-107643799D01*
X160208284Y-107642894D01*
X160134452Y-107641992D01*
X159990081Y-107640228D01*
X159990079Y-107640228D01*
X159984911Y-107640165D01*
X159764091Y-107673955D01*
X159551756Y-107743357D01*
X159521443Y-107759137D01*
X159387628Y-107828797D01*
X159353607Y-107846507D01*
X159349474Y-107849610D01*
X159349471Y-107849612D01*
X159179100Y-107977530D01*
X159174965Y-107980635D01*
X159109346Y-108049301D01*
X159027142Y-108135323D01*
X159020629Y-108142138D01*
X158913201Y-108299621D01*
X158858293Y-108344621D01*
X158787768Y-108352792D01*
X158724021Y-108321538D01*
X158703324Y-108297054D01*
X158622822Y-108172617D01*
X158622820Y-108172614D01*
X158620014Y-108168277D01*
X158469670Y-108003051D01*
X158465619Y-107999852D01*
X158465615Y-107999848D01*
X158298414Y-107867800D01*
X158298410Y-107867798D01*
X158294359Y-107864598D01*
X158098789Y-107756638D01*
X158093920Y-107754914D01*
X158093916Y-107754912D01*
X157893087Y-107683795D01*
X157893083Y-107683794D01*
X157888212Y-107682069D01*
X157883119Y-107681162D01*
X157883116Y-107681161D01*
X157673373Y-107643800D01*
X157673367Y-107643799D01*
X157668284Y-107642894D01*
X157594452Y-107641992D01*
X157450081Y-107640228D01*
X157450079Y-107640228D01*
X157444911Y-107640165D01*
X157224091Y-107673955D01*
X157011756Y-107743357D01*
X156981443Y-107759137D01*
X156847628Y-107828797D01*
X156813607Y-107846507D01*
X156809474Y-107849610D01*
X156809471Y-107849612D01*
X156639100Y-107977530D01*
X156634965Y-107980635D01*
X156563098Y-108055840D01*
X156554283Y-108065064D01*
X156492759Y-108100494D01*
X156421846Y-108097037D01*
X156364060Y-108055791D01*
X156345207Y-108022243D01*
X156303767Y-107911703D01*
X156300615Y-107903295D01*
X156213261Y-107786739D01*
X156096705Y-107699385D01*
X155960316Y-107648255D01*
X155898134Y-107641500D01*
X154184500Y-107641500D01*
X154116379Y-107621498D01*
X154069886Y-107567842D01*
X154058500Y-107515500D01*
X154058500Y-106817399D01*
X174122212Y-106817399D01*
X174143694Y-106906537D01*
X174147583Y-106917832D01*
X174230129Y-107099382D01*
X174236076Y-107109724D01*
X174351468Y-107272397D01*
X174359261Y-107281425D01*
X174503331Y-107419342D01*
X174512696Y-107426738D01*
X174680241Y-107534921D01*
X174690845Y-107540417D01*
X174875812Y-107614961D01*
X174887270Y-107618355D01*
X175084428Y-107656857D01*
X175093291Y-107657934D01*
X175096000Y-107658000D01*
X175275385Y-107658000D01*
X175290624Y-107653525D01*
X175291829Y-107652135D01*
X175293500Y-107644452D01*
X175293500Y-107639885D01*
X175801500Y-107639885D01*
X175805975Y-107655124D01*
X175807365Y-107656329D01*
X175815048Y-107658000D01*
X175947332Y-107658000D01*
X175953308Y-107657715D01*
X176101994Y-107643529D01*
X176113728Y-107641270D01*
X176305099Y-107585128D01*
X176316175Y-107580698D01*
X176493478Y-107489381D01*
X176503524Y-107482931D01*
X176660357Y-107359738D01*
X176669006Y-107351501D01*
X176799712Y-107200877D01*
X176806647Y-107191153D01*
X176906510Y-107018533D01*
X176911484Y-107007669D01*
X176976907Y-106819273D01*
X176977148Y-106818284D01*
X176975680Y-106807992D01*
X176962115Y-106804000D01*
X175819615Y-106804000D01*
X175804376Y-106808475D01*
X175803171Y-106809865D01*
X175801500Y-106817548D01*
X175801500Y-107639885D01*
X175293500Y-107639885D01*
X175293500Y-106822115D01*
X175289025Y-106806876D01*
X175287635Y-106805671D01*
X175279952Y-106804000D01*
X174137098Y-106804000D01*
X174123567Y-106807973D01*
X174122212Y-106817399D01*
X154058500Y-106817399D01*
X154058500Y-106432211D01*
X172179844Y-106432211D01*
X172189140Y-106444226D01*
X172224137Y-106468731D01*
X172233632Y-106474214D01*
X172419196Y-106560744D01*
X172429488Y-106564490D01*
X172627259Y-106617482D01*
X172638054Y-106619385D01*
X172842025Y-106637231D01*
X172852975Y-106637231D01*
X173056946Y-106619385D01*
X173067741Y-106617482D01*
X173265512Y-106564490D01*
X173275804Y-106560744D01*
X173461368Y-106474214D01*
X173470863Y-106468731D01*
X173506697Y-106443640D01*
X173515073Y-106433161D01*
X173508005Y-106419715D01*
X173370006Y-106281716D01*
X174117852Y-106281716D01*
X174119320Y-106292008D01*
X174132885Y-106296000D01*
X175275385Y-106296000D01*
X175290624Y-106291525D01*
X175291829Y-106290135D01*
X175293500Y-106282452D01*
X175293500Y-106277885D01*
X175801500Y-106277885D01*
X175805975Y-106293124D01*
X175807365Y-106294329D01*
X175815048Y-106296000D01*
X176957902Y-106296000D01*
X176971433Y-106292027D01*
X176972788Y-106282601D01*
X176951306Y-106193463D01*
X176947417Y-106182168D01*
X176864871Y-106000618D01*
X176858924Y-105990276D01*
X176743532Y-105827603D01*
X176735739Y-105818575D01*
X176591669Y-105680658D01*
X176582304Y-105673262D01*
X176414759Y-105565079D01*
X176404155Y-105559583D01*
X176219188Y-105485039D01*
X176207730Y-105481645D01*
X176010572Y-105443143D01*
X176001709Y-105442066D01*
X175999000Y-105442000D01*
X175819615Y-105442000D01*
X175804376Y-105446475D01*
X175803171Y-105447865D01*
X175801500Y-105455548D01*
X175801500Y-106277885D01*
X175293500Y-106277885D01*
X175293500Y-105460115D01*
X175289025Y-105444876D01*
X175287635Y-105443671D01*
X175279952Y-105442000D01*
X175147668Y-105442000D01*
X175141692Y-105442285D01*
X174993006Y-105456471D01*
X174981272Y-105458730D01*
X174789901Y-105514872D01*
X174778825Y-105519302D01*
X174601522Y-105610619D01*
X174591476Y-105617069D01*
X174434643Y-105740262D01*
X174425994Y-105748499D01*
X174295288Y-105899123D01*
X174288353Y-105908847D01*
X174188490Y-106081467D01*
X174183516Y-106092331D01*
X174118093Y-106280727D01*
X174117852Y-106281716D01*
X173370006Y-106281716D01*
X172860312Y-105772022D01*
X172846368Y-105764408D01*
X172844535Y-105764539D01*
X172837920Y-105768790D01*
X172186274Y-106420436D01*
X172179844Y-106432211D01*
X154058500Y-106432211D01*
X154058500Y-105971722D01*
X154059492Y-105955944D01*
X154062985Y-105928295D01*
X154063188Y-105913753D01*
X154063331Y-105903523D01*
X154063331Y-105903520D01*
X154063380Y-105900000D01*
X154059101Y-105856360D01*
X154058500Y-105844064D01*
X154058500Y-105018887D01*
X164161837Y-105018887D01*
X164176063Y-105235933D01*
X164177484Y-105241529D01*
X164177485Y-105241534D01*
X164218484Y-105402965D01*
X164229605Y-105446753D01*
X164232022Y-105451996D01*
X164234085Y-105456471D01*
X164320668Y-105644285D01*
X164324001Y-105649001D01*
X164408660Y-105768790D01*
X164446204Y-105821914D01*
X164450346Y-105825949D01*
X164543653Y-105916844D01*
X164602009Y-105973692D01*
X164606813Y-105976902D01*
X164642306Y-106000618D01*
X164782863Y-106094536D01*
X164788171Y-106096817D01*
X164788172Y-106096817D01*
X164977409Y-106178119D01*
X164977412Y-106178120D01*
X164982712Y-106180397D01*
X164988342Y-106181671D01*
X165172048Y-106223240D01*
X165194860Y-106228402D01*
X165200631Y-106228629D01*
X165200633Y-106228629D01*
X165273620Y-106231496D01*
X165412205Y-106236941D01*
X165627466Y-106205730D01*
X165632930Y-106203875D01*
X165632935Y-106203874D01*
X165827963Y-106137671D01*
X165827968Y-106137669D01*
X165833435Y-106135813D01*
X165840512Y-106131850D01*
X165907140Y-106094536D01*
X166023213Y-106029532D01*
X166190446Y-105890446D01*
X166329532Y-105723213D01*
X166416208Y-105568443D01*
X166432989Y-105538478D01*
X166432990Y-105538476D01*
X166435813Y-105533435D01*
X166437669Y-105527968D01*
X166437671Y-105527963D01*
X166503874Y-105332935D01*
X166503875Y-105332930D01*
X166505730Y-105327466D01*
X166536941Y-105112205D01*
X166538570Y-105050000D01*
X166535711Y-105018887D01*
X168661837Y-105018887D01*
X168676063Y-105235933D01*
X168677484Y-105241529D01*
X168677485Y-105241534D01*
X168718484Y-105402965D01*
X168729605Y-105446753D01*
X168732022Y-105451996D01*
X168734085Y-105456471D01*
X168820668Y-105644285D01*
X168824001Y-105649001D01*
X168908660Y-105768790D01*
X168946204Y-105821914D01*
X168950346Y-105825949D01*
X169043653Y-105916844D01*
X169102009Y-105973692D01*
X169106813Y-105976902D01*
X169142306Y-106000618D01*
X169282863Y-106094536D01*
X169288171Y-106096817D01*
X169288172Y-106096817D01*
X169477409Y-106178119D01*
X169477412Y-106178120D01*
X169482712Y-106180397D01*
X169488342Y-106181671D01*
X169672048Y-106223240D01*
X169694860Y-106228402D01*
X169700631Y-106228629D01*
X169700633Y-106228629D01*
X169773620Y-106231496D01*
X169912205Y-106236941D01*
X170127466Y-106205730D01*
X170132930Y-106203875D01*
X170132935Y-106203874D01*
X170327963Y-106137671D01*
X170327968Y-106137669D01*
X170333435Y-106135813D01*
X170340512Y-106131850D01*
X170407140Y-106094536D01*
X170523213Y-106029532D01*
X170690446Y-105890446D01*
X170829532Y-105723213D01*
X170916208Y-105568443D01*
X170932989Y-105538478D01*
X170932990Y-105538476D01*
X170935813Y-105533435D01*
X170937669Y-105527968D01*
X170937671Y-105527963D01*
X170979250Y-105405475D01*
X171610269Y-105405475D01*
X171628115Y-105609446D01*
X171630018Y-105620241D01*
X171683010Y-105818012D01*
X171686756Y-105828304D01*
X171773286Y-106013868D01*
X171778769Y-106023363D01*
X171803860Y-106059197D01*
X171814339Y-106067573D01*
X171827785Y-106060505D01*
X172475478Y-105412812D01*
X172481856Y-105401132D01*
X173211908Y-105401132D01*
X173212039Y-105402965D01*
X173216290Y-105409580D01*
X173867936Y-106061226D01*
X173879711Y-106067656D01*
X173891726Y-106058360D01*
X173916231Y-106023363D01*
X173921714Y-106013868D01*
X174008244Y-105828304D01*
X174011990Y-105818012D01*
X174064982Y-105620241D01*
X174066885Y-105609446D01*
X174084731Y-105405475D01*
X174084731Y-105394525D01*
X174066885Y-105190554D01*
X174064982Y-105179759D01*
X174011990Y-104981988D01*
X174008244Y-104971696D01*
X173921714Y-104786132D01*
X173916231Y-104776637D01*
X173891140Y-104740803D01*
X173880661Y-104732427D01*
X173867215Y-104739495D01*
X173219522Y-105387188D01*
X173211908Y-105401132D01*
X172481856Y-105401132D01*
X172483092Y-105398868D01*
X172482961Y-105397035D01*
X172478710Y-105390420D01*
X171827064Y-104738774D01*
X171815289Y-104732344D01*
X171803274Y-104741640D01*
X171778769Y-104776637D01*
X171773286Y-104786132D01*
X171686756Y-104971696D01*
X171683010Y-104981988D01*
X171630018Y-105179759D01*
X171628115Y-105190554D01*
X171610269Y-105394525D01*
X171610269Y-105405475D01*
X170979250Y-105405475D01*
X171003874Y-105332935D01*
X171003875Y-105332930D01*
X171005730Y-105327466D01*
X171036941Y-105112205D01*
X171038570Y-105050000D01*
X171018667Y-104833400D01*
X170959626Y-104624055D01*
X170863423Y-104428974D01*
X170817025Y-104366839D01*
X172179927Y-104366839D01*
X172186995Y-104380285D01*
X172834688Y-105027978D01*
X172848632Y-105035592D01*
X172850465Y-105035461D01*
X172857080Y-105031210D01*
X173508726Y-104379564D01*
X173515156Y-104367789D01*
X173505860Y-104355774D01*
X173470863Y-104331269D01*
X173461368Y-104325786D01*
X173275804Y-104239256D01*
X173265512Y-104235510D01*
X173067741Y-104182518D01*
X173056946Y-104180615D01*
X172852975Y-104162769D01*
X172842025Y-104162769D01*
X172638054Y-104180615D01*
X172627259Y-104182518D01*
X172429488Y-104235510D01*
X172419196Y-104239256D01*
X172233632Y-104325786D01*
X172224137Y-104331269D01*
X172188303Y-104356360D01*
X172179927Y-104366839D01*
X170817025Y-104366839D01*
X170733280Y-104254691D01*
X170716583Y-104239256D01*
X170611078Y-104141729D01*
X170574633Y-104080800D01*
X170576914Y-104009840D01*
X170616038Y-103952330D01*
X170626747Y-103943424D01*
X170690446Y-103890446D01*
X170829532Y-103723213D01*
X170935813Y-103533435D01*
X170937669Y-103527968D01*
X170937671Y-103527963D01*
X171003874Y-103332935D01*
X171003875Y-103332930D01*
X171005730Y-103327466D01*
X171036941Y-103112205D01*
X171038570Y-103050000D01*
X171018667Y-102833400D01*
X170959626Y-102624055D01*
X170863423Y-102428974D01*
X170854114Y-102416507D01*
X170736733Y-102259315D01*
X170736732Y-102259314D01*
X170733280Y-102254691D01*
X170726249Y-102248191D01*
X170611078Y-102141729D01*
X170574633Y-102080800D01*
X170576914Y-102009840D01*
X170616038Y-101952330D01*
X170653916Y-101920828D01*
X170690446Y-101890446D01*
X170829532Y-101723213D01*
X170921630Y-101558761D01*
X170932989Y-101538478D01*
X170932990Y-101538476D01*
X170935813Y-101533435D01*
X170936229Y-101532211D01*
X172179844Y-101532211D01*
X172189140Y-101544226D01*
X172224137Y-101568731D01*
X172233632Y-101574214D01*
X172419196Y-101660744D01*
X172429488Y-101664490D01*
X172627259Y-101717482D01*
X172638054Y-101719385D01*
X172842025Y-101737231D01*
X172852975Y-101737231D01*
X173056946Y-101719385D01*
X173067741Y-101717482D01*
X173265512Y-101664490D01*
X173275804Y-101660744D01*
X173461368Y-101574214D01*
X173470863Y-101568731D01*
X173506697Y-101543640D01*
X173515073Y-101533161D01*
X173508005Y-101519715D01*
X172860312Y-100872022D01*
X172846368Y-100864408D01*
X172844535Y-100864539D01*
X172837920Y-100868790D01*
X172186274Y-101520436D01*
X172179844Y-101532211D01*
X170936229Y-101532211D01*
X170937669Y-101527968D01*
X170937671Y-101527963D01*
X171003874Y-101332935D01*
X171003875Y-101332930D01*
X171005730Y-101327466D01*
X171036941Y-101112205D01*
X171038570Y-101050000D01*
X171018667Y-100833400D01*
X170995334Y-100750665D01*
X170972016Y-100667988D01*
X170959626Y-100624055D01*
X170901149Y-100505475D01*
X171610269Y-100505475D01*
X171628115Y-100709446D01*
X171630018Y-100720241D01*
X171683010Y-100918012D01*
X171686756Y-100928304D01*
X171773286Y-101113868D01*
X171778769Y-101123363D01*
X171803860Y-101159197D01*
X171814339Y-101167573D01*
X171827785Y-101160505D01*
X172475478Y-100512812D01*
X172481856Y-100501132D01*
X173211908Y-100501132D01*
X173212039Y-100502965D01*
X173216290Y-100509580D01*
X173867936Y-101161226D01*
X173879711Y-101167656D01*
X173891726Y-101158360D01*
X173916231Y-101123363D01*
X173921714Y-101113868D01*
X174008244Y-100928304D01*
X174011990Y-100918012D01*
X174064982Y-100720241D01*
X174066885Y-100709446D01*
X174084731Y-100505475D01*
X174084731Y-100494525D01*
X174066885Y-100290554D01*
X174064982Y-100279759D01*
X174011990Y-100081988D01*
X174008244Y-100071696D01*
X173921714Y-99886132D01*
X173916231Y-99876637D01*
X173891140Y-99840803D01*
X173880661Y-99832427D01*
X173867215Y-99839495D01*
X173219522Y-100487188D01*
X173211908Y-100501132D01*
X172481856Y-100501132D01*
X172483092Y-100498868D01*
X172482961Y-100497035D01*
X172478710Y-100490420D01*
X171827064Y-99838774D01*
X171815289Y-99832344D01*
X171803274Y-99841640D01*
X171778769Y-99876637D01*
X171773286Y-99886132D01*
X171686756Y-100071696D01*
X171683010Y-100081988D01*
X171630018Y-100279759D01*
X171628115Y-100290554D01*
X171610269Y-100494525D01*
X171610269Y-100505475D01*
X170901149Y-100505475D01*
X170863423Y-100428974D01*
X170855494Y-100418355D01*
X170736733Y-100259315D01*
X170736732Y-100259314D01*
X170733280Y-100254691D01*
X170729044Y-100250775D01*
X170577796Y-100110963D01*
X170577793Y-100110961D01*
X170573556Y-100107044D01*
X170389599Y-99990976D01*
X170187572Y-99910376D01*
X169996666Y-99872402D01*
X169979905Y-99869068D01*
X169979904Y-99869068D01*
X169974239Y-99867941D01*
X169968464Y-99867865D01*
X169968460Y-99867865D01*
X169859419Y-99866438D01*
X169756746Y-99865094D01*
X169751049Y-99866073D01*
X169751048Y-99866073D01*
X169548065Y-99900952D01*
X169548062Y-99900953D01*
X169542375Y-99901930D01*
X169338307Y-99977214D01*
X169151376Y-100088427D01*
X168987842Y-100231842D01*
X168984270Y-100236373D01*
X168863951Y-100388997D01*
X168853181Y-100402658D01*
X168850493Y-100407767D01*
X168819765Y-100466172D01*
X168751905Y-100595154D01*
X168750192Y-100600671D01*
X168690984Y-100791350D01*
X168687403Y-100802882D01*
X168661837Y-101018887D01*
X168676063Y-101235933D01*
X168677484Y-101241529D01*
X168677485Y-101241534D01*
X168722644Y-101419344D01*
X168729605Y-101446753D01*
X168732022Y-101451996D01*
X168798054Y-101595231D01*
X168820668Y-101644285D01*
X168824001Y-101649001D01*
X168941942Y-101815883D01*
X168946204Y-101821914D01*
X168950346Y-101825949D01*
X169089741Y-101961741D01*
X169124579Y-102023602D01*
X169120442Y-102094478D01*
X169084899Y-102146726D01*
X168987842Y-102231842D01*
X168984270Y-102236373D01*
X168885516Y-102361642D01*
X168853181Y-102402658D01*
X168850493Y-102407767D01*
X168808064Y-102488413D01*
X168751905Y-102595154D01*
X168746384Y-102612933D01*
X168700628Y-102760292D01*
X168687403Y-102802882D01*
X168661837Y-103018887D01*
X168676063Y-103235933D01*
X168677484Y-103241529D01*
X168677485Y-103241534D01*
X168711392Y-103375039D01*
X168729605Y-103446753D01*
X168732022Y-103451996D01*
X168815878Y-103633894D01*
X168820668Y-103644285D01*
X168831093Y-103659036D01*
X168940670Y-103814083D01*
X168946204Y-103821914D01*
X168950346Y-103825949D01*
X169089741Y-103961741D01*
X169124579Y-104023602D01*
X169120442Y-104094478D01*
X169084899Y-104146726D01*
X168987842Y-104231842D01*
X168984270Y-104236373D01*
X168870819Y-104380285D01*
X168853181Y-104402658D01*
X168751905Y-104595154D01*
X168687403Y-104802882D01*
X168661837Y-105018887D01*
X166535711Y-105018887D01*
X166518667Y-104833400D01*
X166459626Y-104624055D01*
X166363423Y-104428974D01*
X166233280Y-104254691D01*
X166216583Y-104239256D01*
X166111078Y-104141729D01*
X166074633Y-104080800D01*
X166076914Y-104009840D01*
X166116038Y-103952330D01*
X166126747Y-103943424D01*
X166190446Y-103890446D01*
X166329532Y-103723213D01*
X166435813Y-103533435D01*
X166437669Y-103527968D01*
X166437671Y-103527963D01*
X166503874Y-103332935D01*
X166503875Y-103332930D01*
X166505730Y-103327466D01*
X166536941Y-103112205D01*
X166538570Y-103050000D01*
X166518667Y-102833400D01*
X166459626Y-102624055D01*
X166363423Y-102428974D01*
X166354114Y-102416507D01*
X166284465Y-102323236D01*
X166259733Y-102256686D01*
X166274907Y-102187330D01*
X166309858Y-102147021D01*
X166381080Y-102093643D01*
X166381081Y-102093642D01*
X166388261Y-102088261D01*
X166475615Y-101971705D01*
X166526745Y-101835316D01*
X166533500Y-101773134D01*
X166533500Y-100326866D01*
X166526745Y-100264684D01*
X166475615Y-100128295D01*
X166388261Y-100011739D01*
X166271705Y-99924385D01*
X166135316Y-99873255D01*
X166073134Y-99866500D01*
X164626866Y-99866500D01*
X164564684Y-99873255D01*
X164428295Y-99924385D01*
X164311739Y-100011739D01*
X164224385Y-100128295D01*
X164173255Y-100264684D01*
X164166500Y-100326866D01*
X164166500Y-101773134D01*
X164173255Y-101835316D01*
X164224385Y-101971705D01*
X164311739Y-102088261D01*
X164343530Y-102112087D01*
X164390269Y-102147116D01*
X164432784Y-102203975D01*
X164437810Y-102274794D01*
X164413654Y-102325948D01*
X164356755Y-102398124D01*
X164353181Y-102402658D01*
X164350493Y-102407767D01*
X164308064Y-102488413D01*
X164251905Y-102595154D01*
X164246384Y-102612933D01*
X164200628Y-102760292D01*
X164187403Y-102802882D01*
X164161837Y-103018887D01*
X164176063Y-103235933D01*
X164177484Y-103241529D01*
X164177485Y-103241534D01*
X164211392Y-103375039D01*
X164229605Y-103446753D01*
X164232022Y-103451996D01*
X164315878Y-103633894D01*
X164320668Y-103644285D01*
X164331093Y-103659036D01*
X164440670Y-103814083D01*
X164446204Y-103821914D01*
X164450346Y-103825949D01*
X164589741Y-103961741D01*
X164624579Y-104023602D01*
X164620442Y-104094478D01*
X164584899Y-104146726D01*
X164487842Y-104231842D01*
X164484270Y-104236373D01*
X164370819Y-104380285D01*
X164353181Y-104402658D01*
X164251905Y-104595154D01*
X164187403Y-104802882D01*
X164161837Y-105018887D01*
X154058500Y-105018887D01*
X154058500Y-99466839D01*
X172179927Y-99466839D01*
X172186995Y-99480285D01*
X172834688Y-100127978D01*
X172848632Y-100135592D01*
X172850465Y-100135461D01*
X172857080Y-100131210D01*
X173370891Y-99617399D01*
X174122212Y-99617399D01*
X174143694Y-99706537D01*
X174147583Y-99717832D01*
X174230129Y-99899382D01*
X174236076Y-99909724D01*
X174351468Y-100072397D01*
X174359261Y-100081425D01*
X174503331Y-100219342D01*
X174512696Y-100226738D01*
X174680241Y-100334921D01*
X174690845Y-100340417D01*
X174875812Y-100414961D01*
X174887270Y-100418355D01*
X175084428Y-100456857D01*
X175093291Y-100457934D01*
X175096000Y-100458000D01*
X175275385Y-100458000D01*
X175290624Y-100453525D01*
X175291829Y-100452135D01*
X175293500Y-100444452D01*
X175293500Y-100439885D01*
X175801500Y-100439885D01*
X175805975Y-100455124D01*
X175807365Y-100456329D01*
X175815048Y-100458000D01*
X175947332Y-100458000D01*
X175953308Y-100457715D01*
X176101994Y-100443529D01*
X176113728Y-100441270D01*
X176305099Y-100385128D01*
X176316175Y-100380698D01*
X176493478Y-100289381D01*
X176503524Y-100282931D01*
X176660357Y-100159738D01*
X176669006Y-100151501D01*
X176799712Y-100000877D01*
X176806647Y-99991153D01*
X176906510Y-99818533D01*
X176911484Y-99807669D01*
X176976907Y-99619273D01*
X176977148Y-99618284D01*
X176975680Y-99607992D01*
X176962115Y-99604000D01*
X175819615Y-99604000D01*
X175804376Y-99608475D01*
X175803171Y-99609865D01*
X175801500Y-99617548D01*
X175801500Y-100439885D01*
X175293500Y-100439885D01*
X175293500Y-99622115D01*
X175289025Y-99606876D01*
X175287635Y-99605671D01*
X175279952Y-99604000D01*
X174137098Y-99604000D01*
X174123567Y-99607973D01*
X174122212Y-99617399D01*
X173370891Y-99617399D01*
X173508726Y-99479564D01*
X173515156Y-99467789D01*
X173505860Y-99455774D01*
X173470863Y-99431269D01*
X173461368Y-99425786D01*
X173275804Y-99339256D01*
X173265512Y-99335510D01*
X173067741Y-99282518D01*
X173056946Y-99280615D01*
X172852975Y-99262769D01*
X172842025Y-99262769D01*
X172638054Y-99280615D01*
X172627259Y-99282518D01*
X172429488Y-99335510D01*
X172419196Y-99339256D01*
X172233632Y-99425786D01*
X172224137Y-99431269D01*
X172188303Y-99456360D01*
X172179927Y-99466839D01*
X154058500Y-99466839D01*
X154058500Y-99081716D01*
X174117852Y-99081716D01*
X174119320Y-99092008D01*
X174132885Y-99096000D01*
X175275385Y-99096000D01*
X175290624Y-99091525D01*
X175291829Y-99090135D01*
X175293500Y-99082452D01*
X175293500Y-99077885D01*
X175801500Y-99077885D01*
X175805975Y-99093124D01*
X175807365Y-99094329D01*
X175815048Y-99096000D01*
X176957902Y-99096000D01*
X176971433Y-99092027D01*
X176972788Y-99082601D01*
X176951306Y-98993463D01*
X176947417Y-98982168D01*
X176864871Y-98800618D01*
X176858924Y-98790276D01*
X176743532Y-98627603D01*
X176735739Y-98618575D01*
X176591669Y-98480658D01*
X176582304Y-98473262D01*
X176414759Y-98365079D01*
X176404155Y-98359583D01*
X176219188Y-98285039D01*
X176207730Y-98281645D01*
X176010572Y-98243143D01*
X176001709Y-98242066D01*
X175999000Y-98242000D01*
X175819615Y-98242000D01*
X175804376Y-98246475D01*
X175803171Y-98247865D01*
X175801500Y-98255548D01*
X175801500Y-99077885D01*
X175293500Y-99077885D01*
X175293500Y-98260115D01*
X175289025Y-98244876D01*
X175287635Y-98243671D01*
X175279952Y-98242000D01*
X175147668Y-98242000D01*
X175141692Y-98242285D01*
X174993006Y-98256471D01*
X174981272Y-98258730D01*
X174789901Y-98314872D01*
X174778825Y-98319302D01*
X174601522Y-98410619D01*
X174591476Y-98417069D01*
X174434643Y-98540262D01*
X174425994Y-98548499D01*
X174295288Y-98699123D01*
X174288353Y-98708847D01*
X174188490Y-98881467D01*
X174183516Y-98892331D01*
X174118093Y-99080727D01*
X174117852Y-99081716D01*
X154058500Y-99081716D01*
X154058500Y-98484000D01*
X154078502Y-98415879D01*
X154132158Y-98369386D01*
X154184500Y-98358000D01*
X154727885Y-98358000D01*
X154743124Y-98353525D01*
X154744329Y-98352135D01*
X154746000Y-98344452D01*
X154746000Y-98339884D01*
X155254000Y-98339884D01*
X155258475Y-98355123D01*
X155259865Y-98356328D01*
X155267548Y-98357999D01*
X155894669Y-98357999D01*
X155901490Y-98357629D01*
X155952352Y-98352105D01*
X155967604Y-98348479D01*
X156088054Y-98303324D01*
X156103649Y-98294786D01*
X156205724Y-98218285D01*
X156218285Y-98205724D01*
X156294786Y-98103649D01*
X156303325Y-98088052D01*
X156344425Y-97978418D01*
X156387066Y-97921653D01*
X156453628Y-97896953D01*
X156522977Y-97912160D01*
X156557645Y-97940150D01*
X156583219Y-97969674D01*
X156590580Y-97976883D01*
X156754434Y-98112916D01*
X156762881Y-98118831D01*
X156946756Y-98226279D01*
X156956042Y-98230729D01*
X157155001Y-98306703D01*
X157164899Y-98309579D01*
X157268250Y-98330606D01*
X157282299Y-98329410D01*
X157286000Y-98319065D01*
X157286000Y-98318517D01*
X157794000Y-98318517D01*
X157798064Y-98332359D01*
X157811478Y-98334393D01*
X157818184Y-98333534D01*
X157828262Y-98331392D01*
X158032255Y-98270191D01*
X158041842Y-98266433D01*
X158233095Y-98172739D01*
X158241945Y-98167464D01*
X158415328Y-98043792D01*
X158423200Y-98037139D01*
X158574052Y-97886812D01*
X158580730Y-97878965D01*
X158708022Y-97701819D01*
X158709147Y-97702627D01*
X158756669Y-97658876D01*
X158826607Y-97646661D01*
X158892046Y-97674197D01*
X158919870Y-97706028D01*
X158977690Y-97800383D01*
X158983777Y-97808699D01*
X159123213Y-97969667D01*
X159130580Y-97976883D01*
X159294434Y-98112916D01*
X159302881Y-98118831D01*
X159486756Y-98226279D01*
X159496042Y-98230729D01*
X159695001Y-98306703D01*
X159704899Y-98309579D01*
X159808250Y-98330606D01*
X159822299Y-98329410D01*
X159826000Y-98319065D01*
X159826000Y-98318517D01*
X160334000Y-98318517D01*
X160338064Y-98332359D01*
X160351478Y-98334393D01*
X160358184Y-98333534D01*
X160368262Y-98331392D01*
X160572255Y-98270191D01*
X160581842Y-98266433D01*
X160773095Y-98172739D01*
X160781945Y-98167464D01*
X160955328Y-98043792D01*
X160963200Y-98037139D01*
X161114052Y-97886812D01*
X161120730Y-97878965D01*
X161245003Y-97706020D01*
X161250313Y-97697183D01*
X161344670Y-97506267D01*
X161348469Y-97496672D01*
X161410377Y-97292910D01*
X161412555Y-97282837D01*
X161413986Y-97271962D01*
X161411775Y-97257778D01*
X161398617Y-97254000D01*
X160352115Y-97254000D01*
X160336876Y-97258475D01*
X160335671Y-97259865D01*
X160334000Y-97267548D01*
X160334000Y-98318517D01*
X159826000Y-98318517D01*
X159826000Y-97272115D01*
X159821525Y-97256876D01*
X159820135Y-97255671D01*
X159812452Y-97254000D01*
X157812115Y-97254000D01*
X157796876Y-97258475D01*
X157795671Y-97259865D01*
X157794000Y-97267548D01*
X157794000Y-98318517D01*
X157286000Y-98318517D01*
X157286000Y-97272115D01*
X157281525Y-97256876D01*
X157280135Y-97255671D01*
X157272452Y-97254000D01*
X155272115Y-97254000D01*
X155256876Y-97258475D01*
X155255671Y-97259865D01*
X155254000Y-97267548D01*
X155254000Y-98339884D01*
X154746000Y-98339884D01*
X154746000Y-96727885D01*
X155254000Y-96727885D01*
X155258475Y-96743124D01*
X155259865Y-96744329D01*
X155267548Y-96746000D01*
X157267885Y-96746000D01*
X157283124Y-96741525D01*
X157284329Y-96740135D01*
X157286000Y-96732452D01*
X157286000Y-96727885D01*
X157794000Y-96727885D01*
X157798475Y-96743124D01*
X157799865Y-96744329D01*
X157807548Y-96746000D01*
X159807885Y-96746000D01*
X159823124Y-96741525D01*
X159824329Y-96740135D01*
X159826000Y-96732452D01*
X159826000Y-96727885D01*
X160334000Y-96727885D01*
X160338475Y-96743124D01*
X160339865Y-96744329D01*
X160347548Y-96746000D01*
X161398344Y-96746000D01*
X161411875Y-96742027D01*
X161413180Y-96732947D01*
X161371214Y-96565875D01*
X161367894Y-96556124D01*
X161282972Y-96360814D01*
X161278105Y-96351739D01*
X161162426Y-96172926D01*
X161156136Y-96164757D01*
X161012806Y-96007240D01*
X161005273Y-96000215D01*
X160838139Y-95868222D01*
X160829552Y-95862517D01*
X160643117Y-95759599D01*
X160633705Y-95755369D01*
X160432959Y-95684280D01*
X160422988Y-95681646D01*
X160351837Y-95668972D01*
X160338540Y-95670432D01*
X160334000Y-95684989D01*
X160334000Y-96727885D01*
X159826000Y-96727885D01*
X159826000Y-95683102D01*
X159822082Y-95669758D01*
X159807806Y-95667771D01*
X159769324Y-95673660D01*
X159759288Y-95676051D01*
X159556868Y-95742212D01*
X159547359Y-95746209D01*
X159358463Y-95844542D01*
X159349738Y-95850036D01*
X159179433Y-95977905D01*
X159171726Y-95984748D01*
X159024590Y-96138717D01*
X159018104Y-96146727D01*
X158913193Y-96300521D01*
X158858282Y-96345524D01*
X158787757Y-96353695D01*
X158724010Y-96322441D01*
X158703313Y-96297957D01*
X158622427Y-96172926D01*
X158616136Y-96164757D01*
X158472806Y-96007240D01*
X158465273Y-96000215D01*
X158298139Y-95868222D01*
X158289552Y-95862517D01*
X158103117Y-95759599D01*
X158093705Y-95755369D01*
X157892959Y-95684280D01*
X157882988Y-95681646D01*
X157811837Y-95668972D01*
X157798540Y-95670432D01*
X157794000Y-95684989D01*
X157794000Y-96727885D01*
X157286000Y-96727885D01*
X157286000Y-95683102D01*
X157282082Y-95669758D01*
X157267806Y-95667771D01*
X157229324Y-95673660D01*
X157219288Y-95676051D01*
X157016868Y-95742212D01*
X157007359Y-95746209D01*
X156818463Y-95844542D01*
X156809738Y-95850036D01*
X156639433Y-95977905D01*
X156631726Y-95984748D01*
X156554094Y-96065985D01*
X156492570Y-96101415D01*
X156421657Y-96097958D01*
X156363871Y-96056712D01*
X156345018Y-96023164D01*
X156303324Y-95911946D01*
X156294786Y-95896351D01*
X156218285Y-95794276D01*
X156205724Y-95781715D01*
X156103649Y-95705214D01*
X156088054Y-95696676D01*
X155967606Y-95651522D01*
X155952351Y-95647895D01*
X155901486Y-95642369D01*
X155894672Y-95642000D01*
X155272115Y-95642000D01*
X155256876Y-95646475D01*
X155255671Y-95647865D01*
X155254000Y-95655548D01*
X155254000Y-96727885D01*
X154746000Y-96727885D01*
X154746000Y-95660116D01*
X154741525Y-95644877D01*
X154740135Y-95643672D01*
X154732452Y-95642001D01*
X154488424Y-95642001D01*
X154420303Y-95621999D01*
X154373810Y-95568343D01*
X154363706Y-95498069D01*
X154393200Y-95433489D01*
X154399329Y-95426906D01*
X155030830Y-94795405D01*
X155093142Y-94761379D01*
X155119925Y-94758500D01*
X155898134Y-94758500D01*
X155960316Y-94751745D01*
X156096705Y-94700615D01*
X156213261Y-94613261D01*
X156300615Y-94496705D01*
X156344547Y-94379517D01*
X156344598Y-94379382D01*
X156387240Y-94322618D01*
X156453802Y-94297918D01*
X156523150Y-94313126D01*
X156557817Y-94341114D01*
X156586250Y-94373938D01*
X156758126Y-94516632D01*
X156951000Y-94629338D01*
X156955825Y-94631180D01*
X156955826Y-94631181D01*
X157007803Y-94651029D01*
X157159692Y-94709030D01*
X157164760Y-94710061D01*
X157164763Y-94710062D01*
X157272017Y-94731883D01*
X157378597Y-94753567D01*
X157383772Y-94753757D01*
X157383774Y-94753757D01*
X157596673Y-94761564D01*
X157596677Y-94761564D01*
X157601837Y-94761753D01*
X157606957Y-94761097D01*
X157606959Y-94761097D01*
X157818288Y-94734025D01*
X157818289Y-94734025D01*
X157823416Y-94733368D01*
X157828366Y-94731883D01*
X158032429Y-94670661D01*
X158032434Y-94670659D01*
X158037384Y-94669174D01*
X158237994Y-94570896D01*
X158419860Y-94441173D01*
X158578096Y-94283489D01*
X158586013Y-94272472D01*
X158708453Y-94102077D01*
X158709776Y-94103028D01*
X158756645Y-94059857D01*
X158826580Y-94047625D01*
X158892026Y-94075144D01*
X158919875Y-94106994D01*
X158979987Y-94205088D01*
X159126250Y-94373938D01*
X159298126Y-94516632D01*
X159491000Y-94629338D01*
X159495825Y-94631180D01*
X159495826Y-94631181D01*
X159547803Y-94651029D01*
X159699692Y-94709030D01*
X159704760Y-94710061D01*
X159704763Y-94710062D01*
X159812017Y-94731883D01*
X159918597Y-94753567D01*
X159923772Y-94753757D01*
X159923774Y-94753757D01*
X160136673Y-94761564D01*
X160136677Y-94761564D01*
X160141837Y-94761753D01*
X160146957Y-94761097D01*
X160146959Y-94761097D01*
X160358288Y-94734025D01*
X160358289Y-94734025D01*
X160363416Y-94733368D01*
X160368366Y-94731883D01*
X160572429Y-94670661D01*
X160572434Y-94670659D01*
X160577384Y-94669174D01*
X160777994Y-94570896D01*
X160959860Y-94441173D01*
X161118096Y-94283489D01*
X161126013Y-94272472D01*
X161245435Y-94106277D01*
X161248453Y-94102077D01*
X161269320Y-94059857D01*
X161345136Y-93906453D01*
X161345137Y-93906451D01*
X161347430Y-93901811D01*
X161412370Y-93688069D01*
X161441529Y-93466590D01*
X161443156Y-93400000D01*
X161424852Y-93177361D01*
X161370431Y-92960702D01*
X161281354Y-92755840D01*
X161160014Y-92568277D01*
X161009670Y-92403051D01*
X161005619Y-92399852D01*
X161005615Y-92399848D01*
X160838414Y-92267800D01*
X160838410Y-92267798D01*
X160834359Y-92264598D01*
X160638789Y-92156638D01*
X160633920Y-92154914D01*
X160633916Y-92154912D01*
X160433087Y-92083795D01*
X160433083Y-92083794D01*
X160428212Y-92082069D01*
X160423119Y-92081162D01*
X160423116Y-92081161D01*
X160213373Y-92043800D01*
X160213367Y-92043799D01*
X160208284Y-92042894D01*
X160134452Y-92041992D01*
X159990081Y-92040228D01*
X159990079Y-92040228D01*
X159984911Y-92040165D01*
X159764091Y-92073955D01*
X159551756Y-92143357D01*
X159353607Y-92246507D01*
X159349474Y-92249610D01*
X159349471Y-92249612D01*
X159179100Y-92377530D01*
X159174965Y-92380635D01*
X159171393Y-92384373D01*
X159063729Y-92497037D01*
X159020629Y-92542138D01*
X158913201Y-92699621D01*
X158858293Y-92744621D01*
X158787768Y-92752792D01*
X158724021Y-92721538D01*
X158703324Y-92697054D01*
X158622822Y-92572617D01*
X158622820Y-92572614D01*
X158620014Y-92568277D01*
X158469670Y-92403051D01*
X158465619Y-92399852D01*
X158465615Y-92399848D01*
X158298414Y-92267800D01*
X158298410Y-92267798D01*
X158294359Y-92264598D01*
X158098789Y-92156638D01*
X158093920Y-92154914D01*
X158093916Y-92154912D01*
X157893087Y-92083795D01*
X157893083Y-92083794D01*
X157888212Y-92082069D01*
X157883119Y-92081162D01*
X157883116Y-92081161D01*
X157673373Y-92043800D01*
X157673367Y-92043799D01*
X157668284Y-92042894D01*
X157594452Y-92041992D01*
X157450081Y-92040228D01*
X157450079Y-92040228D01*
X157444911Y-92040165D01*
X157224091Y-92073955D01*
X157011756Y-92143357D01*
X156813607Y-92246507D01*
X156809474Y-92249610D01*
X156809471Y-92249612D01*
X156639100Y-92377530D01*
X156634965Y-92380635D01*
X156578537Y-92439684D01*
X156554283Y-92465064D01*
X156492759Y-92500494D01*
X156421846Y-92497037D01*
X156364060Y-92455791D01*
X156345207Y-92422243D01*
X156303767Y-92311703D01*
X156300615Y-92303295D01*
X156213261Y-92186739D01*
X156096705Y-92099385D01*
X155960316Y-92048255D01*
X155898134Y-92041500D01*
X154101866Y-92041500D01*
X154039684Y-92048255D01*
X153903295Y-92099385D01*
X153786739Y-92186739D01*
X153699385Y-92303295D01*
X153648255Y-92439684D01*
X153641500Y-92501866D01*
X153641500Y-93280076D01*
X153621498Y-93348197D01*
X153604595Y-93369171D01*
X152380621Y-94593145D01*
X152370478Y-94602247D01*
X152340975Y-94625968D01*
X152326012Y-94643800D01*
X152308709Y-94664421D01*
X152305528Y-94668069D01*
X152303885Y-94669881D01*
X152301691Y-94672075D01*
X152274358Y-94705349D01*
X152273696Y-94706147D01*
X152213846Y-94777474D01*
X152211278Y-94782144D01*
X152207897Y-94786261D01*
X152188408Y-94822608D01*
X152164023Y-94868086D01*
X152163394Y-94869245D01*
X152121538Y-94945381D01*
X152121535Y-94945389D01*
X152118567Y-94950787D01*
X152116955Y-94955869D01*
X152114438Y-94960563D01*
X152087238Y-95049531D01*
X152086918Y-95050559D01*
X152058765Y-95139306D01*
X152058171Y-95144602D01*
X152056613Y-95149698D01*
X152047593Y-95238500D01*
X152047218Y-95242187D01*
X152047089Y-95243393D01*
X152041500Y-95293227D01*
X152041500Y-95296754D01*
X152041445Y-95297739D01*
X152040998Y-95303419D01*
X152036626Y-95346462D01*
X152037206Y-95352593D01*
X152040941Y-95392109D01*
X152041500Y-95403967D01*
X152041500Y-105836181D01*
X152040715Y-105850225D01*
X152036719Y-105885851D01*
X152039987Y-105924771D01*
X152041058Y-105937524D01*
X152041500Y-105948067D01*
X152041500Y-109930076D01*
X152021498Y-109998197D01*
X152004595Y-110019171D01*
X151319170Y-110704596D01*
X151256858Y-110738622D01*
X151230075Y-110741501D01*
X145453516Y-110741501D01*
X145385395Y-110721499D01*
X145338902Y-110667843D01*
X145335650Y-110660038D01*
X145285172Y-110526450D01*
X145285170Y-110526446D01*
X145282487Y-110519345D01*
X145274537Y-110507777D01*
X145189659Y-110384279D01*
X145189658Y-110384277D01*
X145185357Y-110378020D01*
X145179686Y-110372967D01*
X145062993Y-110268997D01*
X145062990Y-110268995D01*
X145057321Y-110263944D01*
X145049801Y-110259962D01*
X144905769Y-110183701D01*
X144907228Y-110180945D01*
X144862109Y-110146503D01*
X144838078Y-110080175D01*
X144838761Y-110074989D01*
X144834589Y-110043296D01*
X144833511Y-110026853D01*
X144833511Y-108617446D01*
X144834589Y-108601000D01*
X144837683Y-108577498D01*
X144838761Y-108569310D01*
X144833511Y-108529432D01*
X144833511Y-108529425D01*
X144830190Y-108504197D01*
X144818927Y-108418648D01*
X144817849Y-108410460D01*
X144756535Y-108262435D01*
X144716839Y-108210702D01*
X144683488Y-108167238D01*
X144683485Y-108167235D01*
X144658998Y-108135323D01*
X144652443Y-108130293D01*
X144633632Y-108115858D01*
X144621241Y-108104991D01*
X144195005Y-107678755D01*
X144184138Y-107666364D01*
X144169703Y-107647552D01*
X144164677Y-107641002D01*
X144132765Y-107616515D01*
X144132762Y-107616512D01*
X144103401Y-107593982D01*
X144044119Y-107548493D01*
X144044117Y-107548492D01*
X144037566Y-107543465D01*
X143889541Y-107482151D01*
X143881354Y-107481073D01*
X143881353Y-107481073D01*
X143858040Y-107478004D01*
X143770583Y-107466490D01*
X143770581Y-107466490D01*
X143770575Y-107466489D01*
X143770573Y-107466489D01*
X143770564Y-107466488D01*
X143738879Y-107462317D01*
X143730690Y-107461239D01*
X143698997Y-107465411D01*
X143682554Y-107466489D01*
X142934928Y-107466489D01*
X142866807Y-107446487D01*
X142845833Y-107429584D01*
X141395405Y-105979156D01*
X141361379Y-105916844D01*
X141358500Y-105890061D01*
X141358500Y-105636564D01*
X141378502Y-105568443D01*
X141432158Y-105521950D01*
X141502432Y-105511846D01*
X141516467Y-105514687D01*
X141678139Y-105557101D01*
X141765586Y-105558474D01*
X141842003Y-105559675D01*
X141842006Y-105559675D01*
X141849602Y-105559794D01*
X141857006Y-105558098D01*
X141857008Y-105558098D01*
X141919846Y-105543706D01*
X142016759Y-105521510D01*
X142169958Y-105444459D01*
X142175729Y-105439530D01*
X142175732Y-105439528D01*
X142294577Y-105338024D01*
X142300355Y-105333089D01*
X142340163Y-105277691D01*
X142396155Y-105234045D01*
X142414354Y-105228399D01*
X142531759Y-105201510D01*
X142684958Y-105124459D01*
X142690731Y-105119528D01*
X142690736Y-105119525D01*
X142746280Y-105072086D01*
X142811069Y-105043055D01*
X142876329Y-105051489D01*
X142912850Y-105066617D01*
X142912855Y-105066618D01*
X142920483Y-105069778D01*
X143079334Y-105090691D01*
X143111033Y-105086518D01*
X143127478Y-105085440D01*
X144208052Y-105085440D01*
X144224495Y-105086518D01*
X144256188Y-105090690D01*
X144264377Y-105089612D01*
X144296062Y-105085441D01*
X144296072Y-105085440D01*
X144296073Y-105085440D01*
X144395645Y-105072331D01*
X144406852Y-105070856D01*
X144406854Y-105070855D01*
X144415039Y-105069778D01*
X144563064Y-105008464D01*
X144658260Y-104935417D01*
X144658263Y-104935414D01*
X144690175Y-104910927D01*
X144695205Y-104904372D01*
X144709640Y-104885561D01*
X144720507Y-104873170D01*
X144917550Y-104676127D01*
X144929941Y-104665260D01*
X144948753Y-104650825D01*
X144955303Y-104645799D01*
X144979790Y-104613887D01*
X144979794Y-104613883D01*
X145052840Y-104518688D01*
X145114154Y-104370663D01*
X145135067Y-104211812D01*
X145130894Y-104180113D01*
X145129816Y-104163668D01*
X145129816Y-103747057D01*
X145130894Y-103730611D01*
X145133988Y-103707109D01*
X145135066Y-103698921D01*
X145129816Y-103659043D01*
X145129816Y-103659036D01*
X145114154Y-103540071D01*
X145052840Y-103392046D01*
X145018552Y-103347361D01*
X144979793Y-103296849D01*
X144979790Y-103296846D01*
X144955303Y-103264934D01*
X144948753Y-103259908D01*
X144948747Y-103259902D01*
X144943761Y-103256076D01*
X144902603Y-103200655D01*
X144858345Y-103083530D01*
X144857430Y-103081109D01*
X144852062Y-103010316D01*
X144885819Y-102947858D01*
X144947985Y-102913566D01*
X145018822Y-102918328D01*
X145052000Y-102936609D01*
X145143155Y-103006555D01*
X145291180Y-103067869D01*
X145299367Y-103068947D01*
X145299368Y-103068947D01*
X145310573Y-103070422D01*
X145341769Y-103074529D01*
X145410146Y-103083531D01*
X145410149Y-103083531D01*
X145410157Y-103083532D01*
X145441842Y-103087703D01*
X145450031Y-103088781D01*
X145481724Y-103084609D01*
X145498167Y-103083531D01*
X147557152Y-103083531D01*
X147573595Y-103084609D01*
X147605288Y-103088781D01*
X147613477Y-103087703D01*
X147645162Y-103083532D01*
X147645172Y-103083531D01*
X147645173Y-103083531D01*
X147645189Y-103083529D01*
X147744745Y-103070422D01*
X147755952Y-103068947D01*
X147755954Y-103068946D01*
X147764139Y-103067869D01*
X147912164Y-103006555D01*
X148007360Y-102933508D01*
X148007363Y-102933505D01*
X148039275Y-102909018D01*
X148054648Y-102888984D01*
X148058740Y-102883652D01*
X148069607Y-102871261D01*
X149800376Y-101140492D01*
X149812767Y-101129625D01*
X149831579Y-101115190D01*
X149838129Y-101110164D01*
X149862616Y-101078252D01*
X149862620Y-101078248D01*
X149935666Y-100983053D01*
X149996980Y-100835028D01*
X149999012Y-100819595D01*
X150002730Y-100791350D01*
X150002730Y-100791348D01*
X150012642Y-100716062D01*
X150012642Y-100716057D01*
X150016814Y-100684366D01*
X150017892Y-100676177D01*
X150013720Y-100644484D01*
X150012642Y-100628039D01*
X150012642Y-91827435D01*
X150032644Y-91759314D01*
X150086300Y-91712821D01*
X150110512Y-91704615D01*
X150138500Y-91698205D01*
X150145901Y-91696510D01*
X150299100Y-91619459D01*
X150304871Y-91614530D01*
X150304874Y-91614528D01*
X150423720Y-91513023D01*
X150429497Y-91508089D01*
X150529566Y-91368830D01*
X150593527Y-91209720D01*
X150613318Y-91070661D01*
X150617108Y-91044031D01*
X150617108Y-91044027D01*
X150617689Y-91039947D01*
X150617781Y-91031181D01*
X150617803Y-91029133D01*
X150617803Y-91029127D01*
X150617846Y-91025000D01*
X150603190Y-90903891D01*
X150598157Y-90862299D01*
X150598156Y-90862296D01*
X150597244Y-90854758D01*
X150536629Y-90694344D01*
X150532329Y-90688087D01*
X150528807Y-90681350D01*
X150531205Y-90680096D01*
X150512642Y-90620318D01*
X150512642Y-90386387D01*
X150532644Y-90318266D01*
X150549547Y-90297292D01*
X150826354Y-90020485D01*
X150888666Y-89986459D01*
X150915449Y-89983580D01*
X152102376Y-89983580D01*
X152118819Y-89984658D01*
X152150512Y-89988830D01*
X152158701Y-89987752D01*
X152190386Y-89983581D01*
X152190396Y-89983580D01*
X152190397Y-89983580D01*
X152193565Y-89983163D01*
X152289969Y-89970471D01*
X152301176Y-89968996D01*
X152301178Y-89968995D01*
X152309363Y-89967918D01*
X152457388Y-89906604D01*
X152492857Y-89879388D01*
X152552584Y-89833557D01*
X152552587Y-89833554D01*
X152577949Y-89814093D01*
X152584499Y-89809067D01*
X152603970Y-89783693D01*
X152614828Y-89771313D01*
X152765666Y-89620475D01*
X152827978Y-89586449D01*
X152854761Y-89583570D01*
X154180289Y-89583570D01*
X154196732Y-89584648D01*
X154228425Y-89588820D01*
X154236614Y-89587742D01*
X154268299Y-89583571D01*
X154268309Y-89583570D01*
X154268310Y-89583570D01*
X154298496Y-89579596D01*
X154367882Y-89570461D01*
X154379089Y-89568986D01*
X154379091Y-89568985D01*
X154387276Y-89567908D01*
X154535301Y-89506594D01*
X154630497Y-89433547D01*
X154630500Y-89433544D01*
X154662412Y-89409057D01*
X154681883Y-89383683D01*
X154692741Y-89371303D01*
X154815879Y-89248165D01*
X154878191Y-89214139D01*
X154904974Y-89211260D01*
X159880502Y-89211260D01*
X159896945Y-89212338D01*
X159928638Y-89216510D01*
X159936827Y-89215432D01*
X159968512Y-89211261D01*
X159968522Y-89211260D01*
X159968523Y-89211260D01*
X160068095Y-89198151D01*
X160079302Y-89196676D01*
X160079304Y-89196675D01*
X160087489Y-89195598D01*
X160235514Y-89134284D01*
X160251001Y-89122401D01*
X160330710Y-89061237D01*
X160330713Y-89061234D01*
X160356072Y-89041775D01*
X160362625Y-89036747D01*
X160367655Y-89030192D01*
X160382090Y-89011381D01*
X160392957Y-88998990D01*
X160611491Y-88780456D01*
X160673803Y-88746430D01*
X160700586Y-88743551D01*
X161897823Y-88743551D01*
X161965944Y-88763553D01*
X162012437Y-88817209D01*
X162022541Y-88887483D01*
X161999121Y-88941109D01*
X162000629Y-88942138D01*
X161874743Y-89126680D01*
X161827716Y-89227992D01*
X161796004Y-89296310D01*
X161780688Y-89329305D01*
X161720989Y-89544570D01*
X161697251Y-89766695D01*
X161697548Y-89771848D01*
X161697548Y-89771851D01*
X161705858Y-89915975D01*
X161710110Y-89989715D01*
X161711247Y-89994761D01*
X161711248Y-89994767D01*
X161729652Y-90076427D01*
X161759222Y-90207639D01*
X161843266Y-90414616D01*
X161880685Y-90475678D01*
X161956433Y-90599288D01*
X161959987Y-90605088D01*
X162106250Y-90773938D01*
X162278126Y-90916632D01*
X162471000Y-91029338D01*
X162679692Y-91109030D01*
X162684760Y-91110061D01*
X162684763Y-91110062D01*
X162792017Y-91131883D01*
X162898597Y-91153567D01*
X162903772Y-91153757D01*
X162903774Y-91153757D01*
X163116673Y-91161564D01*
X163116677Y-91161564D01*
X163121837Y-91161753D01*
X163126957Y-91161097D01*
X163126959Y-91161097D01*
X163338288Y-91134025D01*
X163338289Y-91134025D01*
X163343416Y-91133368D01*
X163348366Y-91131883D01*
X163552429Y-91070661D01*
X163552434Y-91070659D01*
X163557384Y-91069174D01*
X163757994Y-90970896D01*
X163939860Y-90841173D01*
X164048091Y-90733319D01*
X164110462Y-90699404D01*
X164181268Y-90704592D01*
X164238030Y-90747238D01*
X164255012Y-90778341D01*
X164283660Y-90854758D01*
X164299385Y-90896705D01*
X164386739Y-91013261D01*
X164503295Y-91100615D01*
X164639684Y-91151745D01*
X164701866Y-91158500D01*
X166498134Y-91158500D01*
X166560316Y-91151745D01*
X166696705Y-91100615D01*
X166813261Y-91013261D01*
X166900615Y-90896705D01*
X166951745Y-90760316D01*
X166958500Y-90698134D01*
X166958500Y-88901866D01*
X166951745Y-88839684D01*
X166900615Y-88703295D01*
X166813261Y-88586739D01*
X166696705Y-88499385D01*
X166560316Y-88448255D01*
X166498134Y-88441500D01*
X165124959Y-88441500D01*
X165056838Y-88421498D01*
X165010345Y-88367842D01*
X165000241Y-88297568D01*
X165029735Y-88232988D01*
X165048256Y-88215537D01*
X165050194Y-88214050D01*
X165056743Y-88209025D01*
X165076203Y-88183665D01*
X165087069Y-88171274D01*
X165277909Y-87980435D01*
X165340221Y-87946410D01*
X165367004Y-87943531D01*
X166988930Y-87943531D01*
X167005373Y-87944609D01*
X167037066Y-87948781D01*
X167045255Y-87947703D01*
X167076940Y-87943532D01*
X167076950Y-87943531D01*
X167076951Y-87943531D01*
X167176523Y-87930422D01*
X167187730Y-87928947D01*
X167187732Y-87928946D01*
X167195917Y-87927869D01*
X167343942Y-87866555D01*
X167358813Y-87855144D01*
X167439135Y-87793511D01*
X167439141Y-87793505D01*
X167464503Y-87774044D01*
X167471053Y-87769018D01*
X167490524Y-87743644D01*
X167501382Y-87731264D01*
X167652220Y-87580426D01*
X167714532Y-87546400D01*
X167741315Y-87543521D01*
X169363241Y-87543521D01*
X169379684Y-87544599D01*
X169411377Y-87548771D01*
X169419566Y-87547693D01*
X169451251Y-87543522D01*
X169451261Y-87543521D01*
X169451262Y-87543521D01*
X169550834Y-87530412D01*
X169562041Y-87528937D01*
X169562043Y-87528936D01*
X169570228Y-87527859D01*
X169718253Y-87466545D01*
X169813449Y-87393498D01*
X169813452Y-87393495D01*
X169845364Y-87369008D01*
X169864835Y-87343634D01*
X169875693Y-87331254D01*
X170026531Y-87180416D01*
X170088843Y-87146390D01*
X170115626Y-87143511D01*
X171737553Y-87143511D01*
X171753996Y-87144589D01*
X171785689Y-87148761D01*
X171793877Y-87147683D01*
X171793878Y-87147683D01*
X171825561Y-87143512D01*
X171825569Y-87143511D01*
X171825573Y-87143511D01*
X171944538Y-87127849D01*
X172092563Y-87066535D01*
X172092565Y-87066534D01*
X172187760Y-86993488D01*
X172187763Y-86993485D01*
X172219675Y-86968998D01*
X172239146Y-86943624D01*
X172250004Y-86931244D01*
X172325494Y-86855754D01*
X172387806Y-86821728D01*
X172414589Y-86818849D01*
X174036515Y-86818849D01*
X174052958Y-86819927D01*
X174084651Y-86824099D01*
X174092840Y-86823021D01*
X174124525Y-86818850D01*
X174124535Y-86818849D01*
X174124536Y-86818849D01*
X174224108Y-86805740D01*
X174235315Y-86804265D01*
X174235317Y-86804264D01*
X174243502Y-86803187D01*
X174391527Y-86741873D01*
X174457297Y-86691406D01*
X174486723Y-86668826D01*
X174486726Y-86668823D01*
X174512085Y-86649364D01*
X174518638Y-86644336D01*
X174523668Y-86637781D01*
X174538103Y-86618970D01*
X174548970Y-86606579D01*
X174825171Y-86330378D01*
X174887483Y-86296352D01*
X174939385Y-86296002D01*
X175148597Y-86338567D01*
X175153772Y-86338757D01*
X175153774Y-86338757D01*
X175366673Y-86346564D01*
X175366677Y-86346564D01*
X175371837Y-86346753D01*
X175376957Y-86346097D01*
X175376959Y-86346097D01*
X175588288Y-86319025D01*
X175588289Y-86319025D01*
X175593416Y-86318368D01*
X175666799Y-86296352D01*
X175802429Y-86255661D01*
X175802434Y-86255659D01*
X175807384Y-86254174D01*
X176007994Y-86155896D01*
X176189860Y-86026173D01*
X176348096Y-85868489D01*
X176380905Y-85822831D01*
X176475435Y-85691277D01*
X176478453Y-85687077D01*
X176524356Y-85594200D01*
X176575136Y-85491453D01*
X176575137Y-85491451D01*
X176577430Y-85486811D01*
X176642370Y-85273069D01*
X176671529Y-85051590D01*
X176673156Y-84985000D01*
X176654852Y-84762361D01*
X176600431Y-84545702D01*
X176511354Y-84340840D01*
X176390014Y-84153277D01*
X176239670Y-83988051D01*
X176235619Y-83984852D01*
X176235615Y-83984848D01*
X176068414Y-83852800D01*
X176068410Y-83852798D01*
X176064359Y-83849598D01*
X176027260Y-83829118D01*
X175874533Y-83744809D01*
X175824562Y-83694376D01*
X175809790Y-83624933D01*
X175834906Y-83558528D01*
X175891937Y-83516243D01*
X175935426Y-83508500D01*
X177365500Y-83508500D01*
X177433621Y-83528502D01*
G37*
G04 #@! TD.AperFunction*
G04 #@! TA.AperFunction,Conductor*
G36*
X123337881Y-83528502D02*
G01*
X123384374Y-83582158D01*
X123394478Y-83652432D01*
X123364984Y-83717012D01*
X123345326Y-83735325D01*
X123296739Y-83771739D01*
X123209385Y-83888295D01*
X123158255Y-84024684D01*
X123151500Y-84086866D01*
X123151500Y-85883134D01*
X123158255Y-85945316D01*
X123209385Y-86081705D01*
X123296739Y-86198261D01*
X123413295Y-86285615D01*
X123549684Y-86336745D01*
X123611866Y-86343500D01*
X124955761Y-86343500D01*
X125023882Y-86363502D01*
X125044856Y-86380405D01*
X125335685Y-86671234D01*
X125346552Y-86683625D01*
X125366013Y-86708987D01*
X125372563Y-86714013D01*
X125397921Y-86733471D01*
X125397928Y-86733477D01*
X125444017Y-86768842D01*
X125493125Y-86806524D01*
X125641150Y-86867838D01*
X125760115Y-86883500D01*
X125760120Y-86883500D01*
X125760129Y-86883501D01*
X125791812Y-86887672D01*
X125800000Y-86888750D01*
X125831693Y-86884578D01*
X125848136Y-86883500D01*
X132284362Y-86883500D01*
X132352483Y-86903502D01*
X132373457Y-86920405D01*
X133184310Y-87731258D01*
X133195179Y-87743650D01*
X133214644Y-87769018D01*
X133221194Y-87774044D01*
X133221197Y-87774047D01*
X133246552Y-87793502D01*
X133246568Y-87793516D01*
X133291021Y-87827625D01*
X133341755Y-87866555D01*
X133489780Y-87927869D01*
X133648631Y-87948782D01*
X133680330Y-87944609D01*
X133696775Y-87943531D01*
X137830994Y-87943531D01*
X137899115Y-87963533D01*
X137920089Y-87980436D01*
X138211625Y-88271972D01*
X138222492Y-88284363D01*
X138241953Y-88309725D01*
X138248503Y-88314751D01*
X138273865Y-88334212D01*
X138273868Y-88334215D01*
X138350818Y-88393261D01*
X138369064Y-88407262D01*
X138390667Y-88416210D01*
X138517090Y-88468576D01*
X138636055Y-88484238D01*
X138636060Y-88484238D01*
X138636069Y-88484239D01*
X138667752Y-88488410D01*
X138675940Y-88489488D01*
X138707633Y-88485316D01*
X138724076Y-88484238D01*
X139508006Y-88484238D01*
X139576127Y-88504240D01*
X139597101Y-88521143D01*
X139607235Y-88531277D01*
X139618102Y-88543668D01*
X139637563Y-88569030D01*
X139644113Y-88574056D01*
X139669471Y-88593514D01*
X139669487Y-88593528D01*
X139703787Y-88619847D01*
X139764675Y-88666568D01*
X139882665Y-88715441D01*
X139912700Y-88727882D01*
X139920888Y-88728960D01*
X140031654Y-88743543D01*
X140031663Y-88743544D01*
X140031666Y-88743544D01*
X140031678Y-88743545D01*
X140063362Y-88747716D01*
X140071551Y-88748794D01*
X140079739Y-88747716D01*
X140103241Y-88744622D01*
X140119687Y-88743544D01*
X140339310Y-88743544D01*
X141727315Y-88743547D01*
X141795436Y-88763549D01*
X141816410Y-88780452D01*
X141958571Y-88922613D01*
X141992597Y-88984925D01*
X141995476Y-89011708D01*
X141995476Y-94261787D01*
X141975474Y-94329908D01*
X141958571Y-94350882D01*
X141407767Y-94901686D01*
X141395376Y-94912553D01*
X141370014Y-94932014D01*
X141345527Y-94963926D01*
X141345524Y-94963929D01*
X141345518Y-94963937D01*
X141279440Y-95050051D01*
X141272477Y-95059125D01*
X141211163Y-95207150D01*
X141211163Y-95207151D01*
X141209415Y-95220427D01*
X141195501Y-95326116D01*
X141195501Y-95326121D01*
X141191948Y-95353114D01*
X141190251Y-95366001D01*
X141191329Y-95374189D01*
X141194423Y-95397691D01*
X141195501Y-95414137D01*
X141195501Y-97080272D01*
X141175499Y-97148393D01*
X141169471Y-97156966D01*
X141118425Y-97223490D01*
X141058909Y-97367175D01*
X141057111Y-97371516D01*
X141056034Y-97379700D01*
X141056033Y-97379702D01*
X141041449Y-97490481D01*
X141041449Y-97490486D01*
X141039372Y-97506267D01*
X141036199Y-97530366D01*
X141037277Y-97538554D01*
X141040371Y-97562056D01*
X141041449Y-97578502D01*
X141041449Y-101431099D01*
X141021447Y-101499220D01*
X140967791Y-101545713D01*
X140897517Y-101555817D01*
X140884754Y-101553303D01*
X140846822Y-101543775D01*
X140846818Y-101543775D01*
X140839451Y-101541924D01*
X140831852Y-101541884D01*
X140831850Y-101541884D01*
X140760394Y-101541510D01*
X140667969Y-101541026D01*
X140660589Y-101542798D01*
X140660587Y-101542798D01*
X140594097Y-101558761D01*
X140501223Y-101581058D01*
X140494470Y-101584543D01*
X140493866Y-101584768D01*
X140423046Y-101589766D01*
X140409658Y-101585759D01*
X140405769Y-101583700D01*
X140398399Y-101581849D01*
X140398397Y-101581848D01*
X140246822Y-101543775D01*
X140246818Y-101543775D01*
X140239451Y-101541924D01*
X140231852Y-101541884D01*
X140231850Y-101541884D01*
X140160394Y-101541510D01*
X140067969Y-101541026D01*
X140060589Y-101542798D01*
X140060587Y-101542798D01*
X139979322Y-101562308D01*
X139908414Y-101558761D01*
X139850680Y-101517441D01*
X139832042Y-101484327D01*
X139810171Y-101426447D01*
X139807487Y-101419344D01*
X139710357Y-101278019D01*
X139695237Y-101264547D01*
X139648154Y-101222598D01*
X139610598Y-101162348D01*
X139606886Y-101143660D01*
X139594015Y-101037299D01*
X139594014Y-101037296D01*
X139593102Y-101029758D01*
X139588995Y-101018887D01*
X139535171Y-100876447D01*
X139532487Y-100869344D01*
X139501715Y-100824570D01*
X139439659Y-100734278D01*
X139439658Y-100734276D01*
X139435357Y-100728019D01*
X139429686Y-100722966D01*
X139312993Y-100618996D01*
X139312990Y-100618994D01*
X139307321Y-100613943D01*
X139265821Y-100591970D01*
X139214980Y-100542419D01*
X139206916Y-100525155D01*
X139181516Y-100457934D01*
X139157487Y-100394344D01*
X139130502Y-100355081D01*
X139064659Y-100259278D01*
X139064658Y-100259276D01*
X139060357Y-100253019D01*
X139054230Y-100247560D01*
X138937993Y-100143996D01*
X138937990Y-100143994D01*
X138932321Y-100138943D01*
X138780769Y-100058700D01*
X138764096Y-100054512D01*
X138621822Y-100018775D01*
X138621818Y-100018775D01*
X138614451Y-100016924D01*
X138606852Y-100016884D01*
X138606850Y-100016884D01*
X138483840Y-100016240D01*
X138415825Y-99995882D01*
X138369614Y-99941983D01*
X138358500Y-99890242D01*
X138358500Y-98511843D01*
X138359237Y-98498236D01*
X138362659Y-98466738D01*
X138362659Y-98466733D01*
X138363324Y-98460612D01*
X138359515Y-98417069D01*
X138358950Y-98410612D01*
X138358621Y-98405786D01*
X138358500Y-98403314D01*
X138358500Y-98400231D01*
X138357326Y-98388262D01*
X138354310Y-98357494D01*
X138354188Y-98356181D01*
X138348816Y-98294786D01*
X138346087Y-98263587D01*
X138344600Y-98258468D01*
X138344080Y-98253167D01*
X138317209Y-98164166D01*
X138316874Y-98163033D01*
X138292630Y-98079586D01*
X138292628Y-98079582D01*
X138290909Y-98073664D01*
X138288456Y-98068932D01*
X138286916Y-98063831D01*
X138243269Y-97981740D01*
X138242657Y-97980574D01*
X138202729Y-97903547D01*
X138199892Y-97898074D01*
X138196569Y-97893911D01*
X138194066Y-97889204D01*
X138135245Y-97817082D01*
X138134554Y-97816226D01*
X138103262Y-97777027D01*
X138100758Y-97774523D01*
X138100116Y-97773805D01*
X138096415Y-97769472D01*
X138069065Y-97735938D01*
X138061872Y-97729987D01*
X138033738Y-97706713D01*
X138024958Y-97698723D01*
X133246855Y-92920621D01*
X133237753Y-92910478D01*
X133217897Y-92885782D01*
X133214032Y-92880975D01*
X133175578Y-92848708D01*
X133171931Y-92845528D01*
X133170119Y-92843885D01*
X133167925Y-92841691D01*
X133134815Y-92814493D01*
X133133810Y-92813659D01*
X133113688Y-92796775D01*
X133105583Y-92789348D01*
X130271855Y-89955621D01*
X130262753Y-89945478D01*
X130242897Y-89920782D01*
X130239032Y-89915975D01*
X130200578Y-89883708D01*
X130196931Y-89880528D01*
X130195119Y-89878885D01*
X130192925Y-89876691D01*
X130159651Y-89849358D01*
X130158853Y-89848696D01*
X130087526Y-89788846D01*
X130082856Y-89786278D01*
X130078739Y-89782897D01*
X129996914Y-89739023D01*
X129995755Y-89738394D01*
X129919619Y-89696538D01*
X129919611Y-89696535D01*
X129914213Y-89693567D01*
X129909131Y-89691955D01*
X129904437Y-89689438D01*
X129815469Y-89662238D01*
X129814441Y-89661918D01*
X129725694Y-89633765D01*
X129720398Y-89633171D01*
X129715302Y-89631613D01*
X129622743Y-89622210D01*
X129621607Y-89622089D01*
X129587992Y-89618319D01*
X129575270Y-89616892D01*
X129575266Y-89616892D01*
X129571773Y-89616500D01*
X129568246Y-89616500D01*
X129567261Y-89616445D01*
X129561581Y-89615998D01*
X129532175Y-89613011D01*
X129524663Y-89612248D01*
X129524661Y-89612248D01*
X129518538Y-89611626D01*
X129476259Y-89615623D01*
X129472891Y-89615941D01*
X129461033Y-89616500D01*
X123838500Y-89616500D01*
X123770379Y-89596498D01*
X123723886Y-89542842D01*
X123712500Y-89490500D01*
X123712500Y-89330071D01*
X123729381Y-89267071D01*
X123781223Y-89177279D01*
X123781224Y-89177278D01*
X123784527Y-89171556D01*
X123843542Y-88989928D01*
X123852439Y-88905283D01*
X123862814Y-88806565D01*
X123863504Y-88800000D01*
X123857570Y-88743543D01*
X123844232Y-88616635D01*
X123844232Y-88616633D01*
X123843542Y-88610072D01*
X123784527Y-88428444D01*
X123758601Y-88383538D01*
X123709932Y-88299242D01*
X123689040Y-88263056D01*
X123662439Y-88233512D01*
X123565675Y-88126045D01*
X123565674Y-88126044D01*
X123561253Y-88121134D01*
X123406752Y-88008882D01*
X123400724Y-88006198D01*
X123400722Y-88006197D01*
X123238319Y-87933891D01*
X123238318Y-87933891D01*
X123232288Y-87931206D01*
X123138888Y-87911353D01*
X123051944Y-87892872D01*
X123051939Y-87892872D01*
X123045487Y-87891500D01*
X122854513Y-87891500D01*
X122848061Y-87892872D01*
X122848056Y-87892872D01*
X122761112Y-87911353D01*
X122667712Y-87931206D01*
X122661682Y-87933891D01*
X122661681Y-87933891D01*
X122499278Y-88006197D01*
X122499276Y-88006198D01*
X122493248Y-88008882D01*
X122338747Y-88121134D01*
X122334326Y-88126044D01*
X122334325Y-88126045D01*
X122237562Y-88233512D01*
X122210960Y-88263056D01*
X122190068Y-88299242D01*
X122141400Y-88383538D01*
X122115473Y-88428444D01*
X122056458Y-88610072D01*
X122055768Y-88616633D01*
X122055768Y-88616635D01*
X122042430Y-88743543D01*
X122036496Y-88800000D01*
X122037186Y-88806565D01*
X122047562Y-88905283D01*
X122056458Y-88989928D01*
X122115473Y-89171556D01*
X122118776Y-89177278D01*
X122118777Y-89177279D01*
X122170619Y-89267071D01*
X122187500Y-89330071D01*
X122187500Y-89490500D01*
X122167498Y-89558621D01*
X122113842Y-89605114D01*
X122061500Y-89616500D01*
X116044926Y-89616500D01*
X115976805Y-89596498D01*
X115955831Y-89579596D01*
X115885405Y-89509171D01*
X115851380Y-89446859D01*
X115848500Y-89420075D01*
X115848500Y-88143970D01*
X115868502Y-88075849D01*
X115876460Y-88065120D01*
X115878096Y-88063489D01*
X116008453Y-87882077D01*
X116009776Y-87883028D01*
X116056645Y-87839857D01*
X116126580Y-87827625D01*
X116192026Y-87855144D01*
X116219875Y-87886994D01*
X116279987Y-87985088D01*
X116426250Y-88153938D01*
X116598126Y-88296632D01*
X116791000Y-88409338D01*
X116999692Y-88489030D01*
X117004760Y-88490061D01*
X117004763Y-88490062D01*
X117053473Y-88499972D01*
X117218597Y-88533567D01*
X117223772Y-88533757D01*
X117223774Y-88533757D01*
X117436673Y-88541564D01*
X117436677Y-88541564D01*
X117441837Y-88541753D01*
X117446957Y-88541097D01*
X117446959Y-88541097D01*
X117658288Y-88514025D01*
X117658289Y-88514025D01*
X117663416Y-88513368D01*
X117708067Y-88499972D01*
X117872429Y-88450661D01*
X117872434Y-88450659D01*
X117877384Y-88449174D01*
X118077994Y-88350896D01*
X118259860Y-88221173D01*
X118278625Y-88202474D01*
X118388500Y-88092982D01*
X118418096Y-88063489D01*
X118501296Y-87947704D01*
X118545435Y-87886277D01*
X118548453Y-87882077D01*
X118556125Y-87866555D01*
X118645136Y-87686453D01*
X118645137Y-87686451D01*
X118647430Y-87681811D01*
X118694204Y-87527859D01*
X118710865Y-87473023D01*
X118710865Y-87473021D01*
X118712370Y-87468069D01*
X118741529Y-87246590D01*
X118743156Y-87180000D01*
X118724852Y-86957361D01*
X118670431Y-86740702D01*
X118581354Y-86535840D01*
X118472576Y-86367695D01*
X118462822Y-86352617D01*
X118462820Y-86352614D01*
X118460014Y-86348277D01*
X118309670Y-86183051D01*
X118305619Y-86179852D01*
X118305615Y-86179848D01*
X118138414Y-86047800D01*
X118138410Y-86047798D01*
X118134359Y-86044598D01*
X117938789Y-85936638D01*
X117933920Y-85934914D01*
X117933916Y-85934912D01*
X117733087Y-85863795D01*
X117733083Y-85863794D01*
X117728212Y-85862069D01*
X117723119Y-85861162D01*
X117723116Y-85861161D01*
X117513373Y-85823800D01*
X117513367Y-85823799D01*
X117508284Y-85822894D01*
X117434452Y-85821992D01*
X117290081Y-85820228D01*
X117290079Y-85820228D01*
X117284911Y-85820165D01*
X117064091Y-85853955D01*
X116851756Y-85923357D01*
X116821443Y-85939137D01*
X116661249Y-86022529D01*
X116653607Y-86026507D01*
X116649474Y-86029610D01*
X116649471Y-86029612D01*
X116479100Y-86157530D01*
X116474965Y-86160635D01*
X116471393Y-86164373D01*
X116363729Y-86277037D01*
X116320629Y-86322138D01*
X116213201Y-86479621D01*
X116158293Y-86524621D01*
X116087768Y-86532792D01*
X116024021Y-86501538D01*
X116003324Y-86477054D01*
X115922822Y-86352617D01*
X115922820Y-86352614D01*
X115920014Y-86348277D01*
X115769670Y-86183051D01*
X115765619Y-86179852D01*
X115765615Y-86179848D01*
X115598414Y-86047800D01*
X115598410Y-86047798D01*
X115594359Y-86044598D01*
X115398789Y-85936638D01*
X115393920Y-85934914D01*
X115393916Y-85934912D01*
X115193087Y-85863795D01*
X115193083Y-85863794D01*
X115188212Y-85862069D01*
X115183119Y-85861162D01*
X115183116Y-85861161D01*
X114973373Y-85823800D01*
X114973367Y-85823799D01*
X114968284Y-85822894D01*
X114894452Y-85821992D01*
X114750081Y-85820228D01*
X114750079Y-85820228D01*
X114744911Y-85820165D01*
X114524091Y-85853955D01*
X114311756Y-85923357D01*
X114281443Y-85939137D01*
X114121249Y-86022529D01*
X114113607Y-86026507D01*
X114109474Y-86029610D01*
X114109471Y-86029612D01*
X113939100Y-86157530D01*
X113934965Y-86160635D01*
X113878537Y-86219684D01*
X113854283Y-86245064D01*
X113792759Y-86280494D01*
X113721846Y-86277037D01*
X113664060Y-86235791D01*
X113645207Y-86202243D01*
X113603767Y-86091703D01*
X113600615Y-86083295D01*
X113513261Y-85966739D01*
X113396705Y-85879385D01*
X113260316Y-85828255D01*
X113198134Y-85821500D01*
X111401866Y-85821500D01*
X111339684Y-85828255D01*
X111203295Y-85879385D01*
X111086739Y-85966739D01*
X110999385Y-86083295D01*
X110948255Y-86219684D01*
X110941500Y-86281866D01*
X110941500Y-88078134D01*
X110948255Y-88140316D01*
X110999385Y-88276705D01*
X111086739Y-88393261D01*
X111203295Y-88480615D01*
X111339684Y-88531745D01*
X111401866Y-88538500D01*
X113198134Y-88538500D01*
X113260316Y-88531745D01*
X113396705Y-88480615D01*
X113513261Y-88393261D01*
X113600615Y-88276705D01*
X113601771Y-88277571D01*
X113645237Y-88234202D01*
X113714628Y-88219187D01*
X113781120Y-88244071D01*
X113823604Y-88300954D01*
X113831500Y-88344856D01*
X113831500Y-89828157D01*
X113830763Y-89841764D01*
X113826676Y-89879388D01*
X113827213Y-89885523D01*
X113831050Y-89929388D01*
X113831379Y-89934214D01*
X113831500Y-89936686D01*
X113831500Y-89939769D01*
X113831801Y-89942837D01*
X113835690Y-89982506D01*
X113835812Y-89983819D01*
X113836328Y-89989715D01*
X113843913Y-90076413D01*
X113845400Y-90081532D01*
X113845920Y-90086833D01*
X113872791Y-90175834D01*
X113873126Y-90176967D01*
X113882038Y-90207639D01*
X113899091Y-90266336D01*
X113901544Y-90271068D01*
X113903084Y-90276169D01*
X113905978Y-90281612D01*
X113946731Y-90358260D01*
X113947343Y-90359426D01*
X113978234Y-90419020D01*
X113990108Y-90441926D01*
X113993431Y-90446089D01*
X113995934Y-90450796D01*
X114054755Y-90522918D01*
X114055446Y-90523774D01*
X114086738Y-90562973D01*
X114089242Y-90565477D01*
X114089884Y-90566195D01*
X114093585Y-90570528D01*
X114120935Y-90604062D01*
X114156267Y-90633291D01*
X114165037Y-90641272D01*
X114491658Y-90967892D01*
X114818149Y-91294383D01*
X114827251Y-91304527D01*
X114850968Y-91334025D01*
X114855696Y-91337992D01*
X114889421Y-91366291D01*
X114893069Y-91369472D01*
X114894881Y-91371115D01*
X114897075Y-91373309D01*
X114930349Y-91400642D01*
X114931147Y-91401304D01*
X115002474Y-91461154D01*
X115007144Y-91463722D01*
X115011261Y-91467103D01*
X115069145Y-91498140D01*
X115093086Y-91510977D01*
X115094245Y-91511606D01*
X115170381Y-91553462D01*
X115170389Y-91553465D01*
X115175787Y-91556433D01*
X115180869Y-91558045D01*
X115185563Y-91560562D01*
X115274531Y-91587762D01*
X115275559Y-91588082D01*
X115364306Y-91616235D01*
X115369602Y-91616829D01*
X115374698Y-91618387D01*
X115467257Y-91627790D01*
X115468393Y-91627911D01*
X115502008Y-91631681D01*
X115514730Y-91633108D01*
X115514734Y-91633108D01*
X115518227Y-91633500D01*
X115521754Y-91633500D01*
X115522739Y-91633555D01*
X115528419Y-91634002D01*
X115557825Y-91636989D01*
X115565337Y-91637752D01*
X115565339Y-91637752D01*
X115571462Y-91638374D01*
X115617108Y-91634059D01*
X115628967Y-91633500D01*
X129045075Y-91633500D01*
X129113196Y-91653502D01*
X129134170Y-91670405D01*
X131723145Y-94259379D01*
X131732247Y-94269522D01*
X131755968Y-94299025D01*
X131760696Y-94302992D01*
X131794421Y-94331291D01*
X131798069Y-94334472D01*
X131799881Y-94336115D01*
X131802075Y-94338309D01*
X131828866Y-94360316D01*
X131835177Y-94365500D01*
X131836190Y-94366341D01*
X131856312Y-94383225D01*
X131864417Y-94390652D01*
X132106410Y-94632645D01*
X132140436Y-94694957D01*
X132135371Y-94765772D01*
X132092824Y-94822608D01*
X132026304Y-94847419D01*
X131975049Y-94840439D01*
X131886949Y-94809068D01*
X131814424Y-94783243D01*
X131814422Y-94783243D01*
X131807790Y-94780881D01*
X131800802Y-94780048D01*
X131800799Y-94780047D01*
X131677698Y-94765368D01*
X131627680Y-94759404D01*
X131620677Y-94760140D01*
X131620676Y-94760140D01*
X131454288Y-94777628D01*
X131454286Y-94777629D01*
X131447288Y-94778364D01*
X131275579Y-94836818D01*
X131225219Y-94867800D01*
X131127095Y-94928166D01*
X131127092Y-94928168D01*
X131121088Y-94931862D01*
X131116053Y-94936793D01*
X131116050Y-94936795D01*
X130999794Y-95050642D01*
X130991493Y-95058771D01*
X130893235Y-95211238D01*
X130890826Y-95217858D01*
X130890824Y-95217861D01*
X130833925Y-95374189D01*
X130831197Y-95381685D01*
X130808463Y-95561640D01*
X130826163Y-95742160D01*
X130883418Y-95914273D01*
X130887065Y-95920295D01*
X130887066Y-95920297D01*
X130968276Y-96054391D01*
X130986500Y-96119662D01*
X130986500Y-97843578D01*
X130966498Y-97911699D01*
X130912842Y-97958192D01*
X130842568Y-97968296D01*
X130777988Y-97938802D01*
X130771405Y-97932673D01*
X130110848Y-97272115D01*
X129291877Y-96453144D01*
X129257851Y-96390832D01*
X129260414Y-96327420D01*
X129270865Y-96293022D01*
X129272370Y-96288069D01*
X129301529Y-96066590D01*
X129301611Y-96063240D01*
X129303074Y-96003365D01*
X129303074Y-96003361D01*
X129303156Y-96000000D01*
X129284852Y-95777361D01*
X129230431Y-95560702D01*
X129141354Y-95355840D01*
X129065443Y-95238500D01*
X129022822Y-95172617D01*
X129022820Y-95172614D01*
X129020014Y-95168277D01*
X128869670Y-95003051D01*
X128865619Y-94999852D01*
X128865615Y-94999848D01*
X128698414Y-94867800D01*
X128698410Y-94867798D01*
X128694359Y-94864598D01*
X128498789Y-94756638D01*
X128493920Y-94754914D01*
X128493916Y-94754912D01*
X128293087Y-94683795D01*
X128293083Y-94683794D01*
X128288212Y-94682069D01*
X128283119Y-94681162D01*
X128283116Y-94681161D01*
X128073373Y-94643800D01*
X128073367Y-94643799D01*
X128068284Y-94642894D01*
X127994452Y-94641992D01*
X127850081Y-94640228D01*
X127850079Y-94640228D01*
X127844911Y-94640165D01*
X127624091Y-94673955D01*
X127411756Y-94743357D01*
X127382667Y-94758500D01*
X127225264Y-94840439D01*
X127213607Y-94846507D01*
X127209474Y-94849610D01*
X127209471Y-94849612D01*
X127039100Y-94977530D01*
X127034965Y-94980635D01*
X126954638Y-95064693D01*
X126954283Y-95065064D01*
X126892759Y-95100494D01*
X126821846Y-95097037D01*
X126764060Y-95055791D01*
X126745207Y-95022243D01*
X126703767Y-94911703D01*
X126700615Y-94903295D01*
X126613261Y-94786739D01*
X126496705Y-94699385D01*
X126360316Y-94648255D01*
X126298134Y-94641500D01*
X124501866Y-94641500D01*
X124439684Y-94648255D01*
X124303295Y-94699385D01*
X124186739Y-94786739D01*
X124099385Y-94903295D01*
X124048255Y-95039684D01*
X124041500Y-95101866D01*
X124041500Y-95238500D01*
X124021498Y-95306621D01*
X123967842Y-95353114D01*
X123915500Y-95364500D01*
X118394422Y-95364500D01*
X118326301Y-95344498D01*
X118305331Y-95327599D01*
X117357239Y-94379506D01*
X117349675Y-94371192D01*
X117345553Y-94364697D01*
X117295734Y-94317914D01*
X117292893Y-94315160D01*
X117273094Y-94295361D01*
X117269969Y-94292937D01*
X117269960Y-94292929D01*
X117269874Y-94292863D01*
X117260849Y-94285155D01*
X117256694Y-94281253D01*
X117228506Y-94254783D01*
X117210669Y-94244977D01*
X117194153Y-94234127D01*
X117178067Y-94221650D01*
X117137334Y-94204024D01*
X117126686Y-94198807D01*
X117097789Y-94182921D01*
X117087803Y-94177431D01*
X117080128Y-94175460D01*
X117080122Y-94175458D01*
X117068089Y-94172369D01*
X117049387Y-94165966D01*
X117030708Y-94157883D01*
X116990907Y-94151579D01*
X116986873Y-94150940D01*
X116975260Y-94148535D01*
X116932282Y-94137500D01*
X116911935Y-94137500D01*
X116892224Y-94135949D01*
X116879950Y-94134005D01*
X116872121Y-94132765D01*
X116864229Y-94133511D01*
X116827944Y-94136941D01*
X116816086Y-94137500D01*
X114656020Y-94137500D01*
X114644791Y-94136971D01*
X114637281Y-94135292D01*
X114629355Y-94135541D01*
X114629354Y-94135541D01*
X114569002Y-94137438D01*
X114565044Y-94137500D01*
X114537017Y-94137500D01*
X114532971Y-94138011D01*
X114521143Y-94138942D01*
X114476795Y-94140336D01*
X114469177Y-94142549D01*
X114469178Y-94142549D01*
X114457254Y-94146013D01*
X114437894Y-94150022D01*
X114425566Y-94151579D01*
X114425563Y-94151580D01*
X114417701Y-94152573D01*
X114410335Y-94155490D01*
X114410329Y-94155491D01*
X114376439Y-94168909D01*
X114365212Y-94172753D01*
X114322607Y-94185131D01*
X114315788Y-94189164D01*
X114315783Y-94189166D01*
X114305091Y-94195490D01*
X114287341Y-94204187D01*
X114268412Y-94211681D01*
X114261996Y-94216342D01*
X114261995Y-94216343D01*
X114232519Y-94237759D01*
X114222595Y-94244278D01*
X114191224Y-94262830D01*
X114191219Y-94262834D01*
X114184401Y-94266866D01*
X114170014Y-94281253D01*
X114154980Y-94294094D01*
X114149374Y-94298167D01*
X114138513Y-94306058D01*
X114133460Y-94312166D01*
X114110228Y-94340249D01*
X114102238Y-94349029D01*
X113896672Y-94554595D01*
X113834360Y-94588621D01*
X113807577Y-94591500D01*
X112749600Y-94591500D01*
X112746354Y-94591837D01*
X112746350Y-94591837D01*
X112650692Y-94601762D01*
X112650688Y-94601763D01*
X112643834Y-94602474D01*
X112637298Y-94604655D01*
X112637296Y-94604655D01*
X112530861Y-94640165D01*
X112476054Y-94658450D01*
X112325652Y-94751522D01*
X112320479Y-94756704D01*
X112290786Y-94786449D01*
X112200695Y-94876697D01*
X112196855Y-94882927D01*
X112196854Y-94882928D01*
X112145367Y-94966456D01*
X112107885Y-95027262D01*
X112097434Y-95058771D01*
X112069783Y-95142138D01*
X112052203Y-95195139D01*
X112051503Y-95201975D01*
X112051502Y-95201978D01*
X112050277Y-95213934D01*
X112041500Y-95299600D01*
X112041500Y-96600400D01*
X112041837Y-96603646D01*
X112041837Y-96603650D01*
X112044943Y-96633583D01*
X112052474Y-96706166D01*
X112059720Y-96727885D01*
X112062502Y-96736224D01*
X112065086Y-96807174D01*
X112032073Y-96865194D01*
X111543517Y-97353750D01*
X111535191Y-97361326D01*
X111528697Y-97365447D01*
X111523274Y-97371222D01*
X111481915Y-97415265D01*
X111479160Y-97418107D01*
X111459361Y-97437906D01*
X111456937Y-97441031D01*
X111456929Y-97441040D01*
X111456863Y-97441126D01*
X111449155Y-97450151D01*
X111418783Y-97482494D01*
X111414965Y-97489438D01*
X111414964Y-97489440D01*
X111408978Y-97500329D01*
X111398127Y-97516847D01*
X111385650Y-97532933D01*
X111368024Y-97573666D01*
X111362807Y-97584314D01*
X111341431Y-97623197D01*
X111339460Y-97630872D01*
X111339458Y-97630878D01*
X111336369Y-97642911D01*
X111329966Y-97661613D01*
X111321883Y-97680292D01*
X111318298Y-97702929D01*
X111314940Y-97724127D01*
X111312535Y-97735740D01*
X111301500Y-97778718D01*
X111301500Y-97799065D01*
X111299949Y-97818776D01*
X111296765Y-97838879D01*
X111297511Y-97846771D01*
X111300941Y-97883056D01*
X111301500Y-97894914D01*
X111301500Y-107107980D01*
X111300970Y-107119214D01*
X111299292Y-107126719D01*
X111300655Y-107170094D01*
X111301438Y-107195012D01*
X111301500Y-107198969D01*
X111301500Y-107226983D01*
X111301996Y-107230908D01*
X111301996Y-107230909D01*
X111302008Y-107231004D01*
X111302941Y-107242849D01*
X111304335Y-107287205D01*
X111306547Y-107294817D01*
X111310013Y-107306748D01*
X111314023Y-107326112D01*
X111316573Y-107346299D01*
X111319489Y-107353663D01*
X111319490Y-107353668D01*
X111332907Y-107387556D01*
X111336752Y-107398785D01*
X111349131Y-107441393D01*
X111353169Y-107448220D01*
X111353170Y-107448223D01*
X111359488Y-107458906D01*
X111368188Y-107476664D01*
X111372761Y-107488215D01*
X111372765Y-107488221D01*
X111375681Y-107495588D01*
X111380339Y-107501999D01*
X111380340Y-107502001D01*
X111401764Y-107531488D01*
X111408281Y-107541410D01*
X111426826Y-107572768D01*
X111426829Y-107572772D01*
X111430866Y-107579598D01*
X111445250Y-107593982D01*
X111458091Y-107609016D01*
X111462410Y-107614961D01*
X111470058Y-107625487D01*
X111489415Y-107641500D01*
X111504255Y-107653777D01*
X111513035Y-107661767D01*
X112049164Y-108197896D01*
X112083190Y-108260208D01*
X112081486Y-108320662D01*
X112060989Y-108394570D01*
X112060441Y-108399700D01*
X112060440Y-108399704D01*
X112053905Y-108460856D01*
X112037251Y-108616695D01*
X112037548Y-108621848D01*
X112037548Y-108621851D01*
X112043011Y-108716590D01*
X112050110Y-108839715D01*
X112051247Y-108844761D01*
X112051248Y-108844767D01*
X112067397Y-108916422D01*
X112099222Y-109057639D01*
X112183266Y-109264616D01*
X112234019Y-109347438D01*
X112297291Y-109450688D01*
X112299987Y-109455088D01*
X112446250Y-109623938D01*
X112618126Y-109766632D01*
X112657912Y-109789881D01*
X112691955Y-109809774D01*
X112740679Y-109861412D01*
X112753750Y-109931195D01*
X112727019Y-109996967D01*
X112686562Y-110030327D01*
X112678460Y-110034544D01*
X112669734Y-110040039D01*
X112649677Y-110055099D01*
X112641223Y-110066427D01*
X112647968Y-110078758D01*
X113387188Y-110817978D01*
X113401132Y-110825592D01*
X113402965Y-110825461D01*
X113409580Y-110821210D01*
X114153389Y-110077401D01*
X114160410Y-110064544D01*
X114153611Y-110055213D01*
X114149559Y-110052521D01*
X114112602Y-110032120D01*
X114062631Y-109981687D01*
X114047859Y-109912245D01*
X114072975Y-109845839D01*
X114100327Y-109819232D01*
X114160546Y-109776278D01*
X114279860Y-109691173D01*
X114290291Y-109680779D01*
X114387921Y-109583489D01*
X114438096Y-109533489D01*
X114478210Y-109477665D01*
X114568453Y-109352077D01*
X114569776Y-109353028D01*
X114616645Y-109309857D01*
X114686580Y-109297625D01*
X114752026Y-109325144D01*
X114779875Y-109356994D01*
X114839987Y-109455088D01*
X114986250Y-109623938D01*
X115158126Y-109766632D01*
X115197912Y-109789881D01*
X115231445Y-109809476D01*
X115280169Y-109861114D01*
X115293240Y-109930897D01*
X115266509Y-109996669D01*
X115226055Y-110030027D01*
X115213607Y-110036507D01*
X115209474Y-110039610D01*
X115209471Y-110039612D01*
X115039100Y-110167530D01*
X115034965Y-110170635D01*
X114969346Y-110239301D01*
X114902712Y-110309030D01*
X114880629Y-110332138D01*
X114877715Y-110336410D01*
X114877714Y-110336411D01*
X114833135Y-110401761D01*
X114774610Y-110487557D01*
X114772898Y-110490066D01*
X114717987Y-110535069D01*
X114647462Y-110543240D01*
X114583715Y-110511986D01*
X114563017Y-110487501D01*
X114533062Y-110441197D01*
X114522377Y-110431995D01*
X114512812Y-110436398D01*
X113772022Y-111177188D01*
X113764408Y-111191132D01*
X113764539Y-111192965D01*
X113768790Y-111199580D01*
X114510474Y-111941264D01*
X114522484Y-111947823D01*
X114534223Y-111938855D01*
X114568022Y-111891819D01*
X114569277Y-111892721D01*
X114616391Y-111849355D01*
X114686330Y-111837148D01*
X114751767Y-111864691D01*
X114779580Y-111896513D01*
X114837287Y-111990683D01*
X114837291Y-111990688D01*
X114839987Y-111995088D01*
X114986250Y-112163938D01*
X115158126Y-112306632D01*
X115351000Y-112419338D01*
X115355825Y-112421180D01*
X115355826Y-112421181D01*
X115365720Y-112424959D01*
X115559692Y-112499030D01*
X115564760Y-112500061D01*
X115564763Y-112500062D01*
X115640339Y-112515438D01*
X115778597Y-112543567D01*
X115783772Y-112543757D01*
X115783774Y-112543757D01*
X115996673Y-112551564D01*
X115996677Y-112551564D01*
X116001837Y-112551753D01*
X116006957Y-112551097D01*
X116006959Y-112551097D01*
X116218288Y-112524025D01*
X116218289Y-112524025D01*
X116223416Y-112523368D01*
X116228366Y-112521883D01*
X116432429Y-112460661D01*
X116432434Y-112460659D01*
X116437384Y-112459174D01*
X116637994Y-112360896D01*
X116819860Y-112231173D01*
X116978096Y-112073489D01*
X117108453Y-111892077D01*
X117129568Y-111849355D01*
X117205136Y-111696453D01*
X117205137Y-111696451D01*
X117207430Y-111691811D01*
X117262077Y-111511946D01*
X117270865Y-111483023D01*
X117270865Y-111483021D01*
X117272370Y-111478069D01*
X117301529Y-111256590D01*
X117301653Y-111251521D01*
X117303074Y-111193365D01*
X117303074Y-111193361D01*
X117303156Y-111190000D01*
X117284852Y-110967361D01*
X117230431Y-110750702D01*
X117141354Y-110545840D01*
X117051181Y-110406454D01*
X117022822Y-110362617D01*
X117022820Y-110362614D01*
X117020014Y-110358277D01*
X116869670Y-110193051D01*
X116865619Y-110189852D01*
X116865615Y-110189848D01*
X116698414Y-110057800D01*
X116698410Y-110057798D01*
X116694359Y-110054598D01*
X116653053Y-110031796D01*
X116603084Y-109981364D01*
X116588312Y-109911921D01*
X116613428Y-109845516D01*
X116640780Y-109818909D01*
X116700546Y-109776278D01*
X116819860Y-109691173D01*
X116830291Y-109680779D01*
X116927921Y-109583489D01*
X116978096Y-109533489D01*
X117037594Y-109450689D01*
X117105435Y-109356277D01*
X117108453Y-109352077D01*
X117126968Y-109314616D01*
X117205136Y-109156453D01*
X117205137Y-109156451D01*
X117207430Y-109151811D01*
X117251662Y-109006226D01*
X117270865Y-108943023D01*
X117270865Y-108943021D01*
X117272370Y-108938069D01*
X117301529Y-108716590D01*
X117303156Y-108650000D01*
X117284852Y-108427361D01*
X117230431Y-108210702D01*
X117141354Y-108005840D01*
X117106935Y-107952636D01*
X117086728Y-107884575D01*
X117106524Y-107816395D01*
X117123632Y-107795100D01*
X117664488Y-107254245D01*
X117672807Y-107246675D01*
X117679303Y-107242553D01*
X117690238Y-107230909D01*
X117726085Y-107192735D01*
X117728840Y-107189893D01*
X117748639Y-107170094D01*
X117751068Y-107166963D01*
X117751072Y-107166958D01*
X117751139Y-107166872D01*
X117758847Y-107157847D01*
X117783792Y-107131283D01*
X117789217Y-107125506D01*
X117793035Y-107118561D01*
X117793038Y-107118557D01*
X117799026Y-107107666D01*
X117809878Y-107091145D01*
X117812805Y-107087371D01*
X117822350Y-107075066D01*
X117839971Y-107034345D01*
X117845192Y-107023689D01*
X117862748Y-106991755D01*
X117862750Y-106991749D01*
X117866569Y-106984803D01*
X117868540Y-106977128D01*
X117868542Y-106977122D01*
X117871631Y-106965089D01*
X117878034Y-106946387D01*
X117886117Y-106927708D01*
X117887357Y-106919882D01*
X117887358Y-106919877D01*
X117893060Y-106883880D01*
X117895466Y-106872260D01*
X117904528Y-106836963D01*
X117904528Y-106836962D01*
X117906500Y-106829282D01*
X117906500Y-106808934D01*
X117908051Y-106789223D01*
X117909995Y-106776949D01*
X117911235Y-106769120D01*
X117907059Y-106724944D01*
X117906500Y-106713086D01*
X117906500Y-106302423D01*
X117926502Y-106234302D01*
X117943405Y-106213327D01*
X118132329Y-106024404D01*
X118194641Y-105990379D01*
X118221424Y-105987500D01*
X123911959Y-105987500D01*
X123980080Y-106007502D01*
X124026573Y-106061158D01*
X124037921Y-106116574D01*
X124037799Y-106121566D01*
X124037251Y-106126695D01*
X124037548Y-106131847D01*
X124037548Y-106131850D01*
X124047013Y-106296000D01*
X124050110Y-106349715D01*
X124051247Y-106354761D01*
X124051248Y-106354767D01*
X124069963Y-106437809D01*
X124099222Y-106567639D01*
X124183266Y-106774616D01*
X124221472Y-106836963D01*
X124297291Y-106960688D01*
X124299987Y-106965088D01*
X124446250Y-107133938D01*
X124618126Y-107276632D01*
X124669664Y-107306748D01*
X124691445Y-107319476D01*
X124740169Y-107371114D01*
X124753240Y-107440897D01*
X124726509Y-107506669D01*
X124686055Y-107540027D01*
X124679451Y-107543465D01*
X124673607Y-107546507D01*
X124669474Y-107549610D01*
X124669471Y-107549612D01*
X124499100Y-107677530D01*
X124494965Y-107680635D01*
X124477047Y-107699385D01*
X124365230Y-107816395D01*
X124340629Y-107842138D01*
X124337720Y-107846403D01*
X124337714Y-107846411D01*
X124293175Y-107911703D01*
X124214743Y-108026680D01*
X124196926Y-108065064D01*
X124130081Y-108209070D01*
X124120688Y-108229305D01*
X124060989Y-108444570D01*
X124037251Y-108666695D01*
X124037548Y-108671848D01*
X124037548Y-108671851D01*
X124040128Y-108716590D01*
X124050110Y-108889715D01*
X124051247Y-108894761D01*
X124051248Y-108894767D01*
X124068953Y-108973328D01*
X124099222Y-109107639D01*
X124131723Y-109187680D01*
X124164752Y-109269020D01*
X124183266Y-109314616D01*
X124185965Y-109319020D01*
X124283182Y-109477665D01*
X124301720Y-109546199D01*
X124280263Y-109613876D01*
X124225624Y-109659209D01*
X124175749Y-109669500D01*
X122637020Y-109669500D01*
X122625791Y-109668971D01*
X122618281Y-109667292D01*
X122610355Y-109667541D01*
X122610354Y-109667541D01*
X122550002Y-109669438D01*
X122546044Y-109669500D01*
X122518017Y-109669500D01*
X122513971Y-109670011D01*
X122502143Y-109670942D01*
X122457795Y-109672336D01*
X122440309Y-109677416D01*
X122438254Y-109678013D01*
X122418894Y-109682022D01*
X122406566Y-109683579D01*
X122406563Y-109683580D01*
X122398701Y-109684573D01*
X122391335Y-109687490D01*
X122391329Y-109687491D01*
X122357439Y-109700909D01*
X122346212Y-109704753D01*
X122303607Y-109717131D01*
X122296788Y-109721164D01*
X122296783Y-109721166D01*
X122286091Y-109727490D01*
X122268341Y-109736187D01*
X122249412Y-109743681D01*
X122242996Y-109748342D01*
X122242995Y-109748343D01*
X122224107Y-109762067D01*
X122214231Y-109769242D01*
X122213519Y-109769759D01*
X122203595Y-109776278D01*
X122172224Y-109794830D01*
X122172219Y-109794834D01*
X122165401Y-109798866D01*
X122151014Y-109813253D01*
X122135980Y-109826094D01*
X122119513Y-109838058D01*
X122114460Y-109844166D01*
X122091228Y-109872249D01*
X122083238Y-109881029D01*
X112306672Y-119657595D01*
X112244360Y-119691621D01*
X112217577Y-119694500D01*
X110911866Y-119694500D01*
X110849684Y-119701255D01*
X110713295Y-119752385D01*
X110596739Y-119839739D01*
X110509385Y-119956295D01*
X110458255Y-120092684D01*
X110451500Y-120154866D01*
X110451500Y-121951134D01*
X110458255Y-122013316D01*
X110509385Y-122149705D01*
X110596739Y-122266261D01*
X110603919Y-122271642D01*
X110608682Y-122276405D01*
X110642708Y-122338717D01*
X110637643Y-122409532D01*
X110595096Y-122466368D01*
X110528576Y-122491179D01*
X110519587Y-122491500D01*
X108634500Y-122491500D01*
X108566379Y-122471498D01*
X108519886Y-122417842D01*
X108508500Y-122365500D01*
X108508500Y-112314853D01*
X112639977Y-112314853D01*
X112645258Y-112321907D01*
X112806756Y-112416279D01*
X112816042Y-112420729D01*
X113015001Y-112496703D01*
X113024899Y-112499579D01*
X113233595Y-112542038D01*
X113243823Y-112543257D01*
X113456650Y-112551062D01*
X113466936Y-112550595D01*
X113678185Y-112523534D01*
X113688262Y-112521392D01*
X113892255Y-112460191D01*
X113901842Y-112456433D01*
X114093098Y-112362738D01*
X114101944Y-112357465D01*
X114149247Y-112323723D01*
X114157648Y-112313023D01*
X114150660Y-112299870D01*
X113412812Y-111562022D01*
X113398868Y-111554408D01*
X113397035Y-111554539D01*
X113390420Y-111558790D01*
X112646737Y-112302473D01*
X112639977Y-112314853D01*
X108508500Y-112314853D01*
X108508500Y-111161863D01*
X112038050Y-111161863D01*
X112050309Y-111374477D01*
X112051745Y-111384697D01*
X112098565Y-111592446D01*
X112101645Y-111602275D01*
X112181770Y-111799603D01*
X112186413Y-111808794D01*
X112266460Y-111939420D01*
X112276916Y-111948880D01*
X112285694Y-111945096D01*
X113027978Y-111202812D01*
X113035592Y-111188868D01*
X113035461Y-111187035D01*
X113031210Y-111180420D01*
X112289849Y-110439059D01*
X112278313Y-110432759D01*
X112266031Y-110442382D01*
X112218089Y-110512662D01*
X112213004Y-110521613D01*
X112123338Y-110714783D01*
X112119775Y-110724470D01*
X112062864Y-110929681D01*
X112060933Y-110939800D01*
X112038302Y-111151574D01*
X112038050Y-111161863D01*
X108508500Y-111161863D01*
X108508500Y-83634500D01*
X108528502Y-83566379D01*
X108582158Y-83519886D01*
X108634500Y-83508500D01*
X123269760Y-83508500D01*
X123337881Y-83528502D01*
G37*
G04 #@! TD.AperFunction*
G04 #@! TA.AperFunction,Conductor*
G36*
X134030880Y-96571453D02*
G01*
X134073066Y-96599300D01*
X136304595Y-98830829D01*
X136338621Y-98893141D01*
X136341500Y-98919924D01*
X136341500Y-105865500D01*
X136321498Y-105933621D01*
X136267842Y-105980114D01*
X136215500Y-105991500D01*
X133659873Y-105991500D01*
X133646703Y-105990810D01*
X133613204Y-105987289D01*
X133613202Y-105987289D01*
X133607075Y-105986645D01*
X133556827Y-105991218D01*
X133552793Y-105991500D01*
X133550231Y-105991500D01*
X133547173Y-105991800D01*
X133547169Y-105991800D01*
X133505404Y-105995895D01*
X133504529Y-105995977D01*
X133482830Y-105997952D01*
X133410112Y-106004570D01*
X133406703Y-106005573D01*
X133403167Y-106005920D01*
X133312279Y-106033361D01*
X133311610Y-106033561D01*
X133220381Y-106060410D01*
X133217228Y-106062058D01*
X133213831Y-106063084D01*
X133129899Y-106107711D01*
X133129319Y-106108016D01*
X133045110Y-106152040D01*
X133042342Y-106154265D01*
X133039204Y-106155934D01*
X133034426Y-106159831D01*
X132965628Y-106215941D01*
X132964944Y-106216494D01*
X132895782Y-106272102D01*
X132895776Y-106272108D01*
X132890975Y-106275968D01*
X132888692Y-106278689D01*
X132885938Y-106280935D01*
X132882011Y-106285682D01*
X132882009Y-106285684D01*
X132873475Y-106296000D01*
X132829039Y-106349715D01*
X132825441Y-106354064D01*
X132824877Y-106354741D01*
X132769752Y-106420436D01*
X132763846Y-106427474D01*
X132762134Y-106430589D01*
X132759870Y-106433325D01*
X132756939Y-106438746D01*
X132714700Y-106516865D01*
X132714298Y-106517603D01*
X132668567Y-106600787D01*
X132667494Y-106604170D01*
X132665802Y-106607299D01*
X132662650Y-106617482D01*
X132647776Y-106665531D01*
X132608524Y-106724690D01*
X132543519Y-106753237D01*
X132473400Y-106742108D01*
X132420429Y-106694836D01*
X132401970Y-106640128D01*
X132398085Y-106599025D01*
X132397526Y-106587168D01*
X132397526Y-104398500D01*
X132417528Y-104330379D01*
X132434431Y-104309405D01*
X132923477Y-103820359D01*
X132931803Y-103812782D01*
X132938303Y-103808657D01*
X132985101Y-103758822D01*
X132987855Y-103755981D01*
X133007638Y-103736198D01*
X133010129Y-103732987D01*
X133017838Y-103723960D01*
X133048217Y-103691610D01*
X133058022Y-103673775D01*
X133068876Y-103657251D01*
X133076491Y-103647434D01*
X133076492Y-103647433D01*
X133081349Y-103641171D01*
X133098969Y-103600454D01*
X133104192Y-103589793D01*
X133121749Y-103557857D01*
X133121751Y-103557852D01*
X133125569Y-103550907D01*
X133127539Y-103543233D01*
X133127542Y-103543226D01*
X133130632Y-103531191D01*
X133137036Y-103512486D01*
X133141967Y-103501091D01*
X133145117Y-103493812D01*
X133152060Y-103449977D01*
X133154467Y-103438355D01*
X133162692Y-103406321D01*
X133165500Y-103395386D01*
X133165500Y-103375039D01*
X133167051Y-103355328D01*
X133168995Y-103343054D01*
X133170235Y-103335225D01*
X133166059Y-103291048D01*
X133165500Y-103279190D01*
X133165500Y-97236140D01*
X133185502Y-97168019D01*
X133226982Y-97127911D01*
X133241524Y-97119242D01*
X133256912Y-97110069D01*
X133262006Y-97105218D01*
X133262010Y-97105215D01*
X133333681Y-97036962D01*
X133388266Y-96984982D01*
X133488643Y-96833902D01*
X133491144Y-96827317D01*
X133491147Y-96827312D01*
X133492578Y-96823544D01*
X133494147Y-96821474D01*
X133494365Y-96821050D01*
X133494439Y-96821088D01*
X133535466Y-96766965D01*
X133571430Y-96748454D01*
X133729409Y-96697124D01*
X133729412Y-96697123D01*
X133736108Y-96694947D01*
X133891912Y-96602069D01*
X133897012Y-96597212D01*
X133897015Y-96597210D01*
X133897083Y-96597145D01*
X133897137Y-96597117D01*
X133902626Y-96592951D01*
X133903358Y-96593915D01*
X133960210Y-96564656D01*
X134030880Y-96571453D01*
G37*
G04 #@! TD.AperFunction*
G04 #@! TA.AperFunction,Conductor*
G36*
X123308621Y-97109502D02*
G01*
X123355114Y-97163158D01*
X123366500Y-97215500D01*
X123366500Y-99602980D01*
X123365970Y-99614214D01*
X123364292Y-99621719D01*
X123364541Y-99629638D01*
X123366438Y-99690012D01*
X123366500Y-99693969D01*
X123366500Y-99721983D01*
X123366996Y-99725908D01*
X123366996Y-99725909D01*
X123367008Y-99726004D01*
X123367941Y-99737849D01*
X123369335Y-99782205D01*
X123371547Y-99789817D01*
X123375013Y-99801748D01*
X123379023Y-99821112D01*
X123381573Y-99841299D01*
X123384489Y-99848663D01*
X123384490Y-99848668D01*
X123397907Y-99882556D01*
X123401752Y-99893785D01*
X123404699Y-99903929D01*
X123414131Y-99936393D01*
X123418169Y-99943220D01*
X123418170Y-99943223D01*
X123424488Y-99953906D01*
X123433188Y-99971664D01*
X123437761Y-99983215D01*
X123437765Y-99983221D01*
X123440681Y-99990588D01*
X123445339Y-99996999D01*
X123445340Y-99997001D01*
X123466764Y-100026488D01*
X123473281Y-100036410D01*
X123491826Y-100067768D01*
X123491829Y-100067772D01*
X123495866Y-100074598D01*
X123510250Y-100088982D01*
X123523091Y-100104016D01*
X123535058Y-100120487D01*
X123541166Y-100125540D01*
X123569255Y-100148777D01*
X123578035Y-100156767D01*
X124049164Y-100627896D01*
X124083190Y-100690208D01*
X124081486Y-100750662D01*
X124060989Y-100824570D01*
X124060441Y-100829700D01*
X124060440Y-100829704D01*
X124056263Y-100868790D01*
X124037251Y-101046695D01*
X124037548Y-101051848D01*
X124037548Y-101051851D01*
X124042322Y-101134651D01*
X124050110Y-101269715D01*
X124051247Y-101274761D01*
X124051248Y-101274767D01*
X124061837Y-101321752D01*
X124099222Y-101487639D01*
X124183266Y-101694616D01*
X124185967Y-101699023D01*
X124202230Y-101725564D01*
X124220767Y-101794098D01*
X124199309Y-101861774D01*
X124168859Y-101893332D01*
X124165509Y-101895766D01*
X124155585Y-101902284D01*
X124124228Y-101920828D01*
X124124225Y-101920830D01*
X124117401Y-101924866D01*
X124103014Y-101939253D01*
X124087980Y-101952094D01*
X124071513Y-101964058D01*
X124066460Y-101970166D01*
X124043228Y-101998249D01*
X124035238Y-102007029D01*
X123608517Y-102433750D01*
X123600191Y-102441326D01*
X123593697Y-102445447D01*
X123588274Y-102451222D01*
X123546915Y-102495265D01*
X123544160Y-102498107D01*
X123524361Y-102517906D01*
X123521937Y-102521031D01*
X123521929Y-102521040D01*
X123521863Y-102521126D01*
X123514155Y-102530151D01*
X123483783Y-102562494D01*
X123479965Y-102569438D01*
X123479964Y-102569440D01*
X123473978Y-102580329D01*
X123463127Y-102596847D01*
X123450650Y-102612933D01*
X123433024Y-102653666D01*
X123427807Y-102664314D01*
X123406431Y-102703197D01*
X123404460Y-102710872D01*
X123404458Y-102710878D01*
X123401369Y-102722911D01*
X123394966Y-102741613D01*
X123386883Y-102760292D01*
X123385644Y-102768117D01*
X123379940Y-102804127D01*
X123377535Y-102815740D01*
X123366500Y-102858718D01*
X123366500Y-102879065D01*
X123364949Y-102898776D01*
X123361765Y-102918879D01*
X123362511Y-102926771D01*
X123365941Y-102963056D01*
X123366500Y-102974914D01*
X123366500Y-103138629D01*
X123346498Y-103206750D01*
X123329595Y-103227724D01*
X123293724Y-103263595D01*
X123231412Y-103297621D01*
X123204629Y-103300500D01*
X118159500Y-103300500D01*
X118091379Y-103280498D01*
X118044886Y-103226842D01*
X118033500Y-103174500D01*
X118033500Y-100478032D01*
X118034030Y-100466793D01*
X118035709Y-100459281D01*
X118034877Y-100432792D01*
X118033562Y-100390970D01*
X118033500Y-100387012D01*
X118033500Y-100359017D01*
X118032992Y-100354994D01*
X118032059Y-100343152D01*
X118031801Y-100334921D01*
X118030665Y-100298795D01*
X118024987Y-100279251D01*
X118020977Y-100259888D01*
X118019420Y-100247560D01*
X118019420Y-100247558D01*
X118018427Y-100239701D01*
X118015511Y-100232337D01*
X118015510Y-100232332D01*
X118002093Y-100198444D01*
X117998248Y-100187215D01*
X117989402Y-100156767D01*
X117985869Y-100144607D01*
X117981830Y-100137777D01*
X117975512Y-100127094D01*
X117966812Y-100109336D01*
X117962239Y-100097785D01*
X117962235Y-100097779D01*
X117959319Y-100090412D01*
X117947830Y-100074598D01*
X117933236Y-100054512D01*
X117926719Y-100044590D01*
X117908174Y-100013232D01*
X117908171Y-100013228D01*
X117904134Y-100006402D01*
X117889750Y-99992018D01*
X117876909Y-99976984D01*
X117869602Y-99966927D01*
X117864942Y-99960513D01*
X117830750Y-99932227D01*
X117821969Y-99924237D01*
X117265695Y-99367962D01*
X117258125Y-99359643D01*
X117254003Y-99353147D01*
X117240736Y-99340688D01*
X117204185Y-99306365D01*
X117201343Y-99303610D01*
X117181544Y-99283811D01*
X117178419Y-99281387D01*
X117178410Y-99281379D01*
X117178324Y-99281313D01*
X117169283Y-99273590D01*
X117168293Y-99272660D01*
X117132338Y-99211441D01*
X117135189Y-99140501D01*
X117141605Y-99124998D01*
X117154632Y-99098641D01*
X117207430Y-98991811D01*
X117272370Y-98778069D01*
X117301529Y-98556590D01*
X117301928Y-98540262D01*
X117303074Y-98493365D01*
X117303074Y-98493361D01*
X117303156Y-98490000D01*
X117284852Y-98267361D01*
X117230431Y-98050702D01*
X117141354Y-97845840D01*
X117020014Y-97658277D01*
X117016532Y-97654450D01*
X117013379Y-97650356D01*
X117014793Y-97649267D01*
X116987167Y-97592444D01*
X116995571Y-97521947D01*
X117022320Y-97482412D01*
X117378327Y-97126405D01*
X117440639Y-97092379D01*
X117467422Y-97089500D01*
X123240500Y-97089500D01*
X123308621Y-97109502D01*
G37*
G04 #@! TD.AperFunction*
M02*
