M48
; DRILL file {KiCad (6.0.7)} date Sat Sep 17 20:41:10 2022
; FORMAT={-:-/ absolute / metric / decimal}
; #@! TF.CreationDate,2022-09-17T20:41:10+02:00
; #@! TF.GenerationSoftware,Kicad,Pcbnew,(6.0.7)
; #@! TF.FileFunction,Plated,1,2,PTH
FMAT,2
METRIC
; #@! TA.AperFunction,Plated,PTH,ViaDrill
T1C0.200
; #@! TA.AperFunction,Plated,PTH,ViaDrill
T2C0.300
; #@! TA.AperFunction,Plated,PTH,ViaDrill
T3C0.400
; #@! TA.AperFunction,Plated,PTH,ViaDrill
T4C0.500
; #@! TA.AperFunction,Plated,PTH,ComponentDrill
T5C0.600
; #@! TA.AperFunction,Plated,PTH,ComponentDrill
T6C0.800
; #@! TA.AperFunction,Plated,PTH,ComponentDrill
T7C0.850
; #@! TA.AperFunction,Plated,PTH,ComponentDrill
T8C1.000
%
G90
G05
T1
X137.2Y-109.6
X138.525Y-100.725
X138.74Y-99.34
X138.9Y-101.2
X139.115Y-111.008
X139.175Y-101.75
X139.55Y-102.25
X140.15Y-102.25
X140.277Y-109.45
X140.68Y-99.44
X140.75Y-102.25
X140.804Y-109.95
X140.9Y-107.65
X141.331Y-110.4
X141.775Y-104.85
X141.858Y-110.85
X142.29Y-104.53
X142.4Y-116.85
X142.7Y-96.3
X142.95Y-117.4
X143.204Y-95.654
X143.319Y-103.977
X143.325Y-108.975
X143.5Y-117.95
X144.021Y-103.972
X144.05Y-110.25
X144.15Y-100.2
X144.2Y-101.225
X144.219Y-103.397
X144.43Y-96.589
X144.5Y-99.7
X144.5Y-100.7
X144.515Y-102.271
X144.65Y-110.85
X145.241Y-97.791
X145.811Y-97.977
X146.86Y-100.77
X147.13Y-100.23
X147.53Y-99.75
X149.904Y-91.025
T2
X120.319Y-98.621
X122.814Y-110.985
X123.748Y-111.702
X129.717Y-104.844
X129.75Y-101.0
X130.225Y-103.447
X130.75Y-102.75
X131.622Y-95.573
X132.765Y-96.462
X133.4Y-95.954
X137.35Y-98.45
X137.85Y-91.15
X148.4Y-103.7
T3
X120.954Y-94.303
X122.859Y-108.654
X122.95Y-88.8
X123.14Y-114.97
X131.65Y-88.55
X135.4Y-98.3
X136.8Y-115.3
T4
X133.6Y-107.0
X153.05Y-105.9
T6
X165.35Y-101.05
X165.35Y-103.05
X165.35Y-105.05
X169.85Y-101.05
X169.85Y-103.05
X169.85Y-105.05
T7
X172.847Y-100.5
X172.847Y-105.4
T8
X111.81Y-121.053
X112.3Y-87.18
X113.4Y-95.95
X113.4Y-98.49
X113.4Y-101.03
X113.4Y-103.57
X113.4Y-106.11
X113.4Y-108.65
X113.4Y-111.19
X114.35Y-121.053
X114.84Y-87.18
X115.94Y-95.95
X115.94Y-98.49
X115.94Y-101.03
X115.94Y-103.57
X115.94Y-106.11
X115.94Y-108.65
X115.94Y-111.19
X116.89Y-121.053
X117.38Y-87.18
X119.43Y-121.053
X121.97Y-121.053
X124.51Y-84.985
X124.51Y-121.053
X125.4Y-96.0
X125.4Y-98.54
X125.4Y-101.08
X125.4Y-103.62
X125.4Y-106.16
X125.4Y-108.7
X127.05Y-84.985
X127.05Y-121.053
X127.94Y-96.0
X127.94Y-98.54
X127.94Y-101.08
X127.94Y-103.62
X127.94Y-106.16
X127.94Y-108.7
X129.59Y-84.985
X129.59Y-121.053
X134.67Y-84.985
X134.67Y-121.053
X137.21Y-84.985
X137.21Y-121.053
X139.75Y-84.985
X139.75Y-121.053
X142.29Y-84.985
X142.29Y-121.053
X144.83Y-84.985
X144.83Y-121.053
X147.37Y-84.985
X147.37Y-121.053
X149.91Y-84.985
X149.91Y-121.053
X152.45Y-84.985
X152.45Y-121.053
X155.0Y-93.4
X155.0Y-97.0
X155.0Y-109.0
X155.0Y-112.6
X157.53Y-84.985
X157.53Y-121.053
X157.54Y-93.4
X157.54Y-97.0
X157.54Y-109.0
X157.54Y-112.6
X160.07Y-84.985
X160.07Y-121.053
X160.08Y-93.4
X160.08Y-97.0
X160.08Y-109.0
X160.08Y-112.6
X162.61Y-84.985
X162.61Y-121.053
X163.06Y-89.8
X165.15Y-84.985
X165.15Y-121.053
X165.6Y-89.8
X167.69Y-84.985
X167.69Y-121.053
X170.23Y-84.985
X170.23Y-121.053
X172.77Y-84.985
X172.77Y-121.053
X175.31Y-84.985
X175.31Y-121.053
T5
X175.197Y-99.35G85X175.897Y-99.35
G05
X175.897Y-106.55G85X175.197Y-106.55
G05
T0
M30
