G04 #@! TF.GenerationSoftware,KiCad,Pcbnew,(6.0.7)*
G04 #@! TF.CreationDate,2022-09-17T20:40:59+02:00*
G04 #@! TF.ProjectId,FR2476,46523234-3736-42e6-9b69-6361645f7063,rev?*
G04 #@! TF.SameCoordinates,Original*
G04 #@! TF.FileFunction,Soldermask,Top*
G04 #@! TF.FilePolarity,Negative*
%FSLAX46Y46*%
G04 Gerber Fmt 4.6, Leading zero omitted, Abs format (unit mm)*
G04 Created by KiCad (PCBNEW (6.0.7)) date 2022-09-17 20:40:59*
%MOMM*%
%LPD*%
G01*
G04 APERTURE LIST*
G04 Aperture macros list*
%AMRoundRect*
0 Rectangle with rounded corners*
0 $1 Rounding radius*
0 $2 $3 $4 $5 $6 $7 $8 $9 X,Y pos of 4 corners*
0 Add a 4 corners polygon primitive as box body*
4,1,4,$2,$3,$4,$5,$6,$7,$8,$9,$2,$3,0*
0 Add four circle primitives for the rounded corners*
1,1,$1+$1,$2,$3*
1,1,$1+$1,$4,$5*
1,1,$1+$1,$6,$7*
1,1,$1+$1,$8,$9*
0 Add four rect primitives between the rounded corners*
20,1,$1+$1,$2,$3,$4,$5,0*
20,1,$1+$1,$4,$5,$6,$7,0*
20,1,$1+$1,$6,$7,$8,$9,0*
20,1,$1+$1,$8,$9,$2,$3,0*%
%AMFreePoly0*
4,1,9,5.362500,-0.866500,1.237500,-0.866500,1.237500,-0.450000,-1.237500,-0.450000,-1.237500,0.450000,1.237500,0.450000,1.237500,0.866500,5.362500,0.866500,5.362500,-0.866500,5.362500,-0.866500,$1*%
%AMFreePoly1*
4,1,22,0.500000,-0.750000,0.000000,-0.750000,0.000000,-0.745033,-0.079941,-0.743568,-0.215256,-0.701293,-0.333266,-0.622738,-0.424486,-0.514219,-0.481581,-0.384460,-0.499164,-0.250000,-0.500000,-0.250000,-0.500000,0.250000,-0.499164,0.250000,-0.499963,0.256109,-0.478152,0.396186,-0.417904,0.524511,-0.324060,0.630769,-0.204165,0.706417,-0.067858,0.745374,0.000000,0.744959,0.000000,0.750000,
0.500000,0.750000,0.500000,-0.750000,0.500000,-0.750000,$1*%
%AMFreePoly2*
4,1,20,0.000000,0.744959,0.073905,0.744508,0.209726,0.703889,0.328688,0.626782,0.421226,0.519385,0.479903,0.390333,0.500000,0.250000,0.500000,-0.250000,0.499851,-0.262216,0.476331,-0.402017,0.414519,-0.529596,0.319384,-0.634700,0.198574,-0.708877,0.061801,-0.746166,0.000000,-0.745033,0.000000,-0.750000,-0.500000,-0.750000,-0.500000,0.750000,0.000000,0.750000,0.000000,0.744959,
0.000000,0.744959,$1*%
G04 Aperture macros list end*
%ADD10RoundRect,0.250000X-0.600000X-0.600000X0.600000X-0.600000X0.600000X0.600000X-0.600000X0.600000X0*%
%ADD11C,1.700000*%
%ADD12RoundRect,0.237500X0.237500X-0.300000X0.237500X0.300000X-0.237500X0.300000X-0.237500X-0.300000X0*%
%ADD13R,1.700000X1.700000*%
%ADD14O,1.700000X1.700000*%
%ADD15R,1.750000X1.800000*%
%ADD16RoundRect,0.237500X0.237500X-0.250000X0.237500X0.250000X-0.237500X0.250000X-0.237500X-0.250000X0*%
%ADD17R,2.300000X0.900000*%
%ADD18FreePoly0,0.000000*%
%ADD19RoundRect,0.237500X-0.237500X0.287500X-0.237500X-0.287500X0.237500X-0.287500X0.237500X0.287500X0*%
%ADD20RoundRect,0.237500X-0.237500X0.250000X-0.237500X-0.250000X0.237500X-0.250000X0.237500X0.250000X0*%
%ADD21RoundRect,0.237500X-0.237500X0.300000X-0.237500X-0.300000X0.237500X-0.300000X0.237500X0.300000X0*%
%ADD22R,1.550000X0.400000*%
%ADD23R,1.900000X1.200000*%
%ADD24C,1.450000*%
%ADD25O,1.900000X1.200000*%
%ADD26R,1.900000X1.500000*%
%ADD27R,1.350000X1.350000*%
%ADD28O,1.350000X1.350000*%
%ADD29RoundRect,0.075000X-0.662500X-0.075000X0.662500X-0.075000X0.662500X0.075000X-0.662500X0.075000X0*%
%ADD30RoundRect,0.075000X-0.075000X-0.662500X0.075000X-0.662500X0.075000X0.662500X-0.075000X0.662500X0*%
%ADD31R,1.400000X2.000000*%
%ADD32FreePoly1,270.000000*%
%ADD33FreePoly2,270.000000*%
%ADD34FreePoly1,0.000000*%
%ADD35FreePoly2,0.000000*%
G04 APERTURE END LIST*
D10*
X113400000Y-95950000D03*
D11*
X115940000Y-95950000D03*
X113400000Y-98490000D03*
X115940000Y-98490000D03*
X113400000Y-101030000D03*
X115940000Y-101030000D03*
X113400000Y-103570000D03*
X115940000Y-103570000D03*
X113400000Y-106110000D03*
X115940000Y-106110000D03*
X113400000Y-108650000D03*
X115940000Y-108650000D03*
X113400000Y-111190000D03*
X115940000Y-111190000D03*
D12*
X134000000Y-99362500D03*
X134000000Y-97637500D03*
X134975000Y-113412500D03*
X134975000Y-111687500D03*
D13*
X134670000Y-121053000D03*
D14*
X137210000Y-121053000D03*
X139750000Y-121053000D03*
X142290000Y-121053000D03*
X144830000Y-121053000D03*
X147370000Y-121053000D03*
X149910000Y-121053000D03*
X152450000Y-121053000D03*
D13*
X134670000Y-84985000D03*
D14*
X137210000Y-84985000D03*
X139750000Y-84985000D03*
X142290000Y-84985000D03*
X144830000Y-84985000D03*
X147370000Y-84985000D03*
X149910000Y-84985000D03*
X152450000Y-84985000D03*
D13*
X157530000Y-84985000D03*
D14*
X160070000Y-84985000D03*
X162610000Y-84985000D03*
X165150000Y-84985000D03*
X167690000Y-84985000D03*
X170230000Y-84985000D03*
X172770000Y-84985000D03*
X175310000Y-84985000D03*
D13*
X111810000Y-121053000D03*
D14*
X114350000Y-121053000D03*
X116890000Y-121053000D03*
X119430000Y-121053000D03*
X121970000Y-121053000D03*
X124510000Y-121053000D03*
X127050000Y-121053000D03*
X129590000Y-121053000D03*
D15*
X136175000Y-91950000D03*
X139425000Y-91950000D03*
D12*
X163250000Y-103862500D03*
X163250000Y-102137500D03*
X161750000Y-103862500D03*
X161750000Y-102137500D03*
X151600000Y-103862500D03*
X151600000Y-102137500D03*
X153100000Y-103862500D03*
X153100000Y-102137500D03*
D16*
X133455000Y-113477500D03*
X133455000Y-111652500D03*
D17*
X155312500Y-101500000D03*
D18*
X155400000Y-103000000D03*
D17*
X155312500Y-104500000D03*
D19*
X176100000Y-88825000D03*
X176100000Y-90575000D03*
D13*
X165600000Y-89800000D03*
D14*
X163060000Y-89800000D03*
D20*
X174500000Y-88787500D03*
X174500000Y-90612500D03*
D13*
X157530000Y-121053000D03*
D14*
X160070000Y-121053000D03*
X162610000Y-121053000D03*
X165150000Y-121053000D03*
X167690000Y-121053000D03*
X170230000Y-121053000D03*
X172770000Y-121053000D03*
X175310000Y-121053000D03*
D13*
X155000000Y-93400000D03*
D14*
X157540000Y-93400000D03*
X160080000Y-93400000D03*
D13*
X155000000Y-97000000D03*
D14*
X157540000Y-97000000D03*
X160080000Y-97000000D03*
D13*
X155000000Y-112600000D03*
D14*
X157540000Y-112600000D03*
X160080000Y-112600000D03*
D21*
X164100000Y-109037500D03*
X164100000Y-110762500D03*
X164100000Y-93437500D03*
X164100000Y-95162500D03*
X162600000Y-93437500D03*
X162600000Y-95162500D03*
D13*
X155000000Y-109000000D03*
D14*
X157540000Y-109000000D03*
X160080000Y-109000000D03*
D22*
X172760000Y-104250000D03*
X172760000Y-103600000D03*
X172760000Y-102950000D03*
X172760000Y-102300000D03*
X172760000Y-101650000D03*
D23*
X175547500Y-105850000D03*
D24*
X172847500Y-100500000D03*
D25*
X175547500Y-99350000D03*
X175547500Y-106550000D03*
D26*
X175547500Y-101950000D03*
X175547500Y-103950000D03*
D23*
X175547500Y-100050000D03*
D24*
X172847500Y-105400000D03*
D12*
X136475000Y-113412500D03*
X136475000Y-111687500D03*
D13*
X112300000Y-87180000D03*
D14*
X114840000Y-87180000D03*
X117380000Y-87180000D03*
D12*
X121450000Y-91862500D03*
X121450000Y-90137500D03*
D20*
X122950000Y-90087500D03*
X122950000Y-91912500D03*
D27*
X165350000Y-101050000D03*
D28*
X165350000Y-103050000D03*
X165350000Y-105050000D03*
X169850000Y-101050000D03*
X169850000Y-103050000D03*
X169850000Y-105050000D03*
D21*
X162600000Y-109037500D03*
X162600000Y-110762500D03*
D12*
X141350000Y-93312500D03*
X141350000Y-91587500D03*
X134250000Y-93312500D03*
X134250000Y-91587500D03*
D13*
X125400000Y-96000000D03*
D14*
X127940000Y-96000000D03*
X125400000Y-98540000D03*
X127940000Y-98540000D03*
X125400000Y-101080000D03*
X127940000Y-101080000D03*
X125400000Y-103620000D03*
X127940000Y-103620000D03*
X125400000Y-106160000D03*
X127940000Y-106160000D03*
X125400000Y-108700000D03*
X127940000Y-108700000D03*
D29*
X137337500Y-99250000D03*
X137337500Y-99750000D03*
X137337500Y-100250000D03*
X137337500Y-100750000D03*
X137337500Y-101250000D03*
X137337500Y-101750000D03*
X137337500Y-102250000D03*
X137337500Y-102750000D03*
X137337500Y-103250000D03*
X137337500Y-103750000D03*
X137337500Y-104250000D03*
X137337500Y-104750000D03*
D30*
X138750000Y-106162500D03*
X139250000Y-106162500D03*
X139750000Y-106162500D03*
X140250000Y-106162500D03*
X140750000Y-106162500D03*
X141250000Y-106162500D03*
X141750000Y-106162500D03*
X142250000Y-106162500D03*
X142750000Y-106162500D03*
X143250000Y-106162500D03*
X143750000Y-106162500D03*
X144250000Y-106162500D03*
D29*
X145662500Y-104750000D03*
X145662500Y-104250000D03*
X145662500Y-103750000D03*
X145662500Y-103250000D03*
X145662500Y-102750000D03*
X145662500Y-102250000D03*
X145662500Y-101750000D03*
X145662500Y-101250000D03*
X145662500Y-100750000D03*
X145662500Y-100250000D03*
X145662500Y-99750000D03*
X145662500Y-99250000D03*
D30*
X144250000Y-97837500D03*
X143750000Y-97837500D03*
X143250000Y-97837500D03*
X142750000Y-97837500D03*
X142250000Y-97837500D03*
X141750000Y-97837500D03*
X141250000Y-97837500D03*
X140750000Y-97837500D03*
X140250000Y-97837500D03*
X139750000Y-97837500D03*
X139250000Y-97837500D03*
X138750000Y-97837500D03*
D13*
X124510000Y-84985000D03*
D14*
X127050000Y-84985000D03*
X129590000Y-84985000D03*
D31*
X124635000Y-91000000D03*
X128785000Y-91000000D03*
D32*
X136500000Y-94200000D03*
D33*
X136500000Y-95500000D03*
D34*
X134950000Y-107100000D03*
D35*
X136250000Y-107100000D03*
D34*
X134950000Y-109600000D03*
D35*
X136250000Y-109600000D03*
D32*
X139050000Y-94200000D03*
D33*
X139050000Y-95500000D03*
D16*
X132500000Y-99412500D03*
X132500000Y-97587500D03*
D21*
X148600000Y-100787500D03*
X148600000Y-102512500D03*
M02*
