G04 #@! TF.GenerationSoftware,KiCad,Pcbnew,(6.0.7)*
G04 #@! TF.CreationDate,2022-09-17T20:40:59+02:00*
G04 #@! TF.ProjectId,FR2476,46523234-3736-42e6-9b69-6361645f7063,rev?*
G04 #@! TF.SameCoordinates,Original*
G04 #@! TF.FileFunction,Paste,Top*
G04 #@! TF.FilePolarity,Positive*
%FSLAX46Y46*%
G04 Gerber Fmt 4.6, Leading zero omitted, Abs format (unit mm)*
G04 Created by KiCad (PCBNEW (6.0.7)) date 2022-09-17 20:40:59*
%MOMM*%
%LPD*%
G01*
G04 APERTURE LIST*
G04 Aperture macros list*
%AMRoundRect*
0 Rectangle with rounded corners*
0 $1 Rounding radius*
0 $2 $3 $4 $5 $6 $7 $8 $9 X,Y pos of 4 corners*
0 Add a 4 corners polygon primitive as box body*
4,1,4,$2,$3,$4,$5,$6,$7,$8,$9,$2,$3,0*
0 Add four circle primitives for the rounded corners*
1,1,$1+$1,$2,$3*
1,1,$1+$1,$4,$5*
1,1,$1+$1,$6,$7*
1,1,$1+$1,$8,$9*
0 Add four rect primitives between the rounded corners*
20,1,$1+$1,$2,$3,$4,$5,0*
20,1,$1+$1,$4,$5,$6,$7,0*
20,1,$1+$1,$6,$7,$8,$9,0*
20,1,$1+$1,$8,$9,$2,$3,0*%
%AMFreePoly0*
4,1,9,5.362500,-0.866500,1.237500,-0.866500,1.237500,-0.450000,-1.237500,-0.450000,-1.237500,0.450000,1.237500,0.450000,1.237500,0.866500,5.362500,0.866500,5.362500,-0.866500,5.362500,-0.866500,$1*%
G04 Aperture macros list end*
%ADD10RoundRect,0.237500X0.237500X-0.300000X0.237500X0.300000X-0.237500X0.300000X-0.237500X-0.300000X0*%
%ADD11R,1.750000X1.800000*%
%ADD12RoundRect,0.237500X0.237500X-0.250000X0.237500X0.250000X-0.237500X0.250000X-0.237500X-0.250000X0*%
%ADD13R,2.300000X0.900000*%
%ADD14FreePoly0,0.000000*%
%ADD15RoundRect,0.237500X-0.237500X0.287500X-0.237500X-0.287500X0.237500X-0.287500X0.237500X0.287500X0*%
%ADD16RoundRect,0.237500X-0.237500X0.250000X-0.237500X-0.250000X0.237500X-0.250000X0.237500X0.250000X0*%
%ADD17RoundRect,0.237500X-0.237500X0.300000X-0.237500X-0.300000X0.237500X-0.300000X0.237500X0.300000X0*%
%ADD18R,1.550000X0.400000*%
%ADD19R,1.900000X1.500000*%
%ADD20RoundRect,0.075000X-0.662500X-0.075000X0.662500X-0.075000X0.662500X0.075000X-0.662500X0.075000X0*%
%ADD21RoundRect,0.075000X-0.075000X-0.662500X0.075000X-0.662500X0.075000X0.662500X-0.075000X0.662500X0*%
%ADD22R,1.400000X2.000000*%
G04 APERTURE END LIST*
D10*
X134000000Y-99362500D03*
X134000000Y-97637500D03*
X134975000Y-113412500D03*
X134975000Y-111687500D03*
D11*
X136175000Y-91950000D03*
X139425000Y-91950000D03*
D10*
X163250000Y-103862500D03*
X163250000Y-102137500D03*
X161750000Y-103862500D03*
X161750000Y-102137500D03*
X151600000Y-103862500D03*
X151600000Y-102137500D03*
X153100000Y-103862500D03*
X153100000Y-102137500D03*
D12*
X133455000Y-113477500D03*
X133455000Y-111652500D03*
D13*
X155312500Y-101500000D03*
D14*
X155400000Y-103000000D03*
D13*
X155312500Y-104500000D03*
D15*
X176100000Y-88825000D03*
X176100000Y-90575000D03*
D16*
X174500000Y-88787500D03*
X174500000Y-90612500D03*
D17*
X164100000Y-109037500D03*
X164100000Y-110762500D03*
X164100000Y-93437500D03*
X164100000Y-95162500D03*
X162600000Y-93437500D03*
X162600000Y-95162500D03*
D18*
X172760000Y-104250000D03*
X172760000Y-103600000D03*
X172760000Y-102950000D03*
X172760000Y-102300000D03*
X172760000Y-101650000D03*
D19*
X175547500Y-101950000D03*
X175547500Y-103950000D03*
D10*
X136475000Y-113412500D03*
X136475000Y-111687500D03*
X121450000Y-91862500D03*
X121450000Y-90137500D03*
D16*
X122950000Y-90087500D03*
X122950000Y-91912500D03*
D17*
X162600000Y-109037500D03*
X162600000Y-110762500D03*
D10*
X141350000Y-93312500D03*
X141350000Y-91587500D03*
X134250000Y-93312500D03*
X134250000Y-91587500D03*
D20*
X137337500Y-99250000D03*
X137337500Y-99750000D03*
X137337500Y-100250000D03*
X137337500Y-100750000D03*
X137337500Y-101250000D03*
X137337500Y-101750000D03*
X137337500Y-102250000D03*
X137337500Y-102750000D03*
X137337500Y-103250000D03*
X137337500Y-103750000D03*
X137337500Y-104250000D03*
X137337500Y-104750000D03*
D21*
X138750000Y-106162500D03*
X139250000Y-106162500D03*
X139750000Y-106162500D03*
X140250000Y-106162500D03*
X140750000Y-106162500D03*
X141250000Y-106162500D03*
X141750000Y-106162500D03*
X142250000Y-106162500D03*
X142750000Y-106162500D03*
X143250000Y-106162500D03*
X143750000Y-106162500D03*
X144250000Y-106162500D03*
D20*
X145662500Y-104750000D03*
X145662500Y-104250000D03*
X145662500Y-103750000D03*
X145662500Y-103250000D03*
X145662500Y-102750000D03*
X145662500Y-102250000D03*
X145662500Y-101750000D03*
X145662500Y-101250000D03*
X145662500Y-100750000D03*
X145662500Y-100250000D03*
X145662500Y-99750000D03*
X145662500Y-99250000D03*
D21*
X144250000Y-97837500D03*
X143750000Y-97837500D03*
X143250000Y-97837500D03*
X142750000Y-97837500D03*
X142250000Y-97837500D03*
X141750000Y-97837500D03*
X141250000Y-97837500D03*
X140750000Y-97837500D03*
X140250000Y-97837500D03*
X139750000Y-97837500D03*
X139250000Y-97837500D03*
X138750000Y-97837500D03*
D22*
X124635000Y-91000000D03*
X128785000Y-91000000D03*
D12*
X132500000Y-99412500D03*
X132500000Y-97587500D03*
D17*
X148600000Y-100787500D03*
X148600000Y-102512500D03*
M02*
