%TF.GenerationSoftware,KiCad,Pcbnew,(6.0.7)*%
%TF.CreationDate,2022-09-17T20:41:11+02:00*%
%TF.ProjectId,FR2476,46523234-3736-42e6-9b69-6361645f7063,rev?*%
%TF.SameCoordinates,Original*%
%TF.FileFunction,Drillmap*%
%TF.FilePolarity,Positive*%
%FSLAX45Y45*%
G04 Gerber Fmt 4.5, Leading zero omitted, Abs format (unit mm)*
G04 Created by KiCad (PCBNEW (6.0.7)) date 2022-09-17 20:41:11*
%MOMM*%
%LPD*%
G01*
G04 APERTURE LIST*
%ADD10C,0.050000*%
%ADD11C,0.200000*%
%ADD12C,0.020000*%
%ADD13C,0.030000*%
%ADD14C,0.040000*%
%ADD15C,0.060000*%
%ADD16C,0.080000*%
%ADD17C,0.085000*%
%ADD18C,0.100000*%
G04 APERTURE END LIST*
D10*
X17800000Y-8300000D02*
X10800000Y-8300000D01*
X10800000Y-12300000D02*
X17800000Y-12300000D01*
X10800000Y-8300000D02*
X10800000Y-12300000D01*
X17800000Y-12300000D02*
X17800000Y-8300000D01*
D11*
D12*
X13710000Y-10950000D02*
X13730000Y-10970000D01*
X13730000Y-10950000D02*
X13710000Y-10970000D01*
X13842500Y-10062500D02*
X13862500Y-10082500D01*
X13862500Y-10062500D02*
X13842500Y-10082500D01*
X13864000Y-9924000D02*
X13884000Y-9944000D01*
X13884000Y-9924000D02*
X13864000Y-9944000D01*
X13880000Y-10110000D02*
X13900000Y-10130000D01*
X13900000Y-10110000D02*
X13880000Y-10130000D01*
X13901539Y-11090761D02*
X13921539Y-11110761D01*
X13921539Y-11090761D02*
X13901539Y-11110761D01*
X13907500Y-10165000D02*
X13927500Y-10185000D01*
X13927500Y-10165000D02*
X13907500Y-10185000D01*
X13945000Y-10215000D02*
X13965000Y-10235000D01*
X13965000Y-10215000D02*
X13945000Y-10235000D01*
X14005000Y-10215000D02*
X14025000Y-10235000D01*
X14025000Y-10215000D02*
X14005000Y-10235000D01*
X14017700Y-10935000D02*
X14037700Y-10955000D01*
X14037700Y-10935000D02*
X14017700Y-10955000D01*
X14058000Y-9934000D02*
X14078000Y-9954000D01*
X14078000Y-9934000D02*
X14058000Y-9954000D01*
X14065000Y-10215000D02*
X14085000Y-10235000D01*
X14085000Y-10215000D02*
X14065000Y-10235000D01*
X14070400Y-10985000D02*
X14090400Y-11005000D01*
X14090400Y-10985000D02*
X14070400Y-11005000D01*
X14080000Y-10755000D02*
X14100000Y-10775000D01*
X14100000Y-10755000D02*
X14080000Y-10775000D01*
X14123100Y-11030000D02*
X14143100Y-11050000D01*
X14143100Y-11030000D02*
X14123100Y-11050000D01*
X14167500Y-10475000D02*
X14187500Y-10495000D01*
X14187500Y-10475000D02*
X14167500Y-10495000D01*
X14175800Y-11075000D02*
X14195800Y-11095000D01*
X14195800Y-11075000D02*
X14175800Y-11095000D01*
X14219000Y-10443000D02*
X14239000Y-10463000D01*
X14239000Y-10443000D02*
X14219000Y-10463000D01*
X14230000Y-11675000D02*
X14250000Y-11695000D01*
X14250000Y-11675000D02*
X14230000Y-11695000D01*
X14260000Y-9620000D02*
X14280000Y-9640000D01*
X14280000Y-9620000D02*
X14260000Y-9640000D01*
X14285000Y-11730000D02*
X14305000Y-11750000D01*
X14305000Y-11730000D02*
X14285000Y-11750000D01*
X14310400Y-9555400D02*
X14330400Y-9575400D01*
X14330400Y-9555400D02*
X14310400Y-9575400D01*
X14321933Y-10387694D02*
X14341933Y-10407694D01*
X14341933Y-10387694D02*
X14321933Y-10407694D01*
X14322500Y-10887500D02*
X14342500Y-10907500D01*
X14342500Y-10887500D02*
X14322500Y-10907500D01*
X14340000Y-11785000D02*
X14360000Y-11805000D01*
X14360000Y-11785000D02*
X14340000Y-11805000D01*
X14392131Y-10387181D02*
X14412131Y-10407181D01*
X14412131Y-10387181D02*
X14392131Y-10407181D01*
X14395000Y-11015000D02*
X14415000Y-11035000D01*
X14415000Y-11015000D02*
X14395000Y-11035000D01*
X14405000Y-10010000D02*
X14425000Y-10030000D01*
X14425000Y-10010000D02*
X14405000Y-10030000D01*
X14410000Y-10112500D02*
X14430000Y-10132500D01*
X14430000Y-10112500D02*
X14410000Y-10132500D01*
X14411934Y-10329695D02*
X14431934Y-10349695D01*
X14431934Y-10329695D02*
X14411934Y-10349695D01*
X14433028Y-9648854D02*
X14453028Y-9668854D01*
X14453028Y-9648854D02*
X14433028Y-9668854D01*
X14440000Y-9960000D02*
X14460000Y-9980000D01*
X14460000Y-9960000D02*
X14440000Y-9980000D01*
X14440000Y-10060000D02*
X14460000Y-10080000D01*
X14460000Y-10060000D02*
X14440000Y-10080000D01*
X14441541Y-10217051D02*
X14461541Y-10237051D01*
X14461541Y-10217051D02*
X14441541Y-10237051D01*
X14455000Y-11075000D02*
X14475000Y-11095000D01*
X14475000Y-11075000D02*
X14455000Y-11095000D01*
X14514081Y-9769081D02*
X14534081Y-9789081D01*
X14534081Y-9769081D02*
X14514081Y-9789081D01*
X14571114Y-9787715D02*
X14591114Y-9807715D01*
X14591114Y-9787715D02*
X14571114Y-9807715D01*
X14676000Y-10067000D02*
X14696000Y-10087000D01*
X14696000Y-10067000D02*
X14676000Y-10087000D01*
X14703000Y-10013000D02*
X14723000Y-10033000D01*
X14723000Y-10013000D02*
X14703000Y-10033000D01*
X14743000Y-9965000D02*
X14763000Y-9985000D01*
X14763000Y-9965000D02*
X14743000Y-9985000D01*
X14980414Y-9092500D02*
X15000414Y-9112500D01*
X15000414Y-9092500D02*
X14980414Y-9112500D01*
D13*
X12046900Y-9862100D02*
G75*
G03*
X12046900Y-9862100I-15000J0D01*
G01*
X12296393Y-11098507D02*
G75*
G03*
X12296393Y-11098507I-15000J0D01*
G01*
X12389800Y-11170200D02*
G75*
G03*
X12389800Y-11170200I-15000J0D01*
G01*
X12986700Y-10484400D02*
G75*
G03*
X12986700Y-10484400I-15000J0D01*
G01*
X12990000Y-10100000D02*
G75*
G03*
X12990000Y-10100000I-15000J0D01*
G01*
X13037500Y-10344700D02*
G75*
G03*
X13037500Y-10344700I-15000J0D01*
G01*
X13090000Y-10275000D02*
G75*
G03*
X13090000Y-10275000I-15000J0D01*
G01*
X13177200Y-9557300D02*
G75*
G03*
X13177200Y-9557300I-15000J0D01*
G01*
X13291500Y-9646200D02*
G75*
G03*
X13291500Y-9646200I-15000J0D01*
G01*
X13355000Y-9595400D02*
G75*
G03*
X13355000Y-9595400I-15000J0D01*
G01*
X13750000Y-9845000D02*
G75*
G03*
X13750000Y-9845000I-15000J0D01*
G01*
X13800000Y-9115000D02*
G75*
G03*
X13800000Y-9115000I-15000J0D01*
G01*
X14855000Y-10370000D02*
G75*
G03*
X14855000Y-10370000I-15000J0D01*
G01*
D14*
X12095400Y-9410300D02*
X12095400Y-9450300D01*
X12075400Y-9430300D02*
X12115400Y-9430300D01*
X12285900Y-10845400D02*
X12285900Y-10885400D01*
X12265900Y-10865400D02*
X12305900Y-10865400D01*
X12295000Y-8860000D02*
X12295000Y-8900000D01*
X12275000Y-8880000D02*
X12315000Y-8880000D01*
X12314000Y-11477000D02*
X12314000Y-11517000D01*
X12294000Y-11497000D02*
X12334000Y-11497000D01*
X13165000Y-8835000D02*
X13165000Y-8875000D01*
X13145000Y-8855000D02*
X13185000Y-8855000D01*
X13540000Y-9810000D02*
X13540000Y-9850000D01*
X13520000Y-9830000D02*
X13560000Y-9830000D01*
X13680000Y-11510000D02*
X13680000Y-11550000D01*
X13660000Y-11530000D02*
X13700000Y-11530000D01*
D10*
X13377678Y-10717678D02*
X13377678Y-10682322D01*
X13342322Y-10682322D01*
X13342322Y-10717678D01*
X13377678Y-10717678D01*
X15322678Y-10607678D02*
X15322678Y-10572322D01*
X15287322Y-10572322D01*
X15287322Y-10607678D01*
X15322678Y-10607678D01*
D15*
X17554750Y-9965000D02*
X17584750Y-9935000D01*
X17554750Y-9905000D01*
X17524750Y-9935000D01*
X17554750Y-9965000D01*
D11*
X17519750Y-9965000D02*
X17589750Y-9965000D01*
X17519750Y-9905000D02*
X17589750Y-9905000D01*
X17589750Y-9965000D02*
G75*
G03*
X17589750Y-9905000I0J30000D01*
G01*
X17519750Y-9905000D02*
G75*
G03*
X17519750Y-9965000I0J-30000D01*
G01*
D15*
X17554750Y-10685000D02*
X17584750Y-10655000D01*
X17554750Y-10625000D01*
X17524750Y-10655000D01*
X17554750Y-10685000D01*
D11*
X17589750Y-10625000D02*
X17519750Y-10625000D01*
X17589750Y-10685000D02*
X17519750Y-10685000D01*
X17519750Y-10625000D02*
G75*
G03*
X17519750Y-10685000I0J-30000D01*
G01*
X17589750Y-10685000D02*
G75*
G03*
X17589750Y-10625000I0J30000D01*
G01*
D16*
X16495000Y-10065000D02*
X16575000Y-10145000D01*
X16575000Y-10065000D02*
X16495000Y-10145000D01*
X16575000Y-10105000D02*
G75*
G03*
X16575000Y-10105000I-40000J0D01*
G01*
X16495000Y-10265000D02*
X16575000Y-10345000D01*
X16575000Y-10265000D02*
X16495000Y-10345000D01*
X16575000Y-10305000D02*
G75*
G03*
X16575000Y-10305000I-40000J0D01*
G01*
X16495000Y-10465000D02*
X16575000Y-10545000D01*
X16575000Y-10465000D02*
X16495000Y-10545000D01*
X16575000Y-10505000D02*
G75*
G03*
X16575000Y-10505000I-40000J0D01*
G01*
X16945000Y-10065000D02*
X17025000Y-10145000D01*
X17025000Y-10065000D02*
X16945000Y-10145000D01*
X17025000Y-10105000D02*
G75*
G03*
X17025000Y-10105000I-40000J0D01*
G01*
X16945000Y-10265000D02*
X17025000Y-10345000D01*
X17025000Y-10265000D02*
X16945000Y-10345000D01*
X17025000Y-10305000D02*
G75*
G03*
X17025000Y-10305000I-40000J0D01*
G01*
X16945000Y-10465000D02*
X17025000Y-10545000D01*
X17025000Y-10465000D02*
X16945000Y-10545000D01*
X17025000Y-10505000D02*
G75*
G03*
X17025000Y-10505000I-40000J0D01*
G01*
D17*
X17242250Y-10007500D02*
X17327250Y-10092500D01*
X17327250Y-10007500D02*
X17242250Y-10092500D01*
X17284750Y-10007500D02*
X17284750Y-10092500D01*
X17242250Y-10050000D02*
X17327250Y-10050000D01*
X17242250Y-10497500D02*
X17327250Y-10582500D01*
X17327250Y-10497500D02*
X17242250Y-10582500D01*
X17284750Y-10497500D02*
X17284750Y-10582500D01*
X17242250Y-10540000D02*
X17327250Y-10540000D01*
D18*
X11131000Y-12055300D02*
X11231000Y-12155300D01*
X11231000Y-12055300D02*
X11131000Y-12155300D01*
X11216356Y-12140656D02*
X11216356Y-12069944D01*
X11145644Y-12069944D01*
X11145644Y-12140656D01*
X11216356Y-12140656D01*
X11180000Y-8668000D02*
X11280000Y-8768000D01*
X11280000Y-8668000D02*
X11180000Y-8768000D01*
X11265356Y-8753356D02*
X11265356Y-8682644D01*
X11194644Y-8682644D01*
X11194644Y-8753356D01*
X11265356Y-8753356D01*
X11290000Y-9545000D02*
X11390000Y-9645000D01*
X11390000Y-9545000D02*
X11290000Y-9645000D01*
X11375356Y-9630356D02*
X11375356Y-9559644D01*
X11304644Y-9559644D01*
X11304644Y-9630356D01*
X11375356Y-9630356D01*
X11290000Y-9799000D02*
X11390000Y-9899000D01*
X11390000Y-9799000D02*
X11290000Y-9899000D01*
X11375356Y-9884356D02*
X11375356Y-9813644D01*
X11304644Y-9813644D01*
X11304644Y-9884356D01*
X11375356Y-9884356D01*
X11290000Y-10053000D02*
X11390000Y-10153000D01*
X11390000Y-10053000D02*
X11290000Y-10153000D01*
X11375356Y-10138356D02*
X11375356Y-10067644D01*
X11304644Y-10067644D01*
X11304644Y-10138356D01*
X11375356Y-10138356D01*
X11290000Y-10307000D02*
X11390000Y-10407000D01*
X11390000Y-10307000D02*
X11290000Y-10407000D01*
X11375356Y-10392356D02*
X11375356Y-10321644D01*
X11304644Y-10321644D01*
X11304644Y-10392356D01*
X11375356Y-10392356D01*
X11290000Y-10561000D02*
X11390000Y-10661000D01*
X11390000Y-10561000D02*
X11290000Y-10661000D01*
X11375356Y-10646356D02*
X11375356Y-10575644D01*
X11304644Y-10575644D01*
X11304644Y-10646356D01*
X11375356Y-10646356D01*
X11290000Y-10815000D02*
X11390000Y-10915000D01*
X11390000Y-10815000D02*
X11290000Y-10915000D01*
X11375356Y-10900356D02*
X11375356Y-10829644D01*
X11304644Y-10829644D01*
X11304644Y-10900356D01*
X11375356Y-10900356D01*
X11290000Y-11069000D02*
X11390000Y-11169000D01*
X11390000Y-11069000D02*
X11290000Y-11169000D01*
X11375356Y-11154356D02*
X11375356Y-11083644D01*
X11304644Y-11083644D01*
X11304644Y-11154356D01*
X11375356Y-11154356D01*
X11385000Y-12055300D02*
X11485000Y-12155300D01*
X11485000Y-12055300D02*
X11385000Y-12155300D01*
X11470356Y-12140656D02*
X11470356Y-12069944D01*
X11399644Y-12069944D01*
X11399644Y-12140656D01*
X11470356Y-12140656D01*
X11434000Y-8668000D02*
X11534000Y-8768000D01*
X11534000Y-8668000D02*
X11434000Y-8768000D01*
X11519356Y-8753356D02*
X11519356Y-8682644D01*
X11448644Y-8682644D01*
X11448644Y-8753356D01*
X11519356Y-8753356D01*
X11544000Y-9545000D02*
X11644000Y-9645000D01*
X11644000Y-9545000D02*
X11544000Y-9645000D01*
X11629356Y-9630356D02*
X11629356Y-9559644D01*
X11558644Y-9559644D01*
X11558644Y-9630356D01*
X11629356Y-9630356D01*
X11544000Y-9799000D02*
X11644000Y-9899000D01*
X11644000Y-9799000D02*
X11544000Y-9899000D01*
X11629356Y-9884356D02*
X11629356Y-9813644D01*
X11558644Y-9813644D01*
X11558644Y-9884356D01*
X11629356Y-9884356D01*
X11544000Y-10053000D02*
X11644000Y-10153000D01*
X11644000Y-10053000D02*
X11544000Y-10153000D01*
X11629356Y-10138356D02*
X11629356Y-10067644D01*
X11558644Y-10067644D01*
X11558644Y-10138356D01*
X11629356Y-10138356D01*
X11544000Y-10307000D02*
X11644000Y-10407000D01*
X11644000Y-10307000D02*
X11544000Y-10407000D01*
X11629356Y-10392356D02*
X11629356Y-10321644D01*
X11558644Y-10321644D01*
X11558644Y-10392356D01*
X11629356Y-10392356D01*
X11544000Y-10561000D02*
X11644000Y-10661000D01*
X11644000Y-10561000D02*
X11544000Y-10661000D01*
X11629356Y-10646356D02*
X11629356Y-10575644D01*
X11558644Y-10575644D01*
X11558644Y-10646356D01*
X11629356Y-10646356D01*
X11544000Y-10815000D02*
X11644000Y-10915000D01*
X11644000Y-10815000D02*
X11544000Y-10915000D01*
X11629356Y-10900356D02*
X11629356Y-10829644D01*
X11558644Y-10829644D01*
X11558644Y-10900356D01*
X11629356Y-10900356D01*
X11544000Y-11069000D02*
X11644000Y-11169000D01*
X11644000Y-11069000D02*
X11544000Y-11169000D01*
X11629356Y-11154356D02*
X11629356Y-11083644D01*
X11558644Y-11083644D01*
X11558644Y-11154356D01*
X11629356Y-11154356D01*
X11639000Y-12055300D02*
X11739000Y-12155300D01*
X11739000Y-12055300D02*
X11639000Y-12155300D01*
X11724356Y-12140656D02*
X11724356Y-12069944D01*
X11653644Y-12069944D01*
X11653644Y-12140656D01*
X11724356Y-12140656D01*
X11688000Y-8668000D02*
X11788000Y-8768000D01*
X11788000Y-8668000D02*
X11688000Y-8768000D01*
X11773356Y-8753356D02*
X11773356Y-8682644D01*
X11702644Y-8682644D01*
X11702644Y-8753356D01*
X11773356Y-8753356D01*
X11893000Y-12055300D02*
X11993000Y-12155300D01*
X11993000Y-12055300D02*
X11893000Y-12155300D01*
X11978356Y-12140656D02*
X11978356Y-12069944D01*
X11907644Y-12069944D01*
X11907644Y-12140656D01*
X11978356Y-12140656D01*
X12147000Y-12055300D02*
X12247000Y-12155300D01*
X12247000Y-12055300D02*
X12147000Y-12155300D01*
X12232356Y-12140656D02*
X12232356Y-12069944D01*
X12161644Y-12069944D01*
X12161644Y-12140656D01*
X12232356Y-12140656D01*
X12401000Y-8448500D02*
X12501000Y-8548500D01*
X12501000Y-8448500D02*
X12401000Y-8548500D01*
X12486356Y-8533856D02*
X12486356Y-8463144D01*
X12415644Y-8463144D01*
X12415644Y-8533856D01*
X12486356Y-8533856D01*
X12401000Y-12055300D02*
X12501000Y-12155300D01*
X12501000Y-12055300D02*
X12401000Y-12155300D01*
X12486356Y-12140656D02*
X12486356Y-12069944D01*
X12415644Y-12069944D01*
X12415644Y-12140656D01*
X12486356Y-12140656D01*
X12490000Y-9550000D02*
X12590000Y-9650000D01*
X12590000Y-9550000D02*
X12490000Y-9650000D01*
X12575356Y-9635356D02*
X12575356Y-9564644D01*
X12504644Y-9564644D01*
X12504644Y-9635356D01*
X12575356Y-9635356D01*
X12490000Y-9804000D02*
X12590000Y-9904000D01*
X12590000Y-9804000D02*
X12490000Y-9904000D01*
X12575356Y-9889356D02*
X12575356Y-9818644D01*
X12504644Y-9818644D01*
X12504644Y-9889356D01*
X12575356Y-9889356D01*
X12490000Y-10058000D02*
X12590000Y-10158000D01*
X12590000Y-10058000D02*
X12490000Y-10158000D01*
X12575356Y-10143356D02*
X12575356Y-10072644D01*
X12504644Y-10072644D01*
X12504644Y-10143356D01*
X12575356Y-10143356D01*
X12490000Y-10312000D02*
X12590000Y-10412000D01*
X12590000Y-10312000D02*
X12490000Y-10412000D01*
X12575356Y-10397356D02*
X12575356Y-10326644D01*
X12504644Y-10326644D01*
X12504644Y-10397356D01*
X12575356Y-10397356D01*
X12490000Y-10566000D02*
X12590000Y-10666000D01*
X12590000Y-10566000D02*
X12490000Y-10666000D01*
X12575356Y-10651356D02*
X12575356Y-10580644D01*
X12504644Y-10580644D01*
X12504644Y-10651356D01*
X12575356Y-10651356D01*
X12490000Y-10820000D02*
X12590000Y-10920000D01*
X12590000Y-10820000D02*
X12490000Y-10920000D01*
X12575356Y-10905356D02*
X12575356Y-10834644D01*
X12504644Y-10834644D01*
X12504644Y-10905356D01*
X12575356Y-10905356D01*
X12655000Y-8448500D02*
X12755000Y-8548500D01*
X12755000Y-8448500D02*
X12655000Y-8548500D01*
X12740356Y-8533856D02*
X12740356Y-8463144D01*
X12669644Y-8463144D01*
X12669644Y-8533856D01*
X12740356Y-8533856D01*
X12655000Y-12055300D02*
X12755000Y-12155300D01*
X12755000Y-12055300D02*
X12655000Y-12155300D01*
X12740356Y-12140656D02*
X12740356Y-12069944D01*
X12669644Y-12069944D01*
X12669644Y-12140656D01*
X12740356Y-12140656D01*
X12744000Y-9550000D02*
X12844000Y-9650000D01*
X12844000Y-9550000D02*
X12744000Y-9650000D01*
X12829356Y-9635356D02*
X12829356Y-9564644D01*
X12758644Y-9564644D01*
X12758644Y-9635356D01*
X12829356Y-9635356D01*
X12744000Y-9804000D02*
X12844000Y-9904000D01*
X12844000Y-9804000D02*
X12744000Y-9904000D01*
X12829356Y-9889356D02*
X12829356Y-9818644D01*
X12758644Y-9818644D01*
X12758644Y-9889356D01*
X12829356Y-9889356D01*
X12744000Y-10058000D02*
X12844000Y-10158000D01*
X12844000Y-10058000D02*
X12744000Y-10158000D01*
X12829356Y-10143356D02*
X12829356Y-10072644D01*
X12758644Y-10072644D01*
X12758644Y-10143356D01*
X12829356Y-10143356D01*
X12744000Y-10312000D02*
X12844000Y-10412000D01*
X12844000Y-10312000D02*
X12744000Y-10412000D01*
X12829356Y-10397356D02*
X12829356Y-10326644D01*
X12758644Y-10326644D01*
X12758644Y-10397356D01*
X12829356Y-10397356D01*
X12744000Y-10566000D02*
X12844000Y-10666000D01*
X12844000Y-10566000D02*
X12744000Y-10666000D01*
X12829356Y-10651356D02*
X12829356Y-10580644D01*
X12758644Y-10580644D01*
X12758644Y-10651356D01*
X12829356Y-10651356D01*
X12744000Y-10820000D02*
X12844000Y-10920000D01*
X12844000Y-10820000D02*
X12744000Y-10920000D01*
X12829356Y-10905356D02*
X12829356Y-10834644D01*
X12758644Y-10834644D01*
X12758644Y-10905356D01*
X12829356Y-10905356D01*
X12909000Y-8448500D02*
X13009000Y-8548500D01*
X13009000Y-8448500D02*
X12909000Y-8548500D01*
X12994356Y-8533856D02*
X12994356Y-8463144D01*
X12923644Y-8463144D01*
X12923644Y-8533856D01*
X12994356Y-8533856D01*
X12909000Y-12055300D02*
X13009000Y-12155300D01*
X13009000Y-12055300D02*
X12909000Y-12155300D01*
X12994356Y-12140656D02*
X12994356Y-12069944D01*
X12923644Y-12069944D01*
X12923644Y-12140656D01*
X12994356Y-12140656D01*
X13417000Y-8448500D02*
X13517000Y-8548500D01*
X13517000Y-8448500D02*
X13417000Y-8548500D01*
X13502356Y-8533856D02*
X13502356Y-8463144D01*
X13431644Y-8463144D01*
X13431644Y-8533856D01*
X13502356Y-8533856D01*
X13417000Y-12055300D02*
X13517000Y-12155300D01*
X13517000Y-12055300D02*
X13417000Y-12155300D01*
X13502356Y-12140656D02*
X13502356Y-12069944D01*
X13431644Y-12069944D01*
X13431644Y-12140656D01*
X13502356Y-12140656D01*
X13671000Y-8448500D02*
X13771000Y-8548500D01*
X13771000Y-8448500D02*
X13671000Y-8548500D01*
X13756356Y-8533856D02*
X13756356Y-8463144D01*
X13685644Y-8463144D01*
X13685644Y-8533856D01*
X13756356Y-8533856D01*
X13671000Y-12055300D02*
X13771000Y-12155300D01*
X13771000Y-12055300D02*
X13671000Y-12155300D01*
X13756356Y-12140656D02*
X13756356Y-12069944D01*
X13685644Y-12069944D01*
X13685644Y-12140656D01*
X13756356Y-12140656D01*
X13925000Y-8448500D02*
X14025000Y-8548500D01*
X14025000Y-8448500D02*
X13925000Y-8548500D01*
X14010356Y-8533856D02*
X14010356Y-8463144D01*
X13939644Y-8463144D01*
X13939644Y-8533856D01*
X14010356Y-8533856D01*
X13925000Y-12055300D02*
X14025000Y-12155300D01*
X14025000Y-12055300D02*
X13925000Y-12155300D01*
X14010356Y-12140656D02*
X14010356Y-12069944D01*
X13939644Y-12069944D01*
X13939644Y-12140656D01*
X14010356Y-12140656D01*
X14179000Y-8448500D02*
X14279000Y-8548500D01*
X14279000Y-8448500D02*
X14179000Y-8548500D01*
X14264356Y-8533856D02*
X14264356Y-8463144D01*
X14193644Y-8463144D01*
X14193644Y-8533856D01*
X14264356Y-8533856D01*
X14179000Y-12055300D02*
X14279000Y-12155300D01*
X14279000Y-12055300D02*
X14179000Y-12155300D01*
X14264356Y-12140656D02*
X14264356Y-12069944D01*
X14193644Y-12069944D01*
X14193644Y-12140656D01*
X14264356Y-12140656D01*
X14433000Y-8448500D02*
X14533000Y-8548500D01*
X14533000Y-8448500D02*
X14433000Y-8548500D01*
X14518356Y-8533856D02*
X14518356Y-8463144D01*
X14447644Y-8463144D01*
X14447644Y-8533856D01*
X14518356Y-8533856D01*
X14433000Y-12055300D02*
X14533000Y-12155300D01*
X14533000Y-12055300D02*
X14433000Y-12155300D01*
X14518356Y-12140656D02*
X14518356Y-12069944D01*
X14447644Y-12069944D01*
X14447644Y-12140656D01*
X14518356Y-12140656D01*
X14687000Y-8448500D02*
X14787000Y-8548500D01*
X14787000Y-8448500D02*
X14687000Y-8548500D01*
X14772356Y-8533856D02*
X14772356Y-8463144D01*
X14701644Y-8463144D01*
X14701644Y-8533856D01*
X14772356Y-8533856D01*
X14687000Y-12055300D02*
X14787000Y-12155300D01*
X14787000Y-12055300D02*
X14687000Y-12155300D01*
X14772356Y-12140656D02*
X14772356Y-12069944D01*
X14701644Y-12069944D01*
X14701644Y-12140656D01*
X14772356Y-12140656D01*
X14941000Y-8448500D02*
X15041000Y-8548500D01*
X15041000Y-8448500D02*
X14941000Y-8548500D01*
X15026356Y-8533856D02*
X15026356Y-8463144D01*
X14955644Y-8463144D01*
X14955644Y-8533856D01*
X15026356Y-8533856D01*
X14941000Y-12055300D02*
X15041000Y-12155300D01*
X15041000Y-12055300D02*
X14941000Y-12155300D01*
X15026356Y-12140656D02*
X15026356Y-12069944D01*
X14955644Y-12069944D01*
X14955644Y-12140656D01*
X15026356Y-12140656D01*
X15195000Y-8448500D02*
X15295000Y-8548500D01*
X15295000Y-8448500D02*
X15195000Y-8548500D01*
X15280356Y-8533856D02*
X15280356Y-8463144D01*
X15209644Y-8463144D01*
X15209644Y-8533856D01*
X15280356Y-8533856D01*
X15195000Y-12055300D02*
X15295000Y-12155300D01*
X15295000Y-12055300D02*
X15195000Y-12155300D01*
X15280356Y-12140656D02*
X15280356Y-12069944D01*
X15209644Y-12069944D01*
X15209644Y-12140656D01*
X15280356Y-12140656D01*
X15450000Y-9290000D02*
X15550000Y-9390000D01*
X15550000Y-9290000D02*
X15450000Y-9390000D01*
X15535356Y-9375356D02*
X15535356Y-9304644D01*
X15464644Y-9304644D01*
X15464644Y-9375356D01*
X15535356Y-9375356D01*
X15450000Y-9650000D02*
X15550000Y-9750000D01*
X15550000Y-9650000D02*
X15450000Y-9750000D01*
X15535356Y-9735356D02*
X15535356Y-9664644D01*
X15464644Y-9664644D01*
X15464644Y-9735356D01*
X15535356Y-9735356D01*
X15450000Y-10850000D02*
X15550000Y-10950000D01*
X15550000Y-10850000D02*
X15450000Y-10950000D01*
X15535356Y-10935356D02*
X15535356Y-10864644D01*
X15464644Y-10864644D01*
X15464644Y-10935356D01*
X15535356Y-10935356D01*
X15450000Y-11210000D02*
X15550000Y-11310000D01*
X15550000Y-11210000D02*
X15450000Y-11310000D01*
X15535356Y-11295356D02*
X15535356Y-11224644D01*
X15464644Y-11224644D01*
X15464644Y-11295356D01*
X15535356Y-11295356D01*
X15703000Y-8448500D02*
X15803000Y-8548500D01*
X15803000Y-8448500D02*
X15703000Y-8548500D01*
X15788356Y-8533856D02*
X15788356Y-8463144D01*
X15717644Y-8463144D01*
X15717644Y-8533856D01*
X15788356Y-8533856D01*
X15703000Y-12055300D02*
X15803000Y-12155300D01*
X15803000Y-12055300D02*
X15703000Y-12155300D01*
X15788356Y-12140656D02*
X15788356Y-12069944D01*
X15717644Y-12069944D01*
X15717644Y-12140656D01*
X15788356Y-12140656D01*
X15704000Y-9290000D02*
X15804000Y-9390000D01*
X15804000Y-9290000D02*
X15704000Y-9390000D01*
X15789356Y-9375356D02*
X15789356Y-9304644D01*
X15718644Y-9304644D01*
X15718644Y-9375356D01*
X15789356Y-9375356D01*
X15704000Y-9650000D02*
X15804000Y-9750000D01*
X15804000Y-9650000D02*
X15704000Y-9750000D01*
X15789356Y-9735356D02*
X15789356Y-9664644D01*
X15718644Y-9664644D01*
X15718644Y-9735356D01*
X15789356Y-9735356D01*
X15704000Y-10850000D02*
X15804000Y-10950000D01*
X15804000Y-10850000D02*
X15704000Y-10950000D01*
X15789356Y-10935356D02*
X15789356Y-10864644D01*
X15718644Y-10864644D01*
X15718644Y-10935356D01*
X15789356Y-10935356D01*
X15704000Y-11210000D02*
X15804000Y-11310000D01*
X15804000Y-11210000D02*
X15704000Y-11310000D01*
X15789356Y-11295356D02*
X15789356Y-11224644D01*
X15718644Y-11224644D01*
X15718644Y-11295356D01*
X15789356Y-11295356D01*
X15957000Y-8448500D02*
X16057000Y-8548500D01*
X16057000Y-8448500D02*
X15957000Y-8548500D01*
X16042356Y-8533856D02*
X16042356Y-8463144D01*
X15971644Y-8463144D01*
X15971644Y-8533856D01*
X16042356Y-8533856D01*
X15957000Y-12055300D02*
X16057000Y-12155300D01*
X16057000Y-12055300D02*
X15957000Y-12155300D01*
X16042356Y-12140656D02*
X16042356Y-12069944D01*
X15971644Y-12069944D01*
X15971644Y-12140656D01*
X16042356Y-12140656D01*
X15958000Y-9290000D02*
X16058000Y-9390000D01*
X16058000Y-9290000D02*
X15958000Y-9390000D01*
X16043356Y-9375356D02*
X16043356Y-9304644D01*
X15972644Y-9304644D01*
X15972644Y-9375356D01*
X16043356Y-9375356D01*
X15958000Y-9650000D02*
X16058000Y-9750000D01*
X16058000Y-9650000D02*
X15958000Y-9750000D01*
X16043356Y-9735356D02*
X16043356Y-9664644D01*
X15972644Y-9664644D01*
X15972644Y-9735356D01*
X16043356Y-9735356D01*
X15958000Y-10850000D02*
X16058000Y-10950000D01*
X16058000Y-10850000D02*
X15958000Y-10950000D01*
X16043356Y-10935356D02*
X16043356Y-10864644D01*
X15972644Y-10864644D01*
X15972644Y-10935356D01*
X16043356Y-10935356D01*
X15958000Y-11210000D02*
X16058000Y-11310000D01*
X16058000Y-11210000D02*
X15958000Y-11310000D01*
X16043356Y-11295356D02*
X16043356Y-11224644D01*
X15972644Y-11224644D01*
X15972644Y-11295356D01*
X16043356Y-11295356D01*
X16211000Y-8448500D02*
X16311000Y-8548500D01*
X16311000Y-8448500D02*
X16211000Y-8548500D01*
X16296356Y-8533856D02*
X16296356Y-8463144D01*
X16225644Y-8463144D01*
X16225644Y-8533856D01*
X16296356Y-8533856D01*
X16211000Y-12055300D02*
X16311000Y-12155300D01*
X16311000Y-12055300D02*
X16211000Y-12155300D01*
X16296356Y-12140656D02*
X16296356Y-12069944D01*
X16225644Y-12069944D01*
X16225644Y-12140656D01*
X16296356Y-12140656D01*
X16256000Y-8930000D02*
X16356000Y-9030000D01*
X16356000Y-8930000D02*
X16256000Y-9030000D01*
X16341356Y-9015356D02*
X16341356Y-8944644D01*
X16270644Y-8944644D01*
X16270644Y-9015356D01*
X16341356Y-9015356D01*
X16465000Y-8448500D02*
X16565000Y-8548500D01*
X16565000Y-8448500D02*
X16465000Y-8548500D01*
X16550356Y-8533856D02*
X16550356Y-8463144D01*
X16479644Y-8463144D01*
X16479644Y-8533856D01*
X16550356Y-8533856D01*
X16465000Y-12055300D02*
X16565000Y-12155300D01*
X16565000Y-12055300D02*
X16465000Y-12155300D01*
X16550356Y-12140656D02*
X16550356Y-12069944D01*
X16479644Y-12069944D01*
X16479644Y-12140656D01*
X16550356Y-12140656D01*
X16510000Y-8930000D02*
X16610000Y-9030000D01*
X16610000Y-8930000D02*
X16510000Y-9030000D01*
X16595356Y-9015356D02*
X16595356Y-8944644D01*
X16524644Y-8944644D01*
X16524644Y-9015356D01*
X16595356Y-9015356D01*
X16719000Y-8448500D02*
X16819000Y-8548500D01*
X16819000Y-8448500D02*
X16719000Y-8548500D01*
X16804356Y-8533856D02*
X16804356Y-8463144D01*
X16733644Y-8463144D01*
X16733644Y-8533856D01*
X16804356Y-8533856D01*
X16719000Y-12055300D02*
X16819000Y-12155300D01*
X16819000Y-12055300D02*
X16719000Y-12155300D01*
X16804356Y-12140656D02*
X16804356Y-12069944D01*
X16733644Y-12069944D01*
X16733644Y-12140656D01*
X16804356Y-12140656D01*
X16973000Y-8448500D02*
X17073000Y-8548500D01*
X17073000Y-8448500D02*
X16973000Y-8548500D01*
X17058356Y-8533856D02*
X17058356Y-8463144D01*
X16987644Y-8463144D01*
X16987644Y-8533856D01*
X17058356Y-8533856D01*
X16973000Y-12055300D02*
X17073000Y-12155300D01*
X17073000Y-12055300D02*
X16973000Y-12155300D01*
X17058356Y-12140656D02*
X17058356Y-12069944D01*
X16987644Y-12069944D01*
X16987644Y-12140656D01*
X17058356Y-12140656D01*
X17227000Y-8448500D02*
X17327000Y-8548500D01*
X17327000Y-8448500D02*
X17227000Y-8548500D01*
X17312356Y-8533856D02*
X17312356Y-8463144D01*
X17241644Y-8463144D01*
X17241644Y-8533856D01*
X17312356Y-8533856D01*
X17227000Y-12055300D02*
X17327000Y-12155300D01*
X17327000Y-12055300D02*
X17227000Y-12155300D01*
X17312356Y-12140656D02*
X17312356Y-12069944D01*
X17241644Y-12069944D01*
X17241644Y-12140656D01*
X17312356Y-12140656D01*
X17481000Y-8448500D02*
X17581000Y-8548500D01*
X17581000Y-8448500D02*
X17481000Y-8548500D01*
X17566356Y-8533856D02*
X17566356Y-8463144D01*
X17495644Y-8463144D01*
X17495644Y-8533856D01*
X17566356Y-8533856D01*
X17481000Y-12055300D02*
X17581000Y-12155300D01*
X17581000Y-12055300D02*
X17481000Y-12155300D01*
X17566356Y-12140656D02*
X17566356Y-12069944D01*
X17495644Y-12069944D01*
X17495644Y-12140656D01*
X17566356Y-12140656D01*
D11*
X11055119Y-12612976D02*
X11055119Y-12412976D01*
X11102738Y-12412976D01*
X11131310Y-12422500D01*
X11150357Y-12441548D01*
X11159881Y-12460595D01*
X11169405Y-12498690D01*
X11169405Y-12527262D01*
X11159881Y-12565357D01*
X11150357Y-12584405D01*
X11131310Y-12603452D01*
X11102738Y-12612976D01*
X11055119Y-12612976D01*
X11255119Y-12612976D02*
X11255119Y-12479643D01*
X11255119Y-12517738D02*
X11264643Y-12498690D01*
X11274167Y-12489167D01*
X11293214Y-12479643D01*
X11312262Y-12479643D01*
X11378928Y-12612976D02*
X11378928Y-12479643D01*
X11378928Y-12412976D02*
X11369405Y-12422500D01*
X11378928Y-12432024D01*
X11388452Y-12422500D01*
X11378928Y-12412976D01*
X11378928Y-12432024D01*
X11502738Y-12612976D02*
X11483690Y-12603452D01*
X11474167Y-12584405D01*
X11474167Y-12412976D01*
X11607500Y-12612976D02*
X11588452Y-12603452D01*
X11578928Y-12584405D01*
X11578928Y-12412976D01*
X11836071Y-12612976D02*
X11836071Y-12412976D01*
X11902738Y-12555833D01*
X11969405Y-12412976D01*
X11969405Y-12612976D01*
X12150357Y-12612976D02*
X12150357Y-12508214D01*
X12140833Y-12489167D01*
X12121786Y-12479643D01*
X12083690Y-12479643D01*
X12064643Y-12489167D01*
X12150357Y-12603452D02*
X12131309Y-12612976D01*
X12083690Y-12612976D01*
X12064643Y-12603452D01*
X12055119Y-12584405D01*
X12055119Y-12565357D01*
X12064643Y-12546309D01*
X12083690Y-12536786D01*
X12131309Y-12536786D01*
X12150357Y-12527262D01*
X12245595Y-12479643D02*
X12245595Y-12679643D01*
X12245595Y-12489167D02*
X12264643Y-12479643D01*
X12302738Y-12479643D01*
X12321786Y-12489167D01*
X12331309Y-12498690D01*
X12340833Y-12517738D01*
X12340833Y-12574881D01*
X12331309Y-12593928D01*
X12321786Y-12603452D01*
X12302738Y-12612976D01*
X12264643Y-12612976D01*
X12245595Y-12603452D01*
X12426548Y-12593928D02*
X12436071Y-12603452D01*
X12426548Y-12612976D01*
X12417024Y-12603452D01*
X12426548Y-12593928D01*
X12426548Y-12612976D01*
X12426548Y-12489167D02*
X12436071Y-12498690D01*
X12426548Y-12508214D01*
X12417024Y-12498690D01*
X12426548Y-12489167D01*
X12426548Y-12508214D01*
D12*
X10777500Y-12932500D02*
X10797500Y-12952500D01*
X10797500Y-12932500D02*
X10777500Y-12952500D01*
D11*
X11093214Y-12832976D02*
X11112262Y-12832976D01*
X11131310Y-12842500D01*
X11140833Y-12852024D01*
X11150357Y-12871071D01*
X11159881Y-12909167D01*
X11159881Y-12956786D01*
X11150357Y-12994881D01*
X11140833Y-13013928D01*
X11131310Y-13023452D01*
X11112262Y-13032976D01*
X11093214Y-13032976D01*
X11074167Y-13023452D01*
X11064643Y-13013928D01*
X11055119Y-12994881D01*
X11045595Y-12956786D01*
X11045595Y-12909167D01*
X11055119Y-12871071D01*
X11064643Y-12852024D01*
X11074167Y-12842500D01*
X11093214Y-12832976D01*
X11245595Y-13013928D02*
X11255119Y-13023452D01*
X11245595Y-13032976D01*
X11236071Y-13023452D01*
X11245595Y-13013928D01*
X11245595Y-13032976D01*
X11331309Y-12852024D02*
X11340833Y-12842500D01*
X11359881Y-12832976D01*
X11407500Y-12832976D01*
X11426548Y-12842500D01*
X11436071Y-12852024D01*
X11445595Y-12871071D01*
X11445595Y-12890119D01*
X11436071Y-12918690D01*
X11321786Y-13032976D01*
X11445595Y-13032976D01*
X11569405Y-12832976D02*
X11588452Y-12832976D01*
X11607500Y-12842500D01*
X11617024Y-12852024D01*
X11626548Y-12871071D01*
X11636071Y-12909167D01*
X11636071Y-12956786D01*
X11626548Y-12994881D01*
X11617024Y-13013928D01*
X11607500Y-13023452D01*
X11588452Y-13032976D01*
X11569405Y-13032976D01*
X11550357Y-13023452D01*
X11540833Y-13013928D01*
X11531309Y-12994881D01*
X11521786Y-12956786D01*
X11521786Y-12909167D01*
X11531309Y-12871071D01*
X11540833Y-12852024D01*
X11550357Y-12842500D01*
X11569405Y-12832976D01*
X11759881Y-12832976D02*
X11778928Y-12832976D01*
X11797976Y-12842500D01*
X11807500Y-12852024D01*
X11817024Y-12871071D01*
X11826548Y-12909167D01*
X11826548Y-12956786D01*
X11817024Y-12994881D01*
X11807500Y-13013928D01*
X11797976Y-13023452D01*
X11778928Y-13032976D01*
X11759881Y-13032976D01*
X11740833Y-13023452D01*
X11731309Y-13013928D01*
X11721786Y-12994881D01*
X11712262Y-12956786D01*
X11712262Y-12909167D01*
X11721786Y-12871071D01*
X11731309Y-12852024D01*
X11740833Y-12842500D01*
X11759881Y-12832976D01*
X11912262Y-13032976D02*
X11912262Y-12899643D01*
X11912262Y-12918690D02*
X11921786Y-12909167D01*
X11940833Y-12899643D01*
X11969405Y-12899643D01*
X11988452Y-12909167D01*
X11997976Y-12928214D01*
X11997976Y-13032976D01*
X11997976Y-12928214D02*
X12007500Y-12909167D01*
X12026548Y-12899643D01*
X12055119Y-12899643D01*
X12074167Y-12909167D01*
X12083690Y-12928214D01*
X12083690Y-13032976D01*
X12178928Y-13032976D02*
X12178928Y-12899643D01*
X12178928Y-12918690D02*
X12188452Y-12909167D01*
X12207500Y-12899643D01*
X12236071Y-12899643D01*
X12255119Y-12909167D01*
X12264643Y-12928214D01*
X12264643Y-13032976D01*
X12264643Y-12928214D02*
X12274167Y-12909167D01*
X12293214Y-12899643D01*
X12321786Y-12899643D01*
X12340833Y-12909167D01*
X12350357Y-12928214D01*
X12350357Y-13032976D01*
X12740833Y-12823452D02*
X12569405Y-13080595D01*
X12997976Y-12832976D02*
X13017024Y-12832976D01*
X13036071Y-12842500D01*
X13045595Y-12852024D01*
X13055119Y-12871071D01*
X13064643Y-12909167D01*
X13064643Y-12956786D01*
X13055119Y-12994881D01*
X13045595Y-13013928D01*
X13036071Y-13023452D01*
X13017024Y-13032976D01*
X12997976Y-13032976D01*
X12978928Y-13023452D01*
X12969405Y-13013928D01*
X12959881Y-12994881D01*
X12950357Y-12956786D01*
X12950357Y-12909167D01*
X12959881Y-12871071D01*
X12969405Y-12852024D01*
X12978928Y-12842500D01*
X12997976Y-12832976D01*
X13150357Y-13013928D02*
X13159881Y-13023452D01*
X13150357Y-13032976D01*
X13140833Y-13023452D01*
X13150357Y-13013928D01*
X13150357Y-13032976D01*
X13283690Y-12832976D02*
X13302738Y-12832976D01*
X13321786Y-12842500D01*
X13331309Y-12852024D01*
X13340833Y-12871071D01*
X13350357Y-12909167D01*
X13350357Y-12956786D01*
X13340833Y-12994881D01*
X13331309Y-13013928D01*
X13321786Y-13023452D01*
X13302738Y-13032976D01*
X13283690Y-13032976D01*
X13264643Y-13023452D01*
X13255119Y-13013928D01*
X13245595Y-12994881D01*
X13236071Y-12956786D01*
X13236071Y-12909167D01*
X13245595Y-12871071D01*
X13255119Y-12852024D01*
X13264643Y-12842500D01*
X13283690Y-12832976D01*
X13474167Y-12832976D02*
X13493214Y-12832976D01*
X13512262Y-12842500D01*
X13521786Y-12852024D01*
X13531309Y-12871071D01*
X13540833Y-12909167D01*
X13540833Y-12956786D01*
X13531309Y-12994881D01*
X13521786Y-13013928D01*
X13512262Y-13023452D01*
X13493214Y-13032976D01*
X13474167Y-13032976D01*
X13455119Y-13023452D01*
X13445595Y-13013928D01*
X13436071Y-12994881D01*
X13426548Y-12956786D01*
X13426548Y-12909167D01*
X13436071Y-12871071D01*
X13445595Y-12852024D01*
X13455119Y-12842500D01*
X13474167Y-12832976D01*
X13607500Y-12832976D02*
X13740833Y-12832976D01*
X13655119Y-13032976D01*
X13826548Y-13032976D02*
X13864643Y-13032976D01*
X13883690Y-13023452D01*
X13893214Y-13013928D01*
X13912262Y-12985357D01*
X13921786Y-12947262D01*
X13921786Y-12871071D01*
X13912262Y-12852024D01*
X13902738Y-12842500D01*
X13883690Y-12832976D01*
X13845595Y-12832976D01*
X13826548Y-12842500D01*
X13817024Y-12852024D01*
X13807500Y-12871071D01*
X13807500Y-12918690D01*
X13817024Y-12937738D01*
X13826548Y-12947262D01*
X13845595Y-12956786D01*
X13883690Y-12956786D01*
X13902738Y-12947262D01*
X13912262Y-12937738D01*
X13921786Y-12918690D01*
X13997976Y-12832976D02*
X13997976Y-12871071D01*
X14074167Y-12832976D02*
X14074167Y-12871071D01*
X14369405Y-13109167D02*
X14359881Y-13099643D01*
X14340833Y-13071071D01*
X14331309Y-13052024D01*
X14321786Y-13023452D01*
X14312262Y-12975833D01*
X14312262Y-12937738D01*
X14321786Y-12890119D01*
X14331309Y-12861548D01*
X14340833Y-12842500D01*
X14359881Y-12813928D01*
X14369405Y-12804405D01*
X14531309Y-12899643D02*
X14531309Y-13032976D01*
X14483690Y-12823452D02*
X14436071Y-12966309D01*
X14559881Y-12966309D01*
X14674167Y-12832976D02*
X14693214Y-12832976D01*
X14712262Y-12842500D01*
X14721786Y-12852024D01*
X14731309Y-12871071D01*
X14740833Y-12909167D01*
X14740833Y-12956786D01*
X14731309Y-12994881D01*
X14721786Y-13013928D01*
X14712262Y-13023452D01*
X14693214Y-13032976D01*
X14674167Y-13032976D01*
X14655119Y-13023452D01*
X14645595Y-13013928D01*
X14636071Y-12994881D01*
X14626548Y-12956786D01*
X14626548Y-12909167D01*
X14636071Y-12871071D01*
X14645595Y-12852024D01*
X14655119Y-12842500D01*
X14674167Y-12832976D01*
X14978928Y-13032976D02*
X14978928Y-12832976D01*
X15064643Y-13032976D02*
X15064643Y-12928214D01*
X15055119Y-12909167D01*
X15036071Y-12899643D01*
X15007500Y-12899643D01*
X14988452Y-12909167D01*
X14978928Y-12918690D01*
X15188452Y-13032976D02*
X15169405Y-13023452D01*
X15159881Y-13013928D01*
X15150357Y-12994881D01*
X15150357Y-12937738D01*
X15159881Y-12918690D01*
X15169405Y-12909167D01*
X15188452Y-12899643D01*
X15217024Y-12899643D01*
X15236071Y-12909167D01*
X15245595Y-12918690D01*
X15255119Y-12937738D01*
X15255119Y-12994881D01*
X15245595Y-13013928D01*
X15236071Y-13023452D01*
X15217024Y-13032976D01*
X15188452Y-13032976D01*
X15369405Y-13032976D02*
X15350357Y-13023452D01*
X15340833Y-13004405D01*
X15340833Y-12832976D01*
X15521786Y-13023452D02*
X15502738Y-13032976D01*
X15464643Y-13032976D01*
X15445595Y-13023452D01*
X15436071Y-13004405D01*
X15436071Y-12928214D01*
X15445595Y-12909167D01*
X15464643Y-12899643D01*
X15502738Y-12899643D01*
X15521786Y-12909167D01*
X15531309Y-12928214D01*
X15531309Y-12947262D01*
X15436071Y-12966309D01*
X15607500Y-13023452D02*
X15626548Y-13032976D01*
X15664643Y-13032976D01*
X15683690Y-13023452D01*
X15693214Y-13004405D01*
X15693214Y-12994881D01*
X15683690Y-12975833D01*
X15664643Y-12966309D01*
X15636071Y-12966309D01*
X15617024Y-12956786D01*
X15607500Y-12937738D01*
X15607500Y-12928214D01*
X15617024Y-12909167D01*
X15636071Y-12899643D01*
X15664643Y-12899643D01*
X15683690Y-12909167D01*
X15759881Y-13109167D02*
X15769405Y-13099643D01*
X15788452Y-13071071D01*
X15797976Y-13052024D01*
X15807500Y-13023452D01*
X15817024Y-12975833D01*
X15817024Y-12937738D01*
X15807500Y-12890119D01*
X15797976Y-12861548D01*
X15788452Y-12842500D01*
X15769405Y-12813928D01*
X15759881Y-12804405D01*
D13*
X10797500Y-13206500D02*
G75*
G03*
X10797500Y-13206500I-15000J0D01*
G01*
D11*
X11093214Y-13096976D02*
X11112262Y-13096976D01*
X11131310Y-13106500D01*
X11140833Y-13116024D01*
X11150357Y-13135071D01*
X11159881Y-13173167D01*
X11159881Y-13220786D01*
X11150357Y-13258881D01*
X11140833Y-13277928D01*
X11131310Y-13287452D01*
X11112262Y-13296976D01*
X11093214Y-13296976D01*
X11074167Y-13287452D01*
X11064643Y-13277928D01*
X11055119Y-13258881D01*
X11045595Y-13220786D01*
X11045595Y-13173167D01*
X11055119Y-13135071D01*
X11064643Y-13116024D01*
X11074167Y-13106500D01*
X11093214Y-13096976D01*
X11245595Y-13277928D02*
X11255119Y-13287452D01*
X11245595Y-13296976D01*
X11236071Y-13287452D01*
X11245595Y-13277928D01*
X11245595Y-13296976D01*
X11321786Y-13096976D02*
X11445595Y-13096976D01*
X11378928Y-13173167D01*
X11407500Y-13173167D01*
X11426548Y-13182690D01*
X11436071Y-13192214D01*
X11445595Y-13211262D01*
X11445595Y-13258881D01*
X11436071Y-13277928D01*
X11426548Y-13287452D01*
X11407500Y-13296976D01*
X11350357Y-13296976D01*
X11331309Y-13287452D01*
X11321786Y-13277928D01*
X11569405Y-13096976D02*
X11588452Y-13096976D01*
X11607500Y-13106500D01*
X11617024Y-13116024D01*
X11626548Y-13135071D01*
X11636071Y-13173167D01*
X11636071Y-13220786D01*
X11626548Y-13258881D01*
X11617024Y-13277928D01*
X11607500Y-13287452D01*
X11588452Y-13296976D01*
X11569405Y-13296976D01*
X11550357Y-13287452D01*
X11540833Y-13277928D01*
X11531309Y-13258881D01*
X11521786Y-13220786D01*
X11521786Y-13173167D01*
X11531309Y-13135071D01*
X11540833Y-13116024D01*
X11550357Y-13106500D01*
X11569405Y-13096976D01*
X11759881Y-13096976D02*
X11778928Y-13096976D01*
X11797976Y-13106500D01*
X11807500Y-13116024D01*
X11817024Y-13135071D01*
X11826548Y-13173167D01*
X11826548Y-13220786D01*
X11817024Y-13258881D01*
X11807500Y-13277928D01*
X11797976Y-13287452D01*
X11778928Y-13296976D01*
X11759881Y-13296976D01*
X11740833Y-13287452D01*
X11731309Y-13277928D01*
X11721786Y-13258881D01*
X11712262Y-13220786D01*
X11712262Y-13173167D01*
X11721786Y-13135071D01*
X11731309Y-13116024D01*
X11740833Y-13106500D01*
X11759881Y-13096976D01*
X11912262Y-13296976D02*
X11912262Y-13163643D01*
X11912262Y-13182690D02*
X11921786Y-13173167D01*
X11940833Y-13163643D01*
X11969405Y-13163643D01*
X11988452Y-13173167D01*
X11997976Y-13192214D01*
X11997976Y-13296976D01*
X11997976Y-13192214D02*
X12007500Y-13173167D01*
X12026548Y-13163643D01*
X12055119Y-13163643D01*
X12074167Y-13173167D01*
X12083690Y-13192214D01*
X12083690Y-13296976D01*
X12178928Y-13296976D02*
X12178928Y-13163643D01*
X12178928Y-13182690D02*
X12188452Y-13173167D01*
X12207500Y-13163643D01*
X12236071Y-13163643D01*
X12255119Y-13173167D01*
X12264643Y-13192214D01*
X12264643Y-13296976D01*
X12264643Y-13192214D02*
X12274167Y-13173167D01*
X12293214Y-13163643D01*
X12321786Y-13163643D01*
X12340833Y-13173167D01*
X12350357Y-13192214D01*
X12350357Y-13296976D01*
X12740833Y-13087452D02*
X12569405Y-13344595D01*
X12997976Y-13096976D02*
X13017024Y-13096976D01*
X13036071Y-13106500D01*
X13045595Y-13116024D01*
X13055119Y-13135071D01*
X13064643Y-13173167D01*
X13064643Y-13220786D01*
X13055119Y-13258881D01*
X13045595Y-13277928D01*
X13036071Y-13287452D01*
X13017024Y-13296976D01*
X12997976Y-13296976D01*
X12978928Y-13287452D01*
X12969405Y-13277928D01*
X12959881Y-13258881D01*
X12950357Y-13220786D01*
X12950357Y-13173167D01*
X12959881Y-13135071D01*
X12969405Y-13116024D01*
X12978928Y-13106500D01*
X12997976Y-13096976D01*
X13150357Y-13277928D02*
X13159881Y-13287452D01*
X13150357Y-13296976D01*
X13140833Y-13287452D01*
X13150357Y-13277928D01*
X13150357Y-13296976D01*
X13283690Y-13096976D02*
X13302738Y-13096976D01*
X13321786Y-13106500D01*
X13331309Y-13116024D01*
X13340833Y-13135071D01*
X13350357Y-13173167D01*
X13350357Y-13220786D01*
X13340833Y-13258881D01*
X13331309Y-13277928D01*
X13321786Y-13287452D01*
X13302738Y-13296976D01*
X13283690Y-13296976D01*
X13264643Y-13287452D01*
X13255119Y-13277928D01*
X13245595Y-13258881D01*
X13236071Y-13220786D01*
X13236071Y-13173167D01*
X13245595Y-13135071D01*
X13255119Y-13116024D01*
X13264643Y-13106500D01*
X13283690Y-13096976D01*
X13540833Y-13296976D02*
X13426548Y-13296976D01*
X13483690Y-13296976D02*
X13483690Y-13096976D01*
X13464643Y-13125548D01*
X13445595Y-13144595D01*
X13426548Y-13154119D01*
X13731309Y-13296976D02*
X13617024Y-13296976D01*
X13674167Y-13296976D02*
X13674167Y-13096976D01*
X13655119Y-13125548D01*
X13636071Y-13144595D01*
X13617024Y-13154119D01*
X13845595Y-13182690D02*
X13826548Y-13173167D01*
X13817024Y-13163643D01*
X13807500Y-13144595D01*
X13807500Y-13135071D01*
X13817024Y-13116024D01*
X13826548Y-13106500D01*
X13845595Y-13096976D01*
X13883690Y-13096976D01*
X13902738Y-13106500D01*
X13912262Y-13116024D01*
X13921786Y-13135071D01*
X13921786Y-13144595D01*
X13912262Y-13163643D01*
X13902738Y-13173167D01*
X13883690Y-13182690D01*
X13845595Y-13182690D01*
X13826548Y-13192214D01*
X13817024Y-13201738D01*
X13807500Y-13220786D01*
X13807500Y-13258881D01*
X13817024Y-13277928D01*
X13826548Y-13287452D01*
X13845595Y-13296976D01*
X13883690Y-13296976D01*
X13902738Y-13287452D01*
X13912262Y-13277928D01*
X13921786Y-13258881D01*
X13921786Y-13220786D01*
X13912262Y-13201738D01*
X13902738Y-13192214D01*
X13883690Y-13182690D01*
X13997976Y-13096976D02*
X13997976Y-13135071D01*
X14074167Y-13096976D02*
X14074167Y-13135071D01*
X14369405Y-13373167D02*
X14359881Y-13363643D01*
X14340833Y-13335071D01*
X14331309Y-13316024D01*
X14321786Y-13287452D01*
X14312262Y-13239833D01*
X14312262Y-13201738D01*
X14321786Y-13154119D01*
X14331309Y-13125548D01*
X14340833Y-13106500D01*
X14359881Y-13077928D01*
X14369405Y-13068405D01*
X14550357Y-13296976D02*
X14436071Y-13296976D01*
X14493214Y-13296976D02*
X14493214Y-13096976D01*
X14474167Y-13125548D01*
X14455119Y-13144595D01*
X14436071Y-13154119D01*
X14617024Y-13096976D02*
X14740833Y-13096976D01*
X14674167Y-13173167D01*
X14702738Y-13173167D01*
X14721786Y-13182690D01*
X14731309Y-13192214D01*
X14740833Y-13211262D01*
X14740833Y-13258881D01*
X14731309Y-13277928D01*
X14721786Y-13287452D01*
X14702738Y-13296976D01*
X14645595Y-13296976D01*
X14626548Y-13287452D01*
X14617024Y-13277928D01*
X14978928Y-13296976D02*
X14978928Y-13096976D01*
X15064643Y-13296976D02*
X15064643Y-13192214D01*
X15055119Y-13173167D01*
X15036071Y-13163643D01*
X15007500Y-13163643D01*
X14988452Y-13173167D01*
X14978928Y-13182690D01*
X15188452Y-13296976D02*
X15169405Y-13287452D01*
X15159881Y-13277928D01*
X15150357Y-13258881D01*
X15150357Y-13201738D01*
X15159881Y-13182690D01*
X15169405Y-13173167D01*
X15188452Y-13163643D01*
X15217024Y-13163643D01*
X15236071Y-13173167D01*
X15245595Y-13182690D01*
X15255119Y-13201738D01*
X15255119Y-13258881D01*
X15245595Y-13277928D01*
X15236071Y-13287452D01*
X15217024Y-13296976D01*
X15188452Y-13296976D01*
X15369405Y-13296976D02*
X15350357Y-13287452D01*
X15340833Y-13268405D01*
X15340833Y-13096976D01*
X15521786Y-13287452D02*
X15502738Y-13296976D01*
X15464643Y-13296976D01*
X15445595Y-13287452D01*
X15436071Y-13268405D01*
X15436071Y-13192214D01*
X15445595Y-13173167D01*
X15464643Y-13163643D01*
X15502738Y-13163643D01*
X15521786Y-13173167D01*
X15531309Y-13192214D01*
X15531309Y-13211262D01*
X15436071Y-13230309D01*
X15607500Y-13287452D02*
X15626548Y-13296976D01*
X15664643Y-13296976D01*
X15683690Y-13287452D01*
X15693214Y-13268405D01*
X15693214Y-13258881D01*
X15683690Y-13239833D01*
X15664643Y-13230309D01*
X15636071Y-13230309D01*
X15617024Y-13220786D01*
X15607500Y-13201738D01*
X15607500Y-13192214D01*
X15617024Y-13173167D01*
X15636071Y-13163643D01*
X15664643Y-13163643D01*
X15683690Y-13173167D01*
X15759881Y-13373167D02*
X15769405Y-13363643D01*
X15788452Y-13335071D01*
X15797976Y-13316024D01*
X15807500Y-13287452D01*
X15817024Y-13239833D01*
X15817024Y-13201738D01*
X15807500Y-13154119D01*
X15797976Y-13125548D01*
X15788452Y-13106500D01*
X15769405Y-13077928D01*
X15759881Y-13068405D01*
D14*
X10777500Y-13450500D02*
X10777500Y-13490500D01*
X10757500Y-13470500D02*
X10797500Y-13470500D01*
D11*
X11093214Y-13360976D02*
X11112262Y-13360976D01*
X11131310Y-13370500D01*
X11140833Y-13380024D01*
X11150357Y-13399071D01*
X11159881Y-13437167D01*
X11159881Y-13484786D01*
X11150357Y-13522881D01*
X11140833Y-13541928D01*
X11131310Y-13551452D01*
X11112262Y-13560976D01*
X11093214Y-13560976D01*
X11074167Y-13551452D01*
X11064643Y-13541928D01*
X11055119Y-13522881D01*
X11045595Y-13484786D01*
X11045595Y-13437167D01*
X11055119Y-13399071D01*
X11064643Y-13380024D01*
X11074167Y-13370500D01*
X11093214Y-13360976D01*
X11245595Y-13541928D02*
X11255119Y-13551452D01*
X11245595Y-13560976D01*
X11236071Y-13551452D01*
X11245595Y-13541928D01*
X11245595Y-13560976D01*
X11426548Y-13427643D02*
X11426548Y-13560976D01*
X11378928Y-13351452D02*
X11331309Y-13494309D01*
X11455119Y-13494309D01*
X11569405Y-13360976D02*
X11588452Y-13360976D01*
X11607500Y-13370500D01*
X11617024Y-13380024D01*
X11626548Y-13399071D01*
X11636071Y-13437167D01*
X11636071Y-13484786D01*
X11626548Y-13522881D01*
X11617024Y-13541928D01*
X11607500Y-13551452D01*
X11588452Y-13560976D01*
X11569405Y-13560976D01*
X11550357Y-13551452D01*
X11540833Y-13541928D01*
X11531309Y-13522881D01*
X11521786Y-13484786D01*
X11521786Y-13437167D01*
X11531309Y-13399071D01*
X11540833Y-13380024D01*
X11550357Y-13370500D01*
X11569405Y-13360976D01*
X11759881Y-13360976D02*
X11778928Y-13360976D01*
X11797976Y-13370500D01*
X11807500Y-13380024D01*
X11817024Y-13399071D01*
X11826548Y-13437167D01*
X11826548Y-13484786D01*
X11817024Y-13522881D01*
X11807500Y-13541928D01*
X11797976Y-13551452D01*
X11778928Y-13560976D01*
X11759881Y-13560976D01*
X11740833Y-13551452D01*
X11731309Y-13541928D01*
X11721786Y-13522881D01*
X11712262Y-13484786D01*
X11712262Y-13437167D01*
X11721786Y-13399071D01*
X11731309Y-13380024D01*
X11740833Y-13370500D01*
X11759881Y-13360976D01*
X11912262Y-13560976D02*
X11912262Y-13427643D01*
X11912262Y-13446690D02*
X11921786Y-13437167D01*
X11940833Y-13427643D01*
X11969405Y-13427643D01*
X11988452Y-13437167D01*
X11997976Y-13456214D01*
X11997976Y-13560976D01*
X11997976Y-13456214D02*
X12007500Y-13437167D01*
X12026548Y-13427643D01*
X12055119Y-13427643D01*
X12074167Y-13437167D01*
X12083690Y-13456214D01*
X12083690Y-13560976D01*
X12178928Y-13560976D02*
X12178928Y-13427643D01*
X12178928Y-13446690D02*
X12188452Y-13437167D01*
X12207500Y-13427643D01*
X12236071Y-13427643D01*
X12255119Y-13437167D01*
X12264643Y-13456214D01*
X12264643Y-13560976D01*
X12264643Y-13456214D02*
X12274167Y-13437167D01*
X12293214Y-13427643D01*
X12321786Y-13427643D01*
X12340833Y-13437167D01*
X12350357Y-13456214D01*
X12350357Y-13560976D01*
X12740833Y-13351452D02*
X12569405Y-13608595D01*
X12997976Y-13360976D02*
X13017024Y-13360976D01*
X13036071Y-13370500D01*
X13045595Y-13380024D01*
X13055119Y-13399071D01*
X13064643Y-13437167D01*
X13064643Y-13484786D01*
X13055119Y-13522881D01*
X13045595Y-13541928D01*
X13036071Y-13551452D01*
X13017024Y-13560976D01*
X12997976Y-13560976D01*
X12978928Y-13551452D01*
X12969405Y-13541928D01*
X12959881Y-13522881D01*
X12950357Y-13484786D01*
X12950357Y-13437167D01*
X12959881Y-13399071D01*
X12969405Y-13380024D01*
X12978928Y-13370500D01*
X12997976Y-13360976D01*
X13150357Y-13541928D02*
X13159881Y-13551452D01*
X13150357Y-13560976D01*
X13140833Y-13551452D01*
X13150357Y-13541928D01*
X13150357Y-13560976D01*
X13283690Y-13360976D02*
X13302738Y-13360976D01*
X13321786Y-13370500D01*
X13331309Y-13380024D01*
X13340833Y-13399071D01*
X13350357Y-13437167D01*
X13350357Y-13484786D01*
X13340833Y-13522881D01*
X13331309Y-13541928D01*
X13321786Y-13551452D01*
X13302738Y-13560976D01*
X13283690Y-13560976D01*
X13264643Y-13551452D01*
X13255119Y-13541928D01*
X13245595Y-13522881D01*
X13236071Y-13484786D01*
X13236071Y-13437167D01*
X13245595Y-13399071D01*
X13255119Y-13380024D01*
X13264643Y-13370500D01*
X13283690Y-13360976D01*
X13540833Y-13560976D02*
X13426548Y-13560976D01*
X13483690Y-13560976D02*
X13483690Y-13360976D01*
X13464643Y-13389548D01*
X13445595Y-13408595D01*
X13426548Y-13418119D01*
X13721786Y-13360976D02*
X13626548Y-13360976D01*
X13617024Y-13456214D01*
X13626548Y-13446690D01*
X13645595Y-13437167D01*
X13693214Y-13437167D01*
X13712262Y-13446690D01*
X13721786Y-13456214D01*
X13731309Y-13475262D01*
X13731309Y-13522881D01*
X13721786Y-13541928D01*
X13712262Y-13551452D01*
X13693214Y-13560976D01*
X13645595Y-13560976D01*
X13626548Y-13551452D01*
X13617024Y-13541928D01*
X13797976Y-13360976D02*
X13931309Y-13360976D01*
X13845595Y-13560976D01*
X13997976Y-13360976D02*
X13997976Y-13399071D01*
X14074167Y-13360976D02*
X14074167Y-13399071D01*
X14369405Y-13637167D02*
X14359881Y-13627643D01*
X14340833Y-13599071D01*
X14331309Y-13580024D01*
X14321786Y-13551452D01*
X14312262Y-13503833D01*
X14312262Y-13465738D01*
X14321786Y-13418119D01*
X14331309Y-13389548D01*
X14340833Y-13370500D01*
X14359881Y-13341928D01*
X14369405Y-13332405D01*
X14426548Y-13360976D02*
X14559881Y-13360976D01*
X14474167Y-13560976D01*
X14788452Y-13560976D02*
X14788452Y-13360976D01*
X14874167Y-13560976D02*
X14874167Y-13456214D01*
X14864643Y-13437167D01*
X14845595Y-13427643D01*
X14817024Y-13427643D01*
X14797976Y-13437167D01*
X14788452Y-13446690D01*
X14997976Y-13560976D02*
X14978928Y-13551452D01*
X14969405Y-13541928D01*
X14959881Y-13522881D01*
X14959881Y-13465738D01*
X14969405Y-13446690D01*
X14978928Y-13437167D01*
X14997976Y-13427643D01*
X15026548Y-13427643D01*
X15045595Y-13437167D01*
X15055119Y-13446690D01*
X15064643Y-13465738D01*
X15064643Y-13522881D01*
X15055119Y-13541928D01*
X15045595Y-13551452D01*
X15026548Y-13560976D01*
X14997976Y-13560976D01*
X15178928Y-13560976D02*
X15159881Y-13551452D01*
X15150357Y-13532405D01*
X15150357Y-13360976D01*
X15331309Y-13551452D02*
X15312262Y-13560976D01*
X15274167Y-13560976D01*
X15255119Y-13551452D01*
X15245595Y-13532405D01*
X15245595Y-13456214D01*
X15255119Y-13437167D01*
X15274167Y-13427643D01*
X15312262Y-13427643D01*
X15331309Y-13437167D01*
X15340833Y-13456214D01*
X15340833Y-13475262D01*
X15245595Y-13494309D01*
X15417024Y-13551452D02*
X15436071Y-13560976D01*
X15474167Y-13560976D01*
X15493214Y-13551452D01*
X15502738Y-13532405D01*
X15502738Y-13522881D01*
X15493214Y-13503833D01*
X15474167Y-13494309D01*
X15445595Y-13494309D01*
X15426548Y-13484786D01*
X15417024Y-13465738D01*
X15417024Y-13456214D01*
X15426548Y-13437167D01*
X15445595Y-13427643D01*
X15474167Y-13427643D01*
X15493214Y-13437167D01*
X15569405Y-13637167D02*
X15578928Y-13627643D01*
X15597976Y-13599071D01*
X15607500Y-13580024D01*
X15617024Y-13551452D01*
X15626548Y-13503833D01*
X15626548Y-13465738D01*
X15617024Y-13418119D01*
X15607500Y-13389548D01*
X15597976Y-13370500D01*
X15578928Y-13341928D01*
X15569405Y-13332405D01*
D10*
X10790178Y-13752178D02*
X10790178Y-13716822D01*
X10754822Y-13716822D01*
X10754822Y-13752178D01*
X10790178Y-13752178D01*
D11*
X11093214Y-13624976D02*
X11112262Y-13624976D01*
X11131310Y-13634500D01*
X11140833Y-13644024D01*
X11150357Y-13663071D01*
X11159881Y-13701167D01*
X11159881Y-13748786D01*
X11150357Y-13786881D01*
X11140833Y-13805928D01*
X11131310Y-13815452D01*
X11112262Y-13824976D01*
X11093214Y-13824976D01*
X11074167Y-13815452D01*
X11064643Y-13805928D01*
X11055119Y-13786881D01*
X11045595Y-13748786D01*
X11045595Y-13701167D01*
X11055119Y-13663071D01*
X11064643Y-13644024D01*
X11074167Y-13634500D01*
X11093214Y-13624976D01*
X11245595Y-13805928D02*
X11255119Y-13815452D01*
X11245595Y-13824976D01*
X11236071Y-13815452D01*
X11245595Y-13805928D01*
X11245595Y-13824976D01*
X11436071Y-13624976D02*
X11340833Y-13624976D01*
X11331309Y-13720214D01*
X11340833Y-13710690D01*
X11359881Y-13701167D01*
X11407500Y-13701167D01*
X11426548Y-13710690D01*
X11436071Y-13720214D01*
X11445595Y-13739262D01*
X11445595Y-13786881D01*
X11436071Y-13805928D01*
X11426548Y-13815452D01*
X11407500Y-13824976D01*
X11359881Y-13824976D01*
X11340833Y-13815452D01*
X11331309Y-13805928D01*
X11569405Y-13624976D02*
X11588452Y-13624976D01*
X11607500Y-13634500D01*
X11617024Y-13644024D01*
X11626548Y-13663071D01*
X11636071Y-13701167D01*
X11636071Y-13748786D01*
X11626548Y-13786881D01*
X11617024Y-13805928D01*
X11607500Y-13815452D01*
X11588452Y-13824976D01*
X11569405Y-13824976D01*
X11550357Y-13815452D01*
X11540833Y-13805928D01*
X11531309Y-13786881D01*
X11521786Y-13748786D01*
X11521786Y-13701167D01*
X11531309Y-13663071D01*
X11540833Y-13644024D01*
X11550357Y-13634500D01*
X11569405Y-13624976D01*
X11759881Y-13624976D02*
X11778928Y-13624976D01*
X11797976Y-13634500D01*
X11807500Y-13644024D01*
X11817024Y-13663071D01*
X11826548Y-13701167D01*
X11826548Y-13748786D01*
X11817024Y-13786881D01*
X11807500Y-13805928D01*
X11797976Y-13815452D01*
X11778928Y-13824976D01*
X11759881Y-13824976D01*
X11740833Y-13815452D01*
X11731309Y-13805928D01*
X11721786Y-13786881D01*
X11712262Y-13748786D01*
X11712262Y-13701167D01*
X11721786Y-13663071D01*
X11731309Y-13644024D01*
X11740833Y-13634500D01*
X11759881Y-13624976D01*
X11912262Y-13824976D02*
X11912262Y-13691643D01*
X11912262Y-13710690D02*
X11921786Y-13701167D01*
X11940833Y-13691643D01*
X11969405Y-13691643D01*
X11988452Y-13701167D01*
X11997976Y-13720214D01*
X11997976Y-13824976D01*
X11997976Y-13720214D02*
X12007500Y-13701167D01*
X12026548Y-13691643D01*
X12055119Y-13691643D01*
X12074167Y-13701167D01*
X12083690Y-13720214D01*
X12083690Y-13824976D01*
X12178928Y-13824976D02*
X12178928Y-13691643D01*
X12178928Y-13710690D02*
X12188452Y-13701167D01*
X12207500Y-13691643D01*
X12236071Y-13691643D01*
X12255119Y-13701167D01*
X12264643Y-13720214D01*
X12264643Y-13824976D01*
X12264643Y-13720214D02*
X12274167Y-13701167D01*
X12293214Y-13691643D01*
X12321786Y-13691643D01*
X12340833Y-13701167D01*
X12350357Y-13720214D01*
X12350357Y-13824976D01*
X12740833Y-13615452D02*
X12569405Y-13872595D01*
X12997976Y-13624976D02*
X13017024Y-13624976D01*
X13036071Y-13634500D01*
X13045595Y-13644024D01*
X13055119Y-13663071D01*
X13064643Y-13701167D01*
X13064643Y-13748786D01*
X13055119Y-13786881D01*
X13045595Y-13805928D01*
X13036071Y-13815452D01*
X13017024Y-13824976D01*
X12997976Y-13824976D01*
X12978928Y-13815452D01*
X12969405Y-13805928D01*
X12959881Y-13786881D01*
X12950357Y-13748786D01*
X12950357Y-13701167D01*
X12959881Y-13663071D01*
X12969405Y-13644024D01*
X12978928Y-13634500D01*
X12997976Y-13624976D01*
X13150357Y-13805928D02*
X13159881Y-13815452D01*
X13150357Y-13824976D01*
X13140833Y-13815452D01*
X13150357Y-13805928D01*
X13150357Y-13824976D01*
X13283690Y-13624976D02*
X13302738Y-13624976D01*
X13321786Y-13634500D01*
X13331309Y-13644024D01*
X13340833Y-13663071D01*
X13350357Y-13701167D01*
X13350357Y-13748786D01*
X13340833Y-13786881D01*
X13331309Y-13805928D01*
X13321786Y-13815452D01*
X13302738Y-13824976D01*
X13283690Y-13824976D01*
X13264643Y-13815452D01*
X13255119Y-13805928D01*
X13245595Y-13786881D01*
X13236071Y-13748786D01*
X13236071Y-13701167D01*
X13245595Y-13663071D01*
X13255119Y-13644024D01*
X13264643Y-13634500D01*
X13283690Y-13624976D01*
X13540833Y-13824976D02*
X13426548Y-13824976D01*
X13483690Y-13824976D02*
X13483690Y-13624976D01*
X13464643Y-13653548D01*
X13445595Y-13672595D01*
X13426548Y-13682119D01*
X13636071Y-13824976D02*
X13674167Y-13824976D01*
X13693214Y-13815452D01*
X13702738Y-13805928D01*
X13721786Y-13777357D01*
X13731309Y-13739262D01*
X13731309Y-13663071D01*
X13721786Y-13644024D01*
X13712262Y-13634500D01*
X13693214Y-13624976D01*
X13655119Y-13624976D01*
X13636071Y-13634500D01*
X13626548Y-13644024D01*
X13617024Y-13663071D01*
X13617024Y-13710690D01*
X13626548Y-13729738D01*
X13636071Y-13739262D01*
X13655119Y-13748786D01*
X13693214Y-13748786D01*
X13712262Y-13739262D01*
X13721786Y-13729738D01*
X13731309Y-13710690D01*
X13797976Y-13624976D02*
X13931309Y-13624976D01*
X13845595Y-13824976D01*
X13997976Y-13624976D02*
X13997976Y-13663071D01*
X14074167Y-13624976D02*
X14074167Y-13663071D01*
X14369405Y-13901167D02*
X14359881Y-13891643D01*
X14340833Y-13863071D01*
X14331309Y-13844024D01*
X14321786Y-13815452D01*
X14312262Y-13767833D01*
X14312262Y-13729738D01*
X14321786Y-13682119D01*
X14331309Y-13653548D01*
X14340833Y-13634500D01*
X14359881Y-13605928D01*
X14369405Y-13596405D01*
X14436071Y-13644024D02*
X14445595Y-13634500D01*
X14464643Y-13624976D01*
X14512262Y-13624976D01*
X14531309Y-13634500D01*
X14540833Y-13644024D01*
X14550357Y-13663071D01*
X14550357Y-13682119D01*
X14540833Y-13710690D01*
X14426548Y-13824976D01*
X14550357Y-13824976D01*
X14788452Y-13824976D02*
X14788452Y-13624976D01*
X14874167Y-13824976D02*
X14874167Y-13720214D01*
X14864643Y-13701167D01*
X14845595Y-13691643D01*
X14817024Y-13691643D01*
X14797976Y-13701167D01*
X14788452Y-13710690D01*
X14997976Y-13824976D02*
X14978928Y-13815452D01*
X14969405Y-13805928D01*
X14959881Y-13786881D01*
X14959881Y-13729738D01*
X14969405Y-13710690D01*
X14978928Y-13701167D01*
X14997976Y-13691643D01*
X15026548Y-13691643D01*
X15045595Y-13701167D01*
X15055119Y-13710690D01*
X15064643Y-13729738D01*
X15064643Y-13786881D01*
X15055119Y-13805928D01*
X15045595Y-13815452D01*
X15026548Y-13824976D01*
X14997976Y-13824976D01*
X15178928Y-13824976D02*
X15159881Y-13815452D01*
X15150357Y-13796405D01*
X15150357Y-13624976D01*
X15331309Y-13815452D02*
X15312262Y-13824976D01*
X15274167Y-13824976D01*
X15255119Y-13815452D01*
X15245595Y-13796405D01*
X15245595Y-13720214D01*
X15255119Y-13701167D01*
X15274167Y-13691643D01*
X15312262Y-13691643D01*
X15331309Y-13701167D01*
X15340833Y-13720214D01*
X15340833Y-13739262D01*
X15245595Y-13758309D01*
X15417024Y-13815452D02*
X15436071Y-13824976D01*
X15474167Y-13824976D01*
X15493214Y-13815452D01*
X15502738Y-13796405D01*
X15502738Y-13786881D01*
X15493214Y-13767833D01*
X15474167Y-13758309D01*
X15445595Y-13758309D01*
X15426548Y-13748786D01*
X15417024Y-13729738D01*
X15417024Y-13720214D01*
X15426548Y-13701167D01*
X15445595Y-13691643D01*
X15474167Y-13691643D01*
X15493214Y-13701167D01*
X15569405Y-13901167D02*
X15578928Y-13891643D01*
X15597976Y-13863071D01*
X15607500Y-13844024D01*
X15617024Y-13815452D01*
X15626548Y-13767833D01*
X15626548Y-13729738D01*
X15617024Y-13682119D01*
X15607500Y-13653548D01*
X15597976Y-13634500D01*
X15578928Y-13605928D01*
X15569405Y-13596405D01*
D15*
X10767500Y-14028500D02*
X10797500Y-13998500D01*
X10767500Y-13968500D01*
X10737500Y-13998500D01*
X10767500Y-14028500D01*
D11*
X11093214Y-13888976D02*
X11112262Y-13888976D01*
X11131310Y-13898500D01*
X11140833Y-13908024D01*
X11150357Y-13927071D01*
X11159881Y-13965167D01*
X11159881Y-14012786D01*
X11150357Y-14050881D01*
X11140833Y-14069928D01*
X11131310Y-14079452D01*
X11112262Y-14088976D01*
X11093214Y-14088976D01*
X11074167Y-14079452D01*
X11064643Y-14069928D01*
X11055119Y-14050881D01*
X11045595Y-14012786D01*
X11045595Y-13965167D01*
X11055119Y-13927071D01*
X11064643Y-13908024D01*
X11074167Y-13898500D01*
X11093214Y-13888976D01*
X11245595Y-14069928D02*
X11255119Y-14079452D01*
X11245595Y-14088976D01*
X11236071Y-14079452D01*
X11245595Y-14069928D01*
X11245595Y-14088976D01*
X11426548Y-13888976D02*
X11388452Y-13888976D01*
X11369405Y-13898500D01*
X11359881Y-13908024D01*
X11340833Y-13936595D01*
X11331309Y-13974690D01*
X11331309Y-14050881D01*
X11340833Y-14069928D01*
X11350357Y-14079452D01*
X11369405Y-14088976D01*
X11407500Y-14088976D01*
X11426548Y-14079452D01*
X11436071Y-14069928D01*
X11445595Y-14050881D01*
X11445595Y-14003262D01*
X11436071Y-13984214D01*
X11426548Y-13974690D01*
X11407500Y-13965167D01*
X11369405Y-13965167D01*
X11350357Y-13974690D01*
X11340833Y-13984214D01*
X11331309Y-14003262D01*
X11569405Y-13888976D02*
X11588452Y-13888976D01*
X11607500Y-13898500D01*
X11617024Y-13908024D01*
X11626548Y-13927071D01*
X11636071Y-13965167D01*
X11636071Y-14012786D01*
X11626548Y-14050881D01*
X11617024Y-14069928D01*
X11607500Y-14079452D01*
X11588452Y-14088976D01*
X11569405Y-14088976D01*
X11550357Y-14079452D01*
X11540833Y-14069928D01*
X11531309Y-14050881D01*
X11521786Y-14012786D01*
X11521786Y-13965167D01*
X11531309Y-13927071D01*
X11540833Y-13908024D01*
X11550357Y-13898500D01*
X11569405Y-13888976D01*
X11759881Y-13888976D02*
X11778928Y-13888976D01*
X11797976Y-13898500D01*
X11807500Y-13908024D01*
X11817024Y-13927071D01*
X11826548Y-13965167D01*
X11826548Y-14012786D01*
X11817024Y-14050881D01*
X11807500Y-14069928D01*
X11797976Y-14079452D01*
X11778928Y-14088976D01*
X11759881Y-14088976D01*
X11740833Y-14079452D01*
X11731309Y-14069928D01*
X11721786Y-14050881D01*
X11712262Y-14012786D01*
X11712262Y-13965167D01*
X11721786Y-13927071D01*
X11731309Y-13908024D01*
X11740833Y-13898500D01*
X11759881Y-13888976D01*
X11912262Y-14088976D02*
X11912262Y-13955643D01*
X11912262Y-13974690D02*
X11921786Y-13965167D01*
X11940833Y-13955643D01*
X11969405Y-13955643D01*
X11988452Y-13965167D01*
X11997976Y-13984214D01*
X11997976Y-14088976D01*
X11997976Y-13984214D02*
X12007500Y-13965167D01*
X12026548Y-13955643D01*
X12055119Y-13955643D01*
X12074167Y-13965167D01*
X12083690Y-13984214D01*
X12083690Y-14088976D01*
X12178928Y-14088976D02*
X12178928Y-13955643D01*
X12178928Y-13974690D02*
X12188452Y-13965167D01*
X12207500Y-13955643D01*
X12236071Y-13955643D01*
X12255119Y-13965167D01*
X12264643Y-13984214D01*
X12264643Y-14088976D01*
X12264643Y-13984214D02*
X12274167Y-13965167D01*
X12293214Y-13955643D01*
X12321786Y-13955643D01*
X12340833Y-13965167D01*
X12350357Y-13984214D01*
X12350357Y-14088976D01*
X12740833Y-13879452D02*
X12569405Y-14136595D01*
X12997976Y-13888976D02*
X13017024Y-13888976D01*
X13036071Y-13898500D01*
X13045595Y-13908024D01*
X13055119Y-13927071D01*
X13064643Y-13965167D01*
X13064643Y-14012786D01*
X13055119Y-14050881D01*
X13045595Y-14069928D01*
X13036071Y-14079452D01*
X13017024Y-14088976D01*
X12997976Y-14088976D01*
X12978928Y-14079452D01*
X12969405Y-14069928D01*
X12959881Y-14050881D01*
X12950357Y-14012786D01*
X12950357Y-13965167D01*
X12959881Y-13927071D01*
X12969405Y-13908024D01*
X12978928Y-13898500D01*
X12997976Y-13888976D01*
X13150357Y-14069928D02*
X13159881Y-14079452D01*
X13150357Y-14088976D01*
X13140833Y-14079452D01*
X13150357Y-14069928D01*
X13150357Y-14088976D01*
X13283690Y-13888976D02*
X13302738Y-13888976D01*
X13321786Y-13898500D01*
X13331309Y-13908024D01*
X13340833Y-13927071D01*
X13350357Y-13965167D01*
X13350357Y-14012786D01*
X13340833Y-14050881D01*
X13331309Y-14069928D01*
X13321786Y-14079452D01*
X13302738Y-14088976D01*
X13283690Y-14088976D01*
X13264643Y-14079452D01*
X13255119Y-14069928D01*
X13245595Y-14050881D01*
X13236071Y-14012786D01*
X13236071Y-13965167D01*
X13245595Y-13927071D01*
X13255119Y-13908024D01*
X13264643Y-13898500D01*
X13283690Y-13888976D01*
X13426548Y-13908024D02*
X13436071Y-13898500D01*
X13455119Y-13888976D01*
X13502738Y-13888976D01*
X13521786Y-13898500D01*
X13531309Y-13908024D01*
X13540833Y-13927071D01*
X13540833Y-13946119D01*
X13531309Y-13974690D01*
X13417024Y-14088976D01*
X13540833Y-14088976D01*
X13607500Y-13888976D02*
X13731309Y-13888976D01*
X13664643Y-13965167D01*
X13693214Y-13965167D01*
X13712262Y-13974690D01*
X13721786Y-13984214D01*
X13731309Y-14003262D01*
X13731309Y-14050881D01*
X13721786Y-14069928D01*
X13712262Y-14079452D01*
X13693214Y-14088976D01*
X13636071Y-14088976D01*
X13617024Y-14079452D01*
X13607500Y-14069928D01*
X13902738Y-13888976D02*
X13864643Y-13888976D01*
X13845595Y-13898500D01*
X13836071Y-13908024D01*
X13817024Y-13936595D01*
X13807500Y-13974690D01*
X13807500Y-14050881D01*
X13817024Y-14069928D01*
X13826548Y-14079452D01*
X13845595Y-14088976D01*
X13883690Y-14088976D01*
X13902738Y-14079452D01*
X13912262Y-14069928D01*
X13921786Y-14050881D01*
X13921786Y-14003262D01*
X13912262Y-13984214D01*
X13902738Y-13974690D01*
X13883690Y-13965167D01*
X13845595Y-13965167D01*
X13826548Y-13974690D01*
X13817024Y-13984214D01*
X13807500Y-14003262D01*
X13997976Y-13888976D02*
X13997976Y-13927071D01*
X14074167Y-13888976D02*
X14074167Y-13927071D01*
X14369405Y-14165167D02*
X14359881Y-14155643D01*
X14340833Y-14127071D01*
X14331309Y-14108024D01*
X14321786Y-14079452D01*
X14312262Y-14031833D01*
X14312262Y-13993738D01*
X14321786Y-13946119D01*
X14331309Y-13917548D01*
X14340833Y-13898500D01*
X14359881Y-13869928D01*
X14369405Y-13860405D01*
X14483690Y-13888976D02*
X14502738Y-13888976D01*
X14521786Y-13898500D01*
X14531309Y-13908024D01*
X14540833Y-13927071D01*
X14550357Y-13965167D01*
X14550357Y-14012786D01*
X14540833Y-14050881D01*
X14531309Y-14069928D01*
X14521786Y-14079452D01*
X14502738Y-14088976D01*
X14483690Y-14088976D01*
X14464643Y-14079452D01*
X14455119Y-14069928D01*
X14445595Y-14050881D01*
X14436071Y-14012786D01*
X14436071Y-13965167D01*
X14445595Y-13927071D01*
X14455119Y-13908024D01*
X14464643Y-13898500D01*
X14483690Y-13888976D01*
X14788452Y-14088976D02*
X14788452Y-13888976D01*
X14874167Y-14088976D02*
X14874167Y-13984214D01*
X14864643Y-13965167D01*
X14845595Y-13955643D01*
X14817024Y-13955643D01*
X14797976Y-13965167D01*
X14788452Y-13974690D01*
X14997976Y-14088976D02*
X14978928Y-14079452D01*
X14969405Y-14069928D01*
X14959881Y-14050881D01*
X14959881Y-13993738D01*
X14969405Y-13974690D01*
X14978928Y-13965167D01*
X14997976Y-13955643D01*
X15026548Y-13955643D01*
X15045595Y-13965167D01*
X15055119Y-13974690D01*
X15064643Y-13993738D01*
X15064643Y-14050881D01*
X15055119Y-14069928D01*
X15045595Y-14079452D01*
X15026548Y-14088976D01*
X14997976Y-14088976D01*
X15178928Y-14088976D02*
X15159881Y-14079452D01*
X15150357Y-14060405D01*
X15150357Y-13888976D01*
X15331309Y-14079452D02*
X15312262Y-14088976D01*
X15274167Y-14088976D01*
X15255119Y-14079452D01*
X15245595Y-14060405D01*
X15245595Y-13984214D01*
X15255119Y-13965167D01*
X15274167Y-13955643D01*
X15312262Y-13955643D01*
X15331309Y-13965167D01*
X15340833Y-13984214D01*
X15340833Y-14003262D01*
X15245595Y-14022309D01*
X15417024Y-14079452D02*
X15436071Y-14088976D01*
X15474167Y-14088976D01*
X15493214Y-14079452D01*
X15502738Y-14060405D01*
X15502738Y-14050881D01*
X15493214Y-14031833D01*
X15474167Y-14022309D01*
X15445595Y-14022309D01*
X15426548Y-14012786D01*
X15417024Y-13993738D01*
X15417024Y-13984214D01*
X15426548Y-13965167D01*
X15445595Y-13955643D01*
X15474167Y-13955643D01*
X15493214Y-13965167D01*
X15740833Y-14012786D02*
X15893214Y-14012786D01*
X15817024Y-14088976D02*
X15817024Y-13936595D01*
X16131309Y-13908024D02*
X16140833Y-13898500D01*
X16159881Y-13888976D01*
X16207500Y-13888976D01*
X16226548Y-13898500D01*
X16236071Y-13908024D01*
X16245595Y-13927071D01*
X16245595Y-13946119D01*
X16236071Y-13974690D01*
X16121786Y-14088976D01*
X16245595Y-14088976D01*
X16474167Y-14079452D02*
X16493214Y-14088976D01*
X16531309Y-14088976D01*
X16550357Y-14079452D01*
X16559881Y-14060405D01*
X16559881Y-14050881D01*
X16550357Y-14031833D01*
X16531309Y-14022309D01*
X16502738Y-14022309D01*
X16483690Y-14012786D01*
X16474167Y-13993738D01*
X16474167Y-13984214D01*
X16483690Y-13965167D01*
X16502738Y-13955643D01*
X16531309Y-13955643D01*
X16550357Y-13965167D01*
X16674167Y-14088976D02*
X16655119Y-14079452D01*
X16645595Y-14060405D01*
X16645595Y-13888976D01*
X16778929Y-14088976D02*
X16759881Y-14079452D01*
X16750357Y-14069928D01*
X16740833Y-14050881D01*
X16740833Y-13993738D01*
X16750357Y-13974690D01*
X16759881Y-13965167D01*
X16778929Y-13955643D01*
X16807500Y-13955643D01*
X16826548Y-13965167D01*
X16836071Y-13974690D01*
X16845595Y-13993738D01*
X16845595Y-14050881D01*
X16836071Y-14069928D01*
X16826548Y-14079452D01*
X16807500Y-14088976D01*
X16778929Y-14088976D01*
X16902738Y-13955643D02*
X16978929Y-13955643D01*
X16931310Y-13888976D02*
X16931310Y-14060405D01*
X16940833Y-14079452D01*
X16959881Y-14088976D01*
X16978929Y-14088976D01*
X17036071Y-14079452D02*
X17055119Y-14088976D01*
X17093214Y-14088976D01*
X17112262Y-14079452D01*
X17121786Y-14060405D01*
X17121786Y-14050881D01*
X17112262Y-14031833D01*
X17093214Y-14022309D01*
X17064643Y-14022309D01*
X17045595Y-14012786D01*
X17036071Y-13993738D01*
X17036071Y-13984214D01*
X17045595Y-13965167D01*
X17064643Y-13955643D01*
X17093214Y-13955643D01*
X17112262Y-13965167D01*
X17188452Y-14165167D02*
X17197976Y-14155643D01*
X17217024Y-14127071D01*
X17226548Y-14108024D01*
X17236071Y-14079452D01*
X17245595Y-14031833D01*
X17245595Y-13993738D01*
X17236071Y-13946119D01*
X17226548Y-13917548D01*
X17217024Y-13898500D01*
X17197976Y-13869928D01*
X17188452Y-13860405D01*
D16*
X10717500Y-14222500D02*
X10797500Y-14302500D01*
X10797500Y-14222500D02*
X10717500Y-14302500D01*
X10797500Y-14262500D02*
G75*
G03*
X10797500Y-14262500I-40000J0D01*
G01*
D11*
X11093214Y-14152976D02*
X11112262Y-14152976D01*
X11131310Y-14162500D01*
X11140833Y-14172024D01*
X11150357Y-14191071D01*
X11159881Y-14229167D01*
X11159881Y-14276786D01*
X11150357Y-14314881D01*
X11140833Y-14333928D01*
X11131310Y-14343452D01*
X11112262Y-14352976D01*
X11093214Y-14352976D01*
X11074167Y-14343452D01*
X11064643Y-14333928D01*
X11055119Y-14314881D01*
X11045595Y-14276786D01*
X11045595Y-14229167D01*
X11055119Y-14191071D01*
X11064643Y-14172024D01*
X11074167Y-14162500D01*
X11093214Y-14152976D01*
X11245595Y-14333928D02*
X11255119Y-14343452D01*
X11245595Y-14352976D01*
X11236071Y-14343452D01*
X11245595Y-14333928D01*
X11245595Y-14352976D01*
X11369405Y-14238690D02*
X11350357Y-14229167D01*
X11340833Y-14219643D01*
X11331309Y-14200595D01*
X11331309Y-14191071D01*
X11340833Y-14172024D01*
X11350357Y-14162500D01*
X11369405Y-14152976D01*
X11407500Y-14152976D01*
X11426548Y-14162500D01*
X11436071Y-14172024D01*
X11445595Y-14191071D01*
X11445595Y-14200595D01*
X11436071Y-14219643D01*
X11426548Y-14229167D01*
X11407500Y-14238690D01*
X11369405Y-14238690D01*
X11350357Y-14248214D01*
X11340833Y-14257738D01*
X11331309Y-14276786D01*
X11331309Y-14314881D01*
X11340833Y-14333928D01*
X11350357Y-14343452D01*
X11369405Y-14352976D01*
X11407500Y-14352976D01*
X11426548Y-14343452D01*
X11436071Y-14333928D01*
X11445595Y-14314881D01*
X11445595Y-14276786D01*
X11436071Y-14257738D01*
X11426548Y-14248214D01*
X11407500Y-14238690D01*
X11569405Y-14152976D02*
X11588452Y-14152976D01*
X11607500Y-14162500D01*
X11617024Y-14172024D01*
X11626548Y-14191071D01*
X11636071Y-14229167D01*
X11636071Y-14276786D01*
X11626548Y-14314881D01*
X11617024Y-14333928D01*
X11607500Y-14343452D01*
X11588452Y-14352976D01*
X11569405Y-14352976D01*
X11550357Y-14343452D01*
X11540833Y-14333928D01*
X11531309Y-14314881D01*
X11521786Y-14276786D01*
X11521786Y-14229167D01*
X11531309Y-14191071D01*
X11540833Y-14172024D01*
X11550357Y-14162500D01*
X11569405Y-14152976D01*
X11759881Y-14152976D02*
X11778928Y-14152976D01*
X11797976Y-14162500D01*
X11807500Y-14172024D01*
X11817024Y-14191071D01*
X11826548Y-14229167D01*
X11826548Y-14276786D01*
X11817024Y-14314881D01*
X11807500Y-14333928D01*
X11797976Y-14343452D01*
X11778928Y-14352976D01*
X11759881Y-14352976D01*
X11740833Y-14343452D01*
X11731309Y-14333928D01*
X11721786Y-14314881D01*
X11712262Y-14276786D01*
X11712262Y-14229167D01*
X11721786Y-14191071D01*
X11731309Y-14172024D01*
X11740833Y-14162500D01*
X11759881Y-14152976D01*
X11912262Y-14352976D02*
X11912262Y-14219643D01*
X11912262Y-14238690D02*
X11921786Y-14229167D01*
X11940833Y-14219643D01*
X11969405Y-14219643D01*
X11988452Y-14229167D01*
X11997976Y-14248214D01*
X11997976Y-14352976D01*
X11997976Y-14248214D02*
X12007500Y-14229167D01*
X12026548Y-14219643D01*
X12055119Y-14219643D01*
X12074167Y-14229167D01*
X12083690Y-14248214D01*
X12083690Y-14352976D01*
X12178928Y-14352976D02*
X12178928Y-14219643D01*
X12178928Y-14238690D02*
X12188452Y-14229167D01*
X12207500Y-14219643D01*
X12236071Y-14219643D01*
X12255119Y-14229167D01*
X12264643Y-14248214D01*
X12264643Y-14352976D01*
X12264643Y-14248214D02*
X12274167Y-14229167D01*
X12293214Y-14219643D01*
X12321786Y-14219643D01*
X12340833Y-14229167D01*
X12350357Y-14248214D01*
X12350357Y-14352976D01*
X12740833Y-14143452D02*
X12569405Y-14400595D01*
X12997976Y-14152976D02*
X13017024Y-14152976D01*
X13036071Y-14162500D01*
X13045595Y-14172024D01*
X13055119Y-14191071D01*
X13064643Y-14229167D01*
X13064643Y-14276786D01*
X13055119Y-14314881D01*
X13045595Y-14333928D01*
X13036071Y-14343452D01*
X13017024Y-14352976D01*
X12997976Y-14352976D01*
X12978928Y-14343452D01*
X12969405Y-14333928D01*
X12959881Y-14314881D01*
X12950357Y-14276786D01*
X12950357Y-14229167D01*
X12959881Y-14191071D01*
X12969405Y-14172024D01*
X12978928Y-14162500D01*
X12997976Y-14152976D01*
X13150357Y-14333928D02*
X13159881Y-14343452D01*
X13150357Y-14352976D01*
X13140833Y-14343452D01*
X13150357Y-14333928D01*
X13150357Y-14352976D01*
X13283690Y-14152976D02*
X13302738Y-14152976D01*
X13321786Y-14162500D01*
X13331309Y-14172024D01*
X13340833Y-14191071D01*
X13350357Y-14229167D01*
X13350357Y-14276786D01*
X13340833Y-14314881D01*
X13331309Y-14333928D01*
X13321786Y-14343452D01*
X13302738Y-14352976D01*
X13283690Y-14352976D01*
X13264643Y-14343452D01*
X13255119Y-14333928D01*
X13245595Y-14314881D01*
X13236071Y-14276786D01*
X13236071Y-14229167D01*
X13245595Y-14191071D01*
X13255119Y-14172024D01*
X13264643Y-14162500D01*
X13283690Y-14152976D01*
X13417024Y-14152976D02*
X13540833Y-14152976D01*
X13474167Y-14229167D01*
X13502738Y-14229167D01*
X13521786Y-14238690D01*
X13531309Y-14248214D01*
X13540833Y-14267262D01*
X13540833Y-14314881D01*
X13531309Y-14333928D01*
X13521786Y-14343452D01*
X13502738Y-14352976D01*
X13445595Y-14352976D01*
X13426548Y-14343452D01*
X13417024Y-14333928D01*
X13731309Y-14352976D02*
X13617024Y-14352976D01*
X13674167Y-14352976D02*
X13674167Y-14152976D01*
X13655119Y-14181548D01*
X13636071Y-14200595D01*
X13617024Y-14210119D01*
X13912262Y-14152976D02*
X13817024Y-14152976D01*
X13807500Y-14248214D01*
X13817024Y-14238690D01*
X13836071Y-14229167D01*
X13883690Y-14229167D01*
X13902738Y-14238690D01*
X13912262Y-14248214D01*
X13921786Y-14267262D01*
X13921786Y-14314881D01*
X13912262Y-14333928D01*
X13902738Y-14343452D01*
X13883690Y-14352976D01*
X13836071Y-14352976D01*
X13817024Y-14343452D01*
X13807500Y-14333928D01*
X13997976Y-14152976D02*
X13997976Y-14191071D01*
X14074167Y-14152976D02*
X14074167Y-14191071D01*
X14369405Y-14429167D02*
X14359881Y-14419643D01*
X14340833Y-14391071D01*
X14331309Y-14372024D01*
X14321786Y-14343452D01*
X14312262Y-14295833D01*
X14312262Y-14257738D01*
X14321786Y-14210119D01*
X14331309Y-14181548D01*
X14340833Y-14162500D01*
X14359881Y-14133928D01*
X14369405Y-14124405D01*
X14531309Y-14152976D02*
X14493214Y-14152976D01*
X14474167Y-14162500D01*
X14464643Y-14172024D01*
X14445595Y-14200595D01*
X14436071Y-14238690D01*
X14436071Y-14314881D01*
X14445595Y-14333928D01*
X14455119Y-14343452D01*
X14474167Y-14352976D01*
X14512262Y-14352976D01*
X14531309Y-14343452D01*
X14540833Y-14333928D01*
X14550357Y-14314881D01*
X14550357Y-14267262D01*
X14540833Y-14248214D01*
X14531309Y-14238690D01*
X14512262Y-14229167D01*
X14474167Y-14229167D01*
X14455119Y-14238690D01*
X14445595Y-14248214D01*
X14436071Y-14267262D01*
X14788452Y-14352976D02*
X14788452Y-14152976D01*
X14874167Y-14352976D02*
X14874167Y-14248214D01*
X14864643Y-14229167D01*
X14845595Y-14219643D01*
X14817024Y-14219643D01*
X14797976Y-14229167D01*
X14788452Y-14238690D01*
X14997976Y-14352976D02*
X14978928Y-14343452D01*
X14969405Y-14333928D01*
X14959881Y-14314881D01*
X14959881Y-14257738D01*
X14969405Y-14238690D01*
X14978928Y-14229167D01*
X14997976Y-14219643D01*
X15026548Y-14219643D01*
X15045595Y-14229167D01*
X15055119Y-14238690D01*
X15064643Y-14257738D01*
X15064643Y-14314881D01*
X15055119Y-14333928D01*
X15045595Y-14343452D01*
X15026548Y-14352976D01*
X14997976Y-14352976D01*
X15178928Y-14352976D02*
X15159881Y-14343452D01*
X15150357Y-14324405D01*
X15150357Y-14152976D01*
X15331309Y-14343452D02*
X15312262Y-14352976D01*
X15274167Y-14352976D01*
X15255119Y-14343452D01*
X15245595Y-14324405D01*
X15245595Y-14248214D01*
X15255119Y-14229167D01*
X15274167Y-14219643D01*
X15312262Y-14219643D01*
X15331309Y-14229167D01*
X15340833Y-14248214D01*
X15340833Y-14267262D01*
X15245595Y-14286309D01*
X15417024Y-14343452D02*
X15436071Y-14352976D01*
X15474167Y-14352976D01*
X15493214Y-14343452D01*
X15502738Y-14324405D01*
X15502738Y-14314881D01*
X15493214Y-14295833D01*
X15474167Y-14286309D01*
X15445595Y-14286309D01*
X15426548Y-14276786D01*
X15417024Y-14257738D01*
X15417024Y-14248214D01*
X15426548Y-14229167D01*
X15445595Y-14219643D01*
X15474167Y-14219643D01*
X15493214Y-14229167D01*
X15569405Y-14429167D02*
X15578928Y-14419643D01*
X15597976Y-14391071D01*
X15607500Y-14372024D01*
X15617024Y-14343452D01*
X15626548Y-14295833D01*
X15626548Y-14257738D01*
X15617024Y-14210119D01*
X15607500Y-14181548D01*
X15597976Y-14162500D01*
X15578928Y-14133928D01*
X15569405Y-14124405D01*
D17*
X10712500Y-14484000D02*
X10797500Y-14569000D01*
X10797500Y-14484000D02*
X10712500Y-14569000D01*
X10755000Y-14484000D02*
X10755000Y-14569000D01*
X10712500Y-14526500D02*
X10797500Y-14526500D01*
D11*
X11093214Y-14416976D02*
X11112262Y-14416976D01*
X11131310Y-14426500D01*
X11140833Y-14436024D01*
X11150357Y-14455071D01*
X11159881Y-14493167D01*
X11159881Y-14540786D01*
X11150357Y-14578881D01*
X11140833Y-14597928D01*
X11131310Y-14607452D01*
X11112262Y-14616976D01*
X11093214Y-14616976D01*
X11074167Y-14607452D01*
X11064643Y-14597928D01*
X11055119Y-14578881D01*
X11045595Y-14540786D01*
X11045595Y-14493167D01*
X11055119Y-14455071D01*
X11064643Y-14436024D01*
X11074167Y-14426500D01*
X11093214Y-14416976D01*
X11245595Y-14597928D02*
X11255119Y-14607452D01*
X11245595Y-14616976D01*
X11236071Y-14607452D01*
X11245595Y-14597928D01*
X11245595Y-14616976D01*
X11369405Y-14502690D02*
X11350357Y-14493167D01*
X11340833Y-14483643D01*
X11331309Y-14464595D01*
X11331309Y-14455071D01*
X11340833Y-14436024D01*
X11350357Y-14426500D01*
X11369405Y-14416976D01*
X11407500Y-14416976D01*
X11426548Y-14426500D01*
X11436071Y-14436024D01*
X11445595Y-14455071D01*
X11445595Y-14464595D01*
X11436071Y-14483643D01*
X11426548Y-14493167D01*
X11407500Y-14502690D01*
X11369405Y-14502690D01*
X11350357Y-14512214D01*
X11340833Y-14521738D01*
X11331309Y-14540786D01*
X11331309Y-14578881D01*
X11340833Y-14597928D01*
X11350357Y-14607452D01*
X11369405Y-14616976D01*
X11407500Y-14616976D01*
X11426548Y-14607452D01*
X11436071Y-14597928D01*
X11445595Y-14578881D01*
X11445595Y-14540786D01*
X11436071Y-14521738D01*
X11426548Y-14512214D01*
X11407500Y-14502690D01*
X11626548Y-14416976D02*
X11531309Y-14416976D01*
X11521786Y-14512214D01*
X11531309Y-14502690D01*
X11550357Y-14493167D01*
X11597976Y-14493167D01*
X11617024Y-14502690D01*
X11626548Y-14512214D01*
X11636071Y-14531262D01*
X11636071Y-14578881D01*
X11626548Y-14597928D01*
X11617024Y-14607452D01*
X11597976Y-14616976D01*
X11550357Y-14616976D01*
X11531309Y-14607452D01*
X11521786Y-14597928D01*
X11759881Y-14416976D02*
X11778928Y-14416976D01*
X11797976Y-14426500D01*
X11807500Y-14436024D01*
X11817024Y-14455071D01*
X11826548Y-14493167D01*
X11826548Y-14540786D01*
X11817024Y-14578881D01*
X11807500Y-14597928D01*
X11797976Y-14607452D01*
X11778928Y-14616976D01*
X11759881Y-14616976D01*
X11740833Y-14607452D01*
X11731309Y-14597928D01*
X11721786Y-14578881D01*
X11712262Y-14540786D01*
X11712262Y-14493167D01*
X11721786Y-14455071D01*
X11731309Y-14436024D01*
X11740833Y-14426500D01*
X11759881Y-14416976D01*
X11912262Y-14616976D02*
X11912262Y-14483643D01*
X11912262Y-14502690D02*
X11921786Y-14493167D01*
X11940833Y-14483643D01*
X11969405Y-14483643D01*
X11988452Y-14493167D01*
X11997976Y-14512214D01*
X11997976Y-14616976D01*
X11997976Y-14512214D02*
X12007500Y-14493167D01*
X12026548Y-14483643D01*
X12055119Y-14483643D01*
X12074167Y-14493167D01*
X12083690Y-14512214D01*
X12083690Y-14616976D01*
X12178928Y-14616976D02*
X12178928Y-14483643D01*
X12178928Y-14502690D02*
X12188452Y-14493167D01*
X12207500Y-14483643D01*
X12236071Y-14483643D01*
X12255119Y-14493167D01*
X12264643Y-14512214D01*
X12264643Y-14616976D01*
X12264643Y-14512214D02*
X12274167Y-14493167D01*
X12293214Y-14483643D01*
X12321786Y-14483643D01*
X12340833Y-14493167D01*
X12350357Y-14512214D01*
X12350357Y-14616976D01*
X12740833Y-14407452D02*
X12569405Y-14664595D01*
X12997976Y-14416976D02*
X13017024Y-14416976D01*
X13036071Y-14426500D01*
X13045595Y-14436024D01*
X13055119Y-14455071D01*
X13064643Y-14493167D01*
X13064643Y-14540786D01*
X13055119Y-14578881D01*
X13045595Y-14597928D01*
X13036071Y-14607452D01*
X13017024Y-14616976D01*
X12997976Y-14616976D01*
X12978928Y-14607452D01*
X12969405Y-14597928D01*
X12959881Y-14578881D01*
X12950357Y-14540786D01*
X12950357Y-14493167D01*
X12959881Y-14455071D01*
X12969405Y-14436024D01*
X12978928Y-14426500D01*
X12997976Y-14416976D01*
X13150357Y-14597928D02*
X13159881Y-14607452D01*
X13150357Y-14616976D01*
X13140833Y-14607452D01*
X13150357Y-14597928D01*
X13150357Y-14616976D01*
X13283690Y-14416976D02*
X13302738Y-14416976D01*
X13321786Y-14426500D01*
X13331309Y-14436024D01*
X13340833Y-14455071D01*
X13350357Y-14493167D01*
X13350357Y-14540786D01*
X13340833Y-14578881D01*
X13331309Y-14597928D01*
X13321786Y-14607452D01*
X13302738Y-14616976D01*
X13283690Y-14616976D01*
X13264643Y-14607452D01*
X13255119Y-14597928D01*
X13245595Y-14578881D01*
X13236071Y-14540786D01*
X13236071Y-14493167D01*
X13245595Y-14455071D01*
X13255119Y-14436024D01*
X13264643Y-14426500D01*
X13283690Y-14416976D01*
X13417024Y-14416976D02*
X13540833Y-14416976D01*
X13474167Y-14493167D01*
X13502738Y-14493167D01*
X13521786Y-14502690D01*
X13531309Y-14512214D01*
X13540833Y-14531262D01*
X13540833Y-14578881D01*
X13531309Y-14597928D01*
X13521786Y-14607452D01*
X13502738Y-14616976D01*
X13445595Y-14616976D01*
X13426548Y-14607452D01*
X13417024Y-14597928D01*
X13607500Y-14416976D02*
X13731309Y-14416976D01*
X13664643Y-14493167D01*
X13693214Y-14493167D01*
X13712262Y-14502690D01*
X13721786Y-14512214D01*
X13731309Y-14531262D01*
X13731309Y-14578881D01*
X13721786Y-14597928D01*
X13712262Y-14607452D01*
X13693214Y-14616976D01*
X13636071Y-14616976D01*
X13617024Y-14607452D01*
X13607500Y-14597928D01*
X13912262Y-14416976D02*
X13817024Y-14416976D01*
X13807500Y-14512214D01*
X13817024Y-14502690D01*
X13836071Y-14493167D01*
X13883690Y-14493167D01*
X13902738Y-14502690D01*
X13912262Y-14512214D01*
X13921786Y-14531262D01*
X13921786Y-14578881D01*
X13912262Y-14597928D01*
X13902738Y-14607452D01*
X13883690Y-14616976D01*
X13836071Y-14616976D01*
X13817024Y-14607452D01*
X13807500Y-14597928D01*
X13997976Y-14416976D02*
X13997976Y-14455071D01*
X14074167Y-14416976D02*
X14074167Y-14455071D01*
X14369405Y-14693167D02*
X14359881Y-14683643D01*
X14340833Y-14655071D01*
X14331309Y-14636024D01*
X14321786Y-14607452D01*
X14312262Y-14559833D01*
X14312262Y-14521738D01*
X14321786Y-14474119D01*
X14331309Y-14445548D01*
X14340833Y-14426500D01*
X14359881Y-14397928D01*
X14369405Y-14388405D01*
X14436071Y-14436024D02*
X14445595Y-14426500D01*
X14464643Y-14416976D01*
X14512262Y-14416976D01*
X14531309Y-14426500D01*
X14540833Y-14436024D01*
X14550357Y-14455071D01*
X14550357Y-14474119D01*
X14540833Y-14502690D01*
X14426548Y-14616976D01*
X14550357Y-14616976D01*
X14788452Y-14616976D02*
X14788452Y-14416976D01*
X14874167Y-14616976D02*
X14874167Y-14512214D01*
X14864643Y-14493167D01*
X14845595Y-14483643D01*
X14817024Y-14483643D01*
X14797976Y-14493167D01*
X14788452Y-14502690D01*
X14997976Y-14616976D02*
X14978928Y-14607452D01*
X14969405Y-14597928D01*
X14959881Y-14578881D01*
X14959881Y-14521738D01*
X14969405Y-14502690D01*
X14978928Y-14493167D01*
X14997976Y-14483643D01*
X15026548Y-14483643D01*
X15045595Y-14493167D01*
X15055119Y-14502690D01*
X15064643Y-14521738D01*
X15064643Y-14578881D01*
X15055119Y-14597928D01*
X15045595Y-14607452D01*
X15026548Y-14616976D01*
X14997976Y-14616976D01*
X15178928Y-14616976D02*
X15159881Y-14607452D01*
X15150357Y-14588405D01*
X15150357Y-14416976D01*
X15331309Y-14607452D02*
X15312262Y-14616976D01*
X15274167Y-14616976D01*
X15255119Y-14607452D01*
X15245595Y-14588405D01*
X15245595Y-14512214D01*
X15255119Y-14493167D01*
X15274167Y-14483643D01*
X15312262Y-14483643D01*
X15331309Y-14493167D01*
X15340833Y-14512214D01*
X15340833Y-14531262D01*
X15245595Y-14550309D01*
X15417024Y-14607452D02*
X15436071Y-14616976D01*
X15474167Y-14616976D01*
X15493214Y-14607452D01*
X15502738Y-14588405D01*
X15502738Y-14578881D01*
X15493214Y-14559833D01*
X15474167Y-14550309D01*
X15445595Y-14550309D01*
X15426548Y-14540786D01*
X15417024Y-14521738D01*
X15417024Y-14512214D01*
X15426548Y-14493167D01*
X15445595Y-14483643D01*
X15474167Y-14483643D01*
X15493214Y-14493167D01*
X15569405Y-14693167D02*
X15578928Y-14683643D01*
X15597976Y-14655071D01*
X15607500Y-14636024D01*
X15617024Y-14607452D01*
X15626548Y-14559833D01*
X15626548Y-14521738D01*
X15617024Y-14474119D01*
X15607500Y-14445548D01*
X15597976Y-14426500D01*
X15578928Y-14397928D01*
X15569405Y-14388405D01*
D18*
X10697500Y-14740500D02*
X10797500Y-14840500D01*
X10797500Y-14740500D02*
X10697500Y-14840500D01*
X10782856Y-14825856D02*
X10782856Y-14755144D01*
X10712144Y-14755144D01*
X10712144Y-14825856D01*
X10782856Y-14825856D01*
D11*
X11159881Y-14880976D02*
X11045595Y-14880976D01*
X11102738Y-14880976D02*
X11102738Y-14680976D01*
X11083690Y-14709548D01*
X11064643Y-14728595D01*
X11045595Y-14738119D01*
X11245595Y-14861928D02*
X11255119Y-14871452D01*
X11245595Y-14880976D01*
X11236071Y-14871452D01*
X11245595Y-14861928D01*
X11245595Y-14880976D01*
X11378928Y-14680976D02*
X11397976Y-14680976D01*
X11417024Y-14690500D01*
X11426548Y-14700024D01*
X11436071Y-14719071D01*
X11445595Y-14757167D01*
X11445595Y-14804786D01*
X11436071Y-14842881D01*
X11426548Y-14861928D01*
X11417024Y-14871452D01*
X11397976Y-14880976D01*
X11378928Y-14880976D01*
X11359881Y-14871452D01*
X11350357Y-14861928D01*
X11340833Y-14842881D01*
X11331309Y-14804786D01*
X11331309Y-14757167D01*
X11340833Y-14719071D01*
X11350357Y-14700024D01*
X11359881Y-14690500D01*
X11378928Y-14680976D01*
X11569405Y-14680976D02*
X11588452Y-14680976D01*
X11607500Y-14690500D01*
X11617024Y-14700024D01*
X11626548Y-14719071D01*
X11636071Y-14757167D01*
X11636071Y-14804786D01*
X11626548Y-14842881D01*
X11617024Y-14861928D01*
X11607500Y-14871452D01*
X11588452Y-14880976D01*
X11569405Y-14880976D01*
X11550357Y-14871452D01*
X11540833Y-14861928D01*
X11531309Y-14842881D01*
X11521786Y-14804786D01*
X11521786Y-14757167D01*
X11531309Y-14719071D01*
X11540833Y-14700024D01*
X11550357Y-14690500D01*
X11569405Y-14680976D01*
X11759881Y-14680976D02*
X11778928Y-14680976D01*
X11797976Y-14690500D01*
X11807500Y-14700024D01*
X11817024Y-14719071D01*
X11826548Y-14757167D01*
X11826548Y-14804786D01*
X11817024Y-14842881D01*
X11807500Y-14861928D01*
X11797976Y-14871452D01*
X11778928Y-14880976D01*
X11759881Y-14880976D01*
X11740833Y-14871452D01*
X11731309Y-14861928D01*
X11721786Y-14842881D01*
X11712262Y-14804786D01*
X11712262Y-14757167D01*
X11721786Y-14719071D01*
X11731309Y-14700024D01*
X11740833Y-14690500D01*
X11759881Y-14680976D01*
X11912262Y-14880976D02*
X11912262Y-14747643D01*
X11912262Y-14766690D02*
X11921786Y-14757167D01*
X11940833Y-14747643D01*
X11969405Y-14747643D01*
X11988452Y-14757167D01*
X11997976Y-14776214D01*
X11997976Y-14880976D01*
X11997976Y-14776214D02*
X12007500Y-14757167D01*
X12026548Y-14747643D01*
X12055119Y-14747643D01*
X12074167Y-14757167D01*
X12083690Y-14776214D01*
X12083690Y-14880976D01*
X12178928Y-14880976D02*
X12178928Y-14747643D01*
X12178928Y-14766690D02*
X12188452Y-14757167D01*
X12207500Y-14747643D01*
X12236071Y-14747643D01*
X12255119Y-14757167D01*
X12264643Y-14776214D01*
X12264643Y-14880976D01*
X12264643Y-14776214D02*
X12274167Y-14757167D01*
X12293214Y-14747643D01*
X12321786Y-14747643D01*
X12340833Y-14757167D01*
X12350357Y-14776214D01*
X12350357Y-14880976D01*
X12740833Y-14671452D02*
X12569405Y-14928595D01*
X12997976Y-14680976D02*
X13017024Y-14680976D01*
X13036071Y-14690500D01*
X13045595Y-14700024D01*
X13055119Y-14719071D01*
X13064643Y-14757167D01*
X13064643Y-14804786D01*
X13055119Y-14842881D01*
X13045595Y-14861928D01*
X13036071Y-14871452D01*
X13017024Y-14880976D01*
X12997976Y-14880976D01*
X12978928Y-14871452D01*
X12969405Y-14861928D01*
X12959881Y-14842881D01*
X12950357Y-14804786D01*
X12950357Y-14757167D01*
X12959881Y-14719071D01*
X12969405Y-14700024D01*
X12978928Y-14690500D01*
X12997976Y-14680976D01*
X13150357Y-14861928D02*
X13159881Y-14871452D01*
X13150357Y-14880976D01*
X13140833Y-14871452D01*
X13150357Y-14861928D01*
X13150357Y-14880976D01*
X13283690Y-14680976D02*
X13302738Y-14680976D01*
X13321786Y-14690500D01*
X13331309Y-14700024D01*
X13340833Y-14719071D01*
X13350357Y-14757167D01*
X13350357Y-14804786D01*
X13340833Y-14842881D01*
X13331309Y-14861928D01*
X13321786Y-14871452D01*
X13302738Y-14880976D01*
X13283690Y-14880976D01*
X13264643Y-14871452D01*
X13255119Y-14861928D01*
X13245595Y-14842881D01*
X13236071Y-14804786D01*
X13236071Y-14757167D01*
X13245595Y-14719071D01*
X13255119Y-14700024D01*
X13264643Y-14690500D01*
X13283690Y-14680976D01*
X13417024Y-14680976D02*
X13540833Y-14680976D01*
X13474167Y-14757167D01*
X13502738Y-14757167D01*
X13521786Y-14766690D01*
X13531309Y-14776214D01*
X13540833Y-14795262D01*
X13540833Y-14842881D01*
X13531309Y-14861928D01*
X13521786Y-14871452D01*
X13502738Y-14880976D01*
X13445595Y-14880976D01*
X13426548Y-14871452D01*
X13417024Y-14861928D01*
X13636071Y-14880976D02*
X13674167Y-14880976D01*
X13693214Y-14871452D01*
X13702738Y-14861928D01*
X13721786Y-14833357D01*
X13731309Y-14795262D01*
X13731309Y-14719071D01*
X13721786Y-14700024D01*
X13712262Y-14690500D01*
X13693214Y-14680976D01*
X13655119Y-14680976D01*
X13636071Y-14690500D01*
X13626548Y-14700024D01*
X13617024Y-14719071D01*
X13617024Y-14766690D01*
X13626548Y-14785738D01*
X13636071Y-14795262D01*
X13655119Y-14804786D01*
X13693214Y-14804786D01*
X13712262Y-14795262D01*
X13721786Y-14785738D01*
X13731309Y-14766690D01*
X13902738Y-14747643D02*
X13902738Y-14880976D01*
X13855119Y-14671452D02*
X13807500Y-14814309D01*
X13931309Y-14814309D01*
X13997976Y-14680976D02*
X13997976Y-14719071D01*
X14074167Y-14680976D02*
X14074167Y-14719071D01*
X14369405Y-14957167D02*
X14359881Y-14947643D01*
X14340833Y-14919071D01*
X14331309Y-14900024D01*
X14321786Y-14871452D01*
X14312262Y-14823833D01*
X14312262Y-14785738D01*
X14321786Y-14738119D01*
X14331309Y-14709548D01*
X14340833Y-14690500D01*
X14359881Y-14661928D01*
X14369405Y-14652405D01*
X14474167Y-14766690D02*
X14455119Y-14757167D01*
X14445595Y-14747643D01*
X14436071Y-14728595D01*
X14436071Y-14719071D01*
X14445595Y-14700024D01*
X14455119Y-14690500D01*
X14474167Y-14680976D01*
X14512262Y-14680976D01*
X14531309Y-14690500D01*
X14540833Y-14700024D01*
X14550357Y-14719071D01*
X14550357Y-14728595D01*
X14540833Y-14747643D01*
X14531309Y-14757167D01*
X14512262Y-14766690D01*
X14474167Y-14766690D01*
X14455119Y-14776214D01*
X14445595Y-14785738D01*
X14436071Y-14804786D01*
X14436071Y-14842881D01*
X14445595Y-14861928D01*
X14455119Y-14871452D01*
X14474167Y-14880976D01*
X14512262Y-14880976D01*
X14531309Y-14871452D01*
X14540833Y-14861928D01*
X14550357Y-14842881D01*
X14550357Y-14804786D01*
X14540833Y-14785738D01*
X14531309Y-14776214D01*
X14512262Y-14766690D01*
X14721786Y-14680976D02*
X14683690Y-14680976D01*
X14664643Y-14690500D01*
X14655119Y-14700024D01*
X14636071Y-14728595D01*
X14626548Y-14766690D01*
X14626548Y-14842881D01*
X14636071Y-14861928D01*
X14645595Y-14871452D01*
X14664643Y-14880976D01*
X14702738Y-14880976D01*
X14721786Y-14871452D01*
X14731309Y-14861928D01*
X14740833Y-14842881D01*
X14740833Y-14795262D01*
X14731309Y-14776214D01*
X14721786Y-14766690D01*
X14702738Y-14757167D01*
X14664643Y-14757167D01*
X14645595Y-14766690D01*
X14636071Y-14776214D01*
X14626548Y-14795262D01*
X14978928Y-14880976D02*
X14978928Y-14680976D01*
X15064643Y-14880976D02*
X15064643Y-14776214D01*
X15055119Y-14757167D01*
X15036071Y-14747643D01*
X15007500Y-14747643D01*
X14988452Y-14757167D01*
X14978928Y-14766690D01*
X15188452Y-14880976D02*
X15169405Y-14871452D01*
X15159881Y-14861928D01*
X15150357Y-14842881D01*
X15150357Y-14785738D01*
X15159881Y-14766690D01*
X15169405Y-14757167D01*
X15188452Y-14747643D01*
X15217024Y-14747643D01*
X15236071Y-14757167D01*
X15245595Y-14766690D01*
X15255119Y-14785738D01*
X15255119Y-14842881D01*
X15245595Y-14861928D01*
X15236071Y-14871452D01*
X15217024Y-14880976D01*
X15188452Y-14880976D01*
X15369405Y-14880976D02*
X15350357Y-14871452D01*
X15340833Y-14852405D01*
X15340833Y-14680976D01*
X15521786Y-14871452D02*
X15502738Y-14880976D01*
X15464643Y-14880976D01*
X15445595Y-14871452D01*
X15436071Y-14852405D01*
X15436071Y-14776214D01*
X15445595Y-14757167D01*
X15464643Y-14747643D01*
X15502738Y-14747643D01*
X15521786Y-14757167D01*
X15531309Y-14776214D01*
X15531309Y-14795262D01*
X15436071Y-14814309D01*
X15607500Y-14871452D02*
X15626548Y-14880976D01*
X15664643Y-14880976D01*
X15683690Y-14871452D01*
X15693214Y-14852405D01*
X15693214Y-14842881D01*
X15683690Y-14823833D01*
X15664643Y-14814309D01*
X15636071Y-14814309D01*
X15617024Y-14804786D01*
X15607500Y-14785738D01*
X15607500Y-14776214D01*
X15617024Y-14757167D01*
X15636071Y-14747643D01*
X15664643Y-14747643D01*
X15683690Y-14757167D01*
X15759881Y-14957167D02*
X15769405Y-14947643D01*
X15788452Y-14919071D01*
X15797976Y-14900024D01*
X15807500Y-14871452D01*
X15817024Y-14823833D01*
X15817024Y-14785738D01*
X15807500Y-14738119D01*
X15797976Y-14709548D01*
X15788452Y-14690500D01*
X15769405Y-14661928D01*
X15759881Y-14652405D01*
M02*
