G04 #@! TF.GenerationSoftware,KiCad,Pcbnew,(5.1.10)-1*
G04 #@! TF.CreationDate,2021-08-01T20:36:25+02:00*
G04 #@! TF.ProjectId,Msp-Board,4d73702d-426f-4617-9264-2e6b69636164,rev?*
G04 #@! TF.SameCoordinates,Original*
G04 #@! TF.FileFunction,Copper,L2,Bot*
G04 #@! TF.FilePolarity,Positive*
%FSLAX46Y46*%
G04 Gerber Fmt 4.6, Leading zero omitted, Abs format (unit mm)*
G04 Created by KiCad (PCBNEW (5.1.10)-1) date 2021-08-01 20:36:25*
%MOMM*%
%LPD*%
G01*
G04 APERTURE LIST*
G04 #@! TA.AperFunction,NonConductor*
%ADD10C,0.300000*%
G04 #@! TD*
G04 #@! TA.AperFunction,EtchedComponent*
%ADD11C,0.100000*%
G04 #@! TD*
G04 #@! TA.AperFunction,ComponentPad*
%ADD12O,1.350000X1.350000*%
G04 #@! TD*
G04 #@! TA.AperFunction,ComponentPad*
%ADD13R,1.350000X1.350000*%
G04 #@! TD*
G04 #@! TA.AperFunction,ComponentPad*
%ADD14O,1.700000X1.700000*%
G04 #@! TD*
G04 #@! TA.AperFunction,ComponentPad*
%ADD15R,1.700000X1.700000*%
G04 #@! TD*
G04 #@! TA.AperFunction,ComponentPad*
%ADD16C,1.450000*%
G04 #@! TD*
G04 #@! TA.AperFunction,ComponentPad*
%ADD17O,1.900000X1.200000*%
G04 #@! TD*
G04 #@! TA.AperFunction,ComponentPad*
%ADD18C,0.600000*%
G04 #@! TD*
G04 #@! TA.AperFunction,ComponentPad*
%ADD19C,1.700000*%
G04 #@! TD*
G04 #@! TA.AperFunction,ViaPad*
%ADD20C,0.600000*%
G04 #@! TD*
G04 #@! TA.AperFunction,ViaPad*
%ADD21C,1.000000*%
G04 #@! TD*
G04 #@! TA.AperFunction,ViaPad*
%ADD22C,0.400000*%
G04 #@! TD*
G04 #@! TA.AperFunction,ViaPad*
%ADD23C,0.800000*%
G04 #@! TD*
G04 #@! TA.AperFunction,Conductor*
%ADD24C,0.387000*%
G04 #@! TD*
G04 #@! TA.AperFunction,Conductor*
%ADD25C,0.381000*%
G04 #@! TD*
G04 #@! TA.AperFunction,Conductor*
%ADD26C,0.200000*%
G04 #@! TD*
G04 #@! TA.AperFunction,Conductor*
%ADD27C,0.254000*%
G04 #@! TD*
G04 #@! TA.AperFunction,Conductor*
%ADD28C,1.000000*%
G04 #@! TD*
G04 #@! TA.AperFunction,Conductor*
%ADD29C,0.508000*%
G04 #@! TD*
G04 #@! TA.AperFunction,Conductor*
%ADD30C,1.500000*%
G04 #@! TD*
G04 #@! TA.AperFunction,Conductor*
%ADD31C,0.100000*%
G04 #@! TD*
G04 APERTURE END LIST*
D10*
X133950000Y-109595714D02*
X133878571Y-109667142D01*
X133950000Y-109738571D01*
X134021428Y-109667142D01*
X133950000Y-109595714D01*
X133950000Y-109738571D01*
D11*
G36*
X125100000Y-105750000D02*
G01*
X126300000Y-105750000D01*
X126300000Y-106350000D01*
X125100000Y-106350000D01*
X125100000Y-105750000D01*
G37*
D12*
X169850000Y-105050000D03*
X169850000Y-103050000D03*
X169850000Y-101050000D03*
D13*
X165350000Y-101050000D03*
D12*
X165350000Y-103050000D03*
X165350000Y-105050000D03*
D14*
X125140000Y-113000000D03*
D15*
X122600000Y-113000000D03*
D14*
X125140000Y-109350000D03*
D15*
X122600000Y-109350000D03*
D16*
X172847500Y-105400000D03*
X172847500Y-100500000D03*
D17*
X175547500Y-106550000D03*
X175547500Y-99350000D03*
D14*
X163060000Y-89800000D03*
D15*
X165600000Y-89800000D03*
D14*
X160080000Y-109000000D03*
X157540000Y-109000000D03*
D15*
X155000000Y-109000000D03*
D14*
X160080000Y-112600000D03*
X157540000Y-112600000D03*
D15*
X155000000Y-112600000D03*
D14*
X160080000Y-97000000D03*
X157540000Y-97000000D03*
D15*
X155000000Y-97000000D03*
D14*
X160080000Y-93400000D03*
X157540000Y-93400000D03*
D15*
X155000000Y-93400000D03*
D18*
X126300000Y-106050000D03*
X125100000Y-106050000D03*
D14*
X129590000Y-121053000D03*
X127050000Y-121053000D03*
X124510000Y-121053000D03*
X121970000Y-121053000D03*
X119430000Y-121053000D03*
X116890000Y-121053000D03*
X114350000Y-121053000D03*
D15*
X111810000Y-121053000D03*
D14*
X129590000Y-84985000D03*
X127050000Y-84985000D03*
X124510000Y-84985000D03*
X121970000Y-84985000D03*
X119430000Y-84985000D03*
X116890000Y-84985000D03*
X114350000Y-84985000D03*
D15*
X111810000Y-84985000D03*
D14*
X175310000Y-84985000D03*
X172770000Y-84985000D03*
X170230000Y-84985000D03*
X167690000Y-84985000D03*
X165150000Y-84985000D03*
X162610000Y-84985000D03*
X160070000Y-84985000D03*
D15*
X157530000Y-84985000D03*
D14*
X152450000Y-84985000D03*
X149910000Y-84985000D03*
X147370000Y-84985000D03*
X144830000Y-84985000D03*
X142290000Y-84985000D03*
X139750000Y-84985000D03*
X137210000Y-84985000D03*
D15*
X134670000Y-84985000D03*
D14*
X175310000Y-121053000D03*
X172770000Y-121053000D03*
X170230000Y-121053000D03*
X167690000Y-121053000D03*
X165150000Y-121053000D03*
X162610000Y-121053000D03*
X160070000Y-121053000D03*
D15*
X157530000Y-121053000D03*
D14*
X152450000Y-121053000D03*
X149910000Y-121053000D03*
X147370000Y-121053000D03*
X144830000Y-121053000D03*
X142290000Y-121053000D03*
X139750000Y-121053000D03*
X137210000Y-121053000D03*
D15*
X134670000Y-121053000D03*
G04 #@! TA.AperFunction,SMDPad,CuDef*
G36*
G01*
X141975000Y-109450000D02*
X141975000Y-109250000D01*
G75*
G02*
X142075000Y-109150000I100000J0D01*
G01*
X143350000Y-109150000D01*
G75*
G02*
X143450000Y-109250000I0J-100000D01*
G01*
X143450000Y-109450000D01*
G75*
G02*
X143350000Y-109550000I-100000J0D01*
G01*
X142075000Y-109550000D01*
G75*
G02*
X141975000Y-109450000I0J100000D01*
G01*
G37*
G04 #@! TD.AperFunction*
G04 #@! TA.AperFunction,SMDPad,CuDef*
G36*
G01*
X141975000Y-108800000D02*
X141975000Y-108600000D01*
G75*
G02*
X142075000Y-108500000I100000J0D01*
G01*
X143350000Y-108500000D01*
G75*
G02*
X143450000Y-108600000I0J-100000D01*
G01*
X143450000Y-108800000D01*
G75*
G02*
X143350000Y-108900000I-100000J0D01*
G01*
X142075000Y-108900000D01*
G75*
G02*
X141975000Y-108800000I0J100000D01*
G01*
G37*
G04 #@! TD.AperFunction*
G04 #@! TA.AperFunction,SMDPad,CuDef*
G36*
G01*
X141975000Y-108150000D02*
X141975000Y-107950000D01*
G75*
G02*
X142075000Y-107850000I100000J0D01*
G01*
X143350000Y-107850000D01*
G75*
G02*
X143450000Y-107950000I0J-100000D01*
G01*
X143450000Y-108150000D01*
G75*
G02*
X143350000Y-108250000I-100000J0D01*
G01*
X142075000Y-108250000D01*
G75*
G02*
X141975000Y-108150000I0J100000D01*
G01*
G37*
G04 #@! TD.AperFunction*
G04 #@! TA.AperFunction,SMDPad,CuDef*
G36*
G01*
X141975000Y-107500000D02*
X141975000Y-107300000D01*
G75*
G02*
X142075000Y-107200000I100000J0D01*
G01*
X143350000Y-107200000D01*
G75*
G02*
X143450000Y-107300000I0J-100000D01*
G01*
X143450000Y-107500000D01*
G75*
G02*
X143350000Y-107600000I-100000J0D01*
G01*
X142075000Y-107600000D01*
G75*
G02*
X141975000Y-107500000I0J100000D01*
G01*
G37*
G04 #@! TD.AperFunction*
G04 #@! TA.AperFunction,SMDPad,CuDef*
G36*
G01*
X141975000Y-106850000D02*
X141975000Y-106650000D01*
G75*
G02*
X142075000Y-106550000I100000J0D01*
G01*
X143350000Y-106550000D01*
G75*
G02*
X143450000Y-106650000I0J-100000D01*
G01*
X143450000Y-106850000D01*
G75*
G02*
X143350000Y-106950000I-100000J0D01*
G01*
X142075000Y-106950000D01*
G75*
G02*
X141975000Y-106850000I0J100000D01*
G01*
G37*
G04 #@! TD.AperFunction*
G04 #@! TA.AperFunction,SMDPad,CuDef*
G36*
G01*
X141975000Y-106200000D02*
X141975000Y-106000000D01*
G75*
G02*
X142075000Y-105900000I100000J0D01*
G01*
X143350000Y-105900000D01*
G75*
G02*
X143450000Y-106000000I0J-100000D01*
G01*
X143450000Y-106200000D01*
G75*
G02*
X143350000Y-106300000I-100000J0D01*
G01*
X142075000Y-106300000D01*
G75*
G02*
X141975000Y-106200000I0J100000D01*
G01*
G37*
G04 #@! TD.AperFunction*
G04 #@! TA.AperFunction,SMDPad,CuDef*
G36*
G01*
X141975000Y-105550000D02*
X141975000Y-105350000D01*
G75*
G02*
X142075000Y-105250000I100000J0D01*
G01*
X143350000Y-105250000D01*
G75*
G02*
X143450000Y-105350000I0J-100000D01*
G01*
X143450000Y-105550000D01*
G75*
G02*
X143350000Y-105650000I-100000J0D01*
G01*
X142075000Y-105650000D01*
G75*
G02*
X141975000Y-105550000I0J100000D01*
G01*
G37*
G04 #@! TD.AperFunction*
G04 #@! TA.AperFunction,SMDPad,CuDef*
G36*
G01*
X141975000Y-104900000D02*
X141975000Y-104700000D01*
G75*
G02*
X142075000Y-104600000I100000J0D01*
G01*
X143350000Y-104600000D01*
G75*
G02*
X143450000Y-104700000I0J-100000D01*
G01*
X143450000Y-104900000D01*
G75*
G02*
X143350000Y-105000000I-100000J0D01*
G01*
X142075000Y-105000000D01*
G75*
G02*
X141975000Y-104900000I0J100000D01*
G01*
G37*
G04 #@! TD.AperFunction*
G04 #@! TA.AperFunction,SMDPad,CuDef*
G36*
G01*
X141975000Y-104250000D02*
X141975000Y-104050000D01*
G75*
G02*
X142075000Y-103950000I100000J0D01*
G01*
X143350000Y-103950000D01*
G75*
G02*
X143450000Y-104050000I0J-100000D01*
G01*
X143450000Y-104250000D01*
G75*
G02*
X143350000Y-104350000I-100000J0D01*
G01*
X142075000Y-104350000D01*
G75*
G02*
X141975000Y-104250000I0J100000D01*
G01*
G37*
G04 #@! TD.AperFunction*
G04 #@! TA.AperFunction,SMDPad,CuDef*
G36*
G01*
X141975000Y-103600000D02*
X141975000Y-103400000D01*
G75*
G02*
X142075000Y-103300000I100000J0D01*
G01*
X143350000Y-103300000D01*
G75*
G02*
X143450000Y-103400000I0J-100000D01*
G01*
X143450000Y-103600000D01*
G75*
G02*
X143350000Y-103700000I-100000J0D01*
G01*
X142075000Y-103700000D01*
G75*
G02*
X141975000Y-103600000I0J100000D01*
G01*
G37*
G04 #@! TD.AperFunction*
G04 #@! TA.AperFunction,SMDPad,CuDef*
G36*
G01*
X141975000Y-102950000D02*
X141975000Y-102750000D01*
G75*
G02*
X142075000Y-102650000I100000J0D01*
G01*
X143350000Y-102650000D01*
G75*
G02*
X143450000Y-102750000I0J-100000D01*
G01*
X143450000Y-102950000D01*
G75*
G02*
X143350000Y-103050000I-100000J0D01*
G01*
X142075000Y-103050000D01*
G75*
G02*
X141975000Y-102950000I0J100000D01*
G01*
G37*
G04 #@! TD.AperFunction*
G04 #@! TA.AperFunction,SMDPad,CuDef*
G36*
G01*
X141975000Y-102300000D02*
X141975000Y-102100000D01*
G75*
G02*
X142075000Y-102000000I100000J0D01*
G01*
X143350000Y-102000000D01*
G75*
G02*
X143450000Y-102100000I0J-100000D01*
G01*
X143450000Y-102300000D01*
G75*
G02*
X143350000Y-102400000I-100000J0D01*
G01*
X142075000Y-102400000D01*
G75*
G02*
X141975000Y-102300000I0J100000D01*
G01*
G37*
G04 #@! TD.AperFunction*
G04 #@! TA.AperFunction,SMDPad,CuDef*
G36*
G01*
X141975000Y-101650000D02*
X141975000Y-101450000D01*
G75*
G02*
X142075000Y-101350000I100000J0D01*
G01*
X143350000Y-101350000D01*
G75*
G02*
X143450000Y-101450000I0J-100000D01*
G01*
X143450000Y-101650000D01*
G75*
G02*
X143350000Y-101750000I-100000J0D01*
G01*
X142075000Y-101750000D01*
G75*
G02*
X141975000Y-101650000I0J100000D01*
G01*
G37*
G04 #@! TD.AperFunction*
G04 #@! TA.AperFunction,SMDPad,CuDef*
G36*
G01*
X141975000Y-101000000D02*
X141975000Y-100800000D01*
G75*
G02*
X142075000Y-100700000I100000J0D01*
G01*
X143350000Y-100700000D01*
G75*
G02*
X143450000Y-100800000I0J-100000D01*
G01*
X143450000Y-101000000D01*
G75*
G02*
X143350000Y-101100000I-100000J0D01*
G01*
X142075000Y-101100000D01*
G75*
G02*
X141975000Y-101000000I0J100000D01*
G01*
G37*
G04 #@! TD.AperFunction*
G04 #@! TA.AperFunction,SMDPad,CuDef*
G36*
G01*
X141975000Y-100350000D02*
X141975000Y-100150000D01*
G75*
G02*
X142075000Y-100050000I100000J0D01*
G01*
X143350000Y-100050000D01*
G75*
G02*
X143450000Y-100150000I0J-100000D01*
G01*
X143450000Y-100350000D01*
G75*
G02*
X143350000Y-100450000I-100000J0D01*
G01*
X142075000Y-100450000D01*
G75*
G02*
X141975000Y-100350000I0J100000D01*
G01*
G37*
G04 #@! TD.AperFunction*
G04 #@! TA.AperFunction,SMDPad,CuDef*
G36*
G01*
X141975000Y-99700000D02*
X141975000Y-99500000D01*
G75*
G02*
X142075000Y-99400000I100000J0D01*
G01*
X143350000Y-99400000D01*
G75*
G02*
X143450000Y-99500000I0J-100000D01*
G01*
X143450000Y-99700000D01*
G75*
G02*
X143350000Y-99800000I-100000J0D01*
G01*
X142075000Y-99800000D01*
G75*
G02*
X141975000Y-99700000I0J100000D01*
G01*
G37*
G04 #@! TD.AperFunction*
G04 #@! TA.AperFunction,SMDPad,CuDef*
G36*
G01*
X141975000Y-99050000D02*
X141975000Y-98850000D01*
G75*
G02*
X142075000Y-98750000I100000J0D01*
G01*
X143350000Y-98750000D01*
G75*
G02*
X143450000Y-98850000I0J-100000D01*
G01*
X143450000Y-99050000D01*
G75*
G02*
X143350000Y-99150000I-100000J0D01*
G01*
X142075000Y-99150000D01*
G75*
G02*
X141975000Y-99050000I0J100000D01*
G01*
G37*
G04 #@! TD.AperFunction*
G04 #@! TA.AperFunction,SMDPad,CuDef*
G36*
G01*
X141975000Y-98400000D02*
X141975000Y-98200000D01*
G75*
G02*
X142075000Y-98100000I100000J0D01*
G01*
X143350000Y-98100000D01*
G75*
G02*
X143450000Y-98200000I0J-100000D01*
G01*
X143450000Y-98400000D01*
G75*
G02*
X143350000Y-98500000I-100000J0D01*
G01*
X142075000Y-98500000D01*
G75*
G02*
X141975000Y-98400000I0J100000D01*
G01*
G37*
G04 #@! TD.AperFunction*
G04 #@! TA.AperFunction,SMDPad,CuDef*
G36*
G01*
X141975000Y-97750000D02*
X141975000Y-97550000D01*
G75*
G02*
X142075000Y-97450000I100000J0D01*
G01*
X143350000Y-97450000D01*
G75*
G02*
X143450000Y-97550000I0J-100000D01*
G01*
X143450000Y-97750000D01*
G75*
G02*
X143350000Y-97850000I-100000J0D01*
G01*
X142075000Y-97850000D01*
G75*
G02*
X141975000Y-97750000I0J100000D01*
G01*
G37*
G04 #@! TD.AperFunction*
G04 #@! TA.AperFunction,SMDPad,CuDef*
G36*
G01*
X134550000Y-97750000D02*
X134550000Y-97550000D01*
G75*
G02*
X134650000Y-97450000I100000J0D01*
G01*
X135925000Y-97450000D01*
G75*
G02*
X136025000Y-97550000I0J-100000D01*
G01*
X136025000Y-97750000D01*
G75*
G02*
X135925000Y-97850000I-100000J0D01*
G01*
X134650000Y-97850000D01*
G75*
G02*
X134550000Y-97750000I0J100000D01*
G01*
G37*
G04 #@! TD.AperFunction*
G04 #@! TA.AperFunction,SMDPad,CuDef*
G36*
G01*
X134550000Y-98400000D02*
X134550000Y-98200000D01*
G75*
G02*
X134650000Y-98100000I100000J0D01*
G01*
X135925000Y-98100000D01*
G75*
G02*
X136025000Y-98200000I0J-100000D01*
G01*
X136025000Y-98400000D01*
G75*
G02*
X135925000Y-98500000I-100000J0D01*
G01*
X134650000Y-98500000D01*
G75*
G02*
X134550000Y-98400000I0J100000D01*
G01*
G37*
G04 #@! TD.AperFunction*
G04 #@! TA.AperFunction,SMDPad,CuDef*
G36*
G01*
X134550000Y-99050000D02*
X134550000Y-98850000D01*
G75*
G02*
X134650000Y-98750000I100000J0D01*
G01*
X135925000Y-98750000D01*
G75*
G02*
X136025000Y-98850000I0J-100000D01*
G01*
X136025000Y-99050000D01*
G75*
G02*
X135925000Y-99150000I-100000J0D01*
G01*
X134650000Y-99150000D01*
G75*
G02*
X134550000Y-99050000I0J100000D01*
G01*
G37*
G04 #@! TD.AperFunction*
G04 #@! TA.AperFunction,SMDPad,CuDef*
G36*
G01*
X134550000Y-99700000D02*
X134550000Y-99500000D01*
G75*
G02*
X134650000Y-99400000I100000J0D01*
G01*
X135925000Y-99400000D01*
G75*
G02*
X136025000Y-99500000I0J-100000D01*
G01*
X136025000Y-99700000D01*
G75*
G02*
X135925000Y-99800000I-100000J0D01*
G01*
X134650000Y-99800000D01*
G75*
G02*
X134550000Y-99700000I0J100000D01*
G01*
G37*
G04 #@! TD.AperFunction*
G04 #@! TA.AperFunction,SMDPad,CuDef*
G36*
G01*
X134550000Y-100350000D02*
X134550000Y-100150000D01*
G75*
G02*
X134650000Y-100050000I100000J0D01*
G01*
X135925000Y-100050000D01*
G75*
G02*
X136025000Y-100150000I0J-100000D01*
G01*
X136025000Y-100350000D01*
G75*
G02*
X135925000Y-100450000I-100000J0D01*
G01*
X134650000Y-100450000D01*
G75*
G02*
X134550000Y-100350000I0J100000D01*
G01*
G37*
G04 #@! TD.AperFunction*
G04 #@! TA.AperFunction,SMDPad,CuDef*
G36*
G01*
X134550000Y-101000000D02*
X134550000Y-100800000D01*
G75*
G02*
X134650000Y-100700000I100000J0D01*
G01*
X135925000Y-100700000D01*
G75*
G02*
X136025000Y-100800000I0J-100000D01*
G01*
X136025000Y-101000000D01*
G75*
G02*
X135925000Y-101100000I-100000J0D01*
G01*
X134650000Y-101100000D01*
G75*
G02*
X134550000Y-101000000I0J100000D01*
G01*
G37*
G04 #@! TD.AperFunction*
G04 #@! TA.AperFunction,SMDPad,CuDef*
G36*
G01*
X134550000Y-101650000D02*
X134550000Y-101450000D01*
G75*
G02*
X134650000Y-101350000I100000J0D01*
G01*
X135925000Y-101350000D01*
G75*
G02*
X136025000Y-101450000I0J-100000D01*
G01*
X136025000Y-101650000D01*
G75*
G02*
X135925000Y-101750000I-100000J0D01*
G01*
X134650000Y-101750000D01*
G75*
G02*
X134550000Y-101650000I0J100000D01*
G01*
G37*
G04 #@! TD.AperFunction*
G04 #@! TA.AperFunction,SMDPad,CuDef*
G36*
G01*
X134550000Y-102300000D02*
X134550000Y-102100000D01*
G75*
G02*
X134650000Y-102000000I100000J0D01*
G01*
X135925000Y-102000000D01*
G75*
G02*
X136025000Y-102100000I0J-100000D01*
G01*
X136025000Y-102300000D01*
G75*
G02*
X135925000Y-102400000I-100000J0D01*
G01*
X134650000Y-102400000D01*
G75*
G02*
X134550000Y-102300000I0J100000D01*
G01*
G37*
G04 #@! TD.AperFunction*
G04 #@! TA.AperFunction,SMDPad,CuDef*
G36*
G01*
X134550000Y-102950000D02*
X134550000Y-102750000D01*
G75*
G02*
X134650000Y-102650000I100000J0D01*
G01*
X135925000Y-102650000D01*
G75*
G02*
X136025000Y-102750000I0J-100000D01*
G01*
X136025000Y-102950000D01*
G75*
G02*
X135925000Y-103050000I-100000J0D01*
G01*
X134650000Y-103050000D01*
G75*
G02*
X134550000Y-102950000I0J100000D01*
G01*
G37*
G04 #@! TD.AperFunction*
G04 #@! TA.AperFunction,SMDPad,CuDef*
G36*
G01*
X134550000Y-103600000D02*
X134550000Y-103400000D01*
G75*
G02*
X134650000Y-103300000I100000J0D01*
G01*
X135925000Y-103300000D01*
G75*
G02*
X136025000Y-103400000I0J-100000D01*
G01*
X136025000Y-103600000D01*
G75*
G02*
X135925000Y-103700000I-100000J0D01*
G01*
X134650000Y-103700000D01*
G75*
G02*
X134550000Y-103600000I0J100000D01*
G01*
G37*
G04 #@! TD.AperFunction*
G04 #@! TA.AperFunction,SMDPad,CuDef*
G36*
G01*
X134550000Y-104250000D02*
X134550000Y-104050000D01*
G75*
G02*
X134650000Y-103950000I100000J0D01*
G01*
X135925000Y-103950000D01*
G75*
G02*
X136025000Y-104050000I0J-100000D01*
G01*
X136025000Y-104250000D01*
G75*
G02*
X135925000Y-104350000I-100000J0D01*
G01*
X134650000Y-104350000D01*
G75*
G02*
X134550000Y-104250000I0J100000D01*
G01*
G37*
G04 #@! TD.AperFunction*
G04 #@! TA.AperFunction,SMDPad,CuDef*
G36*
G01*
X134550000Y-104900000D02*
X134550000Y-104700000D01*
G75*
G02*
X134650000Y-104600000I100000J0D01*
G01*
X135925000Y-104600000D01*
G75*
G02*
X136025000Y-104700000I0J-100000D01*
G01*
X136025000Y-104900000D01*
G75*
G02*
X135925000Y-105000000I-100000J0D01*
G01*
X134650000Y-105000000D01*
G75*
G02*
X134550000Y-104900000I0J100000D01*
G01*
G37*
G04 #@! TD.AperFunction*
G04 #@! TA.AperFunction,SMDPad,CuDef*
G36*
G01*
X134550000Y-105550000D02*
X134550000Y-105350000D01*
G75*
G02*
X134650000Y-105250000I100000J0D01*
G01*
X135925000Y-105250000D01*
G75*
G02*
X136025000Y-105350000I0J-100000D01*
G01*
X136025000Y-105550000D01*
G75*
G02*
X135925000Y-105650000I-100000J0D01*
G01*
X134650000Y-105650000D01*
G75*
G02*
X134550000Y-105550000I0J100000D01*
G01*
G37*
G04 #@! TD.AperFunction*
G04 #@! TA.AperFunction,SMDPad,CuDef*
G36*
G01*
X134550000Y-106200000D02*
X134550000Y-106000000D01*
G75*
G02*
X134650000Y-105900000I100000J0D01*
G01*
X135925000Y-105900000D01*
G75*
G02*
X136025000Y-106000000I0J-100000D01*
G01*
X136025000Y-106200000D01*
G75*
G02*
X135925000Y-106300000I-100000J0D01*
G01*
X134650000Y-106300000D01*
G75*
G02*
X134550000Y-106200000I0J100000D01*
G01*
G37*
G04 #@! TD.AperFunction*
G04 #@! TA.AperFunction,SMDPad,CuDef*
G36*
G01*
X134550000Y-106850000D02*
X134550000Y-106650000D01*
G75*
G02*
X134650000Y-106550000I100000J0D01*
G01*
X135925000Y-106550000D01*
G75*
G02*
X136025000Y-106650000I0J-100000D01*
G01*
X136025000Y-106850000D01*
G75*
G02*
X135925000Y-106950000I-100000J0D01*
G01*
X134650000Y-106950000D01*
G75*
G02*
X134550000Y-106850000I0J100000D01*
G01*
G37*
G04 #@! TD.AperFunction*
G04 #@! TA.AperFunction,SMDPad,CuDef*
G36*
G01*
X134550000Y-107500000D02*
X134550000Y-107300000D01*
G75*
G02*
X134650000Y-107200000I100000J0D01*
G01*
X135925000Y-107200000D01*
G75*
G02*
X136025000Y-107300000I0J-100000D01*
G01*
X136025000Y-107500000D01*
G75*
G02*
X135925000Y-107600000I-100000J0D01*
G01*
X134650000Y-107600000D01*
G75*
G02*
X134550000Y-107500000I0J100000D01*
G01*
G37*
G04 #@! TD.AperFunction*
G04 #@! TA.AperFunction,SMDPad,CuDef*
G36*
G01*
X134550000Y-108150000D02*
X134550000Y-107950000D01*
G75*
G02*
X134650000Y-107850000I100000J0D01*
G01*
X135925000Y-107850000D01*
G75*
G02*
X136025000Y-107950000I0J-100000D01*
G01*
X136025000Y-108150000D01*
G75*
G02*
X135925000Y-108250000I-100000J0D01*
G01*
X134650000Y-108250000D01*
G75*
G02*
X134550000Y-108150000I0J100000D01*
G01*
G37*
G04 #@! TD.AperFunction*
G04 #@! TA.AperFunction,SMDPad,CuDef*
G36*
G01*
X134550000Y-108800000D02*
X134550000Y-108600000D01*
G75*
G02*
X134650000Y-108500000I100000J0D01*
G01*
X135925000Y-108500000D01*
G75*
G02*
X136025000Y-108600000I0J-100000D01*
G01*
X136025000Y-108800000D01*
G75*
G02*
X135925000Y-108900000I-100000J0D01*
G01*
X134650000Y-108900000D01*
G75*
G02*
X134550000Y-108800000I0J100000D01*
G01*
G37*
G04 #@! TD.AperFunction*
G04 #@! TA.AperFunction,SMDPad,CuDef*
G36*
G01*
X134550000Y-109450000D02*
X134550000Y-109250000D01*
G75*
G02*
X134650000Y-109150000I100000J0D01*
G01*
X135925000Y-109150000D01*
G75*
G02*
X136025000Y-109250000I0J-100000D01*
G01*
X136025000Y-109450000D01*
G75*
G02*
X135925000Y-109550000I-100000J0D01*
G01*
X134650000Y-109550000D01*
G75*
G02*
X134550000Y-109450000I0J100000D01*
G01*
G37*
G04 #@! TD.AperFunction*
D14*
X126530000Y-91050000D03*
X123990000Y-91050000D03*
D15*
X121450000Y-91050000D03*
D19*
X115940000Y-111190000D03*
X115940000Y-108650000D03*
X115940000Y-106110000D03*
X115940000Y-103570000D03*
X115940000Y-101030000D03*
X115940000Y-98490000D03*
X115940000Y-95950000D03*
X113400000Y-111190000D03*
X113400000Y-108650000D03*
X113400000Y-106110000D03*
X113400000Y-103570000D03*
X113400000Y-101030000D03*
X113400000Y-98490000D03*
G04 #@! TA.AperFunction,ComponentPad*
G36*
G01*
X112550000Y-96550000D02*
X112550000Y-95350000D01*
G75*
G02*
X112800000Y-95100000I250000J0D01*
G01*
X114000000Y-95100000D01*
G75*
G02*
X114250000Y-95350000I0J-250000D01*
G01*
X114250000Y-96550000D01*
G75*
G02*
X114000000Y-96800000I-250000J0D01*
G01*
X112800000Y-96800000D01*
G75*
G02*
X112550000Y-96550000I0J250000D01*
G01*
G37*
G04 #@! TD.AperFunction*
D20*
X132700000Y-108350000D03*
X136650000Y-107400000D03*
D21*
X146100000Y-109675000D03*
X147700000Y-90050000D03*
X137800000Y-90300000D03*
X130000000Y-92550000D03*
D20*
X131800000Y-106900000D03*
D21*
X147890000Y-100900000D03*
D20*
X138470000Y-107410000D03*
X134800000Y-118000000D03*
D21*
X119550000Y-108100000D03*
D20*
X119000000Y-99250000D03*
X120250000Y-102300000D03*
D21*
X123000000Y-94200000D03*
X148250000Y-114100000D03*
D22*
X132150000Y-102250000D03*
X123900000Y-104750000D03*
X121400000Y-99450000D03*
X129600000Y-103700000D03*
D20*
X133800000Y-108700000D03*
D23*
X132100000Y-113100000D03*
D21*
X128450000Y-112300000D03*
D20*
X124300000Y-96550000D03*
D21*
X153050000Y-105900000D03*
D20*
X136700000Y-99600000D03*
X138000000Y-105400000D03*
X136600000Y-100450000D03*
X136600000Y-105400000D03*
D22*
X137800000Y-99200000D03*
X138250000Y-99800000D03*
X138750000Y-99350000D03*
X139250000Y-98900000D03*
X139750000Y-96650000D03*
X140400000Y-95950000D03*
X140750000Y-96400000D03*
X138100000Y-100750000D03*
D20*
X141800000Y-96000000D03*
D22*
X139500000Y-100700000D03*
D20*
X142150010Y-90700621D03*
X142500020Y-90020823D03*
D22*
X140100000Y-100700000D03*
D20*
X142850000Y-89350000D03*
D22*
X140650000Y-100700000D03*
X129900000Y-111800000D03*
X145300000Y-99200000D03*
X129400000Y-111500000D03*
X139100000Y-101300000D03*
X139450000Y-101850000D03*
D20*
X144300040Y-91400000D03*
D22*
X139650000Y-102450000D03*
D20*
X144650050Y-92106322D03*
D22*
X139900000Y-102950000D03*
D20*
X145000062Y-92810229D03*
D22*
X141150000Y-103250000D03*
X145900000Y-103750000D03*
X141500000Y-104250000D03*
X140500000Y-103500000D03*
X140200000Y-104800000D03*
X138950000Y-104150000D03*
X144750000Y-109350000D03*
X144300000Y-108700000D03*
X143850000Y-108050000D03*
X142750000Y-110250000D03*
X141700000Y-106864387D03*
X141500000Y-106300000D03*
X140900000Y-106200000D03*
X140400000Y-106500000D03*
D20*
X134800000Y-92400000D03*
X134250000Y-93000000D03*
X133750000Y-93600000D03*
X135250000Y-94200000D03*
X135750000Y-94800000D03*
X136250000Y-95400000D03*
X136750000Y-96050000D03*
X137250000Y-96650000D03*
D22*
X131650000Y-111100000D03*
X131923832Y-105723000D03*
X131550000Y-105273000D03*
X131099997Y-111100000D03*
X131016084Y-104899554D03*
X130549994Y-111100000D03*
X131950000Y-101700000D03*
X131950000Y-101149997D03*
D24*
X132700000Y-108350000D02*
X132700000Y-107400000D01*
X135287500Y-107400000D02*
X132700000Y-107400000D01*
D25*
X135287500Y-107400000D02*
X136650000Y-107400000D01*
D26*
X136650000Y-107400000D02*
X136650000Y-106750000D01*
D25*
X132300000Y-107400000D02*
X132700000Y-107400000D01*
X131800000Y-106900000D02*
X132300000Y-107400000D01*
D24*
X132700000Y-107400000D02*
X132700000Y-105050000D01*
X132700000Y-105050000D02*
X128950000Y-101300000D01*
D26*
X134550000Y-105450000D02*
X135287500Y-105450000D01*
X134100000Y-105000000D02*
X134550000Y-105450000D01*
X134100000Y-104200000D02*
X134100000Y-105000000D01*
X132150000Y-102250000D02*
X134100000Y-104200000D01*
X123900000Y-101950000D02*
X121400000Y-99450000D01*
X123900000Y-104750000D02*
X123900000Y-101950000D01*
X133087499Y-111550001D02*
X135287500Y-109350000D01*
X130333993Y-111550001D02*
X133087499Y-111550001D01*
X129599969Y-110815977D02*
X130333993Y-111550001D01*
X129599969Y-103700031D02*
X129599969Y-110815977D01*
X129600000Y-103700000D02*
X129599969Y-103700031D01*
D27*
X135287500Y-108700000D02*
X133800000Y-108700000D01*
D28*
X129250000Y-113100000D02*
X132100000Y-113100000D01*
X128450000Y-112300000D02*
X129250000Y-113100000D01*
X128450000Y-104100000D02*
X128450000Y-112300000D01*
X127419999Y-103069999D02*
X128450000Y-104100000D01*
D29*
X127350000Y-96600000D02*
X127419999Y-96669999D01*
D28*
X127419999Y-96669999D02*
X127419999Y-103069999D01*
X127419999Y-94479999D02*
X127419999Y-96669999D01*
X123990000Y-91050000D02*
X127419999Y-94479999D01*
D25*
X127300000Y-96550000D02*
X127419999Y-96669999D01*
X124300000Y-96550000D02*
X127300000Y-96550000D01*
D28*
X145850000Y-113100000D02*
X132100000Y-113100000D01*
X145850000Y-113100000D02*
X153050000Y-105900000D01*
X153050000Y-95350000D02*
X155000000Y-93400000D01*
X153050000Y-105900000D02*
X153050000Y-95350000D01*
D24*
X135287500Y-99600000D02*
X136700000Y-99600000D01*
X136400000Y-100250000D02*
X136600000Y-100450000D01*
X135287500Y-100250000D02*
X136400000Y-100250000D01*
X136600000Y-105400000D02*
X138000000Y-105400000D01*
D29*
X125130000Y-113000000D02*
X126599999Y-111530001D01*
X126300000Y-106050000D02*
X127050000Y-106800000D01*
X127050000Y-111080000D02*
X126599999Y-111530001D01*
X127050000Y-106800000D02*
X127050000Y-111080000D01*
D26*
X138033998Y-100250000D02*
X138600000Y-100250000D01*
X137799999Y-100016001D02*
X138033998Y-100250000D01*
X137800000Y-99200000D02*
X137799999Y-100016001D01*
X142712500Y-100250000D02*
X138600000Y-100250000D01*
X143583998Y-100250000D02*
X142712500Y-100250000D01*
X145183940Y-98650058D02*
X143583998Y-100250000D01*
X175310000Y-84985000D02*
X174209999Y-86085001D01*
X172185001Y-86085001D02*
X172170002Y-86100000D01*
X147329858Y-98650058D02*
X145183940Y-98650058D01*
X164964922Y-87150030D02*
X164614912Y-87500040D01*
X159434870Y-88200060D02*
X157779856Y-88200060D01*
X174209999Y-86085001D02*
X172185001Y-86085001D01*
X172170002Y-86100000D02*
X172149988Y-86100000D01*
X172149988Y-86100000D02*
X171442485Y-86807503D01*
X171442485Y-86807503D02*
X167352461Y-86807503D01*
X167352461Y-86807503D02*
X167009934Y-87150030D01*
X167009934Y-87150030D02*
X164964922Y-87150030D01*
X164614912Y-87500040D02*
X160134890Y-87500040D01*
X160134890Y-87500040D02*
X159434870Y-88200060D01*
X157779856Y-88200060D02*
X147329858Y-98650058D01*
X141200000Y-99800000D02*
X141400000Y-99600000D01*
X138250000Y-99800000D02*
X141200000Y-99800000D01*
X142712500Y-99600000D02*
X141400000Y-99600000D01*
X157634878Y-87850050D02*
X147184880Y-98300048D01*
X144899952Y-98300048D02*
X143600000Y-99600000D01*
X147184880Y-98300048D02*
X144899952Y-98300048D01*
X159289892Y-87850050D02*
X157634878Y-87850050D01*
X159989912Y-87150030D02*
X159289892Y-87850050D01*
X166864956Y-86800020D02*
X164819944Y-86800020D01*
X164469934Y-87150030D02*
X159989912Y-87150030D01*
X167207483Y-86457493D02*
X166864956Y-86800020D01*
X164819944Y-86800020D02*
X164469934Y-87150030D01*
X171297507Y-86457493D02*
X167207483Y-86457493D01*
X143600000Y-99600000D02*
X142712500Y-99600000D01*
X172770000Y-84985000D02*
X171297507Y-86457493D01*
X141555012Y-98950000D02*
X142712500Y-98950000D01*
X141155012Y-99350000D02*
X141555012Y-98950000D01*
X138750000Y-99350000D02*
X141155012Y-99350000D01*
X143550000Y-98950000D02*
X142712500Y-98950000D01*
X143644988Y-98950000D02*
X143550000Y-98950000D01*
X144644950Y-97950038D02*
X143644988Y-98950000D01*
X147039902Y-97950038D02*
X144644950Y-97950038D01*
X159844934Y-86800020D02*
X159144914Y-87500040D01*
X164324956Y-86800020D02*
X159844934Y-86800020D01*
X164674966Y-86450010D02*
X164324956Y-86800020D01*
X157489900Y-87500040D02*
X147039902Y-97950038D01*
X166719978Y-86450010D02*
X164674966Y-86450010D01*
X159144914Y-87500040D02*
X157489900Y-87500040D01*
X167069988Y-86100000D02*
X166719978Y-86450010D01*
X169115000Y-86100000D02*
X167069988Y-86100000D01*
X170230000Y-84985000D02*
X169115000Y-86100000D01*
X139250000Y-98900000D02*
X140900000Y-98900000D01*
X141500000Y-98300000D02*
X142712500Y-98300000D01*
X140900000Y-98900000D02*
X141500000Y-98300000D01*
X144499972Y-97600028D02*
X143800000Y-98300000D01*
X158999936Y-87150030D02*
X157344922Y-87150030D01*
X159699956Y-86450010D02*
X158999936Y-87150030D01*
X164179978Y-86450010D02*
X159699956Y-86450010D01*
X146894924Y-97600028D02*
X144499972Y-97600028D01*
X164529988Y-86100000D02*
X164179978Y-86450010D01*
X157344922Y-87150030D02*
X146894924Y-97600028D01*
X166575000Y-86100000D02*
X164529988Y-86100000D01*
X143800000Y-98300000D02*
X142712500Y-98300000D01*
X167690000Y-84985000D02*
X166575000Y-86100000D01*
X142712500Y-97650000D02*
X139900000Y-97650000D01*
X139900000Y-97650000D02*
X139750000Y-97500000D01*
X139750000Y-97500000D02*
X139750000Y-96650000D01*
X144149982Y-97250018D02*
X143750000Y-97650000D01*
X146749946Y-97250018D02*
X144149982Y-97250018D01*
X158854958Y-86800020D02*
X157199944Y-86800020D01*
X157199944Y-86800020D02*
X146749946Y-97250018D01*
X159554978Y-86100000D02*
X158854958Y-86800020D01*
X164035000Y-86100000D02*
X159554978Y-86100000D01*
X143750000Y-97650000D02*
X142712500Y-97650000D01*
X165150000Y-84985000D02*
X164035000Y-86100000D01*
X139389021Y-95849989D02*
X138949989Y-96289021D01*
X140299987Y-95849989D02*
X139389021Y-95849989D01*
X140400000Y-95950000D02*
X140299987Y-95849989D01*
X138949989Y-96289021D02*
X138949989Y-97405023D01*
X138705012Y-97650000D02*
X135287500Y-97650000D01*
X138949989Y-97405023D02*
X138705012Y-97650000D01*
X161785000Y-84985000D02*
X162610000Y-84985000D01*
X159541999Y-83884999D02*
X160684999Y-83884999D01*
X158969999Y-84456999D02*
X159541999Y-83884999D01*
X158565002Y-86100000D02*
X158969999Y-85695003D01*
X146459988Y-96550000D02*
X156909988Y-86100000D01*
X160684999Y-83884999D02*
X161785000Y-84985000D01*
X141566002Y-96550000D02*
X146459988Y-96550000D01*
X156909988Y-86100000D02*
X158565002Y-86100000D01*
X140966001Y-95949999D02*
X141566002Y-96550000D01*
X158969999Y-85695003D02*
X158969999Y-84456999D01*
X140400000Y-95950000D02*
X140966001Y-95949999D01*
X140166002Y-96400000D02*
X140750000Y-96400000D01*
X139966001Y-96199999D02*
X140166002Y-96400000D01*
X139299999Y-96433999D02*
X139533999Y-96199999D01*
X139299999Y-97550001D02*
X139299999Y-96433999D01*
X139533999Y-96199999D02*
X139966001Y-96199999D01*
X138550000Y-98300000D02*
X139299999Y-97550001D01*
X135287500Y-98300000D02*
X138550000Y-98300000D01*
X141250000Y-96900000D02*
X144480072Y-96900000D01*
X140750000Y-96400000D02*
X141250000Y-96900000D01*
X144480080Y-96900008D02*
X146604968Y-96900008D01*
X144480072Y-96900000D02*
X144480080Y-96900008D01*
X146604968Y-96900008D02*
X157054966Y-86450010D01*
X160070000Y-85089990D02*
X160070000Y-84985000D01*
X158709980Y-86450010D02*
X160070000Y-85089990D01*
X157054966Y-86450010D02*
X158709980Y-86450010D01*
X138039010Y-100750000D02*
X138100000Y-100750000D01*
X137349999Y-100060989D02*
X138039010Y-100750000D01*
X137349999Y-99249999D02*
X137349999Y-100060989D01*
X137050000Y-98950000D02*
X137349999Y-99249999D01*
X135287500Y-98950000D02*
X137050000Y-98950000D01*
X146515000Y-96000000D02*
X157530000Y-84985000D01*
X141800000Y-96000000D02*
X146515000Y-96000000D01*
X146894966Y-86450010D02*
X150984990Y-86450010D01*
X146444956Y-86900020D02*
X146894966Y-86450010D01*
X150984990Y-86450010D02*
X152450000Y-84985000D01*
X144600020Y-86900020D02*
X146444956Y-86900020D01*
X143750010Y-87750030D02*
X144600020Y-86900020D01*
X143750010Y-89758980D02*
X143750010Y-87750030D01*
X142808369Y-90700621D02*
X143750010Y-89758980D01*
X142150010Y-90700621D02*
X142808369Y-90700621D01*
X141367158Y-102850000D02*
X142712500Y-102850000D01*
X139500000Y-100982842D02*
X141367158Y-102850000D01*
X139500000Y-100700000D02*
X139500000Y-100982842D01*
X146749988Y-86100000D02*
X148795000Y-86100000D01*
X146299978Y-86550010D02*
X146749988Y-86100000D01*
X143400000Y-87605052D02*
X144455042Y-86550010D01*
X144455042Y-86550010D02*
X146299978Y-86550010D01*
X143400000Y-89614002D02*
X143400000Y-87605052D01*
X142993179Y-90020823D02*
X143400000Y-89614002D01*
X148795000Y-86100000D02*
X149910000Y-84985000D01*
X142500020Y-90020823D02*
X142993179Y-90020823D01*
X141317158Y-102200000D02*
X142712500Y-102200000D01*
X140100000Y-100982842D02*
X141317158Y-102200000D01*
X140100000Y-100700000D02*
X140100000Y-100982842D01*
X146155000Y-86200000D02*
X147370000Y-84985000D01*
X144310064Y-86200000D02*
X146155000Y-86200000D01*
X142850000Y-87660064D02*
X144310064Y-86200000D01*
X142850000Y-89350000D02*
X142850000Y-87660064D01*
X141500000Y-101550000D02*
X142712500Y-101550000D01*
X140650000Y-100700000D02*
X141500000Y-101550000D01*
X145423617Y-111900011D02*
X130000011Y-111900011D01*
X147650000Y-104339010D02*
X147650000Y-109673628D01*
X130000011Y-111900011D02*
X129900000Y-111800000D01*
X146260979Y-102949989D02*
X147650000Y-104339010D01*
X143800022Y-102500000D02*
X144250011Y-102949989D01*
X143800000Y-102500000D02*
X143800022Y-102500000D01*
X143800000Y-101900000D02*
X143800000Y-102500000D01*
X147650000Y-109673628D02*
X145423617Y-111900011D01*
X143450000Y-101550000D02*
X143800000Y-101900000D01*
X144250011Y-102949989D02*
X146260979Y-102949989D01*
X142712500Y-101550000D02*
X143450000Y-101550000D01*
X142712500Y-100900000D02*
X143450000Y-100900000D01*
X143600000Y-100900000D02*
X143450000Y-100900000D01*
X145300000Y-99200000D02*
X143600000Y-100900000D01*
X144150010Y-101600010D02*
X143450000Y-100900000D01*
X144449979Y-102599979D02*
X144150010Y-102300010D01*
X146405957Y-102599979D02*
X144449979Y-102599979D01*
X144150010Y-102300010D02*
X144150010Y-101600010D01*
X148000000Y-104194022D02*
X146405957Y-102599979D01*
X148000000Y-109818616D02*
X148000000Y-104194022D01*
X145568595Y-112250021D02*
X148000000Y-109818616D01*
X129684019Y-112250021D02*
X145568595Y-112250021D01*
X129400000Y-111966002D02*
X129684019Y-112250021D01*
X129400000Y-111500000D02*
X129400000Y-111966002D01*
X135869992Y-100900000D02*
X135287500Y-100900000D01*
X136269992Y-101300000D02*
X135869992Y-100900000D01*
X139100000Y-101300000D02*
X136269992Y-101300000D01*
X135869992Y-101550000D02*
X135287500Y-101550000D01*
X136169992Y-101850000D02*
X135869992Y-101550000D01*
X139450000Y-101850000D02*
X136169992Y-101850000D01*
X142035387Y-91400000D02*
X141600009Y-90964622D01*
X144300040Y-91400000D02*
X142035387Y-91400000D01*
X141600009Y-90964622D02*
X141600009Y-89799991D01*
X141600009Y-89799991D02*
X142500000Y-88900000D01*
X142500000Y-87735000D02*
X139750000Y-84985000D01*
X142500000Y-88900000D02*
X142500000Y-87735000D01*
X136000000Y-102200000D02*
X135287500Y-102200000D01*
X136250000Y-102450000D02*
X136000000Y-102200000D01*
X139650000Y-102450000D02*
X136250000Y-102450000D01*
X144650050Y-92106322D02*
X144106312Y-92106322D01*
X141890409Y-91750010D02*
X141249999Y-91109600D01*
X143750000Y-91750010D02*
X141890409Y-91750010D01*
X144106312Y-92106322D02*
X143750000Y-91750010D01*
X141249999Y-89655013D02*
X142149990Y-88755022D01*
X141249999Y-91109600D02*
X141249999Y-89655013D01*
X142149990Y-88755022D02*
X142149990Y-87879978D01*
X142149990Y-87879978D02*
X140370012Y-86100000D01*
X138325000Y-86100000D02*
X137210000Y-84985000D01*
X140370012Y-86100000D02*
X138325000Y-86100000D01*
X136000000Y-102850000D02*
X135287500Y-102850000D01*
X136100000Y-102950000D02*
X136000000Y-102850000D01*
X139900000Y-102950000D02*
X136100000Y-102950000D01*
X145000062Y-92810229D02*
X144312710Y-92810229D01*
X141745431Y-92100020D02*
X140899989Y-91254578D01*
X143602501Y-92100020D02*
X141745431Y-92100020D01*
X144312710Y-92810229D02*
X143602501Y-92100020D01*
X137096998Y-86500000D02*
X140275024Y-86500000D01*
X135581998Y-84985000D02*
X137096998Y-86500000D01*
X134670000Y-84985000D02*
X135581998Y-84985000D01*
X140275024Y-86500000D02*
X141799980Y-88024956D01*
X141799980Y-88024956D02*
X141799980Y-88610044D01*
X140899989Y-89510035D02*
X140899989Y-91254578D01*
X141799980Y-88610044D02*
X140899989Y-89510035D01*
X137550000Y-107650000D02*
X137150000Y-108050000D01*
X137550000Y-106940002D02*
X137550000Y-107650000D01*
X139182001Y-105308001D02*
X137550000Y-106940002D01*
X140358001Y-105308001D02*
X139182001Y-105308001D01*
X137150000Y-108050000D02*
X135287500Y-108050000D01*
X140950001Y-103449999D02*
X141150000Y-103250000D01*
X140950001Y-104716001D02*
X140950001Y-103449999D01*
X140358001Y-105308001D02*
X140950001Y-104716001D01*
X145500000Y-104150000D02*
X145900000Y-103750000D01*
X142712500Y-104150000D02*
X145500000Y-104150000D01*
X141500000Y-103975000D02*
X141500000Y-104250000D01*
X141975000Y-103500000D02*
X141500000Y-103975000D01*
X142712500Y-103500000D02*
X141975000Y-103500000D01*
X135287500Y-103500000D02*
X140500000Y-103500000D01*
X135287500Y-104800000D02*
X140200000Y-104800000D01*
X135287500Y-104150000D02*
X137800001Y-104150001D01*
X138667157Y-104150001D02*
X137800001Y-104150001D01*
X138950000Y-104150000D02*
X138667157Y-104150001D01*
X142712500Y-109350000D02*
X144750000Y-109350000D01*
X144300000Y-108700000D02*
X142712500Y-108700000D01*
X143850000Y-108050000D02*
X142712500Y-108050000D01*
X141550000Y-109600000D02*
X141550000Y-107550000D01*
X141750010Y-109800010D02*
X141550000Y-109600000D01*
X142300010Y-109800010D02*
X141750010Y-109800010D01*
X142750000Y-110250000D02*
X142300010Y-109800010D01*
X141700000Y-107400000D02*
X141550000Y-107550000D01*
X142712500Y-107400000D02*
X141700000Y-107400000D01*
X141814387Y-106750000D02*
X141700000Y-106864387D01*
X142712500Y-106750000D02*
X141814387Y-106750000D01*
X141700000Y-106100000D02*
X141500000Y-106300000D01*
X142712500Y-106100000D02*
X141700000Y-106100000D01*
X141650000Y-105450000D02*
X142712500Y-105450000D01*
X140900000Y-106200000D02*
X141650000Y-105450000D01*
X141360990Y-104800000D02*
X142712500Y-104800000D01*
X140400000Y-105760990D02*
X141360990Y-104800000D01*
X140400000Y-106500000D02*
X140400000Y-105760990D01*
X134150021Y-91750021D02*
X134800000Y-92400000D01*
X134150021Y-87385154D02*
X134150021Y-91750021D01*
X131749867Y-84985000D02*
X134150021Y-87385154D01*
X129590000Y-84985000D02*
X131749867Y-84985000D01*
X133800011Y-92550011D02*
X134250000Y-93000000D01*
X133800011Y-87530132D02*
X133800011Y-92550011D01*
X132354880Y-86085001D02*
X133800011Y-87530132D01*
X128150001Y-86085001D02*
X132354880Y-86085001D01*
X127050000Y-84985000D02*
X128150001Y-86085001D01*
X133450001Y-93300001D02*
X133750000Y-93600000D01*
X133450001Y-87675110D02*
X133450001Y-93300001D01*
X132209902Y-86435011D02*
X133450001Y-87675110D01*
X128005023Y-86435011D02*
X132209902Y-86435011D01*
X127670012Y-86100000D02*
X128005023Y-86435011D01*
X125625000Y-86100000D02*
X127670012Y-86100000D01*
X124510000Y-84985000D02*
X125625000Y-86100000D01*
X133099991Y-93763993D02*
X133535998Y-94200000D01*
X133099991Y-87820088D02*
X133099991Y-93763993D01*
X132064924Y-86785021D02*
X133099991Y-87820088D01*
X127860045Y-86785021D02*
X132064924Y-86785021D01*
X133535998Y-94200000D02*
X135250000Y-94200000D01*
X127525034Y-86450010D02*
X127860045Y-86785021D01*
X125480022Y-86450010D02*
X127525034Y-86450010D01*
X125115013Y-86085001D02*
X125480022Y-86450010D01*
X123070001Y-86085001D02*
X125115013Y-86085001D01*
X121970000Y-84985000D02*
X123070001Y-86085001D01*
X133641010Y-94800000D02*
X135750000Y-94800000D01*
X132749981Y-93908971D02*
X133641010Y-94800000D01*
X132749981Y-87965066D02*
X132749981Y-93908971D01*
X127715067Y-87135031D02*
X131919946Y-87135031D01*
X127380056Y-86800020D02*
X127715067Y-87135031D01*
X125335044Y-86800020D02*
X127380056Y-86800020D01*
X122925023Y-86435011D02*
X124970035Y-86435011D01*
X122595006Y-86104994D02*
X122925023Y-86435011D01*
X120549994Y-86104994D02*
X122595006Y-86104994D01*
X131919946Y-87135031D02*
X132749981Y-87965066D01*
X124970035Y-86435011D02*
X125335044Y-86800020D01*
X119430000Y-84985000D02*
X120549994Y-86104994D01*
X133746022Y-95400000D02*
X136250000Y-95400000D01*
X116890000Y-84985000D02*
X117990001Y-86085001D01*
X131774968Y-87485041D02*
X132399971Y-88110044D01*
X124825057Y-86785021D02*
X125190066Y-87150030D01*
X125190066Y-87150030D02*
X127235078Y-87150030D01*
X122450028Y-86455004D02*
X122780045Y-86785021D01*
X127235078Y-87150030D02*
X127570089Y-87485041D01*
X132399971Y-94053949D02*
X133746022Y-95400000D01*
X122780045Y-86785021D02*
X124825057Y-86785021D01*
X117990001Y-86085001D02*
X120035013Y-86085001D01*
X120035013Y-86085001D02*
X120405016Y-86455004D01*
X127570089Y-87485041D02*
X131774968Y-87485041D01*
X120405016Y-86455004D02*
X122450028Y-86455004D01*
X132399971Y-88110044D02*
X132399971Y-94053949D01*
X115450001Y-86085001D02*
X117495013Y-86085001D01*
X117495013Y-86085001D02*
X117845023Y-86435011D01*
X132049961Y-88255022D02*
X132049961Y-94198927D01*
X120260038Y-86805014D02*
X122305050Y-86805014D01*
X122305050Y-86805014D02*
X122635067Y-87135031D01*
X127425111Y-87835051D02*
X131629990Y-87835051D01*
X114350000Y-84985000D02*
X115450001Y-86085001D01*
X117845023Y-86435011D02*
X119890035Y-86435011D01*
X124680079Y-87135031D02*
X125045088Y-87500040D01*
X132049961Y-94198927D02*
X133901034Y-96050000D01*
X119890035Y-86435011D02*
X120260038Y-86805014D01*
X133901034Y-96050000D02*
X136750000Y-96050000D01*
X122635067Y-87135031D02*
X124680079Y-87135031D01*
X125045088Y-87500040D02*
X127090100Y-87500040D01*
X127090100Y-87500040D02*
X127425111Y-87835051D01*
X131629990Y-87835051D02*
X132049961Y-88255022D01*
X131699951Y-94343905D02*
X131699951Y-88400000D01*
X134006046Y-96650000D02*
X131699951Y-94343905D01*
X137250000Y-96650000D02*
X134006046Y-96650000D01*
X111810000Y-84985000D02*
X113260011Y-86435011D01*
X117350035Y-86435011D02*
X117700045Y-86785021D01*
X113260011Y-86435011D02*
X117350035Y-86435011D01*
X119745057Y-86785021D02*
X120115060Y-87155024D01*
X117700045Y-86785021D02*
X119745057Y-86785021D01*
X122160072Y-87155024D02*
X122490089Y-87485041D01*
X120115060Y-87155024D02*
X122160072Y-87155024D01*
X124535101Y-87485041D02*
X124900110Y-87850050D01*
X122490089Y-87485041D02*
X124535101Y-87485041D01*
X126945122Y-87850050D02*
X127280133Y-88185061D01*
X124900110Y-87850050D02*
X126945122Y-87850050D01*
X131485012Y-88185061D02*
X131699951Y-88400000D01*
X127280133Y-88185061D02*
X131485012Y-88185061D01*
X130649999Y-106461999D02*
X130649999Y-107249999D01*
X131923832Y-105723000D02*
X131388998Y-105723000D01*
X131388998Y-105723000D02*
X130649999Y-106461999D01*
X131650000Y-108250000D02*
X131650000Y-111100000D01*
X130649999Y-107249999D02*
X131650000Y-108250000D01*
X131267158Y-105273000D02*
X131550000Y-105273000D01*
X130299989Y-106240169D02*
X131267158Y-105273000D01*
X130299989Y-107394977D02*
X130299989Y-106240169D01*
X131099997Y-108194985D02*
X130299989Y-107394977D01*
X131099997Y-111100000D02*
X131099997Y-108194985D01*
X129949979Y-107539955D02*
X129949981Y-107539957D01*
X129949979Y-105965659D02*
X129949979Y-107539955D01*
X131016084Y-104899554D02*
X129949979Y-105965659D01*
X130549994Y-108139970D02*
X130549994Y-111100000D01*
X129949981Y-107539957D02*
X130549994Y-108139970D01*
X133650000Y-105044988D02*
X133650000Y-104416002D01*
X131699999Y-101950001D02*
X131950000Y-101700000D01*
X131699999Y-102466001D02*
X131699999Y-101950001D01*
X133650000Y-104416002D02*
X131699999Y-102466001D01*
X134705012Y-106100000D02*
X135287500Y-106100000D01*
X133650000Y-105044988D02*
X134705012Y-106100000D01*
X134550000Y-106750000D02*
X135287500Y-106750000D01*
X133299990Y-105499990D02*
X134550000Y-106750000D01*
X133299990Y-104560980D02*
X133299990Y-105499990D01*
X131349989Y-102610979D02*
X133299990Y-104560980D01*
X131349989Y-101634009D02*
X131349989Y-102610979D01*
X131834001Y-101149997D02*
X131349989Y-101634009D01*
X131950000Y-101149997D02*
X131834001Y-101149997D01*
D27*
X120275039Y-89872999D02*
X125352999Y-89872999D01*
X125352999Y-89872999D02*
X126530000Y-91050000D01*
X114762999Y-95385039D02*
X120275039Y-89872999D01*
X114762999Y-97312999D02*
X114762999Y-95385039D01*
X115940000Y-98490000D02*
X114762999Y-97312999D01*
D30*
X116550000Y-95950000D02*
X121450000Y-91050000D01*
X115940000Y-95950000D02*
X116550000Y-95950000D01*
D27*
X110508815Y-83683815D02*
X110429463Y-83780506D01*
X110370498Y-83890820D01*
X110334188Y-84010518D01*
X110321928Y-84135000D01*
X110321928Y-85835000D01*
X110334188Y-85959482D01*
X110370498Y-86079180D01*
X110429463Y-86189494D01*
X110508815Y-86286185D01*
X110605506Y-86365537D01*
X110715820Y-86424502D01*
X110835518Y-86460812D01*
X110960000Y-86473072D01*
X112258625Y-86473072D01*
X112714757Y-86929204D01*
X112737773Y-86957249D01*
X112849691Y-87049098D01*
X112977378Y-87117348D01*
X113115926Y-87159376D01*
X113223906Y-87170011D01*
X113223915Y-87170011D01*
X113260010Y-87173566D01*
X113296105Y-87170011D01*
X117045589Y-87170011D01*
X117154786Y-87279208D01*
X117177807Y-87307259D01*
X117289725Y-87399108D01*
X117417412Y-87467358D01*
X117534002Y-87502725D01*
X117555960Y-87509386D01*
X117700045Y-87523577D01*
X117736150Y-87520021D01*
X119440611Y-87520021D01*
X119569801Y-87649211D01*
X119592822Y-87677262D01*
X119704740Y-87769111D01*
X119832427Y-87837361D01*
X119970975Y-87879389D01*
X120078955Y-87890024D01*
X120078964Y-87890024D01*
X120115059Y-87893579D01*
X120151154Y-87890024D01*
X121855626Y-87890024D01*
X121944830Y-87979228D01*
X121967851Y-88007279D01*
X122079769Y-88099128D01*
X122113892Y-88117367D01*
X122207455Y-88167378D01*
X122346004Y-88209406D01*
X122490089Y-88223597D01*
X122526194Y-88220041D01*
X124230655Y-88220041D01*
X124354851Y-88344237D01*
X124377872Y-88372288D01*
X124489790Y-88464137D01*
X124535531Y-88488586D01*
X124617476Y-88532387D01*
X124756025Y-88574415D01*
X124900110Y-88588606D01*
X124936215Y-88585050D01*
X126640676Y-88585050D01*
X126734874Y-88679248D01*
X126757895Y-88707299D01*
X126869813Y-88799148D01*
X126997500Y-88867398D01*
X127080834Y-88892677D01*
X127136047Y-88909426D01*
X127150265Y-88910826D01*
X127244028Y-88920061D01*
X127244035Y-88920061D01*
X127280132Y-88923616D01*
X127316229Y-88920061D01*
X130964952Y-88920061D01*
X130964951Y-94307800D01*
X130961395Y-94343905D01*
X130969308Y-94424247D01*
X130975586Y-94487989D01*
X131017614Y-94626537D01*
X131085864Y-94754224D01*
X131177713Y-94866142D01*
X131205759Y-94889159D01*
X133460792Y-97144193D01*
X133483808Y-97172238D01*
X133595726Y-97264087D01*
X133723413Y-97332337D01*
X133861961Y-97374365D01*
X133933570Y-97381418D01*
X133926110Y-97406009D01*
X133911928Y-97550000D01*
X133911928Y-97750000D01*
X133926110Y-97893991D01*
X133950684Y-97975000D01*
X133926110Y-98056009D01*
X133911928Y-98200000D01*
X133911928Y-98400000D01*
X133926110Y-98543991D01*
X133950684Y-98625000D01*
X133926110Y-98706009D01*
X133911928Y-98850000D01*
X133911928Y-99050000D01*
X133926110Y-99193991D01*
X133950684Y-99275000D01*
X133926110Y-99356009D01*
X133911928Y-99500000D01*
X133911928Y-99700000D01*
X133926110Y-99843991D01*
X133950684Y-99925000D01*
X133926110Y-100006009D01*
X133911928Y-100150000D01*
X133911928Y-100350000D01*
X133926110Y-100493991D01*
X133950684Y-100575000D01*
X133926110Y-100656009D01*
X133911928Y-100800000D01*
X133911928Y-101000000D01*
X133926110Y-101143991D01*
X133950684Y-101225000D01*
X133926110Y-101306009D01*
X133911928Y-101450000D01*
X133911928Y-101650000D01*
X133926110Y-101793991D01*
X133950684Y-101875000D01*
X133926110Y-101956009D01*
X133911928Y-102100000D01*
X133911928Y-102300000D01*
X133926110Y-102443991D01*
X133950684Y-102525000D01*
X133926110Y-102606009D01*
X133911928Y-102750000D01*
X133911928Y-102950000D01*
X133914384Y-102974938D01*
X132954655Y-102015209D01*
X132952911Y-102006440D01*
X132889967Y-101854479D01*
X132798587Y-101717719D01*
X132785000Y-101704132D01*
X132785000Y-101617760D01*
X132752911Y-101456440D01*
X132739888Y-101424999D01*
X132752911Y-101393557D01*
X132785000Y-101232237D01*
X132785000Y-101067757D01*
X132752911Y-100906437D01*
X132689967Y-100754476D01*
X132598587Y-100617716D01*
X132482281Y-100501410D01*
X132345521Y-100410030D01*
X132193560Y-100347086D01*
X132032240Y-100314997D01*
X131867760Y-100314997D01*
X131706440Y-100347086D01*
X131554479Y-100410030D01*
X131417719Y-100501410D01*
X131301413Y-100617716D01*
X131250220Y-100694332D01*
X130855797Y-101088755D01*
X130827751Y-101111772D01*
X130735902Y-101223690D01*
X130667652Y-101351377D01*
X130648352Y-101415000D01*
X130625624Y-101489924D01*
X130611433Y-101634009D01*
X130614989Y-101670115D01*
X130614990Y-102574865D01*
X130611433Y-102610979D01*
X130625624Y-102755064D01*
X130665318Y-102885914D01*
X130667653Y-102893612D01*
X130735903Y-103021299D01*
X130827752Y-103133217D01*
X130855797Y-103156233D01*
X132564990Y-104865427D01*
X132564991Y-105183291D01*
X132456113Y-105074413D01*
X132339175Y-104996277D01*
X132289967Y-104877479D01*
X132198587Y-104740719D01*
X132082281Y-104624413D01*
X131945521Y-104533033D01*
X131793560Y-104470089D01*
X131724144Y-104456281D01*
X131664671Y-104367273D01*
X131548365Y-104250967D01*
X131411605Y-104159587D01*
X131259644Y-104096643D01*
X131098324Y-104064554D01*
X130933844Y-104064554D01*
X130772524Y-104096643D01*
X130620563Y-104159587D01*
X130483803Y-104250967D01*
X130367497Y-104367273D01*
X130334969Y-104415955D01*
X130334969Y-104103001D01*
X130339967Y-104095521D01*
X130402911Y-103943560D01*
X130435000Y-103782240D01*
X130435000Y-103617760D01*
X130402911Y-103456440D01*
X130339967Y-103304479D01*
X130248587Y-103167719D01*
X130132281Y-103051413D01*
X129995521Y-102960033D01*
X129843560Y-102897089D01*
X129682240Y-102865000D01*
X129517760Y-102865000D01*
X129356440Y-102897089D01*
X129204479Y-102960033D01*
X129067719Y-103051413D01*
X129037132Y-103082000D01*
X128554999Y-102599868D01*
X128554999Y-94535750D01*
X128560490Y-94479998D01*
X128538576Y-94257499D01*
X128473675Y-94043552D01*
X128455912Y-94010320D01*
X128368283Y-93846376D01*
X128226448Y-93673550D01*
X128183140Y-93638008D01*
X127005518Y-92460386D01*
X127233411Y-92365990D01*
X127476632Y-92203475D01*
X127683475Y-91996632D01*
X127845990Y-91753411D01*
X127957932Y-91483158D01*
X128015000Y-91196260D01*
X128015000Y-90903740D01*
X127957932Y-90616842D01*
X127845990Y-90346589D01*
X127683475Y-90103368D01*
X127476632Y-89896525D01*
X127233411Y-89734010D01*
X126963158Y-89622068D01*
X126676260Y-89565000D01*
X126383740Y-89565000D01*
X126165951Y-89608321D01*
X125918283Y-89360653D01*
X125894421Y-89331577D01*
X125778391Y-89236354D01*
X125646014Y-89165597D01*
X125502377Y-89122025D01*
X125390425Y-89110999D01*
X125390422Y-89110999D01*
X125352999Y-89107313D01*
X125315576Y-89110999D01*
X120312462Y-89110999D01*
X120275039Y-89107313D01*
X120237616Y-89110999D01*
X120237613Y-89110999D01*
X120125661Y-89122025D01*
X119982024Y-89165597D01*
X119932184Y-89192237D01*
X119849646Y-89236354D01*
X119807258Y-89271142D01*
X119733617Y-89331577D01*
X119709755Y-89360653D01*
X114470856Y-94599552D01*
X114339850Y-94529528D01*
X114173254Y-94478992D01*
X114000000Y-94461928D01*
X112800000Y-94461928D01*
X112626746Y-94478992D01*
X112460150Y-94529528D01*
X112306614Y-94611595D01*
X112172038Y-94722038D01*
X112061595Y-94856614D01*
X111979528Y-95010150D01*
X111928992Y-95176746D01*
X111911928Y-95350000D01*
X111911928Y-96550000D01*
X111928992Y-96723254D01*
X111979528Y-96889850D01*
X112061595Y-97043386D01*
X112172038Y-97177962D01*
X112306614Y-97288405D01*
X112433608Y-97356285D01*
X112246525Y-97543368D01*
X112084010Y-97786589D01*
X111972068Y-98056842D01*
X111915000Y-98343740D01*
X111915000Y-98636260D01*
X111972068Y-98923158D01*
X112084010Y-99193411D01*
X112246525Y-99436632D01*
X112453368Y-99643475D01*
X112627760Y-99760000D01*
X112453368Y-99876525D01*
X112246525Y-100083368D01*
X112084010Y-100326589D01*
X111972068Y-100596842D01*
X111915000Y-100883740D01*
X111915000Y-101176260D01*
X111972068Y-101463158D01*
X112084010Y-101733411D01*
X112246525Y-101976632D01*
X112453368Y-102183475D01*
X112627760Y-102300000D01*
X112453368Y-102416525D01*
X112246525Y-102623368D01*
X112084010Y-102866589D01*
X111972068Y-103136842D01*
X111915000Y-103423740D01*
X111915000Y-103716260D01*
X111972068Y-104003158D01*
X112084010Y-104273411D01*
X112246525Y-104516632D01*
X112453368Y-104723475D01*
X112626729Y-104839311D01*
X112551208Y-105081603D01*
X113400000Y-105930395D01*
X114248792Y-105081603D01*
X114173271Y-104839311D01*
X114346632Y-104723475D01*
X114553475Y-104516632D01*
X114670000Y-104342240D01*
X114786525Y-104516632D01*
X114993368Y-104723475D01*
X115167760Y-104840000D01*
X114993368Y-104956525D01*
X114786525Y-105163368D01*
X114670689Y-105336729D01*
X114428397Y-105261208D01*
X113579605Y-106110000D01*
X114428397Y-106958792D01*
X114670689Y-106883271D01*
X114786525Y-107056632D01*
X114993368Y-107263475D01*
X115167760Y-107380000D01*
X114993368Y-107496525D01*
X114786525Y-107703368D01*
X114670000Y-107877760D01*
X114553475Y-107703368D01*
X114346632Y-107496525D01*
X114173271Y-107380689D01*
X114248792Y-107138397D01*
X113400000Y-106289605D01*
X112551208Y-107138397D01*
X112626729Y-107380689D01*
X112453368Y-107496525D01*
X112246525Y-107703368D01*
X112084010Y-107946589D01*
X111972068Y-108216842D01*
X111915000Y-108503740D01*
X111915000Y-108796260D01*
X111972068Y-109083158D01*
X112084010Y-109353411D01*
X112246525Y-109596632D01*
X112453368Y-109803475D01*
X112626729Y-109919311D01*
X112551208Y-110161603D01*
X113400000Y-111010395D01*
X114248792Y-110161603D01*
X114173271Y-109919311D01*
X114346632Y-109803475D01*
X114553475Y-109596632D01*
X114670000Y-109422240D01*
X114786525Y-109596632D01*
X114993368Y-109803475D01*
X115167760Y-109920000D01*
X114993368Y-110036525D01*
X114786525Y-110243368D01*
X114670689Y-110416729D01*
X114428397Y-110341208D01*
X113579605Y-111190000D01*
X114428397Y-112038792D01*
X114670689Y-111963271D01*
X114786525Y-112136632D01*
X114993368Y-112343475D01*
X115236589Y-112505990D01*
X115506842Y-112617932D01*
X115793740Y-112675000D01*
X116086260Y-112675000D01*
X116373158Y-112617932D01*
X116643411Y-112505990D01*
X116886632Y-112343475D01*
X117093475Y-112136632D01*
X117255990Y-111893411D01*
X117367932Y-111623158D01*
X117425000Y-111336260D01*
X117425000Y-111043740D01*
X117367932Y-110756842D01*
X117255990Y-110486589D01*
X117093475Y-110243368D01*
X116886632Y-110036525D01*
X116712240Y-109920000D01*
X116886632Y-109803475D01*
X117093475Y-109596632D01*
X117255990Y-109353411D01*
X117367932Y-109083158D01*
X117425000Y-108796260D01*
X117425000Y-108503740D01*
X117367932Y-108216842D01*
X117255990Y-107946589D01*
X117093475Y-107703368D01*
X116886632Y-107496525D01*
X116712240Y-107380000D01*
X116886632Y-107263475D01*
X117093475Y-107056632D01*
X117255990Y-106813411D01*
X117367932Y-106543158D01*
X117425000Y-106256260D01*
X117425000Y-105963740D01*
X117367932Y-105676842D01*
X117255990Y-105406589D01*
X117093475Y-105163368D01*
X116886632Y-104956525D01*
X116712240Y-104840000D01*
X116886632Y-104723475D01*
X117093475Y-104516632D01*
X117255990Y-104273411D01*
X117367932Y-104003158D01*
X117425000Y-103716260D01*
X117425000Y-103423740D01*
X117367932Y-103136842D01*
X117255990Y-102866589D01*
X117093475Y-102623368D01*
X116886632Y-102416525D01*
X116712240Y-102300000D01*
X116886632Y-102183475D01*
X117093475Y-101976632D01*
X117255990Y-101733411D01*
X117367932Y-101463158D01*
X117425000Y-101176260D01*
X117425000Y-100883740D01*
X117367932Y-100596842D01*
X117255990Y-100326589D01*
X117093475Y-100083368D01*
X116886632Y-99876525D01*
X116712240Y-99760000D01*
X116886632Y-99643475D01*
X117093475Y-99436632D01*
X117255990Y-99193411D01*
X117367932Y-98923158D01*
X117425000Y-98636260D01*
X117425000Y-98343740D01*
X117367932Y-98056842D01*
X117255990Y-97786589D01*
X117093475Y-97543368D01*
X116886632Y-97336525D01*
X116844100Y-97308106D01*
X117082581Y-97235764D01*
X117323188Y-97107157D01*
X117534081Y-96934081D01*
X117577454Y-96881231D01*
X121920613Y-92538072D01*
X122300000Y-92538072D01*
X122424482Y-92525812D01*
X122544180Y-92489502D01*
X122654494Y-92430537D01*
X122751185Y-92351185D01*
X122830537Y-92254494D01*
X122889502Y-92144180D01*
X122911513Y-92071620D01*
X123043368Y-92203475D01*
X123286589Y-92365990D01*
X123556842Y-92477932D01*
X123843740Y-92535000D01*
X123869869Y-92535000D01*
X126284999Y-94950131D01*
X126285000Y-95724500D01*
X124747508Y-95724500D01*
X124742889Y-95721414D01*
X124572729Y-95650932D01*
X124392089Y-95615000D01*
X124207911Y-95615000D01*
X124027271Y-95650932D01*
X123857111Y-95721414D01*
X123703972Y-95823738D01*
X123573738Y-95953972D01*
X123471414Y-96107111D01*
X123400932Y-96277271D01*
X123365000Y-96457911D01*
X123365000Y-96642089D01*
X123400932Y-96822729D01*
X123471414Y-96992889D01*
X123573738Y-97146028D01*
X123703972Y-97276262D01*
X123857111Y-97378586D01*
X124027271Y-97449068D01*
X124207911Y-97485000D01*
X124392089Y-97485000D01*
X124572729Y-97449068D01*
X124742889Y-97378586D01*
X124747508Y-97375500D01*
X126284999Y-97375500D01*
X126285000Y-103014238D01*
X126279508Y-103069999D01*
X126301422Y-103292497D01*
X126366323Y-103506445D01*
X126397450Y-103564680D01*
X126471716Y-103703622D01*
X126613551Y-103876448D01*
X126656859Y-103911990D01*
X127315000Y-104570132D01*
X127315000Y-105807765D01*
X127138655Y-105631420D01*
X127128586Y-105607111D01*
X127026262Y-105453972D01*
X126896028Y-105323738D01*
X126742889Y-105221414D01*
X126572729Y-105150932D01*
X126392089Y-105115000D01*
X125101466Y-105115000D01*
X125009645Y-105114829D01*
X124828939Y-105150426D01*
X124658649Y-105220592D01*
X124655575Y-105222237D01*
X124651293Y-105300951D01*
X124614461Y-105345473D01*
X124596494Y-105366886D01*
X124530238Y-105300630D01*
X124548587Y-105282281D01*
X124639967Y-105145521D01*
X124702911Y-104993560D01*
X124735000Y-104832240D01*
X124735000Y-104667760D01*
X124702911Y-104506440D01*
X124639967Y-104354479D01*
X124635000Y-104347045D01*
X124635000Y-101986105D01*
X124638556Y-101950000D01*
X124624365Y-101805915D01*
X124619188Y-101788850D01*
X124582337Y-101667367D01*
X124514087Y-101539680D01*
X124422238Y-101427762D01*
X124394193Y-101404746D01*
X122204655Y-99215209D01*
X122202911Y-99206440D01*
X122139967Y-99054479D01*
X122048587Y-98917719D01*
X121932281Y-98801413D01*
X121795521Y-98710033D01*
X121643560Y-98647089D01*
X121482240Y-98615000D01*
X121317760Y-98615000D01*
X121156440Y-98647089D01*
X121004479Y-98710033D01*
X120867719Y-98801413D01*
X120751413Y-98917719D01*
X120660033Y-99054479D01*
X120597089Y-99206440D01*
X120565000Y-99367760D01*
X120565000Y-99532240D01*
X120597089Y-99693560D01*
X120660033Y-99845521D01*
X120751413Y-99982281D01*
X120867719Y-100098587D01*
X121004479Y-100189967D01*
X121156440Y-100252911D01*
X121165209Y-100254655D01*
X123165001Y-102254448D01*
X123165000Y-104347045D01*
X123160033Y-104354479D01*
X123097089Y-104506440D01*
X123065000Y-104667760D01*
X123065000Y-104832240D01*
X123097089Y-104993560D01*
X123160033Y-105145521D01*
X123251413Y-105282281D01*
X123367719Y-105398587D01*
X123504479Y-105489967D01*
X123656440Y-105552911D01*
X123817760Y-105585000D01*
X123982240Y-105585000D01*
X124143560Y-105552911D01*
X124295521Y-105489967D01*
X124406098Y-105416082D01*
X124346286Y-105475894D01*
X124465456Y-105595064D01*
X124272237Y-105605575D01*
X124201438Y-105775603D01*
X124165172Y-105956176D01*
X124164829Y-106140355D01*
X124200426Y-106321061D01*
X124270592Y-106491351D01*
X124272237Y-106494425D01*
X124465459Y-106504936D01*
X124481722Y-106488673D01*
X124494388Y-106530621D01*
X124511238Y-106587875D01*
X124512269Y-106589847D01*
X124512913Y-106591980D01*
X124540988Y-106644781D01*
X124568655Y-106697703D01*
X124570049Y-106699437D01*
X124571095Y-106701404D01*
X124608883Y-106747737D01*
X124646310Y-106794286D01*
X124648015Y-106795717D01*
X124649423Y-106797443D01*
X124651290Y-106798987D01*
X124655575Y-106877763D01*
X124825603Y-106948562D01*
X125006176Y-106984828D01*
X125190355Y-106985171D01*
X125191223Y-106985000D01*
X125977765Y-106985000D01*
X126161000Y-107168236D01*
X126161000Y-108270893D01*
X126086632Y-108196525D01*
X125843411Y-108034010D01*
X125573158Y-107922068D01*
X125286260Y-107865000D01*
X124993740Y-107865000D01*
X124706842Y-107922068D01*
X124436589Y-108034010D01*
X124193368Y-108196525D01*
X124061513Y-108328380D01*
X124039502Y-108255820D01*
X123980537Y-108145506D01*
X123901185Y-108048815D01*
X123804494Y-107969463D01*
X123694180Y-107910498D01*
X123574482Y-107874188D01*
X123450000Y-107861928D01*
X121750000Y-107861928D01*
X121625518Y-107874188D01*
X121505820Y-107910498D01*
X121395506Y-107969463D01*
X121298815Y-108048815D01*
X121219463Y-108145506D01*
X121160498Y-108255820D01*
X121124188Y-108375518D01*
X121111928Y-108500000D01*
X121111928Y-110200000D01*
X121124188Y-110324482D01*
X121160498Y-110444180D01*
X121219463Y-110554494D01*
X121298815Y-110651185D01*
X121395506Y-110730537D01*
X121505820Y-110789502D01*
X121625518Y-110825812D01*
X121750000Y-110838072D01*
X123450000Y-110838072D01*
X123574482Y-110825812D01*
X123694180Y-110789502D01*
X123804494Y-110730537D01*
X123901185Y-110651185D01*
X123980537Y-110554494D01*
X124039502Y-110444180D01*
X124061513Y-110371620D01*
X124193368Y-110503475D01*
X124436589Y-110665990D01*
X124706842Y-110777932D01*
X124993740Y-110835000D01*
X125286260Y-110835000D01*
X125573158Y-110777932D01*
X125843411Y-110665990D01*
X126086632Y-110503475D01*
X126161001Y-110429106D01*
X126161001Y-110711764D01*
X126002264Y-110870501D01*
X126002258Y-110870506D01*
X125345901Y-111526863D01*
X125286260Y-111515000D01*
X124993740Y-111515000D01*
X124706842Y-111572068D01*
X124436589Y-111684010D01*
X124193368Y-111846525D01*
X124061513Y-111978380D01*
X124039502Y-111905820D01*
X123980537Y-111795506D01*
X123901185Y-111698815D01*
X123804494Y-111619463D01*
X123694180Y-111560498D01*
X123574482Y-111524188D01*
X123450000Y-111511928D01*
X121750000Y-111511928D01*
X121625518Y-111524188D01*
X121505820Y-111560498D01*
X121395506Y-111619463D01*
X121298815Y-111698815D01*
X121219463Y-111795506D01*
X121160498Y-111905820D01*
X121124188Y-112025518D01*
X121111928Y-112150000D01*
X121111928Y-113850000D01*
X121124188Y-113974482D01*
X121160498Y-114094180D01*
X121219463Y-114204494D01*
X121298815Y-114301185D01*
X121395506Y-114380537D01*
X121505820Y-114439502D01*
X121625518Y-114475812D01*
X121750000Y-114488072D01*
X123450000Y-114488072D01*
X123574482Y-114475812D01*
X123694180Y-114439502D01*
X123804494Y-114380537D01*
X123901185Y-114301185D01*
X123980537Y-114204494D01*
X124039502Y-114094180D01*
X124061513Y-114021620D01*
X124193368Y-114153475D01*
X124436589Y-114315990D01*
X124706842Y-114427932D01*
X124993740Y-114485000D01*
X125286260Y-114485000D01*
X125573158Y-114427932D01*
X125843411Y-114315990D01*
X126086632Y-114153475D01*
X126293475Y-113946632D01*
X126455990Y-113703411D01*
X126567932Y-113433158D01*
X126625000Y-113146260D01*
X126625000Y-112853740D01*
X126609818Y-112777417D01*
X127259494Y-112127742D01*
X127259499Y-112127736D01*
X127315001Y-112072234D01*
X127315001Y-112188207D01*
X127315000Y-112188212D01*
X127315000Y-112244249D01*
X127309509Y-112300000D01*
X127315000Y-112355751D01*
X127315000Y-112411788D01*
X127325932Y-112466748D01*
X127331423Y-112522498D01*
X127347684Y-112576103D01*
X127358617Y-112631067D01*
X127380064Y-112682845D01*
X127396324Y-112736446D01*
X127422728Y-112785845D01*
X127444176Y-112837624D01*
X127475312Y-112884222D01*
X127501717Y-112933623D01*
X127537254Y-112976925D01*
X127568388Y-113023520D01*
X127608014Y-113063146D01*
X127643552Y-113106449D01*
X127686855Y-113141987D01*
X127726480Y-113181612D01*
X127726483Y-113181614D01*
X128408008Y-113863140D01*
X128443551Y-113906449D01*
X128578507Y-114017205D01*
X128616377Y-114048284D01*
X128813553Y-114153676D01*
X129027501Y-114218577D01*
X129250000Y-114240491D01*
X129305752Y-114235000D01*
X145794249Y-114235000D01*
X145850000Y-114240491D01*
X145905751Y-114235000D01*
X145905752Y-114235000D01*
X146072499Y-114218577D01*
X146286447Y-114153676D01*
X146483623Y-114048284D01*
X146656449Y-113906449D01*
X146691996Y-113863135D01*
X147105131Y-113450000D01*
X153511928Y-113450000D01*
X153524188Y-113574482D01*
X153560498Y-113694180D01*
X153619463Y-113804494D01*
X153698815Y-113901185D01*
X153795506Y-113980537D01*
X153905820Y-114039502D01*
X154025518Y-114075812D01*
X154150000Y-114088072D01*
X154714250Y-114085000D01*
X154873000Y-113926250D01*
X154873000Y-112727000D01*
X155127000Y-112727000D01*
X155127000Y-113926250D01*
X155285750Y-114085000D01*
X155850000Y-114088072D01*
X155974482Y-114075812D01*
X156094180Y-114039502D01*
X156204494Y-113980537D01*
X156301185Y-113901185D01*
X156380537Y-113804494D01*
X156439502Y-113694180D01*
X156463966Y-113613534D01*
X156539731Y-113697588D01*
X156773080Y-113871641D01*
X157035901Y-113996825D01*
X157183110Y-114041476D01*
X157413000Y-113920155D01*
X157413000Y-112727000D01*
X157667000Y-112727000D01*
X157667000Y-113920155D01*
X157896890Y-114041476D01*
X158044099Y-113996825D01*
X158306920Y-113871641D01*
X158540269Y-113697588D01*
X158735178Y-113481355D01*
X158810000Y-113355745D01*
X158884822Y-113481355D01*
X159079731Y-113697588D01*
X159313080Y-113871641D01*
X159575901Y-113996825D01*
X159723110Y-114041476D01*
X159953000Y-113920155D01*
X159953000Y-112727000D01*
X160207000Y-112727000D01*
X160207000Y-113920155D01*
X160436890Y-114041476D01*
X160584099Y-113996825D01*
X160846920Y-113871641D01*
X161080269Y-113697588D01*
X161275178Y-113481355D01*
X161424157Y-113231252D01*
X161521481Y-112956891D01*
X161400814Y-112727000D01*
X160207000Y-112727000D01*
X159953000Y-112727000D01*
X157667000Y-112727000D01*
X157413000Y-112727000D01*
X155127000Y-112727000D01*
X154873000Y-112727000D01*
X153673750Y-112727000D01*
X153515000Y-112885750D01*
X153511928Y-113450000D01*
X147105131Y-113450000D01*
X148805131Y-111750000D01*
X153511928Y-111750000D01*
X153515000Y-112314250D01*
X153673750Y-112473000D01*
X154873000Y-112473000D01*
X154873000Y-111273750D01*
X155127000Y-111273750D01*
X155127000Y-112473000D01*
X157413000Y-112473000D01*
X157413000Y-111279845D01*
X157667000Y-111279845D01*
X157667000Y-112473000D01*
X159953000Y-112473000D01*
X159953000Y-111279845D01*
X160207000Y-111279845D01*
X160207000Y-112473000D01*
X161400814Y-112473000D01*
X161521481Y-112243109D01*
X161424157Y-111968748D01*
X161275178Y-111718645D01*
X161080269Y-111502412D01*
X160846920Y-111328359D01*
X160584099Y-111203175D01*
X160436890Y-111158524D01*
X160207000Y-111279845D01*
X159953000Y-111279845D01*
X159723110Y-111158524D01*
X159575901Y-111203175D01*
X159313080Y-111328359D01*
X159079731Y-111502412D01*
X158884822Y-111718645D01*
X158810000Y-111844255D01*
X158735178Y-111718645D01*
X158540269Y-111502412D01*
X158306920Y-111328359D01*
X158044099Y-111203175D01*
X157896890Y-111158524D01*
X157667000Y-111279845D01*
X157413000Y-111279845D01*
X157183110Y-111158524D01*
X157035901Y-111203175D01*
X156773080Y-111328359D01*
X156539731Y-111502412D01*
X156463966Y-111586466D01*
X156439502Y-111505820D01*
X156380537Y-111395506D01*
X156301185Y-111298815D01*
X156204494Y-111219463D01*
X156094180Y-111160498D01*
X155974482Y-111124188D01*
X155850000Y-111111928D01*
X155285750Y-111115000D01*
X155127000Y-111273750D01*
X154873000Y-111273750D01*
X154714250Y-111115000D01*
X154150000Y-111111928D01*
X154025518Y-111124188D01*
X153905820Y-111160498D01*
X153795506Y-111219463D01*
X153698815Y-111298815D01*
X153619463Y-111395506D01*
X153560498Y-111505820D01*
X153524188Y-111625518D01*
X153511928Y-111750000D01*
X148805131Y-111750000D01*
X152405132Y-108150000D01*
X153511928Y-108150000D01*
X153511928Y-109850000D01*
X153524188Y-109974482D01*
X153560498Y-110094180D01*
X153619463Y-110204494D01*
X153698815Y-110301185D01*
X153795506Y-110380537D01*
X153905820Y-110439502D01*
X154025518Y-110475812D01*
X154150000Y-110488072D01*
X155850000Y-110488072D01*
X155974482Y-110475812D01*
X156094180Y-110439502D01*
X156204494Y-110380537D01*
X156301185Y-110301185D01*
X156380537Y-110204494D01*
X156439502Y-110094180D01*
X156461513Y-110021620D01*
X156593368Y-110153475D01*
X156836589Y-110315990D01*
X157106842Y-110427932D01*
X157393740Y-110485000D01*
X157686260Y-110485000D01*
X157973158Y-110427932D01*
X158243411Y-110315990D01*
X158486632Y-110153475D01*
X158693475Y-109946632D01*
X158810000Y-109772240D01*
X158926525Y-109946632D01*
X159133368Y-110153475D01*
X159376589Y-110315990D01*
X159646842Y-110427932D01*
X159933740Y-110485000D01*
X160226260Y-110485000D01*
X160513158Y-110427932D01*
X160783411Y-110315990D01*
X161026632Y-110153475D01*
X161233475Y-109946632D01*
X161395990Y-109703411D01*
X161507932Y-109433158D01*
X161565000Y-109146260D01*
X161565000Y-108853740D01*
X161507932Y-108566842D01*
X161395990Y-108296589D01*
X161233475Y-108053368D01*
X161026632Y-107846525D01*
X160783411Y-107684010D01*
X160513158Y-107572068D01*
X160226260Y-107515000D01*
X159933740Y-107515000D01*
X159646842Y-107572068D01*
X159376589Y-107684010D01*
X159133368Y-107846525D01*
X158926525Y-108053368D01*
X158810000Y-108227760D01*
X158693475Y-108053368D01*
X158486632Y-107846525D01*
X158243411Y-107684010D01*
X157973158Y-107572068D01*
X157686260Y-107515000D01*
X157393740Y-107515000D01*
X157106842Y-107572068D01*
X156836589Y-107684010D01*
X156593368Y-107846525D01*
X156461513Y-107978380D01*
X156439502Y-107905820D01*
X156380537Y-107795506D01*
X156301185Y-107698815D01*
X156204494Y-107619463D01*
X156094180Y-107560498D01*
X155974482Y-107524188D01*
X155850000Y-107511928D01*
X154150000Y-107511928D01*
X154025518Y-107524188D01*
X153905820Y-107560498D01*
X153795506Y-107619463D01*
X153698815Y-107698815D01*
X153619463Y-107795506D01*
X153560498Y-107905820D01*
X153524188Y-108025518D01*
X153511928Y-108150000D01*
X152405132Y-108150000D01*
X153687523Y-106867609D01*
X174004038Y-106867609D01*
X174007909Y-106905282D01*
X174100079Y-107130533D01*
X174234422Y-107333474D01*
X174405775Y-107506307D01*
X174607554Y-107642390D01*
X174832004Y-107736493D01*
X175070500Y-107785000D01*
X175420500Y-107785000D01*
X175420500Y-106677000D01*
X175674500Y-106677000D01*
X175674500Y-107785000D01*
X176024500Y-107785000D01*
X176262996Y-107736493D01*
X176487446Y-107642390D01*
X176689225Y-107506307D01*
X176860578Y-107333474D01*
X176994921Y-107130533D01*
X177087091Y-106905282D01*
X177090962Y-106867609D01*
X176966231Y-106677000D01*
X175674500Y-106677000D01*
X175420500Y-106677000D01*
X174128769Y-106677000D01*
X174004038Y-106867609D01*
X153687523Y-106867609D01*
X153813146Y-106741987D01*
X153856449Y-106706449D01*
X153891991Y-106663141D01*
X153931612Y-106623520D01*
X153962741Y-106576933D01*
X153998284Y-106533623D01*
X154024693Y-106484214D01*
X154055824Y-106437624D01*
X154077269Y-106385851D01*
X154103676Y-106336447D01*
X154119937Y-106282842D01*
X154141383Y-106231067D01*
X154152315Y-106176106D01*
X154168577Y-106122499D01*
X154174068Y-106066747D01*
X154185000Y-106011788D01*
X154185000Y-105955751D01*
X154190491Y-105900000D01*
X154185000Y-105844248D01*
X154185000Y-100375000D01*
X164036928Y-100375000D01*
X164036928Y-101725000D01*
X164049188Y-101849482D01*
X164085498Y-101969180D01*
X164144463Y-102079494D01*
X164223815Y-102176185D01*
X164310697Y-102247487D01*
X164189093Y-102429482D01*
X164090342Y-102667887D01*
X164040000Y-102920976D01*
X164040000Y-103179024D01*
X164090342Y-103432113D01*
X164189093Y-103670518D01*
X164332456Y-103885077D01*
X164497379Y-104050000D01*
X164332456Y-104214923D01*
X164189093Y-104429482D01*
X164090342Y-104667887D01*
X164040000Y-104920976D01*
X164040000Y-105179024D01*
X164090342Y-105432113D01*
X164189093Y-105670518D01*
X164332456Y-105885077D01*
X164514923Y-106067544D01*
X164729482Y-106210907D01*
X164967887Y-106309658D01*
X165220976Y-106360000D01*
X165479024Y-106360000D01*
X165732113Y-106309658D01*
X165970518Y-106210907D01*
X166185077Y-106067544D01*
X166367544Y-105885077D01*
X166510907Y-105670518D01*
X166609658Y-105432113D01*
X166660000Y-105179024D01*
X166660000Y-104920976D01*
X166609658Y-104667887D01*
X166510907Y-104429482D01*
X166367544Y-104214923D01*
X166202621Y-104050000D01*
X166367544Y-103885077D01*
X166510907Y-103670518D01*
X166609658Y-103432113D01*
X166660000Y-103179024D01*
X166660000Y-102920976D01*
X166609658Y-102667887D01*
X166510907Y-102429482D01*
X166389303Y-102247487D01*
X166476185Y-102176185D01*
X166555537Y-102079494D01*
X166614502Y-101969180D01*
X166650812Y-101849482D01*
X166663072Y-101725000D01*
X166663072Y-100920976D01*
X168540000Y-100920976D01*
X168540000Y-101179024D01*
X168590342Y-101432113D01*
X168689093Y-101670518D01*
X168832456Y-101885077D01*
X168997379Y-102050000D01*
X168832456Y-102214923D01*
X168689093Y-102429482D01*
X168590342Y-102667887D01*
X168540000Y-102920976D01*
X168540000Y-103179024D01*
X168590342Y-103432113D01*
X168689093Y-103670518D01*
X168832456Y-103885077D01*
X168997379Y-104050000D01*
X168832456Y-104214923D01*
X168689093Y-104429482D01*
X168590342Y-104667887D01*
X168540000Y-104920976D01*
X168540000Y-105179024D01*
X168590342Y-105432113D01*
X168689093Y-105670518D01*
X168832456Y-105885077D01*
X169014923Y-106067544D01*
X169229482Y-106210907D01*
X169467887Y-106309658D01*
X169720976Y-106360000D01*
X169979024Y-106360000D01*
X170083930Y-106339133D01*
X172087972Y-106339133D01*
X172150465Y-106575450D01*
X172393178Y-106688850D01*
X172653349Y-106752719D01*
X172920982Y-106764604D01*
X173185791Y-106724048D01*
X173437600Y-106632609D01*
X173544535Y-106575450D01*
X173607028Y-106339133D01*
X173500286Y-106232391D01*
X174004038Y-106232391D01*
X174128769Y-106423000D01*
X175420500Y-106423000D01*
X175420500Y-105315000D01*
X175674500Y-105315000D01*
X175674500Y-106423000D01*
X176966231Y-106423000D01*
X177090962Y-106232391D01*
X177087091Y-106194718D01*
X176994921Y-105969467D01*
X176860578Y-105766526D01*
X176689225Y-105593693D01*
X176487446Y-105457610D01*
X176262996Y-105363507D01*
X176024500Y-105315000D01*
X175674500Y-105315000D01*
X175420500Y-105315000D01*
X175070500Y-105315000D01*
X174832004Y-105363507D01*
X174607554Y-105457610D01*
X174405775Y-105593693D01*
X174234422Y-105766526D01*
X174100079Y-105969467D01*
X174007909Y-106194718D01*
X174004038Y-106232391D01*
X173500286Y-106232391D01*
X172847500Y-105579605D01*
X172087972Y-106339133D01*
X170083930Y-106339133D01*
X170232113Y-106309658D01*
X170470518Y-106210907D01*
X170685077Y-106067544D01*
X170867544Y-105885077D01*
X171010907Y-105670518D01*
X171092522Y-105473482D01*
X171482896Y-105473482D01*
X171523452Y-105738291D01*
X171614891Y-105990100D01*
X171672050Y-106097035D01*
X171908367Y-106159528D01*
X172667895Y-105400000D01*
X173027105Y-105400000D01*
X173786633Y-106159528D01*
X174022950Y-106097035D01*
X174136350Y-105854322D01*
X174200219Y-105594151D01*
X174212104Y-105326518D01*
X174171548Y-105061709D01*
X174080109Y-104809900D01*
X174022950Y-104702965D01*
X173786633Y-104640472D01*
X173027105Y-105400000D01*
X172667895Y-105400000D01*
X171908367Y-104640472D01*
X171672050Y-104702965D01*
X171558650Y-104945678D01*
X171494781Y-105205849D01*
X171482896Y-105473482D01*
X171092522Y-105473482D01*
X171109658Y-105432113D01*
X171160000Y-105179024D01*
X171160000Y-104920976D01*
X171109658Y-104667887D01*
X171023908Y-104460867D01*
X172087972Y-104460867D01*
X172847500Y-105220395D01*
X173607028Y-104460867D01*
X173544535Y-104224550D01*
X173301822Y-104111150D01*
X173041651Y-104047281D01*
X172774018Y-104035396D01*
X172509209Y-104075952D01*
X172257400Y-104167391D01*
X172150465Y-104224550D01*
X172087972Y-104460867D01*
X171023908Y-104460867D01*
X171010907Y-104429482D01*
X170867544Y-104214923D01*
X170702621Y-104050000D01*
X170867544Y-103885077D01*
X171010907Y-103670518D01*
X171109658Y-103432113D01*
X171160000Y-103179024D01*
X171160000Y-102920976D01*
X171109658Y-102667887D01*
X171010907Y-102429482D01*
X170867544Y-102214923D01*
X170702621Y-102050000D01*
X170867544Y-101885077D01*
X171010907Y-101670518D01*
X171106750Y-101439133D01*
X172087972Y-101439133D01*
X172150465Y-101675450D01*
X172393178Y-101788850D01*
X172653349Y-101852719D01*
X172920982Y-101864604D01*
X173185791Y-101824048D01*
X173437600Y-101732609D01*
X173544535Y-101675450D01*
X173607028Y-101439133D01*
X172847500Y-100679605D01*
X172087972Y-101439133D01*
X171106750Y-101439133D01*
X171109658Y-101432113D01*
X171160000Y-101179024D01*
X171160000Y-100920976D01*
X171109658Y-100667887D01*
X171070555Y-100573482D01*
X171482896Y-100573482D01*
X171523452Y-100838291D01*
X171614891Y-101090100D01*
X171672050Y-101197035D01*
X171908367Y-101259528D01*
X172667895Y-100500000D01*
X173027105Y-100500000D01*
X173786633Y-101259528D01*
X174022950Y-101197035D01*
X174136350Y-100954322D01*
X174200219Y-100694151D01*
X174212104Y-100426518D01*
X174171548Y-100161709D01*
X174080109Y-99909900D01*
X174022950Y-99802965D01*
X173786633Y-99740472D01*
X173027105Y-100500000D01*
X172667895Y-100500000D01*
X171908367Y-99740472D01*
X171672050Y-99802965D01*
X171558650Y-100045678D01*
X171494781Y-100305849D01*
X171482896Y-100573482D01*
X171070555Y-100573482D01*
X171010907Y-100429482D01*
X170867544Y-100214923D01*
X170685077Y-100032456D01*
X170470518Y-99889093D01*
X170232113Y-99790342D01*
X169979024Y-99740000D01*
X169720976Y-99740000D01*
X169467887Y-99790342D01*
X169229482Y-99889093D01*
X169014923Y-100032456D01*
X168832456Y-100214923D01*
X168689093Y-100429482D01*
X168590342Y-100667887D01*
X168540000Y-100920976D01*
X166663072Y-100920976D01*
X166663072Y-100375000D01*
X166650812Y-100250518D01*
X166614502Y-100130820D01*
X166555537Y-100020506D01*
X166476185Y-99923815D01*
X166379494Y-99844463D01*
X166269180Y-99785498D01*
X166149482Y-99749188D01*
X166025000Y-99736928D01*
X164675000Y-99736928D01*
X164550518Y-99749188D01*
X164430820Y-99785498D01*
X164320506Y-99844463D01*
X164223815Y-99923815D01*
X164144463Y-100020506D01*
X164085498Y-100130820D01*
X164049188Y-100250518D01*
X164036928Y-100375000D01*
X154185000Y-100375000D01*
X154185000Y-99560867D01*
X172087972Y-99560867D01*
X172847500Y-100320395D01*
X173500286Y-99667609D01*
X174004038Y-99667609D01*
X174007909Y-99705282D01*
X174100079Y-99930533D01*
X174234422Y-100133474D01*
X174405775Y-100306307D01*
X174607554Y-100442390D01*
X174832004Y-100536493D01*
X175070500Y-100585000D01*
X175420500Y-100585000D01*
X175420500Y-99477000D01*
X175674500Y-99477000D01*
X175674500Y-100585000D01*
X176024500Y-100585000D01*
X176262996Y-100536493D01*
X176487446Y-100442390D01*
X176689225Y-100306307D01*
X176860578Y-100133474D01*
X176994921Y-99930533D01*
X177087091Y-99705282D01*
X177090962Y-99667609D01*
X176966231Y-99477000D01*
X175674500Y-99477000D01*
X175420500Y-99477000D01*
X174128769Y-99477000D01*
X174004038Y-99667609D01*
X173500286Y-99667609D01*
X173607028Y-99560867D01*
X173544535Y-99324550D01*
X173301822Y-99211150D01*
X173041651Y-99147281D01*
X172774018Y-99135396D01*
X172509209Y-99175952D01*
X172257400Y-99267391D01*
X172150465Y-99324550D01*
X172087972Y-99560867D01*
X154185000Y-99560867D01*
X154185000Y-99032391D01*
X174004038Y-99032391D01*
X174128769Y-99223000D01*
X175420500Y-99223000D01*
X175420500Y-98115000D01*
X175674500Y-98115000D01*
X175674500Y-99223000D01*
X176966231Y-99223000D01*
X177090962Y-99032391D01*
X177087091Y-98994718D01*
X176994921Y-98769467D01*
X176860578Y-98566526D01*
X176689225Y-98393693D01*
X176487446Y-98257610D01*
X176262996Y-98163507D01*
X176024500Y-98115000D01*
X175674500Y-98115000D01*
X175420500Y-98115000D01*
X175070500Y-98115000D01*
X174832004Y-98163507D01*
X174607554Y-98257610D01*
X174405775Y-98393693D01*
X174234422Y-98566526D01*
X174100079Y-98769467D01*
X174007909Y-98994718D01*
X174004038Y-99032391D01*
X154185000Y-99032391D01*
X154185000Y-98487881D01*
X154714250Y-98485000D01*
X154873000Y-98326250D01*
X154873000Y-97127000D01*
X155127000Y-97127000D01*
X155127000Y-98326250D01*
X155285750Y-98485000D01*
X155850000Y-98488072D01*
X155974482Y-98475812D01*
X156094180Y-98439502D01*
X156204494Y-98380537D01*
X156301185Y-98301185D01*
X156380537Y-98204494D01*
X156439502Y-98094180D01*
X156463966Y-98013534D01*
X156539731Y-98097588D01*
X156773080Y-98271641D01*
X157035901Y-98396825D01*
X157183110Y-98441476D01*
X157413000Y-98320155D01*
X157413000Y-97127000D01*
X157667000Y-97127000D01*
X157667000Y-98320155D01*
X157896890Y-98441476D01*
X158044099Y-98396825D01*
X158306920Y-98271641D01*
X158540269Y-98097588D01*
X158735178Y-97881355D01*
X158810000Y-97755745D01*
X158884822Y-97881355D01*
X159079731Y-98097588D01*
X159313080Y-98271641D01*
X159575901Y-98396825D01*
X159723110Y-98441476D01*
X159953000Y-98320155D01*
X159953000Y-97127000D01*
X160207000Y-97127000D01*
X160207000Y-98320155D01*
X160436890Y-98441476D01*
X160584099Y-98396825D01*
X160846920Y-98271641D01*
X161080269Y-98097588D01*
X161275178Y-97881355D01*
X161424157Y-97631252D01*
X161521481Y-97356891D01*
X161400814Y-97127000D01*
X160207000Y-97127000D01*
X159953000Y-97127000D01*
X157667000Y-97127000D01*
X157413000Y-97127000D01*
X155127000Y-97127000D01*
X154873000Y-97127000D01*
X154853000Y-97127000D01*
X154853000Y-96873000D01*
X154873000Y-96873000D01*
X154873000Y-95673750D01*
X155127000Y-95673750D01*
X155127000Y-96873000D01*
X157413000Y-96873000D01*
X157413000Y-95679845D01*
X157667000Y-95679845D01*
X157667000Y-96873000D01*
X159953000Y-96873000D01*
X159953000Y-95679845D01*
X160207000Y-95679845D01*
X160207000Y-96873000D01*
X161400814Y-96873000D01*
X161521481Y-96643109D01*
X161424157Y-96368748D01*
X161275178Y-96118645D01*
X161080269Y-95902412D01*
X160846920Y-95728359D01*
X160584099Y-95603175D01*
X160436890Y-95558524D01*
X160207000Y-95679845D01*
X159953000Y-95679845D01*
X159723110Y-95558524D01*
X159575901Y-95603175D01*
X159313080Y-95728359D01*
X159079731Y-95902412D01*
X158884822Y-96118645D01*
X158810000Y-96244255D01*
X158735178Y-96118645D01*
X158540269Y-95902412D01*
X158306920Y-95728359D01*
X158044099Y-95603175D01*
X157896890Y-95558524D01*
X157667000Y-95679845D01*
X157413000Y-95679845D01*
X157183110Y-95558524D01*
X157035901Y-95603175D01*
X156773080Y-95728359D01*
X156539731Y-95902412D01*
X156463966Y-95986466D01*
X156439502Y-95905820D01*
X156380537Y-95795506D01*
X156301185Y-95698815D01*
X156204494Y-95619463D01*
X156094180Y-95560498D01*
X155974482Y-95524188D01*
X155850000Y-95511928D01*
X155285750Y-95515000D01*
X155127000Y-95673750D01*
X154873000Y-95673750D01*
X154714250Y-95515000D01*
X154491345Y-95513786D01*
X155117060Y-94888072D01*
X155850000Y-94888072D01*
X155974482Y-94875812D01*
X156094180Y-94839502D01*
X156204494Y-94780537D01*
X156301185Y-94701185D01*
X156380537Y-94604494D01*
X156439502Y-94494180D01*
X156461513Y-94421620D01*
X156593368Y-94553475D01*
X156836589Y-94715990D01*
X157106842Y-94827932D01*
X157393740Y-94885000D01*
X157686260Y-94885000D01*
X157973158Y-94827932D01*
X158243411Y-94715990D01*
X158486632Y-94553475D01*
X158693475Y-94346632D01*
X158810000Y-94172240D01*
X158926525Y-94346632D01*
X159133368Y-94553475D01*
X159376589Y-94715990D01*
X159646842Y-94827932D01*
X159933740Y-94885000D01*
X160226260Y-94885000D01*
X160513158Y-94827932D01*
X160783411Y-94715990D01*
X161026632Y-94553475D01*
X161233475Y-94346632D01*
X161395990Y-94103411D01*
X161507932Y-93833158D01*
X161565000Y-93546260D01*
X161565000Y-93253740D01*
X161507932Y-92966842D01*
X161395990Y-92696589D01*
X161233475Y-92453368D01*
X161026632Y-92246525D01*
X160783411Y-92084010D01*
X160513158Y-91972068D01*
X160226260Y-91915000D01*
X159933740Y-91915000D01*
X159646842Y-91972068D01*
X159376589Y-92084010D01*
X159133368Y-92246525D01*
X158926525Y-92453368D01*
X158810000Y-92627760D01*
X158693475Y-92453368D01*
X158486632Y-92246525D01*
X158243411Y-92084010D01*
X157973158Y-91972068D01*
X157686260Y-91915000D01*
X157393740Y-91915000D01*
X157106842Y-91972068D01*
X156836589Y-92084010D01*
X156593368Y-92246525D01*
X156461513Y-92378380D01*
X156439502Y-92305820D01*
X156380537Y-92195506D01*
X156301185Y-92098815D01*
X156204494Y-92019463D01*
X156094180Y-91960498D01*
X155974482Y-91924188D01*
X155850000Y-91911928D01*
X155107435Y-91911928D01*
X157365623Y-89653740D01*
X161575000Y-89653740D01*
X161575000Y-89946260D01*
X161632068Y-90233158D01*
X161744010Y-90503411D01*
X161906525Y-90746632D01*
X162113368Y-90953475D01*
X162356589Y-91115990D01*
X162626842Y-91227932D01*
X162913740Y-91285000D01*
X163206260Y-91285000D01*
X163493158Y-91227932D01*
X163763411Y-91115990D01*
X164006632Y-90953475D01*
X164138487Y-90821620D01*
X164160498Y-90894180D01*
X164219463Y-91004494D01*
X164298815Y-91101185D01*
X164395506Y-91180537D01*
X164505820Y-91239502D01*
X164625518Y-91275812D01*
X164750000Y-91288072D01*
X166450000Y-91288072D01*
X166574482Y-91275812D01*
X166694180Y-91239502D01*
X166804494Y-91180537D01*
X166901185Y-91101185D01*
X166980537Y-91004494D01*
X167039502Y-90894180D01*
X167075812Y-90774482D01*
X167088072Y-90650000D01*
X167088072Y-88950000D01*
X167075812Y-88825518D01*
X167039502Y-88705820D01*
X166980537Y-88595506D01*
X166901185Y-88498815D01*
X166804494Y-88419463D01*
X166694180Y-88360498D01*
X166574482Y-88324188D01*
X166450000Y-88311928D01*
X164750000Y-88311928D01*
X164625518Y-88324188D01*
X164505820Y-88360498D01*
X164395506Y-88419463D01*
X164298815Y-88498815D01*
X164219463Y-88595506D01*
X164160498Y-88705820D01*
X164138487Y-88778380D01*
X164006632Y-88646525D01*
X163763411Y-88484010D01*
X163493158Y-88372068D01*
X163206260Y-88315000D01*
X162913740Y-88315000D01*
X162626842Y-88372068D01*
X162356589Y-88484010D01*
X162113368Y-88646525D01*
X161906525Y-88853368D01*
X161744010Y-89096589D01*
X161632068Y-89366842D01*
X161575000Y-89653740D01*
X157365623Y-89653740D01*
X158084303Y-88935060D01*
X159398765Y-88935060D01*
X159434870Y-88938616D01*
X159470975Y-88935060D01*
X159578955Y-88924425D01*
X159717503Y-88882397D01*
X159845190Y-88814147D01*
X159957108Y-88722298D01*
X159980128Y-88694248D01*
X160439337Y-88235040D01*
X164578807Y-88235040D01*
X164614912Y-88238596D01*
X164651017Y-88235040D01*
X164758997Y-88224405D01*
X164897545Y-88182377D01*
X165025232Y-88114127D01*
X165137150Y-88022278D01*
X165160171Y-87994227D01*
X165269368Y-87885030D01*
X166973829Y-87885030D01*
X167009934Y-87888586D01*
X167046039Y-87885030D01*
X167154019Y-87874395D01*
X167292567Y-87832367D01*
X167420254Y-87764117D01*
X167532172Y-87672268D01*
X167555193Y-87644217D01*
X167656907Y-87542503D01*
X171406380Y-87542503D01*
X171442485Y-87546059D01*
X171478590Y-87542503D01*
X171586570Y-87531868D01*
X171725118Y-87489840D01*
X171852805Y-87421590D01*
X171964723Y-87329741D01*
X171987743Y-87301691D01*
X172469434Y-86820001D01*
X174173894Y-86820001D01*
X174209999Y-86823557D01*
X174246104Y-86820001D01*
X174354084Y-86809366D01*
X174492632Y-86767338D01*
X174620319Y-86699088D01*
X174732237Y-86607239D01*
X174755257Y-86579189D01*
X174914103Y-86420344D01*
X175163740Y-86470000D01*
X175456260Y-86470000D01*
X175743158Y-86412932D01*
X176013411Y-86300990D01*
X176256632Y-86138475D01*
X176463475Y-85931632D01*
X176625990Y-85688411D01*
X176737932Y-85418158D01*
X176795000Y-85131260D01*
X176795000Y-84838740D01*
X176737932Y-84551842D01*
X176625990Y-84281589D01*
X176463475Y-84038368D01*
X176256632Y-83831525D01*
X176013411Y-83669010D01*
X175991659Y-83660000D01*
X177340001Y-83660000D01*
X177340000Y-122340000D01*
X176056798Y-122340000D01*
X176256632Y-122206475D01*
X176463475Y-121999632D01*
X176625990Y-121756411D01*
X176737932Y-121486158D01*
X176795000Y-121199260D01*
X176795000Y-120906740D01*
X176737932Y-120619842D01*
X176625990Y-120349589D01*
X176463475Y-120106368D01*
X176256632Y-119899525D01*
X176013411Y-119737010D01*
X175743158Y-119625068D01*
X175456260Y-119568000D01*
X175163740Y-119568000D01*
X174876842Y-119625068D01*
X174606589Y-119737010D01*
X174363368Y-119899525D01*
X174156525Y-120106368D01*
X174040000Y-120280760D01*
X173923475Y-120106368D01*
X173716632Y-119899525D01*
X173473411Y-119737010D01*
X173203158Y-119625068D01*
X172916260Y-119568000D01*
X172623740Y-119568000D01*
X172336842Y-119625068D01*
X172066589Y-119737010D01*
X171823368Y-119899525D01*
X171616525Y-120106368D01*
X171500000Y-120280760D01*
X171383475Y-120106368D01*
X171176632Y-119899525D01*
X170933411Y-119737010D01*
X170663158Y-119625068D01*
X170376260Y-119568000D01*
X170083740Y-119568000D01*
X169796842Y-119625068D01*
X169526589Y-119737010D01*
X169283368Y-119899525D01*
X169076525Y-120106368D01*
X168960000Y-120280760D01*
X168843475Y-120106368D01*
X168636632Y-119899525D01*
X168393411Y-119737010D01*
X168123158Y-119625068D01*
X167836260Y-119568000D01*
X167543740Y-119568000D01*
X167256842Y-119625068D01*
X166986589Y-119737010D01*
X166743368Y-119899525D01*
X166536525Y-120106368D01*
X166420000Y-120280760D01*
X166303475Y-120106368D01*
X166096632Y-119899525D01*
X165853411Y-119737010D01*
X165583158Y-119625068D01*
X165296260Y-119568000D01*
X165003740Y-119568000D01*
X164716842Y-119625068D01*
X164446589Y-119737010D01*
X164203368Y-119899525D01*
X163996525Y-120106368D01*
X163880000Y-120280760D01*
X163763475Y-120106368D01*
X163556632Y-119899525D01*
X163313411Y-119737010D01*
X163043158Y-119625068D01*
X162756260Y-119568000D01*
X162463740Y-119568000D01*
X162176842Y-119625068D01*
X161906589Y-119737010D01*
X161663368Y-119899525D01*
X161456525Y-120106368D01*
X161340000Y-120280760D01*
X161223475Y-120106368D01*
X161016632Y-119899525D01*
X160773411Y-119737010D01*
X160503158Y-119625068D01*
X160216260Y-119568000D01*
X159923740Y-119568000D01*
X159636842Y-119625068D01*
X159366589Y-119737010D01*
X159123368Y-119899525D01*
X158991513Y-120031380D01*
X158969502Y-119958820D01*
X158910537Y-119848506D01*
X158831185Y-119751815D01*
X158734494Y-119672463D01*
X158624180Y-119613498D01*
X158504482Y-119577188D01*
X158380000Y-119564928D01*
X156680000Y-119564928D01*
X156555518Y-119577188D01*
X156435820Y-119613498D01*
X156325506Y-119672463D01*
X156228815Y-119751815D01*
X156149463Y-119848506D01*
X156090498Y-119958820D01*
X156054188Y-120078518D01*
X156041928Y-120203000D01*
X156041928Y-121903000D01*
X156054188Y-122027482D01*
X156090498Y-122147180D01*
X156149463Y-122257494D01*
X156217174Y-122340000D01*
X153196798Y-122340000D01*
X153396632Y-122206475D01*
X153603475Y-121999632D01*
X153765990Y-121756411D01*
X153877932Y-121486158D01*
X153935000Y-121199260D01*
X153935000Y-120906740D01*
X153877932Y-120619842D01*
X153765990Y-120349589D01*
X153603475Y-120106368D01*
X153396632Y-119899525D01*
X153153411Y-119737010D01*
X152883158Y-119625068D01*
X152596260Y-119568000D01*
X152303740Y-119568000D01*
X152016842Y-119625068D01*
X151746589Y-119737010D01*
X151503368Y-119899525D01*
X151296525Y-120106368D01*
X151180000Y-120280760D01*
X151063475Y-120106368D01*
X150856632Y-119899525D01*
X150613411Y-119737010D01*
X150343158Y-119625068D01*
X150056260Y-119568000D01*
X149763740Y-119568000D01*
X149476842Y-119625068D01*
X149206589Y-119737010D01*
X148963368Y-119899525D01*
X148756525Y-120106368D01*
X148640000Y-120280760D01*
X148523475Y-120106368D01*
X148316632Y-119899525D01*
X148073411Y-119737010D01*
X147803158Y-119625068D01*
X147516260Y-119568000D01*
X147223740Y-119568000D01*
X146936842Y-119625068D01*
X146666589Y-119737010D01*
X146423368Y-119899525D01*
X146216525Y-120106368D01*
X146100000Y-120280760D01*
X145983475Y-120106368D01*
X145776632Y-119899525D01*
X145533411Y-119737010D01*
X145263158Y-119625068D01*
X144976260Y-119568000D01*
X144683740Y-119568000D01*
X144396842Y-119625068D01*
X144126589Y-119737010D01*
X143883368Y-119899525D01*
X143676525Y-120106368D01*
X143560000Y-120280760D01*
X143443475Y-120106368D01*
X143236632Y-119899525D01*
X142993411Y-119737010D01*
X142723158Y-119625068D01*
X142436260Y-119568000D01*
X142143740Y-119568000D01*
X141856842Y-119625068D01*
X141586589Y-119737010D01*
X141343368Y-119899525D01*
X141136525Y-120106368D01*
X141020000Y-120280760D01*
X140903475Y-120106368D01*
X140696632Y-119899525D01*
X140453411Y-119737010D01*
X140183158Y-119625068D01*
X139896260Y-119568000D01*
X139603740Y-119568000D01*
X139316842Y-119625068D01*
X139046589Y-119737010D01*
X138803368Y-119899525D01*
X138596525Y-120106368D01*
X138480000Y-120280760D01*
X138363475Y-120106368D01*
X138156632Y-119899525D01*
X137913411Y-119737010D01*
X137643158Y-119625068D01*
X137356260Y-119568000D01*
X137063740Y-119568000D01*
X136776842Y-119625068D01*
X136506589Y-119737010D01*
X136263368Y-119899525D01*
X136131513Y-120031380D01*
X136109502Y-119958820D01*
X136050537Y-119848506D01*
X135971185Y-119751815D01*
X135874494Y-119672463D01*
X135764180Y-119613498D01*
X135644482Y-119577188D01*
X135520000Y-119564928D01*
X133820000Y-119564928D01*
X133695518Y-119577188D01*
X133575820Y-119613498D01*
X133465506Y-119672463D01*
X133368815Y-119751815D01*
X133289463Y-119848506D01*
X133230498Y-119958820D01*
X133194188Y-120078518D01*
X133181928Y-120203000D01*
X133181928Y-121903000D01*
X133194188Y-122027482D01*
X133230498Y-122147180D01*
X133289463Y-122257494D01*
X133357174Y-122340000D01*
X130336798Y-122340000D01*
X130536632Y-122206475D01*
X130743475Y-121999632D01*
X130905990Y-121756411D01*
X131017932Y-121486158D01*
X131075000Y-121199260D01*
X131075000Y-120906740D01*
X131017932Y-120619842D01*
X130905990Y-120349589D01*
X130743475Y-120106368D01*
X130536632Y-119899525D01*
X130293411Y-119737010D01*
X130023158Y-119625068D01*
X129736260Y-119568000D01*
X129443740Y-119568000D01*
X129156842Y-119625068D01*
X128886589Y-119737010D01*
X128643368Y-119899525D01*
X128436525Y-120106368D01*
X128320000Y-120280760D01*
X128203475Y-120106368D01*
X127996632Y-119899525D01*
X127753411Y-119737010D01*
X127483158Y-119625068D01*
X127196260Y-119568000D01*
X126903740Y-119568000D01*
X126616842Y-119625068D01*
X126346589Y-119737010D01*
X126103368Y-119899525D01*
X125896525Y-120106368D01*
X125780000Y-120280760D01*
X125663475Y-120106368D01*
X125456632Y-119899525D01*
X125213411Y-119737010D01*
X124943158Y-119625068D01*
X124656260Y-119568000D01*
X124363740Y-119568000D01*
X124076842Y-119625068D01*
X123806589Y-119737010D01*
X123563368Y-119899525D01*
X123356525Y-120106368D01*
X123240000Y-120280760D01*
X123123475Y-120106368D01*
X122916632Y-119899525D01*
X122673411Y-119737010D01*
X122403158Y-119625068D01*
X122116260Y-119568000D01*
X121823740Y-119568000D01*
X121536842Y-119625068D01*
X121266589Y-119737010D01*
X121023368Y-119899525D01*
X120816525Y-120106368D01*
X120700000Y-120280760D01*
X120583475Y-120106368D01*
X120376632Y-119899525D01*
X120133411Y-119737010D01*
X119863158Y-119625068D01*
X119576260Y-119568000D01*
X119283740Y-119568000D01*
X118996842Y-119625068D01*
X118726589Y-119737010D01*
X118483368Y-119899525D01*
X118276525Y-120106368D01*
X118160000Y-120280760D01*
X118043475Y-120106368D01*
X117836632Y-119899525D01*
X117593411Y-119737010D01*
X117323158Y-119625068D01*
X117036260Y-119568000D01*
X116743740Y-119568000D01*
X116456842Y-119625068D01*
X116186589Y-119737010D01*
X115943368Y-119899525D01*
X115736525Y-120106368D01*
X115620000Y-120280760D01*
X115503475Y-120106368D01*
X115296632Y-119899525D01*
X115053411Y-119737010D01*
X114783158Y-119625068D01*
X114496260Y-119568000D01*
X114203740Y-119568000D01*
X113916842Y-119625068D01*
X113646589Y-119737010D01*
X113403368Y-119899525D01*
X113271513Y-120031380D01*
X113249502Y-119958820D01*
X113190537Y-119848506D01*
X113111185Y-119751815D01*
X113014494Y-119672463D01*
X112904180Y-119613498D01*
X112784482Y-119577188D01*
X112660000Y-119564928D01*
X110960000Y-119564928D01*
X110835518Y-119577188D01*
X110715820Y-119613498D01*
X110605506Y-119672463D01*
X110508815Y-119751815D01*
X110429463Y-119848506D01*
X110370498Y-119958820D01*
X110334188Y-120078518D01*
X110321928Y-120203000D01*
X110321928Y-121903000D01*
X110334188Y-122027482D01*
X110370498Y-122147180D01*
X110429463Y-122257494D01*
X110497174Y-122340000D01*
X108660000Y-122340000D01*
X108660000Y-112218397D01*
X112551208Y-112218397D01*
X112628843Y-112467472D01*
X112892883Y-112593371D01*
X113176411Y-112665339D01*
X113468531Y-112680611D01*
X113758019Y-112638599D01*
X114033747Y-112540919D01*
X114171157Y-112467472D01*
X114248792Y-112218397D01*
X113400000Y-111369605D01*
X112551208Y-112218397D01*
X108660000Y-112218397D01*
X108660000Y-111258531D01*
X111909389Y-111258531D01*
X111951401Y-111548019D01*
X112049081Y-111823747D01*
X112122528Y-111961157D01*
X112371603Y-112038792D01*
X113220395Y-111190000D01*
X112371603Y-110341208D01*
X112122528Y-110418843D01*
X111996629Y-110682883D01*
X111924661Y-110966411D01*
X111909389Y-111258531D01*
X108660000Y-111258531D01*
X108660000Y-106178531D01*
X111909389Y-106178531D01*
X111951401Y-106468019D01*
X112049081Y-106743747D01*
X112122528Y-106881157D01*
X112371603Y-106958792D01*
X113220395Y-106110000D01*
X112371603Y-105261208D01*
X112122528Y-105338843D01*
X111996629Y-105602883D01*
X111924661Y-105886411D01*
X111909389Y-106178531D01*
X108660000Y-106178531D01*
X108660000Y-83660000D01*
X110537834Y-83660000D01*
X110508815Y-83683815D01*
G04 #@! TA.AperFunction,Conductor*
D31*
G36*
X110508815Y-83683815D02*
G01*
X110429463Y-83780506D01*
X110370498Y-83890820D01*
X110334188Y-84010518D01*
X110321928Y-84135000D01*
X110321928Y-85835000D01*
X110334188Y-85959482D01*
X110370498Y-86079180D01*
X110429463Y-86189494D01*
X110508815Y-86286185D01*
X110605506Y-86365537D01*
X110715820Y-86424502D01*
X110835518Y-86460812D01*
X110960000Y-86473072D01*
X112258625Y-86473072D01*
X112714757Y-86929204D01*
X112737773Y-86957249D01*
X112849691Y-87049098D01*
X112977378Y-87117348D01*
X113115926Y-87159376D01*
X113223906Y-87170011D01*
X113223915Y-87170011D01*
X113260010Y-87173566D01*
X113296105Y-87170011D01*
X117045589Y-87170011D01*
X117154786Y-87279208D01*
X117177807Y-87307259D01*
X117289725Y-87399108D01*
X117417412Y-87467358D01*
X117534002Y-87502725D01*
X117555960Y-87509386D01*
X117700045Y-87523577D01*
X117736150Y-87520021D01*
X119440611Y-87520021D01*
X119569801Y-87649211D01*
X119592822Y-87677262D01*
X119704740Y-87769111D01*
X119832427Y-87837361D01*
X119970975Y-87879389D01*
X120078955Y-87890024D01*
X120078964Y-87890024D01*
X120115059Y-87893579D01*
X120151154Y-87890024D01*
X121855626Y-87890024D01*
X121944830Y-87979228D01*
X121967851Y-88007279D01*
X122079769Y-88099128D01*
X122113892Y-88117367D01*
X122207455Y-88167378D01*
X122346004Y-88209406D01*
X122490089Y-88223597D01*
X122526194Y-88220041D01*
X124230655Y-88220041D01*
X124354851Y-88344237D01*
X124377872Y-88372288D01*
X124489790Y-88464137D01*
X124535531Y-88488586D01*
X124617476Y-88532387D01*
X124756025Y-88574415D01*
X124900110Y-88588606D01*
X124936215Y-88585050D01*
X126640676Y-88585050D01*
X126734874Y-88679248D01*
X126757895Y-88707299D01*
X126869813Y-88799148D01*
X126997500Y-88867398D01*
X127080834Y-88892677D01*
X127136047Y-88909426D01*
X127150265Y-88910826D01*
X127244028Y-88920061D01*
X127244035Y-88920061D01*
X127280132Y-88923616D01*
X127316229Y-88920061D01*
X130964952Y-88920061D01*
X130964951Y-94307800D01*
X130961395Y-94343905D01*
X130969308Y-94424247D01*
X130975586Y-94487989D01*
X131017614Y-94626537D01*
X131085864Y-94754224D01*
X131177713Y-94866142D01*
X131205759Y-94889159D01*
X133460792Y-97144193D01*
X133483808Y-97172238D01*
X133595726Y-97264087D01*
X133723413Y-97332337D01*
X133861961Y-97374365D01*
X133933570Y-97381418D01*
X133926110Y-97406009D01*
X133911928Y-97550000D01*
X133911928Y-97750000D01*
X133926110Y-97893991D01*
X133950684Y-97975000D01*
X133926110Y-98056009D01*
X133911928Y-98200000D01*
X133911928Y-98400000D01*
X133926110Y-98543991D01*
X133950684Y-98625000D01*
X133926110Y-98706009D01*
X133911928Y-98850000D01*
X133911928Y-99050000D01*
X133926110Y-99193991D01*
X133950684Y-99275000D01*
X133926110Y-99356009D01*
X133911928Y-99500000D01*
X133911928Y-99700000D01*
X133926110Y-99843991D01*
X133950684Y-99925000D01*
X133926110Y-100006009D01*
X133911928Y-100150000D01*
X133911928Y-100350000D01*
X133926110Y-100493991D01*
X133950684Y-100575000D01*
X133926110Y-100656009D01*
X133911928Y-100800000D01*
X133911928Y-101000000D01*
X133926110Y-101143991D01*
X133950684Y-101225000D01*
X133926110Y-101306009D01*
X133911928Y-101450000D01*
X133911928Y-101650000D01*
X133926110Y-101793991D01*
X133950684Y-101875000D01*
X133926110Y-101956009D01*
X133911928Y-102100000D01*
X133911928Y-102300000D01*
X133926110Y-102443991D01*
X133950684Y-102525000D01*
X133926110Y-102606009D01*
X133911928Y-102750000D01*
X133911928Y-102950000D01*
X133914384Y-102974938D01*
X132954655Y-102015209D01*
X132952911Y-102006440D01*
X132889967Y-101854479D01*
X132798587Y-101717719D01*
X132785000Y-101704132D01*
X132785000Y-101617760D01*
X132752911Y-101456440D01*
X132739888Y-101424999D01*
X132752911Y-101393557D01*
X132785000Y-101232237D01*
X132785000Y-101067757D01*
X132752911Y-100906437D01*
X132689967Y-100754476D01*
X132598587Y-100617716D01*
X132482281Y-100501410D01*
X132345521Y-100410030D01*
X132193560Y-100347086D01*
X132032240Y-100314997D01*
X131867760Y-100314997D01*
X131706440Y-100347086D01*
X131554479Y-100410030D01*
X131417719Y-100501410D01*
X131301413Y-100617716D01*
X131250220Y-100694332D01*
X130855797Y-101088755D01*
X130827751Y-101111772D01*
X130735902Y-101223690D01*
X130667652Y-101351377D01*
X130648352Y-101415000D01*
X130625624Y-101489924D01*
X130611433Y-101634009D01*
X130614989Y-101670115D01*
X130614990Y-102574865D01*
X130611433Y-102610979D01*
X130625624Y-102755064D01*
X130665318Y-102885914D01*
X130667653Y-102893612D01*
X130735903Y-103021299D01*
X130827752Y-103133217D01*
X130855797Y-103156233D01*
X132564990Y-104865427D01*
X132564991Y-105183291D01*
X132456113Y-105074413D01*
X132339175Y-104996277D01*
X132289967Y-104877479D01*
X132198587Y-104740719D01*
X132082281Y-104624413D01*
X131945521Y-104533033D01*
X131793560Y-104470089D01*
X131724144Y-104456281D01*
X131664671Y-104367273D01*
X131548365Y-104250967D01*
X131411605Y-104159587D01*
X131259644Y-104096643D01*
X131098324Y-104064554D01*
X130933844Y-104064554D01*
X130772524Y-104096643D01*
X130620563Y-104159587D01*
X130483803Y-104250967D01*
X130367497Y-104367273D01*
X130334969Y-104415955D01*
X130334969Y-104103001D01*
X130339967Y-104095521D01*
X130402911Y-103943560D01*
X130435000Y-103782240D01*
X130435000Y-103617760D01*
X130402911Y-103456440D01*
X130339967Y-103304479D01*
X130248587Y-103167719D01*
X130132281Y-103051413D01*
X129995521Y-102960033D01*
X129843560Y-102897089D01*
X129682240Y-102865000D01*
X129517760Y-102865000D01*
X129356440Y-102897089D01*
X129204479Y-102960033D01*
X129067719Y-103051413D01*
X129037132Y-103082000D01*
X128554999Y-102599868D01*
X128554999Y-94535750D01*
X128560490Y-94479998D01*
X128538576Y-94257499D01*
X128473675Y-94043552D01*
X128455912Y-94010320D01*
X128368283Y-93846376D01*
X128226448Y-93673550D01*
X128183140Y-93638008D01*
X127005518Y-92460386D01*
X127233411Y-92365990D01*
X127476632Y-92203475D01*
X127683475Y-91996632D01*
X127845990Y-91753411D01*
X127957932Y-91483158D01*
X128015000Y-91196260D01*
X128015000Y-90903740D01*
X127957932Y-90616842D01*
X127845990Y-90346589D01*
X127683475Y-90103368D01*
X127476632Y-89896525D01*
X127233411Y-89734010D01*
X126963158Y-89622068D01*
X126676260Y-89565000D01*
X126383740Y-89565000D01*
X126165951Y-89608321D01*
X125918283Y-89360653D01*
X125894421Y-89331577D01*
X125778391Y-89236354D01*
X125646014Y-89165597D01*
X125502377Y-89122025D01*
X125390425Y-89110999D01*
X125390422Y-89110999D01*
X125352999Y-89107313D01*
X125315576Y-89110999D01*
X120312462Y-89110999D01*
X120275039Y-89107313D01*
X120237616Y-89110999D01*
X120237613Y-89110999D01*
X120125661Y-89122025D01*
X119982024Y-89165597D01*
X119932184Y-89192237D01*
X119849646Y-89236354D01*
X119807258Y-89271142D01*
X119733617Y-89331577D01*
X119709755Y-89360653D01*
X114470856Y-94599552D01*
X114339850Y-94529528D01*
X114173254Y-94478992D01*
X114000000Y-94461928D01*
X112800000Y-94461928D01*
X112626746Y-94478992D01*
X112460150Y-94529528D01*
X112306614Y-94611595D01*
X112172038Y-94722038D01*
X112061595Y-94856614D01*
X111979528Y-95010150D01*
X111928992Y-95176746D01*
X111911928Y-95350000D01*
X111911928Y-96550000D01*
X111928992Y-96723254D01*
X111979528Y-96889850D01*
X112061595Y-97043386D01*
X112172038Y-97177962D01*
X112306614Y-97288405D01*
X112433608Y-97356285D01*
X112246525Y-97543368D01*
X112084010Y-97786589D01*
X111972068Y-98056842D01*
X111915000Y-98343740D01*
X111915000Y-98636260D01*
X111972068Y-98923158D01*
X112084010Y-99193411D01*
X112246525Y-99436632D01*
X112453368Y-99643475D01*
X112627760Y-99760000D01*
X112453368Y-99876525D01*
X112246525Y-100083368D01*
X112084010Y-100326589D01*
X111972068Y-100596842D01*
X111915000Y-100883740D01*
X111915000Y-101176260D01*
X111972068Y-101463158D01*
X112084010Y-101733411D01*
X112246525Y-101976632D01*
X112453368Y-102183475D01*
X112627760Y-102300000D01*
X112453368Y-102416525D01*
X112246525Y-102623368D01*
X112084010Y-102866589D01*
X111972068Y-103136842D01*
X111915000Y-103423740D01*
X111915000Y-103716260D01*
X111972068Y-104003158D01*
X112084010Y-104273411D01*
X112246525Y-104516632D01*
X112453368Y-104723475D01*
X112626729Y-104839311D01*
X112551208Y-105081603D01*
X113400000Y-105930395D01*
X114248792Y-105081603D01*
X114173271Y-104839311D01*
X114346632Y-104723475D01*
X114553475Y-104516632D01*
X114670000Y-104342240D01*
X114786525Y-104516632D01*
X114993368Y-104723475D01*
X115167760Y-104840000D01*
X114993368Y-104956525D01*
X114786525Y-105163368D01*
X114670689Y-105336729D01*
X114428397Y-105261208D01*
X113579605Y-106110000D01*
X114428397Y-106958792D01*
X114670689Y-106883271D01*
X114786525Y-107056632D01*
X114993368Y-107263475D01*
X115167760Y-107380000D01*
X114993368Y-107496525D01*
X114786525Y-107703368D01*
X114670000Y-107877760D01*
X114553475Y-107703368D01*
X114346632Y-107496525D01*
X114173271Y-107380689D01*
X114248792Y-107138397D01*
X113400000Y-106289605D01*
X112551208Y-107138397D01*
X112626729Y-107380689D01*
X112453368Y-107496525D01*
X112246525Y-107703368D01*
X112084010Y-107946589D01*
X111972068Y-108216842D01*
X111915000Y-108503740D01*
X111915000Y-108796260D01*
X111972068Y-109083158D01*
X112084010Y-109353411D01*
X112246525Y-109596632D01*
X112453368Y-109803475D01*
X112626729Y-109919311D01*
X112551208Y-110161603D01*
X113400000Y-111010395D01*
X114248792Y-110161603D01*
X114173271Y-109919311D01*
X114346632Y-109803475D01*
X114553475Y-109596632D01*
X114670000Y-109422240D01*
X114786525Y-109596632D01*
X114993368Y-109803475D01*
X115167760Y-109920000D01*
X114993368Y-110036525D01*
X114786525Y-110243368D01*
X114670689Y-110416729D01*
X114428397Y-110341208D01*
X113579605Y-111190000D01*
X114428397Y-112038792D01*
X114670689Y-111963271D01*
X114786525Y-112136632D01*
X114993368Y-112343475D01*
X115236589Y-112505990D01*
X115506842Y-112617932D01*
X115793740Y-112675000D01*
X116086260Y-112675000D01*
X116373158Y-112617932D01*
X116643411Y-112505990D01*
X116886632Y-112343475D01*
X117093475Y-112136632D01*
X117255990Y-111893411D01*
X117367932Y-111623158D01*
X117425000Y-111336260D01*
X117425000Y-111043740D01*
X117367932Y-110756842D01*
X117255990Y-110486589D01*
X117093475Y-110243368D01*
X116886632Y-110036525D01*
X116712240Y-109920000D01*
X116886632Y-109803475D01*
X117093475Y-109596632D01*
X117255990Y-109353411D01*
X117367932Y-109083158D01*
X117425000Y-108796260D01*
X117425000Y-108503740D01*
X117367932Y-108216842D01*
X117255990Y-107946589D01*
X117093475Y-107703368D01*
X116886632Y-107496525D01*
X116712240Y-107380000D01*
X116886632Y-107263475D01*
X117093475Y-107056632D01*
X117255990Y-106813411D01*
X117367932Y-106543158D01*
X117425000Y-106256260D01*
X117425000Y-105963740D01*
X117367932Y-105676842D01*
X117255990Y-105406589D01*
X117093475Y-105163368D01*
X116886632Y-104956525D01*
X116712240Y-104840000D01*
X116886632Y-104723475D01*
X117093475Y-104516632D01*
X117255990Y-104273411D01*
X117367932Y-104003158D01*
X117425000Y-103716260D01*
X117425000Y-103423740D01*
X117367932Y-103136842D01*
X117255990Y-102866589D01*
X117093475Y-102623368D01*
X116886632Y-102416525D01*
X116712240Y-102300000D01*
X116886632Y-102183475D01*
X117093475Y-101976632D01*
X117255990Y-101733411D01*
X117367932Y-101463158D01*
X117425000Y-101176260D01*
X117425000Y-100883740D01*
X117367932Y-100596842D01*
X117255990Y-100326589D01*
X117093475Y-100083368D01*
X116886632Y-99876525D01*
X116712240Y-99760000D01*
X116886632Y-99643475D01*
X117093475Y-99436632D01*
X117255990Y-99193411D01*
X117367932Y-98923158D01*
X117425000Y-98636260D01*
X117425000Y-98343740D01*
X117367932Y-98056842D01*
X117255990Y-97786589D01*
X117093475Y-97543368D01*
X116886632Y-97336525D01*
X116844100Y-97308106D01*
X117082581Y-97235764D01*
X117323188Y-97107157D01*
X117534081Y-96934081D01*
X117577454Y-96881231D01*
X121920613Y-92538072D01*
X122300000Y-92538072D01*
X122424482Y-92525812D01*
X122544180Y-92489502D01*
X122654494Y-92430537D01*
X122751185Y-92351185D01*
X122830537Y-92254494D01*
X122889502Y-92144180D01*
X122911513Y-92071620D01*
X123043368Y-92203475D01*
X123286589Y-92365990D01*
X123556842Y-92477932D01*
X123843740Y-92535000D01*
X123869869Y-92535000D01*
X126284999Y-94950131D01*
X126285000Y-95724500D01*
X124747508Y-95724500D01*
X124742889Y-95721414D01*
X124572729Y-95650932D01*
X124392089Y-95615000D01*
X124207911Y-95615000D01*
X124027271Y-95650932D01*
X123857111Y-95721414D01*
X123703972Y-95823738D01*
X123573738Y-95953972D01*
X123471414Y-96107111D01*
X123400932Y-96277271D01*
X123365000Y-96457911D01*
X123365000Y-96642089D01*
X123400932Y-96822729D01*
X123471414Y-96992889D01*
X123573738Y-97146028D01*
X123703972Y-97276262D01*
X123857111Y-97378586D01*
X124027271Y-97449068D01*
X124207911Y-97485000D01*
X124392089Y-97485000D01*
X124572729Y-97449068D01*
X124742889Y-97378586D01*
X124747508Y-97375500D01*
X126284999Y-97375500D01*
X126285000Y-103014238D01*
X126279508Y-103069999D01*
X126301422Y-103292497D01*
X126366323Y-103506445D01*
X126397450Y-103564680D01*
X126471716Y-103703622D01*
X126613551Y-103876448D01*
X126656859Y-103911990D01*
X127315000Y-104570132D01*
X127315000Y-105807765D01*
X127138655Y-105631420D01*
X127128586Y-105607111D01*
X127026262Y-105453972D01*
X126896028Y-105323738D01*
X126742889Y-105221414D01*
X126572729Y-105150932D01*
X126392089Y-105115000D01*
X125101466Y-105115000D01*
X125009645Y-105114829D01*
X124828939Y-105150426D01*
X124658649Y-105220592D01*
X124655575Y-105222237D01*
X124651293Y-105300951D01*
X124614461Y-105345473D01*
X124596494Y-105366886D01*
X124530238Y-105300630D01*
X124548587Y-105282281D01*
X124639967Y-105145521D01*
X124702911Y-104993560D01*
X124735000Y-104832240D01*
X124735000Y-104667760D01*
X124702911Y-104506440D01*
X124639967Y-104354479D01*
X124635000Y-104347045D01*
X124635000Y-101986105D01*
X124638556Y-101950000D01*
X124624365Y-101805915D01*
X124619188Y-101788850D01*
X124582337Y-101667367D01*
X124514087Y-101539680D01*
X124422238Y-101427762D01*
X124394193Y-101404746D01*
X122204655Y-99215209D01*
X122202911Y-99206440D01*
X122139967Y-99054479D01*
X122048587Y-98917719D01*
X121932281Y-98801413D01*
X121795521Y-98710033D01*
X121643560Y-98647089D01*
X121482240Y-98615000D01*
X121317760Y-98615000D01*
X121156440Y-98647089D01*
X121004479Y-98710033D01*
X120867719Y-98801413D01*
X120751413Y-98917719D01*
X120660033Y-99054479D01*
X120597089Y-99206440D01*
X120565000Y-99367760D01*
X120565000Y-99532240D01*
X120597089Y-99693560D01*
X120660033Y-99845521D01*
X120751413Y-99982281D01*
X120867719Y-100098587D01*
X121004479Y-100189967D01*
X121156440Y-100252911D01*
X121165209Y-100254655D01*
X123165001Y-102254448D01*
X123165000Y-104347045D01*
X123160033Y-104354479D01*
X123097089Y-104506440D01*
X123065000Y-104667760D01*
X123065000Y-104832240D01*
X123097089Y-104993560D01*
X123160033Y-105145521D01*
X123251413Y-105282281D01*
X123367719Y-105398587D01*
X123504479Y-105489967D01*
X123656440Y-105552911D01*
X123817760Y-105585000D01*
X123982240Y-105585000D01*
X124143560Y-105552911D01*
X124295521Y-105489967D01*
X124406098Y-105416082D01*
X124346286Y-105475894D01*
X124465456Y-105595064D01*
X124272237Y-105605575D01*
X124201438Y-105775603D01*
X124165172Y-105956176D01*
X124164829Y-106140355D01*
X124200426Y-106321061D01*
X124270592Y-106491351D01*
X124272237Y-106494425D01*
X124465459Y-106504936D01*
X124481722Y-106488673D01*
X124494388Y-106530621D01*
X124511238Y-106587875D01*
X124512269Y-106589847D01*
X124512913Y-106591980D01*
X124540988Y-106644781D01*
X124568655Y-106697703D01*
X124570049Y-106699437D01*
X124571095Y-106701404D01*
X124608883Y-106747737D01*
X124646310Y-106794286D01*
X124648015Y-106795717D01*
X124649423Y-106797443D01*
X124651290Y-106798987D01*
X124655575Y-106877763D01*
X124825603Y-106948562D01*
X125006176Y-106984828D01*
X125190355Y-106985171D01*
X125191223Y-106985000D01*
X125977765Y-106985000D01*
X126161000Y-107168236D01*
X126161000Y-108270893D01*
X126086632Y-108196525D01*
X125843411Y-108034010D01*
X125573158Y-107922068D01*
X125286260Y-107865000D01*
X124993740Y-107865000D01*
X124706842Y-107922068D01*
X124436589Y-108034010D01*
X124193368Y-108196525D01*
X124061513Y-108328380D01*
X124039502Y-108255820D01*
X123980537Y-108145506D01*
X123901185Y-108048815D01*
X123804494Y-107969463D01*
X123694180Y-107910498D01*
X123574482Y-107874188D01*
X123450000Y-107861928D01*
X121750000Y-107861928D01*
X121625518Y-107874188D01*
X121505820Y-107910498D01*
X121395506Y-107969463D01*
X121298815Y-108048815D01*
X121219463Y-108145506D01*
X121160498Y-108255820D01*
X121124188Y-108375518D01*
X121111928Y-108500000D01*
X121111928Y-110200000D01*
X121124188Y-110324482D01*
X121160498Y-110444180D01*
X121219463Y-110554494D01*
X121298815Y-110651185D01*
X121395506Y-110730537D01*
X121505820Y-110789502D01*
X121625518Y-110825812D01*
X121750000Y-110838072D01*
X123450000Y-110838072D01*
X123574482Y-110825812D01*
X123694180Y-110789502D01*
X123804494Y-110730537D01*
X123901185Y-110651185D01*
X123980537Y-110554494D01*
X124039502Y-110444180D01*
X124061513Y-110371620D01*
X124193368Y-110503475D01*
X124436589Y-110665990D01*
X124706842Y-110777932D01*
X124993740Y-110835000D01*
X125286260Y-110835000D01*
X125573158Y-110777932D01*
X125843411Y-110665990D01*
X126086632Y-110503475D01*
X126161001Y-110429106D01*
X126161001Y-110711764D01*
X126002264Y-110870501D01*
X126002258Y-110870506D01*
X125345901Y-111526863D01*
X125286260Y-111515000D01*
X124993740Y-111515000D01*
X124706842Y-111572068D01*
X124436589Y-111684010D01*
X124193368Y-111846525D01*
X124061513Y-111978380D01*
X124039502Y-111905820D01*
X123980537Y-111795506D01*
X123901185Y-111698815D01*
X123804494Y-111619463D01*
X123694180Y-111560498D01*
X123574482Y-111524188D01*
X123450000Y-111511928D01*
X121750000Y-111511928D01*
X121625518Y-111524188D01*
X121505820Y-111560498D01*
X121395506Y-111619463D01*
X121298815Y-111698815D01*
X121219463Y-111795506D01*
X121160498Y-111905820D01*
X121124188Y-112025518D01*
X121111928Y-112150000D01*
X121111928Y-113850000D01*
X121124188Y-113974482D01*
X121160498Y-114094180D01*
X121219463Y-114204494D01*
X121298815Y-114301185D01*
X121395506Y-114380537D01*
X121505820Y-114439502D01*
X121625518Y-114475812D01*
X121750000Y-114488072D01*
X123450000Y-114488072D01*
X123574482Y-114475812D01*
X123694180Y-114439502D01*
X123804494Y-114380537D01*
X123901185Y-114301185D01*
X123980537Y-114204494D01*
X124039502Y-114094180D01*
X124061513Y-114021620D01*
X124193368Y-114153475D01*
X124436589Y-114315990D01*
X124706842Y-114427932D01*
X124993740Y-114485000D01*
X125286260Y-114485000D01*
X125573158Y-114427932D01*
X125843411Y-114315990D01*
X126086632Y-114153475D01*
X126293475Y-113946632D01*
X126455990Y-113703411D01*
X126567932Y-113433158D01*
X126625000Y-113146260D01*
X126625000Y-112853740D01*
X126609818Y-112777417D01*
X127259494Y-112127742D01*
X127259499Y-112127736D01*
X127315001Y-112072234D01*
X127315001Y-112188207D01*
X127315000Y-112188212D01*
X127315000Y-112244249D01*
X127309509Y-112300000D01*
X127315000Y-112355751D01*
X127315000Y-112411788D01*
X127325932Y-112466748D01*
X127331423Y-112522498D01*
X127347684Y-112576103D01*
X127358617Y-112631067D01*
X127380064Y-112682845D01*
X127396324Y-112736446D01*
X127422728Y-112785845D01*
X127444176Y-112837624D01*
X127475312Y-112884222D01*
X127501717Y-112933623D01*
X127537254Y-112976925D01*
X127568388Y-113023520D01*
X127608014Y-113063146D01*
X127643552Y-113106449D01*
X127686855Y-113141987D01*
X127726480Y-113181612D01*
X127726483Y-113181614D01*
X128408008Y-113863140D01*
X128443551Y-113906449D01*
X128578507Y-114017205D01*
X128616377Y-114048284D01*
X128813553Y-114153676D01*
X129027501Y-114218577D01*
X129250000Y-114240491D01*
X129305752Y-114235000D01*
X145794249Y-114235000D01*
X145850000Y-114240491D01*
X145905751Y-114235000D01*
X145905752Y-114235000D01*
X146072499Y-114218577D01*
X146286447Y-114153676D01*
X146483623Y-114048284D01*
X146656449Y-113906449D01*
X146691996Y-113863135D01*
X147105131Y-113450000D01*
X153511928Y-113450000D01*
X153524188Y-113574482D01*
X153560498Y-113694180D01*
X153619463Y-113804494D01*
X153698815Y-113901185D01*
X153795506Y-113980537D01*
X153905820Y-114039502D01*
X154025518Y-114075812D01*
X154150000Y-114088072D01*
X154714250Y-114085000D01*
X154873000Y-113926250D01*
X154873000Y-112727000D01*
X155127000Y-112727000D01*
X155127000Y-113926250D01*
X155285750Y-114085000D01*
X155850000Y-114088072D01*
X155974482Y-114075812D01*
X156094180Y-114039502D01*
X156204494Y-113980537D01*
X156301185Y-113901185D01*
X156380537Y-113804494D01*
X156439502Y-113694180D01*
X156463966Y-113613534D01*
X156539731Y-113697588D01*
X156773080Y-113871641D01*
X157035901Y-113996825D01*
X157183110Y-114041476D01*
X157413000Y-113920155D01*
X157413000Y-112727000D01*
X157667000Y-112727000D01*
X157667000Y-113920155D01*
X157896890Y-114041476D01*
X158044099Y-113996825D01*
X158306920Y-113871641D01*
X158540269Y-113697588D01*
X158735178Y-113481355D01*
X158810000Y-113355745D01*
X158884822Y-113481355D01*
X159079731Y-113697588D01*
X159313080Y-113871641D01*
X159575901Y-113996825D01*
X159723110Y-114041476D01*
X159953000Y-113920155D01*
X159953000Y-112727000D01*
X160207000Y-112727000D01*
X160207000Y-113920155D01*
X160436890Y-114041476D01*
X160584099Y-113996825D01*
X160846920Y-113871641D01*
X161080269Y-113697588D01*
X161275178Y-113481355D01*
X161424157Y-113231252D01*
X161521481Y-112956891D01*
X161400814Y-112727000D01*
X160207000Y-112727000D01*
X159953000Y-112727000D01*
X157667000Y-112727000D01*
X157413000Y-112727000D01*
X155127000Y-112727000D01*
X154873000Y-112727000D01*
X153673750Y-112727000D01*
X153515000Y-112885750D01*
X153511928Y-113450000D01*
X147105131Y-113450000D01*
X148805131Y-111750000D01*
X153511928Y-111750000D01*
X153515000Y-112314250D01*
X153673750Y-112473000D01*
X154873000Y-112473000D01*
X154873000Y-111273750D01*
X155127000Y-111273750D01*
X155127000Y-112473000D01*
X157413000Y-112473000D01*
X157413000Y-111279845D01*
X157667000Y-111279845D01*
X157667000Y-112473000D01*
X159953000Y-112473000D01*
X159953000Y-111279845D01*
X160207000Y-111279845D01*
X160207000Y-112473000D01*
X161400814Y-112473000D01*
X161521481Y-112243109D01*
X161424157Y-111968748D01*
X161275178Y-111718645D01*
X161080269Y-111502412D01*
X160846920Y-111328359D01*
X160584099Y-111203175D01*
X160436890Y-111158524D01*
X160207000Y-111279845D01*
X159953000Y-111279845D01*
X159723110Y-111158524D01*
X159575901Y-111203175D01*
X159313080Y-111328359D01*
X159079731Y-111502412D01*
X158884822Y-111718645D01*
X158810000Y-111844255D01*
X158735178Y-111718645D01*
X158540269Y-111502412D01*
X158306920Y-111328359D01*
X158044099Y-111203175D01*
X157896890Y-111158524D01*
X157667000Y-111279845D01*
X157413000Y-111279845D01*
X157183110Y-111158524D01*
X157035901Y-111203175D01*
X156773080Y-111328359D01*
X156539731Y-111502412D01*
X156463966Y-111586466D01*
X156439502Y-111505820D01*
X156380537Y-111395506D01*
X156301185Y-111298815D01*
X156204494Y-111219463D01*
X156094180Y-111160498D01*
X155974482Y-111124188D01*
X155850000Y-111111928D01*
X155285750Y-111115000D01*
X155127000Y-111273750D01*
X154873000Y-111273750D01*
X154714250Y-111115000D01*
X154150000Y-111111928D01*
X154025518Y-111124188D01*
X153905820Y-111160498D01*
X153795506Y-111219463D01*
X153698815Y-111298815D01*
X153619463Y-111395506D01*
X153560498Y-111505820D01*
X153524188Y-111625518D01*
X153511928Y-111750000D01*
X148805131Y-111750000D01*
X152405132Y-108150000D01*
X153511928Y-108150000D01*
X153511928Y-109850000D01*
X153524188Y-109974482D01*
X153560498Y-110094180D01*
X153619463Y-110204494D01*
X153698815Y-110301185D01*
X153795506Y-110380537D01*
X153905820Y-110439502D01*
X154025518Y-110475812D01*
X154150000Y-110488072D01*
X155850000Y-110488072D01*
X155974482Y-110475812D01*
X156094180Y-110439502D01*
X156204494Y-110380537D01*
X156301185Y-110301185D01*
X156380537Y-110204494D01*
X156439502Y-110094180D01*
X156461513Y-110021620D01*
X156593368Y-110153475D01*
X156836589Y-110315990D01*
X157106842Y-110427932D01*
X157393740Y-110485000D01*
X157686260Y-110485000D01*
X157973158Y-110427932D01*
X158243411Y-110315990D01*
X158486632Y-110153475D01*
X158693475Y-109946632D01*
X158810000Y-109772240D01*
X158926525Y-109946632D01*
X159133368Y-110153475D01*
X159376589Y-110315990D01*
X159646842Y-110427932D01*
X159933740Y-110485000D01*
X160226260Y-110485000D01*
X160513158Y-110427932D01*
X160783411Y-110315990D01*
X161026632Y-110153475D01*
X161233475Y-109946632D01*
X161395990Y-109703411D01*
X161507932Y-109433158D01*
X161565000Y-109146260D01*
X161565000Y-108853740D01*
X161507932Y-108566842D01*
X161395990Y-108296589D01*
X161233475Y-108053368D01*
X161026632Y-107846525D01*
X160783411Y-107684010D01*
X160513158Y-107572068D01*
X160226260Y-107515000D01*
X159933740Y-107515000D01*
X159646842Y-107572068D01*
X159376589Y-107684010D01*
X159133368Y-107846525D01*
X158926525Y-108053368D01*
X158810000Y-108227760D01*
X158693475Y-108053368D01*
X158486632Y-107846525D01*
X158243411Y-107684010D01*
X157973158Y-107572068D01*
X157686260Y-107515000D01*
X157393740Y-107515000D01*
X157106842Y-107572068D01*
X156836589Y-107684010D01*
X156593368Y-107846525D01*
X156461513Y-107978380D01*
X156439502Y-107905820D01*
X156380537Y-107795506D01*
X156301185Y-107698815D01*
X156204494Y-107619463D01*
X156094180Y-107560498D01*
X155974482Y-107524188D01*
X155850000Y-107511928D01*
X154150000Y-107511928D01*
X154025518Y-107524188D01*
X153905820Y-107560498D01*
X153795506Y-107619463D01*
X153698815Y-107698815D01*
X153619463Y-107795506D01*
X153560498Y-107905820D01*
X153524188Y-108025518D01*
X153511928Y-108150000D01*
X152405132Y-108150000D01*
X153687523Y-106867609D01*
X174004038Y-106867609D01*
X174007909Y-106905282D01*
X174100079Y-107130533D01*
X174234422Y-107333474D01*
X174405775Y-107506307D01*
X174607554Y-107642390D01*
X174832004Y-107736493D01*
X175070500Y-107785000D01*
X175420500Y-107785000D01*
X175420500Y-106677000D01*
X175674500Y-106677000D01*
X175674500Y-107785000D01*
X176024500Y-107785000D01*
X176262996Y-107736493D01*
X176487446Y-107642390D01*
X176689225Y-107506307D01*
X176860578Y-107333474D01*
X176994921Y-107130533D01*
X177087091Y-106905282D01*
X177090962Y-106867609D01*
X176966231Y-106677000D01*
X175674500Y-106677000D01*
X175420500Y-106677000D01*
X174128769Y-106677000D01*
X174004038Y-106867609D01*
X153687523Y-106867609D01*
X153813146Y-106741987D01*
X153856449Y-106706449D01*
X153891991Y-106663141D01*
X153931612Y-106623520D01*
X153962741Y-106576933D01*
X153998284Y-106533623D01*
X154024693Y-106484214D01*
X154055824Y-106437624D01*
X154077269Y-106385851D01*
X154103676Y-106336447D01*
X154119937Y-106282842D01*
X154141383Y-106231067D01*
X154152315Y-106176106D01*
X154168577Y-106122499D01*
X154174068Y-106066747D01*
X154185000Y-106011788D01*
X154185000Y-105955751D01*
X154190491Y-105900000D01*
X154185000Y-105844248D01*
X154185000Y-100375000D01*
X164036928Y-100375000D01*
X164036928Y-101725000D01*
X164049188Y-101849482D01*
X164085498Y-101969180D01*
X164144463Y-102079494D01*
X164223815Y-102176185D01*
X164310697Y-102247487D01*
X164189093Y-102429482D01*
X164090342Y-102667887D01*
X164040000Y-102920976D01*
X164040000Y-103179024D01*
X164090342Y-103432113D01*
X164189093Y-103670518D01*
X164332456Y-103885077D01*
X164497379Y-104050000D01*
X164332456Y-104214923D01*
X164189093Y-104429482D01*
X164090342Y-104667887D01*
X164040000Y-104920976D01*
X164040000Y-105179024D01*
X164090342Y-105432113D01*
X164189093Y-105670518D01*
X164332456Y-105885077D01*
X164514923Y-106067544D01*
X164729482Y-106210907D01*
X164967887Y-106309658D01*
X165220976Y-106360000D01*
X165479024Y-106360000D01*
X165732113Y-106309658D01*
X165970518Y-106210907D01*
X166185077Y-106067544D01*
X166367544Y-105885077D01*
X166510907Y-105670518D01*
X166609658Y-105432113D01*
X166660000Y-105179024D01*
X166660000Y-104920976D01*
X166609658Y-104667887D01*
X166510907Y-104429482D01*
X166367544Y-104214923D01*
X166202621Y-104050000D01*
X166367544Y-103885077D01*
X166510907Y-103670518D01*
X166609658Y-103432113D01*
X166660000Y-103179024D01*
X166660000Y-102920976D01*
X166609658Y-102667887D01*
X166510907Y-102429482D01*
X166389303Y-102247487D01*
X166476185Y-102176185D01*
X166555537Y-102079494D01*
X166614502Y-101969180D01*
X166650812Y-101849482D01*
X166663072Y-101725000D01*
X166663072Y-100920976D01*
X168540000Y-100920976D01*
X168540000Y-101179024D01*
X168590342Y-101432113D01*
X168689093Y-101670518D01*
X168832456Y-101885077D01*
X168997379Y-102050000D01*
X168832456Y-102214923D01*
X168689093Y-102429482D01*
X168590342Y-102667887D01*
X168540000Y-102920976D01*
X168540000Y-103179024D01*
X168590342Y-103432113D01*
X168689093Y-103670518D01*
X168832456Y-103885077D01*
X168997379Y-104050000D01*
X168832456Y-104214923D01*
X168689093Y-104429482D01*
X168590342Y-104667887D01*
X168540000Y-104920976D01*
X168540000Y-105179024D01*
X168590342Y-105432113D01*
X168689093Y-105670518D01*
X168832456Y-105885077D01*
X169014923Y-106067544D01*
X169229482Y-106210907D01*
X169467887Y-106309658D01*
X169720976Y-106360000D01*
X169979024Y-106360000D01*
X170083930Y-106339133D01*
X172087972Y-106339133D01*
X172150465Y-106575450D01*
X172393178Y-106688850D01*
X172653349Y-106752719D01*
X172920982Y-106764604D01*
X173185791Y-106724048D01*
X173437600Y-106632609D01*
X173544535Y-106575450D01*
X173607028Y-106339133D01*
X173500286Y-106232391D01*
X174004038Y-106232391D01*
X174128769Y-106423000D01*
X175420500Y-106423000D01*
X175420500Y-105315000D01*
X175674500Y-105315000D01*
X175674500Y-106423000D01*
X176966231Y-106423000D01*
X177090962Y-106232391D01*
X177087091Y-106194718D01*
X176994921Y-105969467D01*
X176860578Y-105766526D01*
X176689225Y-105593693D01*
X176487446Y-105457610D01*
X176262996Y-105363507D01*
X176024500Y-105315000D01*
X175674500Y-105315000D01*
X175420500Y-105315000D01*
X175070500Y-105315000D01*
X174832004Y-105363507D01*
X174607554Y-105457610D01*
X174405775Y-105593693D01*
X174234422Y-105766526D01*
X174100079Y-105969467D01*
X174007909Y-106194718D01*
X174004038Y-106232391D01*
X173500286Y-106232391D01*
X172847500Y-105579605D01*
X172087972Y-106339133D01*
X170083930Y-106339133D01*
X170232113Y-106309658D01*
X170470518Y-106210907D01*
X170685077Y-106067544D01*
X170867544Y-105885077D01*
X171010907Y-105670518D01*
X171092522Y-105473482D01*
X171482896Y-105473482D01*
X171523452Y-105738291D01*
X171614891Y-105990100D01*
X171672050Y-106097035D01*
X171908367Y-106159528D01*
X172667895Y-105400000D01*
X173027105Y-105400000D01*
X173786633Y-106159528D01*
X174022950Y-106097035D01*
X174136350Y-105854322D01*
X174200219Y-105594151D01*
X174212104Y-105326518D01*
X174171548Y-105061709D01*
X174080109Y-104809900D01*
X174022950Y-104702965D01*
X173786633Y-104640472D01*
X173027105Y-105400000D01*
X172667895Y-105400000D01*
X171908367Y-104640472D01*
X171672050Y-104702965D01*
X171558650Y-104945678D01*
X171494781Y-105205849D01*
X171482896Y-105473482D01*
X171092522Y-105473482D01*
X171109658Y-105432113D01*
X171160000Y-105179024D01*
X171160000Y-104920976D01*
X171109658Y-104667887D01*
X171023908Y-104460867D01*
X172087972Y-104460867D01*
X172847500Y-105220395D01*
X173607028Y-104460867D01*
X173544535Y-104224550D01*
X173301822Y-104111150D01*
X173041651Y-104047281D01*
X172774018Y-104035396D01*
X172509209Y-104075952D01*
X172257400Y-104167391D01*
X172150465Y-104224550D01*
X172087972Y-104460867D01*
X171023908Y-104460867D01*
X171010907Y-104429482D01*
X170867544Y-104214923D01*
X170702621Y-104050000D01*
X170867544Y-103885077D01*
X171010907Y-103670518D01*
X171109658Y-103432113D01*
X171160000Y-103179024D01*
X171160000Y-102920976D01*
X171109658Y-102667887D01*
X171010907Y-102429482D01*
X170867544Y-102214923D01*
X170702621Y-102050000D01*
X170867544Y-101885077D01*
X171010907Y-101670518D01*
X171106750Y-101439133D01*
X172087972Y-101439133D01*
X172150465Y-101675450D01*
X172393178Y-101788850D01*
X172653349Y-101852719D01*
X172920982Y-101864604D01*
X173185791Y-101824048D01*
X173437600Y-101732609D01*
X173544535Y-101675450D01*
X173607028Y-101439133D01*
X172847500Y-100679605D01*
X172087972Y-101439133D01*
X171106750Y-101439133D01*
X171109658Y-101432113D01*
X171160000Y-101179024D01*
X171160000Y-100920976D01*
X171109658Y-100667887D01*
X171070555Y-100573482D01*
X171482896Y-100573482D01*
X171523452Y-100838291D01*
X171614891Y-101090100D01*
X171672050Y-101197035D01*
X171908367Y-101259528D01*
X172667895Y-100500000D01*
X173027105Y-100500000D01*
X173786633Y-101259528D01*
X174022950Y-101197035D01*
X174136350Y-100954322D01*
X174200219Y-100694151D01*
X174212104Y-100426518D01*
X174171548Y-100161709D01*
X174080109Y-99909900D01*
X174022950Y-99802965D01*
X173786633Y-99740472D01*
X173027105Y-100500000D01*
X172667895Y-100500000D01*
X171908367Y-99740472D01*
X171672050Y-99802965D01*
X171558650Y-100045678D01*
X171494781Y-100305849D01*
X171482896Y-100573482D01*
X171070555Y-100573482D01*
X171010907Y-100429482D01*
X170867544Y-100214923D01*
X170685077Y-100032456D01*
X170470518Y-99889093D01*
X170232113Y-99790342D01*
X169979024Y-99740000D01*
X169720976Y-99740000D01*
X169467887Y-99790342D01*
X169229482Y-99889093D01*
X169014923Y-100032456D01*
X168832456Y-100214923D01*
X168689093Y-100429482D01*
X168590342Y-100667887D01*
X168540000Y-100920976D01*
X166663072Y-100920976D01*
X166663072Y-100375000D01*
X166650812Y-100250518D01*
X166614502Y-100130820D01*
X166555537Y-100020506D01*
X166476185Y-99923815D01*
X166379494Y-99844463D01*
X166269180Y-99785498D01*
X166149482Y-99749188D01*
X166025000Y-99736928D01*
X164675000Y-99736928D01*
X164550518Y-99749188D01*
X164430820Y-99785498D01*
X164320506Y-99844463D01*
X164223815Y-99923815D01*
X164144463Y-100020506D01*
X164085498Y-100130820D01*
X164049188Y-100250518D01*
X164036928Y-100375000D01*
X154185000Y-100375000D01*
X154185000Y-99560867D01*
X172087972Y-99560867D01*
X172847500Y-100320395D01*
X173500286Y-99667609D01*
X174004038Y-99667609D01*
X174007909Y-99705282D01*
X174100079Y-99930533D01*
X174234422Y-100133474D01*
X174405775Y-100306307D01*
X174607554Y-100442390D01*
X174832004Y-100536493D01*
X175070500Y-100585000D01*
X175420500Y-100585000D01*
X175420500Y-99477000D01*
X175674500Y-99477000D01*
X175674500Y-100585000D01*
X176024500Y-100585000D01*
X176262996Y-100536493D01*
X176487446Y-100442390D01*
X176689225Y-100306307D01*
X176860578Y-100133474D01*
X176994921Y-99930533D01*
X177087091Y-99705282D01*
X177090962Y-99667609D01*
X176966231Y-99477000D01*
X175674500Y-99477000D01*
X175420500Y-99477000D01*
X174128769Y-99477000D01*
X174004038Y-99667609D01*
X173500286Y-99667609D01*
X173607028Y-99560867D01*
X173544535Y-99324550D01*
X173301822Y-99211150D01*
X173041651Y-99147281D01*
X172774018Y-99135396D01*
X172509209Y-99175952D01*
X172257400Y-99267391D01*
X172150465Y-99324550D01*
X172087972Y-99560867D01*
X154185000Y-99560867D01*
X154185000Y-99032391D01*
X174004038Y-99032391D01*
X174128769Y-99223000D01*
X175420500Y-99223000D01*
X175420500Y-98115000D01*
X175674500Y-98115000D01*
X175674500Y-99223000D01*
X176966231Y-99223000D01*
X177090962Y-99032391D01*
X177087091Y-98994718D01*
X176994921Y-98769467D01*
X176860578Y-98566526D01*
X176689225Y-98393693D01*
X176487446Y-98257610D01*
X176262996Y-98163507D01*
X176024500Y-98115000D01*
X175674500Y-98115000D01*
X175420500Y-98115000D01*
X175070500Y-98115000D01*
X174832004Y-98163507D01*
X174607554Y-98257610D01*
X174405775Y-98393693D01*
X174234422Y-98566526D01*
X174100079Y-98769467D01*
X174007909Y-98994718D01*
X174004038Y-99032391D01*
X154185000Y-99032391D01*
X154185000Y-98487881D01*
X154714250Y-98485000D01*
X154873000Y-98326250D01*
X154873000Y-97127000D01*
X155127000Y-97127000D01*
X155127000Y-98326250D01*
X155285750Y-98485000D01*
X155850000Y-98488072D01*
X155974482Y-98475812D01*
X156094180Y-98439502D01*
X156204494Y-98380537D01*
X156301185Y-98301185D01*
X156380537Y-98204494D01*
X156439502Y-98094180D01*
X156463966Y-98013534D01*
X156539731Y-98097588D01*
X156773080Y-98271641D01*
X157035901Y-98396825D01*
X157183110Y-98441476D01*
X157413000Y-98320155D01*
X157413000Y-97127000D01*
X157667000Y-97127000D01*
X157667000Y-98320155D01*
X157896890Y-98441476D01*
X158044099Y-98396825D01*
X158306920Y-98271641D01*
X158540269Y-98097588D01*
X158735178Y-97881355D01*
X158810000Y-97755745D01*
X158884822Y-97881355D01*
X159079731Y-98097588D01*
X159313080Y-98271641D01*
X159575901Y-98396825D01*
X159723110Y-98441476D01*
X159953000Y-98320155D01*
X159953000Y-97127000D01*
X160207000Y-97127000D01*
X160207000Y-98320155D01*
X160436890Y-98441476D01*
X160584099Y-98396825D01*
X160846920Y-98271641D01*
X161080269Y-98097588D01*
X161275178Y-97881355D01*
X161424157Y-97631252D01*
X161521481Y-97356891D01*
X161400814Y-97127000D01*
X160207000Y-97127000D01*
X159953000Y-97127000D01*
X157667000Y-97127000D01*
X157413000Y-97127000D01*
X155127000Y-97127000D01*
X154873000Y-97127000D01*
X154853000Y-97127000D01*
X154853000Y-96873000D01*
X154873000Y-96873000D01*
X154873000Y-95673750D01*
X155127000Y-95673750D01*
X155127000Y-96873000D01*
X157413000Y-96873000D01*
X157413000Y-95679845D01*
X157667000Y-95679845D01*
X157667000Y-96873000D01*
X159953000Y-96873000D01*
X159953000Y-95679845D01*
X160207000Y-95679845D01*
X160207000Y-96873000D01*
X161400814Y-96873000D01*
X161521481Y-96643109D01*
X161424157Y-96368748D01*
X161275178Y-96118645D01*
X161080269Y-95902412D01*
X160846920Y-95728359D01*
X160584099Y-95603175D01*
X160436890Y-95558524D01*
X160207000Y-95679845D01*
X159953000Y-95679845D01*
X159723110Y-95558524D01*
X159575901Y-95603175D01*
X159313080Y-95728359D01*
X159079731Y-95902412D01*
X158884822Y-96118645D01*
X158810000Y-96244255D01*
X158735178Y-96118645D01*
X158540269Y-95902412D01*
X158306920Y-95728359D01*
X158044099Y-95603175D01*
X157896890Y-95558524D01*
X157667000Y-95679845D01*
X157413000Y-95679845D01*
X157183110Y-95558524D01*
X157035901Y-95603175D01*
X156773080Y-95728359D01*
X156539731Y-95902412D01*
X156463966Y-95986466D01*
X156439502Y-95905820D01*
X156380537Y-95795506D01*
X156301185Y-95698815D01*
X156204494Y-95619463D01*
X156094180Y-95560498D01*
X155974482Y-95524188D01*
X155850000Y-95511928D01*
X155285750Y-95515000D01*
X155127000Y-95673750D01*
X154873000Y-95673750D01*
X154714250Y-95515000D01*
X154491345Y-95513786D01*
X155117060Y-94888072D01*
X155850000Y-94888072D01*
X155974482Y-94875812D01*
X156094180Y-94839502D01*
X156204494Y-94780537D01*
X156301185Y-94701185D01*
X156380537Y-94604494D01*
X156439502Y-94494180D01*
X156461513Y-94421620D01*
X156593368Y-94553475D01*
X156836589Y-94715990D01*
X157106842Y-94827932D01*
X157393740Y-94885000D01*
X157686260Y-94885000D01*
X157973158Y-94827932D01*
X158243411Y-94715990D01*
X158486632Y-94553475D01*
X158693475Y-94346632D01*
X158810000Y-94172240D01*
X158926525Y-94346632D01*
X159133368Y-94553475D01*
X159376589Y-94715990D01*
X159646842Y-94827932D01*
X159933740Y-94885000D01*
X160226260Y-94885000D01*
X160513158Y-94827932D01*
X160783411Y-94715990D01*
X161026632Y-94553475D01*
X161233475Y-94346632D01*
X161395990Y-94103411D01*
X161507932Y-93833158D01*
X161565000Y-93546260D01*
X161565000Y-93253740D01*
X161507932Y-92966842D01*
X161395990Y-92696589D01*
X161233475Y-92453368D01*
X161026632Y-92246525D01*
X160783411Y-92084010D01*
X160513158Y-91972068D01*
X160226260Y-91915000D01*
X159933740Y-91915000D01*
X159646842Y-91972068D01*
X159376589Y-92084010D01*
X159133368Y-92246525D01*
X158926525Y-92453368D01*
X158810000Y-92627760D01*
X158693475Y-92453368D01*
X158486632Y-92246525D01*
X158243411Y-92084010D01*
X157973158Y-91972068D01*
X157686260Y-91915000D01*
X157393740Y-91915000D01*
X157106842Y-91972068D01*
X156836589Y-92084010D01*
X156593368Y-92246525D01*
X156461513Y-92378380D01*
X156439502Y-92305820D01*
X156380537Y-92195506D01*
X156301185Y-92098815D01*
X156204494Y-92019463D01*
X156094180Y-91960498D01*
X155974482Y-91924188D01*
X155850000Y-91911928D01*
X155107435Y-91911928D01*
X157365623Y-89653740D01*
X161575000Y-89653740D01*
X161575000Y-89946260D01*
X161632068Y-90233158D01*
X161744010Y-90503411D01*
X161906525Y-90746632D01*
X162113368Y-90953475D01*
X162356589Y-91115990D01*
X162626842Y-91227932D01*
X162913740Y-91285000D01*
X163206260Y-91285000D01*
X163493158Y-91227932D01*
X163763411Y-91115990D01*
X164006632Y-90953475D01*
X164138487Y-90821620D01*
X164160498Y-90894180D01*
X164219463Y-91004494D01*
X164298815Y-91101185D01*
X164395506Y-91180537D01*
X164505820Y-91239502D01*
X164625518Y-91275812D01*
X164750000Y-91288072D01*
X166450000Y-91288072D01*
X166574482Y-91275812D01*
X166694180Y-91239502D01*
X166804494Y-91180537D01*
X166901185Y-91101185D01*
X166980537Y-91004494D01*
X167039502Y-90894180D01*
X167075812Y-90774482D01*
X167088072Y-90650000D01*
X167088072Y-88950000D01*
X167075812Y-88825518D01*
X167039502Y-88705820D01*
X166980537Y-88595506D01*
X166901185Y-88498815D01*
X166804494Y-88419463D01*
X166694180Y-88360498D01*
X166574482Y-88324188D01*
X166450000Y-88311928D01*
X164750000Y-88311928D01*
X164625518Y-88324188D01*
X164505820Y-88360498D01*
X164395506Y-88419463D01*
X164298815Y-88498815D01*
X164219463Y-88595506D01*
X164160498Y-88705820D01*
X164138487Y-88778380D01*
X164006632Y-88646525D01*
X163763411Y-88484010D01*
X163493158Y-88372068D01*
X163206260Y-88315000D01*
X162913740Y-88315000D01*
X162626842Y-88372068D01*
X162356589Y-88484010D01*
X162113368Y-88646525D01*
X161906525Y-88853368D01*
X161744010Y-89096589D01*
X161632068Y-89366842D01*
X161575000Y-89653740D01*
X157365623Y-89653740D01*
X158084303Y-88935060D01*
X159398765Y-88935060D01*
X159434870Y-88938616D01*
X159470975Y-88935060D01*
X159578955Y-88924425D01*
X159717503Y-88882397D01*
X159845190Y-88814147D01*
X159957108Y-88722298D01*
X159980128Y-88694248D01*
X160439337Y-88235040D01*
X164578807Y-88235040D01*
X164614912Y-88238596D01*
X164651017Y-88235040D01*
X164758997Y-88224405D01*
X164897545Y-88182377D01*
X165025232Y-88114127D01*
X165137150Y-88022278D01*
X165160171Y-87994227D01*
X165269368Y-87885030D01*
X166973829Y-87885030D01*
X167009934Y-87888586D01*
X167046039Y-87885030D01*
X167154019Y-87874395D01*
X167292567Y-87832367D01*
X167420254Y-87764117D01*
X167532172Y-87672268D01*
X167555193Y-87644217D01*
X167656907Y-87542503D01*
X171406380Y-87542503D01*
X171442485Y-87546059D01*
X171478590Y-87542503D01*
X171586570Y-87531868D01*
X171725118Y-87489840D01*
X171852805Y-87421590D01*
X171964723Y-87329741D01*
X171987743Y-87301691D01*
X172469434Y-86820001D01*
X174173894Y-86820001D01*
X174209999Y-86823557D01*
X174246104Y-86820001D01*
X174354084Y-86809366D01*
X174492632Y-86767338D01*
X174620319Y-86699088D01*
X174732237Y-86607239D01*
X174755257Y-86579189D01*
X174914103Y-86420344D01*
X175163740Y-86470000D01*
X175456260Y-86470000D01*
X175743158Y-86412932D01*
X176013411Y-86300990D01*
X176256632Y-86138475D01*
X176463475Y-85931632D01*
X176625990Y-85688411D01*
X176737932Y-85418158D01*
X176795000Y-85131260D01*
X176795000Y-84838740D01*
X176737932Y-84551842D01*
X176625990Y-84281589D01*
X176463475Y-84038368D01*
X176256632Y-83831525D01*
X176013411Y-83669010D01*
X175991659Y-83660000D01*
X177340001Y-83660000D01*
X177340000Y-122340000D01*
X176056798Y-122340000D01*
X176256632Y-122206475D01*
X176463475Y-121999632D01*
X176625990Y-121756411D01*
X176737932Y-121486158D01*
X176795000Y-121199260D01*
X176795000Y-120906740D01*
X176737932Y-120619842D01*
X176625990Y-120349589D01*
X176463475Y-120106368D01*
X176256632Y-119899525D01*
X176013411Y-119737010D01*
X175743158Y-119625068D01*
X175456260Y-119568000D01*
X175163740Y-119568000D01*
X174876842Y-119625068D01*
X174606589Y-119737010D01*
X174363368Y-119899525D01*
X174156525Y-120106368D01*
X174040000Y-120280760D01*
X173923475Y-120106368D01*
X173716632Y-119899525D01*
X173473411Y-119737010D01*
X173203158Y-119625068D01*
X172916260Y-119568000D01*
X172623740Y-119568000D01*
X172336842Y-119625068D01*
X172066589Y-119737010D01*
X171823368Y-119899525D01*
X171616525Y-120106368D01*
X171500000Y-120280760D01*
X171383475Y-120106368D01*
X171176632Y-119899525D01*
X170933411Y-119737010D01*
X170663158Y-119625068D01*
X170376260Y-119568000D01*
X170083740Y-119568000D01*
X169796842Y-119625068D01*
X169526589Y-119737010D01*
X169283368Y-119899525D01*
X169076525Y-120106368D01*
X168960000Y-120280760D01*
X168843475Y-120106368D01*
X168636632Y-119899525D01*
X168393411Y-119737010D01*
X168123158Y-119625068D01*
X167836260Y-119568000D01*
X167543740Y-119568000D01*
X167256842Y-119625068D01*
X166986589Y-119737010D01*
X166743368Y-119899525D01*
X166536525Y-120106368D01*
X166420000Y-120280760D01*
X166303475Y-120106368D01*
X166096632Y-119899525D01*
X165853411Y-119737010D01*
X165583158Y-119625068D01*
X165296260Y-119568000D01*
X165003740Y-119568000D01*
X164716842Y-119625068D01*
X164446589Y-119737010D01*
X164203368Y-119899525D01*
X163996525Y-120106368D01*
X163880000Y-120280760D01*
X163763475Y-120106368D01*
X163556632Y-119899525D01*
X163313411Y-119737010D01*
X163043158Y-119625068D01*
X162756260Y-119568000D01*
X162463740Y-119568000D01*
X162176842Y-119625068D01*
X161906589Y-119737010D01*
X161663368Y-119899525D01*
X161456525Y-120106368D01*
X161340000Y-120280760D01*
X161223475Y-120106368D01*
X161016632Y-119899525D01*
X160773411Y-119737010D01*
X160503158Y-119625068D01*
X160216260Y-119568000D01*
X159923740Y-119568000D01*
X159636842Y-119625068D01*
X159366589Y-119737010D01*
X159123368Y-119899525D01*
X158991513Y-120031380D01*
X158969502Y-119958820D01*
X158910537Y-119848506D01*
X158831185Y-119751815D01*
X158734494Y-119672463D01*
X158624180Y-119613498D01*
X158504482Y-119577188D01*
X158380000Y-119564928D01*
X156680000Y-119564928D01*
X156555518Y-119577188D01*
X156435820Y-119613498D01*
X156325506Y-119672463D01*
X156228815Y-119751815D01*
X156149463Y-119848506D01*
X156090498Y-119958820D01*
X156054188Y-120078518D01*
X156041928Y-120203000D01*
X156041928Y-121903000D01*
X156054188Y-122027482D01*
X156090498Y-122147180D01*
X156149463Y-122257494D01*
X156217174Y-122340000D01*
X153196798Y-122340000D01*
X153396632Y-122206475D01*
X153603475Y-121999632D01*
X153765990Y-121756411D01*
X153877932Y-121486158D01*
X153935000Y-121199260D01*
X153935000Y-120906740D01*
X153877932Y-120619842D01*
X153765990Y-120349589D01*
X153603475Y-120106368D01*
X153396632Y-119899525D01*
X153153411Y-119737010D01*
X152883158Y-119625068D01*
X152596260Y-119568000D01*
X152303740Y-119568000D01*
X152016842Y-119625068D01*
X151746589Y-119737010D01*
X151503368Y-119899525D01*
X151296525Y-120106368D01*
X151180000Y-120280760D01*
X151063475Y-120106368D01*
X150856632Y-119899525D01*
X150613411Y-119737010D01*
X150343158Y-119625068D01*
X150056260Y-119568000D01*
X149763740Y-119568000D01*
X149476842Y-119625068D01*
X149206589Y-119737010D01*
X148963368Y-119899525D01*
X148756525Y-120106368D01*
X148640000Y-120280760D01*
X148523475Y-120106368D01*
X148316632Y-119899525D01*
X148073411Y-119737010D01*
X147803158Y-119625068D01*
X147516260Y-119568000D01*
X147223740Y-119568000D01*
X146936842Y-119625068D01*
X146666589Y-119737010D01*
X146423368Y-119899525D01*
X146216525Y-120106368D01*
X146100000Y-120280760D01*
X145983475Y-120106368D01*
X145776632Y-119899525D01*
X145533411Y-119737010D01*
X145263158Y-119625068D01*
X144976260Y-119568000D01*
X144683740Y-119568000D01*
X144396842Y-119625068D01*
X144126589Y-119737010D01*
X143883368Y-119899525D01*
X143676525Y-120106368D01*
X143560000Y-120280760D01*
X143443475Y-120106368D01*
X143236632Y-119899525D01*
X142993411Y-119737010D01*
X142723158Y-119625068D01*
X142436260Y-119568000D01*
X142143740Y-119568000D01*
X141856842Y-119625068D01*
X141586589Y-119737010D01*
X141343368Y-119899525D01*
X141136525Y-120106368D01*
X141020000Y-120280760D01*
X140903475Y-120106368D01*
X140696632Y-119899525D01*
X140453411Y-119737010D01*
X140183158Y-119625068D01*
X139896260Y-119568000D01*
X139603740Y-119568000D01*
X139316842Y-119625068D01*
X139046589Y-119737010D01*
X138803368Y-119899525D01*
X138596525Y-120106368D01*
X138480000Y-120280760D01*
X138363475Y-120106368D01*
X138156632Y-119899525D01*
X137913411Y-119737010D01*
X137643158Y-119625068D01*
X137356260Y-119568000D01*
X137063740Y-119568000D01*
X136776842Y-119625068D01*
X136506589Y-119737010D01*
X136263368Y-119899525D01*
X136131513Y-120031380D01*
X136109502Y-119958820D01*
X136050537Y-119848506D01*
X135971185Y-119751815D01*
X135874494Y-119672463D01*
X135764180Y-119613498D01*
X135644482Y-119577188D01*
X135520000Y-119564928D01*
X133820000Y-119564928D01*
X133695518Y-119577188D01*
X133575820Y-119613498D01*
X133465506Y-119672463D01*
X133368815Y-119751815D01*
X133289463Y-119848506D01*
X133230498Y-119958820D01*
X133194188Y-120078518D01*
X133181928Y-120203000D01*
X133181928Y-121903000D01*
X133194188Y-122027482D01*
X133230498Y-122147180D01*
X133289463Y-122257494D01*
X133357174Y-122340000D01*
X130336798Y-122340000D01*
X130536632Y-122206475D01*
X130743475Y-121999632D01*
X130905990Y-121756411D01*
X131017932Y-121486158D01*
X131075000Y-121199260D01*
X131075000Y-120906740D01*
X131017932Y-120619842D01*
X130905990Y-120349589D01*
X130743475Y-120106368D01*
X130536632Y-119899525D01*
X130293411Y-119737010D01*
X130023158Y-119625068D01*
X129736260Y-119568000D01*
X129443740Y-119568000D01*
X129156842Y-119625068D01*
X128886589Y-119737010D01*
X128643368Y-119899525D01*
X128436525Y-120106368D01*
X128320000Y-120280760D01*
X128203475Y-120106368D01*
X127996632Y-119899525D01*
X127753411Y-119737010D01*
X127483158Y-119625068D01*
X127196260Y-119568000D01*
X126903740Y-119568000D01*
X126616842Y-119625068D01*
X126346589Y-119737010D01*
X126103368Y-119899525D01*
X125896525Y-120106368D01*
X125780000Y-120280760D01*
X125663475Y-120106368D01*
X125456632Y-119899525D01*
X125213411Y-119737010D01*
X124943158Y-119625068D01*
X124656260Y-119568000D01*
X124363740Y-119568000D01*
X124076842Y-119625068D01*
X123806589Y-119737010D01*
X123563368Y-119899525D01*
X123356525Y-120106368D01*
X123240000Y-120280760D01*
X123123475Y-120106368D01*
X122916632Y-119899525D01*
X122673411Y-119737010D01*
X122403158Y-119625068D01*
X122116260Y-119568000D01*
X121823740Y-119568000D01*
X121536842Y-119625068D01*
X121266589Y-119737010D01*
X121023368Y-119899525D01*
X120816525Y-120106368D01*
X120700000Y-120280760D01*
X120583475Y-120106368D01*
X120376632Y-119899525D01*
X120133411Y-119737010D01*
X119863158Y-119625068D01*
X119576260Y-119568000D01*
X119283740Y-119568000D01*
X118996842Y-119625068D01*
X118726589Y-119737010D01*
X118483368Y-119899525D01*
X118276525Y-120106368D01*
X118160000Y-120280760D01*
X118043475Y-120106368D01*
X117836632Y-119899525D01*
X117593411Y-119737010D01*
X117323158Y-119625068D01*
X117036260Y-119568000D01*
X116743740Y-119568000D01*
X116456842Y-119625068D01*
X116186589Y-119737010D01*
X115943368Y-119899525D01*
X115736525Y-120106368D01*
X115620000Y-120280760D01*
X115503475Y-120106368D01*
X115296632Y-119899525D01*
X115053411Y-119737010D01*
X114783158Y-119625068D01*
X114496260Y-119568000D01*
X114203740Y-119568000D01*
X113916842Y-119625068D01*
X113646589Y-119737010D01*
X113403368Y-119899525D01*
X113271513Y-120031380D01*
X113249502Y-119958820D01*
X113190537Y-119848506D01*
X113111185Y-119751815D01*
X113014494Y-119672463D01*
X112904180Y-119613498D01*
X112784482Y-119577188D01*
X112660000Y-119564928D01*
X110960000Y-119564928D01*
X110835518Y-119577188D01*
X110715820Y-119613498D01*
X110605506Y-119672463D01*
X110508815Y-119751815D01*
X110429463Y-119848506D01*
X110370498Y-119958820D01*
X110334188Y-120078518D01*
X110321928Y-120203000D01*
X110321928Y-121903000D01*
X110334188Y-122027482D01*
X110370498Y-122147180D01*
X110429463Y-122257494D01*
X110497174Y-122340000D01*
X108660000Y-122340000D01*
X108660000Y-112218397D01*
X112551208Y-112218397D01*
X112628843Y-112467472D01*
X112892883Y-112593371D01*
X113176411Y-112665339D01*
X113468531Y-112680611D01*
X113758019Y-112638599D01*
X114033747Y-112540919D01*
X114171157Y-112467472D01*
X114248792Y-112218397D01*
X113400000Y-111369605D01*
X112551208Y-112218397D01*
X108660000Y-112218397D01*
X108660000Y-111258531D01*
X111909389Y-111258531D01*
X111951401Y-111548019D01*
X112049081Y-111823747D01*
X112122528Y-111961157D01*
X112371603Y-112038792D01*
X113220395Y-111190000D01*
X112371603Y-110341208D01*
X112122528Y-110418843D01*
X111996629Y-110682883D01*
X111924661Y-110966411D01*
X111909389Y-111258531D01*
X108660000Y-111258531D01*
X108660000Y-106178531D01*
X111909389Y-106178531D01*
X111951401Y-106468019D01*
X112049081Y-106743747D01*
X112122528Y-106881157D01*
X112371603Y-106958792D01*
X113220395Y-106110000D01*
X112371603Y-105261208D01*
X112122528Y-105338843D01*
X111996629Y-105602883D01*
X111924661Y-105886411D01*
X111909389Y-106178531D01*
X108660000Y-106178531D01*
X108660000Y-83660000D01*
X110537834Y-83660000D01*
X110508815Y-83683815D01*
G37*
G04 #@! TD.AperFunction*
D27*
X146915000Y-104643457D02*
X146915001Y-109369180D01*
X145119171Y-111165011D01*
X134511935Y-111165011D01*
X134586946Y-111090000D01*
X135092143Y-111090000D01*
X135092143Y-110584804D01*
X135488875Y-110188072D01*
X135925000Y-110188072D01*
X136068991Y-110173890D01*
X136207448Y-110131890D01*
X136335051Y-110063684D01*
X136446896Y-109971896D01*
X136538684Y-109860051D01*
X136606890Y-109732448D01*
X136648890Y-109593991D01*
X136663072Y-109450000D01*
X136663072Y-109250000D01*
X136648890Y-109106009D01*
X136624316Y-109025000D01*
X136648890Y-108943991D01*
X136663072Y-108800000D01*
X136663072Y-108785000D01*
X137113895Y-108785000D01*
X137150000Y-108788556D01*
X137186105Y-108785000D01*
X137294085Y-108774365D01*
X137432633Y-108732337D01*
X137560320Y-108664087D01*
X137672238Y-108572238D01*
X137695259Y-108544187D01*
X138044187Y-108195259D01*
X138072238Y-108172238D01*
X138164087Y-108060320D01*
X138232337Y-107932633D01*
X138274365Y-107794085D01*
X138285000Y-107686105D01*
X138285000Y-107686096D01*
X138288555Y-107650001D01*
X138285000Y-107613906D01*
X138285000Y-107244448D01*
X139486448Y-106043001D01*
X139665000Y-106043001D01*
X139665000Y-106097045D01*
X139660033Y-106104479D01*
X139597089Y-106256440D01*
X139565000Y-106417760D01*
X139565000Y-106582240D01*
X139597089Y-106743560D01*
X139660033Y-106895521D01*
X139751413Y-107032281D01*
X139867719Y-107148587D01*
X140004479Y-107239967D01*
X140156440Y-107302911D01*
X140317760Y-107335000D01*
X140482240Y-107335000D01*
X140643560Y-107302911D01*
X140795521Y-107239967D01*
X140917902Y-107158195D01*
X140921445Y-107166749D01*
X140869744Y-107263475D01*
X140867664Y-107267367D01*
X140825635Y-107405915D01*
X140811444Y-107550000D01*
X140815001Y-107586115D01*
X140815000Y-109563895D01*
X140811444Y-109600000D01*
X140822252Y-109709733D01*
X140825635Y-109744084D01*
X140867663Y-109882632D01*
X140935913Y-110010319D01*
X141027762Y-110122237D01*
X141055808Y-110145254D01*
X141204751Y-110294197D01*
X141227772Y-110322248D01*
X141339690Y-110414097D01*
X141467377Y-110482347D01*
X141605925Y-110524375D01*
X141750010Y-110538566D01*
X141786115Y-110535010D01*
X141964258Y-110535010D01*
X142010033Y-110645521D01*
X142101413Y-110782281D01*
X142217719Y-110898587D01*
X142354479Y-110989967D01*
X142506440Y-111052911D01*
X142667760Y-111085000D01*
X142832240Y-111085000D01*
X142993560Y-111052911D01*
X143145521Y-110989967D01*
X143282281Y-110898587D01*
X143398587Y-110782281D01*
X143489967Y-110645521D01*
X143552911Y-110493560D01*
X143585000Y-110332240D01*
X143585000Y-110167760D01*
X143580971Y-110147505D01*
X143632448Y-110131890D01*
X143720172Y-110085000D01*
X144347045Y-110085000D01*
X144354479Y-110089967D01*
X144506440Y-110152911D01*
X144667760Y-110185000D01*
X144832240Y-110185000D01*
X144993560Y-110152911D01*
X145145521Y-110089967D01*
X145282281Y-109998587D01*
X145398587Y-109882281D01*
X145489967Y-109745521D01*
X145552911Y-109593560D01*
X145585000Y-109432240D01*
X145585000Y-109267760D01*
X145552911Y-109106440D01*
X145489967Y-108954479D01*
X145398587Y-108817719D01*
X145282281Y-108701413D01*
X145145521Y-108610033D01*
X145132380Y-108604590D01*
X145102911Y-108456440D01*
X145039967Y-108304479D01*
X144948587Y-108167719D01*
X144832281Y-108051413D01*
X144695521Y-107960033D01*
X144682380Y-107954590D01*
X144652911Y-107806440D01*
X144589967Y-107654479D01*
X144498587Y-107517719D01*
X144382281Y-107401413D01*
X144245521Y-107310033D01*
X144093560Y-107247089D01*
X144082647Y-107244918D01*
X144073890Y-107156009D01*
X144049316Y-107075000D01*
X144073890Y-106993991D01*
X144088072Y-106850000D01*
X144088072Y-106650000D01*
X144073890Y-106506009D01*
X144049316Y-106425000D01*
X144073890Y-106343991D01*
X144088072Y-106200000D01*
X144088072Y-106000000D01*
X144073890Y-105856009D01*
X144049316Y-105775000D01*
X144073890Y-105693991D01*
X144088072Y-105550000D01*
X144088072Y-105350000D01*
X144073890Y-105206009D01*
X144049316Y-105125000D01*
X144073890Y-105043991D01*
X144088072Y-104900000D01*
X144088072Y-104885000D01*
X145463895Y-104885000D01*
X145500000Y-104888556D01*
X145536105Y-104885000D01*
X145644085Y-104874365D01*
X145782633Y-104832337D01*
X145910320Y-104764087D01*
X146022238Y-104672238D01*
X146045259Y-104644187D01*
X146134791Y-104554655D01*
X146143560Y-104552911D01*
X146295521Y-104489967D01*
X146432281Y-104398587D01*
X146548587Y-104282281D01*
X146550685Y-104279141D01*
X146915000Y-104643457D01*
G04 #@! TA.AperFunction,Conductor*
D31*
G36*
X146915000Y-104643457D02*
G01*
X146915001Y-109369180D01*
X145119171Y-111165011D01*
X134511935Y-111165011D01*
X134586946Y-111090000D01*
X135092143Y-111090000D01*
X135092143Y-110584804D01*
X135488875Y-110188072D01*
X135925000Y-110188072D01*
X136068991Y-110173890D01*
X136207448Y-110131890D01*
X136335051Y-110063684D01*
X136446896Y-109971896D01*
X136538684Y-109860051D01*
X136606890Y-109732448D01*
X136648890Y-109593991D01*
X136663072Y-109450000D01*
X136663072Y-109250000D01*
X136648890Y-109106009D01*
X136624316Y-109025000D01*
X136648890Y-108943991D01*
X136663072Y-108800000D01*
X136663072Y-108785000D01*
X137113895Y-108785000D01*
X137150000Y-108788556D01*
X137186105Y-108785000D01*
X137294085Y-108774365D01*
X137432633Y-108732337D01*
X137560320Y-108664087D01*
X137672238Y-108572238D01*
X137695259Y-108544187D01*
X138044187Y-108195259D01*
X138072238Y-108172238D01*
X138164087Y-108060320D01*
X138232337Y-107932633D01*
X138274365Y-107794085D01*
X138285000Y-107686105D01*
X138285000Y-107686096D01*
X138288555Y-107650001D01*
X138285000Y-107613906D01*
X138285000Y-107244448D01*
X139486448Y-106043001D01*
X139665000Y-106043001D01*
X139665000Y-106097045D01*
X139660033Y-106104479D01*
X139597089Y-106256440D01*
X139565000Y-106417760D01*
X139565000Y-106582240D01*
X139597089Y-106743560D01*
X139660033Y-106895521D01*
X139751413Y-107032281D01*
X139867719Y-107148587D01*
X140004479Y-107239967D01*
X140156440Y-107302911D01*
X140317760Y-107335000D01*
X140482240Y-107335000D01*
X140643560Y-107302911D01*
X140795521Y-107239967D01*
X140917902Y-107158195D01*
X140921445Y-107166749D01*
X140869744Y-107263475D01*
X140867664Y-107267367D01*
X140825635Y-107405915D01*
X140811444Y-107550000D01*
X140815001Y-107586115D01*
X140815000Y-109563895D01*
X140811444Y-109600000D01*
X140822252Y-109709733D01*
X140825635Y-109744084D01*
X140867663Y-109882632D01*
X140935913Y-110010319D01*
X141027762Y-110122237D01*
X141055808Y-110145254D01*
X141204751Y-110294197D01*
X141227772Y-110322248D01*
X141339690Y-110414097D01*
X141467377Y-110482347D01*
X141605925Y-110524375D01*
X141750010Y-110538566D01*
X141786115Y-110535010D01*
X141964258Y-110535010D01*
X142010033Y-110645521D01*
X142101413Y-110782281D01*
X142217719Y-110898587D01*
X142354479Y-110989967D01*
X142506440Y-111052911D01*
X142667760Y-111085000D01*
X142832240Y-111085000D01*
X142993560Y-111052911D01*
X143145521Y-110989967D01*
X143282281Y-110898587D01*
X143398587Y-110782281D01*
X143489967Y-110645521D01*
X143552911Y-110493560D01*
X143585000Y-110332240D01*
X143585000Y-110167760D01*
X143580971Y-110147505D01*
X143632448Y-110131890D01*
X143720172Y-110085000D01*
X144347045Y-110085000D01*
X144354479Y-110089967D01*
X144506440Y-110152911D01*
X144667760Y-110185000D01*
X144832240Y-110185000D01*
X144993560Y-110152911D01*
X145145521Y-110089967D01*
X145282281Y-109998587D01*
X145398587Y-109882281D01*
X145489967Y-109745521D01*
X145552911Y-109593560D01*
X145585000Y-109432240D01*
X145585000Y-109267760D01*
X145552911Y-109106440D01*
X145489967Y-108954479D01*
X145398587Y-108817719D01*
X145282281Y-108701413D01*
X145145521Y-108610033D01*
X145132380Y-108604590D01*
X145102911Y-108456440D01*
X145039967Y-108304479D01*
X144948587Y-108167719D01*
X144832281Y-108051413D01*
X144695521Y-107960033D01*
X144682380Y-107954590D01*
X144652911Y-107806440D01*
X144589967Y-107654479D01*
X144498587Y-107517719D01*
X144382281Y-107401413D01*
X144245521Y-107310033D01*
X144093560Y-107247089D01*
X144082647Y-107244918D01*
X144073890Y-107156009D01*
X144049316Y-107075000D01*
X144073890Y-106993991D01*
X144088072Y-106850000D01*
X144088072Y-106650000D01*
X144073890Y-106506009D01*
X144049316Y-106425000D01*
X144073890Y-106343991D01*
X144088072Y-106200000D01*
X144088072Y-106000000D01*
X144073890Y-105856009D01*
X144049316Y-105775000D01*
X144073890Y-105693991D01*
X144088072Y-105550000D01*
X144088072Y-105350000D01*
X144073890Y-105206009D01*
X144049316Y-105125000D01*
X144073890Y-105043991D01*
X144088072Y-104900000D01*
X144088072Y-104885000D01*
X145463895Y-104885000D01*
X145500000Y-104888556D01*
X145536105Y-104885000D01*
X145644085Y-104874365D01*
X145782633Y-104832337D01*
X145910320Y-104764087D01*
X146022238Y-104672238D01*
X146045259Y-104644187D01*
X146134791Y-104554655D01*
X146143560Y-104552911D01*
X146295521Y-104489967D01*
X146432281Y-104398587D01*
X146548587Y-104282281D01*
X146550685Y-104279141D01*
X146915000Y-104643457D01*
G37*
G04 #@! TD.AperFunction*
D27*
X132777753Y-106022228D02*
X132805798Y-106045244D01*
X133916357Y-107155804D01*
X133915000Y-107168250D01*
X134016750Y-107270000D01*
X132807857Y-107270000D01*
X132807857Y-110790197D01*
X132783053Y-110815001D01*
X132435746Y-110815001D01*
X132389967Y-110704479D01*
X132385000Y-110697045D01*
X132385000Y-108286105D01*
X132388556Y-108250000D01*
X132374365Y-108105914D01*
X132360534Y-108060320D01*
X132332337Y-107967367D01*
X132264087Y-107839680D01*
X132208737Y-107772237D01*
X132195253Y-107755806D01*
X132195250Y-107755803D01*
X132172237Y-107727762D01*
X132144197Y-107704750D01*
X131384999Y-106945553D01*
X131384999Y-106766445D01*
X131641566Y-106509879D01*
X131680272Y-106525911D01*
X131841592Y-106558000D01*
X132006072Y-106558000D01*
X132167392Y-106525911D01*
X132319353Y-106462967D01*
X132456113Y-106371587D01*
X132572419Y-106255281D01*
X132663799Y-106118521D01*
X132726743Y-105966560D01*
X132727782Y-105961338D01*
X132777753Y-106022228D01*
G04 #@! TA.AperFunction,Conductor*
D31*
G36*
X132777753Y-106022228D02*
G01*
X132805798Y-106045244D01*
X133916357Y-107155804D01*
X133915000Y-107168250D01*
X134016750Y-107270000D01*
X132807857Y-107270000D01*
X132807857Y-110790197D01*
X132783053Y-110815001D01*
X132435746Y-110815001D01*
X132389967Y-110704479D01*
X132385000Y-110697045D01*
X132385000Y-108286105D01*
X132388556Y-108250000D01*
X132374365Y-108105914D01*
X132360534Y-108060320D01*
X132332337Y-107967367D01*
X132264087Y-107839680D01*
X132208737Y-107772237D01*
X132195253Y-107755806D01*
X132195250Y-107755803D01*
X132172237Y-107727762D01*
X132144197Y-107704750D01*
X131384999Y-106945553D01*
X131384999Y-106766445D01*
X131641566Y-106509879D01*
X131680272Y-106525911D01*
X131841592Y-106558000D01*
X132006072Y-106558000D01*
X132167392Y-106525911D01*
X132319353Y-106462967D01*
X132456113Y-106371587D01*
X132572419Y-106255281D01*
X132663799Y-106118521D01*
X132726743Y-105966560D01*
X132727782Y-105961338D01*
X132777753Y-106022228D01*
G37*
G04 #@! TD.AperFunction*
D27*
X151931423Y-95127502D02*
X151909509Y-95350000D01*
X151915001Y-95405761D01*
X151915000Y-105429867D01*
X148735000Y-108609868D01*
X148735000Y-104230116D01*
X148738555Y-104194021D01*
X148735000Y-104157926D01*
X148735000Y-104157917D01*
X148724365Y-104049937D01*
X148682337Y-103911389D01*
X148614087Y-103783702D01*
X148522238Y-103671784D01*
X148494193Y-103648768D01*
X146951215Y-102105791D01*
X146928195Y-102077741D01*
X146816277Y-101985892D01*
X146688590Y-101917642D01*
X146550042Y-101875614D01*
X146442062Y-101864979D01*
X146405957Y-101861423D01*
X146369852Y-101864979D01*
X144885010Y-101864979D01*
X144885010Y-101636115D01*
X144888566Y-101600010D01*
X144874375Y-101455925D01*
X144832347Y-101317376D01*
X144764097Y-101189690D01*
X144735420Y-101154747D01*
X144672248Y-101077772D01*
X144644203Y-101054756D01*
X144564447Y-100975000D01*
X145534792Y-100004655D01*
X145543560Y-100002911D01*
X145695521Y-99939967D01*
X145832281Y-99848587D01*
X145948587Y-99732281D01*
X146039967Y-99595521D01*
X146102911Y-99443560D01*
X146114548Y-99385058D01*
X147293753Y-99385058D01*
X147329858Y-99388614D01*
X147365963Y-99385058D01*
X147473943Y-99374423D01*
X147612491Y-99332395D01*
X147740178Y-99264145D01*
X147852096Y-99172296D01*
X147875117Y-99144245D01*
X151948650Y-95070712D01*
X151931423Y-95127502D01*
G04 #@! TA.AperFunction,Conductor*
D31*
G36*
X151931423Y-95127502D02*
G01*
X151909509Y-95350000D01*
X151915001Y-95405761D01*
X151915000Y-105429867D01*
X148735000Y-108609868D01*
X148735000Y-104230116D01*
X148738555Y-104194021D01*
X148735000Y-104157926D01*
X148735000Y-104157917D01*
X148724365Y-104049937D01*
X148682337Y-103911389D01*
X148614087Y-103783702D01*
X148522238Y-103671784D01*
X148494193Y-103648768D01*
X146951215Y-102105791D01*
X146928195Y-102077741D01*
X146816277Y-101985892D01*
X146688590Y-101917642D01*
X146550042Y-101875614D01*
X146442062Y-101864979D01*
X146405957Y-101861423D01*
X146369852Y-101864979D01*
X144885010Y-101864979D01*
X144885010Y-101636115D01*
X144888566Y-101600010D01*
X144874375Y-101455925D01*
X144832347Y-101317376D01*
X144764097Y-101189690D01*
X144735420Y-101154747D01*
X144672248Y-101077772D01*
X144644203Y-101054756D01*
X144564447Y-100975000D01*
X145534792Y-100004655D01*
X145543560Y-100002911D01*
X145695521Y-99939967D01*
X145832281Y-99848587D01*
X145948587Y-99732281D01*
X146039967Y-99595521D01*
X146102911Y-99443560D01*
X146114548Y-99385058D01*
X147293753Y-99385058D01*
X147329858Y-99388614D01*
X147365963Y-99385058D01*
X147473943Y-99374423D01*
X147612491Y-99332395D01*
X147740178Y-99264145D01*
X147852096Y-99172296D01*
X147875117Y-99144245D01*
X151948650Y-95070712D01*
X151931423Y-95127502D01*
G37*
G04 #@! TD.AperFunction*
D27*
X137055808Y-106394748D02*
X137027762Y-106417765D01*
X136935913Y-106529683D01*
X136867663Y-106657370D01*
X136846310Y-106727762D01*
X136825635Y-106795917D01*
X136811444Y-106940002D01*
X136815000Y-106976107D01*
X136815000Y-107315000D01*
X136660000Y-107315000D01*
X136660000Y-107272998D01*
X136555252Y-107272998D01*
X136660000Y-107168250D01*
X136648868Y-107066117D01*
X136637650Y-107031045D01*
X136648890Y-106993991D01*
X136663072Y-106850000D01*
X136663072Y-106650000D01*
X136648890Y-106506009D01*
X136624316Y-106425000D01*
X136648890Y-106343991D01*
X136649776Y-106335000D01*
X136692089Y-106335000D01*
X136872729Y-106299068D01*
X137042889Y-106228586D01*
X137043018Y-106228500D01*
X137222056Y-106228500D01*
X137055808Y-106394748D01*
G04 #@! TA.AperFunction,Conductor*
D31*
G36*
X137055808Y-106394748D02*
G01*
X137027762Y-106417765D01*
X136935913Y-106529683D01*
X136867663Y-106657370D01*
X136846310Y-106727762D01*
X136825635Y-106795917D01*
X136811444Y-106940002D01*
X136815000Y-106976107D01*
X136815000Y-107315000D01*
X136660000Y-107315000D01*
X136660000Y-107272998D01*
X136555252Y-107272998D01*
X136660000Y-107168250D01*
X136648868Y-107066117D01*
X136637650Y-107031045D01*
X136648890Y-106993991D01*
X136663072Y-106850000D01*
X136663072Y-106650000D01*
X136648890Y-106506009D01*
X136624316Y-106425000D01*
X136648890Y-106343991D01*
X136649776Y-106335000D01*
X136692089Y-106335000D01*
X136872729Y-106299068D01*
X137042889Y-106228586D01*
X137043018Y-106228500D01*
X137222056Y-106228500D01*
X137055808Y-106394748D01*
G37*
G04 #@! TD.AperFunction*
D27*
X156228815Y-83683815D02*
X156149463Y-83780506D01*
X156090498Y-83890820D01*
X156054188Y-84010518D01*
X156041928Y-84135000D01*
X156041928Y-85433625D01*
X146210554Y-95265000D01*
X142382951Y-95265000D01*
X142242889Y-95171414D01*
X142072729Y-95100932D01*
X141892089Y-95065000D01*
X141707911Y-95065000D01*
X141527271Y-95100932D01*
X141357111Y-95171414D01*
X141224171Y-95260242D01*
X141179164Y-95246589D01*
X141110086Y-95225634D01*
X140966001Y-95211443D01*
X140929894Y-95214999D01*
X140802954Y-95215000D01*
X140795521Y-95210033D01*
X140643560Y-95147089D01*
X140482240Y-95115000D01*
X140336204Y-95115000D01*
X140336092Y-95114989D01*
X140336087Y-95114989D01*
X140299980Y-95111433D01*
X140263880Y-95114989D01*
X139425125Y-95114989D01*
X139389020Y-95111433D01*
X139244935Y-95125624D01*
X139214027Y-95135000D01*
X139106388Y-95167652D01*
X138978701Y-95235902D01*
X138866783Y-95327751D01*
X138843762Y-95355802D01*
X138455797Y-95743767D01*
X138427751Y-95766784D01*
X138335902Y-95878702D01*
X138267652Y-96006389D01*
X138240390Y-96096260D01*
X138225624Y-96144936D01*
X138211433Y-96289021D01*
X138214989Y-96325127D01*
X138214990Y-96915000D01*
X138150605Y-96915000D01*
X138185000Y-96742089D01*
X138185000Y-96557911D01*
X138149068Y-96377271D01*
X138078586Y-96207111D01*
X137976262Y-96053972D01*
X137846028Y-95923738D01*
X137692889Y-95821414D01*
X137654702Y-95805597D01*
X137649068Y-95777271D01*
X137578586Y-95607111D01*
X137476262Y-95453972D01*
X137346028Y-95323738D01*
X137192889Y-95221414D01*
X137165541Y-95210086D01*
X137149068Y-95127271D01*
X137078586Y-94957111D01*
X136976262Y-94803972D01*
X136846028Y-94673738D01*
X136692889Y-94571414D01*
X136654702Y-94555597D01*
X136649068Y-94527271D01*
X136578586Y-94357111D01*
X136476262Y-94203972D01*
X136346028Y-94073738D01*
X136192889Y-93971414D01*
X136154702Y-93955597D01*
X136149068Y-93927271D01*
X136078586Y-93757111D01*
X135976262Y-93603972D01*
X135846028Y-93473738D01*
X135692889Y-93371414D01*
X135522729Y-93300932D01*
X135342089Y-93265000D01*
X135157911Y-93265000D01*
X135152266Y-93266123D01*
X135242889Y-93228586D01*
X135396028Y-93126262D01*
X135526262Y-92996028D01*
X135628586Y-92842889D01*
X135699068Y-92672729D01*
X135735000Y-92492089D01*
X135735000Y-92307911D01*
X135699068Y-92127271D01*
X135628586Y-91957111D01*
X135526262Y-91803972D01*
X135396028Y-91673738D01*
X135242889Y-91571414D01*
X135072729Y-91500932D01*
X134907515Y-91468068D01*
X134885021Y-91445575D01*
X134885021Y-87421248D01*
X134888576Y-87385153D01*
X134885021Y-87349058D01*
X134885021Y-87349049D01*
X134874386Y-87241069D01*
X134832358Y-87102521D01*
X134764108Y-86974834D01*
X134738970Y-86944204D01*
X134695274Y-86890960D01*
X134695271Y-86890957D01*
X134672258Y-86862916D01*
X134644218Y-86839904D01*
X134277386Y-86473072D01*
X135520000Y-86473072D01*
X135644482Y-86460812D01*
X135764180Y-86424502D01*
X135874494Y-86365537D01*
X135901184Y-86343633D01*
X136551744Y-86994193D01*
X136574760Y-87022238D01*
X136665242Y-87096495D01*
X136686678Y-87114087D01*
X136814364Y-87182337D01*
X136952913Y-87224365D01*
X137096998Y-87238556D01*
X137133103Y-87235000D01*
X139970578Y-87235000D01*
X141053077Y-88317500D01*
X140405797Y-88964781D01*
X140377751Y-88987798D01*
X140285902Y-89099716D01*
X140217652Y-89227403D01*
X140192499Y-89310321D01*
X140175624Y-89365950D01*
X140161433Y-89510035D01*
X140164989Y-89546140D01*
X140164990Y-91218463D01*
X140161433Y-91254578D01*
X140175624Y-91398663D01*
X140212408Y-91519920D01*
X140217653Y-91537211D01*
X140285903Y-91664898D01*
X140377752Y-91776816D01*
X140405797Y-91799832D01*
X141200177Y-92594213D01*
X141223193Y-92622258D01*
X141251237Y-92645273D01*
X141335111Y-92714107D01*
X141462797Y-92782357D01*
X141601346Y-92824385D01*
X141745431Y-92838576D01*
X141781536Y-92835020D01*
X143298055Y-92835020D01*
X143767456Y-93304422D01*
X143790472Y-93332467D01*
X143902390Y-93424316D01*
X144030077Y-93492566D01*
X144168625Y-93534594D01*
X144276605Y-93545229D01*
X144276614Y-93545229D01*
X144312709Y-93548784D01*
X144348804Y-93545229D01*
X144417111Y-93545229D01*
X144557173Y-93638815D01*
X144727333Y-93709297D01*
X144907973Y-93745229D01*
X145092151Y-93745229D01*
X145272791Y-93709297D01*
X145442951Y-93638815D01*
X145596090Y-93536491D01*
X145726324Y-93406257D01*
X145828648Y-93253118D01*
X145899130Y-93082958D01*
X145935062Y-92902318D01*
X145935062Y-92718140D01*
X145899130Y-92537500D01*
X145828648Y-92367340D01*
X145726324Y-92214201D01*
X145596090Y-92083967D01*
X145585050Y-92076590D01*
X145585050Y-92014233D01*
X145549118Y-91833593D01*
X145478636Y-91663433D01*
X145376312Y-91510294D01*
X145246078Y-91380060D01*
X145235040Y-91372685D01*
X145235040Y-91307911D01*
X145199108Y-91127271D01*
X145128626Y-90957111D01*
X145026302Y-90803972D01*
X144896068Y-90673738D01*
X144742929Y-90571414D01*
X144572769Y-90500932D01*
X144392129Y-90465000D01*
X144207951Y-90465000D01*
X144052519Y-90495918D01*
X144244207Y-90304230D01*
X144272247Y-90281218D01*
X144295260Y-90253177D01*
X144295263Y-90253174D01*
X144356643Y-90178383D01*
X144364097Y-90169300D01*
X144432347Y-90041613D01*
X144474375Y-89903065D01*
X144485010Y-89795085D01*
X144485010Y-89795076D01*
X144488565Y-89758981D01*
X144485010Y-89722886D01*
X144485010Y-88054476D01*
X144904467Y-87635020D01*
X146408851Y-87635020D01*
X146444956Y-87638576D01*
X146481061Y-87635020D01*
X146589041Y-87624385D01*
X146727589Y-87582357D01*
X146855276Y-87514107D01*
X146967194Y-87422258D01*
X146990215Y-87394207D01*
X147199412Y-87185010D01*
X150948885Y-87185010D01*
X150984990Y-87188566D01*
X151021095Y-87185010D01*
X151129075Y-87174375D01*
X151267623Y-87132347D01*
X151395310Y-87064097D01*
X151507228Y-86972248D01*
X151530248Y-86944198D01*
X152054103Y-86420344D01*
X152303740Y-86470000D01*
X152596260Y-86470000D01*
X152883158Y-86412932D01*
X153153411Y-86300990D01*
X153396632Y-86138475D01*
X153603475Y-85931632D01*
X153765990Y-85688411D01*
X153877932Y-85418158D01*
X153935000Y-85131260D01*
X153935000Y-84838740D01*
X153877932Y-84551842D01*
X153765990Y-84281589D01*
X153603475Y-84038368D01*
X153396632Y-83831525D01*
X153153411Y-83669010D01*
X153131659Y-83660000D01*
X156257834Y-83660000D01*
X156228815Y-83683815D01*
G04 #@! TA.AperFunction,Conductor*
D31*
G36*
X156228815Y-83683815D02*
G01*
X156149463Y-83780506D01*
X156090498Y-83890820D01*
X156054188Y-84010518D01*
X156041928Y-84135000D01*
X156041928Y-85433625D01*
X146210554Y-95265000D01*
X142382951Y-95265000D01*
X142242889Y-95171414D01*
X142072729Y-95100932D01*
X141892089Y-95065000D01*
X141707911Y-95065000D01*
X141527271Y-95100932D01*
X141357111Y-95171414D01*
X141224171Y-95260242D01*
X141179164Y-95246589D01*
X141110086Y-95225634D01*
X140966001Y-95211443D01*
X140929894Y-95214999D01*
X140802954Y-95215000D01*
X140795521Y-95210033D01*
X140643560Y-95147089D01*
X140482240Y-95115000D01*
X140336204Y-95115000D01*
X140336092Y-95114989D01*
X140336087Y-95114989D01*
X140299980Y-95111433D01*
X140263880Y-95114989D01*
X139425125Y-95114989D01*
X139389020Y-95111433D01*
X139244935Y-95125624D01*
X139214027Y-95135000D01*
X139106388Y-95167652D01*
X138978701Y-95235902D01*
X138866783Y-95327751D01*
X138843762Y-95355802D01*
X138455797Y-95743767D01*
X138427751Y-95766784D01*
X138335902Y-95878702D01*
X138267652Y-96006389D01*
X138240390Y-96096260D01*
X138225624Y-96144936D01*
X138211433Y-96289021D01*
X138214989Y-96325127D01*
X138214990Y-96915000D01*
X138150605Y-96915000D01*
X138185000Y-96742089D01*
X138185000Y-96557911D01*
X138149068Y-96377271D01*
X138078586Y-96207111D01*
X137976262Y-96053972D01*
X137846028Y-95923738D01*
X137692889Y-95821414D01*
X137654702Y-95805597D01*
X137649068Y-95777271D01*
X137578586Y-95607111D01*
X137476262Y-95453972D01*
X137346028Y-95323738D01*
X137192889Y-95221414D01*
X137165541Y-95210086D01*
X137149068Y-95127271D01*
X137078586Y-94957111D01*
X136976262Y-94803972D01*
X136846028Y-94673738D01*
X136692889Y-94571414D01*
X136654702Y-94555597D01*
X136649068Y-94527271D01*
X136578586Y-94357111D01*
X136476262Y-94203972D01*
X136346028Y-94073738D01*
X136192889Y-93971414D01*
X136154702Y-93955597D01*
X136149068Y-93927271D01*
X136078586Y-93757111D01*
X135976262Y-93603972D01*
X135846028Y-93473738D01*
X135692889Y-93371414D01*
X135522729Y-93300932D01*
X135342089Y-93265000D01*
X135157911Y-93265000D01*
X135152266Y-93266123D01*
X135242889Y-93228586D01*
X135396028Y-93126262D01*
X135526262Y-92996028D01*
X135628586Y-92842889D01*
X135699068Y-92672729D01*
X135735000Y-92492089D01*
X135735000Y-92307911D01*
X135699068Y-92127271D01*
X135628586Y-91957111D01*
X135526262Y-91803972D01*
X135396028Y-91673738D01*
X135242889Y-91571414D01*
X135072729Y-91500932D01*
X134907515Y-91468068D01*
X134885021Y-91445575D01*
X134885021Y-87421248D01*
X134888576Y-87385153D01*
X134885021Y-87349058D01*
X134885021Y-87349049D01*
X134874386Y-87241069D01*
X134832358Y-87102521D01*
X134764108Y-86974834D01*
X134738970Y-86944204D01*
X134695274Y-86890960D01*
X134695271Y-86890957D01*
X134672258Y-86862916D01*
X134644218Y-86839904D01*
X134277386Y-86473072D01*
X135520000Y-86473072D01*
X135644482Y-86460812D01*
X135764180Y-86424502D01*
X135874494Y-86365537D01*
X135901184Y-86343633D01*
X136551744Y-86994193D01*
X136574760Y-87022238D01*
X136665242Y-87096495D01*
X136686678Y-87114087D01*
X136814364Y-87182337D01*
X136952913Y-87224365D01*
X137096998Y-87238556D01*
X137133103Y-87235000D01*
X139970578Y-87235000D01*
X141053077Y-88317500D01*
X140405797Y-88964781D01*
X140377751Y-88987798D01*
X140285902Y-89099716D01*
X140217652Y-89227403D01*
X140192499Y-89310321D01*
X140175624Y-89365950D01*
X140161433Y-89510035D01*
X140164989Y-89546140D01*
X140164990Y-91218463D01*
X140161433Y-91254578D01*
X140175624Y-91398663D01*
X140212408Y-91519920D01*
X140217653Y-91537211D01*
X140285903Y-91664898D01*
X140377752Y-91776816D01*
X140405797Y-91799832D01*
X141200177Y-92594213D01*
X141223193Y-92622258D01*
X141251237Y-92645273D01*
X141335111Y-92714107D01*
X141462797Y-92782357D01*
X141601346Y-92824385D01*
X141745431Y-92838576D01*
X141781536Y-92835020D01*
X143298055Y-92835020D01*
X143767456Y-93304422D01*
X143790472Y-93332467D01*
X143902390Y-93424316D01*
X144030077Y-93492566D01*
X144168625Y-93534594D01*
X144276605Y-93545229D01*
X144276614Y-93545229D01*
X144312709Y-93548784D01*
X144348804Y-93545229D01*
X144417111Y-93545229D01*
X144557173Y-93638815D01*
X144727333Y-93709297D01*
X144907973Y-93745229D01*
X145092151Y-93745229D01*
X145272791Y-93709297D01*
X145442951Y-93638815D01*
X145596090Y-93536491D01*
X145726324Y-93406257D01*
X145828648Y-93253118D01*
X145899130Y-93082958D01*
X145935062Y-92902318D01*
X145935062Y-92718140D01*
X145899130Y-92537500D01*
X145828648Y-92367340D01*
X145726324Y-92214201D01*
X145596090Y-92083967D01*
X145585050Y-92076590D01*
X145585050Y-92014233D01*
X145549118Y-91833593D01*
X145478636Y-91663433D01*
X145376312Y-91510294D01*
X145246078Y-91380060D01*
X145235040Y-91372685D01*
X145235040Y-91307911D01*
X145199108Y-91127271D01*
X145128626Y-90957111D01*
X145026302Y-90803972D01*
X144896068Y-90673738D01*
X144742929Y-90571414D01*
X144572769Y-90500932D01*
X144392129Y-90465000D01*
X144207951Y-90465000D01*
X144052519Y-90495918D01*
X144244207Y-90304230D01*
X144272247Y-90281218D01*
X144295260Y-90253177D01*
X144295263Y-90253174D01*
X144356643Y-90178383D01*
X144364097Y-90169300D01*
X144432347Y-90041613D01*
X144474375Y-89903065D01*
X144485010Y-89795085D01*
X144485010Y-89795076D01*
X144488565Y-89758981D01*
X144485010Y-89722886D01*
X144485010Y-88054476D01*
X144904467Y-87635020D01*
X146408851Y-87635020D01*
X146444956Y-87638576D01*
X146481061Y-87635020D01*
X146589041Y-87624385D01*
X146727589Y-87582357D01*
X146855276Y-87514107D01*
X146967194Y-87422258D01*
X146990215Y-87394207D01*
X147199412Y-87185010D01*
X150948885Y-87185010D01*
X150984990Y-87188566D01*
X151021095Y-87185010D01*
X151129075Y-87174375D01*
X151267623Y-87132347D01*
X151395310Y-87064097D01*
X151507228Y-86972248D01*
X151530248Y-86944198D01*
X152054103Y-86420344D01*
X152303740Y-86470000D01*
X152596260Y-86470000D01*
X152883158Y-86412932D01*
X153153411Y-86300990D01*
X153396632Y-86138475D01*
X153603475Y-85931632D01*
X153765990Y-85688411D01*
X153877932Y-85418158D01*
X153935000Y-85131260D01*
X153935000Y-84838740D01*
X153877932Y-84551842D01*
X153765990Y-84281589D01*
X153603475Y-84038368D01*
X153396632Y-83831525D01*
X153153411Y-83669010D01*
X153131659Y-83660000D01*
X156257834Y-83660000D01*
X156228815Y-83683815D01*
G37*
G04 #@! TD.AperFunction*
M02*
