<?xml version="1.0" encoding="UTF-8" standalone="no"?>
<!DOCTYPE svg PUBLIC "-//W3C//DTD SVG 1.1//EN"
 "http://www.w3.org/Graphics/SVG/1.1/DTD/svg11.dtd">
<!-- Generated by graphviz version 2.49.3 (20211023.0002)
 -->
<!-- Title: D Pages: 1 -->
<svg width="1324pt" height="692pt"
 viewBox="0.00 0.00 1323.50 692.00" xmlns="http://www.w3.org/2000/svg" xmlns:xlink="http://www.w3.org/1999/xlink">
<g id="graph0" class="graph" transform="scale(1 1) rotate(0) translate(4 688)">
<title>D</title>
<polygon fill="white" stroke="transparent" points="-4,4 -4,-688 1319.5,-688 1319.5,4 -4,4"/>
<!-- start2 -->
<g id="node1" class="node">
<title>start2</title>
<polygon fill="coral" stroke="black" points="346.5,-324 292.5,-324 292.5,-288 346.5,-288 346.5,-324"/>
<text text-anchor="middle" x="319.5" y="-302.3" font-family="Arial" font-size="14.00">start</text>
</g>
<!-- identifyDevice2 -->
<g id="node4" class="node">
<title>identifyDevice2</title>
<polygon fill="cornflowerblue" stroke="black" points="470.5,-324 364.5,-324 364.5,-288 470.5,-288 470.5,-324"/>
<text text-anchor="middle" x="417.5" y="-302.3" font-family="Arial" font-size="14.00">identifyDevice</text>
</g>
<!-- start2&#45;&gt;identifyDevice2 -->
<g id="edge9" class="edge">
<title>start2&#45;&gt;identifyDevice2</title>
<path fill="none" stroke="black" d="M346.68,-306C349.17,-306 351.66,-306 354.15,-306"/>
<polygon fill="black" stroke="black" points="354.38,-309.5 364.38,-306 354.38,-302.5 354.38,-309.5"/>
</g>
<!-- start -->
<g id="node2" class="node">
<title>start</title>
<polygon fill="coral" stroke="black" points="405.5,-468 351.5,-468 351.5,-432 405.5,-432 405.5,-468"/>
<text text-anchor="middle" x="378.5" y="-446.3" font-family="Arial" font-size="14.00">start</text>
</g>
<!-- createDeviceHandle -->
<g id="node12" class="node">
<title>createDeviceHandle</title>
<polygon fill="lightgrey" stroke="black" points="368,-396 223,-396 223,-360 368,-360 368,-396"/>
<text text-anchor="middle" x="295.5" y="-374.3" font-family="Arial" font-size="14.00">createDeviceHandle</text>
</g>
<!-- start&#45;&gt;createDeviceHandle -->
<g id="edge4" class="edge">
<title>start&#45;&gt;createDeviceHandle</title>
<path fill="none" stroke="black" d="M357.98,-431.7C347.63,-422.97 334.91,-412.24 323.66,-402.75"/>
<polygon fill="black" stroke="black" points="325.68,-399.88 315.78,-396.1 321.17,-405.23 325.68,-399.88"/>
</g>
<!-- ID_UnlockDeviceXv2 -->
<g id="node14" class="node">
<title>ID_UnlockDeviceXv2</title>
<polygon fill="coral" stroke="black" points="575.5,-396 423.5,-396 423.5,-360 575.5,-360 575.5,-396"/>
<text text-anchor="middle" x="499.5" y="-374.3" font-family="Arial" font-size="14.00">ID_UnlockDeviceXv2</text>
</g>
<!-- start&#45;&gt;ID_UnlockDeviceXv2 -->
<g id="edge11" class="edge">
<title>start&#45;&gt;ID_UnlockDeviceXv2</title>
<path fill="none" stroke="black" d="M405.65,-433.29C421.91,-423.89 442.84,-411.78 460.81,-401.38"/>
<polygon fill="black" stroke="black" points="462.99,-404.16 469.89,-396.13 459.49,-398.11 462.99,-404.16"/>
</g>
<!-- identifyDevice -->
<g id="node3" class="node">
<title>identifyDevice</title>
<polygon fill="cornflowerblue" stroke="black" points="274.5,-324 168.5,-324 168.5,-288 274.5,-288 274.5,-324"/>
<text text-anchor="middle" x="221.5" y="-302.3" font-family="Arial" font-size="14.00">identifyDevice</text>
</g>
<!-- identifyDevice&#45;&gt;start2 -->
<g id="edge8" class="edge">
<title>identifyDevice&#45;&gt;start2</title>
<path fill="none" stroke="black" d="M274.71,-306C277.17,-306 279.63,-306 282.09,-306"/>
<polygon fill="black" stroke="black" points="282.21,-309.5 292.21,-306 282.21,-302.5 282.21,-309.5"/>
</g>
<!-- setDeviceId -->
<g id="node5" class="node">
<title>setDeviceId</title>
<polygon fill="antiquewhite" stroke="black" points="93,-252 0,-252 0,-216 93,-216 93,-252"/>
<text text-anchor="middle" x="46.5" y="-230.3" font-family="Arial" font-size="14.00">setDeviceId</text>
</g>
<!-- identifyDevice&#45;&gt;setDeviceId -->
<g id="edge6" class="edge">
<title>identifyDevice&#45;&gt;setDeviceId</title>
<path fill="none" stroke="black" d="M178.69,-287.88C154.55,-278.22 124.22,-266.09 98.69,-255.88"/>
<polygon fill="black" stroke="black" points="99.76,-252.53 89.17,-252.07 97.16,-259.03 99.76,-252.53"/>
</g>
<!-- getDeviceIdentity -->
<g id="node7" class="node">
<title>getDeviceIdentity</title>
<polygon fill="#caff70" stroke="black" points="481,-252 354,-252 354,-216 481,-216 481,-252"/>
<text text-anchor="middle" x="417.5" y="-230.3" font-family="Arial" font-size="14.00">getDeviceIdentity</text>
</g>
<!-- identifyDevice&#45;&gt;getDeviceIdentity -->
<g id="edge16" class="edge">
<title>identifyDevice&#45;&gt;getDeviceIdentity</title>
<path fill="none" stroke="black" d="M269.2,-287.97C296.58,-278.19 331.16,-265.84 360.03,-255.52"/>
<polygon fill="black" stroke="black" points="361.35,-258.77 369.59,-252.11 359,-252.18 361.35,-258.77"/>
</g>
<!-- identifyDevice2&#45;&gt;getDeviceIdentity -->
<g id="edge10" class="edge">
<title>identifyDevice2&#45;&gt;getDeviceIdentity</title>
<path fill="none" stroke="black" d="M417.5,-287.7C417.5,-279.98 417.5,-270.71 417.5,-262.11"/>
<polygon fill="black" stroke="black" points="421,-262.1 417.5,-252.1 414,-262.1 421,-262.1"/>
</g>
<!-- Device -->
<g id="node13" class="node">
<title>Device</title>
<polygon fill="lightgrey" stroke="black" points="77,-180 16,-180 16,-144 77,-144 77,-180"/>
<text text-anchor="middle" x="46.5" y="-158.3" font-family="Arial" font-size="14.00">Device</text>
</g>
<!-- setDeviceId&#45;&gt;Device -->
<g id="edge7" class="edge">
<title>setDeviceId&#45;&gt;Device</title>
<path fill="none" stroke="black" d="M46.5,-215.7C46.5,-207.98 46.5,-198.71 46.5,-190.11"/>
<polygon fill="black" stroke="black" points="50,-190.1 46.5,-180.1 43,-190.1 50,-190.1"/>
</g>
<!-- DB_getDeviceInfo -->
<g id="node25" class="node">
<title>DB_getDeviceInfo</title>
<polygon fill="antiquewhite" stroke="black" points="241.5,-252 111.5,-252 111.5,-216 241.5,-216 241.5,-252"/>
<text text-anchor="middle" x="176.5" y="-230.3" font-family="Arial" font-size="14.00">DB.getDeviceInfo</text>
</g>
<!-- setDeviceId&#45;&gt;DB_getDeviceInfo -->
<g id="edge25" class="edge">
<title>setDeviceId&#45;&gt;DB_getDeviceInfo</title>
<path fill="none" stroke="black" d="M93.22,-234C95.88,-234 98.53,-234 101.19,-234"/>
<polygon fill="black" stroke="black" points="101.44,-237.5 111.44,-234 101.44,-230.5 101.44,-237.5"/>
</g>
<!-- setDeviceId2 -->
<g id="node6" class="node">
<title>setDeviceId2</title>
<polygon fill="antiquewhite" stroke="black" points="464,-180 371,-180 371,-144 464,-144 464,-180"/>
<text text-anchor="middle" x="417.5" y="-158.3" font-family="Arial" font-size="14.00">setDeviceId</text>
</g>
<!-- getCpuRegisters -->
<g id="node18" class="node">
<title>getCpuRegisters</title>
<polygon fill="cornflowerblue" stroke="black" points="480,-108 355,-108 355,-72 480,-72 480,-108"/>
<text text-anchor="middle" x="417.5" y="-86.3" font-family="Arial" font-size="14.00">getCpuRegisters</text>
</g>
<!-- setDeviceId2&#45;&gt;getCpuRegisters -->
<g id="edge18" class="edge">
<title>setDeviceId2&#45;&gt;getCpuRegisters</title>
<path fill="none" stroke="black" d="M417.5,-143.7C417.5,-135.98 417.5,-126.71 417.5,-118.11"/>
<polygon fill="black" stroke="black" points="421,-118.1 417.5,-108.1 414,-118.1 421,-118.1"/>
</g>
<!-- getDeviceIdentity&#45;&gt;setDeviceId2 -->
<g id="edge17" class="edge">
<title>getDeviceIdentity&#45;&gt;setDeviceId2</title>
<path fill="none" stroke="black" d="M417.5,-215.7C417.5,-207.98 417.5,-198.71 417.5,-190.11"/>
<polygon fill="black" stroke="black" points="421,-190.1 417.5,-180.1 414,-190.1 421,-190.1"/>
</g>
<!-- addHoldParamsTo -->
<g id="node21" class="node">
<title>addHoldParamsTo</title>
<polygon fill="#caff70" stroke="black" points="635.5,-252 499.5,-252 499.5,-216 635.5,-216 635.5,-252"/>
<text text-anchor="middle" x="567.5" y="-230.3" font-family="Arial" font-size="14.00">addHoldParamsTo</text>
</g>
<!-- getDeviceIdentity&#45;&gt;addHoldParamsTo -->
<g id="edge20" class="edge">
<title>getDeviceIdentity&#45;&gt;addHoldParamsTo</title>
<path fill="none" stroke="black" d="M481.07,-234C483.73,-234 486.39,-234 489.05,-234"/>
<polygon fill="black" stroke="black" points="489.3,-237.5 499.3,-234 489.3,-230.5 489.3,-237.5"/>
</g>
<!-- ID_StartJtag -->
<g id="node8" class="node">
<title>ID_StartJtag</title>
<polygon fill="#698b69" stroke="black" points="584.5,-324 488.5,-324 488.5,-288 584.5,-288 584.5,-324"/>
<text text-anchor="middle" x="536.5" y="-302.3" font-family="Arial" font-size="14.00">ID_StartJtag</text>
</g>
<!-- IHIL_Open -->
<g id="node15" class="node">
<title>IHIL_Open</title>
<polygon fill="#698b69" stroke="black" points="690,-324 603,-324 603,-288 690,-288 690,-324"/>
<text text-anchor="middle" x="646.5" y="-302.3" font-family="Arial" font-size="14.00">IHIL_Open</text>
</g>
<!-- ID_StartJtag&#45;&gt;IHIL_Open -->
<g id="edge13" class="edge">
<title>ID_StartJtag&#45;&gt;IHIL_Open</title>
<path fill="none" stroke="black" d="M584.62,-306C587.4,-306 590.17,-306 592.95,-306"/>
<polygon fill="black" stroke="black" points="592.99,-309.5 602.99,-306 592.99,-302.5 592.99,-309.5"/>
</g>
<!-- Identify -->
<g id="node9" class="node">
<title>Identify</title>
<polygon fill="lightgrey" stroke="black" points="410,-684 347,-684 347,-648 410,-648 410,-684"/>
<text text-anchor="middle" x="378.5" y="-662.3" font-family="Arial" font-size="14.00">Identify</text>
</g>
<!-- setJtagMode -->
<g id="node10" class="node">
<title>setJtagMode</title>
<polygon fill="lightgrey" stroke="black" points="428,-612 329,-612 329,-576 428,-576 428,-612"/>
<text text-anchor="middle" x="378.5" y="-590.3" font-family="Arial" font-size="14.00">setJtagMode</text>
</g>
<!-- Identify&#45;&gt;setJtagMode -->
<g id="edge1" class="edge">
<title>Identify&#45;&gt;setJtagMode</title>
<path fill="none" stroke="black" d="M378.5,-647.7C378.5,-639.98 378.5,-630.71 378.5,-622.11"/>
<polygon fill="black" stroke="black" points="382,-622.1 378.5,-612.1 375,-622.1 382,-622.1"/>
</g>
<!-- setDeviceCode -->
<g id="node11" class="node">
<title>setDeviceCode</title>
<polygon fill="lightgrey" stroke="black" points="436.5,-540 320.5,-540 320.5,-504 436.5,-504 436.5,-540"/>
<text text-anchor="middle" x="378.5" y="-518.3" font-family="Arial" font-size="14.00">setDeviceCode</text>
</g>
<!-- setJtagMode&#45;&gt;setDeviceCode -->
<g id="edge2" class="edge">
<title>setJtagMode&#45;&gt;setDeviceCode</title>
<path fill="none" stroke="black" d="M378.5,-575.7C378.5,-567.98 378.5,-558.71 378.5,-550.11"/>
<polygon fill="black" stroke="black" points="382,-550.1 378.5,-540.1 375,-550.1 382,-550.1"/>
</g>
<!-- setDeviceCode&#45;&gt;start -->
<g id="edge3" class="edge">
<title>setDeviceCode&#45;&gt;start</title>
<path fill="none" stroke="black" d="M378.5,-503.7C378.5,-495.98 378.5,-486.71 378.5,-478.11"/>
<polygon fill="black" stroke="black" points="382,-478.1 378.5,-468.1 375,-478.1 382,-478.1"/>
</g>
<!-- createDeviceHandle&#45;&gt;identifyDevice -->
<g id="edge5" class="edge">
<title>createDeviceHandle&#45;&gt;identifyDevice</title>
<path fill="none" stroke="black" d="M277.21,-359.7C268.07,-351.05 256.86,-340.45 246.9,-331.03"/>
<polygon fill="black" stroke="black" points="249.25,-328.43 239.58,-324.1 244.44,-333.52 249.25,-328.43"/>
</g>
<!-- ID_UnlockDeviceXv2&#45;&gt;ID_StartJtag -->
<g id="edge12" class="edge">
<title>ID_UnlockDeviceXv2&#45;&gt;ID_StartJtag</title>
<path fill="none" stroke="black" d="M508.65,-359.7C512.9,-351.64 518.06,-341.89 522.77,-332.98"/>
<polygon fill="black" stroke="black" points="525.88,-334.58 527.46,-324.1 519.69,-331.31 525.88,-334.58"/>
</g>
<!-- IHIL_TapReset -->
<g id="node16" class="node">
<title>IHIL_TapReset</title>
<polygon fill="#698b69" stroke="black" points="823,-324 708,-324 708,-288 823,-288 823,-324"/>
<text text-anchor="middle" x="765.5" y="-302.3" font-family="Arial" font-size="14.00">IHIL_TapReset</text>
</g>
<!-- IHIL_Open&#45;&gt;IHIL_TapReset -->
<g id="edge14" class="edge">
<title>IHIL_Open&#45;&gt;IHIL_TapReset</title>
<path fill="none" stroke="black" d="M690.2,-306C692.68,-306 695.16,-306 697.64,-306"/>
<polygon fill="black" stroke="black" points="697.84,-309.5 707.84,-306 697.84,-302.5 697.84,-309.5"/>
</g>
<!-- IHIL_CheckJtagFuse -->
<g id="node17" class="node">
<title>IHIL_CheckJtagFuse</title>
<polygon fill="#698b69" stroke="black" points="993.5,-324 841.5,-324 841.5,-288 993.5,-288 993.5,-324"/>
<text text-anchor="middle" x="917.5" y="-302.3" font-family="Arial" font-size="14.00">IHIL_CheckJtagFuse</text>
</g>
<!-- IHIL_TapReset&#45;&gt;IHIL_CheckJtagFuse -->
<g id="edge15" class="edge">
<title>IHIL_TapReset&#45;&gt;IHIL_CheckJtagFuse</title>
<path fill="none" stroke="black" d="M823.09,-306C825.73,-306 828.36,-306 831,-306"/>
<polygon fill="black" stroke="black" points="831.16,-309.5 841.16,-306 831.16,-302.5 831.16,-309.5"/>
</g>
<!-- getMemoryArea -->
<g id="node19" class="node">
<title>getMemoryArea</title>
<polygon fill="cornflowerblue" stroke="black" points="476.5,-36 358.5,-36 358.5,0 476.5,0 476.5,-36"/>
<text text-anchor="middle" x="417.5" y="-14.3" font-family="Arial" font-size="14.00">getMemoryArea</text>
</g>
<!-- getCpuRegisters&#45;&gt;getMemoryArea -->
<g id="edge19" class="edge">
<title>getCpuRegisters&#45;&gt;getMemoryArea</title>
<path fill="none" stroke="black" d="M417.5,-71.7C417.5,-63.98 417.5,-54.71 417.5,-46.11"/>
<polygon fill="black" stroke="black" points="421,-46.1 417.5,-36.1 414,-46.1 421,-46.1"/>
</g>
<!-- DB_findDevice -->
<g id="node20" class="node">
<title>DB_findDevice</title>
<polygon fill="#caff70" stroke="black" points="1315.5,-252 1207.5,-252 1207.5,-216 1315.5,-216 1315.5,-252"/>
<text text-anchor="middle" x="1261.5" y="-230.3" font-family="Arial" font-size="14.00">DB.findDevice</text>
</g>
<!-- ID_SyncJtag_AssertPor_SaveContextXv2 -->
<g id="node22" class="node">
<title>ID_SyncJtag_AssertPor_SaveContextXv2</title>
<polygon fill="#caff70" stroke="black" points="937.5,-252 653.5,-252 653.5,-216 937.5,-216 937.5,-252"/>
<text text-anchor="middle" x="795.5" y="-230.3" font-family="Arial" font-size="14.00">ID_SyncJtag_AssertPor_SaveContextXv2</text>
</g>
<!-- addHoldParamsTo&#45;&gt;ID_SyncJtag_AssertPor_SaveContextXv2 -->
<g id="edge21" class="edge">
<title>addHoldParamsTo&#45;&gt;ID_SyncJtag_AssertPor_SaveContextXv2</title>
<path fill="none" stroke="black" d="M635.63,-234C638.23,-234 640.82,-234 643.42,-234"/>
<polygon fill="black" stroke="black" points="643.43,-237.5 653.43,-234 643.43,-230.5 643.43,-237.5"/>
</g>
<!-- ID_GetDeviceIdPtr -->
<g id="node23" class="node">
<title>ID_GetDeviceIdPtr</title>
<polygon fill="#caff70" stroke="black" points="1093.5,-252 955.5,-252 955.5,-216 1093.5,-216 1093.5,-252"/>
<text text-anchor="middle" x="1024.5" y="-230.3" font-family="Arial" font-size="14.00">ID_GetDeviceIdPtr</text>
</g>
<!-- ID_SyncJtag_AssertPor_SaveContextXv2&#45;&gt;ID_GetDeviceIdPtr -->
<g id="edge22" class="edge">
<title>ID_SyncJtag_AssertPor_SaveContextXv2&#45;&gt;ID_GetDeviceIdPtr</title>
<path fill="none" stroke="black" d="M937.73,-234C940.21,-234 942.69,-234 945.17,-234"/>
<polygon fill="black" stroke="black" points="945.36,-237.5 955.36,-234 945.36,-230.5 945.36,-237.5"/>
</g>
<!-- getSubID -->
<g id="node24" class="node">
<title>getSubID</title>
<polygon fill="#caff70" stroke="black" points="1189,-252 1112,-252 1112,-216 1189,-216 1189,-252"/>
<text text-anchor="middle" x="1150.5" y="-230.3" font-family="Arial" font-size="14.00">getSubID</text>
</g>
<!-- ID_GetDeviceIdPtr&#45;&gt;getSubID -->
<g id="edge23" class="edge">
<title>ID_GetDeviceIdPtr&#45;&gt;getSubID</title>
<path fill="none" stroke="black" d="M1093.9,-234C1096.39,-234 1098.87,-234 1101.36,-234"/>
<polygon fill="black" stroke="black" points="1101.59,-237.5 1111.59,-234 1101.59,-230.5 1101.59,-237.5"/>
</g>
<!-- getSubID&#45;&gt;DB_findDevice -->
<g id="edge24" class="edge">
<title>getSubID&#45;&gt;DB_findDevice</title>
<path fill="none" stroke="black" d="M1189.09,-234C1191.87,-234 1194.64,-234 1197.42,-234"/>
<polygon fill="black" stroke="black" points="1197.48,-237.5 1207.48,-234 1197.48,-230.5 1197.48,-237.5"/>
</g>
<!-- configure -->
<g id="node26" class="node">
<title>configure</title>
<polygon fill="antiquewhite" stroke="black" points="335.5,-252 259.5,-252 259.5,-216 335.5,-216 335.5,-252"/>
<text text-anchor="middle" x="297.5" y="-230.3" font-family="Arial" font-size="14.00">configure</text>
</g>
<!-- DB_getDeviceInfo&#45;&gt;configure -->
<g id="edge26" class="edge">
<title>DB_getDeviceInfo&#45;&gt;configure</title>
<path fill="none" stroke="black" d="M241.73,-234C244.18,-234 246.63,-234 249.08,-234"/>
<polygon fill="black" stroke="black" points="249.16,-237.5 259.16,-234 249.16,-230.5 249.16,-237.5"/>
</g>
</g>
</svg>
