M48
; DRILL file KiCad 10.0.2 date 2026-05-24T20:16:15
; FORMAT={-:-/ absolute / metric / decimal}
; #@! TF.CreationDate,2026-05-24T20:16:15+02:00
; #@! TF.GenerationSoftware,Kicad,Pcbnew,10.0.2
; #@! TF.FileFunction,Plated,1,2,PTH
FMAT,2
METRIC
; #@! TA.AperFunction,Plated,PTH,ViaDrill
T1C0.200
; #@! TA.AperFunction,Plated,PTH,ViaDrill
T2C0.300
; #@! TA.AperFunction,Plated,PTH,ViaDrill
T3C0.400
; #@! TA.AperFunction,Plated,PTH,ViaDrill
T4C0.500
; #@! TA.AperFunction,Plated,PTH,ComponentDrill
T5C1.000
; #@! TA.AperFunction,Plated,PTH,ComponentDrill
T6C1.190
%
G90
G05
T1
X160.69Y-78.7
X160.782Y-76.938
X160.805Y-77.983
X161.29Y-77.446
X164.084Y-86.844
X168.636Y-92.885
X169.164Y-77.7
X169.672Y-83.415
X169.799Y-81.764
X170.434Y-93.194
X171.704Y-91.543
X173.482Y-89.511
X174.498Y-99.798
X175.133Y-89.384
X175.133Y-98.528
X175.133Y-101.576
X175.133Y-103.862
X175.26Y-83.542
X175.768Y-88.876
X175.768Y-97.258
X175.768Y-98.02
X175.768Y-101.068
X176.276Y-106.91
X176.53Y-87.606
X176.53Y-99.798
X178.308Y-101.068
X178.562Y-106.783
T2
X124.79Y-114.327
X156.09Y-96.775
X158.496Y-96.75
X161.39Y-117.075
X164.592Y-94.718
X167.132Y-99.036
X168.402Y-80.748
X168.402Y-90.4
X169.672Y-90.146
X170.688Y-98.782
X170.715Y-90.175
X172.212Y-102.973
X173.228Y-98.782
X175.133Y-92.432
X175.768Y-91.924
X176.53Y-93.448
X178.689Y-105.894
X178.816Y-85.32
T3
X142.494Y-80.24
X142.665Y-81.85
X143.465Y-106.925
X143.565Y-96.825
X152.865Y-73.125
X157.815Y-83.925
X160.315Y-82.775
X164.365Y-77.275
X165.1Y-89.257
X166.37Y-95.861
X166.878Y-84.812
X167.64Y-113.768
X169.799Y-100.052
X172.72Y-106.007
X172.847Y-86.463
X172.865Y-110.525
X176.784Y-95.734
X177.546Y-93.956
X178.816Y-102.592
X179.832Y-92.432
X181.864Y-79.732
T4
X119.888Y-76.303
X120.193Y-114.708
X126.34Y-70.537
X126.34Y-75.287
X127.0Y-91.67
X130.734Y-122.023
X136.144Y-70.08
X137.287Y-106.021
X138.379Y-84.329
X138.43Y-77.319
X138.43Y-91.67
X138.43Y-99.29
X138.43Y-113.717
X150.19Y-116.9
X150.215Y-77.3
X150.59Y-94.05
X150.665Y-72.15
X150.673Y-110.288
X155.99Y-116.925
X157.44Y-106.825
X158.115Y-91.67
X158.815Y-100.55
X163.424Y-111.634
X163.54Y-118.95
X165.565Y-75.1
X166.292Y-122.252
X167.72Y-110.513
X167.894Y-118.797
X169.418Y-104.624
X173.482Y-101.703
X179.121Y-110.847
X184.252Y-83.034
T5
X123.19Y-72.62
X123.19Y-75.16
X123.19Y-77.7
X123.19Y-80.24
X123.19Y-82.78
X123.19Y-85.32
X123.19Y-87.86
X123.19Y-92.98
X123.19Y-95.52
X123.19Y-98.06
X123.19Y-100.6
X123.19Y-103.14
X123.19Y-105.68
X129.595Y-70.045
X129.595Y-72.585
X129.595Y-75.125
X129.595Y-77.665
X129.595Y-80.205
X129.595Y-82.745
X129.595Y-85.285
X129.595Y-87.825
X129.595Y-90.365
X129.595Y-92.905
X129.595Y-95.445
X129.595Y-97.985
X129.595Y-100.525
X129.595Y-103.065
X129.595Y-105.605
X129.595Y-108.145
X129.595Y-110.685
X129.595Y-113.225
X129.595Y-115.765
X129.595Y-118.305
X132.135Y-70.045
X132.135Y-72.585
X132.135Y-75.125
X132.135Y-77.665
X132.135Y-80.205
X132.135Y-82.745
X132.135Y-85.285
X132.135Y-87.825
X132.135Y-90.365
X132.135Y-92.905
X132.135Y-95.445
X132.135Y-97.985
X132.135Y-100.525
X132.135Y-103.065
X132.135Y-105.605
X132.135Y-108.145
X132.135Y-110.685
X132.135Y-113.225
X132.135Y-115.765
X132.135Y-118.305
X144.835Y-70.045
X144.835Y-72.585
X144.835Y-75.125
X144.835Y-77.665
X144.835Y-80.205
X144.835Y-82.745
X144.835Y-85.285
X144.835Y-87.825
X144.835Y-90.365
X144.835Y-92.905
X144.835Y-95.445
X144.835Y-97.985
X144.835Y-100.525
X144.835Y-103.065
X144.835Y-105.605
X144.835Y-108.145
X144.835Y-110.685
X144.835Y-113.225
X144.835Y-115.765
X144.835Y-118.305
X147.375Y-70.045
X147.375Y-72.585
X147.375Y-75.125
X147.375Y-77.665
X147.375Y-80.205
X147.375Y-82.745
X147.375Y-85.285
X147.375Y-87.825
X147.375Y-90.365
X147.375Y-92.905
X147.375Y-95.445
X147.375Y-97.985
X147.375Y-100.525
X147.375Y-103.065
X147.375Y-105.605
X147.375Y-108.145
X147.375Y-110.685
X147.375Y-113.225
X147.375Y-115.765
X147.375Y-118.305
X153.67Y-77.7
X153.67Y-80.24
X153.67Y-82.78
X153.67Y-85.32
X153.67Y-87.86
X153.67Y-90.4
X153.67Y-92.94
X153.67Y-95.48
X153.67Y-98.02
X153.67Y-100.56
X153.67Y-103.1
X153.67Y-105.64
X153.67Y-115.8
X153.67Y-118.34
X160.02Y-70.0
X162.56Y-70.0
X162.56Y-82.78
X162.56Y-85.32
X162.56Y-87.86
X162.56Y-90.4
X162.56Y-92.94
X162.56Y-95.48
X162.56Y-98.02
X165.1Y-70.0
X171.45Y-70.12
X173.99Y-70.12
X182.863Y-70.11
X182.88Y-87.86
X182.88Y-90.4
X182.88Y-92.94
X182.88Y-95.48
X182.88Y-98.02
X182.88Y-100.56
X182.88Y-103.1
X185.403Y-70.11
X185.42Y-87.86
X185.42Y-90.4
X185.42Y-92.94
X185.42Y-95.48
X185.42Y-98.02
X185.42Y-100.56
X185.42Y-103.1
T6
X160.02Y-110.72
X160.02Y-113.26
X160.02Y-115.8
X160.02Y-118.34
M30
