%TF.GenerationSoftware,KiCad,Pcbnew,10.0.2*%
%TF.CreationDate,2026-05-24T20:16:12+02:00*%
%TF.ProjectId,BluePill-G431,426c7565-5069-46c6-9c2d-473433312e6b,rev?*%
%TF.SameCoordinates,Original*%
%TF.FileFunction,Soldermask,Top*%
%TF.FilePolarity,Negative*%
%FSLAX46Y46*%
G04 Gerber Fmt 4.6, Leading zero omitted, Abs format (unit mm)*
G04 Created by KiCad (PCBNEW 10.0.2) date 2026-05-24 20:16:12*
%MOMM*%
%LPD*%
G01*
G04 APERTURE LIST*
G04 Aperture macros list*
%AMRoundRect*
0 Rectangle with rounded corners*
0 $1 Rounding radius*
0 $2 $3 $4 $5 $6 $7 $8 $9 X,Y pos of 4 corners*
0 Add a 4 corners polygon primitive as box body*
4,1,4,$2,$3,$4,$5,$6,$7,$8,$9,$2,$3,0*
0 Add four circle primitives for the rounded corners*
1,1,$1+$1,$2,$3*
1,1,$1+$1,$4,$5*
1,1,$1+$1,$6,$7*
1,1,$1+$1,$8,$9*
0 Add four rect primitives between the rounded corners*
20,1,$1+$1,$2,$3,$4,$5,0*
20,1,$1+$1,$4,$5,$6,$7,0*
20,1,$1+$1,$6,$7,$8,$9,0*
20,1,$1+$1,$8,$9,$2,$3,0*%
G04 Aperture macros list end*
%ADD10RoundRect,0.250000X-0.845000X0.620000X-0.845000X-0.620000X0.845000X-0.620000X0.845000X0.620000X0*%
%ADD11O,2.190000X1.740000*%
%ADD12RoundRect,0.237500X0.237500X-0.250000X0.237500X0.250000X-0.237500X0.250000X-0.237500X-0.250000X0*%
%ADD13RoundRect,0.237500X-0.250000X-0.237500X0.250000X-0.237500X0.250000X0.237500X-0.250000X0.237500X0*%
%ADD14RoundRect,0.237500X0.250000X0.237500X-0.250000X0.237500X-0.250000X-0.237500X0.250000X-0.237500X0*%
%ADD15R,1.700000X1.700000*%
%ADD16C,1.700000*%
%ADD17RoundRect,0.250000X-0.600000X-0.600000X0.600000X-0.600000X0.600000X0.600000X-0.600000X0.600000X0*%
%ADD18RoundRect,0.237500X0.237500X-0.300000X0.237500X0.300000X-0.237500X0.300000X-0.237500X-0.300000X0*%
%ADD19RoundRect,0.237500X0.300000X0.237500X-0.300000X0.237500X-0.300000X-0.237500X0.300000X-0.237500X0*%
%ADD20RoundRect,0.237500X-0.287500X-0.237500X0.287500X-0.237500X0.287500X0.237500X-0.287500X0.237500X0*%
%ADD21RoundRect,0.237500X-0.300000X-0.237500X0.300000X-0.237500X0.300000X0.237500X-0.300000X0.237500X0*%
%ADD22R,0.500000X0.400000*%
%ADD23R,0.500000X0.300000*%
%ADD24RoundRect,0.087500X-0.537500X-0.087500X0.537500X-0.087500X0.537500X0.087500X-0.537500X0.087500X0*%
%ADD25RoundRect,0.100000X0.100000X-0.637500X0.100000X0.637500X-0.100000X0.637500X-0.100000X-0.637500X0*%
%ADD26RoundRect,0.162500X-0.617500X-0.162500X0.617500X-0.162500X0.617500X0.162500X-0.617500X0.162500X0*%
%ADD27RoundRect,0.150000X-0.512500X-0.150000X0.512500X-0.150000X0.512500X0.150000X-0.512500X0.150000X0*%
%ADD28RoundRect,0.237500X-0.237500X0.300000X-0.237500X-0.300000X0.237500X-0.300000X0.237500X0.300000X0*%
%ADD29R,1.200000X0.900000*%
G04 APERTURE END LIST*
D10*
%TO.C,J5*%
X160020000Y-110720000D03*
D11*
X160020000Y-113260000D03*
X160020000Y-115800000D03*
X160020000Y-118340000D03*
%TD*%
D12*
%TO.C,R5*%
X123528947Y-116151954D03*
X123528947Y-114326954D03*
%TD*%
D13*
%TO.C,R3*%
X161596700Y-103100000D03*
X163421700Y-103100000D03*
%TD*%
D14*
%TO.C,R4*%
X163421700Y-106148000D03*
X161596700Y-106148000D03*
%TD*%
D15*
%TO.C,J7*%
X162560000Y-82780000D03*
D16*
X162560000Y-85320000D03*
X162560000Y-87860000D03*
X162560000Y-90400000D03*
X162560000Y-92940000D03*
X162560000Y-95480000D03*
X162560000Y-98020000D03*
%TD*%
D15*
%TO.C,J2*%
X171450000Y-70120000D03*
D16*
X173990000Y-70120000D03*
%TD*%
D15*
%TO.C,J3*%
X160020000Y-70000000D03*
D16*
X162560000Y-70000000D03*
X165100000Y-70000000D03*
%TD*%
D17*
%TO.C,J1*%
X182880000Y-87860000D03*
D16*
X185420000Y-87860000D03*
X182880000Y-90400000D03*
X185420000Y-90400000D03*
X182880000Y-92940000D03*
X185420000Y-92940000D03*
X182880000Y-95480000D03*
X185420000Y-95480000D03*
X182880000Y-98020000D03*
X185420000Y-98020000D03*
X182880000Y-100560000D03*
X185420000Y-100560000D03*
X182880000Y-103100000D03*
X185420000Y-103100000D03*
%TD*%
D15*
%TO.C,J10*%
X153670000Y-77700000D03*
D16*
X153670000Y-80240000D03*
X153670000Y-82780000D03*
X153670000Y-85320000D03*
X153670000Y-87860000D03*
X153670000Y-90400000D03*
X153670000Y-92940000D03*
X153670000Y-95480000D03*
X153670000Y-98020000D03*
X153670000Y-100560000D03*
X153670000Y-103100000D03*
X153670000Y-105640000D03*
%TD*%
D15*
%TO.C,J8*%
X123190000Y-72620000D03*
D16*
X123190000Y-75160000D03*
X123190000Y-77700000D03*
X123190000Y-80240000D03*
X123190000Y-82780000D03*
X123190000Y-85320000D03*
X123190000Y-87860000D03*
%TD*%
D18*
%TO.C,C6*%
X183235600Y-81305700D03*
X183235600Y-79580700D03*
%TD*%
D19*
%TO.C,C4*%
X171196000Y-116816000D03*
X169471000Y-116816000D03*
%TD*%
D20*
%TO.C,F1*%
X169446000Y-107531000D03*
X171196000Y-107531000D03*
%TD*%
D21*
%TO.C,C7*%
X169444500Y-106021000D03*
X171169500Y-106021000D03*
%TD*%
D19*
%TO.C,C1*%
X177015000Y-109650000D03*
X175290000Y-109650000D03*
%TD*%
D21*
%TO.C,C3*%
X175290000Y-111200000D03*
X177015000Y-111200000D03*
%TD*%
D22*
%TO.C,RN2*%
X176538000Y-91428000D03*
D23*
X176538000Y-91928000D03*
X176538000Y-92428000D03*
D22*
X176538000Y-92928000D03*
X177538000Y-92928000D03*
D23*
X177538000Y-92428000D03*
X177538000Y-91928000D03*
D22*
X177538000Y-91428000D03*
%TD*%
D14*
%TO.C,R6*%
X154600494Y-74975000D03*
X152775494Y-74975000D03*
%TD*%
D15*
%TO.C,U1*%
X129595000Y-70045000D03*
D16*
X129595000Y-72585000D03*
X129595000Y-75125000D03*
X129595000Y-77665000D03*
X129595000Y-80205000D03*
X129595000Y-82745000D03*
X129595000Y-85285000D03*
X129595000Y-87825000D03*
X129595000Y-90365000D03*
X129595000Y-92905000D03*
X129595000Y-95445000D03*
X129595000Y-97985000D03*
X129595000Y-100525000D03*
X129595000Y-103065000D03*
X129595000Y-105605000D03*
X129595000Y-108145000D03*
X129595000Y-110685000D03*
X129595000Y-113225000D03*
X129595000Y-115765000D03*
X129595000Y-118305000D03*
X144835000Y-118305000D03*
X144835000Y-115765000D03*
X144835000Y-113225000D03*
X144835000Y-110685000D03*
X144835000Y-108145000D03*
X144835000Y-105605000D03*
X144835000Y-103065000D03*
X144835000Y-100525000D03*
X144835000Y-97985000D03*
X144835000Y-95445000D03*
X144835000Y-92905000D03*
X144835000Y-90365000D03*
X144835000Y-87825000D03*
X144835000Y-85285000D03*
X144835000Y-82745000D03*
X144835000Y-80205000D03*
X144835000Y-77665000D03*
X144835000Y-75125000D03*
X144835000Y-72585000D03*
X144835000Y-70045000D03*
D15*
X132135000Y-70045000D03*
D16*
X132135000Y-72585000D03*
X132135000Y-75125000D03*
X132135000Y-77665000D03*
X132135000Y-80205000D03*
X132135000Y-82745000D03*
X132135000Y-85285000D03*
X132135000Y-87825000D03*
X132135000Y-90365000D03*
X132135000Y-92905000D03*
X132135000Y-95445000D03*
X132135000Y-97985000D03*
X132135000Y-100525000D03*
X132135000Y-103065000D03*
X132135000Y-105605000D03*
X132135000Y-108145000D03*
X132135000Y-110685000D03*
X132135000Y-113225000D03*
X132135000Y-115765000D03*
X132135000Y-118305000D03*
X147375000Y-118305000D03*
X147375000Y-115765000D03*
X147375000Y-113225000D03*
X147375000Y-110685000D03*
X147375000Y-108145000D03*
X147375000Y-105605000D03*
X147375000Y-103065000D03*
X147375000Y-100525000D03*
X147375000Y-97985000D03*
X147375000Y-95445000D03*
X147375000Y-92905000D03*
X147375000Y-90365000D03*
X147375000Y-87825000D03*
X147375000Y-85285000D03*
X147375000Y-82745000D03*
X147375000Y-80205000D03*
X147375000Y-77665000D03*
X147375000Y-75125000D03*
X147375000Y-72585000D03*
X147375000Y-70045000D03*
%TD*%
D14*
%TO.C,R2*%
X171246800Y-115292000D03*
X169421800Y-115292000D03*
%TD*%
D15*
%TO.C,J4*%
X153670000Y-115800000D03*
D16*
X153670000Y-118340000D03*
%TD*%
D15*
%TO.C,J6*%
X185403186Y-70109505D03*
D16*
X182863186Y-70109505D03*
%TD*%
D18*
%TO.C,C8*%
X184759600Y-81305700D03*
X184759600Y-79580700D03*
%TD*%
D22*
%TO.C,RN3*%
X176530000Y-88380000D03*
D23*
X176530000Y-88880000D03*
X176530000Y-89380000D03*
D22*
X176530000Y-89880000D03*
X177530000Y-89880000D03*
D23*
X177530000Y-89380000D03*
X177530000Y-88880000D03*
D22*
X177530000Y-88380000D03*
%TD*%
D19*
%TO.C,C9*%
X168756500Y-97766000D03*
X167031500Y-97766000D03*
%TD*%
D24*
%TO.C,U3*%
X168526000Y-99302000D03*
X168526000Y-99802000D03*
X168526000Y-100302000D03*
X168526000Y-100802000D03*
X171326000Y-100802000D03*
X171326000Y-100302000D03*
X171326000Y-99802000D03*
X171326000Y-99302000D03*
%TD*%
D15*
%TO.C,J9*%
X123190000Y-92980000D03*
D16*
X123190000Y-95520000D03*
X123190000Y-98060000D03*
X123190000Y-100600000D03*
X123190000Y-103140000D03*
X123190000Y-105680000D03*
%TD*%
D21*
%TO.C,C2*%
X169471000Y-118340000D03*
X171196000Y-118340000D03*
%TD*%
D25*
%TO.C,U5*%
X168484000Y-94532500D03*
X169134000Y-94532500D03*
X169784000Y-94532500D03*
X170434000Y-94532500D03*
X171084000Y-94532500D03*
X171734000Y-94532500D03*
X172384000Y-94532500D03*
X172384000Y-88807500D03*
X171734000Y-88807500D03*
X171084000Y-88807500D03*
X170434000Y-88807500D03*
X169784000Y-88807500D03*
X169134000Y-88807500D03*
X168484000Y-88807500D03*
%TD*%
D13*
%TO.C,R1*%
X169440000Y-113768000D03*
X171265000Y-113768000D03*
%TD*%
D26*
%TO.C,U2*%
X169164000Y-109563000D03*
X169164000Y-110513000D03*
X169164000Y-111463000D03*
X171864000Y-111463000D03*
X171864000Y-109563000D03*
%TD*%
D27*
%TO.C,U6*%
X175265500Y-84370000D03*
X175265500Y-85320000D03*
X175265500Y-86270000D03*
X177540500Y-86270000D03*
X177540500Y-85320000D03*
X177540500Y-84370000D03*
%TD*%
D28*
%TO.C,C11*%
X166624000Y-78869500D03*
X166624000Y-80594500D03*
%TD*%
D19*
%TO.C,C5*%
X163371700Y-104624000D03*
X161646700Y-104624000D03*
%TD*%
D27*
%TO.C,U7*%
X175265500Y-104944000D03*
X175265500Y-105894000D03*
X175265500Y-106844000D03*
X177540500Y-106844000D03*
X177540500Y-105894000D03*
X177540500Y-104944000D03*
%TD*%
D22*
%TO.C,RN1*%
X162060000Y-77204000D03*
D23*
X162060000Y-77704000D03*
X162060000Y-78204000D03*
D22*
X162060000Y-78704000D03*
X163060000Y-78704000D03*
D23*
X163060000Y-78204000D03*
X163060000Y-77704000D03*
D22*
X163060000Y-77204000D03*
%TD*%
D25*
%TO.C,U4*%
X168484000Y-84880500D03*
X169134000Y-84880500D03*
X169784000Y-84880500D03*
X170434000Y-84880500D03*
X171084000Y-84880500D03*
X171734000Y-84880500D03*
X172384000Y-84880500D03*
X172384000Y-79155500D03*
X171734000Y-79155500D03*
X171084000Y-79155500D03*
X170434000Y-79155500D03*
X169784000Y-79155500D03*
X169134000Y-79155500D03*
X168484000Y-79155500D03*
%TD*%
D28*
%TO.C,C12*%
X166624000Y-88521500D03*
X166624000Y-90246500D03*
%TD*%
D29*
%TO.C,D1*%
X120540253Y-118973988D03*
X123340253Y-118973988D03*
X123340253Y-120423988D03*
X120540253Y-120423988D03*
%TD*%
D19*
%TO.C,C10*%
X172566500Y-97766000D03*
X170841500Y-97766000D03*
%TD*%
D22*
%TO.C,RN4*%
X176530000Y-100568000D03*
D23*
X176530000Y-101068000D03*
X176530000Y-101568000D03*
D22*
X176530000Y-102068000D03*
X177530000Y-102068000D03*
D23*
X177530000Y-101568000D03*
X177530000Y-101068000D03*
D22*
X177530000Y-100568000D03*
%TD*%
%TO.C,RN5*%
X176538000Y-97524000D03*
D23*
X176538000Y-98024000D03*
X176538000Y-98524000D03*
D22*
X176538000Y-99024000D03*
X177538000Y-99024000D03*
D23*
X177538000Y-98524000D03*
X177538000Y-98024000D03*
D22*
X177538000Y-97524000D03*
%TD*%
M02*
