%TF.GenerationSoftware,KiCad,Pcbnew,(6.0.9)*%
%TF.CreationDate,2022-12-08T07:35:05+01:00*%
%TF.ProjectId,BlackPill-BMP,426c6163-6b50-4696-9c6c-2d424d502e6b,rev?*%
%TF.SameCoordinates,Original*%
%TF.FileFunction,Drillmap*%
%TF.FilePolarity,Positive*%
%FSLAX45Y45*%
G04 Gerber Fmt 4.5, Leading zero omitted, Abs format (unit mm)*
G04 Created by KiCad (PCBNEW (6.0.9)) date 2022-12-08 07:35:05*
%MOMM*%
%LPD*%
G01*
G04 APERTURE LIST*
%ADD10C,0.050000*%
%ADD11C,0.200000*%
%ADD12C,0.020000*%
%ADD13C,0.030000*%
%ADD14C,0.040000*%
%ADD15C,0.090000*%
%ADD16C,0.100000*%
%ADD17C,0.119000*%
G04 APERTURE END LIST*
D10*
X11684000Y-12469000D02*
X11684000Y-6500000D01*
X18934000Y-6500000D02*
X18934000Y-12469000D01*
X18934000Y-12469000D02*
X11684000Y-12469000D01*
X11684000Y-6500000D02*
X18934000Y-6500000D01*
D11*
D12*
X15039500Y-9919000D02*
X15059500Y-9939000D01*
X15059500Y-9919000D02*
X15039500Y-9939000D01*
X16068200Y-7683800D02*
X16088200Y-7703800D01*
X16088200Y-7683800D02*
X16068200Y-7703800D01*
X16068200Y-7836200D02*
X16088200Y-7856200D01*
X16088200Y-7836200D02*
X16068200Y-7856200D01*
X16119000Y-7734600D02*
X16139000Y-7754600D01*
X16139000Y-7734600D02*
X16119000Y-7754600D01*
X16119000Y-7887000D02*
X16139000Y-7907000D01*
X16139000Y-7887000D02*
X16119000Y-7907000D01*
X16398400Y-8674400D02*
X16418400Y-8694400D01*
X16418400Y-8674400D02*
X16398400Y-8694400D01*
X16853610Y-9278501D02*
X16873610Y-9298501D01*
X16873610Y-9278501D02*
X16853610Y-9298501D01*
X16906400Y-7760000D02*
X16926400Y-7780000D01*
X16926400Y-7760000D02*
X16906400Y-7780000D01*
X16957200Y-8331500D02*
X16977200Y-8351500D01*
X16977200Y-8331500D02*
X16957200Y-8351500D01*
X16969900Y-8166400D02*
X16989900Y-8186400D01*
X16989900Y-8166400D02*
X16969900Y-8186400D01*
X17033400Y-9309400D02*
X17053400Y-9329400D01*
X17053400Y-9309400D02*
X17033400Y-9329400D01*
X17160400Y-9144300D02*
X17180400Y-9164300D01*
X17180400Y-9144300D02*
X17160400Y-9164300D01*
X17338200Y-8941100D02*
X17358200Y-8961100D01*
X17358200Y-8941100D02*
X17338200Y-8961100D01*
X17439800Y-9969800D02*
X17459800Y-9989800D01*
X17459800Y-9969800D02*
X17439800Y-9989800D01*
X17503300Y-8928400D02*
X17523300Y-8948400D01*
X17523300Y-8928400D02*
X17503300Y-8948400D01*
X17503300Y-9842800D02*
X17523300Y-9862800D01*
X17523300Y-9842800D02*
X17503300Y-9862800D01*
X17503300Y-10147600D02*
X17523300Y-10167600D01*
X17523300Y-10147600D02*
X17503300Y-10167600D01*
X17503300Y-10376200D02*
X17523300Y-10396200D01*
X17523300Y-10376200D02*
X17503300Y-10396200D01*
X17516000Y-8344200D02*
X17536000Y-8364200D01*
X17536000Y-8344200D02*
X17516000Y-8364200D01*
X17566800Y-8877600D02*
X17586800Y-8897600D01*
X17586800Y-8877600D02*
X17566800Y-8897600D01*
X17566800Y-9715800D02*
X17586800Y-9735800D01*
X17586800Y-9715800D02*
X17566800Y-9735800D01*
X17566800Y-9792000D02*
X17586800Y-9812000D01*
X17586800Y-9792000D02*
X17566800Y-9812000D01*
X17566800Y-10096800D02*
X17586800Y-10116800D01*
X17586800Y-10096800D02*
X17566800Y-10116800D01*
X17617600Y-10681000D02*
X17637600Y-10701000D01*
X17637600Y-10681000D02*
X17617600Y-10701000D01*
X17643000Y-8750600D02*
X17663000Y-8770600D01*
X17663000Y-8750600D02*
X17643000Y-8770600D01*
X17643000Y-9969800D02*
X17663000Y-9989800D01*
X17663000Y-9969800D02*
X17643000Y-9989800D01*
X17820800Y-10096800D02*
X17840800Y-10116800D01*
X17840800Y-10096800D02*
X17820800Y-10116800D01*
X17846200Y-10668300D02*
X17866200Y-10688300D01*
X17866200Y-10668300D02*
X17846200Y-10688300D01*
D13*
X12003800Y-7630300D02*
G75*
G03*
X12003800Y-7630300I-15000J0D01*
G01*
X12648960Y-7053720D02*
G75*
G03*
X12648960Y-7053720I-15000J0D01*
G01*
X12648960Y-7528700D02*
G75*
G03*
X12648960Y-7528700I-15000J0D01*
G01*
X15039100Y-8100200D02*
G75*
G03*
X15039100Y-8100200I-15000J0D01*
G01*
X15039100Y-9167000D02*
G75*
G03*
X15039100Y-9167000I-15000J0D01*
G01*
X15864600Y-9675000D02*
G75*
G03*
X15864600Y-9675000I-15000J0D01*
G01*
X16474200Y-9471800D02*
G75*
G03*
X16474200Y-9471800I-15000J0D01*
G01*
X16728200Y-9903600D02*
G75*
G03*
X16728200Y-9903600I-15000J0D01*
G01*
X16855200Y-8074800D02*
G75*
G03*
X16855200Y-8074800I-15000J0D01*
G01*
X16855200Y-9040000D02*
G75*
G03*
X16855200Y-9040000I-15000J0D01*
G01*
X16982200Y-9014600D02*
G75*
G03*
X16982200Y-9014600I-15000J0D01*
G01*
X17083800Y-9878200D02*
G75*
G03*
X17083800Y-9878200I-15000J0D01*
G01*
X17236200Y-10297300D02*
G75*
G03*
X17236200Y-10297300I-15000J0D01*
G01*
X17337800Y-9878200D02*
G75*
G03*
X17337800Y-9878200I-15000J0D01*
G01*
X17528300Y-9243200D02*
G75*
G03*
X17528300Y-9243200I-15000J0D01*
G01*
X17591800Y-9192400D02*
G75*
G03*
X17591800Y-9192400I-15000J0D01*
G01*
X17668000Y-9344800D02*
G75*
G03*
X17668000Y-9344800I-15000J0D01*
G01*
X17883900Y-10589400D02*
G75*
G03*
X17883900Y-10589400I-15000J0D01*
G01*
X17896600Y-8532000D02*
G75*
G03*
X17896600Y-8532000I-15000J0D01*
G01*
D14*
X12588240Y-8659320D02*
X12588240Y-8699320D01*
X12568240Y-8679320D02*
X12608240Y-8679320D01*
X13830300Y-8143700D02*
X13830300Y-8183700D01*
X13810300Y-8163700D02*
X13850300Y-8163700D01*
X13843000Y-7711900D02*
X13843000Y-7751900D01*
X13823000Y-7731900D02*
X13863000Y-7731900D01*
X16510000Y-8905700D02*
X16510000Y-8945700D01*
X16490000Y-8925700D02*
X16530000Y-8925700D01*
X16637000Y-9566100D02*
X16637000Y-9606100D01*
X16617000Y-9586100D02*
X16657000Y-9586100D01*
X16662400Y-7673800D02*
X16662400Y-7713800D01*
X16642400Y-7693800D02*
X16682400Y-7693800D01*
X16687800Y-8461200D02*
X16687800Y-8501200D01*
X16667800Y-8481200D02*
X16707800Y-8481200D01*
X16764000Y-11356800D02*
X16764000Y-11396800D01*
X16744000Y-11376800D02*
X16784000Y-11376800D01*
X16979900Y-9985200D02*
X16979900Y-10025200D01*
X16959900Y-10005200D02*
X16999900Y-10005200D01*
X17272000Y-10580700D02*
X17272000Y-10620700D01*
X17252000Y-10600700D02*
X17292000Y-10600700D01*
X17284700Y-8626300D02*
X17284700Y-8666300D01*
X17264700Y-8646300D02*
X17304700Y-8646300D01*
X17678400Y-9553400D02*
X17678400Y-9593400D01*
X17658400Y-9573400D02*
X17698400Y-9573400D01*
X17754600Y-9375600D02*
X17754600Y-9415600D01*
X17734600Y-9395600D02*
X17774600Y-9395600D01*
X17881600Y-10239200D02*
X17881600Y-10279200D01*
X17861600Y-10259200D02*
X17901600Y-10259200D01*
X17983200Y-9223200D02*
X17983200Y-9263200D01*
X17963200Y-9243200D02*
X18003200Y-9243200D01*
X18186400Y-7953200D02*
X18186400Y-7993200D01*
X18166400Y-7973200D02*
X18206400Y-7973200D01*
D10*
X12298578Y-12092978D02*
X12298578Y-12057622D01*
X12263222Y-12057622D01*
X12263222Y-12092978D01*
X12298578Y-12092978D01*
X12717678Y-9184678D02*
X12717678Y-9149322D01*
X12682322Y-9149322D01*
X12682322Y-9184678D01*
X12717678Y-9184678D01*
X12717678Y-9438678D02*
X12717678Y-9403322D01*
X12682322Y-9403322D01*
X12682322Y-9438678D01*
X12717678Y-9438678D01*
X13632078Y-7025678D02*
X13632078Y-6990322D01*
X13596722Y-6990322D01*
X13596722Y-7025678D01*
X13632078Y-7025678D01*
X13746378Y-10619778D02*
X13746378Y-10584422D01*
X13711022Y-10584422D01*
X13711022Y-10619778D01*
X13746378Y-10619778D01*
X13860678Y-9184678D02*
X13860678Y-9149322D01*
X13825322Y-9149322D01*
X13825322Y-9184678D01*
X13860678Y-9184678D01*
X13860678Y-9946678D02*
X13860678Y-9911322D01*
X13825322Y-9911322D01*
X13825322Y-9946678D01*
X13860678Y-9946678D01*
X13860678Y-11389398D02*
X13860678Y-11354042D01*
X13825322Y-11354042D01*
X13825322Y-11389398D01*
X13860678Y-11389398D01*
X15106678Y-10587678D02*
X15106678Y-10552322D01*
X15071322Y-10552322D01*
X15071322Y-10587678D01*
X15106678Y-10587678D01*
X15714878Y-9946678D02*
X15714878Y-9911322D01*
X15679522Y-9911322D01*
X15679522Y-9946678D01*
X15714878Y-9946678D01*
X15829178Y-9184678D02*
X15829178Y-9149322D01*
X15793822Y-9149322D01*
X15793822Y-9184678D01*
X15829178Y-9184678D01*
X16360038Y-11181118D02*
X16360038Y-11145762D01*
X16324682Y-11145762D01*
X16324682Y-11181118D01*
X16360038Y-11181118D01*
X16371678Y-11912678D02*
X16371678Y-11877322D01*
X16336322Y-11877322D01*
X16336322Y-11912678D01*
X16371678Y-11912678D01*
X16646918Y-12242838D02*
X16646918Y-12207482D01*
X16611562Y-12207482D01*
X16611562Y-12242838D01*
X16646918Y-12242838D01*
X16789678Y-11068978D02*
X16789678Y-11033622D01*
X16754322Y-11033622D01*
X16754322Y-11068978D01*
X16789678Y-11068978D01*
X16807078Y-11897398D02*
X16807078Y-11862042D01*
X16771722Y-11862042D01*
X16771722Y-11897398D01*
X16807078Y-11897398D01*
X16959478Y-10480078D02*
X16959478Y-10444722D01*
X16924122Y-10444722D01*
X16924122Y-10480078D01*
X16959478Y-10480078D01*
X17365878Y-10187978D02*
X17365878Y-10152622D01*
X17330522Y-10152622D01*
X17330522Y-10187978D01*
X17365878Y-10187978D01*
X17929758Y-11102378D02*
X17929758Y-11067022D01*
X17894402Y-11067022D01*
X17894402Y-11102378D01*
X17929758Y-11102378D01*
X18442838Y-8321078D02*
X18442838Y-8285722D01*
X18407482Y-8285722D01*
X18407482Y-8321078D01*
X18442838Y-8321078D01*
D15*
X12065000Y-11117000D02*
X12110000Y-11072000D01*
X12065000Y-11027000D01*
X12020000Y-11072000D01*
X12065000Y-11117000D01*
X12319000Y-11117000D02*
X12364000Y-11072000D01*
X12319000Y-11027000D01*
X12274000Y-11072000D01*
X12319000Y-11117000D01*
D16*
X12269000Y-7212000D02*
X12369000Y-7312000D01*
X12369000Y-7212000D02*
X12269000Y-7312000D01*
X12369000Y-7262000D02*
G75*
G03*
X12369000Y-7262000I-50000J0D01*
G01*
X12269000Y-7466000D02*
X12369000Y-7566000D01*
X12369000Y-7466000D02*
X12269000Y-7566000D01*
X12369000Y-7516000D02*
G75*
G03*
X12369000Y-7516000I-50000J0D01*
G01*
X12269000Y-7720000D02*
X12369000Y-7820000D01*
X12369000Y-7720000D02*
X12269000Y-7820000D01*
X12369000Y-7770000D02*
G75*
G03*
X12369000Y-7770000I-50000J0D01*
G01*
X12269000Y-7974000D02*
X12369000Y-8074000D01*
X12369000Y-7974000D02*
X12269000Y-8074000D01*
X12369000Y-8024000D02*
G75*
G03*
X12369000Y-8024000I-50000J0D01*
G01*
X12269000Y-8228000D02*
X12369000Y-8328000D01*
X12369000Y-8228000D02*
X12269000Y-8328000D01*
X12369000Y-8278000D02*
G75*
G03*
X12369000Y-8278000I-50000J0D01*
G01*
X12269000Y-8482000D02*
X12369000Y-8582000D01*
X12369000Y-8482000D02*
X12269000Y-8582000D01*
X12369000Y-8532000D02*
G75*
G03*
X12369000Y-8532000I-50000J0D01*
G01*
X12269000Y-9498000D02*
X12369000Y-9598000D01*
X12369000Y-9498000D02*
X12269000Y-9598000D01*
X12369000Y-9548000D02*
G75*
G03*
X12369000Y-9548000I-50000J0D01*
G01*
X12269000Y-9752000D02*
X12369000Y-9852000D01*
X12369000Y-9752000D02*
X12269000Y-9852000D01*
X12369000Y-9802000D02*
G75*
G03*
X12369000Y-9802000I-50000J0D01*
G01*
X12269000Y-10006000D02*
X12369000Y-10106000D01*
X12369000Y-10006000D02*
X12269000Y-10106000D01*
X12369000Y-10056000D02*
G75*
G03*
X12369000Y-10056000I-50000J0D01*
G01*
X12269000Y-10260000D02*
X12369000Y-10360000D01*
X12369000Y-10260000D02*
X12269000Y-10360000D01*
X12369000Y-10310000D02*
G75*
G03*
X12369000Y-10310000I-50000J0D01*
G01*
X12269000Y-10514000D02*
X12369000Y-10614000D01*
X12369000Y-10514000D02*
X12269000Y-10614000D01*
X12369000Y-10564000D02*
G75*
G03*
X12369000Y-10564000I-50000J0D01*
G01*
X12904000Y-6958000D02*
X13004000Y-7058000D01*
X13004000Y-6958000D02*
X12904000Y-7058000D01*
X13004000Y-7008000D02*
G75*
G03*
X13004000Y-7008000I-50000J0D01*
G01*
X12904000Y-7212000D02*
X13004000Y-7312000D01*
X13004000Y-7212000D02*
X12904000Y-7312000D01*
X13004000Y-7262000D02*
G75*
G03*
X13004000Y-7262000I-50000J0D01*
G01*
X12904000Y-7466000D02*
X13004000Y-7566000D01*
X13004000Y-7466000D02*
X12904000Y-7566000D01*
X13004000Y-7516000D02*
G75*
G03*
X13004000Y-7516000I-50000J0D01*
G01*
X12904000Y-7720000D02*
X13004000Y-7820000D01*
X13004000Y-7720000D02*
X12904000Y-7820000D01*
X13004000Y-7770000D02*
G75*
G03*
X13004000Y-7770000I-50000J0D01*
G01*
X12904000Y-7974000D02*
X13004000Y-8074000D01*
X13004000Y-7974000D02*
X12904000Y-8074000D01*
X13004000Y-8024000D02*
G75*
G03*
X13004000Y-8024000I-50000J0D01*
G01*
X12904000Y-8228000D02*
X13004000Y-8328000D01*
X13004000Y-8228000D02*
X12904000Y-8328000D01*
X13004000Y-8278000D02*
G75*
G03*
X13004000Y-8278000I-50000J0D01*
G01*
X12904000Y-8482000D02*
X13004000Y-8582000D01*
X13004000Y-8482000D02*
X12904000Y-8582000D01*
X13004000Y-8532000D02*
G75*
G03*
X13004000Y-8532000I-50000J0D01*
G01*
X12904000Y-8736000D02*
X13004000Y-8836000D01*
X13004000Y-8736000D02*
X12904000Y-8836000D01*
X13004000Y-8786000D02*
G75*
G03*
X13004000Y-8786000I-50000J0D01*
G01*
X12904000Y-8990000D02*
X13004000Y-9090000D01*
X13004000Y-8990000D02*
X12904000Y-9090000D01*
X13004000Y-9040000D02*
G75*
G03*
X13004000Y-9040000I-50000J0D01*
G01*
X12904000Y-9244000D02*
X13004000Y-9344000D01*
X13004000Y-9244000D02*
X12904000Y-9344000D01*
X13004000Y-9294000D02*
G75*
G03*
X13004000Y-9294000I-50000J0D01*
G01*
X12904000Y-9498000D02*
X13004000Y-9598000D01*
X13004000Y-9498000D02*
X12904000Y-9598000D01*
X13004000Y-9548000D02*
G75*
G03*
X13004000Y-9548000I-50000J0D01*
G01*
X12904000Y-9752000D02*
X13004000Y-9852000D01*
X13004000Y-9752000D02*
X12904000Y-9852000D01*
X13004000Y-9802000D02*
G75*
G03*
X13004000Y-9802000I-50000J0D01*
G01*
X12904000Y-10006000D02*
X13004000Y-10106000D01*
X13004000Y-10006000D02*
X12904000Y-10106000D01*
X13004000Y-10056000D02*
G75*
G03*
X13004000Y-10056000I-50000J0D01*
G01*
X12904000Y-10260000D02*
X13004000Y-10360000D01*
X13004000Y-10260000D02*
X12904000Y-10360000D01*
X13004000Y-10310000D02*
G75*
G03*
X13004000Y-10310000I-50000J0D01*
G01*
X12904000Y-10514000D02*
X13004000Y-10614000D01*
X13004000Y-10514000D02*
X12904000Y-10614000D01*
X13004000Y-10564000D02*
G75*
G03*
X13004000Y-10564000I-50000J0D01*
G01*
X12904000Y-10768000D02*
X13004000Y-10868000D01*
X13004000Y-10768000D02*
X12904000Y-10868000D01*
X13004000Y-10818000D02*
G75*
G03*
X13004000Y-10818000I-50000J0D01*
G01*
X12904000Y-11022000D02*
X13004000Y-11122000D01*
X13004000Y-11022000D02*
X12904000Y-11122000D01*
X13004000Y-11072000D02*
G75*
G03*
X13004000Y-11072000I-50000J0D01*
G01*
X12904000Y-11276000D02*
X13004000Y-11376000D01*
X13004000Y-11276000D02*
X12904000Y-11376000D01*
X13004000Y-11326000D02*
G75*
G03*
X13004000Y-11326000I-50000J0D01*
G01*
X12904000Y-11530000D02*
X13004000Y-11630000D01*
X13004000Y-11530000D02*
X12904000Y-11630000D01*
X13004000Y-11580000D02*
G75*
G03*
X13004000Y-11580000I-50000J0D01*
G01*
X12904000Y-11784000D02*
X13004000Y-11884000D01*
X13004000Y-11784000D02*
X12904000Y-11884000D01*
X13004000Y-11834000D02*
G75*
G03*
X13004000Y-11834000I-50000J0D01*
G01*
X13158000Y-6958000D02*
X13258000Y-7058000D01*
X13258000Y-6958000D02*
X13158000Y-7058000D01*
X13258000Y-7008000D02*
G75*
G03*
X13258000Y-7008000I-50000J0D01*
G01*
X13158000Y-7212000D02*
X13258000Y-7312000D01*
X13258000Y-7212000D02*
X13158000Y-7312000D01*
X13258000Y-7262000D02*
G75*
G03*
X13258000Y-7262000I-50000J0D01*
G01*
X13158000Y-7466000D02*
X13258000Y-7566000D01*
X13258000Y-7466000D02*
X13158000Y-7566000D01*
X13258000Y-7516000D02*
G75*
G03*
X13258000Y-7516000I-50000J0D01*
G01*
X13158000Y-7720000D02*
X13258000Y-7820000D01*
X13258000Y-7720000D02*
X13158000Y-7820000D01*
X13258000Y-7770000D02*
G75*
G03*
X13258000Y-7770000I-50000J0D01*
G01*
X13158000Y-7974000D02*
X13258000Y-8074000D01*
X13258000Y-7974000D02*
X13158000Y-8074000D01*
X13258000Y-8024000D02*
G75*
G03*
X13258000Y-8024000I-50000J0D01*
G01*
X13158000Y-8228000D02*
X13258000Y-8328000D01*
X13258000Y-8228000D02*
X13158000Y-8328000D01*
X13258000Y-8278000D02*
G75*
G03*
X13258000Y-8278000I-50000J0D01*
G01*
X13158000Y-8482000D02*
X13258000Y-8582000D01*
X13258000Y-8482000D02*
X13158000Y-8582000D01*
X13258000Y-8532000D02*
G75*
G03*
X13258000Y-8532000I-50000J0D01*
G01*
X13158000Y-8736000D02*
X13258000Y-8836000D01*
X13258000Y-8736000D02*
X13158000Y-8836000D01*
X13258000Y-8786000D02*
G75*
G03*
X13258000Y-8786000I-50000J0D01*
G01*
X13158000Y-8990000D02*
X13258000Y-9090000D01*
X13258000Y-8990000D02*
X13158000Y-9090000D01*
X13258000Y-9040000D02*
G75*
G03*
X13258000Y-9040000I-50000J0D01*
G01*
X13158000Y-9244000D02*
X13258000Y-9344000D01*
X13258000Y-9244000D02*
X13158000Y-9344000D01*
X13258000Y-9294000D02*
G75*
G03*
X13258000Y-9294000I-50000J0D01*
G01*
X13158000Y-9498000D02*
X13258000Y-9598000D01*
X13258000Y-9498000D02*
X13158000Y-9598000D01*
X13258000Y-9548000D02*
G75*
G03*
X13258000Y-9548000I-50000J0D01*
G01*
X13158000Y-9752000D02*
X13258000Y-9852000D01*
X13258000Y-9752000D02*
X13158000Y-9852000D01*
X13258000Y-9802000D02*
G75*
G03*
X13258000Y-9802000I-50000J0D01*
G01*
X13158000Y-10006000D02*
X13258000Y-10106000D01*
X13258000Y-10006000D02*
X13158000Y-10106000D01*
X13258000Y-10056000D02*
G75*
G03*
X13258000Y-10056000I-50000J0D01*
G01*
X13158000Y-10260000D02*
X13258000Y-10360000D01*
X13258000Y-10260000D02*
X13158000Y-10360000D01*
X13258000Y-10310000D02*
G75*
G03*
X13258000Y-10310000I-50000J0D01*
G01*
X13158000Y-10514000D02*
X13258000Y-10614000D01*
X13258000Y-10514000D02*
X13158000Y-10614000D01*
X13258000Y-10564000D02*
G75*
G03*
X13258000Y-10564000I-50000J0D01*
G01*
X13158000Y-10768000D02*
X13258000Y-10868000D01*
X13258000Y-10768000D02*
X13158000Y-10868000D01*
X13258000Y-10818000D02*
G75*
G03*
X13258000Y-10818000I-50000J0D01*
G01*
X13158000Y-11022000D02*
X13258000Y-11122000D01*
X13258000Y-11022000D02*
X13158000Y-11122000D01*
X13258000Y-11072000D02*
G75*
G03*
X13258000Y-11072000I-50000J0D01*
G01*
X13158000Y-11276000D02*
X13258000Y-11376000D01*
X13258000Y-11276000D02*
X13158000Y-11376000D01*
X13258000Y-11326000D02*
G75*
G03*
X13258000Y-11326000I-50000J0D01*
G01*
X13158000Y-11530000D02*
X13258000Y-11630000D01*
X13258000Y-11530000D02*
X13158000Y-11630000D01*
X13258000Y-11580000D02*
G75*
G03*
X13258000Y-11580000I-50000J0D01*
G01*
X13158000Y-11784000D02*
X13258000Y-11884000D01*
X13258000Y-11784000D02*
X13158000Y-11884000D01*
X13258000Y-11834000D02*
G75*
G03*
X13258000Y-11834000I-50000J0D01*
G01*
X14428000Y-6958000D02*
X14528000Y-7058000D01*
X14528000Y-6958000D02*
X14428000Y-7058000D01*
X14528000Y-7008000D02*
G75*
G03*
X14528000Y-7008000I-50000J0D01*
G01*
X14428000Y-7212000D02*
X14528000Y-7312000D01*
X14528000Y-7212000D02*
X14428000Y-7312000D01*
X14528000Y-7262000D02*
G75*
G03*
X14528000Y-7262000I-50000J0D01*
G01*
X14428000Y-7466000D02*
X14528000Y-7566000D01*
X14528000Y-7466000D02*
X14428000Y-7566000D01*
X14528000Y-7516000D02*
G75*
G03*
X14528000Y-7516000I-50000J0D01*
G01*
X14428000Y-7720000D02*
X14528000Y-7820000D01*
X14528000Y-7720000D02*
X14428000Y-7820000D01*
X14528000Y-7770000D02*
G75*
G03*
X14528000Y-7770000I-50000J0D01*
G01*
X14428000Y-7974000D02*
X14528000Y-8074000D01*
X14528000Y-7974000D02*
X14428000Y-8074000D01*
X14528000Y-8024000D02*
G75*
G03*
X14528000Y-8024000I-50000J0D01*
G01*
X14428000Y-8228000D02*
X14528000Y-8328000D01*
X14528000Y-8228000D02*
X14428000Y-8328000D01*
X14528000Y-8278000D02*
G75*
G03*
X14528000Y-8278000I-50000J0D01*
G01*
X14428000Y-8482000D02*
X14528000Y-8582000D01*
X14528000Y-8482000D02*
X14428000Y-8582000D01*
X14528000Y-8532000D02*
G75*
G03*
X14528000Y-8532000I-50000J0D01*
G01*
X14428000Y-8736000D02*
X14528000Y-8836000D01*
X14528000Y-8736000D02*
X14428000Y-8836000D01*
X14528000Y-8786000D02*
G75*
G03*
X14528000Y-8786000I-50000J0D01*
G01*
X14428000Y-8990000D02*
X14528000Y-9090000D01*
X14528000Y-8990000D02*
X14428000Y-9090000D01*
X14528000Y-9040000D02*
G75*
G03*
X14528000Y-9040000I-50000J0D01*
G01*
X14428000Y-9244000D02*
X14528000Y-9344000D01*
X14528000Y-9244000D02*
X14428000Y-9344000D01*
X14528000Y-9294000D02*
G75*
G03*
X14528000Y-9294000I-50000J0D01*
G01*
X14428000Y-9498000D02*
X14528000Y-9598000D01*
X14528000Y-9498000D02*
X14428000Y-9598000D01*
X14528000Y-9548000D02*
G75*
G03*
X14528000Y-9548000I-50000J0D01*
G01*
X14428000Y-9752000D02*
X14528000Y-9852000D01*
X14528000Y-9752000D02*
X14428000Y-9852000D01*
X14528000Y-9802000D02*
G75*
G03*
X14528000Y-9802000I-50000J0D01*
G01*
X14428000Y-10006000D02*
X14528000Y-10106000D01*
X14528000Y-10006000D02*
X14428000Y-10106000D01*
X14528000Y-10056000D02*
G75*
G03*
X14528000Y-10056000I-50000J0D01*
G01*
X14428000Y-10260000D02*
X14528000Y-10360000D01*
X14528000Y-10260000D02*
X14428000Y-10360000D01*
X14528000Y-10310000D02*
G75*
G03*
X14528000Y-10310000I-50000J0D01*
G01*
X14428000Y-10514000D02*
X14528000Y-10614000D01*
X14528000Y-10514000D02*
X14428000Y-10614000D01*
X14528000Y-10564000D02*
G75*
G03*
X14528000Y-10564000I-50000J0D01*
G01*
X14428000Y-10768000D02*
X14528000Y-10868000D01*
X14528000Y-10768000D02*
X14428000Y-10868000D01*
X14528000Y-10818000D02*
G75*
G03*
X14528000Y-10818000I-50000J0D01*
G01*
X14428000Y-11022000D02*
X14528000Y-11122000D01*
X14528000Y-11022000D02*
X14428000Y-11122000D01*
X14528000Y-11072000D02*
G75*
G03*
X14528000Y-11072000I-50000J0D01*
G01*
X14428000Y-11276000D02*
X14528000Y-11376000D01*
X14528000Y-11276000D02*
X14428000Y-11376000D01*
X14528000Y-11326000D02*
G75*
G03*
X14528000Y-11326000I-50000J0D01*
G01*
X14428000Y-11530000D02*
X14528000Y-11630000D01*
X14528000Y-11530000D02*
X14428000Y-11630000D01*
X14528000Y-11580000D02*
G75*
G03*
X14528000Y-11580000I-50000J0D01*
G01*
X14428000Y-11784000D02*
X14528000Y-11884000D01*
X14528000Y-11784000D02*
X14428000Y-11884000D01*
X14528000Y-11834000D02*
G75*
G03*
X14528000Y-11834000I-50000J0D01*
G01*
X14682000Y-6958000D02*
X14782000Y-7058000D01*
X14782000Y-6958000D02*
X14682000Y-7058000D01*
X14782000Y-7008000D02*
G75*
G03*
X14782000Y-7008000I-50000J0D01*
G01*
X14682000Y-7212000D02*
X14782000Y-7312000D01*
X14782000Y-7212000D02*
X14682000Y-7312000D01*
X14782000Y-7262000D02*
G75*
G03*
X14782000Y-7262000I-50000J0D01*
G01*
X14682000Y-7466000D02*
X14782000Y-7566000D01*
X14782000Y-7466000D02*
X14682000Y-7566000D01*
X14782000Y-7516000D02*
G75*
G03*
X14782000Y-7516000I-50000J0D01*
G01*
X14682000Y-7720000D02*
X14782000Y-7820000D01*
X14782000Y-7720000D02*
X14682000Y-7820000D01*
X14782000Y-7770000D02*
G75*
G03*
X14782000Y-7770000I-50000J0D01*
G01*
X14682000Y-7974000D02*
X14782000Y-8074000D01*
X14782000Y-7974000D02*
X14682000Y-8074000D01*
X14782000Y-8024000D02*
G75*
G03*
X14782000Y-8024000I-50000J0D01*
G01*
X14682000Y-8228000D02*
X14782000Y-8328000D01*
X14782000Y-8228000D02*
X14682000Y-8328000D01*
X14782000Y-8278000D02*
G75*
G03*
X14782000Y-8278000I-50000J0D01*
G01*
X14682000Y-8482000D02*
X14782000Y-8582000D01*
X14782000Y-8482000D02*
X14682000Y-8582000D01*
X14782000Y-8532000D02*
G75*
G03*
X14782000Y-8532000I-50000J0D01*
G01*
X14682000Y-8736000D02*
X14782000Y-8836000D01*
X14782000Y-8736000D02*
X14682000Y-8836000D01*
X14782000Y-8786000D02*
G75*
G03*
X14782000Y-8786000I-50000J0D01*
G01*
X14682000Y-8990000D02*
X14782000Y-9090000D01*
X14782000Y-8990000D02*
X14682000Y-9090000D01*
X14782000Y-9040000D02*
G75*
G03*
X14782000Y-9040000I-50000J0D01*
G01*
X14682000Y-9244000D02*
X14782000Y-9344000D01*
X14782000Y-9244000D02*
X14682000Y-9344000D01*
X14782000Y-9294000D02*
G75*
G03*
X14782000Y-9294000I-50000J0D01*
G01*
X14682000Y-9498000D02*
X14782000Y-9598000D01*
X14782000Y-9498000D02*
X14682000Y-9598000D01*
X14782000Y-9548000D02*
G75*
G03*
X14782000Y-9548000I-50000J0D01*
G01*
X14682000Y-9752000D02*
X14782000Y-9852000D01*
X14782000Y-9752000D02*
X14682000Y-9852000D01*
X14782000Y-9802000D02*
G75*
G03*
X14782000Y-9802000I-50000J0D01*
G01*
X14682000Y-10006000D02*
X14782000Y-10106000D01*
X14782000Y-10006000D02*
X14682000Y-10106000D01*
X14782000Y-10056000D02*
G75*
G03*
X14782000Y-10056000I-50000J0D01*
G01*
X14682000Y-10260000D02*
X14782000Y-10360000D01*
X14782000Y-10260000D02*
X14682000Y-10360000D01*
X14782000Y-10310000D02*
G75*
G03*
X14782000Y-10310000I-50000J0D01*
G01*
X14682000Y-10514000D02*
X14782000Y-10614000D01*
X14782000Y-10514000D02*
X14682000Y-10614000D01*
X14782000Y-10564000D02*
G75*
G03*
X14782000Y-10564000I-50000J0D01*
G01*
X14682000Y-10768000D02*
X14782000Y-10868000D01*
X14782000Y-10768000D02*
X14682000Y-10868000D01*
X14782000Y-10818000D02*
G75*
G03*
X14782000Y-10818000I-50000J0D01*
G01*
X14682000Y-11022000D02*
X14782000Y-11122000D01*
X14782000Y-11022000D02*
X14682000Y-11122000D01*
X14782000Y-11072000D02*
G75*
G03*
X14782000Y-11072000I-50000J0D01*
G01*
X14682000Y-11276000D02*
X14782000Y-11376000D01*
X14782000Y-11276000D02*
X14682000Y-11376000D01*
X14782000Y-11326000D02*
G75*
G03*
X14782000Y-11326000I-50000J0D01*
G01*
X14682000Y-11530000D02*
X14782000Y-11630000D01*
X14782000Y-11530000D02*
X14682000Y-11630000D01*
X14782000Y-11580000D02*
G75*
G03*
X14782000Y-11580000I-50000J0D01*
G01*
X14682000Y-11784000D02*
X14782000Y-11884000D01*
X14782000Y-11784000D02*
X14682000Y-11884000D01*
X14782000Y-11834000D02*
G75*
G03*
X14782000Y-11834000I-50000J0D01*
G01*
X15317000Y-7720000D02*
X15417000Y-7820000D01*
X15417000Y-7720000D02*
X15317000Y-7820000D01*
X15417000Y-7770000D02*
G75*
G03*
X15417000Y-7770000I-50000J0D01*
G01*
X15317000Y-7974000D02*
X15417000Y-8074000D01*
X15417000Y-7974000D02*
X15317000Y-8074000D01*
X15417000Y-8024000D02*
G75*
G03*
X15417000Y-8024000I-50000J0D01*
G01*
X15317000Y-8228000D02*
X15417000Y-8328000D01*
X15417000Y-8228000D02*
X15317000Y-8328000D01*
X15417000Y-8278000D02*
G75*
G03*
X15417000Y-8278000I-50000J0D01*
G01*
X15317000Y-8482000D02*
X15417000Y-8582000D01*
X15417000Y-8482000D02*
X15317000Y-8582000D01*
X15417000Y-8532000D02*
G75*
G03*
X15417000Y-8532000I-50000J0D01*
G01*
X15317000Y-8736000D02*
X15417000Y-8836000D01*
X15417000Y-8736000D02*
X15317000Y-8836000D01*
X15417000Y-8786000D02*
G75*
G03*
X15417000Y-8786000I-50000J0D01*
G01*
X15317000Y-8990000D02*
X15417000Y-9090000D01*
X15417000Y-8990000D02*
X15317000Y-9090000D01*
X15417000Y-9040000D02*
G75*
G03*
X15417000Y-9040000I-50000J0D01*
G01*
X15317000Y-9244000D02*
X15417000Y-9344000D01*
X15417000Y-9244000D02*
X15317000Y-9344000D01*
X15417000Y-9294000D02*
G75*
G03*
X15417000Y-9294000I-50000J0D01*
G01*
X15317000Y-9498000D02*
X15417000Y-9598000D01*
X15417000Y-9498000D02*
X15317000Y-9598000D01*
X15417000Y-9548000D02*
G75*
G03*
X15417000Y-9548000I-50000J0D01*
G01*
X15317000Y-9752000D02*
X15417000Y-9852000D01*
X15417000Y-9752000D02*
X15317000Y-9852000D01*
X15417000Y-9802000D02*
G75*
G03*
X15417000Y-9802000I-50000J0D01*
G01*
X15317000Y-10006000D02*
X15417000Y-10106000D01*
X15417000Y-10006000D02*
X15317000Y-10106000D01*
X15417000Y-10056000D02*
G75*
G03*
X15417000Y-10056000I-50000J0D01*
G01*
X15317000Y-10260000D02*
X15417000Y-10360000D01*
X15417000Y-10260000D02*
X15317000Y-10360000D01*
X15417000Y-10310000D02*
G75*
G03*
X15417000Y-10310000I-50000J0D01*
G01*
X15317000Y-10514000D02*
X15417000Y-10614000D01*
X15417000Y-10514000D02*
X15317000Y-10614000D01*
X15417000Y-10564000D02*
G75*
G03*
X15417000Y-10564000I-50000J0D01*
G01*
X15317000Y-11530000D02*
X15417000Y-11630000D01*
X15417000Y-11530000D02*
X15317000Y-11630000D01*
X15417000Y-11580000D02*
G75*
G03*
X15417000Y-11580000I-50000J0D01*
G01*
X15317000Y-11784000D02*
X15417000Y-11884000D01*
X15417000Y-11784000D02*
X15317000Y-11884000D01*
X15417000Y-11834000D02*
G75*
G03*
X15417000Y-11834000I-50000J0D01*
G01*
X15952000Y-7212000D02*
X16052000Y-7312000D01*
X16052000Y-7212000D02*
X15952000Y-7312000D01*
X16052000Y-7262000D02*
G75*
G03*
X16052000Y-7262000I-50000J0D01*
G01*
X16206000Y-7212000D02*
X16306000Y-7312000D01*
X16306000Y-7212000D02*
X16206000Y-7312000D01*
X16306000Y-7262000D02*
G75*
G03*
X16306000Y-7262000I-50000J0D01*
G01*
X16206000Y-8228000D02*
X16306000Y-8328000D01*
X16306000Y-8228000D02*
X16206000Y-8328000D01*
X16306000Y-8278000D02*
G75*
G03*
X16306000Y-8278000I-50000J0D01*
G01*
X16206000Y-8482000D02*
X16306000Y-8582000D01*
X16306000Y-8482000D02*
X16206000Y-8582000D01*
X16306000Y-8532000D02*
G75*
G03*
X16306000Y-8532000I-50000J0D01*
G01*
X16206000Y-8736000D02*
X16306000Y-8836000D01*
X16306000Y-8736000D02*
X16206000Y-8836000D01*
X16306000Y-8786000D02*
G75*
G03*
X16306000Y-8786000I-50000J0D01*
G01*
X16206000Y-8990000D02*
X16306000Y-9090000D01*
X16306000Y-8990000D02*
X16206000Y-9090000D01*
X16306000Y-9040000D02*
G75*
G03*
X16306000Y-9040000I-50000J0D01*
G01*
X16206000Y-9244000D02*
X16306000Y-9344000D01*
X16306000Y-9244000D02*
X16206000Y-9344000D01*
X16306000Y-9294000D02*
G75*
G03*
X16306000Y-9294000I-50000J0D01*
G01*
X16206000Y-9498000D02*
X16306000Y-9598000D01*
X16306000Y-9498000D02*
X16206000Y-9598000D01*
X16306000Y-9548000D02*
G75*
G03*
X16306000Y-9548000I-50000J0D01*
G01*
X16206000Y-9752000D02*
X16306000Y-9852000D01*
X16306000Y-9752000D02*
X16206000Y-9852000D01*
X16306000Y-9802000D02*
G75*
G03*
X16306000Y-9802000I-50000J0D01*
G01*
X16460000Y-7212000D02*
X16560000Y-7312000D01*
X16560000Y-7212000D02*
X16460000Y-7312000D01*
X16560000Y-7262000D02*
G75*
G03*
X16560000Y-7262000I-50000J0D01*
G01*
X17095000Y-7212000D02*
X17195000Y-7312000D01*
X17195000Y-7212000D02*
X17095000Y-7312000D01*
X17195000Y-7262000D02*
G75*
G03*
X17195000Y-7262000I-50000J0D01*
G01*
X17349000Y-7212000D02*
X17449000Y-7312000D01*
X17449000Y-7212000D02*
X17349000Y-7312000D01*
X17449000Y-7262000D02*
G75*
G03*
X17449000Y-7262000I-50000J0D01*
G01*
X18238000Y-7212000D02*
X18338000Y-7312000D01*
X18338000Y-7212000D02*
X18238000Y-7312000D01*
X18338000Y-7262000D02*
G75*
G03*
X18338000Y-7262000I-50000J0D01*
G01*
X18238000Y-8736000D02*
X18338000Y-8836000D01*
X18338000Y-8736000D02*
X18238000Y-8836000D01*
X18338000Y-8786000D02*
G75*
G03*
X18338000Y-8786000I-50000J0D01*
G01*
X18238000Y-8990000D02*
X18338000Y-9090000D01*
X18338000Y-8990000D02*
X18238000Y-9090000D01*
X18338000Y-9040000D02*
G75*
G03*
X18338000Y-9040000I-50000J0D01*
G01*
X18238000Y-9244000D02*
X18338000Y-9344000D01*
X18338000Y-9244000D02*
X18238000Y-9344000D01*
X18338000Y-9294000D02*
G75*
G03*
X18338000Y-9294000I-50000J0D01*
G01*
X18238000Y-9498000D02*
X18338000Y-9598000D01*
X18338000Y-9498000D02*
X18238000Y-9598000D01*
X18338000Y-9548000D02*
G75*
G03*
X18338000Y-9548000I-50000J0D01*
G01*
X18238000Y-9752000D02*
X18338000Y-9852000D01*
X18338000Y-9752000D02*
X18238000Y-9852000D01*
X18338000Y-9802000D02*
G75*
G03*
X18338000Y-9802000I-50000J0D01*
G01*
X18238000Y-10006000D02*
X18338000Y-10106000D01*
X18338000Y-10006000D02*
X18238000Y-10106000D01*
X18338000Y-10056000D02*
G75*
G03*
X18338000Y-10056000I-50000J0D01*
G01*
X18238000Y-10260000D02*
X18338000Y-10360000D01*
X18338000Y-10260000D02*
X18238000Y-10360000D01*
X18338000Y-10310000D02*
G75*
G03*
X18338000Y-10310000I-50000J0D01*
G01*
X18492000Y-7212000D02*
X18592000Y-7312000D01*
X18592000Y-7212000D02*
X18492000Y-7312000D01*
X18592000Y-7262000D02*
G75*
G03*
X18592000Y-7262000I-50000J0D01*
G01*
X18492000Y-8736000D02*
X18592000Y-8836000D01*
X18592000Y-8736000D02*
X18492000Y-8836000D01*
X18592000Y-8786000D02*
G75*
G03*
X18592000Y-8786000I-50000J0D01*
G01*
X18492000Y-8990000D02*
X18592000Y-9090000D01*
X18592000Y-8990000D02*
X18492000Y-9090000D01*
X18592000Y-9040000D02*
G75*
G03*
X18592000Y-9040000I-50000J0D01*
G01*
X18492000Y-9244000D02*
X18592000Y-9344000D01*
X18592000Y-9244000D02*
X18492000Y-9344000D01*
X18592000Y-9294000D02*
G75*
G03*
X18592000Y-9294000I-50000J0D01*
G01*
X18492000Y-9498000D02*
X18592000Y-9598000D01*
X18592000Y-9498000D02*
X18492000Y-9598000D01*
X18592000Y-9548000D02*
G75*
G03*
X18592000Y-9548000I-50000J0D01*
G01*
X18492000Y-9752000D02*
X18592000Y-9852000D01*
X18592000Y-9752000D02*
X18492000Y-9852000D01*
X18592000Y-9802000D02*
G75*
G03*
X18592000Y-9802000I-50000J0D01*
G01*
X18492000Y-10006000D02*
X18592000Y-10106000D01*
X18592000Y-10006000D02*
X18492000Y-10106000D01*
X18592000Y-10056000D02*
G75*
G03*
X18592000Y-10056000I-50000J0D01*
G01*
X18492000Y-10260000D02*
X18592000Y-10360000D01*
X18592000Y-10260000D02*
X18492000Y-10360000D01*
X18592000Y-10310000D02*
G75*
G03*
X18592000Y-10310000I-50000J0D01*
G01*
D17*
X15942500Y-11012500D02*
X16061500Y-11131500D01*
X16061500Y-11012500D02*
X15942500Y-11131500D01*
X16002000Y-11012500D02*
X16002000Y-11131500D01*
X15942500Y-11072000D02*
X16061500Y-11072000D01*
X15942500Y-11266500D02*
X16061500Y-11385500D01*
X16061500Y-11266500D02*
X15942500Y-11385500D01*
X16002000Y-11266500D02*
X16002000Y-11385500D01*
X15942500Y-11326000D02*
X16061500Y-11326000D01*
X15942500Y-11520500D02*
X16061500Y-11639500D01*
X16061500Y-11520500D02*
X15942500Y-11639500D01*
X16002000Y-11520500D02*
X16002000Y-11639500D01*
X15942500Y-11580000D02*
X16061500Y-11580000D01*
X15942500Y-11774500D02*
X16061500Y-11893500D01*
X16061500Y-11774500D02*
X15942500Y-11893500D01*
X16002000Y-11774500D02*
X16002000Y-11893500D01*
X15942500Y-11834000D02*
X16061500Y-11834000D01*
D11*
X11939119Y-12781976D02*
X11939119Y-12581976D01*
X11986738Y-12581976D01*
X12015309Y-12591500D01*
X12034357Y-12610548D01*
X12043881Y-12629595D01*
X12053405Y-12667690D01*
X12053405Y-12696262D01*
X12043881Y-12734357D01*
X12034357Y-12753405D01*
X12015309Y-12772452D01*
X11986738Y-12781976D01*
X11939119Y-12781976D01*
X12139119Y-12781976D02*
X12139119Y-12648643D01*
X12139119Y-12686738D02*
X12148643Y-12667690D01*
X12158167Y-12658167D01*
X12177214Y-12648643D01*
X12196262Y-12648643D01*
X12262928Y-12781976D02*
X12262928Y-12648643D01*
X12262928Y-12581976D02*
X12253405Y-12591500D01*
X12262928Y-12601024D01*
X12272452Y-12591500D01*
X12262928Y-12581976D01*
X12262928Y-12601024D01*
X12386738Y-12781976D02*
X12367690Y-12772452D01*
X12358167Y-12753405D01*
X12358167Y-12581976D01*
X12491500Y-12781976D02*
X12472452Y-12772452D01*
X12462928Y-12753405D01*
X12462928Y-12581976D01*
X12720071Y-12781976D02*
X12720071Y-12581976D01*
X12786738Y-12724833D01*
X12853405Y-12581976D01*
X12853405Y-12781976D01*
X13034357Y-12781976D02*
X13034357Y-12677214D01*
X13024833Y-12658167D01*
X13005786Y-12648643D01*
X12967690Y-12648643D01*
X12948643Y-12658167D01*
X13034357Y-12772452D02*
X13015309Y-12781976D01*
X12967690Y-12781976D01*
X12948643Y-12772452D01*
X12939119Y-12753405D01*
X12939119Y-12734357D01*
X12948643Y-12715309D01*
X12967690Y-12705786D01*
X13015309Y-12705786D01*
X13034357Y-12696262D01*
X13129595Y-12648643D02*
X13129595Y-12848643D01*
X13129595Y-12658167D02*
X13148643Y-12648643D01*
X13186738Y-12648643D01*
X13205786Y-12658167D01*
X13215309Y-12667690D01*
X13224833Y-12686738D01*
X13224833Y-12743881D01*
X13215309Y-12762928D01*
X13205786Y-12772452D01*
X13186738Y-12781976D01*
X13148643Y-12781976D01*
X13129595Y-12772452D01*
X13310548Y-12762928D02*
X13320071Y-12772452D01*
X13310548Y-12781976D01*
X13301024Y-12772452D01*
X13310548Y-12762928D01*
X13310548Y-12781976D01*
X13310548Y-12658167D02*
X13320071Y-12667690D01*
X13310548Y-12677214D01*
X13301024Y-12667690D01*
X13310548Y-12658167D01*
X13310548Y-12677214D01*
D12*
X11661500Y-13101500D02*
X11681500Y-13121500D01*
X11681500Y-13101500D02*
X11661500Y-13121500D01*
D11*
X11977214Y-13001976D02*
X11996262Y-13001976D01*
X12015309Y-13011500D01*
X12024833Y-13021024D01*
X12034357Y-13040071D01*
X12043881Y-13078167D01*
X12043881Y-13125786D01*
X12034357Y-13163881D01*
X12024833Y-13182928D01*
X12015309Y-13192452D01*
X11996262Y-13201976D01*
X11977214Y-13201976D01*
X11958167Y-13192452D01*
X11948643Y-13182928D01*
X11939119Y-13163881D01*
X11929595Y-13125786D01*
X11929595Y-13078167D01*
X11939119Y-13040071D01*
X11948643Y-13021024D01*
X11958167Y-13011500D01*
X11977214Y-13001976D01*
X12129595Y-13182928D02*
X12139119Y-13192452D01*
X12129595Y-13201976D01*
X12120071Y-13192452D01*
X12129595Y-13182928D01*
X12129595Y-13201976D01*
X12215309Y-13021024D02*
X12224833Y-13011500D01*
X12243881Y-13001976D01*
X12291500Y-13001976D01*
X12310548Y-13011500D01*
X12320071Y-13021024D01*
X12329595Y-13040071D01*
X12329595Y-13059119D01*
X12320071Y-13087690D01*
X12205786Y-13201976D01*
X12329595Y-13201976D01*
X12453405Y-13001976D02*
X12472452Y-13001976D01*
X12491500Y-13011500D01*
X12501024Y-13021024D01*
X12510548Y-13040071D01*
X12520071Y-13078167D01*
X12520071Y-13125786D01*
X12510548Y-13163881D01*
X12501024Y-13182928D01*
X12491500Y-13192452D01*
X12472452Y-13201976D01*
X12453405Y-13201976D01*
X12434357Y-13192452D01*
X12424833Y-13182928D01*
X12415309Y-13163881D01*
X12405786Y-13125786D01*
X12405786Y-13078167D01*
X12415309Y-13040071D01*
X12424833Y-13021024D01*
X12434357Y-13011500D01*
X12453405Y-13001976D01*
X12643881Y-13001976D02*
X12662928Y-13001976D01*
X12681976Y-13011500D01*
X12691500Y-13021024D01*
X12701024Y-13040071D01*
X12710548Y-13078167D01*
X12710548Y-13125786D01*
X12701024Y-13163881D01*
X12691500Y-13182928D01*
X12681976Y-13192452D01*
X12662928Y-13201976D01*
X12643881Y-13201976D01*
X12624833Y-13192452D01*
X12615309Y-13182928D01*
X12605786Y-13163881D01*
X12596262Y-13125786D01*
X12596262Y-13078167D01*
X12605786Y-13040071D01*
X12615309Y-13021024D01*
X12624833Y-13011500D01*
X12643881Y-13001976D01*
X12796262Y-13201976D02*
X12796262Y-13068643D01*
X12796262Y-13087690D02*
X12805786Y-13078167D01*
X12824833Y-13068643D01*
X12853405Y-13068643D01*
X12872452Y-13078167D01*
X12881976Y-13097214D01*
X12881976Y-13201976D01*
X12881976Y-13097214D02*
X12891500Y-13078167D01*
X12910548Y-13068643D01*
X12939119Y-13068643D01*
X12958167Y-13078167D01*
X12967690Y-13097214D01*
X12967690Y-13201976D01*
X13062928Y-13201976D02*
X13062928Y-13068643D01*
X13062928Y-13087690D02*
X13072452Y-13078167D01*
X13091500Y-13068643D01*
X13120071Y-13068643D01*
X13139119Y-13078167D01*
X13148643Y-13097214D01*
X13148643Y-13201976D01*
X13148643Y-13097214D02*
X13158167Y-13078167D01*
X13177214Y-13068643D01*
X13205786Y-13068643D01*
X13224833Y-13078167D01*
X13234357Y-13097214D01*
X13234357Y-13201976D01*
X13624833Y-12992452D02*
X13453405Y-13249595D01*
X13881976Y-13001976D02*
X13901024Y-13001976D01*
X13920071Y-13011500D01*
X13929595Y-13021024D01*
X13939119Y-13040071D01*
X13948643Y-13078167D01*
X13948643Y-13125786D01*
X13939119Y-13163881D01*
X13929595Y-13182928D01*
X13920071Y-13192452D01*
X13901024Y-13201976D01*
X13881976Y-13201976D01*
X13862928Y-13192452D01*
X13853405Y-13182928D01*
X13843881Y-13163881D01*
X13834357Y-13125786D01*
X13834357Y-13078167D01*
X13843881Y-13040071D01*
X13853405Y-13021024D01*
X13862928Y-13011500D01*
X13881976Y-13001976D01*
X14034357Y-13182928D02*
X14043881Y-13192452D01*
X14034357Y-13201976D01*
X14024833Y-13192452D01*
X14034357Y-13182928D01*
X14034357Y-13201976D01*
X14167690Y-13001976D02*
X14186738Y-13001976D01*
X14205786Y-13011500D01*
X14215309Y-13021024D01*
X14224833Y-13040071D01*
X14234357Y-13078167D01*
X14234357Y-13125786D01*
X14224833Y-13163881D01*
X14215309Y-13182928D01*
X14205786Y-13192452D01*
X14186738Y-13201976D01*
X14167690Y-13201976D01*
X14148643Y-13192452D01*
X14139119Y-13182928D01*
X14129595Y-13163881D01*
X14120071Y-13125786D01*
X14120071Y-13078167D01*
X14129595Y-13040071D01*
X14139119Y-13021024D01*
X14148643Y-13011500D01*
X14167690Y-13001976D01*
X14358167Y-13001976D02*
X14377214Y-13001976D01*
X14396262Y-13011500D01*
X14405786Y-13021024D01*
X14415309Y-13040071D01*
X14424833Y-13078167D01*
X14424833Y-13125786D01*
X14415309Y-13163881D01*
X14405786Y-13182928D01*
X14396262Y-13192452D01*
X14377214Y-13201976D01*
X14358167Y-13201976D01*
X14339119Y-13192452D01*
X14329595Y-13182928D01*
X14320071Y-13163881D01*
X14310548Y-13125786D01*
X14310548Y-13078167D01*
X14320071Y-13040071D01*
X14329595Y-13021024D01*
X14339119Y-13011500D01*
X14358167Y-13001976D01*
X14491500Y-13001976D02*
X14624833Y-13001976D01*
X14539119Y-13201976D01*
X14710548Y-13201976D02*
X14748643Y-13201976D01*
X14767690Y-13192452D01*
X14777214Y-13182928D01*
X14796262Y-13154357D01*
X14805786Y-13116262D01*
X14805786Y-13040071D01*
X14796262Y-13021024D01*
X14786738Y-13011500D01*
X14767690Y-13001976D01*
X14729595Y-13001976D01*
X14710548Y-13011500D01*
X14701024Y-13021024D01*
X14691500Y-13040071D01*
X14691500Y-13087690D01*
X14701024Y-13106738D01*
X14710548Y-13116262D01*
X14729595Y-13125786D01*
X14767690Y-13125786D01*
X14786738Y-13116262D01*
X14796262Y-13106738D01*
X14805786Y-13087690D01*
X14881976Y-13001976D02*
X14881976Y-13040071D01*
X14958167Y-13001976D02*
X14958167Y-13040071D01*
X15253405Y-13278167D02*
X15243881Y-13268643D01*
X15224833Y-13240071D01*
X15215309Y-13221024D01*
X15205786Y-13192452D01*
X15196262Y-13144833D01*
X15196262Y-13106738D01*
X15205786Y-13059119D01*
X15215309Y-13030548D01*
X15224833Y-13011500D01*
X15243881Y-12982928D01*
X15253405Y-12973405D01*
X15320071Y-13021024D02*
X15329595Y-13011500D01*
X15348643Y-13001976D01*
X15396262Y-13001976D01*
X15415309Y-13011500D01*
X15424833Y-13021024D01*
X15434357Y-13040071D01*
X15434357Y-13059119D01*
X15424833Y-13087690D01*
X15310548Y-13201976D01*
X15434357Y-13201976D01*
X15548643Y-13087690D02*
X15529595Y-13078167D01*
X15520071Y-13068643D01*
X15510548Y-13049595D01*
X15510548Y-13040071D01*
X15520071Y-13021024D01*
X15529595Y-13011500D01*
X15548643Y-13001976D01*
X15586738Y-13001976D01*
X15605786Y-13011500D01*
X15615309Y-13021024D01*
X15624833Y-13040071D01*
X15624833Y-13049595D01*
X15615309Y-13068643D01*
X15605786Y-13078167D01*
X15586738Y-13087690D01*
X15548643Y-13087690D01*
X15529595Y-13097214D01*
X15520071Y-13106738D01*
X15510548Y-13125786D01*
X15510548Y-13163881D01*
X15520071Y-13182928D01*
X15529595Y-13192452D01*
X15548643Y-13201976D01*
X15586738Y-13201976D01*
X15605786Y-13192452D01*
X15615309Y-13182928D01*
X15624833Y-13163881D01*
X15624833Y-13125786D01*
X15615309Y-13106738D01*
X15605786Y-13097214D01*
X15586738Y-13087690D01*
X15862928Y-13201976D02*
X15862928Y-13001976D01*
X15948643Y-13201976D02*
X15948643Y-13097214D01*
X15939119Y-13078167D01*
X15920071Y-13068643D01*
X15891500Y-13068643D01*
X15872452Y-13078167D01*
X15862928Y-13087690D01*
X16072452Y-13201976D02*
X16053405Y-13192452D01*
X16043881Y-13182928D01*
X16034357Y-13163881D01*
X16034357Y-13106738D01*
X16043881Y-13087690D01*
X16053405Y-13078167D01*
X16072452Y-13068643D01*
X16101024Y-13068643D01*
X16120071Y-13078167D01*
X16129595Y-13087690D01*
X16139119Y-13106738D01*
X16139119Y-13163881D01*
X16129595Y-13182928D01*
X16120071Y-13192452D01*
X16101024Y-13201976D01*
X16072452Y-13201976D01*
X16253405Y-13201976D02*
X16234357Y-13192452D01*
X16224833Y-13173405D01*
X16224833Y-13001976D01*
X16405786Y-13192452D02*
X16386738Y-13201976D01*
X16348643Y-13201976D01*
X16329595Y-13192452D01*
X16320071Y-13173405D01*
X16320071Y-13097214D01*
X16329595Y-13078167D01*
X16348643Y-13068643D01*
X16386738Y-13068643D01*
X16405786Y-13078167D01*
X16415309Y-13097214D01*
X16415309Y-13116262D01*
X16320071Y-13135309D01*
X16491500Y-13192452D02*
X16510548Y-13201976D01*
X16548643Y-13201976D01*
X16567690Y-13192452D01*
X16577214Y-13173405D01*
X16577214Y-13163881D01*
X16567690Y-13144833D01*
X16548643Y-13135309D01*
X16520071Y-13135309D01*
X16501024Y-13125786D01*
X16491500Y-13106738D01*
X16491500Y-13097214D01*
X16501024Y-13078167D01*
X16520071Y-13068643D01*
X16548643Y-13068643D01*
X16567690Y-13078167D01*
X16643881Y-13278167D02*
X16653405Y-13268643D01*
X16672452Y-13240071D01*
X16681976Y-13221024D01*
X16691500Y-13192452D01*
X16701024Y-13144833D01*
X16701024Y-13106738D01*
X16691500Y-13059119D01*
X16681976Y-13030548D01*
X16672452Y-13011500D01*
X16653405Y-12982928D01*
X16643881Y-12973405D01*
D13*
X11681500Y-13375500D02*
G75*
G03*
X11681500Y-13375500I-15000J0D01*
G01*
D11*
X11977214Y-13265976D02*
X11996262Y-13265976D01*
X12015309Y-13275500D01*
X12024833Y-13285024D01*
X12034357Y-13304071D01*
X12043881Y-13342167D01*
X12043881Y-13389786D01*
X12034357Y-13427881D01*
X12024833Y-13446928D01*
X12015309Y-13456452D01*
X11996262Y-13465976D01*
X11977214Y-13465976D01*
X11958167Y-13456452D01*
X11948643Y-13446928D01*
X11939119Y-13427881D01*
X11929595Y-13389786D01*
X11929595Y-13342167D01*
X11939119Y-13304071D01*
X11948643Y-13285024D01*
X11958167Y-13275500D01*
X11977214Y-13265976D01*
X12129595Y-13446928D02*
X12139119Y-13456452D01*
X12129595Y-13465976D01*
X12120071Y-13456452D01*
X12129595Y-13446928D01*
X12129595Y-13465976D01*
X12205786Y-13265976D02*
X12329595Y-13265976D01*
X12262928Y-13342167D01*
X12291500Y-13342167D01*
X12310548Y-13351690D01*
X12320071Y-13361214D01*
X12329595Y-13380262D01*
X12329595Y-13427881D01*
X12320071Y-13446928D01*
X12310548Y-13456452D01*
X12291500Y-13465976D01*
X12234357Y-13465976D01*
X12215309Y-13456452D01*
X12205786Y-13446928D01*
X12453405Y-13265976D02*
X12472452Y-13265976D01*
X12491500Y-13275500D01*
X12501024Y-13285024D01*
X12510548Y-13304071D01*
X12520071Y-13342167D01*
X12520071Y-13389786D01*
X12510548Y-13427881D01*
X12501024Y-13446928D01*
X12491500Y-13456452D01*
X12472452Y-13465976D01*
X12453405Y-13465976D01*
X12434357Y-13456452D01*
X12424833Y-13446928D01*
X12415309Y-13427881D01*
X12405786Y-13389786D01*
X12405786Y-13342167D01*
X12415309Y-13304071D01*
X12424833Y-13285024D01*
X12434357Y-13275500D01*
X12453405Y-13265976D01*
X12643881Y-13265976D02*
X12662928Y-13265976D01*
X12681976Y-13275500D01*
X12691500Y-13285024D01*
X12701024Y-13304071D01*
X12710548Y-13342167D01*
X12710548Y-13389786D01*
X12701024Y-13427881D01*
X12691500Y-13446928D01*
X12681976Y-13456452D01*
X12662928Y-13465976D01*
X12643881Y-13465976D01*
X12624833Y-13456452D01*
X12615309Y-13446928D01*
X12605786Y-13427881D01*
X12596262Y-13389786D01*
X12596262Y-13342167D01*
X12605786Y-13304071D01*
X12615309Y-13285024D01*
X12624833Y-13275500D01*
X12643881Y-13265976D01*
X12796262Y-13465976D02*
X12796262Y-13332643D01*
X12796262Y-13351690D02*
X12805786Y-13342167D01*
X12824833Y-13332643D01*
X12853405Y-13332643D01*
X12872452Y-13342167D01*
X12881976Y-13361214D01*
X12881976Y-13465976D01*
X12881976Y-13361214D02*
X12891500Y-13342167D01*
X12910548Y-13332643D01*
X12939119Y-13332643D01*
X12958167Y-13342167D01*
X12967690Y-13361214D01*
X12967690Y-13465976D01*
X13062928Y-13465976D02*
X13062928Y-13332643D01*
X13062928Y-13351690D02*
X13072452Y-13342167D01*
X13091500Y-13332643D01*
X13120071Y-13332643D01*
X13139119Y-13342167D01*
X13148643Y-13361214D01*
X13148643Y-13465976D01*
X13148643Y-13361214D02*
X13158167Y-13342167D01*
X13177214Y-13332643D01*
X13205786Y-13332643D01*
X13224833Y-13342167D01*
X13234357Y-13361214D01*
X13234357Y-13465976D01*
X13624833Y-13256452D02*
X13453405Y-13513595D01*
X13881976Y-13265976D02*
X13901024Y-13265976D01*
X13920071Y-13275500D01*
X13929595Y-13285024D01*
X13939119Y-13304071D01*
X13948643Y-13342167D01*
X13948643Y-13389786D01*
X13939119Y-13427881D01*
X13929595Y-13446928D01*
X13920071Y-13456452D01*
X13901024Y-13465976D01*
X13881976Y-13465976D01*
X13862928Y-13456452D01*
X13853405Y-13446928D01*
X13843881Y-13427881D01*
X13834357Y-13389786D01*
X13834357Y-13342167D01*
X13843881Y-13304071D01*
X13853405Y-13285024D01*
X13862928Y-13275500D01*
X13881976Y-13265976D01*
X14034357Y-13446928D02*
X14043881Y-13456452D01*
X14034357Y-13465976D01*
X14024833Y-13456452D01*
X14034357Y-13446928D01*
X14034357Y-13465976D01*
X14167690Y-13265976D02*
X14186738Y-13265976D01*
X14205786Y-13275500D01*
X14215309Y-13285024D01*
X14224833Y-13304071D01*
X14234357Y-13342167D01*
X14234357Y-13389786D01*
X14224833Y-13427881D01*
X14215309Y-13446928D01*
X14205786Y-13456452D01*
X14186738Y-13465976D01*
X14167690Y-13465976D01*
X14148643Y-13456452D01*
X14139119Y-13446928D01*
X14129595Y-13427881D01*
X14120071Y-13389786D01*
X14120071Y-13342167D01*
X14129595Y-13304071D01*
X14139119Y-13285024D01*
X14148643Y-13275500D01*
X14167690Y-13265976D01*
X14424833Y-13465976D02*
X14310548Y-13465976D01*
X14367690Y-13465976D02*
X14367690Y-13265976D01*
X14348643Y-13294548D01*
X14329595Y-13313595D01*
X14310548Y-13323119D01*
X14615309Y-13465976D02*
X14501024Y-13465976D01*
X14558167Y-13465976D02*
X14558167Y-13265976D01*
X14539119Y-13294548D01*
X14520071Y-13313595D01*
X14501024Y-13323119D01*
X14729595Y-13351690D02*
X14710548Y-13342167D01*
X14701024Y-13332643D01*
X14691500Y-13313595D01*
X14691500Y-13304071D01*
X14701024Y-13285024D01*
X14710548Y-13275500D01*
X14729595Y-13265976D01*
X14767690Y-13265976D01*
X14786738Y-13275500D01*
X14796262Y-13285024D01*
X14805786Y-13304071D01*
X14805786Y-13313595D01*
X14796262Y-13332643D01*
X14786738Y-13342167D01*
X14767690Y-13351690D01*
X14729595Y-13351690D01*
X14710548Y-13361214D01*
X14701024Y-13370738D01*
X14691500Y-13389786D01*
X14691500Y-13427881D01*
X14701024Y-13446928D01*
X14710548Y-13456452D01*
X14729595Y-13465976D01*
X14767690Y-13465976D01*
X14786738Y-13456452D01*
X14796262Y-13446928D01*
X14805786Y-13427881D01*
X14805786Y-13389786D01*
X14796262Y-13370738D01*
X14786738Y-13361214D01*
X14767690Y-13351690D01*
X14881976Y-13265976D02*
X14881976Y-13304071D01*
X14958167Y-13265976D02*
X14958167Y-13304071D01*
X15253405Y-13542167D02*
X15243881Y-13532643D01*
X15224833Y-13504071D01*
X15215309Y-13485024D01*
X15205786Y-13456452D01*
X15196262Y-13408833D01*
X15196262Y-13370738D01*
X15205786Y-13323119D01*
X15215309Y-13294548D01*
X15224833Y-13275500D01*
X15243881Y-13246928D01*
X15253405Y-13237405D01*
X15434357Y-13465976D02*
X15320071Y-13465976D01*
X15377214Y-13465976D02*
X15377214Y-13265976D01*
X15358167Y-13294548D01*
X15339119Y-13313595D01*
X15320071Y-13323119D01*
X15529595Y-13465976D02*
X15567690Y-13465976D01*
X15586738Y-13456452D01*
X15596262Y-13446928D01*
X15615309Y-13418357D01*
X15624833Y-13380262D01*
X15624833Y-13304071D01*
X15615309Y-13285024D01*
X15605786Y-13275500D01*
X15586738Y-13265976D01*
X15548643Y-13265976D01*
X15529595Y-13275500D01*
X15520071Y-13285024D01*
X15510548Y-13304071D01*
X15510548Y-13351690D01*
X15520071Y-13370738D01*
X15529595Y-13380262D01*
X15548643Y-13389786D01*
X15586738Y-13389786D01*
X15605786Y-13380262D01*
X15615309Y-13370738D01*
X15624833Y-13351690D01*
X15862928Y-13465976D02*
X15862928Y-13265976D01*
X15948643Y-13465976D02*
X15948643Y-13361214D01*
X15939119Y-13342167D01*
X15920071Y-13332643D01*
X15891500Y-13332643D01*
X15872452Y-13342167D01*
X15862928Y-13351690D01*
X16072452Y-13465976D02*
X16053405Y-13456452D01*
X16043881Y-13446928D01*
X16034357Y-13427881D01*
X16034357Y-13370738D01*
X16043881Y-13351690D01*
X16053405Y-13342167D01*
X16072452Y-13332643D01*
X16101024Y-13332643D01*
X16120071Y-13342167D01*
X16129595Y-13351690D01*
X16139119Y-13370738D01*
X16139119Y-13427881D01*
X16129595Y-13446928D01*
X16120071Y-13456452D01*
X16101024Y-13465976D01*
X16072452Y-13465976D01*
X16253405Y-13465976D02*
X16234357Y-13456452D01*
X16224833Y-13437405D01*
X16224833Y-13265976D01*
X16405786Y-13456452D02*
X16386738Y-13465976D01*
X16348643Y-13465976D01*
X16329595Y-13456452D01*
X16320071Y-13437405D01*
X16320071Y-13361214D01*
X16329595Y-13342167D01*
X16348643Y-13332643D01*
X16386738Y-13332643D01*
X16405786Y-13342167D01*
X16415309Y-13361214D01*
X16415309Y-13380262D01*
X16320071Y-13399309D01*
X16491500Y-13456452D02*
X16510548Y-13465976D01*
X16548643Y-13465976D01*
X16567690Y-13456452D01*
X16577214Y-13437405D01*
X16577214Y-13427881D01*
X16567690Y-13408833D01*
X16548643Y-13399309D01*
X16520071Y-13399309D01*
X16501024Y-13389786D01*
X16491500Y-13370738D01*
X16491500Y-13361214D01*
X16501024Y-13342167D01*
X16520071Y-13332643D01*
X16548643Y-13332643D01*
X16567690Y-13342167D01*
X16643881Y-13542167D02*
X16653405Y-13532643D01*
X16672452Y-13504071D01*
X16681976Y-13485024D01*
X16691500Y-13456452D01*
X16701024Y-13408833D01*
X16701024Y-13370738D01*
X16691500Y-13323119D01*
X16681976Y-13294548D01*
X16672452Y-13275500D01*
X16653405Y-13246928D01*
X16643881Y-13237405D01*
D14*
X11661500Y-13619500D02*
X11661500Y-13659500D01*
X11641500Y-13639500D02*
X11681500Y-13639500D01*
D11*
X11977214Y-13529976D02*
X11996262Y-13529976D01*
X12015309Y-13539500D01*
X12024833Y-13549024D01*
X12034357Y-13568071D01*
X12043881Y-13606167D01*
X12043881Y-13653786D01*
X12034357Y-13691881D01*
X12024833Y-13710928D01*
X12015309Y-13720452D01*
X11996262Y-13729976D01*
X11977214Y-13729976D01*
X11958167Y-13720452D01*
X11948643Y-13710928D01*
X11939119Y-13691881D01*
X11929595Y-13653786D01*
X11929595Y-13606167D01*
X11939119Y-13568071D01*
X11948643Y-13549024D01*
X11958167Y-13539500D01*
X11977214Y-13529976D01*
X12129595Y-13710928D02*
X12139119Y-13720452D01*
X12129595Y-13729976D01*
X12120071Y-13720452D01*
X12129595Y-13710928D01*
X12129595Y-13729976D01*
X12310548Y-13596643D02*
X12310548Y-13729976D01*
X12262928Y-13520452D02*
X12215309Y-13663309D01*
X12339119Y-13663309D01*
X12453405Y-13529976D02*
X12472452Y-13529976D01*
X12491500Y-13539500D01*
X12501024Y-13549024D01*
X12510548Y-13568071D01*
X12520071Y-13606167D01*
X12520071Y-13653786D01*
X12510548Y-13691881D01*
X12501024Y-13710928D01*
X12491500Y-13720452D01*
X12472452Y-13729976D01*
X12453405Y-13729976D01*
X12434357Y-13720452D01*
X12424833Y-13710928D01*
X12415309Y-13691881D01*
X12405786Y-13653786D01*
X12405786Y-13606167D01*
X12415309Y-13568071D01*
X12424833Y-13549024D01*
X12434357Y-13539500D01*
X12453405Y-13529976D01*
X12643881Y-13529976D02*
X12662928Y-13529976D01*
X12681976Y-13539500D01*
X12691500Y-13549024D01*
X12701024Y-13568071D01*
X12710548Y-13606167D01*
X12710548Y-13653786D01*
X12701024Y-13691881D01*
X12691500Y-13710928D01*
X12681976Y-13720452D01*
X12662928Y-13729976D01*
X12643881Y-13729976D01*
X12624833Y-13720452D01*
X12615309Y-13710928D01*
X12605786Y-13691881D01*
X12596262Y-13653786D01*
X12596262Y-13606167D01*
X12605786Y-13568071D01*
X12615309Y-13549024D01*
X12624833Y-13539500D01*
X12643881Y-13529976D01*
X12796262Y-13729976D02*
X12796262Y-13596643D01*
X12796262Y-13615690D02*
X12805786Y-13606167D01*
X12824833Y-13596643D01*
X12853405Y-13596643D01*
X12872452Y-13606167D01*
X12881976Y-13625214D01*
X12881976Y-13729976D01*
X12881976Y-13625214D02*
X12891500Y-13606167D01*
X12910548Y-13596643D01*
X12939119Y-13596643D01*
X12958167Y-13606167D01*
X12967690Y-13625214D01*
X12967690Y-13729976D01*
X13062928Y-13729976D02*
X13062928Y-13596643D01*
X13062928Y-13615690D02*
X13072452Y-13606167D01*
X13091500Y-13596643D01*
X13120071Y-13596643D01*
X13139119Y-13606167D01*
X13148643Y-13625214D01*
X13148643Y-13729976D01*
X13148643Y-13625214D02*
X13158167Y-13606167D01*
X13177214Y-13596643D01*
X13205786Y-13596643D01*
X13224833Y-13606167D01*
X13234357Y-13625214D01*
X13234357Y-13729976D01*
X13624833Y-13520452D02*
X13453405Y-13777595D01*
X13881976Y-13529976D02*
X13901024Y-13529976D01*
X13920071Y-13539500D01*
X13929595Y-13549024D01*
X13939119Y-13568071D01*
X13948643Y-13606167D01*
X13948643Y-13653786D01*
X13939119Y-13691881D01*
X13929595Y-13710928D01*
X13920071Y-13720452D01*
X13901024Y-13729976D01*
X13881976Y-13729976D01*
X13862928Y-13720452D01*
X13853405Y-13710928D01*
X13843881Y-13691881D01*
X13834357Y-13653786D01*
X13834357Y-13606167D01*
X13843881Y-13568071D01*
X13853405Y-13549024D01*
X13862928Y-13539500D01*
X13881976Y-13529976D01*
X14034357Y-13710928D02*
X14043881Y-13720452D01*
X14034357Y-13729976D01*
X14024833Y-13720452D01*
X14034357Y-13710928D01*
X14034357Y-13729976D01*
X14167690Y-13529976D02*
X14186738Y-13529976D01*
X14205786Y-13539500D01*
X14215309Y-13549024D01*
X14224833Y-13568071D01*
X14234357Y-13606167D01*
X14234357Y-13653786D01*
X14224833Y-13691881D01*
X14215309Y-13710928D01*
X14205786Y-13720452D01*
X14186738Y-13729976D01*
X14167690Y-13729976D01*
X14148643Y-13720452D01*
X14139119Y-13710928D01*
X14129595Y-13691881D01*
X14120071Y-13653786D01*
X14120071Y-13606167D01*
X14129595Y-13568071D01*
X14139119Y-13549024D01*
X14148643Y-13539500D01*
X14167690Y-13529976D01*
X14424833Y-13729976D02*
X14310548Y-13729976D01*
X14367690Y-13729976D02*
X14367690Y-13529976D01*
X14348643Y-13558548D01*
X14329595Y-13577595D01*
X14310548Y-13587119D01*
X14605786Y-13529976D02*
X14510548Y-13529976D01*
X14501024Y-13625214D01*
X14510548Y-13615690D01*
X14529595Y-13606167D01*
X14577214Y-13606167D01*
X14596262Y-13615690D01*
X14605786Y-13625214D01*
X14615309Y-13644262D01*
X14615309Y-13691881D01*
X14605786Y-13710928D01*
X14596262Y-13720452D01*
X14577214Y-13729976D01*
X14529595Y-13729976D01*
X14510548Y-13720452D01*
X14501024Y-13710928D01*
X14681976Y-13529976D02*
X14815309Y-13529976D01*
X14729595Y-13729976D01*
X14881976Y-13529976D02*
X14881976Y-13568071D01*
X14958167Y-13529976D02*
X14958167Y-13568071D01*
X15253405Y-13806167D02*
X15243881Y-13796643D01*
X15224833Y-13768071D01*
X15215309Y-13749024D01*
X15205786Y-13720452D01*
X15196262Y-13672833D01*
X15196262Y-13634738D01*
X15205786Y-13587119D01*
X15215309Y-13558548D01*
X15224833Y-13539500D01*
X15243881Y-13510928D01*
X15253405Y-13501405D01*
X15434357Y-13729976D02*
X15320071Y-13729976D01*
X15377214Y-13729976D02*
X15377214Y-13529976D01*
X15358167Y-13558548D01*
X15339119Y-13577595D01*
X15320071Y-13587119D01*
X15605786Y-13529976D02*
X15567690Y-13529976D01*
X15548643Y-13539500D01*
X15539119Y-13549024D01*
X15520071Y-13577595D01*
X15510548Y-13615690D01*
X15510548Y-13691881D01*
X15520071Y-13710928D01*
X15529595Y-13720452D01*
X15548643Y-13729976D01*
X15586738Y-13729976D01*
X15605786Y-13720452D01*
X15615309Y-13710928D01*
X15624833Y-13691881D01*
X15624833Y-13644262D01*
X15615309Y-13625214D01*
X15605786Y-13615690D01*
X15586738Y-13606167D01*
X15548643Y-13606167D01*
X15529595Y-13615690D01*
X15520071Y-13625214D01*
X15510548Y-13644262D01*
X15862928Y-13729976D02*
X15862928Y-13529976D01*
X15948643Y-13729976D02*
X15948643Y-13625214D01*
X15939119Y-13606167D01*
X15920071Y-13596643D01*
X15891500Y-13596643D01*
X15872452Y-13606167D01*
X15862928Y-13615690D01*
X16072452Y-13729976D02*
X16053405Y-13720452D01*
X16043881Y-13710928D01*
X16034357Y-13691881D01*
X16034357Y-13634738D01*
X16043881Y-13615690D01*
X16053405Y-13606167D01*
X16072452Y-13596643D01*
X16101024Y-13596643D01*
X16120071Y-13606167D01*
X16129595Y-13615690D01*
X16139119Y-13634738D01*
X16139119Y-13691881D01*
X16129595Y-13710928D01*
X16120071Y-13720452D01*
X16101024Y-13729976D01*
X16072452Y-13729976D01*
X16253405Y-13729976D02*
X16234357Y-13720452D01*
X16224833Y-13701405D01*
X16224833Y-13529976D01*
X16405786Y-13720452D02*
X16386738Y-13729976D01*
X16348643Y-13729976D01*
X16329595Y-13720452D01*
X16320071Y-13701405D01*
X16320071Y-13625214D01*
X16329595Y-13606167D01*
X16348643Y-13596643D01*
X16386738Y-13596643D01*
X16405786Y-13606167D01*
X16415309Y-13625214D01*
X16415309Y-13644262D01*
X16320071Y-13663309D01*
X16491500Y-13720452D02*
X16510548Y-13729976D01*
X16548643Y-13729976D01*
X16567690Y-13720452D01*
X16577214Y-13701405D01*
X16577214Y-13691881D01*
X16567690Y-13672833D01*
X16548643Y-13663309D01*
X16520071Y-13663309D01*
X16501024Y-13653786D01*
X16491500Y-13634738D01*
X16491500Y-13625214D01*
X16501024Y-13606167D01*
X16520071Y-13596643D01*
X16548643Y-13596643D01*
X16567690Y-13606167D01*
X16643881Y-13806167D02*
X16653405Y-13796643D01*
X16672452Y-13768071D01*
X16681976Y-13749024D01*
X16691500Y-13720452D01*
X16701024Y-13672833D01*
X16701024Y-13634738D01*
X16691500Y-13587119D01*
X16681976Y-13558548D01*
X16672452Y-13539500D01*
X16653405Y-13510928D01*
X16643881Y-13501405D01*
D10*
X11674178Y-13921178D02*
X11674178Y-13885822D01*
X11638822Y-13885822D01*
X11638822Y-13921178D01*
X11674178Y-13921178D01*
D11*
X11977214Y-13793976D02*
X11996262Y-13793976D01*
X12015309Y-13803500D01*
X12024833Y-13813024D01*
X12034357Y-13832071D01*
X12043881Y-13870167D01*
X12043881Y-13917786D01*
X12034357Y-13955881D01*
X12024833Y-13974928D01*
X12015309Y-13984452D01*
X11996262Y-13993976D01*
X11977214Y-13993976D01*
X11958167Y-13984452D01*
X11948643Y-13974928D01*
X11939119Y-13955881D01*
X11929595Y-13917786D01*
X11929595Y-13870167D01*
X11939119Y-13832071D01*
X11948643Y-13813024D01*
X11958167Y-13803500D01*
X11977214Y-13793976D01*
X12129595Y-13974928D02*
X12139119Y-13984452D01*
X12129595Y-13993976D01*
X12120071Y-13984452D01*
X12129595Y-13974928D01*
X12129595Y-13993976D01*
X12320071Y-13793976D02*
X12224833Y-13793976D01*
X12215309Y-13889214D01*
X12224833Y-13879690D01*
X12243881Y-13870167D01*
X12291500Y-13870167D01*
X12310548Y-13879690D01*
X12320071Y-13889214D01*
X12329595Y-13908262D01*
X12329595Y-13955881D01*
X12320071Y-13974928D01*
X12310548Y-13984452D01*
X12291500Y-13993976D01*
X12243881Y-13993976D01*
X12224833Y-13984452D01*
X12215309Y-13974928D01*
X12453405Y-13793976D02*
X12472452Y-13793976D01*
X12491500Y-13803500D01*
X12501024Y-13813024D01*
X12510548Y-13832071D01*
X12520071Y-13870167D01*
X12520071Y-13917786D01*
X12510548Y-13955881D01*
X12501024Y-13974928D01*
X12491500Y-13984452D01*
X12472452Y-13993976D01*
X12453405Y-13993976D01*
X12434357Y-13984452D01*
X12424833Y-13974928D01*
X12415309Y-13955881D01*
X12405786Y-13917786D01*
X12405786Y-13870167D01*
X12415309Y-13832071D01*
X12424833Y-13813024D01*
X12434357Y-13803500D01*
X12453405Y-13793976D01*
X12643881Y-13793976D02*
X12662928Y-13793976D01*
X12681976Y-13803500D01*
X12691500Y-13813024D01*
X12701024Y-13832071D01*
X12710548Y-13870167D01*
X12710548Y-13917786D01*
X12701024Y-13955881D01*
X12691500Y-13974928D01*
X12681976Y-13984452D01*
X12662928Y-13993976D01*
X12643881Y-13993976D01*
X12624833Y-13984452D01*
X12615309Y-13974928D01*
X12605786Y-13955881D01*
X12596262Y-13917786D01*
X12596262Y-13870167D01*
X12605786Y-13832071D01*
X12615309Y-13813024D01*
X12624833Y-13803500D01*
X12643881Y-13793976D01*
X12796262Y-13993976D02*
X12796262Y-13860643D01*
X12796262Y-13879690D02*
X12805786Y-13870167D01*
X12824833Y-13860643D01*
X12853405Y-13860643D01*
X12872452Y-13870167D01*
X12881976Y-13889214D01*
X12881976Y-13993976D01*
X12881976Y-13889214D02*
X12891500Y-13870167D01*
X12910548Y-13860643D01*
X12939119Y-13860643D01*
X12958167Y-13870167D01*
X12967690Y-13889214D01*
X12967690Y-13993976D01*
X13062928Y-13993976D02*
X13062928Y-13860643D01*
X13062928Y-13879690D02*
X13072452Y-13870167D01*
X13091500Y-13860643D01*
X13120071Y-13860643D01*
X13139119Y-13870167D01*
X13148643Y-13889214D01*
X13148643Y-13993976D01*
X13148643Y-13889214D02*
X13158167Y-13870167D01*
X13177214Y-13860643D01*
X13205786Y-13860643D01*
X13224833Y-13870167D01*
X13234357Y-13889214D01*
X13234357Y-13993976D01*
X13624833Y-13784452D02*
X13453405Y-14041595D01*
X13881976Y-13793976D02*
X13901024Y-13793976D01*
X13920071Y-13803500D01*
X13929595Y-13813024D01*
X13939119Y-13832071D01*
X13948643Y-13870167D01*
X13948643Y-13917786D01*
X13939119Y-13955881D01*
X13929595Y-13974928D01*
X13920071Y-13984452D01*
X13901024Y-13993976D01*
X13881976Y-13993976D01*
X13862928Y-13984452D01*
X13853405Y-13974928D01*
X13843881Y-13955881D01*
X13834357Y-13917786D01*
X13834357Y-13870167D01*
X13843881Y-13832071D01*
X13853405Y-13813024D01*
X13862928Y-13803500D01*
X13881976Y-13793976D01*
X14034357Y-13974928D02*
X14043881Y-13984452D01*
X14034357Y-13993976D01*
X14024833Y-13984452D01*
X14034357Y-13974928D01*
X14034357Y-13993976D01*
X14167690Y-13793976D02*
X14186738Y-13793976D01*
X14205786Y-13803500D01*
X14215309Y-13813024D01*
X14224833Y-13832071D01*
X14234357Y-13870167D01*
X14234357Y-13917786D01*
X14224833Y-13955881D01*
X14215309Y-13974928D01*
X14205786Y-13984452D01*
X14186738Y-13993976D01*
X14167690Y-13993976D01*
X14148643Y-13984452D01*
X14139119Y-13974928D01*
X14129595Y-13955881D01*
X14120071Y-13917786D01*
X14120071Y-13870167D01*
X14129595Y-13832071D01*
X14139119Y-13813024D01*
X14148643Y-13803500D01*
X14167690Y-13793976D01*
X14424833Y-13993976D02*
X14310548Y-13993976D01*
X14367690Y-13993976D02*
X14367690Y-13793976D01*
X14348643Y-13822548D01*
X14329595Y-13841595D01*
X14310548Y-13851119D01*
X14520071Y-13993976D02*
X14558167Y-13993976D01*
X14577214Y-13984452D01*
X14586738Y-13974928D01*
X14605786Y-13946357D01*
X14615309Y-13908262D01*
X14615309Y-13832071D01*
X14605786Y-13813024D01*
X14596262Y-13803500D01*
X14577214Y-13793976D01*
X14539119Y-13793976D01*
X14520071Y-13803500D01*
X14510548Y-13813024D01*
X14501024Y-13832071D01*
X14501024Y-13879690D01*
X14510548Y-13898738D01*
X14520071Y-13908262D01*
X14539119Y-13917786D01*
X14577214Y-13917786D01*
X14596262Y-13908262D01*
X14605786Y-13898738D01*
X14615309Y-13879690D01*
X14681976Y-13793976D02*
X14815309Y-13793976D01*
X14729595Y-13993976D01*
X14881976Y-13793976D02*
X14881976Y-13832071D01*
X14958167Y-13793976D02*
X14958167Y-13832071D01*
X15253405Y-14070167D02*
X15243881Y-14060643D01*
X15224833Y-14032071D01*
X15215309Y-14013024D01*
X15205786Y-13984452D01*
X15196262Y-13936833D01*
X15196262Y-13898738D01*
X15205786Y-13851119D01*
X15215309Y-13822548D01*
X15224833Y-13803500D01*
X15243881Y-13774928D01*
X15253405Y-13765405D01*
X15320071Y-13813024D02*
X15329595Y-13803500D01*
X15348643Y-13793976D01*
X15396262Y-13793976D01*
X15415309Y-13803500D01*
X15424833Y-13813024D01*
X15434357Y-13832071D01*
X15434357Y-13851119D01*
X15424833Y-13879690D01*
X15310548Y-13993976D01*
X15434357Y-13993976D01*
X15558167Y-13793976D02*
X15577214Y-13793976D01*
X15596262Y-13803500D01*
X15605786Y-13813024D01*
X15615309Y-13832071D01*
X15624833Y-13870167D01*
X15624833Y-13917786D01*
X15615309Y-13955881D01*
X15605786Y-13974928D01*
X15596262Y-13984452D01*
X15577214Y-13993976D01*
X15558167Y-13993976D01*
X15539119Y-13984452D01*
X15529595Y-13974928D01*
X15520071Y-13955881D01*
X15510548Y-13917786D01*
X15510548Y-13870167D01*
X15520071Y-13832071D01*
X15529595Y-13813024D01*
X15539119Y-13803500D01*
X15558167Y-13793976D01*
X15862928Y-13993976D02*
X15862928Y-13793976D01*
X15948643Y-13993976D02*
X15948643Y-13889214D01*
X15939119Y-13870167D01*
X15920071Y-13860643D01*
X15891500Y-13860643D01*
X15872452Y-13870167D01*
X15862928Y-13879690D01*
X16072452Y-13993976D02*
X16053405Y-13984452D01*
X16043881Y-13974928D01*
X16034357Y-13955881D01*
X16034357Y-13898738D01*
X16043881Y-13879690D01*
X16053405Y-13870167D01*
X16072452Y-13860643D01*
X16101024Y-13860643D01*
X16120071Y-13870167D01*
X16129595Y-13879690D01*
X16139119Y-13898738D01*
X16139119Y-13955881D01*
X16129595Y-13974928D01*
X16120071Y-13984452D01*
X16101024Y-13993976D01*
X16072452Y-13993976D01*
X16253405Y-13993976D02*
X16234357Y-13984452D01*
X16224833Y-13965405D01*
X16224833Y-13793976D01*
X16405786Y-13984452D02*
X16386738Y-13993976D01*
X16348643Y-13993976D01*
X16329595Y-13984452D01*
X16320071Y-13965405D01*
X16320071Y-13889214D01*
X16329595Y-13870167D01*
X16348643Y-13860643D01*
X16386738Y-13860643D01*
X16405786Y-13870167D01*
X16415309Y-13889214D01*
X16415309Y-13908262D01*
X16320071Y-13927309D01*
X16491500Y-13984452D02*
X16510548Y-13993976D01*
X16548643Y-13993976D01*
X16567690Y-13984452D01*
X16577214Y-13965405D01*
X16577214Y-13955881D01*
X16567690Y-13936833D01*
X16548643Y-13927309D01*
X16520071Y-13927309D01*
X16501024Y-13917786D01*
X16491500Y-13898738D01*
X16491500Y-13889214D01*
X16501024Y-13870167D01*
X16520071Y-13860643D01*
X16548643Y-13860643D01*
X16567690Y-13870167D01*
X16643881Y-14070167D02*
X16653405Y-14060643D01*
X16672452Y-14032071D01*
X16681976Y-14013024D01*
X16691500Y-13984452D01*
X16701024Y-13936833D01*
X16701024Y-13898738D01*
X16691500Y-13851119D01*
X16681976Y-13822548D01*
X16672452Y-13803500D01*
X16653405Y-13774928D01*
X16643881Y-13765405D01*
D15*
X11636500Y-14212500D02*
X11681500Y-14167500D01*
X11636500Y-14122500D01*
X11591500Y-14167500D01*
X11636500Y-14212500D01*
D11*
X11977214Y-14057976D02*
X11996262Y-14057976D01*
X12015309Y-14067500D01*
X12024833Y-14077024D01*
X12034357Y-14096071D01*
X12043881Y-14134167D01*
X12043881Y-14181786D01*
X12034357Y-14219881D01*
X12024833Y-14238928D01*
X12015309Y-14248452D01*
X11996262Y-14257976D01*
X11977214Y-14257976D01*
X11958167Y-14248452D01*
X11948643Y-14238928D01*
X11939119Y-14219881D01*
X11929595Y-14181786D01*
X11929595Y-14134167D01*
X11939119Y-14096071D01*
X11948643Y-14077024D01*
X11958167Y-14067500D01*
X11977214Y-14057976D01*
X12129595Y-14238928D02*
X12139119Y-14248452D01*
X12129595Y-14257976D01*
X12120071Y-14248452D01*
X12129595Y-14238928D01*
X12129595Y-14257976D01*
X12234357Y-14257976D02*
X12272452Y-14257976D01*
X12291500Y-14248452D01*
X12301024Y-14238928D01*
X12320071Y-14210357D01*
X12329595Y-14172262D01*
X12329595Y-14096071D01*
X12320071Y-14077024D01*
X12310548Y-14067500D01*
X12291500Y-14057976D01*
X12253405Y-14057976D01*
X12234357Y-14067500D01*
X12224833Y-14077024D01*
X12215309Y-14096071D01*
X12215309Y-14143690D01*
X12224833Y-14162738D01*
X12234357Y-14172262D01*
X12253405Y-14181786D01*
X12291500Y-14181786D01*
X12310548Y-14172262D01*
X12320071Y-14162738D01*
X12329595Y-14143690D01*
X12453405Y-14057976D02*
X12472452Y-14057976D01*
X12491500Y-14067500D01*
X12501024Y-14077024D01*
X12510548Y-14096071D01*
X12520071Y-14134167D01*
X12520071Y-14181786D01*
X12510548Y-14219881D01*
X12501024Y-14238928D01*
X12491500Y-14248452D01*
X12472452Y-14257976D01*
X12453405Y-14257976D01*
X12434357Y-14248452D01*
X12424833Y-14238928D01*
X12415309Y-14219881D01*
X12405786Y-14181786D01*
X12405786Y-14134167D01*
X12415309Y-14096071D01*
X12424833Y-14077024D01*
X12434357Y-14067500D01*
X12453405Y-14057976D01*
X12643881Y-14057976D02*
X12662928Y-14057976D01*
X12681976Y-14067500D01*
X12691500Y-14077024D01*
X12701024Y-14096071D01*
X12710548Y-14134167D01*
X12710548Y-14181786D01*
X12701024Y-14219881D01*
X12691500Y-14238928D01*
X12681976Y-14248452D01*
X12662928Y-14257976D01*
X12643881Y-14257976D01*
X12624833Y-14248452D01*
X12615309Y-14238928D01*
X12605786Y-14219881D01*
X12596262Y-14181786D01*
X12596262Y-14134167D01*
X12605786Y-14096071D01*
X12615309Y-14077024D01*
X12624833Y-14067500D01*
X12643881Y-14057976D01*
X12796262Y-14257976D02*
X12796262Y-14124643D01*
X12796262Y-14143690D02*
X12805786Y-14134167D01*
X12824833Y-14124643D01*
X12853405Y-14124643D01*
X12872452Y-14134167D01*
X12881976Y-14153214D01*
X12881976Y-14257976D01*
X12881976Y-14153214D02*
X12891500Y-14134167D01*
X12910548Y-14124643D01*
X12939119Y-14124643D01*
X12958167Y-14134167D01*
X12967690Y-14153214D01*
X12967690Y-14257976D01*
X13062928Y-14257976D02*
X13062928Y-14124643D01*
X13062928Y-14143690D02*
X13072452Y-14134167D01*
X13091500Y-14124643D01*
X13120071Y-14124643D01*
X13139119Y-14134167D01*
X13148643Y-14153214D01*
X13148643Y-14257976D01*
X13148643Y-14153214D02*
X13158167Y-14134167D01*
X13177214Y-14124643D01*
X13205786Y-14124643D01*
X13224833Y-14134167D01*
X13234357Y-14153214D01*
X13234357Y-14257976D01*
X13624833Y-14048452D02*
X13453405Y-14305595D01*
X13881976Y-14057976D02*
X13901024Y-14057976D01*
X13920071Y-14067500D01*
X13929595Y-14077024D01*
X13939119Y-14096071D01*
X13948643Y-14134167D01*
X13948643Y-14181786D01*
X13939119Y-14219881D01*
X13929595Y-14238928D01*
X13920071Y-14248452D01*
X13901024Y-14257976D01*
X13881976Y-14257976D01*
X13862928Y-14248452D01*
X13853405Y-14238928D01*
X13843881Y-14219881D01*
X13834357Y-14181786D01*
X13834357Y-14134167D01*
X13843881Y-14096071D01*
X13853405Y-14077024D01*
X13862928Y-14067500D01*
X13881976Y-14057976D01*
X14034357Y-14238928D02*
X14043881Y-14248452D01*
X14034357Y-14257976D01*
X14024833Y-14248452D01*
X14034357Y-14238928D01*
X14034357Y-14257976D01*
X14167690Y-14057976D02*
X14186738Y-14057976D01*
X14205786Y-14067500D01*
X14215309Y-14077024D01*
X14224833Y-14096071D01*
X14234357Y-14134167D01*
X14234357Y-14181786D01*
X14224833Y-14219881D01*
X14215309Y-14238928D01*
X14205786Y-14248452D01*
X14186738Y-14257976D01*
X14167690Y-14257976D01*
X14148643Y-14248452D01*
X14139119Y-14238928D01*
X14129595Y-14219881D01*
X14120071Y-14181786D01*
X14120071Y-14134167D01*
X14129595Y-14096071D01*
X14139119Y-14077024D01*
X14148643Y-14067500D01*
X14167690Y-14057976D01*
X14301024Y-14057976D02*
X14424833Y-14057976D01*
X14358167Y-14134167D01*
X14386738Y-14134167D01*
X14405786Y-14143690D01*
X14415309Y-14153214D01*
X14424833Y-14172262D01*
X14424833Y-14219881D01*
X14415309Y-14238928D01*
X14405786Y-14248452D01*
X14386738Y-14257976D01*
X14329595Y-14257976D01*
X14310548Y-14248452D01*
X14301024Y-14238928D01*
X14605786Y-14057976D02*
X14510548Y-14057976D01*
X14501024Y-14153214D01*
X14510548Y-14143690D01*
X14529595Y-14134167D01*
X14577214Y-14134167D01*
X14596262Y-14143690D01*
X14605786Y-14153214D01*
X14615309Y-14172262D01*
X14615309Y-14219881D01*
X14605786Y-14238928D01*
X14596262Y-14248452D01*
X14577214Y-14257976D01*
X14529595Y-14257976D01*
X14510548Y-14248452D01*
X14501024Y-14238928D01*
X14786738Y-14124643D02*
X14786738Y-14257976D01*
X14739119Y-14048452D02*
X14691500Y-14191309D01*
X14815309Y-14191309D01*
X14881976Y-14057976D02*
X14881976Y-14096071D01*
X14958167Y-14057976D02*
X14958167Y-14096071D01*
X15253405Y-14334167D02*
X15243881Y-14324643D01*
X15224833Y-14296071D01*
X15215309Y-14277024D01*
X15205786Y-14248452D01*
X15196262Y-14200833D01*
X15196262Y-14162738D01*
X15205786Y-14115119D01*
X15215309Y-14086548D01*
X15224833Y-14067500D01*
X15243881Y-14038928D01*
X15253405Y-14029405D01*
X15320071Y-14077024D02*
X15329595Y-14067500D01*
X15348643Y-14057976D01*
X15396262Y-14057976D01*
X15415309Y-14067500D01*
X15424833Y-14077024D01*
X15434357Y-14096071D01*
X15434357Y-14115119D01*
X15424833Y-14143690D01*
X15310548Y-14257976D01*
X15434357Y-14257976D01*
X15672452Y-14257976D02*
X15672452Y-14057976D01*
X15758167Y-14257976D02*
X15758167Y-14153214D01*
X15748643Y-14134167D01*
X15729595Y-14124643D01*
X15701024Y-14124643D01*
X15681976Y-14134167D01*
X15672452Y-14143690D01*
X15881976Y-14257976D02*
X15862928Y-14248452D01*
X15853405Y-14238928D01*
X15843881Y-14219881D01*
X15843881Y-14162738D01*
X15853405Y-14143690D01*
X15862928Y-14134167D01*
X15881976Y-14124643D01*
X15910548Y-14124643D01*
X15929595Y-14134167D01*
X15939119Y-14143690D01*
X15948643Y-14162738D01*
X15948643Y-14219881D01*
X15939119Y-14238928D01*
X15929595Y-14248452D01*
X15910548Y-14257976D01*
X15881976Y-14257976D01*
X16062928Y-14257976D02*
X16043881Y-14248452D01*
X16034357Y-14229405D01*
X16034357Y-14057976D01*
X16215309Y-14248452D02*
X16196262Y-14257976D01*
X16158167Y-14257976D01*
X16139119Y-14248452D01*
X16129595Y-14229405D01*
X16129595Y-14153214D01*
X16139119Y-14134167D01*
X16158167Y-14124643D01*
X16196262Y-14124643D01*
X16215309Y-14134167D01*
X16224833Y-14153214D01*
X16224833Y-14172262D01*
X16129595Y-14191309D01*
X16301024Y-14248452D02*
X16320071Y-14257976D01*
X16358167Y-14257976D01*
X16377214Y-14248452D01*
X16386738Y-14229405D01*
X16386738Y-14219881D01*
X16377214Y-14200833D01*
X16358167Y-14191309D01*
X16329595Y-14191309D01*
X16310548Y-14181786D01*
X16301024Y-14162738D01*
X16301024Y-14153214D01*
X16310548Y-14134167D01*
X16329595Y-14124643D01*
X16358167Y-14124643D01*
X16377214Y-14134167D01*
X16453405Y-14334167D02*
X16462928Y-14324643D01*
X16481976Y-14296071D01*
X16491500Y-14277024D01*
X16501024Y-14248452D01*
X16510548Y-14200833D01*
X16510548Y-14162738D01*
X16501024Y-14115119D01*
X16491500Y-14086548D01*
X16481976Y-14067500D01*
X16462928Y-14038928D01*
X16453405Y-14029405D01*
D16*
X11581500Y-14381500D02*
X11681500Y-14481500D01*
X11681500Y-14381500D02*
X11581500Y-14481500D01*
X11681500Y-14431500D02*
G75*
G03*
X11681500Y-14431500I-50000J0D01*
G01*
D11*
X12043881Y-14521976D02*
X11929595Y-14521976D01*
X11986738Y-14521976D02*
X11986738Y-14321976D01*
X11967690Y-14350548D01*
X11948643Y-14369595D01*
X11929595Y-14379119D01*
X12129595Y-14502928D02*
X12139119Y-14512452D01*
X12129595Y-14521976D01*
X12120071Y-14512452D01*
X12129595Y-14502928D01*
X12129595Y-14521976D01*
X12262928Y-14321976D02*
X12281976Y-14321976D01*
X12301024Y-14331500D01*
X12310548Y-14341024D01*
X12320071Y-14360071D01*
X12329595Y-14398167D01*
X12329595Y-14445786D01*
X12320071Y-14483881D01*
X12310548Y-14502928D01*
X12301024Y-14512452D01*
X12281976Y-14521976D01*
X12262928Y-14521976D01*
X12243881Y-14512452D01*
X12234357Y-14502928D01*
X12224833Y-14483881D01*
X12215309Y-14445786D01*
X12215309Y-14398167D01*
X12224833Y-14360071D01*
X12234357Y-14341024D01*
X12243881Y-14331500D01*
X12262928Y-14321976D01*
X12453405Y-14321976D02*
X12472452Y-14321976D01*
X12491500Y-14331500D01*
X12501024Y-14341024D01*
X12510548Y-14360071D01*
X12520071Y-14398167D01*
X12520071Y-14445786D01*
X12510548Y-14483881D01*
X12501024Y-14502928D01*
X12491500Y-14512452D01*
X12472452Y-14521976D01*
X12453405Y-14521976D01*
X12434357Y-14512452D01*
X12424833Y-14502928D01*
X12415309Y-14483881D01*
X12405786Y-14445786D01*
X12405786Y-14398167D01*
X12415309Y-14360071D01*
X12424833Y-14341024D01*
X12434357Y-14331500D01*
X12453405Y-14321976D01*
X12643881Y-14321976D02*
X12662928Y-14321976D01*
X12681976Y-14331500D01*
X12691500Y-14341024D01*
X12701024Y-14360071D01*
X12710548Y-14398167D01*
X12710548Y-14445786D01*
X12701024Y-14483881D01*
X12691500Y-14502928D01*
X12681976Y-14512452D01*
X12662928Y-14521976D01*
X12643881Y-14521976D01*
X12624833Y-14512452D01*
X12615309Y-14502928D01*
X12605786Y-14483881D01*
X12596262Y-14445786D01*
X12596262Y-14398167D01*
X12605786Y-14360071D01*
X12615309Y-14341024D01*
X12624833Y-14331500D01*
X12643881Y-14321976D01*
X12796262Y-14521976D02*
X12796262Y-14388643D01*
X12796262Y-14407690D02*
X12805786Y-14398167D01*
X12824833Y-14388643D01*
X12853405Y-14388643D01*
X12872452Y-14398167D01*
X12881976Y-14417214D01*
X12881976Y-14521976D01*
X12881976Y-14417214D02*
X12891500Y-14398167D01*
X12910548Y-14388643D01*
X12939119Y-14388643D01*
X12958167Y-14398167D01*
X12967690Y-14417214D01*
X12967690Y-14521976D01*
X13062928Y-14521976D02*
X13062928Y-14388643D01*
X13062928Y-14407690D02*
X13072452Y-14398167D01*
X13091500Y-14388643D01*
X13120071Y-14388643D01*
X13139119Y-14398167D01*
X13148643Y-14417214D01*
X13148643Y-14521976D01*
X13148643Y-14417214D02*
X13158167Y-14398167D01*
X13177214Y-14388643D01*
X13205786Y-14388643D01*
X13224833Y-14398167D01*
X13234357Y-14417214D01*
X13234357Y-14521976D01*
X13624833Y-14312452D02*
X13453405Y-14569595D01*
X13881976Y-14321976D02*
X13901024Y-14321976D01*
X13920071Y-14331500D01*
X13929595Y-14341024D01*
X13939119Y-14360071D01*
X13948643Y-14398167D01*
X13948643Y-14445786D01*
X13939119Y-14483881D01*
X13929595Y-14502928D01*
X13920071Y-14512452D01*
X13901024Y-14521976D01*
X13881976Y-14521976D01*
X13862928Y-14512452D01*
X13853405Y-14502928D01*
X13843881Y-14483881D01*
X13834357Y-14445786D01*
X13834357Y-14398167D01*
X13843881Y-14360071D01*
X13853405Y-14341024D01*
X13862928Y-14331500D01*
X13881976Y-14321976D01*
X14034357Y-14502928D02*
X14043881Y-14512452D01*
X14034357Y-14521976D01*
X14024833Y-14512452D01*
X14034357Y-14502928D01*
X14034357Y-14521976D01*
X14167690Y-14321976D02*
X14186738Y-14321976D01*
X14205786Y-14331500D01*
X14215309Y-14341024D01*
X14224833Y-14360071D01*
X14234357Y-14398167D01*
X14234357Y-14445786D01*
X14224833Y-14483881D01*
X14215309Y-14502928D01*
X14205786Y-14512452D01*
X14186738Y-14521976D01*
X14167690Y-14521976D01*
X14148643Y-14512452D01*
X14139119Y-14502928D01*
X14129595Y-14483881D01*
X14120071Y-14445786D01*
X14120071Y-14398167D01*
X14129595Y-14360071D01*
X14139119Y-14341024D01*
X14148643Y-14331500D01*
X14167690Y-14321976D01*
X14301024Y-14321976D02*
X14424833Y-14321976D01*
X14358167Y-14398167D01*
X14386738Y-14398167D01*
X14405786Y-14407690D01*
X14415309Y-14417214D01*
X14424833Y-14436262D01*
X14424833Y-14483881D01*
X14415309Y-14502928D01*
X14405786Y-14512452D01*
X14386738Y-14521976D01*
X14329595Y-14521976D01*
X14310548Y-14512452D01*
X14301024Y-14502928D01*
X14520071Y-14521976D02*
X14558167Y-14521976D01*
X14577214Y-14512452D01*
X14586738Y-14502928D01*
X14605786Y-14474357D01*
X14615309Y-14436262D01*
X14615309Y-14360071D01*
X14605786Y-14341024D01*
X14596262Y-14331500D01*
X14577214Y-14321976D01*
X14539119Y-14321976D01*
X14520071Y-14331500D01*
X14510548Y-14341024D01*
X14501024Y-14360071D01*
X14501024Y-14407690D01*
X14510548Y-14426738D01*
X14520071Y-14436262D01*
X14539119Y-14445786D01*
X14577214Y-14445786D01*
X14596262Y-14436262D01*
X14605786Y-14426738D01*
X14615309Y-14407690D01*
X14786738Y-14388643D02*
X14786738Y-14521976D01*
X14739119Y-14312452D02*
X14691500Y-14455309D01*
X14815309Y-14455309D01*
X14881976Y-14321976D02*
X14881976Y-14360071D01*
X14958167Y-14321976D02*
X14958167Y-14360071D01*
X15253405Y-14598167D02*
X15243881Y-14588643D01*
X15224833Y-14560071D01*
X15215309Y-14541024D01*
X15205786Y-14512452D01*
X15196262Y-14464833D01*
X15196262Y-14426738D01*
X15205786Y-14379119D01*
X15215309Y-14350548D01*
X15224833Y-14331500D01*
X15243881Y-14302928D01*
X15253405Y-14293405D01*
X15434357Y-14521976D02*
X15320071Y-14521976D01*
X15377214Y-14521976D02*
X15377214Y-14321976D01*
X15358167Y-14350548D01*
X15339119Y-14369595D01*
X15320071Y-14379119D01*
X15501024Y-14321976D02*
X15624833Y-14321976D01*
X15558167Y-14398167D01*
X15586738Y-14398167D01*
X15605786Y-14407690D01*
X15615309Y-14417214D01*
X15624833Y-14436262D01*
X15624833Y-14483881D01*
X15615309Y-14502928D01*
X15605786Y-14512452D01*
X15586738Y-14521976D01*
X15529595Y-14521976D01*
X15510548Y-14512452D01*
X15501024Y-14502928D01*
X15691500Y-14321976D02*
X15815309Y-14321976D01*
X15748643Y-14398167D01*
X15777214Y-14398167D01*
X15796262Y-14407690D01*
X15805786Y-14417214D01*
X15815309Y-14436262D01*
X15815309Y-14483881D01*
X15805786Y-14502928D01*
X15796262Y-14512452D01*
X15777214Y-14521976D01*
X15720071Y-14521976D01*
X15701024Y-14512452D01*
X15691500Y-14502928D01*
X16053405Y-14521976D02*
X16053405Y-14321976D01*
X16139119Y-14521976D02*
X16139119Y-14417214D01*
X16129595Y-14398167D01*
X16110548Y-14388643D01*
X16081976Y-14388643D01*
X16062928Y-14398167D01*
X16053405Y-14407690D01*
X16262928Y-14521976D02*
X16243881Y-14512452D01*
X16234357Y-14502928D01*
X16224833Y-14483881D01*
X16224833Y-14426738D01*
X16234357Y-14407690D01*
X16243881Y-14398167D01*
X16262928Y-14388643D01*
X16291500Y-14388643D01*
X16310548Y-14398167D01*
X16320071Y-14407690D01*
X16329595Y-14426738D01*
X16329595Y-14483881D01*
X16320071Y-14502928D01*
X16310548Y-14512452D01*
X16291500Y-14521976D01*
X16262928Y-14521976D01*
X16443881Y-14521976D02*
X16424833Y-14512452D01*
X16415309Y-14493405D01*
X16415309Y-14321976D01*
X16596262Y-14512452D02*
X16577214Y-14521976D01*
X16539119Y-14521976D01*
X16520071Y-14512452D01*
X16510548Y-14493405D01*
X16510548Y-14417214D01*
X16520071Y-14398167D01*
X16539119Y-14388643D01*
X16577214Y-14388643D01*
X16596262Y-14398167D01*
X16605786Y-14417214D01*
X16605786Y-14436262D01*
X16510548Y-14455309D01*
X16681976Y-14512452D02*
X16701024Y-14521976D01*
X16739119Y-14521976D01*
X16758167Y-14512452D01*
X16767690Y-14493405D01*
X16767690Y-14483881D01*
X16758167Y-14464833D01*
X16739119Y-14455309D01*
X16710548Y-14455309D01*
X16691500Y-14445786D01*
X16681976Y-14426738D01*
X16681976Y-14417214D01*
X16691500Y-14398167D01*
X16710548Y-14388643D01*
X16739119Y-14388643D01*
X16758167Y-14398167D01*
X16834357Y-14598167D02*
X16843881Y-14588643D01*
X16862929Y-14560071D01*
X16872452Y-14541024D01*
X16881976Y-14512452D01*
X16891500Y-14464833D01*
X16891500Y-14426738D01*
X16881976Y-14379119D01*
X16872452Y-14350548D01*
X16862929Y-14331500D01*
X16843881Y-14302928D01*
X16834357Y-14293405D01*
D17*
X11562500Y-14636000D02*
X11681500Y-14755000D01*
X11681500Y-14636000D02*
X11562500Y-14755000D01*
X11622000Y-14636000D02*
X11622000Y-14755000D01*
X11562500Y-14695500D02*
X11681500Y-14695500D01*
D11*
X12043881Y-14785976D02*
X11929595Y-14785976D01*
X11986738Y-14785976D02*
X11986738Y-14585976D01*
X11967690Y-14614548D01*
X11948643Y-14633595D01*
X11929595Y-14643119D01*
X12129595Y-14766928D02*
X12139119Y-14776452D01*
X12129595Y-14785976D01*
X12120071Y-14776452D01*
X12129595Y-14766928D01*
X12129595Y-14785976D01*
X12329595Y-14785976D02*
X12215309Y-14785976D01*
X12272452Y-14785976D02*
X12272452Y-14585976D01*
X12253405Y-14614548D01*
X12234357Y-14633595D01*
X12215309Y-14643119D01*
X12424833Y-14785976D02*
X12462928Y-14785976D01*
X12481976Y-14776452D01*
X12491500Y-14766928D01*
X12510548Y-14738357D01*
X12520071Y-14700262D01*
X12520071Y-14624071D01*
X12510548Y-14605024D01*
X12501024Y-14595500D01*
X12481976Y-14585976D01*
X12443881Y-14585976D01*
X12424833Y-14595500D01*
X12415309Y-14605024D01*
X12405786Y-14624071D01*
X12405786Y-14671690D01*
X12415309Y-14690738D01*
X12424833Y-14700262D01*
X12443881Y-14709786D01*
X12481976Y-14709786D01*
X12501024Y-14700262D01*
X12510548Y-14690738D01*
X12520071Y-14671690D01*
X12643881Y-14585976D02*
X12662928Y-14585976D01*
X12681976Y-14595500D01*
X12691500Y-14605024D01*
X12701024Y-14624071D01*
X12710548Y-14662167D01*
X12710548Y-14709786D01*
X12701024Y-14747881D01*
X12691500Y-14766928D01*
X12681976Y-14776452D01*
X12662928Y-14785976D01*
X12643881Y-14785976D01*
X12624833Y-14776452D01*
X12615309Y-14766928D01*
X12605786Y-14747881D01*
X12596262Y-14709786D01*
X12596262Y-14662167D01*
X12605786Y-14624071D01*
X12615309Y-14605024D01*
X12624833Y-14595500D01*
X12643881Y-14585976D01*
X12796262Y-14785976D02*
X12796262Y-14652643D01*
X12796262Y-14671690D02*
X12805786Y-14662167D01*
X12824833Y-14652643D01*
X12853405Y-14652643D01*
X12872452Y-14662167D01*
X12881976Y-14681214D01*
X12881976Y-14785976D01*
X12881976Y-14681214D02*
X12891500Y-14662167D01*
X12910548Y-14652643D01*
X12939119Y-14652643D01*
X12958167Y-14662167D01*
X12967690Y-14681214D01*
X12967690Y-14785976D01*
X13062928Y-14785976D02*
X13062928Y-14652643D01*
X13062928Y-14671690D02*
X13072452Y-14662167D01*
X13091500Y-14652643D01*
X13120071Y-14652643D01*
X13139119Y-14662167D01*
X13148643Y-14681214D01*
X13148643Y-14785976D01*
X13148643Y-14681214D02*
X13158167Y-14662167D01*
X13177214Y-14652643D01*
X13205786Y-14652643D01*
X13224833Y-14662167D01*
X13234357Y-14681214D01*
X13234357Y-14785976D01*
X13624833Y-14576452D02*
X13453405Y-14833595D01*
X13881976Y-14585976D02*
X13901024Y-14585976D01*
X13920071Y-14595500D01*
X13929595Y-14605024D01*
X13939119Y-14624071D01*
X13948643Y-14662167D01*
X13948643Y-14709786D01*
X13939119Y-14747881D01*
X13929595Y-14766928D01*
X13920071Y-14776452D01*
X13901024Y-14785976D01*
X13881976Y-14785976D01*
X13862928Y-14776452D01*
X13853405Y-14766928D01*
X13843881Y-14747881D01*
X13834357Y-14709786D01*
X13834357Y-14662167D01*
X13843881Y-14624071D01*
X13853405Y-14605024D01*
X13862928Y-14595500D01*
X13881976Y-14585976D01*
X14034357Y-14766928D02*
X14043881Y-14776452D01*
X14034357Y-14785976D01*
X14024833Y-14776452D01*
X14034357Y-14766928D01*
X14034357Y-14785976D01*
X14167690Y-14585976D02*
X14186738Y-14585976D01*
X14205786Y-14595500D01*
X14215309Y-14605024D01*
X14224833Y-14624071D01*
X14234357Y-14662167D01*
X14234357Y-14709786D01*
X14224833Y-14747881D01*
X14215309Y-14766928D01*
X14205786Y-14776452D01*
X14186738Y-14785976D01*
X14167690Y-14785976D01*
X14148643Y-14776452D01*
X14139119Y-14766928D01*
X14129595Y-14747881D01*
X14120071Y-14709786D01*
X14120071Y-14662167D01*
X14129595Y-14624071D01*
X14139119Y-14605024D01*
X14148643Y-14595500D01*
X14167690Y-14585976D01*
X14405786Y-14652643D02*
X14405786Y-14785976D01*
X14358167Y-14576452D02*
X14310548Y-14719309D01*
X14434357Y-14719309D01*
X14596262Y-14585976D02*
X14558167Y-14585976D01*
X14539119Y-14595500D01*
X14529595Y-14605024D01*
X14510548Y-14633595D01*
X14501024Y-14671690D01*
X14501024Y-14747881D01*
X14510548Y-14766928D01*
X14520071Y-14776452D01*
X14539119Y-14785976D01*
X14577214Y-14785976D01*
X14596262Y-14776452D01*
X14605786Y-14766928D01*
X14615309Y-14747881D01*
X14615309Y-14700262D01*
X14605786Y-14681214D01*
X14596262Y-14671690D01*
X14577214Y-14662167D01*
X14539119Y-14662167D01*
X14520071Y-14671690D01*
X14510548Y-14681214D01*
X14501024Y-14700262D01*
X14710548Y-14785976D02*
X14748643Y-14785976D01*
X14767690Y-14776452D01*
X14777214Y-14766928D01*
X14796262Y-14738357D01*
X14805786Y-14700262D01*
X14805786Y-14624071D01*
X14796262Y-14605024D01*
X14786738Y-14595500D01*
X14767690Y-14585976D01*
X14729595Y-14585976D01*
X14710548Y-14595500D01*
X14701024Y-14605024D01*
X14691500Y-14624071D01*
X14691500Y-14671690D01*
X14701024Y-14690738D01*
X14710548Y-14700262D01*
X14729595Y-14709786D01*
X14767690Y-14709786D01*
X14786738Y-14700262D01*
X14796262Y-14690738D01*
X14805786Y-14671690D01*
X14881976Y-14585976D02*
X14881976Y-14624071D01*
X14958167Y-14585976D02*
X14958167Y-14624071D01*
X15253405Y-14862167D02*
X15243881Y-14852643D01*
X15224833Y-14824071D01*
X15215309Y-14805024D01*
X15205786Y-14776452D01*
X15196262Y-14728833D01*
X15196262Y-14690738D01*
X15205786Y-14643119D01*
X15215309Y-14614548D01*
X15224833Y-14595500D01*
X15243881Y-14566928D01*
X15253405Y-14557405D01*
X15415309Y-14652643D02*
X15415309Y-14785976D01*
X15367690Y-14576452D02*
X15320071Y-14719309D01*
X15443881Y-14719309D01*
X15672452Y-14785976D02*
X15672452Y-14585976D01*
X15758167Y-14785976D02*
X15758167Y-14681214D01*
X15748643Y-14662167D01*
X15729595Y-14652643D01*
X15701024Y-14652643D01*
X15681976Y-14662167D01*
X15672452Y-14671690D01*
X15881976Y-14785976D02*
X15862928Y-14776452D01*
X15853405Y-14766928D01*
X15843881Y-14747881D01*
X15843881Y-14690738D01*
X15853405Y-14671690D01*
X15862928Y-14662167D01*
X15881976Y-14652643D01*
X15910548Y-14652643D01*
X15929595Y-14662167D01*
X15939119Y-14671690D01*
X15948643Y-14690738D01*
X15948643Y-14747881D01*
X15939119Y-14766928D01*
X15929595Y-14776452D01*
X15910548Y-14785976D01*
X15881976Y-14785976D01*
X16062928Y-14785976D02*
X16043881Y-14776452D01*
X16034357Y-14757405D01*
X16034357Y-14585976D01*
X16215309Y-14776452D02*
X16196262Y-14785976D01*
X16158167Y-14785976D01*
X16139119Y-14776452D01*
X16129595Y-14757405D01*
X16129595Y-14681214D01*
X16139119Y-14662167D01*
X16158167Y-14652643D01*
X16196262Y-14652643D01*
X16215309Y-14662167D01*
X16224833Y-14681214D01*
X16224833Y-14700262D01*
X16129595Y-14719309D01*
X16301024Y-14776452D02*
X16320071Y-14785976D01*
X16358167Y-14785976D01*
X16377214Y-14776452D01*
X16386738Y-14757405D01*
X16386738Y-14747881D01*
X16377214Y-14728833D01*
X16358167Y-14719309D01*
X16329595Y-14719309D01*
X16310548Y-14709786D01*
X16301024Y-14690738D01*
X16301024Y-14681214D01*
X16310548Y-14662167D01*
X16329595Y-14652643D01*
X16358167Y-14652643D01*
X16377214Y-14662167D01*
X16453405Y-14862167D02*
X16462928Y-14852643D01*
X16481976Y-14824071D01*
X16491500Y-14805024D01*
X16501024Y-14776452D01*
X16510548Y-14728833D01*
X16510548Y-14690738D01*
X16501024Y-14643119D01*
X16491500Y-14614548D01*
X16481976Y-14595500D01*
X16462928Y-14566928D01*
X16453405Y-14557405D01*
M02*
