G04 #@! TF.GenerationSoftware,KiCad,Pcbnew,(6.0.9)*
G04 #@! TF.CreationDate,2022-12-08T07:34:40+01:00*
G04 #@! TF.ProjectId,BlackPill-BMP,426c6163-6b50-4696-9c6c-2d424d502e6b,rev?*
G04 #@! TF.SameCoordinates,Original*
G04 #@! TF.FileFunction,Paste,Top*
G04 #@! TF.FilePolarity,Positive*
%FSLAX46Y46*%
G04 Gerber Fmt 4.6, Leading zero omitted, Abs format (unit mm)*
G04 Created by KiCad (PCBNEW (6.0.9)) date 2022-12-08 07:34:40*
%MOMM*%
%LPD*%
G01*
G04 APERTURE LIST*
G04 Aperture macros list*
%AMRoundRect*
0 Rectangle with rounded corners*
0 $1 Rounding radius*
0 $2 $3 $4 $5 $6 $7 $8 $9 X,Y pos of 4 corners*
0 Add a 4 corners polygon primitive as box body*
4,1,4,$2,$3,$4,$5,$6,$7,$8,$9,$2,$3,0*
0 Add four circle primitives for the rounded corners*
1,1,$1+$1,$2,$3*
1,1,$1+$1,$4,$5*
1,1,$1+$1,$6,$7*
1,1,$1+$1,$8,$9*
0 Add four rect primitives between the rounded corners*
20,1,$1+$1,$2,$3,$4,$5,0*
20,1,$1+$1,$4,$5,$6,$7,0*
20,1,$1+$1,$6,$7,$8,$9,0*
20,1,$1+$1,$8,$9,$2,$3,0*%
G04 Aperture macros list end*
%ADD10RoundRect,0.237500X-0.250000X-0.237500X0.250000X-0.237500X0.250000X0.237500X-0.250000X0.237500X0*%
%ADD11RoundRect,0.237500X0.250000X0.237500X-0.250000X0.237500X-0.250000X-0.237500X0.250000X-0.237500X0*%
%ADD12RoundRect,0.237500X0.237500X-0.300000X0.237500X0.300000X-0.237500X0.300000X-0.237500X-0.300000X0*%
%ADD13RoundRect,0.237500X0.300000X0.237500X-0.300000X0.237500X-0.300000X-0.237500X0.300000X-0.237500X0*%
%ADD14RoundRect,0.237500X-0.287500X-0.237500X0.287500X-0.237500X0.287500X0.237500X-0.287500X0.237500X0*%
%ADD15RoundRect,0.237500X-0.300000X-0.237500X0.300000X-0.237500X0.300000X0.237500X-0.300000X0.237500X0*%
%ADD16R,0.500000X0.400000*%
%ADD17R,0.500000X0.300000*%
%ADD18R,0.800000X0.300000*%
%ADD19RoundRect,0.100000X0.100000X-0.637500X0.100000X0.637500X-0.100000X0.637500X-0.100000X-0.637500X0*%
%ADD20R,1.560000X0.650000*%
%ADD21RoundRect,0.150000X-0.512500X-0.150000X0.512500X-0.150000X0.512500X0.150000X-0.512500X0.150000X0*%
%ADD22RoundRect,0.237500X-0.237500X0.300000X-0.237500X-0.300000X0.237500X-0.300000X0.237500X0.300000X0*%
G04 APERTURE END LIST*
D10*
X121769500Y-113768000D03*
X123594500Y-113768000D03*
X161596700Y-103100000D03*
X163421700Y-103100000D03*
D11*
X163421700Y-106148000D03*
X161596700Y-106148000D03*
D12*
X183235600Y-81305700D03*
X183235600Y-79580700D03*
D13*
X171196000Y-116816000D03*
X169471000Y-116816000D03*
D14*
X169446000Y-107531000D03*
X171196000Y-107531000D03*
D15*
X169444500Y-106021000D03*
X171169500Y-106021000D03*
D13*
X177015000Y-109650000D03*
X175290000Y-109650000D03*
D15*
X175290000Y-111200000D03*
X177015000Y-111200000D03*
D16*
X176538000Y-91428000D03*
D17*
X176538000Y-91928000D03*
X176538000Y-92428000D03*
D16*
X176538000Y-92928000D03*
X177538000Y-92928000D03*
D17*
X177538000Y-92428000D03*
X177538000Y-91928000D03*
D16*
X177538000Y-91428000D03*
D11*
X171246800Y-115292000D03*
X169421800Y-115292000D03*
D12*
X184759600Y-81305700D03*
X184759600Y-79580700D03*
D16*
X176530000Y-88380000D03*
D17*
X176530000Y-88880000D03*
X176530000Y-89380000D03*
D16*
X176530000Y-89880000D03*
X177530000Y-89880000D03*
D17*
X177530000Y-89380000D03*
X177530000Y-88880000D03*
D16*
X177530000Y-88380000D03*
D13*
X168756500Y-97766000D03*
X167031500Y-97766000D03*
D18*
X168376000Y-99302000D03*
X168376000Y-99802000D03*
X168376000Y-100302000D03*
X168376000Y-100802000D03*
X171476000Y-100802000D03*
X171476000Y-100302000D03*
X171476000Y-99802000D03*
X171476000Y-99302000D03*
D15*
X169471000Y-118340000D03*
X171196000Y-118340000D03*
D19*
X168484000Y-94532500D03*
X169134000Y-94532500D03*
X169784000Y-94532500D03*
X170434000Y-94532500D03*
X171084000Y-94532500D03*
X171734000Y-94532500D03*
X172384000Y-94532500D03*
X172384000Y-88807500D03*
X171734000Y-88807500D03*
X171084000Y-88807500D03*
X170434000Y-88807500D03*
X169784000Y-88807500D03*
X169134000Y-88807500D03*
X168484000Y-88807500D03*
D10*
X169440000Y-113768000D03*
X171265000Y-113768000D03*
D20*
X169164000Y-109563000D03*
X169164000Y-110513000D03*
X169164000Y-111463000D03*
X171864000Y-111463000D03*
X171864000Y-109563000D03*
D21*
X175265500Y-84370000D03*
X175265500Y-85320000D03*
X175265500Y-86270000D03*
X177540500Y-86270000D03*
X177540500Y-85320000D03*
X177540500Y-84370000D03*
D22*
X166624000Y-78869500D03*
X166624000Y-80594500D03*
D13*
X163371700Y-104624000D03*
X161646700Y-104624000D03*
D21*
X175265500Y-104944000D03*
X175265500Y-105894000D03*
X175265500Y-106844000D03*
X177540500Y-106844000D03*
X177540500Y-105894000D03*
X177540500Y-104944000D03*
D16*
X162060000Y-77204000D03*
D17*
X162060000Y-77704000D03*
X162060000Y-78204000D03*
D16*
X162060000Y-78704000D03*
X163060000Y-78704000D03*
D17*
X163060000Y-78204000D03*
X163060000Y-77704000D03*
D16*
X163060000Y-77204000D03*
D19*
X168484000Y-84880500D03*
X169134000Y-84880500D03*
X169784000Y-84880500D03*
X170434000Y-84880500D03*
X171084000Y-84880500D03*
X171734000Y-84880500D03*
X172384000Y-84880500D03*
X172384000Y-79155500D03*
X171734000Y-79155500D03*
X171084000Y-79155500D03*
X170434000Y-79155500D03*
X169784000Y-79155500D03*
X169134000Y-79155500D03*
X168484000Y-79155500D03*
D22*
X166624000Y-88521500D03*
X166624000Y-90246500D03*
D13*
X172566500Y-97766000D03*
X170841500Y-97766000D03*
D16*
X176530000Y-100568000D03*
D17*
X176530000Y-101068000D03*
X176530000Y-101568000D03*
D16*
X176530000Y-102068000D03*
X177530000Y-102068000D03*
D17*
X177530000Y-101568000D03*
X177530000Y-101068000D03*
D16*
X177530000Y-100568000D03*
X176538000Y-97524000D03*
D17*
X176538000Y-98024000D03*
X176538000Y-98524000D03*
D16*
X176538000Y-99024000D03*
X177538000Y-99024000D03*
D17*
X177538000Y-98524000D03*
X177538000Y-98024000D03*
D16*
X177538000Y-97524000D03*
M02*
