G04 #@! TF.GenerationSoftware,KiCad,Pcbnew,(6.0.9)*
G04 #@! TF.CreationDate,2022-12-08T07:34:40+01:00*
G04 #@! TF.ProjectId,BlackPill-BMP,426c6163-6b50-4696-9c6c-2d424d502e6b,rev?*
G04 #@! TF.SameCoordinates,Original*
G04 #@! TF.FileFunction,Legend,Top*
G04 #@! TF.FilePolarity,Positive*
%FSLAX46Y46*%
G04 Gerber Fmt 4.6, Leading zero omitted, Abs format (unit mm)*
G04 Created by KiCad (PCBNEW (6.0.9)) date 2022-12-08 07:34:40*
%MOMM*%
%LPD*%
G01*
G04 APERTURE LIST*
G04 Aperture macros list*
%AMRoundRect*
0 Rectangle with rounded corners*
0 $1 Rounding radius*
0 $2 $3 $4 $5 $6 $7 $8 $9 X,Y pos of 4 corners*
0 Add a 4 corners polygon primitive as box body*
4,1,4,$2,$3,$4,$5,$6,$7,$8,$9,$2,$3,0*
0 Add four circle primitives for the rounded corners*
1,1,$1+$1,$2,$3*
1,1,$1+$1,$4,$5*
1,1,$1+$1,$6,$7*
1,1,$1+$1,$8,$9*
0 Add four rect primitives between the rounded corners*
20,1,$1+$1,$2,$3,$4,$5,0*
20,1,$1+$1,$4,$5,$6,$7,0*
20,1,$1+$1,$6,$7,$8,$9,0*
20,1,$1+$1,$8,$9,$2,$3,0*%
G04 Aperture macros list end*
%ADD10C,0.120000*%
%ADD11C,0.400000*%
%ADD12C,0.150000*%
%ADD13C,0.180000*%
%ADD14C,0.300000*%
%ADD15C,0.100000*%
%ADD16RoundRect,0.250000X-0.845000X0.620000X-0.845000X-0.620000X0.845000X-0.620000X0.845000X0.620000X0*%
%ADD17O,2.190000X1.740000*%
%ADD18R,1.800000X1.800000*%
%ADD19C,1.800000*%
%ADD20RoundRect,0.237500X-0.250000X-0.237500X0.250000X-0.237500X0.250000X0.237500X-0.250000X0.237500X0*%
%ADD21RoundRect,0.237500X0.250000X0.237500X-0.250000X0.237500X-0.250000X-0.237500X0.250000X-0.237500X0*%
%ADD22R,1.700000X1.700000*%
%ADD23O,1.700000X1.700000*%
%ADD24RoundRect,0.250000X-0.600000X-0.600000X0.600000X-0.600000X0.600000X0.600000X-0.600000X0.600000X0*%
%ADD25C,1.700000*%
%ADD26RoundRect,0.237500X0.237500X-0.300000X0.237500X0.300000X-0.237500X0.300000X-0.237500X-0.300000X0*%
%ADD27RoundRect,0.237500X0.300000X0.237500X-0.300000X0.237500X-0.300000X-0.237500X0.300000X-0.237500X0*%
%ADD28RoundRect,0.237500X-0.287500X-0.237500X0.287500X-0.237500X0.287500X0.237500X-0.287500X0.237500X0*%
%ADD29RoundRect,0.237500X-0.300000X-0.237500X0.300000X-0.237500X0.300000X0.237500X-0.300000X0.237500X0*%
%ADD30R,0.500000X0.400000*%
%ADD31R,0.500000X0.300000*%
%ADD32R,0.800000X0.300000*%
%ADD33RoundRect,0.100000X0.100000X-0.637500X0.100000X0.637500X-0.100000X0.637500X-0.100000X-0.637500X0*%
%ADD34R,1.560000X0.650000*%
%ADD35RoundRect,0.150000X-0.512500X-0.150000X0.512500X-0.150000X0.512500X0.150000X-0.512500X0.150000X0*%
%ADD36RoundRect,0.237500X-0.237500X0.300000X-0.237500X-0.300000X0.237500X-0.300000X0.237500X0.300000X0*%
G04 APERTURE END LIST*
D10*
X166751000Y-118975000D02*
X163322000Y-118975000D01*
X165100000Y-110212000D02*
X165100000Y-118975000D01*
X163322000Y-110212000D02*
X163322000Y-118975000D01*
X163322000Y-114530000D02*
X165100000Y-114530000D01*
X165100000Y-116816000D02*
X163322000Y-116816000D01*
X132080000Y-119991000D02*
X132334000Y-120499000D01*
X144780000Y-119991000D02*
X145034000Y-120499000D01*
X132080000Y-123166000D02*
X147320000Y-123166000D01*
X163322000Y-112498000D02*
X165100000Y-112498000D01*
X129540000Y-121769000D02*
X144780000Y-121769000D01*
X166751000Y-110212000D02*
X166751000Y-118975000D01*
X132080000Y-119991000D02*
X132080000Y-123166000D01*
X129540000Y-119991000D02*
X129540000Y-121769000D01*
X129540000Y-121769000D02*
X128524000Y-121769000D01*
X144780000Y-121769000D02*
X144780000Y-119991000D01*
D11*
X187588752Y-116943000D02*
G75*
G03*
X187588752Y-116943000I-2676752J0D01*
G01*
D10*
X147320000Y-119991000D02*
X147574000Y-120499000D01*
X129540000Y-119991000D02*
X129794000Y-120499000D01*
X163322000Y-110212000D02*
X166751000Y-110212000D01*
X132080000Y-123166000D02*
X128524000Y-123166000D01*
X147320000Y-123166000D02*
X147320000Y-119991000D01*
D12*
X158465833Y-84772380D02*
X159037261Y-84772380D01*
X158751547Y-85772380D02*
X158751547Y-84772380D01*
X159942023Y-85677142D02*
X159894404Y-85724761D01*
X159751547Y-85772380D01*
X159656309Y-85772380D01*
X159513452Y-85724761D01*
X159418214Y-85629523D01*
X159370595Y-85534285D01*
X159322976Y-85343809D01*
X159322976Y-85200952D01*
X159370595Y-85010476D01*
X159418214Y-84915238D01*
X159513452Y-84820000D01*
X159656309Y-84772380D01*
X159751547Y-84772380D01*
X159894404Y-84820000D01*
X159942023Y-84867619D01*
X160370595Y-85772380D02*
X160370595Y-84772380D01*
X160942023Y-85772380D02*
X160513452Y-85200952D01*
X160942023Y-84772380D02*
X160370595Y-85343809D01*
X158795642Y-87312380D02*
X159367071Y-87312380D01*
X159081357Y-88312380D02*
X159081357Y-87312380D01*
X159700404Y-88312380D02*
X159700404Y-87312380D01*
X159938500Y-87312380D01*
X160081357Y-87360000D01*
X160176595Y-87455238D01*
X160224214Y-87550476D01*
X160271833Y-87740952D01*
X160271833Y-87883809D01*
X160224214Y-88074285D01*
X160176595Y-88169523D01*
X160081357Y-88264761D01*
X159938500Y-88312380D01*
X159700404Y-88312380D01*
X160700404Y-88312380D02*
X160700404Y-87312380D01*
X158224214Y-89852380D02*
X158795642Y-89852380D01*
X158509928Y-90852380D02*
X158509928Y-89852380D01*
X159128976Y-90852380D02*
X159128976Y-89852380D01*
X159367071Y-89852380D01*
X159509928Y-89900000D01*
X159605166Y-89995238D01*
X159652785Y-90090476D01*
X159700404Y-90280952D01*
X159700404Y-90423809D01*
X159652785Y-90614285D01*
X159605166Y-90709523D01*
X159509928Y-90804761D01*
X159367071Y-90852380D01*
X159128976Y-90852380D01*
X160319452Y-89852380D02*
X160509928Y-89852380D01*
X160605166Y-89900000D01*
X160700404Y-89995238D01*
X160748023Y-90185714D01*
X160748023Y-90519047D01*
X160700404Y-90709523D01*
X160605166Y-90804761D01*
X160509928Y-90852380D01*
X160319452Y-90852380D01*
X160224214Y-90804761D01*
X160128976Y-90709523D01*
X160081357Y-90519047D01*
X160081357Y-90185714D01*
X160128976Y-89995238D01*
X160224214Y-89900000D01*
X160319452Y-89852380D01*
X158557547Y-92392380D02*
X159128976Y-92392380D01*
X158843261Y-93392380D02*
X158843261Y-92392380D01*
X159414690Y-93344761D02*
X159557547Y-93392380D01*
X159795642Y-93392380D01*
X159890880Y-93344761D01*
X159938500Y-93297142D01*
X159986119Y-93201904D01*
X159986119Y-93106666D01*
X159938500Y-93011428D01*
X159890880Y-92963809D01*
X159795642Y-92916190D01*
X159605166Y-92868571D01*
X159509928Y-92820952D01*
X159462309Y-92773333D01*
X159414690Y-92678095D01*
X159414690Y-92582857D01*
X159462309Y-92487619D01*
X159509928Y-92440000D01*
X159605166Y-92392380D01*
X159843261Y-92392380D01*
X159986119Y-92440000D01*
X160271833Y-92392380D02*
X160843261Y-92392380D01*
X160557547Y-93392380D02*
X160557547Y-92392380D01*
X159033738Y-95932380D02*
X158700404Y-95456190D01*
X158462309Y-95932380D02*
X158462309Y-94932380D01*
X158843261Y-94932380D01*
X158938500Y-94980000D01*
X158986119Y-95027619D01*
X159033738Y-95122857D01*
X159033738Y-95265714D01*
X158986119Y-95360952D01*
X158938500Y-95408571D01*
X158843261Y-95456190D01*
X158462309Y-95456190D01*
X159414690Y-95884761D02*
X159557547Y-95932380D01*
X159795642Y-95932380D01*
X159890880Y-95884761D01*
X159938500Y-95837142D01*
X159986119Y-95741904D01*
X159986119Y-95646666D01*
X159938500Y-95551428D01*
X159890880Y-95503809D01*
X159795642Y-95456190D01*
X159605166Y-95408571D01*
X159509928Y-95360952D01*
X159462309Y-95313333D01*
X159414690Y-95218095D01*
X159414690Y-95122857D01*
X159462309Y-95027619D01*
X159509928Y-94980000D01*
X159605166Y-94932380D01*
X159843261Y-94932380D01*
X159986119Y-94980000D01*
X160271833Y-94932380D02*
X160843261Y-94932380D01*
X160557547Y-95932380D02*
X160557547Y-94932380D01*
X165349180Y-95019047D02*
X165349180Y-95495238D01*
X164349180Y-95495238D01*
X165349180Y-94542857D02*
X165301561Y-94638095D01*
X165253942Y-94685714D01*
X165158704Y-94733333D01*
X164872990Y-94733333D01*
X164777752Y-94685714D01*
X164730133Y-94638095D01*
X164682514Y-94542857D01*
X164682514Y-94400000D01*
X164730133Y-94304761D01*
X164777752Y-94257142D01*
X164872990Y-94209523D01*
X165158704Y-94209523D01*
X165253942Y-94257142D01*
X165301561Y-94304761D01*
X165349180Y-94400000D01*
X165349180Y-94542857D01*
X164682514Y-93352380D02*
X165492038Y-93352380D01*
X165587276Y-93400000D01*
X165634895Y-93447619D01*
X165682514Y-93542857D01*
X165682514Y-93685714D01*
X165634895Y-93780952D01*
X165301561Y-93352380D02*
X165349180Y-93447619D01*
X165349180Y-93638095D01*
X165301561Y-93733333D01*
X165253942Y-93780952D01*
X165158704Y-93828571D01*
X164872990Y-93828571D01*
X164777752Y-93780952D01*
X164730133Y-93733333D01*
X164682514Y-93638095D01*
X164682514Y-93447619D01*
X164730133Y-93352380D01*
X165349180Y-92876190D02*
X164682514Y-92876190D01*
X164349180Y-92876190D02*
X164396800Y-92923809D01*
X164444419Y-92876190D01*
X164396800Y-92828571D01*
X164349180Y-92876190D01*
X164444419Y-92876190D01*
X165301561Y-91971428D02*
X165349180Y-92066666D01*
X165349180Y-92257142D01*
X165301561Y-92352380D01*
X165253942Y-92400000D01*
X165158704Y-92447619D01*
X164872990Y-92447619D01*
X164777752Y-92400000D01*
X164730133Y-92352380D01*
X164682514Y-92257142D01*
X164682514Y-92066666D01*
X164730133Y-91971428D01*
X165063466Y-90828571D02*
X165063466Y-90352380D01*
X165349180Y-90923809D02*
X164349180Y-90590476D01*
X165349180Y-90257142D01*
X164682514Y-89923809D02*
X165349180Y-89923809D01*
X164777752Y-89923809D02*
X164730133Y-89876190D01*
X164682514Y-89780952D01*
X164682514Y-89638095D01*
X164730133Y-89542857D01*
X164825371Y-89495238D01*
X165349180Y-89495238D01*
X165349180Y-88590476D02*
X164825371Y-88590476D01*
X164730133Y-88638095D01*
X164682514Y-88733333D01*
X164682514Y-88923809D01*
X164730133Y-89019047D01*
X165301561Y-88590476D02*
X165349180Y-88685714D01*
X165349180Y-88923809D01*
X165301561Y-89019047D01*
X165206323Y-89066666D01*
X165111085Y-89066666D01*
X165015847Y-89019047D01*
X164968228Y-88923809D01*
X164968228Y-88685714D01*
X164920609Y-88590476D01*
X165349180Y-87971428D02*
X165301561Y-88066666D01*
X165206323Y-88114285D01*
X164349180Y-88114285D01*
X165349180Y-87590476D02*
X164682514Y-87590476D01*
X164349180Y-87590476D02*
X164396800Y-87638095D01*
X164444419Y-87590476D01*
X164396800Y-87542857D01*
X164349180Y-87590476D01*
X164444419Y-87590476D01*
X164682514Y-87209523D02*
X164682514Y-86685714D01*
X165349180Y-87209523D01*
X165349180Y-86685714D01*
X165301561Y-85923809D02*
X165349180Y-86019047D01*
X165349180Y-86209523D01*
X165301561Y-86304761D01*
X165206323Y-86352380D01*
X164825371Y-86352380D01*
X164730133Y-86304761D01*
X164682514Y-86209523D01*
X164682514Y-86019047D01*
X164730133Y-85923809D01*
X164825371Y-85876190D01*
X164920609Y-85876190D01*
X165015847Y-86352380D01*
X165349180Y-85447619D02*
X164682514Y-85447619D01*
X164872990Y-85447619D02*
X164777752Y-85400000D01*
X164730133Y-85352380D01*
X164682514Y-85257142D01*
X164682514Y-85161904D01*
D13*
X171047628Y-69422857D02*
X171790485Y-69422857D01*
X171390485Y-69880000D01*
X171561914Y-69880000D01*
X171676200Y-69937142D01*
X171733342Y-69994285D01*
X171790485Y-70108571D01*
X171790485Y-70394285D01*
X171733342Y-70508571D01*
X171676200Y-70565714D01*
X171561914Y-70622857D01*
X171219057Y-70622857D01*
X171104771Y-70565714D01*
X171047628Y-70508571D01*
X172190485Y-69822857D02*
X172476200Y-70622857D01*
X172761914Y-69822857D01*
X173104771Y-69422857D02*
X173847628Y-69422857D01*
X173447628Y-69880000D01*
X173619057Y-69880000D01*
X173733342Y-69937142D01*
X173790485Y-69994285D01*
X173847628Y-70108571D01*
X173847628Y-70394285D01*
X173790485Y-70508571D01*
X173733342Y-70565714D01*
X173619057Y-70622857D01*
X173276200Y-70622857D01*
X173161914Y-70565714D01*
X173104771Y-70508571D01*
D12*
X166362000Y-111117285D02*
X166409619Y-111022047D01*
X166409619Y-110879190D01*
X166362000Y-110736333D01*
X166266761Y-110641095D01*
X166171523Y-110593476D01*
X165981047Y-110545857D01*
X165838190Y-110545857D01*
X165647714Y-110593476D01*
X165552476Y-110641095D01*
X165457238Y-110736333D01*
X165409619Y-110879190D01*
X165409619Y-110974428D01*
X165457238Y-111117285D01*
X165504857Y-111164904D01*
X165838190Y-111164904D01*
X165838190Y-110974428D01*
X165409619Y-111593476D02*
X166409619Y-111593476D01*
X166409619Y-111831571D01*
X166362000Y-111974428D01*
X166266761Y-112069666D01*
X166171523Y-112117285D01*
X165981047Y-112164904D01*
X165838190Y-112164904D01*
X165647714Y-112117285D01*
X165552476Y-112069666D01*
X165457238Y-111974428D01*
X165409619Y-111831571D01*
X165409619Y-111593476D01*
X165933428Y-112926809D02*
X165885809Y-113069666D01*
X165838190Y-113117285D01*
X165742952Y-113164904D01*
X165600095Y-113164904D01*
X165504857Y-113117285D01*
X165457238Y-113069666D01*
X165409619Y-112974428D01*
X165409619Y-112593476D01*
X166409619Y-112593476D01*
X166409619Y-112926809D01*
X166362000Y-113022047D01*
X166314380Y-113069666D01*
X166219142Y-113117285D01*
X166123904Y-113117285D01*
X166028666Y-113069666D01*
X165981047Y-113022047D01*
X165933428Y-112926809D01*
X165933428Y-112593476D01*
X165504857Y-114926809D02*
X165457238Y-114879190D01*
X165409619Y-114736333D01*
X165409619Y-114641095D01*
X165457238Y-114498238D01*
X165552476Y-114403000D01*
X165647714Y-114355380D01*
X165838190Y-114307761D01*
X165981047Y-114307761D01*
X166171523Y-114355380D01*
X166266761Y-114403000D01*
X166362000Y-114498238D01*
X166409619Y-114641095D01*
X166409619Y-114736333D01*
X166362000Y-114879190D01*
X166314380Y-114926809D01*
X166409619Y-115545857D02*
X166409619Y-115736333D01*
X166362000Y-115831571D01*
X166266761Y-115926809D01*
X166076285Y-115974428D01*
X165742952Y-115974428D01*
X165552476Y-115926809D01*
X165457238Y-115831571D01*
X165409619Y-115736333D01*
X165409619Y-115545857D01*
X165457238Y-115450619D01*
X165552476Y-115355380D01*
X165742952Y-115307761D01*
X166076285Y-115307761D01*
X166266761Y-115355380D01*
X166362000Y-115450619D01*
X166409619Y-115545857D01*
X165409619Y-116403000D02*
X166409619Y-116403000D01*
X165695333Y-116736333D01*
X166409619Y-117069666D01*
X165409619Y-117069666D01*
X165409619Y-117545857D02*
X166409619Y-117545857D01*
X165695333Y-117879190D01*
X166409619Y-118212523D01*
X165409619Y-118212523D01*
X164703857Y-110669285D02*
X164703857Y-111183571D01*
X163803857Y-110926428D02*
X164703857Y-110926428D01*
X164703857Y-111397857D02*
X163803857Y-111997857D01*
X164703857Y-111997857D02*
X163803857Y-111397857D01*
X164661000Y-113749714D02*
X164703857Y-113664000D01*
X164703857Y-113535428D01*
X164661000Y-113406857D01*
X164575285Y-113321142D01*
X164489571Y-113278285D01*
X164318142Y-113235428D01*
X164189571Y-113235428D01*
X164018142Y-113278285D01*
X163932428Y-113321142D01*
X163846714Y-113406857D01*
X163803857Y-113535428D01*
X163803857Y-113621142D01*
X163846714Y-113749714D01*
X163889571Y-113792571D01*
X164189571Y-113792571D01*
X164189571Y-113621142D01*
X163803857Y-115396000D02*
X164232428Y-115096000D01*
X163803857Y-114881714D02*
X164703857Y-114881714D01*
X164703857Y-115224571D01*
X164661000Y-115310285D01*
X164618142Y-115353142D01*
X164532428Y-115396000D01*
X164403857Y-115396000D01*
X164318142Y-115353142D01*
X164275285Y-115310285D01*
X164232428Y-115224571D01*
X164232428Y-114881714D01*
X164703857Y-115696000D02*
X163803857Y-116296000D01*
X164703857Y-116296000D02*
X163803857Y-115696000D01*
X182983333Y-109367380D02*
X182983333Y-110081666D01*
X182935714Y-110224523D01*
X182840476Y-110319761D01*
X182697619Y-110367380D01*
X182602380Y-110367380D01*
X183316666Y-109367380D02*
X183888095Y-109367380D01*
X183602380Y-110367380D02*
X183602380Y-109367380D01*
X184173809Y-110081666D02*
X184650000Y-110081666D01*
X184078571Y-110367380D02*
X184411904Y-109367380D01*
X184745238Y-110367380D01*
X185602380Y-109415000D02*
X185507142Y-109367380D01*
X185364285Y-109367380D01*
X185221428Y-109415000D01*
X185126190Y-109510238D01*
X185078571Y-109605476D01*
X185030952Y-109795952D01*
X185030952Y-109938809D01*
X185078571Y-110129285D01*
X185126190Y-110224523D01*
X185221428Y-110319761D01*
X185364285Y-110367380D01*
X185459523Y-110367380D01*
X185602380Y-110319761D01*
X185650000Y-110272142D01*
X185650000Y-109938809D01*
X185459523Y-109938809D01*
X181411904Y-111977380D02*
X181411904Y-110977380D01*
X181745238Y-111691666D01*
X182078571Y-110977380D01*
X182078571Y-111977380D01*
X182507142Y-111929761D02*
X182650000Y-111977380D01*
X182888095Y-111977380D01*
X182983333Y-111929761D01*
X183030952Y-111882142D01*
X183078571Y-111786904D01*
X183078571Y-111691666D01*
X183030952Y-111596428D01*
X182983333Y-111548809D01*
X182888095Y-111501190D01*
X182697619Y-111453571D01*
X182602380Y-111405952D01*
X182554761Y-111358333D01*
X182507142Y-111263095D01*
X182507142Y-111167857D01*
X182554761Y-111072619D01*
X182602380Y-111025000D01*
X182697619Y-110977380D01*
X182935714Y-110977380D01*
X183078571Y-111025000D01*
X183507142Y-111977380D02*
X183507142Y-110977380D01*
X183888095Y-110977380D01*
X183983333Y-111025000D01*
X184030952Y-111072619D01*
X184078571Y-111167857D01*
X184078571Y-111310714D01*
X184030952Y-111405952D01*
X183983333Y-111453571D01*
X183888095Y-111501190D01*
X183507142Y-111501190D01*
X184935714Y-111310714D02*
X184935714Y-111977380D01*
X184697619Y-110929761D02*
X184459523Y-111644047D01*
X185078571Y-111644047D01*
X185364285Y-110977380D02*
X185983333Y-110977380D01*
X185650000Y-111358333D01*
X185792857Y-111358333D01*
X185888095Y-111405952D01*
X185935714Y-111453571D01*
X185983333Y-111548809D01*
X185983333Y-111786904D01*
X185935714Y-111882142D01*
X185888095Y-111929761D01*
X185792857Y-111977380D01*
X185507142Y-111977380D01*
X185411904Y-111929761D01*
X185364285Y-111882142D01*
X186602380Y-110977380D02*
X186697619Y-110977380D01*
X186792857Y-111025000D01*
X186840476Y-111072619D01*
X186888095Y-111167857D01*
X186935714Y-111358333D01*
X186935714Y-111596428D01*
X186888095Y-111786904D01*
X186840476Y-111882142D01*
X186792857Y-111929761D01*
X186697619Y-111977380D01*
X186602380Y-111977380D01*
X186507142Y-111929761D01*
X186459523Y-111882142D01*
X186411904Y-111786904D01*
X186364285Y-111596428D01*
X186364285Y-111358333D01*
X186411904Y-111167857D01*
X186459523Y-111072619D01*
X186507142Y-111025000D01*
X186602380Y-110977380D01*
X149931904Y-121221380D02*
X150503333Y-121221380D01*
X150217619Y-122221380D02*
X150217619Y-121221380D01*
X151408095Y-122221380D02*
X151074761Y-121745190D01*
X150836666Y-122221380D02*
X150836666Y-121221380D01*
X151217619Y-121221380D01*
X151312857Y-121269000D01*
X151360476Y-121316619D01*
X151408095Y-121411857D01*
X151408095Y-121554714D01*
X151360476Y-121649952D01*
X151312857Y-121697571D01*
X151217619Y-121745190D01*
X150836666Y-121745190D01*
X151789047Y-121935666D02*
X152265238Y-121935666D01*
X151693809Y-122221380D02*
X152027142Y-121221380D01*
X152360476Y-122221380D01*
X153265238Y-122126142D02*
X153217619Y-122173761D01*
X153074761Y-122221380D01*
X152979523Y-122221380D01*
X152836666Y-122173761D01*
X152741428Y-122078523D01*
X152693809Y-121983285D01*
X152646190Y-121792809D01*
X152646190Y-121649952D01*
X152693809Y-121459476D01*
X152741428Y-121364238D01*
X152836666Y-121269000D01*
X152979523Y-121221380D01*
X153074761Y-121221380D01*
X153217619Y-121269000D01*
X153265238Y-121316619D01*
X153693809Y-121697571D02*
X154027142Y-121697571D01*
X154170000Y-122221380D02*
X153693809Y-122221380D01*
X153693809Y-121221380D01*
X154170000Y-121221380D01*
X154550952Y-122173761D02*
X154693809Y-122221380D01*
X154931904Y-122221380D01*
X155027142Y-122173761D01*
X155074761Y-122126142D01*
X155122380Y-122030904D01*
X155122380Y-121935666D01*
X155074761Y-121840428D01*
X155027142Y-121792809D01*
X154931904Y-121745190D01*
X154741428Y-121697571D01*
X154646190Y-121649952D01*
X154598571Y-121602333D01*
X154550952Y-121507095D01*
X154550952Y-121411857D01*
X154598571Y-121316619D01*
X154646190Y-121269000D01*
X154741428Y-121221380D01*
X154979523Y-121221380D01*
X155122380Y-121269000D01*
X155455714Y-121221380D02*
X155693809Y-122221380D01*
X155884285Y-121507095D01*
X156074761Y-122221380D01*
X156312857Y-121221380D01*
X156884285Y-121221380D02*
X157074761Y-121221380D01*
X157170000Y-121269000D01*
X157265238Y-121364238D01*
X157312857Y-121554714D01*
X157312857Y-121888047D01*
X157265238Y-122078523D01*
X157170000Y-122173761D01*
X157074761Y-122221380D01*
X156884285Y-122221380D01*
X156789047Y-122173761D01*
X156693809Y-122078523D01*
X156646190Y-121888047D01*
X156646190Y-121554714D01*
X156693809Y-121364238D01*
X156789047Y-121269000D01*
X156884285Y-121221380D01*
X164703857Y-117082000D02*
X163803857Y-117382000D01*
X164703857Y-117682000D01*
X163889571Y-118496285D02*
X163846714Y-118453428D01*
X163803857Y-118324857D01*
X163803857Y-118239142D01*
X163846714Y-118110571D01*
X163932428Y-118024857D01*
X164018142Y-117982000D01*
X164189571Y-117939142D01*
X164318142Y-117939142D01*
X164489571Y-117982000D01*
X164575285Y-118024857D01*
X164661000Y-118110571D01*
X164703857Y-118239142D01*
X164703857Y-118324857D01*
X164661000Y-118453428D01*
X164618142Y-118496285D01*
X155240171Y-97527142D02*
X155754457Y-97527142D01*
X155497314Y-98427142D02*
X155497314Y-97527142D01*
X155968742Y-98427142D02*
X156440171Y-97827142D01*
X155968742Y-97827142D02*
X156440171Y-98427142D01*
X156783028Y-98427142D02*
X156783028Y-97527142D01*
X156997314Y-97527142D01*
X157125885Y-97570000D01*
X157211600Y-97655714D01*
X157254457Y-97741428D01*
X157297314Y-97912857D01*
X157297314Y-98041428D01*
X157254457Y-98212857D01*
X157211600Y-98298571D01*
X157125885Y-98384285D01*
X156997314Y-98427142D01*
X156783028Y-98427142D01*
X155801285Y-95887142D02*
X155501285Y-95458571D01*
X155287000Y-95887142D02*
X155287000Y-94987142D01*
X155629857Y-94987142D01*
X155715571Y-95030000D01*
X155758428Y-95072857D01*
X155801285Y-95158571D01*
X155801285Y-95287142D01*
X155758428Y-95372857D01*
X155715571Y-95415714D01*
X155629857Y-95458571D01*
X155287000Y-95458571D01*
X156101285Y-95887142D02*
X156572714Y-95287142D01*
X156101285Y-95287142D02*
X156572714Y-95887142D01*
X156915571Y-95887142D02*
X156915571Y-94987142D01*
X157129857Y-94987142D01*
X157258428Y-95030000D01*
X157344142Y-95115714D01*
X157387000Y-95201428D01*
X157429857Y-95372857D01*
X157429857Y-95501428D01*
X157387000Y-95672857D01*
X157344142Y-95758571D01*
X157258428Y-95844285D01*
X157129857Y-95887142D01*
X156915571Y-95887142D01*
X155115571Y-99813000D02*
X156015571Y-99813000D01*
X155844142Y-100967142D02*
X155544142Y-100538571D01*
X155329857Y-100967142D02*
X155329857Y-100067142D01*
X155672714Y-100067142D01*
X155758428Y-100110000D01*
X155801285Y-100152857D01*
X155844142Y-100238571D01*
X155844142Y-100367142D01*
X155801285Y-100452857D01*
X155758428Y-100495714D01*
X155672714Y-100538571D01*
X155329857Y-100538571D01*
X156015571Y-99813000D02*
X156872714Y-99813000D01*
X156187000Y-100924285D02*
X156315571Y-100967142D01*
X156529857Y-100967142D01*
X156615571Y-100924285D01*
X156658428Y-100881428D01*
X156701285Y-100795714D01*
X156701285Y-100710000D01*
X156658428Y-100624285D01*
X156615571Y-100581428D01*
X156529857Y-100538571D01*
X156358428Y-100495714D01*
X156272714Y-100452857D01*
X156229857Y-100410000D01*
X156187000Y-100324285D01*
X156187000Y-100238571D01*
X156229857Y-100152857D01*
X156272714Y-100110000D01*
X156358428Y-100067142D01*
X156572714Y-100067142D01*
X156701285Y-100110000D01*
X156872714Y-99813000D02*
X157558428Y-99813000D01*
X156958428Y-100067142D02*
X157472714Y-100067142D01*
X157215571Y-100967142D02*
X157215571Y-100067142D01*
X118182785Y-71873000D02*
X118997071Y-71873000D01*
X118397071Y-72555714D02*
X118697071Y-72555714D01*
X118825642Y-73027142D02*
X118397071Y-73027142D01*
X118397071Y-72127142D01*
X118825642Y-72127142D01*
X118997071Y-71873000D02*
X119939928Y-71873000D01*
X119211357Y-73027142D02*
X119211357Y-72127142D01*
X119725642Y-73027142D01*
X119725642Y-72127142D01*
X119939928Y-71873000D02*
X120711357Y-71873000D01*
X120111357Y-72770000D02*
X120539928Y-72770000D01*
X120025642Y-73027142D02*
X120325642Y-72127142D01*
X120625642Y-73027142D01*
X120711357Y-71873000D02*
X121568500Y-71873000D01*
X121397071Y-73027142D02*
X120882785Y-73027142D01*
X121139928Y-73027142D02*
X121139928Y-72127142D01*
X121054214Y-72255714D01*
X120968500Y-72341428D01*
X120882785Y-72384285D01*
X155256971Y-102607142D02*
X155556971Y-103507142D01*
X155856971Y-102607142D01*
X156156971Y-103507142D02*
X156156971Y-102907142D01*
X156156971Y-103078571D02*
X156199828Y-102992857D01*
X156242685Y-102950000D01*
X156328400Y-102907142D01*
X156414114Y-102907142D01*
X157056971Y-103464285D02*
X156971257Y-103507142D01*
X156799828Y-103507142D01*
X156714114Y-103464285D01*
X156671257Y-103378571D01*
X156671257Y-103035714D01*
X156714114Y-102950000D01*
X156799828Y-102907142D01*
X156971257Y-102907142D01*
X157056971Y-102950000D01*
X157099828Y-103035714D01*
X157099828Y-103121428D01*
X156671257Y-103207142D01*
X157356971Y-102907142D02*
X157699828Y-102907142D01*
X157485542Y-103507142D02*
X157485542Y-102735714D01*
X157528400Y-102650000D01*
X157614114Y-102607142D01*
X157699828Y-102607142D01*
X158642685Y-102564285D02*
X157871257Y-103721428D01*
X158899828Y-102692857D02*
X158942685Y-102650000D01*
X159028400Y-102607142D01*
X159242685Y-102607142D01*
X159328400Y-102650000D01*
X159371257Y-102692857D01*
X159414114Y-102778571D01*
X159414114Y-102864285D01*
X159371257Y-102992857D01*
X158856971Y-103507142D01*
X159414114Y-103507142D01*
X155837857Y-106047142D02*
X155409285Y-106047142D01*
X155409285Y-105147142D01*
X156137857Y-105575714D02*
X156437857Y-105575714D01*
X156566428Y-106047142D02*
X156137857Y-106047142D01*
X156137857Y-105147142D01*
X156566428Y-105147142D01*
X156952142Y-106047142D02*
X156952142Y-105147142D01*
X157166428Y-105147142D01*
X157295000Y-105190000D01*
X157380714Y-105275714D01*
X157423571Y-105361428D01*
X157466428Y-105532857D01*
X157466428Y-105661428D01*
X157423571Y-105832857D01*
X157380714Y-105918571D01*
X157295000Y-106004285D01*
X157166428Y-106047142D01*
X156952142Y-106047142D01*
X157809285Y-106004285D02*
X157937857Y-106047142D01*
X158152142Y-106047142D01*
X158237857Y-106004285D01*
X158280714Y-105961428D01*
X158323571Y-105875714D01*
X158323571Y-105790000D01*
X158280714Y-105704285D01*
X158237857Y-105661428D01*
X158152142Y-105618571D01*
X157980714Y-105575714D01*
X157895000Y-105532857D01*
X157852142Y-105490000D01*
X157809285Y-105404285D01*
X157809285Y-105318571D01*
X157852142Y-105232857D01*
X157895000Y-105190000D01*
X157980714Y-105147142D01*
X158195000Y-105147142D01*
X158323571Y-105190000D01*
X155179857Y-89907142D02*
X155694142Y-89907142D01*
X155437000Y-90807142D02*
X155437000Y-89907142D01*
X156508428Y-90721428D02*
X156465571Y-90764285D01*
X156337000Y-90807142D01*
X156251285Y-90807142D01*
X156122714Y-90764285D01*
X156037000Y-90678571D01*
X155994142Y-90592857D01*
X155951285Y-90421428D01*
X155951285Y-90292857D01*
X155994142Y-90121428D01*
X156037000Y-90035714D01*
X156122714Y-89950000D01*
X156251285Y-89907142D01*
X156337000Y-89907142D01*
X156465571Y-89950000D01*
X156508428Y-89992857D01*
X156894142Y-90807142D02*
X156894142Y-89907142D01*
X157408428Y-90807142D02*
X157022714Y-90292857D01*
X157408428Y-89907142D02*
X156894142Y-90421428D01*
X118952056Y-94987142D02*
X119466342Y-94987142D01*
X119209199Y-95887142D02*
X119209199Y-94987142D01*
X119766342Y-95887142D02*
X119766342Y-94987142D01*
X120066342Y-95630000D01*
X120366342Y-94987142D01*
X120366342Y-95887142D01*
X120752056Y-95844285D02*
X120880628Y-95887142D01*
X121094913Y-95887142D01*
X121180628Y-95844285D01*
X121223485Y-95801428D01*
X121266342Y-95715714D01*
X121266342Y-95630000D01*
X121223485Y-95544285D01*
X121180628Y-95501428D01*
X121094913Y-95458571D01*
X120923485Y-95415714D01*
X120837771Y-95372857D01*
X120794913Y-95330000D01*
X120752056Y-95244285D01*
X120752056Y-95158571D01*
X120794913Y-95072857D01*
X120837771Y-95030000D01*
X120923485Y-94987142D01*
X121137771Y-94987142D01*
X121266342Y-95030000D01*
X118164347Y-74413000D02*
X118978633Y-74413000D01*
X118378633Y-75095714D02*
X118678633Y-75095714D01*
X118807204Y-75567142D02*
X118378633Y-75567142D01*
X118378633Y-74667142D01*
X118807204Y-74667142D01*
X118978633Y-74413000D02*
X119921490Y-74413000D01*
X119192919Y-75567142D02*
X119192919Y-74667142D01*
X119707204Y-75567142D01*
X119707204Y-74667142D01*
X119921490Y-74413000D02*
X120692919Y-74413000D01*
X120092919Y-75310000D02*
X120521490Y-75310000D01*
X120007204Y-75567142D02*
X120307204Y-74667142D01*
X120607204Y-75567142D01*
X120692919Y-74413000D02*
X121550062Y-74413000D01*
X120864347Y-74752857D02*
X120907204Y-74710000D01*
X120992919Y-74667142D01*
X121207204Y-74667142D01*
X121292919Y-74710000D01*
X121335776Y-74752857D01*
X121378633Y-74838571D01*
X121378633Y-74924285D01*
X121335776Y-75052857D01*
X120821490Y-75567142D01*
X121378633Y-75567142D01*
X170127333Y-119607380D02*
X170060666Y-119569285D01*
X169927333Y-119569285D01*
X169860666Y-119607380D01*
X169794000Y-119683571D01*
X169760666Y-119759761D01*
X169760666Y-119912142D01*
X169794000Y-119988333D01*
X169860666Y-120064523D01*
X169927333Y-120102619D01*
X170060666Y-120102619D01*
X170127333Y-120064523D01*
X169994000Y-119302619D02*
X169827333Y-119340714D01*
X169660666Y-119455000D01*
X169560666Y-119645476D01*
X169527333Y-119835952D01*
X169560666Y-120026428D01*
X169660666Y-120216904D01*
X169827333Y-120331190D01*
X169994000Y-120369285D01*
X170160666Y-120331190D01*
X170327333Y-120216904D01*
X170427333Y-120026428D01*
X170460666Y-119835952D01*
X170427333Y-119645476D01*
X170327333Y-119455000D01*
X170160666Y-119340714D01*
X169994000Y-119302619D01*
X170727333Y-119493095D02*
X170760666Y-119455000D01*
X170827333Y-119416904D01*
X170994000Y-119416904D01*
X171060666Y-119455000D01*
X171094000Y-119493095D01*
X171127333Y-119569285D01*
X171127333Y-119645476D01*
X171094000Y-119759761D01*
X170694000Y-120216904D01*
X171127333Y-120216904D01*
X171560666Y-119416904D02*
X171627333Y-119416904D01*
X171694000Y-119455000D01*
X171727333Y-119493095D01*
X171760666Y-119569285D01*
X171794000Y-119721666D01*
X171794000Y-119912142D01*
X171760666Y-120064523D01*
X171727333Y-120140714D01*
X171694000Y-120178809D01*
X171627333Y-120216904D01*
X171560666Y-120216904D01*
X171494000Y-120178809D01*
X171460666Y-120140714D01*
X171427333Y-120064523D01*
X171394000Y-119912142D01*
X171394000Y-119721666D01*
X171427333Y-119569285D01*
X171460666Y-119493095D01*
X171494000Y-119455000D01*
X171560666Y-119416904D01*
X172060666Y-119493095D02*
X172094000Y-119455000D01*
X172160666Y-119416904D01*
X172327333Y-119416904D01*
X172394000Y-119455000D01*
X172427333Y-119493095D01*
X172460666Y-119569285D01*
X172460666Y-119645476D01*
X172427333Y-119759761D01*
X172027333Y-120216904D01*
X172460666Y-120216904D01*
X172727333Y-119493095D02*
X172760666Y-119455000D01*
X172827333Y-119416904D01*
X172994000Y-119416904D01*
X173060666Y-119455000D01*
X173094000Y-119493095D01*
X173127333Y-119569285D01*
X173127333Y-119645476D01*
X173094000Y-119759761D01*
X172694000Y-120216904D01*
X173127333Y-120216904D01*
X173960666Y-120216904D02*
X173960666Y-119416904D01*
X173960666Y-119721666D02*
X174027333Y-119683571D01*
X174160666Y-119683571D01*
X174227333Y-119721666D01*
X174260666Y-119759761D01*
X174294000Y-119835952D01*
X174294000Y-120064523D01*
X174260666Y-120140714D01*
X174227333Y-120178809D01*
X174160666Y-120216904D01*
X174027333Y-120216904D01*
X173960666Y-120178809D01*
X174527333Y-119683571D02*
X174694000Y-120216904D01*
X174860666Y-119683571D02*
X174694000Y-120216904D01*
X174627333Y-120407380D01*
X174594000Y-120445476D01*
X174527333Y-120483571D01*
X176027333Y-119455000D02*
X175960666Y-119416904D01*
X175860666Y-119416904D01*
X175760666Y-119455000D01*
X175694000Y-119531190D01*
X175660666Y-119607380D01*
X175627333Y-119759761D01*
X175627333Y-119874047D01*
X175660666Y-120026428D01*
X175694000Y-120102619D01*
X175760666Y-120178809D01*
X175860666Y-120216904D01*
X175927333Y-120216904D01*
X176027333Y-120178809D01*
X176060666Y-120140714D01*
X176060666Y-119874047D01*
X175927333Y-119874047D01*
X176360666Y-120216904D02*
X176360666Y-119683571D01*
X176360666Y-119835952D02*
X176394000Y-119759761D01*
X176427333Y-119721666D01*
X176494000Y-119683571D01*
X176560666Y-119683571D01*
X177094000Y-119683571D02*
X177094000Y-120216904D01*
X176794000Y-119683571D02*
X176794000Y-120102619D01*
X176827333Y-120178809D01*
X176894000Y-120216904D01*
X176994000Y-120216904D01*
X177060666Y-120178809D01*
X177094000Y-120140714D01*
X177427333Y-120216904D02*
X177427333Y-119416904D01*
X177660666Y-119988333D01*
X177894000Y-119416904D01*
X177894000Y-120216904D01*
X178527333Y-120216904D02*
X178527333Y-119797857D01*
X178494000Y-119721666D01*
X178427333Y-119683571D01*
X178294000Y-119683571D01*
X178227333Y-119721666D01*
X178527333Y-120178809D02*
X178460666Y-120216904D01*
X178294000Y-120216904D01*
X178227333Y-120178809D01*
X178194000Y-120102619D01*
X178194000Y-120026428D01*
X178227333Y-119950238D01*
X178294000Y-119912142D01*
X178460666Y-119912142D01*
X178527333Y-119874047D01*
X178760666Y-119683571D02*
X179027333Y-119683571D01*
X178860666Y-119416904D02*
X178860666Y-120102619D01*
X178894000Y-120178809D01*
X178960666Y-120216904D01*
X179027333Y-120216904D01*
X164260666Y-120971571D02*
X164260666Y-121619190D01*
X164227333Y-121695380D01*
X164194000Y-121733476D01*
X164127333Y-121771571D01*
X164027333Y-121771571D01*
X163960666Y-121733476D01*
X164260666Y-121466809D02*
X164194000Y-121504904D01*
X164060666Y-121504904D01*
X163994000Y-121466809D01*
X163960666Y-121428714D01*
X163927333Y-121352523D01*
X163927333Y-121123952D01*
X163960666Y-121047761D01*
X163994000Y-121009666D01*
X164060666Y-120971571D01*
X164194000Y-120971571D01*
X164260666Y-121009666D01*
X164594000Y-121504904D02*
X164594000Y-120971571D01*
X164594000Y-120704904D02*
X164560666Y-120743000D01*
X164594000Y-120781095D01*
X164627333Y-120743000D01*
X164594000Y-120704904D01*
X164594000Y-120781095D01*
X164827333Y-120971571D02*
X165094000Y-120971571D01*
X164927333Y-120704904D02*
X164927333Y-121390619D01*
X164960666Y-121466809D01*
X165027333Y-121504904D01*
X165094000Y-121504904D01*
X165327333Y-121504904D02*
X165327333Y-120704904D01*
X165627333Y-121504904D02*
X165627333Y-121085857D01*
X165594000Y-121009666D01*
X165527333Y-120971571D01*
X165427333Y-120971571D01*
X165360666Y-121009666D01*
X165327333Y-121047761D01*
X166260666Y-120971571D02*
X166260666Y-121504904D01*
X165960666Y-120971571D02*
X165960666Y-121390619D01*
X165994000Y-121466809D01*
X166060666Y-121504904D01*
X166160666Y-121504904D01*
X166227333Y-121466809D01*
X166260666Y-121428714D01*
X166594000Y-121504904D02*
X166594000Y-120704904D01*
X166594000Y-121009666D02*
X166660666Y-120971571D01*
X166794000Y-120971571D01*
X166860666Y-121009666D01*
X166894000Y-121047761D01*
X166927333Y-121123952D01*
X166927333Y-121352523D01*
X166894000Y-121428714D01*
X166860666Y-121466809D01*
X166794000Y-121504904D01*
X166660666Y-121504904D01*
X166594000Y-121466809D01*
X167227333Y-121428714D02*
X167260666Y-121466809D01*
X167227333Y-121504904D01*
X167194000Y-121466809D01*
X167227333Y-121428714D01*
X167227333Y-121504904D01*
X167860666Y-121466809D02*
X167794000Y-121504904D01*
X167660666Y-121504904D01*
X167594000Y-121466809D01*
X167560666Y-121428714D01*
X167527333Y-121352523D01*
X167527333Y-121123952D01*
X167560666Y-121047761D01*
X167594000Y-121009666D01*
X167660666Y-120971571D01*
X167794000Y-120971571D01*
X167860666Y-121009666D01*
X168260666Y-121504904D02*
X168194000Y-121466809D01*
X168160666Y-121428714D01*
X168127333Y-121352523D01*
X168127333Y-121123952D01*
X168160666Y-121047761D01*
X168194000Y-121009666D01*
X168260666Y-120971571D01*
X168360666Y-120971571D01*
X168427333Y-121009666D01*
X168460666Y-121047761D01*
X168494000Y-121123952D01*
X168494000Y-121352523D01*
X168460666Y-121428714D01*
X168427333Y-121466809D01*
X168360666Y-121504904D01*
X168260666Y-121504904D01*
X168794000Y-121504904D02*
X168794000Y-120971571D01*
X168794000Y-121047761D02*
X168827333Y-121009666D01*
X168894000Y-120971571D01*
X168994000Y-120971571D01*
X169060666Y-121009666D01*
X169094000Y-121085857D01*
X169094000Y-121504904D01*
X169094000Y-121085857D02*
X169127333Y-121009666D01*
X169194000Y-120971571D01*
X169294000Y-120971571D01*
X169360666Y-121009666D01*
X169394000Y-121085857D01*
X169394000Y-121504904D01*
X170227333Y-120666809D02*
X169627333Y-121695380D01*
X170760666Y-120971571D02*
X170760666Y-121619190D01*
X170727333Y-121695380D01*
X170694000Y-121733476D01*
X170627333Y-121771571D01*
X170527333Y-121771571D01*
X170460666Y-121733476D01*
X170760666Y-121466809D02*
X170694000Y-121504904D01*
X170560666Y-121504904D01*
X170494000Y-121466809D01*
X170460666Y-121428714D01*
X170427333Y-121352523D01*
X170427333Y-121123952D01*
X170460666Y-121047761D01*
X170494000Y-121009666D01*
X170560666Y-120971571D01*
X170694000Y-120971571D01*
X170760666Y-121009666D01*
X171094000Y-121504904D02*
X171094000Y-120971571D01*
X171094000Y-121123952D02*
X171127333Y-121047761D01*
X171160666Y-121009666D01*
X171227333Y-120971571D01*
X171294000Y-120971571D01*
X171827333Y-120971571D02*
X171827333Y-121504904D01*
X171527333Y-120971571D02*
X171527333Y-121390619D01*
X171560666Y-121466809D01*
X171627333Y-121504904D01*
X171727333Y-121504904D01*
X171794000Y-121466809D01*
X171827333Y-121428714D01*
X172160666Y-121504904D02*
X172160666Y-120971571D01*
X172160666Y-121047761D02*
X172194000Y-121009666D01*
X172260666Y-120971571D01*
X172360666Y-120971571D01*
X172427333Y-121009666D01*
X172460666Y-121085857D01*
X172460666Y-121504904D01*
X172460666Y-121085857D02*
X172494000Y-121009666D01*
X172560666Y-120971571D01*
X172660666Y-120971571D01*
X172727333Y-121009666D01*
X172760666Y-121085857D01*
X172760666Y-121504904D01*
X173394000Y-121504904D02*
X173394000Y-121085857D01*
X173360666Y-121009666D01*
X173294000Y-120971571D01*
X173160666Y-120971571D01*
X173094000Y-121009666D01*
X173394000Y-121466809D02*
X173327333Y-121504904D01*
X173160666Y-121504904D01*
X173094000Y-121466809D01*
X173060666Y-121390619D01*
X173060666Y-121314428D01*
X173094000Y-121238238D01*
X173160666Y-121200142D01*
X173327333Y-121200142D01*
X173394000Y-121162047D01*
X173627333Y-120971571D02*
X173894000Y-120971571D01*
X173727333Y-120704904D02*
X173727333Y-121390619D01*
X173760666Y-121466809D01*
X173827333Y-121504904D01*
X173894000Y-121504904D01*
X174627333Y-120666809D02*
X174027333Y-121695380D01*
X175160666Y-120971571D02*
X175160666Y-121619190D01*
X175127333Y-121695380D01*
X175094000Y-121733476D01*
X175027333Y-121771571D01*
X174927333Y-121771571D01*
X174860666Y-121733476D01*
X175160666Y-121466809D02*
X175094000Y-121504904D01*
X174960666Y-121504904D01*
X174894000Y-121466809D01*
X174860666Y-121428714D01*
X174827333Y-121352523D01*
X174827333Y-121123952D01*
X174860666Y-121047761D01*
X174894000Y-121009666D01*
X174960666Y-120971571D01*
X175094000Y-120971571D01*
X175160666Y-121009666D01*
X175594000Y-121504904D02*
X175527333Y-121466809D01*
X175494000Y-121390619D01*
X175494000Y-120704904D01*
X175960666Y-121504904D02*
X175894000Y-121466809D01*
X175860666Y-121428714D01*
X175827333Y-121352523D01*
X175827333Y-121123952D01*
X175860666Y-121047761D01*
X175894000Y-121009666D01*
X175960666Y-120971571D01*
X176060666Y-120971571D01*
X176127333Y-121009666D01*
X176160666Y-121047761D01*
X176194000Y-121123952D01*
X176194000Y-121352523D01*
X176160666Y-121428714D01*
X176127333Y-121466809D01*
X176060666Y-121504904D01*
X175960666Y-121504904D01*
X176460666Y-121466809D02*
X176527333Y-121504904D01*
X176660666Y-121504904D01*
X176727333Y-121466809D01*
X176760666Y-121390619D01*
X176760666Y-121352523D01*
X176727333Y-121276333D01*
X176660666Y-121238238D01*
X176560666Y-121238238D01*
X176494000Y-121200142D01*
X176460666Y-121123952D01*
X176460666Y-121085857D01*
X176494000Y-121009666D01*
X176560666Y-120971571D01*
X176660666Y-120971571D01*
X176727333Y-121009666D01*
X177027333Y-121466809D02*
X177094000Y-121504904D01*
X177227333Y-121504904D01*
X177294000Y-121466809D01*
X177327333Y-121390619D01*
X177327333Y-121352523D01*
X177294000Y-121276333D01*
X177227333Y-121238238D01*
X177127333Y-121238238D01*
X177060666Y-121200142D01*
X177027333Y-121123952D01*
X177027333Y-121085857D01*
X177060666Y-121009666D01*
X177127333Y-120971571D01*
X177227333Y-120971571D01*
X177294000Y-121009666D01*
X177560666Y-120971571D02*
X177727333Y-121504904D01*
X177894000Y-120971571D02*
X177727333Y-121504904D01*
X177660666Y-121695380D01*
X177627333Y-121733476D01*
X177560666Y-121771571D01*
X178160666Y-121200142D02*
X178694000Y-121200142D01*
X179027333Y-121504904D02*
X179027333Y-120971571D01*
X179027333Y-121047761D02*
X179060666Y-121009666D01*
X179127333Y-120971571D01*
X179227333Y-120971571D01*
X179294000Y-121009666D01*
X179327333Y-121085857D01*
X179327333Y-121504904D01*
X179327333Y-121085857D02*
X179360666Y-121009666D01*
X179427333Y-120971571D01*
X179527333Y-120971571D01*
X179594000Y-121009666D01*
X179627333Y-121085857D01*
X179627333Y-121504904D01*
X179927333Y-121466809D02*
X179994000Y-121504904D01*
X180127333Y-121504904D01*
X180194000Y-121466809D01*
X180227333Y-121390619D01*
X180227333Y-121352523D01*
X180194000Y-121276333D01*
X180127333Y-121238238D01*
X180027333Y-121238238D01*
X179960666Y-121200142D01*
X179927333Y-121123952D01*
X179927333Y-121085857D01*
X179960666Y-121009666D01*
X180027333Y-120971571D01*
X180127333Y-120971571D01*
X180194000Y-121009666D01*
X180527333Y-120971571D02*
X180527333Y-121771571D01*
X180527333Y-121009666D02*
X180594000Y-120971571D01*
X180727333Y-120971571D01*
X180794000Y-121009666D01*
X180827333Y-121047761D01*
X180860666Y-121123952D01*
X180860666Y-121352523D01*
X180827333Y-121428714D01*
X180794000Y-121466809D01*
X180727333Y-121504904D01*
X180594000Y-121504904D01*
X180527333Y-121466809D01*
X181460666Y-120971571D02*
X181460666Y-121504904D01*
X181294000Y-120666809D02*
X181127333Y-121238238D01*
X181560666Y-121238238D01*
X181760666Y-120704904D02*
X182194000Y-120704904D01*
X181960666Y-121009666D01*
X182060666Y-121009666D01*
X182127333Y-121047761D01*
X182160666Y-121085857D01*
X182194000Y-121162047D01*
X182194000Y-121352523D01*
X182160666Y-121428714D01*
X182127333Y-121466809D01*
X182060666Y-121504904D01*
X181860666Y-121504904D01*
X181794000Y-121466809D01*
X181760666Y-121428714D01*
X182627333Y-120704904D02*
X182694000Y-120704904D01*
X182760666Y-120743000D01*
X182794000Y-120781095D01*
X182827333Y-120857285D01*
X182860666Y-121009666D01*
X182860666Y-121200142D01*
X182827333Y-121352523D01*
X182794000Y-121428714D01*
X182760666Y-121466809D01*
X182694000Y-121504904D01*
X182627333Y-121504904D01*
X182560666Y-121466809D01*
X182527333Y-121428714D01*
X182494000Y-121352523D01*
X182460666Y-121200142D01*
X182460666Y-121009666D01*
X182494000Y-120857285D01*
X182527333Y-120781095D01*
X182560666Y-120743000D01*
X182627333Y-120704904D01*
X183160666Y-121428714D02*
X183194000Y-121466809D01*
X183160666Y-121504904D01*
X183127333Y-121466809D01*
X183160666Y-121428714D01*
X183160666Y-121504904D01*
X183794000Y-120971571D02*
X183794000Y-121619190D01*
X183760666Y-121695380D01*
X183727333Y-121733476D01*
X183660666Y-121771571D01*
X183560666Y-121771571D01*
X183494000Y-121733476D01*
X183794000Y-121466809D02*
X183727333Y-121504904D01*
X183594000Y-121504904D01*
X183527333Y-121466809D01*
X183494000Y-121428714D01*
X183460666Y-121352523D01*
X183460666Y-121123952D01*
X183494000Y-121047761D01*
X183527333Y-121009666D01*
X183594000Y-120971571D01*
X183727333Y-120971571D01*
X183794000Y-121009666D01*
X184127333Y-121504904D02*
X184127333Y-120971571D01*
X184127333Y-120704904D02*
X184094000Y-120743000D01*
X184127333Y-120781095D01*
X184160666Y-120743000D01*
X184127333Y-120704904D01*
X184127333Y-120781095D01*
X184360666Y-120971571D02*
X184627333Y-120971571D01*
X184460666Y-120704904D02*
X184460666Y-121390619D01*
X184494000Y-121466809D01*
X184560666Y-121504904D01*
X184627333Y-121504904D01*
X118152744Y-76953000D02*
X118967030Y-76953000D01*
X118367030Y-77635714D02*
X118667030Y-77635714D01*
X118795601Y-78107142D02*
X118367030Y-78107142D01*
X118367030Y-77207142D01*
X118795601Y-77207142D01*
X118967030Y-76953000D02*
X119909887Y-76953000D01*
X119181316Y-78107142D02*
X119181316Y-77207142D01*
X119695601Y-78107142D01*
X119695601Y-77207142D01*
X119909887Y-76953000D02*
X120681316Y-76953000D01*
X120081316Y-77850000D02*
X120509887Y-77850000D01*
X119995601Y-78107142D02*
X120295601Y-77207142D01*
X120595601Y-78107142D01*
X120681316Y-76953000D02*
X121538459Y-76953000D01*
X120809887Y-77207142D02*
X121367030Y-77207142D01*
X121067030Y-77550000D01*
X121195601Y-77550000D01*
X121281316Y-77592857D01*
X121324173Y-77635714D01*
X121367030Y-77721428D01*
X121367030Y-77935714D01*
X121324173Y-78021428D01*
X121281316Y-78064285D01*
X121195601Y-78107142D01*
X120938459Y-78107142D01*
X120852744Y-78064285D01*
X120809887Y-78021428D01*
X117366928Y-102607142D02*
X117881214Y-102607142D01*
X117624071Y-103507142D02*
X117624071Y-102607142D01*
X118052642Y-102607142D02*
X118352642Y-103507142D01*
X118652642Y-102607142D01*
X118952642Y-102907142D02*
X118952642Y-103807142D01*
X118952642Y-102950000D02*
X119038357Y-102907142D01*
X119209785Y-102907142D01*
X119295500Y-102950000D01*
X119338357Y-102992857D01*
X119381214Y-103078571D01*
X119381214Y-103335714D01*
X119338357Y-103421428D01*
X119295500Y-103464285D01*
X119209785Y-103507142D01*
X119038357Y-103507142D01*
X118952642Y-103464285D01*
X119681214Y-102907142D02*
X119852642Y-103507142D01*
X120024071Y-103078571D01*
X120195500Y-103507142D01*
X120366928Y-102907142D01*
X120709785Y-103507142D02*
X120709785Y-102907142D01*
X120709785Y-102992857D02*
X120752642Y-102950000D01*
X120838357Y-102907142D01*
X120966928Y-102907142D01*
X121052642Y-102950000D01*
X121095500Y-103035714D01*
X121095500Y-103507142D01*
X121095500Y-103035714D02*
X121138357Y-102950000D01*
X121224071Y-102907142D01*
X121352642Y-102907142D01*
X121438357Y-102950000D01*
X121481214Y-103035714D01*
X121481214Y-103507142D01*
X118936696Y-98427142D02*
X118936696Y-97527142D01*
X119279554Y-97527142D01*
X119365268Y-97570000D01*
X119408125Y-97612857D01*
X119450982Y-97698571D01*
X119450982Y-97827142D01*
X119408125Y-97912857D01*
X119365268Y-97955714D01*
X119279554Y-97998571D01*
X118936696Y-97998571D01*
X120136696Y-97955714D02*
X120265268Y-97998571D01*
X120308125Y-98041428D01*
X120350982Y-98127142D01*
X120350982Y-98255714D01*
X120308125Y-98341428D01*
X120265268Y-98384285D01*
X120179554Y-98427142D01*
X119836696Y-98427142D01*
X119836696Y-97527142D01*
X120136696Y-97527142D01*
X120222411Y-97570000D01*
X120265268Y-97612857D01*
X120308125Y-97698571D01*
X120308125Y-97784285D01*
X120265268Y-97870000D01*
X120222411Y-97912857D01*
X120136696Y-97955714D01*
X119836696Y-97955714D01*
X121122411Y-97827142D02*
X121122411Y-98427142D01*
X120908125Y-97484285D02*
X120693839Y-98127142D01*
X121250982Y-98127142D01*
X118104208Y-80647142D02*
X118104208Y-79747142D01*
X118447065Y-79747142D01*
X118532779Y-79790000D01*
X118575636Y-79832857D01*
X118618493Y-79918571D01*
X118618493Y-80047142D01*
X118575636Y-80132857D01*
X118532779Y-80175714D01*
X118447065Y-80218571D01*
X118104208Y-80218571D01*
X119304208Y-80175714D02*
X119432779Y-80218571D01*
X119475636Y-80261428D01*
X119518493Y-80347142D01*
X119518493Y-80475714D01*
X119475636Y-80561428D01*
X119432779Y-80604285D01*
X119347065Y-80647142D01*
X119004208Y-80647142D01*
X119004208Y-79747142D01*
X119304208Y-79747142D01*
X119389922Y-79790000D01*
X119432779Y-79832857D01*
X119475636Y-79918571D01*
X119475636Y-80004285D01*
X119432779Y-80090000D01*
X119389922Y-80132857D01*
X119304208Y-80175714D01*
X119004208Y-80175714D01*
X120375636Y-80647142D02*
X119861350Y-80647142D01*
X120118493Y-80647142D02*
X120118493Y-79747142D01*
X120032779Y-79875714D01*
X119947065Y-79961428D01*
X119861350Y-80004285D01*
X121189922Y-79747142D02*
X120761350Y-79747142D01*
X120718493Y-80175714D01*
X120761350Y-80132857D01*
X120847065Y-80090000D01*
X121061350Y-80090000D01*
X121147065Y-80132857D01*
X121189922Y-80175714D01*
X121232779Y-80261428D01*
X121232779Y-80475714D01*
X121189922Y-80561428D01*
X121147065Y-80604285D01*
X121061350Y-80647142D01*
X120847065Y-80647142D01*
X120761350Y-80604285D01*
X120718493Y-80561428D01*
X155276742Y-78107142D02*
X155276742Y-77207142D01*
X155619600Y-77207142D01*
X155705314Y-77250000D01*
X155748171Y-77292857D01*
X155791028Y-77378571D01*
X155791028Y-77507142D01*
X155748171Y-77592857D01*
X155705314Y-77635714D01*
X155619600Y-77678571D01*
X155276742Y-77678571D01*
X156476742Y-77635714D02*
X156605314Y-77678571D01*
X156648171Y-77721428D01*
X156691028Y-77807142D01*
X156691028Y-77935714D01*
X156648171Y-78021428D01*
X156605314Y-78064285D01*
X156519600Y-78107142D01*
X156176742Y-78107142D01*
X156176742Y-77207142D01*
X156476742Y-77207142D01*
X156562457Y-77250000D01*
X156605314Y-77292857D01*
X156648171Y-77378571D01*
X156648171Y-77464285D01*
X156605314Y-77550000D01*
X156562457Y-77592857D01*
X156476742Y-77635714D01*
X156176742Y-77635714D01*
X157548171Y-78107142D02*
X157033885Y-78107142D01*
X157291028Y-78107142D02*
X157291028Y-77207142D01*
X157205314Y-77335714D01*
X157119600Y-77421428D01*
X157033885Y-77464285D01*
X158105314Y-77207142D02*
X158191028Y-77207142D01*
X158276742Y-77250000D01*
X158319600Y-77292857D01*
X158362457Y-77378571D01*
X158405314Y-77550000D01*
X158405314Y-77764285D01*
X158362457Y-77935714D01*
X158319600Y-78021428D01*
X158276742Y-78064285D01*
X158191028Y-78107142D01*
X158105314Y-78107142D01*
X158019600Y-78064285D01*
X157976742Y-78021428D01*
X157933885Y-77935714D01*
X157891028Y-77764285D01*
X157891028Y-77550000D01*
X157933885Y-77378571D01*
X157976742Y-77292857D01*
X158019600Y-77250000D01*
X158105314Y-77207142D01*
X155285428Y-87367142D02*
X155799714Y-87367142D01*
X155542571Y-88267142D02*
X155542571Y-87367142D01*
X156099714Y-88267142D02*
X156099714Y-87367142D01*
X156314000Y-87367142D01*
X156442571Y-87410000D01*
X156528285Y-87495714D01*
X156571142Y-87581428D01*
X156614000Y-87752857D01*
X156614000Y-87881428D01*
X156571142Y-88052857D01*
X156528285Y-88138571D01*
X156442571Y-88224285D01*
X156314000Y-88267142D01*
X156099714Y-88267142D01*
X157171142Y-87367142D02*
X157342571Y-87367142D01*
X157428285Y-87410000D01*
X157514000Y-87495714D01*
X157556857Y-87667142D01*
X157556857Y-87967142D01*
X157514000Y-88138571D01*
X157428285Y-88224285D01*
X157342571Y-88267142D01*
X157171142Y-88267142D01*
X157085428Y-88224285D01*
X156999714Y-88138571D01*
X156956857Y-87967142D01*
X156956857Y-87667142D01*
X156999714Y-87495714D01*
X157085428Y-87410000D01*
X157171142Y-87367142D01*
X155542571Y-84827142D02*
X156056857Y-84827142D01*
X155799714Y-85727142D02*
X155799714Y-84827142D01*
X156356857Y-85727142D02*
X156356857Y-84827142D01*
X156571142Y-84827142D01*
X156699714Y-84870000D01*
X156785428Y-84955714D01*
X156828285Y-85041428D01*
X156871142Y-85212857D01*
X156871142Y-85341428D01*
X156828285Y-85512857D01*
X156785428Y-85598571D01*
X156699714Y-85684285D01*
X156571142Y-85727142D01*
X156356857Y-85727142D01*
X157256857Y-85727142D02*
X157256857Y-84827142D01*
X158647706Y-97520000D02*
X158552468Y-97472380D01*
X158409611Y-97472380D01*
X158266754Y-97520000D01*
X158171516Y-97615238D01*
X158123897Y-97710476D01*
X158076278Y-97900952D01*
X158076278Y-98043809D01*
X158123897Y-98234285D01*
X158171516Y-98329523D01*
X158266754Y-98424761D01*
X158409611Y-98472380D01*
X158504849Y-98472380D01*
X158647706Y-98424761D01*
X158695325Y-98377142D01*
X158695325Y-98043809D01*
X158504849Y-98043809D01*
X159123897Y-98472380D02*
X159123897Y-97472380D01*
X159695325Y-98472380D01*
X159695325Y-97472380D01*
X160171516Y-98472380D02*
X160171516Y-97472380D01*
X160409611Y-97472380D01*
X160552468Y-97520000D01*
X160647706Y-97615238D01*
X160695325Y-97710476D01*
X160742944Y-97900952D01*
X160742944Y-98043809D01*
X160695325Y-98234285D01*
X160647706Y-98329523D01*
X160552468Y-98424761D01*
X160409611Y-98472380D01*
X160171516Y-98472380D01*
X155338524Y-83187142D02*
X155338524Y-82287142D01*
X155681381Y-82287142D01*
X155767095Y-82330000D01*
X155809952Y-82372857D01*
X155852810Y-82458571D01*
X155852810Y-82587142D01*
X155809952Y-82672857D01*
X155767095Y-82715714D01*
X155681381Y-82758571D01*
X155338524Y-82758571D01*
X156538524Y-82715714D02*
X156667095Y-82758571D01*
X156709952Y-82801428D01*
X156752810Y-82887142D01*
X156752810Y-83015714D01*
X156709952Y-83101428D01*
X156667095Y-83144285D01*
X156581381Y-83187142D01*
X156238524Y-83187142D01*
X156238524Y-82287142D01*
X156538524Y-82287142D01*
X156624238Y-82330000D01*
X156667095Y-82372857D01*
X156709952Y-82458571D01*
X156709952Y-82544285D01*
X156667095Y-82630000D01*
X156624238Y-82672857D01*
X156538524Y-82715714D01*
X156238524Y-82715714D01*
X157309952Y-82287142D02*
X157395667Y-82287142D01*
X157481381Y-82330000D01*
X157524238Y-82372857D01*
X157567095Y-82458571D01*
X157609952Y-82630000D01*
X157609952Y-82844285D01*
X157567095Y-83015714D01*
X157524238Y-83101428D01*
X157481381Y-83144285D01*
X157395667Y-83187142D01*
X157309952Y-83187142D01*
X157224238Y-83144285D01*
X157181381Y-83101428D01*
X157138524Y-83015714D01*
X157095667Y-82844285D01*
X157095667Y-82630000D01*
X157138524Y-82458571D01*
X157181381Y-82372857D01*
X157224238Y-82330000D01*
X157309952Y-82287142D01*
X118928682Y-106097942D02*
X118928682Y-105197942D01*
X119271540Y-105197942D01*
X119357254Y-105240800D01*
X119400111Y-105283657D01*
X119442968Y-105369371D01*
X119442968Y-105497942D01*
X119400111Y-105583657D01*
X119357254Y-105626514D01*
X119271540Y-105669371D01*
X118928682Y-105669371D01*
X120128682Y-105626514D02*
X120257254Y-105669371D01*
X120300111Y-105712228D01*
X120342968Y-105797942D01*
X120342968Y-105926514D01*
X120300111Y-106012228D01*
X120257254Y-106055085D01*
X120171540Y-106097942D01*
X119828682Y-106097942D01*
X119828682Y-105197942D01*
X120128682Y-105197942D01*
X120214397Y-105240800D01*
X120257254Y-105283657D01*
X120300111Y-105369371D01*
X120300111Y-105455085D01*
X120257254Y-105540800D01*
X120214397Y-105583657D01*
X120128682Y-105626514D01*
X119828682Y-105626514D01*
X120771540Y-106097942D02*
X120942968Y-106097942D01*
X121028682Y-106055085D01*
X121071540Y-106012228D01*
X121157254Y-105883657D01*
X121200111Y-105712228D01*
X121200111Y-105369371D01*
X121157254Y-105283657D01*
X121114397Y-105240800D01*
X121028682Y-105197942D01*
X120857254Y-105197942D01*
X120771540Y-105240800D01*
X120728682Y-105283657D01*
X120685825Y-105369371D01*
X120685825Y-105583657D01*
X120728682Y-105669371D01*
X120771540Y-105712228D01*
X120857254Y-105755085D01*
X121028682Y-105755085D01*
X121114397Y-105712228D01*
X121157254Y-105669371D01*
X121200111Y-105583657D01*
X123015666Y-121697571D02*
X123158523Y-121745190D01*
X123206142Y-121792809D01*
X123253761Y-121888047D01*
X123253761Y-122030904D01*
X123206142Y-122126142D01*
X123158523Y-122173761D01*
X123063285Y-122221380D01*
X122682333Y-122221380D01*
X122682333Y-121221380D01*
X123015666Y-121221380D01*
X123110904Y-121269000D01*
X123158523Y-121316619D01*
X123206142Y-121411857D01*
X123206142Y-121507095D01*
X123158523Y-121602333D01*
X123110904Y-121649952D01*
X123015666Y-121697571D01*
X122682333Y-121697571D01*
X123825190Y-122221380D02*
X123729952Y-122173761D01*
X123682333Y-122078523D01*
X123682333Y-121221380D01*
X124634714Y-121554714D02*
X124634714Y-122221380D01*
X124206142Y-121554714D02*
X124206142Y-122078523D01*
X124253761Y-122173761D01*
X124349000Y-122221380D01*
X124491857Y-122221380D01*
X124587095Y-122173761D01*
X124634714Y-122126142D01*
X125491857Y-122173761D02*
X125396619Y-122221380D01*
X125206142Y-122221380D01*
X125110904Y-122173761D01*
X125063285Y-122078523D01*
X125063285Y-121697571D01*
X125110904Y-121602333D01*
X125206142Y-121554714D01*
X125396619Y-121554714D01*
X125491857Y-121602333D01*
X125539476Y-121697571D01*
X125539476Y-121792809D01*
X125063285Y-121888047D01*
X125968047Y-122221380D02*
X125968047Y-121221380D01*
X126349000Y-121221380D01*
X126444238Y-121269000D01*
X126491857Y-121316619D01*
X126539476Y-121411857D01*
X126539476Y-121554714D01*
X126491857Y-121649952D01*
X126444238Y-121697571D01*
X126349000Y-121745190D01*
X125968047Y-121745190D01*
X126968047Y-122221380D02*
X126968047Y-121554714D01*
X126968047Y-121221380D02*
X126920428Y-121269000D01*
X126968047Y-121316619D01*
X127015666Y-121269000D01*
X126968047Y-121221380D01*
X126968047Y-121316619D01*
X127587095Y-122221380D02*
X127491857Y-122173761D01*
X127444238Y-122078523D01*
X127444238Y-121221380D01*
X128110904Y-122221380D02*
X128015666Y-122173761D01*
X127968047Y-122078523D01*
X127968047Y-121221380D01*
D11*
X183342952Y-115974761D02*
X184009619Y-117974761D01*
X184676285Y-115974761D01*
X185247714Y-116165238D02*
X185342952Y-116070000D01*
X185533428Y-115974761D01*
X186009619Y-115974761D01*
X186200095Y-116070000D01*
X186295333Y-116165238D01*
X186390571Y-116355714D01*
X186390571Y-116546190D01*
X186295333Y-116831904D01*
X185152476Y-117974761D01*
X186390571Y-117974761D01*
D12*
X155304961Y-80647142D02*
X155304961Y-79747142D01*
X155647818Y-79747142D01*
X155733532Y-79790000D01*
X155776389Y-79832857D01*
X155819247Y-79918571D01*
X155819247Y-80047142D01*
X155776389Y-80132857D01*
X155733532Y-80175714D01*
X155647818Y-80218571D01*
X155304961Y-80218571D01*
X156504961Y-80175714D02*
X156633532Y-80218571D01*
X156676389Y-80261428D01*
X156719247Y-80347142D01*
X156719247Y-80475714D01*
X156676389Y-80561428D01*
X156633532Y-80604285D01*
X156547818Y-80647142D01*
X156204961Y-80647142D01*
X156204961Y-79747142D01*
X156504961Y-79747142D01*
X156590675Y-79790000D01*
X156633532Y-79832857D01*
X156676389Y-79918571D01*
X156676389Y-80004285D01*
X156633532Y-80090000D01*
X156590675Y-80132857D01*
X156504961Y-80175714D01*
X156204961Y-80175714D01*
X157576389Y-80647142D02*
X157062104Y-80647142D01*
X157319247Y-80647142D02*
X157319247Y-79747142D01*
X157233532Y-79875714D01*
X157147818Y-79961428D01*
X157062104Y-80004285D01*
X118947470Y-100967142D02*
X118947470Y-100067142D01*
X119290328Y-100067142D01*
X119376042Y-100110000D01*
X119418899Y-100152857D01*
X119461756Y-100238571D01*
X119461756Y-100367142D01*
X119418899Y-100452857D01*
X119376042Y-100495714D01*
X119290328Y-100538571D01*
X118947470Y-100538571D01*
X120147470Y-100495714D02*
X120276042Y-100538571D01*
X120318899Y-100581428D01*
X120361756Y-100667142D01*
X120361756Y-100795714D01*
X120318899Y-100881428D01*
X120276042Y-100924285D01*
X120190328Y-100967142D01*
X119847470Y-100967142D01*
X119847470Y-100067142D01*
X120147470Y-100067142D01*
X120233185Y-100110000D01*
X120276042Y-100152857D01*
X120318899Y-100238571D01*
X120318899Y-100324285D01*
X120276042Y-100410000D01*
X120233185Y-100452857D01*
X120147470Y-100495714D01*
X119847470Y-100495714D01*
X121176042Y-100067142D02*
X120747470Y-100067142D01*
X120704613Y-100495714D01*
X120747470Y-100452857D01*
X120833185Y-100410000D01*
X121047470Y-100410000D01*
X121133185Y-100452857D01*
X121176042Y-100495714D01*
X121218899Y-100581428D01*
X121218899Y-100795714D01*
X121176042Y-100881428D01*
X121133185Y-100924285D01*
X121047470Y-100967142D01*
X120833185Y-100967142D01*
X120747470Y-100924285D01*
X120704613Y-100881428D01*
X117675636Y-84573000D02*
X118532779Y-84573000D01*
X117847065Y-85684285D02*
X117975636Y-85727142D01*
X118189922Y-85727142D01*
X118275636Y-85684285D01*
X118318493Y-85641428D01*
X118361350Y-85555714D01*
X118361350Y-85470000D01*
X118318493Y-85384285D01*
X118275636Y-85341428D01*
X118189922Y-85298571D01*
X118018493Y-85255714D01*
X117932779Y-85212857D01*
X117889922Y-85170000D01*
X117847065Y-85084285D01*
X117847065Y-84998571D01*
X117889922Y-84912857D01*
X117932779Y-84870000D01*
X118018493Y-84827142D01*
X118232779Y-84827142D01*
X118361350Y-84870000D01*
X118532779Y-84573000D02*
X119432779Y-84573000D01*
X119047065Y-85255714D02*
X119175636Y-85298571D01*
X119218493Y-85341428D01*
X119261350Y-85427142D01*
X119261350Y-85555714D01*
X119218493Y-85641428D01*
X119175636Y-85684285D01*
X119089922Y-85727142D01*
X118747065Y-85727142D01*
X118747065Y-84827142D01*
X119047065Y-84827142D01*
X119132779Y-84870000D01*
X119175636Y-84912857D01*
X119218493Y-84998571D01*
X119218493Y-85084285D01*
X119175636Y-85170000D01*
X119132779Y-85212857D01*
X119047065Y-85255714D01*
X118747065Y-85255714D01*
X119432779Y-84573000D02*
X120461350Y-84573000D01*
X119561350Y-84827142D02*
X119775636Y-85727142D01*
X119947065Y-85084285D01*
X120118493Y-85727142D01*
X120332779Y-84827142D01*
X120461350Y-84573000D02*
X121404208Y-84573000D01*
X120847065Y-84827142D02*
X121018493Y-84827142D01*
X121104208Y-84870000D01*
X121189922Y-84955714D01*
X121232779Y-85127142D01*
X121232779Y-85427142D01*
X121189922Y-85598571D01*
X121104208Y-85684285D01*
X121018493Y-85727142D01*
X120847065Y-85727142D01*
X120761350Y-85684285D01*
X120675636Y-85598571D01*
X120632779Y-85427142D01*
X120632779Y-85127142D01*
X120675636Y-84955714D01*
X120761350Y-84870000D01*
X120847065Y-84827142D01*
X158370595Y-82232380D02*
X158942023Y-82232380D01*
X158656309Y-83232380D02*
X158656309Y-82232380D01*
X159275357Y-83232380D02*
X159275357Y-82232380D01*
X159608690Y-82946666D01*
X159942023Y-82232380D01*
X159942023Y-83232380D01*
X160370595Y-83184761D02*
X160513452Y-83232380D01*
X160751547Y-83232380D01*
X160846785Y-83184761D01*
X160894404Y-83137142D01*
X160942023Y-83041904D01*
X160942023Y-82946666D01*
X160894404Y-82851428D01*
X160846785Y-82803809D01*
X160751547Y-82756190D01*
X160561071Y-82708571D01*
X160465833Y-82660952D01*
X160418214Y-82613333D01*
X160370595Y-82518095D01*
X160370595Y-82422857D01*
X160418214Y-82327619D01*
X160465833Y-82280000D01*
X160561071Y-82232380D01*
X160799166Y-82232380D01*
X160942023Y-82280000D01*
D13*
X161579742Y-69607000D02*
X161465457Y-69549857D01*
X161294028Y-69549857D01*
X161122600Y-69607000D01*
X161008314Y-69721285D01*
X160951171Y-69835571D01*
X160894028Y-70064142D01*
X160894028Y-70235571D01*
X160951171Y-70464142D01*
X161008314Y-70578428D01*
X161122600Y-70692714D01*
X161294028Y-70749857D01*
X161408314Y-70749857D01*
X161579742Y-70692714D01*
X161636885Y-70635571D01*
X161636885Y-70235571D01*
X161408314Y-70235571D01*
X162151171Y-70749857D02*
X162151171Y-69549857D01*
X162836885Y-70749857D01*
X162836885Y-69549857D01*
X163408314Y-70749857D02*
X163408314Y-69549857D01*
X163694028Y-69549857D01*
X163865457Y-69607000D01*
X163979742Y-69721285D01*
X164036885Y-69835571D01*
X164094028Y-70064142D01*
X164094028Y-70235571D01*
X164036885Y-70464142D01*
X163979742Y-70578428D01*
X163865457Y-70692714D01*
X163694028Y-70749857D01*
X163408314Y-70749857D01*
D12*
X119071333Y-82287142D02*
X119585618Y-82287142D01*
X119328475Y-83187142D02*
X119328475Y-82287142D01*
X120399904Y-83101428D02*
X120357047Y-83144285D01*
X120228475Y-83187142D01*
X120142761Y-83187142D01*
X120014190Y-83144285D01*
X119928475Y-83058571D01*
X119885618Y-82972857D01*
X119842761Y-82801428D01*
X119842761Y-82672857D01*
X119885618Y-82501428D01*
X119928475Y-82415714D01*
X120014190Y-82330000D01*
X120142761Y-82287142D01*
X120228475Y-82287142D01*
X120357047Y-82330000D01*
X120399904Y-82372857D01*
X120785618Y-83187142D02*
X120785618Y-82287142D01*
X121299904Y-83187142D02*
X120914190Y-82672857D01*
X121299904Y-82287142D02*
X120785618Y-82801428D01*
D13*
X182296057Y-69575257D02*
X182981771Y-69575257D01*
X182638914Y-70775257D02*
X182638914Y-69575257D01*
X183210342Y-69575257D02*
X183610342Y-70775257D01*
X184010342Y-69575257D01*
X185096057Y-70660971D02*
X185038914Y-70718114D01*
X184867485Y-70775257D01*
X184753200Y-70775257D01*
X184581771Y-70718114D01*
X184467485Y-70603828D01*
X184410342Y-70489542D01*
X184353200Y-70260971D01*
X184353200Y-70089542D01*
X184410342Y-69860971D01*
X184467485Y-69746685D01*
X184581771Y-69632400D01*
X184753200Y-69575257D01*
X184867485Y-69575257D01*
X185038914Y-69632400D01*
X185096057Y-69689542D01*
X186296057Y-70660971D02*
X186238914Y-70718114D01*
X186067485Y-70775257D01*
X185953200Y-70775257D01*
X185781771Y-70718114D01*
X185667485Y-70603828D01*
X185610342Y-70489542D01*
X185553200Y-70260971D01*
X185553200Y-70089542D01*
X185610342Y-69860971D01*
X185667485Y-69746685D01*
X185781771Y-69632400D01*
X185953200Y-69575257D01*
X186067485Y-69575257D01*
X186238914Y-69632400D01*
X186296057Y-69689542D01*
D12*
X122229904Y-123094571D02*
X122372761Y-123142190D01*
X122420380Y-123189809D01*
X122468000Y-123285047D01*
X122468000Y-123427904D01*
X122420380Y-123523142D01*
X122372761Y-123570761D01*
X122277523Y-123618380D01*
X121896571Y-123618380D01*
X121896571Y-122618380D01*
X122229904Y-122618380D01*
X122325142Y-122666000D01*
X122372761Y-122713619D01*
X122420380Y-122808857D01*
X122420380Y-122904095D01*
X122372761Y-122999333D01*
X122325142Y-123046952D01*
X122229904Y-123094571D01*
X121896571Y-123094571D01*
X123039428Y-123618380D02*
X122944190Y-123570761D01*
X122896571Y-123475523D01*
X122896571Y-122618380D01*
X123848952Y-123618380D02*
X123848952Y-123094571D01*
X123801333Y-122999333D01*
X123706095Y-122951714D01*
X123515619Y-122951714D01*
X123420380Y-122999333D01*
X123848952Y-123570761D02*
X123753714Y-123618380D01*
X123515619Y-123618380D01*
X123420380Y-123570761D01*
X123372761Y-123475523D01*
X123372761Y-123380285D01*
X123420380Y-123285047D01*
X123515619Y-123237428D01*
X123753714Y-123237428D01*
X123848952Y-123189809D01*
X124753714Y-123570761D02*
X124658476Y-123618380D01*
X124468000Y-123618380D01*
X124372761Y-123570761D01*
X124325142Y-123523142D01*
X124277523Y-123427904D01*
X124277523Y-123142190D01*
X124325142Y-123046952D01*
X124372761Y-122999333D01*
X124468000Y-122951714D01*
X124658476Y-122951714D01*
X124753714Y-122999333D01*
X125182285Y-123618380D02*
X125182285Y-122618380D01*
X125277523Y-123237428D02*
X125563238Y-123618380D01*
X125563238Y-122951714D02*
X125182285Y-123332666D01*
X125991809Y-123618380D02*
X125991809Y-122618380D01*
X126372761Y-122618380D01*
X126468000Y-122666000D01*
X126515619Y-122713619D01*
X126563238Y-122808857D01*
X126563238Y-122951714D01*
X126515619Y-123046952D01*
X126468000Y-123094571D01*
X126372761Y-123142190D01*
X125991809Y-123142190D01*
X126991809Y-123618380D02*
X126991809Y-122951714D01*
X126991809Y-122618380D02*
X126944190Y-122666000D01*
X126991809Y-122713619D01*
X127039428Y-122666000D01*
X126991809Y-122618380D01*
X126991809Y-122713619D01*
X127610857Y-123618380D02*
X127515619Y-123570761D01*
X127468000Y-123475523D01*
X127468000Y-122618380D01*
X128134666Y-123618380D02*
X128039428Y-123570761D01*
X127991809Y-123475523D01*
X127991809Y-122618380D01*
X155276431Y-92447142D02*
X155790717Y-92447142D01*
X155533574Y-93347142D02*
X155533574Y-92447142D01*
X156047860Y-93304285D02*
X156176431Y-93347142D01*
X156390717Y-93347142D01*
X156476431Y-93304285D01*
X156519288Y-93261428D01*
X156562145Y-93175714D01*
X156562145Y-93090000D01*
X156519288Y-93004285D01*
X156476431Y-92961428D01*
X156390717Y-92918571D01*
X156219288Y-92875714D01*
X156133574Y-92832857D01*
X156090717Y-92790000D01*
X156047860Y-92704285D01*
X156047860Y-92618571D01*
X156090717Y-92532857D01*
X156133574Y-92490000D01*
X156219288Y-92447142D01*
X156433574Y-92447142D01*
X156562145Y-92490000D01*
X156819288Y-92447142D02*
X157333574Y-92447142D01*
X157076431Y-93347142D02*
X157076431Y-92447142D01*
D14*
X160586857Y-122939000D02*
X160758285Y-123005666D01*
X160815428Y-123072333D01*
X160872571Y-123205666D01*
X160872571Y-123405666D01*
X160815428Y-123539000D01*
X160758285Y-123605666D01*
X160644000Y-123672333D01*
X160186857Y-123672333D01*
X160186857Y-122272333D01*
X160586857Y-122272333D01*
X160701142Y-122339000D01*
X160758285Y-122405666D01*
X160815428Y-122539000D01*
X160815428Y-122672333D01*
X160758285Y-122805666D01*
X160701142Y-122872333D01*
X160586857Y-122939000D01*
X160186857Y-122939000D01*
X161558285Y-123672333D02*
X161444000Y-123605666D01*
X161386857Y-123472333D01*
X161386857Y-122272333D01*
X162529714Y-122739000D02*
X162529714Y-123672333D01*
X162015428Y-122739000D02*
X162015428Y-123472333D01*
X162072571Y-123605666D01*
X162186857Y-123672333D01*
X162358285Y-123672333D01*
X162472571Y-123605666D01*
X162529714Y-123539000D01*
X163558285Y-123605666D02*
X163444000Y-123672333D01*
X163215428Y-123672333D01*
X163101142Y-123605666D01*
X163044000Y-123472333D01*
X163044000Y-122939000D01*
X163101142Y-122805666D01*
X163215428Y-122739000D01*
X163444000Y-122739000D01*
X163558285Y-122805666D01*
X163615428Y-122939000D01*
X163615428Y-123072333D01*
X163044000Y-123205666D01*
X164129714Y-123139000D02*
X165044000Y-123139000D01*
X164586857Y-123672333D02*
X164586857Y-122605666D01*
X166015428Y-122939000D02*
X166186857Y-123005666D01*
X166244000Y-123072333D01*
X166301142Y-123205666D01*
X166301142Y-123405666D01*
X166244000Y-123539000D01*
X166186857Y-123605666D01*
X166072571Y-123672333D01*
X165615428Y-123672333D01*
X165615428Y-122272333D01*
X166015428Y-122272333D01*
X166129714Y-122339000D01*
X166186857Y-122405666D01*
X166244000Y-122539000D01*
X166244000Y-122672333D01*
X166186857Y-122805666D01*
X166129714Y-122872333D01*
X166015428Y-122939000D01*
X165615428Y-122939000D01*
X166986857Y-123672333D02*
X166872571Y-123605666D01*
X166815428Y-123472333D01*
X166815428Y-122272333D01*
X167958285Y-123672333D02*
X167958285Y-122939000D01*
X167901142Y-122805666D01*
X167786857Y-122739000D01*
X167558285Y-122739000D01*
X167444000Y-122805666D01*
X167958285Y-123605666D02*
X167844000Y-123672333D01*
X167558285Y-123672333D01*
X167444000Y-123605666D01*
X167386857Y-123472333D01*
X167386857Y-123339000D01*
X167444000Y-123205666D01*
X167558285Y-123139000D01*
X167844000Y-123139000D01*
X167958285Y-123072333D01*
X169044000Y-123605666D02*
X168929714Y-123672333D01*
X168701142Y-123672333D01*
X168586857Y-123605666D01*
X168529714Y-123539000D01*
X168472571Y-123405666D01*
X168472571Y-123005666D01*
X168529714Y-122872333D01*
X168586857Y-122805666D01*
X168701142Y-122739000D01*
X168929714Y-122739000D01*
X169044000Y-122805666D01*
X169558285Y-123672333D02*
X169558285Y-122272333D01*
X169672571Y-123139000D02*
X170015428Y-123672333D01*
X170015428Y-122739000D02*
X169558285Y-123272333D01*
X170929714Y-122939000D02*
X171101142Y-123005666D01*
X171158285Y-123072333D01*
X171215428Y-123205666D01*
X171215428Y-123405666D01*
X171158285Y-123539000D01*
X171101142Y-123605666D01*
X170986857Y-123672333D01*
X170529714Y-123672333D01*
X170529714Y-122272333D01*
X170929714Y-122272333D01*
X171044000Y-122339000D01*
X171101142Y-122405666D01*
X171158285Y-122539000D01*
X171158285Y-122672333D01*
X171101142Y-122805666D01*
X171044000Y-122872333D01*
X170929714Y-122939000D01*
X170529714Y-122939000D01*
X171729714Y-123672333D02*
X171729714Y-122739000D01*
X171729714Y-122272333D02*
X171672571Y-122339000D01*
X171729714Y-122405666D01*
X171786857Y-122339000D01*
X171729714Y-122272333D01*
X171729714Y-122405666D01*
X172472571Y-123672333D02*
X172358285Y-123605666D01*
X172301142Y-123472333D01*
X172301142Y-122272333D01*
X173101142Y-123672333D02*
X172986857Y-123605666D01*
X172929714Y-123472333D01*
X172929714Y-122272333D01*
X175101142Y-122339000D02*
X174986857Y-122272333D01*
X174815428Y-122272333D01*
X174644000Y-122339000D01*
X174529714Y-122472333D01*
X174472571Y-122605666D01*
X174415428Y-122872333D01*
X174415428Y-123072333D01*
X174472571Y-123339000D01*
X174529714Y-123472333D01*
X174644000Y-123605666D01*
X174815428Y-123672333D01*
X174929714Y-123672333D01*
X175101142Y-123605666D01*
X175158285Y-123539000D01*
X175158285Y-123072333D01*
X174929714Y-123072333D01*
X175844000Y-123672333D02*
X175729714Y-123605666D01*
X175672571Y-123472333D01*
X175672571Y-122272333D01*
X176472571Y-123672333D02*
X176358285Y-123605666D01*
X176301142Y-123539000D01*
X176244000Y-123405666D01*
X176244000Y-123005666D01*
X176301142Y-122872333D01*
X176358285Y-122805666D01*
X176472571Y-122739000D01*
X176644000Y-122739000D01*
X176758285Y-122805666D01*
X176815428Y-122872333D01*
X176872571Y-123005666D01*
X176872571Y-123405666D01*
X176815428Y-123539000D01*
X176758285Y-123605666D01*
X176644000Y-123672333D01*
X176472571Y-123672333D01*
X177329714Y-123605666D02*
X177444000Y-123672333D01*
X177672571Y-123672333D01*
X177786857Y-123605666D01*
X177844000Y-123472333D01*
X177844000Y-123405666D01*
X177786857Y-123272333D01*
X177672571Y-123205666D01*
X177501142Y-123205666D01*
X177386857Y-123139000D01*
X177329714Y-123005666D01*
X177329714Y-122939000D01*
X177386857Y-122805666D01*
X177501142Y-122739000D01*
X177672571Y-122739000D01*
X177786857Y-122805666D01*
X178301142Y-123605666D02*
X178415428Y-123672333D01*
X178644000Y-123672333D01*
X178758285Y-123605666D01*
X178815428Y-123472333D01*
X178815428Y-123405666D01*
X178758285Y-123272333D01*
X178644000Y-123205666D01*
X178472571Y-123205666D01*
X178358285Y-123139000D01*
X178301142Y-123005666D01*
X178301142Y-122939000D01*
X178358285Y-122805666D01*
X178472571Y-122739000D01*
X178644000Y-122739000D01*
X178758285Y-122805666D01*
X179215428Y-122739000D02*
X179501142Y-123672333D01*
X179786857Y-122739000D02*
X179501142Y-123672333D01*
X179386857Y-124005666D01*
X179329714Y-124072333D01*
X179215428Y-124139000D01*
X180244000Y-123139000D02*
X181158285Y-123139000D01*
X181729714Y-123672333D02*
X181729714Y-122272333D01*
X182129714Y-123272333D01*
X182529714Y-122272333D01*
X182529714Y-123672333D01*
X183044000Y-123605666D02*
X183215428Y-123672333D01*
X183501142Y-123672333D01*
X183615428Y-123605666D01*
X183672571Y-123539000D01*
X183729714Y-123405666D01*
X183729714Y-123272333D01*
X183672571Y-123139000D01*
X183615428Y-123072333D01*
X183501142Y-123005666D01*
X183272571Y-122939000D01*
X183158285Y-122872333D01*
X183101142Y-122805666D01*
X183044000Y-122672333D01*
X183044000Y-122539000D01*
X183101142Y-122405666D01*
X183158285Y-122339000D01*
X183272571Y-122272333D01*
X183558285Y-122272333D01*
X183729714Y-122339000D01*
X184244000Y-123672333D02*
X184244000Y-122272333D01*
X184701142Y-122272333D01*
X184815428Y-122339000D01*
X184872571Y-122405666D01*
X184929714Y-122539000D01*
X184929714Y-122739000D01*
X184872571Y-122872333D01*
X184815428Y-122939000D01*
X184701142Y-123005666D01*
X184244000Y-123005666D01*
X185958285Y-122739000D02*
X185958285Y-123672333D01*
X185672571Y-122205666D02*
X185386857Y-123205666D01*
X186129714Y-123205666D01*
X186472571Y-122272333D02*
X187215428Y-122272333D01*
X186815428Y-122805666D01*
X186986857Y-122805666D01*
X187101142Y-122872333D01*
X187158285Y-122939000D01*
X187215428Y-123072333D01*
X187215428Y-123405666D01*
X187158285Y-123539000D01*
X187101142Y-123605666D01*
X186986857Y-123672333D01*
X186644000Y-123672333D01*
X186529714Y-123605666D01*
X186472571Y-123539000D01*
X187958285Y-122272333D02*
X188072571Y-122272333D01*
X188186857Y-122339000D01*
X188244000Y-122405666D01*
X188301142Y-122539000D01*
X188358285Y-122805666D01*
X188358285Y-123139000D01*
X188301142Y-123405666D01*
X188244000Y-123539000D01*
X188186857Y-123605666D01*
X188072571Y-123672333D01*
X187958285Y-123672333D01*
X187844000Y-123605666D01*
X187786857Y-123539000D01*
X187729714Y-123405666D01*
X187672571Y-123139000D01*
X187672571Y-122805666D01*
X187729714Y-122539000D01*
X187786857Y-122405666D01*
X187844000Y-122339000D01*
X187958285Y-122272333D01*
D12*
X117879904Y-111172380D02*
X117879904Y-110172380D01*
X118118000Y-110172380D01*
X118260857Y-110220000D01*
X118356095Y-110315238D01*
X118403714Y-110410476D01*
X118451333Y-110600952D01*
X118451333Y-110743809D01*
X118403714Y-110934285D01*
X118356095Y-111029523D01*
X118260857Y-111124761D01*
X118118000Y-111172380D01*
X117879904Y-111172380D01*
X119403714Y-111172380D02*
X118832285Y-111172380D01*
X119118000Y-111172380D02*
X119118000Y-110172380D01*
X119022761Y-110315238D01*
X118927523Y-110410476D01*
X118832285Y-110458095D01*
X119975333Y-114220380D02*
X119642000Y-113744190D01*
X119403904Y-114220380D02*
X119403904Y-113220380D01*
X119784857Y-113220380D01*
X119880095Y-113268000D01*
X119927714Y-113315619D01*
X119975333Y-113410857D01*
X119975333Y-113553714D01*
X119927714Y-113648952D01*
X119880095Y-113696571D01*
X119784857Y-113744190D01*
X119403904Y-113744190D01*
X120880095Y-113220380D02*
X120403904Y-113220380D01*
X120356285Y-113696571D01*
X120403904Y-113648952D01*
X120499142Y-113601333D01*
X120737238Y-113601333D01*
X120832476Y-113648952D01*
X120880095Y-113696571D01*
X120927714Y-113791809D01*
X120927714Y-114029904D01*
X120880095Y-114125142D01*
X120832476Y-114172761D01*
X120737238Y-114220380D01*
X120499142Y-114220380D01*
X120403904Y-114172761D01*
X120356285Y-114125142D01*
X164984133Y-103603180D02*
X164650800Y-103126990D01*
X164412704Y-103603180D02*
X164412704Y-102603180D01*
X164793657Y-102603180D01*
X164888895Y-102650800D01*
X164936514Y-102698419D01*
X164984133Y-102793657D01*
X164984133Y-102936514D01*
X164936514Y-103031752D01*
X164888895Y-103079371D01*
X164793657Y-103126990D01*
X164412704Y-103126990D01*
X165317466Y-102603180D02*
X165936514Y-102603180D01*
X165603180Y-102984133D01*
X165746038Y-102984133D01*
X165841276Y-103031752D01*
X165888895Y-103079371D01*
X165936514Y-103174609D01*
X165936514Y-103412704D01*
X165888895Y-103507942D01*
X165841276Y-103555561D01*
X165746038Y-103603180D01*
X165460323Y-103603180D01*
X165365085Y-103555561D01*
X165317466Y-103507942D01*
X165034933Y-106651180D02*
X164701600Y-106174990D01*
X164463504Y-106651180D02*
X164463504Y-105651180D01*
X164844457Y-105651180D01*
X164939695Y-105698800D01*
X164987314Y-105746419D01*
X165034933Y-105841657D01*
X165034933Y-105984514D01*
X164987314Y-106079752D01*
X164939695Y-106127371D01*
X164844457Y-106174990D01*
X164463504Y-106174990D01*
X165892076Y-105984514D02*
X165892076Y-106651180D01*
X165653980Y-105603561D02*
X165415885Y-106317847D01*
X166034933Y-106317847D01*
X162226666Y-80200380D02*
X162226666Y-80914666D01*
X162179047Y-81057523D01*
X162083809Y-81152761D01*
X161940952Y-81200380D01*
X161845714Y-81200380D01*
X162607619Y-80200380D02*
X163274285Y-80200380D01*
X162845714Y-81200380D01*
X183592742Y-78043366D02*
X183640361Y-78090985D01*
X183687980Y-78233842D01*
X183687980Y-78329080D01*
X183640361Y-78471938D01*
X183545123Y-78567176D01*
X183449885Y-78614795D01*
X183259409Y-78662414D01*
X183116552Y-78662414D01*
X182926076Y-78614795D01*
X182830838Y-78567176D01*
X182735600Y-78471938D01*
X182687980Y-78329080D01*
X182687980Y-78233842D01*
X182735600Y-78090985D01*
X182783219Y-78043366D01*
X182687980Y-77710033D02*
X182687980Y-77043366D01*
X183687980Y-77471938D01*
X172706833Y-117173142D02*
X172659214Y-117220761D01*
X172516357Y-117268380D01*
X172421119Y-117268380D01*
X172278261Y-117220761D01*
X172183023Y-117125523D01*
X172135404Y-117030285D01*
X172087785Y-116839809D01*
X172087785Y-116696952D01*
X172135404Y-116506476D01*
X172183023Y-116411238D01*
X172278261Y-116316000D01*
X172421119Y-116268380D01*
X172516357Y-116268380D01*
X172659214Y-116316000D01*
X172706833Y-116363619D01*
X173087785Y-116363619D02*
X173135404Y-116316000D01*
X173230642Y-116268380D01*
X173468738Y-116268380D01*
X173563976Y-116316000D01*
X173611595Y-116363619D01*
X173659214Y-116458857D01*
X173659214Y-116554095D01*
X173611595Y-116696952D01*
X173040166Y-117268380D01*
X173659214Y-117268380D01*
X172386666Y-107459571D02*
X172053333Y-107459571D01*
X172053333Y-107983380D02*
X172053333Y-106983380D01*
X172529523Y-106983380D01*
X173434285Y-107983380D02*
X172862857Y-107983380D01*
X173148571Y-107983380D02*
X173148571Y-106983380D01*
X173053333Y-107126238D01*
X172958095Y-107221476D01*
X172862857Y-107269095D01*
X172680333Y-106378142D02*
X172632714Y-106425761D01*
X172489857Y-106473380D01*
X172394619Y-106473380D01*
X172251761Y-106425761D01*
X172156523Y-106330523D01*
X172108904Y-106235285D01*
X172061285Y-106044809D01*
X172061285Y-105901952D01*
X172108904Y-105711476D01*
X172156523Y-105616238D01*
X172251761Y-105521000D01*
X172394619Y-105473380D01*
X172489857Y-105473380D01*
X172632714Y-105521000D01*
X172680333Y-105568619D01*
X173537476Y-105473380D02*
X173347000Y-105473380D01*
X173251761Y-105521000D01*
X173204142Y-105568619D01*
X173108904Y-105711476D01*
X173061285Y-105901952D01*
X173061285Y-106282904D01*
X173108904Y-106378142D01*
X173156523Y-106425761D01*
X173251761Y-106473380D01*
X173442238Y-106473380D01*
X173537476Y-106425761D01*
X173585095Y-106378142D01*
X173632714Y-106282904D01*
X173632714Y-106044809D01*
X173585095Y-105949571D01*
X173537476Y-105901952D01*
X173442238Y-105854333D01*
X173251761Y-105854333D01*
X173156523Y-105901952D01*
X173108904Y-105949571D01*
X173061285Y-106044809D01*
X178395333Y-110061142D02*
X178347714Y-110108761D01*
X178204857Y-110156380D01*
X178109619Y-110156380D01*
X177966761Y-110108761D01*
X177871523Y-110013523D01*
X177823904Y-109918285D01*
X177776285Y-109727809D01*
X177776285Y-109584952D01*
X177823904Y-109394476D01*
X177871523Y-109299238D01*
X177966761Y-109204000D01*
X178109619Y-109156380D01*
X178204857Y-109156380D01*
X178347714Y-109204000D01*
X178395333Y-109251619D01*
X178728666Y-109156380D02*
X179347714Y-109156380D01*
X179014380Y-109537333D01*
X179157238Y-109537333D01*
X179252476Y-109584952D01*
X179300095Y-109632571D01*
X179347714Y-109727809D01*
X179347714Y-109965904D01*
X179300095Y-110061142D01*
X179252476Y-110108761D01*
X179157238Y-110156380D01*
X178871523Y-110156380D01*
X178776285Y-110108761D01*
X178728666Y-110061142D01*
X178395333Y-111585142D02*
X178347714Y-111632761D01*
X178204857Y-111680380D01*
X178109619Y-111680380D01*
X177966761Y-111632761D01*
X177871523Y-111537523D01*
X177823904Y-111442285D01*
X177776285Y-111251809D01*
X177776285Y-111108952D01*
X177823904Y-110918476D01*
X177871523Y-110823238D01*
X177966761Y-110728000D01*
X178109619Y-110680380D01*
X178204857Y-110680380D01*
X178347714Y-110728000D01*
X178395333Y-110775619D01*
X179300095Y-110680380D02*
X178823904Y-110680380D01*
X178776285Y-111156571D01*
X178823904Y-111108952D01*
X178919142Y-111061333D01*
X179157238Y-111061333D01*
X179252476Y-111108952D01*
X179300095Y-111156571D01*
X179347714Y-111251809D01*
X179347714Y-111489904D01*
X179300095Y-111585142D01*
X179252476Y-111632761D01*
X179157238Y-111680380D01*
X178919142Y-111680380D01*
X178823904Y-111632761D01*
X178776285Y-111585142D01*
X175966380Y-92868476D02*
X175490190Y-93201809D01*
X175966380Y-93439904D02*
X174966380Y-93439904D01*
X174966380Y-93058952D01*
X175014000Y-92963714D01*
X175061619Y-92916095D01*
X175156857Y-92868476D01*
X175299714Y-92868476D01*
X175394952Y-92916095D01*
X175442571Y-92963714D01*
X175490190Y-93058952D01*
X175490190Y-93439904D01*
X175966380Y-92439904D02*
X174966380Y-92439904D01*
X175966380Y-91868476D01*
X174966380Y-91868476D01*
X175061619Y-91439904D02*
X175014000Y-91392285D01*
X174966380Y-91297047D01*
X174966380Y-91058952D01*
X175014000Y-90963714D01*
X175061619Y-90916095D01*
X175156857Y-90868476D01*
X175252095Y-90868476D01*
X175394952Y-90916095D01*
X175966380Y-91487523D01*
X175966380Y-90868476D01*
X172705733Y-115744380D02*
X172372400Y-115268190D01*
X172134304Y-115744380D02*
X172134304Y-114744380D01*
X172515257Y-114744380D01*
X172610495Y-114792000D01*
X172658114Y-114839619D01*
X172705733Y-114934857D01*
X172705733Y-115077714D01*
X172658114Y-115172952D01*
X172610495Y-115220571D01*
X172515257Y-115268190D01*
X172134304Y-115268190D01*
X173086685Y-114839619D02*
X173134304Y-114792000D01*
X173229542Y-114744380D01*
X173467638Y-114744380D01*
X173562876Y-114792000D01*
X173610495Y-114839619D01*
X173658114Y-114934857D01*
X173658114Y-115030095D01*
X173610495Y-115172952D01*
X173039066Y-115744380D01*
X173658114Y-115744380D01*
X153336666Y-112922380D02*
X153336666Y-113636666D01*
X153289047Y-113779523D01*
X153193809Y-113874761D01*
X153050952Y-113922380D01*
X152955714Y-113922380D01*
X154241428Y-113255714D02*
X154241428Y-113922380D01*
X154003333Y-112874761D02*
X153765238Y-113589047D01*
X154384285Y-113589047D01*
X185116742Y-78069866D02*
X185164361Y-78117485D01*
X185211980Y-78260342D01*
X185211980Y-78355580D01*
X185164361Y-78498438D01*
X185069123Y-78593676D01*
X184973885Y-78641295D01*
X184783409Y-78688914D01*
X184640552Y-78688914D01*
X184450076Y-78641295D01*
X184354838Y-78593676D01*
X184259600Y-78498438D01*
X184211980Y-78355580D01*
X184211980Y-78260342D01*
X184259600Y-78117485D01*
X184307219Y-78069866D01*
X184640552Y-77498438D02*
X184592933Y-77593676D01*
X184545314Y-77641295D01*
X184450076Y-77688914D01*
X184402457Y-77688914D01*
X184307219Y-77641295D01*
X184259600Y-77593676D01*
X184211980Y-77498438D01*
X184211980Y-77307961D01*
X184259600Y-77212723D01*
X184307219Y-77165104D01*
X184402457Y-77117485D01*
X184450076Y-77117485D01*
X184545314Y-77165104D01*
X184592933Y-77212723D01*
X184640552Y-77307961D01*
X184640552Y-77498438D01*
X184688171Y-77593676D01*
X184735790Y-77641295D01*
X184831028Y-77688914D01*
X185021504Y-77688914D01*
X185116742Y-77641295D01*
X185164361Y-77593676D01*
X185211980Y-77498438D01*
X185211980Y-77307961D01*
X185164361Y-77212723D01*
X185116742Y-77165104D01*
X185021504Y-77117485D01*
X184831028Y-77117485D01*
X184735790Y-77165104D01*
X184688171Y-77212723D01*
X184640552Y-77307961D01*
X175966380Y-89820476D02*
X175490190Y-90153809D01*
X175966380Y-90391904D02*
X174966380Y-90391904D01*
X174966380Y-90010952D01*
X175014000Y-89915714D01*
X175061619Y-89868095D01*
X175156857Y-89820476D01*
X175299714Y-89820476D01*
X175394952Y-89868095D01*
X175442571Y-89915714D01*
X175490190Y-90010952D01*
X175490190Y-90391904D01*
X175966380Y-89391904D02*
X174966380Y-89391904D01*
X175966380Y-88820476D01*
X174966380Y-88820476D01*
X174966380Y-88439523D02*
X174966380Y-87820476D01*
X175347333Y-88153809D01*
X175347333Y-88010952D01*
X175394952Y-87915714D01*
X175442571Y-87868095D01*
X175537809Y-87820476D01*
X175775904Y-87820476D01*
X175871142Y-87868095D01*
X175918761Y-87915714D01*
X175966380Y-88010952D01*
X175966380Y-88296666D01*
X175918761Y-88391904D01*
X175871142Y-88439523D01*
X167727333Y-96853142D02*
X167679714Y-96900761D01*
X167536857Y-96948380D01*
X167441619Y-96948380D01*
X167298761Y-96900761D01*
X167203523Y-96805523D01*
X167155904Y-96710285D01*
X167108285Y-96519809D01*
X167108285Y-96376952D01*
X167155904Y-96186476D01*
X167203523Y-96091238D01*
X167298761Y-95996000D01*
X167441619Y-95948380D01*
X167536857Y-95948380D01*
X167679714Y-95996000D01*
X167727333Y-96043619D01*
X168203523Y-96948380D02*
X168394000Y-96948380D01*
X168489238Y-96900761D01*
X168536857Y-96853142D01*
X168632095Y-96710285D01*
X168679714Y-96519809D01*
X168679714Y-96138857D01*
X168632095Y-96043619D01*
X168584476Y-95996000D01*
X168489238Y-95948380D01*
X168298761Y-95948380D01*
X168203523Y-95996000D01*
X168155904Y-96043619D01*
X168108285Y-96138857D01*
X168108285Y-96376952D01*
X168155904Y-96472190D01*
X168203523Y-96519809D01*
X168298761Y-96567428D01*
X168489238Y-96567428D01*
X168584476Y-96519809D01*
X168632095Y-96472190D01*
X168679714Y-96376952D01*
X169164095Y-101409380D02*
X169164095Y-102218904D01*
X169211714Y-102314142D01*
X169259333Y-102361761D01*
X169354571Y-102409380D01*
X169545047Y-102409380D01*
X169640285Y-102361761D01*
X169687904Y-102314142D01*
X169735523Y-102218904D01*
X169735523Y-101409380D01*
X170116476Y-101409380D02*
X170735523Y-101409380D01*
X170402190Y-101790333D01*
X170545047Y-101790333D01*
X170640285Y-101837952D01*
X170687904Y-101885571D01*
X170735523Y-101980809D01*
X170735523Y-102218904D01*
X170687904Y-102314142D01*
X170640285Y-102361761D01*
X170545047Y-102409380D01*
X170259333Y-102409380D01*
X170164095Y-102361761D01*
X170116476Y-102314142D01*
X172680333Y-118697142D02*
X172632714Y-118744761D01*
X172489857Y-118792380D01*
X172394619Y-118792380D01*
X172251761Y-118744761D01*
X172156523Y-118649523D01*
X172108904Y-118554285D01*
X172061285Y-118363809D01*
X172061285Y-118220952D01*
X172108904Y-118030476D01*
X172156523Y-117935238D01*
X172251761Y-117840000D01*
X172394619Y-117792380D01*
X172489857Y-117792380D01*
X172632714Y-117840000D01*
X172680333Y-117887619D01*
X173632714Y-118792380D02*
X173061285Y-118792380D01*
X173347000Y-118792380D02*
X173347000Y-117792380D01*
X173251761Y-117935238D01*
X173156523Y-118030476D01*
X173061285Y-118078095D01*
X166457380Y-93193904D02*
X167266904Y-93193904D01*
X167362142Y-93146285D01*
X167409761Y-93098666D01*
X167457380Y-93003428D01*
X167457380Y-92812952D01*
X167409761Y-92717714D01*
X167362142Y-92670095D01*
X167266904Y-92622476D01*
X166457380Y-92622476D01*
X166457380Y-91670095D02*
X166457380Y-92146285D01*
X166933571Y-92193904D01*
X166885952Y-92146285D01*
X166838333Y-92051047D01*
X166838333Y-91812952D01*
X166885952Y-91717714D01*
X166933571Y-91670095D01*
X167028809Y-91622476D01*
X167266904Y-91622476D01*
X167362142Y-91670095D01*
X167409761Y-91717714D01*
X167457380Y-91812952D01*
X167457380Y-92051047D01*
X167409761Y-92146285D01*
X167362142Y-92193904D01*
X172705733Y-114220380D02*
X172372400Y-113744190D01*
X172134304Y-114220380D02*
X172134304Y-113220380D01*
X172515257Y-113220380D01*
X172610495Y-113268000D01*
X172658114Y-113315619D01*
X172705733Y-113410857D01*
X172705733Y-113553714D01*
X172658114Y-113648952D01*
X172610495Y-113696571D01*
X172515257Y-113744190D01*
X172134304Y-113744190D01*
X173658114Y-114220380D02*
X173086685Y-114220380D01*
X173372400Y-114220380D02*
X173372400Y-113220380D01*
X173277161Y-113363238D01*
X173181923Y-113458476D01*
X173086685Y-113506095D01*
X172847095Y-110045380D02*
X172847095Y-110854904D01*
X172894714Y-110950142D01*
X172942333Y-110997761D01*
X173037571Y-111045380D01*
X173228047Y-111045380D01*
X173323285Y-110997761D01*
X173370904Y-110950142D01*
X173418523Y-110854904D01*
X173418523Y-110045380D01*
X173847095Y-110140619D02*
X173894714Y-110093000D01*
X173989952Y-110045380D01*
X174228047Y-110045380D01*
X174323285Y-110093000D01*
X174370904Y-110140619D01*
X174418523Y-110235857D01*
X174418523Y-110331095D01*
X174370904Y-110473952D01*
X173799476Y-111045380D01*
X174418523Y-111045380D01*
X175641095Y-82486380D02*
X175641095Y-83295904D01*
X175688714Y-83391142D01*
X175736333Y-83438761D01*
X175831571Y-83486380D01*
X176022047Y-83486380D01*
X176117285Y-83438761D01*
X176164904Y-83391142D01*
X176212523Y-83295904D01*
X176212523Y-82486380D01*
X177117285Y-82486380D02*
X176926809Y-82486380D01*
X176831571Y-82534000D01*
X176783952Y-82581619D01*
X176688714Y-82724476D01*
X176641095Y-82914952D01*
X176641095Y-83295904D01*
X176688714Y-83391142D01*
X176736333Y-83438761D01*
X176831571Y-83486380D01*
X177022047Y-83486380D01*
X177117285Y-83438761D01*
X177164904Y-83391142D01*
X177212523Y-83295904D01*
X177212523Y-83057809D01*
X177164904Y-82962571D01*
X177117285Y-82914952D01*
X177022047Y-82867333D01*
X176831571Y-82867333D01*
X176736333Y-82914952D01*
X176688714Y-82962571D01*
X176641095Y-83057809D01*
X166981142Y-77326857D02*
X167028761Y-77374476D01*
X167076380Y-77517333D01*
X167076380Y-77612571D01*
X167028761Y-77755428D01*
X166933523Y-77850666D01*
X166838285Y-77898285D01*
X166647809Y-77945904D01*
X166504952Y-77945904D01*
X166314476Y-77898285D01*
X166219238Y-77850666D01*
X166124000Y-77755428D01*
X166076380Y-77612571D01*
X166076380Y-77517333D01*
X166124000Y-77374476D01*
X166171619Y-77326857D01*
X167076380Y-76374476D02*
X167076380Y-76945904D01*
X167076380Y-76660190D02*
X166076380Y-76660190D01*
X166219238Y-76755428D01*
X166314476Y-76850666D01*
X166362095Y-76945904D01*
X166076380Y-75755428D02*
X166076380Y-75660190D01*
X166124000Y-75564952D01*
X166171619Y-75517333D01*
X166266857Y-75469714D01*
X166457333Y-75422095D01*
X166695428Y-75422095D01*
X166885904Y-75469714D01*
X166981142Y-75517333D01*
X167028761Y-75564952D01*
X167076380Y-75660190D01*
X167076380Y-75755428D01*
X167028761Y-75850666D01*
X166981142Y-75898285D01*
X166885904Y-75945904D01*
X166695428Y-75993523D01*
X166457333Y-75993523D01*
X166266857Y-75945904D01*
X166171619Y-75898285D01*
X166124000Y-75850666D01*
X166076380Y-75755428D01*
X165034933Y-105031942D02*
X164987314Y-105079561D01*
X164844457Y-105127180D01*
X164749219Y-105127180D01*
X164606361Y-105079561D01*
X164511123Y-104984323D01*
X164463504Y-104889085D01*
X164415885Y-104698609D01*
X164415885Y-104555752D01*
X164463504Y-104365276D01*
X164511123Y-104270038D01*
X164606361Y-104174800D01*
X164749219Y-104127180D01*
X164844457Y-104127180D01*
X164987314Y-104174800D01*
X165034933Y-104222419D01*
X165892076Y-104460514D02*
X165892076Y-105127180D01*
X165653980Y-104079561D02*
X165415885Y-104793847D01*
X166034933Y-104793847D01*
X175641095Y-103060380D02*
X175641095Y-103869904D01*
X175688714Y-103965142D01*
X175736333Y-104012761D01*
X175831571Y-104060380D01*
X176022047Y-104060380D01*
X176117285Y-104012761D01*
X176164904Y-103965142D01*
X176212523Y-103869904D01*
X176212523Y-103060380D01*
X176593476Y-103060380D02*
X177260142Y-103060380D01*
X176831571Y-104060380D01*
X161869523Y-76628380D02*
X161536190Y-76152190D01*
X161298095Y-76628380D02*
X161298095Y-75628380D01*
X161679047Y-75628380D01*
X161774285Y-75676000D01*
X161821904Y-75723619D01*
X161869523Y-75818857D01*
X161869523Y-75961714D01*
X161821904Y-76056952D01*
X161774285Y-76104571D01*
X161679047Y-76152190D01*
X161298095Y-76152190D01*
X162298095Y-76628380D02*
X162298095Y-75628380D01*
X162869523Y-76628380D01*
X162869523Y-75628380D01*
X163869523Y-76628380D02*
X163298095Y-76628380D01*
X163583809Y-76628380D02*
X163583809Y-75628380D01*
X163488571Y-75771238D01*
X163393333Y-75866476D01*
X163298095Y-75914095D01*
X166584380Y-83414904D02*
X167393904Y-83414904D01*
X167489142Y-83367285D01*
X167536761Y-83319666D01*
X167584380Y-83224428D01*
X167584380Y-83033952D01*
X167536761Y-82938714D01*
X167489142Y-82891095D01*
X167393904Y-82843476D01*
X166584380Y-82843476D01*
X166917714Y-81938714D02*
X167584380Y-81938714D01*
X166536761Y-82176809D02*
X167251047Y-82414904D01*
X167251047Y-81795857D01*
X166981142Y-86978857D02*
X167028761Y-87026476D01*
X167076380Y-87169333D01*
X167076380Y-87264571D01*
X167028761Y-87407428D01*
X166933523Y-87502666D01*
X166838285Y-87550285D01*
X166647809Y-87597904D01*
X166504952Y-87597904D01*
X166314476Y-87550285D01*
X166219238Y-87502666D01*
X166124000Y-87407428D01*
X166076380Y-87264571D01*
X166076380Y-87169333D01*
X166124000Y-87026476D01*
X166171619Y-86978857D01*
X167076380Y-86026476D02*
X167076380Y-86597904D01*
X167076380Y-86312190D02*
X166076380Y-86312190D01*
X166219238Y-86407428D01*
X166314476Y-86502666D01*
X166362095Y-86597904D01*
X166171619Y-85645523D02*
X166124000Y-85597904D01*
X166076380Y-85502666D01*
X166076380Y-85264571D01*
X166124000Y-85169333D01*
X166171619Y-85121714D01*
X166266857Y-85074095D01*
X166362095Y-85074095D01*
X166504952Y-85121714D01*
X167076380Y-85693142D01*
X167076380Y-85074095D01*
X139347618Y-116304285D02*
X139299999Y-116432857D01*
X139299999Y-116647142D01*
X139347618Y-116732857D01*
X139395237Y-116775714D01*
X139490475Y-116818571D01*
X139585713Y-116818571D01*
X139680951Y-116775714D01*
X139728570Y-116732857D01*
X139776189Y-116647142D01*
X139823808Y-116475714D01*
X139871427Y-116390000D01*
X139919046Y-116347142D01*
X140014284Y-116304285D01*
X140109522Y-116304285D01*
X140204760Y-116347142D01*
X140252380Y-116390000D01*
X140299999Y-116475714D01*
X140299999Y-116690000D01*
X140252380Y-116818571D01*
X140299999Y-117118571D02*
X139299999Y-117332857D01*
X140014284Y-117504285D01*
X139299999Y-117675714D01*
X140299999Y-117890000D01*
X139395237Y-118747142D02*
X139347618Y-118704285D01*
X139299999Y-118575714D01*
X139299999Y-118490000D01*
X139347618Y-118361428D01*
X139442856Y-118275714D01*
X139538094Y-118232857D01*
X139728570Y-118190000D01*
X139871427Y-118190000D01*
X140061903Y-118232857D01*
X140157141Y-118275714D01*
X140252380Y-118361428D01*
X140299999Y-118490000D01*
X140299999Y-118575714D01*
X140252380Y-118704285D01*
X140204760Y-118747142D01*
X139299999Y-119561428D02*
X139299999Y-119132857D01*
X140299999Y-119132857D01*
X139299999Y-119861428D02*
X140299999Y-119861428D01*
X139299999Y-120375714D02*
X139871427Y-119990000D01*
X140299999Y-120375714D02*
X139728570Y-119861428D01*
X142792380Y-116892285D02*
X142839999Y-116806571D01*
X142839999Y-116678000D01*
X142792380Y-116549428D01*
X142697141Y-116463714D01*
X142601903Y-116420857D01*
X142411427Y-116378000D01*
X142268570Y-116378000D01*
X142078094Y-116420857D01*
X141982856Y-116463714D01*
X141887618Y-116549428D01*
X141839999Y-116678000D01*
X141839999Y-116763714D01*
X141887618Y-116892285D01*
X141935237Y-116935142D01*
X142268570Y-116935142D01*
X142268570Y-116763714D01*
X141839999Y-117320857D02*
X142839999Y-117320857D01*
X141839999Y-117835142D01*
X142839999Y-117835142D01*
X141839999Y-118263714D02*
X142839999Y-118263714D01*
X142839999Y-118478000D01*
X142792380Y-118606571D01*
X142697141Y-118692285D01*
X142601903Y-118735142D01*
X142411427Y-118778000D01*
X142268570Y-118778000D01*
X142078094Y-118735142D01*
X141982856Y-118692285D01*
X141887618Y-118606571D01*
X141839999Y-118478000D01*
X141839999Y-118263714D01*
X137215904Y-85756571D02*
X137358761Y-85804190D01*
X137406380Y-85851809D01*
X137454000Y-85947047D01*
X137454000Y-86089904D01*
X137406380Y-86185142D01*
X137358761Y-86232761D01*
X137263523Y-86280380D01*
X136882571Y-86280380D01*
X136882571Y-85280380D01*
X137215904Y-85280380D01*
X137311142Y-85328000D01*
X137358761Y-85375619D01*
X137406380Y-85470857D01*
X137406380Y-85566095D01*
X137358761Y-85661333D01*
X137311142Y-85708952D01*
X137215904Y-85756571D01*
X136882571Y-85756571D01*
X138025428Y-86280380D02*
X137930190Y-86232761D01*
X137882571Y-86137523D01*
X137882571Y-85280380D01*
X138834952Y-86280380D02*
X138834952Y-85756571D01*
X138787333Y-85661333D01*
X138692095Y-85613714D01*
X138501619Y-85613714D01*
X138406380Y-85661333D01*
X138834952Y-86232761D02*
X138739714Y-86280380D01*
X138501619Y-86280380D01*
X138406380Y-86232761D01*
X138358761Y-86137523D01*
X138358761Y-86042285D01*
X138406380Y-85947047D01*
X138501619Y-85899428D01*
X138739714Y-85899428D01*
X138834952Y-85851809D01*
X139739714Y-86232761D02*
X139644476Y-86280380D01*
X139454000Y-86280380D01*
X139358761Y-86232761D01*
X139311142Y-86185142D01*
X139263523Y-86089904D01*
X139263523Y-85804190D01*
X139311142Y-85708952D01*
X139358761Y-85661333D01*
X139454000Y-85613714D01*
X139644476Y-85613714D01*
X139739714Y-85661333D01*
X140168285Y-86280380D02*
X140168285Y-85280380D01*
X140263523Y-85899428D02*
X140549238Y-86280380D01*
X140549238Y-85613714D02*
X140168285Y-85994666D01*
X140977809Y-86280380D02*
X140977809Y-85280380D01*
X141358761Y-85280380D01*
X141454000Y-85328000D01*
X141501619Y-85375619D01*
X141549238Y-85470857D01*
X141549238Y-85613714D01*
X141501619Y-85708952D01*
X141454000Y-85756571D01*
X141358761Y-85804190D01*
X140977809Y-85804190D01*
X141977809Y-86280380D02*
X141977809Y-85613714D01*
X141977809Y-85280380D02*
X141930190Y-85328000D01*
X141977809Y-85375619D01*
X142025428Y-85328000D01*
X141977809Y-85280380D01*
X141977809Y-85375619D01*
X142596857Y-86280380D02*
X142501619Y-86232761D01*
X142454000Y-86137523D01*
X142454000Y-85280380D01*
X143120666Y-86280380D02*
X143025428Y-86232761D01*
X142977809Y-86137523D01*
X142977809Y-85280380D01*
X135219999Y-116463714D02*
X135219999Y-117020857D01*
X134839046Y-116720857D01*
X134839046Y-116849428D01*
X134791427Y-116935142D01*
X134743808Y-116978000D01*
X134648570Y-117020857D01*
X134410475Y-117020857D01*
X134315237Y-116978000D01*
X134267618Y-116935142D01*
X134219999Y-116849428D01*
X134219999Y-116592285D01*
X134267618Y-116506571D01*
X134315237Y-116463714D01*
X135219999Y-117278000D02*
X134219999Y-117578000D01*
X135219999Y-117878000D01*
X135219999Y-118092285D02*
X135219999Y-118649428D01*
X134839046Y-118349428D01*
X134839046Y-118478000D01*
X134791427Y-118563714D01*
X134743808Y-118606571D01*
X134648570Y-118649428D01*
X134410475Y-118649428D01*
X134315237Y-118606571D01*
X134267618Y-118563714D01*
X134219999Y-118478000D01*
X134219999Y-118220857D01*
X134267618Y-118135142D01*
X134315237Y-118092285D01*
X134318666Y-87788571D02*
X134461523Y-87836190D01*
X134509142Y-87883809D01*
X134556761Y-87979047D01*
X134556761Y-88121904D01*
X134509142Y-88217142D01*
X134461523Y-88264761D01*
X134366285Y-88312380D01*
X133985333Y-88312380D01*
X133985333Y-87312380D01*
X134318666Y-87312380D01*
X134413904Y-87360000D01*
X134461523Y-87407619D01*
X134509142Y-87502857D01*
X134509142Y-87598095D01*
X134461523Y-87693333D01*
X134413904Y-87740952D01*
X134318666Y-87788571D01*
X133985333Y-87788571D01*
X135128190Y-88312380D02*
X135032952Y-88264761D01*
X134985333Y-88169523D01*
X134985333Y-87312380D01*
X135937714Y-87645714D02*
X135937714Y-88312380D01*
X135509142Y-87645714D02*
X135509142Y-88169523D01*
X135556761Y-88264761D01*
X135652000Y-88312380D01*
X135794857Y-88312380D01*
X135890095Y-88264761D01*
X135937714Y-88217142D01*
X136794857Y-88264761D02*
X136699619Y-88312380D01*
X136509142Y-88312380D01*
X136413904Y-88264761D01*
X136366285Y-88169523D01*
X136366285Y-87788571D01*
X136413904Y-87693333D01*
X136509142Y-87645714D01*
X136699619Y-87645714D01*
X136794857Y-87693333D01*
X136842476Y-87788571D01*
X136842476Y-87883809D01*
X136366285Y-87979047D01*
X137271047Y-88312380D02*
X137271047Y-87312380D01*
X137652000Y-87312380D01*
X137747238Y-87360000D01*
X137794857Y-87407619D01*
X137842476Y-87502857D01*
X137842476Y-87645714D01*
X137794857Y-87740952D01*
X137747238Y-87788571D01*
X137652000Y-87836190D01*
X137271047Y-87836190D01*
X138271047Y-88312380D02*
X138271047Y-87645714D01*
X138271047Y-87312380D02*
X138223428Y-87360000D01*
X138271047Y-87407619D01*
X138318666Y-87360000D01*
X138271047Y-87312380D01*
X138271047Y-87407619D01*
X138890095Y-88312380D02*
X138794857Y-88264761D01*
X138747238Y-88169523D01*
X138747238Y-87312380D01*
X139413904Y-88312380D02*
X139318666Y-88264761D01*
X139271047Y-88169523D01*
X139271047Y-87312380D01*
X136807618Y-116335142D02*
X136759999Y-116463714D01*
X136759999Y-116678000D01*
X136807618Y-116763714D01*
X136855237Y-116806571D01*
X136950475Y-116849428D01*
X137045713Y-116849428D01*
X137140951Y-116806571D01*
X137188570Y-116763714D01*
X137236189Y-116678000D01*
X137283808Y-116506571D01*
X137331427Y-116420857D01*
X137379046Y-116378000D01*
X137474284Y-116335142D01*
X137569522Y-116335142D01*
X137664760Y-116378000D01*
X137712380Y-116420857D01*
X137759999Y-116506571D01*
X137759999Y-116720857D01*
X137712380Y-116849428D01*
X137759999Y-117149428D02*
X136759999Y-117363714D01*
X137474284Y-117535142D01*
X136759999Y-117706571D01*
X137759999Y-117920857D01*
X137759999Y-118435142D02*
X137759999Y-118606571D01*
X137712380Y-118692285D01*
X137617141Y-118778000D01*
X137426665Y-118820857D01*
X137093332Y-118820857D01*
X136902856Y-118778000D01*
X136807618Y-118692285D01*
X136759999Y-118606571D01*
X136759999Y-118435142D01*
X136807618Y-118349428D01*
X136902856Y-118263714D01*
X137093332Y-118220857D01*
X137426665Y-118220857D01*
X137617141Y-118263714D01*
X137712380Y-118349428D01*
X137759999Y-118435142D01*
X171061142Y-96853142D02*
X171013523Y-96900761D01*
X170870666Y-96948380D01*
X170775428Y-96948380D01*
X170632571Y-96900761D01*
X170537333Y-96805523D01*
X170489714Y-96710285D01*
X170442095Y-96519809D01*
X170442095Y-96376952D01*
X170489714Y-96186476D01*
X170537333Y-96091238D01*
X170632571Y-95996000D01*
X170775428Y-95948380D01*
X170870666Y-95948380D01*
X171013523Y-95996000D01*
X171061142Y-96043619D01*
X172013523Y-96948380D02*
X171442095Y-96948380D01*
X171727809Y-96948380D02*
X171727809Y-95948380D01*
X171632571Y-96091238D01*
X171537333Y-96186476D01*
X171442095Y-96234095D01*
X172965904Y-96948380D02*
X172394476Y-96948380D01*
X172680190Y-96948380D02*
X172680190Y-95948380D01*
X172584952Y-96091238D01*
X172489714Y-96186476D01*
X172394476Y-96234095D01*
X175966380Y-102012476D02*
X175490190Y-102345809D01*
X175966380Y-102583904D02*
X174966380Y-102583904D01*
X174966380Y-102202952D01*
X175014000Y-102107714D01*
X175061619Y-102060095D01*
X175156857Y-102012476D01*
X175299714Y-102012476D01*
X175394952Y-102060095D01*
X175442571Y-102107714D01*
X175490190Y-102202952D01*
X175490190Y-102583904D01*
X175966380Y-101583904D02*
X174966380Y-101583904D01*
X175966380Y-101012476D01*
X174966380Y-101012476D01*
X175299714Y-100107714D02*
X175966380Y-100107714D01*
X174918761Y-100345809D02*
X175633047Y-100583904D01*
X175633047Y-99964857D01*
X175966380Y-98964476D02*
X175490190Y-99297809D01*
X175966380Y-99535904D02*
X174966380Y-99535904D01*
X174966380Y-99154952D01*
X175014000Y-99059714D01*
X175061619Y-99012095D01*
X175156857Y-98964476D01*
X175299714Y-98964476D01*
X175394952Y-99012095D01*
X175442571Y-99059714D01*
X175490190Y-99154952D01*
X175490190Y-99535904D01*
X175966380Y-98535904D02*
X174966380Y-98535904D01*
X175966380Y-97964476D01*
X174966380Y-97964476D01*
X174966380Y-97012095D02*
X174966380Y-97488285D01*
X175442571Y-97535904D01*
X175394952Y-97488285D01*
X175347333Y-97393047D01*
X175347333Y-97154952D01*
X175394952Y-97059714D01*
X175442571Y-97012095D01*
X175537809Y-96964476D01*
X175775904Y-96964476D01*
X175871142Y-97012095D01*
X175918761Y-97059714D01*
X175966380Y-97154952D01*
X175966380Y-97393047D01*
X175918761Y-97488285D01*
X175871142Y-97535904D01*
D10*
X163050000Y-119720000D02*
X163050000Y-109340000D01*
X163050000Y-115000000D02*
X162450000Y-115000000D01*
X158560000Y-110970000D02*
X158560000Y-118090000D01*
X163050000Y-109340000D02*
X157030000Y-109340000D01*
X157030000Y-110970000D02*
X158030000Y-110970000D01*
X158030000Y-110720000D02*
X158560000Y-110970000D01*
X158560000Y-118090000D02*
X158030000Y-118340000D01*
X162020000Y-109050000D02*
X158020000Y-109050000D01*
X162450000Y-115000000D02*
X162450000Y-116600000D01*
X157030000Y-119720000D02*
X163050000Y-119720000D01*
X162450000Y-112460000D02*
X162450000Y-114060000D01*
X162450000Y-114060000D02*
X163050000Y-114060000D01*
X162450000Y-111520000D02*
X163050000Y-111520000D01*
X157030000Y-118090000D02*
X158030000Y-118090000D01*
X162450000Y-109920000D02*
X162450000Y-111520000D01*
X157030000Y-110720000D02*
X158030000Y-110720000D01*
X162450000Y-117540000D02*
X162450000Y-119140000D01*
X163050000Y-117540000D02*
X162450000Y-117540000D01*
X157030000Y-109340000D02*
X157030000Y-119720000D01*
X163050000Y-109920000D02*
X162450000Y-109920000D01*
X163050000Y-112460000D02*
X162450000Y-112460000D01*
X158030000Y-110720000D02*
X158030000Y-118340000D01*
X158030000Y-118340000D02*
X157030000Y-118340000D01*
X162450000Y-119140000D02*
X163050000Y-119140000D01*
X162450000Y-116600000D02*
X163050000Y-116600000D01*
X123480000Y-109640000D02*
X123480000Y-109484000D01*
X123480000Y-111956000D02*
X123480000Y-111800000D01*
X122960961Y-109640000D02*
G75*
G03*
X120878870Y-109640163I-1040961J-1080000D01*
G01*
X123480000Y-109484484D02*
G75*
G03*
X120247665Y-109641392I-1560000J-1235516D01*
G01*
X120878870Y-111799837D02*
G75*
G03*
X122960961Y-111800000I1041130J1079837D01*
G01*
X120247665Y-111798608D02*
G75*
G03*
X123480000Y-111955516I1672335J1078608D01*
G01*
X122427276Y-114290500D02*
X122936724Y-114290500D01*
X122427276Y-113245500D02*
X122936724Y-113245500D01*
X162254476Y-103622500D02*
X162763924Y-103622500D01*
X162254476Y-102577500D02*
X162763924Y-102577500D01*
X162763924Y-105625500D02*
X162254476Y-105625500D01*
X162763924Y-106670500D02*
X162254476Y-106670500D01*
X161230000Y-82780000D02*
X161230000Y-81450000D01*
X161230000Y-84050000D02*
X161230000Y-99350000D01*
X161230000Y-99350000D02*
X163890000Y-99350000D01*
X161230000Y-81450000D02*
X162560000Y-81450000D01*
X161230000Y-84050000D02*
X163890000Y-84050000D01*
X163890000Y-84050000D02*
X163890000Y-99350000D01*
X172720000Y-73950000D02*
X175320000Y-73950000D01*
X170120000Y-73950000D02*
X170120000Y-72620000D01*
X171450000Y-73950000D02*
X170120000Y-73950000D01*
X172720000Y-73950000D02*
X172720000Y-71290000D01*
X175320000Y-73950000D02*
X175320000Y-71290000D01*
X172720000Y-71290000D02*
X175320000Y-71290000D01*
X161290000Y-73950000D02*
X161290000Y-71290000D01*
X158690000Y-73950000D02*
X158690000Y-72620000D01*
X161290000Y-73950000D02*
X166430000Y-73950000D01*
X160020000Y-73950000D02*
X158690000Y-73950000D01*
X161290000Y-71290000D02*
X166430000Y-71290000D01*
X166430000Y-73950000D02*
X166430000Y-71290000D01*
X180900000Y-107010000D02*
X180900000Y-97530000D01*
X188710000Y-108310000D02*
X179590000Y-108310000D01*
X179590000Y-93430000D02*
X180900000Y-93430000D01*
X179590000Y-108310000D02*
X179590000Y-82650000D01*
X180900000Y-83950000D02*
X187400000Y-83950000D01*
X188710000Y-82650000D02*
X188710000Y-108310000D01*
X187400000Y-107010000D02*
X180900000Y-107010000D01*
X187400000Y-83950000D02*
X187400000Y-107010000D01*
X179590000Y-82650000D02*
X188710000Y-82650000D01*
X180900000Y-97530000D02*
X180900000Y-97530000D01*
X179200000Y-87860000D02*
X178200000Y-87360000D01*
X178200000Y-87360000D02*
X178200000Y-88360000D01*
X180900000Y-93430000D02*
X180900000Y-83950000D01*
X180900000Y-97530000D02*
X179590000Y-97530000D01*
X178200000Y-88360000D02*
X179200000Y-87860000D01*
X152340000Y-76370000D02*
X153670000Y-76370000D01*
X152340000Y-78970000D02*
X155000000Y-78970000D01*
X152340000Y-106970000D02*
X155000000Y-106970000D01*
X155000000Y-78970000D02*
X155000000Y-106970000D01*
X152340000Y-78970000D02*
X152340000Y-106970000D01*
X152340000Y-77700000D02*
X152340000Y-76370000D01*
X121860000Y-72620000D02*
X121860000Y-71290000D01*
X121860000Y-86650000D02*
X124520000Y-86650000D01*
X121860000Y-71290000D02*
X123190000Y-71290000D01*
X124520000Y-73890000D02*
X124520000Y-86650000D01*
X121860000Y-73890000D02*
X121860000Y-86650000D01*
X121860000Y-73890000D02*
X124520000Y-73890000D01*
X182725600Y-80589467D02*
X182725600Y-80296933D01*
X183745600Y-80589467D02*
X183745600Y-80296933D01*
X170479767Y-116306000D02*
X170187233Y-116306000D01*
X170479767Y-117326000D02*
X170187233Y-117326000D01*
X170149733Y-107021000D02*
X170492267Y-107021000D01*
X170149733Y-108041000D02*
X170492267Y-108041000D01*
X170160733Y-105511000D02*
X170453267Y-105511000D01*
X170160733Y-106531000D02*
X170453267Y-106531000D01*
X176298767Y-109140000D02*
X176006233Y-109140000D01*
X176298767Y-110160000D02*
X176006233Y-110160000D01*
X176006233Y-110690000D02*
X176298767Y-110690000D01*
X176006233Y-111710000D02*
X176298767Y-111710000D01*
X177288000Y-93358000D02*
X176788000Y-93358000D01*
X177288000Y-90998000D02*
X176788000Y-90998000D01*
X170589024Y-115814500D02*
X170079576Y-115814500D01*
X170589024Y-114769500D02*
X170079576Y-114769500D01*
X155000000Y-117070000D02*
X155000000Y-119670000D01*
X152340000Y-117070000D02*
X155000000Y-117070000D01*
X152340000Y-115800000D02*
X152340000Y-114470000D01*
X152340000Y-117070000D02*
X152340000Y-119670000D01*
X152340000Y-119670000D02*
X155000000Y-119670000D01*
X152340000Y-114470000D02*
X153670000Y-114470000D01*
X186750000Y-71290000D02*
X186750000Y-72620000D01*
X184150000Y-71290000D02*
X181550000Y-71290000D01*
X185420000Y-71290000D02*
X186750000Y-71290000D01*
X184150000Y-71290000D02*
X184150000Y-73950000D01*
X184150000Y-73950000D02*
X181550000Y-73950000D01*
X181550000Y-71290000D02*
X181550000Y-73950000D01*
X185269600Y-80589467D02*
X185269600Y-80296933D01*
X184249600Y-80589467D02*
X184249600Y-80296933D01*
X177280000Y-87950000D02*
X176780000Y-87950000D01*
X177280000Y-90310000D02*
X176780000Y-90310000D01*
X168040267Y-97256000D02*
X167747733Y-97256000D01*
X168040267Y-98276000D02*
X167747733Y-98276000D01*
X171026000Y-98952000D02*
X168026000Y-98952000D01*
X171026000Y-101152000D02*
X168826000Y-101152000D01*
X121860000Y-96750000D02*
X124520000Y-96750000D01*
X121860000Y-95480000D02*
X121860000Y-94150000D01*
X121860000Y-94150000D02*
X123190000Y-94150000D01*
X121860000Y-96750000D02*
X121860000Y-106970000D01*
X121860000Y-106970000D02*
X124520000Y-106970000D01*
X124520000Y-96750000D02*
X124520000Y-106970000D01*
X170187233Y-118850000D02*
X170479767Y-118850000D01*
X170187233Y-117830000D02*
X170479767Y-117830000D01*
X167824000Y-91670000D02*
X167824000Y-89470000D01*
X173044000Y-91670000D02*
X173044000Y-89470000D01*
X167824000Y-91670000D02*
X167824000Y-95270000D01*
X173044000Y-91670000D02*
X173044000Y-93870000D01*
X170097776Y-114290500D02*
X170607224Y-114290500D01*
X170097776Y-113245500D02*
X170607224Y-113245500D01*
X169614000Y-112123000D02*
X171414000Y-112123000D01*
X171414000Y-108903000D02*
X168964000Y-108903000D01*
X176403000Y-86880000D02*
X175603000Y-86880000D01*
X176403000Y-86880000D02*
X177203000Y-86880000D01*
X176403000Y-83760000D02*
X177203000Y-83760000D01*
X176403000Y-83760000D02*
X174603000Y-83760000D01*
X166114000Y-79585733D02*
X166114000Y-79878267D01*
X167134000Y-79585733D02*
X167134000Y-79878267D01*
X162655467Y-104114000D02*
X162362933Y-104114000D01*
X162655467Y-105134000D02*
X162362933Y-105134000D01*
X176403000Y-104334000D02*
X174603000Y-104334000D01*
X176403000Y-104334000D02*
X177203000Y-104334000D01*
X176403000Y-107454000D02*
X175603000Y-107454000D01*
X176403000Y-107454000D02*
X177203000Y-107454000D01*
X162810000Y-79134000D02*
X162310000Y-79134000D01*
X162810000Y-76774000D02*
X162310000Y-76774000D01*
X173044000Y-82018000D02*
X173044000Y-84218000D01*
X173044000Y-82018000D02*
X173044000Y-79818000D01*
X167824000Y-82018000D02*
X167824000Y-85618000D01*
X167824000Y-82018000D02*
X167824000Y-79818000D01*
X167134000Y-89237733D02*
X167134000Y-89530267D01*
X166114000Y-89237733D02*
X166114000Y-89530267D01*
X137922258Y-94716916D02*
X137861959Y-94721770D01*
X137164581Y-94987552D02*
X137158047Y-95027725D01*
X136578020Y-98754060D02*
X137285127Y-98046953D01*
X134598121Y-96774161D02*
X135305228Y-96067054D01*
X138677512Y-94349237D02*
X138586825Y-94478337D01*
X137333389Y-94952563D02*
X137259089Y-94927809D01*
X136012334Y-98188374D02*
X136719441Y-97481267D01*
X143256000Y-84812000D02*
X142494000Y-84304000D01*
X138706872Y-94034058D02*
X138644608Y-93925031D01*
X140113554Y-98895481D02*
X139406447Y-98188374D01*
X133396039Y-92885073D02*
X133183907Y-93097205D01*
X142941981Y-96067054D02*
X142234874Y-95359947D01*
X139351724Y-93686241D02*
X138916581Y-93251099D01*
X134769872Y-94190119D02*
X134787741Y-94202121D01*
X138726207Y-93251099D02*
X139011769Y-92965536D01*
X137703233Y-95172190D02*
X137718884Y-95236539D01*
X135183874Y-93733835D02*
X135619016Y-94168978D01*
X136267137Y-92785506D02*
X136260399Y-92762842D01*
X137374000Y-75822000D02*
X134074000Y-75822000D01*
X142761283Y-83810000D02*
X143061283Y-83510000D01*
X139760000Y-99249034D02*
X139547868Y-99461166D01*
X137728944Y-94573670D02*
X137722206Y-94551006D01*
X140608529Y-98400506D02*
X139901422Y-97693399D01*
X133516750Y-94278576D02*
X138366498Y-99128324D01*
X139547868Y-88995986D02*
X138840762Y-89703093D01*
X134500000Y-106204000D02*
X142300000Y-106204000D01*
X137293315Y-95410602D02*
X137194815Y-95323232D01*
X143622380Y-115860000D02*
X143622380Y-113200000D01*
X134769872Y-94190119D02*
X134787741Y-94202121D01*
X139437457Y-93296037D02*
X139379659Y-93207483D01*
X135870913Y-98046953D02*
X135658781Y-97834821D01*
X136096866Y-93691128D02*
X136004015Y-93783979D01*
X137089429Y-94860680D02*
X137141733Y-94819572D01*
X141538000Y-105102588D02*
X135238000Y-105102588D01*
X139760000Y-89208118D02*
X139547868Y-88995986D01*
X128210000Y-70080000D02*
X128210000Y-68750000D01*
X141473084Y-79681801D02*
X142109481Y-79681801D01*
X137285127Y-88995986D02*
X137072995Y-89208118D01*
X134074000Y-81822000D02*
X137374000Y-81822000D01*
X139569481Y-80318198D02*
X138933084Y-80318198D01*
X133749593Y-92531520D02*
X133537461Y-92743652D01*
X137026537Y-95067840D02*
X137034776Y-94943010D01*
X136260399Y-92762842D02*
X136246871Y-92743503D01*
X137718884Y-95236539D02*
X137716126Y-95302564D01*
X135980962Y-92817762D02*
X136001459Y-92717095D01*
X137981283Y-81170000D02*
X137981283Y-76290000D01*
X135517360Y-97693399D02*
X135305228Y-97481267D01*
X133183907Y-93097205D02*
X133891014Y-93804312D01*
X136747667Y-95814361D02*
X136584489Y-95977539D01*
X138916581Y-93251099D02*
X138821394Y-93346286D01*
X136570891Y-92509996D02*
X136475703Y-92605184D01*
X136624000Y-81672000D02*
X134824000Y-81672000D01*
X137285127Y-99461166D02*
X137992233Y-98754060D01*
X141527767Y-90975885D02*
X141315635Y-90763753D01*
X135517360Y-97693399D02*
X136224467Y-96986293D01*
X139569481Y-82858198D02*
X138933084Y-82858198D01*
X138711227Y-94151449D02*
X138677512Y-94349237D01*
X140062755Y-76189000D02*
X139873652Y-76189000D01*
X137186953Y-94953531D02*
X137164581Y-94987552D01*
X138706872Y-94034058D02*
X138644608Y-93925031D01*
X137269609Y-94790244D02*
X137334570Y-94804603D01*
X135120932Y-94494597D02*
X135150515Y-94474300D01*
X134787741Y-94202121D02*
X134804080Y-94206692D01*
X142109481Y-77141801D02*
X142109481Y-77778198D01*
X140421283Y-81270000D02*
X140421283Y-76201400D01*
X137194815Y-95323232D02*
X137082801Y-95191107D01*
X137672345Y-94699308D02*
X137724029Y-94620451D01*
X135583589Y-67853395D02*
X135583589Y-67710000D01*
X134810253Y-96986293D02*
X134598121Y-96774161D01*
X135233589Y-68360000D02*
X135237178Y-68359936D01*
X137575777Y-95226132D02*
X137517817Y-95122677D01*
X134400000Y-106304000D02*
X134400000Y-109604000D01*
X137463266Y-94505259D02*
X137510654Y-94439455D01*
X141191283Y-76860000D02*
X142391283Y-76860000D01*
X136489301Y-95882352D02*
X136652480Y-95719173D01*
X136527551Y-92439758D02*
X136570891Y-92509996D01*
X138204176Y-93815568D02*
X138362667Y-93798639D01*
X135837862Y-93950132D02*
X135741400Y-94046594D01*
X137158047Y-95027725D02*
X137185847Y-95103989D01*
X140608529Y-90056646D02*
X139901422Y-90763753D01*
X136724000Y-76072000D02*
X136724000Y-76722000D01*
X137760734Y-94787696D02*
X137672345Y-94699308D01*
X142109481Y-77778198D02*
X141473084Y-77778198D01*
X142553283Y-67872892D02*
X142274629Y-68189153D01*
X138644608Y-93925031D02*
X138641112Y-93825729D01*
X135279061Y-93638648D02*
X135183874Y-93733835D01*
X137454987Y-95053074D02*
X137333389Y-94952563D01*
X134244568Y-92036545D02*
X134951674Y-92743652D01*
X134810253Y-91470860D02*
X135517360Y-92177967D01*
X141315635Y-90763753D02*
X140608529Y-91470860D01*
X136902347Y-92708870D02*
X137080823Y-92530394D01*
X138933084Y-82221801D02*
X139569481Y-82221801D01*
X133891014Y-92390099D02*
X134598121Y-93097205D01*
X134456700Y-91824413D02*
X135163806Y-92531520D01*
X136489332Y-92938131D02*
X136460451Y-92928751D01*
X134995623Y-94493210D02*
X135086185Y-94503743D01*
X138821394Y-93346286D02*
X138726207Y-93251099D01*
X137522038Y-95341859D02*
X137554105Y-95320682D01*
X134733589Y-68354425D02*
X134733572Y-68351500D01*
X134951674Y-97127714D02*
X135658781Y-96420607D01*
X137484121Y-95348209D02*
X137522038Y-95341859D01*
X141527767Y-97481267D02*
X140820661Y-96774161D01*
X142400000Y-106304000D02*
X142400000Y-109604000D01*
X135086185Y-94503743D02*
X135120932Y-94494597D01*
X136263762Y-93524231D02*
X135872177Y-93245893D01*
X137975649Y-94744246D02*
X137951139Y-94726296D01*
X137203348Y-94794728D02*
X137269609Y-94790244D01*
X137269609Y-94790244D02*
X137334570Y-94804603D01*
X137716126Y-95302564D02*
X137691035Y-95363696D01*
X134824000Y-80822000D02*
X136624000Y-80822000D01*
X137598418Y-95456557D02*
X137538026Y-95482241D01*
X139547868Y-99461166D02*
X138840762Y-98754060D01*
X142126410Y-73367756D02*
X134738513Y-73360000D01*
X143295534Y-92743652D02*
X143083402Y-92531520D01*
X136455306Y-95521999D02*
X136550493Y-95617187D01*
X139011769Y-93155911D02*
X139446912Y-93591054D01*
X136724000Y-76722000D02*
X136624000Y-76822000D01*
X141174214Y-97834821D02*
X140962082Y-98046953D01*
X139446912Y-93591054D02*
X139351724Y-93686241D01*
X136931573Y-99107613D02*
X136719441Y-98895481D01*
X142400000Y-106304000D02*
X142399999Y-106303381D01*
X134898311Y-93829023D02*
X135183874Y-93543460D01*
X137034776Y-94943010D02*
X137089429Y-94860680D01*
X136549112Y-92341400D02*
X136524298Y-92387327D01*
X137333389Y-94952563D02*
X137259089Y-94927809D01*
X133604000Y-86844000D02*
X134366000Y-86336000D01*
X137285127Y-88995986D02*
X137992233Y-89703093D01*
X148590000Y-119610000D02*
X143510000Y-119610000D01*
X141305000Y-67853395D02*
X141305000Y-67710000D01*
X134804080Y-94206692D02*
X134882755Y-94206718D01*
X135642282Y-93085052D02*
X135740125Y-92987209D01*
X135900000Y-106194000D02*
X135400000Y-106194000D01*
X136652480Y-95719173D02*
X136747667Y-95814361D01*
X136262222Y-92832287D02*
X136267137Y-92785506D01*
X136757335Y-92599978D02*
X136742050Y-92448478D01*
X137691035Y-95363696D02*
X137649717Y-95415445D01*
X138359586Y-93935152D02*
X138217003Y-93956234D01*
X133410000Y-71350000D02*
X133410000Y-119670000D01*
X138572483Y-94148049D02*
X138711227Y-94151449D01*
X135658781Y-97834821D02*
X136365888Y-97127714D01*
X135619016Y-94168978D02*
X135523829Y-94264165D01*
X139760000Y-89208118D02*
X139052894Y-89915225D01*
X138359586Y-93935152D02*
X138217003Y-93956234D01*
X137293315Y-95410602D02*
X137194815Y-95323232D01*
X142109481Y-82221801D02*
X142109481Y-82858198D01*
X139760000Y-99249034D02*
X139052894Y-98541928D01*
X139901422Y-99107613D02*
X139194315Y-98400506D01*
X136400152Y-92933606D02*
X136298927Y-92999532D01*
X137203348Y-94794728D02*
X137269609Y-94790244D01*
X138030786Y-93919323D02*
X138204176Y-93815568D01*
X133749593Y-92531520D02*
X134456700Y-93238627D01*
X139700000Y-86844000D02*
X133604000Y-86844000D01*
X133537461Y-95713500D02*
X134244568Y-95006394D01*
X136719441Y-89561671D02*
X137426548Y-90268778D01*
X138641112Y-93825729D02*
X138548495Y-93803372D01*
X140113554Y-89561671D02*
X139901422Y-89349539D01*
X134392512Y-67872892D02*
X134671166Y-68189153D01*
X136513842Y-92956081D02*
X136489332Y-92938131D01*
X142941981Y-96067054D02*
X142729849Y-96279186D01*
X151075000Y-120785000D02*
X125785000Y-120785000D01*
X142234874Y-96774161D02*
X141527767Y-96067054D01*
X133749593Y-95925632D02*
X133537461Y-95713500D01*
X135163806Y-97339846D02*
X135870913Y-96632739D01*
X137259089Y-94927809D02*
X137220056Y-94932479D01*
X136894273Y-92590098D02*
X136902347Y-92708870D01*
X137981283Y-81570000D02*
X137981283Y-83510000D01*
X142729849Y-92177967D02*
X142022742Y-92885073D01*
X142300000Y-109704000D02*
X142300619Y-109703998D01*
X134103146Y-92177967D02*
X134810253Y-92885073D01*
X143295534Y-95713500D02*
X142588428Y-95006394D01*
X137517817Y-95122677D02*
X137454987Y-95053074D01*
X137169212Y-92618782D02*
X136815658Y-92972336D01*
X134824000Y-77322000D02*
X136624000Y-77322000D01*
X136267137Y-92785506D02*
X136260399Y-92762842D01*
X135740125Y-92987209D02*
X136360118Y-93427875D01*
X137089429Y-94860680D02*
X137141733Y-94819572D01*
X134824000Y-75972000D02*
X136624000Y-75972000D01*
X142961283Y-81270000D02*
X140621283Y-81270000D01*
X136365888Y-98541928D02*
X137072995Y-97834821D01*
X140820661Y-98188374D02*
X140113554Y-97481267D01*
X140254975Y-89703093D02*
X139547868Y-90410200D01*
X138644608Y-93925031D02*
X138641112Y-93825729D01*
X137034776Y-94943010D02*
X137089429Y-94860680D01*
X143649088Y-95359947D02*
X143436956Y-95572079D01*
X138217003Y-93956234D02*
X138122255Y-94018229D01*
X136815658Y-92972336D02*
X136767427Y-92924104D01*
X137649717Y-95415445D02*
X137598418Y-95456557D01*
X142391283Y-76860000D02*
X142391283Y-80600000D01*
X136513842Y-92956081D02*
X136489332Y-92938131D01*
X136527551Y-92439758D02*
X136570891Y-92509996D01*
X135163806Y-97339846D02*
X134951674Y-97127714D01*
X136754466Y-95222839D02*
X137284797Y-95753169D01*
X136931573Y-99107613D02*
X137638680Y-98400506D01*
X137141733Y-94819572D02*
X137203348Y-94794728D01*
X134882755Y-94206718D02*
X134944524Y-94203080D01*
X136210538Y-92911144D02*
X136262222Y-92832287D01*
X137495569Y-94740102D02*
X137455079Y-94668996D01*
X137082801Y-95191107D02*
X137026537Y-95067840D01*
X136931573Y-89349539D02*
X137638680Y-90056646D01*
X133516750Y-94278576D02*
X133516750Y-94178576D01*
X140900000Y-106194000D02*
X141400000Y-106194000D01*
X134724000Y-80222000D02*
X134724000Y-77422000D01*
X135980962Y-92817762D02*
X136001459Y-92717095D01*
X137158047Y-95027725D02*
X137185847Y-95103989D01*
X142368408Y-67710000D02*
X142553283Y-67872892D01*
X138844435Y-93535782D02*
X138857514Y-93609327D01*
X134979988Y-68360000D02*
X134979988Y-68355785D01*
X139011769Y-92965536D02*
X139106956Y-93060724D01*
X135517360Y-90763753D02*
X135305228Y-90975885D01*
X140254975Y-98754060D02*
X139547868Y-98046953D01*
X135183874Y-93543460D02*
X135279061Y-93638648D01*
X134804080Y-94206692D02*
X134882755Y-94206718D01*
X134962159Y-94627174D02*
X134995623Y-94493210D01*
X137724029Y-94620451D02*
X137728944Y-94573670D01*
X138281283Y-83810000D02*
X142761283Y-83810000D01*
X137598418Y-95456557D02*
X137538026Y-95482241D01*
X134499382Y-109703998D02*
X134500000Y-109704000D01*
X139901422Y-89349539D02*
X139194315Y-90056646D01*
X143510000Y-119610000D02*
X143510000Y-68810000D01*
X141174214Y-90622332D02*
X140467107Y-91329438D01*
X135093056Y-107512958D02*
X135093056Y-108395042D01*
X142300619Y-106204002D02*
X142300000Y-106204000D01*
X134557784Y-68060469D02*
X134742659Y-67897578D01*
X137638220Y-95057084D02*
X137703233Y-95172190D01*
X138548495Y-93803372D02*
X138487282Y-93760075D01*
X141881321Y-91329438D02*
X141669189Y-91117306D01*
X137164581Y-94987552D02*
X137158047Y-95027725D01*
X138844435Y-93535782D02*
X138857514Y-93609327D01*
X134366000Y-86336000D02*
X134366000Y-86844000D01*
X134944524Y-94203080D02*
X135016997Y-94198084D01*
X137484121Y-95348209D02*
X137522038Y-95341859D01*
X138677512Y-94349237D02*
X138586825Y-94478337D01*
X135074026Y-94195962D02*
X135180398Y-94214959D01*
X134993499Y-93924210D02*
X134898311Y-93829023D01*
X140820661Y-98188374D02*
X140608529Y-98400506D01*
X136360118Y-93427875D02*
X136263762Y-93524231D01*
X141626410Y-68359936D02*
X141626410Y-73370000D01*
X135180398Y-94214959D02*
X135250483Y-94262784D01*
X143061283Y-81570000D02*
X143061283Y-81170000D01*
X143316245Y-94178576D02*
X138466498Y-89328829D01*
X136724000Y-80922000D02*
X136724000Y-81572000D01*
X139379659Y-93207483D02*
X139350449Y-93129140D01*
X135120932Y-94494597D02*
X135150515Y-94474300D01*
X133396039Y-95572079D02*
X134103146Y-94864972D01*
X134944524Y-94203080D02*
X135016997Y-94198084D01*
X137220056Y-94932479D02*
X137186953Y-94953531D01*
X134400002Y-106303381D02*
X134400000Y-106304000D01*
X134810253Y-91470860D02*
X134598121Y-91682992D01*
X138651283Y-76860000D02*
X139851283Y-76860000D01*
X137981283Y-83510000D02*
X138281283Y-83810000D01*
X137334570Y-94804603D02*
X137450459Y-94869465D01*
X137463266Y-94505259D02*
X137510654Y-94439455D01*
X134103146Y-96279186D02*
X134810253Y-95572079D01*
X135658781Y-90622332D02*
X136365888Y-91329438D01*
X141473084Y-82221801D02*
X142109481Y-82221801D01*
X137550174Y-94957886D02*
X137638220Y-95057084D01*
X133183907Y-95359947D02*
X133891014Y-94652840D01*
X143083402Y-92531520D02*
X142376296Y-93238627D01*
X143436956Y-92885073D02*
X142729849Y-93592180D01*
X140467107Y-98541928D02*
X140254975Y-98754060D01*
X137080823Y-92530394D02*
X137169212Y-92618782D01*
X134810253Y-96986293D02*
X135517360Y-96279186D01*
X136210538Y-92911144D02*
X136262222Y-92832287D01*
X138217003Y-93956234D02*
X138122255Y-94018229D01*
X136262222Y-92832287D02*
X136267137Y-92785506D01*
X139569481Y-79681801D02*
X139569481Y-80318198D01*
X143436956Y-95572079D02*
X142729849Y-94864972D01*
X134577387Y-67710000D02*
X134392512Y-67872892D01*
X141473084Y-80318198D02*
X141473084Y-79681801D01*
X137408271Y-95473761D02*
X137293315Y-95410602D01*
X133342380Y-113200000D02*
X133342380Y-115860000D01*
X142300948Y-109703995D02*
X142300000Y-109704000D01*
X138204176Y-93815568D02*
X138362667Y-93798639D01*
X134995623Y-94493210D02*
X135086185Y-94503743D01*
X138933084Y-79681801D02*
X139569481Y-79681801D01*
X141555000Y-67914789D02*
X141555000Y-68260000D01*
X137980283Y-77311170D02*
X137980283Y-77345124D01*
X137517817Y-95122677D02*
X137454987Y-95053074D01*
X136578020Y-98754060D02*
X136365888Y-98541928D01*
X135238000Y-101002588D02*
X141538000Y-101002588D01*
X133342380Y-115860000D02*
X143622380Y-115860000D01*
X135870913Y-90410200D02*
X136578020Y-91117306D01*
X141527767Y-90975885D02*
X140820661Y-91682992D01*
X136298927Y-92999532D02*
X136210538Y-92911144D01*
X136931573Y-89349539D02*
X136719441Y-89561671D01*
X137410762Y-95326368D02*
X137484121Y-95348209D01*
X135355000Y-68195431D02*
X141555000Y-68195431D01*
X137442769Y-94605926D02*
X137463266Y-94505259D01*
X136652000Y-84812000D02*
X143256000Y-84812000D01*
X143649088Y-93097205D02*
X143436956Y-92885073D01*
X135872177Y-93245893D02*
X136096866Y-93691128D01*
X139569481Y-77141801D02*
X139569481Y-77778198D01*
X140820661Y-90268778D02*
X140113554Y-90975885D01*
X138933084Y-77141801D02*
X139569481Y-77141801D01*
X137082801Y-95191107D02*
X137026537Y-95067840D01*
X136524298Y-92387327D02*
X136527551Y-92439758D01*
X141655000Y-68360000D02*
X141651410Y-68359936D01*
X136822458Y-96215508D02*
X136727270Y-96310695D01*
X142494000Y-84304000D02*
X142494000Y-84812000D01*
X134724000Y-76722000D02*
X134724000Y-76072000D01*
X138933084Y-82858198D02*
X138933084Y-82221801D01*
X135305228Y-90975885D02*
X136012334Y-91682992D01*
X137472594Y-95487266D02*
X137408271Y-95473761D01*
X134500000Y-109704000D02*
X142300000Y-109704000D01*
X137189609Y-95848356D02*
X136747667Y-95406415D01*
X134484082Y-108595042D02*
X134484082Y-107312958D01*
X143083402Y-95925632D02*
X142376296Y-95218526D01*
X138366498Y-99128324D02*
X138466498Y-99128324D01*
X137522038Y-95341859D02*
X137554105Y-95320682D01*
X134733572Y-68351500D02*
X134738513Y-68359669D01*
X138651283Y-80600000D02*
X138651283Y-76860000D01*
X143061283Y-83510000D02*
X143061283Y-81570000D01*
X134724000Y-81572000D02*
X134724000Y-80922000D01*
X141881321Y-91329438D02*
X141174214Y-92036545D01*
X142109481Y-82858198D02*
X141473084Y-82858198D01*
X128210000Y-71350000D02*
X133410000Y-71350000D01*
X137722206Y-94551006D02*
X137708678Y-94531667D01*
X142588428Y-96420607D02*
X142376296Y-96632739D01*
X142234874Y-91682992D02*
X141527767Y-92390099D01*
X135517360Y-90763753D02*
X136224467Y-91470860D01*
X139851283Y-76860000D02*
X139851283Y-80600000D01*
X134456700Y-96632739D02*
X134244568Y-96420607D01*
X138641112Y-93825729D02*
X138548495Y-93803372D01*
X136757335Y-92599978D02*
X136742050Y-92448478D01*
X134738513Y-68359669D02*
X134740103Y-68360000D01*
X138466498Y-89328829D02*
X138366498Y-89328829D01*
X137951139Y-94726296D02*
X137922258Y-94716916D01*
X137980283Y-77394503D02*
X137980283Y-77439375D01*
X135016997Y-94198084D02*
X135074026Y-94195962D01*
X134951674Y-91329438D02*
X135658781Y-92036545D01*
X137378484Y-75822101D02*
X137374000Y-75822000D01*
X136584489Y-95977539D02*
X136822458Y-96215508D01*
X140113554Y-89561671D02*
X139406447Y-90268778D01*
X135523829Y-94264165D02*
X135088686Y-93829023D01*
X135993271Y-92880832D02*
X135980962Y-92817762D01*
X138933084Y-80318198D02*
X138933084Y-79681801D01*
X142588428Y-92036545D02*
X142376296Y-91824413D01*
X134970728Y-68260000D02*
X134715072Y-68260000D01*
X141881321Y-97127714D02*
X141174214Y-96420607D01*
X140421283Y-81270000D02*
X138081283Y-81270000D01*
X138366498Y-89328829D02*
X133516750Y-94178576D01*
X138548495Y-93803372D02*
X138487282Y-93760075D01*
X138081283Y-76190000D02*
X142961283Y-76190000D01*
X135741400Y-94046594D02*
X135300627Y-93426707D01*
X142388011Y-68060469D02*
X142203136Y-67897578D01*
X136489332Y-92938131D02*
X136460451Y-92928751D01*
X136004015Y-93783979D02*
X135559418Y-93558652D01*
X125785000Y-120785000D02*
X125785000Y-67635000D01*
X141669189Y-91117306D02*
X140962082Y-91824413D01*
X133410000Y-119670000D02*
X128210000Y-119670000D01*
X137454987Y-95053074D02*
X137333389Y-94952563D01*
X142090653Y-68025241D02*
X142368408Y-67710000D01*
X136001459Y-92717095D02*
X136048847Y-92651290D01*
X136224467Y-90056646D02*
X136012334Y-90268778D01*
X141473084Y-77141801D02*
X142109481Y-77141801D01*
X137538026Y-95482241D02*
X137472594Y-95487266D01*
X137703233Y-95172190D02*
X137718884Y-95236539D01*
X135088686Y-93829023D02*
X134993499Y-93924210D01*
X139220416Y-92729692D02*
X139347368Y-92688154D01*
X138794729Y-93455603D02*
X138844435Y-93535782D01*
X141881321Y-97127714D02*
X141669189Y-97339846D01*
X137284797Y-95753169D02*
X137189609Y-95848356D01*
X142376296Y-96632739D02*
X141669189Y-95925632D01*
X137716126Y-95302564D02*
X137691035Y-95363696D01*
X141174214Y-90622332D02*
X140962082Y-90410200D01*
X136260399Y-92762842D02*
X136246871Y-92743503D01*
X136033761Y-92951938D02*
X135993271Y-92880832D01*
X137220056Y-94932479D02*
X137186953Y-94953531D01*
X142588428Y-96420607D02*
X141881321Y-95713500D01*
X137194815Y-95323232D02*
X137082801Y-95191107D01*
X151075000Y-67635000D02*
X151075000Y-120785000D01*
X135074026Y-94195962D02*
X135180398Y-94214959D01*
X135086185Y-94503743D02*
X135120932Y-94494597D01*
X136624000Y-80322000D02*
X134824000Y-80322000D01*
X139379659Y-93207483D02*
X139350449Y-93129140D01*
X140467107Y-89915225D02*
X140254975Y-89703093D01*
X140113554Y-98895481D02*
X139901422Y-99107613D01*
X134103146Y-96279186D02*
X133891014Y-96067054D01*
X138711227Y-94151449D02*
X138677512Y-94349237D01*
X134456700Y-91824413D02*
X134244568Y-92036545D01*
X137975649Y-94744246D02*
X137951139Y-94726296D01*
X137706341Y-95005267D02*
X137801528Y-94910080D01*
X137590756Y-94644915D02*
X137495569Y-94740102D01*
X134882755Y-94206718D02*
X134944524Y-94203080D01*
X138030786Y-93919323D02*
X138204176Y-93815568D01*
X136224467Y-98400506D02*
X136012334Y-98188374D01*
X136747667Y-95406415D02*
X136638882Y-95515200D01*
X136624000Y-76822000D02*
X134824000Y-76822000D01*
X133974000Y-75922000D02*
X133974000Y-81722000D01*
X137672345Y-94699308D02*
X137724029Y-94620451D01*
X142126410Y-68362181D02*
X142126410Y-73367756D01*
X140621283Y-76201400D02*
X140621283Y-81270000D01*
X136549112Y-92341400D02*
X136524298Y-92387327D01*
X135163806Y-91117306D02*
X134951674Y-91329438D01*
X137861959Y-94721770D02*
X137760734Y-94787696D01*
X141305000Y-67853395D02*
X135605000Y-67853395D01*
X141315635Y-97693399D02*
X140608529Y-96986293D01*
X136767427Y-92924104D02*
X136757335Y-92599978D01*
X136400152Y-92933606D02*
X136298927Y-92999532D01*
X137951139Y-94726296D02*
X137922258Y-94716916D01*
X137185847Y-95103989D02*
X137291064Y-95229107D01*
X143649088Y-95359947D02*
X142941981Y-94652840D01*
X135890343Y-93576818D02*
X135642282Y-93085052D01*
X137728944Y-94573670D02*
X137722206Y-94551006D01*
X136387315Y-95780365D02*
X136489301Y-95882352D01*
X137442769Y-94605926D02*
X137463266Y-94505259D01*
X135333589Y-67914789D02*
X135333589Y-68260000D01*
X137980283Y-76582003D02*
X137980283Y-76771106D01*
X139350449Y-93129140D02*
X139220416Y-92729692D01*
X136578020Y-89703093D02*
X136365888Y-89915225D01*
X137638220Y-95057084D02*
X137703233Y-95172190D01*
X135016997Y-94198084D02*
X135074026Y-94195962D01*
X137718884Y-95236539D02*
X137716126Y-95302564D01*
X140467107Y-89915225D02*
X139760000Y-90622332D01*
X141174214Y-97834821D02*
X140467107Y-97127714D01*
X135559418Y-93558652D02*
X135837862Y-93950132D01*
X135163806Y-91117306D02*
X135870913Y-91824413D01*
X136550493Y-95617187D02*
X136387315Y-95780365D01*
X137450459Y-94869465D02*
X137550174Y-94957886D01*
X137922258Y-94716916D02*
X137861959Y-94721770D01*
X136607330Y-95369976D02*
X136754466Y-95222839D01*
X137550174Y-94957886D02*
X137638220Y-95057084D01*
X141473084Y-82858198D02*
X141473084Y-82221801D01*
X137649717Y-95415445D02*
X137598418Y-95456557D01*
X137724029Y-94620451D02*
X137728944Y-94573670D01*
X136224467Y-98400506D02*
X136931573Y-97693399D01*
X137472594Y-95487266D02*
X137408271Y-95473761D01*
X142234874Y-96774161D02*
X142022742Y-96986293D01*
X139106956Y-93060724D02*
X139011769Y-93155911D01*
X142109481Y-80318198D02*
X141473084Y-80318198D01*
X136742050Y-92448478D02*
X136689025Y-92342569D01*
X134506470Y-108795042D02*
X134693056Y-108795042D01*
X133396039Y-92885073D02*
X134103146Y-93592180D01*
X143316245Y-94178576D02*
X143316245Y-94278576D01*
X137259089Y-94927809D02*
X137220056Y-94932479D01*
X135300627Y-93426707D02*
X135399426Y-93327907D01*
X136128949Y-92856751D02*
X136033761Y-92951938D01*
X142022742Y-91470860D02*
X141315635Y-92177967D01*
X137455079Y-94668996D02*
X137442769Y-94605926D01*
X137334570Y-94804603D02*
X137450459Y-94869465D01*
X143510000Y-68810000D02*
X148590000Y-68810000D01*
X133396039Y-95572079D02*
X133183907Y-95359947D01*
X142941981Y-92390099D02*
X142234874Y-93097205D01*
X139347368Y-92688154D02*
X139436607Y-92962243D01*
X143649088Y-93097205D02*
X142941981Y-93804312D01*
X137410762Y-95326368D02*
X137484121Y-95348209D01*
X137575777Y-95226132D02*
X137517817Y-95122677D01*
X136460451Y-92928751D02*
X136400152Y-92933606D01*
X138933084Y-77778198D02*
X138933084Y-77141801D01*
X136244534Y-93217103D02*
X136339721Y-93121916D01*
X134787741Y-94202121D02*
X134804080Y-94206692D01*
X141626410Y-68964431D02*
X135349481Y-68964431D01*
X137722206Y-94551006D02*
X137708678Y-94531667D01*
X136196940Y-95780365D02*
X136455306Y-95521999D01*
X135180398Y-94214959D02*
X135250483Y-94262784D01*
X135305228Y-97481267D02*
X136012334Y-96774161D01*
X134855142Y-68025241D02*
X134577387Y-67710000D01*
X137291064Y-95229107D02*
X137410762Y-95326368D01*
X143295534Y-92743652D02*
X142588428Y-93450759D01*
X142588428Y-92036545D02*
X141881321Y-92743652D01*
X142109481Y-79681801D02*
X142109481Y-80318198D01*
X137072995Y-99249034D02*
X137780101Y-98541928D01*
X134738513Y-68354425D02*
X134738513Y-73360000D01*
X137450459Y-94869465D02*
X137550174Y-94957886D01*
X128210000Y-68750000D02*
X129540000Y-68750000D01*
X140467107Y-98541928D02*
X139760000Y-97834821D01*
X134103146Y-92177967D02*
X133891014Y-92390099D01*
X134500000Y-106204000D02*
X134499382Y-106204002D01*
X141191283Y-80600000D02*
X141191283Y-76860000D01*
X137408271Y-95473761D02*
X137293315Y-95410602D01*
X136638882Y-95515200D02*
X136607330Y-95369976D01*
X148590000Y-68810000D02*
X148590000Y-119610000D01*
X143295534Y-95713500D02*
X143083402Y-95925632D01*
X133891014Y-96067054D02*
X134598121Y-95359947D01*
X142134046Y-68360000D02*
X141644150Y-68360000D01*
X136012334Y-90268778D02*
X136719441Y-90975885D01*
X136724000Y-77422000D02*
X136724000Y-80222000D01*
X141905720Y-68355785D02*
X142161376Y-68355785D01*
X142376296Y-91824413D02*
X141669189Y-92531520D01*
X136460451Y-92928751D02*
X136400152Y-92933606D01*
X134743692Y-68360000D02*
X135233589Y-68360000D01*
X142022742Y-96986293D02*
X141315635Y-96279186D01*
X140820661Y-90268778D02*
X140608529Y-90056646D01*
X134914778Y-93954275D02*
X134908722Y-94090576D01*
X142234874Y-91682992D02*
X142022742Y-91470860D01*
X137141733Y-94819572D02*
X137203348Y-94794728D01*
X133537461Y-92743652D02*
X134244568Y-93450759D01*
X136001459Y-92717095D02*
X136048847Y-92651290D01*
X137981283Y-81170000D02*
X137981283Y-81570000D01*
X125785000Y-67635000D02*
X151075000Y-67635000D01*
X135870913Y-98046953D02*
X136578020Y-97339846D01*
X128210000Y-119670000D02*
X128210000Y-71350000D01*
X136365888Y-89915225D02*
X137072995Y-90622332D01*
X133749593Y-95925632D02*
X134456700Y-95218526D01*
X141473084Y-77778198D02*
X141473084Y-77141801D01*
X137691035Y-95363696D02*
X137649717Y-95415445D01*
X143316245Y-94278576D02*
X138466498Y-99128324D01*
X142391283Y-80600000D02*
X141191283Y-80600000D01*
X135399426Y-93327907D02*
X135890343Y-93576818D01*
X137495569Y-94740102D02*
X137455079Y-94668996D01*
X141527767Y-97481267D02*
X141315635Y-97693399D01*
X139851283Y-80600000D02*
X138651283Y-80600000D01*
X140962082Y-90410200D02*
X140254975Y-91117306D01*
X134244568Y-96420607D02*
X134951674Y-95713500D01*
X139569481Y-82221801D02*
X139569481Y-82858198D01*
X136033761Y-92951938D02*
X135993271Y-92880832D01*
X135233589Y-68359936D02*
X135233589Y-73370000D01*
X143061283Y-76290000D02*
X143061283Y-81170000D01*
X139437457Y-93296037D02*
X139379659Y-93207483D01*
X134693056Y-107112958D02*
X134506470Y-107112958D01*
X137861959Y-94721770D02*
X137760734Y-94787696D01*
X136719441Y-98895481D02*
X137426548Y-98188374D01*
X143622380Y-113200000D02*
X133342380Y-113200000D01*
X135993271Y-92880832D02*
X135980962Y-92817762D01*
X137285127Y-99461166D02*
X137072995Y-99249034D01*
X135870913Y-90410200D02*
X135658781Y-90622332D01*
X140962082Y-98046953D02*
X140254975Y-97339846D01*
X142941981Y-92390099D02*
X142729849Y-92177967D01*
X137538026Y-95482241D02*
X137472594Y-95487266D01*
X137291064Y-95229107D02*
X137410762Y-95326368D01*
X137072995Y-89208118D02*
X137780101Y-89915225D01*
X137185847Y-95103989D02*
X137291064Y-95229107D01*
X141305000Y-67710000D02*
X135605000Y-67710000D01*
X138794729Y-93455603D02*
X138844435Y-93535782D01*
X136524298Y-92387327D02*
X136527551Y-92439758D01*
X142729849Y-96279186D02*
X142022742Y-95572079D01*
X134456700Y-96632739D02*
X135163806Y-95925632D01*
X139569481Y-77778198D02*
X138933084Y-77778198D01*
X137186953Y-94953531D02*
X137164581Y-94987552D01*
X138362667Y-93798639D02*
X138359586Y-93935152D01*
X136727270Y-96310695D02*
X136196940Y-95780365D01*
X136224467Y-90056646D02*
X136931573Y-90763753D01*
X137455079Y-94668996D02*
X137442769Y-94605926D01*
X137474000Y-81722000D02*
X137474000Y-75922000D01*
X141669189Y-97339846D02*
X140962082Y-96632739D01*
X137026537Y-95067840D02*
X137034776Y-94943010D01*
X134598121Y-91682992D02*
X135305228Y-92390099D01*
X136578020Y-89703093D02*
X137285127Y-90410200D01*
X136742050Y-92448478D02*
X136689025Y-92342569D01*
X134724000Y-81572000D02*
G75*
G03*
X134824000Y-81672000I100000J0D01*
G01*
X137801572Y-94910032D02*
G75*
G03*
X137969593Y-94905193I81528J88632D01*
G01*
X137981300Y-81170000D02*
G75*
G03*
X138081283Y-81270000I100000J0D01*
G01*
X138709470Y-93675878D02*
G75*
G03*
X138704109Y-93555359I-58470J57778D01*
G01*
X136244530Y-93217107D02*
G75*
G03*
X136597769Y-93217421I176770J169307D01*
G01*
X134908729Y-94090557D02*
G75*
G03*
X134778052Y-94112461I-45829J-127343D01*
G01*
X136777538Y-92240671D02*
G75*
G03*
X136459342Y-92240794I-159038J-156129D01*
G01*
X135238000Y-101002588D02*
G75*
G03*
X135238000Y-105102588I0J-2050000D01*
G01*
X138704085Y-93555381D02*
G75*
G03*
X138585231Y-93555253I-59485J-54019D01*
G01*
X136143389Y-92747108D02*
G75*
G03*
X136128949Y-92856751I66211J-64492D01*
G01*
X136507805Y-93117051D02*
G75*
G03*
X136513842Y-92956082I-73405J83351D01*
G01*
X138793457Y-93930262D02*
G75*
G03*
X138954295Y-93920491I75743J81862D01*
G01*
X138706891Y-94034039D02*
G75*
G03*
X139050438Y-94014722I163509J156639D01*
G01*
X136624000Y-80322000D02*
G75*
G03*
X136724000Y-80222000I100J99900D01*
G01*
X139050437Y-94014721D02*
G75*
G03*
X139067224Y-93673706I-145257J178071D01*
G01*
X138805869Y-93769726D02*
G75*
G03*
X138793454Y-93930265I72731J-86374D01*
G01*
X134914778Y-93954273D02*
G75*
G03*
X134683927Y-94016211I-55578J-254027D01*
G01*
X134499382Y-106204002D02*
G75*
G03*
X134400002Y-106303380I618J-99998D01*
G01*
X135237178Y-68359925D02*
G75*
G03*
X135333589Y-68260001I-3578J99925D01*
G01*
X134962177Y-94627134D02*
G75*
G03*
X135242198Y-94572993I100923J229234D01*
G01*
X136724000Y-80922000D02*
G75*
G03*
X136624000Y-80822000I-100000J0D01*
G01*
X137374000Y-81822000D02*
G75*
G03*
X137474000Y-81722000I100J99900D01*
G01*
X136376198Y-92824363D02*
G75*
G03*
X136336003Y-92642261I-162298J59663D01*
G01*
X135583589Y-67709998D02*
G75*
G03*
X135333588Y-67914788I-20519J-229942D01*
G01*
X134506469Y-107112958D02*
G75*
G03*
X134484082Y-107312958I441231J-150642D01*
G01*
X136339676Y-93121965D02*
G75*
G03*
X136507786Y-93117029I81524J88665D01*
G01*
X138030795Y-93919332D02*
G75*
G03*
X138031849Y-94474087I268405J-276868D01*
G01*
X141538000Y-105102592D02*
G75*
G03*
X141538000Y-101002588I0J2050002D01*
G01*
X133974000Y-81722000D02*
G75*
G03*
X134074000Y-81822000I100000J0D01*
G01*
X135093042Y-107512958D02*
G75*
G03*
X134693056Y-107112958I-399942J58D01*
G01*
X134683925Y-94016208D02*
G75*
G03*
X134679252Y-94289874I131725J-139122D01*
G01*
X139067219Y-93673711D02*
G75*
G03*
X138857515Y-93609327I-163519J-158889D01*
G01*
X135160819Y-94363497D02*
G75*
G03*
X134999023Y-94342355I-106219J-183203D01*
G01*
X138794781Y-93455553D02*
G75*
G03*
X138492381Y-93457727I-150181J-142847D01*
G01*
X141554966Y-68058187D02*
G75*
G03*
X141305000Y-67853395I-229366J-25013D01*
G01*
X134724000Y-76722000D02*
G75*
G03*
X134824000Y-76822000I100000J0D01*
G01*
X139437467Y-93296027D02*
G75*
G03*
X139767320Y-93297843I165833J163727D01*
G01*
X137554104Y-95320681D02*
G75*
G03*
X137575776Y-95226132I-65104J64681D01*
G01*
X139527989Y-93196158D02*
G75*
G03*
X139670326Y-93204461I75311J66858D01*
G01*
X134484091Y-108595043D02*
G75*
G03*
X134506470Y-108795042I445009J-51457D01*
G01*
X134733593Y-68351500D02*
G75*
G03*
X134671166Y-68189153I-249593J-2800D01*
G01*
X137706329Y-95005278D02*
G75*
G03*
X138059575Y-95005586I176771J169378D01*
G01*
X134778051Y-94112459D02*
G75*
G03*
X134769872Y-94190119I34949J-42941D01*
G01*
X134824000Y-75972000D02*
G75*
G03*
X134724000Y-76072000I100J-100100D01*
G01*
X142399999Y-106303381D02*
G75*
G03*
X142300619Y-106204001I-99999J-619D01*
G01*
X142961283Y-81269982D02*
G75*
G03*
X143061282Y-81170000I17J99982D01*
G01*
X136894277Y-92590098D02*
G75*
G03*
X136777520Y-92240688I-513577J22598D01*
G01*
X142300619Y-109703998D02*
G75*
G03*
X142399998Y-109604619I-619J99998D01*
G01*
X134979976Y-68355785D02*
G75*
G03*
X134855142Y-68025241I-500076J-15D01*
G01*
X138081283Y-76189983D02*
G75*
G03*
X137981283Y-76290000I17J-100017D01*
G01*
X138965604Y-93762362D02*
G75*
G03*
X138805884Y-93769744I-76304J-80638D01*
G01*
X137837962Y-94612511D02*
G75*
G03*
X137797810Y-94430425I-162162J59711D01*
G01*
X138071788Y-94650018D02*
G75*
G03*
X137837968Y-94612513I-141088J-131982D01*
G01*
X134824000Y-80822000D02*
G75*
G03*
X134724000Y-80922000I100J-100100D01*
G01*
X136336052Y-92642208D02*
G75*
G03*
X136048846Y-92651290I-139152J-145292D01*
G01*
X138031843Y-94474092D02*
G75*
G03*
X138586825Y-94478337I279457J254892D01*
G01*
X138126825Y-94378686D02*
G75*
G03*
X138491213Y-94383574I184475J167586D01*
G01*
X141554961Y-67914793D02*
G75*
G03*
X141305000Y-67710001I-229361J-25007D01*
G01*
X136597769Y-93217423D02*
G75*
G03*
X136609986Y-92861851I-164639J183653D01*
G01*
X139764555Y-92970425D02*
G75*
G03*
X139436607Y-92962243I-167955J-155475D01*
G01*
X142090643Y-68025232D02*
G75*
G03*
X141965807Y-68355785I375257J-330568D01*
G01*
X136724000Y-76072000D02*
G75*
G03*
X136624000Y-75972000I-100000J0D01*
G01*
X138954315Y-93920517D02*
G75*
G03*
X138965557Y-93762413I-65615J84117D01*
G01*
X135242200Y-94572996D02*
G75*
G03*
X135250483Y-94262785I-140050J158956D01*
G01*
X137969577Y-94905174D02*
G75*
G03*
X137975649Y-94744245I-74077J83374D01*
G01*
X137605216Y-94535291D02*
G75*
G03*
X137590756Y-94644915I66284J-64509D01*
G01*
X139767334Y-93297858D02*
G75*
G03*
X139764558Y-92970423I-161834J162358D01*
G01*
X136724000Y-77422000D02*
G75*
G03*
X136624000Y-77322000I-100000J0D01*
G01*
X137474000Y-75922000D02*
G75*
G03*
X137374000Y-75822000I-100000J0D01*
G01*
X138585282Y-93555302D02*
G75*
G03*
X138589268Y-93671688I57318J-56298D01*
G01*
X136246857Y-92743517D02*
G75*
G03*
X136143397Y-92747116I-50057J-49883D01*
G01*
X136459334Y-92240785D02*
G75*
G03*
X136475703Y-92605184I179266J-174515D01*
G01*
X138492401Y-93457750D02*
G75*
G03*
X138487282Y-93760076I138399J-153550D01*
G01*
X139663930Y-93060212D02*
G75*
G03*
X139520427Y-93055200I-74130J-65588D01*
G01*
X138122256Y-94018230D02*
G75*
G03*
X138126823Y-94378688I176644J-178020D01*
G01*
X138491219Y-94383580D02*
G75*
G03*
X138572483Y-94148049I-207219J203280D01*
G01*
X141558550Y-68255848D02*
G75*
G03*
X141655000Y-68355785I100050J48D01*
G01*
X137708656Y-94531689D02*
G75*
G03*
X137605204Y-94535280I-50056J-49911D01*
G01*
X139670376Y-93204508D02*
G75*
G03*
X139663952Y-93060192I-73976J69008D01*
G01*
X134400002Y-109604619D02*
G75*
G03*
X134499381Y-109703998I99998J619D01*
G01*
X134074000Y-75822000D02*
G75*
G03*
X133974000Y-75922000I100J-100100D01*
G01*
X143061300Y-76290000D02*
G75*
G03*
X142961283Y-76190000I-100000J0D01*
G01*
X138589247Y-93671706D02*
G75*
G03*
X138709421Y-93675831I62053J55206D01*
G01*
X134824000Y-77322000D02*
G75*
G03*
X134724000Y-77422000I100J-100100D01*
G01*
X134724000Y-80222000D02*
G75*
G03*
X134824000Y-80322000I100000J0D01*
G01*
X135583589Y-67853396D02*
G75*
G03*
X135333589Y-68058182I-20509J-229954D01*
G01*
X136624000Y-81672000D02*
G75*
G03*
X136724000Y-81572000I100J99900D01*
G01*
X134679255Y-94289871D02*
G75*
G03*
X134999023Y-94342355I211145J286071D01*
G01*
X136609983Y-92861853D02*
G75*
G03*
X136376161Y-92824349I-141083J-131947D01*
G01*
X139520376Y-93055153D02*
G75*
G03*
X139527971Y-93196174I71824J-66847D01*
G01*
X134693056Y-108795036D02*
G75*
G03*
X135093056Y-108395042I4J399996D01*
G01*
X137797857Y-94430376D02*
G75*
G03*
X137510655Y-94439455I-139157J-145124D01*
G01*
X142274636Y-68189160D02*
G75*
G03*
X142212223Y-68351500I187464J-165240D01*
G01*
X135150521Y-94474307D02*
G75*
G03*
X135160820Y-94363497I-50821J60607D01*
G01*
X138059573Y-95005583D02*
G75*
G03*
X138071792Y-94650015I-164683J183653D01*
G01*
X136689003Y-92342590D02*
G75*
G03*
X136549113Y-92341400I-70503J-65010D01*
G01*
X138666498Y-98228576D02*
G75*
G03*
X138666498Y-98228576I-250000J0D01*
G01*
X141877303Y-107954000D02*
G75*
G03*
X141877303Y-107954000I-425876J0D01*
G01*
G36*
X142554000Y-114883060D02*
G01*
X142046000Y-114883060D01*
X142046000Y-114375060D01*
X142554000Y-114375060D01*
X142554000Y-114883060D01*
G37*
D15*
X142554000Y-114883060D02*
X142046000Y-114883060D01*
X142046000Y-114375060D01*
X142554000Y-114375060D01*
X142554000Y-114883060D01*
G36*
X137474000Y-114883060D02*
G01*
X136966000Y-114883060D01*
X136966000Y-114375060D01*
X137474000Y-114375060D01*
X137474000Y-114883060D01*
G37*
X137474000Y-114883060D02*
X136966000Y-114883060D01*
X136966000Y-114375060D01*
X137474000Y-114375060D01*
X137474000Y-114883060D01*
G36*
X140014000Y-114883060D02*
G01*
X139506000Y-114883060D01*
X139506000Y-114375060D01*
X140014000Y-114375060D01*
X140014000Y-114883060D01*
G37*
X140014000Y-114883060D02*
X139506000Y-114883060D01*
X139506000Y-114375060D01*
X140014000Y-114375060D01*
X140014000Y-114883060D01*
G36*
X134934000Y-114883060D02*
G01*
X134426000Y-114883060D01*
X134426000Y-114375060D01*
X134934000Y-114375060D01*
X134934000Y-114883060D01*
G37*
X134934000Y-114883060D02*
X134426000Y-114883060D01*
X134426000Y-114375060D01*
X134934000Y-114375060D01*
X134934000Y-114883060D01*
D10*
X171850267Y-97256000D02*
X171557733Y-97256000D01*
X171850267Y-98276000D02*
X171557733Y-98276000D01*
X177280000Y-102498000D02*
X176780000Y-102498000D01*
X177280000Y-100138000D02*
X176780000Y-100138000D01*
X177288000Y-97094000D02*
X176788000Y-97094000D01*
X177288000Y-99454000D02*
X176788000Y-99454000D01*
%LPC*%
D16*
X160020000Y-110720000D03*
D17*
X160020000Y-113260000D03*
X160020000Y-115800000D03*
X160020000Y-118340000D03*
D18*
X123190000Y-110720000D03*
D19*
X120650000Y-110720000D03*
D20*
X121769500Y-113768000D03*
X123594500Y-113768000D03*
X161596700Y-103100000D03*
X163421700Y-103100000D03*
D21*
X163421700Y-106148000D03*
X161596700Y-106148000D03*
D22*
X162560000Y-82780000D03*
D23*
X162560000Y-85320000D03*
X162560000Y-87860000D03*
X162560000Y-90400000D03*
X162560000Y-92940000D03*
X162560000Y-95480000D03*
X162560000Y-98020000D03*
D22*
X171450000Y-72620000D03*
D23*
X173990000Y-72620000D03*
D22*
X160020000Y-72620000D03*
D23*
X162560000Y-72620000D03*
X165100000Y-72620000D03*
D24*
X182880000Y-87860000D03*
D25*
X185420000Y-87860000D03*
X182880000Y-90400000D03*
X185420000Y-90400000D03*
X182880000Y-92940000D03*
X185420000Y-92940000D03*
X182880000Y-95480000D03*
X185420000Y-95480000D03*
X182880000Y-98020000D03*
X185420000Y-98020000D03*
X182880000Y-100560000D03*
X185420000Y-100560000D03*
X182880000Y-103100000D03*
X185420000Y-103100000D03*
D22*
X153670000Y-77700000D03*
D23*
X153670000Y-80240000D03*
X153670000Y-82780000D03*
X153670000Y-85320000D03*
X153670000Y-87860000D03*
X153670000Y-90400000D03*
X153670000Y-92940000D03*
X153670000Y-95480000D03*
X153670000Y-98020000D03*
X153670000Y-100560000D03*
X153670000Y-103100000D03*
X153670000Y-105640000D03*
D22*
X123190000Y-72620000D03*
D23*
X123190000Y-75160000D03*
X123190000Y-77700000D03*
X123190000Y-80240000D03*
X123190000Y-82780000D03*
X123190000Y-85320000D03*
D26*
X183235600Y-81305700D03*
X183235600Y-79580700D03*
D27*
X171196000Y-116816000D03*
X169471000Y-116816000D03*
D28*
X169446000Y-107531000D03*
X171196000Y-107531000D03*
D29*
X169444500Y-106021000D03*
X171169500Y-106021000D03*
D27*
X177015000Y-109650000D03*
X175290000Y-109650000D03*
D29*
X175290000Y-111200000D03*
X177015000Y-111200000D03*
D30*
X176538000Y-91428000D03*
D31*
X176538000Y-91928000D03*
X176538000Y-92428000D03*
D30*
X176538000Y-92928000D03*
X177538000Y-92928000D03*
D31*
X177538000Y-92428000D03*
X177538000Y-91928000D03*
D30*
X177538000Y-91428000D03*
D21*
X171246800Y-115292000D03*
X169421800Y-115292000D03*
D22*
X153670000Y-115800000D03*
D23*
X153670000Y-118340000D03*
D22*
X185420000Y-72620000D03*
D23*
X182880000Y-72620000D03*
D26*
X184759600Y-81305700D03*
X184759600Y-79580700D03*
D30*
X176530000Y-88380000D03*
D31*
X176530000Y-88880000D03*
X176530000Y-89380000D03*
D30*
X176530000Y-89880000D03*
X177530000Y-89880000D03*
D31*
X177530000Y-89380000D03*
X177530000Y-88880000D03*
D30*
X177530000Y-88380000D03*
D27*
X168756500Y-97766000D03*
X167031500Y-97766000D03*
D32*
X168376000Y-99302000D03*
X168376000Y-99802000D03*
X168376000Y-100302000D03*
X168376000Y-100802000D03*
X171476000Y-100802000D03*
X171476000Y-100302000D03*
X171476000Y-99802000D03*
X171476000Y-99302000D03*
D22*
X123190000Y-95480000D03*
D23*
X123190000Y-98020000D03*
X123190000Y-100560000D03*
X123190000Y-103100000D03*
X123190000Y-105640000D03*
D29*
X169471000Y-118340000D03*
X171196000Y-118340000D03*
D33*
X168484000Y-94532500D03*
X169134000Y-94532500D03*
X169784000Y-94532500D03*
X170434000Y-94532500D03*
X171084000Y-94532500D03*
X171734000Y-94532500D03*
X172384000Y-94532500D03*
X172384000Y-88807500D03*
X171734000Y-88807500D03*
X171084000Y-88807500D03*
X170434000Y-88807500D03*
X169784000Y-88807500D03*
X169134000Y-88807500D03*
X168484000Y-88807500D03*
D20*
X169440000Y-113768000D03*
X171265000Y-113768000D03*
D34*
X169164000Y-109563000D03*
X169164000Y-110513000D03*
X169164000Y-111463000D03*
X171864000Y-111463000D03*
X171864000Y-109563000D03*
D35*
X175265500Y-84370000D03*
X175265500Y-85320000D03*
X175265500Y-86270000D03*
X177540500Y-86270000D03*
X177540500Y-85320000D03*
X177540500Y-84370000D03*
D36*
X166624000Y-78869500D03*
X166624000Y-80594500D03*
D27*
X163371700Y-104624000D03*
X161646700Y-104624000D03*
D35*
X175265500Y-104944000D03*
X175265500Y-105894000D03*
X175265500Y-106844000D03*
X177540500Y-106844000D03*
X177540500Y-105894000D03*
X177540500Y-104944000D03*
D30*
X162060000Y-77204000D03*
D31*
X162060000Y-77704000D03*
X162060000Y-78204000D03*
D30*
X162060000Y-78704000D03*
X163060000Y-78704000D03*
D31*
X163060000Y-78204000D03*
X163060000Y-77704000D03*
D30*
X163060000Y-77204000D03*
D33*
X168484000Y-84880500D03*
X169134000Y-84880500D03*
X169784000Y-84880500D03*
X170434000Y-84880500D03*
X171084000Y-84880500D03*
X171734000Y-84880500D03*
X172384000Y-84880500D03*
X172384000Y-79155500D03*
X171734000Y-79155500D03*
X171084000Y-79155500D03*
X170434000Y-79155500D03*
X169784000Y-79155500D03*
X169134000Y-79155500D03*
X168484000Y-79155500D03*
D36*
X166624000Y-88521500D03*
X166624000Y-90246500D03*
D22*
X129540000Y-70080000D03*
D25*
X129540000Y-72620000D03*
X129540000Y-75160000D03*
X129540000Y-77700000D03*
X129540000Y-80240000D03*
X129540000Y-82780000D03*
X129540000Y-85320000D03*
X129540000Y-87860000D03*
X129540000Y-90400000D03*
X129540000Y-92940000D03*
X129540000Y-95480000D03*
X129540000Y-98020000D03*
X129540000Y-100560000D03*
X129540000Y-103100000D03*
X129540000Y-105640000D03*
X129540000Y-108180000D03*
X129540000Y-110720000D03*
X129540000Y-113260000D03*
X129540000Y-115800000D03*
X129540000Y-118340000D03*
X144780000Y-118340000D03*
X144780000Y-115800000D03*
X144780000Y-113260000D03*
X144780000Y-110720000D03*
X144780000Y-108180000D03*
X144780000Y-105640000D03*
X144780000Y-103100000D03*
X144780000Y-100560000D03*
X144780000Y-98020000D03*
X144780000Y-95480000D03*
X144780000Y-92940000D03*
X144780000Y-90400000D03*
X144780000Y-87860000D03*
X144780000Y-85320000D03*
X144780000Y-82780000D03*
X144780000Y-80240000D03*
X144780000Y-77700000D03*
X144780000Y-75160000D03*
X144780000Y-72620000D03*
X144780000Y-70080000D03*
D22*
X132080000Y-70080000D03*
D25*
X132080000Y-72620000D03*
X132080000Y-75160000D03*
X132080000Y-77700000D03*
X132080000Y-80240000D03*
X132080000Y-82780000D03*
X132080000Y-85320000D03*
X132080000Y-87860000D03*
X132080000Y-90400000D03*
X132080000Y-92940000D03*
X132080000Y-95480000D03*
X132080000Y-98020000D03*
X132080000Y-100560000D03*
X132080000Y-103100000D03*
X132080000Y-105640000D03*
X132080000Y-108180000D03*
X132080000Y-110720000D03*
X132080000Y-113260000D03*
X132080000Y-115800000D03*
X132080000Y-118340000D03*
X147320000Y-118340000D03*
X147320000Y-115800000D03*
X147320000Y-113260000D03*
X147320000Y-110720000D03*
X147320000Y-108180000D03*
X147320000Y-105640000D03*
X147320000Y-103100000D03*
X147320000Y-100560000D03*
X147320000Y-98020000D03*
X147320000Y-95480000D03*
X147320000Y-92940000D03*
X147320000Y-90400000D03*
X147320000Y-87860000D03*
X147320000Y-85320000D03*
X147320000Y-82780000D03*
X147320000Y-80240000D03*
X147320000Y-77700000D03*
X147320000Y-75160000D03*
X147320000Y-72620000D03*
X147320000Y-70080000D03*
D27*
X172566500Y-97766000D03*
X170841500Y-97766000D03*
D30*
X176530000Y-100568000D03*
D31*
X176530000Y-101068000D03*
X176530000Y-101568000D03*
D30*
X176530000Y-102068000D03*
X177530000Y-102068000D03*
D31*
X177530000Y-101568000D03*
X177530000Y-101068000D03*
D30*
X177530000Y-100568000D03*
X176538000Y-97524000D03*
D31*
X176538000Y-98024000D03*
X176538000Y-98524000D03*
D30*
X176538000Y-99024000D03*
X177538000Y-99024000D03*
D31*
X177538000Y-98524000D03*
X177538000Y-98024000D03*
D30*
X177538000Y-97524000D03*
M02*
