M48
; DRILL file {KiCad (6.0.9)} date Thu Dec  8 07:35:03 2022
; FORMAT={-:-/ absolute / metric / decimal}
; #@! TF.CreationDate,2022-12-08T07:35:03+01:00
; #@! TF.GenerationSoftware,Kicad,Pcbnew,(6.0.9)
; #@! TF.FileFunction,Plated,1,2,PTH
FMAT,2
METRIC
; #@! TA.AperFunction,Plated,PTH,ViaDrill
T1C0.200
; #@! TA.AperFunction,Plated,PTH,ViaDrill
T2C0.300
; #@! TA.AperFunction,Plated,PTH,ViaDrill
T3C0.400
; #@! TA.AperFunction,Plated,PTH,ViaDrill
T4C0.500
; #@! TA.AperFunction,Plated,PTH,ComponentDrill
T5C0.900
; #@! TA.AperFunction,Plated,PTH,ComponentDrill
T6C1.000
; #@! TA.AperFunction,Plated,PTH,ComponentDrill
T7C1.190
%
G90
G05
T1
X150.495Y-99.29
X160.782Y-76.938
X160.782Y-78.462
X161.29Y-77.446
X161.29Y-78.97
X164.084Y-86.844
X168.636Y-92.885
X169.164Y-77.7
X169.672Y-83.415
X169.799Y-81.764
X170.434Y-93.194
X171.704Y-91.543
X173.482Y-89.511
X174.498Y-99.798
X175.133Y-89.384
X175.133Y-98.528
X175.133Y-101.576
X175.133Y-103.862
X175.26Y-83.542
X175.768Y-88.876
X175.768Y-97.258
X175.768Y-98.02
X175.768Y-101.068
X176.276Y-106.91
X176.53Y-87.606
X176.53Y-99.798
X178.308Y-101.068
X178.562Y-106.783
T2
X119.888Y-76.303
X126.34Y-70.537
X126.34Y-75.287
X150.241Y-81.002
X150.241Y-91.67
X158.496Y-96.75
X164.592Y-94.718
X167.132Y-99.036
X168.402Y-80.748
X168.402Y-90.4
X169.672Y-90.146
X170.688Y-98.782
X172.212Y-102.973
X173.228Y-98.782
X175.133Y-92.432
X175.768Y-91.924
X176.53Y-93.448
X178.689Y-105.894
X178.816Y-85.32
T3
X125.882Y-86.793
X138.303Y-81.637
X138.43Y-77.319
X165.1Y-89.257
X166.37Y-95.861
X166.624Y-76.938
X166.878Y-84.812
X167.64Y-113.768
X169.799Y-100.052
X172.72Y-106.007
X172.847Y-86.463
X176.784Y-95.734
X177.546Y-93.956
X178.816Y-102.592
X179.832Y-92.432
X181.864Y-79.732
T4
X122.809Y-120.753
X127.0Y-91.67
X127.0Y-94.21
X136.144Y-70.08
X137.287Y-106.021
X138.43Y-91.67
X138.43Y-99.29
X138.43Y-113.717
X150.89Y-105.7
X156.972Y-99.29
X158.115Y-91.67
X163.424Y-111.634
X163.54Y-118.95
X166.292Y-122.252
X167.72Y-110.513
X167.894Y-118.797
X169.418Y-104.624
X173.482Y-101.703
X179.121Y-110.847
X184.252Y-83.034
T5
X120.65Y-110.72
X123.19Y-110.72
T6
X123.19Y-72.62
X123.19Y-75.16
X123.19Y-77.7
X123.19Y-80.24
X123.19Y-82.78
X123.19Y-85.32
X123.19Y-95.48
X123.19Y-98.02
X123.19Y-100.56
X123.19Y-103.1
X123.19Y-105.64
X129.54Y-70.08
X129.54Y-72.62
X129.54Y-75.16
X129.54Y-77.7
X129.54Y-80.24
X129.54Y-82.78
X129.54Y-85.32
X129.54Y-87.86
X129.54Y-90.4
X129.54Y-92.94
X129.54Y-95.48
X129.54Y-98.02
X129.54Y-100.56
X129.54Y-103.1
X129.54Y-105.64
X129.54Y-108.18
X129.54Y-110.72
X129.54Y-113.26
X129.54Y-115.8
X129.54Y-118.34
X132.08Y-70.08
X132.08Y-72.62
X132.08Y-75.16
X132.08Y-77.7
X132.08Y-80.24
X132.08Y-82.78
X132.08Y-85.32
X132.08Y-87.86
X132.08Y-90.4
X132.08Y-92.94
X132.08Y-95.48
X132.08Y-98.02
X132.08Y-100.56
X132.08Y-103.1
X132.08Y-105.64
X132.08Y-108.18
X132.08Y-110.72
X132.08Y-113.26
X132.08Y-115.8
X132.08Y-118.34
X144.78Y-70.08
X144.78Y-72.62
X144.78Y-75.16
X144.78Y-77.7
X144.78Y-80.24
X144.78Y-82.78
X144.78Y-85.32
X144.78Y-87.86
X144.78Y-90.4
X144.78Y-92.94
X144.78Y-95.48
X144.78Y-98.02
X144.78Y-100.56
X144.78Y-103.1
X144.78Y-105.64
X144.78Y-108.18
X144.78Y-110.72
X144.78Y-113.26
X144.78Y-115.8
X144.78Y-118.34
X147.32Y-70.08
X147.32Y-72.62
X147.32Y-75.16
X147.32Y-77.7
X147.32Y-80.24
X147.32Y-82.78
X147.32Y-85.32
X147.32Y-87.86
X147.32Y-90.4
X147.32Y-92.94
X147.32Y-95.48
X147.32Y-98.02
X147.32Y-100.56
X147.32Y-103.1
X147.32Y-105.64
X147.32Y-108.18
X147.32Y-110.72
X147.32Y-113.26
X147.32Y-115.8
X147.32Y-118.34
X153.67Y-77.7
X153.67Y-80.24
X153.67Y-82.78
X153.67Y-85.32
X153.67Y-87.86
X153.67Y-90.4
X153.67Y-92.94
X153.67Y-95.48
X153.67Y-98.02
X153.67Y-100.56
X153.67Y-103.1
X153.67Y-105.64
X153.67Y-115.8
X153.67Y-118.34
X160.02Y-72.62
X162.56Y-72.62
X162.56Y-82.78
X162.56Y-85.32
X162.56Y-87.86
X162.56Y-90.4
X162.56Y-92.94
X162.56Y-95.48
X162.56Y-98.02
X165.1Y-72.62
X171.45Y-72.62
X173.99Y-72.62
X182.88Y-72.62
X182.88Y-87.86
X182.88Y-90.4
X182.88Y-92.94
X182.88Y-95.48
X182.88Y-98.02
X182.88Y-100.56
X182.88Y-103.1
X185.42Y-72.62
X185.42Y-87.86
X185.42Y-90.4
X185.42Y-92.94
X185.42Y-95.48
X185.42Y-98.02
X185.42Y-100.56
X185.42Y-103.1
T7
X160.02Y-110.72
X160.02Y-113.26
X160.02Y-115.8
X160.02Y-118.34
T0
M30
