G04 #@! TF.GenerationSoftware,KiCad,Pcbnew,(6.0.9)*
G04 #@! TF.CreationDate,2022-12-08T07:34:40+01:00*
G04 #@! TF.ProjectId,BlackPill-BMP,426c6163-6b50-4696-9c6c-2d424d502e6b,rev?*
G04 #@! TF.SameCoordinates,Original*
G04 #@! TF.FileFunction,Soldermask,Bot*
G04 #@! TF.FilePolarity,Negative*
%FSLAX46Y46*%
G04 Gerber Fmt 4.6, Leading zero omitted, Abs format (unit mm)*
G04 Created by KiCad (PCBNEW (6.0.9)) date 2022-12-08 07:34:40*
%MOMM*%
%LPD*%
G01*
G04 APERTURE LIST*
G04 Aperture macros list*
%AMRoundRect*
0 Rectangle with rounded corners*
0 $1 Rounding radius*
0 $2 $3 $4 $5 $6 $7 $8 $9 X,Y pos of 4 corners*
0 Add a 4 corners polygon primitive as box body*
4,1,4,$2,$3,$4,$5,$6,$7,$8,$9,$2,$3,0*
0 Add four circle primitives for the rounded corners*
1,1,$1+$1,$2,$3*
1,1,$1+$1,$4,$5*
1,1,$1+$1,$6,$7*
1,1,$1+$1,$8,$9*
0 Add four rect primitives between the rounded corners*
20,1,$1+$1,$2,$3,$4,$5,0*
20,1,$1+$1,$4,$5,$6,$7,0*
20,1,$1+$1,$6,$7,$8,$9,0*
20,1,$1+$1,$8,$9,$2,$3,0*%
G04 Aperture macros list end*
%ADD10RoundRect,0.250000X-0.845000X0.620000X-0.845000X-0.620000X0.845000X-0.620000X0.845000X0.620000X0*%
%ADD11O,2.190000X1.740000*%
%ADD12R,1.800000X1.800000*%
%ADD13C,1.800000*%
%ADD14R,1.700000X1.700000*%
%ADD15O,1.700000X1.700000*%
%ADD16RoundRect,0.250000X-0.600000X-0.600000X0.600000X-0.600000X0.600000X0.600000X-0.600000X0.600000X0*%
%ADD17C,1.700000*%
G04 APERTURE END LIST*
D10*
X160020000Y-110720000D03*
D11*
X160020000Y-113260000D03*
X160020000Y-115800000D03*
X160020000Y-118340000D03*
D12*
X123190000Y-110720000D03*
D13*
X120650000Y-110720000D03*
D14*
X162560000Y-82780000D03*
D15*
X162560000Y-85320000D03*
X162560000Y-87860000D03*
X162560000Y-90400000D03*
X162560000Y-92940000D03*
X162560000Y-95480000D03*
X162560000Y-98020000D03*
D14*
X171450000Y-72620000D03*
D15*
X173990000Y-72620000D03*
D14*
X160020000Y-72620000D03*
D15*
X162560000Y-72620000D03*
X165100000Y-72620000D03*
D16*
X182880000Y-87860000D03*
D17*
X185420000Y-87860000D03*
X182880000Y-90400000D03*
X185420000Y-90400000D03*
X182880000Y-92940000D03*
X185420000Y-92940000D03*
X182880000Y-95480000D03*
X185420000Y-95480000D03*
X182880000Y-98020000D03*
X185420000Y-98020000D03*
X182880000Y-100560000D03*
X185420000Y-100560000D03*
X182880000Y-103100000D03*
X185420000Y-103100000D03*
D14*
X153670000Y-77700000D03*
D15*
X153670000Y-80240000D03*
X153670000Y-82780000D03*
X153670000Y-85320000D03*
X153670000Y-87860000D03*
X153670000Y-90400000D03*
X153670000Y-92940000D03*
X153670000Y-95480000D03*
X153670000Y-98020000D03*
X153670000Y-100560000D03*
X153670000Y-103100000D03*
X153670000Y-105640000D03*
D14*
X123190000Y-72620000D03*
D15*
X123190000Y-75160000D03*
X123190000Y-77700000D03*
X123190000Y-80240000D03*
X123190000Y-82780000D03*
X123190000Y-85320000D03*
D14*
X153670000Y-115800000D03*
D15*
X153670000Y-118340000D03*
D14*
X185420000Y-72620000D03*
D15*
X182880000Y-72620000D03*
D14*
X123190000Y-95480000D03*
D15*
X123190000Y-98020000D03*
X123190000Y-100560000D03*
X123190000Y-103100000D03*
X123190000Y-105640000D03*
D14*
X129540000Y-70080000D03*
D17*
X129540000Y-72620000D03*
X129540000Y-75160000D03*
X129540000Y-77700000D03*
X129540000Y-80240000D03*
X129540000Y-82780000D03*
X129540000Y-85320000D03*
X129540000Y-87860000D03*
X129540000Y-90400000D03*
X129540000Y-92940000D03*
X129540000Y-95480000D03*
X129540000Y-98020000D03*
X129540000Y-100560000D03*
X129540000Y-103100000D03*
X129540000Y-105640000D03*
X129540000Y-108180000D03*
X129540000Y-110720000D03*
X129540000Y-113260000D03*
X129540000Y-115800000D03*
X129540000Y-118340000D03*
X144780000Y-118340000D03*
X144780000Y-115800000D03*
X144780000Y-113260000D03*
X144780000Y-110720000D03*
X144780000Y-108180000D03*
X144780000Y-105640000D03*
X144780000Y-103100000D03*
X144780000Y-100560000D03*
X144780000Y-98020000D03*
X144780000Y-95480000D03*
X144780000Y-92940000D03*
X144780000Y-90400000D03*
X144780000Y-87860000D03*
X144780000Y-85320000D03*
X144780000Y-82780000D03*
X144780000Y-80240000D03*
X144780000Y-77700000D03*
X144780000Y-75160000D03*
X144780000Y-72620000D03*
X144780000Y-70080000D03*
D14*
X132080000Y-70080000D03*
D17*
X132080000Y-72620000D03*
X132080000Y-75160000D03*
X132080000Y-77700000D03*
X132080000Y-80240000D03*
X132080000Y-82780000D03*
X132080000Y-85320000D03*
X132080000Y-87860000D03*
X132080000Y-90400000D03*
X132080000Y-92940000D03*
X132080000Y-95480000D03*
X132080000Y-98020000D03*
X132080000Y-100560000D03*
X132080000Y-103100000D03*
X132080000Y-105640000D03*
X132080000Y-108180000D03*
X132080000Y-110720000D03*
X132080000Y-113260000D03*
X132080000Y-115800000D03*
X132080000Y-118340000D03*
X147320000Y-118340000D03*
X147320000Y-115800000D03*
X147320000Y-113260000D03*
X147320000Y-110720000D03*
X147320000Y-108180000D03*
X147320000Y-105640000D03*
X147320000Y-103100000D03*
X147320000Y-100560000D03*
X147320000Y-98020000D03*
X147320000Y-95480000D03*
X147320000Y-92940000D03*
X147320000Y-90400000D03*
X147320000Y-87860000D03*
X147320000Y-85320000D03*
X147320000Y-82780000D03*
X147320000Y-80240000D03*
X147320000Y-77700000D03*
X147320000Y-75160000D03*
X147320000Y-72620000D03*
X147320000Y-70080000D03*
M02*
