%TF.GenerationSoftware,KiCad,Pcbnew,(6.0.9)*%
%TF.CreationDate,2022-12-08T07:35:05+01:00*%
%TF.ProjectId,BlackPill-BMP,426c6163-6b50-4696-9c6c-2d424d502e6b,rev?*%
%TF.SameCoordinates,Original*%
%TF.FileFunction,Drillmap*%
%TF.FilePolarity,Positive*%
%FSLAX45Y45*%
G04 Gerber Fmt 4.5, Leading zero omitted, Abs format (unit mm)*
G04 Created by KiCad (PCBNEW (6.0.9)) date 2022-12-08 07:35:05*
%MOMM*%
%LPD*%
G01*
G04 APERTURE LIST*
%ADD10C,0.050000*%
%ADD11C,0.200000*%
G04 APERTURE END LIST*
D10*
X11684000Y-12469000D02*
X11684000Y-6500000D01*
X18934000Y-6500000D02*
X18934000Y-12469000D01*
X18934000Y-12469000D02*
X11684000Y-12469000D01*
X11684000Y-6500000D02*
X18934000Y-6500000D01*
D11*
X11939119Y-12781976D02*
X11939119Y-12581976D01*
X11986738Y-12581976D01*
X12015309Y-12591500D01*
X12034357Y-12610548D01*
X12043881Y-12629595D01*
X12053405Y-12667690D01*
X12053405Y-12696262D01*
X12043881Y-12734357D01*
X12034357Y-12753405D01*
X12015309Y-12772452D01*
X11986738Y-12781976D01*
X11939119Y-12781976D01*
X12139119Y-12781976D02*
X12139119Y-12648643D01*
X12139119Y-12686738D02*
X12148643Y-12667690D01*
X12158167Y-12658167D01*
X12177214Y-12648643D01*
X12196262Y-12648643D01*
X12262928Y-12781976D02*
X12262928Y-12648643D01*
X12262928Y-12581976D02*
X12253405Y-12591500D01*
X12262928Y-12601024D01*
X12272452Y-12591500D01*
X12262928Y-12581976D01*
X12262928Y-12601024D01*
X12386738Y-12781976D02*
X12367690Y-12772452D01*
X12358167Y-12753405D01*
X12358167Y-12581976D01*
X12491500Y-12781976D02*
X12472452Y-12772452D01*
X12462928Y-12753405D01*
X12462928Y-12581976D01*
X12720071Y-12781976D02*
X12720071Y-12581976D01*
X12786738Y-12724833D01*
X12853405Y-12581976D01*
X12853405Y-12781976D01*
X13034357Y-12781976D02*
X13034357Y-12677214D01*
X13024833Y-12658167D01*
X13005786Y-12648643D01*
X12967690Y-12648643D01*
X12948643Y-12658167D01*
X13034357Y-12772452D02*
X13015309Y-12781976D01*
X12967690Y-12781976D01*
X12948643Y-12772452D01*
X12939119Y-12753405D01*
X12939119Y-12734357D01*
X12948643Y-12715309D01*
X12967690Y-12705786D01*
X13015309Y-12705786D01*
X13034357Y-12696262D01*
X13129595Y-12648643D02*
X13129595Y-12848643D01*
X13129595Y-12658167D02*
X13148643Y-12648643D01*
X13186738Y-12648643D01*
X13205786Y-12658167D01*
X13215309Y-12667690D01*
X13224833Y-12686738D01*
X13224833Y-12743881D01*
X13215309Y-12762928D01*
X13205786Y-12772452D01*
X13186738Y-12781976D01*
X13148643Y-12781976D01*
X13129595Y-12772452D01*
X13310548Y-12762928D02*
X13320071Y-12772452D01*
X13310548Y-12781976D01*
X13301024Y-12772452D01*
X13310548Y-12762928D01*
X13310548Y-12781976D01*
X13310548Y-12658167D02*
X13320071Y-12667690D01*
X13310548Y-12677214D01*
X13301024Y-12667690D01*
X13310548Y-12658167D01*
X13310548Y-12677214D01*
M02*
