M48
; DRILL file {KiCad (6.0.7)} date Sat Sep 17 20:24:29 2022
; FORMAT={-:-/ absolute / metric / decimal}
; #@! TF.CreationDate,2022-09-17T20:24:29+02:00
; #@! TF.GenerationSoftware,Kicad,Pcbnew,(6.0.7)
; #@! TF.FileFunction,Plated,1,2,PTH
FMAT,2
METRIC
; #@! TA.AperFunction,Plated,PTH,ViaDrill
T1C0.200
; #@! TA.AperFunction,Plated,PTH,ViaDrill
T2C0.300
; #@! TA.AperFunction,Plated,PTH,ViaDrill
T3C0.400
; #@! TA.AperFunction,Plated,PTH,ViaDrill
T4C0.500
; #@! TA.AperFunction,Plated,PTH,ComponentDrill
T5C0.600
; #@! TA.AperFunction,Plated,PTH,ComponentDrill
T6C0.800
; #@! TA.AperFunction,Plated,PTH,ComponentDrill
T7C0.850
; #@! TA.AperFunction,Plated,PTH,ComponentDrill
T8C1.000
%
G90
G05
T1
X127.95Y-105.75
X128.05Y-104.25
X128.45Y-104.75
X129.0Y-105.25
X135.1Y-107.65
X135.7Y-107.65
X137.3Y-107.1
X137.85Y-106.55
T2
X106.9Y-101.7
X106.95Y-97.25
X125.8Y-82.7
X129.593Y-114.703
X129.6Y-83.1
X130.25Y-114.068
X133.0Y-85.0
X133.0Y-92.25
X134.25Y-92.25
X136.25Y-101.0
X136.877Y-102.0
X137.6Y-99.4
X140.75Y-102.75
X140.9Y-106.6
X141.316Y-102.123
X142.018Y-101.623
X145.5Y-86.2
X148.179Y-106.071
X149.114Y-106.211
X149.761Y-105.742
X157.2Y-86.0
T3
X91.2Y-83.1
X91.2Y-91.31
X97.296Y-100.098
X98.65Y-104.05
X107.45Y-117.15
X109.1Y-90.1
X110.8Y-117.1
X118.5Y-103.8
X122.3Y-118.2
X130.4Y-110.75
X131.9Y-101.8
X133.0Y-104.8
X134.0Y-117.7
X137.8Y-85.4
X139.75Y-113.25
X141.5Y-115.5
X149.9Y-97.25
X151.15Y-108.0
X151.348Y-105.127
T4
X153.05Y-105.9
T6
X165.35Y-101.05
X165.35Y-103.05
X165.35Y-105.05
X169.85Y-101.05
X169.85Y-103.05
X169.85Y-105.05
T7
X173.4Y-100.5
X173.4Y-105.4
T8
X91.0Y-87.0
X91.0Y-126.0
X91.02Y-80.0
X92.0Y-95.95
X92.0Y-98.49
X92.0Y-101.03
X92.0Y-103.57
X92.0Y-106.11
X92.0Y-108.65
X92.0Y-111.19
X93.54Y-87.0
X93.54Y-126.0
X93.56Y-80.0
X94.54Y-95.95
X94.54Y-98.49
X94.54Y-101.03
X94.54Y-103.57
X94.54Y-106.11
X94.54Y-108.65
X94.54Y-111.19
X96.08Y-87.0
X96.08Y-126.0
X96.1Y-80.0
X98.62Y-126.0
X98.64Y-80.0
X101.16Y-126.0
X101.18Y-80.0
X103.24Y-96.0
X103.24Y-98.54
X103.24Y-101.08
X103.24Y-103.62
X103.24Y-106.16
X103.24Y-108.7
X103.24Y-111.24
X103.7Y-126.0
X103.72Y-80.0
X106.24Y-126.0
X106.26Y-80.0
X108.78Y-126.0
X108.8Y-80.0
X110.86Y-98.0
X110.86Y-100.54
X110.86Y-103.08
X110.86Y-105.62
X110.86Y-108.16
X113.0Y-126.0
X113.02Y-80.0
X113.4Y-98.0
X113.4Y-100.54
X113.4Y-103.08
X113.4Y-105.62
X113.4Y-108.16
X115.54Y-126.0
X115.56Y-80.0
X118.08Y-126.0
X118.1Y-80.0
X120.62Y-126.0
X120.64Y-80.0
X123.16Y-126.0
X123.18Y-80.0
X125.7Y-126.0
X125.72Y-80.0
X128.24Y-126.0
X128.26Y-80.0
X128.64Y-120.164
X130.78Y-126.0
X130.8Y-80.0
X131.18Y-120.164
X135.0Y-126.0
X135.04Y-80.0
X137.54Y-126.0
X137.58Y-80.0
X140.08Y-126.0
X140.12Y-80.0
X142.62Y-126.0
X142.66Y-80.0
X145.16Y-126.0
X145.2Y-80.0
X147.7Y-126.0
X147.74Y-80.0
X150.24Y-126.0
X150.26Y-83.8
X150.28Y-80.0
X152.78Y-126.0
X152.8Y-83.8
X152.82Y-80.0
X155.0Y-93.4
X155.0Y-97.0
X155.0Y-109.0
X155.0Y-112.6
X156.98Y-80.0
X157.0Y-126.0
X157.54Y-93.4
X157.54Y-97.0
X157.54Y-109.0
X157.54Y-112.6
X159.52Y-80.0
X159.54Y-126.0
X160.08Y-93.4
X160.08Y-97.0
X160.08Y-109.0
X160.08Y-112.6
X162.06Y-80.0
X162.08Y-126.0
X164.6Y-80.0
X164.62Y-126.0
X167.14Y-80.0
X167.16Y-126.0
X169.68Y-80.0
X169.7Y-126.0
X172.22Y-80.0
X172.24Y-126.0
X174.76Y-80.0
X174.78Y-126.0
T5
X175.75Y-99.35G85X176.45Y-99.35
G05
X176.45Y-106.55G85X175.75Y-106.55
G05
T0
M30
