G04 #@! TF.GenerationSoftware,KiCad,Pcbnew,(6.0.7)*
G04 #@! TF.CreationDate,2022-09-17T20:23:59+02:00*
G04 #@! TF.ProjectId,F5418,46353431-382e-46b6-9963-61645f706362,rev?*
G04 #@! TF.SameCoordinates,Original*
G04 #@! TF.FileFunction,Paste,Top*
G04 #@! TF.FilePolarity,Positive*
%FSLAX46Y46*%
G04 Gerber Fmt 4.6, Leading zero omitted, Abs format (unit mm)*
G04 Created by KiCad (PCBNEW (6.0.7)) date 2022-09-17 20:23:59*
%MOMM*%
%LPD*%
G01*
G04 APERTURE LIST*
G04 Aperture macros list*
%AMRoundRect*
0 Rectangle with rounded corners*
0 $1 Rounding radius*
0 $2 $3 $4 $5 $6 $7 $8 $9 X,Y pos of 4 corners*
0 Add a 4 corners polygon primitive as box body*
4,1,4,$2,$3,$4,$5,$6,$7,$8,$9,$2,$3,0*
0 Add four circle primitives for the rounded corners*
1,1,$1+$1,$2,$3*
1,1,$1+$1,$4,$5*
1,1,$1+$1,$6,$7*
1,1,$1+$1,$8,$9*
0 Add four rect primitives between the rounded corners*
20,1,$1+$1,$2,$3,$4,$5,0*
20,1,$1+$1,$4,$5,$6,$7,0*
20,1,$1+$1,$6,$7,$8,$9,0*
20,1,$1+$1,$8,$9,$2,$3,0*%
%AMFreePoly0*
4,1,9,3.862500,-0.866500,0.737500,-0.866500,0.737500,-0.450000,-0.737500,-0.450000,-0.737500,0.450000,0.737500,0.450000,0.737500,0.866500,3.862500,0.866500,3.862500,-0.866500,3.862500,-0.866500,$1*%
G04 Aperture macros list end*
%ADD10RoundRect,0.237500X0.300000X0.237500X-0.300000X0.237500X-0.300000X-0.237500X0.300000X-0.237500X0*%
%ADD11R,1.750000X1.800000*%
%ADD12RoundRect,0.237500X0.237500X-0.300000X0.237500X0.300000X-0.237500X0.300000X-0.237500X-0.300000X0*%
%ADD13RoundRect,0.237500X-0.287500X-0.237500X0.287500X-0.237500X0.287500X0.237500X-0.287500X0.237500X0*%
%ADD14R,1.300000X0.900000*%
%ADD15FreePoly0,0.000000*%
%ADD16RoundRect,0.237500X-0.237500X0.287500X-0.237500X-0.287500X0.237500X-0.287500X0.237500X0.287500X0*%
%ADD17RoundRect,0.237500X-0.237500X0.250000X-0.237500X-0.250000X0.237500X-0.250000X0.237500X0.250000X0*%
%ADD18RoundRect,0.237500X-0.237500X0.300000X-0.237500X-0.300000X0.237500X-0.300000X0.237500X0.300000X0*%
%ADD19R,1.550000X0.400000*%
%ADD20R,1.900000X1.500000*%
%ADD21RoundRect,0.237500X0.237500X-0.250000X0.237500X0.250000X-0.237500X0.250000X-0.237500X-0.250000X0*%
%ADD22R,1.400000X2.000000*%
%ADD23RoundRect,0.062500X0.062500X-0.675000X0.062500X0.675000X-0.062500X0.675000X-0.062500X-0.675000X0*%
%ADD24RoundRect,0.062500X0.675000X-0.062500X0.675000X0.062500X-0.675000X0.062500X-0.675000X-0.062500X0*%
%ADD25R,1.900000X0.400000*%
%ADD26RoundRect,0.237500X-0.300000X-0.237500X0.300000X-0.237500X0.300000X0.237500X-0.300000X0.237500X0*%
%ADD27RoundRect,0.237500X-0.250000X-0.237500X0.250000X-0.237500X0.250000X0.237500X-0.250000X0.237500X0*%
G04 APERTURE END LIST*
D10*
X126454500Y-101368000D03*
X124729500Y-101368000D03*
D11*
X137125000Y-118500000D03*
X140375000Y-118500000D03*
D12*
X163250000Y-103862500D03*
X163250000Y-102137500D03*
X151600000Y-103862500D03*
X151600000Y-102137500D03*
X153100000Y-103862500D03*
X153100000Y-102137500D03*
D13*
X123825000Y-118200000D03*
X125575000Y-118200000D03*
D14*
X155812500Y-101500000D03*
D15*
X155900000Y-103000000D03*
D14*
X155812500Y-104500000D03*
D16*
X157200000Y-82925000D03*
X157200000Y-84675000D03*
D17*
X155600000Y-82887500D03*
X155600000Y-84712500D03*
D18*
X164100000Y-109037500D03*
X164100000Y-110762500D03*
X164100000Y-93437500D03*
X164100000Y-95162500D03*
X162600000Y-93437500D03*
X162600000Y-95162500D03*
D19*
X173312500Y-104250000D03*
X173312500Y-103600000D03*
X173312500Y-102950000D03*
X173312500Y-102300000D03*
X173312500Y-101650000D03*
D20*
X176100000Y-103950000D03*
X176100000Y-101950000D03*
D18*
X109200000Y-114137500D03*
X109200000Y-115862500D03*
D21*
X110800000Y-115912500D03*
X110800000Y-114087500D03*
D18*
X162600000Y-109037500D03*
X162600000Y-110762500D03*
D22*
X103325000Y-115000000D03*
X107475000Y-115000000D03*
D12*
X136400000Y-93362500D03*
X136400000Y-91637500D03*
D10*
X141462500Y-114400000D03*
X139737500Y-114400000D03*
D18*
X147500000Y-103137500D03*
X147500000Y-104862500D03*
D12*
X138100000Y-93362500D03*
X138100000Y-91637500D03*
D23*
X132250000Y-110187500D03*
X132750000Y-110187500D03*
X133250000Y-110187500D03*
X133750000Y-110187500D03*
X134250000Y-110187500D03*
X134750000Y-110187500D03*
X135250000Y-110187500D03*
X135750000Y-110187500D03*
X136250000Y-110187500D03*
X136750000Y-110187500D03*
X137250000Y-110187500D03*
X137750000Y-110187500D03*
X138250000Y-110187500D03*
X138750000Y-110187500D03*
X139250000Y-110187500D03*
X139750000Y-110187500D03*
X140250000Y-110187500D03*
X140750000Y-110187500D03*
X141250000Y-110187500D03*
X141750000Y-110187500D03*
D24*
X143687500Y-108250000D03*
X143687500Y-107750000D03*
X143687500Y-107250000D03*
X143687500Y-106750000D03*
X143687500Y-106250000D03*
X143687500Y-105750000D03*
X143687500Y-105250000D03*
X143687500Y-104750000D03*
X143687500Y-104250000D03*
X143687500Y-103750000D03*
X143687500Y-103250000D03*
X143687500Y-102750000D03*
X143687500Y-102250000D03*
X143687500Y-101750000D03*
X143687500Y-101250000D03*
X143687500Y-100750000D03*
X143687500Y-100250000D03*
X143687500Y-99750000D03*
X143687500Y-99250000D03*
X143687500Y-98750000D03*
D23*
X141750000Y-96812500D03*
X141250000Y-96812500D03*
X140750000Y-96812500D03*
X140250000Y-96812500D03*
X139750000Y-96812500D03*
X139250000Y-96812500D03*
X138750000Y-96812500D03*
X138250000Y-96812500D03*
X137750000Y-96812500D03*
X137250000Y-96812500D03*
X136750000Y-96812500D03*
X136250000Y-96812500D03*
X135750000Y-96812500D03*
X135250000Y-96812500D03*
X134750000Y-96812500D03*
X134250000Y-96812500D03*
X133750000Y-96812500D03*
X133250000Y-96812500D03*
X132750000Y-96812500D03*
X132250000Y-96812500D03*
D24*
X130312500Y-98750000D03*
X130312500Y-99250000D03*
X130312500Y-99750000D03*
X130312500Y-100250000D03*
X130312500Y-100750000D03*
X130312500Y-101250000D03*
X130312500Y-101750000D03*
X130312500Y-102250000D03*
X130312500Y-102750000D03*
X130312500Y-103250000D03*
X130312500Y-103750000D03*
X130312500Y-104250000D03*
X130312500Y-104750000D03*
X130312500Y-105250000D03*
X130312500Y-105750000D03*
X130312500Y-106250000D03*
X130312500Y-106750000D03*
X130312500Y-107250000D03*
X130312500Y-107750000D03*
X130312500Y-108250000D03*
D25*
X121982000Y-102935000D03*
X121982000Y-104135000D03*
X121982000Y-105335000D03*
D12*
X161750000Y-103862500D03*
X161750000Y-102137500D03*
D26*
X123837500Y-119700000D03*
X125562500Y-119700000D03*
X123837500Y-121200000D03*
X125562500Y-121200000D03*
D10*
X94362500Y-83100000D03*
X92637500Y-83100000D03*
D17*
X112400000Y-114087500D03*
X112400000Y-115912500D03*
D27*
X106137500Y-108251400D03*
X107962500Y-108251400D03*
M02*
