G04 #@! TF.GenerationSoftware,KiCad,Pcbnew,(6.0.7)*
G04 #@! TF.CreationDate,2022-09-17T20:23:59+02:00*
G04 #@! TF.ProjectId,F5418,46353431-382e-46b6-9963-61645f706362,rev?*
G04 #@! TF.SameCoordinates,Original*
G04 #@! TF.FileFunction,Soldermask,Top*
G04 #@! TF.FilePolarity,Negative*
%FSLAX46Y46*%
G04 Gerber Fmt 4.6, Leading zero omitted, Abs format (unit mm)*
G04 Created by KiCad (PCBNEW (6.0.7)) date 2022-09-17 20:23:59*
%MOMM*%
%LPD*%
G01*
G04 APERTURE LIST*
G04 Aperture macros list*
%AMRoundRect*
0 Rectangle with rounded corners*
0 $1 Rounding radius*
0 $2 $3 $4 $5 $6 $7 $8 $9 X,Y pos of 4 corners*
0 Add a 4 corners polygon primitive as box body*
4,1,4,$2,$3,$4,$5,$6,$7,$8,$9,$2,$3,0*
0 Add four circle primitives for the rounded corners*
1,1,$1+$1,$2,$3*
1,1,$1+$1,$4,$5*
1,1,$1+$1,$6,$7*
1,1,$1+$1,$8,$9*
0 Add four rect primitives between the rounded corners*
20,1,$1+$1,$2,$3,$4,$5,0*
20,1,$1+$1,$4,$5,$6,$7,0*
20,1,$1+$1,$6,$7,$8,$9,0*
20,1,$1+$1,$8,$9,$2,$3,0*%
%AMFreePoly0*
4,1,27,3.921279,0.947402,3.957606,0.897402,3.962500,0.866500,3.962500,-0.866500,3.943402,-0.925279,3.893402,-0.961606,3.862500,-0.966500,0.737500,-0.966500,0.678721,-0.947402,0.642394,-0.897402,0.637500,-0.866500,0.637500,-0.550000,-0.737500,-0.550000,-0.796279,-0.530902,-0.832606,-0.480902,-0.837500,-0.450000,-0.837500,0.450000,-0.818402,0.508779,-0.768402,0.545106,-0.737500,0.550000,
0.637500,0.550000,0.637500,0.866500,0.656598,0.925279,0.706598,0.961606,0.737500,0.966500,3.862500,0.966500,3.921279,0.947402,3.921279,0.947402,$1*%
G04 Aperture macros list end*
%ADD10RoundRect,0.337500X0.300000X0.237500X-0.300000X0.237500X-0.300000X-0.237500X0.300000X-0.237500X0*%
%ADD11RoundRect,0.100000X0.850000X-0.850000X0.850000X0.850000X-0.850000X0.850000X-0.850000X-0.850000X0*%
%ADD12O,1.900000X1.900000*%
%ADD13RoundRect,0.100000X-0.850000X0.850000X-0.850000X-0.850000X0.850000X-0.850000X0.850000X0.850000X0*%
%ADD14RoundRect,0.100000X-0.875000X-0.900000X0.875000X-0.900000X0.875000X0.900000X-0.875000X0.900000X0*%
%ADD15RoundRect,0.337500X0.237500X-0.300000X0.237500X0.300000X-0.237500X0.300000X-0.237500X-0.300000X0*%
%ADD16RoundRect,0.337500X-0.287500X-0.237500X0.287500X-0.237500X0.287500X0.237500X-0.287500X0.237500X0*%
%ADD17RoundRect,0.100000X-0.650000X-0.450000X0.650000X-0.450000X0.650000X0.450000X-0.650000X0.450000X0*%
%ADD18FreePoly0,0.000000*%
%ADD19RoundRect,0.337500X-0.237500X0.287500X-0.237500X-0.287500X0.237500X-0.287500X0.237500X0.287500X0*%
%ADD20RoundRect,0.337500X-0.237500X0.250000X-0.237500X-0.250000X0.237500X-0.250000X0.237500X0.250000X0*%
%ADD21RoundRect,0.337500X-0.237500X0.300000X-0.237500X-0.300000X0.237500X-0.300000X0.237500X0.300000X0*%
%ADD22RoundRect,0.100000X0.775000X-0.200000X0.775000X0.200000X-0.775000X0.200000X-0.775000X-0.200000X0*%
%ADD23RoundRect,0.100000X0.950000X-0.600000X0.950000X0.600000X-0.950000X0.600000X-0.950000X-0.600000X0*%
%ADD24RoundRect,0.100000X0.950000X-0.750000X0.950000X0.750000X-0.950000X0.750000X-0.950000X-0.750000X0*%
%ADD25O,2.100000X1.400000*%
%ADD26C,1.650000*%
%ADD27RoundRect,0.337500X0.237500X-0.250000X0.237500X0.250000X-0.237500X0.250000X-0.237500X-0.250000X0*%
%ADD28RoundRect,0.100000X-0.675000X-0.675000X0.675000X-0.675000X0.675000X0.675000X-0.675000X0.675000X0*%
%ADD29O,1.550000X1.550000*%
%ADD30RoundRect,0.100000X-0.850000X-0.850000X0.850000X-0.850000X0.850000X0.850000X-0.850000X0.850000X0*%
%ADD31RoundRect,0.100000X-0.700000X-1.000000X0.700000X-1.000000X0.700000X1.000000X-0.700000X1.000000X0*%
%ADD32RoundRect,0.162500X0.062500X-0.675000X0.062500X0.675000X-0.062500X0.675000X-0.062500X-0.675000X0*%
%ADD33RoundRect,0.162500X0.675000X-0.062500X0.675000X0.062500X-0.675000X0.062500X-0.675000X-0.062500X0*%
%ADD34RoundRect,0.100000X-0.950000X0.200000X-0.950000X-0.200000X0.950000X-0.200000X0.950000X0.200000X0*%
%ADD35RoundRect,0.350000X-0.600000X-0.600000X0.600000X-0.600000X0.600000X0.600000X-0.600000X0.600000X0*%
%ADD36C,1.900000*%
%ADD37RoundRect,0.337500X-0.300000X-0.237500X0.300000X-0.237500X0.300000X0.237500X-0.300000X0.237500X0*%
%ADD38RoundRect,0.337500X-0.250000X-0.237500X0.250000X-0.237500X0.250000X0.237500X-0.250000X0.237500X0*%
G04 APERTURE END LIST*
D10*
X126454500Y-101368000D03*
X124729500Y-101368000D03*
D11*
X135000000Y-126000000D03*
D12*
X137540000Y-126000000D03*
X140080000Y-126000000D03*
X142620000Y-126000000D03*
X145160000Y-126000000D03*
X147700000Y-126000000D03*
X150240000Y-126000000D03*
X152780000Y-126000000D03*
D13*
X174760000Y-80000000D03*
D12*
X172220000Y-80000000D03*
X169680000Y-80000000D03*
X167140000Y-80000000D03*
X164600000Y-80000000D03*
X162060000Y-80000000D03*
X159520000Y-80000000D03*
X156980000Y-80000000D03*
D13*
X152820000Y-80000000D03*
D12*
X150280000Y-80000000D03*
X147740000Y-80000000D03*
X145200000Y-80000000D03*
X142660000Y-80000000D03*
X140120000Y-80000000D03*
X137580000Y-80000000D03*
X135040000Y-80000000D03*
D13*
X130800000Y-80000000D03*
D12*
X128260000Y-80000000D03*
X125720000Y-80000000D03*
X123180000Y-80000000D03*
X120640000Y-80000000D03*
X118100000Y-80000000D03*
X115560000Y-80000000D03*
X113020000Y-80000000D03*
D14*
X137125000Y-118500000D03*
X140375000Y-118500000D03*
D15*
X163250000Y-103862500D03*
X163250000Y-102137500D03*
X151600000Y-103862500D03*
X151600000Y-102137500D03*
X153100000Y-103862500D03*
X153100000Y-102137500D03*
D16*
X123825000Y-118200000D03*
X125575000Y-118200000D03*
D17*
X155812500Y-101500000D03*
D18*
X155900000Y-103000000D03*
D17*
X155812500Y-104500000D03*
D19*
X157200000Y-82925000D03*
X157200000Y-84675000D03*
D13*
X152800000Y-83800000D03*
D12*
X150260000Y-83800000D03*
D20*
X155600000Y-82887500D03*
X155600000Y-84712500D03*
D11*
X157000000Y-126000000D03*
D12*
X159540000Y-126000000D03*
X162080000Y-126000000D03*
X164620000Y-126000000D03*
X167160000Y-126000000D03*
X169700000Y-126000000D03*
X172240000Y-126000000D03*
X174780000Y-126000000D03*
D11*
X155000000Y-93400000D03*
D12*
X157540000Y-93400000D03*
X160080000Y-93400000D03*
D11*
X155000000Y-97000000D03*
D12*
X157540000Y-97000000D03*
X160080000Y-97000000D03*
D11*
X155000000Y-112600000D03*
D12*
X157540000Y-112600000D03*
X160080000Y-112600000D03*
D21*
X164100000Y-109037500D03*
X164100000Y-110762500D03*
X164100000Y-93437500D03*
X164100000Y-95162500D03*
X162600000Y-93437500D03*
X162600000Y-95162500D03*
D11*
X155000000Y-109000000D03*
D12*
X157540000Y-109000000D03*
X160080000Y-109000000D03*
D22*
X173312500Y-104250000D03*
X173312500Y-103600000D03*
X173312500Y-102950000D03*
X173312500Y-102300000D03*
X173312500Y-101650000D03*
D23*
X176100000Y-105850000D03*
D24*
X176100000Y-103950000D03*
D25*
X176100000Y-106550000D03*
D26*
X173400000Y-100500000D03*
D24*
X176100000Y-101950000D03*
D25*
X176100000Y-99350000D03*
D23*
X176100000Y-100050000D03*
D26*
X173400000Y-105400000D03*
D11*
X91000000Y-87000000D03*
D12*
X93540000Y-87000000D03*
X96080000Y-87000000D03*
D21*
X109200000Y-114137500D03*
X109200000Y-115862500D03*
D27*
X110800000Y-115912500D03*
X110800000Y-114087500D03*
D28*
X165350000Y-101050000D03*
D29*
X165350000Y-103050000D03*
X165350000Y-105050000D03*
X169850000Y-101050000D03*
X169850000Y-103050000D03*
X169850000Y-105050000D03*
D21*
X162600000Y-109037500D03*
X162600000Y-110762500D03*
D30*
X110860000Y-98000000D03*
D12*
X113400000Y-98000000D03*
X110860000Y-100540000D03*
X113400000Y-100540000D03*
X110860000Y-103080000D03*
X113400000Y-103080000D03*
X110860000Y-105620000D03*
X113400000Y-105620000D03*
X110860000Y-108160000D03*
X113400000Y-108160000D03*
D31*
X103325000Y-115000000D03*
X107475000Y-115000000D03*
D15*
X136400000Y-93362500D03*
X136400000Y-91637500D03*
D10*
X141462500Y-114400000D03*
X139737500Y-114400000D03*
D21*
X147500000Y-103137500D03*
X147500000Y-104862500D03*
D15*
X138100000Y-93362500D03*
X138100000Y-91637500D03*
D11*
X91000000Y-126000000D03*
D12*
X93540000Y-126000000D03*
X96080000Y-126000000D03*
X98620000Y-126000000D03*
X101160000Y-126000000D03*
X103700000Y-126000000D03*
X106240000Y-126000000D03*
X108780000Y-126000000D03*
D11*
X113000000Y-126000000D03*
D12*
X115540000Y-126000000D03*
X118080000Y-126000000D03*
X120620000Y-126000000D03*
X123160000Y-126000000D03*
X125700000Y-126000000D03*
X128240000Y-126000000D03*
X130780000Y-126000000D03*
D13*
X108800000Y-80000000D03*
D12*
X106260000Y-80000000D03*
X103720000Y-80000000D03*
X101180000Y-80000000D03*
X98640000Y-80000000D03*
X96100000Y-80000000D03*
X93560000Y-80000000D03*
X91020000Y-80000000D03*
D30*
X103240000Y-96000000D03*
D12*
X103240000Y-98540000D03*
X103240000Y-101080000D03*
X103240000Y-103620000D03*
X103240000Y-106160000D03*
X103240000Y-108700000D03*
X103240000Y-111240000D03*
D32*
X132250000Y-110187500D03*
X132750000Y-110187500D03*
X133250000Y-110187500D03*
X133750000Y-110187500D03*
X134250000Y-110187500D03*
X134750000Y-110187500D03*
X135250000Y-110187500D03*
X135750000Y-110187500D03*
X136250000Y-110187500D03*
X136750000Y-110187500D03*
X137250000Y-110187500D03*
X137750000Y-110187500D03*
X138250000Y-110187500D03*
X138750000Y-110187500D03*
X139250000Y-110187500D03*
X139750000Y-110187500D03*
X140250000Y-110187500D03*
X140750000Y-110187500D03*
X141250000Y-110187500D03*
X141750000Y-110187500D03*
D33*
X143687500Y-108250000D03*
X143687500Y-107750000D03*
X143687500Y-107250000D03*
X143687500Y-106750000D03*
X143687500Y-106250000D03*
X143687500Y-105750000D03*
X143687500Y-105250000D03*
X143687500Y-104750000D03*
X143687500Y-104250000D03*
X143687500Y-103750000D03*
X143687500Y-103250000D03*
X143687500Y-102750000D03*
X143687500Y-102250000D03*
X143687500Y-101750000D03*
X143687500Y-101250000D03*
X143687500Y-100750000D03*
X143687500Y-100250000D03*
X143687500Y-99750000D03*
X143687500Y-99250000D03*
X143687500Y-98750000D03*
D32*
X141750000Y-96812500D03*
X141250000Y-96812500D03*
X140750000Y-96812500D03*
X140250000Y-96812500D03*
X139750000Y-96812500D03*
X139250000Y-96812500D03*
X138750000Y-96812500D03*
X138250000Y-96812500D03*
X137750000Y-96812500D03*
X137250000Y-96812500D03*
X136750000Y-96812500D03*
X136250000Y-96812500D03*
X135750000Y-96812500D03*
X135250000Y-96812500D03*
X134750000Y-96812500D03*
X134250000Y-96812500D03*
X133750000Y-96812500D03*
X133250000Y-96812500D03*
X132750000Y-96812500D03*
X132250000Y-96812500D03*
D33*
X130312500Y-98750000D03*
X130312500Y-99250000D03*
X130312500Y-99750000D03*
X130312500Y-100250000D03*
X130312500Y-100750000D03*
X130312500Y-101250000D03*
X130312500Y-101750000D03*
X130312500Y-102250000D03*
X130312500Y-102750000D03*
X130312500Y-103250000D03*
X130312500Y-103750000D03*
X130312500Y-104250000D03*
X130312500Y-104750000D03*
X130312500Y-105250000D03*
X130312500Y-105750000D03*
X130312500Y-106250000D03*
X130312500Y-106750000D03*
X130312500Y-107250000D03*
X130312500Y-107750000D03*
X130312500Y-108250000D03*
D34*
X121982000Y-102935000D03*
X121982000Y-104135000D03*
X121982000Y-105335000D03*
D35*
X92000000Y-95950000D03*
D36*
X94540000Y-95950000D03*
X92000000Y-98490000D03*
X94540000Y-98490000D03*
X92000000Y-101030000D03*
X94540000Y-101030000D03*
X92000000Y-103570000D03*
X94540000Y-103570000D03*
X92000000Y-106110000D03*
X94540000Y-106110000D03*
X92000000Y-108650000D03*
X94540000Y-108650000D03*
X92000000Y-111190000D03*
X94540000Y-111190000D03*
D15*
X161750000Y-103862500D03*
X161750000Y-102137500D03*
D13*
X131180000Y-120164000D03*
D12*
X128640000Y-120164000D03*
D37*
X123837500Y-119700000D03*
X125562500Y-119700000D03*
X123837500Y-121200000D03*
X125562500Y-121200000D03*
D10*
X94362500Y-83100000D03*
X92637500Y-83100000D03*
D20*
X112400000Y-114087500D03*
X112400000Y-115912500D03*
D38*
X106137500Y-108251400D03*
X107962500Y-108251400D03*
G36*
X136431305Y-109400106D02*
G01*
X136442007Y-109407257D01*
X136442867Y-109405970D01*
X136444661Y-109405085D01*
X136445768Y-109405510D01*
X136466119Y-109421553D01*
X136526574Y-109423926D01*
X136554332Y-109405378D01*
X136556328Y-109405247D01*
X136557106Y-109405930D01*
X136557993Y-109407257D01*
X136568695Y-109400106D01*
X136570691Y-109399975D01*
X136571802Y-109401638D01*
X136571469Y-109402880D01*
X136539255Y-109451093D01*
X136527000Y-109512699D01*
X136527000Y-110862301D01*
X136539255Y-110923907D01*
X136571469Y-110972120D01*
X136571600Y-110974116D01*
X136569937Y-110975227D01*
X136568695Y-110974894D01*
X136557993Y-110967743D01*
X136557133Y-110969030D01*
X136555339Y-110969915D01*
X136554232Y-110969490D01*
X136533881Y-110953447D01*
X136473426Y-110951074D01*
X136445668Y-110969622D01*
X136443672Y-110969753D01*
X136442894Y-110969070D01*
X136442007Y-110967743D01*
X136431305Y-110974894D01*
X136429309Y-110975025D01*
X136428198Y-110973362D01*
X136428531Y-110972120D01*
X136460745Y-110923907D01*
X136473000Y-110862301D01*
X136473000Y-109512699D01*
X136460745Y-109451093D01*
X136428531Y-109402880D01*
X136428400Y-109400884D01*
X136430063Y-109399773D01*
X136431305Y-109400106D01*
G37*
G36*
X133431305Y-109400106D02*
G01*
X133442007Y-109407257D01*
X133442867Y-109405970D01*
X133444661Y-109405085D01*
X133445768Y-109405510D01*
X133466119Y-109421553D01*
X133526574Y-109423926D01*
X133554332Y-109405378D01*
X133556328Y-109405247D01*
X133557106Y-109405930D01*
X133557993Y-109407257D01*
X133568695Y-109400106D01*
X133570691Y-109399975D01*
X133571802Y-109401638D01*
X133571469Y-109402880D01*
X133539255Y-109451093D01*
X133527000Y-109512699D01*
X133527000Y-110862301D01*
X133539255Y-110923907D01*
X133571469Y-110972120D01*
X133571600Y-110974116D01*
X133569937Y-110975227D01*
X133568695Y-110974894D01*
X133557993Y-110967743D01*
X133557133Y-110969030D01*
X133555339Y-110969915D01*
X133554232Y-110969490D01*
X133533881Y-110953447D01*
X133473426Y-110951074D01*
X133445668Y-110969622D01*
X133443672Y-110969753D01*
X133442894Y-110969070D01*
X133442007Y-110967743D01*
X133431305Y-110974894D01*
X133429309Y-110975025D01*
X133428198Y-110973362D01*
X133428531Y-110972120D01*
X133460745Y-110923907D01*
X133473000Y-110862301D01*
X133473000Y-109512699D01*
X133460745Y-109451093D01*
X133428531Y-109402880D01*
X133428400Y-109400884D01*
X133430063Y-109399773D01*
X133431305Y-109400106D01*
G37*
G36*
X137931305Y-109400106D02*
G01*
X137942007Y-109407257D01*
X137942867Y-109405970D01*
X137944661Y-109405085D01*
X137945768Y-109405510D01*
X137966119Y-109421553D01*
X138026574Y-109423926D01*
X138054332Y-109405378D01*
X138056328Y-109405247D01*
X138057106Y-109405930D01*
X138057993Y-109407257D01*
X138068695Y-109400106D01*
X138070691Y-109399975D01*
X138071802Y-109401638D01*
X138071469Y-109402880D01*
X138039255Y-109451093D01*
X138027000Y-109512699D01*
X138027000Y-110862301D01*
X138039255Y-110923907D01*
X138071469Y-110972120D01*
X138071600Y-110974116D01*
X138069937Y-110975227D01*
X138068695Y-110974894D01*
X138057993Y-110967743D01*
X138057133Y-110969030D01*
X138055339Y-110969915D01*
X138054232Y-110969490D01*
X138033881Y-110953447D01*
X137973426Y-110951074D01*
X137945668Y-110969622D01*
X137943672Y-110969753D01*
X137942894Y-110969070D01*
X137942007Y-110967743D01*
X137931305Y-110974894D01*
X137929309Y-110975025D01*
X137928198Y-110973362D01*
X137928531Y-110972120D01*
X137960745Y-110923907D01*
X137973000Y-110862301D01*
X137973000Y-109512699D01*
X137960745Y-109451093D01*
X137928531Y-109402880D01*
X137928400Y-109400884D01*
X137930063Y-109399773D01*
X137931305Y-109400106D01*
G37*
G36*
X139931305Y-109400106D02*
G01*
X139942007Y-109407257D01*
X139942867Y-109405970D01*
X139944661Y-109405085D01*
X139945768Y-109405510D01*
X139966119Y-109421553D01*
X140026574Y-109423926D01*
X140054332Y-109405378D01*
X140056328Y-109405247D01*
X140057106Y-109405930D01*
X140057993Y-109407257D01*
X140068695Y-109400106D01*
X140070691Y-109399975D01*
X140071802Y-109401638D01*
X140071469Y-109402880D01*
X140039255Y-109451093D01*
X140027000Y-109512699D01*
X140027000Y-110862301D01*
X140039255Y-110923907D01*
X140071469Y-110972120D01*
X140071600Y-110974116D01*
X140069937Y-110975227D01*
X140068695Y-110974894D01*
X140057993Y-110967743D01*
X140057133Y-110969030D01*
X140055339Y-110969915D01*
X140054232Y-110969490D01*
X140033881Y-110953447D01*
X139973426Y-110951074D01*
X139945668Y-110969622D01*
X139943672Y-110969753D01*
X139942894Y-110969070D01*
X139942007Y-110967743D01*
X139931305Y-110974894D01*
X139929309Y-110975025D01*
X139928198Y-110973362D01*
X139928531Y-110972120D01*
X139960745Y-110923907D01*
X139973000Y-110862301D01*
X139973000Y-109512699D01*
X139960745Y-109451093D01*
X139928531Y-109402880D01*
X139928400Y-109400884D01*
X139930063Y-109399773D01*
X139931305Y-109400106D01*
G37*
G36*
X135431305Y-109400106D02*
G01*
X135442007Y-109407257D01*
X135442867Y-109405970D01*
X135444661Y-109405085D01*
X135445768Y-109405510D01*
X135466119Y-109421553D01*
X135526574Y-109423926D01*
X135554332Y-109405378D01*
X135556328Y-109405247D01*
X135557106Y-109405930D01*
X135557993Y-109407257D01*
X135568695Y-109400106D01*
X135570691Y-109399975D01*
X135571802Y-109401638D01*
X135571469Y-109402880D01*
X135539255Y-109451093D01*
X135527000Y-109512699D01*
X135527000Y-110862301D01*
X135539255Y-110923907D01*
X135571469Y-110972120D01*
X135571600Y-110974116D01*
X135569937Y-110975227D01*
X135568695Y-110974894D01*
X135557993Y-110967743D01*
X135557133Y-110969030D01*
X135555339Y-110969915D01*
X135554232Y-110969490D01*
X135533881Y-110953447D01*
X135473426Y-110951074D01*
X135445668Y-110969622D01*
X135443672Y-110969753D01*
X135442894Y-110969070D01*
X135442007Y-110967743D01*
X135431305Y-110974894D01*
X135429309Y-110975025D01*
X135428198Y-110973362D01*
X135428531Y-110972120D01*
X135460745Y-110923907D01*
X135473000Y-110862301D01*
X135473000Y-109512699D01*
X135460745Y-109451093D01*
X135428531Y-109402880D01*
X135428400Y-109400884D01*
X135430063Y-109399773D01*
X135431305Y-109400106D01*
G37*
G36*
X138431305Y-109400106D02*
G01*
X138442007Y-109407257D01*
X138442867Y-109405970D01*
X138444661Y-109405085D01*
X138445768Y-109405510D01*
X138466119Y-109421553D01*
X138526574Y-109423926D01*
X138554332Y-109405378D01*
X138556328Y-109405247D01*
X138557106Y-109405930D01*
X138557993Y-109407257D01*
X138568695Y-109400106D01*
X138570691Y-109399975D01*
X138571802Y-109401638D01*
X138571469Y-109402880D01*
X138539255Y-109451093D01*
X138527000Y-109512699D01*
X138527000Y-110862301D01*
X138539255Y-110923907D01*
X138571469Y-110972120D01*
X138571600Y-110974116D01*
X138569937Y-110975227D01*
X138568695Y-110974894D01*
X138557993Y-110967743D01*
X138557133Y-110969030D01*
X138555339Y-110969915D01*
X138554232Y-110969490D01*
X138533881Y-110953447D01*
X138473426Y-110951074D01*
X138445668Y-110969622D01*
X138443672Y-110969753D01*
X138442894Y-110969070D01*
X138442007Y-110967743D01*
X138431305Y-110974894D01*
X138429309Y-110975025D01*
X138428198Y-110973362D01*
X138428531Y-110972120D01*
X138460745Y-110923907D01*
X138473000Y-110862301D01*
X138473000Y-109512699D01*
X138460745Y-109451093D01*
X138428531Y-109402880D01*
X138428400Y-109400884D01*
X138430063Y-109399773D01*
X138431305Y-109400106D01*
G37*
G36*
X134931305Y-109400106D02*
G01*
X134942007Y-109407257D01*
X134942867Y-109405970D01*
X134944661Y-109405085D01*
X134945768Y-109405510D01*
X134966119Y-109421553D01*
X135026574Y-109423926D01*
X135054332Y-109405378D01*
X135056328Y-109405247D01*
X135057106Y-109405930D01*
X135057993Y-109407257D01*
X135068695Y-109400106D01*
X135070691Y-109399975D01*
X135071802Y-109401638D01*
X135071469Y-109402880D01*
X135039255Y-109451093D01*
X135027000Y-109512699D01*
X135027000Y-110862301D01*
X135039255Y-110923907D01*
X135071469Y-110972120D01*
X135071600Y-110974116D01*
X135069937Y-110975227D01*
X135068695Y-110974894D01*
X135057993Y-110967743D01*
X135057133Y-110969030D01*
X135055339Y-110969915D01*
X135054232Y-110969490D01*
X135033881Y-110953447D01*
X134973426Y-110951074D01*
X134945668Y-110969622D01*
X134943672Y-110969753D01*
X134942894Y-110969070D01*
X134942007Y-110967743D01*
X134931305Y-110974894D01*
X134929309Y-110975025D01*
X134928198Y-110973362D01*
X134928531Y-110972120D01*
X134960745Y-110923907D01*
X134973000Y-110862301D01*
X134973000Y-109512699D01*
X134960745Y-109451093D01*
X134928531Y-109402880D01*
X134928400Y-109400884D01*
X134930063Y-109399773D01*
X134931305Y-109400106D01*
G37*
G36*
X140431305Y-109400106D02*
G01*
X140442007Y-109407257D01*
X140442867Y-109405970D01*
X140444661Y-109405085D01*
X140445768Y-109405510D01*
X140466119Y-109421553D01*
X140526574Y-109423926D01*
X140554332Y-109405378D01*
X140556328Y-109405247D01*
X140557106Y-109405930D01*
X140557993Y-109407257D01*
X140568695Y-109400106D01*
X140570691Y-109399975D01*
X140571802Y-109401638D01*
X140571469Y-109402880D01*
X140539255Y-109451093D01*
X140527000Y-109512699D01*
X140527000Y-110862301D01*
X140539255Y-110923907D01*
X140571469Y-110972120D01*
X140571600Y-110974116D01*
X140569937Y-110975227D01*
X140568695Y-110974894D01*
X140557993Y-110967743D01*
X140557133Y-110969030D01*
X140555339Y-110969915D01*
X140554232Y-110969490D01*
X140533881Y-110953447D01*
X140473426Y-110951074D01*
X140445668Y-110969622D01*
X140443672Y-110969753D01*
X140442894Y-110969070D01*
X140442007Y-110967743D01*
X140431305Y-110974894D01*
X140429309Y-110975025D01*
X140428198Y-110973362D01*
X140428531Y-110972120D01*
X140460745Y-110923907D01*
X140473000Y-110862301D01*
X140473000Y-109512699D01*
X140460745Y-109451093D01*
X140428531Y-109402880D01*
X140428400Y-109400884D01*
X140430063Y-109399773D01*
X140431305Y-109400106D01*
G37*
G36*
X135931305Y-109400106D02*
G01*
X135942007Y-109407257D01*
X135942867Y-109405970D01*
X135944661Y-109405085D01*
X135945768Y-109405510D01*
X135966119Y-109421553D01*
X136026574Y-109423926D01*
X136054332Y-109405378D01*
X136056328Y-109405247D01*
X136057106Y-109405930D01*
X136057993Y-109407257D01*
X136068695Y-109400106D01*
X136070691Y-109399975D01*
X136071802Y-109401638D01*
X136071469Y-109402880D01*
X136039255Y-109451093D01*
X136027000Y-109512699D01*
X136027000Y-110862301D01*
X136039255Y-110923907D01*
X136071469Y-110972120D01*
X136071600Y-110974116D01*
X136069937Y-110975227D01*
X136068695Y-110974894D01*
X136057993Y-110967743D01*
X136057133Y-110969030D01*
X136055339Y-110969915D01*
X136054232Y-110969490D01*
X136033881Y-110953447D01*
X135973426Y-110951074D01*
X135945668Y-110969622D01*
X135943672Y-110969753D01*
X135942894Y-110969070D01*
X135942007Y-110967743D01*
X135931305Y-110974894D01*
X135929309Y-110975025D01*
X135928198Y-110973362D01*
X135928531Y-110972120D01*
X135960745Y-110923907D01*
X135973000Y-110862301D01*
X135973000Y-109512699D01*
X135960745Y-109451093D01*
X135928531Y-109402880D01*
X135928400Y-109400884D01*
X135930063Y-109399773D01*
X135931305Y-109400106D01*
G37*
G36*
X140931305Y-109400106D02*
G01*
X140942007Y-109407257D01*
X140942867Y-109405970D01*
X140944661Y-109405085D01*
X140945768Y-109405510D01*
X140966119Y-109421553D01*
X141026574Y-109423926D01*
X141054332Y-109405378D01*
X141056328Y-109405247D01*
X141057106Y-109405930D01*
X141057993Y-109407257D01*
X141068695Y-109400106D01*
X141070691Y-109399975D01*
X141071802Y-109401638D01*
X141071469Y-109402880D01*
X141039255Y-109451093D01*
X141027000Y-109512699D01*
X141027000Y-110862301D01*
X141039255Y-110923907D01*
X141071469Y-110972120D01*
X141071600Y-110974116D01*
X141069937Y-110975227D01*
X141068695Y-110974894D01*
X141057993Y-110967743D01*
X141057133Y-110969030D01*
X141055339Y-110969915D01*
X141054232Y-110969490D01*
X141033881Y-110953447D01*
X140973426Y-110951074D01*
X140945668Y-110969622D01*
X140943672Y-110969753D01*
X140942894Y-110969070D01*
X140942007Y-110967743D01*
X140931305Y-110974894D01*
X140929309Y-110975025D01*
X140928198Y-110973362D01*
X140928531Y-110972120D01*
X140960745Y-110923907D01*
X140973000Y-110862301D01*
X140973000Y-109512699D01*
X140960745Y-109451093D01*
X140928531Y-109402880D01*
X140928400Y-109400884D01*
X140930063Y-109399773D01*
X140931305Y-109400106D01*
G37*
G36*
X133931305Y-109400106D02*
G01*
X133942007Y-109407257D01*
X133942867Y-109405970D01*
X133944661Y-109405085D01*
X133945768Y-109405510D01*
X133966119Y-109421553D01*
X134026574Y-109423926D01*
X134054332Y-109405378D01*
X134056328Y-109405247D01*
X134057106Y-109405930D01*
X134057993Y-109407257D01*
X134068695Y-109400106D01*
X134070691Y-109399975D01*
X134071802Y-109401638D01*
X134071469Y-109402880D01*
X134039255Y-109451093D01*
X134027000Y-109512699D01*
X134027000Y-110862301D01*
X134039255Y-110923907D01*
X134071469Y-110972120D01*
X134071600Y-110974116D01*
X134069937Y-110975227D01*
X134068695Y-110974894D01*
X134057993Y-110967743D01*
X134057133Y-110969030D01*
X134055339Y-110969915D01*
X134054232Y-110969490D01*
X134033881Y-110953447D01*
X133973426Y-110951074D01*
X133945668Y-110969622D01*
X133943672Y-110969753D01*
X133942894Y-110969070D01*
X133942007Y-110967743D01*
X133931305Y-110974894D01*
X133929309Y-110975025D01*
X133928198Y-110973362D01*
X133928531Y-110972120D01*
X133960745Y-110923907D01*
X133973000Y-110862301D01*
X133973000Y-109512699D01*
X133960745Y-109451093D01*
X133928531Y-109402880D01*
X133928400Y-109400884D01*
X133930063Y-109399773D01*
X133931305Y-109400106D01*
G37*
G36*
X138931305Y-109400106D02*
G01*
X138942007Y-109407257D01*
X138942867Y-109405970D01*
X138944661Y-109405085D01*
X138945768Y-109405510D01*
X138966119Y-109421553D01*
X139026574Y-109423926D01*
X139054332Y-109405378D01*
X139056328Y-109405247D01*
X139057106Y-109405930D01*
X139057993Y-109407257D01*
X139068695Y-109400106D01*
X139070691Y-109399975D01*
X139071802Y-109401638D01*
X139071469Y-109402880D01*
X139039255Y-109451093D01*
X139027000Y-109512699D01*
X139027000Y-110862301D01*
X139039255Y-110923907D01*
X139071469Y-110972120D01*
X139071600Y-110974116D01*
X139069937Y-110975227D01*
X139068695Y-110974894D01*
X139057993Y-110967743D01*
X139057133Y-110969030D01*
X139055339Y-110969915D01*
X139054232Y-110969490D01*
X139033881Y-110953447D01*
X138973426Y-110951074D01*
X138945668Y-110969622D01*
X138943672Y-110969753D01*
X138942894Y-110969070D01*
X138942007Y-110967743D01*
X138931305Y-110974894D01*
X138929309Y-110975025D01*
X138928198Y-110973362D01*
X138928531Y-110972120D01*
X138960745Y-110923907D01*
X138973000Y-110862301D01*
X138973000Y-109512699D01*
X138960745Y-109451093D01*
X138928531Y-109402880D01*
X138928400Y-109400884D01*
X138930063Y-109399773D01*
X138931305Y-109400106D01*
G37*
G36*
X136931305Y-109400106D02*
G01*
X136942007Y-109407257D01*
X136942867Y-109405970D01*
X136944661Y-109405085D01*
X136945768Y-109405510D01*
X136966119Y-109421553D01*
X137026574Y-109423926D01*
X137054332Y-109405378D01*
X137056328Y-109405247D01*
X137057106Y-109405930D01*
X137057993Y-109407257D01*
X137068695Y-109400106D01*
X137070691Y-109399975D01*
X137071802Y-109401638D01*
X137071469Y-109402880D01*
X137039255Y-109451093D01*
X137027000Y-109512699D01*
X137027000Y-110862301D01*
X137039255Y-110923907D01*
X137071469Y-110972120D01*
X137071600Y-110974116D01*
X137069937Y-110975227D01*
X137068695Y-110974894D01*
X137057993Y-110967743D01*
X137057133Y-110969030D01*
X137055339Y-110969915D01*
X137054232Y-110969490D01*
X137033881Y-110953447D01*
X136973426Y-110951074D01*
X136945668Y-110969622D01*
X136943672Y-110969753D01*
X136942894Y-110969070D01*
X136942007Y-110967743D01*
X136931305Y-110974894D01*
X136929309Y-110975025D01*
X136928198Y-110973362D01*
X136928531Y-110972120D01*
X136960745Y-110923907D01*
X136973000Y-110862301D01*
X136973000Y-109512699D01*
X136960745Y-109451093D01*
X136928531Y-109402880D01*
X136928400Y-109400884D01*
X136930063Y-109399773D01*
X136931305Y-109400106D01*
G37*
G36*
X132931305Y-109400106D02*
G01*
X132942007Y-109407257D01*
X132942867Y-109405970D01*
X132944661Y-109405085D01*
X132945768Y-109405510D01*
X132966119Y-109421553D01*
X133026574Y-109423926D01*
X133054332Y-109405378D01*
X133056328Y-109405247D01*
X133057106Y-109405930D01*
X133057993Y-109407257D01*
X133068695Y-109400106D01*
X133070691Y-109399975D01*
X133071802Y-109401638D01*
X133071469Y-109402880D01*
X133039255Y-109451093D01*
X133027000Y-109512699D01*
X133027000Y-110862301D01*
X133039255Y-110923907D01*
X133071469Y-110972120D01*
X133071600Y-110974116D01*
X133069937Y-110975227D01*
X133068695Y-110974894D01*
X133057993Y-110967743D01*
X133057133Y-110969030D01*
X133055339Y-110969915D01*
X133054232Y-110969490D01*
X133033881Y-110953447D01*
X132973426Y-110951074D01*
X132945668Y-110969622D01*
X132943672Y-110969753D01*
X132942894Y-110969070D01*
X132942007Y-110967743D01*
X132931305Y-110974894D01*
X132929309Y-110975025D01*
X132928198Y-110973362D01*
X132928531Y-110972120D01*
X132960745Y-110923907D01*
X132973000Y-110862301D01*
X132973000Y-109512699D01*
X132960745Y-109451093D01*
X132928531Y-109402880D01*
X132928400Y-109400884D01*
X132930063Y-109399773D01*
X132931305Y-109400106D01*
G37*
G36*
X132431305Y-109400106D02*
G01*
X132442007Y-109407257D01*
X132442867Y-109405970D01*
X132444661Y-109405085D01*
X132445768Y-109405510D01*
X132466119Y-109421553D01*
X132526574Y-109423926D01*
X132554332Y-109405378D01*
X132556328Y-109405247D01*
X132557106Y-109405930D01*
X132557993Y-109407257D01*
X132568695Y-109400106D01*
X132570691Y-109399975D01*
X132571802Y-109401638D01*
X132571469Y-109402880D01*
X132539255Y-109451093D01*
X132527000Y-109512699D01*
X132527000Y-110862301D01*
X132539255Y-110923907D01*
X132571469Y-110972120D01*
X132571600Y-110974116D01*
X132569937Y-110975227D01*
X132568695Y-110974894D01*
X132557993Y-110967743D01*
X132557133Y-110969030D01*
X132555339Y-110969915D01*
X132554232Y-110969490D01*
X132533881Y-110953447D01*
X132473426Y-110951074D01*
X132445668Y-110969622D01*
X132443672Y-110969753D01*
X132442894Y-110969070D01*
X132442007Y-110967743D01*
X132431305Y-110974894D01*
X132429309Y-110975025D01*
X132428198Y-110973362D01*
X132428531Y-110972120D01*
X132460745Y-110923907D01*
X132473000Y-110862301D01*
X132473000Y-109512699D01*
X132460745Y-109451093D01*
X132428531Y-109402880D01*
X132428400Y-109400884D01*
X132430063Y-109399773D01*
X132431305Y-109400106D01*
G37*
G36*
X137431305Y-109400106D02*
G01*
X137442007Y-109407257D01*
X137442867Y-109405970D01*
X137444661Y-109405085D01*
X137445768Y-109405510D01*
X137466119Y-109421553D01*
X137526574Y-109423926D01*
X137554332Y-109405378D01*
X137556328Y-109405247D01*
X137557106Y-109405930D01*
X137557993Y-109407257D01*
X137568695Y-109400106D01*
X137570691Y-109399975D01*
X137571802Y-109401638D01*
X137571469Y-109402880D01*
X137539255Y-109451093D01*
X137527000Y-109512699D01*
X137527000Y-110862301D01*
X137539255Y-110923907D01*
X137571469Y-110972120D01*
X137571600Y-110974116D01*
X137569937Y-110975227D01*
X137568695Y-110974894D01*
X137557993Y-110967743D01*
X137557133Y-110969030D01*
X137555339Y-110969915D01*
X137554232Y-110969490D01*
X137533881Y-110953447D01*
X137473426Y-110951074D01*
X137445668Y-110969622D01*
X137443672Y-110969753D01*
X137442894Y-110969070D01*
X137442007Y-110967743D01*
X137431305Y-110974894D01*
X137429309Y-110975025D01*
X137428198Y-110973362D01*
X137428531Y-110972120D01*
X137460745Y-110923907D01*
X137473000Y-110862301D01*
X137473000Y-109512699D01*
X137460745Y-109451093D01*
X137428531Y-109402880D01*
X137428400Y-109400884D01*
X137430063Y-109399773D01*
X137431305Y-109400106D01*
G37*
G36*
X134431305Y-109400106D02*
G01*
X134442007Y-109407257D01*
X134442867Y-109405970D01*
X134444661Y-109405085D01*
X134445768Y-109405510D01*
X134466119Y-109421553D01*
X134526574Y-109423926D01*
X134554332Y-109405378D01*
X134556328Y-109405247D01*
X134557106Y-109405930D01*
X134557993Y-109407257D01*
X134568695Y-109400106D01*
X134570691Y-109399975D01*
X134571802Y-109401638D01*
X134571469Y-109402880D01*
X134539255Y-109451093D01*
X134527000Y-109512699D01*
X134527000Y-110862301D01*
X134539255Y-110923907D01*
X134571469Y-110972120D01*
X134571600Y-110974116D01*
X134569937Y-110975227D01*
X134568695Y-110974894D01*
X134557993Y-110967743D01*
X134557133Y-110969030D01*
X134555339Y-110969915D01*
X134554232Y-110969490D01*
X134533881Y-110953447D01*
X134473426Y-110951074D01*
X134445668Y-110969622D01*
X134443672Y-110969753D01*
X134442894Y-110969070D01*
X134442007Y-110967743D01*
X134431305Y-110974894D01*
X134429309Y-110975025D01*
X134428198Y-110973362D01*
X134428531Y-110972120D01*
X134460745Y-110923907D01*
X134473000Y-110862301D01*
X134473000Y-109512699D01*
X134460745Y-109451093D01*
X134428531Y-109402880D01*
X134428400Y-109400884D01*
X134430063Y-109399773D01*
X134431305Y-109400106D01*
G37*
G36*
X141431305Y-109400106D02*
G01*
X141442007Y-109407257D01*
X141442867Y-109405970D01*
X141444661Y-109405085D01*
X141445768Y-109405510D01*
X141466119Y-109421553D01*
X141526574Y-109423926D01*
X141554332Y-109405378D01*
X141556328Y-109405247D01*
X141557106Y-109405930D01*
X141557993Y-109407257D01*
X141568695Y-109400106D01*
X141570691Y-109399975D01*
X141571802Y-109401638D01*
X141571469Y-109402880D01*
X141539255Y-109451093D01*
X141527000Y-109512699D01*
X141527000Y-110862301D01*
X141539255Y-110923907D01*
X141571469Y-110972120D01*
X141571600Y-110974116D01*
X141569937Y-110975227D01*
X141568695Y-110974894D01*
X141557993Y-110967743D01*
X141557133Y-110969030D01*
X141555339Y-110969915D01*
X141554232Y-110969490D01*
X141533881Y-110953447D01*
X141473426Y-110951074D01*
X141445668Y-110969622D01*
X141443672Y-110969753D01*
X141442894Y-110969070D01*
X141442007Y-110967743D01*
X141431305Y-110974894D01*
X141429309Y-110975025D01*
X141428198Y-110973362D01*
X141428531Y-110972120D01*
X141460745Y-110923907D01*
X141473000Y-110862301D01*
X141473000Y-109512699D01*
X141460745Y-109451093D01*
X141428531Y-109402880D01*
X141428400Y-109400884D01*
X141430063Y-109399773D01*
X141431305Y-109400106D01*
G37*
G36*
X139431305Y-109400106D02*
G01*
X139442007Y-109407257D01*
X139442867Y-109405970D01*
X139444661Y-109405085D01*
X139445768Y-109405510D01*
X139466119Y-109421553D01*
X139526574Y-109423926D01*
X139554332Y-109405378D01*
X139556328Y-109405247D01*
X139557106Y-109405930D01*
X139557993Y-109407257D01*
X139568695Y-109400106D01*
X139570691Y-109399975D01*
X139571802Y-109401638D01*
X139571469Y-109402880D01*
X139539255Y-109451093D01*
X139527000Y-109512699D01*
X139527000Y-110862301D01*
X139539255Y-110923907D01*
X139571469Y-110972120D01*
X139571600Y-110974116D01*
X139569937Y-110975227D01*
X139568695Y-110974894D01*
X139557993Y-110967743D01*
X139557133Y-110969030D01*
X139555339Y-110969915D01*
X139554232Y-110969490D01*
X139533881Y-110953447D01*
X139473426Y-110951074D01*
X139445668Y-110969622D01*
X139443672Y-110969753D01*
X139442894Y-110969070D01*
X139442007Y-110967743D01*
X139431305Y-110974894D01*
X139429309Y-110975025D01*
X139428198Y-110973362D01*
X139428531Y-110972120D01*
X139460745Y-110923907D01*
X139473000Y-110862301D01*
X139473000Y-109512699D01*
X139460745Y-109451093D01*
X139428531Y-109402880D01*
X139428400Y-109400884D01*
X139430063Y-109399773D01*
X139431305Y-109400106D01*
G37*
G36*
X129527880Y-107928531D02*
G01*
X129576093Y-107960745D01*
X129637699Y-107973000D01*
X130987301Y-107973000D01*
X131048907Y-107960745D01*
X131097120Y-107928531D01*
X131099116Y-107928400D01*
X131100227Y-107930063D01*
X131099894Y-107931305D01*
X131092743Y-107942007D01*
X131094030Y-107942867D01*
X131094915Y-107944661D01*
X131094490Y-107945768D01*
X131078447Y-107966119D01*
X131076074Y-108026574D01*
X131094622Y-108054332D01*
X131094753Y-108056328D01*
X131094070Y-108057106D01*
X131092743Y-108057993D01*
X131099894Y-108068695D01*
X131100025Y-108070691D01*
X131098362Y-108071802D01*
X131097120Y-108071469D01*
X131048907Y-108039255D01*
X130987301Y-108027000D01*
X129637699Y-108027000D01*
X129576093Y-108039255D01*
X129527880Y-108071469D01*
X129525884Y-108071600D01*
X129524773Y-108069937D01*
X129525106Y-108068695D01*
X129532257Y-108057993D01*
X129530970Y-108057133D01*
X129530085Y-108055339D01*
X129530510Y-108054232D01*
X129546553Y-108033881D01*
X129548926Y-107973426D01*
X129530378Y-107945668D01*
X129530247Y-107943672D01*
X129530930Y-107942894D01*
X129532257Y-107942007D01*
X129525106Y-107931305D01*
X129524975Y-107929309D01*
X129526638Y-107928198D01*
X129527880Y-107928531D01*
G37*
G36*
X142902880Y-107928531D02*
G01*
X142951093Y-107960745D01*
X143012699Y-107973000D01*
X144362301Y-107973000D01*
X144423907Y-107960745D01*
X144472120Y-107928531D01*
X144474116Y-107928400D01*
X144475227Y-107930063D01*
X144474894Y-107931305D01*
X144467743Y-107942007D01*
X144469030Y-107942867D01*
X144469915Y-107944661D01*
X144469490Y-107945768D01*
X144453447Y-107966119D01*
X144451074Y-108026574D01*
X144469622Y-108054332D01*
X144469753Y-108056328D01*
X144469070Y-108057106D01*
X144467743Y-108057993D01*
X144474894Y-108068695D01*
X144475025Y-108070691D01*
X144473362Y-108071802D01*
X144472120Y-108071469D01*
X144423907Y-108039255D01*
X144362301Y-108027000D01*
X143012699Y-108027000D01*
X142951093Y-108039255D01*
X142902880Y-108071469D01*
X142900884Y-108071600D01*
X142899773Y-108069937D01*
X142900106Y-108068695D01*
X142907257Y-108057993D01*
X142905970Y-108057133D01*
X142905085Y-108055339D01*
X142905510Y-108054232D01*
X142921553Y-108033881D01*
X142923926Y-107973426D01*
X142905378Y-107945668D01*
X142905247Y-107943672D01*
X142905930Y-107942894D01*
X142907257Y-107942007D01*
X142900106Y-107931305D01*
X142899975Y-107929309D01*
X142901638Y-107928198D01*
X142902880Y-107928531D01*
G37*
G36*
X129527880Y-107428531D02*
G01*
X129576093Y-107460745D01*
X129637699Y-107473000D01*
X130987301Y-107473000D01*
X131048907Y-107460745D01*
X131097120Y-107428531D01*
X131099116Y-107428400D01*
X131100227Y-107430063D01*
X131099894Y-107431305D01*
X131092743Y-107442007D01*
X131094030Y-107442867D01*
X131094915Y-107444661D01*
X131094490Y-107445768D01*
X131078447Y-107466119D01*
X131076074Y-107526574D01*
X131094622Y-107554332D01*
X131094753Y-107556328D01*
X131094070Y-107557106D01*
X131092743Y-107557993D01*
X131099894Y-107568695D01*
X131100025Y-107570691D01*
X131098362Y-107571802D01*
X131097120Y-107571469D01*
X131048907Y-107539255D01*
X130987301Y-107527000D01*
X129637699Y-107527000D01*
X129576093Y-107539255D01*
X129527880Y-107571469D01*
X129525884Y-107571600D01*
X129524773Y-107569937D01*
X129525106Y-107568695D01*
X129532257Y-107557993D01*
X129530970Y-107557133D01*
X129530085Y-107555339D01*
X129530510Y-107554232D01*
X129546553Y-107533881D01*
X129548926Y-107473426D01*
X129530378Y-107445668D01*
X129530247Y-107443672D01*
X129530930Y-107442894D01*
X129532257Y-107442007D01*
X129525106Y-107431305D01*
X129524975Y-107429309D01*
X129526638Y-107428198D01*
X129527880Y-107428531D01*
G37*
G36*
X142902880Y-107428531D02*
G01*
X142951093Y-107460745D01*
X143012699Y-107473000D01*
X144362301Y-107473000D01*
X144423907Y-107460745D01*
X144472120Y-107428531D01*
X144474116Y-107428400D01*
X144475227Y-107430063D01*
X144474894Y-107431305D01*
X144467743Y-107442007D01*
X144469030Y-107442867D01*
X144469915Y-107444661D01*
X144469490Y-107445768D01*
X144453447Y-107466119D01*
X144451074Y-107526574D01*
X144469622Y-107554332D01*
X144469753Y-107556328D01*
X144469070Y-107557106D01*
X144467743Y-107557993D01*
X144474894Y-107568695D01*
X144475025Y-107570691D01*
X144473362Y-107571802D01*
X144472120Y-107571469D01*
X144423907Y-107539255D01*
X144362301Y-107527000D01*
X143012699Y-107527000D01*
X142951093Y-107539255D01*
X142902880Y-107571469D01*
X142900884Y-107571600D01*
X142899773Y-107569937D01*
X142900106Y-107568695D01*
X142907257Y-107557993D01*
X142905970Y-107557133D01*
X142905085Y-107555339D01*
X142905510Y-107554232D01*
X142921553Y-107533881D01*
X142923926Y-107473426D01*
X142905378Y-107445668D01*
X142905247Y-107443672D01*
X142905930Y-107442894D01*
X142907257Y-107442007D01*
X142900106Y-107431305D01*
X142899975Y-107429309D01*
X142901638Y-107428198D01*
X142902880Y-107428531D01*
G37*
G36*
X142902880Y-106928531D02*
G01*
X142951093Y-106960745D01*
X143012699Y-106973000D01*
X144362301Y-106973000D01*
X144423907Y-106960745D01*
X144472120Y-106928531D01*
X144474116Y-106928400D01*
X144475227Y-106930063D01*
X144474894Y-106931305D01*
X144467743Y-106942007D01*
X144469030Y-106942867D01*
X144469915Y-106944661D01*
X144469490Y-106945768D01*
X144453447Y-106966119D01*
X144451074Y-107026574D01*
X144469622Y-107054332D01*
X144469753Y-107056328D01*
X144469070Y-107057106D01*
X144467743Y-107057993D01*
X144474894Y-107068695D01*
X144475025Y-107070691D01*
X144473362Y-107071802D01*
X144472120Y-107071469D01*
X144423907Y-107039255D01*
X144362301Y-107027000D01*
X143012699Y-107027000D01*
X142951093Y-107039255D01*
X142902880Y-107071469D01*
X142900884Y-107071600D01*
X142899773Y-107069937D01*
X142900106Y-107068695D01*
X142907257Y-107057993D01*
X142905970Y-107057133D01*
X142905085Y-107055339D01*
X142905510Y-107054232D01*
X142921553Y-107033881D01*
X142923926Y-106973426D01*
X142905378Y-106945668D01*
X142905247Y-106943672D01*
X142905930Y-106942894D01*
X142907257Y-106942007D01*
X142900106Y-106931305D01*
X142899975Y-106929309D01*
X142901638Y-106928198D01*
X142902880Y-106928531D01*
G37*
G36*
X129527880Y-106928531D02*
G01*
X129576093Y-106960745D01*
X129637699Y-106973000D01*
X130987301Y-106973000D01*
X131048907Y-106960745D01*
X131097120Y-106928531D01*
X131099116Y-106928400D01*
X131100227Y-106930063D01*
X131099894Y-106931305D01*
X131092743Y-106942007D01*
X131094030Y-106942867D01*
X131094915Y-106944661D01*
X131094490Y-106945768D01*
X131078447Y-106966119D01*
X131076074Y-107026574D01*
X131094622Y-107054332D01*
X131094753Y-107056328D01*
X131094070Y-107057106D01*
X131092743Y-107057993D01*
X131099894Y-107068695D01*
X131100025Y-107070691D01*
X131098362Y-107071802D01*
X131097120Y-107071469D01*
X131048907Y-107039255D01*
X130987301Y-107027000D01*
X129637699Y-107027000D01*
X129576093Y-107039255D01*
X129527880Y-107071469D01*
X129525884Y-107071600D01*
X129524773Y-107069937D01*
X129525106Y-107068695D01*
X129532257Y-107057993D01*
X129530970Y-107057133D01*
X129530085Y-107055339D01*
X129530510Y-107054232D01*
X129546553Y-107033881D01*
X129548926Y-106973426D01*
X129530378Y-106945668D01*
X129530247Y-106943672D01*
X129530930Y-106942894D01*
X129532257Y-106942007D01*
X129525106Y-106931305D01*
X129524975Y-106929309D01*
X129526638Y-106928198D01*
X129527880Y-106928531D01*
G37*
G36*
X129527880Y-106428531D02*
G01*
X129576093Y-106460745D01*
X129637699Y-106473000D01*
X130987301Y-106473000D01*
X131048907Y-106460745D01*
X131097120Y-106428531D01*
X131099116Y-106428400D01*
X131100227Y-106430063D01*
X131099894Y-106431305D01*
X131092743Y-106442007D01*
X131094030Y-106442867D01*
X131094915Y-106444661D01*
X131094490Y-106445768D01*
X131078447Y-106466119D01*
X131076074Y-106526574D01*
X131094622Y-106554332D01*
X131094753Y-106556328D01*
X131094070Y-106557106D01*
X131092743Y-106557993D01*
X131099894Y-106568695D01*
X131100025Y-106570691D01*
X131098362Y-106571802D01*
X131097120Y-106571469D01*
X131048907Y-106539255D01*
X130987301Y-106527000D01*
X129637699Y-106527000D01*
X129576093Y-106539255D01*
X129527880Y-106571469D01*
X129525884Y-106571600D01*
X129524773Y-106569937D01*
X129525106Y-106568695D01*
X129532257Y-106557993D01*
X129530970Y-106557133D01*
X129530085Y-106555339D01*
X129530510Y-106554232D01*
X129546553Y-106533881D01*
X129548926Y-106473426D01*
X129530378Y-106445668D01*
X129530247Y-106443672D01*
X129530930Y-106442894D01*
X129532257Y-106442007D01*
X129525106Y-106431305D01*
X129524975Y-106429309D01*
X129526638Y-106428198D01*
X129527880Y-106428531D01*
G37*
G36*
X142902880Y-106428531D02*
G01*
X142951093Y-106460745D01*
X143012699Y-106473000D01*
X144362301Y-106473000D01*
X144423907Y-106460745D01*
X144472120Y-106428531D01*
X144474116Y-106428400D01*
X144475227Y-106430063D01*
X144474894Y-106431305D01*
X144467743Y-106442007D01*
X144469030Y-106442867D01*
X144469915Y-106444661D01*
X144469490Y-106445768D01*
X144453447Y-106466119D01*
X144451074Y-106526574D01*
X144469622Y-106554332D01*
X144469753Y-106556328D01*
X144469070Y-106557106D01*
X144467743Y-106557993D01*
X144474894Y-106568695D01*
X144475025Y-106570691D01*
X144473362Y-106571802D01*
X144472120Y-106571469D01*
X144423907Y-106539255D01*
X144362301Y-106527000D01*
X143012699Y-106527000D01*
X142951093Y-106539255D01*
X142902880Y-106571469D01*
X142900884Y-106571600D01*
X142899773Y-106569937D01*
X142900106Y-106568695D01*
X142907257Y-106557993D01*
X142905970Y-106557133D01*
X142905085Y-106555339D01*
X142905510Y-106554232D01*
X142921553Y-106533881D01*
X142923926Y-106473426D01*
X142905378Y-106445668D01*
X142905247Y-106443672D01*
X142905930Y-106442894D01*
X142907257Y-106442007D01*
X142900106Y-106431305D01*
X142899975Y-106429309D01*
X142901638Y-106428198D01*
X142902880Y-106428531D01*
G37*
G36*
X142902880Y-105928531D02*
G01*
X142951093Y-105960745D01*
X143012699Y-105973000D01*
X144362301Y-105973000D01*
X144423907Y-105960745D01*
X144472120Y-105928531D01*
X144474116Y-105928400D01*
X144475227Y-105930063D01*
X144474894Y-105931305D01*
X144467743Y-105942007D01*
X144469030Y-105942867D01*
X144469915Y-105944661D01*
X144469490Y-105945768D01*
X144453447Y-105966119D01*
X144451074Y-106026574D01*
X144469622Y-106054332D01*
X144469753Y-106056328D01*
X144469070Y-106057106D01*
X144467743Y-106057993D01*
X144474894Y-106068695D01*
X144475025Y-106070691D01*
X144473362Y-106071802D01*
X144472120Y-106071469D01*
X144423907Y-106039255D01*
X144362301Y-106027000D01*
X143012699Y-106027000D01*
X142951093Y-106039255D01*
X142902880Y-106071469D01*
X142900884Y-106071600D01*
X142899773Y-106069937D01*
X142900106Y-106068695D01*
X142907257Y-106057993D01*
X142905970Y-106057133D01*
X142905085Y-106055339D01*
X142905510Y-106054232D01*
X142921553Y-106033881D01*
X142923926Y-105973426D01*
X142905378Y-105945668D01*
X142905247Y-105943672D01*
X142905930Y-105942894D01*
X142907257Y-105942007D01*
X142900106Y-105931305D01*
X142899975Y-105929309D01*
X142901638Y-105928198D01*
X142902880Y-105928531D01*
G37*
G36*
X129527880Y-105928531D02*
G01*
X129576093Y-105960745D01*
X129637699Y-105973000D01*
X130987301Y-105973000D01*
X131048907Y-105960745D01*
X131097120Y-105928531D01*
X131099116Y-105928400D01*
X131100227Y-105930063D01*
X131099894Y-105931305D01*
X131092743Y-105942007D01*
X131094030Y-105942867D01*
X131094915Y-105944661D01*
X131094490Y-105945768D01*
X131078447Y-105966119D01*
X131076074Y-106026574D01*
X131094622Y-106054332D01*
X131094753Y-106056328D01*
X131094070Y-106057106D01*
X131092743Y-106057993D01*
X131099894Y-106068695D01*
X131100025Y-106070691D01*
X131098362Y-106071802D01*
X131097120Y-106071469D01*
X131048907Y-106039255D01*
X130987301Y-106027000D01*
X129637699Y-106027000D01*
X129576093Y-106039255D01*
X129527880Y-106071469D01*
X129525884Y-106071600D01*
X129524773Y-106069937D01*
X129525106Y-106068695D01*
X129532257Y-106057993D01*
X129530970Y-106057133D01*
X129530085Y-106055339D01*
X129530510Y-106054232D01*
X129546553Y-106033881D01*
X129548926Y-105973426D01*
X129530378Y-105945668D01*
X129530247Y-105943672D01*
X129530930Y-105942894D01*
X129532257Y-105942007D01*
X129525106Y-105931305D01*
X129524975Y-105929309D01*
X129526638Y-105928198D01*
X129527880Y-105928531D01*
G37*
G36*
X129527880Y-105428531D02*
G01*
X129576093Y-105460745D01*
X129637699Y-105473000D01*
X130987301Y-105473000D01*
X131048907Y-105460745D01*
X131097120Y-105428531D01*
X131099116Y-105428400D01*
X131100227Y-105430063D01*
X131099894Y-105431305D01*
X131092743Y-105442007D01*
X131094030Y-105442867D01*
X131094915Y-105444661D01*
X131094490Y-105445768D01*
X131078447Y-105466119D01*
X131076074Y-105526574D01*
X131094622Y-105554332D01*
X131094753Y-105556328D01*
X131094070Y-105557106D01*
X131092743Y-105557993D01*
X131099894Y-105568695D01*
X131100025Y-105570691D01*
X131098362Y-105571802D01*
X131097120Y-105571469D01*
X131048907Y-105539255D01*
X130987301Y-105527000D01*
X129637699Y-105527000D01*
X129576093Y-105539255D01*
X129527880Y-105571469D01*
X129525884Y-105571600D01*
X129524773Y-105569937D01*
X129525106Y-105568695D01*
X129532257Y-105557993D01*
X129530970Y-105557133D01*
X129530085Y-105555339D01*
X129530510Y-105554232D01*
X129546553Y-105533881D01*
X129548926Y-105473426D01*
X129530378Y-105445668D01*
X129530247Y-105443672D01*
X129530930Y-105442894D01*
X129532257Y-105442007D01*
X129525106Y-105431305D01*
X129524975Y-105429309D01*
X129526638Y-105428198D01*
X129527880Y-105428531D01*
G37*
G36*
X142902880Y-105428531D02*
G01*
X142951093Y-105460745D01*
X143012699Y-105473000D01*
X144362301Y-105473000D01*
X144423907Y-105460745D01*
X144472120Y-105428531D01*
X144474116Y-105428400D01*
X144475227Y-105430063D01*
X144474894Y-105431305D01*
X144467743Y-105442007D01*
X144469030Y-105442867D01*
X144469915Y-105444661D01*
X144469490Y-105445768D01*
X144453447Y-105466119D01*
X144451074Y-105526574D01*
X144469622Y-105554332D01*
X144469753Y-105556328D01*
X144469070Y-105557106D01*
X144467743Y-105557993D01*
X144474894Y-105568695D01*
X144475025Y-105570691D01*
X144473362Y-105571802D01*
X144472120Y-105571469D01*
X144423907Y-105539255D01*
X144362301Y-105527000D01*
X143012699Y-105527000D01*
X142951093Y-105539255D01*
X142902880Y-105571469D01*
X142900884Y-105571600D01*
X142899773Y-105569937D01*
X142900106Y-105568695D01*
X142907257Y-105557993D01*
X142905970Y-105557133D01*
X142905085Y-105555339D01*
X142905510Y-105554232D01*
X142921553Y-105533881D01*
X142923926Y-105473426D01*
X142905378Y-105445668D01*
X142905247Y-105443672D01*
X142905930Y-105442894D01*
X142907257Y-105442007D01*
X142900106Y-105431305D01*
X142899975Y-105429309D01*
X142901638Y-105428198D01*
X142902880Y-105428531D01*
G37*
G36*
X142902880Y-104928531D02*
G01*
X142951093Y-104960745D01*
X143012699Y-104973000D01*
X144362301Y-104973000D01*
X144423907Y-104960745D01*
X144472120Y-104928531D01*
X144474116Y-104928400D01*
X144475227Y-104930063D01*
X144474894Y-104931305D01*
X144467743Y-104942007D01*
X144469030Y-104942867D01*
X144469915Y-104944661D01*
X144469490Y-104945768D01*
X144453447Y-104966119D01*
X144451074Y-105026574D01*
X144469622Y-105054332D01*
X144469753Y-105056328D01*
X144469070Y-105057106D01*
X144467743Y-105057993D01*
X144474894Y-105068695D01*
X144475025Y-105070691D01*
X144473362Y-105071802D01*
X144472120Y-105071469D01*
X144423907Y-105039255D01*
X144362301Y-105027000D01*
X143012699Y-105027000D01*
X142951093Y-105039255D01*
X142902880Y-105071469D01*
X142900884Y-105071600D01*
X142899773Y-105069937D01*
X142900106Y-105068695D01*
X142907257Y-105057993D01*
X142905970Y-105057133D01*
X142905085Y-105055339D01*
X142905510Y-105054232D01*
X142921553Y-105033881D01*
X142923926Y-104973426D01*
X142905378Y-104945668D01*
X142905247Y-104943672D01*
X142905930Y-104942894D01*
X142907257Y-104942007D01*
X142900106Y-104931305D01*
X142899975Y-104929309D01*
X142901638Y-104928198D01*
X142902880Y-104928531D01*
G37*
G36*
X129527880Y-104928531D02*
G01*
X129576093Y-104960745D01*
X129637699Y-104973000D01*
X130987301Y-104973000D01*
X131048907Y-104960745D01*
X131097120Y-104928531D01*
X131099116Y-104928400D01*
X131100227Y-104930063D01*
X131099894Y-104931305D01*
X131092743Y-104942007D01*
X131094030Y-104942867D01*
X131094915Y-104944661D01*
X131094490Y-104945768D01*
X131078447Y-104966119D01*
X131076074Y-105026574D01*
X131094622Y-105054332D01*
X131094753Y-105056328D01*
X131094070Y-105057106D01*
X131092743Y-105057993D01*
X131099894Y-105068695D01*
X131100025Y-105070691D01*
X131098362Y-105071802D01*
X131097120Y-105071469D01*
X131048907Y-105039255D01*
X130987301Y-105027000D01*
X129637699Y-105027000D01*
X129576093Y-105039255D01*
X129527880Y-105071469D01*
X129525884Y-105071600D01*
X129524773Y-105069937D01*
X129525106Y-105068695D01*
X129532257Y-105057993D01*
X129530970Y-105057133D01*
X129530085Y-105055339D01*
X129530510Y-105054232D01*
X129546553Y-105033881D01*
X129548926Y-104973426D01*
X129530378Y-104945668D01*
X129530247Y-104943672D01*
X129530930Y-104942894D01*
X129532257Y-104942007D01*
X129525106Y-104931305D01*
X129524975Y-104929309D01*
X129526638Y-104928198D01*
X129527880Y-104928531D01*
G37*
G36*
X173934522Y-104549000D02*
G01*
X173934522Y-104551000D01*
X173933408Y-104551902D01*
X173875252Y-104570798D01*
X173839688Y-104619747D01*
X173839688Y-104680249D01*
X173874593Y-104728291D01*
X173874802Y-104730280D01*
X173873184Y-104731456D01*
X173871799Y-104731085D01*
X173811492Y-104687269D01*
X173654318Y-104617290D01*
X173486027Y-104581519D01*
X173313973Y-104581519D01*
X173145682Y-104617290D01*
X172988508Y-104687269D01*
X172928204Y-104731083D01*
X172926215Y-104731292D01*
X172925039Y-104729674D01*
X172925410Y-104728289D01*
X172960312Y-104680250D01*
X172960312Y-104619748D01*
X172924748Y-104570799D01*
X172866589Y-104551902D01*
X172865251Y-104550416D01*
X172865869Y-104548514D01*
X172867207Y-104548000D01*
X173932790Y-104548000D01*
X173934522Y-104549000D01*
G37*
G36*
X129527880Y-104428531D02*
G01*
X129576093Y-104460745D01*
X129637699Y-104473000D01*
X130987301Y-104473000D01*
X131048907Y-104460745D01*
X131097120Y-104428531D01*
X131099116Y-104428400D01*
X131100227Y-104430063D01*
X131099894Y-104431305D01*
X131092743Y-104442007D01*
X131094030Y-104442867D01*
X131094915Y-104444661D01*
X131094490Y-104445768D01*
X131078447Y-104466119D01*
X131076074Y-104526574D01*
X131094622Y-104554332D01*
X131094753Y-104556328D01*
X131094070Y-104557106D01*
X131092743Y-104557993D01*
X131099894Y-104568695D01*
X131100025Y-104570691D01*
X131098362Y-104571802D01*
X131097120Y-104571469D01*
X131048907Y-104539255D01*
X130987301Y-104527000D01*
X129637699Y-104527000D01*
X129576093Y-104539255D01*
X129527880Y-104571469D01*
X129525884Y-104571600D01*
X129524773Y-104569937D01*
X129525106Y-104568695D01*
X129532257Y-104557993D01*
X129530970Y-104557133D01*
X129530085Y-104555339D01*
X129530510Y-104554232D01*
X129546553Y-104533881D01*
X129548926Y-104473426D01*
X129530378Y-104445668D01*
X129530247Y-104443672D01*
X129530930Y-104442894D01*
X129532257Y-104442007D01*
X129525106Y-104431305D01*
X129524975Y-104429309D01*
X129526638Y-104428198D01*
X129527880Y-104428531D01*
G37*
G36*
X142902880Y-104428531D02*
G01*
X142951093Y-104460745D01*
X143012699Y-104473000D01*
X144362301Y-104473000D01*
X144423907Y-104460745D01*
X144472120Y-104428531D01*
X144474116Y-104428400D01*
X144475227Y-104430063D01*
X144474894Y-104431305D01*
X144467743Y-104442007D01*
X144469030Y-104442867D01*
X144469915Y-104444661D01*
X144469490Y-104445768D01*
X144453447Y-104466119D01*
X144451074Y-104526574D01*
X144469622Y-104554332D01*
X144469753Y-104556328D01*
X144469070Y-104557106D01*
X144467743Y-104557993D01*
X144474894Y-104568695D01*
X144475025Y-104570691D01*
X144473362Y-104571802D01*
X144472120Y-104571469D01*
X144423907Y-104539255D01*
X144362301Y-104527000D01*
X143012699Y-104527000D01*
X142951093Y-104539255D01*
X142902880Y-104571469D01*
X142900884Y-104571600D01*
X142899773Y-104569937D01*
X142900106Y-104568695D01*
X142907257Y-104557993D01*
X142905970Y-104557133D01*
X142905085Y-104555339D01*
X142905510Y-104554232D01*
X142921553Y-104533881D01*
X142923926Y-104473426D01*
X142905378Y-104445668D01*
X142905247Y-104443672D01*
X142905930Y-104442894D01*
X142907257Y-104442007D01*
X142900106Y-104431305D01*
X142899975Y-104429309D01*
X142901638Y-104428198D01*
X142902880Y-104428531D01*
G37*
G36*
X129527880Y-103928531D02*
G01*
X129576093Y-103960745D01*
X129637699Y-103973000D01*
X130987301Y-103973000D01*
X131048907Y-103960745D01*
X131097120Y-103928531D01*
X131099116Y-103928400D01*
X131100227Y-103930063D01*
X131099894Y-103931305D01*
X131092743Y-103942007D01*
X131094030Y-103942867D01*
X131094915Y-103944661D01*
X131094490Y-103945768D01*
X131078447Y-103966119D01*
X131076074Y-104026574D01*
X131094622Y-104054332D01*
X131094753Y-104056328D01*
X131094070Y-104057106D01*
X131092743Y-104057993D01*
X131099894Y-104068695D01*
X131100025Y-104070691D01*
X131098362Y-104071802D01*
X131097120Y-104071469D01*
X131048907Y-104039255D01*
X130987301Y-104027000D01*
X129637699Y-104027000D01*
X129576093Y-104039255D01*
X129527880Y-104071469D01*
X129525884Y-104071600D01*
X129524773Y-104069937D01*
X129525106Y-104068695D01*
X129532257Y-104057993D01*
X129530970Y-104057133D01*
X129530085Y-104055339D01*
X129530510Y-104054232D01*
X129546553Y-104033881D01*
X129548926Y-103973426D01*
X129530378Y-103945668D01*
X129530247Y-103943672D01*
X129530930Y-103942894D01*
X129532257Y-103942007D01*
X129525106Y-103931305D01*
X129524975Y-103929309D01*
X129526638Y-103928198D01*
X129527880Y-103928531D01*
G37*
G36*
X142902880Y-103928531D02*
G01*
X142951093Y-103960745D01*
X143012699Y-103973000D01*
X144362301Y-103973000D01*
X144423907Y-103960745D01*
X144472120Y-103928531D01*
X144474116Y-103928400D01*
X144475227Y-103930063D01*
X144474894Y-103931305D01*
X144467743Y-103942007D01*
X144469030Y-103942867D01*
X144469915Y-103944661D01*
X144469490Y-103945768D01*
X144453447Y-103966119D01*
X144451074Y-104026574D01*
X144469622Y-104054332D01*
X144469753Y-104056328D01*
X144469070Y-104057106D01*
X144467743Y-104057993D01*
X144474894Y-104068695D01*
X144475025Y-104070691D01*
X144473362Y-104071802D01*
X144472120Y-104071469D01*
X144423907Y-104039255D01*
X144362301Y-104027000D01*
X143012699Y-104027000D01*
X142951093Y-104039255D01*
X142902880Y-104071469D01*
X142900884Y-104071600D01*
X142899773Y-104069937D01*
X142900106Y-104068695D01*
X142907257Y-104057993D01*
X142905970Y-104057133D01*
X142905085Y-104055339D01*
X142905510Y-104054232D01*
X142921553Y-104033881D01*
X142923926Y-103973426D01*
X142905378Y-103945668D01*
X142905247Y-103943672D01*
X142905930Y-103942894D01*
X142907257Y-103942007D01*
X142900106Y-103931305D01*
X142899975Y-103929309D01*
X142901638Y-103928198D01*
X142902880Y-103928531D01*
G37*
G36*
X156538759Y-103848447D02*
G01*
X156539500Y-103850001D01*
X156539500Y-103866301D01*
X156546997Y-103903989D01*
X156568231Y-103935769D01*
X156600011Y-103957003D01*
X156637699Y-103964500D01*
X156662498Y-103964500D01*
X156664230Y-103965500D01*
X156664230Y-103967500D01*
X156663116Y-103968402D01*
X156604957Y-103987299D01*
X156569293Y-104036386D01*
X156564475Y-104066806D01*
X156563217Y-104068360D01*
X156561241Y-104068047D01*
X156560500Y-104066493D01*
X156560500Y-104050199D01*
X156553003Y-104012511D01*
X156531769Y-103980731D01*
X156499989Y-103959497D01*
X156462301Y-103952000D01*
X156437501Y-103952000D01*
X156435769Y-103951000D01*
X156435769Y-103949000D01*
X156436883Y-103948098D01*
X156495042Y-103929201D01*
X156530706Y-103880114D01*
X156535525Y-103849688D01*
X156536783Y-103848134D01*
X156538759Y-103848447D01*
G37*
G36*
X172470297Y-103870650D02*
G01*
X172500011Y-103890503D01*
X172537699Y-103898000D01*
X174087301Y-103898000D01*
X174124989Y-103890503D01*
X174154855Y-103870548D01*
X174156851Y-103870417D01*
X174157962Y-103872080D01*
X174157891Y-103872754D01*
X174142061Y-103928886D01*
X174157716Y-103977069D01*
X174157300Y-103979025D01*
X174155398Y-103979643D01*
X174154703Y-103979350D01*
X174124989Y-103959497D01*
X174087301Y-103952000D01*
X172537699Y-103952000D01*
X172500011Y-103959497D01*
X172470145Y-103979452D01*
X172468149Y-103979583D01*
X172467038Y-103977920D01*
X172467109Y-103977246D01*
X172482939Y-103921114D01*
X172467284Y-103872931D01*
X172467700Y-103870975D01*
X172469602Y-103870357D01*
X172470297Y-103870650D01*
G37*
G36*
X129527880Y-103428531D02*
G01*
X129576093Y-103460745D01*
X129637699Y-103473000D01*
X130987301Y-103473000D01*
X131048907Y-103460745D01*
X131097120Y-103428531D01*
X131099116Y-103428400D01*
X131100227Y-103430063D01*
X131099894Y-103431305D01*
X131092743Y-103442007D01*
X131094030Y-103442867D01*
X131094915Y-103444661D01*
X131094490Y-103445768D01*
X131078447Y-103466119D01*
X131076074Y-103526574D01*
X131094622Y-103554332D01*
X131094753Y-103556328D01*
X131094070Y-103557106D01*
X131092743Y-103557993D01*
X131099894Y-103568695D01*
X131100025Y-103570691D01*
X131098362Y-103571802D01*
X131097120Y-103571469D01*
X131048907Y-103539255D01*
X130987301Y-103527000D01*
X129637699Y-103527000D01*
X129576093Y-103539255D01*
X129527880Y-103571469D01*
X129525884Y-103571600D01*
X129524773Y-103569937D01*
X129525106Y-103568695D01*
X129532257Y-103557993D01*
X129530970Y-103557133D01*
X129530085Y-103555339D01*
X129530510Y-103554232D01*
X129546553Y-103533881D01*
X129548926Y-103473426D01*
X129530378Y-103445668D01*
X129530247Y-103443672D01*
X129530930Y-103442894D01*
X129532257Y-103442007D01*
X129525106Y-103431305D01*
X129524975Y-103429309D01*
X129526638Y-103428198D01*
X129527880Y-103428531D01*
G37*
G36*
X142902880Y-103428531D02*
G01*
X142951093Y-103460745D01*
X143012699Y-103473000D01*
X144362301Y-103473000D01*
X144423907Y-103460745D01*
X144472120Y-103428531D01*
X144474116Y-103428400D01*
X144475227Y-103430063D01*
X144474894Y-103431305D01*
X144467743Y-103442007D01*
X144469030Y-103442867D01*
X144469915Y-103444661D01*
X144469490Y-103445768D01*
X144453447Y-103466119D01*
X144451074Y-103526574D01*
X144469622Y-103554332D01*
X144469753Y-103556328D01*
X144469070Y-103557106D01*
X144467743Y-103557993D01*
X144474894Y-103568695D01*
X144475025Y-103570691D01*
X144473362Y-103571802D01*
X144472120Y-103571469D01*
X144423907Y-103539255D01*
X144362301Y-103527000D01*
X143012699Y-103527000D01*
X142951093Y-103539255D01*
X142902880Y-103571469D01*
X142900884Y-103571600D01*
X142899773Y-103569937D01*
X142900106Y-103568695D01*
X142907257Y-103557993D01*
X142905970Y-103557133D01*
X142905085Y-103555339D01*
X142905510Y-103554232D01*
X142921553Y-103533881D01*
X142923926Y-103473426D01*
X142905378Y-103445668D01*
X142905247Y-103443672D01*
X142905930Y-103442894D01*
X142907257Y-103442007D01*
X142900106Y-103431305D01*
X142899975Y-103429309D01*
X142901638Y-103428198D01*
X142902880Y-103428531D01*
G37*
G36*
X172470297Y-103220650D02*
G01*
X172500011Y-103240503D01*
X172537699Y-103248000D01*
X174087301Y-103248000D01*
X174124989Y-103240503D01*
X174154855Y-103220548D01*
X174156851Y-103220417D01*
X174157962Y-103222080D01*
X174157891Y-103222754D01*
X174142061Y-103278886D01*
X174157716Y-103327069D01*
X174157300Y-103329025D01*
X174155398Y-103329643D01*
X174154703Y-103329350D01*
X174124989Y-103309497D01*
X174087301Y-103302000D01*
X172537699Y-103302000D01*
X172500011Y-103309497D01*
X172470145Y-103329452D01*
X172468149Y-103329583D01*
X172467038Y-103327920D01*
X172467109Y-103327246D01*
X172482939Y-103271114D01*
X172467284Y-103222931D01*
X172467700Y-103220975D01*
X172469602Y-103220357D01*
X172470297Y-103220650D01*
G37*
G36*
X129527880Y-102928531D02*
G01*
X129576093Y-102960745D01*
X129637699Y-102973000D01*
X130987301Y-102973000D01*
X131048907Y-102960745D01*
X131097120Y-102928531D01*
X131099116Y-102928400D01*
X131100227Y-102930063D01*
X131099894Y-102931305D01*
X131092743Y-102942007D01*
X131094030Y-102942867D01*
X131094915Y-102944661D01*
X131094490Y-102945768D01*
X131078447Y-102966119D01*
X131076074Y-103026574D01*
X131094622Y-103054332D01*
X131094753Y-103056328D01*
X131094070Y-103057106D01*
X131092743Y-103057993D01*
X131099894Y-103068695D01*
X131100025Y-103070691D01*
X131098362Y-103071802D01*
X131097120Y-103071469D01*
X131048907Y-103039255D01*
X130987301Y-103027000D01*
X129637699Y-103027000D01*
X129576093Y-103039255D01*
X129527880Y-103071469D01*
X129525884Y-103071600D01*
X129524773Y-103069937D01*
X129525106Y-103068695D01*
X129532257Y-103057993D01*
X129530970Y-103057133D01*
X129530085Y-103055339D01*
X129530510Y-103054232D01*
X129546553Y-103033881D01*
X129548926Y-102973426D01*
X129530378Y-102945668D01*
X129530247Y-102943672D01*
X129530930Y-102942894D01*
X129532257Y-102942007D01*
X129525106Y-102931305D01*
X129524975Y-102929309D01*
X129526638Y-102928198D01*
X129527880Y-102928531D01*
G37*
G36*
X142902880Y-102928531D02*
G01*
X142951093Y-102960745D01*
X143012699Y-102973000D01*
X144362301Y-102973000D01*
X144423907Y-102960745D01*
X144472120Y-102928531D01*
X144474116Y-102928400D01*
X144475227Y-102930063D01*
X144474894Y-102931305D01*
X144467743Y-102942007D01*
X144469030Y-102942867D01*
X144469915Y-102944661D01*
X144469490Y-102945768D01*
X144453447Y-102966119D01*
X144451074Y-103026574D01*
X144469622Y-103054332D01*
X144469753Y-103056328D01*
X144469070Y-103057106D01*
X144467743Y-103057993D01*
X144474894Y-103068695D01*
X144475025Y-103070691D01*
X144473362Y-103071802D01*
X144472120Y-103071469D01*
X144423907Y-103039255D01*
X144362301Y-103027000D01*
X143012699Y-103027000D01*
X142951093Y-103039255D01*
X142902880Y-103071469D01*
X142900884Y-103071600D01*
X142899773Y-103069937D01*
X142900106Y-103068695D01*
X142907257Y-103057993D01*
X142905970Y-103057133D01*
X142905085Y-103055339D01*
X142905510Y-103054232D01*
X142921553Y-103033881D01*
X142923926Y-102973426D01*
X142905378Y-102945668D01*
X142905247Y-102943672D01*
X142905930Y-102942894D01*
X142907257Y-102942007D01*
X142900106Y-102931305D01*
X142899975Y-102929309D01*
X142901638Y-102928198D01*
X142902880Y-102928531D01*
G37*
G36*
X172470297Y-102570650D02*
G01*
X172500011Y-102590503D01*
X172537699Y-102598000D01*
X174087301Y-102598000D01*
X174124989Y-102590503D01*
X174154855Y-102570548D01*
X174156851Y-102570417D01*
X174157962Y-102572080D01*
X174157891Y-102572754D01*
X174142061Y-102628886D01*
X174157716Y-102677069D01*
X174157300Y-102679025D01*
X174155398Y-102679643D01*
X174154703Y-102679350D01*
X174124989Y-102659497D01*
X174087301Y-102652000D01*
X172537699Y-102652000D01*
X172500011Y-102659497D01*
X172470145Y-102679452D01*
X172468149Y-102679583D01*
X172467038Y-102677920D01*
X172467109Y-102677246D01*
X172482939Y-102621114D01*
X172467284Y-102572931D01*
X172467700Y-102570975D01*
X172469602Y-102570357D01*
X172470297Y-102570650D01*
G37*
G36*
X129527880Y-102428531D02*
G01*
X129576093Y-102460745D01*
X129637699Y-102473000D01*
X130987301Y-102473000D01*
X131048907Y-102460745D01*
X131097120Y-102428531D01*
X131099116Y-102428400D01*
X131100227Y-102430063D01*
X131099894Y-102431305D01*
X131092743Y-102442007D01*
X131094030Y-102442867D01*
X131094915Y-102444661D01*
X131094490Y-102445768D01*
X131078447Y-102466119D01*
X131076074Y-102526574D01*
X131094622Y-102554332D01*
X131094753Y-102556328D01*
X131094070Y-102557106D01*
X131092743Y-102557993D01*
X131099894Y-102568695D01*
X131100025Y-102570691D01*
X131098362Y-102571802D01*
X131097120Y-102571469D01*
X131048907Y-102539255D01*
X130987301Y-102527000D01*
X129637699Y-102527000D01*
X129576093Y-102539255D01*
X129527880Y-102571469D01*
X129525884Y-102571600D01*
X129524773Y-102569937D01*
X129525106Y-102568695D01*
X129532257Y-102557993D01*
X129530970Y-102557133D01*
X129530085Y-102555339D01*
X129530510Y-102554232D01*
X129546553Y-102533881D01*
X129548926Y-102473426D01*
X129530378Y-102445668D01*
X129530247Y-102443672D01*
X129530930Y-102442894D01*
X129532257Y-102442007D01*
X129525106Y-102431305D01*
X129524975Y-102429309D01*
X129526638Y-102428198D01*
X129527880Y-102428531D01*
G37*
G36*
X142902880Y-102428531D02*
G01*
X142951093Y-102460745D01*
X143012699Y-102473000D01*
X144362301Y-102473000D01*
X144423907Y-102460745D01*
X144472120Y-102428531D01*
X144474116Y-102428400D01*
X144475227Y-102430063D01*
X144474894Y-102431305D01*
X144467743Y-102442007D01*
X144469030Y-102442867D01*
X144469915Y-102444661D01*
X144469490Y-102445768D01*
X144453447Y-102466119D01*
X144451074Y-102526574D01*
X144469622Y-102554332D01*
X144469753Y-102556328D01*
X144469070Y-102557106D01*
X144467743Y-102557993D01*
X144474894Y-102568695D01*
X144475025Y-102570691D01*
X144473362Y-102571802D01*
X144472120Y-102571469D01*
X144423907Y-102539255D01*
X144362301Y-102527000D01*
X143012699Y-102527000D01*
X142951093Y-102539255D01*
X142902880Y-102571469D01*
X142900884Y-102571600D01*
X142899773Y-102569937D01*
X142900106Y-102568695D01*
X142907257Y-102557993D01*
X142905970Y-102557133D01*
X142905085Y-102555339D01*
X142905510Y-102554232D01*
X142921553Y-102533881D01*
X142923926Y-102473426D01*
X142905378Y-102445668D01*
X142905247Y-102443672D01*
X142905930Y-102442894D01*
X142907257Y-102442007D01*
X142900106Y-102431305D01*
X142899975Y-102429309D01*
X142901638Y-102428198D01*
X142902880Y-102428531D01*
G37*
G36*
X156564402Y-101932883D02*
G01*
X156583299Y-101991042D01*
X156632386Y-102026706D01*
X156662812Y-102031525D01*
X156664366Y-102032783D01*
X156664053Y-102034759D01*
X156662499Y-102035500D01*
X156637699Y-102035500D01*
X156600011Y-102042997D01*
X156568231Y-102064231D01*
X156546997Y-102096011D01*
X156539500Y-102133699D01*
X156539500Y-102149998D01*
X156538500Y-102151730D01*
X156536500Y-102151730D01*
X156535598Y-102150616D01*
X156516701Y-102092457D01*
X156467614Y-102056793D01*
X156437194Y-102051975D01*
X156435640Y-102050717D01*
X156435953Y-102048741D01*
X156437507Y-102048000D01*
X156462301Y-102048000D01*
X156499989Y-102040503D01*
X156531769Y-102019269D01*
X156553003Y-101987489D01*
X156560500Y-101949801D01*
X156560500Y-101933501D01*
X156561500Y-101931769D01*
X156563500Y-101931769D01*
X156564402Y-101932883D01*
G37*
G36*
X129527880Y-101928531D02*
G01*
X129576093Y-101960745D01*
X129637699Y-101973000D01*
X130987301Y-101973000D01*
X131048907Y-101960745D01*
X131097120Y-101928531D01*
X131099116Y-101928400D01*
X131100227Y-101930063D01*
X131099894Y-101931305D01*
X131092743Y-101942007D01*
X131094030Y-101942867D01*
X131094915Y-101944661D01*
X131094490Y-101945768D01*
X131078447Y-101966119D01*
X131076074Y-102026574D01*
X131094622Y-102054332D01*
X131094753Y-102056328D01*
X131094070Y-102057106D01*
X131092743Y-102057993D01*
X131099894Y-102068695D01*
X131100025Y-102070691D01*
X131098362Y-102071802D01*
X131097120Y-102071469D01*
X131048907Y-102039255D01*
X130987301Y-102027000D01*
X129637699Y-102027000D01*
X129576093Y-102039255D01*
X129527880Y-102071469D01*
X129525884Y-102071600D01*
X129524773Y-102069937D01*
X129525106Y-102068695D01*
X129532257Y-102057993D01*
X129530970Y-102057133D01*
X129530085Y-102055339D01*
X129530510Y-102054232D01*
X129546553Y-102033881D01*
X129548926Y-101973426D01*
X129530378Y-101945668D01*
X129530247Y-101943672D01*
X129530930Y-101942894D01*
X129532257Y-101942007D01*
X129525106Y-101931305D01*
X129524975Y-101929309D01*
X129526638Y-101928198D01*
X129527880Y-101928531D01*
G37*
G36*
X142902880Y-101928531D02*
G01*
X142951093Y-101960745D01*
X143012699Y-101973000D01*
X144362301Y-101973000D01*
X144423907Y-101960745D01*
X144472120Y-101928531D01*
X144474116Y-101928400D01*
X144475227Y-101930063D01*
X144474894Y-101931305D01*
X144467743Y-101942007D01*
X144469030Y-101942867D01*
X144469915Y-101944661D01*
X144469490Y-101945768D01*
X144453447Y-101966119D01*
X144451074Y-102026574D01*
X144469622Y-102054332D01*
X144469753Y-102056328D01*
X144469070Y-102057106D01*
X144467743Y-102057993D01*
X144474894Y-102068695D01*
X144475025Y-102070691D01*
X144473362Y-102071802D01*
X144472120Y-102071469D01*
X144423907Y-102039255D01*
X144362301Y-102027000D01*
X143012699Y-102027000D01*
X142951093Y-102039255D01*
X142902880Y-102071469D01*
X142900884Y-102071600D01*
X142899773Y-102069937D01*
X142900106Y-102068695D01*
X142907257Y-102057993D01*
X142905970Y-102057133D01*
X142905085Y-102055339D01*
X142905510Y-102054232D01*
X142921553Y-102033881D01*
X142923926Y-101973426D01*
X142905378Y-101945668D01*
X142905247Y-101943672D01*
X142905930Y-101942894D01*
X142907257Y-101942007D01*
X142900106Y-101931305D01*
X142899975Y-101929309D01*
X142901638Y-101928198D01*
X142902880Y-101928531D01*
G37*
G36*
X172470297Y-101920650D02*
G01*
X172500011Y-101940503D01*
X172537699Y-101948000D01*
X174087301Y-101948000D01*
X174124989Y-101940503D01*
X174154855Y-101920548D01*
X174156851Y-101920417D01*
X174157962Y-101922080D01*
X174157891Y-101922754D01*
X174142061Y-101978886D01*
X174157716Y-102027069D01*
X174157300Y-102029025D01*
X174155398Y-102029643D01*
X174154703Y-102029350D01*
X174124989Y-102009497D01*
X174087301Y-102002000D01*
X172537699Y-102002000D01*
X172500011Y-102009497D01*
X172470145Y-102029452D01*
X172468149Y-102029583D01*
X172467038Y-102027920D01*
X172467109Y-102027246D01*
X172482939Y-101971114D01*
X172467284Y-101922931D01*
X172467700Y-101920975D01*
X172469602Y-101920357D01*
X172470297Y-101920650D01*
G37*
G36*
X129527880Y-101428531D02*
G01*
X129576093Y-101460745D01*
X129637699Y-101473000D01*
X130987301Y-101473000D01*
X131048907Y-101460745D01*
X131097120Y-101428531D01*
X131099116Y-101428400D01*
X131100227Y-101430063D01*
X131099894Y-101431305D01*
X131092743Y-101442007D01*
X131094030Y-101442867D01*
X131094915Y-101444661D01*
X131094490Y-101445768D01*
X131078447Y-101466119D01*
X131076074Y-101526574D01*
X131094622Y-101554332D01*
X131094753Y-101556328D01*
X131094070Y-101557106D01*
X131092743Y-101557993D01*
X131099894Y-101568695D01*
X131100025Y-101570691D01*
X131098362Y-101571802D01*
X131097120Y-101571469D01*
X131048907Y-101539255D01*
X130987301Y-101527000D01*
X129637699Y-101527000D01*
X129576093Y-101539255D01*
X129527880Y-101571469D01*
X129525884Y-101571600D01*
X129524773Y-101569937D01*
X129525106Y-101568695D01*
X129532257Y-101557993D01*
X129530970Y-101557133D01*
X129530085Y-101555339D01*
X129530510Y-101554232D01*
X129546553Y-101533881D01*
X129548926Y-101473426D01*
X129530378Y-101445668D01*
X129530247Y-101443672D01*
X129530930Y-101442894D01*
X129532257Y-101442007D01*
X129525106Y-101431305D01*
X129524975Y-101429309D01*
X129526638Y-101428198D01*
X129527880Y-101428531D01*
G37*
G36*
X142902880Y-101428531D02*
G01*
X142951093Y-101460745D01*
X143012699Y-101473000D01*
X144362301Y-101473000D01*
X144423907Y-101460745D01*
X144472120Y-101428531D01*
X144474116Y-101428400D01*
X144475227Y-101430063D01*
X144474894Y-101431305D01*
X144467743Y-101442007D01*
X144469030Y-101442867D01*
X144469915Y-101444661D01*
X144469490Y-101445768D01*
X144453447Y-101466119D01*
X144451074Y-101526574D01*
X144469622Y-101554332D01*
X144469753Y-101556328D01*
X144469070Y-101557106D01*
X144467743Y-101557993D01*
X144474894Y-101568695D01*
X144475025Y-101570691D01*
X144473362Y-101571802D01*
X144472120Y-101571469D01*
X144423907Y-101539255D01*
X144362301Y-101527000D01*
X143012699Y-101527000D01*
X142951093Y-101539255D01*
X142902880Y-101571469D01*
X142900884Y-101571600D01*
X142899773Y-101569937D01*
X142900106Y-101568695D01*
X142907257Y-101557993D01*
X142905970Y-101557133D01*
X142905085Y-101555339D01*
X142905510Y-101554232D01*
X142921553Y-101533881D01*
X142923926Y-101473426D01*
X142905378Y-101445668D01*
X142905247Y-101443672D01*
X142905930Y-101442894D01*
X142907257Y-101442007D01*
X142900106Y-101431305D01*
X142899975Y-101429309D01*
X142901638Y-101428198D01*
X142902880Y-101428531D01*
G37*
G36*
X172928201Y-101168915D02*
G01*
X172988508Y-101212731D01*
X173145682Y-101282710D01*
X173313973Y-101318481D01*
X173486027Y-101318481D01*
X173654318Y-101282710D01*
X173811492Y-101212731D01*
X173871798Y-101168916D01*
X173873787Y-101168707D01*
X173874963Y-101170325D01*
X173874592Y-101171710D01*
X173839689Y-101219750D01*
X173839689Y-101280253D01*
X173875253Y-101329201D01*
X173933412Y-101348098D01*
X173934750Y-101349584D01*
X173934132Y-101351486D01*
X173932794Y-101352000D01*
X172867210Y-101352000D01*
X172865478Y-101351000D01*
X172865478Y-101349000D01*
X172866592Y-101348098D01*
X172924748Y-101329202D01*
X172960312Y-101280253D01*
X172960312Y-101219751D01*
X172925407Y-101171709D01*
X172925198Y-101169720D01*
X172926816Y-101168544D01*
X172928201Y-101168915D01*
G37*
G36*
X142902880Y-100928531D02*
G01*
X142951093Y-100960745D01*
X143012699Y-100973000D01*
X144362301Y-100973000D01*
X144423907Y-100960745D01*
X144472120Y-100928531D01*
X144474116Y-100928400D01*
X144475227Y-100930063D01*
X144474894Y-100931305D01*
X144467743Y-100942007D01*
X144469030Y-100942867D01*
X144469915Y-100944661D01*
X144469490Y-100945768D01*
X144453447Y-100966119D01*
X144451074Y-101026574D01*
X144469622Y-101054332D01*
X144469753Y-101056328D01*
X144469070Y-101057106D01*
X144467743Y-101057993D01*
X144474894Y-101068695D01*
X144475025Y-101070691D01*
X144473362Y-101071802D01*
X144472120Y-101071469D01*
X144423907Y-101039255D01*
X144362301Y-101027000D01*
X143012699Y-101027000D01*
X142951093Y-101039255D01*
X142902880Y-101071469D01*
X142900884Y-101071600D01*
X142899773Y-101069937D01*
X142900106Y-101068695D01*
X142907257Y-101057993D01*
X142905970Y-101057133D01*
X142905085Y-101055339D01*
X142905510Y-101054232D01*
X142921553Y-101033881D01*
X142923926Y-100973426D01*
X142905378Y-100945668D01*
X142905247Y-100943672D01*
X142905930Y-100942894D01*
X142907257Y-100942007D01*
X142900106Y-100931305D01*
X142899975Y-100929309D01*
X142901638Y-100928198D01*
X142902880Y-100928531D01*
G37*
G36*
X129527880Y-100928531D02*
G01*
X129576093Y-100960745D01*
X129637699Y-100973000D01*
X130987301Y-100973000D01*
X131048907Y-100960745D01*
X131097120Y-100928531D01*
X131099116Y-100928400D01*
X131100227Y-100930063D01*
X131099894Y-100931305D01*
X131092743Y-100942007D01*
X131094030Y-100942867D01*
X131094915Y-100944661D01*
X131094490Y-100945768D01*
X131078447Y-100966119D01*
X131076074Y-101026574D01*
X131094622Y-101054332D01*
X131094753Y-101056328D01*
X131094070Y-101057106D01*
X131092743Y-101057993D01*
X131099894Y-101068695D01*
X131100025Y-101070691D01*
X131098362Y-101071802D01*
X131097120Y-101071469D01*
X131048907Y-101039255D01*
X130987301Y-101027000D01*
X129637699Y-101027000D01*
X129576093Y-101039255D01*
X129527880Y-101071469D01*
X129525884Y-101071600D01*
X129524773Y-101069937D01*
X129525106Y-101068695D01*
X129532257Y-101057993D01*
X129530970Y-101057133D01*
X129530085Y-101055339D01*
X129530510Y-101054232D01*
X129546553Y-101033881D01*
X129548926Y-100973426D01*
X129530378Y-100945668D01*
X129530247Y-100943672D01*
X129530930Y-100942894D01*
X129532257Y-100942007D01*
X129525106Y-100931305D01*
X129524975Y-100929309D01*
X129526638Y-100928198D01*
X129527880Y-100928531D01*
G37*
G36*
X142902880Y-100428531D02*
G01*
X142951093Y-100460745D01*
X143012699Y-100473000D01*
X144362301Y-100473000D01*
X144423907Y-100460745D01*
X144472120Y-100428531D01*
X144474116Y-100428400D01*
X144475227Y-100430063D01*
X144474894Y-100431305D01*
X144467743Y-100442007D01*
X144469030Y-100442867D01*
X144469915Y-100444661D01*
X144469490Y-100445768D01*
X144453447Y-100466119D01*
X144451074Y-100526574D01*
X144469622Y-100554332D01*
X144469753Y-100556328D01*
X144469070Y-100557106D01*
X144467743Y-100557993D01*
X144474894Y-100568695D01*
X144475025Y-100570691D01*
X144473362Y-100571802D01*
X144472120Y-100571469D01*
X144423907Y-100539255D01*
X144362301Y-100527000D01*
X143012699Y-100527000D01*
X142951093Y-100539255D01*
X142902880Y-100571469D01*
X142900884Y-100571600D01*
X142899773Y-100569937D01*
X142900106Y-100568695D01*
X142907257Y-100557993D01*
X142905970Y-100557133D01*
X142905085Y-100555339D01*
X142905510Y-100554232D01*
X142921553Y-100533881D01*
X142923926Y-100473426D01*
X142905378Y-100445668D01*
X142905247Y-100443672D01*
X142905930Y-100442894D01*
X142907257Y-100442007D01*
X142900106Y-100431305D01*
X142899975Y-100429309D01*
X142901638Y-100428198D01*
X142902880Y-100428531D01*
G37*
G36*
X129527880Y-100428531D02*
G01*
X129576093Y-100460745D01*
X129637699Y-100473000D01*
X130987301Y-100473000D01*
X131048907Y-100460745D01*
X131097120Y-100428531D01*
X131099116Y-100428400D01*
X131100227Y-100430063D01*
X131099894Y-100431305D01*
X131092743Y-100442007D01*
X131094030Y-100442867D01*
X131094915Y-100444661D01*
X131094490Y-100445768D01*
X131078447Y-100466119D01*
X131076074Y-100526574D01*
X131094622Y-100554332D01*
X131094753Y-100556328D01*
X131094070Y-100557106D01*
X131092743Y-100557993D01*
X131099894Y-100568695D01*
X131100025Y-100570691D01*
X131098362Y-100571802D01*
X131097120Y-100571469D01*
X131048907Y-100539255D01*
X130987301Y-100527000D01*
X129637699Y-100527000D01*
X129576093Y-100539255D01*
X129527880Y-100571469D01*
X129525884Y-100571600D01*
X129524773Y-100569937D01*
X129525106Y-100568695D01*
X129532257Y-100557993D01*
X129530970Y-100557133D01*
X129530085Y-100555339D01*
X129530510Y-100554232D01*
X129546553Y-100533881D01*
X129548926Y-100473426D01*
X129530378Y-100445668D01*
X129530247Y-100443672D01*
X129530930Y-100442894D01*
X129532257Y-100442007D01*
X129525106Y-100431305D01*
X129524975Y-100429309D01*
X129526638Y-100428198D01*
X129527880Y-100428531D01*
G37*
G36*
X142902880Y-99928531D02*
G01*
X142951093Y-99960745D01*
X143012699Y-99973000D01*
X144362301Y-99973000D01*
X144423907Y-99960745D01*
X144472120Y-99928531D01*
X144474116Y-99928400D01*
X144475227Y-99930063D01*
X144474894Y-99931305D01*
X144467743Y-99942007D01*
X144469030Y-99942867D01*
X144469915Y-99944661D01*
X144469490Y-99945768D01*
X144453447Y-99966119D01*
X144451074Y-100026574D01*
X144469622Y-100054332D01*
X144469753Y-100056328D01*
X144469070Y-100057106D01*
X144467743Y-100057993D01*
X144474894Y-100068695D01*
X144475025Y-100070691D01*
X144473362Y-100071802D01*
X144472120Y-100071469D01*
X144423907Y-100039255D01*
X144362301Y-100027000D01*
X143012699Y-100027000D01*
X142951093Y-100039255D01*
X142902880Y-100071469D01*
X142900884Y-100071600D01*
X142899773Y-100069937D01*
X142900106Y-100068695D01*
X142907257Y-100057993D01*
X142905970Y-100057133D01*
X142905085Y-100055339D01*
X142905510Y-100054232D01*
X142921553Y-100033881D01*
X142923926Y-99973426D01*
X142905378Y-99945668D01*
X142905247Y-99943672D01*
X142905930Y-99942894D01*
X142907257Y-99942007D01*
X142900106Y-99931305D01*
X142899975Y-99929309D01*
X142901638Y-99928198D01*
X142902880Y-99928531D01*
G37*
G36*
X129527880Y-99928531D02*
G01*
X129576093Y-99960745D01*
X129637699Y-99973000D01*
X130987301Y-99973000D01*
X131048907Y-99960745D01*
X131097120Y-99928531D01*
X131099116Y-99928400D01*
X131100227Y-99930063D01*
X131099894Y-99931305D01*
X131092743Y-99942007D01*
X131094030Y-99942867D01*
X131094915Y-99944661D01*
X131094490Y-99945768D01*
X131078447Y-99966119D01*
X131076074Y-100026574D01*
X131094622Y-100054332D01*
X131094753Y-100056328D01*
X131094070Y-100057106D01*
X131092743Y-100057993D01*
X131099894Y-100068695D01*
X131100025Y-100070691D01*
X131098362Y-100071802D01*
X131097120Y-100071469D01*
X131048907Y-100039255D01*
X130987301Y-100027000D01*
X129637699Y-100027000D01*
X129576093Y-100039255D01*
X129527880Y-100071469D01*
X129525884Y-100071600D01*
X129524773Y-100069937D01*
X129525106Y-100068695D01*
X129532257Y-100057993D01*
X129530970Y-100057133D01*
X129530085Y-100055339D01*
X129530510Y-100054232D01*
X129546553Y-100033881D01*
X129548926Y-99973426D01*
X129530378Y-99945668D01*
X129530247Y-99943672D01*
X129530930Y-99942894D01*
X129532257Y-99942007D01*
X129525106Y-99931305D01*
X129524975Y-99929309D01*
X129526638Y-99928198D01*
X129527880Y-99928531D01*
G37*
G36*
X129527880Y-99428531D02*
G01*
X129576093Y-99460745D01*
X129637699Y-99473000D01*
X130987301Y-99473000D01*
X131048907Y-99460745D01*
X131097120Y-99428531D01*
X131099116Y-99428400D01*
X131100227Y-99430063D01*
X131099894Y-99431305D01*
X131092743Y-99442007D01*
X131094030Y-99442867D01*
X131094915Y-99444661D01*
X131094490Y-99445768D01*
X131078447Y-99466119D01*
X131076074Y-99526574D01*
X131094622Y-99554332D01*
X131094753Y-99556328D01*
X131094070Y-99557106D01*
X131092743Y-99557993D01*
X131099894Y-99568695D01*
X131100025Y-99570691D01*
X131098362Y-99571802D01*
X131097120Y-99571469D01*
X131048907Y-99539255D01*
X130987301Y-99527000D01*
X129637699Y-99527000D01*
X129576093Y-99539255D01*
X129527880Y-99571469D01*
X129525884Y-99571600D01*
X129524773Y-99569937D01*
X129525106Y-99568695D01*
X129532257Y-99557993D01*
X129530970Y-99557133D01*
X129530085Y-99555339D01*
X129530510Y-99554232D01*
X129546553Y-99533881D01*
X129548926Y-99473426D01*
X129530378Y-99445668D01*
X129530247Y-99443672D01*
X129530930Y-99442894D01*
X129532257Y-99442007D01*
X129525106Y-99431305D01*
X129524975Y-99429309D01*
X129526638Y-99428198D01*
X129527880Y-99428531D01*
G37*
G36*
X142902880Y-99428531D02*
G01*
X142951093Y-99460745D01*
X143012699Y-99473000D01*
X144362301Y-99473000D01*
X144423907Y-99460745D01*
X144472120Y-99428531D01*
X144474116Y-99428400D01*
X144475227Y-99430063D01*
X144474894Y-99431305D01*
X144467743Y-99442007D01*
X144469030Y-99442867D01*
X144469915Y-99444661D01*
X144469490Y-99445768D01*
X144453447Y-99466119D01*
X144451074Y-99526574D01*
X144469622Y-99554332D01*
X144469753Y-99556328D01*
X144469070Y-99557106D01*
X144467743Y-99557993D01*
X144474894Y-99568695D01*
X144475025Y-99570691D01*
X144473362Y-99571802D01*
X144472120Y-99571469D01*
X144423907Y-99539255D01*
X144362301Y-99527000D01*
X143012699Y-99527000D01*
X142951093Y-99539255D01*
X142902880Y-99571469D01*
X142900884Y-99571600D01*
X142899773Y-99569937D01*
X142900106Y-99568695D01*
X142907257Y-99557993D01*
X142905970Y-99557133D01*
X142905085Y-99555339D01*
X142905510Y-99554232D01*
X142921553Y-99533881D01*
X142923926Y-99473426D01*
X142905378Y-99445668D01*
X142905247Y-99443672D01*
X142905930Y-99442894D01*
X142907257Y-99442007D01*
X142900106Y-99431305D01*
X142899975Y-99429309D01*
X142901638Y-99428198D01*
X142902880Y-99428531D01*
G37*
G36*
X142902880Y-98928531D02*
G01*
X142951093Y-98960745D01*
X143012699Y-98973000D01*
X144362301Y-98973000D01*
X144423907Y-98960745D01*
X144472120Y-98928531D01*
X144474116Y-98928400D01*
X144475227Y-98930063D01*
X144474894Y-98931305D01*
X144467743Y-98942007D01*
X144469030Y-98942867D01*
X144469915Y-98944661D01*
X144469490Y-98945768D01*
X144453447Y-98966119D01*
X144451074Y-99026574D01*
X144469622Y-99054332D01*
X144469753Y-99056328D01*
X144469070Y-99057106D01*
X144467743Y-99057993D01*
X144474894Y-99068695D01*
X144475025Y-99070691D01*
X144473362Y-99071802D01*
X144472120Y-99071469D01*
X144423907Y-99039255D01*
X144362301Y-99027000D01*
X143012699Y-99027000D01*
X142951093Y-99039255D01*
X142902880Y-99071469D01*
X142900884Y-99071600D01*
X142899773Y-99069937D01*
X142900106Y-99068695D01*
X142907257Y-99057993D01*
X142905970Y-99057133D01*
X142905085Y-99055339D01*
X142905510Y-99054232D01*
X142921553Y-99033881D01*
X142923926Y-98973426D01*
X142905378Y-98945668D01*
X142905247Y-98943672D01*
X142905930Y-98942894D01*
X142907257Y-98942007D01*
X142900106Y-98931305D01*
X142899975Y-98929309D01*
X142901638Y-98928198D01*
X142902880Y-98928531D01*
G37*
G36*
X129527880Y-98928531D02*
G01*
X129576093Y-98960745D01*
X129637699Y-98973000D01*
X130987301Y-98973000D01*
X131048907Y-98960745D01*
X131097120Y-98928531D01*
X131099116Y-98928400D01*
X131100227Y-98930063D01*
X131099894Y-98931305D01*
X131092743Y-98942007D01*
X131094030Y-98942867D01*
X131094915Y-98944661D01*
X131094490Y-98945768D01*
X131078447Y-98966119D01*
X131076074Y-99026574D01*
X131094622Y-99054332D01*
X131094753Y-99056328D01*
X131094070Y-99057106D01*
X131092743Y-99057993D01*
X131099894Y-99068695D01*
X131100025Y-99070691D01*
X131098362Y-99071802D01*
X131097120Y-99071469D01*
X131048907Y-99039255D01*
X130987301Y-99027000D01*
X129637699Y-99027000D01*
X129576093Y-99039255D01*
X129527880Y-99071469D01*
X129525884Y-99071600D01*
X129524773Y-99069937D01*
X129525106Y-99068695D01*
X129532257Y-99057993D01*
X129530970Y-99057133D01*
X129530085Y-99055339D01*
X129530510Y-99054232D01*
X129546553Y-99033881D01*
X129548926Y-98973426D01*
X129530378Y-98945668D01*
X129530247Y-98943672D01*
X129530930Y-98942894D01*
X129532257Y-98942007D01*
X129525106Y-98931305D01*
X129524975Y-98929309D01*
X129526638Y-98928198D01*
X129527880Y-98928531D01*
G37*
G36*
X134931305Y-96025106D02*
G01*
X134942007Y-96032257D01*
X134942867Y-96030970D01*
X134944661Y-96030085D01*
X134945768Y-96030510D01*
X134966119Y-96046553D01*
X135026574Y-96048926D01*
X135054332Y-96030378D01*
X135056328Y-96030247D01*
X135057106Y-96030930D01*
X135057993Y-96032257D01*
X135068695Y-96025106D01*
X135070691Y-96024975D01*
X135071802Y-96026638D01*
X135071469Y-96027880D01*
X135039255Y-96076093D01*
X135027000Y-96137699D01*
X135027000Y-97487301D01*
X135039255Y-97548907D01*
X135071469Y-97597120D01*
X135071600Y-97599116D01*
X135069937Y-97600227D01*
X135068695Y-97599894D01*
X135057993Y-97592743D01*
X135057133Y-97594030D01*
X135055339Y-97594915D01*
X135054232Y-97594490D01*
X135033881Y-97578447D01*
X134973426Y-97576074D01*
X134945668Y-97594622D01*
X134943672Y-97594753D01*
X134942894Y-97594070D01*
X134942007Y-97592743D01*
X134931305Y-97599894D01*
X134929309Y-97600025D01*
X134928198Y-97598362D01*
X134928531Y-97597120D01*
X134960745Y-97548907D01*
X134973000Y-97487301D01*
X134973000Y-96137699D01*
X134960745Y-96076093D01*
X134928531Y-96027880D01*
X134928400Y-96025884D01*
X134930063Y-96024773D01*
X134931305Y-96025106D01*
G37*
G36*
X137931305Y-96025106D02*
G01*
X137942007Y-96032257D01*
X137942867Y-96030970D01*
X137944661Y-96030085D01*
X137945768Y-96030510D01*
X137966119Y-96046553D01*
X138026574Y-96048926D01*
X138054332Y-96030378D01*
X138056328Y-96030247D01*
X138057106Y-96030930D01*
X138057993Y-96032257D01*
X138068695Y-96025106D01*
X138070691Y-96024975D01*
X138071802Y-96026638D01*
X138071469Y-96027880D01*
X138039255Y-96076093D01*
X138027000Y-96137699D01*
X138027000Y-97487301D01*
X138039255Y-97548907D01*
X138071469Y-97597120D01*
X138071600Y-97599116D01*
X138069937Y-97600227D01*
X138068695Y-97599894D01*
X138057993Y-97592743D01*
X138057133Y-97594030D01*
X138055339Y-97594915D01*
X138054232Y-97594490D01*
X138033881Y-97578447D01*
X137973426Y-97576074D01*
X137945668Y-97594622D01*
X137943672Y-97594753D01*
X137942894Y-97594070D01*
X137942007Y-97592743D01*
X137931305Y-97599894D01*
X137929309Y-97600025D01*
X137928198Y-97598362D01*
X137928531Y-97597120D01*
X137960745Y-97548907D01*
X137973000Y-97487301D01*
X137973000Y-96137699D01*
X137960745Y-96076093D01*
X137928531Y-96027880D01*
X137928400Y-96025884D01*
X137930063Y-96024773D01*
X137931305Y-96025106D01*
G37*
G36*
X133931305Y-96025106D02*
G01*
X133942007Y-96032257D01*
X133942867Y-96030970D01*
X133944661Y-96030085D01*
X133945768Y-96030510D01*
X133966119Y-96046553D01*
X134026574Y-96048926D01*
X134054332Y-96030378D01*
X134056328Y-96030247D01*
X134057106Y-96030930D01*
X134057993Y-96032257D01*
X134068695Y-96025106D01*
X134070691Y-96024975D01*
X134071802Y-96026638D01*
X134071469Y-96027880D01*
X134039255Y-96076093D01*
X134027000Y-96137699D01*
X134027000Y-97487301D01*
X134039255Y-97548907D01*
X134071469Y-97597120D01*
X134071600Y-97599116D01*
X134069937Y-97600227D01*
X134068695Y-97599894D01*
X134057993Y-97592743D01*
X134057133Y-97594030D01*
X134055339Y-97594915D01*
X134054232Y-97594490D01*
X134033881Y-97578447D01*
X133973426Y-97576074D01*
X133945668Y-97594622D01*
X133943672Y-97594753D01*
X133942894Y-97594070D01*
X133942007Y-97592743D01*
X133931305Y-97599894D01*
X133929309Y-97600025D01*
X133928198Y-97598362D01*
X133928531Y-97597120D01*
X133960745Y-97548907D01*
X133973000Y-97487301D01*
X133973000Y-96137699D01*
X133960745Y-96076093D01*
X133928531Y-96027880D01*
X133928400Y-96025884D01*
X133930063Y-96024773D01*
X133931305Y-96025106D01*
G37*
G36*
X138431305Y-96025106D02*
G01*
X138442007Y-96032257D01*
X138442867Y-96030970D01*
X138444661Y-96030085D01*
X138445768Y-96030510D01*
X138466119Y-96046553D01*
X138526574Y-96048926D01*
X138554332Y-96030378D01*
X138556328Y-96030247D01*
X138557106Y-96030930D01*
X138557993Y-96032257D01*
X138568695Y-96025106D01*
X138570691Y-96024975D01*
X138571802Y-96026638D01*
X138571469Y-96027880D01*
X138539255Y-96076093D01*
X138527000Y-96137699D01*
X138527000Y-97487301D01*
X138539255Y-97548907D01*
X138571469Y-97597120D01*
X138571600Y-97599116D01*
X138569937Y-97600227D01*
X138568695Y-97599894D01*
X138557993Y-97592743D01*
X138557133Y-97594030D01*
X138555339Y-97594915D01*
X138554232Y-97594490D01*
X138533881Y-97578447D01*
X138473426Y-97576074D01*
X138445668Y-97594622D01*
X138443672Y-97594753D01*
X138442894Y-97594070D01*
X138442007Y-97592743D01*
X138431305Y-97599894D01*
X138429309Y-97600025D01*
X138428198Y-97598362D01*
X138428531Y-97597120D01*
X138460745Y-97548907D01*
X138473000Y-97487301D01*
X138473000Y-96137699D01*
X138460745Y-96076093D01*
X138428531Y-96027880D01*
X138428400Y-96025884D01*
X138430063Y-96024773D01*
X138431305Y-96025106D01*
G37*
G36*
X137431305Y-96025106D02*
G01*
X137442007Y-96032257D01*
X137442867Y-96030970D01*
X137444661Y-96030085D01*
X137445768Y-96030510D01*
X137466119Y-96046553D01*
X137526574Y-96048926D01*
X137554332Y-96030378D01*
X137556328Y-96030247D01*
X137557106Y-96030930D01*
X137557993Y-96032257D01*
X137568695Y-96025106D01*
X137570691Y-96024975D01*
X137571802Y-96026638D01*
X137571469Y-96027880D01*
X137539255Y-96076093D01*
X137527000Y-96137699D01*
X137527000Y-97487301D01*
X137539255Y-97548907D01*
X137571469Y-97597120D01*
X137571600Y-97599116D01*
X137569937Y-97600227D01*
X137568695Y-97599894D01*
X137557993Y-97592743D01*
X137557133Y-97594030D01*
X137555339Y-97594915D01*
X137554232Y-97594490D01*
X137533881Y-97578447D01*
X137473426Y-97576074D01*
X137445668Y-97594622D01*
X137443672Y-97594753D01*
X137442894Y-97594070D01*
X137442007Y-97592743D01*
X137431305Y-97599894D01*
X137429309Y-97600025D01*
X137428198Y-97598362D01*
X137428531Y-97597120D01*
X137460745Y-97548907D01*
X137473000Y-97487301D01*
X137473000Y-96137699D01*
X137460745Y-96076093D01*
X137428531Y-96027880D01*
X137428400Y-96025884D01*
X137430063Y-96024773D01*
X137431305Y-96025106D01*
G37*
G36*
X132931305Y-96025106D02*
G01*
X132942007Y-96032257D01*
X132942867Y-96030970D01*
X132944661Y-96030085D01*
X132945768Y-96030510D01*
X132966119Y-96046553D01*
X133026574Y-96048926D01*
X133054332Y-96030378D01*
X133056328Y-96030247D01*
X133057106Y-96030930D01*
X133057993Y-96032257D01*
X133068695Y-96025106D01*
X133070691Y-96024975D01*
X133071802Y-96026638D01*
X133071469Y-96027880D01*
X133039255Y-96076093D01*
X133027000Y-96137699D01*
X133027000Y-97487301D01*
X133039255Y-97548907D01*
X133071469Y-97597120D01*
X133071600Y-97599116D01*
X133069937Y-97600227D01*
X133068695Y-97599894D01*
X133057993Y-97592743D01*
X133057133Y-97594030D01*
X133055339Y-97594915D01*
X133054232Y-97594490D01*
X133033881Y-97578447D01*
X132973426Y-97576074D01*
X132945668Y-97594622D01*
X132943672Y-97594753D01*
X132942894Y-97594070D01*
X132942007Y-97592743D01*
X132931305Y-97599894D01*
X132929309Y-97600025D01*
X132928198Y-97598362D01*
X132928531Y-97597120D01*
X132960745Y-97548907D01*
X132973000Y-97487301D01*
X132973000Y-96137699D01*
X132960745Y-96076093D01*
X132928531Y-96027880D01*
X132928400Y-96025884D01*
X132930063Y-96024773D01*
X132931305Y-96025106D01*
G37*
G36*
X136931305Y-96025106D02*
G01*
X136942007Y-96032257D01*
X136942867Y-96030970D01*
X136944661Y-96030085D01*
X136945768Y-96030510D01*
X136966119Y-96046553D01*
X137026574Y-96048926D01*
X137054332Y-96030378D01*
X137056328Y-96030247D01*
X137057106Y-96030930D01*
X137057993Y-96032257D01*
X137068695Y-96025106D01*
X137070691Y-96024975D01*
X137071802Y-96026638D01*
X137071469Y-96027880D01*
X137039255Y-96076093D01*
X137027000Y-96137699D01*
X137027000Y-97487301D01*
X137039255Y-97548907D01*
X137071469Y-97597120D01*
X137071600Y-97599116D01*
X137069937Y-97600227D01*
X137068695Y-97599894D01*
X137057993Y-97592743D01*
X137057133Y-97594030D01*
X137055339Y-97594915D01*
X137054232Y-97594490D01*
X137033881Y-97578447D01*
X136973426Y-97576074D01*
X136945668Y-97594622D01*
X136943672Y-97594753D01*
X136942894Y-97594070D01*
X136942007Y-97592743D01*
X136931305Y-97599894D01*
X136929309Y-97600025D01*
X136928198Y-97598362D01*
X136928531Y-97597120D01*
X136960745Y-97548907D01*
X136973000Y-97487301D01*
X136973000Y-96137699D01*
X136960745Y-96076093D01*
X136928531Y-96027880D01*
X136928400Y-96025884D01*
X136930063Y-96024773D01*
X136931305Y-96025106D01*
G37*
G36*
X140431305Y-96025106D02*
G01*
X140442007Y-96032257D01*
X140442867Y-96030970D01*
X140444661Y-96030085D01*
X140445768Y-96030510D01*
X140466119Y-96046553D01*
X140526574Y-96048926D01*
X140554332Y-96030378D01*
X140556328Y-96030247D01*
X140557106Y-96030930D01*
X140557993Y-96032257D01*
X140568695Y-96025106D01*
X140570691Y-96024975D01*
X140571802Y-96026638D01*
X140571469Y-96027880D01*
X140539255Y-96076093D01*
X140527000Y-96137699D01*
X140527000Y-97487301D01*
X140539255Y-97548907D01*
X140571469Y-97597120D01*
X140571600Y-97599116D01*
X140569937Y-97600227D01*
X140568695Y-97599894D01*
X140557993Y-97592743D01*
X140557133Y-97594030D01*
X140555339Y-97594915D01*
X140554232Y-97594490D01*
X140533881Y-97578447D01*
X140473426Y-97576074D01*
X140445668Y-97594622D01*
X140443672Y-97594753D01*
X140442894Y-97594070D01*
X140442007Y-97592743D01*
X140431305Y-97599894D01*
X140429309Y-97600025D01*
X140428198Y-97598362D01*
X140428531Y-97597120D01*
X140460745Y-97548907D01*
X140473000Y-97487301D01*
X140473000Y-96137699D01*
X140460745Y-96076093D01*
X140428531Y-96027880D01*
X140428400Y-96025884D01*
X140430063Y-96024773D01*
X140431305Y-96025106D01*
G37*
G36*
X133431305Y-96025106D02*
G01*
X133442007Y-96032257D01*
X133442867Y-96030970D01*
X133444661Y-96030085D01*
X133445768Y-96030510D01*
X133466119Y-96046553D01*
X133526574Y-96048926D01*
X133554332Y-96030378D01*
X133556328Y-96030247D01*
X133557106Y-96030930D01*
X133557993Y-96032257D01*
X133568695Y-96025106D01*
X133570691Y-96024975D01*
X133571802Y-96026638D01*
X133571469Y-96027880D01*
X133539255Y-96076093D01*
X133527000Y-96137699D01*
X133527000Y-97487301D01*
X133539255Y-97548907D01*
X133571469Y-97597120D01*
X133571600Y-97599116D01*
X133569937Y-97600227D01*
X133568695Y-97599894D01*
X133557993Y-97592743D01*
X133557133Y-97594030D01*
X133555339Y-97594915D01*
X133554232Y-97594490D01*
X133533881Y-97578447D01*
X133473426Y-97576074D01*
X133445668Y-97594622D01*
X133443672Y-97594753D01*
X133442894Y-97594070D01*
X133442007Y-97592743D01*
X133431305Y-97599894D01*
X133429309Y-97600025D01*
X133428198Y-97598362D01*
X133428531Y-97597120D01*
X133460745Y-97548907D01*
X133473000Y-97487301D01*
X133473000Y-96137699D01*
X133460745Y-96076093D01*
X133428531Y-96027880D01*
X133428400Y-96025884D01*
X133430063Y-96024773D01*
X133431305Y-96025106D01*
G37*
G36*
X135931305Y-96025106D02*
G01*
X135942007Y-96032257D01*
X135942867Y-96030970D01*
X135944661Y-96030085D01*
X135945768Y-96030510D01*
X135966119Y-96046553D01*
X136026574Y-96048926D01*
X136054332Y-96030378D01*
X136056328Y-96030247D01*
X136057106Y-96030930D01*
X136057993Y-96032257D01*
X136068695Y-96025106D01*
X136070691Y-96024975D01*
X136071802Y-96026638D01*
X136071469Y-96027880D01*
X136039255Y-96076093D01*
X136027000Y-96137699D01*
X136027000Y-97487301D01*
X136039255Y-97548907D01*
X136071469Y-97597120D01*
X136071600Y-97599116D01*
X136069937Y-97600227D01*
X136068695Y-97599894D01*
X136057993Y-97592743D01*
X136057133Y-97594030D01*
X136055339Y-97594915D01*
X136054232Y-97594490D01*
X136033881Y-97578447D01*
X135973426Y-97576074D01*
X135945668Y-97594622D01*
X135943672Y-97594753D01*
X135942894Y-97594070D01*
X135942007Y-97592743D01*
X135931305Y-97599894D01*
X135929309Y-97600025D01*
X135928198Y-97598362D01*
X135928531Y-97597120D01*
X135960745Y-97548907D01*
X135973000Y-97487301D01*
X135973000Y-96137699D01*
X135960745Y-96076093D01*
X135928531Y-96027880D01*
X135928400Y-96025884D01*
X135930063Y-96024773D01*
X135931305Y-96025106D01*
G37*
G36*
X139431305Y-96025106D02*
G01*
X139442007Y-96032257D01*
X139442867Y-96030970D01*
X139444661Y-96030085D01*
X139445768Y-96030510D01*
X139466119Y-96046553D01*
X139526574Y-96048926D01*
X139554332Y-96030378D01*
X139556328Y-96030247D01*
X139557106Y-96030930D01*
X139557993Y-96032257D01*
X139568695Y-96025106D01*
X139570691Y-96024975D01*
X139571802Y-96026638D01*
X139571469Y-96027880D01*
X139539255Y-96076093D01*
X139527000Y-96137699D01*
X139527000Y-97487301D01*
X139539255Y-97548907D01*
X139571469Y-97597120D01*
X139571600Y-97599116D01*
X139569937Y-97600227D01*
X139568695Y-97599894D01*
X139557993Y-97592743D01*
X139557133Y-97594030D01*
X139555339Y-97594915D01*
X139554232Y-97594490D01*
X139533881Y-97578447D01*
X139473426Y-97576074D01*
X139445668Y-97594622D01*
X139443672Y-97594753D01*
X139442894Y-97594070D01*
X139442007Y-97592743D01*
X139431305Y-97599894D01*
X139429309Y-97600025D01*
X139428198Y-97598362D01*
X139428531Y-97597120D01*
X139460745Y-97548907D01*
X139473000Y-97487301D01*
X139473000Y-96137699D01*
X139460745Y-96076093D01*
X139428531Y-96027880D01*
X139428400Y-96025884D01*
X139430063Y-96024773D01*
X139431305Y-96025106D01*
G37*
G36*
X135431305Y-96025106D02*
G01*
X135442007Y-96032257D01*
X135442867Y-96030970D01*
X135444661Y-96030085D01*
X135445768Y-96030510D01*
X135466119Y-96046553D01*
X135526574Y-96048926D01*
X135554332Y-96030378D01*
X135556328Y-96030247D01*
X135557106Y-96030930D01*
X135557993Y-96032257D01*
X135568695Y-96025106D01*
X135570691Y-96024975D01*
X135571802Y-96026638D01*
X135571469Y-96027880D01*
X135539255Y-96076093D01*
X135527000Y-96137699D01*
X135527000Y-97487301D01*
X135539255Y-97548907D01*
X135571469Y-97597120D01*
X135571600Y-97599116D01*
X135569937Y-97600227D01*
X135568695Y-97599894D01*
X135557993Y-97592743D01*
X135557133Y-97594030D01*
X135555339Y-97594915D01*
X135554232Y-97594490D01*
X135533881Y-97578447D01*
X135473426Y-97576074D01*
X135445668Y-97594622D01*
X135443672Y-97594753D01*
X135442894Y-97594070D01*
X135442007Y-97592743D01*
X135431305Y-97599894D01*
X135429309Y-97600025D01*
X135428198Y-97598362D01*
X135428531Y-97597120D01*
X135460745Y-97548907D01*
X135473000Y-97487301D01*
X135473000Y-96137699D01*
X135460745Y-96076093D01*
X135428531Y-96027880D01*
X135428400Y-96025884D01*
X135430063Y-96024773D01*
X135431305Y-96025106D01*
G37*
G36*
X140931305Y-96025106D02*
G01*
X140942007Y-96032257D01*
X140942867Y-96030970D01*
X140944661Y-96030085D01*
X140945768Y-96030510D01*
X140966119Y-96046553D01*
X141026574Y-96048926D01*
X141054332Y-96030378D01*
X141056328Y-96030247D01*
X141057106Y-96030930D01*
X141057993Y-96032257D01*
X141068695Y-96025106D01*
X141070691Y-96024975D01*
X141071802Y-96026638D01*
X141071469Y-96027880D01*
X141039255Y-96076093D01*
X141027000Y-96137699D01*
X141027000Y-97487301D01*
X141039255Y-97548907D01*
X141071469Y-97597120D01*
X141071600Y-97599116D01*
X141069937Y-97600227D01*
X141068695Y-97599894D01*
X141057993Y-97592743D01*
X141057133Y-97594030D01*
X141055339Y-97594915D01*
X141054232Y-97594490D01*
X141033881Y-97578447D01*
X140973426Y-97576074D01*
X140945668Y-97594622D01*
X140943672Y-97594753D01*
X140942894Y-97594070D01*
X140942007Y-97592743D01*
X140931305Y-97599894D01*
X140929309Y-97600025D01*
X140928198Y-97598362D01*
X140928531Y-97597120D01*
X140960745Y-97548907D01*
X140973000Y-97487301D01*
X140973000Y-96137699D01*
X140960745Y-96076093D01*
X140928531Y-96027880D01*
X140928400Y-96025884D01*
X140930063Y-96024773D01*
X140931305Y-96025106D01*
G37*
G36*
X138931305Y-96025106D02*
G01*
X138942007Y-96032257D01*
X138942867Y-96030970D01*
X138944661Y-96030085D01*
X138945768Y-96030510D01*
X138966119Y-96046553D01*
X139026574Y-96048926D01*
X139054332Y-96030378D01*
X139056328Y-96030247D01*
X139057106Y-96030930D01*
X139057993Y-96032257D01*
X139068695Y-96025106D01*
X139070691Y-96024975D01*
X139071802Y-96026638D01*
X139071469Y-96027880D01*
X139039255Y-96076093D01*
X139027000Y-96137699D01*
X139027000Y-97487301D01*
X139039255Y-97548907D01*
X139071469Y-97597120D01*
X139071600Y-97599116D01*
X139069937Y-97600227D01*
X139068695Y-97599894D01*
X139057993Y-97592743D01*
X139057133Y-97594030D01*
X139055339Y-97594915D01*
X139054232Y-97594490D01*
X139033881Y-97578447D01*
X138973426Y-97576074D01*
X138945668Y-97594622D01*
X138943672Y-97594753D01*
X138942894Y-97594070D01*
X138942007Y-97592743D01*
X138931305Y-97599894D01*
X138929309Y-97600025D01*
X138928198Y-97598362D01*
X138928531Y-97597120D01*
X138960745Y-97548907D01*
X138973000Y-97487301D01*
X138973000Y-96137699D01*
X138960745Y-96076093D01*
X138928531Y-96027880D01*
X138928400Y-96025884D01*
X138930063Y-96024773D01*
X138931305Y-96025106D01*
G37*
G36*
X134431305Y-96025106D02*
G01*
X134442007Y-96032257D01*
X134442867Y-96030970D01*
X134444661Y-96030085D01*
X134445768Y-96030510D01*
X134466119Y-96046553D01*
X134526574Y-96048926D01*
X134554332Y-96030378D01*
X134556328Y-96030247D01*
X134557106Y-96030930D01*
X134557993Y-96032257D01*
X134568695Y-96025106D01*
X134570691Y-96024975D01*
X134571802Y-96026638D01*
X134571469Y-96027880D01*
X134539255Y-96076093D01*
X134527000Y-96137699D01*
X134527000Y-97487301D01*
X134539255Y-97548907D01*
X134571469Y-97597120D01*
X134571600Y-97599116D01*
X134569937Y-97600227D01*
X134568695Y-97599894D01*
X134557993Y-97592743D01*
X134557133Y-97594030D01*
X134555339Y-97594915D01*
X134554232Y-97594490D01*
X134533881Y-97578447D01*
X134473426Y-97576074D01*
X134445668Y-97594622D01*
X134443672Y-97594753D01*
X134442894Y-97594070D01*
X134442007Y-97592743D01*
X134431305Y-97599894D01*
X134429309Y-97600025D01*
X134428198Y-97598362D01*
X134428531Y-97597120D01*
X134460745Y-97548907D01*
X134473000Y-97487301D01*
X134473000Y-96137699D01*
X134460745Y-96076093D01*
X134428531Y-96027880D01*
X134428400Y-96025884D01*
X134430063Y-96024773D01*
X134431305Y-96025106D01*
G37*
G36*
X141431305Y-96025106D02*
G01*
X141442007Y-96032257D01*
X141442867Y-96030970D01*
X141444661Y-96030085D01*
X141445768Y-96030510D01*
X141466119Y-96046553D01*
X141526574Y-96048926D01*
X141554332Y-96030378D01*
X141556328Y-96030247D01*
X141557106Y-96030930D01*
X141557993Y-96032257D01*
X141568695Y-96025106D01*
X141570691Y-96024975D01*
X141571802Y-96026638D01*
X141571469Y-96027880D01*
X141539255Y-96076093D01*
X141527000Y-96137699D01*
X141527000Y-97487301D01*
X141539255Y-97548907D01*
X141571469Y-97597120D01*
X141571600Y-97599116D01*
X141569937Y-97600227D01*
X141568695Y-97599894D01*
X141557993Y-97592743D01*
X141557133Y-97594030D01*
X141555339Y-97594915D01*
X141554232Y-97594490D01*
X141533881Y-97578447D01*
X141473426Y-97576074D01*
X141445668Y-97594622D01*
X141443672Y-97594753D01*
X141442894Y-97594070D01*
X141442007Y-97592743D01*
X141431305Y-97599894D01*
X141429309Y-97600025D01*
X141428198Y-97598362D01*
X141428531Y-97597120D01*
X141460745Y-97548907D01*
X141473000Y-97487301D01*
X141473000Y-96137699D01*
X141460745Y-96076093D01*
X141428531Y-96027880D01*
X141428400Y-96025884D01*
X141430063Y-96024773D01*
X141431305Y-96025106D01*
G37*
G36*
X136431305Y-96025106D02*
G01*
X136442007Y-96032257D01*
X136442867Y-96030970D01*
X136444661Y-96030085D01*
X136445768Y-96030510D01*
X136466119Y-96046553D01*
X136526574Y-96048926D01*
X136554332Y-96030378D01*
X136556328Y-96030247D01*
X136557106Y-96030930D01*
X136557993Y-96032257D01*
X136568695Y-96025106D01*
X136570691Y-96024975D01*
X136571802Y-96026638D01*
X136571469Y-96027880D01*
X136539255Y-96076093D01*
X136527000Y-96137699D01*
X136527000Y-97487301D01*
X136539255Y-97548907D01*
X136571469Y-97597120D01*
X136571600Y-97599116D01*
X136569937Y-97600227D01*
X136568695Y-97599894D01*
X136557993Y-97592743D01*
X136557133Y-97594030D01*
X136555339Y-97594915D01*
X136554232Y-97594490D01*
X136533881Y-97578447D01*
X136473426Y-97576074D01*
X136445668Y-97594622D01*
X136443672Y-97594753D01*
X136442894Y-97594070D01*
X136442007Y-97592743D01*
X136431305Y-97599894D01*
X136429309Y-97600025D01*
X136428198Y-97598362D01*
X136428531Y-97597120D01*
X136460745Y-97548907D01*
X136473000Y-97487301D01*
X136473000Y-96137699D01*
X136460745Y-96076093D01*
X136428531Y-96027880D01*
X136428400Y-96025884D01*
X136430063Y-96024773D01*
X136431305Y-96025106D01*
G37*
G36*
X139931305Y-96025106D02*
G01*
X139942007Y-96032257D01*
X139942867Y-96030970D01*
X139944661Y-96030085D01*
X139945768Y-96030510D01*
X139966119Y-96046553D01*
X140026574Y-96048926D01*
X140054332Y-96030378D01*
X140056328Y-96030247D01*
X140057106Y-96030930D01*
X140057993Y-96032257D01*
X140068695Y-96025106D01*
X140070691Y-96024975D01*
X140071802Y-96026638D01*
X140071469Y-96027880D01*
X140039255Y-96076093D01*
X140027000Y-96137699D01*
X140027000Y-97487301D01*
X140039255Y-97548907D01*
X140071469Y-97597120D01*
X140071600Y-97599116D01*
X140069937Y-97600227D01*
X140068695Y-97599894D01*
X140057993Y-97592743D01*
X140057133Y-97594030D01*
X140055339Y-97594915D01*
X140054232Y-97594490D01*
X140033881Y-97578447D01*
X139973426Y-97576074D01*
X139945668Y-97594622D01*
X139943672Y-97594753D01*
X139942894Y-97594070D01*
X139942007Y-97592743D01*
X139931305Y-97599894D01*
X139929309Y-97600025D01*
X139928198Y-97598362D01*
X139928531Y-97597120D01*
X139960745Y-97548907D01*
X139973000Y-97487301D01*
X139973000Y-96137699D01*
X139960745Y-96076093D01*
X139928531Y-96027880D01*
X139928400Y-96025884D01*
X139930063Y-96024773D01*
X139931305Y-96025106D01*
G37*
G36*
X132431305Y-96025106D02*
G01*
X132442007Y-96032257D01*
X132442867Y-96030970D01*
X132444661Y-96030085D01*
X132445768Y-96030510D01*
X132466119Y-96046553D01*
X132526574Y-96048926D01*
X132554332Y-96030378D01*
X132556328Y-96030247D01*
X132557106Y-96030930D01*
X132557993Y-96032257D01*
X132568695Y-96025106D01*
X132570691Y-96024975D01*
X132571802Y-96026638D01*
X132571469Y-96027880D01*
X132539255Y-96076093D01*
X132527000Y-96137699D01*
X132527000Y-97487301D01*
X132539255Y-97548907D01*
X132571469Y-97597120D01*
X132571600Y-97599116D01*
X132569937Y-97600227D01*
X132568695Y-97599894D01*
X132557993Y-97592743D01*
X132557133Y-97594030D01*
X132555339Y-97594915D01*
X132554232Y-97594490D01*
X132533881Y-97578447D01*
X132473426Y-97576074D01*
X132445668Y-97594622D01*
X132443672Y-97594753D01*
X132442894Y-97594070D01*
X132442007Y-97592743D01*
X132431305Y-97599894D01*
X132429309Y-97600025D01*
X132428198Y-97598362D01*
X132428531Y-97597120D01*
X132460745Y-97548907D01*
X132473000Y-97487301D01*
X132473000Y-96137699D01*
X132460745Y-96076093D01*
X132428531Y-96027880D01*
X132428400Y-96025884D01*
X132430063Y-96024773D01*
X132431305Y-96025106D01*
G37*
M02*
