G04 #@! TF.GenerationSoftware,KiCad,Pcbnew,(6.0.7)*
G04 #@! TF.CreationDate,2022-09-17T20:23:59+02:00*
G04 #@! TF.ProjectId,F5418,46353431-382e-46b6-9963-61645f706362,rev?*
G04 #@! TF.SameCoordinates,Original*
G04 #@! TF.FileFunction,Soldermask,Bot*
G04 #@! TF.FilePolarity,Negative*
%FSLAX46Y46*%
G04 Gerber Fmt 4.6, Leading zero omitted, Abs format (unit mm)*
G04 Created by KiCad (PCBNEW (6.0.7)) date 2022-09-17 20:23:59*
%MOMM*%
%LPD*%
G01*
G04 APERTURE LIST*
G04 Aperture macros list*
%AMRoundRect*
0 Rectangle with rounded corners*
0 $1 Rounding radius*
0 $2 $3 $4 $5 $6 $7 $8 $9 X,Y pos of 4 corners*
0 Add a 4 corners polygon primitive as box body*
4,1,4,$2,$3,$4,$5,$6,$7,$8,$9,$2,$3,0*
0 Add four circle primitives for the rounded corners*
1,1,$1+$1,$2,$3*
1,1,$1+$1,$4,$5*
1,1,$1+$1,$6,$7*
1,1,$1+$1,$8,$9*
0 Add four rect primitives between the rounded corners*
20,1,$1+$1,$2,$3,$4,$5,0*
20,1,$1+$1,$4,$5,$6,$7,0*
20,1,$1+$1,$6,$7,$8,$9,0*
20,1,$1+$1,$8,$9,$2,$3,0*%
G04 Aperture macros list end*
%ADD10RoundRect,0.100000X0.850000X-0.850000X0.850000X0.850000X-0.850000X0.850000X-0.850000X-0.850000X0*%
%ADD11O,1.900000X1.900000*%
%ADD12RoundRect,0.100000X-0.850000X0.850000X-0.850000X-0.850000X0.850000X-0.850000X0.850000X0.850000X0*%
%ADD13O,2.100000X1.400000*%
%ADD14C,1.650000*%
%ADD15RoundRect,0.100000X-0.675000X-0.675000X0.675000X-0.675000X0.675000X0.675000X-0.675000X0.675000X0*%
%ADD16O,1.550000X1.550000*%
%ADD17RoundRect,0.100000X-0.850000X-0.850000X0.850000X-0.850000X0.850000X0.850000X-0.850000X0.850000X0*%
%ADD18RoundRect,0.350000X-0.600000X-0.600000X0.600000X-0.600000X0.600000X0.600000X-0.600000X0.600000X0*%
%ADD19C,1.900000*%
G04 APERTURE END LIST*
D10*
X135000000Y-126000000D03*
D11*
X137540000Y-126000000D03*
X140080000Y-126000000D03*
X142620000Y-126000000D03*
X145160000Y-126000000D03*
X147700000Y-126000000D03*
X150240000Y-126000000D03*
X152780000Y-126000000D03*
D12*
X174760000Y-80000000D03*
D11*
X172220000Y-80000000D03*
X169680000Y-80000000D03*
X167140000Y-80000000D03*
X164600000Y-80000000D03*
X162060000Y-80000000D03*
X159520000Y-80000000D03*
X156980000Y-80000000D03*
D12*
X152820000Y-80000000D03*
D11*
X150280000Y-80000000D03*
X147740000Y-80000000D03*
X145200000Y-80000000D03*
X142660000Y-80000000D03*
X140120000Y-80000000D03*
X137580000Y-80000000D03*
X135040000Y-80000000D03*
D12*
X130800000Y-80000000D03*
D11*
X128260000Y-80000000D03*
X125720000Y-80000000D03*
X123180000Y-80000000D03*
X120640000Y-80000000D03*
X118100000Y-80000000D03*
X115560000Y-80000000D03*
X113020000Y-80000000D03*
D12*
X152800000Y-83800000D03*
D11*
X150260000Y-83800000D03*
D10*
X157000000Y-126000000D03*
D11*
X159540000Y-126000000D03*
X162080000Y-126000000D03*
X164620000Y-126000000D03*
X167160000Y-126000000D03*
X169700000Y-126000000D03*
X172240000Y-126000000D03*
X174780000Y-126000000D03*
D10*
X155000000Y-93400000D03*
D11*
X157540000Y-93400000D03*
X160080000Y-93400000D03*
D10*
X155000000Y-97000000D03*
D11*
X157540000Y-97000000D03*
X160080000Y-97000000D03*
D10*
X155000000Y-112600000D03*
D11*
X157540000Y-112600000D03*
X160080000Y-112600000D03*
D10*
X155000000Y-109000000D03*
D11*
X157540000Y-109000000D03*
X160080000Y-109000000D03*
D13*
X176100000Y-106550000D03*
D14*
X173400000Y-100500000D03*
D13*
X176100000Y-99350000D03*
D14*
X173400000Y-105400000D03*
D10*
X91000000Y-87000000D03*
D11*
X93540000Y-87000000D03*
X96080000Y-87000000D03*
D15*
X165350000Y-101050000D03*
D16*
X165350000Y-103050000D03*
X165350000Y-105050000D03*
X169850000Y-101050000D03*
X169850000Y-103050000D03*
X169850000Y-105050000D03*
D17*
X110860000Y-98000000D03*
D11*
X113400000Y-98000000D03*
X110860000Y-100540000D03*
X113400000Y-100540000D03*
X110860000Y-103080000D03*
X113400000Y-103080000D03*
X110860000Y-105620000D03*
X113400000Y-105620000D03*
X110860000Y-108160000D03*
X113400000Y-108160000D03*
D10*
X91000000Y-126000000D03*
D11*
X93540000Y-126000000D03*
X96080000Y-126000000D03*
X98620000Y-126000000D03*
X101160000Y-126000000D03*
X103700000Y-126000000D03*
X106240000Y-126000000D03*
X108780000Y-126000000D03*
D10*
X113000000Y-126000000D03*
D11*
X115540000Y-126000000D03*
X118080000Y-126000000D03*
X120620000Y-126000000D03*
X123160000Y-126000000D03*
X125700000Y-126000000D03*
X128240000Y-126000000D03*
X130780000Y-126000000D03*
D12*
X108800000Y-80000000D03*
D11*
X106260000Y-80000000D03*
X103720000Y-80000000D03*
X101180000Y-80000000D03*
X98640000Y-80000000D03*
X96100000Y-80000000D03*
X93560000Y-80000000D03*
X91020000Y-80000000D03*
D17*
X103240000Y-96000000D03*
D11*
X103240000Y-98540000D03*
X103240000Y-101080000D03*
X103240000Y-103620000D03*
X103240000Y-106160000D03*
X103240000Y-108700000D03*
X103240000Y-111240000D03*
D18*
X92000000Y-95950000D03*
D19*
X94540000Y-95950000D03*
X92000000Y-98490000D03*
X94540000Y-98490000D03*
X92000000Y-101030000D03*
X94540000Y-101030000D03*
X92000000Y-103570000D03*
X94540000Y-103570000D03*
X92000000Y-106110000D03*
X94540000Y-106110000D03*
X92000000Y-108650000D03*
X94540000Y-108650000D03*
X92000000Y-111190000D03*
X94540000Y-111190000D03*
D12*
X131180000Y-120164000D03*
D11*
X128640000Y-120164000D03*
M02*
