G04 #@! TF.GenerationSoftware,KiCad,Pcbnew,(6.0.7)*
G04 #@! TF.CreationDate,2022-09-17T20:23:59+02:00*
G04 #@! TF.ProjectId,F5418,46353431-382e-46b6-9963-61645f706362,rev?*
G04 #@! TF.SameCoordinates,Original*
G04 #@! TF.FileFunction,Legend,Top*
G04 #@! TF.FilePolarity,Positive*
%FSLAX46Y46*%
G04 Gerber Fmt 4.6, Leading zero omitted, Abs format (unit mm)*
G04 Created by KiCad (PCBNEW (6.0.7)) date 2022-09-17 20:23:59*
%MOMM*%
%LPD*%
G01*
G04 APERTURE LIST*
G04 Aperture macros list*
%AMRoundRect*
0 Rectangle with rounded corners*
0 $1 Rounding radius*
0 $2 $3 $4 $5 $6 $7 $8 $9 X,Y pos of 4 corners*
0 Add a 4 corners polygon primitive as box body*
4,1,4,$2,$3,$4,$5,$6,$7,$8,$9,$2,$3,0*
0 Add four circle primitives for the rounded corners*
1,1,$1+$1,$2,$3*
1,1,$1+$1,$4,$5*
1,1,$1+$1,$6,$7*
1,1,$1+$1,$8,$9*
0 Add four rect primitives between the rounded corners*
20,1,$1+$1,$2,$3,$4,$5,0*
20,1,$1+$1,$4,$5,$6,$7,0*
20,1,$1+$1,$6,$7,$8,$9,0*
20,1,$1+$1,$8,$9,$2,$3,0*%
%AMFreePoly0*
4,1,27,3.921279,0.947402,3.957606,0.897402,3.962500,0.866500,3.962500,-0.866500,3.943402,-0.925279,3.893402,-0.961606,3.862500,-0.966500,0.737500,-0.966500,0.678721,-0.947402,0.642394,-0.897402,0.637500,-0.866500,0.637500,-0.550000,-0.737500,-0.550000,-0.796279,-0.530902,-0.832606,-0.480902,-0.837500,-0.450000,-0.837500,0.450000,-0.818402,0.508779,-0.768402,0.545106,-0.737500,0.550000,
0.637500,0.550000,0.637500,0.866500,0.656598,0.925279,0.706598,0.961606,0.737500,0.966500,3.862500,0.966500,3.921279,0.947402,3.921279,0.947402,$1*%
G04 Aperture macros list end*
%ADD10C,0.120000*%
%ADD11C,0.150000*%
%ADD12C,0.250000*%
%ADD13RoundRect,0.337500X0.300000X0.237500X-0.300000X0.237500X-0.300000X-0.237500X0.300000X-0.237500X0*%
%ADD14RoundRect,0.100000X0.850000X-0.850000X0.850000X0.850000X-0.850000X0.850000X-0.850000X-0.850000X0*%
%ADD15O,1.900000X1.900000*%
%ADD16RoundRect,0.100000X-0.850000X0.850000X-0.850000X-0.850000X0.850000X-0.850000X0.850000X0.850000X0*%
%ADD17RoundRect,0.100000X-0.875000X-0.900000X0.875000X-0.900000X0.875000X0.900000X-0.875000X0.900000X0*%
%ADD18RoundRect,0.337500X0.237500X-0.300000X0.237500X0.300000X-0.237500X0.300000X-0.237500X-0.300000X0*%
%ADD19RoundRect,0.337500X-0.287500X-0.237500X0.287500X-0.237500X0.287500X0.237500X-0.287500X0.237500X0*%
%ADD20RoundRect,0.100000X-0.650000X-0.450000X0.650000X-0.450000X0.650000X0.450000X-0.650000X0.450000X0*%
%ADD21FreePoly0,0.000000*%
%ADD22RoundRect,0.337500X-0.237500X0.287500X-0.237500X-0.287500X0.237500X-0.287500X0.237500X0.287500X0*%
%ADD23RoundRect,0.337500X-0.237500X0.250000X-0.237500X-0.250000X0.237500X-0.250000X0.237500X0.250000X0*%
%ADD24RoundRect,0.337500X-0.237500X0.300000X-0.237500X-0.300000X0.237500X-0.300000X0.237500X0.300000X0*%
%ADD25RoundRect,0.100000X0.775000X-0.200000X0.775000X0.200000X-0.775000X0.200000X-0.775000X-0.200000X0*%
%ADD26RoundRect,0.100000X0.950000X-0.600000X0.950000X0.600000X-0.950000X0.600000X-0.950000X-0.600000X0*%
%ADD27RoundRect,0.100000X0.950000X-0.750000X0.950000X0.750000X-0.950000X0.750000X-0.950000X-0.750000X0*%
%ADD28O,2.100000X1.400000*%
%ADD29C,1.650000*%
%ADD30RoundRect,0.337500X0.237500X-0.250000X0.237500X0.250000X-0.237500X0.250000X-0.237500X-0.250000X0*%
%ADD31RoundRect,0.100000X-0.675000X-0.675000X0.675000X-0.675000X0.675000X0.675000X-0.675000X0.675000X0*%
%ADD32O,1.550000X1.550000*%
%ADD33RoundRect,0.100000X-0.850000X-0.850000X0.850000X-0.850000X0.850000X0.850000X-0.850000X0.850000X0*%
%ADD34RoundRect,0.100000X-0.700000X-1.000000X0.700000X-1.000000X0.700000X1.000000X-0.700000X1.000000X0*%
%ADD35RoundRect,0.162500X0.062500X-0.675000X0.062500X0.675000X-0.062500X0.675000X-0.062500X-0.675000X0*%
%ADD36RoundRect,0.162500X0.675000X-0.062500X0.675000X0.062500X-0.675000X0.062500X-0.675000X-0.062500X0*%
%ADD37RoundRect,0.100000X-0.950000X0.200000X-0.950000X-0.200000X0.950000X-0.200000X0.950000X0.200000X0*%
%ADD38RoundRect,0.350000X-0.600000X-0.600000X0.600000X-0.600000X0.600000X0.600000X-0.600000X0.600000X0*%
%ADD39C,1.900000*%
%ADD40RoundRect,0.337500X-0.300000X-0.237500X0.300000X-0.237500X0.300000X0.237500X-0.300000X0.237500X0*%
%ADD41RoundRect,0.337500X-0.250000X-0.237500X0.250000X-0.237500X0.250000X0.237500X-0.250000X0.237500X0*%
G04 APERTURE END LIST*
D10*
X154850000Y-99800000D02*
X155850000Y-99800000D01*
X155350000Y-100600000D02*
X154850000Y-99800000D01*
X155850000Y-99800000D02*
X155350000Y-100600000D01*
X174309000Y-82447000D02*
X174809000Y-81647000D01*
X175309000Y-82447000D02*
X174309000Y-82447000D01*
X174809000Y-81647000D02*
X175309000Y-82447000D01*
X130927000Y-81647000D02*
X131427000Y-82447000D01*
X130427000Y-82447000D02*
X130927000Y-81647000D01*
X131427000Y-82447000D02*
X130427000Y-82447000D01*
X112520000Y-123622000D02*
X113520000Y-123622000D01*
X113520000Y-123622000D02*
X113020000Y-124422000D01*
X113020000Y-124422000D02*
X112520000Y-123622000D01*
X156515000Y-123595000D02*
X157515000Y-123595000D01*
X157515000Y-123595000D02*
X157015000Y-124395000D01*
X157015000Y-124395000D02*
X156515000Y-123595000D01*
X132737000Y-112188000D02*
X131737000Y-112188000D01*
X131737000Y-112188000D02*
X132237000Y-111388000D01*
X132237000Y-111388000D02*
X132737000Y-112188000D01*
X91049000Y-124422000D02*
X90549000Y-123622000D01*
X91549000Y-123622000D02*
X91049000Y-124422000D01*
X90549000Y-123622000D02*
X91549000Y-123622000D01*
X109329000Y-82447000D02*
X108329000Y-82447000D01*
X108329000Y-82447000D02*
X108829000Y-81647000D01*
X108829000Y-81647000D02*
X109329000Y-82447000D01*
X153338000Y-82193000D02*
X152338000Y-82193000D01*
X152338000Y-82193000D02*
X152838000Y-81393000D01*
X152838000Y-81393000D02*
X153338000Y-82193000D01*
X134970000Y-124422000D02*
X134470000Y-123622000D01*
X135470000Y-123622000D02*
X134970000Y-124422000D01*
X134470000Y-123622000D02*
X135470000Y-123622000D01*
X115800000Y-107050000D02*
X115100000Y-107050000D01*
X115167000Y-104113000D02*
X115167000Y-97113000D01*
X115150000Y-100479000D02*
X115850000Y-100479000D01*
X115100000Y-109050000D02*
X115100000Y-104950000D01*
D11*
X116433333Y-99931380D02*
X116433333Y-100645666D01*
X116385714Y-100788523D01*
X116290476Y-100883761D01*
X116147619Y-100931380D01*
X116052380Y-100931380D01*
X116766666Y-99931380D02*
X117338095Y-99931380D01*
X117052380Y-100931380D02*
X117052380Y-99931380D01*
X117623809Y-100645666D02*
X118100000Y-100645666D01*
X117528571Y-100931380D02*
X117861904Y-99931380D01*
X118195238Y-100931380D01*
X119052380Y-99979000D02*
X118957142Y-99931380D01*
X118814285Y-99931380D01*
X118671428Y-99979000D01*
X118576190Y-100074238D01*
X118528571Y-100169476D01*
X118480952Y-100359952D01*
X118480952Y-100502809D01*
X118528571Y-100693285D01*
X118576190Y-100788523D01*
X118671428Y-100883761D01*
X118814285Y-100931380D01*
X118909523Y-100931380D01*
X119052380Y-100883761D01*
X119100000Y-100836142D01*
X119100000Y-100502809D01*
X118909523Y-100502809D01*
X116042857Y-107487761D02*
X116185714Y-107535380D01*
X116423809Y-107535380D01*
X116519047Y-107487761D01*
X116566666Y-107440142D01*
X116614285Y-107344904D01*
X116614285Y-107249666D01*
X116566666Y-107154428D01*
X116519047Y-107106809D01*
X116423809Y-107059190D01*
X116233333Y-107011571D01*
X116138095Y-106963952D01*
X116090476Y-106916333D01*
X116042857Y-106821095D01*
X116042857Y-106725857D01*
X116090476Y-106630619D01*
X116138095Y-106583000D01*
X116233333Y-106535380D01*
X116471428Y-106535380D01*
X116614285Y-106583000D01*
X117376190Y-107011571D02*
X117519047Y-107059190D01*
X117566666Y-107106809D01*
X117614285Y-107202047D01*
X117614285Y-107344904D01*
X117566666Y-107440142D01*
X117519047Y-107487761D01*
X117423809Y-107535380D01*
X117042857Y-107535380D01*
X117042857Y-106535380D01*
X117376190Y-106535380D01*
X117471428Y-106583000D01*
X117519047Y-106630619D01*
X117566666Y-106725857D01*
X117566666Y-106821095D01*
X117519047Y-106916333D01*
X117471428Y-106963952D01*
X117376190Y-107011571D01*
X117042857Y-107011571D01*
X117947619Y-106535380D02*
X118185714Y-107535380D01*
X118376190Y-106821095D01*
X118566666Y-107535380D01*
X118804761Y-106535380D01*
X119202380Y-105547619D02*
X120202380Y-104880952D01*
X119202380Y-104880952D02*
X120202380Y-105547619D01*
X119202380Y-104642857D02*
X119202380Y-104071428D01*
X120202380Y-104357142D02*
X119202380Y-104357142D01*
X119916666Y-103785714D02*
X119916666Y-103309523D01*
X120202380Y-103880952D02*
X119202380Y-103547619D01*
X120202380Y-103214285D01*
X120202380Y-102404761D02*
X120202380Y-102880952D01*
X119202380Y-102880952D01*
X141570380Y-117965380D02*
X142237047Y-118965380D01*
X142237047Y-117965380D02*
X141570380Y-118965380D01*
X142475142Y-117965380D02*
X143046571Y-117965380D01*
X142760857Y-118965380D02*
X142760857Y-117965380D01*
X143332285Y-118679666D02*
X143808476Y-118679666D01*
X143237047Y-118965380D02*
X143570380Y-117965380D01*
X143903714Y-118965380D01*
X144713238Y-118965380D02*
X144237047Y-118965380D01*
X144237047Y-117965380D01*
X98985833Y-95486380D02*
X99557261Y-95486380D01*
X99271547Y-96486380D02*
X99271547Y-95486380D01*
X100462023Y-96391142D02*
X100414404Y-96438761D01*
X100271547Y-96486380D01*
X100176309Y-96486380D01*
X100033452Y-96438761D01*
X99938214Y-96343523D01*
X99890595Y-96248285D01*
X99842976Y-96057809D01*
X99842976Y-95914952D01*
X99890595Y-95724476D01*
X99938214Y-95629238D01*
X100033452Y-95534000D01*
X100176309Y-95486380D01*
X100271547Y-95486380D01*
X100414404Y-95534000D01*
X100462023Y-95581619D01*
X100890595Y-96486380D02*
X100890595Y-95486380D01*
X101462023Y-96486380D02*
X101033452Y-95914952D01*
X101462023Y-95486380D02*
X100890595Y-96057809D01*
X98890595Y-98026380D02*
X99462023Y-98026380D01*
X99176309Y-99026380D02*
X99176309Y-98026380D01*
X99795357Y-99026380D02*
X99795357Y-98026380D01*
X100128690Y-98740666D01*
X100462023Y-98026380D01*
X100462023Y-99026380D01*
X100890595Y-98978761D02*
X101033452Y-99026380D01*
X101271547Y-99026380D01*
X101366785Y-98978761D01*
X101414404Y-98931142D01*
X101462023Y-98835904D01*
X101462023Y-98740666D01*
X101414404Y-98645428D01*
X101366785Y-98597809D01*
X101271547Y-98550190D01*
X101081071Y-98502571D01*
X100985833Y-98454952D01*
X100938214Y-98407333D01*
X100890595Y-98312095D01*
X100890595Y-98216857D01*
X100938214Y-98121619D01*
X100985833Y-98074000D01*
X101081071Y-98026380D01*
X101319166Y-98026380D01*
X101462023Y-98074000D01*
X99509642Y-100566380D02*
X100081071Y-100566380D01*
X99795357Y-101566380D02*
X99795357Y-100566380D01*
X100414404Y-101566380D02*
X100414404Y-100566380D01*
X100652500Y-100566380D01*
X100795357Y-100614000D01*
X100890595Y-100709238D01*
X100938214Y-100804476D01*
X100985833Y-100994952D01*
X100985833Y-101137809D01*
X100938214Y-101328285D01*
X100890595Y-101423523D01*
X100795357Y-101518761D01*
X100652500Y-101566380D01*
X100414404Y-101566380D01*
X101414404Y-101566380D02*
X101414404Y-100566380D01*
X98938214Y-103106380D02*
X99509642Y-103106380D01*
X99223928Y-104106380D02*
X99223928Y-103106380D01*
X99842976Y-104106380D02*
X99842976Y-103106380D01*
X100081071Y-103106380D01*
X100223928Y-103154000D01*
X100319166Y-103249238D01*
X100366785Y-103344476D01*
X100414404Y-103534952D01*
X100414404Y-103677809D01*
X100366785Y-103868285D01*
X100319166Y-103963523D01*
X100223928Y-104058761D01*
X100081071Y-104106380D01*
X99842976Y-104106380D01*
X101033452Y-103106380D02*
X101223928Y-103106380D01*
X101319166Y-103154000D01*
X101414404Y-103249238D01*
X101462023Y-103439714D01*
X101462023Y-103773047D01*
X101414404Y-103963523D01*
X101319166Y-104058761D01*
X101223928Y-104106380D01*
X101033452Y-104106380D01*
X100938214Y-104058761D01*
X100842976Y-103963523D01*
X100795357Y-103773047D01*
X100795357Y-103439714D01*
X100842976Y-103249238D01*
X100938214Y-103154000D01*
X101033452Y-103106380D01*
X98366785Y-105646380D02*
X98938214Y-105646380D01*
X98652500Y-106646380D02*
X98652500Y-105646380D01*
X99271547Y-106122571D02*
X99604880Y-106122571D01*
X99747738Y-106646380D02*
X99271547Y-106646380D01*
X99271547Y-105646380D01*
X99747738Y-105646380D01*
X100128690Y-106598761D02*
X100271547Y-106646380D01*
X100509642Y-106646380D01*
X100604880Y-106598761D01*
X100652500Y-106551142D01*
X100700119Y-106455904D01*
X100700119Y-106360666D01*
X100652500Y-106265428D01*
X100604880Y-106217809D01*
X100509642Y-106170190D01*
X100319166Y-106122571D01*
X100223928Y-106074952D01*
X100176309Y-106027333D01*
X100128690Y-105932095D01*
X100128690Y-105836857D01*
X100176309Y-105741619D01*
X100223928Y-105694000D01*
X100319166Y-105646380D01*
X100557261Y-105646380D01*
X100700119Y-105694000D01*
X100985833Y-105646380D02*
X101557261Y-105646380D01*
X101271547Y-106646380D02*
X101271547Y-105646380D01*
X99747738Y-109186380D02*
X99414404Y-108710190D01*
X99176309Y-109186380D02*
X99176309Y-108186380D01*
X99557261Y-108186380D01*
X99652500Y-108234000D01*
X99700119Y-108281619D01*
X99747738Y-108376857D01*
X99747738Y-108519714D01*
X99700119Y-108614952D01*
X99652500Y-108662571D01*
X99557261Y-108710190D01*
X99176309Y-108710190D01*
X100128690Y-109138761D02*
X100271547Y-109186380D01*
X100509642Y-109186380D01*
X100604880Y-109138761D01*
X100652500Y-109091142D01*
X100700119Y-108995904D01*
X100700119Y-108900666D01*
X100652500Y-108805428D01*
X100604880Y-108757809D01*
X100509642Y-108710190D01*
X100319166Y-108662571D01*
X100223928Y-108614952D01*
X100176309Y-108567333D01*
X100128690Y-108472095D01*
X100128690Y-108376857D01*
X100176309Y-108281619D01*
X100223928Y-108234000D01*
X100319166Y-108186380D01*
X100557261Y-108186380D01*
X100700119Y-108234000D01*
X100985833Y-108186380D02*
X101557261Y-108186380D01*
X101271547Y-109186380D02*
X101271547Y-108186380D01*
X99466785Y-110774000D02*
X99371547Y-110726380D01*
X99228690Y-110726380D01*
X99085833Y-110774000D01*
X98990595Y-110869238D01*
X98942976Y-110964476D01*
X98895357Y-111154952D01*
X98895357Y-111297809D01*
X98942976Y-111488285D01*
X98990595Y-111583523D01*
X99085833Y-111678761D01*
X99228690Y-111726380D01*
X99323928Y-111726380D01*
X99466785Y-111678761D01*
X99514404Y-111631142D01*
X99514404Y-111297809D01*
X99323928Y-111297809D01*
X99942976Y-111726380D02*
X99942976Y-110726380D01*
X100514404Y-111726380D01*
X100514404Y-110726380D01*
X100990595Y-111726380D02*
X100990595Y-110726380D01*
X101228690Y-110726380D01*
X101371547Y-110774000D01*
X101466785Y-110869238D01*
X101514404Y-110964476D01*
X101562023Y-111154952D01*
X101562023Y-111297809D01*
X101514404Y-111488285D01*
X101466785Y-111583523D01*
X101371547Y-111678761D01*
X101228690Y-111726380D01*
X100990595Y-111726380D01*
X131346666Y-118402823D02*
X131346666Y-117926633D01*
X131632380Y-118498061D02*
X130632380Y-118164728D01*
X131632380Y-117831395D01*
X130632380Y-117640919D02*
X131632380Y-117307585D01*
X130632380Y-116974252D01*
X131537142Y-116069490D02*
X131584761Y-116117109D01*
X131632380Y-116259966D01*
X131632380Y-116355204D01*
X131584761Y-116498061D01*
X131489523Y-116593300D01*
X131394285Y-116640919D01*
X131203809Y-116688538D01*
X131060952Y-116688538D01*
X130870476Y-116640919D01*
X130775238Y-116593300D01*
X130680000Y-116498061D01*
X130632380Y-116355204D01*
X130632380Y-116259966D01*
X130680000Y-116117109D01*
X130727619Y-116069490D01*
X131537142Y-115069490D02*
X131584761Y-115117109D01*
X131632380Y-115259966D01*
X131632380Y-115355204D01*
X131584761Y-115498061D01*
X131489523Y-115593300D01*
X131394285Y-115640919D01*
X131203809Y-115688538D01*
X131060952Y-115688538D01*
X130870476Y-115640919D01*
X130775238Y-115593300D01*
X130680000Y-115498061D01*
X130632380Y-115355204D01*
X130632380Y-115259966D01*
X130680000Y-115117109D01*
X130727619Y-115069490D01*
X128806666Y-118352023D02*
X128806666Y-117875833D01*
X129092380Y-118447261D02*
X128092380Y-118113928D01*
X129092380Y-117780595D01*
X128140000Y-116923452D02*
X128092380Y-117018690D01*
X128092380Y-117161547D01*
X128140000Y-117304404D01*
X128235238Y-117399642D01*
X128330476Y-117447261D01*
X128520952Y-117494880D01*
X128663809Y-117494880D01*
X128854285Y-117447261D01*
X128949523Y-117399642D01*
X129044761Y-117304404D01*
X129092380Y-117161547D01*
X129092380Y-117066309D01*
X129044761Y-116923452D01*
X128997142Y-116875833D01*
X128663809Y-116875833D01*
X128663809Y-117066309D01*
X129092380Y-116447261D02*
X128092380Y-116447261D01*
X129092380Y-115875833D01*
X128092380Y-115875833D01*
X129092380Y-115399642D02*
X128092380Y-115399642D01*
X128092380Y-115161547D01*
X128140000Y-115018690D01*
X128235238Y-114923452D01*
X128330476Y-114875833D01*
X128520952Y-114828214D01*
X128663809Y-114828214D01*
X128854285Y-114875833D01*
X128949523Y-114923452D01*
X129044761Y-115018690D01*
X129092380Y-115161547D01*
X129092380Y-115399642D01*
X94770857Y-84302380D02*
X95104190Y-85302380D01*
X95437523Y-84302380D01*
X95770857Y-85302380D02*
X95770857Y-84635714D01*
X95770857Y-84826190D02*
X95818476Y-84730952D01*
X95866095Y-84683333D01*
X95961333Y-84635714D01*
X96056571Y-84635714D01*
X96770857Y-85254761D02*
X96675619Y-85302380D01*
X96485142Y-85302380D01*
X96389904Y-85254761D01*
X96342285Y-85159523D01*
X96342285Y-84778571D01*
X96389904Y-84683333D01*
X96485142Y-84635714D01*
X96675619Y-84635714D01*
X96770857Y-84683333D01*
X96818476Y-84778571D01*
X96818476Y-84873809D01*
X96342285Y-84969047D01*
X97104190Y-84635714D02*
X97485142Y-84635714D01*
X97247047Y-85302380D02*
X97247047Y-84445238D01*
X97294666Y-84350000D01*
X97389904Y-84302380D01*
X97485142Y-84302380D01*
D12*
X102886523Y-87958285D02*
X102886523Y-86158285D01*
X103419857Y-87444000D01*
X103953190Y-86158285D01*
X103953190Y-87958285D01*
X104638904Y-87872571D02*
X104867476Y-87958285D01*
X105248428Y-87958285D01*
X105400809Y-87872571D01*
X105477000Y-87786857D01*
X105553190Y-87615428D01*
X105553190Y-87444000D01*
X105477000Y-87272571D01*
X105400809Y-87186857D01*
X105248428Y-87101142D01*
X104943666Y-87015428D01*
X104791285Y-86929714D01*
X104715095Y-86844000D01*
X104638904Y-86672571D01*
X104638904Y-86501142D01*
X104715095Y-86329714D01*
X104791285Y-86244000D01*
X104943666Y-86158285D01*
X105324619Y-86158285D01*
X105553190Y-86244000D01*
X106238904Y-87958285D02*
X106238904Y-86158285D01*
X106848428Y-86158285D01*
X107000809Y-86244000D01*
X107077000Y-86329714D01*
X107153190Y-86501142D01*
X107153190Y-86758285D01*
X107077000Y-86929714D01*
X107000809Y-87015428D01*
X106848428Y-87101142D01*
X106238904Y-87101142D01*
X108524619Y-86758285D02*
X108524619Y-87958285D01*
X108143666Y-86072571D02*
X107762714Y-87358285D01*
X108753190Y-87358285D01*
X109210333Y-86158285D02*
X110200809Y-86158285D01*
X109667476Y-86844000D01*
X109896047Y-86844000D01*
X110048428Y-86929714D01*
X110124619Y-87015428D01*
X110200809Y-87186857D01*
X110200809Y-87615428D01*
X110124619Y-87786857D01*
X110048428Y-87872571D01*
X109896047Y-87958285D01*
X109438904Y-87958285D01*
X109286523Y-87872571D01*
X109210333Y-87786857D01*
X111191285Y-86158285D02*
X111343666Y-86158285D01*
X111496047Y-86244000D01*
X111572238Y-86329714D01*
X111648428Y-86501142D01*
X111724619Y-86844000D01*
X111724619Y-87272571D01*
X111648428Y-87615428D01*
X111572238Y-87786857D01*
X111496047Y-87872571D01*
X111343666Y-87958285D01*
X111191285Y-87958285D01*
X111038904Y-87872571D01*
X110962714Y-87786857D01*
X110886523Y-87615428D01*
X110810333Y-87272571D01*
X110810333Y-86844000D01*
X110886523Y-86501142D01*
X110962714Y-86329714D01*
X111038904Y-86244000D01*
X111191285Y-86158285D01*
X112943666Y-87015428D02*
X112410333Y-87015428D01*
X112410333Y-87958285D02*
X112410333Y-86158285D01*
X113172238Y-86158285D01*
X114543666Y-86158285D02*
X113781761Y-86158285D01*
X113705571Y-87015428D01*
X113781761Y-86929714D01*
X113934142Y-86844000D01*
X114315095Y-86844000D01*
X114467476Y-86929714D01*
X114543666Y-87015428D01*
X114619857Y-87186857D01*
X114619857Y-87615428D01*
X114543666Y-87786857D01*
X114467476Y-87872571D01*
X114315095Y-87958285D01*
X113934142Y-87958285D01*
X113781761Y-87872571D01*
X113705571Y-87786857D01*
X115991285Y-86758285D02*
X115991285Y-87958285D01*
X115610333Y-86072571D02*
X115229380Y-87358285D01*
X116219857Y-87358285D01*
X117667476Y-87958285D02*
X116753190Y-87958285D01*
X117210333Y-87958285D02*
X117210333Y-86158285D01*
X117057952Y-86415428D01*
X116905571Y-86586857D01*
X116753190Y-86672571D01*
X118581761Y-86929714D02*
X118429380Y-86844000D01*
X118353190Y-86758285D01*
X118277000Y-86586857D01*
X118277000Y-86501142D01*
X118353190Y-86329714D01*
X118429380Y-86244000D01*
X118581761Y-86158285D01*
X118886523Y-86158285D01*
X119038904Y-86244000D01*
X119115095Y-86329714D01*
X119191285Y-86501142D01*
X119191285Y-86586857D01*
X119115095Y-86758285D01*
X119038904Y-86844000D01*
X118886523Y-86929714D01*
X118581761Y-86929714D01*
X118429380Y-87015428D01*
X118353190Y-87101142D01*
X118277000Y-87272571D01*
X118277000Y-87615428D01*
X118353190Y-87786857D01*
X118429380Y-87872571D01*
X118581761Y-87958285D01*
X118886523Y-87958285D01*
X119038904Y-87872571D01*
X119115095Y-87786857D01*
X119191285Y-87615428D01*
X119191285Y-87272571D01*
X119115095Y-87101142D01*
X119038904Y-87015428D01*
X118886523Y-86929714D01*
X119800809Y-87444000D02*
X120562714Y-87444000D01*
X119648428Y-87958285D02*
X120181761Y-86158285D01*
X120715095Y-87958285D01*
X122467476Y-87958285D02*
X122467476Y-86158285D01*
X123077000Y-86158285D01*
X123229380Y-86244000D01*
X123305571Y-86329714D01*
X123381761Y-86501142D01*
X123381761Y-86758285D01*
X123305571Y-86929714D01*
X123229380Y-87015428D01*
X123077000Y-87101142D01*
X122467476Y-87101142D01*
X124067476Y-87958285D02*
X124067476Y-86758285D01*
X124067476Y-87101142D02*
X124143666Y-86929714D01*
X124219857Y-86844000D01*
X124372238Y-86758285D01*
X124524619Y-86758285D01*
X125286523Y-87958285D02*
X125134142Y-87872571D01*
X125057952Y-87786857D01*
X124981761Y-87615428D01*
X124981761Y-87101142D01*
X125057952Y-86929714D01*
X125134142Y-86844000D01*
X125286523Y-86758285D01*
X125515095Y-86758285D01*
X125667476Y-86844000D01*
X125743666Y-86929714D01*
X125819857Y-87101142D01*
X125819857Y-87615428D01*
X125743666Y-87786857D01*
X125667476Y-87872571D01*
X125515095Y-87958285D01*
X125286523Y-87958285D01*
X126277000Y-86758285D02*
X126886523Y-86758285D01*
X126505571Y-86158285D02*
X126505571Y-87701142D01*
X126581761Y-87872571D01*
X126734142Y-87958285D01*
X126886523Y-87958285D01*
X127648428Y-87958285D02*
X127496047Y-87872571D01*
X127419857Y-87786857D01*
X127343666Y-87615428D01*
X127343666Y-87101142D01*
X127419857Y-86929714D01*
X127496047Y-86844000D01*
X127648428Y-86758285D01*
X127877000Y-86758285D01*
X128029380Y-86844000D01*
X128105571Y-86929714D01*
X128181761Y-87101142D01*
X128181761Y-87615428D01*
X128105571Y-87786857D01*
X128029380Y-87872571D01*
X127877000Y-87958285D01*
X127648428Y-87958285D01*
X128867476Y-87272571D02*
X130086523Y-87272571D01*
X130848428Y-87958285D02*
X130848428Y-86158285D01*
X130848428Y-86844000D02*
X131000809Y-86758285D01*
X131305571Y-86758285D01*
X131457952Y-86844000D01*
X131534142Y-86929714D01*
X131610333Y-87101142D01*
X131610333Y-87615428D01*
X131534142Y-87786857D01*
X131457952Y-87872571D01*
X131305571Y-87958285D01*
X131000809Y-87958285D01*
X130848428Y-87872571D01*
X132524619Y-87958285D02*
X132372238Y-87872571D01*
X132296047Y-87786857D01*
X132219857Y-87615428D01*
X132219857Y-87101142D01*
X132296047Y-86929714D01*
X132372238Y-86844000D01*
X132524619Y-86758285D01*
X132753190Y-86758285D01*
X132905571Y-86844000D01*
X132981761Y-86929714D01*
X133057952Y-87101142D01*
X133057952Y-87615428D01*
X132981761Y-87786857D01*
X132905571Y-87872571D01*
X132753190Y-87958285D01*
X132524619Y-87958285D01*
X134429380Y-87958285D02*
X134429380Y-87015428D01*
X134353190Y-86844000D01*
X134200809Y-86758285D01*
X133896047Y-86758285D01*
X133743666Y-86844000D01*
X134429380Y-87872571D02*
X134277000Y-87958285D01*
X133896047Y-87958285D01*
X133743666Y-87872571D01*
X133667476Y-87701142D01*
X133667476Y-87529714D01*
X133743666Y-87358285D01*
X133896047Y-87272571D01*
X134277000Y-87272571D01*
X134429380Y-87186857D01*
X135191285Y-87958285D02*
X135191285Y-86758285D01*
X135191285Y-87101142D02*
X135267476Y-86929714D01*
X135343666Y-86844000D01*
X135496047Y-86758285D01*
X135648428Y-86758285D01*
X136867476Y-87958285D02*
X136867476Y-86158285D01*
X136867476Y-87872571D02*
X136715095Y-87958285D01*
X136410333Y-87958285D01*
X136257952Y-87872571D01*
X136181761Y-87786857D01*
X136105571Y-87615428D01*
X136105571Y-87101142D01*
X136181761Y-86929714D01*
X136257952Y-86844000D01*
X136410333Y-86758285D01*
X136715095Y-86758285D01*
X136867476Y-86844000D01*
D11*
X103605714Y-88993476D02*
X103510476Y-88945857D01*
X103320000Y-88945857D01*
X103224761Y-88993476D01*
X103129523Y-89088714D01*
X103081904Y-89183952D01*
X103081904Y-89374428D01*
X103129523Y-89469666D01*
X103224761Y-89564904D01*
X103320000Y-89612523D01*
X103510476Y-89612523D01*
X103605714Y-89564904D01*
X103415238Y-88612523D02*
X103177142Y-88660142D01*
X102939047Y-88803000D01*
X102796190Y-89041095D01*
X102748571Y-89279190D01*
X102796190Y-89517285D01*
X102939047Y-89755380D01*
X103177142Y-89898238D01*
X103415238Y-89945857D01*
X103653333Y-89898238D01*
X103891428Y-89755380D01*
X104034285Y-89517285D01*
X104081904Y-89279190D01*
X104034285Y-89041095D01*
X103891428Y-88803000D01*
X103653333Y-88660142D01*
X103415238Y-88612523D01*
X104462857Y-88850619D02*
X104510476Y-88803000D01*
X104605714Y-88755380D01*
X104843809Y-88755380D01*
X104939047Y-88803000D01*
X104986666Y-88850619D01*
X105034285Y-88945857D01*
X105034285Y-89041095D01*
X104986666Y-89183952D01*
X104415238Y-89755380D01*
X105034285Y-89755380D01*
X105653333Y-88755380D02*
X105748571Y-88755380D01*
X105843809Y-88803000D01*
X105891428Y-88850619D01*
X105939047Y-88945857D01*
X105986666Y-89136333D01*
X105986666Y-89374428D01*
X105939047Y-89564904D01*
X105891428Y-89660142D01*
X105843809Y-89707761D01*
X105748571Y-89755380D01*
X105653333Y-89755380D01*
X105558095Y-89707761D01*
X105510476Y-89660142D01*
X105462857Y-89564904D01*
X105415238Y-89374428D01*
X105415238Y-89136333D01*
X105462857Y-88945857D01*
X105510476Y-88850619D01*
X105558095Y-88803000D01*
X105653333Y-88755380D01*
X106367619Y-88850619D02*
X106415238Y-88803000D01*
X106510476Y-88755380D01*
X106748571Y-88755380D01*
X106843809Y-88803000D01*
X106891428Y-88850619D01*
X106939047Y-88945857D01*
X106939047Y-89041095D01*
X106891428Y-89183952D01*
X106320000Y-89755380D01*
X106939047Y-89755380D01*
X107891428Y-89755380D02*
X107320000Y-89755380D01*
X107605714Y-89755380D02*
X107605714Y-88755380D01*
X107510476Y-88898238D01*
X107415238Y-88993476D01*
X107320000Y-89041095D01*
X109510476Y-89088714D02*
X109510476Y-89898238D01*
X109462857Y-89993476D01*
X109415238Y-90041095D01*
X109320000Y-90088714D01*
X109177142Y-90088714D01*
X109081904Y-90041095D01*
X109510476Y-89707761D02*
X109415238Y-89755380D01*
X109224761Y-89755380D01*
X109129523Y-89707761D01*
X109081904Y-89660142D01*
X109034285Y-89564904D01*
X109034285Y-89279190D01*
X109081904Y-89183952D01*
X109129523Y-89136333D01*
X109224761Y-89088714D01*
X109415238Y-89088714D01*
X109510476Y-89136333D01*
X109986666Y-89755380D02*
X109986666Y-89088714D01*
X109986666Y-89279190D02*
X110034285Y-89183952D01*
X110081904Y-89136333D01*
X110177142Y-89088714D01*
X110272380Y-89088714D01*
X111034285Y-89088714D02*
X111034285Y-89755380D01*
X110605714Y-89088714D02*
X110605714Y-89612523D01*
X110653333Y-89707761D01*
X110748571Y-89755380D01*
X110891428Y-89755380D01*
X110986666Y-89707761D01*
X111034285Y-89660142D01*
X111510476Y-89755380D02*
X111510476Y-89088714D01*
X111510476Y-89183952D02*
X111558095Y-89136333D01*
X111653333Y-89088714D01*
X111796190Y-89088714D01*
X111891428Y-89136333D01*
X111939047Y-89231571D01*
X111939047Y-89755380D01*
X111939047Y-89231571D02*
X111986666Y-89136333D01*
X112081904Y-89088714D01*
X112224761Y-89088714D01*
X112320000Y-89136333D01*
X112367619Y-89231571D01*
X112367619Y-89755380D01*
X113272380Y-89755380D02*
X113272380Y-89231571D01*
X113224761Y-89136333D01*
X113129523Y-89088714D01*
X112939047Y-89088714D01*
X112843809Y-89136333D01*
X113272380Y-89707761D02*
X113177142Y-89755380D01*
X112939047Y-89755380D01*
X112843809Y-89707761D01*
X112796190Y-89612523D01*
X112796190Y-89517285D01*
X112843809Y-89422047D01*
X112939047Y-89374428D01*
X113177142Y-89374428D01*
X113272380Y-89326809D01*
X113605714Y-89088714D02*
X113986666Y-89088714D01*
X113748571Y-88755380D02*
X113748571Y-89612523D01*
X113796190Y-89707761D01*
X113891428Y-89755380D01*
X113986666Y-89755380D01*
X89008285Y-84302380D02*
X89341619Y-85302380D01*
X89674952Y-84302380D01*
X89865428Y-84635714D02*
X90246380Y-84635714D01*
X90008285Y-84302380D02*
X90008285Y-85159523D01*
X90055904Y-85254761D01*
X90151142Y-85302380D01*
X90246380Y-85302380D01*
X90722571Y-85302380D02*
X90627333Y-85254761D01*
X90579714Y-85207142D01*
X90532095Y-85111904D01*
X90532095Y-84826190D01*
X90579714Y-84730952D01*
X90627333Y-84683333D01*
X90722571Y-84635714D01*
X90865428Y-84635714D01*
X90960666Y-84683333D01*
X91008285Y-84730952D01*
X91055904Y-84826190D01*
X91055904Y-85111904D01*
X91008285Y-85207142D01*
X90960666Y-85254761D01*
X90865428Y-85302380D01*
X90722571Y-85302380D01*
X91627333Y-85302380D02*
X91532095Y-85254761D01*
X91484476Y-85207142D01*
X91436857Y-85111904D01*
X91436857Y-84826190D01*
X91484476Y-84730952D01*
X91532095Y-84683333D01*
X91627333Y-84635714D01*
X91770190Y-84635714D01*
X91865428Y-84683333D01*
X91913047Y-84730952D01*
X91960666Y-84826190D01*
X91960666Y-85111904D01*
X91913047Y-85207142D01*
X91865428Y-85254761D01*
X91770190Y-85302380D01*
X91627333Y-85302380D01*
X92532095Y-85302380D02*
X92436857Y-85254761D01*
X92389238Y-85159523D01*
X92389238Y-84302380D01*
X125394333Y-100450142D02*
X125346714Y-100497761D01*
X125203857Y-100545380D01*
X125108619Y-100545380D01*
X124965761Y-100497761D01*
X124870523Y-100402523D01*
X124822904Y-100307285D01*
X124775285Y-100116809D01*
X124775285Y-99973952D01*
X124822904Y-99783476D01*
X124870523Y-99688238D01*
X124965761Y-99593000D01*
X125108619Y-99545380D01*
X125203857Y-99545380D01*
X125346714Y-99593000D01*
X125394333Y-99640619D01*
X125727666Y-99545380D02*
X126394333Y-99545380D01*
X125965761Y-100545380D01*
X138263809Y-116786190D02*
X138263809Y-117262380D01*
X137930476Y-116262380D02*
X138263809Y-116786190D01*
X138597142Y-116262380D01*
X138882857Y-116357619D02*
X138930476Y-116310000D01*
X139025714Y-116262380D01*
X139263809Y-116262380D01*
X139359047Y-116310000D01*
X139406666Y-116357619D01*
X139454285Y-116452857D01*
X139454285Y-116548095D01*
X139406666Y-116690952D01*
X138835238Y-117262380D01*
X139454285Y-117262380D01*
X163607142Y-105700266D02*
X163654761Y-105747885D01*
X163702380Y-105890742D01*
X163702380Y-105985980D01*
X163654761Y-106128838D01*
X163559523Y-106224076D01*
X163464285Y-106271695D01*
X163273809Y-106319314D01*
X163130952Y-106319314D01*
X162940476Y-106271695D01*
X162845238Y-106224076D01*
X162750000Y-106128838D01*
X162702380Y-105985980D01*
X162702380Y-105890742D01*
X162750000Y-105747885D01*
X162797619Y-105700266D01*
X163702380Y-105224076D02*
X163702380Y-105033600D01*
X163654761Y-104938361D01*
X163607142Y-104890742D01*
X163464285Y-104795504D01*
X163273809Y-104747885D01*
X162892857Y-104747885D01*
X162797619Y-104795504D01*
X162750000Y-104843123D01*
X162702380Y-104938361D01*
X162702380Y-105128838D01*
X162750000Y-105224076D01*
X162797619Y-105271695D01*
X162892857Y-105319314D01*
X163130952Y-105319314D01*
X163226190Y-105271695D01*
X163273809Y-105224076D01*
X163321428Y-105128838D01*
X163321428Y-104938361D01*
X163273809Y-104843123D01*
X163226190Y-104795504D01*
X163130952Y-104747885D01*
X151957142Y-106633657D02*
X152004761Y-106681276D01*
X152052380Y-106824133D01*
X152052380Y-106919371D01*
X152004761Y-107062228D01*
X151909523Y-107157466D01*
X151814285Y-107205085D01*
X151623809Y-107252704D01*
X151480952Y-107252704D01*
X151290476Y-107205085D01*
X151195238Y-107157466D01*
X151100000Y-107062228D01*
X151052380Y-106919371D01*
X151052380Y-106824133D01*
X151100000Y-106681276D01*
X151147619Y-106633657D01*
X152052380Y-105681276D02*
X152052380Y-106252704D01*
X152052380Y-105966990D02*
X151052380Y-105966990D01*
X151195238Y-106062228D01*
X151290476Y-106157466D01*
X151338095Y-106252704D01*
X151147619Y-105300323D02*
X151100000Y-105252704D01*
X151052380Y-105157466D01*
X151052380Y-104919371D01*
X151100000Y-104824133D01*
X151147619Y-104776514D01*
X151242857Y-104728895D01*
X151338095Y-104728895D01*
X151480952Y-104776514D01*
X152052380Y-105347942D01*
X152052380Y-104728895D01*
X153457142Y-106633657D02*
X153504761Y-106681276D01*
X153552380Y-106824133D01*
X153552380Y-106919371D01*
X153504761Y-107062228D01*
X153409523Y-107157466D01*
X153314285Y-107205085D01*
X153123809Y-107252704D01*
X152980952Y-107252704D01*
X152790476Y-107205085D01*
X152695238Y-107157466D01*
X152600000Y-107062228D01*
X152552380Y-106919371D01*
X152552380Y-106824133D01*
X152600000Y-106681276D01*
X152647619Y-106633657D01*
X153552380Y-105681276D02*
X153552380Y-106252704D01*
X153552380Y-105966990D02*
X152552380Y-105966990D01*
X152695238Y-106062228D01*
X152790476Y-106157466D01*
X152838095Y-106252704D01*
X152552380Y-104776514D02*
X152552380Y-105252704D01*
X153028571Y-105300323D01*
X152980952Y-105252704D01*
X152933333Y-105157466D01*
X152933333Y-104919371D01*
X152980952Y-104824133D01*
X153028571Y-104776514D01*
X153123809Y-104728895D01*
X153361904Y-104728895D01*
X153457142Y-104776514D01*
X153504761Y-104824133D01*
X153552380Y-104919371D01*
X153552380Y-105157466D01*
X153504761Y-105252704D01*
X153457142Y-105300323D01*
X122123333Y-118635180D02*
X121647142Y-118635180D01*
X121647142Y-117635180D01*
X122980476Y-118635180D02*
X122409047Y-118635180D01*
X122694761Y-118635180D02*
X122694761Y-117635180D01*
X122599523Y-117778038D01*
X122504285Y-117873276D01*
X122409047Y-117920895D01*
X156732495Y-99397980D02*
X156732495Y-100207504D01*
X156780114Y-100302742D01*
X156827733Y-100350361D01*
X156922971Y-100397980D01*
X157113447Y-100397980D01*
X157208685Y-100350361D01*
X157256304Y-100302742D01*
X157303923Y-100207504D01*
X157303923Y-99397980D01*
X157732495Y-99493219D02*
X157780114Y-99445600D01*
X157875352Y-99397980D01*
X158113447Y-99397980D01*
X158208685Y-99445600D01*
X158256304Y-99493219D01*
X158303923Y-99588457D01*
X158303923Y-99683695D01*
X158256304Y-99826552D01*
X157684876Y-100397980D01*
X158303923Y-100397980D01*
X157641980Y-87069295D02*
X156641980Y-87069295D01*
X156641980Y-86831200D01*
X156689600Y-86688342D01*
X156784838Y-86593104D01*
X156880076Y-86545485D01*
X157070552Y-86497866D01*
X157213409Y-86497866D01*
X157403885Y-86545485D01*
X157499123Y-86593104D01*
X157594361Y-86688342D01*
X157641980Y-86831200D01*
X157641980Y-87069295D01*
X157641980Y-85545485D02*
X157641980Y-86116914D01*
X157641980Y-85831200D02*
X156641980Y-85831200D01*
X156784838Y-85926438D01*
X156880076Y-86021676D01*
X156927695Y-86116914D01*
X156052380Y-86466666D02*
X155576190Y-86800000D01*
X156052380Y-87038095D02*
X155052380Y-87038095D01*
X155052380Y-86657142D01*
X155100000Y-86561904D01*
X155147619Y-86514285D01*
X155242857Y-86466666D01*
X155385714Y-86466666D01*
X155480952Y-86514285D01*
X155528571Y-86561904D01*
X155576190Y-86657142D01*
X155576190Y-87038095D01*
X155052380Y-86133333D02*
X155052380Y-85514285D01*
X155433333Y-85847619D01*
X155433333Y-85704761D01*
X155480952Y-85609523D01*
X155528571Y-85561904D01*
X155623809Y-85514285D01*
X155861904Y-85514285D01*
X155957142Y-85561904D01*
X156004761Y-85609523D01*
X156052380Y-85704761D01*
X156052380Y-85990476D01*
X156004761Y-86085714D01*
X155957142Y-86133333D01*
X164455542Y-113542457D02*
X164503161Y-113590076D01*
X164550780Y-113732933D01*
X164550780Y-113828171D01*
X164503161Y-113971028D01*
X164407923Y-114066266D01*
X164312685Y-114113885D01*
X164122209Y-114161504D01*
X163979352Y-114161504D01*
X163788876Y-114113885D01*
X163693638Y-114066266D01*
X163598400Y-113971028D01*
X163550780Y-113828171D01*
X163550780Y-113732933D01*
X163598400Y-113590076D01*
X163646019Y-113542457D01*
X164550780Y-112590076D02*
X164550780Y-113161504D01*
X164550780Y-112875790D02*
X163550780Y-112875790D01*
X163693638Y-112971028D01*
X163788876Y-113066266D01*
X163836495Y-113161504D01*
X163884114Y-111732933D02*
X164550780Y-111732933D01*
X163503161Y-111971028D02*
X164217447Y-112209123D01*
X164217447Y-111590076D01*
X164457142Y-97842857D02*
X164504761Y-97890476D01*
X164552380Y-98033333D01*
X164552380Y-98128571D01*
X164504761Y-98271428D01*
X164409523Y-98366666D01*
X164314285Y-98414285D01*
X164123809Y-98461904D01*
X163980952Y-98461904D01*
X163790476Y-98414285D01*
X163695238Y-98366666D01*
X163600000Y-98271428D01*
X163552380Y-98128571D01*
X163552380Y-98033333D01*
X163600000Y-97890476D01*
X163647619Y-97842857D01*
X164552380Y-96890476D02*
X164552380Y-97461904D01*
X164552380Y-97176190D02*
X163552380Y-97176190D01*
X163695238Y-97271428D01*
X163790476Y-97366666D01*
X163838095Y-97461904D01*
X163552380Y-96557142D02*
X163552380Y-95938095D01*
X163933333Y-96271428D01*
X163933333Y-96128571D01*
X163980952Y-96033333D01*
X164028571Y-95985714D01*
X164123809Y-95938095D01*
X164361904Y-95938095D01*
X164457142Y-95985714D01*
X164504761Y-96033333D01*
X164552380Y-96128571D01*
X164552380Y-96414285D01*
X164504761Y-96509523D01*
X164457142Y-96557142D01*
X162982142Y-97842857D02*
X163029761Y-97890476D01*
X163077380Y-98033333D01*
X163077380Y-98128571D01*
X163029761Y-98271428D01*
X162934523Y-98366666D01*
X162839285Y-98414285D01*
X162648809Y-98461904D01*
X162505952Y-98461904D01*
X162315476Y-98414285D01*
X162220238Y-98366666D01*
X162125000Y-98271428D01*
X162077380Y-98128571D01*
X162077380Y-98033333D01*
X162125000Y-97890476D01*
X162172619Y-97842857D01*
X163077380Y-96890476D02*
X163077380Y-97461904D01*
X163077380Y-97176190D02*
X162077380Y-97176190D01*
X162220238Y-97271428D01*
X162315476Y-97366666D01*
X162363095Y-97461904D01*
X162077380Y-96033333D02*
X162077380Y-96223809D01*
X162125000Y-96319047D01*
X162172619Y-96366666D01*
X162315476Y-96461904D01*
X162505952Y-96509523D01*
X162886904Y-96509523D01*
X162982142Y-96461904D01*
X163029761Y-96414285D01*
X163077380Y-96319047D01*
X163077380Y-96128571D01*
X163029761Y-96033333D01*
X162982142Y-95985714D01*
X162886904Y-95938095D01*
X162648809Y-95938095D01*
X162553571Y-95985714D01*
X162505952Y-96033333D01*
X162458333Y-96128571D01*
X162458333Y-96319047D01*
X162505952Y-96414285D01*
X162553571Y-96461904D01*
X162648809Y-96509523D01*
X174544166Y-97402380D02*
X174544166Y-98116666D01*
X174496547Y-98259523D01*
X174401309Y-98354761D01*
X174258452Y-98402380D01*
X174163214Y-98402380D01*
X175448928Y-97735714D02*
X175448928Y-98402380D01*
X175210833Y-97354761D02*
X174972738Y-98069047D01*
X175591785Y-98069047D01*
X109557142Y-117663666D02*
X109604761Y-117711285D01*
X109652380Y-117854142D01*
X109652380Y-117949380D01*
X109604761Y-118092238D01*
X109509523Y-118187476D01*
X109414285Y-118235095D01*
X109223809Y-118282714D01*
X109080952Y-118282714D01*
X108890476Y-118235095D01*
X108795238Y-118187476D01*
X108700000Y-118092238D01*
X108652380Y-117949380D01*
X108652380Y-117854142D01*
X108700000Y-117711285D01*
X108747619Y-117663666D01*
X109652380Y-116711285D02*
X109652380Y-117282714D01*
X109652380Y-116997000D02*
X108652380Y-116997000D01*
X108795238Y-117092238D01*
X108890476Y-117187476D01*
X108938095Y-117282714D01*
X111252380Y-117663666D02*
X110776190Y-117997000D01*
X111252380Y-118235095D02*
X110252380Y-118235095D01*
X110252380Y-117854142D01*
X110300000Y-117758904D01*
X110347619Y-117711285D01*
X110442857Y-117663666D01*
X110585714Y-117663666D01*
X110680952Y-117711285D01*
X110728571Y-117758904D01*
X110776190Y-117854142D01*
X110776190Y-118235095D01*
X111252380Y-116711285D02*
X111252380Y-117282714D01*
X111252380Y-116997000D02*
X110252380Y-116997000D01*
X110395238Y-117092238D01*
X110490476Y-117187476D01*
X110538095Y-117282714D01*
X166616666Y-99204761D02*
X166759523Y-99252380D01*
X166997619Y-99252380D01*
X167092857Y-99204761D01*
X167140476Y-99157142D01*
X167188095Y-99061904D01*
X167188095Y-98966666D01*
X167140476Y-98871428D01*
X167092857Y-98823809D01*
X166997619Y-98776190D01*
X166807142Y-98728571D01*
X166711904Y-98680952D01*
X166664285Y-98633333D01*
X166616666Y-98538095D01*
X166616666Y-98442857D01*
X166664285Y-98347619D01*
X166711904Y-98300000D01*
X166807142Y-98252380D01*
X167045238Y-98252380D01*
X167188095Y-98300000D01*
X167521428Y-98252380D02*
X167759523Y-99252380D01*
X167950000Y-98538095D01*
X168140476Y-99252380D01*
X168378571Y-98252380D01*
X168711904Y-98347619D02*
X168759523Y-98300000D01*
X168854761Y-98252380D01*
X169092857Y-98252380D01*
X169188095Y-98300000D01*
X169235714Y-98347619D01*
X169283333Y-98442857D01*
X169283333Y-98538095D01*
X169235714Y-98680952D01*
X168664285Y-99252380D01*
X169283333Y-99252380D01*
X162957142Y-113542457D02*
X163004761Y-113590076D01*
X163052380Y-113732933D01*
X163052380Y-113828171D01*
X163004761Y-113971028D01*
X162909523Y-114066266D01*
X162814285Y-114113885D01*
X162623809Y-114161504D01*
X162480952Y-114161504D01*
X162290476Y-114113885D01*
X162195238Y-114066266D01*
X162100000Y-113971028D01*
X162052380Y-113828171D01*
X162052380Y-113732933D01*
X162100000Y-113590076D01*
X162147619Y-113542457D01*
X163052380Y-112590076D02*
X163052380Y-113161504D01*
X163052380Y-112875790D02*
X162052380Y-112875790D01*
X162195238Y-112971028D01*
X162290476Y-113066266D01*
X162338095Y-113161504D01*
X162052380Y-112256742D02*
X162052380Y-111590076D01*
X163052380Y-112018647D01*
X111320476Y-95122380D02*
X111320476Y-95836666D01*
X111272857Y-95979523D01*
X111177619Y-96074761D01*
X111034761Y-96122380D01*
X110939523Y-96122380D01*
X112320476Y-96122380D02*
X111749047Y-96122380D01*
X112034761Y-96122380D02*
X112034761Y-95122380D01*
X111939523Y-95265238D01*
X111844285Y-95360476D01*
X111749047Y-95408095D01*
X112939523Y-95122380D02*
X113034761Y-95122380D01*
X113130000Y-95170000D01*
X113177619Y-95217619D01*
X113225238Y-95312857D01*
X113272857Y-95503333D01*
X113272857Y-95741428D01*
X113225238Y-95931904D01*
X113177619Y-96027142D01*
X113130000Y-96074761D01*
X113034761Y-96122380D01*
X112939523Y-96122380D01*
X112844285Y-96074761D01*
X112796666Y-96027142D01*
X112749047Y-95931904D01*
X112701428Y-95741428D01*
X112701428Y-95503333D01*
X112749047Y-95312857D01*
X112796666Y-95217619D01*
X112844285Y-95170000D01*
X112939523Y-95122380D01*
X136744142Y-90168166D02*
X136791761Y-90215785D01*
X136839380Y-90358642D01*
X136839380Y-90453880D01*
X136791761Y-90596738D01*
X136696523Y-90691976D01*
X136601285Y-90739595D01*
X136410809Y-90787214D01*
X136267952Y-90787214D01*
X136077476Y-90739595D01*
X135982238Y-90691976D01*
X135887000Y-90596738D01*
X135839380Y-90453880D01*
X135839380Y-90358642D01*
X135887000Y-90215785D01*
X135934619Y-90168166D01*
X136172714Y-89311023D02*
X136839380Y-89311023D01*
X135791761Y-89549119D02*
X136506047Y-89787214D01*
X136506047Y-89168166D01*
X140433333Y-113536142D02*
X140385714Y-113583761D01*
X140242857Y-113631380D01*
X140147619Y-113631380D01*
X140004761Y-113583761D01*
X139909523Y-113488523D01*
X139861904Y-113393285D01*
X139814285Y-113202809D01*
X139814285Y-113059952D01*
X139861904Y-112869476D01*
X139909523Y-112774238D01*
X140004761Y-112679000D01*
X140147619Y-112631380D01*
X140242857Y-112631380D01*
X140385714Y-112679000D01*
X140433333Y-112726619D01*
X141338095Y-112631380D02*
X140861904Y-112631380D01*
X140814285Y-113107571D01*
X140861904Y-113059952D01*
X140957142Y-113012333D01*
X141195238Y-113012333D01*
X141290476Y-113059952D01*
X141338095Y-113107571D01*
X141385714Y-113202809D01*
X141385714Y-113440904D01*
X141338095Y-113536142D01*
X141290476Y-113583761D01*
X141195238Y-113631380D01*
X140957142Y-113631380D01*
X140861904Y-113583761D01*
X140814285Y-113536142D01*
X149287142Y-104166666D02*
X149334761Y-104214285D01*
X149382380Y-104357142D01*
X149382380Y-104452380D01*
X149334761Y-104595238D01*
X149239523Y-104690476D01*
X149144285Y-104738095D01*
X148953809Y-104785714D01*
X148810952Y-104785714D01*
X148620476Y-104738095D01*
X148525238Y-104690476D01*
X148430000Y-104595238D01*
X148382380Y-104452380D01*
X148382380Y-104357142D01*
X148430000Y-104214285D01*
X148477619Y-104166666D01*
X148382380Y-103309523D02*
X148382380Y-103500000D01*
X148430000Y-103595238D01*
X148477619Y-103642857D01*
X148620476Y-103738095D01*
X148810952Y-103785714D01*
X149191904Y-103785714D01*
X149287142Y-103738095D01*
X149334761Y-103690476D01*
X149382380Y-103595238D01*
X149382380Y-103404761D01*
X149334761Y-103309523D01*
X149287142Y-103261904D01*
X149191904Y-103214285D01*
X148953809Y-103214285D01*
X148858571Y-103261904D01*
X148810952Y-103309523D01*
X148763333Y-103404761D01*
X148763333Y-103595238D01*
X148810952Y-103690476D01*
X148858571Y-103738095D01*
X148953809Y-103785714D01*
X138458642Y-90155466D02*
X138506261Y-90203085D01*
X138553880Y-90345942D01*
X138553880Y-90441180D01*
X138506261Y-90584038D01*
X138411023Y-90679276D01*
X138315785Y-90726895D01*
X138125309Y-90774514D01*
X137982452Y-90774514D01*
X137791976Y-90726895D01*
X137696738Y-90679276D01*
X137601500Y-90584038D01*
X137553880Y-90441180D01*
X137553880Y-90345942D01*
X137601500Y-90203085D01*
X137649119Y-90155466D01*
X137982452Y-89584038D02*
X137934833Y-89679276D01*
X137887214Y-89726895D01*
X137791976Y-89774514D01*
X137744357Y-89774514D01*
X137649119Y-89726895D01*
X137601500Y-89679276D01*
X137553880Y-89584038D01*
X137553880Y-89393561D01*
X137601500Y-89298323D01*
X137649119Y-89250704D01*
X137744357Y-89203085D01*
X137791976Y-89203085D01*
X137887214Y-89250704D01*
X137934833Y-89298323D01*
X137982452Y-89393561D01*
X137982452Y-89584038D01*
X138030071Y-89679276D01*
X138077690Y-89726895D01*
X138172928Y-89774514D01*
X138363404Y-89774514D01*
X138458642Y-89726895D01*
X138506261Y-89679276D01*
X138553880Y-89584038D01*
X138553880Y-89393561D01*
X138506261Y-89298323D01*
X138458642Y-89250704D01*
X138363404Y-89203085D01*
X138172928Y-89203085D01*
X138077690Y-89250704D01*
X138030071Y-89298323D01*
X137982452Y-89393561D01*
X102906666Y-93122380D02*
X102906666Y-93836666D01*
X102859047Y-93979523D01*
X102763809Y-94074761D01*
X102620952Y-94122380D01*
X102525714Y-94122380D01*
X103859047Y-93122380D02*
X103382857Y-93122380D01*
X103335238Y-93598571D01*
X103382857Y-93550952D01*
X103478095Y-93503333D01*
X103716190Y-93503333D01*
X103811428Y-93550952D01*
X103859047Y-93598571D01*
X103906666Y-93693809D01*
X103906666Y-93931904D01*
X103859047Y-94027142D01*
X103811428Y-94074761D01*
X103716190Y-94122380D01*
X103478095Y-94122380D01*
X103382857Y-94074761D01*
X103335238Y-94027142D01*
X128072380Y-104261904D02*
X128881904Y-104261904D01*
X128977142Y-104214285D01*
X129024761Y-104166666D01*
X129072380Y-104071428D01*
X129072380Y-103880952D01*
X129024761Y-103785714D01*
X128977142Y-103738095D01*
X128881904Y-103690476D01*
X128072380Y-103690476D01*
X129072380Y-102690476D02*
X129072380Y-103261904D01*
X129072380Y-102976190D02*
X128072380Y-102976190D01*
X128215238Y-103071428D01*
X128310476Y-103166666D01*
X128358095Y-103261904D01*
X123891790Y-104611190D02*
X124367980Y-104611190D01*
X123367980Y-104944523D02*
X123891790Y-104611190D01*
X123367980Y-104277857D01*
X124367980Y-103420714D02*
X124367980Y-103992142D01*
X124367980Y-103706428D02*
X123367980Y-103706428D01*
X123510838Y-103801666D01*
X123606076Y-103896904D01*
X123653695Y-103992142D01*
X162132142Y-106582857D02*
X162179761Y-106630476D01*
X162227380Y-106773333D01*
X162227380Y-106868571D01*
X162179761Y-107011428D01*
X162084523Y-107106666D01*
X161989285Y-107154285D01*
X161798809Y-107201904D01*
X161655952Y-107201904D01*
X161465476Y-107154285D01*
X161370238Y-107106666D01*
X161275000Y-107011428D01*
X161227380Y-106868571D01*
X161227380Y-106773333D01*
X161275000Y-106630476D01*
X161322619Y-106582857D01*
X162227380Y-105630476D02*
X162227380Y-106201904D01*
X162227380Y-105916190D02*
X161227380Y-105916190D01*
X161370238Y-106011428D01*
X161465476Y-106106666D01*
X161513095Y-106201904D01*
X162227380Y-104678095D02*
X162227380Y-105249523D01*
X162227380Y-104963809D02*
X161227380Y-104963809D01*
X161370238Y-105059047D01*
X161465476Y-105154285D01*
X161513095Y-105249523D01*
X122021733Y-120082142D02*
X121974114Y-120129761D01*
X121831257Y-120177380D01*
X121736019Y-120177380D01*
X121593161Y-120129761D01*
X121497923Y-120034523D01*
X121450304Y-119939285D01*
X121402685Y-119748809D01*
X121402685Y-119605952D01*
X121450304Y-119415476D01*
X121497923Y-119320238D01*
X121593161Y-119225000D01*
X121736019Y-119177380D01*
X121831257Y-119177380D01*
X121974114Y-119225000D01*
X122021733Y-119272619D01*
X122402685Y-119272619D02*
X122450304Y-119225000D01*
X122545542Y-119177380D01*
X122783638Y-119177380D01*
X122878876Y-119225000D01*
X122926495Y-119272619D01*
X122974114Y-119367857D01*
X122974114Y-119463095D01*
X122926495Y-119605952D01*
X122355066Y-120177380D01*
X122974114Y-120177380D01*
X122021733Y-121582142D02*
X121974114Y-121629761D01*
X121831257Y-121677380D01*
X121736019Y-121677380D01*
X121593161Y-121629761D01*
X121497923Y-121534523D01*
X121450304Y-121439285D01*
X121402685Y-121248809D01*
X121402685Y-121105952D01*
X121450304Y-120915476D01*
X121497923Y-120820238D01*
X121593161Y-120725000D01*
X121736019Y-120677380D01*
X121831257Y-120677380D01*
X121974114Y-120725000D01*
X122021733Y-120772619D01*
X122355066Y-120677380D02*
X122974114Y-120677380D01*
X122640780Y-121058333D01*
X122783638Y-121058333D01*
X122878876Y-121105952D01*
X122926495Y-121153571D01*
X122974114Y-121248809D01*
X122974114Y-121486904D01*
X122926495Y-121582142D01*
X122878876Y-121629761D01*
X122783638Y-121677380D01*
X122497923Y-121677380D01*
X122402685Y-121629761D01*
X122355066Y-121582142D01*
X95807142Y-83457142D02*
X95759523Y-83504761D01*
X95616666Y-83552380D01*
X95521428Y-83552380D01*
X95378571Y-83504761D01*
X95283333Y-83409523D01*
X95235714Y-83314285D01*
X95188095Y-83123809D01*
X95188095Y-82980952D01*
X95235714Y-82790476D01*
X95283333Y-82695238D01*
X95378571Y-82600000D01*
X95521428Y-82552380D01*
X95616666Y-82552380D01*
X95759523Y-82600000D01*
X95807142Y-82647619D01*
X96759523Y-83552380D02*
X96188095Y-83552380D01*
X96473809Y-83552380D02*
X96473809Y-82552380D01*
X96378571Y-82695238D01*
X96283333Y-82790476D01*
X96188095Y-82838095D01*
X97378571Y-82552380D02*
X97473809Y-82552380D01*
X97569047Y-82600000D01*
X97616666Y-82647619D01*
X97664285Y-82742857D01*
X97711904Y-82933333D01*
X97711904Y-83171428D01*
X97664285Y-83361904D01*
X97616666Y-83457142D01*
X97569047Y-83504761D01*
X97473809Y-83552380D01*
X97378571Y-83552380D01*
X97283333Y-83504761D01*
X97235714Y-83457142D01*
X97188095Y-83361904D01*
X97140476Y-83171428D01*
X97140476Y-82933333D01*
X97188095Y-82742857D01*
X97235714Y-82647619D01*
X97283333Y-82600000D01*
X97378571Y-82552380D01*
X112852380Y-117666666D02*
X112376190Y-118000000D01*
X112852380Y-118238095D02*
X111852380Y-118238095D01*
X111852380Y-117857142D01*
X111900000Y-117761904D01*
X111947619Y-117714285D01*
X112042857Y-117666666D01*
X112185714Y-117666666D01*
X112280952Y-117714285D01*
X112328571Y-117761904D01*
X112376190Y-117857142D01*
X112376190Y-118238095D01*
X111947619Y-117285714D02*
X111900000Y-117238095D01*
X111852380Y-117142857D01*
X111852380Y-116904761D01*
X111900000Y-116809523D01*
X111947619Y-116761904D01*
X112042857Y-116714285D01*
X112138095Y-116714285D01*
X112280952Y-116761904D01*
X112852380Y-117333333D01*
X112852380Y-116714285D01*
X106883333Y-110003780D02*
X106550000Y-109527590D01*
X106311904Y-110003780D02*
X106311904Y-109003780D01*
X106692857Y-109003780D01*
X106788095Y-109051400D01*
X106835714Y-109099019D01*
X106883333Y-109194257D01*
X106883333Y-109337114D01*
X106835714Y-109432352D01*
X106788095Y-109479971D01*
X106692857Y-109527590D01*
X106311904Y-109527590D01*
X107740476Y-109337114D02*
X107740476Y-110003780D01*
X107502380Y-108956161D02*
X107264285Y-109670447D01*
X107883333Y-109670447D01*
D10*
X125738267Y-100858000D02*
X125445733Y-100858000D01*
X125738267Y-101878000D02*
X125445733Y-101878000D01*
X136270000Y-127330000D02*
X154110000Y-127330000D01*
X135000000Y-127330000D02*
X133670000Y-127330000D01*
X133670000Y-127330000D02*
X133670000Y-126000000D01*
X136270000Y-124670000D02*
X154110000Y-124670000D01*
X154110000Y-127330000D02*
X154110000Y-124670000D01*
X136270000Y-127330000D02*
X136270000Y-124670000D01*
X173490000Y-78670000D02*
X155650000Y-78670000D01*
X173490000Y-78670000D02*
X173490000Y-81330000D01*
X174760000Y-78670000D02*
X176090000Y-78670000D01*
X173490000Y-81330000D02*
X155650000Y-81330000D01*
X155650000Y-78670000D02*
X155650000Y-81330000D01*
X176090000Y-78670000D02*
X176090000Y-80000000D01*
X154150000Y-78670000D02*
X154150000Y-80000000D01*
X151550000Y-78670000D02*
X133710000Y-78670000D01*
X133710000Y-78670000D02*
X133710000Y-81330000D01*
X152820000Y-78670000D02*
X154150000Y-78670000D01*
X151550000Y-78670000D02*
X151550000Y-81330000D01*
X151550000Y-81330000D02*
X133710000Y-81330000D01*
X129530000Y-78670000D02*
X111690000Y-78670000D01*
X129530000Y-78670000D02*
X129530000Y-81330000D01*
X130800000Y-78670000D02*
X132130000Y-78670000D01*
X132130000Y-78670000D02*
X132130000Y-80000000D01*
X111690000Y-78670000D02*
X111690000Y-81330000D01*
X129530000Y-81330000D02*
X111690000Y-81330000D01*
X138200000Y-119450000D02*
X139300000Y-119450000D01*
X136050000Y-117600000D02*
X136050000Y-119400000D01*
X138200000Y-117550000D02*
X139300000Y-117550000D01*
X163760000Y-103146267D02*
X163760000Y-102853733D01*
X162740000Y-103146267D02*
X162740000Y-102853733D01*
X151090000Y-103146267D02*
X151090000Y-102853733D01*
X152110000Y-103146267D02*
X152110000Y-102853733D01*
X153610000Y-103146267D02*
X153610000Y-102853733D01*
X152590000Y-103146267D02*
X152590000Y-102853733D01*
X124528733Y-118710000D02*
X124871267Y-118710000D01*
X124528733Y-117690000D02*
X124871267Y-117690000D01*
X159122500Y-100640000D02*
X159122500Y-101950000D01*
X159122500Y-105360000D02*
X156402500Y-105360000D01*
X159122500Y-104050000D02*
X159122500Y-105360000D01*
X156402500Y-100640000D02*
X159122500Y-100640000D01*
X156402500Y-105360000D02*
X156402500Y-105130000D01*
X155262500Y-100870000D02*
X156402500Y-100870000D01*
X156402500Y-100640000D02*
X156402500Y-100870000D01*
X156465000Y-82140000D02*
X156465000Y-84600000D01*
X157935000Y-84600000D02*
X157935000Y-82140000D01*
X157935000Y-82140000D02*
X156465000Y-82140000D01*
X152800000Y-82470000D02*
X154130000Y-82470000D01*
X148930000Y-82470000D02*
X148930000Y-85130000D01*
X151530000Y-85130000D02*
X148930000Y-85130000D01*
X151530000Y-82470000D02*
X151530000Y-85130000D01*
X151530000Y-82470000D02*
X148930000Y-82470000D01*
X154130000Y-82470000D02*
X154130000Y-83800000D01*
X156122500Y-83545276D02*
X156122500Y-84054724D01*
X155077500Y-83545276D02*
X155077500Y-84054724D01*
X155670000Y-127330000D02*
X155670000Y-126000000D01*
X157000000Y-127330000D02*
X155670000Y-127330000D01*
X158270000Y-127330000D02*
X176110000Y-127330000D01*
X176110000Y-127330000D02*
X176110000Y-124670000D01*
X158270000Y-127330000D02*
X158270000Y-124670000D01*
X158270000Y-124670000D02*
X176110000Y-124670000D01*
X161410000Y-94730000D02*
X161410000Y-92070000D01*
X156270000Y-94730000D02*
X156270000Y-92070000D01*
X156270000Y-94730000D02*
X161410000Y-94730000D01*
X155000000Y-94730000D02*
X153670000Y-94730000D01*
X153670000Y-94730000D02*
X153670000Y-93400000D01*
X156270000Y-92070000D02*
X161410000Y-92070000D01*
X161410000Y-98330000D02*
X161410000Y-95670000D01*
X156270000Y-95670000D02*
X161410000Y-95670000D01*
X155000000Y-98330000D02*
X153670000Y-98330000D01*
X156270000Y-98330000D02*
X161410000Y-98330000D01*
X156270000Y-98330000D02*
X156270000Y-95670000D01*
X153670000Y-98330000D02*
X153670000Y-97000000D01*
X155000000Y-113930000D02*
X153670000Y-113930000D01*
X161410000Y-113930000D02*
X161410000Y-111270000D01*
X156270000Y-111270000D02*
X161410000Y-111270000D01*
X156270000Y-113930000D02*
X161410000Y-113930000D01*
X156270000Y-113930000D02*
X156270000Y-111270000D01*
X153670000Y-113930000D02*
X153670000Y-112600000D01*
X163590000Y-109753733D02*
X163590000Y-110046267D01*
X164610000Y-109753733D02*
X164610000Y-110046267D01*
X163590000Y-94153733D02*
X163590000Y-94446267D01*
X164610000Y-94153733D02*
X164610000Y-94446267D01*
X162090000Y-94153733D02*
X162090000Y-94446267D01*
X163110000Y-94153733D02*
X163110000Y-94446267D01*
X156270000Y-107670000D02*
X161410000Y-107670000D01*
X156270000Y-110330000D02*
X156270000Y-107670000D01*
X155000000Y-110330000D02*
X153670000Y-110330000D01*
X153670000Y-110330000D02*
X153670000Y-109000000D01*
X161410000Y-110330000D02*
X161410000Y-107670000D01*
X156270000Y-110330000D02*
X161410000Y-110330000D01*
X174950000Y-99050000D02*
X173100000Y-99050000D01*
X173100000Y-106850000D02*
X173100000Y-106400000D01*
X177500000Y-106850000D02*
X177250000Y-106850000D01*
X172337500Y-104650000D02*
X172337500Y-104200000D01*
X172337500Y-104650000D02*
X172787500Y-104650000D01*
X173100000Y-99050000D02*
X173100000Y-99500000D01*
X174950000Y-106850000D02*
X173100000Y-106850000D01*
X177500000Y-99050000D02*
X177250000Y-99050000D01*
X92270000Y-88330000D02*
X97410000Y-88330000D01*
X92270000Y-88330000D02*
X92270000Y-85670000D01*
X89670000Y-88330000D02*
X89670000Y-87000000D01*
X91000000Y-88330000D02*
X89670000Y-88330000D01*
X92270000Y-85670000D02*
X97410000Y-85670000D01*
X97410000Y-88330000D02*
X97410000Y-85670000D01*
X109710000Y-114853733D02*
X109710000Y-115146267D01*
X108690000Y-114853733D02*
X108690000Y-115146267D01*
X110277500Y-115254724D02*
X110277500Y-114745276D01*
X111322500Y-115254724D02*
X111322500Y-114745276D01*
X164100000Y-106550000D02*
X171100000Y-106550000D01*
X164100000Y-99600000D02*
X166850000Y-99600000D01*
X164100000Y-102050000D02*
X167790000Y-102050000D01*
X171100000Y-99600000D02*
X171100000Y-106550000D01*
X164100000Y-101050000D02*
X164100000Y-99600000D01*
X167790000Y-102050000D02*
X167790000Y-99600000D01*
X164100000Y-102050000D02*
X164100000Y-106300000D01*
X167790000Y-99600000D02*
X171100000Y-99600000D01*
X163110000Y-109753733D02*
X163110000Y-110046267D01*
X162090000Y-109753733D02*
X162090000Y-110046267D01*
X112130000Y-99270000D02*
X112130000Y-96670000D01*
X109530000Y-96670000D02*
X110860000Y-96670000D01*
X109530000Y-98000000D02*
X109530000Y-96670000D01*
X109530000Y-99270000D02*
X109530000Y-109490000D01*
X112130000Y-96670000D02*
X114730000Y-96670000D01*
X109530000Y-109490000D02*
X114730000Y-109490000D01*
X109530000Y-99270000D02*
X112130000Y-99270000D01*
X114730000Y-96670000D02*
X114730000Y-109490000D01*
X107470000Y-113430000D02*
X107470000Y-113730000D01*
X107470000Y-116570000D02*
X103330000Y-116570000D01*
X103330000Y-113430000D02*
X107470000Y-113430000D01*
X107470000Y-116270000D02*
X107470000Y-116570000D01*
X103330000Y-113730000D02*
X103330000Y-113430000D01*
X103330000Y-116570000D02*
X103330000Y-116270000D01*
X135890000Y-92646267D02*
X135890000Y-92353733D01*
X136910000Y-92646267D02*
X136910000Y-92353733D01*
X140746267Y-114910000D02*
X140453733Y-114910000D01*
X140746267Y-113890000D02*
X140453733Y-113890000D01*
X148010000Y-103853733D02*
X148010000Y-104146267D01*
X146990000Y-103853733D02*
X146990000Y-104146267D01*
X138610000Y-92646267D02*
X138610000Y-92353733D01*
X137590000Y-92646267D02*
X137590000Y-92353733D01*
X110110000Y-127330000D02*
X110110000Y-124670000D01*
X92270000Y-124670000D02*
X110110000Y-124670000D01*
X91000000Y-127330000D02*
X89670000Y-127330000D01*
X89670000Y-127330000D02*
X89670000Y-126000000D01*
X92270000Y-127330000D02*
X92270000Y-124670000D01*
X92270000Y-127330000D02*
X110110000Y-127330000D01*
X113000000Y-127330000D02*
X111670000Y-127330000D01*
X111670000Y-127330000D02*
X111670000Y-126000000D01*
X132110000Y-127330000D02*
X132110000Y-124670000D01*
X114270000Y-127330000D02*
X132110000Y-127330000D01*
X114270000Y-127330000D02*
X114270000Y-124670000D01*
X114270000Y-124670000D02*
X132110000Y-124670000D01*
X107530000Y-78670000D02*
X107530000Y-81330000D01*
X107530000Y-81330000D02*
X89690000Y-81330000D01*
X89690000Y-78670000D02*
X89690000Y-81330000D01*
X108800000Y-78670000D02*
X110130000Y-78670000D01*
X107530000Y-78670000D02*
X89690000Y-78670000D01*
X110130000Y-78670000D02*
X110130000Y-80000000D01*
X104570000Y-97270000D02*
X104570000Y-112570000D01*
X101910000Y-112570000D02*
X104570000Y-112570000D01*
X101910000Y-94670000D02*
X103240000Y-94670000D01*
X101910000Y-97270000D02*
X104570000Y-97270000D01*
X101910000Y-97270000D02*
X101910000Y-112570000D01*
X101910000Y-96000000D02*
X101910000Y-94670000D01*
X143110000Y-109610000D02*
X142135000Y-109610000D01*
X130890000Y-109610000D02*
X131865000Y-109610000D01*
X143110000Y-98365000D02*
X143110000Y-97390000D01*
X130890000Y-97390000D02*
X131865000Y-97390000D01*
X143110000Y-108635000D02*
X143110000Y-109610000D01*
X130890000Y-98365000D02*
X130890000Y-97390000D01*
X130890000Y-108635000D02*
X130890000Y-109610000D01*
X131865000Y-109610000D02*
X131865000Y-110925000D01*
X143110000Y-97390000D02*
X142135000Y-97390000D01*
X121182000Y-102135000D02*
X120782000Y-102135000D01*
X123182000Y-102335000D02*
X123182000Y-103335000D01*
X120782000Y-105935000D02*
X120782000Y-105135000D01*
X121182000Y-102335000D02*
X123182000Y-102335000D01*
X121182000Y-102335000D02*
X120782000Y-102335000D01*
X120782000Y-103335000D02*
X120382000Y-103335000D01*
X123182000Y-105935000D02*
X121182000Y-105935000D01*
X120782000Y-103335000D02*
X120782000Y-102335000D01*
X121182000Y-105935000D02*
X120782000Y-105935000D01*
X123182000Y-102135000D02*
X121182000Y-102135000D01*
X123182000Y-105135000D02*
X123182000Y-105935000D01*
X90020000Y-115100000D02*
X90020000Y-105620000D01*
X90020000Y-105620000D02*
X90020000Y-105620000D01*
X87320000Y-96450000D02*
X88320000Y-95950000D01*
X88710000Y-90740000D02*
X97830000Y-90740000D01*
X96520000Y-115100000D02*
X90020000Y-115100000D01*
X97830000Y-90740000D02*
X97830000Y-116400000D01*
X90020000Y-105620000D02*
X88710000Y-105620000D01*
X97830000Y-116400000D02*
X88710000Y-116400000D01*
X87320000Y-95450000D02*
X87320000Y-96450000D01*
X88710000Y-101520000D02*
X90020000Y-101520000D01*
X90020000Y-101520000D02*
X90020000Y-92040000D01*
X90020000Y-92040000D02*
X96520000Y-92040000D01*
X88320000Y-95950000D02*
X87320000Y-95450000D01*
X88710000Y-116400000D02*
X88710000Y-90740000D01*
X96520000Y-92040000D02*
X96520000Y-115100000D01*
X162260000Y-103146267D02*
X162260000Y-102853733D01*
X161240000Y-103146267D02*
X161240000Y-102853733D01*
X129910000Y-118834000D02*
X127310000Y-118834000D01*
X127310000Y-118834000D02*
X127310000Y-121494000D01*
X131180000Y-118834000D02*
X132510000Y-118834000D01*
X129910000Y-121494000D02*
X127310000Y-121494000D01*
X129910000Y-118834000D02*
X129910000Y-121494000D01*
X132510000Y-118834000D02*
X132510000Y-120164000D01*
X124553733Y-119190000D02*
X124846267Y-119190000D01*
X124553733Y-120210000D02*
X124846267Y-120210000D01*
X124553733Y-120690000D02*
X124846267Y-120690000D01*
X124553733Y-121710000D02*
X124846267Y-121710000D01*
X93646267Y-83610000D02*
X93353733Y-83610000D01*
X93646267Y-82590000D02*
X93353733Y-82590000D01*
X112922500Y-114745276D02*
X112922500Y-115254724D01*
X111877500Y-114745276D02*
X111877500Y-115254724D01*
X106795276Y-108773900D02*
X107304724Y-108773900D01*
X106795276Y-107728900D02*
X107304724Y-107728900D01*
%LPC*%
D13*
X126454500Y-101368000D03*
X124729500Y-101368000D03*
D14*
X135000000Y-126000000D03*
D15*
X137540000Y-126000000D03*
X140080000Y-126000000D03*
X142620000Y-126000000D03*
X145160000Y-126000000D03*
X147700000Y-126000000D03*
X150240000Y-126000000D03*
X152780000Y-126000000D03*
D16*
X174760000Y-80000000D03*
D15*
X172220000Y-80000000D03*
X169680000Y-80000000D03*
X167140000Y-80000000D03*
X164600000Y-80000000D03*
X162060000Y-80000000D03*
X159520000Y-80000000D03*
X156980000Y-80000000D03*
D16*
X152820000Y-80000000D03*
D15*
X150280000Y-80000000D03*
X147740000Y-80000000D03*
X145200000Y-80000000D03*
X142660000Y-80000000D03*
X140120000Y-80000000D03*
X137580000Y-80000000D03*
X135040000Y-80000000D03*
D16*
X130800000Y-80000000D03*
D15*
X128260000Y-80000000D03*
X125720000Y-80000000D03*
X123180000Y-80000000D03*
X120640000Y-80000000D03*
X118100000Y-80000000D03*
X115560000Y-80000000D03*
X113020000Y-80000000D03*
D17*
X137125000Y-118500000D03*
X140375000Y-118500000D03*
D18*
X163250000Y-103862500D03*
X163250000Y-102137500D03*
X151600000Y-103862500D03*
X151600000Y-102137500D03*
X153100000Y-103862500D03*
X153100000Y-102137500D03*
D19*
X123825000Y-118200000D03*
X125575000Y-118200000D03*
D20*
X155812500Y-101500000D03*
D21*
X155900000Y-103000000D03*
D20*
X155812500Y-104500000D03*
D22*
X157200000Y-82925000D03*
X157200000Y-84675000D03*
D16*
X152800000Y-83800000D03*
D15*
X150260000Y-83800000D03*
D23*
X155600000Y-82887500D03*
X155600000Y-84712500D03*
D14*
X157000000Y-126000000D03*
D15*
X159540000Y-126000000D03*
X162080000Y-126000000D03*
X164620000Y-126000000D03*
X167160000Y-126000000D03*
X169700000Y-126000000D03*
X172240000Y-126000000D03*
X174780000Y-126000000D03*
D14*
X155000000Y-93400000D03*
D15*
X157540000Y-93400000D03*
X160080000Y-93400000D03*
D14*
X155000000Y-97000000D03*
D15*
X157540000Y-97000000D03*
X160080000Y-97000000D03*
D14*
X155000000Y-112600000D03*
D15*
X157540000Y-112600000D03*
X160080000Y-112600000D03*
D24*
X164100000Y-109037500D03*
X164100000Y-110762500D03*
X164100000Y-93437500D03*
X164100000Y-95162500D03*
X162600000Y-93437500D03*
X162600000Y-95162500D03*
D14*
X155000000Y-109000000D03*
D15*
X157540000Y-109000000D03*
X160080000Y-109000000D03*
D25*
X173312500Y-104250000D03*
X173312500Y-103600000D03*
X173312500Y-102950000D03*
X173312500Y-102300000D03*
X173312500Y-101650000D03*
D26*
X176100000Y-105850000D03*
D27*
X176100000Y-103950000D03*
D28*
X176100000Y-106550000D03*
D29*
X173400000Y-100500000D03*
D27*
X176100000Y-101950000D03*
D28*
X176100000Y-99350000D03*
D26*
X176100000Y-100050000D03*
D29*
X173400000Y-105400000D03*
D14*
X91000000Y-87000000D03*
D15*
X93540000Y-87000000D03*
X96080000Y-87000000D03*
D24*
X109200000Y-114137500D03*
X109200000Y-115862500D03*
D30*
X110800000Y-115912500D03*
X110800000Y-114087500D03*
D31*
X165350000Y-101050000D03*
D32*
X165350000Y-103050000D03*
X165350000Y-105050000D03*
X169850000Y-101050000D03*
X169850000Y-103050000D03*
X169850000Y-105050000D03*
D24*
X162600000Y-109037500D03*
X162600000Y-110762500D03*
D33*
X110860000Y-98000000D03*
D15*
X113400000Y-98000000D03*
X110860000Y-100540000D03*
X113400000Y-100540000D03*
X110860000Y-103080000D03*
X113400000Y-103080000D03*
X110860000Y-105620000D03*
X113400000Y-105620000D03*
X110860000Y-108160000D03*
X113400000Y-108160000D03*
D34*
X103325000Y-115000000D03*
X107475000Y-115000000D03*
D18*
X136400000Y-93362500D03*
X136400000Y-91637500D03*
D13*
X141462500Y-114400000D03*
X139737500Y-114400000D03*
D24*
X147500000Y-103137500D03*
X147500000Y-104862500D03*
D18*
X138100000Y-93362500D03*
X138100000Y-91637500D03*
D14*
X91000000Y-126000000D03*
D15*
X93540000Y-126000000D03*
X96080000Y-126000000D03*
X98620000Y-126000000D03*
X101160000Y-126000000D03*
X103700000Y-126000000D03*
X106240000Y-126000000D03*
X108780000Y-126000000D03*
D14*
X113000000Y-126000000D03*
D15*
X115540000Y-126000000D03*
X118080000Y-126000000D03*
X120620000Y-126000000D03*
X123160000Y-126000000D03*
X125700000Y-126000000D03*
X128240000Y-126000000D03*
X130780000Y-126000000D03*
D16*
X108800000Y-80000000D03*
D15*
X106260000Y-80000000D03*
X103720000Y-80000000D03*
X101180000Y-80000000D03*
X98640000Y-80000000D03*
X96100000Y-80000000D03*
X93560000Y-80000000D03*
X91020000Y-80000000D03*
D33*
X103240000Y-96000000D03*
D15*
X103240000Y-98540000D03*
X103240000Y-101080000D03*
X103240000Y-103620000D03*
X103240000Y-106160000D03*
X103240000Y-108700000D03*
X103240000Y-111240000D03*
D35*
X132250000Y-110187500D03*
X132750000Y-110187500D03*
X133250000Y-110187500D03*
X133750000Y-110187500D03*
X134250000Y-110187500D03*
X134750000Y-110187500D03*
X135250000Y-110187500D03*
X135750000Y-110187500D03*
X136250000Y-110187500D03*
X136750000Y-110187500D03*
X137250000Y-110187500D03*
X137750000Y-110187500D03*
X138250000Y-110187500D03*
X138750000Y-110187500D03*
X139250000Y-110187500D03*
X139750000Y-110187500D03*
X140250000Y-110187500D03*
X140750000Y-110187500D03*
X141250000Y-110187500D03*
X141750000Y-110187500D03*
D36*
X143687500Y-108250000D03*
X143687500Y-107750000D03*
X143687500Y-107250000D03*
X143687500Y-106750000D03*
X143687500Y-106250000D03*
X143687500Y-105750000D03*
X143687500Y-105250000D03*
X143687500Y-104750000D03*
X143687500Y-104250000D03*
X143687500Y-103750000D03*
X143687500Y-103250000D03*
X143687500Y-102750000D03*
X143687500Y-102250000D03*
X143687500Y-101750000D03*
X143687500Y-101250000D03*
X143687500Y-100750000D03*
X143687500Y-100250000D03*
X143687500Y-99750000D03*
X143687500Y-99250000D03*
X143687500Y-98750000D03*
D35*
X141750000Y-96812500D03*
X141250000Y-96812500D03*
X140750000Y-96812500D03*
X140250000Y-96812500D03*
X139750000Y-96812500D03*
X139250000Y-96812500D03*
X138750000Y-96812500D03*
X138250000Y-96812500D03*
X137750000Y-96812500D03*
X137250000Y-96812500D03*
X136750000Y-96812500D03*
X136250000Y-96812500D03*
X135750000Y-96812500D03*
X135250000Y-96812500D03*
X134750000Y-96812500D03*
X134250000Y-96812500D03*
X133750000Y-96812500D03*
X133250000Y-96812500D03*
X132750000Y-96812500D03*
X132250000Y-96812500D03*
D36*
X130312500Y-98750000D03*
X130312500Y-99250000D03*
X130312500Y-99750000D03*
X130312500Y-100250000D03*
X130312500Y-100750000D03*
X130312500Y-101250000D03*
X130312500Y-101750000D03*
X130312500Y-102250000D03*
X130312500Y-102750000D03*
X130312500Y-103250000D03*
X130312500Y-103750000D03*
X130312500Y-104250000D03*
X130312500Y-104750000D03*
X130312500Y-105250000D03*
X130312500Y-105750000D03*
X130312500Y-106250000D03*
X130312500Y-106750000D03*
X130312500Y-107250000D03*
X130312500Y-107750000D03*
X130312500Y-108250000D03*
D37*
X121982000Y-102935000D03*
X121982000Y-104135000D03*
X121982000Y-105335000D03*
D38*
X92000000Y-95950000D03*
D39*
X94540000Y-95950000D03*
X92000000Y-98490000D03*
X94540000Y-98490000D03*
X92000000Y-101030000D03*
X94540000Y-101030000D03*
X92000000Y-103570000D03*
X94540000Y-103570000D03*
X92000000Y-106110000D03*
X94540000Y-106110000D03*
X92000000Y-108650000D03*
X94540000Y-108650000D03*
X92000000Y-111190000D03*
X94540000Y-111190000D03*
D18*
X161750000Y-103862500D03*
X161750000Y-102137500D03*
D16*
X131180000Y-120164000D03*
D15*
X128640000Y-120164000D03*
D40*
X123837500Y-119700000D03*
X125562500Y-119700000D03*
X123837500Y-121200000D03*
X125562500Y-121200000D03*
D13*
X94362500Y-83100000D03*
X92637500Y-83100000D03*
D23*
X112400000Y-114087500D03*
X112400000Y-115912500D03*
D41*
X106137500Y-108251400D03*
X107962500Y-108251400D03*
M02*
