%TF.GenerationSoftware,KiCad,Pcbnew,(6.0.7)*%
%TF.CreationDate,2022-09-17T20:24:41+02:00*%
%TF.ProjectId,F5418,46353431-382e-46b6-9963-61645f706362,rev?*%
%TF.SameCoordinates,Original*%
%TF.FileFunction,Drillmap*%
%TF.FilePolarity,Positive*%
%FSLAX45Y45*%
G04 Gerber Fmt 4.5, Leading zero omitted, Abs format (unit mm)*
G04 Created by KiCad (PCBNEW (6.0.7)) date 2022-09-17 20:24:41*
%MOMM*%
%LPD*%
G01*
G04 APERTURE LIST*
%ADD10C,0.050000*%
%ADD11C,0.200000*%
%ADD12C,0.020000*%
%ADD13C,0.030000*%
%ADD14C,0.040000*%
%ADD15C,0.060000*%
%ADD16C,0.080000*%
%ADD17C,0.085000*%
%ADD18C,0.100000*%
G04 APERTURE END LIST*
D10*
X17800000Y-7800000D02*
X8800000Y-7800000D01*
X8800000Y-12800000D02*
X17800000Y-12800000D01*
X17800000Y-12800000D02*
X17800000Y-7800000D01*
X8800000Y-7800000D02*
X8800000Y-12800000D01*
D11*
D12*
X12785000Y-10565000D02*
X12805000Y-10585000D01*
X12805000Y-10565000D02*
X12785000Y-10585000D01*
X12795000Y-10415000D02*
X12815000Y-10435000D01*
X12815000Y-10415000D02*
X12795000Y-10435000D01*
X12835000Y-10465000D02*
X12855000Y-10485000D01*
X12855000Y-10465000D02*
X12835000Y-10485000D01*
X12890000Y-10515000D02*
X12910000Y-10535000D01*
X12910000Y-10515000D02*
X12890000Y-10535000D01*
X13500000Y-10755000D02*
X13520000Y-10775000D01*
X13520000Y-10755000D02*
X13500000Y-10775000D01*
X13560000Y-10755000D02*
X13580000Y-10775000D01*
X13580000Y-10755000D02*
X13560000Y-10775000D01*
X13720000Y-10700000D02*
X13740000Y-10720000D01*
X13740000Y-10700000D02*
X13720000Y-10720000D01*
X13775000Y-10645000D02*
X13795000Y-10665000D01*
X13795000Y-10645000D02*
X13775000Y-10665000D01*
D13*
X10705000Y-10170000D02*
G75*
G03*
X10705000Y-10170000I-15000J0D01*
G01*
X10710000Y-9725000D02*
G75*
G03*
X10710000Y-9725000I-15000J0D01*
G01*
X12595000Y-8270000D02*
G75*
G03*
X12595000Y-8270000I-15000J0D01*
G01*
X12974250Y-11470300D02*
G75*
G03*
X12974250Y-11470300I-15000J0D01*
G01*
X12975000Y-8310000D02*
G75*
G03*
X12975000Y-8310000I-15000J0D01*
G01*
X13040000Y-11406800D02*
G75*
G03*
X13040000Y-11406800I-15000J0D01*
G01*
X13315000Y-8500000D02*
G75*
G03*
X13315000Y-8500000I-15000J0D01*
G01*
X13315000Y-9225000D02*
G75*
G03*
X13315000Y-9225000I-15000J0D01*
G01*
X13440000Y-9225000D02*
G75*
G03*
X13440000Y-9225000I-15000J0D01*
G01*
X13640000Y-10100000D02*
G75*
G03*
X13640000Y-10100000I-15000J0D01*
G01*
X13702700Y-10200000D02*
G75*
G03*
X13702700Y-10200000I-15000J0D01*
G01*
X13775000Y-9940000D02*
G75*
G03*
X13775000Y-9940000I-15000J0D01*
G01*
X14090000Y-10275000D02*
G75*
G03*
X14090000Y-10275000I-15000J0D01*
G01*
X14105000Y-10660000D02*
G75*
G03*
X14105000Y-10660000I-15000J0D01*
G01*
X14146569Y-10212300D02*
G75*
G03*
X14146569Y-10212300I-15000J0D01*
G01*
X14216812Y-10162300D02*
G75*
G03*
X14216812Y-10162300I-15000J0D01*
G01*
X14565000Y-8620000D02*
G75*
G03*
X14565000Y-8620000I-15000J0D01*
G01*
X14832852Y-10607148D02*
G75*
G03*
X14832852Y-10607148I-15000J0D01*
G01*
X14926374Y-10621137D02*
G75*
G03*
X14926374Y-10621137I-15000J0D01*
G01*
X14991139Y-10574174D02*
G75*
G03*
X14991139Y-10574174I-15000J0D01*
G01*
X15735000Y-8600000D02*
G75*
G03*
X15735000Y-8600000I-15000J0D01*
G01*
D14*
X9120000Y-8290000D02*
X9120000Y-8330000D01*
X9100000Y-8310000D02*
X9140000Y-8310000D01*
X9120040Y-9110960D02*
X9120040Y-9150960D01*
X9100040Y-9130960D02*
X9140040Y-9130960D01*
X9729640Y-9989800D02*
X9729640Y-10029800D01*
X9709640Y-10009800D02*
X9749640Y-10009800D01*
X9865000Y-10385000D02*
X9865000Y-10425000D01*
X9845000Y-10405000D02*
X9885000Y-10405000D01*
X10745000Y-11695000D02*
X10745000Y-11735000D01*
X10725000Y-11715000D02*
X10765000Y-11715000D01*
X10910000Y-8990000D02*
X10910000Y-9030000D01*
X10890000Y-9010000D02*
X10930000Y-9010000D01*
X11080000Y-11690000D02*
X11080000Y-11730000D01*
X11060000Y-11710000D02*
X11100000Y-11710000D01*
X11850000Y-10360000D02*
X11850000Y-10400000D01*
X11830000Y-10380000D02*
X11870000Y-10380000D01*
X12230000Y-11800000D02*
X12230000Y-11840000D01*
X12210000Y-11820000D02*
X12250000Y-11820000D01*
X13040000Y-11055000D02*
X13040000Y-11095000D01*
X13020000Y-11075000D02*
X13060000Y-11075000D01*
X13190000Y-10160000D02*
X13190000Y-10200000D01*
X13170000Y-10180000D02*
X13210000Y-10180000D01*
X13300000Y-10460000D02*
X13300000Y-10500000D01*
X13280000Y-10480000D02*
X13320000Y-10480000D01*
X13400000Y-11750000D02*
X13400000Y-11790000D01*
X13380000Y-11770000D02*
X13420000Y-11770000D01*
X13780000Y-8520000D02*
X13780000Y-8560000D01*
X13760000Y-8540000D02*
X13800000Y-8540000D01*
X13975000Y-11305000D02*
X13975000Y-11345000D01*
X13955000Y-11325000D02*
X13995000Y-11325000D01*
X14150000Y-11530000D02*
X14150000Y-11570000D01*
X14130000Y-11550000D02*
X14170000Y-11550000D01*
X14990000Y-9705000D02*
X14990000Y-9745000D01*
X14970000Y-9725000D02*
X15010000Y-9725000D01*
X15115000Y-10780000D02*
X15115000Y-10820000D01*
X15095000Y-10800000D02*
X15135000Y-10800000D01*
X15134760Y-10492720D02*
X15134760Y-10532720D01*
X15114760Y-10512720D02*
X15154760Y-10512720D01*
D10*
X15322678Y-10607678D02*
X15322678Y-10572322D01*
X15287322Y-10572322D01*
X15287322Y-10607678D01*
X15322678Y-10607678D01*
D15*
X17610000Y-9965000D02*
X17640000Y-9935000D01*
X17610000Y-9905000D01*
X17580000Y-9935000D01*
X17610000Y-9965000D01*
D11*
X17575000Y-9965000D02*
X17645000Y-9965000D01*
X17575000Y-9905000D02*
X17645000Y-9905000D01*
X17645000Y-9965000D02*
G75*
G03*
X17645000Y-9905000I0J30000D01*
G01*
X17575000Y-9905000D02*
G75*
G03*
X17575000Y-9965000I0J-30000D01*
G01*
D15*
X17610000Y-10685000D02*
X17640000Y-10655000D01*
X17610000Y-10625000D01*
X17580000Y-10655000D01*
X17610000Y-10685000D01*
D11*
X17645000Y-10625000D02*
X17575000Y-10625000D01*
X17645000Y-10685000D02*
X17575000Y-10685000D01*
X17575000Y-10625000D02*
G75*
G03*
X17575000Y-10685000I0J-30000D01*
G01*
X17645000Y-10685000D02*
G75*
G03*
X17645000Y-10625000I0J30000D01*
G01*
D16*
X16495000Y-10065000D02*
X16575000Y-10145000D01*
X16575000Y-10065000D02*
X16495000Y-10145000D01*
X16575000Y-10105000D02*
G75*
G03*
X16575000Y-10105000I-40000J0D01*
G01*
X16495000Y-10265000D02*
X16575000Y-10345000D01*
X16575000Y-10265000D02*
X16495000Y-10345000D01*
X16575000Y-10305000D02*
G75*
G03*
X16575000Y-10305000I-40000J0D01*
G01*
X16495000Y-10465000D02*
X16575000Y-10545000D01*
X16575000Y-10465000D02*
X16495000Y-10545000D01*
X16575000Y-10505000D02*
G75*
G03*
X16575000Y-10505000I-40000J0D01*
G01*
X16945000Y-10065000D02*
X17025000Y-10145000D01*
X17025000Y-10065000D02*
X16945000Y-10145000D01*
X17025000Y-10105000D02*
G75*
G03*
X17025000Y-10105000I-40000J0D01*
G01*
X16945000Y-10265000D02*
X17025000Y-10345000D01*
X17025000Y-10265000D02*
X16945000Y-10345000D01*
X17025000Y-10305000D02*
G75*
G03*
X17025000Y-10305000I-40000J0D01*
G01*
X16945000Y-10465000D02*
X17025000Y-10545000D01*
X17025000Y-10465000D02*
X16945000Y-10545000D01*
X17025000Y-10505000D02*
G75*
G03*
X17025000Y-10505000I-40000J0D01*
G01*
D17*
X17297500Y-10007500D02*
X17382500Y-10092500D01*
X17382500Y-10007500D02*
X17297500Y-10092500D01*
X17340000Y-10007500D02*
X17340000Y-10092500D01*
X17297500Y-10050000D02*
X17382500Y-10050000D01*
X17297500Y-10497500D02*
X17382500Y-10582500D01*
X17382500Y-10497500D02*
X17297500Y-10582500D01*
X17340000Y-10497500D02*
X17340000Y-10582500D01*
X17297500Y-10540000D02*
X17382500Y-10540000D01*
D18*
X9050000Y-8650000D02*
X9150000Y-8750000D01*
X9150000Y-8650000D02*
X9050000Y-8750000D01*
X9135356Y-8735356D02*
X9135356Y-8664644D01*
X9064644Y-8664644D01*
X9064644Y-8735356D01*
X9135356Y-8735356D01*
X9050000Y-12550000D02*
X9150000Y-12650000D01*
X9150000Y-12550000D02*
X9050000Y-12650000D01*
X9135356Y-12635356D02*
X9135356Y-12564644D01*
X9064644Y-12564644D01*
X9064644Y-12635356D01*
X9135356Y-12635356D01*
X9052000Y-7950000D02*
X9152000Y-8050000D01*
X9152000Y-7950000D02*
X9052000Y-8050000D01*
X9137356Y-8035356D02*
X9137356Y-7964644D01*
X9066644Y-7964644D01*
X9066644Y-8035356D01*
X9137356Y-8035356D01*
X9150000Y-9545000D02*
X9250000Y-9645000D01*
X9250000Y-9545000D02*
X9150000Y-9645000D01*
X9235356Y-9630356D02*
X9235356Y-9559644D01*
X9164644Y-9559644D01*
X9164644Y-9630356D01*
X9235356Y-9630356D01*
X9150000Y-9799000D02*
X9250000Y-9899000D01*
X9250000Y-9799000D02*
X9150000Y-9899000D01*
X9235356Y-9884356D02*
X9235356Y-9813644D01*
X9164644Y-9813644D01*
X9164644Y-9884356D01*
X9235356Y-9884356D01*
X9150000Y-10053000D02*
X9250000Y-10153000D01*
X9250000Y-10053000D02*
X9150000Y-10153000D01*
X9235356Y-10138356D02*
X9235356Y-10067644D01*
X9164644Y-10067644D01*
X9164644Y-10138356D01*
X9235356Y-10138356D01*
X9150000Y-10307000D02*
X9250000Y-10407000D01*
X9250000Y-10307000D02*
X9150000Y-10407000D01*
X9235356Y-10392356D02*
X9235356Y-10321644D01*
X9164644Y-10321644D01*
X9164644Y-10392356D01*
X9235356Y-10392356D01*
X9150000Y-10561000D02*
X9250000Y-10661000D01*
X9250000Y-10561000D02*
X9150000Y-10661000D01*
X9235356Y-10646356D02*
X9235356Y-10575644D01*
X9164644Y-10575644D01*
X9164644Y-10646356D01*
X9235356Y-10646356D01*
X9150000Y-10815000D02*
X9250000Y-10915000D01*
X9250000Y-10815000D02*
X9150000Y-10915000D01*
X9235356Y-10900356D02*
X9235356Y-10829644D01*
X9164644Y-10829644D01*
X9164644Y-10900356D01*
X9235356Y-10900356D01*
X9150000Y-11069000D02*
X9250000Y-11169000D01*
X9250000Y-11069000D02*
X9150000Y-11169000D01*
X9235356Y-11154356D02*
X9235356Y-11083644D01*
X9164644Y-11083644D01*
X9164644Y-11154356D01*
X9235356Y-11154356D01*
X9304000Y-8650000D02*
X9404000Y-8750000D01*
X9404000Y-8650000D02*
X9304000Y-8750000D01*
X9389356Y-8735356D02*
X9389356Y-8664644D01*
X9318644Y-8664644D01*
X9318644Y-8735356D01*
X9389356Y-8735356D01*
X9304000Y-12550000D02*
X9404000Y-12650000D01*
X9404000Y-12550000D02*
X9304000Y-12650000D01*
X9389356Y-12635356D02*
X9389356Y-12564644D01*
X9318644Y-12564644D01*
X9318644Y-12635356D01*
X9389356Y-12635356D01*
X9306000Y-7950000D02*
X9406000Y-8050000D01*
X9406000Y-7950000D02*
X9306000Y-8050000D01*
X9391356Y-8035356D02*
X9391356Y-7964644D01*
X9320644Y-7964644D01*
X9320644Y-8035356D01*
X9391356Y-8035356D01*
X9404000Y-9545000D02*
X9504000Y-9645000D01*
X9504000Y-9545000D02*
X9404000Y-9645000D01*
X9489356Y-9630356D02*
X9489356Y-9559644D01*
X9418644Y-9559644D01*
X9418644Y-9630356D01*
X9489356Y-9630356D01*
X9404000Y-9799000D02*
X9504000Y-9899000D01*
X9504000Y-9799000D02*
X9404000Y-9899000D01*
X9489356Y-9884356D02*
X9489356Y-9813644D01*
X9418644Y-9813644D01*
X9418644Y-9884356D01*
X9489356Y-9884356D01*
X9404000Y-10053000D02*
X9504000Y-10153000D01*
X9504000Y-10053000D02*
X9404000Y-10153000D01*
X9489356Y-10138356D02*
X9489356Y-10067644D01*
X9418644Y-10067644D01*
X9418644Y-10138356D01*
X9489356Y-10138356D01*
X9404000Y-10307000D02*
X9504000Y-10407000D01*
X9504000Y-10307000D02*
X9404000Y-10407000D01*
X9489356Y-10392356D02*
X9489356Y-10321644D01*
X9418644Y-10321644D01*
X9418644Y-10392356D01*
X9489356Y-10392356D01*
X9404000Y-10561000D02*
X9504000Y-10661000D01*
X9504000Y-10561000D02*
X9404000Y-10661000D01*
X9489356Y-10646356D02*
X9489356Y-10575644D01*
X9418644Y-10575644D01*
X9418644Y-10646356D01*
X9489356Y-10646356D01*
X9404000Y-10815000D02*
X9504000Y-10915000D01*
X9504000Y-10815000D02*
X9404000Y-10915000D01*
X9489356Y-10900356D02*
X9489356Y-10829644D01*
X9418644Y-10829644D01*
X9418644Y-10900356D01*
X9489356Y-10900356D01*
X9404000Y-11069000D02*
X9504000Y-11169000D01*
X9504000Y-11069000D02*
X9404000Y-11169000D01*
X9489356Y-11154356D02*
X9489356Y-11083644D01*
X9418644Y-11083644D01*
X9418644Y-11154356D01*
X9489356Y-11154356D01*
X9558000Y-8650000D02*
X9658000Y-8750000D01*
X9658000Y-8650000D02*
X9558000Y-8750000D01*
X9643356Y-8735356D02*
X9643356Y-8664644D01*
X9572644Y-8664644D01*
X9572644Y-8735356D01*
X9643356Y-8735356D01*
X9558000Y-12550000D02*
X9658000Y-12650000D01*
X9658000Y-12550000D02*
X9558000Y-12650000D01*
X9643356Y-12635356D02*
X9643356Y-12564644D01*
X9572644Y-12564644D01*
X9572644Y-12635356D01*
X9643356Y-12635356D01*
X9560000Y-7950000D02*
X9660000Y-8050000D01*
X9660000Y-7950000D02*
X9560000Y-8050000D01*
X9645356Y-8035356D02*
X9645356Y-7964644D01*
X9574644Y-7964644D01*
X9574644Y-8035356D01*
X9645356Y-8035356D01*
X9812000Y-12550000D02*
X9912000Y-12650000D01*
X9912000Y-12550000D02*
X9812000Y-12650000D01*
X9897356Y-12635356D02*
X9897356Y-12564644D01*
X9826644Y-12564644D01*
X9826644Y-12635356D01*
X9897356Y-12635356D01*
X9814000Y-7950000D02*
X9914000Y-8050000D01*
X9914000Y-7950000D02*
X9814000Y-8050000D01*
X9899356Y-8035356D02*
X9899356Y-7964644D01*
X9828644Y-7964644D01*
X9828644Y-8035356D01*
X9899356Y-8035356D01*
X10066000Y-12550000D02*
X10166000Y-12650000D01*
X10166000Y-12550000D02*
X10066000Y-12650000D01*
X10151356Y-12635356D02*
X10151356Y-12564644D01*
X10080644Y-12564644D01*
X10080644Y-12635356D01*
X10151356Y-12635356D01*
X10068000Y-7950000D02*
X10168000Y-8050000D01*
X10168000Y-7950000D02*
X10068000Y-8050000D01*
X10153356Y-8035356D02*
X10153356Y-7964644D01*
X10082644Y-7964644D01*
X10082644Y-8035356D01*
X10153356Y-8035356D01*
X10274000Y-9550000D02*
X10374000Y-9650000D01*
X10374000Y-9550000D02*
X10274000Y-9650000D01*
X10359356Y-9635356D02*
X10359356Y-9564644D01*
X10288644Y-9564644D01*
X10288644Y-9635356D01*
X10359356Y-9635356D01*
X10274000Y-9804000D02*
X10374000Y-9904000D01*
X10374000Y-9804000D02*
X10274000Y-9904000D01*
X10359356Y-9889356D02*
X10359356Y-9818644D01*
X10288644Y-9818644D01*
X10288644Y-9889356D01*
X10359356Y-9889356D01*
X10274000Y-10058000D02*
X10374000Y-10158000D01*
X10374000Y-10058000D02*
X10274000Y-10158000D01*
X10359356Y-10143356D02*
X10359356Y-10072644D01*
X10288644Y-10072644D01*
X10288644Y-10143356D01*
X10359356Y-10143356D01*
X10274000Y-10312000D02*
X10374000Y-10412000D01*
X10374000Y-10312000D02*
X10274000Y-10412000D01*
X10359356Y-10397356D02*
X10359356Y-10326644D01*
X10288644Y-10326644D01*
X10288644Y-10397356D01*
X10359356Y-10397356D01*
X10274000Y-10566000D02*
X10374000Y-10666000D01*
X10374000Y-10566000D02*
X10274000Y-10666000D01*
X10359356Y-10651356D02*
X10359356Y-10580644D01*
X10288644Y-10580644D01*
X10288644Y-10651356D01*
X10359356Y-10651356D01*
X10274000Y-10820000D02*
X10374000Y-10920000D01*
X10374000Y-10820000D02*
X10274000Y-10920000D01*
X10359356Y-10905356D02*
X10359356Y-10834644D01*
X10288644Y-10834644D01*
X10288644Y-10905356D01*
X10359356Y-10905356D01*
X10274000Y-11074000D02*
X10374000Y-11174000D01*
X10374000Y-11074000D02*
X10274000Y-11174000D01*
X10359356Y-11159356D02*
X10359356Y-11088644D01*
X10288644Y-11088644D01*
X10288644Y-11159356D01*
X10359356Y-11159356D01*
X10320000Y-12550000D02*
X10420000Y-12650000D01*
X10420000Y-12550000D02*
X10320000Y-12650000D01*
X10405356Y-12635356D02*
X10405356Y-12564644D01*
X10334644Y-12564644D01*
X10334644Y-12635356D01*
X10405356Y-12635356D01*
X10322000Y-7950000D02*
X10422000Y-8050000D01*
X10422000Y-7950000D02*
X10322000Y-8050000D01*
X10407356Y-8035356D02*
X10407356Y-7964644D01*
X10336644Y-7964644D01*
X10336644Y-8035356D01*
X10407356Y-8035356D01*
X10574000Y-12550000D02*
X10674000Y-12650000D01*
X10674000Y-12550000D02*
X10574000Y-12650000D01*
X10659356Y-12635356D02*
X10659356Y-12564644D01*
X10588644Y-12564644D01*
X10588644Y-12635356D01*
X10659356Y-12635356D01*
X10576000Y-7950000D02*
X10676000Y-8050000D01*
X10676000Y-7950000D02*
X10576000Y-8050000D01*
X10661356Y-8035356D02*
X10661356Y-7964644D01*
X10590644Y-7964644D01*
X10590644Y-8035356D01*
X10661356Y-8035356D01*
X10828000Y-12550000D02*
X10928000Y-12650000D01*
X10928000Y-12550000D02*
X10828000Y-12650000D01*
X10913356Y-12635356D02*
X10913356Y-12564644D01*
X10842644Y-12564644D01*
X10842644Y-12635356D01*
X10913356Y-12635356D01*
X10830000Y-7950000D02*
X10930000Y-8050000D01*
X10930000Y-7950000D02*
X10830000Y-8050000D01*
X10915356Y-8035356D02*
X10915356Y-7964644D01*
X10844644Y-7964644D01*
X10844644Y-8035356D01*
X10915356Y-8035356D01*
X11036000Y-9750000D02*
X11136000Y-9850000D01*
X11136000Y-9750000D02*
X11036000Y-9850000D01*
X11121356Y-9835356D02*
X11121356Y-9764644D01*
X11050644Y-9764644D01*
X11050644Y-9835356D01*
X11121356Y-9835356D01*
X11036000Y-10004000D02*
X11136000Y-10104000D01*
X11136000Y-10004000D02*
X11036000Y-10104000D01*
X11121356Y-10089356D02*
X11121356Y-10018644D01*
X11050644Y-10018644D01*
X11050644Y-10089356D01*
X11121356Y-10089356D01*
X11036000Y-10258000D02*
X11136000Y-10358000D01*
X11136000Y-10258000D02*
X11036000Y-10358000D01*
X11121356Y-10343356D02*
X11121356Y-10272644D01*
X11050644Y-10272644D01*
X11050644Y-10343356D01*
X11121356Y-10343356D01*
X11036000Y-10512000D02*
X11136000Y-10612000D01*
X11136000Y-10512000D02*
X11036000Y-10612000D01*
X11121356Y-10597356D02*
X11121356Y-10526644D01*
X11050644Y-10526644D01*
X11050644Y-10597356D01*
X11121356Y-10597356D01*
X11036000Y-10766000D02*
X11136000Y-10866000D01*
X11136000Y-10766000D02*
X11036000Y-10866000D01*
X11121356Y-10851356D02*
X11121356Y-10780644D01*
X11050644Y-10780644D01*
X11050644Y-10851356D01*
X11121356Y-10851356D01*
X11250000Y-12550000D02*
X11350000Y-12650000D01*
X11350000Y-12550000D02*
X11250000Y-12650000D01*
X11335356Y-12635356D02*
X11335356Y-12564644D01*
X11264644Y-12564644D01*
X11264644Y-12635356D01*
X11335356Y-12635356D01*
X11252000Y-7950000D02*
X11352000Y-8050000D01*
X11352000Y-7950000D02*
X11252000Y-8050000D01*
X11337356Y-8035356D02*
X11337356Y-7964644D01*
X11266644Y-7964644D01*
X11266644Y-8035356D01*
X11337356Y-8035356D01*
X11290000Y-9750000D02*
X11390000Y-9850000D01*
X11390000Y-9750000D02*
X11290000Y-9850000D01*
X11375356Y-9835356D02*
X11375356Y-9764644D01*
X11304644Y-9764644D01*
X11304644Y-9835356D01*
X11375356Y-9835356D01*
X11290000Y-10004000D02*
X11390000Y-10104000D01*
X11390000Y-10004000D02*
X11290000Y-10104000D01*
X11375356Y-10089356D02*
X11375356Y-10018644D01*
X11304644Y-10018644D01*
X11304644Y-10089356D01*
X11375356Y-10089356D01*
X11290000Y-10258000D02*
X11390000Y-10358000D01*
X11390000Y-10258000D02*
X11290000Y-10358000D01*
X11375356Y-10343356D02*
X11375356Y-10272644D01*
X11304644Y-10272644D01*
X11304644Y-10343356D01*
X11375356Y-10343356D01*
X11290000Y-10512000D02*
X11390000Y-10612000D01*
X11390000Y-10512000D02*
X11290000Y-10612000D01*
X11375356Y-10597356D02*
X11375356Y-10526644D01*
X11304644Y-10526644D01*
X11304644Y-10597356D01*
X11375356Y-10597356D01*
X11290000Y-10766000D02*
X11390000Y-10866000D01*
X11390000Y-10766000D02*
X11290000Y-10866000D01*
X11375356Y-10851356D02*
X11375356Y-10780644D01*
X11304644Y-10780644D01*
X11304644Y-10851356D01*
X11375356Y-10851356D01*
X11504000Y-12550000D02*
X11604000Y-12650000D01*
X11604000Y-12550000D02*
X11504000Y-12650000D01*
X11589356Y-12635356D02*
X11589356Y-12564644D01*
X11518644Y-12564644D01*
X11518644Y-12635356D01*
X11589356Y-12635356D01*
X11506000Y-7950000D02*
X11606000Y-8050000D01*
X11606000Y-7950000D02*
X11506000Y-8050000D01*
X11591356Y-8035356D02*
X11591356Y-7964644D01*
X11520644Y-7964644D01*
X11520644Y-8035356D01*
X11591356Y-8035356D01*
X11758000Y-12550000D02*
X11858000Y-12650000D01*
X11858000Y-12550000D02*
X11758000Y-12650000D01*
X11843356Y-12635356D02*
X11843356Y-12564644D01*
X11772644Y-12564644D01*
X11772644Y-12635356D01*
X11843356Y-12635356D01*
X11760000Y-7950000D02*
X11860000Y-8050000D01*
X11860000Y-7950000D02*
X11760000Y-8050000D01*
X11845356Y-8035356D02*
X11845356Y-7964644D01*
X11774644Y-7964644D01*
X11774644Y-8035356D01*
X11845356Y-8035356D01*
X12012000Y-12550000D02*
X12112000Y-12650000D01*
X12112000Y-12550000D02*
X12012000Y-12650000D01*
X12097356Y-12635356D02*
X12097356Y-12564644D01*
X12026644Y-12564644D01*
X12026644Y-12635356D01*
X12097356Y-12635356D01*
X12014000Y-7950000D02*
X12114000Y-8050000D01*
X12114000Y-7950000D02*
X12014000Y-8050000D01*
X12099356Y-8035356D02*
X12099356Y-7964644D01*
X12028644Y-7964644D01*
X12028644Y-8035356D01*
X12099356Y-8035356D01*
X12266000Y-12550000D02*
X12366000Y-12650000D01*
X12366000Y-12550000D02*
X12266000Y-12650000D01*
X12351356Y-12635356D02*
X12351356Y-12564644D01*
X12280644Y-12564644D01*
X12280644Y-12635356D01*
X12351356Y-12635356D01*
X12268000Y-7950000D02*
X12368000Y-8050000D01*
X12368000Y-7950000D02*
X12268000Y-8050000D01*
X12353356Y-8035356D02*
X12353356Y-7964644D01*
X12282644Y-7964644D01*
X12282644Y-8035356D01*
X12353356Y-8035356D01*
X12520000Y-12550000D02*
X12620000Y-12650000D01*
X12620000Y-12550000D02*
X12520000Y-12650000D01*
X12605356Y-12635356D02*
X12605356Y-12564644D01*
X12534644Y-12564644D01*
X12534644Y-12635356D01*
X12605356Y-12635356D01*
X12522000Y-7950000D02*
X12622000Y-8050000D01*
X12622000Y-7950000D02*
X12522000Y-8050000D01*
X12607356Y-8035356D02*
X12607356Y-7964644D01*
X12536644Y-7964644D01*
X12536644Y-8035356D01*
X12607356Y-8035356D01*
X12774000Y-12550000D02*
X12874000Y-12650000D01*
X12874000Y-12550000D02*
X12774000Y-12650000D01*
X12859356Y-12635356D02*
X12859356Y-12564644D01*
X12788644Y-12564644D01*
X12788644Y-12635356D01*
X12859356Y-12635356D01*
X12776000Y-7950000D02*
X12876000Y-8050000D01*
X12876000Y-7950000D02*
X12776000Y-8050000D01*
X12861356Y-8035356D02*
X12861356Y-7964644D01*
X12790644Y-7964644D01*
X12790644Y-8035356D01*
X12861356Y-8035356D01*
X12814000Y-11966400D02*
X12914000Y-12066400D01*
X12914000Y-11966400D02*
X12814000Y-12066400D01*
X12899356Y-12051756D02*
X12899356Y-11981044D01*
X12828644Y-11981044D01*
X12828644Y-12051756D01*
X12899356Y-12051756D01*
X13028000Y-12550000D02*
X13128000Y-12650000D01*
X13128000Y-12550000D02*
X13028000Y-12650000D01*
X13113356Y-12635356D02*
X13113356Y-12564644D01*
X13042644Y-12564644D01*
X13042644Y-12635356D01*
X13113356Y-12635356D01*
X13030000Y-7950000D02*
X13130000Y-8050000D01*
X13130000Y-7950000D02*
X13030000Y-8050000D01*
X13115356Y-8035356D02*
X13115356Y-7964644D01*
X13044644Y-7964644D01*
X13044644Y-8035356D01*
X13115356Y-8035356D01*
X13068000Y-11966400D02*
X13168000Y-12066400D01*
X13168000Y-11966400D02*
X13068000Y-12066400D01*
X13153356Y-12051756D02*
X13153356Y-11981044D01*
X13082644Y-11981044D01*
X13082644Y-12051756D01*
X13153356Y-12051756D01*
X13450000Y-12550000D02*
X13550000Y-12650000D01*
X13550000Y-12550000D02*
X13450000Y-12650000D01*
X13535356Y-12635356D02*
X13535356Y-12564644D01*
X13464644Y-12564644D01*
X13464644Y-12635356D01*
X13535356Y-12635356D01*
X13454000Y-7950000D02*
X13554000Y-8050000D01*
X13554000Y-7950000D02*
X13454000Y-8050000D01*
X13539356Y-8035356D02*
X13539356Y-7964644D01*
X13468644Y-7964644D01*
X13468644Y-8035356D01*
X13539356Y-8035356D01*
X13704000Y-12550000D02*
X13804000Y-12650000D01*
X13804000Y-12550000D02*
X13704000Y-12650000D01*
X13789356Y-12635356D02*
X13789356Y-12564644D01*
X13718644Y-12564644D01*
X13718644Y-12635356D01*
X13789356Y-12635356D01*
X13708000Y-7950000D02*
X13808000Y-8050000D01*
X13808000Y-7950000D02*
X13708000Y-8050000D01*
X13793356Y-8035356D02*
X13793356Y-7964644D01*
X13722644Y-7964644D01*
X13722644Y-8035356D01*
X13793356Y-8035356D01*
X13958000Y-12550000D02*
X14058000Y-12650000D01*
X14058000Y-12550000D02*
X13958000Y-12650000D01*
X14043356Y-12635356D02*
X14043356Y-12564644D01*
X13972644Y-12564644D01*
X13972644Y-12635356D01*
X14043356Y-12635356D01*
X13962000Y-7950000D02*
X14062000Y-8050000D01*
X14062000Y-7950000D02*
X13962000Y-8050000D01*
X14047356Y-8035356D02*
X14047356Y-7964644D01*
X13976644Y-7964644D01*
X13976644Y-8035356D01*
X14047356Y-8035356D01*
X14212000Y-12550000D02*
X14312000Y-12650000D01*
X14312000Y-12550000D02*
X14212000Y-12650000D01*
X14297356Y-12635356D02*
X14297356Y-12564644D01*
X14226644Y-12564644D01*
X14226644Y-12635356D01*
X14297356Y-12635356D01*
X14216000Y-7950000D02*
X14316000Y-8050000D01*
X14316000Y-7950000D02*
X14216000Y-8050000D01*
X14301356Y-8035356D02*
X14301356Y-7964644D01*
X14230644Y-7964644D01*
X14230644Y-8035356D01*
X14301356Y-8035356D01*
X14466000Y-12550000D02*
X14566000Y-12650000D01*
X14566000Y-12550000D02*
X14466000Y-12650000D01*
X14551356Y-12635356D02*
X14551356Y-12564644D01*
X14480644Y-12564644D01*
X14480644Y-12635356D01*
X14551356Y-12635356D01*
X14470000Y-7950000D02*
X14570000Y-8050000D01*
X14570000Y-7950000D02*
X14470000Y-8050000D01*
X14555356Y-8035356D02*
X14555356Y-7964644D01*
X14484644Y-7964644D01*
X14484644Y-8035356D01*
X14555356Y-8035356D01*
X14720000Y-12550000D02*
X14820000Y-12650000D01*
X14820000Y-12550000D02*
X14720000Y-12650000D01*
X14805356Y-12635356D02*
X14805356Y-12564644D01*
X14734644Y-12564644D01*
X14734644Y-12635356D01*
X14805356Y-12635356D01*
X14724000Y-7950000D02*
X14824000Y-8050000D01*
X14824000Y-7950000D02*
X14724000Y-8050000D01*
X14809356Y-8035356D02*
X14809356Y-7964644D01*
X14738644Y-7964644D01*
X14738644Y-8035356D01*
X14809356Y-8035356D01*
X14974000Y-12550000D02*
X15074000Y-12650000D01*
X15074000Y-12550000D02*
X14974000Y-12650000D01*
X15059356Y-12635356D02*
X15059356Y-12564644D01*
X14988644Y-12564644D01*
X14988644Y-12635356D01*
X15059356Y-12635356D01*
X14976000Y-8330000D02*
X15076000Y-8430000D01*
X15076000Y-8330000D02*
X14976000Y-8430000D01*
X15061356Y-8415356D02*
X15061356Y-8344644D01*
X14990644Y-8344644D01*
X14990644Y-8415356D01*
X15061356Y-8415356D01*
X14978000Y-7950000D02*
X15078000Y-8050000D01*
X15078000Y-7950000D02*
X14978000Y-8050000D01*
X15063356Y-8035356D02*
X15063356Y-7964644D01*
X14992644Y-7964644D01*
X14992644Y-8035356D01*
X15063356Y-8035356D01*
X15228000Y-12550000D02*
X15328000Y-12650000D01*
X15328000Y-12550000D02*
X15228000Y-12650000D01*
X15313356Y-12635356D02*
X15313356Y-12564644D01*
X15242644Y-12564644D01*
X15242644Y-12635356D01*
X15313356Y-12635356D01*
X15230000Y-8330000D02*
X15330000Y-8430000D01*
X15330000Y-8330000D02*
X15230000Y-8430000D01*
X15315356Y-8415356D02*
X15315356Y-8344644D01*
X15244644Y-8344644D01*
X15244644Y-8415356D01*
X15315356Y-8415356D01*
X15232000Y-7950000D02*
X15332000Y-8050000D01*
X15332000Y-7950000D02*
X15232000Y-8050000D01*
X15317356Y-8035356D02*
X15317356Y-7964644D01*
X15246644Y-7964644D01*
X15246644Y-8035356D01*
X15317356Y-8035356D01*
X15450000Y-9290000D02*
X15550000Y-9390000D01*
X15550000Y-9290000D02*
X15450000Y-9390000D01*
X15535356Y-9375356D02*
X15535356Y-9304644D01*
X15464644Y-9304644D01*
X15464644Y-9375356D01*
X15535356Y-9375356D01*
X15450000Y-9650000D02*
X15550000Y-9750000D01*
X15550000Y-9650000D02*
X15450000Y-9750000D01*
X15535356Y-9735356D02*
X15535356Y-9664644D01*
X15464644Y-9664644D01*
X15464644Y-9735356D01*
X15535356Y-9735356D01*
X15450000Y-10850000D02*
X15550000Y-10950000D01*
X15550000Y-10850000D02*
X15450000Y-10950000D01*
X15535356Y-10935356D02*
X15535356Y-10864644D01*
X15464644Y-10864644D01*
X15464644Y-10935356D01*
X15535356Y-10935356D01*
X15450000Y-11210000D02*
X15550000Y-11310000D01*
X15550000Y-11210000D02*
X15450000Y-11310000D01*
X15535356Y-11295356D02*
X15535356Y-11224644D01*
X15464644Y-11224644D01*
X15464644Y-11295356D01*
X15535356Y-11295356D01*
X15648000Y-7950000D02*
X15748000Y-8050000D01*
X15748000Y-7950000D02*
X15648000Y-8050000D01*
X15733356Y-8035356D02*
X15733356Y-7964644D01*
X15662644Y-7964644D01*
X15662644Y-8035356D01*
X15733356Y-8035356D01*
X15650000Y-12550000D02*
X15750000Y-12650000D01*
X15750000Y-12550000D02*
X15650000Y-12650000D01*
X15735356Y-12635356D02*
X15735356Y-12564644D01*
X15664644Y-12564644D01*
X15664644Y-12635356D01*
X15735356Y-12635356D01*
X15704000Y-9290000D02*
X15804000Y-9390000D01*
X15804000Y-9290000D02*
X15704000Y-9390000D01*
X15789356Y-9375356D02*
X15789356Y-9304644D01*
X15718644Y-9304644D01*
X15718644Y-9375356D01*
X15789356Y-9375356D01*
X15704000Y-9650000D02*
X15804000Y-9750000D01*
X15804000Y-9650000D02*
X15704000Y-9750000D01*
X15789356Y-9735356D02*
X15789356Y-9664644D01*
X15718644Y-9664644D01*
X15718644Y-9735356D01*
X15789356Y-9735356D01*
X15704000Y-10850000D02*
X15804000Y-10950000D01*
X15804000Y-10850000D02*
X15704000Y-10950000D01*
X15789356Y-10935356D02*
X15789356Y-10864644D01*
X15718644Y-10864644D01*
X15718644Y-10935356D01*
X15789356Y-10935356D01*
X15704000Y-11210000D02*
X15804000Y-11310000D01*
X15804000Y-11210000D02*
X15704000Y-11310000D01*
X15789356Y-11295356D02*
X15789356Y-11224644D01*
X15718644Y-11224644D01*
X15718644Y-11295356D01*
X15789356Y-11295356D01*
X15902000Y-7950000D02*
X16002000Y-8050000D01*
X16002000Y-7950000D02*
X15902000Y-8050000D01*
X15987356Y-8035356D02*
X15987356Y-7964644D01*
X15916644Y-7964644D01*
X15916644Y-8035356D01*
X15987356Y-8035356D01*
X15904000Y-12550000D02*
X16004000Y-12650000D01*
X16004000Y-12550000D02*
X15904000Y-12650000D01*
X15989356Y-12635356D02*
X15989356Y-12564644D01*
X15918644Y-12564644D01*
X15918644Y-12635356D01*
X15989356Y-12635356D01*
X15958000Y-9290000D02*
X16058000Y-9390000D01*
X16058000Y-9290000D02*
X15958000Y-9390000D01*
X16043356Y-9375356D02*
X16043356Y-9304644D01*
X15972644Y-9304644D01*
X15972644Y-9375356D01*
X16043356Y-9375356D01*
X15958000Y-9650000D02*
X16058000Y-9750000D01*
X16058000Y-9650000D02*
X15958000Y-9750000D01*
X16043356Y-9735356D02*
X16043356Y-9664644D01*
X15972644Y-9664644D01*
X15972644Y-9735356D01*
X16043356Y-9735356D01*
X15958000Y-10850000D02*
X16058000Y-10950000D01*
X16058000Y-10850000D02*
X15958000Y-10950000D01*
X16043356Y-10935356D02*
X16043356Y-10864644D01*
X15972644Y-10864644D01*
X15972644Y-10935356D01*
X16043356Y-10935356D01*
X15958000Y-11210000D02*
X16058000Y-11310000D01*
X16058000Y-11210000D02*
X15958000Y-11310000D01*
X16043356Y-11295356D02*
X16043356Y-11224644D01*
X15972644Y-11224644D01*
X15972644Y-11295356D01*
X16043356Y-11295356D01*
X16156000Y-7950000D02*
X16256000Y-8050000D01*
X16256000Y-7950000D02*
X16156000Y-8050000D01*
X16241356Y-8035356D02*
X16241356Y-7964644D01*
X16170644Y-7964644D01*
X16170644Y-8035356D01*
X16241356Y-8035356D01*
X16158000Y-12550000D02*
X16258000Y-12650000D01*
X16258000Y-12550000D02*
X16158000Y-12650000D01*
X16243356Y-12635356D02*
X16243356Y-12564644D01*
X16172644Y-12564644D01*
X16172644Y-12635356D01*
X16243356Y-12635356D01*
X16410000Y-7950000D02*
X16510000Y-8050000D01*
X16510000Y-7950000D02*
X16410000Y-8050000D01*
X16495356Y-8035356D02*
X16495356Y-7964644D01*
X16424644Y-7964644D01*
X16424644Y-8035356D01*
X16495356Y-8035356D01*
X16412000Y-12550000D02*
X16512000Y-12650000D01*
X16512000Y-12550000D02*
X16412000Y-12650000D01*
X16497356Y-12635356D02*
X16497356Y-12564644D01*
X16426644Y-12564644D01*
X16426644Y-12635356D01*
X16497356Y-12635356D01*
X16664000Y-7950000D02*
X16764000Y-8050000D01*
X16764000Y-7950000D02*
X16664000Y-8050000D01*
X16749356Y-8035356D02*
X16749356Y-7964644D01*
X16678644Y-7964644D01*
X16678644Y-8035356D01*
X16749356Y-8035356D01*
X16666000Y-12550000D02*
X16766000Y-12650000D01*
X16766000Y-12550000D02*
X16666000Y-12650000D01*
X16751356Y-12635356D02*
X16751356Y-12564644D01*
X16680644Y-12564644D01*
X16680644Y-12635356D01*
X16751356Y-12635356D01*
X16918000Y-7950000D02*
X17018000Y-8050000D01*
X17018000Y-7950000D02*
X16918000Y-8050000D01*
X17003356Y-8035356D02*
X17003356Y-7964644D01*
X16932644Y-7964644D01*
X16932644Y-8035356D01*
X17003356Y-8035356D01*
X16920000Y-12550000D02*
X17020000Y-12650000D01*
X17020000Y-12550000D02*
X16920000Y-12650000D01*
X17005356Y-12635356D02*
X17005356Y-12564644D01*
X16934644Y-12564644D01*
X16934644Y-12635356D01*
X17005356Y-12635356D01*
X17172000Y-7950000D02*
X17272000Y-8050000D01*
X17272000Y-7950000D02*
X17172000Y-8050000D01*
X17257356Y-8035356D02*
X17257356Y-7964644D01*
X17186644Y-7964644D01*
X17186644Y-8035356D01*
X17257356Y-8035356D01*
X17174000Y-12550000D02*
X17274000Y-12650000D01*
X17274000Y-12550000D02*
X17174000Y-12650000D01*
X17259356Y-12635356D02*
X17259356Y-12564644D01*
X17188644Y-12564644D01*
X17188644Y-12635356D01*
X17259356Y-12635356D01*
X17426000Y-7950000D02*
X17526000Y-8050000D01*
X17526000Y-7950000D02*
X17426000Y-8050000D01*
X17511356Y-8035356D02*
X17511356Y-7964644D01*
X17440644Y-7964644D01*
X17440644Y-8035356D01*
X17511356Y-8035356D01*
X17428000Y-12550000D02*
X17528000Y-12650000D01*
X17528000Y-12550000D02*
X17428000Y-12650000D01*
X17513356Y-12635356D02*
X17513356Y-12564644D01*
X17442644Y-12564644D01*
X17442644Y-12635356D01*
X17513356Y-12635356D01*
D11*
X9055119Y-13112976D02*
X9055119Y-12912976D01*
X9102738Y-12912976D01*
X9131310Y-12922500D01*
X9150357Y-12941548D01*
X9159881Y-12960595D01*
X9169405Y-12998690D01*
X9169405Y-13027262D01*
X9159881Y-13065357D01*
X9150357Y-13084405D01*
X9131310Y-13103452D01*
X9102738Y-13112976D01*
X9055119Y-13112976D01*
X9255119Y-13112976D02*
X9255119Y-12979643D01*
X9255119Y-13017738D02*
X9264643Y-12998690D01*
X9274167Y-12989167D01*
X9293214Y-12979643D01*
X9312262Y-12979643D01*
X9378929Y-13112976D02*
X9378929Y-12979643D01*
X9378929Y-12912976D02*
X9369405Y-12922500D01*
X9378929Y-12932024D01*
X9388452Y-12922500D01*
X9378929Y-12912976D01*
X9378929Y-12932024D01*
X9502738Y-13112976D02*
X9483690Y-13103452D01*
X9474167Y-13084405D01*
X9474167Y-12912976D01*
X9607500Y-13112976D02*
X9588452Y-13103452D01*
X9578929Y-13084405D01*
X9578929Y-12912976D01*
X9836071Y-13112976D02*
X9836071Y-12912976D01*
X9902738Y-13055833D01*
X9969405Y-12912976D01*
X9969405Y-13112976D01*
X10150357Y-13112976D02*
X10150357Y-13008214D01*
X10140833Y-12989167D01*
X10121786Y-12979643D01*
X10083690Y-12979643D01*
X10064643Y-12989167D01*
X10150357Y-13103452D02*
X10131310Y-13112976D01*
X10083690Y-13112976D01*
X10064643Y-13103452D01*
X10055119Y-13084405D01*
X10055119Y-13065357D01*
X10064643Y-13046309D01*
X10083690Y-13036786D01*
X10131310Y-13036786D01*
X10150357Y-13027262D01*
X10245595Y-12979643D02*
X10245595Y-13179643D01*
X10245595Y-12989167D02*
X10264643Y-12979643D01*
X10302738Y-12979643D01*
X10321786Y-12989167D01*
X10331310Y-12998690D01*
X10340833Y-13017738D01*
X10340833Y-13074881D01*
X10331310Y-13093928D01*
X10321786Y-13103452D01*
X10302738Y-13112976D01*
X10264643Y-13112976D01*
X10245595Y-13103452D01*
X10426548Y-13093928D02*
X10436071Y-13103452D01*
X10426548Y-13112976D01*
X10417024Y-13103452D01*
X10426548Y-13093928D01*
X10426548Y-13112976D01*
X10426548Y-12989167D02*
X10436071Y-12998690D01*
X10426548Y-13008214D01*
X10417024Y-12998690D01*
X10426548Y-12989167D01*
X10426548Y-13008214D01*
D12*
X8777500Y-13432500D02*
X8797500Y-13452500D01*
X8797500Y-13432500D02*
X8777500Y-13452500D01*
D11*
X9093214Y-13332976D02*
X9112262Y-13332976D01*
X9131310Y-13342500D01*
X9140833Y-13352024D01*
X9150357Y-13371071D01*
X9159881Y-13409167D01*
X9159881Y-13456786D01*
X9150357Y-13494881D01*
X9140833Y-13513928D01*
X9131310Y-13523452D01*
X9112262Y-13532976D01*
X9093214Y-13532976D01*
X9074167Y-13523452D01*
X9064643Y-13513928D01*
X9055119Y-13494881D01*
X9045595Y-13456786D01*
X9045595Y-13409167D01*
X9055119Y-13371071D01*
X9064643Y-13352024D01*
X9074167Y-13342500D01*
X9093214Y-13332976D01*
X9245595Y-13513928D02*
X9255119Y-13523452D01*
X9245595Y-13532976D01*
X9236071Y-13523452D01*
X9245595Y-13513928D01*
X9245595Y-13532976D01*
X9331310Y-13352024D02*
X9340833Y-13342500D01*
X9359881Y-13332976D01*
X9407500Y-13332976D01*
X9426548Y-13342500D01*
X9436071Y-13352024D01*
X9445595Y-13371071D01*
X9445595Y-13390119D01*
X9436071Y-13418690D01*
X9321786Y-13532976D01*
X9445595Y-13532976D01*
X9569405Y-13332976D02*
X9588452Y-13332976D01*
X9607500Y-13342500D01*
X9617024Y-13352024D01*
X9626548Y-13371071D01*
X9636071Y-13409167D01*
X9636071Y-13456786D01*
X9626548Y-13494881D01*
X9617024Y-13513928D01*
X9607500Y-13523452D01*
X9588452Y-13532976D01*
X9569405Y-13532976D01*
X9550357Y-13523452D01*
X9540833Y-13513928D01*
X9531310Y-13494881D01*
X9521786Y-13456786D01*
X9521786Y-13409167D01*
X9531310Y-13371071D01*
X9540833Y-13352024D01*
X9550357Y-13342500D01*
X9569405Y-13332976D01*
X9759881Y-13332976D02*
X9778929Y-13332976D01*
X9797976Y-13342500D01*
X9807500Y-13352024D01*
X9817024Y-13371071D01*
X9826548Y-13409167D01*
X9826548Y-13456786D01*
X9817024Y-13494881D01*
X9807500Y-13513928D01*
X9797976Y-13523452D01*
X9778929Y-13532976D01*
X9759881Y-13532976D01*
X9740833Y-13523452D01*
X9731310Y-13513928D01*
X9721786Y-13494881D01*
X9712262Y-13456786D01*
X9712262Y-13409167D01*
X9721786Y-13371071D01*
X9731310Y-13352024D01*
X9740833Y-13342500D01*
X9759881Y-13332976D01*
X9912262Y-13532976D02*
X9912262Y-13399643D01*
X9912262Y-13418690D02*
X9921786Y-13409167D01*
X9940833Y-13399643D01*
X9969405Y-13399643D01*
X9988452Y-13409167D01*
X9997976Y-13428214D01*
X9997976Y-13532976D01*
X9997976Y-13428214D02*
X10007500Y-13409167D01*
X10026548Y-13399643D01*
X10055119Y-13399643D01*
X10074167Y-13409167D01*
X10083690Y-13428214D01*
X10083690Y-13532976D01*
X10178929Y-13532976D02*
X10178929Y-13399643D01*
X10178929Y-13418690D02*
X10188452Y-13409167D01*
X10207500Y-13399643D01*
X10236071Y-13399643D01*
X10255119Y-13409167D01*
X10264643Y-13428214D01*
X10264643Y-13532976D01*
X10264643Y-13428214D02*
X10274167Y-13409167D01*
X10293214Y-13399643D01*
X10321786Y-13399643D01*
X10340833Y-13409167D01*
X10350357Y-13428214D01*
X10350357Y-13532976D01*
X10740833Y-13323452D02*
X10569405Y-13580595D01*
X10997976Y-13332976D02*
X11017024Y-13332976D01*
X11036071Y-13342500D01*
X11045595Y-13352024D01*
X11055119Y-13371071D01*
X11064643Y-13409167D01*
X11064643Y-13456786D01*
X11055119Y-13494881D01*
X11045595Y-13513928D01*
X11036071Y-13523452D01*
X11017024Y-13532976D01*
X10997976Y-13532976D01*
X10978929Y-13523452D01*
X10969405Y-13513928D01*
X10959881Y-13494881D01*
X10950357Y-13456786D01*
X10950357Y-13409167D01*
X10959881Y-13371071D01*
X10969405Y-13352024D01*
X10978929Y-13342500D01*
X10997976Y-13332976D01*
X11150357Y-13513928D02*
X11159881Y-13523452D01*
X11150357Y-13532976D01*
X11140833Y-13523452D01*
X11150357Y-13513928D01*
X11150357Y-13532976D01*
X11283690Y-13332976D02*
X11302738Y-13332976D01*
X11321786Y-13342500D01*
X11331309Y-13352024D01*
X11340833Y-13371071D01*
X11350357Y-13409167D01*
X11350357Y-13456786D01*
X11340833Y-13494881D01*
X11331309Y-13513928D01*
X11321786Y-13523452D01*
X11302738Y-13532976D01*
X11283690Y-13532976D01*
X11264643Y-13523452D01*
X11255119Y-13513928D01*
X11245595Y-13494881D01*
X11236071Y-13456786D01*
X11236071Y-13409167D01*
X11245595Y-13371071D01*
X11255119Y-13352024D01*
X11264643Y-13342500D01*
X11283690Y-13332976D01*
X11474167Y-13332976D02*
X11493214Y-13332976D01*
X11512262Y-13342500D01*
X11521786Y-13352024D01*
X11531309Y-13371071D01*
X11540833Y-13409167D01*
X11540833Y-13456786D01*
X11531309Y-13494881D01*
X11521786Y-13513928D01*
X11512262Y-13523452D01*
X11493214Y-13532976D01*
X11474167Y-13532976D01*
X11455119Y-13523452D01*
X11445595Y-13513928D01*
X11436071Y-13494881D01*
X11426548Y-13456786D01*
X11426548Y-13409167D01*
X11436071Y-13371071D01*
X11445595Y-13352024D01*
X11455119Y-13342500D01*
X11474167Y-13332976D01*
X11607500Y-13332976D02*
X11740833Y-13332976D01*
X11655119Y-13532976D01*
X11826548Y-13532976D02*
X11864643Y-13532976D01*
X11883690Y-13523452D01*
X11893214Y-13513928D01*
X11912262Y-13485357D01*
X11921786Y-13447262D01*
X11921786Y-13371071D01*
X11912262Y-13352024D01*
X11902738Y-13342500D01*
X11883690Y-13332976D01*
X11845595Y-13332976D01*
X11826548Y-13342500D01*
X11817024Y-13352024D01*
X11807500Y-13371071D01*
X11807500Y-13418690D01*
X11817024Y-13437738D01*
X11826548Y-13447262D01*
X11845595Y-13456786D01*
X11883690Y-13456786D01*
X11902738Y-13447262D01*
X11912262Y-13437738D01*
X11921786Y-13418690D01*
X11997976Y-13332976D02*
X11997976Y-13371071D01*
X12074167Y-13332976D02*
X12074167Y-13371071D01*
X12369405Y-13609167D02*
X12359881Y-13599643D01*
X12340833Y-13571071D01*
X12331309Y-13552024D01*
X12321786Y-13523452D01*
X12312262Y-13475833D01*
X12312262Y-13437738D01*
X12321786Y-13390119D01*
X12331309Y-13361548D01*
X12340833Y-13342500D01*
X12359881Y-13313928D01*
X12369405Y-13304405D01*
X12474167Y-13418690D02*
X12455119Y-13409167D01*
X12445595Y-13399643D01*
X12436071Y-13380595D01*
X12436071Y-13371071D01*
X12445595Y-13352024D01*
X12455119Y-13342500D01*
X12474167Y-13332976D01*
X12512262Y-13332976D01*
X12531309Y-13342500D01*
X12540833Y-13352024D01*
X12550357Y-13371071D01*
X12550357Y-13380595D01*
X12540833Y-13399643D01*
X12531309Y-13409167D01*
X12512262Y-13418690D01*
X12474167Y-13418690D01*
X12455119Y-13428214D01*
X12445595Y-13437738D01*
X12436071Y-13456786D01*
X12436071Y-13494881D01*
X12445595Y-13513928D01*
X12455119Y-13523452D01*
X12474167Y-13532976D01*
X12512262Y-13532976D01*
X12531309Y-13523452D01*
X12540833Y-13513928D01*
X12550357Y-13494881D01*
X12550357Y-13456786D01*
X12540833Y-13437738D01*
X12531309Y-13428214D01*
X12512262Y-13418690D01*
X12788452Y-13532976D02*
X12788452Y-13332976D01*
X12874167Y-13532976D02*
X12874167Y-13428214D01*
X12864643Y-13409167D01*
X12845595Y-13399643D01*
X12817024Y-13399643D01*
X12797976Y-13409167D01*
X12788452Y-13418690D01*
X12997976Y-13532976D02*
X12978928Y-13523452D01*
X12969405Y-13513928D01*
X12959881Y-13494881D01*
X12959881Y-13437738D01*
X12969405Y-13418690D01*
X12978928Y-13409167D01*
X12997976Y-13399643D01*
X13026548Y-13399643D01*
X13045595Y-13409167D01*
X13055119Y-13418690D01*
X13064643Y-13437738D01*
X13064643Y-13494881D01*
X13055119Y-13513928D01*
X13045595Y-13523452D01*
X13026548Y-13532976D01*
X12997976Y-13532976D01*
X13178928Y-13532976D02*
X13159881Y-13523452D01*
X13150357Y-13504405D01*
X13150357Y-13332976D01*
X13331309Y-13523452D02*
X13312262Y-13532976D01*
X13274167Y-13532976D01*
X13255119Y-13523452D01*
X13245595Y-13504405D01*
X13245595Y-13428214D01*
X13255119Y-13409167D01*
X13274167Y-13399643D01*
X13312262Y-13399643D01*
X13331309Y-13409167D01*
X13340833Y-13428214D01*
X13340833Y-13447262D01*
X13245595Y-13466309D01*
X13417024Y-13523452D02*
X13436071Y-13532976D01*
X13474167Y-13532976D01*
X13493214Y-13523452D01*
X13502738Y-13504405D01*
X13502738Y-13494881D01*
X13493214Y-13475833D01*
X13474167Y-13466309D01*
X13445595Y-13466309D01*
X13426548Y-13456786D01*
X13417024Y-13437738D01*
X13417024Y-13428214D01*
X13426548Y-13409167D01*
X13445595Y-13399643D01*
X13474167Y-13399643D01*
X13493214Y-13409167D01*
X13569405Y-13609167D02*
X13578928Y-13599643D01*
X13597976Y-13571071D01*
X13607500Y-13552024D01*
X13617024Y-13523452D01*
X13626548Y-13475833D01*
X13626548Y-13437738D01*
X13617024Y-13390119D01*
X13607500Y-13361548D01*
X13597976Y-13342500D01*
X13578928Y-13313928D01*
X13569405Y-13304405D01*
D13*
X8797500Y-13706500D02*
G75*
G03*
X8797500Y-13706500I-15000J0D01*
G01*
D11*
X9093214Y-13596976D02*
X9112262Y-13596976D01*
X9131310Y-13606500D01*
X9140833Y-13616024D01*
X9150357Y-13635071D01*
X9159881Y-13673167D01*
X9159881Y-13720786D01*
X9150357Y-13758881D01*
X9140833Y-13777928D01*
X9131310Y-13787452D01*
X9112262Y-13796976D01*
X9093214Y-13796976D01*
X9074167Y-13787452D01*
X9064643Y-13777928D01*
X9055119Y-13758881D01*
X9045595Y-13720786D01*
X9045595Y-13673167D01*
X9055119Y-13635071D01*
X9064643Y-13616024D01*
X9074167Y-13606500D01*
X9093214Y-13596976D01*
X9245595Y-13777928D02*
X9255119Y-13787452D01*
X9245595Y-13796976D01*
X9236071Y-13787452D01*
X9245595Y-13777928D01*
X9245595Y-13796976D01*
X9321786Y-13596976D02*
X9445595Y-13596976D01*
X9378929Y-13673167D01*
X9407500Y-13673167D01*
X9426548Y-13682690D01*
X9436071Y-13692214D01*
X9445595Y-13711262D01*
X9445595Y-13758881D01*
X9436071Y-13777928D01*
X9426548Y-13787452D01*
X9407500Y-13796976D01*
X9350357Y-13796976D01*
X9331310Y-13787452D01*
X9321786Y-13777928D01*
X9569405Y-13596976D02*
X9588452Y-13596976D01*
X9607500Y-13606500D01*
X9617024Y-13616024D01*
X9626548Y-13635071D01*
X9636071Y-13673167D01*
X9636071Y-13720786D01*
X9626548Y-13758881D01*
X9617024Y-13777928D01*
X9607500Y-13787452D01*
X9588452Y-13796976D01*
X9569405Y-13796976D01*
X9550357Y-13787452D01*
X9540833Y-13777928D01*
X9531310Y-13758881D01*
X9521786Y-13720786D01*
X9521786Y-13673167D01*
X9531310Y-13635071D01*
X9540833Y-13616024D01*
X9550357Y-13606500D01*
X9569405Y-13596976D01*
X9759881Y-13596976D02*
X9778929Y-13596976D01*
X9797976Y-13606500D01*
X9807500Y-13616024D01*
X9817024Y-13635071D01*
X9826548Y-13673167D01*
X9826548Y-13720786D01*
X9817024Y-13758881D01*
X9807500Y-13777928D01*
X9797976Y-13787452D01*
X9778929Y-13796976D01*
X9759881Y-13796976D01*
X9740833Y-13787452D01*
X9731310Y-13777928D01*
X9721786Y-13758881D01*
X9712262Y-13720786D01*
X9712262Y-13673167D01*
X9721786Y-13635071D01*
X9731310Y-13616024D01*
X9740833Y-13606500D01*
X9759881Y-13596976D01*
X9912262Y-13796976D02*
X9912262Y-13663643D01*
X9912262Y-13682690D02*
X9921786Y-13673167D01*
X9940833Y-13663643D01*
X9969405Y-13663643D01*
X9988452Y-13673167D01*
X9997976Y-13692214D01*
X9997976Y-13796976D01*
X9997976Y-13692214D02*
X10007500Y-13673167D01*
X10026548Y-13663643D01*
X10055119Y-13663643D01*
X10074167Y-13673167D01*
X10083690Y-13692214D01*
X10083690Y-13796976D01*
X10178929Y-13796976D02*
X10178929Y-13663643D01*
X10178929Y-13682690D02*
X10188452Y-13673167D01*
X10207500Y-13663643D01*
X10236071Y-13663643D01*
X10255119Y-13673167D01*
X10264643Y-13692214D01*
X10264643Y-13796976D01*
X10264643Y-13692214D02*
X10274167Y-13673167D01*
X10293214Y-13663643D01*
X10321786Y-13663643D01*
X10340833Y-13673167D01*
X10350357Y-13692214D01*
X10350357Y-13796976D01*
X10740833Y-13587452D02*
X10569405Y-13844595D01*
X10997976Y-13596976D02*
X11017024Y-13596976D01*
X11036071Y-13606500D01*
X11045595Y-13616024D01*
X11055119Y-13635071D01*
X11064643Y-13673167D01*
X11064643Y-13720786D01*
X11055119Y-13758881D01*
X11045595Y-13777928D01*
X11036071Y-13787452D01*
X11017024Y-13796976D01*
X10997976Y-13796976D01*
X10978929Y-13787452D01*
X10969405Y-13777928D01*
X10959881Y-13758881D01*
X10950357Y-13720786D01*
X10950357Y-13673167D01*
X10959881Y-13635071D01*
X10969405Y-13616024D01*
X10978929Y-13606500D01*
X10997976Y-13596976D01*
X11150357Y-13777928D02*
X11159881Y-13787452D01*
X11150357Y-13796976D01*
X11140833Y-13787452D01*
X11150357Y-13777928D01*
X11150357Y-13796976D01*
X11283690Y-13596976D02*
X11302738Y-13596976D01*
X11321786Y-13606500D01*
X11331309Y-13616024D01*
X11340833Y-13635071D01*
X11350357Y-13673167D01*
X11350357Y-13720786D01*
X11340833Y-13758881D01*
X11331309Y-13777928D01*
X11321786Y-13787452D01*
X11302738Y-13796976D01*
X11283690Y-13796976D01*
X11264643Y-13787452D01*
X11255119Y-13777928D01*
X11245595Y-13758881D01*
X11236071Y-13720786D01*
X11236071Y-13673167D01*
X11245595Y-13635071D01*
X11255119Y-13616024D01*
X11264643Y-13606500D01*
X11283690Y-13596976D01*
X11540833Y-13796976D02*
X11426548Y-13796976D01*
X11483690Y-13796976D02*
X11483690Y-13596976D01*
X11464643Y-13625548D01*
X11445595Y-13644595D01*
X11426548Y-13654119D01*
X11731309Y-13796976D02*
X11617024Y-13796976D01*
X11674167Y-13796976D02*
X11674167Y-13596976D01*
X11655119Y-13625548D01*
X11636071Y-13644595D01*
X11617024Y-13654119D01*
X11845595Y-13682690D02*
X11826548Y-13673167D01*
X11817024Y-13663643D01*
X11807500Y-13644595D01*
X11807500Y-13635071D01*
X11817024Y-13616024D01*
X11826548Y-13606500D01*
X11845595Y-13596976D01*
X11883690Y-13596976D01*
X11902738Y-13606500D01*
X11912262Y-13616024D01*
X11921786Y-13635071D01*
X11921786Y-13644595D01*
X11912262Y-13663643D01*
X11902738Y-13673167D01*
X11883690Y-13682690D01*
X11845595Y-13682690D01*
X11826548Y-13692214D01*
X11817024Y-13701738D01*
X11807500Y-13720786D01*
X11807500Y-13758881D01*
X11817024Y-13777928D01*
X11826548Y-13787452D01*
X11845595Y-13796976D01*
X11883690Y-13796976D01*
X11902738Y-13787452D01*
X11912262Y-13777928D01*
X11921786Y-13758881D01*
X11921786Y-13720786D01*
X11912262Y-13701738D01*
X11902738Y-13692214D01*
X11883690Y-13682690D01*
X11997976Y-13596976D02*
X11997976Y-13635071D01*
X12074167Y-13596976D02*
X12074167Y-13635071D01*
X12369405Y-13873167D02*
X12359881Y-13863643D01*
X12340833Y-13835071D01*
X12331309Y-13816024D01*
X12321786Y-13787452D01*
X12312262Y-13739833D01*
X12312262Y-13701738D01*
X12321786Y-13654119D01*
X12331309Y-13625548D01*
X12340833Y-13606500D01*
X12359881Y-13577928D01*
X12369405Y-13568405D01*
X12436071Y-13616024D02*
X12445595Y-13606500D01*
X12464643Y-13596976D01*
X12512262Y-13596976D01*
X12531309Y-13606500D01*
X12540833Y-13616024D01*
X12550357Y-13635071D01*
X12550357Y-13654119D01*
X12540833Y-13682690D01*
X12426548Y-13796976D01*
X12550357Y-13796976D01*
X12740833Y-13796976D02*
X12626548Y-13796976D01*
X12683690Y-13796976D02*
X12683690Y-13596976D01*
X12664643Y-13625548D01*
X12645595Y-13644595D01*
X12626548Y-13654119D01*
X12978928Y-13796976D02*
X12978928Y-13596976D01*
X13064643Y-13796976D02*
X13064643Y-13692214D01*
X13055119Y-13673167D01*
X13036071Y-13663643D01*
X13007500Y-13663643D01*
X12988452Y-13673167D01*
X12978928Y-13682690D01*
X13188452Y-13796976D02*
X13169405Y-13787452D01*
X13159881Y-13777928D01*
X13150357Y-13758881D01*
X13150357Y-13701738D01*
X13159881Y-13682690D01*
X13169405Y-13673167D01*
X13188452Y-13663643D01*
X13217024Y-13663643D01*
X13236071Y-13673167D01*
X13245595Y-13682690D01*
X13255119Y-13701738D01*
X13255119Y-13758881D01*
X13245595Y-13777928D01*
X13236071Y-13787452D01*
X13217024Y-13796976D01*
X13188452Y-13796976D01*
X13369405Y-13796976D02*
X13350357Y-13787452D01*
X13340833Y-13768405D01*
X13340833Y-13596976D01*
X13521786Y-13787452D02*
X13502738Y-13796976D01*
X13464643Y-13796976D01*
X13445595Y-13787452D01*
X13436071Y-13768405D01*
X13436071Y-13692214D01*
X13445595Y-13673167D01*
X13464643Y-13663643D01*
X13502738Y-13663643D01*
X13521786Y-13673167D01*
X13531309Y-13692214D01*
X13531309Y-13711262D01*
X13436071Y-13730309D01*
X13607500Y-13787452D02*
X13626548Y-13796976D01*
X13664643Y-13796976D01*
X13683690Y-13787452D01*
X13693214Y-13768405D01*
X13693214Y-13758881D01*
X13683690Y-13739833D01*
X13664643Y-13730309D01*
X13636071Y-13730309D01*
X13617024Y-13720786D01*
X13607500Y-13701738D01*
X13607500Y-13692214D01*
X13617024Y-13673167D01*
X13636071Y-13663643D01*
X13664643Y-13663643D01*
X13683690Y-13673167D01*
X13759881Y-13873167D02*
X13769405Y-13863643D01*
X13788452Y-13835071D01*
X13797976Y-13816024D01*
X13807500Y-13787452D01*
X13817024Y-13739833D01*
X13817024Y-13701738D01*
X13807500Y-13654119D01*
X13797976Y-13625548D01*
X13788452Y-13606500D01*
X13769405Y-13577928D01*
X13759881Y-13568405D01*
D14*
X8777500Y-13950500D02*
X8777500Y-13990500D01*
X8757500Y-13970500D02*
X8797500Y-13970500D01*
D11*
X9093214Y-13860976D02*
X9112262Y-13860976D01*
X9131310Y-13870500D01*
X9140833Y-13880024D01*
X9150357Y-13899071D01*
X9159881Y-13937167D01*
X9159881Y-13984786D01*
X9150357Y-14022881D01*
X9140833Y-14041928D01*
X9131310Y-14051452D01*
X9112262Y-14060976D01*
X9093214Y-14060976D01*
X9074167Y-14051452D01*
X9064643Y-14041928D01*
X9055119Y-14022881D01*
X9045595Y-13984786D01*
X9045595Y-13937167D01*
X9055119Y-13899071D01*
X9064643Y-13880024D01*
X9074167Y-13870500D01*
X9093214Y-13860976D01*
X9245595Y-14041928D02*
X9255119Y-14051452D01*
X9245595Y-14060976D01*
X9236071Y-14051452D01*
X9245595Y-14041928D01*
X9245595Y-14060976D01*
X9426548Y-13927643D02*
X9426548Y-14060976D01*
X9378929Y-13851452D02*
X9331310Y-13994309D01*
X9455119Y-13994309D01*
X9569405Y-13860976D02*
X9588452Y-13860976D01*
X9607500Y-13870500D01*
X9617024Y-13880024D01*
X9626548Y-13899071D01*
X9636071Y-13937167D01*
X9636071Y-13984786D01*
X9626548Y-14022881D01*
X9617024Y-14041928D01*
X9607500Y-14051452D01*
X9588452Y-14060976D01*
X9569405Y-14060976D01*
X9550357Y-14051452D01*
X9540833Y-14041928D01*
X9531310Y-14022881D01*
X9521786Y-13984786D01*
X9521786Y-13937167D01*
X9531310Y-13899071D01*
X9540833Y-13880024D01*
X9550357Y-13870500D01*
X9569405Y-13860976D01*
X9759881Y-13860976D02*
X9778929Y-13860976D01*
X9797976Y-13870500D01*
X9807500Y-13880024D01*
X9817024Y-13899071D01*
X9826548Y-13937167D01*
X9826548Y-13984786D01*
X9817024Y-14022881D01*
X9807500Y-14041928D01*
X9797976Y-14051452D01*
X9778929Y-14060976D01*
X9759881Y-14060976D01*
X9740833Y-14051452D01*
X9731310Y-14041928D01*
X9721786Y-14022881D01*
X9712262Y-13984786D01*
X9712262Y-13937167D01*
X9721786Y-13899071D01*
X9731310Y-13880024D01*
X9740833Y-13870500D01*
X9759881Y-13860976D01*
X9912262Y-14060976D02*
X9912262Y-13927643D01*
X9912262Y-13946690D02*
X9921786Y-13937167D01*
X9940833Y-13927643D01*
X9969405Y-13927643D01*
X9988452Y-13937167D01*
X9997976Y-13956214D01*
X9997976Y-14060976D01*
X9997976Y-13956214D02*
X10007500Y-13937167D01*
X10026548Y-13927643D01*
X10055119Y-13927643D01*
X10074167Y-13937167D01*
X10083690Y-13956214D01*
X10083690Y-14060976D01*
X10178929Y-14060976D02*
X10178929Y-13927643D01*
X10178929Y-13946690D02*
X10188452Y-13937167D01*
X10207500Y-13927643D01*
X10236071Y-13927643D01*
X10255119Y-13937167D01*
X10264643Y-13956214D01*
X10264643Y-14060976D01*
X10264643Y-13956214D02*
X10274167Y-13937167D01*
X10293214Y-13927643D01*
X10321786Y-13927643D01*
X10340833Y-13937167D01*
X10350357Y-13956214D01*
X10350357Y-14060976D01*
X10740833Y-13851452D02*
X10569405Y-14108595D01*
X10997976Y-13860976D02*
X11017024Y-13860976D01*
X11036071Y-13870500D01*
X11045595Y-13880024D01*
X11055119Y-13899071D01*
X11064643Y-13937167D01*
X11064643Y-13984786D01*
X11055119Y-14022881D01*
X11045595Y-14041928D01*
X11036071Y-14051452D01*
X11017024Y-14060976D01*
X10997976Y-14060976D01*
X10978929Y-14051452D01*
X10969405Y-14041928D01*
X10959881Y-14022881D01*
X10950357Y-13984786D01*
X10950357Y-13937167D01*
X10959881Y-13899071D01*
X10969405Y-13880024D01*
X10978929Y-13870500D01*
X10997976Y-13860976D01*
X11150357Y-14041928D02*
X11159881Y-14051452D01*
X11150357Y-14060976D01*
X11140833Y-14051452D01*
X11150357Y-14041928D01*
X11150357Y-14060976D01*
X11283690Y-13860976D02*
X11302738Y-13860976D01*
X11321786Y-13870500D01*
X11331309Y-13880024D01*
X11340833Y-13899071D01*
X11350357Y-13937167D01*
X11350357Y-13984786D01*
X11340833Y-14022881D01*
X11331309Y-14041928D01*
X11321786Y-14051452D01*
X11302738Y-14060976D01*
X11283690Y-14060976D01*
X11264643Y-14051452D01*
X11255119Y-14041928D01*
X11245595Y-14022881D01*
X11236071Y-13984786D01*
X11236071Y-13937167D01*
X11245595Y-13899071D01*
X11255119Y-13880024D01*
X11264643Y-13870500D01*
X11283690Y-13860976D01*
X11540833Y-14060976D02*
X11426548Y-14060976D01*
X11483690Y-14060976D02*
X11483690Y-13860976D01*
X11464643Y-13889548D01*
X11445595Y-13908595D01*
X11426548Y-13918119D01*
X11721786Y-13860976D02*
X11626548Y-13860976D01*
X11617024Y-13956214D01*
X11626548Y-13946690D01*
X11645595Y-13937167D01*
X11693214Y-13937167D01*
X11712262Y-13946690D01*
X11721786Y-13956214D01*
X11731309Y-13975262D01*
X11731309Y-14022881D01*
X11721786Y-14041928D01*
X11712262Y-14051452D01*
X11693214Y-14060976D01*
X11645595Y-14060976D01*
X11626548Y-14051452D01*
X11617024Y-14041928D01*
X11797976Y-13860976D02*
X11931309Y-13860976D01*
X11845595Y-14060976D01*
X11997976Y-13860976D02*
X11997976Y-13899071D01*
X12074167Y-13860976D02*
X12074167Y-13899071D01*
X12369405Y-14137167D02*
X12359881Y-14127643D01*
X12340833Y-14099071D01*
X12331309Y-14080024D01*
X12321786Y-14051452D01*
X12312262Y-14003833D01*
X12312262Y-13965738D01*
X12321786Y-13918119D01*
X12331309Y-13889548D01*
X12340833Y-13870500D01*
X12359881Y-13841928D01*
X12369405Y-13832405D01*
X12550357Y-14060976D02*
X12436071Y-14060976D01*
X12493214Y-14060976D02*
X12493214Y-13860976D01*
X12474167Y-13889548D01*
X12455119Y-13908595D01*
X12436071Y-13918119D01*
X12645595Y-14060976D02*
X12683690Y-14060976D01*
X12702738Y-14051452D01*
X12712262Y-14041928D01*
X12731309Y-14013357D01*
X12740833Y-13975262D01*
X12740833Y-13899071D01*
X12731309Y-13880024D01*
X12721786Y-13870500D01*
X12702738Y-13860976D01*
X12664643Y-13860976D01*
X12645595Y-13870500D01*
X12636071Y-13880024D01*
X12626548Y-13899071D01*
X12626548Y-13946690D01*
X12636071Y-13965738D01*
X12645595Y-13975262D01*
X12664643Y-13984786D01*
X12702738Y-13984786D01*
X12721786Y-13975262D01*
X12731309Y-13965738D01*
X12740833Y-13946690D01*
X12978928Y-14060976D02*
X12978928Y-13860976D01*
X13064643Y-14060976D02*
X13064643Y-13956214D01*
X13055119Y-13937167D01*
X13036071Y-13927643D01*
X13007500Y-13927643D01*
X12988452Y-13937167D01*
X12978928Y-13946690D01*
X13188452Y-14060976D02*
X13169405Y-14051452D01*
X13159881Y-14041928D01*
X13150357Y-14022881D01*
X13150357Y-13965738D01*
X13159881Y-13946690D01*
X13169405Y-13937167D01*
X13188452Y-13927643D01*
X13217024Y-13927643D01*
X13236071Y-13937167D01*
X13245595Y-13946690D01*
X13255119Y-13965738D01*
X13255119Y-14022881D01*
X13245595Y-14041928D01*
X13236071Y-14051452D01*
X13217024Y-14060976D01*
X13188452Y-14060976D01*
X13369405Y-14060976D02*
X13350357Y-14051452D01*
X13340833Y-14032405D01*
X13340833Y-13860976D01*
X13521786Y-14051452D02*
X13502738Y-14060976D01*
X13464643Y-14060976D01*
X13445595Y-14051452D01*
X13436071Y-14032405D01*
X13436071Y-13956214D01*
X13445595Y-13937167D01*
X13464643Y-13927643D01*
X13502738Y-13927643D01*
X13521786Y-13937167D01*
X13531309Y-13956214D01*
X13531309Y-13975262D01*
X13436071Y-13994309D01*
X13607500Y-14051452D02*
X13626548Y-14060976D01*
X13664643Y-14060976D01*
X13683690Y-14051452D01*
X13693214Y-14032405D01*
X13693214Y-14022881D01*
X13683690Y-14003833D01*
X13664643Y-13994309D01*
X13636071Y-13994309D01*
X13617024Y-13984786D01*
X13607500Y-13965738D01*
X13607500Y-13956214D01*
X13617024Y-13937167D01*
X13636071Y-13927643D01*
X13664643Y-13927643D01*
X13683690Y-13937167D01*
X13759881Y-14137167D02*
X13769405Y-14127643D01*
X13788452Y-14099071D01*
X13797976Y-14080024D01*
X13807500Y-14051452D01*
X13817024Y-14003833D01*
X13817024Y-13965738D01*
X13807500Y-13918119D01*
X13797976Y-13889548D01*
X13788452Y-13870500D01*
X13769405Y-13841928D01*
X13759881Y-13832405D01*
D10*
X8790178Y-14252178D02*
X8790178Y-14216822D01*
X8754822Y-14216822D01*
X8754822Y-14252178D01*
X8790178Y-14252178D01*
D11*
X9093214Y-14124976D02*
X9112262Y-14124976D01*
X9131310Y-14134500D01*
X9140833Y-14144024D01*
X9150357Y-14163071D01*
X9159881Y-14201167D01*
X9159881Y-14248786D01*
X9150357Y-14286881D01*
X9140833Y-14305928D01*
X9131310Y-14315452D01*
X9112262Y-14324976D01*
X9093214Y-14324976D01*
X9074167Y-14315452D01*
X9064643Y-14305928D01*
X9055119Y-14286881D01*
X9045595Y-14248786D01*
X9045595Y-14201167D01*
X9055119Y-14163071D01*
X9064643Y-14144024D01*
X9074167Y-14134500D01*
X9093214Y-14124976D01*
X9245595Y-14305928D02*
X9255119Y-14315452D01*
X9245595Y-14324976D01*
X9236071Y-14315452D01*
X9245595Y-14305928D01*
X9245595Y-14324976D01*
X9436071Y-14124976D02*
X9340833Y-14124976D01*
X9331310Y-14220214D01*
X9340833Y-14210690D01*
X9359881Y-14201167D01*
X9407500Y-14201167D01*
X9426548Y-14210690D01*
X9436071Y-14220214D01*
X9445595Y-14239262D01*
X9445595Y-14286881D01*
X9436071Y-14305928D01*
X9426548Y-14315452D01*
X9407500Y-14324976D01*
X9359881Y-14324976D01*
X9340833Y-14315452D01*
X9331310Y-14305928D01*
X9569405Y-14124976D02*
X9588452Y-14124976D01*
X9607500Y-14134500D01*
X9617024Y-14144024D01*
X9626548Y-14163071D01*
X9636071Y-14201167D01*
X9636071Y-14248786D01*
X9626548Y-14286881D01*
X9617024Y-14305928D01*
X9607500Y-14315452D01*
X9588452Y-14324976D01*
X9569405Y-14324976D01*
X9550357Y-14315452D01*
X9540833Y-14305928D01*
X9531310Y-14286881D01*
X9521786Y-14248786D01*
X9521786Y-14201167D01*
X9531310Y-14163071D01*
X9540833Y-14144024D01*
X9550357Y-14134500D01*
X9569405Y-14124976D01*
X9759881Y-14124976D02*
X9778929Y-14124976D01*
X9797976Y-14134500D01*
X9807500Y-14144024D01*
X9817024Y-14163071D01*
X9826548Y-14201167D01*
X9826548Y-14248786D01*
X9817024Y-14286881D01*
X9807500Y-14305928D01*
X9797976Y-14315452D01*
X9778929Y-14324976D01*
X9759881Y-14324976D01*
X9740833Y-14315452D01*
X9731310Y-14305928D01*
X9721786Y-14286881D01*
X9712262Y-14248786D01*
X9712262Y-14201167D01*
X9721786Y-14163071D01*
X9731310Y-14144024D01*
X9740833Y-14134500D01*
X9759881Y-14124976D01*
X9912262Y-14324976D02*
X9912262Y-14191643D01*
X9912262Y-14210690D02*
X9921786Y-14201167D01*
X9940833Y-14191643D01*
X9969405Y-14191643D01*
X9988452Y-14201167D01*
X9997976Y-14220214D01*
X9997976Y-14324976D01*
X9997976Y-14220214D02*
X10007500Y-14201167D01*
X10026548Y-14191643D01*
X10055119Y-14191643D01*
X10074167Y-14201167D01*
X10083690Y-14220214D01*
X10083690Y-14324976D01*
X10178929Y-14324976D02*
X10178929Y-14191643D01*
X10178929Y-14210690D02*
X10188452Y-14201167D01*
X10207500Y-14191643D01*
X10236071Y-14191643D01*
X10255119Y-14201167D01*
X10264643Y-14220214D01*
X10264643Y-14324976D01*
X10264643Y-14220214D02*
X10274167Y-14201167D01*
X10293214Y-14191643D01*
X10321786Y-14191643D01*
X10340833Y-14201167D01*
X10350357Y-14220214D01*
X10350357Y-14324976D01*
X10740833Y-14115452D02*
X10569405Y-14372595D01*
X10997976Y-14124976D02*
X11017024Y-14124976D01*
X11036071Y-14134500D01*
X11045595Y-14144024D01*
X11055119Y-14163071D01*
X11064643Y-14201167D01*
X11064643Y-14248786D01*
X11055119Y-14286881D01*
X11045595Y-14305928D01*
X11036071Y-14315452D01*
X11017024Y-14324976D01*
X10997976Y-14324976D01*
X10978929Y-14315452D01*
X10969405Y-14305928D01*
X10959881Y-14286881D01*
X10950357Y-14248786D01*
X10950357Y-14201167D01*
X10959881Y-14163071D01*
X10969405Y-14144024D01*
X10978929Y-14134500D01*
X10997976Y-14124976D01*
X11150357Y-14305928D02*
X11159881Y-14315452D01*
X11150357Y-14324976D01*
X11140833Y-14315452D01*
X11150357Y-14305928D01*
X11150357Y-14324976D01*
X11283690Y-14124976D02*
X11302738Y-14124976D01*
X11321786Y-14134500D01*
X11331309Y-14144024D01*
X11340833Y-14163071D01*
X11350357Y-14201167D01*
X11350357Y-14248786D01*
X11340833Y-14286881D01*
X11331309Y-14305928D01*
X11321786Y-14315452D01*
X11302738Y-14324976D01*
X11283690Y-14324976D01*
X11264643Y-14315452D01*
X11255119Y-14305928D01*
X11245595Y-14286881D01*
X11236071Y-14248786D01*
X11236071Y-14201167D01*
X11245595Y-14163071D01*
X11255119Y-14144024D01*
X11264643Y-14134500D01*
X11283690Y-14124976D01*
X11540833Y-14324976D02*
X11426548Y-14324976D01*
X11483690Y-14324976D02*
X11483690Y-14124976D01*
X11464643Y-14153548D01*
X11445595Y-14172595D01*
X11426548Y-14182119D01*
X11636071Y-14324976D02*
X11674167Y-14324976D01*
X11693214Y-14315452D01*
X11702738Y-14305928D01*
X11721786Y-14277357D01*
X11731309Y-14239262D01*
X11731309Y-14163071D01*
X11721786Y-14144024D01*
X11712262Y-14134500D01*
X11693214Y-14124976D01*
X11655119Y-14124976D01*
X11636071Y-14134500D01*
X11626548Y-14144024D01*
X11617024Y-14163071D01*
X11617024Y-14210690D01*
X11626548Y-14229738D01*
X11636071Y-14239262D01*
X11655119Y-14248786D01*
X11693214Y-14248786D01*
X11712262Y-14239262D01*
X11721786Y-14229738D01*
X11731309Y-14210690D01*
X11797976Y-14124976D02*
X11931309Y-14124976D01*
X11845595Y-14324976D01*
X11997976Y-14124976D02*
X11997976Y-14163071D01*
X12074167Y-14124976D02*
X12074167Y-14163071D01*
X12369405Y-14401167D02*
X12359881Y-14391643D01*
X12340833Y-14363071D01*
X12331309Y-14344024D01*
X12321786Y-14315452D01*
X12312262Y-14267833D01*
X12312262Y-14229738D01*
X12321786Y-14182119D01*
X12331309Y-14153548D01*
X12340833Y-14134500D01*
X12359881Y-14105928D01*
X12369405Y-14096405D01*
X12550357Y-14324976D02*
X12436071Y-14324976D01*
X12493214Y-14324976D02*
X12493214Y-14124976D01*
X12474167Y-14153548D01*
X12455119Y-14172595D01*
X12436071Y-14182119D01*
X12788452Y-14324976D02*
X12788452Y-14124976D01*
X12874167Y-14324976D02*
X12874167Y-14220214D01*
X12864643Y-14201167D01*
X12845595Y-14191643D01*
X12817024Y-14191643D01*
X12797976Y-14201167D01*
X12788452Y-14210690D01*
X12997976Y-14324976D02*
X12978928Y-14315452D01*
X12969405Y-14305928D01*
X12959881Y-14286881D01*
X12959881Y-14229738D01*
X12969405Y-14210690D01*
X12978928Y-14201167D01*
X12997976Y-14191643D01*
X13026548Y-14191643D01*
X13045595Y-14201167D01*
X13055119Y-14210690D01*
X13064643Y-14229738D01*
X13064643Y-14286881D01*
X13055119Y-14305928D01*
X13045595Y-14315452D01*
X13026548Y-14324976D01*
X12997976Y-14324976D01*
X13178928Y-14324976D02*
X13159881Y-14315452D01*
X13150357Y-14296405D01*
X13150357Y-14124976D01*
X13331309Y-14315452D02*
X13312262Y-14324976D01*
X13274167Y-14324976D01*
X13255119Y-14315452D01*
X13245595Y-14296405D01*
X13245595Y-14220214D01*
X13255119Y-14201167D01*
X13274167Y-14191643D01*
X13312262Y-14191643D01*
X13331309Y-14201167D01*
X13340833Y-14220214D01*
X13340833Y-14239262D01*
X13245595Y-14258309D01*
X13407500Y-14401167D02*
X13417024Y-14391643D01*
X13436071Y-14363071D01*
X13445595Y-14344024D01*
X13455119Y-14315452D01*
X13464643Y-14267833D01*
X13464643Y-14229738D01*
X13455119Y-14182119D01*
X13445595Y-14153548D01*
X13436071Y-14134500D01*
X13417024Y-14105928D01*
X13407500Y-14096405D01*
D15*
X8767500Y-14528500D02*
X8797500Y-14498500D01*
X8767500Y-14468500D01*
X8737500Y-14498500D01*
X8767500Y-14528500D01*
D11*
X9093214Y-14388976D02*
X9112262Y-14388976D01*
X9131310Y-14398500D01*
X9140833Y-14408024D01*
X9150357Y-14427071D01*
X9159881Y-14465167D01*
X9159881Y-14512786D01*
X9150357Y-14550881D01*
X9140833Y-14569928D01*
X9131310Y-14579452D01*
X9112262Y-14588976D01*
X9093214Y-14588976D01*
X9074167Y-14579452D01*
X9064643Y-14569928D01*
X9055119Y-14550881D01*
X9045595Y-14512786D01*
X9045595Y-14465167D01*
X9055119Y-14427071D01*
X9064643Y-14408024D01*
X9074167Y-14398500D01*
X9093214Y-14388976D01*
X9245595Y-14569928D02*
X9255119Y-14579452D01*
X9245595Y-14588976D01*
X9236071Y-14579452D01*
X9245595Y-14569928D01*
X9245595Y-14588976D01*
X9426548Y-14388976D02*
X9388452Y-14388976D01*
X9369405Y-14398500D01*
X9359881Y-14408024D01*
X9340833Y-14436595D01*
X9331310Y-14474690D01*
X9331310Y-14550881D01*
X9340833Y-14569928D01*
X9350357Y-14579452D01*
X9369405Y-14588976D01*
X9407500Y-14588976D01*
X9426548Y-14579452D01*
X9436071Y-14569928D01*
X9445595Y-14550881D01*
X9445595Y-14503262D01*
X9436071Y-14484214D01*
X9426548Y-14474690D01*
X9407500Y-14465167D01*
X9369405Y-14465167D01*
X9350357Y-14474690D01*
X9340833Y-14484214D01*
X9331310Y-14503262D01*
X9569405Y-14388976D02*
X9588452Y-14388976D01*
X9607500Y-14398500D01*
X9617024Y-14408024D01*
X9626548Y-14427071D01*
X9636071Y-14465167D01*
X9636071Y-14512786D01*
X9626548Y-14550881D01*
X9617024Y-14569928D01*
X9607500Y-14579452D01*
X9588452Y-14588976D01*
X9569405Y-14588976D01*
X9550357Y-14579452D01*
X9540833Y-14569928D01*
X9531310Y-14550881D01*
X9521786Y-14512786D01*
X9521786Y-14465167D01*
X9531310Y-14427071D01*
X9540833Y-14408024D01*
X9550357Y-14398500D01*
X9569405Y-14388976D01*
X9759881Y-14388976D02*
X9778929Y-14388976D01*
X9797976Y-14398500D01*
X9807500Y-14408024D01*
X9817024Y-14427071D01*
X9826548Y-14465167D01*
X9826548Y-14512786D01*
X9817024Y-14550881D01*
X9807500Y-14569928D01*
X9797976Y-14579452D01*
X9778929Y-14588976D01*
X9759881Y-14588976D01*
X9740833Y-14579452D01*
X9731310Y-14569928D01*
X9721786Y-14550881D01*
X9712262Y-14512786D01*
X9712262Y-14465167D01*
X9721786Y-14427071D01*
X9731310Y-14408024D01*
X9740833Y-14398500D01*
X9759881Y-14388976D01*
X9912262Y-14588976D02*
X9912262Y-14455643D01*
X9912262Y-14474690D02*
X9921786Y-14465167D01*
X9940833Y-14455643D01*
X9969405Y-14455643D01*
X9988452Y-14465167D01*
X9997976Y-14484214D01*
X9997976Y-14588976D01*
X9997976Y-14484214D02*
X10007500Y-14465167D01*
X10026548Y-14455643D01*
X10055119Y-14455643D01*
X10074167Y-14465167D01*
X10083690Y-14484214D01*
X10083690Y-14588976D01*
X10178929Y-14588976D02*
X10178929Y-14455643D01*
X10178929Y-14474690D02*
X10188452Y-14465167D01*
X10207500Y-14455643D01*
X10236071Y-14455643D01*
X10255119Y-14465167D01*
X10264643Y-14484214D01*
X10264643Y-14588976D01*
X10264643Y-14484214D02*
X10274167Y-14465167D01*
X10293214Y-14455643D01*
X10321786Y-14455643D01*
X10340833Y-14465167D01*
X10350357Y-14484214D01*
X10350357Y-14588976D01*
X10740833Y-14379452D02*
X10569405Y-14636595D01*
X10997976Y-14388976D02*
X11017024Y-14388976D01*
X11036071Y-14398500D01*
X11045595Y-14408024D01*
X11055119Y-14427071D01*
X11064643Y-14465167D01*
X11064643Y-14512786D01*
X11055119Y-14550881D01*
X11045595Y-14569928D01*
X11036071Y-14579452D01*
X11017024Y-14588976D01*
X10997976Y-14588976D01*
X10978929Y-14579452D01*
X10969405Y-14569928D01*
X10959881Y-14550881D01*
X10950357Y-14512786D01*
X10950357Y-14465167D01*
X10959881Y-14427071D01*
X10969405Y-14408024D01*
X10978929Y-14398500D01*
X10997976Y-14388976D01*
X11150357Y-14569928D02*
X11159881Y-14579452D01*
X11150357Y-14588976D01*
X11140833Y-14579452D01*
X11150357Y-14569928D01*
X11150357Y-14588976D01*
X11283690Y-14388976D02*
X11302738Y-14388976D01*
X11321786Y-14398500D01*
X11331309Y-14408024D01*
X11340833Y-14427071D01*
X11350357Y-14465167D01*
X11350357Y-14512786D01*
X11340833Y-14550881D01*
X11331309Y-14569928D01*
X11321786Y-14579452D01*
X11302738Y-14588976D01*
X11283690Y-14588976D01*
X11264643Y-14579452D01*
X11255119Y-14569928D01*
X11245595Y-14550881D01*
X11236071Y-14512786D01*
X11236071Y-14465167D01*
X11245595Y-14427071D01*
X11255119Y-14408024D01*
X11264643Y-14398500D01*
X11283690Y-14388976D01*
X11426548Y-14408024D02*
X11436071Y-14398500D01*
X11455119Y-14388976D01*
X11502738Y-14388976D01*
X11521786Y-14398500D01*
X11531309Y-14408024D01*
X11540833Y-14427071D01*
X11540833Y-14446119D01*
X11531309Y-14474690D01*
X11417024Y-14588976D01*
X11540833Y-14588976D01*
X11607500Y-14388976D02*
X11731309Y-14388976D01*
X11664643Y-14465167D01*
X11693214Y-14465167D01*
X11712262Y-14474690D01*
X11721786Y-14484214D01*
X11731309Y-14503262D01*
X11731309Y-14550881D01*
X11721786Y-14569928D01*
X11712262Y-14579452D01*
X11693214Y-14588976D01*
X11636071Y-14588976D01*
X11617024Y-14579452D01*
X11607500Y-14569928D01*
X11902738Y-14388976D02*
X11864643Y-14388976D01*
X11845595Y-14398500D01*
X11836071Y-14408024D01*
X11817024Y-14436595D01*
X11807500Y-14474690D01*
X11807500Y-14550881D01*
X11817024Y-14569928D01*
X11826548Y-14579452D01*
X11845595Y-14588976D01*
X11883690Y-14588976D01*
X11902738Y-14579452D01*
X11912262Y-14569928D01*
X11921786Y-14550881D01*
X11921786Y-14503262D01*
X11912262Y-14484214D01*
X11902738Y-14474690D01*
X11883690Y-14465167D01*
X11845595Y-14465167D01*
X11826548Y-14474690D01*
X11817024Y-14484214D01*
X11807500Y-14503262D01*
X11997976Y-14388976D02*
X11997976Y-14427071D01*
X12074167Y-14388976D02*
X12074167Y-14427071D01*
X12369405Y-14665167D02*
X12359881Y-14655643D01*
X12340833Y-14627071D01*
X12331309Y-14608024D01*
X12321786Y-14579452D01*
X12312262Y-14531833D01*
X12312262Y-14493738D01*
X12321786Y-14446119D01*
X12331309Y-14417548D01*
X12340833Y-14398500D01*
X12359881Y-14369928D01*
X12369405Y-14360405D01*
X12483690Y-14388976D02*
X12502738Y-14388976D01*
X12521786Y-14398500D01*
X12531309Y-14408024D01*
X12540833Y-14427071D01*
X12550357Y-14465167D01*
X12550357Y-14512786D01*
X12540833Y-14550881D01*
X12531309Y-14569928D01*
X12521786Y-14579452D01*
X12502738Y-14588976D01*
X12483690Y-14588976D01*
X12464643Y-14579452D01*
X12455119Y-14569928D01*
X12445595Y-14550881D01*
X12436071Y-14512786D01*
X12436071Y-14465167D01*
X12445595Y-14427071D01*
X12455119Y-14408024D01*
X12464643Y-14398500D01*
X12483690Y-14388976D01*
X12788452Y-14588976D02*
X12788452Y-14388976D01*
X12874167Y-14588976D02*
X12874167Y-14484214D01*
X12864643Y-14465167D01*
X12845595Y-14455643D01*
X12817024Y-14455643D01*
X12797976Y-14465167D01*
X12788452Y-14474690D01*
X12997976Y-14588976D02*
X12978928Y-14579452D01*
X12969405Y-14569928D01*
X12959881Y-14550881D01*
X12959881Y-14493738D01*
X12969405Y-14474690D01*
X12978928Y-14465167D01*
X12997976Y-14455643D01*
X13026548Y-14455643D01*
X13045595Y-14465167D01*
X13055119Y-14474690D01*
X13064643Y-14493738D01*
X13064643Y-14550881D01*
X13055119Y-14569928D01*
X13045595Y-14579452D01*
X13026548Y-14588976D01*
X12997976Y-14588976D01*
X13178928Y-14588976D02*
X13159881Y-14579452D01*
X13150357Y-14560405D01*
X13150357Y-14388976D01*
X13331309Y-14579452D02*
X13312262Y-14588976D01*
X13274167Y-14588976D01*
X13255119Y-14579452D01*
X13245595Y-14560405D01*
X13245595Y-14484214D01*
X13255119Y-14465167D01*
X13274167Y-14455643D01*
X13312262Y-14455643D01*
X13331309Y-14465167D01*
X13340833Y-14484214D01*
X13340833Y-14503262D01*
X13245595Y-14522309D01*
X13417024Y-14579452D02*
X13436071Y-14588976D01*
X13474167Y-14588976D01*
X13493214Y-14579452D01*
X13502738Y-14560405D01*
X13502738Y-14550881D01*
X13493214Y-14531833D01*
X13474167Y-14522309D01*
X13445595Y-14522309D01*
X13426548Y-14512786D01*
X13417024Y-14493738D01*
X13417024Y-14484214D01*
X13426548Y-14465167D01*
X13445595Y-14455643D01*
X13474167Y-14455643D01*
X13493214Y-14465167D01*
X13740833Y-14512786D02*
X13893214Y-14512786D01*
X13817024Y-14588976D02*
X13817024Y-14436595D01*
X14131309Y-14408024D02*
X14140833Y-14398500D01*
X14159881Y-14388976D01*
X14207500Y-14388976D01*
X14226548Y-14398500D01*
X14236071Y-14408024D01*
X14245595Y-14427071D01*
X14245595Y-14446119D01*
X14236071Y-14474690D01*
X14121786Y-14588976D01*
X14245595Y-14588976D01*
X14474167Y-14579452D02*
X14493214Y-14588976D01*
X14531309Y-14588976D01*
X14550357Y-14579452D01*
X14559881Y-14560405D01*
X14559881Y-14550881D01*
X14550357Y-14531833D01*
X14531309Y-14522309D01*
X14502738Y-14522309D01*
X14483690Y-14512786D01*
X14474167Y-14493738D01*
X14474167Y-14484214D01*
X14483690Y-14465167D01*
X14502738Y-14455643D01*
X14531309Y-14455643D01*
X14550357Y-14465167D01*
X14674167Y-14588976D02*
X14655119Y-14579452D01*
X14645595Y-14560405D01*
X14645595Y-14388976D01*
X14778928Y-14588976D02*
X14759881Y-14579452D01*
X14750357Y-14569928D01*
X14740833Y-14550881D01*
X14740833Y-14493738D01*
X14750357Y-14474690D01*
X14759881Y-14465167D01*
X14778928Y-14455643D01*
X14807500Y-14455643D01*
X14826548Y-14465167D01*
X14836071Y-14474690D01*
X14845595Y-14493738D01*
X14845595Y-14550881D01*
X14836071Y-14569928D01*
X14826548Y-14579452D01*
X14807500Y-14588976D01*
X14778928Y-14588976D01*
X14902738Y-14455643D02*
X14978928Y-14455643D01*
X14931309Y-14388976D02*
X14931309Y-14560405D01*
X14940833Y-14579452D01*
X14959881Y-14588976D01*
X14978928Y-14588976D01*
X15036071Y-14579452D02*
X15055119Y-14588976D01*
X15093214Y-14588976D01*
X15112262Y-14579452D01*
X15121786Y-14560405D01*
X15121786Y-14550881D01*
X15112262Y-14531833D01*
X15093214Y-14522309D01*
X15064643Y-14522309D01*
X15045595Y-14512786D01*
X15036071Y-14493738D01*
X15036071Y-14484214D01*
X15045595Y-14465167D01*
X15064643Y-14455643D01*
X15093214Y-14455643D01*
X15112262Y-14465167D01*
X15188452Y-14665167D02*
X15197976Y-14655643D01*
X15217024Y-14627071D01*
X15226548Y-14608024D01*
X15236071Y-14579452D01*
X15245595Y-14531833D01*
X15245595Y-14493738D01*
X15236071Y-14446119D01*
X15226548Y-14417548D01*
X15217024Y-14398500D01*
X15197976Y-14369928D01*
X15188452Y-14360405D01*
D16*
X8717500Y-14722500D02*
X8797500Y-14802500D01*
X8797500Y-14722500D02*
X8717500Y-14802500D01*
X8797500Y-14762500D02*
G75*
G03*
X8797500Y-14762500I-40000J0D01*
G01*
D11*
X9093214Y-14652976D02*
X9112262Y-14652976D01*
X9131310Y-14662500D01*
X9140833Y-14672024D01*
X9150357Y-14691071D01*
X9159881Y-14729167D01*
X9159881Y-14776786D01*
X9150357Y-14814881D01*
X9140833Y-14833928D01*
X9131310Y-14843452D01*
X9112262Y-14852976D01*
X9093214Y-14852976D01*
X9074167Y-14843452D01*
X9064643Y-14833928D01*
X9055119Y-14814881D01*
X9045595Y-14776786D01*
X9045595Y-14729167D01*
X9055119Y-14691071D01*
X9064643Y-14672024D01*
X9074167Y-14662500D01*
X9093214Y-14652976D01*
X9245595Y-14833928D02*
X9255119Y-14843452D01*
X9245595Y-14852976D01*
X9236071Y-14843452D01*
X9245595Y-14833928D01*
X9245595Y-14852976D01*
X9369405Y-14738690D02*
X9350357Y-14729167D01*
X9340833Y-14719643D01*
X9331310Y-14700595D01*
X9331310Y-14691071D01*
X9340833Y-14672024D01*
X9350357Y-14662500D01*
X9369405Y-14652976D01*
X9407500Y-14652976D01*
X9426548Y-14662500D01*
X9436071Y-14672024D01*
X9445595Y-14691071D01*
X9445595Y-14700595D01*
X9436071Y-14719643D01*
X9426548Y-14729167D01*
X9407500Y-14738690D01*
X9369405Y-14738690D01*
X9350357Y-14748214D01*
X9340833Y-14757738D01*
X9331310Y-14776786D01*
X9331310Y-14814881D01*
X9340833Y-14833928D01*
X9350357Y-14843452D01*
X9369405Y-14852976D01*
X9407500Y-14852976D01*
X9426548Y-14843452D01*
X9436071Y-14833928D01*
X9445595Y-14814881D01*
X9445595Y-14776786D01*
X9436071Y-14757738D01*
X9426548Y-14748214D01*
X9407500Y-14738690D01*
X9569405Y-14652976D02*
X9588452Y-14652976D01*
X9607500Y-14662500D01*
X9617024Y-14672024D01*
X9626548Y-14691071D01*
X9636071Y-14729167D01*
X9636071Y-14776786D01*
X9626548Y-14814881D01*
X9617024Y-14833928D01*
X9607500Y-14843452D01*
X9588452Y-14852976D01*
X9569405Y-14852976D01*
X9550357Y-14843452D01*
X9540833Y-14833928D01*
X9531310Y-14814881D01*
X9521786Y-14776786D01*
X9521786Y-14729167D01*
X9531310Y-14691071D01*
X9540833Y-14672024D01*
X9550357Y-14662500D01*
X9569405Y-14652976D01*
X9759881Y-14652976D02*
X9778929Y-14652976D01*
X9797976Y-14662500D01*
X9807500Y-14672024D01*
X9817024Y-14691071D01*
X9826548Y-14729167D01*
X9826548Y-14776786D01*
X9817024Y-14814881D01*
X9807500Y-14833928D01*
X9797976Y-14843452D01*
X9778929Y-14852976D01*
X9759881Y-14852976D01*
X9740833Y-14843452D01*
X9731310Y-14833928D01*
X9721786Y-14814881D01*
X9712262Y-14776786D01*
X9712262Y-14729167D01*
X9721786Y-14691071D01*
X9731310Y-14672024D01*
X9740833Y-14662500D01*
X9759881Y-14652976D01*
X9912262Y-14852976D02*
X9912262Y-14719643D01*
X9912262Y-14738690D02*
X9921786Y-14729167D01*
X9940833Y-14719643D01*
X9969405Y-14719643D01*
X9988452Y-14729167D01*
X9997976Y-14748214D01*
X9997976Y-14852976D01*
X9997976Y-14748214D02*
X10007500Y-14729167D01*
X10026548Y-14719643D01*
X10055119Y-14719643D01*
X10074167Y-14729167D01*
X10083690Y-14748214D01*
X10083690Y-14852976D01*
X10178929Y-14852976D02*
X10178929Y-14719643D01*
X10178929Y-14738690D02*
X10188452Y-14729167D01*
X10207500Y-14719643D01*
X10236071Y-14719643D01*
X10255119Y-14729167D01*
X10264643Y-14748214D01*
X10264643Y-14852976D01*
X10264643Y-14748214D02*
X10274167Y-14729167D01*
X10293214Y-14719643D01*
X10321786Y-14719643D01*
X10340833Y-14729167D01*
X10350357Y-14748214D01*
X10350357Y-14852976D01*
X10740833Y-14643452D02*
X10569405Y-14900595D01*
X10997976Y-14652976D02*
X11017024Y-14652976D01*
X11036071Y-14662500D01*
X11045595Y-14672024D01*
X11055119Y-14691071D01*
X11064643Y-14729167D01*
X11064643Y-14776786D01*
X11055119Y-14814881D01*
X11045595Y-14833928D01*
X11036071Y-14843452D01*
X11017024Y-14852976D01*
X10997976Y-14852976D01*
X10978929Y-14843452D01*
X10969405Y-14833928D01*
X10959881Y-14814881D01*
X10950357Y-14776786D01*
X10950357Y-14729167D01*
X10959881Y-14691071D01*
X10969405Y-14672024D01*
X10978929Y-14662500D01*
X10997976Y-14652976D01*
X11150357Y-14833928D02*
X11159881Y-14843452D01*
X11150357Y-14852976D01*
X11140833Y-14843452D01*
X11150357Y-14833928D01*
X11150357Y-14852976D01*
X11283690Y-14652976D02*
X11302738Y-14652976D01*
X11321786Y-14662500D01*
X11331309Y-14672024D01*
X11340833Y-14691071D01*
X11350357Y-14729167D01*
X11350357Y-14776786D01*
X11340833Y-14814881D01*
X11331309Y-14833928D01*
X11321786Y-14843452D01*
X11302738Y-14852976D01*
X11283690Y-14852976D01*
X11264643Y-14843452D01*
X11255119Y-14833928D01*
X11245595Y-14814881D01*
X11236071Y-14776786D01*
X11236071Y-14729167D01*
X11245595Y-14691071D01*
X11255119Y-14672024D01*
X11264643Y-14662500D01*
X11283690Y-14652976D01*
X11417024Y-14652976D02*
X11540833Y-14652976D01*
X11474167Y-14729167D01*
X11502738Y-14729167D01*
X11521786Y-14738690D01*
X11531309Y-14748214D01*
X11540833Y-14767262D01*
X11540833Y-14814881D01*
X11531309Y-14833928D01*
X11521786Y-14843452D01*
X11502738Y-14852976D01*
X11445595Y-14852976D01*
X11426548Y-14843452D01*
X11417024Y-14833928D01*
X11731309Y-14852976D02*
X11617024Y-14852976D01*
X11674167Y-14852976D02*
X11674167Y-14652976D01*
X11655119Y-14681548D01*
X11636071Y-14700595D01*
X11617024Y-14710119D01*
X11912262Y-14652976D02*
X11817024Y-14652976D01*
X11807500Y-14748214D01*
X11817024Y-14738690D01*
X11836071Y-14729167D01*
X11883690Y-14729167D01*
X11902738Y-14738690D01*
X11912262Y-14748214D01*
X11921786Y-14767262D01*
X11921786Y-14814881D01*
X11912262Y-14833928D01*
X11902738Y-14843452D01*
X11883690Y-14852976D01*
X11836071Y-14852976D01*
X11817024Y-14843452D01*
X11807500Y-14833928D01*
X11997976Y-14652976D02*
X11997976Y-14691071D01*
X12074167Y-14652976D02*
X12074167Y-14691071D01*
X12369405Y-14929167D02*
X12359881Y-14919643D01*
X12340833Y-14891071D01*
X12331309Y-14872024D01*
X12321786Y-14843452D01*
X12312262Y-14795833D01*
X12312262Y-14757738D01*
X12321786Y-14710119D01*
X12331309Y-14681548D01*
X12340833Y-14662500D01*
X12359881Y-14633928D01*
X12369405Y-14624405D01*
X12531309Y-14652976D02*
X12493214Y-14652976D01*
X12474167Y-14662500D01*
X12464643Y-14672024D01*
X12445595Y-14700595D01*
X12436071Y-14738690D01*
X12436071Y-14814881D01*
X12445595Y-14833928D01*
X12455119Y-14843452D01*
X12474167Y-14852976D01*
X12512262Y-14852976D01*
X12531309Y-14843452D01*
X12540833Y-14833928D01*
X12550357Y-14814881D01*
X12550357Y-14767262D01*
X12540833Y-14748214D01*
X12531309Y-14738690D01*
X12512262Y-14729167D01*
X12474167Y-14729167D01*
X12455119Y-14738690D01*
X12445595Y-14748214D01*
X12436071Y-14767262D01*
X12788452Y-14852976D02*
X12788452Y-14652976D01*
X12874167Y-14852976D02*
X12874167Y-14748214D01*
X12864643Y-14729167D01*
X12845595Y-14719643D01*
X12817024Y-14719643D01*
X12797976Y-14729167D01*
X12788452Y-14738690D01*
X12997976Y-14852976D02*
X12978928Y-14843452D01*
X12969405Y-14833928D01*
X12959881Y-14814881D01*
X12959881Y-14757738D01*
X12969405Y-14738690D01*
X12978928Y-14729167D01*
X12997976Y-14719643D01*
X13026548Y-14719643D01*
X13045595Y-14729167D01*
X13055119Y-14738690D01*
X13064643Y-14757738D01*
X13064643Y-14814881D01*
X13055119Y-14833928D01*
X13045595Y-14843452D01*
X13026548Y-14852976D01*
X12997976Y-14852976D01*
X13178928Y-14852976D02*
X13159881Y-14843452D01*
X13150357Y-14824405D01*
X13150357Y-14652976D01*
X13331309Y-14843452D02*
X13312262Y-14852976D01*
X13274167Y-14852976D01*
X13255119Y-14843452D01*
X13245595Y-14824405D01*
X13245595Y-14748214D01*
X13255119Y-14729167D01*
X13274167Y-14719643D01*
X13312262Y-14719643D01*
X13331309Y-14729167D01*
X13340833Y-14748214D01*
X13340833Y-14767262D01*
X13245595Y-14786309D01*
X13417024Y-14843452D02*
X13436071Y-14852976D01*
X13474167Y-14852976D01*
X13493214Y-14843452D01*
X13502738Y-14824405D01*
X13502738Y-14814881D01*
X13493214Y-14795833D01*
X13474167Y-14786309D01*
X13445595Y-14786309D01*
X13426548Y-14776786D01*
X13417024Y-14757738D01*
X13417024Y-14748214D01*
X13426548Y-14729167D01*
X13445595Y-14719643D01*
X13474167Y-14719643D01*
X13493214Y-14729167D01*
X13569405Y-14929167D02*
X13578928Y-14919643D01*
X13597976Y-14891071D01*
X13607500Y-14872024D01*
X13617024Y-14843452D01*
X13626548Y-14795833D01*
X13626548Y-14757738D01*
X13617024Y-14710119D01*
X13607500Y-14681548D01*
X13597976Y-14662500D01*
X13578928Y-14633928D01*
X13569405Y-14624405D01*
D17*
X8712500Y-14984000D02*
X8797500Y-15069000D01*
X8797500Y-14984000D02*
X8712500Y-15069000D01*
X8755000Y-14984000D02*
X8755000Y-15069000D01*
X8712500Y-15026500D02*
X8797500Y-15026500D01*
D11*
X9093214Y-14916976D02*
X9112262Y-14916976D01*
X9131310Y-14926500D01*
X9140833Y-14936024D01*
X9150357Y-14955071D01*
X9159881Y-14993167D01*
X9159881Y-15040786D01*
X9150357Y-15078881D01*
X9140833Y-15097928D01*
X9131310Y-15107452D01*
X9112262Y-15116976D01*
X9093214Y-15116976D01*
X9074167Y-15107452D01*
X9064643Y-15097928D01*
X9055119Y-15078881D01*
X9045595Y-15040786D01*
X9045595Y-14993167D01*
X9055119Y-14955071D01*
X9064643Y-14936024D01*
X9074167Y-14926500D01*
X9093214Y-14916976D01*
X9245595Y-15097928D02*
X9255119Y-15107452D01*
X9245595Y-15116976D01*
X9236071Y-15107452D01*
X9245595Y-15097928D01*
X9245595Y-15116976D01*
X9369405Y-15002690D02*
X9350357Y-14993167D01*
X9340833Y-14983643D01*
X9331310Y-14964595D01*
X9331310Y-14955071D01*
X9340833Y-14936024D01*
X9350357Y-14926500D01*
X9369405Y-14916976D01*
X9407500Y-14916976D01*
X9426548Y-14926500D01*
X9436071Y-14936024D01*
X9445595Y-14955071D01*
X9445595Y-14964595D01*
X9436071Y-14983643D01*
X9426548Y-14993167D01*
X9407500Y-15002690D01*
X9369405Y-15002690D01*
X9350357Y-15012214D01*
X9340833Y-15021738D01*
X9331310Y-15040786D01*
X9331310Y-15078881D01*
X9340833Y-15097928D01*
X9350357Y-15107452D01*
X9369405Y-15116976D01*
X9407500Y-15116976D01*
X9426548Y-15107452D01*
X9436071Y-15097928D01*
X9445595Y-15078881D01*
X9445595Y-15040786D01*
X9436071Y-15021738D01*
X9426548Y-15012214D01*
X9407500Y-15002690D01*
X9626548Y-14916976D02*
X9531310Y-14916976D01*
X9521786Y-15012214D01*
X9531310Y-15002690D01*
X9550357Y-14993167D01*
X9597976Y-14993167D01*
X9617024Y-15002690D01*
X9626548Y-15012214D01*
X9636071Y-15031262D01*
X9636071Y-15078881D01*
X9626548Y-15097928D01*
X9617024Y-15107452D01*
X9597976Y-15116976D01*
X9550357Y-15116976D01*
X9531310Y-15107452D01*
X9521786Y-15097928D01*
X9759881Y-14916976D02*
X9778929Y-14916976D01*
X9797976Y-14926500D01*
X9807500Y-14936024D01*
X9817024Y-14955071D01*
X9826548Y-14993167D01*
X9826548Y-15040786D01*
X9817024Y-15078881D01*
X9807500Y-15097928D01*
X9797976Y-15107452D01*
X9778929Y-15116976D01*
X9759881Y-15116976D01*
X9740833Y-15107452D01*
X9731310Y-15097928D01*
X9721786Y-15078881D01*
X9712262Y-15040786D01*
X9712262Y-14993167D01*
X9721786Y-14955071D01*
X9731310Y-14936024D01*
X9740833Y-14926500D01*
X9759881Y-14916976D01*
X9912262Y-15116976D02*
X9912262Y-14983643D01*
X9912262Y-15002690D02*
X9921786Y-14993167D01*
X9940833Y-14983643D01*
X9969405Y-14983643D01*
X9988452Y-14993167D01*
X9997976Y-15012214D01*
X9997976Y-15116976D01*
X9997976Y-15012214D02*
X10007500Y-14993167D01*
X10026548Y-14983643D01*
X10055119Y-14983643D01*
X10074167Y-14993167D01*
X10083690Y-15012214D01*
X10083690Y-15116976D01*
X10178929Y-15116976D02*
X10178929Y-14983643D01*
X10178929Y-15002690D02*
X10188452Y-14993167D01*
X10207500Y-14983643D01*
X10236071Y-14983643D01*
X10255119Y-14993167D01*
X10264643Y-15012214D01*
X10264643Y-15116976D01*
X10264643Y-15012214D02*
X10274167Y-14993167D01*
X10293214Y-14983643D01*
X10321786Y-14983643D01*
X10340833Y-14993167D01*
X10350357Y-15012214D01*
X10350357Y-15116976D01*
X10740833Y-14907452D02*
X10569405Y-15164595D01*
X10997976Y-14916976D02*
X11017024Y-14916976D01*
X11036071Y-14926500D01*
X11045595Y-14936024D01*
X11055119Y-14955071D01*
X11064643Y-14993167D01*
X11064643Y-15040786D01*
X11055119Y-15078881D01*
X11045595Y-15097928D01*
X11036071Y-15107452D01*
X11017024Y-15116976D01*
X10997976Y-15116976D01*
X10978929Y-15107452D01*
X10969405Y-15097928D01*
X10959881Y-15078881D01*
X10950357Y-15040786D01*
X10950357Y-14993167D01*
X10959881Y-14955071D01*
X10969405Y-14936024D01*
X10978929Y-14926500D01*
X10997976Y-14916976D01*
X11150357Y-15097928D02*
X11159881Y-15107452D01*
X11150357Y-15116976D01*
X11140833Y-15107452D01*
X11150357Y-15097928D01*
X11150357Y-15116976D01*
X11283690Y-14916976D02*
X11302738Y-14916976D01*
X11321786Y-14926500D01*
X11331309Y-14936024D01*
X11340833Y-14955071D01*
X11350357Y-14993167D01*
X11350357Y-15040786D01*
X11340833Y-15078881D01*
X11331309Y-15097928D01*
X11321786Y-15107452D01*
X11302738Y-15116976D01*
X11283690Y-15116976D01*
X11264643Y-15107452D01*
X11255119Y-15097928D01*
X11245595Y-15078881D01*
X11236071Y-15040786D01*
X11236071Y-14993167D01*
X11245595Y-14955071D01*
X11255119Y-14936024D01*
X11264643Y-14926500D01*
X11283690Y-14916976D01*
X11417024Y-14916976D02*
X11540833Y-14916976D01*
X11474167Y-14993167D01*
X11502738Y-14993167D01*
X11521786Y-15002690D01*
X11531309Y-15012214D01*
X11540833Y-15031262D01*
X11540833Y-15078881D01*
X11531309Y-15097928D01*
X11521786Y-15107452D01*
X11502738Y-15116976D01*
X11445595Y-15116976D01*
X11426548Y-15107452D01*
X11417024Y-15097928D01*
X11607500Y-14916976D02*
X11731309Y-14916976D01*
X11664643Y-14993167D01*
X11693214Y-14993167D01*
X11712262Y-15002690D01*
X11721786Y-15012214D01*
X11731309Y-15031262D01*
X11731309Y-15078881D01*
X11721786Y-15097928D01*
X11712262Y-15107452D01*
X11693214Y-15116976D01*
X11636071Y-15116976D01*
X11617024Y-15107452D01*
X11607500Y-15097928D01*
X11912262Y-14916976D02*
X11817024Y-14916976D01*
X11807500Y-15012214D01*
X11817024Y-15002690D01*
X11836071Y-14993167D01*
X11883690Y-14993167D01*
X11902738Y-15002690D01*
X11912262Y-15012214D01*
X11921786Y-15031262D01*
X11921786Y-15078881D01*
X11912262Y-15097928D01*
X11902738Y-15107452D01*
X11883690Y-15116976D01*
X11836071Y-15116976D01*
X11817024Y-15107452D01*
X11807500Y-15097928D01*
X11997976Y-14916976D02*
X11997976Y-14955071D01*
X12074167Y-14916976D02*
X12074167Y-14955071D01*
X12369405Y-15193167D02*
X12359881Y-15183643D01*
X12340833Y-15155071D01*
X12331309Y-15136024D01*
X12321786Y-15107452D01*
X12312262Y-15059833D01*
X12312262Y-15021738D01*
X12321786Y-14974119D01*
X12331309Y-14945548D01*
X12340833Y-14926500D01*
X12359881Y-14897928D01*
X12369405Y-14888405D01*
X12436071Y-14936024D02*
X12445595Y-14926500D01*
X12464643Y-14916976D01*
X12512262Y-14916976D01*
X12531309Y-14926500D01*
X12540833Y-14936024D01*
X12550357Y-14955071D01*
X12550357Y-14974119D01*
X12540833Y-15002690D01*
X12426548Y-15116976D01*
X12550357Y-15116976D01*
X12788452Y-15116976D02*
X12788452Y-14916976D01*
X12874167Y-15116976D02*
X12874167Y-15012214D01*
X12864643Y-14993167D01*
X12845595Y-14983643D01*
X12817024Y-14983643D01*
X12797976Y-14993167D01*
X12788452Y-15002690D01*
X12997976Y-15116976D02*
X12978928Y-15107452D01*
X12969405Y-15097928D01*
X12959881Y-15078881D01*
X12959881Y-15021738D01*
X12969405Y-15002690D01*
X12978928Y-14993167D01*
X12997976Y-14983643D01*
X13026548Y-14983643D01*
X13045595Y-14993167D01*
X13055119Y-15002690D01*
X13064643Y-15021738D01*
X13064643Y-15078881D01*
X13055119Y-15097928D01*
X13045595Y-15107452D01*
X13026548Y-15116976D01*
X12997976Y-15116976D01*
X13178928Y-15116976D02*
X13159881Y-15107452D01*
X13150357Y-15088405D01*
X13150357Y-14916976D01*
X13331309Y-15107452D02*
X13312262Y-15116976D01*
X13274167Y-15116976D01*
X13255119Y-15107452D01*
X13245595Y-15088405D01*
X13245595Y-15012214D01*
X13255119Y-14993167D01*
X13274167Y-14983643D01*
X13312262Y-14983643D01*
X13331309Y-14993167D01*
X13340833Y-15012214D01*
X13340833Y-15031262D01*
X13245595Y-15050309D01*
X13417024Y-15107452D02*
X13436071Y-15116976D01*
X13474167Y-15116976D01*
X13493214Y-15107452D01*
X13502738Y-15088405D01*
X13502738Y-15078881D01*
X13493214Y-15059833D01*
X13474167Y-15050309D01*
X13445595Y-15050309D01*
X13426548Y-15040786D01*
X13417024Y-15021738D01*
X13417024Y-15012214D01*
X13426548Y-14993167D01*
X13445595Y-14983643D01*
X13474167Y-14983643D01*
X13493214Y-14993167D01*
X13569405Y-15193167D02*
X13578928Y-15183643D01*
X13597976Y-15155071D01*
X13607500Y-15136024D01*
X13617024Y-15107452D01*
X13626548Y-15059833D01*
X13626548Y-15021738D01*
X13617024Y-14974119D01*
X13607500Y-14945548D01*
X13597976Y-14926500D01*
X13578928Y-14897928D01*
X13569405Y-14888405D01*
D18*
X8697500Y-15240500D02*
X8797500Y-15340500D01*
X8797500Y-15240500D02*
X8697500Y-15340500D01*
X8782856Y-15325856D02*
X8782856Y-15255144D01*
X8712144Y-15255144D01*
X8712144Y-15325856D01*
X8782856Y-15325856D01*
D11*
X9159881Y-15380976D02*
X9045595Y-15380976D01*
X9102738Y-15380976D02*
X9102738Y-15180976D01*
X9083690Y-15209548D01*
X9064643Y-15228595D01*
X9045595Y-15238119D01*
X9245595Y-15361928D02*
X9255119Y-15371452D01*
X9245595Y-15380976D01*
X9236071Y-15371452D01*
X9245595Y-15361928D01*
X9245595Y-15380976D01*
X9378929Y-15180976D02*
X9397976Y-15180976D01*
X9417024Y-15190500D01*
X9426548Y-15200024D01*
X9436071Y-15219071D01*
X9445595Y-15257167D01*
X9445595Y-15304786D01*
X9436071Y-15342881D01*
X9426548Y-15361928D01*
X9417024Y-15371452D01*
X9397976Y-15380976D01*
X9378929Y-15380976D01*
X9359881Y-15371452D01*
X9350357Y-15361928D01*
X9340833Y-15342881D01*
X9331310Y-15304786D01*
X9331310Y-15257167D01*
X9340833Y-15219071D01*
X9350357Y-15200024D01*
X9359881Y-15190500D01*
X9378929Y-15180976D01*
X9569405Y-15180976D02*
X9588452Y-15180976D01*
X9607500Y-15190500D01*
X9617024Y-15200024D01*
X9626548Y-15219071D01*
X9636071Y-15257167D01*
X9636071Y-15304786D01*
X9626548Y-15342881D01*
X9617024Y-15361928D01*
X9607500Y-15371452D01*
X9588452Y-15380976D01*
X9569405Y-15380976D01*
X9550357Y-15371452D01*
X9540833Y-15361928D01*
X9531310Y-15342881D01*
X9521786Y-15304786D01*
X9521786Y-15257167D01*
X9531310Y-15219071D01*
X9540833Y-15200024D01*
X9550357Y-15190500D01*
X9569405Y-15180976D01*
X9759881Y-15180976D02*
X9778929Y-15180976D01*
X9797976Y-15190500D01*
X9807500Y-15200024D01*
X9817024Y-15219071D01*
X9826548Y-15257167D01*
X9826548Y-15304786D01*
X9817024Y-15342881D01*
X9807500Y-15361928D01*
X9797976Y-15371452D01*
X9778929Y-15380976D01*
X9759881Y-15380976D01*
X9740833Y-15371452D01*
X9731310Y-15361928D01*
X9721786Y-15342881D01*
X9712262Y-15304786D01*
X9712262Y-15257167D01*
X9721786Y-15219071D01*
X9731310Y-15200024D01*
X9740833Y-15190500D01*
X9759881Y-15180976D01*
X9912262Y-15380976D02*
X9912262Y-15247643D01*
X9912262Y-15266690D02*
X9921786Y-15257167D01*
X9940833Y-15247643D01*
X9969405Y-15247643D01*
X9988452Y-15257167D01*
X9997976Y-15276214D01*
X9997976Y-15380976D01*
X9997976Y-15276214D02*
X10007500Y-15257167D01*
X10026548Y-15247643D01*
X10055119Y-15247643D01*
X10074167Y-15257167D01*
X10083690Y-15276214D01*
X10083690Y-15380976D01*
X10178929Y-15380976D02*
X10178929Y-15247643D01*
X10178929Y-15266690D02*
X10188452Y-15257167D01*
X10207500Y-15247643D01*
X10236071Y-15247643D01*
X10255119Y-15257167D01*
X10264643Y-15276214D01*
X10264643Y-15380976D01*
X10264643Y-15276214D02*
X10274167Y-15257167D01*
X10293214Y-15247643D01*
X10321786Y-15247643D01*
X10340833Y-15257167D01*
X10350357Y-15276214D01*
X10350357Y-15380976D01*
X10740833Y-15171452D02*
X10569405Y-15428595D01*
X10997976Y-15180976D02*
X11017024Y-15180976D01*
X11036071Y-15190500D01*
X11045595Y-15200024D01*
X11055119Y-15219071D01*
X11064643Y-15257167D01*
X11064643Y-15304786D01*
X11055119Y-15342881D01*
X11045595Y-15361928D01*
X11036071Y-15371452D01*
X11017024Y-15380976D01*
X10997976Y-15380976D01*
X10978929Y-15371452D01*
X10969405Y-15361928D01*
X10959881Y-15342881D01*
X10950357Y-15304786D01*
X10950357Y-15257167D01*
X10959881Y-15219071D01*
X10969405Y-15200024D01*
X10978929Y-15190500D01*
X10997976Y-15180976D01*
X11150357Y-15361928D02*
X11159881Y-15371452D01*
X11150357Y-15380976D01*
X11140833Y-15371452D01*
X11150357Y-15361928D01*
X11150357Y-15380976D01*
X11283690Y-15180976D02*
X11302738Y-15180976D01*
X11321786Y-15190500D01*
X11331309Y-15200024D01*
X11340833Y-15219071D01*
X11350357Y-15257167D01*
X11350357Y-15304786D01*
X11340833Y-15342881D01*
X11331309Y-15361928D01*
X11321786Y-15371452D01*
X11302738Y-15380976D01*
X11283690Y-15380976D01*
X11264643Y-15371452D01*
X11255119Y-15361928D01*
X11245595Y-15342881D01*
X11236071Y-15304786D01*
X11236071Y-15257167D01*
X11245595Y-15219071D01*
X11255119Y-15200024D01*
X11264643Y-15190500D01*
X11283690Y-15180976D01*
X11417024Y-15180976D02*
X11540833Y-15180976D01*
X11474167Y-15257167D01*
X11502738Y-15257167D01*
X11521786Y-15266690D01*
X11531309Y-15276214D01*
X11540833Y-15295262D01*
X11540833Y-15342881D01*
X11531309Y-15361928D01*
X11521786Y-15371452D01*
X11502738Y-15380976D01*
X11445595Y-15380976D01*
X11426548Y-15371452D01*
X11417024Y-15361928D01*
X11636071Y-15380976D02*
X11674167Y-15380976D01*
X11693214Y-15371452D01*
X11702738Y-15361928D01*
X11721786Y-15333357D01*
X11731309Y-15295262D01*
X11731309Y-15219071D01*
X11721786Y-15200024D01*
X11712262Y-15190500D01*
X11693214Y-15180976D01*
X11655119Y-15180976D01*
X11636071Y-15190500D01*
X11626548Y-15200024D01*
X11617024Y-15219071D01*
X11617024Y-15266690D01*
X11626548Y-15285738D01*
X11636071Y-15295262D01*
X11655119Y-15304786D01*
X11693214Y-15304786D01*
X11712262Y-15295262D01*
X11721786Y-15285738D01*
X11731309Y-15266690D01*
X11902738Y-15247643D02*
X11902738Y-15380976D01*
X11855119Y-15171452D02*
X11807500Y-15314309D01*
X11931309Y-15314309D01*
X11997976Y-15180976D02*
X11997976Y-15219071D01*
X12074167Y-15180976D02*
X12074167Y-15219071D01*
X12369405Y-15457167D02*
X12359881Y-15447643D01*
X12340833Y-15419071D01*
X12331309Y-15400024D01*
X12321786Y-15371452D01*
X12312262Y-15323833D01*
X12312262Y-15285738D01*
X12321786Y-15238119D01*
X12331309Y-15209548D01*
X12340833Y-15190500D01*
X12359881Y-15161928D01*
X12369405Y-15152405D01*
X12550357Y-15380976D02*
X12436071Y-15380976D01*
X12493214Y-15380976D02*
X12493214Y-15180976D01*
X12474167Y-15209548D01*
X12455119Y-15228595D01*
X12436071Y-15238119D01*
X12740833Y-15380976D02*
X12626548Y-15380976D01*
X12683690Y-15380976D02*
X12683690Y-15180976D01*
X12664643Y-15209548D01*
X12645595Y-15228595D01*
X12626548Y-15238119D01*
X12912262Y-15247643D02*
X12912262Y-15380976D01*
X12864643Y-15171452D02*
X12817024Y-15314309D01*
X12940833Y-15314309D01*
X13169405Y-15380976D02*
X13169405Y-15180976D01*
X13255119Y-15380976D02*
X13255119Y-15276214D01*
X13245595Y-15257167D01*
X13226548Y-15247643D01*
X13197976Y-15247643D01*
X13178928Y-15257167D01*
X13169405Y-15266690D01*
X13378928Y-15380976D02*
X13359881Y-15371452D01*
X13350357Y-15361928D01*
X13340833Y-15342881D01*
X13340833Y-15285738D01*
X13350357Y-15266690D01*
X13359881Y-15257167D01*
X13378928Y-15247643D01*
X13407500Y-15247643D01*
X13426548Y-15257167D01*
X13436071Y-15266690D01*
X13445595Y-15285738D01*
X13445595Y-15342881D01*
X13436071Y-15361928D01*
X13426548Y-15371452D01*
X13407500Y-15380976D01*
X13378928Y-15380976D01*
X13559881Y-15380976D02*
X13540833Y-15371452D01*
X13531309Y-15352405D01*
X13531309Y-15180976D01*
X13712262Y-15371452D02*
X13693214Y-15380976D01*
X13655119Y-15380976D01*
X13636071Y-15371452D01*
X13626548Y-15352405D01*
X13626548Y-15276214D01*
X13636071Y-15257167D01*
X13655119Y-15247643D01*
X13693214Y-15247643D01*
X13712262Y-15257167D01*
X13721786Y-15276214D01*
X13721786Y-15295262D01*
X13626548Y-15314309D01*
X13797976Y-15371452D02*
X13817024Y-15380976D01*
X13855119Y-15380976D01*
X13874167Y-15371452D01*
X13883690Y-15352405D01*
X13883690Y-15342881D01*
X13874167Y-15323833D01*
X13855119Y-15314309D01*
X13826548Y-15314309D01*
X13807500Y-15304786D01*
X13797976Y-15285738D01*
X13797976Y-15276214D01*
X13807500Y-15257167D01*
X13826548Y-15247643D01*
X13855119Y-15247643D01*
X13874167Y-15257167D01*
X13950357Y-15457167D02*
X13959881Y-15447643D01*
X13978928Y-15419071D01*
X13988452Y-15400024D01*
X13997976Y-15371452D01*
X14007500Y-15323833D01*
X14007500Y-15285738D01*
X13997976Y-15238119D01*
X13988452Y-15209548D01*
X13978928Y-15190500D01*
X13959881Y-15161928D01*
X13950357Y-15152405D01*
M02*
