G04 #@! TF.GenerationSoftware,KiCad,Pcbnew,(5.1.12)-1*
G04 #@! TF.CreationDate,2021-11-24T17:54:44+01:00*
G04 #@! TF.ProjectId,BluePill-BMP,426c7565-5069-46c6-9c2d-424d502e6b69,rev?*
G04 #@! TF.SameCoordinates,Original*
G04 #@! TF.FileFunction,Soldermask,Top*
G04 #@! TF.FilePolarity,Negative*
%FSLAX46Y46*%
G04 Gerber Fmt 4.6, Leading zero omitted, Abs format (unit mm)*
G04 Created by KiCad (PCBNEW (5.1.12)-1) date 2021-11-24 17:54:44*
%MOMM*%
%LPD*%
G01*
G04 APERTURE LIST*
%ADD10O,1.700000X1.700000*%
%ADD11R,1.700000X1.700000*%
%ADD12C,1.600000*%
%ADD13O,1.400000X1.400000*%
%ADD14C,1.400000*%
%ADD15C,1.700000*%
%ADD16O,1.740000X2.190000*%
%ADD17C,1.800000*%
%ADD18R,1.800000X1.800000*%
G04 APERTURE END LIST*
D10*
X172720000Y-118364000D03*
X172720000Y-115824000D03*
X172720000Y-113284000D03*
X172720000Y-110744000D03*
X172720000Y-108204000D03*
X172720000Y-105664000D03*
D11*
X172720000Y-103124000D03*
D12*
X177880000Y-85320000D03*
X182880000Y-85320000D03*
D13*
X157480000Y-110720000D03*
D14*
X165100000Y-110720000D03*
D10*
X132080000Y-66900000D03*
X134620000Y-66900000D03*
X137160000Y-66900000D03*
X139700000Y-66900000D03*
X142240000Y-66900000D03*
X144780000Y-66900000D03*
X147320000Y-66900000D03*
X149860000Y-66900000D03*
X152400000Y-66900000D03*
X154940000Y-66900000D03*
X157480000Y-66900000D03*
X160020000Y-66900000D03*
D11*
X162560000Y-66900000D03*
D10*
X162560000Y-94210000D03*
X160020000Y-94210000D03*
X157480000Y-94210000D03*
X154940000Y-94210000D03*
X152400000Y-94210000D03*
X149860000Y-94210000D03*
D11*
X147320000Y-94210000D03*
D13*
X165100000Y-115800000D03*
D14*
X157480000Y-115800000D03*
D13*
X165100000Y-118340000D03*
D14*
X157480000Y-118340000D03*
D10*
X152400000Y-101830000D03*
D11*
X149860000Y-101830000D03*
D10*
X132080000Y-94210000D03*
X129540000Y-94210000D03*
X127000000Y-94210000D03*
X124460000Y-94210000D03*
D11*
X121920000Y-94210000D03*
D15*
X132080000Y-106910000D03*
X132080000Y-122150000D03*
X134620000Y-106910000D03*
X134620000Y-122150000D03*
X137160000Y-106910000D03*
X137160000Y-122150000D03*
X139700000Y-106910000D03*
X139700000Y-122150000D03*
X142240000Y-106910000D03*
X142240000Y-122150000D03*
X144780000Y-106910000D03*
X144780000Y-122150000D03*
X147320000Y-106910000D03*
X147320000Y-122150000D03*
X149860000Y-106910000D03*
X149860000Y-122150000D03*
D11*
X152400000Y-106910000D03*
D15*
X152400000Y-122150000D03*
D16*
X142621000Y-101195000D03*
X140081000Y-101195000D03*
X137541000Y-101195000D03*
G36*
G01*
X134131000Y-102040001D02*
X134131000Y-100349999D01*
G75*
G02*
X134380999Y-100100000I249999J0D01*
G01*
X135621001Y-100100000D01*
G75*
G02*
X135871000Y-100349999I0J-249999D01*
G01*
X135871000Y-102040001D01*
G75*
G02*
X135621001Y-102290000I-249999J0D01*
G01*
X134380999Y-102290000D01*
G75*
G02*
X134131000Y-102040001I0J249999D01*
G01*
G37*
D15*
X170180000Y-87884000D03*
X170180000Y-72644000D03*
X167640000Y-87884000D03*
X167640000Y-72644000D03*
X165100000Y-87884000D03*
X165100000Y-72644000D03*
X162560000Y-87884000D03*
X162560000Y-72644000D03*
X160020000Y-87884000D03*
X160020000Y-72644000D03*
X157480000Y-87884000D03*
X157480000Y-72644000D03*
X154940000Y-87884000D03*
X154940000Y-72644000D03*
X152400000Y-87884000D03*
X152400000Y-72644000D03*
X149860000Y-87884000D03*
X149860000Y-72644000D03*
X147320000Y-87884000D03*
X147320000Y-72644000D03*
X144780000Y-87884000D03*
X144780000Y-72644000D03*
X142240000Y-87884000D03*
X142240000Y-72644000D03*
X139700000Y-87884000D03*
X139700000Y-72644000D03*
X137160000Y-87884000D03*
X137160000Y-72644000D03*
X134620000Y-87884000D03*
X134620000Y-72644000D03*
X132080000Y-87884000D03*
X132080000Y-72644000D03*
X129540000Y-87884000D03*
X129540000Y-72644000D03*
X127000000Y-87884000D03*
X127000000Y-72644000D03*
X124460000Y-87884000D03*
X124460000Y-72644000D03*
D11*
X121920000Y-87884000D03*
D15*
X121920000Y-72644000D03*
D13*
X177800000Y-75184000D03*
D14*
X177800000Y-82804000D03*
D13*
X175260000Y-82804000D03*
D14*
X175260000Y-75184000D03*
D13*
X165100000Y-98020000D03*
D14*
X157480000Y-98020000D03*
D17*
X168910000Y-94210000D03*
D18*
X166370000Y-94210000D03*
D15*
X182880000Y-108204000D03*
X182880000Y-105664000D03*
X182880000Y-103124000D03*
X182880000Y-100584000D03*
X182880000Y-98044000D03*
X182880000Y-95504000D03*
X182880000Y-92964000D03*
X180340000Y-108204000D03*
X180340000Y-105664000D03*
X180340000Y-103124000D03*
X180340000Y-100584000D03*
X180340000Y-98044000D03*
X180340000Y-95504000D03*
G36*
G01*
X179490000Y-93564000D02*
X179490000Y-92364000D01*
G75*
G02*
X179740000Y-92114000I250000J0D01*
G01*
X180940000Y-92114000D01*
G75*
G02*
X181190000Y-92364000I0J-250000D01*
G01*
X181190000Y-93564000D01*
G75*
G02*
X180940000Y-93814000I-250000J0D01*
G01*
X179740000Y-93814000D01*
G75*
G02*
X179490000Y-93564000I0J250000D01*
G01*
G37*
D13*
X157480000Y-108180000D03*
D14*
X165100000Y-108180000D03*
D13*
X157480000Y-113260000D03*
D14*
X165100000Y-113260000D03*
D13*
X157480000Y-103100000D03*
D14*
X165100000Y-103100000D03*
D13*
X157480000Y-100560000D03*
D14*
X165100000Y-100560000D03*
D13*
X157480000Y-105640000D03*
D14*
X165100000Y-105640000D03*
D10*
X127000000Y-101830000D03*
X124460000Y-101830000D03*
D11*
X121920000Y-101830000D03*
M02*
