%FSLAX45Y45*%
G04 Gerber Fmt 4.5, Leading zero omitted, Abs format (unit mm)*
G04 Created by KiCad (PCBNEW (5.1.12)-1) date 2021-11-24 17:56:23*
%MOMM*%
%LPD*%
G01*
G04 APERTURE LIST*
%TA.AperFunction,Profile*%
%ADD10C,0.050000*%
%TD*%
%ADD11C,0.200000*%
%ADD12C,0.300000*%
G04 APERTURE END LIST*
D10*
X11684000Y-12500000D02*
X11684000Y-6500000D01*
X18684000Y-12500000D02*
X11684000Y-12500000D01*
X18684000Y-6500000D02*
X18684000Y-12500000D01*
X11684000Y-6500000D02*
X18684000Y-6500000D01*
D11*
X12548000Y-9078500D02*
X12598000Y-9128500D01*
X12598000Y-9078500D02*
X12548000Y-9128500D01*
X13411600Y-11478800D02*
X13461600Y-11528800D01*
X13461600Y-11478800D02*
X13411600Y-11528800D01*
X13564000Y-9459500D02*
X13614000Y-9509500D01*
X13614000Y-9459500D02*
X13564000Y-9509500D01*
X13818000Y-6983000D02*
X13868000Y-7033000D01*
X13868000Y-6983000D02*
X13818000Y-7033000D01*
X14326000Y-8062500D02*
X14376000Y-8112500D01*
X14376000Y-8062500D02*
X14326000Y-8112500D01*
X14580000Y-6983000D02*
X14630000Y-7033000D01*
X14630000Y-6983000D02*
X14580000Y-7033000D01*
X14961000Y-9078500D02*
X15011000Y-9128500D01*
X15011000Y-9078500D02*
X14961000Y-9128500D01*
X15024500Y-9777000D02*
X15074500Y-9827000D01*
X15074500Y-9777000D02*
X15024500Y-9827000D01*
X15342000Y-6983000D02*
X15392000Y-7033000D01*
X15392000Y-6983000D02*
X15342000Y-7033000D01*
X15850000Y-9078500D02*
X15900000Y-9128500D01*
X15900000Y-9078500D02*
X15850000Y-9128500D01*
X16104000Y-6983000D02*
X16154000Y-7033000D01*
X16154000Y-6983000D02*
X16104000Y-7033000D01*
X16802500Y-10348500D02*
X16852500Y-10398500D01*
X16852500Y-10348500D02*
X16802500Y-10398500D01*
X16802500Y-11301000D02*
X16852500Y-11351000D01*
X16852500Y-11301000D02*
X16802500Y-11351000D01*
X18009000Y-11250200D02*
X18059000Y-11300200D01*
X18059000Y-11250200D02*
X18009000Y-11300200D01*
X15783000Y-9802000D02*
G75*
G03*
X15783000Y-9802000I-35000J0D01*
G01*
X15783000Y-10056000D02*
G75*
G03*
X15783000Y-10056000I-35000J0D01*
G01*
X15783000Y-10310000D02*
G75*
G03*
X15783000Y-10310000I-35000J0D01*
G01*
X15783000Y-10564000D02*
G75*
G03*
X15783000Y-10564000I-35000J0D01*
G01*
X15783000Y-10818000D02*
G75*
G03*
X15783000Y-10818000I-35000J0D01*
G01*
X15783000Y-11072000D02*
G75*
G03*
X15783000Y-11072000I-35000J0D01*
G01*
X15783000Y-11326000D02*
G75*
G03*
X15783000Y-11326000I-35000J0D01*
G01*
X15783000Y-11580000D02*
G75*
G03*
X15783000Y-11580000I-35000J0D01*
G01*
X15783000Y-11834000D02*
G75*
G03*
X15783000Y-11834000I-35000J0D01*
G01*
X16545000Y-9802000D02*
G75*
G03*
X16545000Y-9802000I-35000J0D01*
G01*
X16545000Y-10056000D02*
G75*
G03*
X16545000Y-10056000I-35000J0D01*
G01*
X16545000Y-10310000D02*
G75*
G03*
X16545000Y-10310000I-35000J0D01*
G01*
X16545000Y-10564000D02*
G75*
G03*
X16545000Y-10564000I-35000J0D01*
G01*
X16545000Y-10818000D02*
G75*
G03*
X16545000Y-10818000I-35000J0D01*
G01*
X16545000Y-11072000D02*
G75*
G03*
X16545000Y-11072000I-35000J0D01*
G01*
X16545000Y-11326000D02*
G75*
G03*
X16545000Y-11326000I-35000J0D01*
G01*
X16545000Y-11580000D02*
G75*
G03*
X16545000Y-11580000I-35000J0D01*
G01*
X16545000Y-11834000D02*
G75*
G03*
X16545000Y-11834000I-35000J0D01*
G01*
X17561000Y-7518400D02*
G75*
G03*
X17561000Y-7518400I-35000J0D01*
G01*
X17561000Y-8280400D02*
G75*
G03*
X17561000Y-8280400I-35000J0D01*
G01*
X17815000Y-7518400D02*
G75*
G03*
X17815000Y-7518400I-35000J0D01*
G01*
X17815000Y-8280400D02*
G75*
G03*
X17815000Y-8280400I-35000J0D01*
G01*
X17788000Y-8492000D02*
X17788000Y-8572000D01*
X17748000Y-8532000D02*
X17828000Y-8532000D01*
X18288000Y-8492000D02*
X18288000Y-8572000D01*
X18248000Y-8532000D02*
X18328000Y-8532000D01*
X16668820Y-9452820D02*
X16668820Y-9389180D01*
X16605180Y-9389180D01*
X16605180Y-9452820D01*
X16668820Y-9452820D01*
X16922820Y-9452820D02*
X16922820Y-9389180D01*
X16859180Y-9389180D01*
X16859180Y-9452820D01*
X16922820Y-9452820D01*
X12192000Y-7314400D02*
X12242000Y-7264400D01*
X12192000Y-7214400D01*
X12142000Y-7264400D01*
X12192000Y-7314400D01*
X12192000Y-8838400D02*
X12242000Y-8788400D01*
X12192000Y-8738400D01*
X12142000Y-8788400D01*
X12192000Y-8838400D01*
X12192000Y-9471000D02*
X12242000Y-9421000D01*
X12192000Y-9371000D01*
X12142000Y-9421000D01*
X12192000Y-9471000D01*
X12192000Y-10233000D02*
X12242000Y-10183000D01*
X12192000Y-10133000D01*
X12142000Y-10183000D01*
X12192000Y-10233000D01*
X12446000Y-7314400D02*
X12496000Y-7264400D01*
X12446000Y-7214400D01*
X12396000Y-7264400D01*
X12446000Y-7314400D01*
X12446000Y-8838400D02*
X12496000Y-8788400D01*
X12446000Y-8738400D01*
X12396000Y-8788400D01*
X12446000Y-8838400D01*
X12446000Y-9471000D02*
X12496000Y-9421000D01*
X12446000Y-9371000D01*
X12396000Y-9421000D01*
X12446000Y-9471000D01*
X12446000Y-10233000D02*
X12496000Y-10183000D01*
X12446000Y-10133000D01*
X12396000Y-10183000D01*
X12446000Y-10233000D01*
X12700000Y-7314400D02*
X12750000Y-7264400D01*
X12700000Y-7214400D01*
X12650000Y-7264400D01*
X12700000Y-7314400D01*
X12700000Y-8838400D02*
X12750000Y-8788400D01*
X12700000Y-8738400D01*
X12650000Y-8788400D01*
X12700000Y-8838400D01*
X12700000Y-9471000D02*
X12750000Y-9421000D01*
X12700000Y-9371000D01*
X12650000Y-9421000D01*
X12700000Y-9471000D01*
X12700000Y-10233000D02*
X12750000Y-10183000D01*
X12700000Y-10133000D01*
X12650000Y-10183000D01*
X12700000Y-10233000D01*
X12954000Y-7314400D02*
X13004000Y-7264400D01*
X12954000Y-7214400D01*
X12904000Y-7264400D01*
X12954000Y-7314400D01*
X12954000Y-8838400D02*
X13004000Y-8788400D01*
X12954000Y-8738400D01*
X12904000Y-8788400D01*
X12954000Y-8838400D01*
X12954000Y-9471000D02*
X13004000Y-9421000D01*
X12954000Y-9371000D01*
X12904000Y-9421000D01*
X12954000Y-9471000D01*
X13208000Y-6740000D02*
X13258000Y-6690000D01*
X13208000Y-6640000D01*
X13158000Y-6690000D01*
X13208000Y-6740000D01*
X13208000Y-7314400D02*
X13258000Y-7264400D01*
X13208000Y-7214400D01*
X13158000Y-7264400D01*
X13208000Y-7314400D01*
X13208000Y-8838400D02*
X13258000Y-8788400D01*
X13208000Y-8738400D01*
X13158000Y-8788400D01*
X13208000Y-8838400D01*
X13208000Y-9471000D02*
X13258000Y-9421000D01*
X13208000Y-9371000D01*
X13158000Y-9421000D01*
X13208000Y-9471000D01*
X13208000Y-10741000D02*
X13258000Y-10691000D01*
X13208000Y-10641000D01*
X13158000Y-10691000D01*
X13208000Y-10741000D01*
X13208000Y-12265000D02*
X13258000Y-12215000D01*
X13208000Y-12165000D01*
X13158000Y-12215000D01*
X13208000Y-12265000D01*
X13462000Y-6740000D02*
X13512000Y-6690000D01*
X13462000Y-6640000D01*
X13412000Y-6690000D01*
X13462000Y-6740000D01*
X13462000Y-7314400D02*
X13512000Y-7264400D01*
X13462000Y-7214400D01*
X13412000Y-7264400D01*
X13462000Y-7314400D01*
X13462000Y-8838400D02*
X13512000Y-8788400D01*
X13462000Y-8738400D01*
X13412000Y-8788400D01*
X13462000Y-8838400D01*
X13462000Y-10741000D02*
X13512000Y-10691000D01*
X13462000Y-10641000D01*
X13412000Y-10691000D01*
X13462000Y-10741000D01*
X13462000Y-12265000D02*
X13512000Y-12215000D01*
X13462000Y-12165000D01*
X13412000Y-12215000D01*
X13462000Y-12265000D01*
X13716000Y-6740000D02*
X13766000Y-6690000D01*
X13716000Y-6640000D01*
X13666000Y-6690000D01*
X13716000Y-6740000D01*
X13716000Y-7314400D02*
X13766000Y-7264400D01*
X13716000Y-7214400D01*
X13666000Y-7264400D01*
X13716000Y-7314400D01*
X13716000Y-8838400D02*
X13766000Y-8788400D01*
X13716000Y-8738400D01*
X13666000Y-8788400D01*
X13716000Y-8838400D01*
X13716000Y-10741000D02*
X13766000Y-10691000D01*
X13716000Y-10641000D01*
X13666000Y-10691000D01*
X13716000Y-10741000D01*
X13716000Y-12265000D02*
X13766000Y-12215000D01*
X13716000Y-12165000D01*
X13666000Y-12215000D01*
X13716000Y-12265000D01*
X13970000Y-6740000D02*
X14020000Y-6690000D01*
X13970000Y-6640000D01*
X13920000Y-6690000D01*
X13970000Y-6740000D01*
X13970000Y-7314400D02*
X14020000Y-7264400D01*
X13970000Y-7214400D01*
X13920000Y-7264400D01*
X13970000Y-7314400D01*
X13970000Y-8838400D02*
X14020000Y-8788400D01*
X13970000Y-8738400D01*
X13920000Y-8788400D01*
X13970000Y-8838400D01*
X13970000Y-10741000D02*
X14020000Y-10691000D01*
X13970000Y-10641000D01*
X13920000Y-10691000D01*
X13970000Y-10741000D01*
X13970000Y-12265000D02*
X14020000Y-12215000D01*
X13970000Y-12165000D01*
X13920000Y-12215000D01*
X13970000Y-12265000D01*
X14224000Y-6740000D02*
X14274000Y-6690000D01*
X14224000Y-6640000D01*
X14174000Y-6690000D01*
X14224000Y-6740000D01*
X14224000Y-7314400D02*
X14274000Y-7264400D01*
X14224000Y-7214400D01*
X14174000Y-7264400D01*
X14224000Y-7314400D01*
X14224000Y-8838400D02*
X14274000Y-8788400D01*
X14224000Y-8738400D01*
X14174000Y-8788400D01*
X14224000Y-8838400D01*
X14224000Y-10741000D02*
X14274000Y-10691000D01*
X14224000Y-10641000D01*
X14174000Y-10691000D01*
X14224000Y-10741000D01*
X14224000Y-12265000D02*
X14274000Y-12215000D01*
X14224000Y-12165000D01*
X14174000Y-12215000D01*
X14224000Y-12265000D01*
X14478000Y-6740000D02*
X14528000Y-6690000D01*
X14478000Y-6640000D01*
X14428000Y-6690000D01*
X14478000Y-6740000D01*
X14478000Y-7314400D02*
X14528000Y-7264400D01*
X14478000Y-7214400D01*
X14428000Y-7264400D01*
X14478000Y-7314400D01*
X14478000Y-8838400D02*
X14528000Y-8788400D01*
X14478000Y-8738400D01*
X14428000Y-8788400D01*
X14478000Y-8838400D01*
X14478000Y-10741000D02*
X14528000Y-10691000D01*
X14478000Y-10641000D01*
X14428000Y-10691000D01*
X14478000Y-10741000D01*
X14478000Y-12265000D02*
X14528000Y-12215000D01*
X14478000Y-12165000D01*
X14428000Y-12215000D01*
X14478000Y-12265000D01*
X14732000Y-6740000D02*
X14782000Y-6690000D01*
X14732000Y-6640000D01*
X14682000Y-6690000D01*
X14732000Y-6740000D01*
X14732000Y-7314400D02*
X14782000Y-7264400D01*
X14732000Y-7214400D01*
X14682000Y-7264400D01*
X14732000Y-7314400D01*
X14732000Y-8838400D02*
X14782000Y-8788400D01*
X14732000Y-8738400D01*
X14682000Y-8788400D01*
X14732000Y-8838400D01*
X14732000Y-9471000D02*
X14782000Y-9421000D01*
X14732000Y-9371000D01*
X14682000Y-9421000D01*
X14732000Y-9471000D01*
X14732000Y-10741000D02*
X14782000Y-10691000D01*
X14732000Y-10641000D01*
X14682000Y-10691000D01*
X14732000Y-10741000D01*
X14732000Y-12265000D02*
X14782000Y-12215000D01*
X14732000Y-12165000D01*
X14682000Y-12215000D01*
X14732000Y-12265000D01*
X14986000Y-6740000D02*
X15036000Y-6690000D01*
X14986000Y-6640000D01*
X14936000Y-6690000D01*
X14986000Y-6740000D01*
X14986000Y-7314400D02*
X15036000Y-7264400D01*
X14986000Y-7214400D01*
X14936000Y-7264400D01*
X14986000Y-7314400D01*
X14986000Y-8838400D02*
X15036000Y-8788400D01*
X14986000Y-8738400D01*
X14936000Y-8788400D01*
X14986000Y-8838400D01*
X14986000Y-9471000D02*
X15036000Y-9421000D01*
X14986000Y-9371000D01*
X14936000Y-9421000D01*
X14986000Y-9471000D01*
X14986000Y-10233000D02*
X15036000Y-10183000D01*
X14986000Y-10133000D01*
X14936000Y-10183000D01*
X14986000Y-10233000D01*
X14986000Y-10741000D02*
X15036000Y-10691000D01*
X14986000Y-10641000D01*
X14936000Y-10691000D01*
X14986000Y-10741000D01*
X14986000Y-12265000D02*
X15036000Y-12215000D01*
X14986000Y-12165000D01*
X14936000Y-12215000D01*
X14986000Y-12265000D01*
X15240000Y-6740000D02*
X15290000Y-6690000D01*
X15240000Y-6640000D01*
X15190000Y-6690000D01*
X15240000Y-6740000D01*
X15240000Y-7314400D02*
X15290000Y-7264400D01*
X15240000Y-7214400D01*
X15190000Y-7264400D01*
X15240000Y-7314400D01*
X15240000Y-8838400D02*
X15290000Y-8788400D01*
X15240000Y-8738400D01*
X15190000Y-8788400D01*
X15240000Y-8838400D01*
X15240000Y-9471000D02*
X15290000Y-9421000D01*
X15240000Y-9371000D01*
X15190000Y-9421000D01*
X15240000Y-9471000D01*
X15240000Y-10233000D02*
X15290000Y-10183000D01*
X15240000Y-10133000D01*
X15190000Y-10183000D01*
X15240000Y-10233000D01*
X15240000Y-10741000D02*
X15290000Y-10691000D01*
X15240000Y-10641000D01*
X15190000Y-10691000D01*
X15240000Y-10741000D01*
X15240000Y-12265000D02*
X15290000Y-12215000D01*
X15240000Y-12165000D01*
X15190000Y-12215000D01*
X15240000Y-12265000D01*
X15494000Y-6740000D02*
X15544000Y-6690000D01*
X15494000Y-6640000D01*
X15444000Y-6690000D01*
X15494000Y-6740000D01*
X15494000Y-7314400D02*
X15544000Y-7264400D01*
X15494000Y-7214400D01*
X15444000Y-7264400D01*
X15494000Y-7314400D01*
X15494000Y-8838400D02*
X15544000Y-8788400D01*
X15494000Y-8738400D01*
X15444000Y-8788400D01*
X15494000Y-8838400D01*
X15494000Y-9471000D02*
X15544000Y-9421000D01*
X15494000Y-9371000D01*
X15444000Y-9421000D01*
X15494000Y-9471000D01*
X15748000Y-6740000D02*
X15798000Y-6690000D01*
X15748000Y-6640000D01*
X15698000Y-6690000D01*
X15748000Y-6740000D01*
X15748000Y-7314400D02*
X15798000Y-7264400D01*
X15748000Y-7214400D01*
X15698000Y-7264400D01*
X15748000Y-7314400D01*
X15748000Y-8838400D02*
X15798000Y-8788400D01*
X15748000Y-8738400D01*
X15698000Y-8788400D01*
X15748000Y-8838400D01*
X15748000Y-9471000D02*
X15798000Y-9421000D01*
X15748000Y-9371000D01*
X15698000Y-9421000D01*
X15748000Y-9471000D01*
X16002000Y-6740000D02*
X16052000Y-6690000D01*
X16002000Y-6640000D01*
X15952000Y-6690000D01*
X16002000Y-6740000D01*
X16002000Y-7314400D02*
X16052000Y-7264400D01*
X16002000Y-7214400D01*
X15952000Y-7264400D01*
X16002000Y-7314400D01*
X16002000Y-8838400D02*
X16052000Y-8788400D01*
X16002000Y-8738400D01*
X15952000Y-8788400D01*
X16002000Y-8838400D01*
X16002000Y-9471000D02*
X16052000Y-9421000D01*
X16002000Y-9371000D01*
X15952000Y-9421000D01*
X16002000Y-9471000D01*
X16256000Y-6740000D02*
X16306000Y-6690000D01*
X16256000Y-6640000D01*
X16206000Y-6690000D01*
X16256000Y-6740000D01*
X16256000Y-7314400D02*
X16306000Y-7264400D01*
X16256000Y-7214400D01*
X16206000Y-7264400D01*
X16256000Y-7314400D01*
X16256000Y-8838400D02*
X16306000Y-8788400D01*
X16256000Y-8738400D01*
X16206000Y-8788400D01*
X16256000Y-8838400D01*
X16256000Y-9471000D02*
X16306000Y-9421000D01*
X16256000Y-9371000D01*
X16206000Y-9421000D01*
X16256000Y-9471000D01*
X16510000Y-7314400D02*
X16560000Y-7264400D01*
X16510000Y-7214400D01*
X16460000Y-7264400D01*
X16510000Y-7314400D01*
X16510000Y-8838400D02*
X16560000Y-8788400D01*
X16510000Y-8738400D01*
X16460000Y-8788400D01*
X16510000Y-8838400D01*
X16764000Y-7314400D02*
X16814000Y-7264400D01*
X16764000Y-7214400D01*
X16714000Y-7264400D01*
X16764000Y-7314400D01*
X16764000Y-8838400D02*
X16814000Y-8788400D01*
X16764000Y-8738400D01*
X16714000Y-8788400D01*
X16764000Y-8838400D01*
X17018000Y-7314400D02*
X17068000Y-7264400D01*
X17018000Y-7214400D01*
X16968000Y-7264400D01*
X17018000Y-7314400D01*
X17018000Y-8838400D02*
X17068000Y-8788400D01*
X17018000Y-8738400D01*
X16968000Y-8788400D01*
X17018000Y-8838400D01*
X17272000Y-10362400D02*
X17322000Y-10312400D01*
X17272000Y-10262400D01*
X17222000Y-10312400D01*
X17272000Y-10362400D01*
X17272000Y-10616400D02*
X17322000Y-10566400D01*
X17272000Y-10516400D01*
X17222000Y-10566400D01*
X17272000Y-10616400D01*
X17272000Y-10870400D02*
X17322000Y-10820400D01*
X17272000Y-10770400D01*
X17222000Y-10820400D01*
X17272000Y-10870400D01*
X17272000Y-11124400D02*
X17322000Y-11074400D01*
X17272000Y-11024400D01*
X17222000Y-11074400D01*
X17272000Y-11124400D01*
X17272000Y-11378400D02*
X17322000Y-11328400D01*
X17272000Y-11278400D01*
X17222000Y-11328400D01*
X17272000Y-11378400D01*
X17272000Y-11632400D02*
X17322000Y-11582400D01*
X17272000Y-11532400D01*
X17222000Y-11582400D01*
X17272000Y-11632400D01*
X17272000Y-11886400D02*
X17322000Y-11836400D01*
X17272000Y-11786400D01*
X17222000Y-11836400D01*
X17272000Y-11886400D01*
X18034000Y-9346400D02*
X18084000Y-9296400D01*
X18034000Y-9246400D01*
X17984000Y-9296400D01*
X18034000Y-9346400D01*
X18034000Y-9600400D02*
X18084000Y-9550400D01*
X18034000Y-9500400D01*
X17984000Y-9550400D01*
X18034000Y-9600400D01*
X18034000Y-9854400D02*
X18084000Y-9804400D01*
X18034000Y-9754400D01*
X17984000Y-9804400D01*
X18034000Y-9854400D01*
X18034000Y-10108400D02*
X18084000Y-10058400D01*
X18034000Y-10008400D01*
X17984000Y-10058400D01*
X18034000Y-10108400D01*
X18034000Y-10362400D02*
X18084000Y-10312400D01*
X18034000Y-10262400D01*
X17984000Y-10312400D01*
X18034000Y-10362400D01*
X18034000Y-10616400D02*
X18084000Y-10566400D01*
X18034000Y-10516400D01*
X17984000Y-10566400D01*
X18034000Y-10616400D01*
X18034000Y-10870400D02*
X18084000Y-10820400D01*
X18034000Y-10770400D01*
X17984000Y-10820400D01*
X18034000Y-10870400D01*
X18288000Y-9346400D02*
X18338000Y-9296400D01*
X18288000Y-9246400D01*
X18238000Y-9296400D01*
X18288000Y-9346400D01*
X18288000Y-9600400D02*
X18338000Y-9550400D01*
X18288000Y-9500400D01*
X18238000Y-9550400D01*
X18288000Y-9600400D01*
X18288000Y-9854400D02*
X18338000Y-9804400D01*
X18288000Y-9754400D01*
X18238000Y-9804400D01*
X18288000Y-9854400D01*
X18288000Y-10108400D02*
X18338000Y-10058400D01*
X18288000Y-10008400D01*
X18238000Y-10058400D01*
X18288000Y-10108400D01*
X18288000Y-10362400D02*
X18338000Y-10312400D01*
X18288000Y-10262400D01*
X18238000Y-10312400D01*
X18288000Y-10362400D01*
X18288000Y-10616400D02*
X18338000Y-10566400D01*
X18288000Y-10516400D01*
X18238000Y-10566400D01*
X18288000Y-10616400D01*
X18288000Y-10870400D02*
X18338000Y-10820400D01*
X18288000Y-10770400D01*
X18238000Y-10820400D01*
X18288000Y-10870400D01*
X13440600Y-10060000D02*
X13559600Y-10179000D01*
X13559600Y-10060000D02*
X13440600Y-10179000D01*
X13559600Y-10119500D02*
G75*
G03*
X13559600Y-10119500I-59500J0D01*
G01*
X13694600Y-10060000D02*
X13813600Y-10179000D01*
X13813600Y-10060000D02*
X13694600Y-10179000D01*
X13813600Y-10119500D02*
G75*
G03*
X13813600Y-10119500I-59500J0D01*
G01*
X13948600Y-10060000D02*
X14067600Y-10179000D01*
X14067600Y-10060000D02*
X13948600Y-10179000D01*
X14067600Y-10119500D02*
G75*
G03*
X14067600Y-10119500I-59500J0D01*
G01*
X14202600Y-10060000D02*
X14321600Y-10179000D01*
X14321600Y-10060000D02*
X14202600Y-10179000D01*
X14321600Y-10119500D02*
G75*
G03*
X14321600Y-10119500I-59500J0D01*
G01*
D12*
X11967928Y-12968214D02*
X11967928Y-12668214D01*
X12039357Y-12668214D01*
X12082214Y-12682500D01*
X12110786Y-12711071D01*
X12125071Y-12739643D01*
X12139357Y-12796786D01*
X12139357Y-12839643D01*
X12125071Y-12896786D01*
X12110786Y-12925357D01*
X12082214Y-12953929D01*
X12039357Y-12968214D01*
X11967928Y-12968214D01*
X12267928Y-12968214D02*
X12267928Y-12768214D01*
X12267928Y-12825357D02*
X12282214Y-12796786D01*
X12296500Y-12782500D01*
X12325071Y-12768214D01*
X12353643Y-12768214D01*
X12453643Y-12968214D02*
X12453643Y-12768214D01*
X12453643Y-12668214D02*
X12439357Y-12682500D01*
X12453643Y-12696786D01*
X12467928Y-12682500D01*
X12453643Y-12668214D01*
X12453643Y-12696786D01*
X12639357Y-12968214D02*
X12610786Y-12953929D01*
X12596500Y-12925357D01*
X12596500Y-12668214D01*
X12796500Y-12968214D02*
X12767928Y-12953929D01*
X12753643Y-12925357D01*
X12753643Y-12668214D01*
X13139357Y-12968214D02*
X13139357Y-12668214D01*
X13239357Y-12882500D01*
X13339357Y-12668214D01*
X13339357Y-12968214D01*
X13610786Y-12968214D02*
X13610786Y-12811071D01*
X13596500Y-12782500D01*
X13567928Y-12768214D01*
X13510786Y-12768214D01*
X13482214Y-12782500D01*
X13610786Y-12953929D02*
X13582214Y-12968214D01*
X13510786Y-12968214D01*
X13482214Y-12953929D01*
X13467928Y-12925357D01*
X13467928Y-12896786D01*
X13482214Y-12868214D01*
X13510786Y-12853929D01*
X13582214Y-12853929D01*
X13610786Y-12839643D01*
X13753643Y-12768214D02*
X13753643Y-13068214D01*
X13753643Y-12782500D02*
X13782214Y-12768214D01*
X13839357Y-12768214D01*
X13867928Y-12782500D01*
X13882214Y-12796786D01*
X13896500Y-12825357D01*
X13896500Y-12911071D01*
X13882214Y-12939643D01*
X13867928Y-12953929D01*
X13839357Y-12968214D01*
X13782214Y-12968214D01*
X13753643Y-12953929D01*
X14025071Y-12939643D02*
X14039357Y-12953929D01*
X14025071Y-12968214D01*
X14010786Y-12953929D01*
X14025071Y-12939643D01*
X14025071Y-12968214D01*
X14025071Y-12782500D02*
X14039357Y-12796786D01*
X14025071Y-12811071D01*
X14010786Y-12796786D01*
X14025071Y-12782500D01*
X14025071Y-12811071D01*
X11631500Y-13437500D02*
X11681500Y-13487500D01*
X11681500Y-13437500D02*
X11631500Y-13487500D01*
X12025071Y-13298214D02*
X12053643Y-13298214D01*
X12082214Y-13312500D01*
X12096500Y-13326786D01*
X12110786Y-13355357D01*
X12125071Y-13412500D01*
X12125071Y-13483929D01*
X12110786Y-13541071D01*
X12096500Y-13569643D01*
X12082214Y-13583929D01*
X12053643Y-13598214D01*
X12025071Y-13598214D01*
X11996500Y-13583929D01*
X11982214Y-13569643D01*
X11967928Y-13541071D01*
X11953643Y-13483929D01*
X11953643Y-13412500D01*
X11967928Y-13355357D01*
X11982214Y-13326786D01*
X11996500Y-13312500D01*
X12025071Y-13298214D01*
X12253643Y-13569643D02*
X12267928Y-13583929D01*
X12253643Y-13598214D01*
X12239357Y-13583929D01*
X12253643Y-13569643D01*
X12253643Y-13598214D01*
X12539357Y-13298214D02*
X12396500Y-13298214D01*
X12382214Y-13441071D01*
X12396500Y-13426786D01*
X12425071Y-13412500D01*
X12496500Y-13412500D01*
X12525071Y-13426786D01*
X12539357Y-13441071D01*
X12553643Y-13469643D01*
X12553643Y-13541071D01*
X12539357Y-13569643D01*
X12525071Y-13583929D01*
X12496500Y-13598214D01*
X12425071Y-13598214D01*
X12396500Y-13583929D01*
X12382214Y-13569643D01*
X12739357Y-13298214D02*
X12767928Y-13298214D01*
X12796500Y-13312500D01*
X12810786Y-13326786D01*
X12825071Y-13355357D01*
X12839357Y-13412500D01*
X12839357Y-13483929D01*
X12825071Y-13541071D01*
X12810786Y-13569643D01*
X12796500Y-13583929D01*
X12767928Y-13598214D01*
X12739357Y-13598214D01*
X12710786Y-13583929D01*
X12696500Y-13569643D01*
X12682214Y-13541071D01*
X12667928Y-13483929D01*
X12667928Y-13412500D01*
X12682214Y-13355357D01*
X12696500Y-13326786D01*
X12710786Y-13312500D01*
X12739357Y-13298214D01*
X13025071Y-13298214D02*
X13053643Y-13298214D01*
X13082214Y-13312500D01*
X13096500Y-13326786D01*
X13110786Y-13355357D01*
X13125071Y-13412500D01*
X13125071Y-13483929D01*
X13110786Y-13541071D01*
X13096500Y-13569643D01*
X13082214Y-13583929D01*
X13053643Y-13598214D01*
X13025071Y-13598214D01*
X12996500Y-13583929D01*
X12982214Y-13569643D01*
X12967928Y-13541071D01*
X12953643Y-13483929D01*
X12953643Y-13412500D01*
X12967928Y-13355357D01*
X12982214Y-13326786D01*
X12996500Y-13312500D01*
X13025071Y-13298214D01*
X13253643Y-13598214D02*
X13253643Y-13398214D01*
X13253643Y-13426786D02*
X13267928Y-13412500D01*
X13296500Y-13398214D01*
X13339357Y-13398214D01*
X13367928Y-13412500D01*
X13382214Y-13441071D01*
X13382214Y-13598214D01*
X13382214Y-13441071D02*
X13396500Y-13412500D01*
X13425071Y-13398214D01*
X13467928Y-13398214D01*
X13496500Y-13412500D01*
X13510786Y-13441071D01*
X13510786Y-13598214D01*
X13653643Y-13598214D02*
X13653643Y-13398214D01*
X13653643Y-13426786D02*
X13667928Y-13412500D01*
X13696500Y-13398214D01*
X13739357Y-13398214D01*
X13767928Y-13412500D01*
X13782214Y-13441071D01*
X13782214Y-13598214D01*
X13782214Y-13441071D02*
X13796500Y-13412500D01*
X13825071Y-13398214D01*
X13867928Y-13398214D01*
X13896500Y-13412500D01*
X13910786Y-13441071D01*
X13910786Y-13598214D01*
X14496500Y-13283929D02*
X14239357Y-13669643D01*
X14882214Y-13298214D02*
X14910786Y-13298214D01*
X14939357Y-13312500D01*
X14953643Y-13326786D01*
X14967928Y-13355357D01*
X14982214Y-13412500D01*
X14982214Y-13483929D01*
X14967928Y-13541071D01*
X14953643Y-13569643D01*
X14939357Y-13583929D01*
X14910786Y-13598214D01*
X14882214Y-13598214D01*
X14853643Y-13583929D01*
X14839357Y-13569643D01*
X14825071Y-13541071D01*
X14810786Y-13483929D01*
X14810786Y-13412500D01*
X14825071Y-13355357D01*
X14839357Y-13326786D01*
X14853643Y-13312500D01*
X14882214Y-13298214D01*
X15110786Y-13569643D02*
X15125071Y-13583929D01*
X15110786Y-13598214D01*
X15096500Y-13583929D01*
X15110786Y-13569643D01*
X15110786Y-13598214D01*
X15310786Y-13298214D02*
X15339357Y-13298214D01*
X15367928Y-13312500D01*
X15382214Y-13326786D01*
X15396500Y-13355357D01*
X15410786Y-13412500D01*
X15410786Y-13483929D01*
X15396500Y-13541071D01*
X15382214Y-13569643D01*
X15367928Y-13583929D01*
X15339357Y-13598214D01*
X15310786Y-13598214D01*
X15282214Y-13583929D01*
X15267928Y-13569643D01*
X15253643Y-13541071D01*
X15239357Y-13483929D01*
X15239357Y-13412500D01*
X15253643Y-13355357D01*
X15267928Y-13326786D01*
X15282214Y-13312500D01*
X15310786Y-13298214D01*
X15696500Y-13598214D02*
X15525071Y-13598214D01*
X15610786Y-13598214D02*
X15610786Y-13298214D01*
X15582214Y-13341071D01*
X15553643Y-13369643D01*
X15525071Y-13383929D01*
X15839357Y-13598214D02*
X15896500Y-13598214D01*
X15925071Y-13583929D01*
X15939357Y-13569643D01*
X15967928Y-13526786D01*
X15982214Y-13469643D01*
X15982214Y-13355357D01*
X15967928Y-13326786D01*
X15953643Y-13312500D01*
X15925071Y-13298214D01*
X15867928Y-13298214D01*
X15839357Y-13312500D01*
X15825071Y-13326786D01*
X15810786Y-13355357D01*
X15810786Y-13426786D01*
X15825071Y-13455357D01*
X15839357Y-13469643D01*
X15867928Y-13483929D01*
X15925071Y-13483929D01*
X15953643Y-13469643D01*
X15967928Y-13455357D01*
X15982214Y-13426786D01*
X16082214Y-13298214D02*
X16282214Y-13298214D01*
X16153643Y-13598214D01*
X16382214Y-13298214D02*
X16382214Y-13355357D01*
X16496500Y-13298214D02*
X16496500Y-13355357D01*
X16939357Y-13712500D02*
X16925071Y-13698214D01*
X16896500Y-13655357D01*
X16882214Y-13626786D01*
X16867928Y-13583929D01*
X16853643Y-13512500D01*
X16853643Y-13455357D01*
X16867928Y-13383929D01*
X16882214Y-13341071D01*
X16896500Y-13312500D01*
X16925071Y-13269643D01*
X16939357Y-13255357D01*
X17210786Y-13598214D02*
X17039357Y-13598214D01*
X17125071Y-13598214D02*
X17125071Y-13298214D01*
X17096500Y-13341071D01*
X17067928Y-13369643D01*
X17039357Y-13383929D01*
X17467928Y-13398214D02*
X17467928Y-13598214D01*
X17396500Y-13283929D02*
X17325071Y-13498214D01*
X17510786Y-13498214D01*
X17853643Y-13598214D02*
X17853643Y-13298214D01*
X17982214Y-13598214D02*
X17982214Y-13441071D01*
X17967928Y-13412500D01*
X17939357Y-13398214D01*
X17896500Y-13398214D01*
X17867928Y-13412500D01*
X17853643Y-13426786D01*
X18167928Y-13598214D02*
X18139357Y-13583929D01*
X18125071Y-13569643D01*
X18110786Y-13541071D01*
X18110786Y-13455357D01*
X18125071Y-13426786D01*
X18139357Y-13412500D01*
X18167928Y-13398214D01*
X18210786Y-13398214D01*
X18239357Y-13412500D01*
X18253643Y-13426786D01*
X18267928Y-13455357D01*
X18267928Y-13541071D01*
X18253643Y-13569643D01*
X18239357Y-13583929D01*
X18210786Y-13598214D01*
X18167928Y-13598214D01*
X18439357Y-13598214D02*
X18410786Y-13583929D01*
X18396500Y-13555357D01*
X18396500Y-13298214D01*
X18667928Y-13583929D02*
X18639357Y-13598214D01*
X18582214Y-13598214D01*
X18553643Y-13583929D01*
X18539357Y-13555357D01*
X18539357Y-13441071D01*
X18553643Y-13412500D01*
X18582214Y-13398214D01*
X18639357Y-13398214D01*
X18667928Y-13412500D01*
X18682214Y-13441071D01*
X18682214Y-13469643D01*
X18539357Y-13498214D01*
X18796500Y-13583929D02*
X18825071Y-13598214D01*
X18882214Y-13598214D01*
X18910786Y-13583929D01*
X18925071Y-13555357D01*
X18925071Y-13541071D01*
X18910786Y-13512500D01*
X18882214Y-13498214D01*
X18839357Y-13498214D01*
X18810786Y-13483929D01*
X18796500Y-13455357D01*
X18796500Y-13441071D01*
X18810786Y-13412500D01*
X18839357Y-13398214D01*
X18882214Y-13398214D01*
X18910786Y-13412500D01*
X19025071Y-13712500D02*
X19039357Y-13698214D01*
X19067928Y-13655357D01*
X19082214Y-13626786D01*
X19096500Y-13583929D01*
X19110786Y-13512500D01*
X19110786Y-13455357D01*
X19096500Y-13383929D01*
X19082214Y-13341071D01*
X19067928Y-13312500D01*
X19039357Y-13269643D01*
X19025071Y-13255357D01*
X11681500Y-13858500D02*
G75*
G03*
X11681500Y-13858500I-35000J0D01*
G01*
X12025071Y-13694214D02*
X12053643Y-13694214D01*
X12082214Y-13708500D01*
X12096500Y-13722786D01*
X12110786Y-13751357D01*
X12125071Y-13808500D01*
X12125071Y-13879929D01*
X12110786Y-13937071D01*
X12096500Y-13965643D01*
X12082214Y-13979929D01*
X12053643Y-13994214D01*
X12025071Y-13994214D01*
X11996500Y-13979929D01*
X11982214Y-13965643D01*
X11967928Y-13937071D01*
X11953643Y-13879929D01*
X11953643Y-13808500D01*
X11967928Y-13751357D01*
X11982214Y-13722786D01*
X11996500Y-13708500D01*
X12025071Y-13694214D01*
X12253643Y-13965643D02*
X12267928Y-13979929D01*
X12253643Y-13994214D01*
X12239357Y-13979929D01*
X12253643Y-13965643D01*
X12253643Y-13994214D01*
X12367928Y-13694214D02*
X12567928Y-13694214D01*
X12439357Y-13994214D01*
X12739357Y-13694214D02*
X12767928Y-13694214D01*
X12796500Y-13708500D01*
X12810786Y-13722786D01*
X12825071Y-13751357D01*
X12839357Y-13808500D01*
X12839357Y-13879929D01*
X12825071Y-13937071D01*
X12810786Y-13965643D01*
X12796500Y-13979929D01*
X12767928Y-13994214D01*
X12739357Y-13994214D01*
X12710786Y-13979929D01*
X12696500Y-13965643D01*
X12682214Y-13937071D01*
X12667928Y-13879929D01*
X12667928Y-13808500D01*
X12682214Y-13751357D01*
X12696500Y-13722786D01*
X12710786Y-13708500D01*
X12739357Y-13694214D01*
X13025071Y-13694214D02*
X13053643Y-13694214D01*
X13082214Y-13708500D01*
X13096500Y-13722786D01*
X13110786Y-13751357D01*
X13125071Y-13808500D01*
X13125071Y-13879929D01*
X13110786Y-13937071D01*
X13096500Y-13965643D01*
X13082214Y-13979929D01*
X13053643Y-13994214D01*
X13025071Y-13994214D01*
X12996500Y-13979929D01*
X12982214Y-13965643D01*
X12967928Y-13937071D01*
X12953643Y-13879929D01*
X12953643Y-13808500D01*
X12967928Y-13751357D01*
X12982214Y-13722786D01*
X12996500Y-13708500D01*
X13025071Y-13694214D01*
X13253643Y-13994214D02*
X13253643Y-13794214D01*
X13253643Y-13822786D02*
X13267928Y-13808500D01*
X13296500Y-13794214D01*
X13339357Y-13794214D01*
X13367928Y-13808500D01*
X13382214Y-13837071D01*
X13382214Y-13994214D01*
X13382214Y-13837071D02*
X13396500Y-13808500D01*
X13425071Y-13794214D01*
X13467928Y-13794214D01*
X13496500Y-13808500D01*
X13510786Y-13837071D01*
X13510786Y-13994214D01*
X13653643Y-13994214D02*
X13653643Y-13794214D01*
X13653643Y-13822786D02*
X13667928Y-13808500D01*
X13696500Y-13794214D01*
X13739357Y-13794214D01*
X13767928Y-13808500D01*
X13782214Y-13837071D01*
X13782214Y-13994214D01*
X13782214Y-13837071D02*
X13796500Y-13808500D01*
X13825071Y-13794214D01*
X13867928Y-13794214D01*
X13896500Y-13808500D01*
X13910786Y-13837071D01*
X13910786Y-13994214D01*
X14496500Y-13679929D02*
X14239357Y-14065643D01*
X14882214Y-13694214D02*
X14910786Y-13694214D01*
X14939357Y-13708500D01*
X14953643Y-13722786D01*
X14967928Y-13751357D01*
X14982214Y-13808500D01*
X14982214Y-13879929D01*
X14967928Y-13937071D01*
X14953643Y-13965643D01*
X14939357Y-13979929D01*
X14910786Y-13994214D01*
X14882214Y-13994214D01*
X14853643Y-13979929D01*
X14839357Y-13965643D01*
X14825071Y-13937071D01*
X14810786Y-13879929D01*
X14810786Y-13808500D01*
X14825071Y-13751357D01*
X14839357Y-13722786D01*
X14853643Y-13708500D01*
X14882214Y-13694214D01*
X15110786Y-13965643D02*
X15125071Y-13979929D01*
X15110786Y-13994214D01*
X15096500Y-13979929D01*
X15110786Y-13965643D01*
X15110786Y-13994214D01*
X15310786Y-13694214D02*
X15339357Y-13694214D01*
X15367928Y-13708500D01*
X15382214Y-13722786D01*
X15396500Y-13751357D01*
X15410786Y-13808500D01*
X15410786Y-13879929D01*
X15396500Y-13937071D01*
X15382214Y-13965643D01*
X15367928Y-13979929D01*
X15339357Y-13994214D01*
X15310786Y-13994214D01*
X15282214Y-13979929D01*
X15267928Y-13965643D01*
X15253643Y-13937071D01*
X15239357Y-13879929D01*
X15239357Y-13808500D01*
X15253643Y-13751357D01*
X15267928Y-13722786D01*
X15282214Y-13708500D01*
X15310786Y-13694214D01*
X15525071Y-13722786D02*
X15539357Y-13708500D01*
X15567928Y-13694214D01*
X15639357Y-13694214D01*
X15667928Y-13708500D01*
X15682214Y-13722786D01*
X15696500Y-13751357D01*
X15696500Y-13779929D01*
X15682214Y-13822786D01*
X15510786Y-13994214D01*
X15696500Y-13994214D01*
X15796500Y-13694214D02*
X15996500Y-13694214D01*
X15867928Y-13994214D01*
X16239357Y-13694214D02*
X16182214Y-13694214D01*
X16153643Y-13708500D01*
X16139357Y-13722786D01*
X16110786Y-13765643D01*
X16096500Y-13822786D01*
X16096500Y-13937071D01*
X16110786Y-13965643D01*
X16125071Y-13979929D01*
X16153643Y-13994214D01*
X16210786Y-13994214D01*
X16239357Y-13979929D01*
X16253643Y-13965643D01*
X16267928Y-13937071D01*
X16267928Y-13865643D01*
X16253643Y-13837071D01*
X16239357Y-13822786D01*
X16210786Y-13808500D01*
X16153643Y-13808500D01*
X16125071Y-13822786D01*
X16110786Y-13837071D01*
X16096500Y-13865643D01*
X16382214Y-13694214D02*
X16382214Y-13751357D01*
X16496500Y-13694214D02*
X16496500Y-13751357D01*
X16939357Y-14108500D02*
X16925071Y-14094214D01*
X16896500Y-14051357D01*
X16882214Y-14022786D01*
X16867928Y-13979929D01*
X16853643Y-13908500D01*
X16853643Y-13851357D01*
X16867928Y-13779929D01*
X16882214Y-13737071D01*
X16896500Y-13708500D01*
X16925071Y-13665643D01*
X16939357Y-13651357D01*
X17039357Y-13722786D02*
X17053643Y-13708500D01*
X17082214Y-13694214D01*
X17153643Y-13694214D01*
X17182214Y-13708500D01*
X17196500Y-13722786D01*
X17210786Y-13751357D01*
X17210786Y-13779929D01*
X17196500Y-13822786D01*
X17025071Y-13994214D01*
X17210786Y-13994214D01*
X17325071Y-13722786D02*
X17339357Y-13708500D01*
X17367928Y-13694214D01*
X17439357Y-13694214D01*
X17467928Y-13708500D01*
X17482214Y-13722786D01*
X17496500Y-13751357D01*
X17496500Y-13779929D01*
X17482214Y-13822786D01*
X17310786Y-13994214D01*
X17496500Y-13994214D01*
X17853643Y-13994214D02*
X17853643Y-13694214D01*
X17982214Y-13994214D02*
X17982214Y-13837071D01*
X17967928Y-13808500D01*
X17939357Y-13794214D01*
X17896500Y-13794214D01*
X17867928Y-13808500D01*
X17853643Y-13822786D01*
X18167928Y-13994214D02*
X18139357Y-13979929D01*
X18125071Y-13965643D01*
X18110786Y-13937071D01*
X18110786Y-13851357D01*
X18125071Y-13822786D01*
X18139357Y-13808500D01*
X18167928Y-13794214D01*
X18210786Y-13794214D01*
X18239357Y-13808500D01*
X18253643Y-13822786D01*
X18267928Y-13851357D01*
X18267928Y-13937071D01*
X18253643Y-13965643D01*
X18239357Y-13979929D01*
X18210786Y-13994214D01*
X18167928Y-13994214D01*
X18439357Y-13994214D02*
X18410786Y-13979929D01*
X18396500Y-13951357D01*
X18396500Y-13694214D01*
X18667928Y-13979929D02*
X18639357Y-13994214D01*
X18582214Y-13994214D01*
X18553643Y-13979929D01*
X18539357Y-13951357D01*
X18539357Y-13837071D01*
X18553643Y-13808500D01*
X18582214Y-13794214D01*
X18639357Y-13794214D01*
X18667928Y-13808500D01*
X18682214Y-13837071D01*
X18682214Y-13865643D01*
X18539357Y-13894214D01*
X18796500Y-13979929D02*
X18825071Y-13994214D01*
X18882214Y-13994214D01*
X18910786Y-13979929D01*
X18925071Y-13951357D01*
X18925071Y-13937071D01*
X18910786Y-13908500D01*
X18882214Y-13894214D01*
X18839357Y-13894214D01*
X18810786Y-13879929D01*
X18796500Y-13851357D01*
X18796500Y-13837071D01*
X18810786Y-13808500D01*
X18839357Y-13794214D01*
X18882214Y-13794214D01*
X18910786Y-13808500D01*
X19025071Y-14108500D02*
X19039357Y-14094214D01*
X19067928Y-14051357D01*
X19082214Y-14022786D01*
X19096500Y-13979929D01*
X19110786Y-13908500D01*
X19110786Y-13851357D01*
X19096500Y-13779929D01*
X19082214Y-13737071D01*
X19067928Y-13708500D01*
X19039357Y-13665643D01*
X19025071Y-13651357D01*
X11641500Y-14214500D02*
X11641500Y-14294500D01*
X11601500Y-14254500D02*
X11681500Y-14254500D01*
X12025071Y-14090214D02*
X12053643Y-14090214D01*
X12082214Y-14104500D01*
X12096500Y-14118786D01*
X12110786Y-14147357D01*
X12125071Y-14204500D01*
X12125071Y-14275929D01*
X12110786Y-14333071D01*
X12096500Y-14361643D01*
X12082214Y-14375929D01*
X12053643Y-14390214D01*
X12025071Y-14390214D01*
X11996500Y-14375929D01*
X11982214Y-14361643D01*
X11967928Y-14333071D01*
X11953643Y-14275929D01*
X11953643Y-14204500D01*
X11967928Y-14147357D01*
X11982214Y-14118786D01*
X11996500Y-14104500D01*
X12025071Y-14090214D01*
X12253643Y-14361643D02*
X12267928Y-14375929D01*
X12253643Y-14390214D01*
X12239357Y-14375929D01*
X12253643Y-14361643D01*
X12253643Y-14390214D01*
X12439357Y-14218786D02*
X12410786Y-14204500D01*
X12396500Y-14190214D01*
X12382214Y-14161643D01*
X12382214Y-14147357D01*
X12396500Y-14118786D01*
X12410786Y-14104500D01*
X12439357Y-14090214D01*
X12496500Y-14090214D01*
X12525071Y-14104500D01*
X12539357Y-14118786D01*
X12553643Y-14147357D01*
X12553643Y-14161643D01*
X12539357Y-14190214D01*
X12525071Y-14204500D01*
X12496500Y-14218786D01*
X12439357Y-14218786D01*
X12410786Y-14233071D01*
X12396500Y-14247357D01*
X12382214Y-14275929D01*
X12382214Y-14333071D01*
X12396500Y-14361643D01*
X12410786Y-14375929D01*
X12439357Y-14390214D01*
X12496500Y-14390214D01*
X12525071Y-14375929D01*
X12539357Y-14361643D01*
X12553643Y-14333071D01*
X12553643Y-14275929D01*
X12539357Y-14247357D01*
X12525071Y-14233071D01*
X12496500Y-14218786D01*
X12739357Y-14090214D02*
X12767928Y-14090214D01*
X12796500Y-14104500D01*
X12810786Y-14118786D01*
X12825071Y-14147357D01*
X12839357Y-14204500D01*
X12839357Y-14275929D01*
X12825071Y-14333071D01*
X12810786Y-14361643D01*
X12796500Y-14375929D01*
X12767928Y-14390214D01*
X12739357Y-14390214D01*
X12710786Y-14375929D01*
X12696500Y-14361643D01*
X12682214Y-14333071D01*
X12667928Y-14275929D01*
X12667928Y-14204500D01*
X12682214Y-14147357D01*
X12696500Y-14118786D01*
X12710786Y-14104500D01*
X12739357Y-14090214D01*
X13025071Y-14090214D02*
X13053643Y-14090214D01*
X13082214Y-14104500D01*
X13096500Y-14118786D01*
X13110786Y-14147357D01*
X13125071Y-14204500D01*
X13125071Y-14275929D01*
X13110786Y-14333071D01*
X13096500Y-14361643D01*
X13082214Y-14375929D01*
X13053643Y-14390214D01*
X13025071Y-14390214D01*
X12996500Y-14375929D01*
X12982214Y-14361643D01*
X12967928Y-14333071D01*
X12953643Y-14275929D01*
X12953643Y-14204500D01*
X12967928Y-14147357D01*
X12982214Y-14118786D01*
X12996500Y-14104500D01*
X13025071Y-14090214D01*
X13253643Y-14390214D02*
X13253643Y-14190214D01*
X13253643Y-14218786D02*
X13267928Y-14204500D01*
X13296500Y-14190214D01*
X13339357Y-14190214D01*
X13367928Y-14204500D01*
X13382214Y-14233071D01*
X13382214Y-14390214D01*
X13382214Y-14233071D02*
X13396500Y-14204500D01*
X13425071Y-14190214D01*
X13467928Y-14190214D01*
X13496500Y-14204500D01*
X13510786Y-14233071D01*
X13510786Y-14390214D01*
X13653643Y-14390214D02*
X13653643Y-14190214D01*
X13653643Y-14218786D02*
X13667928Y-14204500D01*
X13696500Y-14190214D01*
X13739357Y-14190214D01*
X13767928Y-14204500D01*
X13782214Y-14233071D01*
X13782214Y-14390214D01*
X13782214Y-14233071D02*
X13796500Y-14204500D01*
X13825071Y-14190214D01*
X13867928Y-14190214D01*
X13896500Y-14204500D01*
X13910786Y-14233071D01*
X13910786Y-14390214D01*
X14496500Y-14075929D02*
X14239357Y-14461643D01*
X14882214Y-14090214D02*
X14910786Y-14090214D01*
X14939357Y-14104500D01*
X14953643Y-14118786D01*
X14967928Y-14147357D01*
X14982214Y-14204500D01*
X14982214Y-14275929D01*
X14967928Y-14333071D01*
X14953643Y-14361643D01*
X14939357Y-14375929D01*
X14910786Y-14390214D01*
X14882214Y-14390214D01*
X14853643Y-14375929D01*
X14839357Y-14361643D01*
X14825071Y-14333071D01*
X14810786Y-14275929D01*
X14810786Y-14204500D01*
X14825071Y-14147357D01*
X14839357Y-14118786D01*
X14853643Y-14104500D01*
X14882214Y-14090214D01*
X15110786Y-14361643D02*
X15125071Y-14375929D01*
X15110786Y-14390214D01*
X15096500Y-14375929D01*
X15110786Y-14361643D01*
X15110786Y-14390214D01*
X15310786Y-14090214D02*
X15339357Y-14090214D01*
X15367928Y-14104500D01*
X15382214Y-14118786D01*
X15396500Y-14147357D01*
X15410786Y-14204500D01*
X15410786Y-14275929D01*
X15396500Y-14333071D01*
X15382214Y-14361643D01*
X15367928Y-14375929D01*
X15339357Y-14390214D01*
X15310786Y-14390214D01*
X15282214Y-14375929D01*
X15267928Y-14361643D01*
X15253643Y-14333071D01*
X15239357Y-14275929D01*
X15239357Y-14204500D01*
X15253643Y-14147357D01*
X15267928Y-14118786D01*
X15282214Y-14104500D01*
X15310786Y-14090214D01*
X15510786Y-14090214D02*
X15696500Y-14090214D01*
X15596500Y-14204500D01*
X15639357Y-14204500D01*
X15667928Y-14218786D01*
X15682214Y-14233071D01*
X15696500Y-14261643D01*
X15696500Y-14333071D01*
X15682214Y-14361643D01*
X15667928Y-14375929D01*
X15639357Y-14390214D01*
X15553643Y-14390214D01*
X15525071Y-14375929D01*
X15510786Y-14361643D01*
X15982214Y-14390214D02*
X15810786Y-14390214D01*
X15896500Y-14390214D02*
X15896500Y-14090214D01*
X15867928Y-14133071D01*
X15839357Y-14161643D01*
X15810786Y-14175929D01*
X16253643Y-14090214D02*
X16110786Y-14090214D01*
X16096500Y-14233071D01*
X16110786Y-14218786D01*
X16139357Y-14204500D01*
X16210786Y-14204500D01*
X16239357Y-14218786D01*
X16253643Y-14233071D01*
X16267928Y-14261643D01*
X16267928Y-14333071D01*
X16253643Y-14361643D01*
X16239357Y-14375929D01*
X16210786Y-14390214D01*
X16139357Y-14390214D01*
X16110786Y-14375929D01*
X16096500Y-14361643D01*
X16382214Y-14090214D02*
X16382214Y-14147357D01*
X16496500Y-14090214D02*
X16496500Y-14147357D01*
X16939357Y-14504500D02*
X16925071Y-14490214D01*
X16896500Y-14447357D01*
X16882214Y-14418786D01*
X16867928Y-14375929D01*
X16853643Y-14304500D01*
X16853643Y-14247357D01*
X16867928Y-14175929D01*
X16882214Y-14133071D01*
X16896500Y-14104500D01*
X16925071Y-14061643D01*
X16939357Y-14047357D01*
X17039357Y-14118786D02*
X17053643Y-14104500D01*
X17082214Y-14090214D01*
X17153643Y-14090214D01*
X17182214Y-14104500D01*
X17196500Y-14118786D01*
X17210786Y-14147357D01*
X17210786Y-14175929D01*
X17196500Y-14218786D01*
X17025071Y-14390214D01*
X17210786Y-14390214D01*
X17567928Y-14390214D02*
X17567928Y-14090214D01*
X17696500Y-14390214D02*
X17696500Y-14233071D01*
X17682214Y-14204500D01*
X17653643Y-14190214D01*
X17610786Y-14190214D01*
X17582214Y-14204500D01*
X17567928Y-14218786D01*
X17882214Y-14390214D02*
X17853643Y-14375929D01*
X17839357Y-14361643D01*
X17825071Y-14333071D01*
X17825071Y-14247357D01*
X17839357Y-14218786D01*
X17853643Y-14204500D01*
X17882214Y-14190214D01*
X17925071Y-14190214D01*
X17953643Y-14204500D01*
X17967928Y-14218786D01*
X17982214Y-14247357D01*
X17982214Y-14333071D01*
X17967928Y-14361643D01*
X17953643Y-14375929D01*
X17925071Y-14390214D01*
X17882214Y-14390214D01*
X18153643Y-14390214D02*
X18125071Y-14375929D01*
X18110786Y-14347357D01*
X18110786Y-14090214D01*
X18382214Y-14375929D02*
X18353643Y-14390214D01*
X18296500Y-14390214D01*
X18267928Y-14375929D01*
X18253643Y-14347357D01*
X18253643Y-14233071D01*
X18267928Y-14204500D01*
X18296500Y-14190214D01*
X18353643Y-14190214D01*
X18382214Y-14204500D01*
X18396500Y-14233071D01*
X18396500Y-14261643D01*
X18253643Y-14290214D01*
X18510786Y-14375929D02*
X18539357Y-14390214D01*
X18596500Y-14390214D01*
X18625071Y-14375929D01*
X18639357Y-14347357D01*
X18639357Y-14333071D01*
X18625071Y-14304500D01*
X18596500Y-14290214D01*
X18553643Y-14290214D01*
X18525071Y-14275929D01*
X18510786Y-14247357D01*
X18510786Y-14233071D01*
X18525071Y-14204500D01*
X18553643Y-14190214D01*
X18596500Y-14190214D01*
X18625071Y-14204500D01*
X18739357Y-14504500D02*
X18753643Y-14490214D01*
X18782214Y-14447357D01*
X18796500Y-14418786D01*
X18810786Y-14375929D01*
X18825071Y-14304500D01*
X18825071Y-14247357D01*
X18810786Y-14175929D01*
X18796500Y-14133071D01*
X18782214Y-14104500D01*
X18753643Y-14061643D01*
X18739357Y-14047357D01*
X11668320Y-14682320D02*
X11668320Y-14618680D01*
X11604680Y-14618680D01*
X11604680Y-14682320D01*
X11668320Y-14682320D01*
X12025071Y-14486214D02*
X12053643Y-14486214D01*
X12082214Y-14500500D01*
X12096500Y-14514786D01*
X12110786Y-14543357D01*
X12125071Y-14600500D01*
X12125071Y-14671929D01*
X12110786Y-14729071D01*
X12096500Y-14757643D01*
X12082214Y-14771929D01*
X12053643Y-14786214D01*
X12025071Y-14786214D01*
X11996500Y-14771929D01*
X11982214Y-14757643D01*
X11967928Y-14729071D01*
X11953643Y-14671929D01*
X11953643Y-14600500D01*
X11967928Y-14543357D01*
X11982214Y-14514786D01*
X11996500Y-14500500D01*
X12025071Y-14486214D01*
X12253643Y-14757643D02*
X12267928Y-14771929D01*
X12253643Y-14786214D01*
X12239357Y-14771929D01*
X12253643Y-14757643D01*
X12253643Y-14786214D01*
X12410786Y-14786214D02*
X12467928Y-14786214D01*
X12496500Y-14771929D01*
X12510786Y-14757643D01*
X12539357Y-14714786D01*
X12553643Y-14657643D01*
X12553643Y-14543357D01*
X12539357Y-14514786D01*
X12525071Y-14500500D01*
X12496500Y-14486214D01*
X12439357Y-14486214D01*
X12410786Y-14500500D01*
X12396500Y-14514786D01*
X12382214Y-14543357D01*
X12382214Y-14614786D01*
X12396500Y-14643357D01*
X12410786Y-14657643D01*
X12439357Y-14671929D01*
X12496500Y-14671929D01*
X12525071Y-14657643D01*
X12539357Y-14643357D01*
X12553643Y-14614786D01*
X12739357Y-14486214D02*
X12767928Y-14486214D01*
X12796500Y-14500500D01*
X12810786Y-14514786D01*
X12825071Y-14543357D01*
X12839357Y-14600500D01*
X12839357Y-14671929D01*
X12825071Y-14729071D01*
X12810786Y-14757643D01*
X12796500Y-14771929D01*
X12767928Y-14786214D01*
X12739357Y-14786214D01*
X12710786Y-14771929D01*
X12696500Y-14757643D01*
X12682214Y-14729071D01*
X12667928Y-14671929D01*
X12667928Y-14600500D01*
X12682214Y-14543357D01*
X12696500Y-14514786D01*
X12710786Y-14500500D01*
X12739357Y-14486214D01*
X13025071Y-14486214D02*
X13053643Y-14486214D01*
X13082214Y-14500500D01*
X13096500Y-14514786D01*
X13110786Y-14543357D01*
X13125071Y-14600500D01*
X13125071Y-14671929D01*
X13110786Y-14729071D01*
X13096500Y-14757643D01*
X13082214Y-14771929D01*
X13053643Y-14786214D01*
X13025071Y-14786214D01*
X12996500Y-14771929D01*
X12982214Y-14757643D01*
X12967928Y-14729071D01*
X12953643Y-14671929D01*
X12953643Y-14600500D01*
X12967928Y-14543357D01*
X12982214Y-14514786D01*
X12996500Y-14500500D01*
X13025071Y-14486214D01*
X13253643Y-14786214D02*
X13253643Y-14586214D01*
X13253643Y-14614786D02*
X13267928Y-14600500D01*
X13296500Y-14586214D01*
X13339357Y-14586214D01*
X13367928Y-14600500D01*
X13382214Y-14629071D01*
X13382214Y-14786214D01*
X13382214Y-14629071D02*
X13396500Y-14600500D01*
X13425071Y-14586214D01*
X13467928Y-14586214D01*
X13496500Y-14600500D01*
X13510786Y-14629071D01*
X13510786Y-14786214D01*
X13653643Y-14786214D02*
X13653643Y-14586214D01*
X13653643Y-14614786D02*
X13667928Y-14600500D01*
X13696500Y-14586214D01*
X13739357Y-14586214D01*
X13767928Y-14600500D01*
X13782214Y-14629071D01*
X13782214Y-14786214D01*
X13782214Y-14629071D02*
X13796500Y-14600500D01*
X13825071Y-14586214D01*
X13867928Y-14586214D01*
X13896500Y-14600500D01*
X13910786Y-14629071D01*
X13910786Y-14786214D01*
X14496500Y-14471929D02*
X14239357Y-14857643D01*
X14882214Y-14486214D02*
X14910786Y-14486214D01*
X14939357Y-14500500D01*
X14953643Y-14514786D01*
X14967928Y-14543357D01*
X14982214Y-14600500D01*
X14982214Y-14671929D01*
X14967928Y-14729071D01*
X14953643Y-14757643D01*
X14939357Y-14771929D01*
X14910786Y-14786214D01*
X14882214Y-14786214D01*
X14853643Y-14771929D01*
X14839357Y-14757643D01*
X14825071Y-14729071D01*
X14810786Y-14671929D01*
X14810786Y-14600500D01*
X14825071Y-14543357D01*
X14839357Y-14514786D01*
X14853643Y-14500500D01*
X14882214Y-14486214D01*
X15110786Y-14757643D02*
X15125071Y-14771929D01*
X15110786Y-14786214D01*
X15096500Y-14771929D01*
X15110786Y-14757643D01*
X15110786Y-14786214D01*
X15310786Y-14486214D02*
X15339357Y-14486214D01*
X15367928Y-14500500D01*
X15382214Y-14514786D01*
X15396500Y-14543357D01*
X15410786Y-14600500D01*
X15410786Y-14671929D01*
X15396500Y-14729071D01*
X15382214Y-14757643D01*
X15367928Y-14771929D01*
X15339357Y-14786214D01*
X15310786Y-14786214D01*
X15282214Y-14771929D01*
X15267928Y-14757643D01*
X15253643Y-14729071D01*
X15239357Y-14671929D01*
X15239357Y-14600500D01*
X15253643Y-14543357D01*
X15267928Y-14514786D01*
X15282214Y-14500500D01*
X15310786Y-14486214D01*
X15510786Y-14486214D02*
X15696500Y-14486214D01*
X15596500Y-14600500D01*
X15639357Y-14600500D01*
X15667928Y-14614786D01*
X15682214Y-14629071D01*
X15696500Y-14657643D01*
X15696500Y-14729071D01*
X15682214Y-14757643D01*
X15667928Y-14771929D01*
X15639357Y-14786214D01*
X15553643Y-14786214D01*
X15525071Y-14771929D01*
X15510786Y-14757643D01*
X15967928Y-14486214D02*
X15825071Y-14486214D01*
X15810786Y-14629071D01*
X15825071Y-14614786D01*
X15853643Y-14600500D01*
X15925071Y-14600500D01*
X15953643Y-14614786D01*
X15967928Y-14629071D01*
X15982214Y-14657643D01*
X15982214Y-14729071D01*
X15967928Y-14757643D01*
X15953643Y-14771929D01*
X15925071Y-14786214D01*
X15853643Y-14786214D01*
X15825071Y-14771929D01*
X15810786Y-14757643D01*
X16239357Y-14586214D02*
X16239357Y-14786214D01*
X16167928Y-14471929D02*
X16096500Y-14686214D01*
X16282214Y-14686214D01*
X16382214Y-14486214D02*
X16382214Y-14543357D01*
X16496500Y-14486214D02*
X16496500Y-14543357D01*
X16939357Y-14900500D02*
X16925071Y-14886214D01*
X16896500Y-14843357D01*
X16882214Y-14814786D01*
X16867928Y-14771929D01*
X16853643Y-14700500D01*
X16853643Y-14643357D01*
X16867928Y-14571929D01*
X16882214Y-14529071D01*
X16896500Y-14500500D01*
X16925071Y-14457643D01*
X16939357Y-14443357D01*
X17039357Y-14514786D02*
X17053643Y-14500500D01*
X17082214Y-14486214D01*
X17153643Y-14486214D01*
X17182214Y-14500500D01*
X17196500Y-14514786D01*
X17210786Y-14543357D01*
X17210786Y-14571929D01*
X17196500Y-14614786D01*
X17025071Y-14786214D01*
X17210786Y-14786214D01*
X17567928Y-14786214D02*
X17567928Y-14486214D01*
X17696500Y-14786214D02*
X17696500Y-14629071D01*
X17682214Y-14600500D01*
X17653643Y-14586214D01*
X17610786Y-14586214D01*
X17582214Y-14600500D01*
X17567928Y-14614786D01*
X17882214Y-14786214D02*
X17853643Y-14771929D01*
X17839357Y-14757643D01*
X17825071Y-14729071D01*
X17825071Y-14643357D01*
X17839357Y-14614786D01*
X17853643Y-14600500D01*
X17882214Y-14586214D01*
X17925071Y-14586214D01*
X17953643Y-14600500D01*
X17967928Y-14614786D01*
X17982214Y-14643357D01*
X17982214Y-14729071D01*
X17967928Y-14757643D01*
X17953643Y-14771929D01*
X17925071Y-14786214D01*
X17882214Y-14786214D01*
X18153643Y-14786214D02*
X18125071Y-14771929D01*
X18110786Y-14743357D01*
X18110786Y-14486214D01*
X18382214Y-14771929D02*
X18353643Y-14786214D01*
X18296500Y-14786214D01*
X18267928Y-14771929D01*
X18253643Y-14743357D01*
X18253643Y-14629071D01*
X18267928Y-14600500D01*
X18296500Y-14586214D01*
X18353643Y-14586214D01*
X18382214Y-14600500D01*
X18396500Y-14629071D01*
X18396500Y-14657643D01*
X18253643Y-14686214D01*
X18510786Y-14771929D02*
X18539357Y-14786214D01*
X18596500Y-14786214D01*
X18625071Y-14771929D01*
X18639357Y-14743357D01*
X18639357Y-14729071D01*
X18625071Y-14700500D01*
X18596500Y-14686214D01*
X18553643Y-14686214D01*
X18525071Y-14671929D01*
X18510786Y-14643357D01*
X18510786Y-14629071D01*
X18525071Y-14600500D01*
X18553643Y-14586214D01*
X18596500Y-14586214D01*
X18625071Y-14600500D01*
X18739357Y-14900500D02*
X18753643Y-14886214D01*
X18782214Y-14843357D01*
X18796500Y-14814786D01*
X18810786Y-14771929D01*
X18825071Y-14700500D01*
X18825071Y-14643357D01*
X18810786Y-14571929D01*
X18796500Y-14529071D01*
X18782214Y-14500500D01*
X18753643Y-14457643D01*
X18739357Y-14443357D01*
X11631500Y-15096500D02*
X11681500Y-15046500D01*
X11631500Y-14996500D01*
X11581500Y-15046500D01*
X11631500Y-15096500D01*
X12125071Y-15182214D02*
X11953643Y-15182214D01*
X12039357Y-15182214D02*
X12039357Y-14882214D01*
X12010786Y-14925071D01*
X11982214Y-14953643D01*
X11953643Y-14967929D01*
X12253643Y-15153643D02*
X12267928Y-15167929D01*
X12253643Y-15182214D01*
X12239357Y-15167929D01*
X12253643Y-15153643D01*
X12253643Y-15182214D01*
X12453643Y-14882214D02*
X12482214Y-14882214D01*
X12510786Y-14896500D01*
X12525071Y-14910786D01*
X12539357Y-14939357D01*
X12553643Y-14996500D01*
X12553643Y-15067929D01*
X12539357Y-15125071D01*
X12525071Y-15153643D01*
X12510786Y-15167929D01*
X12482214Y-15182214D01*
X12453643Y-15182214D01*
X12425071Y-15167929D01*
X12410786Y-15153643D01*
X12396500Y-15125071D01*
X12382214Y-15067929D01*
X12382214Y-14996500D01*
X12396500Y-14939357D01*
X12410786Y-14910786D01*
X12425071Y-14896500D01*
X12453643Y-14882214D01*
X12739357Y-14882214D02*
X12767928Y-14882214D01*
X12796500Y-14896500D01*
X12810786Y-14910786D01*
X12825071Y-14939357D01*
X12839357Y-14996500D01*
X12839357Y-15067929D01*
X12825071Y-15125071D01*
X12810786Y-15153643D01*
X12796500Y-15167929D01*
X12767928Y-15182214D01*
X12739357Y-15182214D01*
X12710786Y-15167929D01*
X12696500Y-15153643D01*
X12682214Y-15125071D01*
X12667928Y-15067929D01*
X12667928Y-14996500D01*
X12682214Y-14939357D01*
X12696500Y-14910786D01*
X12710786Y-14896500D01*
X12739357Y-14882214D01*
X13025071Y-14882214D02*
X13053643Y-14882214D01*
X13082214Y-14896500D01*
X13096500Y-14910786D01*
X13110786Y-14939357D01*
X13125071Y-14996500D01*
X13125071Y-15067929D01*
X13110786Y-15125071D01*
X13096500Y-15153643D01*
X13082214Y-15167929D01*
X13053643Y-15182214D01*
X13025071Y-15182214D01*
X12996500Y-15167929D01*
X12982214Y-15153643D01*
X12967928Y-15125071D01*
X12953643Y-15067929D01*
X12953643Y-14996500D01*
X12967928Y-14939357D01*
X12982214Y-14910786D01*
X12996500Y-14896500D01*
X13025071Y-14882214D01*
X13253643Y-15182214D02*
X13253643Y-14982214D01*
X13253643Y-15010786D02*
X13267928Y-14996500D01*
X13296500Y-14982214D01*
X13339357Y-14982214D01*
X13367928Y-14996500D01*
X13382214Y-15025071D01*
X13382214Y-15182214D01*
X13382214Y-15025071D02*
X13396500Y-14996500D01*
X13425071Y-14982214D01*
X13467928Y-14982214D01*
X13496500Y-14996500D01*
X13510786Y-15025071D01*
X13510786Y-15182214D01*
X13653643Y-15182214D02*
X13653643Y-14982214D01*
X13653643Y-15010786D02*
X13667928Y-14996500D01*
X13696500Y-14982214D01*
X13739357Y-14982214D01*
X13767928Y-14996500D01*
X13782214Y-15025071D01*
X13782214Y-15182214D01*
X13782214Y-15025071D02*
X13796500Y-14996500D01*
X13825071Y-14982214D01*
X13867928Y-14982214D01*
X13896500Y-14996500D01*
X13910786Y-15025071D01*
X13910786Y-15182214D01*
X14496500Y-14867929D02*
X14239357Y-15253643D01*
X14882214Y-14882214D02*
X14910786Y-14882214D01*
X14939357Y-14896500D01*
X14953643Y-14910786D01*
X14967928Y-14939357D01*
X14982214Y-14996500D01*
X14982214Y-15067929D01*
X14967928Y-15125071D01*
X14953643Y-15153643D01*
X14939357Y-15167929D01*
X14910786Y-15182214D01*
X14882214Y-15182214D01*
X14853643Y-15167929D01*
X14839357Y-15153643D01*
X14825071Y-15125071D01*
X14810786Y-15067929D01*
X14810786Y-14996500D01*
X14825071Y-14939357D01*
X14839357Y-14910786D01*
X14853643Y-14896500D01*
X14882214Y-14882214D01*
X15110786Y-15153643D02*
X15125071Y-15167929D01*
X15110786Y-15182214D01*
X15096500Y-15167929D01*
X15110786Y-15153643D01*
X15110786Y-15182214D01*
X15310786Y-14882214D02*
X15339357Y-14882214D01*
X15367928Y-14896500D01*
X15382214Y-14910786D01*
X15396500Y-14939357D01*
X15410786Y-14996500D01*
X15410786Y-15067929D01*
X15396500Y-15125071D01*
X15382214Y-15153643D01*
X15367928Y-15167929D01*
X15339357Y-15182214D01*
X15310786Y-15182214D01*
X15282214Y-15167929D01*
X15267928Y-15153643D01*
X15253643Y-15125071D01*
X15239357Y-15067929D01*
X15239357Y-14996500D01*
X15253643Y-14939357D01*
X15267928Y-14910786D01*
X15282214Y-14896500D01*
X15310786Y-14882214D01*
X15510786Y-14882214D02*
X15696500Y-14882214D01*
X15596500Y-14996500D01*
X15639357Y-14996500D01*
X15667928Y-15010786D01*
X15682214Y-15025071D01*
X15696500Y-15053643D01*
X15696500Y-15125071D01*
X15682214Y-15153643D01*
X15667928Y-15167929D01*
X15639357Y-15182214D01*
X15553643Y-15182214D01*
X15525071Y-15167929D01*
X15510786Y-15153643D01*
X15839357Y-15182214D02*
X15896500Y-15182214D01*
X15925071Y-15167929D01*
X15939357Y-15153643D01*
X15967928Y-15110786D01*
X15982214Y-15053643D01*
X15982214Y-14939357D01*
X15967928Y-14910786D01*
X15953643Y-14896500D01*
X15925071Y-14882214D01*
X15867928Y-14882214D01*
X15839357Y-14896500D01*
X15825071Y-14910786D01*
X15810786Y-14939357D01*
X15810786Y-15010786D01*
X15825071Y-15039357D01*
X15839357Y-15053643D01*
X15867928Y-15067929D01*
X15925071Y-15067929D01*
X15953643Y-15053643D01*
X15967928Y-15039357D01*
X15982214Y-15010786D01*
X16239357Y-14982214D02*
X16239357Y-15182214D01*
X16167928Y-14867929D02*
X16096500Y-15082214D01*
X16282214Y-15082214D01*
X16382214Y-14882214D02*
X16382214Y-14939357D01*
X16496500Y-14882214D02*
X16496500Y-14939357D01*
X16939357Y-15296500D02*
X16925071Y-15282214D01*
X16896500Y-15239357D01*
X16882214Y-15210786D01*
X16867928Y-15167929D01*
X16853643Y-15096500D01*
X16853643Y-15039357D01*
X16867928Y-14967929D01*
X16882214Y-14925071D01*
X16896500Y-14896500D01*
X16925071Y-14853643D01*
X16939357Y-14839357D01*
X17210786Y-15182214D02*
X17039357Y-15182214D01*
X17125071Y-15182214D02*
X17125071Y-14882214D01*
X17096500Y-14925071D01*
X17067928Y-14953643D01*
X17039357Y-14967929D01*
X17396500Y-14882214D02*
X17425071Y-14882214D01*
X17453643Y-14896500D01*
X17467928Y-14910786D01*
X17482214Y-14939357D01*
X17496500Y-14996500D01*
X17496500Y-15067929D01*
X17482214Y-15125071D01*
X17467928Y-15153643D01*
X17453643Y-15167929D01*
X17425071Y-15182214D01*
X17396500Y-15182214D01*
X17367928Y-15167929D01*
X17353643Y-15153643D01*
X17339357Y-15125071D01*
X17325071Y-15067929D01*
X17325071Y-14996500D01*
X17339357Y-14939357D01*
X17353643Y-14910786D01*
X17367928Y-14896500D01*
X17396500Y-14882214D01*
X17639357Y-15182214D02*
X17696500Y-15182214D01*
X17725071Y-15167929D01*
X17739357Y-15153643D01*
X17767928Y-15110786D01*
X17782214Y-15053643D01*
X17782214Y-14939357D01*
X17767928Y-14910786D01*
X17753643Y-14896500D01*
X17725071Y-14882214D01*
X17667928Y-14882214D01*
X17639357Y-14896500D01*
X17625071Y-14910786D01*
X17610786Y-14939357D01*
X17610786Y-15010786D01*
X17625071Y-15039357D01*
X17639357Y-15053643D01*
X17667928Y-15067929D01*
X17725071Y-15067929D01*
X17753643Y-15053643D01*
X17767928Y-15039357D01*
X17782214Y-15010786D01*
X18139357Y-15182214D02*
X18139357Y-14882214D01*
X18267928Y-15182214D02*
X18267928Y-15025071D01*
X18253643Y-14996500D01*
X18225071Y-14982214D01*
X18182214Y-14982214D01*
X18153643Y-14996500D01*
X18139357Y-15010786D01*
X18453643Y-15182214D02*
X18425071Y-15167929D01*
X18410786Y-15153643D01*
X18396500Y-15125071D01*
X18396500Y-15039357D01*
X18410786Y-15010786D01*
X18425071Y-14996500D01*
X18453643Y-14982214D01*
X18496500Y-14982214D01*
X18525071Y-14996500D01*
X18539357Y-15010786D01*
X18553643Y-15039357D01*
X18553643Y-15125071D01*
X18539357Y-15153643D01*
X18525071Y-15167929D01*
X18496500Y-15182214D01*
X18453643Y-15182214D01*
X18725071Y-15182214D02*
X18696500Y-15167929D01*
X18682214Y-15139357D01*
X18682214Y-14882214D01*
X18953643Y-15167929D02*
X18925071Y-15182214D01*
X18867928Y-15182214D01*
X18839357Y-15167929D01*
X18825071Y-15139357D01*
X18825071Y-15025071D01*
X18839357Y-14996500D01*
X18867928Y-14982214D01*
X18925071Y-14982214D01*
X18953643Y-14996500D01*
X18967928Y-15025071D01*
X18967928Y-15053643D01*
X18825071Y-15082214D01*
X19082214Y-15167929D02*
X19110786Y-15182214D01*
X19167928Y-15182214D01*
X19196500Y-15167929D01*
X19210786Y-15139357D01*
X19210786Y-15125071D01*
X19196500Y-15096500D01*
X19167928Y-15082214D01*
X19125071Y-15082214D01*
X19096500Y-15067929D01*
X19082214Y-15039357D01*
X19082214Y-15025071D01*
X19096500Y-14996500D01*
X19125071Y-14982214D01*
X19167928Y-14982214D01*
X19196500Y-14996500D01*
X19310786Y-15296500D02*
X19325071Y-15282214D01*
X19353643Y-15239357D01*
X19367928Y-15210786D01*
X19382214Y-15167929D01*
X19396500Y-15096500D01*
X19396500Y-15039357D01*
X19382214Y-14967929D01*
X19367928Y-14925071D01*
X19353643Y-14896500D01*
X19325071Y-14853643D01*
X19310786Y-14839357D01*
X11562500Y-15383000D02*
X11681500Y-15502000D01*
X11681500Y-15383000D02*
X11562500Y-15502000D01*
X11681500Y-15442500D02*
G75*
G03*
X11681500Y-15442500I-59500J0D01*
G01*
X12125071Y-15578214D02*
X11953643Y-15578214D01*
X12039357Y-15578214D02*
X12039357Y-15278214D01*
X12010786Y-15321071D01*
X11982214Y-15349643D01*
X11953643Y-15363929D01*
X12253643Y-15549643D02*
X12267928Y-15563929D01*
X12253643Y-15578214D01*
X12239357Y-15563929D01*
X12253643Y-15549643D01*
X12253643Y-15578214D01*
X12553643Y-15578214D02*
X12382214Y-15578214D01*
X12467928Y-15578214D02*
X12467928Y-15278214D01*
X12439357Y-15321071D01*
X12410786Y-15349643D01*
X12382214Y-15363929D01*
X12696500Y-15578214D02*
X12753643Y-15578214D01*
X12782214Y-15563929D01*
X12796500Y-15549643D01*
X12825071Y-15506786D01*
X12839357Y-15449643D01*
X12839357Y-15335357D01*
X12825071Y-15306786D01*
X12810786Y-15292500D01*
X12782214Y-15278214D01*
X12725071Y-15278214D01*
X12696500Y-15292500D01*
X12682214Y-15306786D01*
X12667928Y-15335357D01*
X12667928Y-15406786D01*
X12682214Y-15435357D01*
X12696500Y-15449643D01*
X12725071Y-15463929D01*
X12782214Y-15463929D01*
X12810786Y-15449643D01*
X12825071Y-15435357D01*
X12839357Y-15406786D01*
X13025071Y-15278214D02*
X13053643Y-15278214D01*
X13082214Y-15292500D01*
X13096500Y-15306786D01*
X13110786Y-15335357D01*
X13125071Y-15392500D01*
X13125071Y-15463929D01*
X13110786Y-15521071D01*
X13096500Y-15549643D01*
X13082214Y-15563929D01*
X13053643Y-15578214D01*
X13025071Y-15578214D01*
X12996500Y-15563929D01*
X12982214Y-15549643D01*
X12967928Y-15521071D01*
X12953643Y-15463929D01*
X12953643Y-15392500D01*
X12967928Y-15335357D01*
X12982214Y-15306786D01*
X12996500Y-15292500D01*
X13025071Y-15278214D01*
X13253643Y-15578214D02*
X13253643Y-15378214D01*
X13253643Y-15406786D02*
X13267928Y-15392500D01*
X13296500Y-15378214D01*
X13339357Y-15378214D01*
X13367928Y-15392500D01*
X13382214Y-15421071D01*
X13382214Y-15578214D01*
X13382214Y-15421071D02*
X13396500Y-15392500D01*
X13425071Y-15378214D01*
X13467928Y-15378214D01*
X13496500Y-15392500D01*
X13510786Y-15421071D01*
X13510786Y-15578214D01*
X13653643Y-15578214D02*
X13653643Y-15378214D01*
X13653643Y-15406786D02*
X13667928Y-15392500D01*
X13696500Y-15378214D01*
X13739357Y-15378214D01*
X13767928Y-15392500D01*
X13782214Y-15421071D01*
X13782214Y-15578214D01*
X13782214Y-15421071D02*
X13796500Y-15392500D01*
X13825071Y-15378214D01*
X13867928Y-15378214D01*
X13896500Y-15392500D01*
X13910786Y-15421071D01*
X13910786Y-15578214D01*
X14496500Y-15263929D02*
X14239357Y-15649643D01*
X14882214Y-15278214D02*
X14910786Y-15278214D01*
X14939357Y-15292500D01*
X14953643Y-15306786D01*
X14967928Y-15335357D01*
X14982214Y-15392500D01*
X14982214Y-15463929D01*
X14967928Y-15521071D01*
X14953643Y-15549643D01*
X14939357Y-15563929D01*
X14910786Y-15578214D01*
X14882214Y-15578214D01*
X14853643Y-15563929D01*
X14839357Y-15549643D01*
X14825071Y-15521071D01*
X14810786Y-15463929D01*
X14810786Y-15392500D01*
X14825071Y-15335357D01*
X14839357Y-15306786D01*
X14853643Y-15292500D01*
X14882214Y-15278214D01*
X15110786Y-15549643D02*
X15125071Y-15563929D01*
X15110786Y-15578214D01*
X15096500Y-15563929D01*
X15110786Y-15549643D01*
X15110786Y-15578214D01*
X15310786Y-15278214D02*
X15339357Y-15278214D01*
X15367928Y-15292500D01*
X15382214Y-15306786D01*
X15396500Y-15335357D01*
X15410786Y-15392500D01*
X15410786Y-15463929D01*
X15396500Y-15521071D01*
X15382214Y-15549643D01*
X15367928Y-15563929D01*
X15339357Y-15578214D01*
X15310786Y-15578214D01*
X15282214Y-15563929D01*
X15267928Y-15549643D01*
X15253643Y-15521071D01*
X15239357Y-15463929D01*
X15239357Y-15392500D01*
X15253643Y-15335357D01*
X15267928Y-15306786D01*
X15282214Y-15292500D01*
X15310786Y-15278214D01*
X15667928Y-15378214D02*
X15667928Y-15578214D01*
X15596500Y-15263929D02*
X15525071Y-15478214D01*
X15710786Y-15478214D01*
X15953643Y-15278214D02*
X15896500Y-15278214D01*
X15867928Y-15292500D01*
X15853643Y-15306786D01*
X15825071Y-15349643D01*
X15810786Y-15406786D01*
X15810786Y-15521071D01*
X15825071Y-15549643D01*
X15839357Y-15563929D01*
X15867928Y-15578214D01*
X15925071Y-15578214D01*
X15953643Y-15563929D01*
X15967928Y-15549643D01*
X15982214Y-15521071D01*
X15982214Y-15449643D01*
X15967928Y-15421071D01*
X15953643Y-15406786D01*
X15925071Y-15392500D01*
X15867928Y-15392500D01*
X15839357Y-15406786D01*
X15825071Y-15421071D01*
X15810786Y-15449643D01*
X16125071Y-15578214D02*
X16182214Y-15578214D01*
X16210786Y-15563929D01*
X16225071Y-15549643D01*
X16253643Y-15506786D01*
X16267928Y-15449643D01*
X16267928Y-15335357D01*
X16253643Y-15306786D01*
X16239357Y-15292500D01*
X16210786Y-15278214D01*
X16153643Y-15278214D01*
X16125071Y-15292500D01*
X16110786Y-15306786D01*
X16096500Y-15335357D01*
X16096500Y-15406786D01*
X16110786Y-15435357D01*
X16125071Y-15449643D01*
X16153643Y-15463929D01*
X16210786Y-15463929D01*
X16239357Y-15449643D01*
X16253643Y-15435357D01*
X16267928Y-15406786D01*
X16382214Y-15278214D02*
X16382214Y-15335357D01*
X16496500Y-15278214D02*
X16496500Y-15335357D01*
X16939357Y-15692500D02*
X16925071Y-15678214D01*
X16896500Y-15635357D01*
X16882214Y-15606786D01*
X16867928Y-15563929D01*
X16853643Y-15492500D01*
X16853643Y-15435357D01*
X16867928Y-15363929D01*
X16882214Y-15321071D01*
X16896500Y-15292500D01*
X16925071Y-15249643D01*
X16939357Y-15235357D01*
X17182214Y-15378214D02*
X17182214Y-15578214D01*
X17110786Y-15263929D02*
X17039357Y-15478214D01*
X17225071Y-15478214D01*
X17567928Y-15578214D02*
X17567928Y-15278214D01*
X17696500Y-15578214D02*
X17696500Y-15421071D01*
X17682214Y-15392500D01*
X17653643Y-15378214D01*
X17610786Y-15378214D01*
X17582214Y-15392500D01*
X17567928Y-15406786D01*
X17882214Y-15578214D02*
X17853643Y-15563929D01*
X17839357Y-15549643D01*
X17825071Y-15521071D01*
X17825071Y-15435357D01*
X17839357Y-15406786D01*
X17853643Y-15392500D01*
X17882214Y-15378214D01*
X17925071Y-15378214D01*
X17953643Y-15392500D01*
X17967928Y-15406786D01*
X17982214Y-15435357D01*
X17982214Y-15521071D01*
X17967928Y-15549643D01*
X17953643Y-15563929D01*
X17925071Y-15578214D01*
X17882214Y-15578214D01*
X18153643Y-15578214D02*
X18125071Y-15563929D01*
X18110786Y-15535357D01*
X18110786Y-15278214D01*
X18382214Y-15563929D02*
X18353643Y-15578214D01*
X18296500Y-15578214D01*
X18267928Y-15563929D01*
X18253643Y-15535357D01*
X18253643Y-15421071D01*
X18267928Y-15392500D01*
X18296500Y-15378214D01*
X18353643Y-15378214D01*
X18382214Y-15392500D01*
X18396500Y-15421071D01*
X18396500Y-15449643D01*
X18253643Y-15478214D01*
X18510786Y-15563929D02*
X18539357Y-15578214D01*
X18596500Y-15578214D01*
X18625071Y-15563929D01*
X18639357Y-15535357D01*
X18639357Y-15521071D01*
X18625071Y-15492500D01*
X18596500Y-15478214D01*
X18553643Y-15478214D01*
X18525071Y-15463929D01*
X18510786Y-15435357D01*
X18510786Y-15421071D01*
X18525071Y-15392500D01*
X18553643Y-15378214D01*
X18596500Y-15378214D01*
X18625071Y-15392500D01*
X18739357Y-15692500D02*
X18753643Y-15678214D01*
X18782214Y-15635357D01*
X18796500Y-15606786D01*
X18810786Y-15563929D01*
X18825071Y-15492500D01*
X18825071Y-15435357D01*
X18810786Y-15363929D01*
X18796500Y-15321071D01*
X18782214Y-15292500D01*
X18753643Y-15249643D01*
X18739357Y-15235357D01*
M02*
