%FSLAX45Y45*%
G04 Gerber Fmt 4.5, Leading zero omitted, Abs format (unit mm)*
G04 Created by KiCad (PCBNEW (5.1.12)-1) date 2021-11-24 17:56:23*
%MOMM*%
%LPD*%
G01*
G04 APERTURE LIST*
%TA.AperFunction,Profile*%
%ADD10C,0.050000*%
%TD*%
%ADD11C,0.200000*%
%ADD12C,0.300000*%
G04 APERTURE END LIST*
D10*
X11684000Y-12500000D02*
X11684000Y-6500000D01*
X18684000Y-12500000D02*
X11684000Y-12500000D01*
X18684000Y-6500000D02*
X18684000Y-12500000D01*
X11684000Y-6500000D02*
X18684000Y-6500000D01*
D11*
D12*
X11967928Y-12968214D02*
X11967928Y-12668214D01*
X12039357Y-12668214D01*
X12082214Y-12682500D01*
X12110786Y-12711071D01*
X12125071Y-12739643D01*
X12139357Y-12796786D01*
X12139357Y-12839643D01*
X12125071Y-12896786D01*
X12110786Y-12925357D01*
X12082214Y-12953929D01*
X12039357Y-12968214D01*
X11967928Y-12968214D01*
X12267928Y-12968214D02*
X12267928Y-12768214D01*
X12267928Y-12825357D02*
X12282214Y-12796786D01*
X12296500Y-12782500D01*
X12325071Y-12768214D01*
X12353643Y-12768214D01*
X12453643Y-12968214D02*
X12453643Y-12768214D01*
X12453643Y-12668214D02*
X12439357Y-12682500D01*
X12453643Y-12696786D01*
X12467928Y-12682500D01*
X12453643Y-12668214D01*
X12453643Y-12696786D01*
X12639357Y-12968214D02*
X12610786Y-12953929D01*
X12596500Y-12925357D01*
X12596500Y-12668214D01*
X12796500Y-12968214D02*
X12767928Y-12953929D01*
X12753643Y-12925357D01*
X12753643Y-12668214D01*
X13139357Y-12968214D02*
X13139357Y-12668214D01*
X13239357Y-12882500D01*
X13339357Y-12668214D01*
X13339357Y-12968214D01*
X13610786Y-12968214D02*
X13610786Y-12811071D01*
X13596500Y-12782500D01*
X13567928Y-12768214D01*
X13510786Y-12768214D01*
X13482214Y-12782500D01*
X13610786Y-12953929D02*
X13582214Y-12968214D01*
X13510786Y-12968214D01*
X13482214Y-12953929D01*
X13467928Y-12925357D01*
X13467928Y-12896786D01*
X13482214Y-12868214D01*
X13510786Y-12853929D01*
X13582214Y-12853929D01*
X13610786Y-12839643D01*
X13753643Y-12768214D02*
X13753643Y-13068214D01*
X13753643Y-12782500D02*
X13782214Y-12768214D01*
X13839357Y-12768214D01*
X13867928Y-12782500D01*
X13882214Y-12796786D01*
X13896500Y-12825357D01*
X13896500Y-12911071D01*
X13882214Y-12939643D01*
X13867928Y-12953929D01*
X13839357Y-12968214D01*
X13782214Y-12968214D01*
X13753643Y-12953929D01*
X14025071Y-12939643D02*
X14039357Y-12953929D01*
X14025071Y-12968214D01*
X14010786Y-12953929D01*
X14025071Y-12939643D01*
X14025071Y-12968214D01*
X14025071Y-12782500D02*
X14039357Y-12796786D01*
X14025071Y-12811071D01*
X14010786Y-12796786D01*
X14025071Y-12782500D01*
X14025071Y-12811071D01*
M02*
