M48
; DRILL file {KiCad (5.1.12)-1} date 11/24/21 17:56:08
; FORMAT={-:-/ absolute / metric / decimal}
; #@! TF.CreationDate,2021-11-24T17:56:08+01:00
; #@! TF.GenerationSoftware,Kicad,Pcbnew,(5.1.12)-1
; #@! TF.FileFunction,Plated,1,2,PTH
FMAT,2
METRIC
T1C0.500
T2C0.700
T3C0.800
T4C0.900
T5C1.000
T6C1.190
%
G90
G05
T1
X125.73Y-91.035
X134.366Y-115.038
X135.89Y-94.845
X138.43Y-70.08
X143.51Y-80.875
X146.05Y-70.08
X149.86Y-91.035
X150.495Y-98.02
X153.67Y-70.08
X158.75Y-91.035
X161.29Y-70.08
X168.275Y-103.735
X168.275Y-113.26
X180.34Y-112.752
T2
X157.48Y-98.02
X157.48Y-100.56
X157.48Y-103.1
X157.48Y-105.64
X157.48Y-108.18
X157.48Y-110.72
X157.48Y-113.26
X157.48Y-115.8
X157.48Y-118.34
X165.1Y-98.02
X165.1Y-100.56
X165.1Y-103.1
X165.1Y-105.64
X165.1Y-108.18
X165.1Y-110.72
X165.1Y-113.26
X165.1Y-115.8
X165.1Y-118.34
X175.26Y-75.184
X175.26Y-82.804
X177.8Y-75.184
X177.8Y-82.804
T3
X177.88Y-85.32
X182.88Y-85.32
T4
X166.37Y-94.21
X168.91Y-94.21
T5
X121.92Y-72.644
X121.92Y-87.884
X121.92Y-94.21
X121.92Y-101.83
X124.46Y-72.644
X124.46Y-87.884
X124.46Y-94.21
X124.46Y-101.83
X127.0Y-72.644
X127.0Y-87.884
X127.0Y-94.21
X127.0Y-101.83
X129.54Y-72.644
X129.54Y-87.884
X129.54Y-94.21
X132.08Y-66.9
X132.08Y-72.644
X132.08Y-87.884
X132.08Y-94.21
X132.08Y-106.91
X132.08Y-122.15
X134.62Y-66.9
X134.62Y-72.644
X134.62Y-87.884
X134.62Y-106.91
X134.62Y-122.15
X137.16Y-66.9
X137.16Y-72.644
X137.16Y-87.884
X137.16Y-106.91
X137.16Y-122.15
X139.7Y-66.9
X139.7Y-72.644
X139.7Y-87.884
X139.7Y-106.91
X139.7Y-122.15
X142.24Y-66.9
X142.24Y-72.644
X142.24Y-87.884
X142.24Y-106.91
X142.24Y-122.15
X144.78Y-66.9
X144.78Y-72.644
X144.78Y-87.884
X144.78Y-106.91
X144.78Y-122.15
X147.32Y-66.9
X147.32Y-72.644
X147.32Y-87.884
X147.32Y-94.21
X147.32Y-106.91
X147.32Y-122.15
X149.86Y-66.9
X149.86Y-72.644
X149.86Y-87.884
X149.86Y-94.21
X149.86Y-101.83
X149.86Y-106.91
X149.86Y-122.15
X152.4Y-66.9
X152.4Y-72.644
X152.4Y-87.884
X152.4Y-94.21
X152.4Y-101.83
X152.4Y-106.91
X152.4Y-122.15
X154.94Y-66.9
X154.94Y-72.644
X154.94Y-87.884
X154.94Y-94.21
X157.48Y-66.9
X157.48Y-72.644
X157.48Y-87.884
X157.48Y-94.21
X160.02Y-66.9
X160.02Y-72.644
X160.02Y-87.884
X160.02Y-94.21
X162.56Y-66.9
X162.56Y-72.644
X162.56Y-87.884
X162.56Y-94.21
X165.1Y-72.644
X165.1Y-87.884
X167.64Y-72.644
X167.64Y-87.884
X170.18Y-72.644
X170.18Y-87.884
X172.72Y-103.124
X172.72Y-105.664
X172.72Y-108.204
X172.72Y-110.744
X172.72Y-113.284
X172.72Y-115.824
X172.72Y-118.364
X180.34Y-92.964
X180.34Y-95.504
X180.34Y-98.044
X180.34Y-100.584
X180.34Y-103.124
X180.34Y-105.664
X180.34Y-108.204
X182.88Y-92.964
X182.88Y-95.504
X182.88Y-98.044
X182.88Y-100.584
X182.88Y-103.124
X182.88Y-105.664
X182.88Y-108.204
T6
X135.001Y-101.195
X137.541Y-101.195
X140.081Y-101.195
X142.621Y-101.195
T0
M30
