G04 #@! TF.GenerationSoftware,KiCad,Pcbnew,(6.0.7)*
G04 #@! TF.CreationDate,2022-09-17T20:35:01+02:00*
G04 #@! TF.ProjectId,SLAU335,534c4155-3333-4352-9e6b-696361645f70,rev?*
G04 #@! TF.SameCoordinates,Original*
G04 #@! TF.FileFunction,Copper,L2,Bot*
G04 #@! TF.FilePolarity,Positive*
%FSLAX46Y46*%
G04 Gerber Fmt 4.6, Leading zero omitted, Abs format (unit mm)*
G04 Created by KiCad (PCBNEW (6.0.7)) date 2022-09-17 20:35:01*
%MOMM*%
%LPD*%
G01*
G04 APERTURE LIST*
G04 Aperture macros list*
%AMRoundRect*
0 Rectangle with rounded corners*
0 $1 Rounding radius*
0 $2 $3 $4 $5 $6 $7 $8 $9 X,Y pos of 4 corners*
0 Add a 4 corners polygon primitive as box body*
4,1,4,$2,$3,$4,$5,$6,$7,$8,$9,$2,$3,0*
0 Add four circle primitives for the rounded corners*
1,1,$1+$1,$2,$3*
1,1,$1+$1,$4,$5*
1,1,$1+$1,$6,$7*
1,1,$1+$1,$8,$9*
0 Add four rect primitives between the rounded corners*
20,1,$1+$1,$2,$3,$4,$5,0*
20,1,$1+$1,$4,$5,$6,$7,0*
20,1,$1+$1,$6,$7,$8,$9,0*
20,1,$1+$1,$8,$9,$2,$3,0*%
G04 Aperture macros list end*
G04 #@! TA.AperFunction,ComponentPad*
%ADD10RoundRect,0.250000X-0.600000X-0.600000X0.600000X-0.600000X0.600000X0.600000X-0.600000X0.600000X0*%
G04 #@! TD*
G04 #@! TA.AperFunction,ComponentPad*
%ADD11C,1.700000*%
G04 #@! TD*
G04 #@! TA.AperFunction,ComponentPad*
%ADD12R,1.700000X1.700000*%
G04 #@! TD*
G04 #@! TA.AperFunction,ComponentPad*
%ADD13O,1.700000X1.700000*%
G04 #@! TD*
G04 #@! TA.AperFunction,ComponentPad*
%ADD14C,1.450000*%
G04 #@! TD*
G04 #@! TA.AperFunction,ComponentPad*
%ADD15O,1.900000X1.200000*%
G04 #@! TD*
G04 #@! TA.AperFunction,ComponentPad*
%ADD16R,1.350000X1.350000*%
G04 #@! TD*
G04 #@! TA.AperFunction,ComponentPad*
%ADD17O,1.350000X1.350000*%
G04 #@! TD*
G04 #@! TA.AperFunction,ViaPad*
%ADD18C,0.600000*%
G04 #@! TD*
G04 #@! TA.AperFunction,ViaPad*
%ADD19C,0.800000*%
G04 #@! TD*
G04 #@! TA.AperFunction,ViaPad*
%ADD20C,1.000000*%
G04 #@! TD*
G04 #@! TA.AperFunction,Conductor*
%ADD21C,0.254000*%
G04 #@! TD*
G04 #@! TA.AperFunction,Conductor*
%ADD22C,1.000000*%
G04 #@! TD*
G04 #@! TA.AperFunction,Conductor*
%ADD23C,0.508000*%
G04 #@! TD*
G04 APERTURE END LIST*
D10*
X112445000Y-95950000D03*
D11*
X114985000Y-95950000D03*
X112445000Y-98490000D03*
X114985000Y-98490000D03*
X112445000Y-101030000D03*
X114985000Y-101030000D03*
X112445000Y-103570000D03*
X114985000Y-103570000D03*
X112445000Y-106110000D03*
X114985000Y-106110000D03*
X112445000Y-108650000D03*
X114985000Y-108650000D03*
X112445000Y-111190000D03*
X114985000Y-111190000D03*
D12*
X128320000Y-121100000D03*
D13*
X130860000Y-121100000D03*
X133400000Y-121100000D03*
X135940000Y-121100000D03*
X138480000Y-121100000D03*
X141020000Y-121100000D03*
X143560000Y-121100000D03*
X146100000Y-121100000D03*
D12*
X148640000Y-85540000D03*
D13*
X146100000Y-85540000D03*
X143560000Y-85540000D03*
X141020000Y-85540000D03*
X138480000Y-85540000D03*
X135940000Y-85540000D03*
X133400000Y-85540000D03*
X130860000Y-85540000D03*
D12*
X121970000Y-96203000D03*
D13*
X121970000Y-98743000D03*
X121970000Y-101283000D03*
X121970000Y-103823000D03*
X121970000Y-106363000D03*
X121970000Y-108903000D03*
X121970000Y-111443000D03*
D12*
X165600000Y-89800000D03*
D13*
X163060000Y-89800000D03*
D12*
X151180000Y-121100000D03*
D13*
X153720000Y-121100000D03*
X156260000Y-121100000D03*
X158800000Y-121100000D03*
D12*
X155000000Y-93400000D03*
D13*
X157540000Y-93400000D03*
X160080000Y-93400000D03*
D12*
X155000000Y-97000000D03*
D13*
X157540000Y-97000000D03*
X160080000Y-97000000D03*
D12*
X155000000Y-112600000D03*
D13*
X157540000Y-112600000D03*
X160080000Y-112600000D03*
D12*
X155000000Y-109000000D03*
D13*
X157540000Y-109000000D03*
X160080000Y-109000000D03*
D14*
X173846000Y-100489000D03*
D15*
X176546000Y-99339000D03*
X176546000Y-106539000D03*
D14*
X173846000Y-105389000D03*
D12*
X112300000Y-87180000D03*
D13*
X114840000Y-87180000D03*
X117380000Y-87180000D03*
D16*
X165350000Y-101050000D03*
D17*
X165350000Y-103050000D03*
X165350000Y-105050000D03*
X169850000Y-101050000D03*
X169850000Y-103050000D03*
X169850000Y-105050000D03*
D12*
X128969200Y-95827000D03*
D13*
X131509200Y-95827000D03*
X128969200Y-98367000D03*
X131509200Y-98367000D03*
X128969200Y-100907000D03*
X131509200Y-100907000D03*
X128969200Y-103447000D03*
X131509200Y-103447000D03*
X128969200Y-105987000D03*
X131509200Y-105987000D03*
X128969200Y-108527000D03*
X131509200Y-108527000D03*
D18*
X140131000Y-89985000D03*
X115010400Y-91585200D03*
X124713200Y-98748000D03*
X118414000Y-104437600D03*
X123646400Y-91382000D03*
X136448000Y-115131000D03*
D19*
X134938000Y-93400000D03*
D20*
X153050000Y-105900000D03*
D18*
X133409129Y-98738871D03*
X141401000Y-97986000D03*
X139877000Y-94938000D03*
D21*
X130237750Y-102178450D02*
X130237750Y-107255550D01*
X131509200Y-100907000D02*
X130237750Y-102178450D01*
X130237750Y-107255550D02*
X131509200Y-108527000D01*
X131509200Y-103447000D02*
X131509200Y-105987000D01*
D22*
X118239414Y-93400000D02*
X114840000Y-90000586D01*
X153050000Y-105900000D02*
X153050000Y-95350000D01*
D23*
X140629400Y-110949600D02*
X136448000Y-115131000D01*
D22*
X134938000Y-93400000D02*
X118239414Y-93400000D01*
X153050000Y-105900000D02*
X153050000Y-110949600D01*
X155000000Y-93400000D02*
X134938000Y-93400000D01*
X153050000Y-95350000D02*
X155000000Y-93400000D01*
X114840000Y-90000586D02*
X114840000Y-87180000D01*
D23*
X153050000Y-110949600D02*
X140629400Y-110949600D01*
D21*
X112445000Y-97855000D02*
X112987000Y-97313000D01*
X132993600Y-98323342D02*
X133409129Y-98738871D01*
X116382000Y-97986000D02*
X116382000Y-99103600D01*
X132993600Y-97198600D02*
X132993600Y-97325600D01*
X119997000Y-99310000D02*
X121970000Y-101283000D01*
X112987000Y-97313000D02*
X115709000Y-97313000D01*
X116382000Y-99103600D02*
X116588400Y-99310000D01*
X127609099Y-94650000D02*
X126669000Y-95590099D01*
X116588400Y-99310000D02*
X119997000Y-99310000D01*
X115709000Y-97313000D02*
X116382000Y-97986000D01*
X132993600Y-95192000D02*
X132451600Y-94650000D01*
X126669000Y-100907000D02*
X126293000Y-101283000D01*
X112445000Y-98490000D02*
X112445000Y-97855000D01*
X132451600Y-94650000D02*
X127609099Y-94650000D01*
X126293000Y-101283000D02*
X121970000Y-101283000D01*
X132993600Y-96944600D02*
X132993600Y-97198600D01*
X132993600Y-97325600D02*
X132993600Y-98323342D01*
X126669000Y-95590099D02*
X126669000Y-100907000D01*
X132993600Y-96766800D02*
X132993600Y-96944600D01*
X132993600Y-96766800D02*
X132993600Y-95192000D01*
X116890000Y-100272000D02*
X119499148Y-100272000D01*
X114985000Y-103570000D02*
X116483600Y-102071400D01*
X120651700Y-103271700D02*
X120651700Y-105044700D01*
X119499148Y-100272000D02*
X119992000Y-100764852D01*
X116483600Y-100678400D02*
X116890000Y-100272000D01*
X119992000Y-100764852D02*
X119992000Y-102612000D01*
X116483600Y-102071400D02*
X116483600Y-100678400D01*
X120651700Y-105044700D02*
X121970000Y-106363000D01*
X119992000Y-102612000D02*
X120651700Y-103271700D01*
X120445550Y-107378550D02*
X121970000Y-108903000D01*
X113081450Y-107378550D02*
X120445550Y-107378550D01*
X112445000Y-108650000D02*
X112445000Y-108015000D01*
X112445000Y-108015000D02*
X113081450Y-107378550D01*
X128969200Y-98367000D02*
X127792200Y-99544000D01*
X127792200Y-104810000D02*
X128969200Y-105987000D01*
X127792200Y-99544000D02*
X127792200Y-104810000D01*
X127338200Y-97458000D02*
X127338200Y-101779400D01*
X110633000Y-97127000D02*
X110633000Y-98977530D01*
X128969200Y-95827000D02*
X127338200Y-97458000D01*
X112445000Y-95950000D02*
X111810000Y-95950000D01*
X127338200Y-106896000D02*
X128969200Y-108527000D01*
X120446000Y-100576800D02*
X120446000Y-102304000D01*
X111810000Y-95950000D02*
X110633000Y-97127000D01*
X120451000Y-102304000D02*
X121970000Y-103823000D01*
X119633200Y-99764000D02*
X120446000Y-100576800D01*
X124013600Y-101779400D02*
X127338200Y-101779400D01*
X110633000Y-98977530D02*
X111419470Y-99764000D01*
X121970000Y-103823000D02*
X124013600Y-101779400D01*
X111419470Y-99764000D02*
X119633200Y-99764000D01*
X120446000Y-102304000D02*
X120451000Y-102304000D01*
X127338200Y-101779400D02*
X127338200Y-106896000D01*
X139877000Y-94938000D02*
X141401000Y-96462000D01*
X141401000Y-96462000D02*
X141401000Y-97986000D01*
G04 #@! TA.AperFunction,Conductor*
G36*
X177433621Y-83528502D02*
G01*
X177480114Y-83582158D01*
X177491500Y-83634500D01*
X177491500Y-98197762D01*
X177471498Y-98265883D01*
X177417842Y-98312376D01*
X177347568Y-98322480D01*
X177318401Y-98314628D01*
X177217685Y-98274038D01*
X177206230Y-98270645D01*
X177009072Y-98232143D01*
X177000209Y-98231066D01*
X176997500Y-98231000D01*
X176818115Y-98231000D01*
X176802876Y-98235475D01*
X176801671Y-98236865D01*
X176800000Y-98244548D01*
X176800000Y-100428885D01*
X176804475Y-100444124D01*
X176805865Y-100445329D01*
X176813548Y-100447000D01*
X176945832Y-100447000D01*
X176951808Y-100446715D01*
X177100494Y-100432529D01*
X177112228Y-100430270D01*
X177303598Y-100374129D01*
X177318708Y-100368085D01*
X177389385Y-100361359D01*
X177452479Y-100393911D01*
X177487958Y-100455407D01*
X177491500Y-100485074D01*
X177491500Y-105397762D01*
X177471498Y-105465883D01*
X177417842Y-105512376D01*
X177347568Y-105522480D01*
X177318401Y-105514628D01*
X177217685Y-105474038D01*
X177206230Y-105470645D01*
X177009072Y-105432143D01*
X177000209Y-105431066D01*
X176997500Y-105431000D01*
X176818115Y-105431000D01*
X176802876Y-105435475D01*
X176801671Y-105436865D01*
X176800000Y-105444548D01*
X176800000Y-107628885D01*
X176804475Y-107644124D01*
X176805865Y-107645329D01*
X176813548Y-107647000D01*
X176945832Y-107647000D01*
X176951808Y-107646715D01*
X177100494Y-107632529D01*
X177112228Y-107630270D01*
X177303598Y-107574129D01*
X177318708Y-107568085D01*
X177389385Y-107561359D01*
X177452479Y-107593911D01*
X177487958Y-107655407D01*
X177491500Y-107685074D01*
X177491500Y-122365500D01*
X177471498Y-122433621D01*
X177417842Y-122480114D01*
X177365500Y-122491500D01*
X159582343Y-122491500D01*
X159514222Y-122471498D01*
X159467729Y-122417842D01*
X159457625Y-122347568D01*
X159487119Y-122282988D01*
X159509175Y-122262921D01*
X159675656Y-122144172D01*
X159675659Y-122144170D01*
X159679860Y-122141173D01*
X159838096Y-121983489D01*
X159968453Y-121802077D01*
X159989320Y-121759857D01*
X160065136Y-121606453D01*
X160065137Y-121606451D01*
X160067430Y-121601811D01*
X160132370Y-121388069D01*
X160161529Y-121166590D01*
X160163156Y-121100000D01*
X160144852Y-120877361D01*
X160090431Y-120660702D01*
X160001354Y-120455840D01*
X159880014Y-120268277D01*
X159729670Y-120103051D01*
X159725619Y-120099852D01*
X159725615Y-120099848D01*
X159558414Y-119967800D01*
X159558410Y-119967798D01*
X159554359Y-119964598D01*
X159358789Y-119856638D01*
X159353920Y-119854914D01*
X159353916Y-119854912D01*
X159153087Y-119783795D01*
X159153083Y-119783794D01*
X159148212Y-119782069D01*
X159143119Y-119781162D01*
X159143116Y-119781161D01*
X158933373Y-119743800D01*
X158933367Y-119743799D01*
X158928284Y-119742894D01*
X158854452Y-119741992D01*
X158710081Y-119740228D01*
X158710079Y-119740228D01*
X158704911Y-119740165D01*
X158484091Y-119773955D01*
X158271756Y-119843357D01*
X158073607Y-119946507D01*
X158069474Y-119949610D01*
X158069471Y-119949612D01*
X157899100Y-120077530D01*
X157894965Y-120080635D01*
X157891393Y-120084373D01*
X157783729Y-120197037D01*
X157740629Y-120242138D01*
X157633201Y-120399621D01*
X157578293Y-120444621D01*
X157507768Y-120452792D01*
X157444021Y-120421538D01*
X157423324Y-120397054D01*
X157342822Y-120272617D01*
X157342820Y-120272614D01*
X157340014Y-120268277D01*
X157189670Y-120103051D01*
X157185619Y-120099852D01*
X157185615Y-120099848D01*
X157018414Y-119967800D01*
X157018410Y-119967798D01*
X157014359Y-119964598D01*
X156818789Y-119856638D01*
X156813920Y-119854914D01*
X156813916Y-119854912D01*
X156613087Y-119783795D01*
X156613083Y-119783794D01*
X156608212Y-119782069D01*
X156603119Y-119781162D01*
X156603116Y-119781161D01*
X156393373Y-119743800D01*
X156393367Y-119743799D01*
X156388284Y-119742894D01*
X156314452Y-119741992D01*
X156170081Y-119740228D01*
X156170079Y-119740228D01*
X156164911Y-119740165D01*
X155944091Y-119773955D01*
X155731756Y-119843357D01*
X155533607Y-119946507D01*
X155529474Y-119949610D01*
X155529471Y-119949612D01*
X155359100Y-120077530D01*
X155354965Y-120080635D01*
X155351393Y-120084373D01*
X155243729Y-120197037D01*
X155200629Y-120242138D01*
X155093201Y-120399621D01*
X155038293Y-120444621D01*
X154967768Y-120452792D01*
X154904021Y-120421538D01*
X154883324Y-120397054D01*
X154802822Y-120272617D01*
X154802820Y-120272614D01*
X154800014Y-120268277D01*
X154649670Y-120103051D01*
X154645619Y-120099852D01*
X154645615Y-120099848D01*
X154478414Y-119967800D01*
X154478410Y-119967798D01*
X154474359Y-119964598D01*
X154278789Y-119856638D01*
X154273920Y-119854914D01*
X154273916Y-119854912D01*
X154073087Y-119783795D01*
X154073083Y-119783794D01*
X154068212Y-119782069D01*
X154063119Y-119781162D01*
X154063116Y-119781161D01*
X153853373Y-119743800D01*
X153853367Y-119743799D01*
X153848284Y-119742894D01*
X153774452Y-119741992D01*
X153630081Y-119740228D01*
X153630079Y-119740228D01*
X153624911Y-119740165D01*
X153404091Y-119773955D01*
X153191756Y-119843357D01*
X152993607Y-119946507D01*
X152989474Y-119949610D01*
X152989471Y-119949612D01*
X152819100Y-120077530D01*
X152814965Y-120080635D01*
X152758537Y-120139684D01*
X152734283Y-120165064D01*
X152672759Y-120200494D01*
X152601846Y-120197037D01*
X152544060Y-120155791D01*
X152525207Y-120122243D01*
X152483767Y-120011703D01*
X152480615Y-120003295D01*
X152393261Y-119886739D01*
X152276705Y-119799385D01*
X152140316Y-119748255D01*
X152078134Y-119741500D01*
X150281866Y-119741500D01*
X150219684Y-119748255D01*
X150083295Y-119799385D01*
X149966739Y-119886739D01*
X149879385Y-120003295D01*
X149828255Y-120139684D01*
X149821500Y-120201866D01*
X149821500Y-121998134D01*
X149828255Y-122060316D01*
X149879385Y-122196705D01*
X149896276Y-122219242D01*
X149949257Y-122289935D01*
X149974105Y-122356441D01*
X149959052Y-122425824D01*
X149908878Y-122476054D01*
X149848431Y-122491500D01*
X146882343Y-122491500D01*
X146814222Y-122471498D01*
X146767729Y-122417842D01*
X146757625Y-122347568D01*
X146787119Y-122282988D01*
X146809175Y-122262921D01*
X146975656Y-122144172D01*
X146975659Y-122144170D01*
X146979860Y-122141173D01*
X147138096Y-121983489D01*
X147268453Y-121802077D01*
X147289320Y-121759857D01*
X147365136Y-121606453D01*
X147365137Y-121606451D01*
X147367430Y-121601811D01*
X147432370Y-121388069D01*
X147461529Y-121166590D01*
X147463156Y-121100000D01*
X147444852Y-120877361D01*
X147390431Y-120660702D01*
X147301354Y-120455840D01*
X147180014Y-120268277D01*
X147029670Y-120103051D01*
X147025619Y-120099852D01*
X147025615Y-120099848D01*
X146858414Y-119967800D01*
X146858410Y-119967798D01*
X146854359Y-119964598D01*
X146658789Y-119856638D01*
X146653920Y-119854914D01*
X146653916Y-119854912D01*
X146453087Y-119783795D01*
X146453083Y-119783794D01*
X146448212Y-119782069D01*
X146443119Y-119781162D01*
X146443116Y-119781161D01*
X146233373Y-119743800D01*
X146233367Y-119743799D01*
X146228284Y-119742894D01*
X146154452Y-119741992D01*
X146010081Y-119740228D01*
X146010079Y-119740228D01*
X146004911Y-119740165D01*
X145784091Y-119773955D01*
X145571756Y-119843357D01*
X145373607Y-119946507D01*
X145369474Y-119949610D01*
X145369471Y-119949612D01*
X145199100Y-120077530D01*
X145194965Y-120080635D01*
X145191393Y-120084373D01*
X145083729Y-120197037D01*
X145040629Y-120242138D01*
X144933201Y-120399621D01*
X144878293Y-120444621D01*
X144807768Y-120452792D01*
X144744021Y-120421538D01*
X144723324Y-120397054D01*
X144642822Y-120272617D01*
X144642820Y-120272614D01*
X144640014Y-120268277D01*
X144489670Y-120103051D01*
X144485619Y-120099852D01*
X144485615Y-120099848D01*
X144318414Y-119967800D01*
X144318410Y-119967798D01*
X144314359Y-119964598D01*
X144118789Y-119856638D01*
X144113920Y-119854914D01*
X144113916Y-119854912D01*
X143913087Y-119783795D01*
X143913083Y-119783794D01*
X143908212Y-119782069D01*
X143903119Y-119781162D01*
X143903116Y-119781161D01*
X143693373Y-119743800D01*
X143693367Y-119743799D01*
X143688284Y-119742894D01*
X143614452Y-119741992D01*
X143470081Y-119740228D01*
X143470079Y-119740228D01*
X143464911Y-119740165D01*
X143244091Y-119773955D01*
X143031756Y-119843357D01*
X142833607Y-119946507D01*
X142829474Y-119949610D01*
X142829471Y-119949612D01*
X142659100Y-120077530D01*
X142654965Y-120080635D01*
X142651393Y-120084373D01*
X142543729Y-120197037D01*
X142500629Y-120242138D01*
X142393201Y-120399621D01*
X142338293Y-120444621D01*
X142267768Y-120452792D01*
X142204021Y-120421538D01*
X142183324Y-120397054D01*
X142102822Y-120272617D01*
X142102820Y-120272614D01*
X142100014Y-120268277D01*
X141949670Y-120103051D01*
X141945619Y-120099852D01*
X141945615Y-120099848D01*
X141778414Y-119967800D01*
X141778410Y-119967798D01*
X141774359Y-119964598D01*
X141578789Y-119856638D01*
X141573920Y-119854914D01*
X141573916Y-119854912D01*
X141373087Y-119783795D01*
X141373083Y-119783794D01*
X141368212Y-119782069D01*
X141363119Y-119781162D01*
X141363116Y-119781161D01*
X141153373Y-119743800D01*
X141153367Y-119743799D01*
X141148284Y-119742894D01*
X141074452Y-119741992D01*
X140930081Y-119740228D01*
X140930079Y-119740228D01*
X140924911Y-119740165D01*
X140704091Y-119773955D01*
X140491756Y-119843357D01*
X140293607Y-119946507D01*
X140289474Y-119949610D01*
X140289471Y-119949612D01*
X140119100Y-120077530D01*
X140114965Y-120080635D01*
X140111393Y-120084373D01*
X140003729Y-120197037D01*
X139960629Y-120242138D01*
X139853201Y-120399621D01*
X139798293Y-120444621D01*
X139727768Y-120452792D01*
X139664021Y-120421538D01*
X139643324Y-120397054D01*
X139562822Y-120272617D01*
X139562820Y-120272614D01*
X139560014Y-120268277D01*
X139409670Y-120103051D01*
X139405619Y-120099852D01*
X139405615Y-120099848D01*
X139238414Y-119967800D01*
X139238410Y-119967798D01*
X139234359Y-119964598D01*
X139038789Y-119856638D01*
X139033920Y-119854914D01*
X139033916Y-119854912D01*
X138833087Y-119783795D01*
X138833083Y-119783794D01*
X138828212Y-119782069D01*
X138823119Y-119781162D01*
X138823116Y-119781161D01*
X138613373Y-119743800D01*
X138613367Y-119743799D01*
X138608284Y-119742894D01*
X138534452Y-119741992D01*
X138390081Y-119740228D01*
X138390079Y-119740228D01*
X138384911Y-119740165D01*
X138164091Y-119773955D01*
X137951756Y-119843357D01*
X137753607Y-119946507D01*
X137749474Y-119949610D01*
X137749471Y-119949612D01*
X137579100Y-120077530D01*
X137574965Y-120080635D01*
X137571393Y-120084373D01*
X137463729Y-120197037D01*
X137420629Y-120242138D01*
X137313201Y-120399621D01*
X137258293Y-120444621D01*
X137187768Y-120452792D01*
X137124021Y-120421538D01*
X137103324Y-120397054D01*
X137022822Y-120272617D01*
X137022820Y-120272614D01*
X137020014Y-120268277D01*
X136869670Y-120103051D01*
X136865619Y-120099852D01*
X136865615Y-120099848D01*
X136698414Y-119967800D01*
X136698410Y-119967798D01*
X136694359Y-119964598D01*
X136498789Y-119856638D01*
X136493920Y-119854914D01*
X136493916Y-119854912D01*
X136293087Y-119783795D01*
X136293083Y-119783794D01*
X136288212Y-119782069D01*
X136283119Y-119781162D01*
X136283116Y-119781161D01*
X136073373Y-119743800D01*
X136073367Y-119743799D01*
X136068284Y-119742894D01*
X135994452Y-119741992D01*
X135850081Y-119740228D01*
X135850079Y-119740228D01*
X135844911Y-119740165D01*
X135624091Y-119773955D01*
X135411756Y-119843357D01*
X135213607Y-119946507D01*
X135209474Y-119949610D01*
X135209471Y-119949612D01*
X135039100Y-120077530D01*
X135034965Y-120080635D01*
X135031393Y-120084373D01*
X134923729Y-120197037D01*
X134880629Y-120242138D01*
X134773201Y-120399621D01*
X134718293Y-120444621D01*
X134647768Y-120452792D01*
X134584021Y-120421538D01*
X134563324Y-120397054D01*
X134482822Y-120272617D01*
X134482820Y-120272614D01*
X134480014Y-120268277D01*
X134329670Y-120103051D01*
X134325619Y-120099852D01*
X134325615Y-120099848D01*
X134158414Y-119967800D01*
X134158410Y-119967798D01*
X134154359Y-119964598D01*
X133958789Y-119856638D01*
X133953920Y-119854914D01*
X133953916Y-119854912D01*
X133753087Y-119783795D01*
X133753083Y-119783794D01*
X133748212Y-119782069D01*
X133743119Y-119781162D01*
X133743116Y-119781161D01*
X133533373Y-119743800D01*
X133533367Y-119743799D01*
X133528284Y-119742894D01*
X133454452Y-119741992D01*
X133310081Y-119740228D01*
X133310079Y-119740228D01*
X133304911Y-119740165D01*
X133084091Y-119773955D01*
X132871756Y-119843357D01*
X132673607Y-119946507D01*
X132669474Y-119949610D01*
X132669471Y-119949612D01*
X132499100Y-120077530D01*
X132494965Y-120080635D01*
X132491393Y-120084373D01*
X132383729Y-120197037D01*
X132340629Y-120242138D01*
X132233201Y-120399621D01*
X132178293Y-120444621D01*
X132107768Y-120452792D01*
X132044021Y-120421538D01*
X132023324Y-120397054D01*
X131942822Y-120272617D01*
X131942820Y-120272614D01*
X131940014Y-120268277D01*
X131789670Y-120103051D01*
X131785619Y-120099852D01*
X131785615Y-120099848D01*
X131618414Y-119967800D01*
X131618410Y-119967798D01*
X131614359Y-119964598D01*
X131418789Y-119856638D01*
X131413920Y-119854914D01*
X131413916Y-119854912D01*
X131213087Y-119783795D01*
X131213083Y-119783794D01*
X131208212Y-119782069D01*
X131203119Y-119781162D01*
X131203116Y-119781161D01*
X130993373Y-119743800D01*
X130993367Y-119743799D01*
X130988284Y-119742894D01*
X130914452Y-119741992D01*
X130770081Y-119740228D01*
X130770079Y-119740228D01*
X130764911Y-119740165D01*
X130544091Y-119773955D01*
X130331756Y-119843357D01*
X130133607Y-119946507D01*
X130129474Y-119949610D01*
X130129471Y-119949612D01*
X129959100Y-120077530D01*
X129954965Y-120080635D01*
X129898537Y-120139684D01*
X129874283Y-120165064D01*
X129812759Y-120200494D01*
X129741846Y-120197037D01*
X129684060Y-120155791D01*
X129665207Y-120122243D01*
X129623767Y-120011703D01*
X129620615Y-120003295D01*
X129533261Y-119886739D01*
X129416705Y-119799385D01*
X129280316Y-119748255D01*
X129218134Y-119741500D01*
X127421866Y-119741500D01*
X127359684Y-119748255D01*
X127223295Y-119799385D01*
X127106739Y-119886739D01*
X127019385Y-120003295D01*
X126968255Y-120139684D01*
X126961500Y-120201866D01*
X126961500Y-121998134D01*
X126968255Y-122060316D01*
X127019385Y-122196705D01*
X127036276Y-122219242D01*
X127089257Y-122289935D01*
X127114105Y-122356441D01*
X127099052Y-122425824D01*
X127048878Y-122476054D01*
X126988431Y-122491500D01*
X108634500Y-122491500D01*
X108566379Y-122471498D01*
X108519886Y-122417842D01*
X108508500Y-122365500D01*
X108508500Y-112314853D01*
X111684977Y-112314853D01*
X111690258Y-112321907D01*
X111851756Y-112416279D01*
X111861042Y-112420729D01*
X112060001Y-112496703D01*
X112069899Y-112499579D01*
X112278595Y-112542038D01*
X112288823Y-112543257D01*
X112501650Y-112551062D01*
X112511936Y-112550595D01*
X112723185Y-112523534D01*
X112733262Y-112521392D01*
X112937255Y-112460191D01*
X112946842Y-112456433D01*
X113138098Y-112362738D01*
X113146944Y-112357465D01*
X113194247Y-112323723D01*
X113202648Y-112313023D01*
X113195660Y-112299870D01*
X112457812Y-111562022D01*
X112443868Y-111554408D01*
X112442035Y-111554539D01*
X112435420Y-111558790D01*
X111691737Y-112302473D01*
X111684977Y-112314853D01*
X108508500Y-112314853D01*
X108508500Y-111161863D01*
X111083050Y-111161863D01*
X111095309Y-111374477D01*
X111096745Y-111384697D01*
X111143565Y-111592446D01*
X111146645Y-111602275D01*
X111226770Y-111799603D01*
X111231413Y-111808794D01*
X111311460Y-111939420D01*
X111321916Y-111948880D01*
X111330694Y-111945096D01*
X112072978Y-111202812D01*
X112080592Y-111188868D01*
X112080461Y-111187035D01*
X112076210Y-111180420D01*
X111334849Y-110439059D01*
X111323313Y-110432759D01*
X111311031Y-110442382D01*
X111263089Y-110512662D01*
X111258004Y-110521613D01*
X111168338Y-110714783D01*
X111164775Y-110724470D01*
X111107864Y-110929681D01*
X111105933Y-110939800D01*
X111083302Y-111151574D01*
X111083050Y-111161863D01*
X108508500Y-111161863D01*
X108508500Y-106081863D01*
X111083050Y-106081863D01*
X111095309Y-106294477D01*
X111096745Y-106304697D01*
X111143565Y-106512446D01*
X111146645Y-106522275D01*
X111226770Y-106719603D01*
X111231413Y-106728794D01*
X111311460Y-106859420D01*
X111321916Y-106868880D01*
X111330694Y-106865096D01*
X112072978Y-106122812D01*
X112080592Y-106108868D01*
X112080461Y-106107035D01*
X112076210Y-106100420D01*
X111334849Y-105359059D01*
X111323313Y-105352759D01*
X111311031Y-105362382D01*
X111263089Y-105432662D01*
X111258004Y-105441613D01*
X111168338Y-105634783D01*
X111164775Y-105644470D01*
X111107864Y-105849681D01*
X111105933Y-105859800D01*
X111083302Y-106071574D01*
X111083050Y-106081863D01*
X108508500Y-106081863D01*
X108508500Y-97106879D01*
X109992765Y-97106879D01*
X109993511Y-97114771D01*
X109996941Y-97151056D01*
X109997500Y-97162914D01*
X109997500Y-98898510D01*
X109996970Y-98909744D01*
X109995292Y-98917249D01*
X109995541Y-98925168D01*
X109997438Y-98985542D01*
X109997500Y-98989499D01*
X109997500Y-99017513D01*
X109997996Y-99021438D01*
X109997996Y-99021439D01*
X109998008Y-99021534D01*
X109998941Y-99033379D01*
X110000335Y-99077735D01*
X110002547Y-99085347D01*
X110006013Y-99097278D01*
X110010023Y-99116642D01*
X110012573Y-99136829D01*
X110015489Y-99144193D01*
X110015490Y-99144198D01*
X110028907Y-99178086D01*
X110032752Y-99189315D01*
X110045131Y-99231923D01*
X110049169Y-99238750D01*
X110049170Y-99238753D01*
X110055488Y-99249436D01*
X110064188Y-99267194D01*
X110068761Y-99278745D01*
X110068765Y-99278751D01*
X110071681Y-99286118D01*
X110076339Y-99292529D01*
X110076340Y-99292531D01*
X110097764Y-99322018D01*
X110104281Y-99331940D01*
X110122826Y-99363298D01*
X110122829Y-99363302D01*
X110126866Y-99370128D01*
X110141250Y-99384512D01*
X110154091Y-99399546D01*
X110166058Y-99416017D01*
X110195578Y-99440438D01*
X110200250Y-99444303D01*
X110209031Y-99452293D01*
X110914225Y-100157488D01*
X110921795Y-100165807D01*
X110925917Y-100172303D01*
X110931695Y-100177729D01*
X110931696Y-100177730D01*
X110975735Y-100219085D01*
X110978577Y-100221840D01*
X110998376Y-100241639D01*
X111001507Y-100244068D01*
X111001512Y-100244072D01*
X111001598Y-100244139D01*
X111010623Y-100251847D01*
X111024293Y-100264684D01*
X111042964Y-100282217D01*
X111049909Y-100286035D01*
X111049913Y-100286038D01*
X111060804Y-100292026D01*
X111077325Y-100302878D01*
X111093404Y-100315350D01*
X111100677Y-100318497D01*
X111129189Y-100330835D01*
X111183764Y-100376246D01*
X111205125Y-100443953D01*
X111193438Y-100499523D01*
X111165688Y-100559305D01*
X111105989Y-100774570D01*
X111082251Y-100996695D01*
X111082548Y-101001848D01*
X111082548Y-101001851D01*
X111083863Y-101024653D01*
X111095110Y-101219715D01*
X111096247Y-101224761D01*
X111096248Y-101224767D01*
X111100027Y-101241534D01*
X111144222Y-101437639D01*
X111185168Y-101538478D01*
X111211952Y-101604438D01*
X111228266Y-101644616D01*
X111266177Y-101706482D01*
X111342291Y-101830688D01*
X111344987Y-101835088D01*
X111491250Y-102003938D01*
X111663126Y-102146632D01*
X111683143Y-102158329D01*
X111736445Y-102189476D01*
X111785169Y-102241114D01*
X111798240Y-102310897D01*
X111771509Y-102376669D01*
X111731055Y-102410027D01*
X111718607Y-102416507D01*
X111714474Y-102419610D01*
X111714471Y-102419612D01*
X111544100Y-102547530D01*
X111539965Y-102550635D01*
X111536393Y-102554373D01*
X111443115Y-102651983D01*
X111385629Y-102712138D01*
X111259743Y-102896680D01*
X111227376Y-102966410D01*
X111171510Y-103086763D01*
X111165688Y-103099305D01*
X111105989Y-103314570D01*
X111082251Y-103536695D01*
X111082548Y-103541848D01*
X111082548Y-103541851D01*
X111088011Y-103636590D01*
X111095110Y-103759715D01*
X111096247Y-103764761D01*
X111096248Y-103764767D01*
X111110130Y-103826365D01*
X111144222Y-103977639D01*
X111205673Y-104128976D01*
X111211952Y-104144438D01*
X111228266Y-104184616D01*
X111268808Y-104250775D01*
X111342291Y-104370688D01*
X111344987Y-104375088D01*
X111491250Y-104543938D01*
X111663126Y-104686632D01*
X111701269Y-104708921D01*
X111736955Y-104729774D01*
X111785679Y-104781412D01*
X111798750Y-104851195D01*
X111772019Y-104916967D01*
X111731562Y-104950327D01*
X111723460Y-104954544D01*
X111714734Y-104960039D01*
X111694677Y-104975099D01*
X111686223Y-104986427D01*
X111692968Y-104998758D01*
X112432188Y-105737978D01*
X112446132Y-105745592D01*
X112447965Y-105745461D01*
X112454580Y-105741210D01*
X113198389Y-104997401D01*
X113205410Y-104984544D01*
X113198611Y-104975213D01*
X113194559Y-104972521D01*
X113157602Y-104952120D01*
X113107631Y-104901687D01*
X113092859Y-104832245D01*
X113117975Y-104765839D01*
X113145327Y-104739232D01*
X113186117Y-104710137D01*
X113324860Y-104611173D01*
X113483096Y-104453489D01*
X113515951Y-104407767D01*
X113613453Y-104272077D01*
X113614776Y-104273028D01*
X113661645Y-104229857D01*
X113731580Y-104217625D01*
X113797026Y-104245144D01*
X113824875Y-104276994D01*
X113884987Y-104375088D01*
X114031250Y-104543938D01*
X114203126Y-104686632D01*
X114241269Y-104708921D01*
X114276445Y-104729476D01*
X114325169Y-104781114D01*
X114338240Y-104850897D01*
X114311509Y-104916669D01*
X114271055Y-104950027D01*
X114258607Y-104956507D01*
X114254474Y-104959610D01*
X114254471Y-104959612D01*
X114093161Y-105080727D01*
X114079965Y-105090635D01*
X114076393Y-105094373D01*
X113932206Y-105245256D01*
X113925629Y-105252138D01*
X113852693Y-105359059D01*
X113817898Y-105410066D01*
X113762987Y-105455069D01*
X113692462Y-105463240D01*
X113628715Y-105431986D01*
X113608017Y-105407501D01*
X113578062Y-105361197D01*
X113567377Y-105351995D01*
X113557812Y-105356398D01*
X111691737Y-107222473D01*
X111684977Y-107234853D01*
X111690258Y-107241907D01*
X111736969Y-107269203D01*
X111785693Y-107320841D01*
X111798764Y-107390624D01*
X111772033Y-107456396D01*
X111731584Y-107489752D01*
X111718607Y-107496507D01*
X111714474Y-107499610D01*
X111714471Y-107499612D01*
X111575491Y-107603961D01*
X111539965Y-107630635D01*
X111489164Y-107683795D01*
X111395931Y-107781358D01*
X111385629Y-107792138D01*
X111259743Y-107976680D01*
X111233112Y-108034052D01*
X111180961Y-108146403D01*
X111165688Y-108179305D01*
X111105989Y-108394570D01*
X111082251Y-108616695D01*
X111082548Y-108621848D01*
X111082548Y-108621851D01*
X111088011Y-108716590D01*
X111095110Y-108839715D01*
X111096247Y-108844761D01*
X111096248Y-108844767D01*
X111101866Y-108869695D01*
X111144222Y-109057639D01*
X111202899Y-109202144D01*
X111211952Y-109224438D01*
X111228266Y-109264616D01*
X111266917Y-109327689D01*
X111342291Y-109450688D01*
X111344987Y-109455088D01*
X111491250Y-109623938D01*
X111663126Y-109766632D01*
X111703350Y-109790137D01*
X111736955Y-109809774D01*
X111785679Y-109861412D01*
X111798750Y-109931195D01*
X111772019Y-109996967D01*
X111731562Y-110030327D01*
X111723460Y-110034544D01*
X111714734Y-110040039D01*
X111694677Y-110055099D01*
X111686223Y-110066427D01*
X111692968Y-110078758D01*
X112432188Y-110817978D01*
X112446132Y-110825592D01*
X112447965Y-110825461D01*
X112454580Y-110821210D01*
X113198389Y-110077401D01*
X113205410Y-110064544D01*
X113198611Y-110055213D01*
X113194559Y-110052521D01*
X113157602Y-110032120D01*
X113107631Y-109981687D01*
X113092859Y-109912245D01*
X113117975Y-109845839D01*
X113145327Y-109819232D01*
X113197115Y-109782292D01*
X113324860Y-109691173D01*
X113368561Y-109647625D01*
X113445282Y-109571171D01*
X113483096Y-109533489D01*
X113504114Y-109504240D01*
X113613453Y-109352077D01*
X113614776Y-109353028D01*
X113661645Y-109309857D01*
X113731580Y-109297625D01*
X113797026Y-109325144D01*
X113824875Y-109356994D01*
X113884987Y-109455088D01*
X114031250Y-109623938D01*
X114203126Y-109766632D01*
X114243350Y-109790137D01*
X114276445Y-109809476D01*
X114325169Y-109861114D01*
X114338240Y-109930897D01*
X114311509Y-109996669D01*
X114271055Y-110030027D01*
X114258607Y-110036507D01*
X114254474Y-110039610D01*
X114254471Y-110039612D01*
X114084100Y-110167530D01*
X114079965Y-110170635D01*
X114051005Y-110200940D01*
X113947712Y-110309030D01*
X113925629Y-110332138D01*
X113922715Y-110336410D01*
X113922714Y-110336411D01*
X113905556Y-110361564D01*
X113852693Y-110439059D01*
X113817898Y-110490066D01*
X113762987Y-110535069D01*
X113692462Y-110543240D01*
X113628715Y-110511986D01*
X113608017Y-110487501D01*
X113578062Y-110441197D01*
X113567377Y-110431995D01*
X113557812Y-110436398D01*
X112817022Y-111177188D01*
X112809408Y-111191132D01*
X112809539Y-111192965D01*
X112813790Y-111199580D01*
X113555474Y-111941264D01*
X113567484Y-111947823D01*
X113579223Y-111938855D01*
X113613022Y-111891819D01*
X113614277Y-111892721D01*
X113661391Y-111849355D01*
X113731330Y-111837148D01*
X113796767Y-111864691D01*
X113824580Y-111896513D01*
X113882287Y-111990683D01*
X113882291Y-111990688D01*
X113884987Y-111995088D01*
X114031250Y-112163938D01*
X114203126Y-112306632D01*
X114396000Y-112419338D01*
X114604692Y-112499030D01*
X114609760Y-112500061D01*
X114609763Y-112500062D01*
X114714604Y-112521392D01*
X114823597Y-112543567D01*
X114828772Y-112543757D01*
X114828774Y-112543757D01*
X115041673Y-112551564D01*
X115041677Y-112551564D01*
X115046837Y-112551753D01*
X115051957Y-112551097D01*
X115051959Y-112551097D01*
X115263288Y-112524025D01*
X115263289Y-112524025D01*
X115268416Y-112523368D01*
X115273366Y-112521883D01*
X115477429Y-112460661D01*
X115477434Y-112460659D01*
X115482384Y-112459174D01*
X115682994Y-112360896D01*
X115864860Y-112231173D01*
X116023096Y-112073489D01*
X116116915Y-111942926D01*
X116150435Y-111896277D01*
X116153453Y-111892077D01*
X116156645Y-111885620D01*
X116242963Y-111710966D01*
X120638257Y-111710966D01*
X120668565Y-111845446D01*
X120671645Y-111855275D01*
X120751770Y-112052603D01*
X120756413Y-112061794D01*
X120867694Y-112243388D01*
X120873777Y-112251699D01*
X121013213Y-112412667D01*
X121020580Y-112419883D01*
X121184434Y-112555916D01*
X121192881Y-112561831D01*
X121376756Y-112669279D01*
X121386042Y-112673729D01*
X121585001Y-112749703D01*
X121594899Y-112752579D01*
X121698250Y-112773606D01*
X121712299Y-112772410D01*
X121716000Y-112762065D01*
X121716000Y-112761517D01*
X122224000Y-112761517D01*
X122228064Y-112775359D01*
X122241478Y-112777393D01*
X122248184Y-112776534D01*
X122258262Y-112774392D01*
X122462255Y-112713191D01*
X122471842Y-112709433D01*
X122663095Y-112615739D01*
X122671945Y-112610464D01*
X122845328Y-112486792D01*
X122853200Y-112480139D01*
X123004052Y-112329812D01*
X123010730Y-112321965D01*
X123135003Y-112149020D01*
X123140313Y-112140183D01*
X123234670Y-111949267D01*
X123238469Y-111939672D01*
X123300377Y-111735910D01*
X123302555Y-111725837D01*
X123303986Y-111714962D01*
X123301775Y-111700778D01*
X123288617Y-111697000D01*
X122242115Y-111697000D01*
X122226876Y-111701475D01*
X122225671Y-111702865D01*
X122224000Y-111710548D01*
X122224000Y-112761517D01*
X121716000Y-112761517D01*
X121716000Y-111715115D01*
X121711525Y-111699876D01*
X121710135Y-111698671D01*
X121702452Y-111697000D01*
X120653225Y-111697000D01*
X120639694Y-111700973D01*
X120638257Y-111710966D01*
X116242963Y-111710966D01*
X116250136Y-111696453D01*
X116250137Y-111696451D01*
X116252430Y-111691811D01*
X116294176Y-111554408D01*
X116315865Y-111483023D01*
X116315865Y-111483021D01*
X116317370Y-111478069D01*
X116346529Y-111256590D01*
X116346653Y-111251522D01*
X116348074Y-111193365D01*
X116348074Y-111193361D01*
X116348156Y-111190000D01*
X116329852Y-110967361D01*
X116275431Y-110750702D01*
X116186354Y-110545840D01*
X116102602Y-110416379D01*
X116067822Y-110362617D01*
X116067820Y-110362614D01*
X116065014Y-110358277D01*
X115914670Y-110193051D01*
X115910619Y-110189852D01*
X115910615Y-110189848D01*
X115743414Y-110057800D01*
X115743410Y-110057798D01*
X115739359Y-110054598D01*
X115698053Y-110031796D01*
X115648084Y-109981364D01*
X115633312Y-109911921D01*
X115658428Y-109845516D01*
X115685780Y-109818909D01*
X115737115Y-109782292D01*
X115864860Y-109691173D01*
X115908561Y-109647625D01*
X115985282Y-109571171D01*
X116023096Y-109533489D01*
X116044114Y-109504240D01*
X116150435Y-109356277D01*
X116153453Y-109352077D01*
X116171568Y-109315425D01*
X116250136Y-109156453D01*
X116250137Y-109156451D01*
X116252430Y-109151811D01*
X116294094Y-109014680D01*
X116315865Y-108943023D01*
X116315865Y-108943021D01*
X116317370Y-108938069D01*
X116346529Y-108716590D01*
X116348156Y-108650000D01*
X116329852Y-108427361D01*
X116290720Y-108271570D01*
X116276689Y-108215709D01*
X116276688Y-108215705D01*
X116275431Y-108210702D01*
X116273371Y-108205964D01*
X116266557Y-108190292D01*
X116257738Y-108119845D01*
X116288404Y-108055814D01*
X116348821Y-108018526D01*
X116382107Y-108014050D01*
X120130128Y-108014050D01*
X120198249Y-108034052D01*
X120219223Y-108050955D01*
X120619164Y-108450896D01*
X120653190Y-108513208D01*
X120651486Y-108573662D01*
X120630989Y-108647570D01*
X120630441Y-108652700D01*
X120630440Y-108652704D01*
X120626933Y-108685522D01*
X120607251Y-108869695D01*
X120607548Y-108874848D01*
X120607548Y-108874851D01*
X120618604Y-109066590D01*
X120620110Y-109092715D01*
X120621247Y-109097761D01*
X120621248Y-109097767D01*
X120633428Y-109151811D01*
X120669222Y-109310639D01*
X120709346Y-109409453D01*
X120747835Y-109504240D01*
X120753266Y-109517616D01*
X120804019Y-109600438D01*
X120865137Y-109700173D01*
X120869987Y-109708088D01*
X121016250Y-109876938D01*
X121188126Y-110019632D01*
X121244409Y-110052521D01*
X121261955Y-110062774D01*
X121310679Y-110114412D01*
X121323750Y-110184195D01*
X121297019Y-110249967D01*
X121256562Y-110283327D01*
X121248457Y-110287546D01*
X121239738Y-110293036D01*
X121069433Y-110420905D01*
X121061726Y-110427748D01*
X120914590Y-110581717D01*
X120908104Y-110589727D01*
X120788098Y-110765649D01*
X120783000Y-110774623D01*
X120693338Y-110967783D01*
X120689775Y-110977470D01*
X120634389Y-111177183D01*
X120635912Y-111185607D01*
X120648292Y-111189000D01*
X123288344Y-111189000D01*
X123301875Y-111185027D01*
X123303180Y-111175947D01*
X123261214Y-111008875D01*
X123257894Y-110999124D01*
X123172972Y-110803814D01*
X123168105Y-110794739D01*
X123052426Y-110615926D01*
X123046136Y-110607757D01*
X122902806Y-110450240D01*
X122895273Y-110443215D01*
X122728139Y-110311222D01*
X122719556Y-110305520D01*
X122682602Y-110285120D01*
X122632631Y-110234687D01*
X122617859Y-110165245D01*
X122642975Y-110098839D01*
X122670327Y-110072232D01*
X122729496Y-110030027D01*
X122849860Y-109944173D01*
X122862884Y-109931195D01*
X122957346Y-109837062D01*
X123008096Y-109786489D01*
X123024740Y-109763327D01*
X123135435Y-109609277D01*
X123138453Y-109605077D01*
X123155211Y-109571171D01*
X123235136Y-109409453D01*
X123235137Y-109409451D01*
X123237430Y-109404811D01*
X123302370Y-109191069D01*
X123331529Y-108969590D01*
X123332383Y-108934639D01*
X123333074Y-108906365D01*
X123333074Y-108906361D01*
X123333156Y-108903000D01*
X123314852Y-108680361D01*
X123260431Y-108463702D01*
X123171354Y-108258840D01*
X123123130Y-108184297D01*
X123052822Y-108075617D01*
X123052820Y-108075614D01*
X123050014Y-108071277D01*
X122899670Y-107906051D01*
X122895619Y-107902852D01*
X122895615Y-107902848D01*
X122728414Y-107770800D01*
X122728410Y-107770798D01*
X122724359Y-107767598D01*
X122683053Y-107744796D01*
X122633084Y-107694364D01*
X122618312Y-107624921D01*
X122643428Y-107558516D01*
X122670780Y-107531909D01*
X122729879Y-107489754D01*
X122849860Y-107404173D01*
X122863457Y-107390624D01*
X122944366Y-107309997D01*
X123008096Y-107246489D01*
X123011389Y-107241907D01*
X123135435Y-107069277D01*
X123138453Y-107065077D01*
X123155211Y-107031171D01*
X123235136Y-106869453D01*
X123235137Y-106869451D01*
X123237430Y-106864811D01*
X123302370Y-106651069D01*
X123331529Y-106429590D01*
X123331734Y-106421211D01*
X123333074Y-106366365D01*
X123333074Y-106366361D01*
X123333156Y-106363000D01*
X123314852Y-106140361D01*
X123260431Y-105923702D01*
X123171354Y-105718840D01*
X123123122Y-105644285D01*
X123052822Y-105535617D01*
X123052820Y-105535614D01*
X123050014Y-105531277D01*
X122899670Y-105366051D01*
X122895619Y-105362852D01*
X122895615Y-105362848D01*
X122728414Y-105230800D01*
X122728410Y-105230798D01*
X122724359Y-105227598D01*
X122683053Y-105204796D01*
X122633084Y-105154364D01*
X122618312Y-105084921D01*
X122643428Y-105018516D01*
X122670780Y-104991909D01*
X122729496Y-104950027D01*
X122849860Y-104864173D01*
X122862884Y-104851195D01*
X122970817Y-104743638D01*
X123008096Y-104706489D01*
X123024740Y-104683327D01*
X123135435Y-104529277D01*
X123138453Y-104525077D01*
X123155211Y-104491171D01*
X123235136Y-104329453D01*
X123235137Y-104329451D01*
X123237430Y-104324811D01*
X123302370Y-104111069D01*
X123331529Y-103889590D01*
X123332299Y-103858069D01*
X123333074Y-103826365D01*
X123333074Y-103826361D01*
X123333156Y-103823000D01*
X123314852Y-103600361D01*
X123287389Y-103491025D01*
X123290193Y-103420084D01*
X123320498Y-103371235D01*
X124239928Y-102451805D01*
X124302240Y-102417779D01*
X124329023Y-102414900D01*
X126576700Y-102414900D01*
X126644821Y-102434902D01*
X126691314Y-102488558D01*
X126702700Y-102540900D01*
X126702700Y-106816980D01*
X126702170Y-106828214D01*
X126700492Y-106835719D01*
X126701406Y-106864811D01*
X126702638Y-106904012D01*
X126702700Y-106907969D01*
X126702700Y-106935983D01*
X126703196Y-106939908D01*
X126703196Y-106939909D01*
X126703208Y-106940004D01*
X126704141Y-106951849D01*
X126705535Y-106996205D01*
X126707747Y-107003817D01*
X126711213Y-107015748D01*
X126715223Y-107035112D01*
X126717773Y-107055299D01*
X126720689Y-107062663D01*
X126720690Y-107062668D01*
X126734107Y-107096556D01*
X126737952Y-107107785D01*
X126750331Y-107150393D01*
X126754369Y-107157220D01*
X126754370Y-107157223D01*
X126760688Y-107167906D01*
X126769388Y-107185664D01*
X126773961Y-107197215D01*
X126773965Y-107197221D01*
X126776881Y-107204588D01*
X126781539Y-107210999D01*
X126781540Y-107211001D01*
X126802964Y-107240488D01*
X126809481Y-107250410D01*
X126828026Y-107281768D01*
X126828029Y-107281772D01*
X126832066Y-107288598D01*
X126846450Y-107302982D01*
X126859291Y-107318016D01*
X126871258Y-107334487D01*
X126877366Y-107339540D01*
X126905455Y-107362777D01*
X126914235Y-107370767D01*
X127618364Y-108074896D01*
X127652390Y-108137208D01*
X127650686Y-108197662D01*
X127630189Y-108271570D01*
X127629641Y-108276700D01*
X127629640Y-108276704D01*
X127622382Y-108344621D01*
X127606451Y-108493695D01*
X127606748Y-108498848D01*
X127606748Y-108498851D01*
X127612211Y-108593590D01*
X127619310Y-108716715D01*
X127620447Y-108721761D01*
X127620448Y-108721767D01*
X127631846Y-108772342D01*
X127668422Y-108934639D01*
X127706661Y-109028811D01*
X127732610Y-109092715D01*
X127752466Y-109141616D01*
X127803219Y-109224438D01*
X127866491Y-109327688D01*
X127869187Y-109332088D01*
X128015450Y-109500938D01*
X128187326Y-109643632D01*
X128380200Y-109756338D01*
X128588892Y-109836030D01*
X128593960Y-109837061D01*
X128593963Y-109837062D01*
X128637104Y-109845839D01*
X128807797Y-109880567D01*
X128812972Y-109880757D01*
X128812974Y-109880757D01*
X129025873Y-109888564D01*
X129025877Y-109888564D01*
X129031037Y-109888753D01*
X129036157Y-109888097D01*
X129036159Y-109888097D01*
X129247488Y-109861025D01*
X129247489Y-109861025D01*
X129252616Y-109860368D01*
X129257566Y-109858883D01*
X129461629Y-109797661D01*
X129461634Y-109797659D01*
X129466584Y-109796174D01*
X129667194Y-109697896D01*
X129849060Y-109568173D01*
X129883866Y-109533489D01*
X130003635Y-109414137D01*
X130007296Y-109410489D01*
X130052603Y-109347438D01*
X130137653Y-109229077D01*
X130138976Y-109230028D01*
X130185845Y-109186857D01*
X130255780Y-109174625D01*
X130321226Y-109202144D01*
X130349075Y-109233994D01*
X130409187Y-109332088D01*
X130555450Y-109500938D01*
X130727326Y-109643632D01*
X130920200Y-109756338D01*
X131128892Y-109836030D01*
X131133960Y-109837061D01*
X131133963Y-109837062D01*
X131177104Y-109845839D01*
X131347797Y-109880567D01*
X131352972Y-109880757D01*
X131352974Y-109880757D01*
X131565873Y-109888564D01*
X131565877Y-109888564D01*
X131571037Y-109888753D01*
X131576157Y-109888097D01*
X131576159Y-109888097D01*
X131787488Y-109861025D01*
X131787489Y-109861025D01*
X131792616Y-109860368D01*
X131797566Y-109858883D01*
X132001629Y-109797661D01*
X132001634Y-109797659D01*
X132006584Y-109796174D01*
X132207194Y-109697896D01*
X132389060Y-109568173D01*
X132423866Y-109533489D01*
X132543635Y-109414137D01*
X132547296Y-109410489D01*
X132592603Y-109347438D01*
X132674635Y-109233277D01*
X132677653Y-109229077D01*
X132698520Y-109186857D01*
X132774336Y-109033453D01*
X132774337Y-109033451D01*
X132776630Y-109028811D01*
X132841570Y-108815069D01*
X132870729Y-108593590D01*
X132872356Y-108527000D01*
X132854052Y-108304361D01*
X132799631Y-108087702D01*
X132710554Y-107882840D01*
X132649459Y-107788401D01*
X132592022Y-107699617D01*
X132592020Y-107699614D01*
X132589214Y-107695277D01*
X132438870Y-107530051D01*
X132434819Y-107526852D01*
X132434815Y-107526848D01*
X132267614Y-107394800D01*
X132267610Y-107394798D01*
X132263559Y-107391598D01*
X132222253Y-107368796D01*
X132172284Y-107318364D01*
X132157512Y-107248921D01*
X132182628Y-107182516D01*
X132209980Y-107155909D01*
X132285450Y-107102077D01*
X132389060Y-107028173D01*
X132401529Y-107015748D01*
X132543635Y-106874137D01*
X132547296Y-106870489D01*
X132601777Y-106794671D01*
X132674635Y-106693277D01*
X132677653Y-106689077D01*
X132691929Y-106660193D01*
X132774336Y-106493453D01*
X132774337Y-106493451D01*
X132776630Y-106488811D01*
X132834082Y-106299715D01*
X132840065Y-106280023D01*
X132840065Y-106280021D01*
X132841570Y-106275069D01*
X132870729Y-106053590D01*
X132872356Y-105987000D01*
X132854052Y-105764361D01*
X132799631Y-105547702D01*
X132710554Y-105342840D01*
X132620734Y-105203999D01*
X132592022Y-105159617D01*
X132592020Y-105159614D01*
X132589214Y-105155277D01*
X132438870Y-104990051D01*
X132434819Y-104986852D01*
X132434815Y-104986848D01*
X132267614Y-104854800D01*
X132267610Y-104854798D01*
X132263559Y-104851598D01*
X132222253Y-104828796D01*
X132172284Y-104778364D01*
X132157512Y-104708921D01*
X132182628Y-104642516D01*
X132209980Y-104615909D01*
X132253803Y-104584650D01*
X132389060Y-104488173D01*
X132423866Y-104453489D01*
X132543635Y-104334137D01*
X132547296Y-104330489D01*
X132592603Y-104267438D01*
X132674635Y-104153277D01*
X132677653Y-104149077D01*
X132704638Y-104094478D01*
X132774336Y-103953453D01*
X132774337Y-103953451D01*
X132776630Y-103948811D01*
X132841570Y-103735069D01*
X132870729Y-103513590D01*
X132871109Y-103498029D01*
X132872274Y-103450365D01*
X132872274Y-103450361D01*
X132872356Y-103447000D01*
X132854052Y-103224361D01*
X132799631Y-103007702D01*
X132710554Y-102802840D01*
X132623229Y-102667856D01*
X132592022Y-102619617D01*
X132592020Y-102619614D01*
X132589214Y-102615277D01*
X132438870Y-102450051D01*
X132434819Y-102446852D01*
X132434815Y-102446848D01*
X132267614Y-102314800D01*
X132267610Y-102314798D01*
X132263559Y-102311598D01*
X132222253Y-102288796D01*
X132172284Y-102238364D01*
X132157512Y-102168921D01*
X132182628Y-102102516D01*
X132209980Y-102075909D01*
X132283312Y-102023602D01*
X132389060Y-101948173D01*
X132423866Y-101913489D01*
X132506956Y-101830688D01*
X132547296Y-101790489D01*
X132595639Y-101723213D01*
X132674635Y-101613277D01*
X132677653Y-101609077D01*
X132715038Y-101533435D01*
X132774336Y-101413453D01*
X132774337Y-101413451D01*
X132776630Y-101408811D01*
X132841570Y-101195069D01*
X132870729Y-100973590D01*
X132872356Y-100907000D01*
X132854052Y-100684361D01*
X132799631Y-100467702D01*
X132710554Y-100262840D01*
X132621250Y-100124797D01*
X132592022Y-100079617D01*
X132592020Y-100079614D01*
X132589214Y-100075277D01*
X132438870Y-99910051D01*
X132434819Y-99906852D01*
X132434815Y-99906848D01*
X132267614Y-99774800D01*
X132267610Y-99774798D01*
X132263559Y-99771598D01*
X132222253Y-99748796D01*
X132172284Y-99698364D01*
X132157512Y-99628921D01*
X132182628Y-99562516D01*
X132209980Y-99535909D01*
X132253803Y-99504650D01*
X132389060Y-99408173D01*
X132410368Y-99386940D01*
X132528103Y-99269615D01*
X132547296Y-99250489D01*
X132559446Y-99233580D01*
X132615439Y-99189933D01*
X132686143Y-99183486D01*
X132749108Y-99216288D01*
X132761114Y-99229688D01*
X132764509Y-99235295D01*
X132890511Y-99365773D01*
X132965411Y-99414786D01*
X133022728Y-99452293D01*
X133042288Y-99465093D01*
X133048892Y-99467549D01*
X133048894Y-99467550D01*
X133205687Y-99525861D01*
X133205689Y-99525861D01*
X133212297Y-99528319D01*
X133284072Y-99537896D01*
X133385109Y-99551378D01*
X133385113Y-99551378D01*
X133392090Y-99552309D01*
X133399101Y-99551671D01*
X133399105Y-99551671D01*
X133541588Y-99538703D01*
X133572729Y-99535869D01*
X133579431Y-99533691D01*
X133579433Y-99533691D01*
X133738538Y-99481995D01*
X133738541Y-99481994D01*
X133745237Y-99479818D01*
X133863024Y-99409603D01*
X133894989Y-99390548D01*
X133894991Y-99390547D01*
X133901041Y-99386940D01*
X134032395Y-99261853D01*
X134132772Y-99110773D01*
X134197184Y-98941209D01*
X134198378Y-98932715D01*
X134221877Y-98765510D01*
X134221877Y-98765507D01*
X134222428Y-98761588D01*
X134222581Y-98750609D01*
X134222690Y-98742833D01*
X134222690Y-98742828D01*
X134222745Y-98738871D01*
X134202526Y-98558616D01*
X134192304Y-98529262D01*
X134145193Y-98393977D01*
X134145191Y-98393974D01*
X134142874Y-98387319D01*
X134113234Y-98339884D01*
X134050488Y-98239469D01*
X134046755Y-98233495D01*
X134019177Y-98205724D01*
X133923907Y-98109786D01*
X133923903Y-98109783D01*
X133918944Y-98104789D01*
X133902719Y-98094492D01*
X133826750Y-98046281D01*
X133765795Y-98007598D01*
X133725113Y-97993112D01*
X133712833Y-97988739D01*
X133655369Y-97947045D01*
X133629569Y-97880902D01*
X133629100Y-97870040D01*
X133629100Y-95271032D01*
X133629630Y-95259793D01*
X133631309Y-95252281D01*
X133629162Y-95183969D01*
X133629100Y-95180012D01*
X133629100Y-95152017D01*
X133628592Y-95147994D01*
X133627659Y-95136152D01*
X133626719Y-95106223D01*
X133626265Y-95091795D01*
X133620587Y-95072251D01*
X133616577Y-95052888D01*
X133615020Y-95040560D01*
X133615020Y-95040558D01*
X133614027Y-95032701D01*
X133611111Y-95025337D01*
X133611110Y-95025332D01*
X133597693Y-94991444D01*
X133593848Y-94980215D01*
X133586934Y-94956417D01*
X133581469Y-94937607D01*
X133577346Y-94930635D01*
X133571112Y-94920094D01*
X133562412Y-94902336D01*
X133557839Y-94890785D01*
X133557835Y-94890779D01*
X133554919Y-94883412D01*
X133550041Y-94876697D01*
X133528836Y-94847512D01*
X133522319Y-94837590D01*
X133503774Y-94806232D01*
X133503771Y-94806228D01*
X133499734Y-94799402D01*
X133485350Y-94785018D01*
X133472509Y-94769984D01*
X133465202Y-94759927D01*
X133460542Y-94753513D01*
X133426346Y-94725223D01*
X133417567Y-94717234D01*
X133323928Y-94623595D01*
X133289902Y-94561283D01*
X133294967Y-94490468D01*
X133337514Y-94433632D01*
X133404034Y-94408821D01*
X133413023Y-94408500D01*
X139029340Y-94408500D01*
X139097461Y-94428502D01*
X139143954Y-94482158D01*
X139154058Y-94552432D01*
X139147741Y-94577595D01*
X139091585Y-94731883D01*
X139086197Y-94746685D01*
X139063463Y-94926640D01*
X139081163Y-95107160D01*
X139138418Y-95279273D01*
X139142065Y-95285295D01*
X139142066Y-95285297D01*
X139223170Y-95419216D01*
X139232380Y-95434424D01*
X139358382Y-95564902D01*
X139364278Y-95568760D01*
X139496904Y-95655548D01*
X139510159Y-95664222D01*
X139516763Y-95666678D01*
X139516765Y-95666679D01*
X139595163Y-95695835D01*
X139680168Y-95727448D01*
X139687151Y-95728380D01*
X139687152Y-95728380D01*
X139738924Y-95735288D01*
X139803801Y-95764124D01*
X139811354Y-95771086D01*
X140728595Y-96688327D01*
X140762621Y-96750639D01*
X140765500Y-96777422D01*
X140765500Y-97442436D01*
X140745411Y-97510691D01*
X140672235Y-97624238D01*
X140669826Y-97630858D01*
X140669824Y-97630861D01*
X140615570Y-97779923D01*
X140610197Y-97794685D01*
X140587463Y-97974640D01*
X140605163Y-98155160D01*
X140662418Y-98327273D01*
X140666065Y-98333295D01*
X140666066Y-98333297D01*
X140678317Y-98353525D01*
X140756380Y-98482424D01*
X140761269Y-98487487D01*
X140761270Y-98487488D01*
X140829958Y-98558616D01*
X140882382Y-98612902D01*
X140888278Y-98616760D01*
X141020010Y-98702963D01*
X141034159Y-98712222D01*
X141040763Y-98714678D01*
X141040765Y-98714679D01*
X141197558Y-98772990D01*
X141197560Y-98772990D01*
X141204168Y-98775448D01*
X141287995Y-98786633D01*
X141376980Y-98798507D01*
X141376984Y-98798507D01*
X141383961Y-98799438D01*
X141390972Y-98798800D01*
X141390976Y-98798800D01*
X141533459Y-98785832D01*
X141564600Y-98782998D01*
X141571302Y-98780820D01*
X141571304Y-98780820D01*
X141730409Y-98729124D01*
X141730412Y-98729123D01*
X141737108Y-98726947D01*
X141892912Y-98634069D01*
X142024266Y-98508982D01*
X142124643Y-98357902D01*
X142172952Y-98230729D01*
X142186555Y-98194920D01*
X142186556Y-98194918D01*
X142189055Y-98188338D01*
X142191989Y-98167464D01*
X142213748Y-98012639D01*
X142213748Y-98012636D01*
X142214299Y-98008717D01*
X142214616Y-97986000D01*
X142194397Y-97805745D01*
X142192080Y-97799091D01*
X142137064Y-97641106D01*
X142137062Y-97641103D01*
X142134745Y-97634448D01*
X142055646Y-97507862D01*
X142036500Y-97441093D01*
X142036500Y-96541020D01*
X142037029Y-96529791D01*
X142038708Y-96522281D01*
X142036562Y-96454001D01*
X142036500Y-96450044D01*
X142036500Y-96422017D01*
X142035989Y-96417971D01*
X142035057Y-96406136D01*
X142033913Y-96369720D01*
X142033664Y-96361795D01*
X142031079Y-96352897D01*
X142027987Y-96342253D01*
X142023978Y-96322894D01*
X142023819Y-96321633D01*
X142021427Y-96302701D01*
X142018511Y-96295337D01*
X142018510Y-96295332D01*
X142005088Y-96261435D01*
X142001249Y-96250224D01*
X141988868Y-96207607D01*
X141978511Y-96190093D01*
X141969815Y-96172343D01*
X141965239Y-96160785D01*
X141965236Y-96160780D01*
X141962319Y-96153412D01*
X141936233Y-96117507D01*
X141929716Y-96107585D01*
X141911172Y-96076228D01*
X141911170Y-96076225D01*
X141907134Y-96069401D01*
X141892747Y-96055014D01*
X141879906Y-96039980D01*
X141872602Y-96029927D01*
X141867942Y-96023513D01*
X141859574Y-96016590D01*
X141833751Y-95995228D01*
X141824971Y-95987238D01*
X140711064Y-94873331D01*
X140677038Y-94811019D01*
X140674944Y-94798282D01*
X140671182Y-94764743D01*
X140671182Y-94764742D01*
X140670397Y-94757745D01*
X140666888Y-94747668D01*
X140613064Y-94593106D01*
X140613062Y-94593103D01*
X140610745Y-94586448D01*
X140610635Y-94586271D01*
X140599674Y-94518866D01*
X140627973Y-94453754D01*
X140686983Y-94414278D01*
X140724700Y-94408500D01*
X152255152Y-94408500D01*
X152323273Y-94428502D01*
X152369766Y-94482158D01*
X152379870Y-94552432D01*
X152350376Y-94617012D01*
X152344980Y-94622748D01*
X152340975Y-94625968D01*
X152337012Y-94630691D01*
X152308709Y-94664421D01*
X152305528Y-94668069D01*
X152303885Y-94669881D01*
X152301691Y-94672075D01*
X152274358Y-94705349D01*
X152273696Y-94706147D01*
X152213846Y-94777474D01*
X152211278Y-94782144D01*
X152207897Y-94786261D01*
X152197189Y-94806232D01*
X152164023Y-94868086D01*
X152163394Y-94869245D01*
X152121538Y-94945381D01*
X152121535Y-94945389D01*
X152118567Y-94950787D01*
X152116955Y-94955869D01*
X152114438Y-94960563D01*
X152087238Y-95049531D01*
X152086918Y-95050559D01*
X152058765Y-95139306D01*
X152058171Y-95144602D01*
X152056613Y-95149698D01*
X152047429Y-95240113D01*
X152047218Y-95242187D01*
X152047089Y-95243393D01*
X152041500Y-95293227D01*
X152041500Y-95296754D01*
X152041445Y-95297739D01*
X152040998Y-95303419D01*
X152036626Y-95346462D01*
X152037206Y-95352593D01*
X152040941Y-95392109D01*
X152041500Y-95403967D01*
X152041500Y-105836181D01*
X152040715Y-105850225D01*
X152036719Y-105885851D01*
X152037235Y-105891995D01*
X152041058Y-105937524D01*
X152041500Y-105948067D01*
X152041500Y-110061100D01*
X152021498Y-110129221D01*
X151967842Y-110175714D01*
X151915500Y-110187100D01*
X140696776Y-110187100D01*
X140677826Y-110185667D01*
X140663427Y-110183476D01*
X140663423Y-110183476D01*
X140656193Y-110182376D01*
X140648901Y-110182969D01*
X140648898Y-110182969D01*
X140603214Y-110186685D01*
X140593000Y-110187100D01*
X140584875Y-110187100D01*
X140581240Y-110187524D01*
X140581237Y-110187524D01*
X140563311Y-110189614D01*
X140556510Y-110190407D01*
X140552139Y-110190840D01*
X140478974Y-110196790D01*
X140472017Y-110199044D01*
X140466063Y-110200233D01*
X140460065Y-110201651D01*
X140452793Y-110202499D01*
X140383783Y-110227548D01*
X140379670Y-110228960D01*
X140361993Y-110234687D01*
X140316786Y-110249332D01*
X140316784Y-110249333D01*
X140309826Y-110251587D01*
X140303570Y-110255383D01*
X140298001Y-110257933D01*
X140292537Y-110260670D01*
X140285659Y-110263166D01*
X140224238Y-110303436D01*
X140220575Y-110305746D01*
X140157819Y-110343827D01*
X140149395Y-110351267D01*
X140149369Y-110351238D01*
X140146438Y-110353838D01*
X140143084Y-110356642D01*
X140136965Y-110360654D01*
X140084176Y-110416379D01*
X140083412Y-110417186D01*
X140081034Y-110419628D01*
X136123129Y-114377533D01*
X136100056Y-114395755D01*
X135953095Y-114486166D01*
X135953092Y-114486168D01*
X135947088Y-114489862D01*
X135942053Y-114494793D01*
X135942050Y-114494795D01*
X135822525Y-114611843D01*
X135817493Y-114616771D01*
X135719235Y-114769238D01*
X135657197Y-114939685D01*
X135634463Y-115119640D01*
X135652163Y-115300160D01*
X135709418Y-115472273D01*
X135713065Y-115478295D01*
X135713066Y-115478297D01*
X135731524Y-115508774D01*
X135803380Y-115627424D01*
X135929382Y-115757902D01*
X136081159Y-115857222D01*
X136087763Y-115859678D01*
X136087765Y-115859679D01*
X136244558Y-115917990D01*
X136244560Y-115917990D01*
X136251168Y-115920448D01*
X136334995Y-115931633D01*
X136423980Y-115943507D01*
X136423984Y-115943507D01*
X136430961Y-115944438D01*
X136437972Y-115943800D01*
X136437976Y-115943800D01*
X136580459Y-115930832D01*
X136611600Y-115927998D01*
X136618302Y-115925820D01*
X136618304Y-115925820D01*
X136777409Y-115874124D01*
X136777412Y-115874123D01*
X136784108Y-115871947D01*
X136939912Y-115779069D01*
X137071266Y-115653982D01*
X137171643Y-115502902D01*
X137174146Y-115496313D01*
X137177364Y-115490051D01*
X137178810Y-115490794D01*
X137201284Y-115456054D01*
X139162669Y-113494669D01*
X153642001Y-113494669D01*
X153642371Y-113501490D01*
X153647895Y-113552352D01*
X153651521Y-113567604D01*
X153696676Y-113688054D01*
X153705214Y-113703649D01*
X153781715Y-113805724D01*
X153794276Y-113818285D01*
X153896351Y-113894786D01*
X153911946Y-113903324D01*
X154032394Y-113948478D01*
X154047649Y-113952105D01*
X154098514Y-113957631D01*
X154105328Y-113958000D01*
X154727885Y-113958000D01*
X154743124Y-113953525D01*
X154744329Y-113952135D01*
X154746000Y-113944452D01*
X154746000Y-113939884D01*
X155254000Y-113939884D01*
X155258475Y-113955123D01*
X155259865Y-113956328D01*
X155267548Y-113957999D01*
X155894669Y-113957999D01*
X155901490Y-113957629D01*
X155952352Y-113952105D01*
X155967604Y-113948479D01*
X156088054Y-113903324D01*
X156103649Y-113894786D01*
X156205724Y-113818285D01*
X156218285Y-113805724D01*
X156294786Y-113703649D01*
X156303325Y-113688052D01*
X156344425Y-113578418D01*
X156387066Y-113521653D01*
X156453628Y-113496953D01*
X156522977Y-113512160D01*
X156557645Y-113540150D01*
X156583219Y-113569674D01*
X156590580Y-113576883D01*
X156754434Y-113712916D01*
X156762881Y-113718831D01*
X156946756Y-113826279D01*
X156956042Y-113830729D01*
X157155001Y-113906703D01*
X157164899Y-113909579D01*
X157268250Y-113930606D01*
X157282299Y-113929410D01*
X157286000Y-113919065D01*
X157286000Y-113918517D01*
X157794000Y-113918517D01*
X157798064Y-113932359D01*
X157811478Y-113934393D01*
X157818184Y-113933534D01*
X157828262Y-113931392D01*
X158032255Y-113870191D01*
X158041842Y-113866433D01*
X158233095Y-113772739D01*
X158241945Y-113767464D01*
X158415328Y-113643792D01*
X158423200Y-113637139D01*
X158574052Y-113486812D01*
X158580730Y-113478965D01*
X158708022Y-113301819D01*
X158709147Y-113302627D01*
X158756669Y-113258876D01*
X158826607Y-113246661D01*
X158892046Y-113274197D01*
X158919870Y-113306028D01*
X158977690Y-113400383D01*
X158983777Y-113408699D01*
X159123213Y-113569667D01*
X159130580Y-113576883D01*
X159294434Y-113712916D01*
X159302881Y-113718831D01*
X159486756Y-113826279D01*
X159496042Y-113830729D01*
X159695001Y-113906703D01*
X159704899Y-113909579D01*
X159808250Y-113930606D01*
X159822299Y-113929410D01*
X159826000Y-113919065D01*
X159826000Y-113918517D01*
X160334000Y-113918517D01*
X160338064Y-113932359D01*
X160351478Y-113934393D01*
X160358184Y-113933534D01*
X160368262Y-113931392D01*
X160572255Y-113870191D01*
X160581842Y-113866433D01*
X160773095Y-113772739D01*
X160781945Y-113767464D01*
X160955328Y-113643792D01*
X160963200Y-113637139D01*
X161114052Y-113486812D01*
X161120730Y-113478965D01*
X161245003Y-113306020D01*
X161250313Y-113297183D01*
X161344670Y-113106267D01*
X161348469Y-113096672D01*
X161410377Y-112892910D01*
X161412555Y-112882837D01*
X161413986Y-112871962D01*
X161411775Y-112857778D01*
X161398617Y-112854000D01*
X160352115Y-112854000D01*
X160336876Y-112858475D01*
X160335671Y-112859865D01*
X160334000Y-112867548D01*
X160334000Y-113918517D01*
X159826000Y-113918517D01*
X159826000Y-112872115D01*
X159821525Y-112856876D01*
X159820135Y-112855671D01*
X159812452Y-112854000D01*
X157812115Y-112854000D01*
X157796876Y-112858475D01*
X157795671Y-112859865D01*
X157794000Y-112867548D01*
X157794000Y-113918517D01*
X157286000Y-113918517D01*
X157286000Y-112872115D01*
X157281525Y-112856876D01*
X157280135Y-112855671D01*
X157272452Y-112854000D01*
X155272115Y-112854000D01*
X155256876Y-112858475D01*
X155255671Y-112859865D01*
X155254000Y-112867548D01*
X155254000Y-113939884D01*
X154746000Y-113939884D01*
X154746000Y-112872115D01*
X154741525Y-112856876D01*
X154740135Y-112855671D01*
X154732452Y-112854000D01*
X153660116Y-112854000D01*
X153644877Y-112858475D01*
X153643672Y-112859865D01*
X153642001Y-112867548D01*
X153642001Y-113494669D01*
X139162669Y-113494669D01*
X140908333Y-111749005D01*
X140970645Y-111714979D01*
X140997428Y-111712100D01*
X152344123Y-111712100D01*
X152412244Y-111732102D01*
X152424438Y-111741015D01*
X152446556Y-111759312D01*
X152483325Y-111789730D01*
X152657299Y-111883798D01*
X152846232Y-111942282D01*
X152852357Y-111942926D01*
X152852358Y-111942926D01*
X153036796Y-111962311D01*
X153036798Y-111962311D01*
X153042925Y-111962955D01*
X153125424Y-111955447D01*
X153233749Y-111945589D01*
X153233752Y-111945588D01*
X153239888Y-111945030D01*
X153245794Y-111943292D01*
X153245798Y-111943291D01*
X153350924Y-111912351D01*
X153429619Y-111889190D01*
X153435083Y-111886333D01*
X153435089Y-111886331D01*
X153457624Y-111874550D01*
X153527259Y-111860715D01*
X153593320Y-111886724D01*
X153634832Y-111944320D01*
X153642000Y-111986211D01*
X153642000Y-112327885D01*
X153646475Y-112343124D01*
X153647865Y-112344329D01*
X153655548Y-112346000D01*
X154727885Y-112346000D01*
X154743124Y-112341525D01*
X154744329Y-112340135D01*
X154746000Y-112332452D01*
X154746000Y-112327885D01*
X155254000Y-112327885D01*
X155258475Y-112343124D01*
X155259865Y-112344329D01*
X155267548Y-112346000D01*
X157267885Y-112346000D01*
X157283124Y-112341525D01*
X157284329Y-112340135D01*
X157286000Y-112332452D01*
X157286000Y-112327885D01*
X157794000Y-112327885D01*
X157798475Y-112343124D01*
X157799865Y-112344329D01*
X157807548Y-112346000D01*
X159807885Y-112346000D01*
X159823124Y-112341525D01*
X159824329Y-112340135D01*
X159826000Y-112332452D01*
X159826000Y-112327885D01*
X160334000Y-112327885D01*
X160338475Y-112343124D01*
X160339865Y-112344329D01*
X160347548Y-112346000D01*
X161398344Y-112346000D01*
X161411875Y-112342027D01*
X161413180Y-112332947D01*
X161371214Y-112165875D01*
X161367894Y-112156124D01*
X161282972Y-111960814D01*
X161278105Y-111951739D01*
X161162426Y-111772926D01*
X161156136Y-111764757D01*
X161012806Y-111607240D01*
X161005273Y-111600215D01*
X160838139Y-111468222D01*
X160829552Y-111462517D01*
X160643117Y-111359599D01*
X160633705Y-111355369D01*
X160432959Y-111284280D01*
X160422988Y-111281646D01*
X160351837Y-111268972D01*
X160338540Y-111270432D01*
X160334000Y-111284989D01*
X160334000Y-112327885D01*
X159826000Y-112327885D01*
X159826000Y-111283102D01*
X159822082Y-111269758D01*
X159807806Y-111267771D01*
X159769324Y-111273660D01*
X159759288Y-111276051D01*
X159556868Y-111342212D01*
X159547359Y-111346209D01*
X159358463Y-111444542D01*
X159349738Y-111450036D01*
X159179433Y-111577905D01*
X159171726Y-111584748D01*
X159024590Y-111738717D01*
X159018104Y-111746727D01*
X158913193Y-111900521D01*
X158858282Y-111945524D01*
X158787757Y-111953695D01*
X158724010Y-111922441D01*
X158703313Y-111897957D01*
X158622427Y-111772926D01*
X158616136Y-111764757D01*
X158472806Y-111607240D01*
X158465273Y-111600215D01*
X158298139Y-111468222D01*
X158289552Y-111462517D01*
X158103117Y-111359599D01*
X158093705Y-111355369D01*
X157892959Y-111284280D01*
X157882988Y-111281646D01*
X157811837Y-111268972D01*
X157798540Y-111270432D01*
X157794000Y-111284989D01*
X157794000Y-112327885D01*
X157286000Y-112327885D01*
X157286000Y-111283102D01*
X157282082Y-111269758D01*
X157267806Y-111267771D01*
X157229324Y-111273660D01*
X157219288Y-111276051D01*
X157016868Y-111342212D01*
X157007359Y-111346209D01*
X156818463Y-111444542D01*
X156809738Y-111450036D01*
X156639433Y-111577905D01*
X156631726Y-111584748D01*
X156554094Y-111665985D01*
X156492570Y-111701415D01*
X156421657Y-111697958D01*
X156363871Y-111656712D01*
X156345018Y-111623164D01*
X156303324Y-111511946D01*
X156294786Y-111496351D01*
X156218285Y-111394276D01*
X156205724Y-111381715D01*
X156103649Y-111305214D01*
X156088054Y-111296676D01*
X155967606Y-111251522D01*
X155952351Y-111247895D01*
X155901486Y-111242369D01*
X155894672Y-111242000D01*
X155272115Y-111242000D01*
X155256876Y-111246475D01*
X155255671Y-111247865D01*
X155254000Y-111255548D01*
X155254000Y-112327885D01*
X154746000Y-112327885D01*
X154746000Y-111260116D01*
X154741525Y-111244877D01*
X154740135Y-111243672D01*
X154732452Y-111242001D01*
X154172994Y-111242001D01*
X154104873Y-111221999D01*
X154058380Y-111168343D01*
X154047779Y-111101956D01*
X154058107Y-111009873D01*
X154058500Y-111006373D01*
X154058500Y-110484500D01*
X154078502Y-110416379D01*
X154132158Y-110369886D01*
X154184500Y-110358500D01*
X155898134Y-110358500D01*
X155960316Y-110351745D01*
X156096705Y-110300615D01*
X156213261Y-110213261D01*
X156300615Y-110096705D01*
X156316170Y-110055213D01*
X156344598Y-109979382D01*
X156387240Y-109922618D01*
X156453802Y-109897918D01*
X156523150Y-109913126D01*
X156557817Y-109941114D01*
X156586250Y-109973938D01*
X156758126Y-110116632D01*
X156951000Y-110229338D01*
X156955825Y-110231180D01*
X156955826Y-110231181D01*
X157003359Y-110249332D01*
X157159692Y-110309030D01*
X157164760Y-110310061D01*
X157164763Y-110310062D01*
X157254903Y-110328401D01*
X157378597Y-110353567D01*
X157383772Y-110353757D01*
X157383774Y-110353757D01*
X157596673Y-110361564D01*
X157596677Y-110361564D01*
X157601837Y-110361753D01*
X157606957Y-110361097D01*
X157606959Y-110361097D01*
X157818288Y-110334025D01*
X157818289Y-110334025D01*
X157823416Y-110333368D01*
X157839972Y-110328401D01*
X158032429Y-110270661D01*
X158032434Y-110270659D01*
X158037384Y-110269174D01*
X158237994Y-110170896D01*
X158419860Y-110041173D01*
X158424543Y-110036507D01*
X158563616Y-109897918D01*
X158578096Y-109883489D01*
X158582804Y-109876938D01*
X158708453Y-109702077D01*
X158709776Y-109703028D01*
X158756645Y-109659857D01*
X158826580Y-109647625D01*
X158892026Y-109675144D01*
X158919875Y-109706994D01*
X158922937Y-109711990D01*
X158979987Y-109805088D01*
X159126250Y-109973938D01*
X159298126Y-110116632D01*
X159491000Y-110229338D01*
X159495825Y-110231180D01*
X159495826Y-110231181D01*
X159543359Y-110249332D01*
X159699692Y-110309030D01*
X159704760Y-110310061D01*
X159704763Y-110310062D01*
X159794903Y-110328401D01*
X159918597Y-110353567D01*
X159923772Y-110353757D01*
X159923774Y-110353757D01*
X160136673Y-110361564D01*
X160136677Y-110361564D01*
X160141837Y-110361753D01*
X160146957Y-110361097D01*
X160146959Y-110361097D01*
X160358288Y-110334025D01*
X160358289Y-110334025D01*
X160363416Y-110333368D01*
X160379972Y-110328401D01*
X160572429Y-110270661D01*
X160572434Y-110270659D01*
X160577384Y-110269174D01*
X160777994Y-110170896D01*
X160959860Y-110041173D01*
X160964543Y-110036507D01*
X161103616Y-109897918D01*
X161118096Y-109883489D01*
X161122804Y-109876938D01*
X161245435Y-109706277D01*
X161248453Y-109702077D01*
X161252361Y-109694171D01*
X161345136Y-109506453D01*
X161345137Y-109506451D01*
X161347430Y-109501811D01*
X161394332Y-109347438D01*
X161410865Y-109293023D01*
X161410865Y-109293021D01*
X161412370Y-109288069D01*
X161441529Y-109066590D01*
X161442573Y-109023857D01*
X161443074Y-109003365D01*
X161443074Y-109003361D01*
X161443156Y-109000000D01*
X161424852Y-108777361D01*
X161370431Y-108560702D01*
X161281354Y-108355840D01*
X161170378Y-108184297D01*
X161162822Y-108172617D01*
X161162820Y-108172614D01*
X161160014Y-108168277D01*
X161009670Y-108003051D01*
X161005619Y-107999852D01*
X161005615Y-107999848D01*
X160838414Y-107867800D01*
X160838410Y-107867798D01*
X160834359Y-107864598D01*
X160638789Y-107756638D01*
X160633920Y-107754914D01*
X160633916Y-107754912D01*
X160433087Y-107683795D01*
X160433083Y-107683794D01*
X160428212Y-107682069D01*
X160423119Y-107681162D01*
X160423116Y-107681161D01*
X160213373Y-107643800D01*
X160213367Y-107643799D01*
X160208284Y-107642894D01*
X160134452Y-107641992D01*
X159990081Y-107640228D01*
X159990079Y-107640228D01*
X159984911Y-107640165D01*
X159764091Y-107673955D01*
X159551756Y-107743357D01*
X159353607Y-107846507D01*
X159349474Y-107849610D01*
X159349471Y-107849612D01*
X159179100Y-107977530D01*
X159174965Y-107980635D01*
X159118536Y-108039684D01*
X159063729Y-108097037D01*
X159020629Y-108142138D01*
X158913201Y-108299621D01*
X158858293Y-108344621D01*
X158787768Y-108352792D01*
X158724021Y-108321538D01*
X158703324Y-108297054D01*
X158622822Y-108172617D01*
X158622820Y-108172614D01*
X158620014Y-108168277D01*
X158469670Y-108003051D01*
X158465619Y-107999852D01*
X158465615Y-107999848D01*
X158298414Y-107867800D01*
X158298410Y-107867798D01*
X158294359Y-107864598D01*
X158098789Y-107756638D01*
X158093920Y-107754914D01*
X158093916Y-107754912D01*
X157893087Y-107683795D01*
X157893083Y-107683794D01*
X157888212Y-107682069D01*
X157883119Y-107681162D01*
X157883116Y-107681161D01*
X157673373Y-107643800D01*
X157673367Y-107643799D01*
X157668284Y-107642894D01*
X157594452Y-107641992D01*
X157450081Y-107640228D01*
X157450079Y-107640228D01*
X157444911Y-107640165D01*
X157224091Y-107673955D01*
X157011756Y-107743357D01*
X156813607Y-107846507D01*
X156809474Y-107849610D01*
X156809471Y-107849612D01*
X156639100Y-107977530D01*
X156634965Y-107980635D01*
X156578537Y-108039684D01*
X156554283Y-108065064D01*
X156492759Y-108100494D01*
X156421846Y-108097037D01*
X156364060Y-108055791D01*
X156345207Y-108022243D01*
X156303767Y-107911703D01*
X156300615Y-107903295D01*
X156213261Y-107786739D01*
X156096705Y-107699385D01*
X155960316Y-107648255D01*
X155898134Y-107641500D01*
X154184500Y-107641500D01*
X154116379Y-107621498D01*
X154069886Y-107567842D01*
X154058500Y-107515500D01*
X154058500Y-106806399D01*
X175120712Y-106806399D01*
X175142194Y-106895537D01*
X175146083Y-106906832D01*
X175228629Y-107088382D01*
X175234576Y-107098724D01*
X175349968Y-107261397D01*
X175357761Y-107270425D01*
X175501831Y-107408342D01*
X175511196Y-107415738D01*
X175678741Y-107523921D01*
X175689345Y-107529417D01*
X175874312Y-107603961D01*
X175885770Y-107607355D01*
X176082928Y-107645857D01*
X176091791Y-107646934D01*
X176094500Y-107647000D01*
X176273885Y-107647000D01*
X176289124Y-107642525D01*
X176290329Y-107641135D01*
X176292000Y-107633452D01*
X176292000Y-106811115D01*
X176287525Y-106795876D01*
X176286135Y-106794671D01*
X176278452Y-106793000D01*
X175135598Y-106793000D01*
X175122067Y-106796973D01*
X175120712Y-106806399D01*
X154058500Y-106806399D01*
X154058500Y-106421211D01*
X173178344Y-106421211D01*
X173187640Y-106433226D01*
X173222637Y-106457731D01*
X173232132Y-106463214D01*
X173417696Y-106549744D01*
X173427988Y-106553490D01*
X173625759Y-106606482D01*
X173636554Y-106608385D01*
X173840525Y-106626231D01*
X173851475Y-106626231D01*
X174055446Y-106608385D01*
X174066241Y-106606482D01*
X174264012Y-106553490D01*
X174274304Y-106549744D01*
X174459868Y-106463214D01*
X174469363Y-106457731D01*
X174505197Y-106432640D01*
X174513573Y-106422161D01*
X174506505Y-106408715D01*
X174368506Y-106270716D01*
X175116352Y-106270716D01*
X175117820Y-106281008D01*
X175131385Y-106285000D01*
X176273885Y-106285000D01*
X176289124Y-106280525D01*
X176290329Y-106279135D01*
X176292000Y-106271452D01*
X176292000Y-105449115D01*
X176287525Y-105433876D01*
X176286135Y-105432671D01*
X176278452Y-105431000D01*
X176146168Y-105431000D01*
X176140192Y-105431285D01*
X175991506Y-105445471D01*
X175979772Y-105447730D01*
X175788401Y-105503872D01*
X175777325Y-105508302D01*
X175600022Y-105599619D01*
X175589976Y-105606069D01*
X175433143Y-105729262D01*
X175424494Y-105737499D01*
X175293788Y-105888123D01*
X175286853Y-105897847D01*
X175186990Y-106070467D01*
X175182016Y-106081331D01*
X175116593Y-106269727D01*
X175116352Y-106270716D01*
X174368506Y-106270716D01*
X173858812Y-105761022D01*
X173844868Y-105753408D01*
X173843035Y-105753539D01*
X173836420Y-105757790D01*
X173184774Y-106409436D01*
X173178344Y-106421211D01*
X154058500Y-106421211D01*
X154058500Y-105971722D01*
X154059492Y-105955944D01*
X154062985Y-105928295D01*
X154063380Y-105900000D01*
X154059101Y-105856360D01*
X154058500Y-105844064D01*
X154058500Y-105018887D01*
X164161837Y-105018887D01*
X164176063Y-105235933D01*
X164177484Y-105241529D01*
X164177485Y-105241534D01*
X164225469Y-105430468D01*
X164229605Y-105446753D01*
X164320668Y-105644285D01*
X164324001Y-105649001D01*
X164400886Y-105757790D01*
X164446204Y-105821914D01*
X164450346Y-105825949D01*
X164468082Y-105843227D01*
X164602009Y-105973692D01*
X164606813Y-105976902D01*
X164659884Y-106012363D01*
X164782863Y-106094536D01*
X164788171Y-106096817D01*
X164788172Y-106096817D01*
X164977409Y-106178119D01*
X164977412Y-106178120D01*
X164982712Y-106180397D01*
X164988342Y-106181671D01*
X165086464Y-106203874D01*
X165194860Y-106228402D01*
X165200631Y-106228629D01*
X165200633Y-106228629D01*
X165273620Y-106231496D01*
X165412205Y-106236941D01*
X165627466Y-106205730D01*
X165632930Y-106203875D01*
X165632935Y-106203874D01*
X165827963Y-106137671D01*
X165827968Y-106137669D01*
X165833435Y-106135813D01*
X166023213Y-106029532D01*
X166190446Y-105890446D01*
X166329532Y-105723213D01*
X166435813Y-105533435D01*
X166437669Y-105527968D01*
X166437671Y-105527963D01*
X166503874Y-105332935D01*
X166503875Y-105332930D01*
X166505730Y-105327466D01*
X166536941Y-105112205D01*
X166538570Y-105050000D01*
X166535711Y-105018887D01*
X168661837Y-105018887D01*
X168676063Y-105235933D01*
X168677484Y-105241529D01*
X168677485Y-105241534D01*
X168725469Y-105430468D01*
X168729605Y-105446753D01*
X168820668Y-105644285D01*
X168824001Y-105649001D01*
X168900886Y-105757790D01*
X168946204Y-105821914D01*
X168950346Y-105825949D01*
X168968082Y-105843227D01*
X169102009Y-105973692D01*
X169106813Y-105976902D01*
X169159884Y-106012363D01*
X169282863Y-106094536D01*
X169288171Y-106096817D01*
X169288172Y-106096817D01*
X169477409Y-106178119D01*
X169477412Y-106178120D01*
X169482712Y-106180397D01*
X169488342Y-106181671D01*
X169586464Y-106203874D01*
X169694860Y-106228402D01*
X169700631Y-106228629D01*
X169700633Y-106228629D01*
X169773620Y-106231496D01*
X169912205Y-106236941D01*
X170127466Y-106205730D01*
X170132930Y-106203875D01*
X170132935Y-106203874D01*
X170327963Y-106137671D01*
X170327968Y-106137669D01*
X170333435Y-106135813D01*
X170523213Y-106029532D01*
X170690446Y-105890446D01*
X170829532Y-105723213D01*
X170935813Y-105533435D01*
X170937669Y-105527968D01*
X170937671Y-105527963D01*
X170982984Y-105394475D01*
X172608769Y-105394475D01*
X172626615Y-105598446D01*
X172628518Y-105609241D01*
X172681510Y-105807012D01*
X172685256Y-105817304D01*
X172771786Y-106002868D01*
X172777269Y-106012363D01*
X172802360Y-106048197D01*
X172812839Y-106056573D01*
X172826285Y-106049505D01*
X173473978Y-105401812D01*
X173480356Y-105390132D01*
X174210408Y-105390132D01*
X174210539Y-105391965D01*
X174214790Y-105398580D01*
X174866436Y-106050226D01*
X174878211Y-106056656D01*
X174890226Y-106047360D01*
X174914731Y-106012363D01*
X174920214Y-106002868D01*
X175006744Y-105817304D01*
X175010490Y-105807012D01*
X175063482Y-105609241D01*
X175065385Y-105598446D01*
X175083231Y-105394475D01*
X175083231Y-105383525D01*
X175065385Y-105179554D01*
X175063482Y-105168759D01*
X175010490Y-104970988D01*
X175006744Y-104960696D01*
X174920214Y-104775132D01*
X174914731Y-104765637D01*
X174889640Y-104729803D01*
X174879161Y-104721427D01*
X174865715Y-104728495D01*
X174218022Y-105376188D01*
X174210408Y-105390132D01*
X173480356Y-105390132D01*
X173481592Y-105387868D01*
X173481461Y-105386035D01*
X173477210Y-105379420D01*
X172825564Y-104727774D01*
X172813789Y-104721344D01*
X172801774Y-104730640D01*
X172777269Y-104765637D01*
X172771786Y-104775132D01*
X172685256Y-104960696D01*
X172681510Y-104970988D01*
X172628518Y-105168759D01*
X172626615Y-105179554D01*
X172608769Y-105383525D01*
X172608769Y-105394475D01*
X170982984Y-105394475D01*
X171003874Y-105332935D01*
X171003875Y-105332930D01*
X171005730Y-105327466D01*
X171036941Y-105112205D01*
X171038570Y-105050000D01*
X171018667Y-104833400D01*
X170959626Y-104624055D01*
X170863423Y-104428974D01*
X170808811Y-104355839D01*
X173178427Y-104355839D01*
X173185495Y-104369285D01*
X173833188Y-105016978D01*
X173847132Y-105024592D01*
X173848965Y-105024461D01*
X173855580Y-105020210D01*
X174507226Y-104368564D01*
X174513656Y-104356789D01*
X174504360Y-104344774D01*
X174469363Y-104320269D01*
X174459868Y-104314786D01*
X174274304Y-104228256D01*
X174264012Y-104224510D01*
X174066241Y-104171518D01*
X174055446Y-104169615D01*
X173851475Y-104151769D01*
X173840525Y-104151769D01*
X173636554Y-104169615D01*
X173625759Y-104171518D01*
X173427988Y-104224510D01*
X173417696Y-104228256D01*
X173232132Y-104314786D01*
X173222637Y-104320269D01*
X173186803Y-104345360D01*
X173178427Y-104355839D01*
X170808811Y-104355839D01*
X170749935Y-104276994D01*
X170736733Y-104259315D01*
X170736732Y-104259314D01*
X170733280Y-104254691D01*
X170700631Y-104224510D01*
X170611078Y-104141729D01*
X170574633Y-104080800D01*
X170576914Y-104009840D01*
X170616038Y-103952330D01*
X170620270Y-103948811D01*
X170690446Y-103890446D01*
X170829532Y-103723213D01*
X170935813Y-103533435D01*
X170937669Y-103527968D01*
X170937671Y-103527963D01*
X171003874Y-103332935D01*
X171003875Y-103332930D01*
X171005730Y-103327466D01*
X171036941Y-103112205D01*
X171038570Y-103050000D01*
X171018667Y-102833400D01*
X171014346Y-102818077D01*
X170971979Y-102667856D01*
X170959626Y-102624055D01*
X170896134Y-102495305D01*
X170865978Y-102434155D01*
X170863423Y-102428974D01*
X170854114Y-102416507D01*
X170736733Y-102259315D01*
X170736732Y-102259314D01*
X170733280Y-102254691D01*
X170722399Y-102244632D01*
X170611078Y-102141729D01*
X170574633Y-102080800D01*
X170576914Y-102009840D01*
X170616038Y-101952330D01*
X170621037Y-101948173D01*
X170690446Y-101890446D01*
X170829532Y-101723213D01*
X170935813Y-101533435D01*
X170937669Y-101527968D01*
X170937671Y-101527963D01*
X170939963Y-101521211D01*
X173178344Y-101521211D01*
X173187640Y-101533226D01*
X173222637Y-101557731D01*
X173232132Y-101563214D01*
X173417696Y-101649744D01*
X173427988Y-101653490D01*
X173625759Y-101706482D01*
X173636554Y-101708385D01*
X173840525Y-101726231D01*
X173851475Y-101726231D01*
X174055446Y-101708385D01*
X174066241Y-101706482D01*
X174264012Y-101653490D01*
X174274304Y-101649744D01*
X174459868Y-101563214D01*
X174469363Y-101557731D01*
X174505197Y-101532640D01*
X174513573Y-101522161D01*
X174506505Y-101508715D01*
X173858812Y-100861022D01*
X173844868Y-100853408D01*
X173843035Y-100853539D01*
X173836420Y-100857790D01*
X173184774Y-101509436D01*
X173178344Y-101521211D01*
X170939963Y-101521211D01*
X171003874Y-101332935D01*
X171003875Y-101332930D01*
X171005730Y-101327466D01*
X171036941Y-101112205D01*
X171038570Y-101050000D01*
X171018667Y-100833400D01*
X170959626Y-100624055D01*
X170895724Y-100494475D01*
X172608769Y-100494475D01*
X172626615Y-100698446D01*
X172628518Y-100709241D01*
X172681510Y-100907012D01*
X172685256Y-100917304D01*
X172771786Y-101102868D01*
X172777269Y-101112363D01*
X172802360Y-101148197D01*
X172812839Y-101156573D01*
X172826285Y-101149505D01*
X173473978Y-100501812D01*
X173480356Y-100490132D01*
X174210408Y-100490132D01*
X174210539Y-100491965D01*
X174214790Y-100498580D01*
X174866436Y-101150226D01*
X174878211Y-101156656D01*
X174890226Y-101147360D01*
X174914731Y-101112363D01*
X174920214Y-101102868D01*
X175006744Y-100917304D01*
X175010490Y-100907012D01*
X175063482Y-100709241D01*
X175065385Y-100698446D01*
X175083231Y-100494475D01*
X175083231Y-100483525D01*
X175065385Y-100279554D01*
X175063482Y-100268759D01*
X175010490Y-100070988D01*
X175006744Y-100060696D01*
X174920214Y-99875132D01*
X174914731Y-99865637D01*
X174889640Y-99829803D01*
X174879161Y-99821427D01*
X174865715Y-99828495D01*
X174218022Y-100476188D01*
X174210408Y-100490132D01*
X173480356Y-100490132D01*
X173481592Y-100487868D01*
X173481461Y-100486035D01*
X173477210Y-100479420D01*
X172825564Y-99827774D01*
X172813789Y-99821344D01*
X172801774Y-99830640D01*
X172777269Y-99865637D01*
X172771786Y-99875132D01*
X172685256Y-100060696D01*
X172681510Y-100070988D01*
X172628518Y-100268759D01*
X172626615Y-100279554D01*
X172608769Y-100483525D01*
X172608769Y-100494475D01*
X170895724Y-100494475D01*
X170863423Y-100428974D01*
X170822469Y-100374129D01*
X170736733Y-100259315D01*
X170736732Y-100259314D01*
X170733280Y-100254691D01*
X170729044Y-100250775D01*
X170577796Y-100110963D01*
X170577793Y-100110961D01*
X170573556Y-100107044D01*
X170389599Y-99990976D01*
X170187572Y-99910376D01*
X169974239Y-99867941D01*
X169968464Y-99867865D01*
X169968460Y-99867865D01*
X169859419Y-99866438D01*
X169756746Y-99865094D01*
X169751049Y-99866073D01*
X169751048Y-99866073D01*
X169548065Y-99900952D01*
X169548062Y-99900953D01*
X169542375Y-99901930D01*
X169338307Y-99977214D01*
X169151376Y-100088427D01*
X168987842Y-100231842D01*
X168984270Y-100236373D01*
X168860077Y-100393911D01*
X168853181Y-100402658D01*
X168850493Y-100407767D01*
X168829852Y-100447000D01*
X168751905Y-100595154D01*
X168750192Y-100600671D01*
X168716480Y-100709241D01*
X168687403Y-100802882D01*
X168661837Y-101018887D01*
X168676063Y-101235933D01*
X168677484Y-101241529D01*
X168677485Y-101241534D01*
X168727290Y-101437639D01*
X168729605Y-101446753D01*
X168820668Y-101644285D01*
X168844230Y-101677625D01*
X168911730Y-101773134D01*
X168946204Y-101821914D01*
X168950346Y-101825949D01*
X168959962Y-101835316D01*
X169078891Y-101951171D01*
X169089741Y-101961741D01*
X169124579Y-102023602D01*
X169120442Y-102094478D01*
X169084899Y-102146726D01*
X168987842Y-102231842D01*
X168984270Y-102236373D01*
X168885735Y-102361364D01*
X168853181Y-102402658D01*
X168850493Y-102407767D01*
X168844261Y-102419612D01*
X168751905Y-102595154D01*
X168750192Y-102600671D01*
X168694922Y-102778668D01*
X168687403Y-102802882D01*
X168661837Y-103018887D01*
X168676063Y-103235933D01*
X168677484Y-103241529D01*
X168677485Y-103241534D01*
X168722832Y-103420084D01*
X168729605Y-103446753D01*
X168732022Y-103451996D01*
X168815576Y-103633240D01*
X168820668Y-103644285D01*
X168946204Y-103821914D01*
X168950346Y-103825949D01*
X169089741Y-103961741D01*
X169124579Y-104023602D01*
X169120442Y-104094478D01*
X169084899Y-104146726D01*
X168987842Y-104231842D01*
X168984270Y-104236373D01*
X168874916Y-104375088D01*
X168853181Y-104402658D01*
X168850493Y-104407767D01*
X168810107Y-104484529D01*
X168751905Y-104595154D01*
X168750192Y-104600671D01*
X168692586Y-104786191D01*
X168687403Y-104802882D01*
X168661837Y-105018887D01*
X166535711Y-105018887D01*
X166518667Y-104833400D01*
X166459626Y-104624055D01*
X166363423Y-104428974D01*
X166249935Y-104276994D01*
X166236733Y-104259315D01*
X166236732Y-104259314D01*
X166233280Y-104254691D01*
X166200631Y-104224510D01*
X166111078Y-104141729D01*
X166074633Y-104080800D01*
X166076914Y-104009840D01*
X166116038Y-103952330D01*
X166120270Y-103948811D01*
X166190446Y-103890446D01*
X166329532Y-103723213D01*
X166435813Y-103533435D01*
X166437669Y-103527968D01*
X166437671Y-103527963D01*
X166503874Y-103332935D01*
X166503875Y-103332930D01*
X166505730Y-103327466D01*
X166536941Y-103112205D01*
X166538570Y-103050000D01*
X166518667Y-102833400D01*
X166514346Y-102818077D01*
X166471979Y-102667856D01*
X166459626Y-102624055D01*
X166396134Y-102495305D01*
X166365978Y-102434155D01*
X166363423Y-102428974D01*
X166354114Y-102416507D01*
X166284465Y-102323236D01*
X166259733Y-102256686D01*
X166274907Y-102187330D01*
X166309858Y-102147021D01*
X166381080Y-102093643D01*
X166381081Y-102093642D01*
X166388261Y-102088261D01*
X166475615Y-101971705D01*
X166526745Y-101835316D01*
X166533500Y-101773134D01*
X166533500Y-100326866D01*
X166526745Y-100264684D01*
X166475615Y-100128295D01*
X166388261Y-100011739D01*
X166271705Y-99924385D01*
X166135316Y-99873255D01*
X166073134Y-99866500D01*
X164626866Y-99866500D01*
X164564684Y-99873255D01*
X164428295Y-99924385D01*
X164311739Y-100011739D01*
X164224385Y-100128295D01*
X164173255Y-100264684D01*
X164166500Y-100326866D01*
X164166500Y-101773134D01*
X164173255Y-101835316D01*
X164224385Y-101971705D01*
X164311739Y-102088261D01*
X164383081Y-102141729D01*
X164390269Y-102147116D01*
X164432784Y-102203975D01*
X164437810Y-102274794D01*
X164413654Y-102325948D01*
X164373669Y-102376669D01*
X164353181Y-102402658D01*
X164350493Y-102407767D01*
X164344261Y-102419612D01*
X164251905Y-102595154D01*
X164250192Y-102600671D01*
X164194922Y-102778668D01*
X164187403Y-102802882D01*
X164161837Y-103018887D01*
X164176063Y-103235933D01*
X164177484Y-103241529D01*
X164177485Y-103241534D01*
X164222832Y-103420084D01*
X164229605Y-103446753D01*
X164232022Y-103451996D01*
X164315576Y-103633240D01*
X164320668Y-103644285D01*
X164446204Y-103821914D01*
X164450346Y-103825949D01*
X164589741Y-103961741D01*
X164624579Y-104023602D01*
X164620442Y-104094478D01*
X164584899Y-104146726D01*
X164487842Y-104231842D01*
X164484270Y-104236373D01*
X164374916Y-104375088D01*
X164353181Y-104402658D01*
X164350493Y-104407767D01*
X164310107Y-104484529D01*
X164251905Y-104595154D01*
X164250192Y-104600671D01*
X164192586Y-104786191D01*
X164187403Y-104802882D01*
X164161837Y-105018887D01*
X154058500Y-105018887D01*
X154058500Y-99455839D01*
X173178427Y-99455839D01*
X173185495Y-99469285D01*
X173833188Y-100116978D01*
X173847132Y-100124592D01*
X173848965Y-100124461D01*
X173855580Y-100120210D01*
X174369391Y-99606399D01*
X175120712Y-99606399D01*
X175142194Y-99695537D01*
X175146083Y-99706832D01*
X175228629Y-99888382D01*
X175234576Y-99898724D01*
X175349968Y-100061397D01*
X175357761Y-100070425D01*
X175501831Y-100208342D01*
X175511196Y-100215738D01*
X175678741Y-100323921D01*
X175689345Y-100329417D01*
X175874312Y-100403961D01*
X175885770Y-100407355D01*
X176082928Y-100445857D01*
X176091791Y-100446934D01*
X176094500Y-100447000D01*
X176273885Y-100447000D01*
X176289124Y-100442525D01*
X176290329Y-100441135D01*
X176292000Y-100433452D01*
X176292000Y-99611115D01*
X176287525Y-99595876D01*
X176286135Y-99594671D01*
X176278452Y-99593000D01*
X175135598Y-99593000D01*
X175122067Y-99596973D01*
X175120712Y-99606399D01*
X174369391Y-99606399D01*
X174507226Y-99468564D01*
X174513656Y-99456789D01*
X174504360Y-99444774D01*
X174469363Y-99420269D01*
X174459868Y-99414786D01*
X174274304Y-99328256D01*
X174264012Y-99324510D01*
X174066241Y-99271518D01*
X174055446Y-99269615D01*
X173851475Y-99251769D01*
X173840525Y-99251769D01*
X173636554Y-99269615D01*
X173625759Y-99271518D01*
X173427988Y-99324510D01*
X173417696Y-99328256D01*
X173232132Y-99414786D01*
X173222637Y-99420269D01*
X173186803Y-99445360D01*
X173178427Y-99455839D01*
X154058500Y-99455839D01*
X154058500Y-99070716D01*
X175116352Y-99070716D01*
X175117820Y-99081008D01*
X175131385Y-99085000D01*
X176273885Y-99085000D01*
X176289124Y-99080525D01*
X176290329Y-99079135D01*
X176292000Y-99071452D01*
X176292000Y-98249115D01*
X176287525Y-98233876D01*
X176286135Y-98232671D01*
X176278452Y-98231000D01*
X176146168Y-98231000D01*
X176140192Y-98231285D01*
X175991506Y-98245471D01*
X175979772Y-98247730D01*
X175788401Y-98303872D01*
X175777325Y-98308302D01*
X175600022Y-98399619D01*
X175589976Y-98406069D01*
X175433143Y-98529262D01*
X175424494Y-98537499D01*
X175293788Y-98688123D01*
X175286853Y-98697847D01*
X175186990Y-98870467D01*
X175182016Y-98881331D01*
X175116593Y-99069727D01*
X175116352Y-99070716D01*
X154058500Y-99070716D01*
X154058500Y-98484000D01*
X154078502Y-98415879D01*
X154132158Y-98369386D01*
X154184500Y-98358000D01*
X154727885Y-98358000D01*
X154743124Y-98353525D01*
X154744329Y-98352135D01*
X154746000Y-98344452D01*
X154746000Y-98339884D01*
X155254000Y-98339884D01*
X155258475Y-98355123D01*
X155259865Y-98356328D01*
X155267548Y-98357999D01*
X155894669Y-98357999D01*
X155901490Y-98357629D01*
X155952352Y-98352105D01*
X155967604Y-98348479D01*
X156088054Y-98303324D01*
X156103649Y-98294786D01*
X156205724Y-98218285D01*
X156218285Y-98205724D01*
X156294786Y-98103649D01*
X156303325Y-98088052D01*
X156344425Y-97978418D01*
X156387066Y-97921653D01*
X156453628Y-97896953D01*
X156522977Y-97912160D01*
X156557645Y-97940150D01*
X156583219Y-97969674D01*
X156590580Y-97976883D01*
X156754434Y-98112916D01*
X156762881Y-98118831D01*
X156946756Y-98226279D01*
X156956042Y-98230729D01*
X157155001Y-98306703D01*
X157164899Y-98309579D01*
X157268250Y-98330606D01*
X157282299Y-98329410D01*
X157286000Y-98319065D01*
X157286000Y-98318517D01*
X157794000Y-98318517D01*
X157798064Y-98332359D01*
X157811478Y-98334393D01*
X157818184Y-98333534D01*
X157828262Y-98331392D01*
X158032255Y-98270191D01*
X158041842Y-98266433D01*
X158233095Y-98172739D01*
X158241945Y-98167464D01*
X158415328Y-98043792D01*
X158423200Y-98037139D01*
X158574052Y-97886812D01*
X158580730Y-97878965D01*
X158708022Y-97701819D01*
X158709147Y-97702627D01*
X158756669Y-97658876D01*
X158826607Y-97646661D01*
X158892046Y-97674197D01*
X158919870Y-97706028D01*
X158977690Y-97800383D01*
X158983777Y-97808699D01*
X159123213Y-97969667D01*
X159130580Y-97976883D01*
X159294434Y-98112916D01*
X159302881Y-98118831D01*
X159486756Y-98226279D01*
X159496042Y-98230729D01*
X159695001Y-98306703D01*
X159704899Y-98309579D01*
X159808250Y-98330606D01*
X159822299Y-98329410D01*
X159826000Y-98319065D01*
X159826000Y-98318517D01*
X160334000Y-98318517D01*
X160338064Y-98332359D01*
X160351478Y-98334393D01*
X160358184Y-98333534D01*
X160368262Y-98331392D01*
X160572255Y-98270191D01*
X160581842Y-98266433D01*
X160773095Y-98172739D01*
X160781945Y-98167464D01*
X160955328Y-98043792D01*
X160963200Y-98037139D01*
X161114052Y-97886812D01*
X161120730Y-97878965D01*
X161245003Y-97706020D01*
X161250313Y-97697183D01*
X161344670Y-97506267D01*
X161348469Y-97496672D01*
X161410377Y-97292910D01*
X161412555Y-97282837D01*
X161413986Y-97271962D01*
X161411775Y-97257778D01*
X161398617Y-97254000D01*
X160352115Y-97254000D01*
X160336876Y-97258475D01*
X160335671Y-97259865D01*
X160334000Y-97267548D01*
X160334000Y-98318517D01*
X159826000Y-98318517D01*
X159826000Y-97272115D01*
X159821525Y-97256876D01*
X159820135Y-97255671D01*
X159812452Y-97254000D01*
X157812115Y-97254000D01*
X157796876Y-97258475D01*
X157795671Y-97259865D01*
X157794000Y-97267548D01*
X157794000Y-98318517D01*
X157286000Y-98318517D01*
X157286000Y-97272115D01*
X157281525Y-97256876D01*
X157280135Y-97255671D01*
X157272452Y-97254000D01*
X155272115Y-97254000D01*
X155256876Y-97258475D01*
X155255671Y-97259865D01*
X155254000Y-97267548D01*
X155254000Y-98339884D01*
X154746000Y-98339884D01*
X154746000Y-96727885D01*
X155254000Y-96727885D01*
X155258475Y-96743124D01*
X155259865Y-96744329D01*
X155267548Y-96746000D01*
X157267885Y-96746000D01*
X157283124Y-96741525D01*
X157284329Y-96740135D01*
X157286000Y-96732452D01*
X157286000Y-96727885D01*
X157794000Y-96727885D01*
X157798475Y-96743124D01*
X157799865Y-96744329D01*
X157807548Y-96746000D01*
X159807885Y-96746000D01*
X159823124Y-96741525D01*
X159824329Y-96740135D01*
X159826000Y-96732452D01*
X159826000Y-96727885D01*
X160334000Y-96727885D01*
X160338475Y-96743124D01*
X160339865Y-96744329D01*
X160347548Y-96746000D01*
X161398344Y-96746000D01*
X161411875Y-96742027D01*
X161413180Y-96732947D01*
X161371214Y-96565875D01*
X161367894Y-96556124D01*
X161282972Y-96360814D01*
X161278105Y-96351739D01*
X161162426Y-96172926D01*
X161156136Y-96164757D01*
X161012806Y-96007240D01*
X161005273Y-96000215D01*
X160838139Y-95868222D01*
X160829552Y-95862517D01*
X160643117Y-95759599D01*
X160633705Y-95755369D01*
X160432959Y-95684280D01*
X160422988Y-95681646D01*
X160351837Y-95668972D01*
X160338540Y-95670432D01*
X160334000Y-95684989D01*
X160334000Y-96727885D01*
X159826000Y-96727885D01*
X159826000Y-95683102D01*
X159822082Y-95669758D01*
X159807806Y-95667771D01*
X159769324Y-95673660D01*
X159759288Y-95676051D01*
X159556868Y-95742212D01*
X159547359Y-95746209D01*
X159358463Y-95844542D01*
X159349738Y-95850036D01*
X159179433Y-95977905D01*
X159171726Y-95984748D01*
X159024590Y-96138717D01*
X159018104Y-96146727D01*
X158913193Y-96300521D01*
X158858282Y-96345524D01*
X158787757Y-96353695D01*
X158724010Y-96322441D01*
X158703313Y-96297957D01*
X158622427Y-96172926D01*
X158616136Y-96164757D01*
X158472806Y-96007240D01*
X158465273Y-96000215D01*
X158298139Y-95868222D01*
X158289552Y-95862517D01*
X158103117Y-95759599D01*
X158093705Y-95755369D01*
X157892959Y-95684280D01*
X157882988Y-95681646D01*
X157811837Y-95668972D01*
X157798540Y-95670432D01*
X157794000Y-95684989D01*
X157794000Y-96727885D01*
X157286000Y-96727885D01*
X157286000Y-95683102D01*
X157282082Y-95669758D01*
X157267806Y-95667771D01*
X157229324Y-95673660D01*
X157219288Y-95676051D01*
X157016868Y-95742212D01*
X157007359Y-95746209D01*
X156818463Y-95844542D01*
X156809738Y-95850036D01*
X156639433Y-95977905D01*
X156631726Y-95984748D01*
X156554094Y-96065985D01*
X156492570Y-96101415D01*
X156421657Y-96097958D01*
X156363871Y-96056712D01*
X156345018Y-96023164D01*
X156303324Y-95911946D01*
X156294786Y-95896351D01*
X156218285Y-95794276D01*
X156205724Y-95781715D01*
X156103649Y-95705214D01*
X156088054Y-95696676D01*
X155967606Y-95651522D01*
X155952351Y-95647895D01*
X155901486Y-95642369D01*
X155894672Y-95642000D01*
X155272115Y-95642000D01*
X155256876Y-95646475D01*
X155255671Y-95647865D01*
X155254000Y-95655548D01*
X155254000Y-96727885D01*
X154746000Y-96727885D01*
X154746000Y-95660116D01*
X154741525Y-95644877D01*
X154740135Y-95643672D01*
X154732452Y-95642001D01*
X154488424Y-95642001D01*
X154420303Y-95621999D01*
X154373810Y-95568343D01*
X154363706Y-95498069D01*
X154393200Y-95433489D01*
X154399329Y-95426906D01*
X155030830Y-94795405D01*
X155093142Y-94761379D01*
X155119925Y-94758500D01*
X155898134Y-94758500D01*
X155960316Y-94751745D01*
X156096705Y-94700615D01*
X156213261Y-94613261D01*
X156300615Y-94496705D01*
X156331516Y-94414278D01*
X156344598Y-94379382D01*
X156387240Y-94322618D01*
X156453802Y-94297918D01*
X156523150Y-94313126D01*
X156557817Y-94341114D01*
X156586250Y-94373938D01*
X156758126Y-94516632D01*
X156951000Y-94629338D01*
X156955825Y-94631180D01*
X156955826Y-94631181D01*
X157019723Y-94655581D01*
X157159692Y-94709030D01*
X157164760Y-94710061D01*
X157164763Y-94710062D01*
X157272017Y-94731883D01*
X157378597Y-94753567D01*
X157383772Y-94753757D01*
X157383774Y-94753757D01*
X157596673Y-94761564D01*
X157596677Y-94761564D01*
X157601837Y-94761753D01*
X157606957Y-94761097D01*
X157606959Y-94761097D01*
X157818288Y-94734025D01*
X157818289Y-94734025D01*
X157823416Y-94733368D01*
X157828366Y-94731883D01*
X158032429Y-94670661D01*
X158032434Y-94670659D01*
X158037384Y-94669174D01*
X158237994Y-94570896D01*
X158419860Y-94441173D01*
X158427428Y-94433632D01*
X158528219Y-94333192D01*
X158578096Y-94283489D01*
X158607836Y-94242102D01*
X158708453Y-94102077D01*
X158709776Y-94103028D01*
X158756645Y-94059857D01*
X158826580Y-94047625D01*
X158892026Y-94075144D01*
X158919875Y-94106994D01*
X158979987Y-94205088D01*
X159126250Y-94373938D01*
X159298126Y-94516632D01*
X159491000Y-94629338D01*
X159495825Y-94631180D01*
X159495826Y-94631181D01*
X159559723Y-94655581D01*
X159699692Y-94709030D01*
X159704760Y-94710061D01*
X159704763Y-94710062D01*
X159812017Y-94731883D01*
X159918597Y-94753567D01*
X159923772Y-94753757D01*
X159923774Y-94753757D01*
X160136673Y-94761564D01*
X160136677Y-94761564D01*
X160141837Y-94761753D01*
X160146957Y-94761097D01*
X160146959Y-94761097D01*
X160358288Y-94734025D01*
X160358289Y-94734025D01*
X160363416Y-94733368D01*
X160368366Y-94731883D01*
X160572429Y-94670661D01*
X160572434Y-94670659D01*
X160577384Y-94669174D01*
X160777994Y-94570896D01*
X160959860Y-94441173D01*
X160967428Y-94433632D01*
X161068219Y-94333192D01*
X161118096Y-94283489D01*
X161147836Y-94242102D01*
X161245435Y-94106277D01*
X161248453Y-94102077D01*
X161259601Y-94079522D01*
X161345136Y-93906453D01*
X161345137Y-93906451D01*
X161347430Y-93901811D01*
X161412370Y-93688069D01*
X161441529Y-93466590D01*
X161443156Y-93400000D01*
X161424852Y-93177361D01*
X161370431Y-92960702D01*
X161281354Y-92755840D01*
X161160014Y-92568277D01*
X161009670Y-92403051D01*
X161005619Y-92399852D01*
X161005615Y-92399848D01*
X160838414Y-92267800D01*
X160838410Y-92267798D01*
X160834359Y-92264598D01*
X160638789Y-92156638D01*
X160633920Y-92154914D01*
X160633916Y-92154912D01*
X160433087Y-92083795D01*
X160433083Y-92083794D01*
X160428212Y-92082069D01*
X160423119Y-92081162D01*
X160423116Y-92081161D01*
X160213373Y-92043800D01*
X160213367Y-92043799D01*
X160208284Y-92042894D01*
X160134452Y-92041992D01*
X159990081Y-92040228D01*
X159990079Y-92040228D01*
X159984911Y-92040165D01*
X159764091Y-92073955D01*
X159551756Y-92143357D01*
X159353607Y-92246507D01*
X159349474Y-92249610D01*
X159349471Y-92249612D01*
X159256289Y-92319575D01*
X159174965Y-92380635D01*
X159171393Y-92384373D01*
X159063729Y-92497037D01*
X159020629Y-92542138D01*
X158913201Y-92699621D01*
X158858293Y-92744621D01*
X158787768Y-92752792D01*
X158724021Y-92721538D01*
X158703324Y-92697054D01*
X158622822Y-92572617D01*
X158622820Y-92572614D01*
X158620014Y-92568277D01*
X158469670Y-92403051D01*
X158465619Y-92399852D01*
X158465615Y-92399848D01*
X158298414Y-92267800D01*
X158298410Y-92267798D01*
X158294359Y-92264598D01*
X158098789Y-92156638D01*
X158093920Y-92154914D01*
X158093916Y-92154912D01*
X157893087Y-92083795D01*
X157893083Y-92083794D01*
X157888212Y-92082069D01*
X157883119Y-92081162D01*
X157883116Y-92081161D01*
X157673373Y-92043800D01*
X157673367Y-92043799D01*
X157668284Y-92042894D01*
X157594452Y-92041992D01*
X157450081Y-92040228D01*
X157450079Y-92040228D01*
X157444911Y-92040165D01*
X157224091Y-92073955D01*
X157011756Y-92143357D01*
X156813607Y-92246507D01*
X156809474Y-92249610D01*
X156809471Y-92249612D01*
X156716289Y-92319575D01*
X156634965Y-92380635D01*
X156578537Y-92439684D01*
X156554283Y-92465064D01*
X156492759Y-92500494D01*
X156421846Y-92497037D01*
X156364060Y-92455791D01*
X156345207Y-92422243D01*
X156303767Y-92311703D01*
X156300615Y-92303295D01*
X156213261Y-92186739D01*
X156096705Y-92099385D01*
X155960316Y-92048255D01*
X155898134Y-92041500D01*
X154101866Y-92041500D01*
X154039684Y-92048255D01*
X153903295Y-92099385D01*
X153786739Y-92186739D01*
X153699385Y-92303295D01*
X153696233Y-92311703D01*
X153691923Y-92319575D01*
X153690259Y-92318664D01*
X153654337Y-92366490D01*
X153587776Y-92391193D01*
X153578991Y-92391500D01*
X118709338Y-92391500D01*
X118641217Y-92371498D01*
X118620243Y-92354595D01*
X116032343Y-89766695D01*
X161697251Y-89766695D01*
X161710110Y-89989715D01*
X161711247Y-89994761D01*
X161711248Y-89994767D01*
X161722524Y-90044800D01*
X161759222Y-90207639D01*
X161820673Y-90358976D01*
X161825556Y-90371000D01*
X161843266Y-90414616D01*
X161845965Y-90419020D01*
X161932952Y-90560970D01*
X161959987Y-90605088D01*
X162106250Y-90773938D01*
X162278126Y-90916632D01*
X162471000Y-91029338D01*
X162679692Y-91109030D01*
X162684760Y-91110061D01*
X162684763Y-91110062D01*
X162792017Y-91131883D01*
X162898597Y-91153567D01*
X162903772Y-91153757D01*
X162903774Y-91153757D01*
X163116673Y-91161564D01*
X163116677Y-91161564D01*
X163121837Y-91161753D01*
X163126957Y-91161097D01*
X163126959Y-91161097D01*
X163338288Y-91134025D01*
X163338289Y-91134025D01*
X163343416Y-91133368D01*
X163348366Y-91131883D01*
X163552429Y-91070661D01*
X163552434Y-91070659D01*
X163557384Y-91069174D01*
X163757994Y-90970896D01*
X163939860Y-90841173D01*
X164048091Y-90733319D01*
X164110462Y-90699404D01*
X164181268Y-90704592D01*
X164238030Y-90747238D01*
X164255012Y-90778341D01*
X164299385Y-90896705D01*
X164386739Y-91013261D01*
X164503295Y-91100615D01*
X164639684Y-91151745D01*
X164701866Y-91158500D01*
X166498134Y-91158500D01*
X166560316Y-91151745D01*
X166696705Y-91100615D01*
X166813261Y-91013261D01*
X166900615Y-90896705D01*
X166951745Y-90760316D01*
X166958500Y-90698134D01*
X166958500Y-88901866D01*
X166951745Y-88839684D01*
X166900615Y-88703295D01*
X166813261Y-88586739D01*
X166696705Y-88499385D01*
X166560316Y-88448255D01*
X166498134Y-88441500D01*
X164701866Y-88441500D01*
X164639684Y-88448255D01*
X164503295Y-88499385D01*
X164386739Y-88586739D01*
X164299385Y-88703295D01*
X164296233Y-88711703D01*
X164254919Y-88821907D01*
X164212277Y-88878671D01*
X164145716Y-88903371D01*
X164076367Y-88888163D01*
X164043743Y-88862476D01*
X163993151Y-88806875D01*
X163993142Y-88806866D01*
X163989670Y-88803051D01*
X163985619Y-88799852D01*
X163985615Y-88799848D01*
X163818414Y-88667800D01*
X163818410Y-88667798D01*
X163814359Y-88664598D01*
X163618789Y-88556638D01*
X163613920Y-88554914D01*
X163613916Y-88554912D01*
X163413087Y-88483795D01*
X163413083Y-88483794D01*
X163408212Y-88482069D01*
X163403119Y-88481162D01*
X163403116Y-88481161D01*
X163193373Y-88443800D01*
X163193367Y-88443799D01*
X163188284Y-88442894D01*
X163114452Y-88441992D01*
X162970081Y-88440228D01*
X162970079Y-88440228D01*
X162964911Y-88440165D01*
X162744091Y-88473955D01*
X162531756Y-88543357D01*
X162333607Y-88646507D01*
X162329474Y-88649610D01*
X162329471Y-88649612D01*
X162159100Y-88777530D01*
X162154965Y-88780635D01*
X162115525Y-88821907D01*
X162061280Y-88878671D01*
X162000629Y-88942138D01*
X161874743Y-89126680D01*
X161780688Y-89329305D01*
X161720989Y-89544570D01*
X161697251Y-89766695D01*
X116032343Y-89766695D01*
X115885405Y-89619757D01*
X115851379Y-89557445D01*
X115848500Y-89530662D01*
X115848500Y-88143970D01*
X115868502Y-88075849D01*
X115876460Y-88065120D01*
X115878096Y-88063489D01*
X116008453Y-87882077D01*
X116009776Y-87883028D01*
X116056645Y-87839857D01*
X116126580Y-87827625D01*
X116192026Y-87855144D01*
X116219875Y-87886994D01*
X116279987Y-87985088D01*
X116426250Y-88153938D01*
X116598126Y-88296632D01*
X116791000Y-88409338D01*
X116999692Y-88489030D01*
X117004760Y-88490061D01*
X117004763Y-88490062D01*
X117077061Y-88504771D01*
X117218597Y-88533567D01*
X117223772Y-88533757D01*
X117223774Y-88533757D01*
X117436673Y-88541564D01*
X117436677Y-88541564D01*
X117441837Y-88541753D01*
X117446957Y-88541097D01*
X117446959Y-88541097D01*
X117658288Y-88514025D01*
X117658289Y-88514025D01*
X117663416Y-88513368D01*
X117692071Y-88504771D01*
X117872429Y-88450661D01*
X117872434Y-88450659D01*
X117877384Y-88449174D01*
X118077994Y-88350896D01*
X118259860Y-88221173D01*
X118418096Y-88063489D01*
X118548453Y-87882077D01*
X118569320Y-87839857D01*
X118645136Y-87686453D01*
X118645137Y-87686451D01*
X118647430Y-87681811D01*
X118712370Y-87468069D01*
X118741529Y-87246590D01*
X118743156Y-87180000D01*
X118724852Y-86957361D01*
X118670431Y-86740702D01*
X118581354Y-86535840D01*
X118460014Y-86348277D01*
X118309670Y-86183051D01*
X118305619Y-86179852D01*
X118305615Y-86179848D01*
X118138414Y-86047800D01*
X118138410Y-86047798D01*
X118134359Y-86044598D01*
X118129311Y-86041811D01*
X118082136Y-86015769D01*
X117938789Y-85936638D01*
X117933920Y-85934914D01*
X117933916Y-85934912D01*
X117733087Y-85863795D01*
X117733083Y-85863794D01*
X117728212Y-85862069D01*
X117723119Y-85861162D01*
X117723116Y-85861161D01*
X117513373Y-85823800D01*
X117513367Y-85823799D01*
X117508284Y-85822894D01*
X117434452Y-85821992D01*
X117290081Y-85820228D01*
X117290079Y-85820228D01*
X117284911Y-85820165D01*
X117064091Y-85853955D01*
X116851756Y-85923357D01*
X116653607Y-86026507D01*
X116649474Y-86029610D01*
X116649471Y-86029612D01*
X116479100Y-86157530D01*
X116474965Y-86160635D01*
X116471393Y-86164373D01*
X116363729Y-86277037D01*
X116320629Y-86322138D01*
X116213201Y-86479621D01*
X116158293Y-86524621D01*
X116087768Y-86532792D01*
X116024021Y-86501538D01*
X116003324Y-86477054D01*
X115922822Y-86352617D01*
X115922820Y-86352614D01*
X115920014Y-86348277D01*
X115769670Y-86183051D01*
X115765619Y-86179852D01*
X115765615Y-86179848D01*
X115598414Y-86047800D01*
X115598410Y-86047798D01*
X115594359Y-86044598D01*
X115589311Y-86041811D01*
X115542136Y-86015769D01*
X115398789Y-85936638D01*
X115393920Y-85934914D01*
X115393916Y-85934912D01*
X115193087Y-85863795D01*
X115193083Y-85863794D01*
X115188212Y-85862069D01*
X115183119Y-85861162D01*
X115183116Y-85861161D01*
X114973373Y-85823800D01*
X114973367Y-85823799D01*
X114968284Y-85822894D01*
X114894452Y-85821992D01*
X114750081Y-85820228D01*
X114750079Y-85820228D01*
X114744911Y-85820165D01*
X114524091Y-85853955D01*
X114311756Y-85923357D01*
X114113607Y-86026507D01*
X114109474Y-86029610D01*
X114109471Y-86029612D01*
X113939100Y-86157530D01*
X113934965Y-86160635D01*
X113856229Y-86243028D01*
X113854283Y-86245064D01*
X113792759Y-86280494D01*
X113721846Y-86277037D01*
X113664060Y-86235791D01*
X113645207Y-86202243D01*
X113603767Y-86091703D01*
X113600615Y-86083295D01*
X113513261Y-85966739D01*
X113396705Y-85879385D01*
X113260316Y-85828255D01*
X113198134Y-85821500D01*
X111401866Y-85821500D01*
X111339684Y-85828255D01*
X111203295Y-85879385D01*
X111086739Y-85966739D01*
X110999385Y-86083295D01*
X110948255Y-86219684D01*
X110941500Y-86281866D01*
X110941500Y-88078134D01*
X110948255Y-88140316D01*
X110999385Y-88276705D01*
X111086739Y-88393261D01*
X111203295Y-88480615D01*
X111339684Y-88531745D01*
X111401866Y-88538500D01*
X113198134Y-88538500D01*
X113260316Y-88531745D01*
X113396705Y-88480615D01*
X113513261Y-88393261D01*
X113600615Y-88276705D01*
X113601771Y-88277571D01*
X113645237Y-88234202D01*
X113714628Y-88219187D01*
X113781120Y-88244071D01*
X113823604Y-88300954D01*
X113831500Y-88344856D01*
X113831500Y-89938743D01*
X113830763Y-89952350D01*
X113826676Y-89989974D01*
X113827213Y-89996109D01*
X113831050Y-90039974D01*
X113831379Y-90044800D01*
X113831500Y-90047272D01*
X113831500Y-90050355D01*
X113831801Y-90053423D01*
X113835690Y-90093092D01*
X113835812Y-90094405D01*
X113843913Y-90186999D01*
X113845400Y-90192118D01*
X113845920Y-90197419D01*
X113872791Y-90286420D01*
X113873126Y-90287553D01*
X113899091Y-90376922D01*
X113901544Y-90381654D01*
X113903084Y-90386755D01*
X113905978Y-90392198D01*
X113946731Y-90468846D01*
X113947343Y-90470012D01*
X113987271Y-90547039D01*
X113990108Y-90552512D01*
X113993431Y-90556675D01*
X113995934Y-90561382D01*
X114054755Y-90633504D01*
X114055446Y-90634360D01*
X114086738Y-90673559D01*
X114089242Y-90676063D01*
X114089884Y-90676781D01*
X114093585Y-90681114D01*
X114120935Y-90714648D01*
X114125682Y-90718575D01*
X114125684Y-90718577D01*
X114156262Y-90743873D01*
X114165042Y-90751863D01*
X117482559Y-94069379D01*
X117491661Y-94079522D01*
X117515382Y-94109025D01*
X117553870Y-94141320D01*
X117557489Y-94144478D01*
X117559304Y-94146124D01*
X117561489Y-94148309D01*
X117563869Y-94150264D01*
X117563879Y-94150273D01*
X117594650Y-94175549D01*
X117595665Y-94176391D01*
X117666888Y-94236154D01*
X117671562Y-94238723D01*
X117675675Y-94242102D01*
X117681112Y-94245017D01*
X117681113Y-94245018D01*
X117757461Y-94285955D01*
X117758621Y-94286584D01*
X117824167Y-94322618D01*
X117840201Y-94331433D01*
X117845283Y-94333045D01*
X117849977Y-94335562D01*
X117938945Y-94362762D01*
X117939973Y-94363082D01*
X118028720Y-94391235D01*
X118034016Y-94391829D01*
X118039112Y-94393387D01*
X118131671Y-94402790D01*
X118132807Y-94402911D01*
X118166422Y-94406681D01*
X118179144Y-94408108D01*
X118179148Y-94408108D01*
X118182641Y-94408500D01*
X118186168Y-94408500D01*
X118187153Y-94408555D01*
X118192833Y-94409002D01*
X118222239Y-94411989D01*
X118229751Y-94412752D01*
X118229753Y-94412752D01*
X118235876Y-94413374D01*
X118281522Y-94409059D01*
X118293381Y-94408500D01*
X126647676Y-94408500D01*
X126715797Y-94428502D01*
X126762290Y-94482158D01*
X126772394Y-94552432D01*
X126742900Y-94617012D01*
X126736775Y-94623591D01*
X126275512Y-95084854D01*
X126267193Y-95092424D01*
X126260697Y-95096546D01*
X126255271Y-95102324D01*
X126255270Y-95102325D01*
X126213915Y-95146364D01*
X126211160Y-95149206D01*
X126191361Y-95169005D01*
X126188937Y-95172130D01*
X126188929Y-95172139D01*
X126188863Y-95172225D01*
X126181155Y-95181250D01*
X126150783Y-95213593D01*
X126146965Y-95220537D01*
X126146964Y-95220539D01*
X126140978Y-95231428D01*
X126130127Y-95247946D01*
X126117650Y-95264032D01*
X126100024Y-95304765D01*
X126094807Y-95315413D01*
X126073431Y-95354296D01*
X126071460Y-95361971D01*
X126071458Y-95361977D01*
X126068369Y-95374010D01*
X126061966Y-95392712D01*
X126053883Y-95411391D01*
X126052644Y-95419216D01*
X126046940Y-95455226D01*
X126044535Y-95466839D01*
X126033500Y-95509817D01*
X126033500Y-95530164D01*
X126031949Y-95549875D01*
X126028765Y-95569978D01*
X126029511Y-95577870D01*
X126032941Y-95614155D01*
X126033500Y-95626013D01*
X126033500Y-100521500D01*
X126013498Y-100589621D01*
X125959842Y-100636114D01*
X125907500Y-100647500D01*
X123245511Y-100647500D01*
X123177390Y-100627498D01*
X123139719Y-100589940D01*
X123052822Y-100455617D01*
X123052820Y-100455614D01*
X123050014Y-100451277D01*
X122899670Y-100286051D01*
X122895619Y-100282852D01*
X122895615Y-100282848D01*
X122728414Y-100150800D01*
X122728410Y-100150798D01*
X122724359Y-100147598D01*
X122683053Y-100124796D01*
X122633084Y-100074364D01*
X122618312Y-100004921D01*
X122643428Y-99938516D01*
X122670780Y-99911909D01*
X122784715Y-99830640D01*
X122849860Y-99784173D01*
X122877518Y-99756612D01*
X123004435Y-99630137D01*
X123008096Y-99626489D01*
X123030960Y-99594671D01*
X123135435Y-99449277D01*
X123138453Y-99445077D01*
X123152816Y-99416017D01*
X123235136Y-99249453D01*
X123235137Y-99249451D01*
X123237430Y-99244811D01*
X123278154Y-99110773D01*
X123300865Y-99036023D01*
X123300865Y-99036021D01*
X123302370Y-99031069D01*
X123331529Y-98809590D01*
X123331800Y-98798507D01*
X123333074Y-98746365D01*
X123333074Y-98746361D01*
X123333156Y-98743000D01*
X123314852Y-98520361D01*
X123260431Y-98303702D01*
X123171354Y-98098840D01*
X123100918Y-97989962D01*
X123052822Y-97915617D01*
X123052820Y-97915614D01*
X123050014Y-97911277D01*
X123036980Y-97896953D01*
X122902798Y-97749488D01*
X122871746Y-97685642D01*
X122880141Y-97615143D01*
X122925317Y-97560375D01*
X122951761Y-97546706D01*
X123058297Y-97506767D01*
X123066705Y-97503615D01*
X123183261Y-97416261D01*
X123270615Y-97299705D01*
X123321745Y-97163316D01*
X123328500Y-97101134D01*
X123328500Y-95304866D01*
X123321745Y-95242684D01*
X123270615Y-95106295D01*
X123183261Y-94989739D01*
X123066705Y-94902385D01*
X122930316Y-94851255D01*
X122868134Y-94844500D01*
X121071866Y-94844500D01*
X121009684Y-94851255D01*
X120873295Y-94902385D01*
X120756739Y-94989739D01*
X120669385Y-95106295D01*
X120618255Y-95242684D01*
X120611500Y-95304866D01*
X120611500Y-97101134D01*
X120618255Y-97163316D01*
X120669385Y-97299705D01*
X120756739Y-97416261D01*
X120873295Y-97503615D01*
X120881704Y-97506767D01*
X120881705Y-97506768D01*
X120990451Y-97547535D01*
X121047216Y-97590176D01*
X121071916Y-97656738D01*
X121056709Y-97726087D01*
X121037316Y-97752568D01*
X120947182Y-97846888D01*
X120910629Y-97885138D01*
X120907715Y-97889410D01*
X120907714Y-97889411D01*
X120875873Y-97936088D01*
X120784743Y-98069680D01*
X120764674Y-98112916D01*
X120693414Y-98266433D01*
X120690688Y-98272305D01*
X120630989Y-98487570D01*
X120607251Y-98709695D01*
X120607548Y-98714853D01*
X120607422Y-98720024D01*
X120605893Y-98719987D01*
X120591408Y-98782411D01*
X120540517Y-98831915D01*
X120470941Y-98846047D01*
X120404770Y-98820319D01*
X120395412Y-98812354D01*
X120379286Y-98797210D01*
X120379282Y-98797207D01*
X120373506Y-98791783D01*
X120355669Y-98781977D01*
X120339153Y-98771127D01*
X120323067Y-98758650D01*
X120282334Y-98741024D01*
X120271686Y-98735807D01*
X120249008Y-98723340D01*
X120232803Y-98714431D01*
X120225128Y-98712460D01*
X120225122Y-98712458D01*
X120213089Y-98709369D01*
X120194387Y-98702966D01*
X120175708Y-98694883D01*
X120133028Y-98688123D01*
X120131873Y-98687940D01*
X120120260Y-98685535D01*
X120077282Y-98674500D01*
X120056935Y-98674500D01*
X120037224Y-98672949D01*
X120024950Y-98671005D01*
X120017121Y-98669765D01*
X120009229Y-98670511D01*
X119972944Y-98673941D01*
X119961086Y-98674500D01*
X117143500Y-98674500D01*
X117075379Y-98654498D01*
X117028886Y-98600842D01*
X117017500Y-98548500D01*
X117017500Y-98065032D01*
X117018030Y-98053793D01*
X117019709Y-98046281D01*
X117017562Y-97977969D01*
X117017500Y-97974012D01*
X117017500Y-97946017D01*
X117016992Y-97941994D01*
X117016059Y-97930152D01*
X117014914Y-97893720D01*
X117014665Y-97885795D01*
X117008987Y-97866251D01*
X117004977Y-97846888D01*
X117003420Y-97834560D01*
X117003420Y-97834558D01*
X117002427Y-97826701D01*
X116999511Y-97819337D01*
X116999510Y-97819332D01*
X116986093Y-97785444D01*
X116982248Y-97774215D01*
X116972081Y-97739222D01*
X116969869Y-97731607D01*
X116965830Y-97724777D01*
X116959512Y-97714094D01*
X116950812Y-97696336D01*
X116946239Y-97684785D01*
X116946235Y-97684779D01*
X116943319Y-97677412D01*
X116917234Y-97641509D01*
X116910719Y-97631590D01*
X116892174Y-97600232D01*
X116892171Y-97600228D01*
X116888134Y-97593402D01*
X116873750Y-97579018D01*
X116860909Y-97563984D01*
X116853602Y-97553927D01*
X116848942Y-97547513D01*
X116814750Y-97519227D01*
X116805969Y-97511237D01*
X116214245Y-96919512D01*
X116206675Y-96911193D01*
X116202553Y-96904697D01*
X116196357Y-96898878D01*
X116152735Y-96857915D01*
X116149893Y-96855160D01*
X116142744Y-96848011D01*
X116108718Y-96785699D01*
X116113783Y-96714884D01*
X116129515Y-96685391D01*
X116150436Y-96656275D01*
X116153453Y-96652077D01*
X116159807Y-96639222D01*
X116250136Y-96456453D01*
X116250137Y-96456451D01*
X116252430Y-96451811D01*
X116317370Y-96238069D01*
X116346529Y-96016590D01*
X116346611Y-96013240D01*
X116348074Y-95953365D01*
X116348074Y-95953361D01*
X116348156Y-95950000D01*
X116329852Y-95727361D01*
X116275431Y-95510702D01*
X116186354Y-95305840D01*
X116107513Y-95183970D01*
X116067822Y-95122617D01*
X116067820Y-95122614D01*
X116065014Y-95118277D01*
X115914670Y-94953051D01*
X115910619Y-94949852D01*
X115910615Y-94949848D01*
X115743414Y-94817800D01*
X115743410Y-94817798D01*
X115739359Y-94814598D01*
X115711832Y-94799402D01*
X115663562Y-94772756D01*
X115543789Y-94706638D01*
X115538920Y-94704914D01*
X115538916Y-94704912D01*
X115338087Y-94633795D01*
X115338083Y-94633794D01*
X115333212Y-94632069D01*
X115328119Y-94631162D01*
X115328116Y-94631161D01*
X115118373Y-94593800D01*
X115118367Y-94593799D01*
X115113284Y-94592894D01*
X115039452Y-94591992D01*
X114895081Y-94590228D01*
X114895079Y-94590228D01*
X114889911Y-94590165D01*
X114669091Y-94623955D01*
X114456756Y-94693357D01*
X114426443Y-94709137D01*
X114336678Y-94755866D01*
X114258607Y-94796507D01*
X114254474Y-94799610D01*
X114254471Y-94799612D01*
X114084100Y-94927530D01*
X114079965Y-94930635D01*
X113965849Y-95050051D01*
X113946027Y-95070793D01*
X113884503Y-95106223D01*
X113813590Y-95102766D01*
X113755804Y-95061520D01*
X113740833Y-95037194D01*
X113738865Y-95032994D01*
X113736550Y-95026054D01*
X113643478Y-94875652D01*
X113518303Y-94750695D01*
X113501060Y-94740066D01*
X113373968Y-94661725D01*
X113373966Y-94661724D01*
X113367738Y-94657885D01*
X113263084Y-94623173D01*
X113206389Y-94604368D01*
X113206387Y-94604368D01*
X113199861Y-94602203D01*
X113193025Y-94601503D01*
X113193022Y-94601502D01*
X113149969Y-94597091D01*
X113095400Y-94591500D01*
X111794600Y-94591500D01*
X111791354Y-94591837D01*
X111791350Y-94591837D01*
X111695692Y-94601762D01*
X111695688Y-94601763D01*
X111688834Y-94602474D01*
X111682298Y-94604655D01*
X111682296Y-94604655D01*
X111602849Y-94631161D01*
X111521054Y-94658450D01*
X111370652Y-94751522D01*
X111365479Y-94756704D01*
X111307686Y-94814598D01*
X111245695Y-94876697D01*
X111241855Y-94882927D01*
X111241854Y-94882928D01*
X111157466Y-95019831D01*
X111152885Y-95027262D01*
X111131367Y-95092138D01*
X111100908Y-95183970D01*
X111097203Y-95195139D01*
X111096503Y-95201975D01*
X111096502Y-95201978D01*
X111093485Y-95231428D01*
X111086500Y-95299600D01*
X111086500Y-95722577D01*
X111066498Y-95790698D01*
X111049595Y-95811672D01*
X110239517Y-96621750D01*
X110231191Y-96629326D01*
X110224697Y-96633447D01*
X110219274Y-96639222D01*
X110177915Y-96683265D01*
X110175160Y-96686107D01*
X110155361Y-96705906D01*
X110152937Y-96709031D01*
X110152929Y-96709040D01*
X110152863Y-96709126D01*
X110145155Y-96718151D01*
X110114783Y-96750494D01*
X110105096Y-96768115D01*
X110104978Y-96768329D01*
X110094127Y-96784847D01*
X110081650Y-96800933D01*
X110064024Y-96841666D01*
X110058807Y-96852314D01*
X110056465Y-96856574D01*
X110037431Y-96891197D01*
X110035460Y-96898872D01*
X110035458Y-96898878D01*
X110032369Y-96910911D01*
X110025966Y-96929613D01*
X110017883Y-96948292D01*
X110016644Y-96956117D01*
X110010940Y-96992127D01*
X110008535Y-97003740D01*
X109997500Y-97046718D01*
X109997500Y-97067065D01*
X109995949Y-97086776D01*
X109992765Y-97106879D01*
X108508500Y-97106879D01*
X108508500Y-85506695D01*
X129497251Y-85506695D01*
X129510110Y-85729715D01*
X129511247Y-85734761D01*
X129511248Y-85734767D01*
X129530795Y-85821500D01*
X129559222Y-85947639D01*
X129643266Y-86154616D01*
X129680685Y-86215678D01*
X129757291Y-86340688D01*
X129759987Y-86345088D01*
X129906250Y-86513938D01*
X130078126Y-86656632D01*
X130271000Y-86769338D01*
X130479692Y-86849030D01*
X130484760Y-86850061D01*
X130484763Y-86850062D01*
X130592017Y-86871883D01*
X130698597Y-86893567D01*
X130703772Y-86893757D01*
X130703774Y-86893757D01*
X130916673Y-86901564D01*
X130916677Y-86901564D01*
X130921837Y-86901753D01*
X130926957Y-86901097D01*
X130926959Y-86901097D01*
X131138288Y-86874025D01*
X131138289Y-86874025D01*
X131143416Y-86873368D01*
X131148366Y-86871883D01*
X131352429Y-86810661D01*
X131352434Y-86810659D01*
X131357384Y-86809174D01*
X131557994Y-86710896D01*
X131739860Y-86581173D01*
X131898096Y-86423489D01*
X131949023Y-86352617D01*
X132028453Y-86242077D01*
X132029776Y-86243028D01*
X132076645Y-86199857D01*
X132146580Y-86187625D01*
X132212026Y-86215144D01*
X132239875Y-86246994D01*
X132299987Y-86345088D01*
X132446250Y-86513938D01*
X132618126Y-86656632D01*
X132811000Y-86769338D01*
X133019692Y-86849030D01*
X133024760Y-86850061D01*
X133024763Y-86850062D01*
X133132017Y-86871883D01*
X133238597Y-86893567D01*
X133243772Y-86893757D01*
X133243774Y-86893757D01*
X133456673Y-86901564D01*
X133456677Y-86901564D01*
X133461837Y-86901753D01*
X133466957Y-86901097D01*
X133466959Y-86901097D01*
X133678288Y-86874025D01*
X133678289Y-86874025D01*
X133683416Y-86873368D01*
X133688366Y-86871883D01*
X133892429Y-86810661D01*
X133892434Y-86810659D01*
X133897384Y-86809174D01*
X134097994Y-86710896D01*
X134279860Y-86581173D01*
X134438096Y-86423489D01*
X134489023Y-86352617D01*
X134568453Y-86242077D01*
X134569776Y-86243028D01*
X134616645Y-86199857D01*
X134686580Y-86187625D01*
X134752026Y-86215144D01*
X134779875Y-86246994D01*
X134839987Y-86345088D01*
X134986250Y-86513938D01*
X135158126Y-86656632D01*
X135351000Y-86769338D01*
X135559692Y-86849030D01*
X135564760Y-86850061D01*
X135564763Y-86850062D01*
X135672017Y-86871883D01*
X135778597Y-86893567D01*
X135783772Y-86893757D01*
X135783774Y-86893757D01*
X135996673Y-86901564D01*
X135996677Y-86901564D01*
X136001837Y-86901753D01*
X136006957Y-86901097D01*
X136006959Y-86901097D01*
X136218288Y-86874025D01*
X136218289Y-86874025D01*
X136223416Y-86873368D01*
X136228366Y-86871883D01*
X136432429Y-86810661D01*
X136432434Y-86810659D01*
X136437384Y-86809174D01*
X136637994Y-86710896D01*
X136819860Y-86581173D01*
X136978096Y-86423489D01*
X137029023Y-86352617D01*
X137108453Y-86242077D01*
X137109776Y-86243028D01*
X137156645Y-86199857D01*
X137226580Y-86187625D01*
X137292026Y-86215144D01*
X137319875Y-86246994D01*
X137379987Y-86345088D01*
X137526250Y-86513938D01*
X137698126Y-86656632D01*
X137891000Y-86769338D01*
X138099692Y-86849030D01*
X138104760Y-86850061D01*
X138104763Y-86850062D01*
X138212017Y-86871883D01*
X138318597Y-86893567D01*
X138323772Y-86893757D01*
X138323774Y-86893757D01*
X138536673Y-86901564D01*
X138536677Y-86901564D01*
X138541837Y-86901753D01*
X138546957Y-86901097D01*
X138546959Y-86901097D01*
X138758288Y-86874025D01*
X138758289Y-86874025D01*
X138763416Y-86873368D01*
X138768366Y-86871883D01*
X138972429Y-86810661D01*
X138972434Y-86810659D01*
X138977384Y-86809174D01*
X139177994Y-86710896D01*
X139359860Y-86581173D01*
X139518096Y-86423489D01*
X139569023Y-86352617D01*
X139648453Y-86242077D01*
X139649776Y-86243028D01*
X139696645Y-86199857D01*
X139766580Y-86187625D01*
X139832026Y-86215144D01*
X139859875Y-86246994D01*
X139919987Y-86345088D01*
X140066250Y-86513938D01*
X140238126Y-86656632D01*
X140431000Y-86769338D01*
X140639692Y-86849030D01*
X140644760Y-86850061D01*
X140644763Y-86850062D01*
X140752017Y-86871883D01*
X140858597Y-86893567D01*
X140863772Y-86893757D01*
X140863774Y-86893757D01*
X141076673Y-86901564D01*
X141076677Y-86901564D01*
X141081837Y-86901753D01*
X141086957Y-86901097D01*
X141086959Y-86901097D01*
X141298288Y-86874025D01*
X141298289Y-86874025D01*
X141303416Y-86873368D01*
X141308366Y-86871883D01*
X141512429Y-86810661D01*
X141512434Y-86810659D01*
X141517384Y-86809174D01*
X141717994Y-86710896D01*
X141899860Y-86581173D01*
X142058096Y-86423489D01*
X142109023Y-86352617D01*
X142188453Y-86242077D01*
X142189776Y-86243028D01*
X142236645Y-86199857D01*
X142306580Y-86187625D01*
X142372026Y-86215144D01*
X142399875Y-86246994D01*
X142459987Y-86345088D01*
X142606250Y-86513938D01*
X142778126Y-86656632D01*
X142971000Y-86769338D01*
X143179692Y-86849030D01*
X143184760Y-86850061D01*
X143184763Y-86850062D01*
X143292017Y-86871883D01*
X143398597Y-86893567D01*
X143403772Y-86893757D01*
X143403774Y-86893757D01*
X143616673Y-86901564D01*
X143616677Y-86901564D01*
X143621837Y-86901753D01*
X143626957Y-86901097D01*
X143626959Y-86901097D01*
X143838288Y-86874025D01*
X143838289Y-86874025D01*
X143843416Y-86873368D01*
X143848366Y-86871883D01*
X144052429Y-86810661D01*
X144052434Y-86810659D01*
X144057384Y-86809174D01*
X144257994Y-86710896D01*
X144439860Y-86581173D01*
X144598096Y-86423489D01*
X144649023Y-86352617D01*
X144728453Y-86242077D01*
X144729776Y-86243028D01*
X144776645Y-86199857D01*
X144846580Y-86187625D01*
X144912026Y-86215144D01*
X144939875Y-86246994D01*
X144999987Y-86345088D01*
X145146250Y-86513938D01*
X145318126Y-86656632D01*
X145511000Y-86769338D01*
X145719692Y-86849030D01*
X145724760Y-86850061D01*
X145724763Y-86850062D01*
X145832017Y-86871883D01*
X145938597Y-86893567D01*
X145943772Y-86893757D01*
X145943774Y-86893757D01*
X146156673Y-86901564D01*
X146156677Y-86901564D01*
X146161837Y-86901753D01*
X146166957Y-86901097D01*
X146166959Y-86901097D01*
X146378288Y-86874025D01*
X146378289Y-86874025D01*
X146383416Y-86873368D01*
X146388366Y-86871883D01*
X146592429Y-86810661D01*
X146592434Y-86810659D01*
X146597384Y-86809174D01*
X146797994Y-86710896D01*
X146979860Y-86581173D01*
X147088091Y-86473319D01*
X147150462Y-86439404D01*
X147221268Y-86444592D01*
X147278030Y-86487238D01*
X147295012Y-86518341D01*
X147301572Y-86535840D01*
X147339385Y-86636705D01*
X147426739Y-86753261D01*
X147543295Y-86840615D01*
X147679684Y-86891745D01*
X147741866Y-86898500D01*
X149538134Y-86898500D01*
X149600316Y-86891745D01*
X149736705Y-86840615D01*
X149853261Y-86753261D01*
X149940615Y-86636705D01*
X149991745Y-86500316D01*
X149998500Y-86438134D01*
X149998500Y-84641866D01*
X149991745Y-84579684D01*
X149940615Y-84443295D01*
X149853261Y-84326739D01*
X149736705Y-84239385D01*
X149600316Y-84188255D01*
X149538134Y-84181500D01*
X147741866Y-84181500D01*
X147679684Y-84188255D01*
X147543295Y-84239385D01*
X147426739Y-84326739D01*
X147339385Y-84443295D01*
X147336233Y-84451703D01*
X147294919Y-84561907D01*
X147252277Y-84618671D01*
X147185716Y-84643371D01*
X147116367Y-84628163D01*
X147083743Y-84602476D01*
X147033151Y-84546875D01*
X147033142Y-84546866D01*
X147029670Y-84543051D01*
X147025619Y-84539852D01*
X147025615Y-84539848D01*
X146858414Y-84407800D01*
X146858410Y-84407798D01*
X146854359Y-84404598D01*
X146658789Y-84296638D01*
X146653920Y-84294914D01*
X146653916Y-84294912D01*
X146453087Y-84223795D01*
X146453083Y-84223794D01*
X146448212Y-84222069D01*
X146443119Y-84221162D01*
X146443116Y-84221161D01*
X146233373Y-84183800D01*
X146233367Y-84183799D01*
X146228284Y-84182894D01*
X146154452Y-84181992D01*
X146010081Y-84180228D01*
X146010079Y-84180228D01*
X146004911Y-84180165D01*
X145784091Y-84213955D01*
X145571756Y-84283357D01*
X145373607Y-84386507D01*
X145369474Y-84389610D01*
X145369471Y-84389612D01*
X145199100Y-84517530D01*
X145194965Y-84520635D01*
X145155525Y-84561907D01*
X145101280Y-84618671D01*
X145040629Y-84682138D01*
X144933201Y-84839621D01*
X144878293Y-84884621D01*
X144807768Y-84892792D01*
X144744021Y-84861538D01*
X144723324Y-84837054D01*
X144642822Y-84712617D01*
X144642820Y-84712614D01*
X144640014Y-84708277D01*
X144489670Y-84543051D01*
X144485619Y-84539852D01*
X144485615Y-84539848D01*
X144318414Y-84407800D01*
X144318410Y-84407798D01*
X144314359Y-84404598D01*
X144118789Y-84296638D01*
X144113920Y-84294914D01*
X144113916Y-84294912D01*
X143913087Y-84223795D01*
X143913083Y-84223794D01*
X143908212Y-84222069D01*
X143903119Y-84221162D01*
X143903116Y-84221161D01*
X143693373Y-84183800D01*
X143693367Y-84183799D01*
X143688284Y-84182894D01*
X143614452Y-84181992D01*
X143470081Y-84180228D01*
X143470079Y-84180228D01*
X143464911Y-84180165D01*
X143244091Y-84213955D01*
X143031756Y-84283357D01*
X142833607Y-84386507D01*
X142829474Y-84389610D01*
X142829471Y-84389612D01*
X142659100Y-84517530D01*
X142654965Y-84520635D01*
X142615525Y-84561907D01*
X142561280Y-84618671D01*
X142500629Y-84682138D01*
X142393201Y-84839621D01*
X142338293Y-84884621D01*
X142267768Y-84892792D01*
X142204021Y-84861538D01*
X142183324Y-84837054D01*
X142102822Y-84712617D01*
X142102820Y-84712614D01*
X142100014Y-84708277D01*
X141949670Y-84543051D01*
X141945619Y-84539852D01*
X141945615Y-84539848D01*
X141778414Y-84407800D01*
X141778410Y-84407798D01*
X141774359Y-84404598D01*
X141578789Y-84296638D01*
X141573920Y-84294914D01*
X141573916Y-84294912D01*
X141373087Y-84223795D01*
X141373083Y-84223794D01*
X141368212Y-84222069D01*
X141363119Y-84221162D01*
X141363116Y-84221161D01*
X141153373Y-84183800D01*
X141153367Y-84183799D01*
X141148284Y-84182894D01*
X141074452Y-84181992D01*
X140930081Y-84180228D01*
X140930079Y-84180228D01*
X140924911Y-84180165D01*
X140704091Y-84213955D01*
X140491756Y-84283357D01*
X140293607Y-84386507D01*
X140289474Y-84389610D01*
X140289471Y-84389612D01*
X140119100Y-84517530D01*
X140114965Y-84520635D01*
X140075525Y-84561907D01*
X140021280Y-84618671D01*
X139960629Y-84682138D01*
X139853201Y-84839621D01*
X139798293Y-84884621D01*
X139727768Y-84892792D01*
X139664021Y-84861538D01*
X139643324Y-84837054D01*
X139562822Y-84712617D01*
X139562820Y-84712614D01*
X139560014Y-84708277D01*
X139409670Y-84543051D01*
X139405619Y-84539852D01*
X139405615Y-84539848D01*
X139238414Y-84407800D01*
X139238410Y-84407798D01*
X139234359Y-84404598D01*
X139038789Y-84296638D01*
X139033920Y-84294914D01*
X139033916Y-84294912D01*
X138833087Y-84223795D01*
X138833083Y-84223794D01*
X138828212Y-84222069D01*
X138823119Y-84221162D01*
X138823116Y-84221161D01*
X138613373Y-84183800D01*
X138613367Y-84183799D01*
X138608284Y-84182894D01*
X138534452Y-84181992D01*
X138390081Y-84180228D01*
X138390079Y-84180228D01*
X138384911Y-84180165D01*
X138164091Y-84213955D01*
X137951756Y-84283357D01*
X137753607Y-84386507D01*
X137749474Y-84389610D01*
X137749471Y-84389612D01*
X137579100Y-84517530D01*
X137574965Y-84520635D01*
X137535525Y-84561907D01*
X137481280Y-84618671D01*
X137420629Y-84682138D01*
X137313201Y-84839621D01*
X137258293Y-84884621D01*
X137187768Y-84892792D01*
X137124021Y-84861538D01*
X137103324Y-84837054D01*
X137022822Y-84712617D01*
X137022820Y-84712614D01*
X137020014Y-84708277D01*
X136869670Y-84543051D01*
X136865619Y-84539852D01*
X136865615Y-84539848D01*
X136698414Y-84407800D01*
X136698410Y-84407798D01*
X136694359Y-84404598D01*
X136498789Y-84296638D01*
X136493920Y-84294914D01*
X136493916Y-84294912D01*
X136293087Y-84223795D01*
X136293083Y-84223794D01*
X136288212Y-84222069D01*
X136283119Y-84221162D01*
X136283116Y-84221161D01*
X136073373Y-84183800D01*
X136073367Y-84183799D01*
X136068284Y-84182894D01*
X135994452Y-84181992D01*
X135850081Y-84180228D01*
X135850079Y-84180228D01*
X135844911Y-84180165D01*
X135624091Y-84213955D01*
X135411756Y-84283357D01*
X135213607Y-84386507D01*
X135209474Y-84389610D01*
X135209471Y-84389612D01*
X135039100Y-84517530D01*
X135034965Y-84520635D01*
X134995525Y-84561907D01*
X134941280Y-84618671D01*
X134880629Y-84682138D01*
X134773201Y-84839621D01*
X134718293Y-84884621D01*
X134647768Y-84892792D01*
X134584021Y-84861538D01*
X134563324Y-84837054D01*
X134482822Y-84712617D01*
X134482820Y-84712614D01*
X134480014Y-84708277D01*
X134329670Y-84543051D01*
X134325619Y-84539852D01*
X134325615Y-84539848D01*
X134158414Y-84407800D01*
X134158410Y-84407798D01*
X134154359Y-84404598D01*
X133958789Y-84296638D01*
X133953920Y-84294914D01*
X133953916Y-84294912D01*
X133753087Y-84223795D01*
X133753083Y-84223794D01*
X133748212Y-84222069D01*
X133743119Y-84221162D01*
X133743116Y-84221161D01*
X133533373Y-84183800D01*
X133533367Y-84183799D01*
X133528284Y-84182894D01*
X133454452Y-84181992D01*
X133310081Y-84180228D01*
X133310079Y-84180228D01*
X133304911Y-84180165D01*
X133084091Y-84213955D01*
X132871756Y-84283357D01*
X132673607Y-84386507D01*
X132669474Y-84389610D01*
X132669471Y-84389612D01*
X132499100Y-84517530D01*
X132494965Y-84520635D01*
X132455525Y-84561907D01*
X132401280Y-84618671D01*
X132340629Y-84682138D01*
X132233201Y-84839621D01*
X132178293Y-84884621D01*
X132107768Y-84892792D01*
X132044021Y-84861538D01*
X132023324Y-84837054D01*
X131942822Y-84712617D01*
X131942820Y-84712614D01*
X131940014Y-84708277D01*
X131789670Y-84543051D01*
X131785619Y-84539852D01*
X131785615Y-84539848D01*
X131618414Y-84407800D01*
X131618410Y-84407798D01*
X131614359Y-84404598D01*
X131418789Y-84296638D01*
X131413920Y-84294914D01*
X131413916Y-84294912D01*
X131213087Y-84223795D01*
X131213083Y-84223794D01*
X131208212Y-84222069D01*
X131203119Y-84221162D01*
X131203116Y-84221161D01*
X130993373Y-84183800D01*
X130993367Y-84183799D01*
X130988284Y-84182894D01*
X130914452Y-84181992D01*
X130770081Y-84180228D01*
X130770079Y-84180228D01*
X130764911Y-84180165D01*
X130544091Y-84213955D01*
X130331756Y-84283357D01*
X130133607Y-84386507D01*
X130129474Y-84389610D01*
X130129471Y-84389612D01*
X129959100Y-84517530D01*
X129954965Y-84520635D01*
X129915525Y-84561907D01*
X129861280Y-84618671D01*
X129800629Y-84682138D01*
X129674743Y-84866680D01*
X129580688Y-85069305D01*
X129520989Y-85284570D01*
X129497251Y-85506695D01*
X108508500Y-85506695D01*
X108508500Y-83634500D01*
X108528502Y-83566379D01*
X108582158Y-83519886D01*
X108634500Y-83508500D01*
X177365500Y-83508500D01*
X177433621Y-83528502D01*
G37*
G04 #@! TD.AperFunction*
G04 #@! TA.AperFunction,Conductor*
G36*
X119251846Y-100927502D02*
G01*
X119272821Y-100944405D01*
X119319596Y-100991181D01*
X119353621Y-101053494D01*
X119356500Y-101080276D01*
X119356500Y-102532980D01*
X119355970Y-102544214D01*
X119354292Y-102551719D01*
X119354541Y-102559638D01*
X119356438Y-102620012D01*
X119356500Y-102623969D01*
X119356500Y-102651983D01*
X119356996Y-102655908D01*
X119356996Y-102655909D01*
X119357008Y-102656004D01*
X119357941Y-102667849D01*
X119359335Y-102712205D01*
X119361547Y-102719817D01*
X119365013Y-102731748D01*
X119369023Y-102751112D01*
X119371573Y-102771299D01*
X119374489Y-102778663D01*
X119374490Y-102778668D01*
X119387907Y-102812556D01*
X119391752Y-102823785D01*
X119404131Y-102866393D01*
X119408169Y-102873220D01*
X119408170Y-102873223D01*
X119414488Y-102883906D01*
X119423188Y-102901664D01*
X119427761Y-102913215D01*
X119427765Y-102913221D01*
X119430681Y-102920588D01*
X119435339Y-102926999D01*
X119435340Y-102927001D01*
X119456764Y-102956488D01*
X119463281Y-102966410D01*
X119481826Y-102997768D01*
X119481829Y-102997772D01*
X119485866Y-103004598D01*
X119500250Y-103018982D01*
X119513091Y-103034016D01*
X119525058Y-103050487D01*
X119557264Y-103077130D01*
X119559250Y-103078773D01*
X119568031Y-103086763D01*
X119979296Y-103498029D01*
X120013321Y-103560341D01*
X120016200Y-103587124D01*
X120016200Y-104965680D01*
X120015670Y-104976914D01*
X120013992Y-104984419D01*
X120015075Y-105018887D01*
X120016138Y-105052712D01*
X120016200Y-105056669D01*
X120016200Y-105084683D01*
X120016696Y-105088608D01*
X120016696Y-105088609D01*
X120016708Y-105088704D01*
X120017641Y-105100549D01*
X120019035Y-105144905D01*
X120024713Y-105164448D01*
X120028723Y-105183812D01*
X120031273Y-105203999D01*
X120034189Y-105211363D01*
X120034190Y-105211368D01*
X120047607Y-105245256D01*
X120051452Y-105256485D01*
X120063831Y-105299093D01*
X120067869Y-105305920D01*
X120067870Y-105305923D01*
X120074188Y-105316606D01*
X120082888Y-105334364D01*
X120087461Y-105345915D01*
X120087465Y-105345921D01*
X120090381Y-105353288D01*
X120095039Y-105359699D01*
X120095040Y-105359701D01*
X120099654Y-105366051D01*
X120112350Y-105383525D01*
X120116464Y-105389188D01*
X120122981Y-105399110D01*
X120141526Y-105430468D01*
X120141529Y-105430472D01*
X120145566Y-105437298D01*
X120159950Y-105451682D01*
X120172791Y-105466716D01*
X120184758Y-105483187D01*
X120190866Y-105488240D01*
X120218955Y-105511477D01*
X120227735Y-105519467D01*
X120619164Y-105910896D01*
X120653190Y-105973208D01*
X120651486Y-106033662D01*
X120630989Y-106107570D01*
X120630441Y-106112700D01*
X120630440Y-106112704D01*
X120623258Y-106179908D01*
X120607251Y-106329695D01*
X120607548Y-106334848D01*
X120607548Y-106334851D01*
X120616140Y-106483857D01*
X120620110Y-106552715D01*
X120628365Y-106589344D01*
X120623829Y-106660193D01*
X120581708Y-106717345D01*
X120515375Y-106742652D01*
X120485738Y-106741493D01*
X120473502Y-106739555D01*
X120473499Y-106739555D01*
X120465671Y-106738315D01*
X120457779Y-106739061D01*
X120421494Y-106742491D01*
X120409636Y-106743050D01*
X116382525Y-106743050D01*
X116314404Y-106723048D01*
X116267911Y-106669392D01*
X116257807Y-106599118D01*
X116261967Y-106580421D01*
X116315865Y-106403023D01*
X116315865Y-106403021D01*
X116317370Y-106398069D01*
X116346529Y-106176590D01*
X116347480Y-106137671D01*
X116348074Y-106113365D01*
X116348074Y-106113361D01*
X116348156Y-106110000D01*
X116329852Y-105887361D01*
X116275431Y-105670702D01*
X116186354Y-105465840D01*
X116130446Y-105379420D01*
X116067822Y-105282617D01*
X116067820Y-105282614D01*
X116065014Y-105278277D01*
X115914670Y-105113051D01*
X115910619Y-105109852D01*
X115910615Y-105109848D01*
X115743414Y-104977800D01*
X115743410Y-104977798D01*
X115739359Y-104974598D01*
X115698053Y-104951796D01*
X115648084Y-104901364D01*
X115633312Y-104831921D01*
X115658428Y-104765516D01*
X115685780Y-104738909D01*
X115737115Y-104702292D01*
X115864860Y-104611173D01*
X116023096Y-104453489D01*
X116055951Y-104407767D01*
X116150435Y-104276277D01*
X116153453Y-104272077D01*
X116159761Y-104259315D01*
X116250136Y-104076453D01*
X116250137Y-104076451D01*
X116252430Y-104071811D01*
X116308811Y-103886240D01*
X116315865Y-103863023D01*
X116315865Y-103863021D01*
X116317370Y-103858069D01*
X116346529Y-103636590D01*
X116346611Y-103633240D01*
X116348074Y-103573365D01*
X116348074Y-103573361D01*
X116348156Y-103570000D01*
X116329852Y-103347361D01*
X116316904Y-103295811D01*
X116302389Y-103238024D01*
X116305194Y-103167083D01*
X116335498Y-103118234D01*
X116877077Y-102576655D01*
X116885403Y-102569078D01*
X116891903Y-102564953D01*
X116904331Y-102551719D01*
X116938700Y-102515119D01*
X116941455Y-102512277D01*
X116961238Y-102492494D01*
X116963729Y-102489283D01*
X116971438Y-102480256D01*
X116996389Y-102453686D01*
X117001817Y-102447906D01*
X117011622Y-102430071D01*
X117022476Y-102413547D01*
X117030091Y-102403730D01*
X117030092Y-102403729D01*
X117034949Y-102397467D01*
X117052569Y-102356750D01*
X117057792Y-102346089D01*
X117075349Y-102314153D01*
X117075351Y-102314148D01*
X117079169Y-102307203D01*
X117081139Y-102299529D01*
X117081142Y-102299522D01*
X117084232Y-102287487D01*
X117090636Y-102268782D01*
X117095567Y-102257387D01*
X117098717Y-102250108D01*
X117105660Y-102206273D01*
X117108067Y-102194651D01*
X117119100Y-102151682D01*
X117119100Y-102131335D01*
X117120651Y-102111624D01*
X117122595Y-102099350D01*
X117123835Y-102091521D01*
X117119659Y-102047344D01*
X117119100Y-102035486D01*
X117119100Y-101033500D01*
X117139102Y-100965379D01*
X117192758Y-100918886D01*
X117245100Y-100907500D01*
X119183725Y-100907500D01*
X119251846Y-100927502D01*
G37*
G04 #@! TD.AperFunction*
M02*
