G04 #@! TF.GenerationSoftware,KiCad,Pcbnew,(6.0.7)*
G04 #@! TF.CreationDate,2022-09-17T20:35:01+02:00*
G04 #@! TF.ProjectId,SLAU335,534c4155-3333-4352-9e6b-696361645f70,rev?*
G04 #@! TF.SameCoordinates,Original*
G04 #@! TF.FileFunction,Soldermask,Top*
G04 #@! TF.FilePolarity,Negative*
%FSLAX46Y46*%
G04 Gerber Fmt 4.6, Leading zero omitted, Abs format (unit mm)*
G04 Created by KiCad (PCBNEW (6.0.7)) date 2022-09-17 20:35:01*
%MOMM*%
%LPD*%
G01*
G04 APERTURE LIST*
G04 Aperture macros list*
%AMRoundRect*
0 Rectangle with rounded corners*
0 $1 Rounding radius*
0 $2 $3 $4 $5 $6 $7 $8 $9 X,Y pos of 4 corners*
0 Add a 4 corners polygon primitive as box body*
4,1,4,$2,$3,$4,$5,$6,$7,$8,$9,$2,$3,0*
0 Add four circle primitives for the rounded corners*
1,1,$1+$1,$2,$3*
1,1,$1+$1,$4,$5*
1,1,$1+$1,$6,$7*
1,1,$1+$1,$8,$9*
0 Add four rect primitives between the rounded corners*
20,1,$1+$1,$2,$3,$4,$5,0*
20,1,$1+$1,$4,$5,$6,$7,0*
20,1,$1+$1,$6,$7,$8,$9,0*
20,1,$1+$1,$8,$9,$2,$3,0*%
%AMFreePoly0*
4,1,9,5.362500,-0.866500,1.237500,-0.866500,1.237500,-0.450000,-1.237500,-0.450000,-1.237500,0.450000,1.237500,0.450000,1.237500,0.866500,5.362500,0.866500,5.362500,-0.866500,5.362500,-0.866500,$1*%
%AMFreePoly1*
4,1,22,0.500000,-0.750000,0.000000,-0.750000,0.000000,-0.745033,-0.079941,-0.743568,-0.215256,-0.701293,-0.333266,-0.622738,-0.424486,-0.514219,-0.481581,-0.384460,-0.499164,-0.250000,-0.500000,-0.250000,-0.500000,0.250000,-0.499164,0.250000,-0.499963,0.256109,-0.478152,0.396186,-0.417904,0.524511,-0.324060,0.630769,-0.204165,0.706417,-0.067858,0.745374,0.000000,0.744959,0.000000,0.750000,
0.500000,0.750000,0.500000,-0.750000,0.500000,-0.750000,$1*%
%AMFreePoly2*
4,1,20,0.000000,0.744959,0.073905,0.744508,0.209726,0.703889,0.328688,0.626782,0.421226,0.519385,0.479903,0.390333,0.500000,0.250000,0.500000,-0.250000,0.499851,-0.262216,0.476331,-0.402017,0.414519,-0.529596,0.319384,-0.634700,0.198574,-0.708877,0.061801,-0.746166,0.000000,-0.745033,0.000000,-0.750000,-0.500000,-0.750000,-0.500000,0.750000,0.000000,0.750000,0.000000,0.744959,
0.000000,0.744959,$1*%
G04 Aperture macros list end*
%ADD10RoundRect,0.250000X-0.600000X-0.600000X0.600000X-0.600000X0.600000X0.600000X-0.600000X0.600000X0*%
%ADD11C,1.700000*%
%ADD12RoundRect,0.237500X0.300000X0.237500X-0.300000X0.237500X-0.300000X-0.237500X0.300000X-0.237500X0*%
%ADD13R,1.700000X1.700000*%
%ADD14O,1.700000X1.700000*%
%ADD15RoundRect,0.237500X0.237500X-0.300000X0.237500X0.300000X-0.237500X0.300000X-0.237500X-0.300000X0*%
%ADD16RoundRect,0.237500X-0.250000X-0.237500X0.250000X-0.237500X0.250000X0.237500X-0.250000X0.237500X0*%
%ADD17R,2.300000X0.900000*%
%ADD18FreePoly0,0.000000*%
%ADD19RoundRect,0.237500X-0.237500X0.287500X-0.237500X-0.287500X0.237500X-0.287500X0.237500X0.287500X0*%
%ADD20RoundRect,0.237500X-0.237500X0.250000X-0.237500X-0.250000X0.237500X-0.250000X0.237500X0.250000X0*%
%ADD21RoundRect,0.237500X-0.237500X0.300000X-0.237500X-0.300000X0.237500X-0.300000X0.237500X0.300000X0*%
%ADD22R,1.550000X0.400000*%
%ADD23R,1.900000X1.200000*%
%ADD24C,1.450000*%
%ADD25O,1.900000X1.200000*%
%ADD26R,1.900000X1.500000*%
%ADD27RoundRect,0.237500X0.237500X-0.250000X0.237500X0.250000X-0.237500X0.250000X-0.237500X-0.250000X0*%
%ADD28R,1.350000X1.350000*%
%ADD29O,1.350000X1.350000*%
%ADD30RoundRect,0.100000X-0.100000X0.637500X-0.100000X-0.637500X0.100000X-0.637500X0.100000X0.637500X0*%
%ADD31R,1.400000X2.000000*%
%ADD32RoundRect,0.237500X0.250000X0.237500X-0.250000X0.237500X-0.250000X-0.237500X0.250000X-0.237500X0*%
%ADD33RoundRect,0.237500X-0.300000X-0.237500X0.300000X-0.237500X0.300000X0.237500X-0.300000X0.237500X0*%
%ADD34FreePoly1,0.000000*%
%ADD35FreePoly2,0.000000*%
G04 APERTURE END LIST*
D10*
X112445000Y-95950000D03*
D11*
X114985000Y-95950000D03*
X112445000Y-98490000D03*
X114985000Y-98490000D03*
X112445000Y-101030000D03*
X114985000Y-101030000D03*
X112445000Y-103570000D03*
X114985000Y-103570000D03*
X112445000Y-106110000D03*
X114985000Y-106110000D03*
X112445000Y-108650000D03*
X114985000Y-108650000D03*
X112445000Y-111190000D03*
X114985000Y-111190000D03*
D12*
X138199500Y-95192000D03*
X136474500Y-95192000D03*
X138200600Y-92144000D03*
X136475600Y-92144000D03*
D13*
X128320000Y-121100000D03*
D14*
X130860000Y-121100000D03*
X133400000Y-121100000D03*
X135940000Y-121100000D03*
X138480000Y-121100000D03*
X141020000Y-121100000D03*
X143560000Y-121100000D03*
X146100000Y-121100000D03*
D13*
X148640000Y-85540000D03*
D14*
X146100000Y-85540000D03*
X143560000Y-85540000D03*
X141020000Y-85540000D03*
X138480000Y-85540000D03*
X135940000Y-85540000D03*
X133400000Y-85540000D03*
X130860000Y-85540000D03*
D13*
X121970000Y-96203000D03*
D14*
X121970000Y-98743000D03*
X121970000Y-101283000D03*
X121970000Y-103823000D03*
X121970000Y-106363000D03*
X121970000Y-108903000D03*
X121970000Y-111443000D03*
D15*
X163250000Y-103862500D03*
X163250000Y-102137500D03*
X161750000Y-103862500D03*
X161750000Y-102137500D03*
X151600000Y-103862500D03*
X151600000Y-102137500D03*
X153100000Y-103862500D03*
X153100000Y-102137500D03*
D16*
X136440600Y-93664000D03*
X138265600Y-93664000D03*
D17*
X155312500Y-101500000D03*
D18*
X155400000Y-103000000D03*
D17*
X155312500Y-104500000D03*
D19*
X176100000Y-88825000D03*
X176100000Y-90575000D03*
D13*
X165600000Y-89800000D03*
D14*
X163060000Y-89800000D03*
D20*
X174500000Y-88787500D03*
X174500000Y-90612500D03*
D13*
X151180000Y-121100000D03*
D14*
X153720000Y-121100000D03*
X156260000Y-121100000D03*
X158800000Y-121100000D03*
D13*
X155000000Y-93400000D03*
D14*
X157540000Y-93400000D03*
X160080000Y-93400000D03*
D13*
X155000000Y-97000000D03*
D14*
X157540000Y-97000000D03*
X160080000Y-97000000D03*
D13*
X155000000Y-112600000D03*
D14*
X157540000Y-112600000D03*
X160080000Y-112600000D03*
D21*
X164100000Y-109037500D03*
X164100000Y-110762500D03*
X164100000Y-93437500D03*
X164100000Y-95162500D03*
X162600000Y-93437500D03*
X162600000Y-95162500D03*
D13*
X155000000Y-109000000D03*
D14*
X157540000Y-109000000D03*
X160080000Y-109000000D03*
D22*
X173758500Y-104239000D03*
X173758500Y-103589000D03*
X173758500Y-102939000D03*
X173758500Y-102289000D03*
X173758500Y-101639000D03*
D23*
X176546000Y-105839000D03*
D24*
X173846000Y-100489000D03*
D25*
X176546000Y-99339000D03*
X176546000Y-106539000D03*
D26*
X176546000Y-101939000D03*
X176546000Y-103939000D03*
D23*
X176546000Y-100039000D03*
D24*
X173846000Y-105389000D03*
D12*
X138200600Y-90644000D03*
X136475600Y-90644000D03*
D13*
X112300000Y-87180000D03*
D14*
X114840000Y-87180000D03*
X117380000Y-87180000D03*
D21*
X133738000Y-113379500D03*
X133738000Y-115104500D03*
D27*
X135238000Y-115154500D03*
X135238000Y-113329500D03*
D28*
X165350000Y-101050000D03*
D29*
X165350000Y-103050000D03*
X165350000Y-105050000D03*
X169850000Y-101050000D03*
X169850000Y-103050000D03*
X169850000Y-105050000D03*
D21*
X162600000Y-109037500D03*
X162600000Y-110762500D03*
D13*
X128969200Y-95827000D03*
D14*
X131509200Y-95827000D03*
X128969200Y-98367000D03*
X131509200Y-98367000D03*
X128969200Y-100907000D03*
X131509200Y-100907000D03*
X128969200Y-103447000D03*
X131509200Y-103447000D03*
X128969200Y-105987000D03*
X131509200Y-105987000D03*
X128969200Y-108527000D03*
X131509200Y-108527000D03*
D30*
X146692800Y-99644700D03*
X146042800Y-99644700D03*
X145392800Y-99644700D03*
X144742800Y-99644700D03*
X144092800Y-99644700D03*
X143442800Y-99644700D03*
X142792800Y-99644700D03*
X142142800Y-99644700D03*
X141492800Y-99644700D03*
X140842800Y-99644700D03*
X140192800Y-99644700D03*
X139542800Y-99644700D03*
X138892800Y-99644700D03*
X138242800Y-99644700D03*
X138242800Y-105369700D03*
X138892800Y-105369700D03*
X139542800Y-105369700D03*
X140192800Y-105369700D03*
X140842800Y-105369700D03*
X141492800Y-105369700D03*
X142142800Y-105369700D03*
X142792800Y-105369700D03*
X143442800Y-105369700D03*
X144092800Y-105369700D03*
X144742800Y-105369700D03*
X145392800Y-105369700D03*
X146042800Y-105369700D03*
X146692800Y-105369700D03*
D31*
X131749000Y-114242000D03*
X127599000Y-114242000D03*
D32*
X135455500Y-111575000D03*
X133630500Y-111575000D03*
D12*
X138224900Y-96716000D03*
X136499900Y-96716000D03*
D33*
X139904600Y-93668000D03*
X141629600Y-93668000D03*
D34*
X140117100Y-91382000D03*
D35*
X141417100Y-91382000D03*
M02*
