G04 #@! TF.GenerationSoftware,KiCad,Pcbnew,(6.0.7)*
G04 #@! TF.CreationDate,2022-09-17T20:35:01+02:00*
G04 #@! TF.ProjectId,SLAU335,534c4155-3333-4352-9e6b-696361645f70,rev?*
G04 #@! TF.SameCoordinates,Original*
G04 #@! TF.FileFunction,Copper,L1,Top*
G04 #@! TF.FilePolarity,Positive*
%FSLAX46Y46*%
G04 Gerber Fmt 4.6, Leading zero omitted, Abs format (unit mm)*
G04 Created by KiCad (PCBNEW (6.0.7)) date 2022-09-17 20:35:01*
%MOMM*%
%LPD*%
G01*
G04 APERTURE LIST*
G04 Aperture macros list*
%AMRoundRect*
0 Rectangle with rounded corners*
0 $1 Rounding radius*
0 $2 $3 $4 $5 $6 $7 $8 $9 X,Y pos of 4 corners*
0 Add a 4 corners polygon primitive as box body*
4,1,4,$2,$3,$4,$5,$6,$7,$8,$9,$2,$3,0*
0 Add four circle primitives for the rounded corners*
1,1,$1+$1,$2,$3*
1,1,$1+$1,$4,$5*
1,1,$1+$1,$6,$7*
1,1,$1+$1,$8,$9*
0 Add four rect primitives between the rounded corners*
20,1,$1+$1,$2,$3,$4,$5,0*
20,1,$1+$1,$4,$5,$6,$7,0*
20,1,$1+$1,$6,$7,$8,$9,0*
20,1,$1+$1,$8,$9,$2,$3,0*%
%AMFreePoly0*
4,1,9,5.362500,-0.866500,1.237500,-0.866500,1.237500,-0.450000,-1.237500,-0.450000,-1.237500,0.450000,1.237500,0.450000,1.237500,0.866500,5.362500,0.866500,5.362500,-0.866500,5.362500,-0.866500,$1*%
%AMFreePoly1*
4,1,22,0.500000,-0.750000,0.000000,-0.750000,0.000000,-0.745033,-0.079941,-0.743568,-0.215256,-0.701293,-0.333266,-0.622738,-0.424486,-0.514219,-0.481581,-0.384460,-0.499164,-0.250000,-0.500000,-0.250000,-0.500000,0.250000,-0.499164,0.250000,-0.499963,0.256109,-0.478152,0.396186,-0.417904,0.524511,-0.324060,0.630769,-0.204165,0.706417,-0.067858,0.745374,0.000000,0.744959,0.000000,0.750000,
0.500000,0.750000,0.500000,-0.750000,0.500000,-0.750000,$1*%
%AMFreePoly2*
4,1,20,0.000000,0.744959,0.073905,0.744508,0.209726,0.703889,0.328688,0.626782,0.421226,0.519385,0.479903,0.390333,0.500000,0.250000,0.500000,-0.250000,0.499851,-0.262216,0.476331,-0.402017,0.414519,-0.529596,0.319384,-0.634700,0.198574,-0.708877,0.061801,-0.746166,0.000000,-0.745033,0.000000,-0.750000,-0.500000,-0.750000,-0.500000,0.750000,0.000000,0.750000,0.000000,0.744959,
0.000000,0.744959,$1*%
G04 Aperture macros list end*
G04 #@! TA.AperFunction,ComponentPad*
%ADD10RoundRect,0.250000X-0.600000X-0.600000X0.600000X-0.600000X0.600000X0.600000X-0.600000X0.600000X0*%
G04 #@! TD*
G04 #@! TA.AperFunction,ComponentPad*
%ADD11C,1.700000*%
G04 #@! TD*
G04 #@! TA.AperFunction,SMDPad,CuDef*
%ADD12RoundRect,0.237500X0.300000X0.237500X-0.300000X0.237500X-0.300000X-0.237500X0.300000X-0.237500X0*%
G04 #@! TD*
G04 #@! TA.AperFunction,ComponentPad*
%ADD13R,1.700000X1.700000*%
G04 #@! TD*
G04 #@! TA.AperFunction,ComponentPad*
%ADD14O,1.700000X1.700000*%
G04 #@! TD*
G04 #@! TA.AperFunction,SMDPad,CuDef*
%ADD15RoundRect,0.237500X0.237500X-0.300000X0.237500X0.300000X-0.237500X0.300000X-0.237500X-0.300000X0*%
G04 #@! TD*
G04 #@! TA.AperFunction,SMDPad,CuDef*
%ADD16RoundRect,0.237500X-0.250000X-0.237500X0.250000X-0.237500X0.250000X0.237500X-0.250000X0.237500X0*%
G04 #@! TD*
G04 #@! TA.AperFunction,SMDPad,CuDef*
%ADD17R,2.300000X0.900000*%
G04 #@! TD*
G04 #@! TA.AperFunction,SMDPad,CuDef*
%ADD18FreePoly0,0.000000*%
G04 #@! TD*
G04 #@! TA.AperFunction,SMDPad,CuDef*
%ADD19RoundRect,0.237500X-0.237500X0.287500X-0.237500X-0.287500X0.237500X-0.287500X0.237500X0.287500X0*%
G04 #@! TD*
G04 #@! TA.AperFunction,SMDPad,CuDef*
%ADD20RoundRect,0.237500X-0.237500X0.250000X-0.237500X-0.250000X0.237500X-0.250000X0.237500X0.250000X0*%
G04 #@! TD*
G04 #@! TA.AperFunction,SMDPad,CuDef*
%ADD21RoundRect,0.237500X-0.237500X0.300000X-0.237500X-0.300000X0.237500X-0.300000X0.237500X0.300000X0*%
G04 #@! TD*
G04 #@! TA.AperFunction,SMDPad,CuDef*
%ADD22R,1.550000X0.400000*%
G04 #@! TD*
G04 #@! TA.AperFunction,SMDPad,CuDef*
%ADD23R,1.900000X1.200000*%
G04 #@! TD*
G04 #@! TA.AperFunction,ComponentPad*
%ADD24C,1.450000*%
G04 #@! TD*
G04 #@! TA.AperFunction,ComponentPad*
%ADD25O,1.900000X1.200000*%
G04 #@! TD*
G04 #@! TA.AperFunction,SMDPad,CuDef*
%ADD26R,1.900000X1.500000*%
G04 #@! TD*
G04 #@! TA.AperFunction,SMDPad,CuDef*
%ADD27RoundRect,0.237500X0.237500X-0.250000X0.237500X0.250000X-0.237500X0.250000X-0.237500X-0.250000X0*%
G04 #@! TD*
G04 #@! TA.AperFunction,ComponentPad*
%ADD28R,1.350000X1.350000*%
G04 #@! TD*
G04 #@! TA.AperFunction,ComponentPad*
%ADD29O,1.350000X1.350000*%
G04 #@! TD*
G04 #@! TA.AperFunction,SMDPad,CuDef*
%ADD30RoundRect,0.100000X-0.100000X0.637500X-0.100000X-0.637500X0.100000X-0.637500X0.100000X0.637500X0*%
G04 #@! TD*
G04 #@! TA.AperFunction,SMDPad,CuDef*
%ADD31R,1.400000X2.000000*%
G04 #@! TD*
G04 #@! TA.AperFunction,SMDPad,CuDef*
%ADD32RoundRect,0.237500X0.250000X0.237500X-0.250000X0.237500X-0.250000X-0.237500X0.250000X-0.237500X0*%
G04 #@! TD*
G04 #@! TA.AperFunction,SMDPad,CuDef*
%ADD33RoundRect,0.237500X-0.300000X-0.237500X0.300000X-0.237500X0.300000X0.237500X-0.300000X0.237500X0*%
G04 #@! TD*
G04 #@! TA.AperFunction,SMDPad,CuDef*
%ADD34FreePoly1,0.000000*%
G04 #@! TD*
G04 #@! TA.AperFunction,SMDPad,CuDef*
%ADD35FreePoly2,0.000000*%
G04 #@! TD*
G04 #@! TA.AperFunction,ViaPad*
%ADD36C,0.600000*%
G04 #@! TD*
G04 #@! TA.AperFunction,ViaPad*
%ADD37C,0.800000*%
G04 #@! TD*
G04 #@! TA.AperFunction,ViaPad*
%ADD38C,1.000000*%
G04 #@! TD*
G04 #@! TA.AperFunction,Conductor*
%ADD39C,0.254000*%
G04 #@! TD*
G04 #@! TA.AperFunction,Conductor*
%ADD40C,0.381000*%
G04 #@! TD*
G04 #@! TA.AperFunction,Conductor*
%ADD41C,0.508000*%
G04 #@! TD*
G04 #@! TA.AperFunction,Conductor*
%ADD42C,0.750000*%
G04 #@! TD*
G04 APERTURE END LIST*
G36*
X141017100Y-91682000D02*
G01*
X140517100Y-91682000D01*
X140517100Y-91082000D01*
X141017100Y-91082000D01*
X141017100Y-91682000D01*
G37*
D10*
X112445000Y-95950000D03*
D11*
X114985000Y-95950000D03*
X112445000Y-98490000D03*
X114985000Y-98490000D03*
X112445000Y-101030000D03*
X114985000Y-101030000D03*
X112445000Y-103570000D03*
X114985000Y-103570000D03*
X112445000Y-106110000D03*
X114985000Y-106110000D03*
X112445000Y-108650000D03*
X114985000Y-108650000D03*
X112445000Y-111190000D03*
X114985000Y-111190000D03*
D12*
X138199500Y-95192000D03*
X136474500Y-95192000D03*
X138200600Y-92144000D03*
X136475600Y-92144000D03*
D13*
X128320000Y-121100000D03*
D14*
X130860000Y-121100000D03*
X133400000Y-121100000D03*
X135940000Y-121100000D03*
X138480000Y-121100000D03*
X141020000Y-121100000D03*
X143560000Y-121100000D03*
X146100000Y-121100000D03*
D13*
X148640000Y-85540000D03*
D14*
X146100000Y-85540000D03*
X143560000Y-85540000D03*
X141020000Y-85540000D03*
X138480000Y-85540000D03*
X135940000Y-85540000D03*
X133400000Y-85540000D03*
X130860000Y-85540000D03*
D13*
X121970000Y-96203000D03*
D14*
X121970000Y-98743000D03*
X121970000Y-101283000D03*
X121970000Y-103823000D03*
X121970000Y-106363000D03*
X121970000Y-108903000D03*
X121970000Y-111443000D03*
D15*
X163250000Y-103862500D03*
X163250000Y-102137500D03*
X161750000Y-103862500D03*
X161750000Y-102137500D03*
X151600000Y-103862500D03*
X151600000Y-102137500D03*
X153100000Y-103862500D03*
X153100000Y-102137500D03*
D16*
X136440600Y-93664000D03*
X138265600Y-93664000D03*
D17*
X155312500Y-101500000D03*
D18*
X155400000Y-103000000D03*
D17*
X155312500Y-104500000D03*
D19*
X176100000Y-88825000D03*
X176100000Y-90575000D03*
D13*
X165600000Y-89800000D03*
D14*
X163060000Y-89800000D03*
D20*
X174500000Y-88787500D03*
X174500000Y-90612500D03*
D13*
X151180000Y-121100000D03*
D14*
X153720000Y-121100000D03*
X156260000Y-121100000D03*
X158800000Y-121100000D03*
D13*
X155000000Y-93400000D03*
D14*
X157540000Y-93400000D03*
X160080000Y-93400000D03*
D13*
X155000000Y-97000000D03*
D14*
X157540000Y-97000000D03*
X160080000Y-97000000D03*
D13*
X155000000Y-112600000D03*
D14*
X157540000Y-112600000D03*
X160080000Y-112600000D03*
D21*
X164100000Y-109037500D03*
X164100000Y-110762500D03*
X164100000Y-93437500D03*
X164100000Y-95162500D03*
X162600000Y-93437500D03*
X162600000Y-95162500D03*
D13*
X155000000Y-109000000D03*
D14*
X157540000Y-109000000D03*
X160080000Y-109000000D03*
D22*
X173758500Y-104239000D03*
X173758500Y-103589000D03*
X173758500Y-102939000D03*
X173758500Y-102289000D03*
X173758500Y-101639000D03*
D23*
X176546000Y-105839000D03*
D24*
X173846000Y-100489000D03*
D25*
X176546000Y-99339000D03*
X176546000Y-106539000D03*
D26*
X176546000Y-101939000D03*
X176546000Y-103939000D03*
D23*
X176546000Y-100039000D03*
D24*
X173846000Y-105389000D03*
D12*
X138200600Y-90644000D03*
X136475600Y-90644000D03*
D13*
X112300000Y-87180000D03*
D14*
X114840000Y-87180000D03*
X117380000Y-87180000D03*
D21*
X133738000Y-113379500D03*
X133738000Y-115104500D03*
D27*
X135238000Y-115154500D03*
X135238000Y-113329500D03*
D28*
X165350000Y-101050000D03*
D29*
X165350000Y-103050000D03*
X165350000Y-105050000D03*
X169850000Y-101050000D03*
X169850000Y-103050000D03*
X169850000Y-105050000D03*
D21*
X162600000Y-109037500D03*
X162600000Y-110762500D03*
D13*
X128969200Y-95827000D03*
D14*
X131509200Y-95827000D03*
X128969200Y-98367000D03*
X131509200Y-98367000D03*
X128969200Y-100907000D03*
X131509200Y-100907000D03*
X128969200Y-103447000D03*
X131509200Y-103447000D03*
X128969200Y-105987000D03*
X131509200Y-105987000D03*
X128969200Y-108527000D03*
X131509200Y-108527000D03*
D30*
X146692800Y-99644700D03*
X146042800Y-99644700D03*
X145392800Y-99644700D03*
X144742800Y-99644700D03*
X144092800Y-99644700D03*
X143442800Y-99644700D03*
X142792800Y-99644700D03*
X142142800Y-99644700D03*
X141492800Y-99644700D03*
X140842800Y-99644700D03*
X140192800Y-99644700D03*
X139542800Y-99644700D03*
X138892800Y-99644700D03*
X138242800Y-99644700D03*
X138242800Y-105369700D03*
X138892800Y-105369700D03*
X139542800Y-105369700D03*
X140192800Y-105369700D03*
X140842800Y-105369700D03*
X141492800Y-105369700D03*
X142142800Y-105369700D03*
X142792800Y-105369700D03*
X143442800Y-105369700D03*
X144092800Y-105369700D03*
X144742800Y-105369700D03*
X145392800Y-105369700D03*
X146042800Y-105369700D03*
X146692800Y-105369700D03*
D31*
X131749000Y-114242000D03*
X127599000Y-114242000D03*
D32*
X135455500Y-111575000D03*
X133630500Y-111575000D03*
D12*
X138224900Y-96716000D03*
X136499900Y-96716000D03*
D33*
X139904600Y-93668000D03*
X141629600Y-93668000D03*
D34*
X140117100Y-91382000D03*
D35*
X141417100Y-91382000D03*
D36*
X140131000Y-89985000D03*
X115010400Y-91585200D03*
X124713200Y-98748000D03*
X118414000Y-104437600D03*
X123646400Y-91382000D03*
X136448000Y-115131000D03*
D37*
X134938000Y-93400000D03*
D38*
X153050000Y-105900000D03*
D36*
X133409129Y-98738871D03*
X141401000Y-97986000D03*
X139877000Y-94938000D03*
D39*
X139542800Y-99644700D02*
X139542800Y-100987200D01*
X171272000Y-101568000D02*
X171354000Y-101650000D01*
D40*
X140117100Y-89998900D02*
X140131000Y-89985000D01*
D39*
X136499900Y-100577900D02*
X136499900Y-96716000D01*
X171272000Y-100500000D02*
X171272000Y-101568000D01*
X139542800Y-100987200D02*
X139242000Y-101288000D01*
X171354000Y-101650000D02*
X173747500Y-101650000D01*
X137210000Y-101288000D02*
X136499900Y-100577900D01*
D41*
X127599000Y-114242000D02*
X129377000Y-116020000D01*
D39*
X173835000Y-100500000D02*
X171272000Y-100500000D01*
D40*
X136475600Y-90644000D02*
X136475600Y-92144000D01*
D39*
X139242000Y-101288000D02*
X137210000Y-101288000D01*
X173846000Y-100489000D02*
X173835000Y-100500000D01*
D40*
X136474500Y-96690600D02*
X136499900Y-96716000D01*
D41*
X129377000Y-116020000D02*
X132822500Y-116020000D01*
X132822500Y-116020000D02*
X133738000Y-115104500D01*
D40*
X140117100Y-91382000D02*
X140117100Y-89998900D01*
D39*
X173747500Y-101650000D02*
X173758500Y-101639000D01*
D40*
X136474500Y-95192000D02*
X136474500Y-96690600D01*
D39*
X131509200Y-108527000D02*
X132407500Y-108527000D01*
X138242800Y-105369700D02*
X134666500Y-105369700D01*
X132407500Y-108527000D02*
X135455500Y-111575000D01*
X134666500Y-105369700D02*
X131509200Y-108527000D01*
X138607000Y-104082000D02*
X133414200Y-104082000D01*
X133414200Y-104082000D02*
X131509200Y-105987000D01*
X138892800Y-105369700D02*
X138892800Y-104367800D01*
X138892800Y-104367800D02*
X138607000Y-104082000D01*
D42*
X154275000Y-104500000D02*
X155312500Y-104500000D01*
X160080000Y-93400000D02*
X162562500Y-93400000D01*
X153637500Y-103862500D02*
X154275000Y-104500000D01*
X155000000Y-93400000D02*
X157540000Y-93400000D01*
X153050000Y-105900000D02*
X153050000Y-103912500D01*
X153050000Y-103912500D02*
X153100000Y-103862500D01*
D41*
X164100000Y-93437500D02*
X173237500Y-93437500D01*
D40*
X138892800Y-97827200D02*
X139369000Y-97351000D01*
D42*
X157540000Y-93400000D02*
X160080000Y-93400000D01*
D41*
X135261500Y-115131000D02*
X135238000Y-115154500D01*
D42*
X162562500Y-93400000D02*
X162600000Y-93437500D01*
D40*
X139369000Y-97351000D02*
X139369000Y-96081000D01*
D41*
X136448000Y-115131000D02*
X135261500Y-115131000D01*
X173237500Y-93437500D02*
X173537500Y-93137500D01*
X176100000Y-90575000D02*
X173537500Y-93137500D01*
D40*
X134938000Y-93400000D02*
X136176600Y-93400000D01*
X139369000Y-96081000D02*
X138480000Y-95192000D01*
D41*
X173537500Y-93137500D02*
X173275000Y-93400000D01*
D40*
X138892800Y-99644700D02*
X138892800Y-97827200D01*
X136440600Y-93664000D02*
X136671500Y-93664000D01*
D42*
X162600000Y-93437500D02*
X164100000Y-93437500D01*
X153100000Y-103862500D02*
X153637500Y-103862500D01*
D40*
X136176600Y-93400000D02*
X136440600Y-93664000D01*
X138480000Y-95192000D02*
X138199500Y-95192000D01*
X136671500Y-93664000D02*
X138199500Y-95192000D01*
D42*
X153100000Y-103862500D02*
X151600000Y-103862500D01*
D39*
X146692800Y-117501800D02*
X147024000Y-117833000D01*
X147024000Y-117833000D02*
X155533000Y-117833000D01*
X146692800Y-105369700D02*
X146692800Y-117501800D01*
X155533000Y-117833000D02*
X158800000Y-121100000D01*
X149783000Y-100848328D02*
X149783000Y-91255000D01*
X151238000Y-89800000D02*
X163060000Y-89800000D01*
X146042800Y-104588528D02*
X149783000Y-100848328D01*
X146042800Y-105369700D02*
X146042800Y-117748484D01*
X149783000Y-91255000D02*
X151238000Y-89800000D01*
X156260000Y-121100000D02*
X153574000Y-118414000D01*
X146708316Y-118414000D02*
X153574000Y-118414000D01*
X146042800Y-117748484D02*
X146708316Y-118414000D01*
X146042800Y-105369700D02*
X146042800Y-104588528D01*
X144742800Y-105369700D02*
X144742800Y-118091800D01*
X146227000Y-119576000D02*
X150164000Y-119576000D01*
X144742800Y-118091800D02*
X146227000Y-119576000D01*
X151180000Y-121100000D02*
X151180000Y-120592000D01*
X151180000Y-120592000D02*
X150164000Y-119576000D01*
X145392800Y-105369700D02*
X145392800Y-117920142D01*
X146467658Y-118995000D02*
X145392800Y-117920142D01*
X153720000Y-121100000D02*
X151615000Y-118995000D01*
X151615000Y-118995000D02*
X146467658Y-118995000D01*
X144092800Y-105369700D02*
X144092800Y-119092800D01*
X146100000Y-121100000D02*
X144092800Y-119092800D01*
X139115000Y-119449000D02*
X139936658Y-119449000D01*
X138480000Y-121100000D02*
X138480000Y-120084000D01*
X138480000Y-120084000D02*
X139115000Y-119449000D01*
X139936658Y-119449000D02*
X142142800Y-117242858D01*
X142142800Y-105369700D02*
X142142800Y-117242858D01*
X139696000Y-118868000D02*
X138172000Y-118868000D01*
X141492800Y-105369700D02*
X141492800Y-117071200D01*
X139980104Y-102266000D02*
X141492800Y-103778696D01*
X141492800Y-117071200D02*
X139696000Y-118868000D01*
X138172000Y-118868000D02*
X135940000Y-121100000D01*
X141492800Y-103778696D02*
X141492800Y-105369700D01*
X134759000Y-102266000D02*
X139980104Y-102266000D01*
X131509200Y-95827000D02*
X134435000Y-98752800D01*
X134435000Y-98752800D02*
X134435000Y-101942000D01*
X134435000Y-101942000D02*
X134759000Y-102266000D01*
X133981000Y-102130052D02*
X134570948Y-102720000D01*
X134797000Y-119703000D02*
X136515342Y-119703000D01*
X140842800Y-105369700D02*
X140842800Y-116824516D01*
X133409129Y-98757129D02*
X133981000Y-99329000D01*
X136515342Y-119703000D02*
X137931342Y-118287000D01*
X134570948Y-102720000D02*
X139792052Y-102720000D01*
X137931342Y-118287000D02*
X139380316Y-118287000D01*
X133400000Y-121100000D02*
X134797000Y-119703000D01*
X133981000Y-99329000D02*
X133981000Y-102130052D01*
X139792052Y-102720000D02*
X140842800Y-103770748D01*
X133409129Y-98738871D02*
X133409129Y-98757129D01*
X140842800Y-103770748D02*
X140842800Y-105369700D01*
X139380316Y-118287000D02*
X140842800Y-116824516D01*
X140192800Y-103762800D02*
X140192800Y-105369700D01*
X132765000Y-98980748D02*
X133527000Y-99742748D01*
X140192800Y-116652858D02*
X139139658Y-117706000D01*
X127685000Y-97097000D02*
X132130000Y-97097000D01*
X139139658Y-117706000D02*
X137690684Y-117706000D01*
X112445000Y-101030000D02*
X112445000Y-100395000D01*
X116895450Y-99758550D02*
X120451000Y-96203000D01*
X133527000Y-99742748D02*
X133527000Y-102393000D01*
X113081450Y-99758550D02*
X116895450Y-99758550D01*
X139604000Y-103174000D02*
X140192800Y-103762800D01*
X140192800Y-105369700D02*
X140192800Y-116652858D01*
X136274684Y-119122000D02*
X134556342Y-119122000D01*
X121970000Y-96203000D02*
X126791000Y-96203000D01*
X120451000Y-96203000D02*
X121970000Y-96203000D01*
X134308000Y-103174000D02*
X139604000Y-103174000D01*
X133911842Y-119766500D02*
X132193500Y-119766500D01*
X126791000Y-96203000D02*
X127685000Y-97097000D01*
X132130000Y-97097000D02*
X132765000Y-97732000D01*
X137690684Y-117706000D02*
X136274684Y-119122000D01*
X112445000Y-100395000D02*
X113081450Y-99758550D01*
X132765000Y-97732000D02*
X132765000Y-98980748D01*
X132193500Y-119766500D02*
X130860000Y-121100000D01*
X133527000Y-102393000D02*
X134308000Y-103174000D01*
X134556342Y-119122000D02*
X133911842Y-119766500D01*
X139542800Y-116481200D02*
X138899000Y-117125000D01*
X139542800Y-105369700D02*
X139542800Y-116481200D01*
X133019000Y-99876800D02*
X133019000Y-102558000D01*
X136034026Y-118541000D02*
X134315684Y-118541000D01*
X139042000Y-103628000D02*
X139542800Y-104128800D01*
X137450026Y-117125000D02*
X136034026Y-118541000D01*
X129653500Y-119766500D02*
X128320000Y-121100000D01*
X138899000Y-117125000D02*
X137450026Y-117125000D01*
X134315684Y-118541000D02*
X133671184Y-119185500D01*
X131952842Y-119185500D02*
X131371842Y-119766500D01*
X139542800Y-104128800D02*
X139542800Y-105369700D01*
X134089000Y-103628000D02*
X139042000Y-103628000D01*
X133671184Y-119185500D02*
X131952842Y-119185500D01*
X131509200Y-98367000D02*
X133019000Y-99876800D01*
X131371842Y-119766500D02*
X129653500Y-119766500D01*
X133019000Y-102558000D02*
X134089000Y-103628000D01*
D42*
X165350000Y-105050000D02*
X165350000Y-107787500D01*
X162600000Y-109037500D02*
X164100000Y-109037500D01*
X160080000Y-109000000D02*
X162562500Y-109000000D01*
X160887500Y-103000000D02*
X155400000Y-103000000D01*
X162562500Y-109000000D02*
X162600000Y-109037500D01*
X161750000Y-103862500D02*
X160887500Y-103000000D01*
X165350000Y-105050000D02*
X164437500Y-105050000D01*
X169850000Y-105050000D02*
X165350000Y-105050000D01*
X165350000Y-107787500D02*
X164100000Y-109037500D01*
X161750000Y-103862500D02*
X163250000Y-103862500D01*
X157540000Y-109000000D02*
X160080000Y-109000000D01*
X164437500Y-105050000D02*
X163250000Y-103862500D01*
X155000000Y-109000000D02*
X157540000Y-109000000D01*
X117380000Y-97038800D02*
X117380000Y-87180000D01*
X114985000Y-98490000D02*
X115928800Y-98490000D01*
X115928800Y-98490000D02*
X117380000Y-97038800D01*
D41*
X112300000Y-87180000D02*
X112300000Y-93265000D01*
X112300000Y-93265000D02*
X114985000Y-95950000D01*
X174537500Y-88825000D02*
X174500000Y-88787500D01*
X176100000Y-88825000D02*
X174537500Y-88825000D01*
D39*
X124886000Y-103447000D02*
X121970000Y-106363000D01*
X128969200Y-103447000D02*
X124886000Y-103447000D01*
X130225000Y-102162800D02*
X128969200Y-100907000D01*
X129717000Y-104717000D02*
X130225000Y-104209000D01*
X121970000Y-108903000D02*
X123494000Y-107379000D01*
X123494000Y-105860000D02*
X124637000Y-104717000D01*
X124637000Y-104717000D02*
X129717000Y-104717000D01*
X130225000Y-104209000D02*
X130225000Y-102162800D01*
X123494000Y-107379000D02*
X123494000Y-105860000D01*
X112445000Y-102935000D02*
X113076000Y-102304000D01*
X119679000Y-98743000D02*
X121970000Y-98743000D01*
X123997000Y-96716000D02*
X126026948Y-96716000D01*
X127677948Y-98367000D02*
X128969200Y-98367000D01*
X121970000Y-98743000D02*
X123997000Y-96716000D01*
X112445000Y-103570000D02*
X112445000Y-102935000D01*
X116118000Y-102304000D02*
X119679000Y-98743000D01*
X113076000Y-102304000D02*
X116118000Y-102304000D01*
X126026948Y-96716000D02*
X127677948Y-98367000D01*
D40*
X171050000Y-104250000D02*
X173747500Y-104250000D01*
X169850000Y-103050000D02*
X171050000Y-104250000D01*
X173747500Y-104250000D02*
X173758500Y-104239000D01*
D42*
X169850000Y-103050000D02*
X165350000Y-103050000D01*
D39*
X165600000Y-89800000D02*
X166412500Y-90612500D01*
X166412500Y-90612500D02*
X174500000Y-90612500D01*
X141492800Y-98077800D02*
X141401000Y-97986000D01*
X138200600Y-90644000D02*
X138200600Y-92144000D01*
X139900600Y-93664000D02*
X139904600Y-93668000D01*
X138265600Y-93664000D02*
X139900600Y-93664000D01*
X138200600Y-93599000D02*
X138265600Y-93664000D01*
X139904600Y-94910400D02*
X139877000Y-94938000D01*
X141492800Y-99644700D02*
X141492800Y-98077800D01*
X139904600Y-93668000D02*
X139904600Y-94910400D01*
X138200600Y-92144000D02*
X138200600Y-93599000D01*
X141629600Y-91594500D02*
X141417100Y-91382000D01*
X141629600Y-94201400D02*
X141629600Y-93668000D01*
X139886500Y-98249500D02*
X139886500Y-95944500D01*
X141629600Y-93668000D02*
X141629600Y-91594500D01*
X140192800Y-99644700D02*
X140192800Y-98555800D01*
X140192800Y-98555800D02*
X139886500Y-98249500D01*
X140192800Y-99644700D02*
X140842800Y-99644700D01*
X139886500Y-95944500D02*
X141629600Y-94201400D01*
X142792800Y-105369700D02*
X142792800Y-119327200D01*
X141020000Y-121100000D02*
X142792800Y-119327200D01*
X143560000Y-121100000D02*
X143433000Y-120973000D01*
X143433000Y-119341600D02*
X143442800Y-119331800D01*
X143433000Y-120973000D02*
X143433000Y-119341600D01*
X143442800Y-105369700D02*
X143442800Y-119331800D01*
X138242800Y-96733900D02*
X138224900Y-96716000D01*
X138242800Y-99644700D02*
X138242800Y-96733900D01*
X135238000Y-113329500D02*
X133788000Y-113329500D01*
X133738000Y-113379500D02*
X132611500Y-113379500D01*
X133630500Y-111575000D02*
X133630500Y-113272000D01*
X133630500Y-113272000D02*
X133738000Y-113379500D01*
X132611500Y-113379500D02*
X131749000Y-114242000D01*
X133788000Y-113329500D02*
X133738000Y-113379500D01*
X145649000Y-87261000D02*
X145649000Y-97013211D01*
X146735000Y-99602500D02*
X146692800Y-99644700D01*
X146735000Y-98099211D02*
X146735000Y-99602500D01*
X145973000Y-86937000D02*
X145649000Y-87261000D01*
X145649000Y-97013211D02*
X146735000Y-98099211D01*
X148640000Y-85540000D02*
X147243000Y-86937000D01*
X147243000Y-86937000D02*
X145973000Y-86937000D01*
X146042800Y-99644700D02*
X146042800Y-97978353D01*
X145245000Y-97180553D02*
X145245000Y-86395000D01*
X145245000Y-86395000D02*
X146100000Y-85540000D01*
X146042800Y-97978353D02*
X145245000Y-97180553D01*
X145408395Y-97986000D02*
X145408395Y-99629105D01*
X145408395Y-99629105D02*
X145392800Y-99644700D01*
X144791000Y-89360867D02*
X144791000Y-97368605D01*
X143560000Y-88129868D02*
X144791000Y-89360867D01*
X143560000Y-85540000D02*
X143560000Y-88129868D01*
X144791000Y-97368605D02*
X145408395Y-97986000D01*
X141466000Y-87634000D02*
X142492789Y-87633999D01*
X144742800Y-97891747D02*
X144742800Y-99644700D01*
X141020000Y-85540000D02*
X141020000Y-87188000D01*
X144387000Y-89528209D02*
X144387000Y-97535947D01*
X144387000Y-97535947D02*
X144742800Y-97891747D01*
X142492789Y-87633999D02*
X144387000Y-89528209D01*
X141020000Y-87188000D02*
X141466000Y-87634000D01*
X139250000Y-88088000D02*
X142304737Y-88088000D01*
X138480000Y-87318000D02*
X139250000Y-88088000D01*
X142304737Y-88088000D02*
X143933000Y-89716262D01*
X138480000Y-85540000D02*
X138480000Y-87318000D01*
X143933000Y-97724000D02*
X144092800Y-97883800D01*
X143933000Y-89716262D02*
X143933000Y-97724000D01*
X144092800Y-97883800D02*
X144092800Y-99644700D01*
X135940000Y-88080000D02*
X135940000Y-85540000D01*
X142137395Y-88492000D02*
X136352000Y-88492000D01*
X143442800Y-99644700D02*
X143442800Y-94801200D01*
X136352000Y-88492000D02*
X135940000Y-88080000D01*
X143529000Y-89883605D02*
X142137395Y-88492000D01*
X143529000Y-94715000D02*
X143529000Y-89883605D01*
X143442800Y-94801200D02*
X143529000Y-94715000D01*
X133758000Y-88946000D02*
X133400000Y-88588000D01*
X143075000Y-94407000D02*
X143075000Y-90071658D01*
X142792800Y-94689200D02*
X143075000Y-94407000D01*
X142792800Y-99644700D02*
X142792800Y-94689200D01*
X133400000Y-88588000D02*
X133400000Y-85540000D01*
X143075000Y-90071658D02*
X141949342Y-88946000D01*
X141949342Y-88946000D02*
X133758000Y-88946000D01*
X142671000Y-90239000D02*
X141782000Y-89350000D01*
X141782000Y-89350000D02*
X131495000Y-89350000D01*
X142142800Y-94704200D02*
X142671000Y-94176000D01*
X130860000Y-88715000D02*
X130860000Y-85540000D01*
X142671000Y-94176000D02*
X142671000Y-90239000D01*
X131495000Y-89350000D02*
X130860000Y-88715000D01*
X142142800Y-99644700D02*
X142142800Y-94704200D01*
G04 #@! TA.AperFunction,Conductor*
G36*
X177433621Y-83528502D02*
G01*
X177480114Y-83582158D01*
X177491500Y-83634500D01*
X177491500Y-98197762D01*
X177471498Y-98265883D01*
X177417842Y-98312376D01*
X177347568Y-98322480D01*
X177318401Y-98314628D01*
X177217685Y-98274038D01*
X177206230Y-98270645D01*
X177009072Y-98232143D01*
X177000209Y-98231066D01*
X176997500Y-98231000D01*
X176818115Y-98231000D01*
X176802876Y-98235475D01*
X176801671Y-98236865D01*
X176800000Y-98244548D01*
X176800000Y-107628885D01*
X176804475Y-107644124D01*
X176805865Y-107645329D01*
X176813548Y-107647000D01*
X176945832Y-107647000D01*
X176951808Y-107646715D01*
X177100494Y-107632529D01*
X177112228Y-107630270D01*
X177303598Y-107574129D01*
X177318708Y-107568085D01*
X177389385Y-107561359D01*
X177452479Y-107593911D01*
X177487958Y-107655407D01*
X177491500Y-107685074D01*
X177491500Y-122365500D01*
X177471498Y-122433621D01*
X177417842Y-122480114D01*
X177365500Y-122491500D01*
X159582343Y-122491500D01*
X159514222Y-122471498D01*
X159467729Y-122417842D01*
X159457625Y-122347568D01*
X159487119Y-122282988D01*
X159509175Y-122262921D01*
X159675656Y-122144172D01*
X159675659Y-122144170D01*
X159679860Y-122141173D01*
X159838096Y-121983489D01*
X159968453Y-121802077D01*
X159989320Y-121759857D01*
X160065136Y-121606453D01*
X160065137Y-121606451D01*
X160067430Y-121601811D01*
X160132370Y-121388069D01*
X160161529Y-121166590D01*
X160163156Y-121100000D01*
X160144852Y-120877361D01*
X160090431Y-120660702D01*
X160001354Y-120455840D01*
X159925042Y-120337880D01*
X159882822Y-120272617D01*
X159882820Y-120272614D01*
X159880014Y-120268277D01*
X159729670Y-120103051D01*
X159725619Y-120099852D01*
X159725615Y-120099848D01*
X159558414Y-119967800D01*
X159558410Y-119967798D01*
X159554359Y-119964598D01*
X159358789Y-119856638D01*
X159353920Y-119854914D01*
X159353916Y-119854912D01*
X159153087Y-119783795D01*
X159153083Y-119783794D01*
X159148212Y-119782069D01*
X159143119Y-119781162D01*
X159143116Y-119781161D01*
X158933373Y-119743800D01*
X158933367Y-119743799D01*
X158928284Y-119742894D01*
X158854452Y-119741992D01*
X158710081Y-119740228D01*
X158710079Y-119740228D01*
X158704911Y-119740165D01*
X158557627Y-119762703D01*
X158489200Y-119773173D01*
X158489197Y-119773174D01*
X158484091Y-119773955D01*
X158479184Y-119775559D01*
X158479171Y-119775562D01*
X158473661Y-119777363D01*
X158402697Y-119779512D01*
X158345425Y-119746692D01*
X156038250Y-117439517D01*
X156030674Y-117431191D01*
X156026553Y-117424697D01*
X155976734Y-117377914D01*
X155973893Y-117375160D01*
X155954094Y-117355361D01*
X155950969Y-117352937D01*
X155950960Y-117352929D01*
X155950874Y-117352863D01*
X155941849Y-117345155D01*
X155915285Y-117320210D01*
X155909506Y-117314783D01*
X155891669Y-117304977D01*
X155875153Y-117294127D01*
X155859067Y-117281650D01*
X155818334Y-117264024D01*
X155807686Y-117258807D01*
X155796058Y-117252415D01*
X155768803Y-117237431D01*
X155761128Y-117235460D01*
X155761122Y-117235458D01*
X155749089Y-117232369D01*
X155730387Y-117225966D01*
X155711708Y-117217883D01*
X155677872Y-117212524D01*
X155667873Y-117210940D01*
X155656260Y-117208535D01*
X155613282Y-117197500D01*
X155592935Y-117197500D01*
X155573224Y-117195949D01*
X155560950Y-117194005D01*
X155553121Y-117192765D01*
X155545229Y-117193511D01*
X155508944Y-117196941D01*
X155497086Y-117197500D01*
X147454300Y-117197500D01*
X147386179Y-117177498D01*
X147339686Y-117123842D01*
X147328300Y-117071500D01*
X147328300Y-113494669D01*
X153642001Y-113494669D01*
X153642371Y-113501490D01*
X153647895Y-113552352D01*
X153651521Y-113567604D01*
X153696676Y-113688054D01*
X153705214Y-113703649D01*
X153781715Y-113805724D01*
X153794276Y-113818285D01*
X153896351Y-113894786D01*
X153911946Y-113903324D01*
X154032394Y-113948478D01*
X154047649Y-113952105D01*
X154098514Y-113957631D01*
X154105328Y-113958000D01*
X154727885Y-113958000D01*
X154743124Y-113953525D01*
X154744329Y-113952135D01*
X154746000Y-113944452D01*
X154746000Y-113939884D01*
X155254000Y-113939884D01*
X155258475Y-113955123D01*
X155259865Y-113956328D01*
X155267548Y-113957999D01*
X155894669Y-113957999D01*
X155901490Y-113957629D01*
X155952352Y-113952105D01*
X155967604Y-113948479D01*
X156088054Y-113903324D01*
X156103649Y-113894786D01*
X156205724Y-113818285D01*
X156218285Y-113805724D01*
X156294786Y-113703649D01*
X156303325Y-113688052D01*
X156344425Y-113578418D01*
X156387066Y-113521653D01*
X156453628Y-113496953D01*
X156522977Y-113512160D01*
X156557645Y-113540150D01*
X156583219Y-113569674D01*
X156590580Y-113576883D01*
X156754434Y-113712916D01*
X156762881Y-113718831D01*
X156946756Y-113826279D01*
X156956042Y-113830729D01*
X157155001Y-113906703D01*
X157164899Y-113909579D01*
X157268250Y-113930606D01*
X157282299Y-113929410D01*
X157286000Y-113919065D01*
X157286000Y-113918517D01*
X157794000Y-113918517D01*
X157798064Y-113932359D01*
X157811478Y-113934393D01*
X157818184Y-113933534D01*
X157828262Y-113931392D01*
X158032255Y-113870191D01*
X158041842Y-113866433D01*
X158233095Y-113772739D01*
X158241945Y-113767464D01*
X158415328Y-113643792D01*
X158423200Y-113637139D01*
X158574052Y-113486812D01*
X158580730Y-113478965D01*
X158708022Y-113301819D01*
X158709147Y-113302627D01*
X158756669Y-113258876D01*
X158826607Y-113246661D01*
X158892046Y-113274197D01*
X158919870Y-113306028D01*
X158977690Y-113400383D01*
X158983777Y-113408699D01*
X159123213Y-113569667D01*
X159130580Y-113576883D01*
X159294434Y-113712916D01*
X159302881Y-113718831D01*
X159486756Y-113826279D01*
X159496042Y-113830729D01*
X159695001Y-113906703D01*
X159704899Y-113909579D01*
X159808250Y-113930606D01*
X159822299Y-113929410D01*
X159826000Y-113919065D01*
X159826000Y-113918517D01*
X160334000Y-113918517D01*
X160338064Y-113932359D01*
X160351478Y-113934393D01*
X160358184Y-113933534D01*
X160368262Y-113931392D01*
X160572255Y-113870191D01*
X160581842Y-113866433D01*
X160773095Y-113772739D01*
X160781945Y-113767464D01*
X160955328Y-113643792D01*
X160963200Y-113637139D01*
X161114052Y-113486812D01*
X161120730Y-113478965D01*
X161245003Y-113306020D01*
X161250313Y-113297183D01*
X161344670Y-113106267D01*
X161348469Y-113096672D01*
X161410377Y-112892910D01*
X161412555Y-112882837D01*
X161413986Y-112871962D01*
X161411775Y-112857778D01*
X161398617Y-112854000D01*
X160352115Y-112854000D01*
X160336876Y-112858475D01*
X160335671Y-112859865D01*
X160334000Y-112867548D01*
X160334000Y-113918517D01*
X159826000Y-113918517D01*
X159826000Y-112872115D01*
X159821525Y-112856876D01*
X159820135Y-112855671D01*
X159812452Y-112854000D01*
X157812115Y-112854000D01*
X157796876Y-112858475D01*
X157795671Y-112859865D01*
X157794000Y-112867548D01*
X157794000Y-113918517D01*
X157286000Y-113918517D01*
X157286000Y-112872115D01*
X157281525Y-112856876D01*
X157280135Y-112855671D01*
X157272452Y-112854000D01*
X155272115Y-112854000D01*
X155256876Y-112858475D01*
X155255671Y-112859865D01*
X155254000Y-112867548D01*
X155254000Y-113939884D01*
X154746000Y-113939884D01*
X154746000Y-112872115D01*
X154741525Y-112856876D01*
X154740135Y-112855671D01*
X154732452Y-112854000D01*
X153660116Y-112854000D01*
X153644877Y-112858475D01*
X153643672Y-112859865D01*
X153642001Y-112867548D01*
X153642001Y-113494669D01*
X147328300Y-113494669D01*
X147328300Y-112327885D01*
X153642000Y-112327885D01*
X153646475Y-112343124D01*
X153647865Y-112344329D01*
X153655548Y-112346000D01*
X154727885Y-112346000D01*
X154743124Y-112341525D01*
X154744329Y-112340135D01*
X154746000Y-112332452D01*
X154746000Y-112327885D01*
X155254000Y-112327885D01*
X155258475Y-112343124D01*
X155259865Y-112344329D01*
X155267548Y-112346000D01*
X157267885Y-112346000D01*
X157283124Y-112341525D01*
X157284329Y-112340135D01*
X157286000Y-112332452D01*
X157286000Y-112327885D01*
X157794000Y-112327885D01*
X157798475Y-112343124D01*
X157799865Y-112344329D01*
X157807548Y-112346000D01*
X159807885Y-112346000D01*
X159823124Y-112341525D01*
X159824329Y-112340135D01*
X159826000Y-112332452D01*
X159826000Y-112327885D01*
X160334000Y-112327885D01*
X160338475Y-112343124D01*
X160339865Y-112344329D01*
X160347548Y-112346000D01*
X161398344Y-112346000D01*
X161411875Y-112342027D01*
X161413180Y-112332947D01*
X161371214Y-112165875D01*
X161367894Y-112156124D01*
X161282972Y-111960814D01*
X161278105Y-111951739D01*
X161162426Y-111772926D01*
X161156136Y-111764757D01*
X161012806Y-111607240D01*
X161005273Y-111600215D01*
X160838139Y-111468222D01*
X160829552Y-111462517D01*
X160643117Y-111359599D01*
X160633705Y-111355369D01*
X160432959Y-111284280D01*
X160422988Y-111281646D01*
X160351837Y-111268972D01*
X160338540Y-111270432D01*
X160334000Y-111284989D01*
X160334000Y-112327885D01*
X159826000Y-112327885D01*
X159826000Y-111283102D01*
X159822082Y-111269758D01*
X159807806Y-111267771D01*
X159769324Y-111273660D01*
X159759288Y-111276051D01*
X159556868Y-111342212D01*
X159547359Y-111346209D01*
X159358463Y-111444542D01*
X159349738Y-111450036D01*
X159179433Y-111577905D01*
X159171726Y-111584748D01*
X159024590Y-111738717D01*
X159018104Y-111746727D01*
X158913193Y-111900521D01*
X158858282Y-111945524D01*
X158787757Y-111953695D01*
X158724010Y-111922441D01*
X158703313Y-111897957D01*
X158622427Y-111772926D01*
X158616136Y-111764757D01*
X158472806Y-111607240D01*
X158465273Y-111600215D01*
X158298139Y-111468222D01*
X158289552Y-111462517D01*
X158103117Y-111359599D01*
X158093705Y-111355369D01*
X157892959Y-111284280D01*
X157882988Y-111281646D01*
X157811837Y-111268972D01*
X157798540Y-111270432D01*
X157794000Y-111284989D01*
X157794000Y-112327885D01*
X157286000Y-112327885D01*
X157286000Y-111283102D01*
X157282082Y-111269758D01*
X157267806Y-111267771D01*
X157229324Y-111273660D01*
X157219288Y-111276051D01*
X157016868Y-111342212D01*
X157007359Y-111346209D01*
X156818463Y-111444542D01*
X156809738Y-111450036D01*
X156639433Y-111577905D01*
X156631726Y-111584748D01*
X156554094Y-111665985D01*
X156492570Y-111701415D01*
X156421657Y-111697958D01*
X156363871Y-111656712D01*
X156345018Y-111623164D01*
X156303324Y-111511946D01*
X156294786Y-111496351D01*
X156218285Y-111394276D01*
X156205724Y-111381715D01*
X156103649Y-111305214D01*
X156088054Y-111296676D01*
X155967606Y-111251522D01*
X155952351Y-111247895D01*
X155901486Y-111242369D01*
X155894672Y-111242000D01*
X155272115Y-111242000D01*
X155256876Y-111246475D01*
X155255671Y-111247865D01*
X155254000Y-111255548D01*
X155254000Y-112327885D01*
X154746000Y-112327885D01*
X154746000Y-111260116D01*
X154741525Y-111244877D01*
X154740135Y-111243672D01*
X154732452Y-111242001D01*
X154105331Y-111242001D01*
X154098510Y-111242371D01*
X154047648Y-111247895D01*
X154032396Y-111251521D01*
X153911946Y-111296676D01*
X153896351Y-111305214D01*
X153794276Y-111381715D01*
X153781715Y-111394276D01*
X153705214Y-111496351D01*
X153696676Y-111511946D01*
X153651522Y-111632394D01*
X153647895Y-111647649D01*
X153642369Y-111698514D01*
X153642000Y-111705328D01*
X153642000Y-112327885D01*
X147328300Y-112327885D01*
X147328300Y-111108766D01*
X161617000Y-111108766D01*
X161617337Y-111115282D01*
X161627075Y-111209132D01*
X161629968Y-111222528D01*
X161680488Y-111373953D01*
X161686653Y-111387115D01*
X161770426Y-111522492D01*
X161779460Y-111533890D01*
X161892129Y-111646363D01*
X161903540Y-111655375D01*
X162039063Y-111738912D01*
X162052241Y-111745056D01*
X162203766Y-111795315D01*
X162217132Y-111798181D01*
X162309770Y-111807672D01*
X162316185Y-111808000D01*
X162327885Y-111808000D01*
X162343124Y-111803525D01*
X162344329Y-111802135D01*
X162346000Y-111794452D01*
X162346000Y-111789885D01*
X162854000Y-111789885D01*
X162858475Y-111805124D01*
X162859865Y-111806329D01*
X162867548Y-111808000D01*
X162883766Y-111808000D01*
X162890282Y-111807663D01*
X162984132Y-111797925D01*
X162997528Y-111795032D01*
X163148953Y-111744512D01*
X163162115Y-111738347D01*
X163283591Y-111663176D01*
X163352043Y-111644339D01*
X163416008Y-111663061D01*
X163539059Y-111738910D01*
X163552241Y-111745056D01*
X163703766Y-111795315D01*
X163717132Y-111798181D01*
X163809770Y-111807672D01*
X163816185Y-111808000D01*
X163827885Y-111808000D01*
X163843124Y-111803525D01*
X163844329Y-111802135D01*
X163846000Y-111794452D01*
X163846000Y-111789885D01*
X164354000Y-111789885D01*
X164358475Y-111805124D01*
X164359865Y-111806329D01*
X164367548Y-111808000D01*
X164383766Y-111808000D01*
X164390282Y-111807663D01*
X164484132Y-111797925D01*
X164497528Y-111795032D01*
X164648953Y-111744512D01*
X164662115Y-111738347D01*
X164797492Y-111654574D01*
X164808890Y-111645540D01*
X164921363Y-111532871D01*
X164930375Y-111521460D01*
X165013912Y-111385937D01*
X165020056Y-111372759D01*
X165070315Y-111221234D01*
X165073181Y-111207868D01*
X165082672Y-111115230D01*
X165083000Y-111108815D01*
X165083000Y-111034615D01*
X165078525Y-111019376D01*
X165077135Y-111018171D01*
X165069452Y-111016500D01*
X164372115Y-111016500D01*
X164356876Y-111020975D01*
X164355671Y-111022365D01*
X164354000Y-111030048D01*
X164354000Y-111789885D01*
X163846000Y-111789885D01*
X163846000Y-111034615D01*
X163841525Y-111019376D01*
X163840135Y-111018171D01*
X163832452Y-111016500D01*
X162872115Y-111016500D01*
X162856876Y-111020975D01*
X162855671Y-111022365D01*
X162854000Y-111030048D01*
X162854000Y-111789885D01*
X162346000Y-111789885D01*
X162346000Y-111034615D01*
X162341525Y-111019376D01*
X162340135Y-111018171D01*
X162332452Y-111016500D01*
X161635115Y-111016500D01*
X161619876Y-111020975D01*
X161618671Y-111022365D01*
X161617000Y-111030048D01*
X161617000Y-111108766D01*
X147328300Y-111108766D01*
X147328300Y-106329539D01*
X147337891Y-106281321D01*
X147338797Y-106279135D01*
X147385638Y-106166050D01*
X147395781Y-106089006D01*
X147400762Y-106051172D01*
X147400762Y-106051171D01*
X147401300Y-106047085D01*
X147401299Y-104692316D01*
X147395899Y-104651291D01*
X147386716Y-104581537D01*
X147386716Y-104581535D01*
X147385638Y-104573350D01*
X147344550Y-104474155D01*
X147327484Y-104432952D01*
X147327483Y-104432950D01*
X147324324Y-104425324D01*
X147319298Y-104418774D01*
X147319295Y-104418769D01*
X147296253Y-104388741D01*
X147270651Y-104322522D01*
X147284915Y-104252973D01*
X147307119Y-104222941D01*
X147317988Y-104212072D01*
X150616500Y-104212072D01*
X150616837Y-104215318D01*
X150616837Y-104215322D01*
X150625735Y-104301076D01*
X150627293Y-104316093D01*
X150629474Y-104322629D01*
X150629474Y-104322631D01*
X150646975Y-104375088D01*
X150682346Y-104481107D01*
X150773884Y-104629031D01*
X150779066Y-104634204D01*
X150891816Y-104746758D01*
X150891821Y-104746762D01*
X150896997Y-104751929D01*
X150903227Y-104755769D01*
X150903228Y-104755770D01*
X151033747Y-104836223D01*
X151045080Y-104843209D01*
X151210191Y-104897974D01*
X151217027Y-104898674D01*
X151217030Y-104898675D01*
X151256884Y-104902758D01*
X151312928Y-104908500D01*
X151887072Y-104908500D01*
X151890318Y-104908163D01*
X151890322Y-104908163D01*
X151984235Y-104898419D01*
X151984239Y-104898418D01*
X151991093Y-104897707D01*
X152000622Y-104894528D01*
X152002582Y-104894457D01*
X152004372Y-104894070D01*
X152004441Y-104894389D01*
X152071571Y-104891942D01*
X152132656Y-104928125D01*
X152164482Y-104991588D01*
X152166500Y-105014051D01*
X152166500Y-105381245D01*
X152150915Y-105441946D01*
X152118567Y-105500787D01*
X152116706Y-105506654D01*
X152116705Y-105506656D01*
X152063075Y-105675720D01*
X152058765Y-105689306D01*
X152036719Y-105885851D01*
X152037235Y-105891995D01*
X152050522Y-106050226D01*
X152053268Y-106082934D01*
X152061879Y-106112965D01*
X152097364Y-106236714D01*
X152107783Y-106273050D01*
X152198187Y-106448956D01*
X152321035Y-106603953D01*
X152325728Y-106607947D01*
X152325729Y-106607948D01*
X152421056Y-106689077D01*
X152471650Y-106732136D01*
X152644294Y-106828624D01*
X152832392Y-106889740D01*
X153028777Y-106913158D01*
X153034912Y-106912686D01*
X153034914Y-106912686D01*
X153219830Y-106898457D01*
X153219834Y-106898456D01*
X153225972Y-106897984D01*
X153416463Y-106844798D01*
X153421967Y-106842018D01*
X153421969Y-106842017D01*
X153587495Y-106758404D01*
X153587497Y-106758403D01*
X153592996Y-106755625D01*
X153748847Y-106633861D01*
X153878078Y-106484145D01*
X153975769Y-106312179D01*
X154038197Y-106124513D01*
X154062985Y-105928295D01*
X154063380Y-105900000D01*
X154044080Y-105703167D01*
X154041142Y-105693436D01*
X154019248Y-105620917D01*
X154018707Y-105549923D01*
X154056635Y-105489906D01*
X154120990Y-105459923D01*
X154139870Y-105458500D01*
X156510634Y-105458500D01*
X156572816Y-105451745D01*
X156709205Y-105400615D01*
X156825761Y-105313261D01*
X156913115Y-105196705D01*
X156964245Y-105060316D01*
X156971000Y-104998134D01*
X156971000Y-104506229D01*
X156991002Y-104438108D01*
X157044658Y-104391615D01*
X157097000Y-104380229D01*
X160707900Y-104380229D01*
X160776021Y-104400231D01*
X160822514Y-104453887D01*
X160827424Y-104466355D01*
X160830026Y-104474155D01*
X160830028Y-104474159D01*
X160832346Y-104481107D01*
X160923884Y-104629031D01*
X160929066Y-104634204D01*
X161041816Y-104746758D01*
X161041821Y-104746762D01*
X161046997Y-104751929D01*
X161053227Y-104755769D01*
X161053228Y-104755770D01*
X161183747Y-104836223D01*
X161195080Y-104843209D01*
X161360191Y-104897974D01*
X161367027Y-104898674D01*
X161367030Y-104898675D01*
X161406884Y-104902758D01*
X161462928Y-104908500D01*
X162037072Y-104908500D01*
X162040318Y-104908163D01*
X162040322Y-104908163D01*
X162134235Y-104898419D01*
X162134239Y-104898418D01*
X162141093Y-104897707D01*
X162147629Y-104895526D01*
X162147631Y-104895526D01*
X162281400Y-104850897D01*
X162306107Y-104842654D01*
X162431828Y-104764856D01*
X162498130Y-104746000D01*
X162501664Y-104746000D01*
X162567780Y-104764740D01*
X162683747Y-104836223D01*
X162695080Y-104843209D01*
X162860191Y-104897974D01*
X162867027Y-104898674D01*
X162867030Y-104898675D01*
X162906884Y-104902758D01*
X162962928Y-104908500D01*
X162994351Y-104908500D01*
X163062472Y-104928502D01*
X163083446Y-104945404D01*
X163756588Y-105618545D01*
X163769430Y-105633581D01*
X163777315Y-105644434D01*
X163782225Y-105648855D01*
X163782226Y-105648856D01*
X163826694Y-105688895D01*
X163831479Y-105693436D01*
X163845515Y-105707472D01*
X163848079Y-105709548D01*
X163860947Y-105719969D01*
X163865962Y-105724253D01*
X163910420Y-105764283D01*
X163910425Y-105764287D01*
X163915331Y-105768704D01*
X163921047Y-105772004D01*
X163921048Y-105772005D01*
X163926949Y-105775412D01*
X163943237Y-105786607D01*
X163953661Y-105795048D01*
X164012866Y-105825214D01*
X164018619Y-105828337D01*
X164076169Y-105861564D01*
X164082453Y-105863606D01*
X164082458Y-105863608D01*
X164088921Y-105865708D01*
X164107183Y-105873272D01*
X164113249Y-105876363D01*
X164113258Y-105876366D01*
X164119137Y-105879362D01*
X164125515Y-105881071D01*
X164183304Y-105896556D01*
X164189606Y-105898422D01*
X164252798Y-105918954D01*
X164265705Y-105920311D01*
X164266128Y-105920355D01*
X164285571Y-105923958D01*
X164298529Y-105927430D01*
X164305119Y-105927775D01*
X164305123Y-105927776D01*
X164347096Y-105929976D01*
X164414076Y-105953517D01*
X164457697Y-106009533D01*
X164466500Y-106055803D01*
X164466500Y-107369352D01*
X164446498Y-107437473D01*
X164429595Y-107458447D01*
X163933447Y-107954595D01*
X163871135Y-107988621D01*
X163844352Y-107991500D01*
X163812928Y-107991500D01*
X163809682Y-107991837D01*
X163809678Y-107991837D01*
X163715765Y-108001581D01*
X163715761Y-108001582D01*
X163708907Y-108002293D01*
X163702371Y-108004474D01*
X163702369Y-108004474D01*
X163619010Y-108032285D01*
X163543893Y-108057346D01*
X163455976Y-108111751D01*
X163418173Y-108135144D01*
X163351870Y-108154000D01*
X163348336Y-108154000D01*
X163282220Y-108135260D01*
X163161150Y-108060631D01*
X163161148Y-108060630D01*
X163154920Y-108056791D01*
X162989809Y-108002026D01*
X162982973Y-108001326D01*
X162982970Y-108001325D01*
X162931474Y-107996049D01*
X162887072Y-107991500D01*
X162312928Y-107991500D01*
X162309682Y-107991837D01*
X162309678Y-107991837D01*
X162215765Y-108001581D01*
X162215761Y-108001582D01*
X162208907Y-108002293D01*
X162202371Y-108004474D01*
X162202369Y-108004474D01*
X162119010Y-108032285D01*
X162043893Y-108057346D01*
X162037661Y-108061202D01*
X162037662Y-108061202D01*
X161978772Y-108097644D01*
X161912469Y-108116500D01*
X161168605Y-108116500D01*
X161100484Y-108096498D01*
X161075412Y-108075300D01*
X161013148Y-108006873D01*
X161013146Y-108006872D01*
X161009670Y-108003051D01*
X161005619Y-107999852D01*
X161005615Y-107999848D01*
X160838414Y-107867800D01*
X160838410Y-107867798D01*
X160834359Y-107864598D01*
X160820297Y-107856835D01*
X160778579Y-107833806D01*
X160638789Y-107756638D01*
X160633920Y-107754914D01*
X160633916Y-107754912D01*
X160433087Y-107683795D01*
X160433083Y-107683794D01*
X160428212Y-107682069D01*
X160423119Y-107681162D01*
X160423116Y-107681161D01*
X160213373Y-107643800D01*
X160213367Y-107643799D01*
X160208284Y-107642894D01*
X160134452Y-107641992D01*
X159990081Y-107640228D01*
X159990079Y-107640228D01*
X159984911Y-107640165D01*
X159764091Y-107673955D01*
X159551756Y-107743357D01*
X159521443Y-107759137D01*
X159437366Y-107802905D01*
X159353607Y-107846507D01*
X159349474Y-107849610D01*
X159349471Y-107849612D01*
X159179100Y-107977530D01*
X159174965Y-107980635D01*
X159097883Y-108061297D01*
X159082350Y-108077551D01*
X159020826Y-108112981D01*
X158991256Y-108116500D01*
X158628605Y-108116500D01*
X158560484Y-108096498D01*
X158535412Y-108075300D01*
X158473148Y-108006873D01*
X158473146Y-108006872D01*
X158469670Y-108003051D01*
X158465619Y-107999852D01*
X158465615Y-107999848D01*
X158298414Y-107867800D01*
X158298410Y-107867798D01*
X158294359Y-107864598D01*
X158280297Y-107856835D01*
X158238579Y-107833806D01*
X158098789Y-107756638D01*
X158093920Y-107754914D01*
X158093916Y-107754912D01*
X157893087Y-107683795D01*
X157893083Y-107683794D01*
X157888212Y-107682069D01*
X157883119Y-107681162D01*
X157883116Y-107681161D01*
X157673373Y-107643800D01*
X157673367Y-107643799D01*
X157668284Y-107642894D01*
X157594452Y-107641992D01*
X157450081Y-107640228D01*
X157450079Y-107640228D01*
X157444911Y-107640165D01*
X157224091Y-107673955D01*
X157011756Y-107743357D01*
X156981443Y-107759137D01*
X156897366Y-107802905D01*
X156813607Y-107846507D01*
X156809474Y-107849610D01*
X156809471Y-107849612D01*
X156639100Y-107977530D01*
X156634965Y-107980635D01*
X156557883Y-108061297D01*
X156554283Y-108065064D01*
X156492759Y-108100494D01*
X156421846Y-108097037D01*
X156364060Y-108055791D01*
X156345207Y-108022243D01*
X156303767Y-107911703D01*
X156300615Y-107903295D01*
X156213261Y-107786739D01*
X156096705Y-107699385D01*
X155960316Y-107648255D01*
X155898134Y-107641500D01*
X154101866Y-107641500D01*
X154039684Y-107648255D01*
X153903295Y-107699385D01*
X153786739Y-107786739D01*
X153699385Y-107903295D01*
X153648255Y-108039684D01*
X153641500Y-108101866D01*
X153641500Y-109898134D01*
X153648255Y-109960316D01*
X153699385Y-110096705D01*
X153786739Y-110213261D01*
X153903295Y-110300615D01*
X154039684Y-110351745D01*
X154101866Y-110358500D01*
X155898134Y-110358500D01*
X155960316Y-110351745D01*
X156096705Y-110300615D01*
X156213261Y-110213261D01*
X156300615Y-110096705D01*
X156325499Y-110030327D01*
X156344598Y-109979381D01*
X156387240Y-109922617D01*
X156453801Y-109897917D01*
X156523150Y-109913124D01*
X156557814Y-109941111D01*
X156586250Y-109973938D01*
X156758126Y-110116632D01*
X156951000Y-110229338D01*
X156955825Y-110231180D01*
X156955826Y-110231181D01*
X157005022Y-110249967D01*
X157159692Y-110309030D01*
X157164760Y-110310061D01*
X157164763Y-110310062D01*
X157254903Y-110328401D01*
X157378597Y-110353567D01*
X157383772Y-110353757D01*
X157383774Y-110353757D01*
X157596673Y-110361564D01*
X157596677Y-110361564D01*
X157601837Y-110361753D01*
X157606957Y-110361097D01*
X157606959Y-110361097D01*
X157818288Y-110334025D01*
X157818289Y-110334025D01*
X157823416Y-110333368D01*
X157839972Y-110328401D01*
X158032429Y-110270661D01*
X158032434Y-110270659D01*
X158037384Y-110269174D01*
X158237994Y-110170896D01*
X158419860Y-110041173D01*
X158541208Y-109920249D01*
X158603579Y-109886333D01*
X158630147Y-109883500D01*
X158990357Y-109883500D01*
X159058478Y-109903502D01*
X159085589Y-109926998D01*
X159126250Y-109973938D01*
X159298126Y-110116632D01*
X159491000Y-110229338D01*
X159495825Y-110231180D01*
X159495826Y-110231181D01*
X159545022Y-110249967D01*
X159699692Y-110309030D01*
X159704760Y-110310061D01*
X159704763Y-110310062D01*
X159794903Y-110328401D01*
X159918597Y-110353567D01*
X159923772Y-110353757D01*
X159923774Y-110353757D01*
X160136673Y-110361564D01*
X160136677Y-110361564D01*
X160141837Y-110361753D01*
X160146957Y-110361097D01*
X160146959Y-110361097D01*
X160358288Y-110334025D01*
X160358289Y-110334025D01*
X160363416Y-110333368D01*
X160379972Y-110328401D01*
X160572429Y-110270661D01*
X160572434Y-110270659D01*
X160577384Y-110269174D01*
X160777994Y-110170896D01*
X160959860Y-110041173D01*
X161081208Y-109920249D01*
X161143579Y-109886333D01*
X161170147Y-109883500D01*
X161617937Y-109883500D01*
X161686058Y-109903502D01*
X161732551Y-109957158D01*
X161742655Y-110027432D01*
X161725197Y-110075615D01*
X161686090Y-110139059D01*
X161679944Y-110152241D01*
X161629685Y-110303766D01*
X161626819Y-110317132D01*
X161617328Y-110409770D01*
X161617000Y-110416185D01*
X161617000Y-110490385D01*
X161621475Y-110505624D01*
X161622865Y-110506829D01*
X161630548Y-110508500D01*
X165064885Y-110508500D01*
X165080124Y-110504025D01*
X165081329Y-110502635D01*
X165083000Y-110494952D01*
X165083000Y-110416234D01*
X165082663Y-110409718D01*
X165072925Y-110315868D01*
X165070032Y-110302472D01*
X165019512Y-110151047D01*
X165013347Y-110137885D01*
X164929574Y-110002508D01*
X164920536Y-109991106D01*
X164918861Y-109989433D01*
X164918081Y-109988007D01*
X164915993Y-109985373D01*
X164916444Y-109985016D01*
X164884781Y-109927151D01*
X164889784Y-109856331D01*
X164918701Y-109811246D01*
X164921756Y-109808185D01*
X164926929Y-109803003D01*
X164930770Y-109796772D01*
X165014369Y-109661150D01*
X165014370Y-109661148D01*
X165018209Y-109654920D01*
X165072974Y-109489809D01*
X165076532Y-109455088D01*
X165081531Y-109406292D01*
X165083500Y-109387072D01*
X165083500Y-109355648D01*
X165103502Y-109287527D01*
X165120405Y-109266553D01*
X165918546Y-108468412D01*
X165933574Y-108455575D01*
X165944434Y-108447685D01*
X165988886Y-108398316D01*
X165993427Y-108393531D01*
X166007472Y-108379486D01*
X166009559Y-108376909D01*
X166019969Y-108364054D01*
X166024253Y-108359038D01*
X166064283Y-108314580D01*
X166064287Y-108314575D01*
X166068704Y-108309669D01*
X166075411Y-108298052D01*
X166086609Y-108281759D01*
X166090891Y-108276471D01*
X166095047Y-108271339D01*
X166125213Y-108212137D01*
X166128346Y-108206367D01*
X166158260Y-108154555D01*
X166158262Y-108154550D01*
X166161564Y-108148831D01*
X166163605Y-108142551D01*
X166163608Y-108142543D01*
X166165708Y-108136079D01*
X166173272Y-108117817D01*
X166176363Y-108111751D01*
X166176366Y-108111742D01*
X166179362Y-108105863D01*
X166186948Y-108077551D01*
X166196556Y-108041696D01*
X166198422Y-108035394D01*
X166218954Y-107972202D01*
X166220355Y-107958872D01*
X166223958Y-107939429D01*
X166227430Y-107926471D01*
X166229022Y-107896109D01*
X166230907Y-107860133D01*
X166231424Y-107853559D01*
X166233156Y-107837077D01*
X166233500Y-107833806D01*
X166233500Y-107813945D01*
X166233673Y-107807350D01*
X166236805Y-107747598D01*
X166236805Y-107747594D01*
X166237150Y-107741007D01*
X166235051Y-107727753D01*
X166233500Y-107708044D01*
X166233500Y-106806399D01*
X175120712Y-106806399D01*
X175142194Y-106895537D01*
X175146083Y-106906832D01*
X175228629Y-107088382D01*
X175234576Y-107098724D01*
X175349968Y-107261397D01*
X175357761Y-107270425D01*
X175501831Y-107408342D01*
X175511196Y-107415738D01*
X175678741Y-107523921D01*
X175689345Y-107529417D01*
X175874312Y-107603961D01*
X175885770Y-107607355D01*
X176082928Y-107645857D01*
X176091791Y-107646934D01*
X176094500Y-107647000D01*
X176273885Y-107647000D01*
X176289124Y-107642525D01*
X176290329Y-107641135D01*
X176292000Y-107633452D01*
X176292000Y-106811115D01*
X176287525Y-106795876D01*
X176286135Y-106794671D01*
X176278452Y-106793000D01*
X175135598Y-106793000D01*
X175122067Y-106796973D01*
X175120712Y-106806399D01*
X166233500Y-106806399D01*
X166233500Y-106421211D01*
X173178344Y-106421211D01*
X173187640Y-106433226D01*
X173222637Y-106457731D01*
X173232132Y-106463214D01*
X173417696Y-106549744D01*
X173427988Y-106553490D01*
X173625759Y-106606482D01*
X173636554Y-106608385D01*
X173840525Y-106626231D01*
X173851475Y-106626231D01*
X174055446Y-106608385D01*
X174066241Y-106606482D01*
X174264012Y-106553490D01*
X174274304Y-106549744D01*
X174459868Y-106463214D01*
X174469363Y-106457731D01*
X174505197Y-106432640D01*
X174513573Y-106422161D01*
X174506505Y-106408715D01*
X173858812Y-105761022D01*
X173844868Y-105753408D01*
X173843035Y-105753539D01*
X173836420Y-105757790D01*
X173184774Y-106409436D01*
X173178344Y-106421211D01*
X166233500Y-106421211D01*
X166233500Y-106059500D01*
X166253502Y-105991379D01*
X166307158Y-105944886D01*
X166359500Y-105933500D01*
X169009523Y-105933500D01*
X169077644Y-105953502D01*
X169097444Y-105969245D01*
X169102009Y-105973692D01*
X169282863Y-106094536D01*
X169288171Y-106096817D01*
X169288172Y-106096817D01*
X169477409Y-106178119D01*
X169477412Y-106178120D01*
X169482712Y-106180397D01*
X169488342Y-106181671D01*
X169586464Y-106203874D01*
X169694860Y-106228402D01*
X169700631Y-106228629D01*
X169700633Y-106228629D01*
X169773620Y-106231496D01*
X169912205Y-106236941D01*
X170127466Y-106205730D01*
X170132930Y-106203875D01*
X170132935Y-106203874D01*
X170327963Y-106137671D01*
X170327968Y-106137669D01*
X170333435Y-106135813D01*
X170371039Y-106114754D01*
X170435135Y-106078858D01*
X170523213Y-106029532D01*
X170690446Y-105890446D01*
X170829532Y-105723213D01*
X170935813Y-105533435D01*
X170937669Y-105527968D01*
X170937671Y-105527963D01*
X171003874Y-105332935D01*
X171003875Y-105332930D01*
X171005730Y-105327466D01*
X171036941Y-105112205D01*
X171037506Y-105090635D01*
X171038002Y-105071701D01*
X171059781Y-105004127D01*
X171114636Y-104959055D01*
X171163959Y-104949000D01*
X172523196Y-104949000D01*
X172591317Y-104969002D01*
X172637810Y-105022658D01*
X172647914Y-105092932D01*
X172644903Y-105107612D01*
X172628518Y-105168762D01*
X172626615Y-105179554D01*
X172608769Y-105383525D01*
X172608769Y-105394475D01*
X172626615Y-105598446D01*
X172628518Y-105609241D01*
X172681510Y-105807012D01*
X172685256Y-105817304D01*
X172771786Y-106002868D01*
X172777269Y-106012363D01*
X172802360Y-106048197D01*
X172812839Y-106056573D01*
X172826285Y-106049505D01*
X173756905Y-105118885D01*
X173819217Y-105084859D01*
X173890032Y-105089924D01*
X173935095Y-105118885D01*
X174866436Y-106050226D01*
X174878211Y-106056656D01*
X174884902Y-106051480D01*
X174951020Y-106025617D01*
X175020625Y-106039607D01*
X175071617Y-106089006D01*
X175088001Y-106151138D01*
X175088001Y-106266885D01*
X175092476Y-106282124D01*
X175093866Y-106283329D01*
X175101549Y-106285000D01*
X176273885Y-106285000D01*
X176289124Y-106280525D01*
X176290329Y-106279135D01*
X176292000Y-106271452D01*
X176292000Y-99611115D01*
X176287525Y-99595876D01*
X176286135Y-99594671D01*
X176278452Y-99593000D01*
X175106115Y-99593000D01*
X175090876Y-99597475D01*
X175089671Y-99598865D01*
X175088000Y-99606548D01*
X175088000Y-99726336D01*
X175067998Y-99794457D01*
X175014342Y-99840950D01*
X174944068Y-99851054D01*
X174883331Y-99824759D01*
X174879162Y-99821427D01*
X174865715Y-99828495D01*
X173935095Y-100759115D01*
X173872783Y-100793141D01*
X173801968Y-100788076D01*
X173756905Y-100759115D01*
X172825564Y-99827774D01*
X172813789Y-99821344D01*
X172801774Y-99830640D01*
X172777269Y-99865637D01*
X172771786Y-99875132D01*
X172685256Y-100060696D01*
X172681510Y-100070988D01*
X172628518Y-100268759D01*
X172626615Y-100279554D01*
X172608769Y-100483525D01*
X172608769Y-100494475D01*
X172626615Y-100698446D01*
X172628518Y-100709241D01*
X172681511Y-100907015D01*
X172684832Y-100916140D01*
X172689333Y-100986994D01*
X172654814Y-101049034D01*
X172641996Y-101060057D01*
X172627778Y-101070713D01*
X172615215Y-101083276D01*
X172538714Y-101185351D01*
X172530176Y-101200946D01*
X172485022Y-101321394D01*
X172481395Y-101336649D01*
X172475869Y-101387514D01*
X172475500Y-101394328D01*
X172475500Y-101420885D01*
X172479975Y-101436124D01*
X172481365Y-101437329D01*
X172489048Y-101439000D01*
X172624616Y-101439000D01*
X172692737Y-101459002D01*
X172739230Y-101512658D01*
X172749334Y-101582932D01*
X172719840Y-101647512D01*
X172700183Y-101665825D01*
X172620239Y-101725739D01*
X172575179Y-101785863D01*
X172572258Y-101789760D01*
X172515399Y-101832275D01*
X172506930Y-101835091D01*
X172478377Y-101843475D01*
X172477172Y-101844865D01*
X172475501Y-101852548D01*
X172475501Y-101883669D01*
X172475871Y-101890490D01*
X172482248Y-101949207D01*
X172479502Y-101949505D01*
X172479560Y-101978446D01*
X172481755Y-101978684D01*
X172475000Y-102040866D01*
X172475000Y-102537134D01*
X172475369Y-102540531D01*
X172481755Y-102599316D01*
X172479326Y-102599580D01*
X172479326Y-102628420D01*
X172481755Y-102628684D01*
X172475000Y-102690866D01*
X172475000Y-103187134D01*
X172475369Y-103190531D01*
X172481755Y-103249316D01*
X172479326Y-103249580D01*
X172479326Y-103278420D01*
X172481755Y-103278684D01*
X172475000Y-103340866D01*
X172475000Y-103425000D01*
X172454998Y-103493121D01*
X172401342Y-103539614D01*
X172349000Y-103551000D01*
X171391726Y-103551000D01*
X171323605Y-103530998D01*
X171302631Y-103514095D01*
X171064358Y-103275822D01*
X171030332Y-103213510D01*
X171028757Y-103168649D01*
X171036941Y-103112205D01*
X171038570Y-103050000D01*
X171018667Y-102833400D01*
X171016870Y-102827026D01*
X170979432Y-102694283D01*
X170959626Y-102624055D01*
X170863423Y-102428974D01*
X170854114Y-102416507D01*
X170736733Y-102259315D01*
X170736732Y-102259314D01*
X170733280Y-102254691D01*
X170718593Y-102241114D01*
X170611078Y-102141729D01*
X170574633Y-102080800D01*
X170576914Y-102009840D01*
X170616038Y-101952330D01*
X170686008Y-101894137D01*
X170690446Y-101890446D01*
X170829532Y-101723213D01*
X170920657Y-101560498D01*
X170932989Y-101538478D01*
X170932990Y-101538476D01*
X170935813Y-101533435D01*
X170937669Y-101527968D01*
X170937671Y-101527963D01*
X171003874Y-101332935D01*
X171003875Y-101332930D01*
X171005730Y-101327466D01*
X171036941Y-101112205D01*
X171038570Y-101050000D01*
X171018667Y-100833400D01*
X171012749Y-100812414D01*
X170963796Y-100638840D01*
X170959626Y-100624055D01*
X170863423Y-100428974D01*
X170840687Y-100398526D01*
X170736733Y-100259315D01*
X170736732Y-100259314D01*
X170733280Y-100254691D01*
X170729044Y-100250775D01*
X170577796Y-100110963D01*
X170577793Y-100110961D01*
X170573556Y-100107044D01*
X170389599Y-99990976D01*
X170187572Y-99910376D01*
X169974239Y-99867941D01*
X169968464Y-99867865D01*
X169968460Y-99867865D01*
X169859419Y-99866438D01*
X169756746Y-99865094D01*
X169751049Y-99866073D01*
X169751048Y-99866073D01*
X169548065Y-99900952D01*
X169548062Y-99900953D01*
X169542375Y-99901930D01*
X169338307Y-99977214D01*
X169151376Y-100088427D01*
X168987842Y-100231842D01*
X168984270Y-100236373D01*
X168858940Y-100395353D01*
X168853181Y-100402658D01*
X168751905Y-100595154D01*
X168750192Y-100600671D01*
X168690428Y-100793141D01*
X168687403Y-100802882D01*
X168661837Y-101018887D01*
X168676063Y-101235933D01*
X168677484Y-101241529D01*
X168677485Y-101241534D01*
X168726906Y-101436124D01*
X168729605Y-101446753D01*
X168820668Y-101644285D01*
X168824001Y-101649001D01*
X168938431Y-101810915D01*
X168946204Y-101821914D01*
X168950346Y-101825949D01*
X169077941Y-101950246D01*
X169112779Y-102012107D01*
X169108642Y-102082983D01*
X169066843Y-102140371D01*
X169000653Y-102166051D01*
X168990020Y-102166500D01*
X166580148Y-102166500D01*
X166512027Y-102146498D01*
X166465534Y-102092842D01*
X166455430Y-102022568D01*
X166469628Y-101979992D01*
X166470234Y-101978884D01*
X166475615Y-101971705D01*
X166526745Y-101835316D01*
X166533500Y-101773134D01*
X166533500Y-100326866D01*
X166526745Y-100264684D01*
X166475615Y-100128295D01*
X166388261Y-100011739D01*
X166271705Y-99924385D01*
X166135316Y-99873255D01*
X166073134Y-99866500D01*
X164626866Y-99866500D01*
X164564684Y-99873255D01*
X164428295Y-99924385D01*
X164311739Y-100011739D01*
X164224385Y-100128295D01*
X164173255Y-100264684D01*
X164166500Y-100326866D01*
X164166500Y-101158338D01*
X164146498Y-101226459D01*
X164092842Y-101272952D01*
X164022568Y-101283056D01*
X163962408Y-101257220D01*
X163946460Y-101244625D01*
X163810937Y-101161088D01*
X163797759Y-101154944D01*
X163646234Y-101104685D01*
X163632868Y-101101819D01*
X163540230Y-101092328D01*
X163533815Y-101092000D01*
X163522115Y-101092000D01*
X163506876Y-101096475D01*
X163505671Y-101097865D01*
X163504000Y-101105548D01*
X163504000Y-102265500D01*
X163483998Y-102333621D01*
X163430342Y-102380114D01*
X163378000Y-102391500D01*
X161622000Y-102391500D01*
X161553879Y-102371498D01*
X161507386Y-102317842D01*
X161496000Y-102265500D01*
X161496000Y-101865385D01*
X162004000Y-101865385D01*
X162008475Y-101880624D01*
X162009865Y-101881829D01*
X162017548Y-101883500D01*
X162977885Y-101883500D01*
X162993124Y-101879025D01*
X162994329Y-101877635D01*
X162996000Y-101869952D01*
X162996000Y-101110115D01*
X162991525Y-101094876D01*
X162990135Y-101093671D01*
X162982452Y-101092000D01*
X162966234Y-101092000D01*
X162959718Y-101092337D01*
X162865868Y-101102075D01*
X162852472Y-101104968D01*
X162701047Y-101155488D01*
X162687885Y-101161653D01*
X162566409Y-101236824D01*
X162497957Y-101255661D01*
X162433992Y-101236939D01*
X162310941Y-101161090D01*
X162297759Y-101154944D01*
X162146234Y-101104685D01*
X162132868Y-101101819D01*
X162040230Y-101092328D01*
X162033815Y-101092000D01*
X162022115Y-101092000D01*
X162006876Y-101096475D01*
X162005671Y-101097865D01*
X162004000Y-101105548D01*
X162004000Y-101865385D01*
X161496000Y-101865385D01*
X161496000Y-101110115D01*
X161491525Y-101094876D01*
X161490135Y-101093671D01*
X161482452Y-101092000D01*
X161466234Y-101092000D01*
X161459718Y-101092337D01*
X161365868Y-101102075D01*
X161352472Y-101104968D01*
X161201047Y-101155488D01*
X161187885Y-101161653D01*
X161052508Y-101245426D01*
X161041110Y-101254460D01*
X160928637Y-101367129D01*
X160919625Y-101378540D01*
X160836088Y-101514063D01*
X160829944Y-101527241D01*
X160827888Y-101533438D01*
X160787457Y-101591798D01*
X160721893Y-101619035D01*
X160708295Y-101619771D01*
X156637500Y-101619771D01*
X156605514Y-101622059D01*
X156571127Y-101624518D01*
X156571126Y-101624518D01*
X156564389Y-101625000D01*
X156487721Y-101647512D01*
X156432735Y-101663657D01*
X156432733Y-101663658D01*
X156424089Y-101666196D01*
X156416511Y-101671066D01*
X156416509Y-101671067D01*
X156318587Y-101733998D01*
X156250466Y-101754000D01*
X155184500Y-101754000D01*
X155116379Y-101733998D01*
X155069886Y-101680342D01*
X155058500Y-101628000D01*
X155058500Y-101227885D01*
X155566500Y-101227885D01*
X155570975Y-101243124D01*
X155572365Y-101244329D01*
X155580048Y-101246000D01*
X156952384Y-101246000D01*
X156967623Y-101241525D01*
X156968828Y-101240135D01*
X156970499Y-101232452D01*
X156970499Y-101005331D01*
X156970129Y-100998510D01*
X156964605Y-100947648D01*
X156960979Y-100932396D01*
X156915824Y-100811946D01*
X156907286Y-100796351D01*
X156830785Y-100694276D01*
X156818224Y-100681715D01*
X156716149Y-100605214D01*
X156700554Y-100596676D01*
X156580106Y-100551522D01*
X156564851Y-100547895D01*
X156513986Y-100542369D01*
X156507172Y-100542000D01*
X155584615Y-100542000D01*
X155569376Y-100546475D01*
X155568171Y-100547865D01*
X155566500Y-100555548D01*
X155566500Y-101227885D01*
X155058500Y-101227885D01*
X155058500Y-100560116D01*
X155054025Y-100544877D01*
X155052635Y-100543672D01*
X155044952Y-100542001D01*
X154117831Y-100542001D01*
X154111010Y-100542371D01*
X154060148Y-100547895D01*
X154044896Y-100551521D01*
X153924446Y-100596676D01*
X153908851Y-100605214D01*
X153806776Y-100681715D01*
X153794215Y-100694276D01*
X153717714Y-100796351D01*
X153709176Y-100811946D01*
X153664022Y-100932394D01*
X153660395Y-100947648D01*
X153655068Y-100996679D01*
X153627826Y-101062241D01*
X153569462Y-101102666D01*
X153503211Y-101104958D01*
X153502960Y-101106127D01*
X153482868Y-101101819D01*
X153390230Y-101092328D01*
X153383815Y-101092000D01*
X153372115Y-101092000D01*
X153356876Y-101096475D01*
X153355671Y-101097865D01*
X153354000Y-101105548D01*
X153354000Y-102265500D01*
X153333998Y-102333621D01*
X153280342Y-102380114D01*
X153228000Y-102391500D01*
X150635115Y-102391500D01*
X150619876Y-102395975D01*
X150618671Y-102397365D01*
X150617000Y-102405048D01*
X150617000Y-102483766D01*
X150617337Y-102490282D01*
X150627075Y-102584132D01*
X150629968Y-102597528D01*
X150680488Y-102748953D01*
X150686653Y-102762115D01*
X150770426Y-102897492D01*
X150779464Y-102908894D01*
X150781139Y-102910567D01*
X150781919Y-102911993D01*
X150784007Y-102914627D01*
X150783556Y-102914984D01*
X150815219Y-102972849D01*
X150810216Y-103043669D01*
X150781299Y-103088754D01*
X150778476Y-103091583D01*
X150773071Y-103096997D01*
X150769231Y-103103227D01*
X150769230Y-103103228D01*
X150690373Y-103231158D01*
X150681791Y-103245080D01*
X150627026Y-103410191D01*
X150626326Y-103417027D01*
X150626325Y-103417030D01*
X150623280Y-103446753D01*
X150616500Y-103512928D01*
X150616500Y-104212072D01*
X147317988Y-104212072D01*
X148706038Y-102824023D01*
X149664676Y-101865385D01*
X150617000Y-101865385D01*
X150621475Y-101880624D01*
X150622865Y-101881829D01*
X150630548Y-101883500D01*
X151327885Y-101883500D01*
X151343124Y-101879025D01*
X151344329Y-101877635D01*
X151346000Y-101869952D01*
X151346000Y-101865385D01*
X151854000Y-101865385D01*
X151858475Y-101880624D01*
X151859865Y-101881829D01*
X151867548Y-101883500D01*
X152827885Y-101883500D01*
X152843124Y-101879025D01*
X152844329Y-101877635D01*
X152846000Y-101869952D01*
X152846000Y-101110115D01*
X152841525Y-101094876D01*
X152840135Y-101093671D01*
X152832452Y-101092000D01*
X152816234Y-101092000D01*
X152809718Y-101092337D01*
X152715868Y-101102075D01*
X152702472Y-101104968D01*
X152551047Y-101155488D01*
X152537885Y-101161653D01*
X152416409Y-101236824D01*
X152347957Y-101255661D01*
X152283992Y-101236939D01*
X152160941Y-101161090D01*
X152147759Y-101154944D01*
X151996234Y-101104685D01*
X151982868Y-101101819D01*
X151890230Y-101092328D01*
X151883815Y-101092000D01*
X151872115Y-101092000D01*
X151856876Y-101096475D01*
X151855671Y-101097865D01*
X151854000Y-101105548D01*
X151854000Y-101865385D01*
X151346000Y-101865385D01*
X151346000Y-101110115D01*
X151341525Y-101094876D01*
X151340135Y-101093671D01*
X151332452Y-101092000D01*
X151316234Y-101092000D01*
X151309718Y-101092337D01*
X151215868Y-101102075D01*
X151202472Y-101104968D01*
X151051047Y-101155488D01*
X151037885Y-101161653D01*
X150902508Y-101245426D01*
X150891110Y-101254460D01*
X150778637Y-101367129D01*
X150769625Y-101378540D01*
X150686088Y-101514063D01*
X150679944Y-101527241D01*
X150629685Y-101678766D01*
X150626819Y-101692132D01*
X150617328Y-101784770D01*
X150617000Y-101791185D01*
X150617000Y-101865385D01*
X149664676Y-101865385D01*
X150176483Y-101353578D01*
X150184809Y-101346002D01*
X150191303Y-101341881D01*
X150238086Y-101292062D01*
X150240840Y-101289221D01*
X150260639Y-101269422D01*
X150263068Y-101266291D01*
X150263072Y-101266286D01*
X150263139Y-101266200D01*
X150270847Y-101257175D01*
X150295792Y-101230611D01*
X150301217Y-101224834D01*
X150305035Y-101217889D01*
X150305038Y-101217885D01*
X150311026Y-101206994D01*
X150321878Y-101190473D01*
X150329492Y-101180657D01*
X150329492Y-101180656D01*
X150334350Y-101174394D01*
X150351974Y-101133666D01*
X150357196Y-101123009D01*
X150374748Y-101091082D01*
X150374749Y-101091079D01*
X150378569Y-101084131D01*
X150383632Y-101064413D01*
X150390034Y-101045714D01*
X150398117Y-101027035D01*
X150399356Y-101019211D01*
X150399358Y-101019205D01*
X150405060Y-100983208D01*
X150407466Y-100971588D01*
X150416528Y-100936291D01*
X150416528Y-100936290D01*
X150418500Y-100928610D01*
X150418500Y-100908262D01*
X150420051Y-100888551D01*
X150421995Y-100876277D01*
X150423235Y-100868448D01*
X150419059Y-100824272D01*
X150418500Y-100812414D01*
X150418500Y-99455839D01*
X173178427Y-99455839D01*
X173185495Y-99469285D01*
X173833188Y-100116978D01*
X173847132Y-100124592D01*
X173848965Y-100124461D01*
X173855580Y-100120210D01*
X174507226Y-99468564D01*
X174513656Y-99456789D01*
X174504360Y-99444774D01*
X174469363Y-99420269D01*
X174459868Y-99414786D01*
X174274304Y-99328256D01*
X174264012Y-99324510D01*
X174066241Y-99271518D01*
X174055446Y-99269615D01*
X173851475Y-99251769D01*
X173840525Y-99251769D01*
X173636554Y-99269615D01*
X173625759Y-99271518D01*
X173427988Y-99324510D01*
X173417696Y-99328256D01*
X173232132Y-99414786D01*
X173222637Y-99420269D01*
X173186803Y-99445360D01*
X173178427Y-99455839D01*
X150418500Y-99455839D01*
X150418500Y-99070716D01*
X175116352Y-99070716D01*
X175117820Y-99081008D01*
X175131385Y-99085000D01*
X176273885Y-99085000D01*
X176289124Y-99080525D01*
X176290329Y-99079135D01*
X176292000Y-99071452D01*
X176292000Y-98249115D01*
X176287525Y-98233876D01*
X176286135Y-98232671D01*
X176278452Y-98231000D01*
X176146168Y-98231000D01*
X176140192Y-98231285D01*
X175991506Y-98245471D01*
X175979772Y-98247730D01*
X175788401Y-98303872D01*
X175777325Y-98308302D01*
X175600022Y-98399619D01*
X175589976Y-98406069D01*
X175433143Y-98529262D01*
X175424494Y-98537499D01*
X175293788Y-98688123D01*
X175286853Y-98697847D01*
X175186990Y-98870467D01*
X175182016Y-98881331D01*
X175116593Y-99069727D01*
X175116352Y-99070716D01*
X150418500Y-99070716D01*
X150418500Y-97894669D01*
X153642001Y-97894669D01*
X153642371Y-97901490D01*
X153647895Y-97952352D01*
X153651521Y-97967604D01*
X153696676Y-98088054D01*
X153705214Y-98103649D01*
X153781715Y-98205724D01*
X153794276Y-98218285D01*
X153896351Y-98294786D01*
X153911946Y-98303324D01*
X154032394Y-98348478D01*
X154047649Y-98352105D01*
X154098514Y-98357631D01*
X154105328Y-98358000D01*
X154727885Y-98358000D01*
X154743124Y-98353525D01*
X154744329Y-98352135D01*
X154746000Y-98344452D01*
X154746000Y-98339884D01*
X155254000Y-98339884D01*
X155258475Y-98355123D01*
X155259865Y-98356328D01*
X155267548Y-98357999D01*
X155894669Y-98357999D01*
X155901490Y-98357629D01*
X155952352Y-98352105D01*
X155967604Y-98348479D01*
X156088054Y-98303324D01*
X156103649Y-98294786D01*
X156205724Y-98218285D01*
X156218285Y-98205724D01*
X156294786Y-98103649D01*
X156303325Y-98088052D01*
X156344425Y-97978418D01*
X156387066Y-97921653D01*
X156453628Y-97896953D01*
X156522977Y-97912160D01*
X156557645Y-97940150D01*
X156583219Y-97969674D01*
X156590580Y-97976883D01*
X156754434Y-98112916D01*
X156762881Y-98118831D01*
X156946756Y-98226279D01*
X156956042Y-98230729D01*
X157155001Y-98306703D01*
X157164899Y-98309579D01*
X157268250Y-98330606D01*
X157282299Y-98329410D01*
X157286000Y-98319065D01*
X157286000Y-98318517D01*
X157794000Y-98318517D01*
X157798064Y-98332359D01*
X157811478Y-98334393D01*
X157818184Y-98333534D01*
X157828262Y-98331392D01*
X158032255Y-98270191D01*
X158041842Y-98266433D01*
X158233095Y-98172739D01*
X158241945Y-98167464D01*
X158415328Y-98043792D01*
X158423200Y-98037139D01*
X158574052Y-97886812D01*
X158580730Y-97878965D01*
X158708022Y-97701819D01*
X158709147Y-97702627D01*
X158756669Y-97658876D01*
X158826607Y-97646661D01*
X158892046Y-97674197D01*
X158919870Y-97706028D01*
X158977690Y-97800383D01*
X158983777Y-97808699D01*
X159123213Y-97969667D01*
X159130580Y-97976883D01*
X159294434Y-98112916D01*
X159302881Y-98118831D01*
X159486756Y-98226279D01*
X159496042Y-98230729D01*
X159695001Y-98306703D01*
X159704899Y-98309579D01*
X159808250Y-98330606D01*
X159822299Y-98329410D01*
X159826000Y-98319065D01*
X159826000Y-98318517D01*
X160334000Y-98318517D01*
X160338064Y-98332359D01*
X160351478Y-98334393D01*
X160358184Y-98333534D01*
X160368262Y-98331392D01*
X160572255Y-98270191D01*
X160581842Y-98266433D01*
X160773095Y-98172739D01*
X160781945Y-98167464D01*
X160955328Y-98043792D01*
X160963200Y-98037139D01*
X161114052Y-97886812D01*
X161120730Y-97878965D01*
X161245003Y-97706020D01*
X161250313Y-97697183D01*
X161344670Y-97506267D01*
X161348469Y-97496672D01*
X161410377Y-97292910D01*
X161412555Y-97282837D01*
X161413986Y-97271962D01*
X161411775Y-97257778D01*
X161398617Y-97254000D01*
X160352115Y-97254000D01*
X160336876Y-97258475D01*
X160335671Y-97259865D01*
X160334000Y-97267548D01*
X160334000Y-98318517D01*
X159826000Y-98318517D01*
X159826000Y-97272115D01*
X159821525Y-97256876D01*
X159820135Y-97255671D01*
X159812452Y-97254000D01*
X157812115Y-97254000D01*
X157796876Y-97258475D01*
X157795671Y-97259865D01*
X157794000Y-97267548D01*
X157794000Y-98318517D01*
X157286000Y-98318517D01*
X157286000Y-97272115D01*
X157281525Y-97256876D01*
X157280135Y-97255671D01*
X157272452Y-97254000D01*
X155272115Y-97254000D01*
X155256876Y-97258475D01*
X155255671Y-97259865D01*
X155254000Y-97267548D01*
X155254000Y-98339884D01*
X154746000Y-98339884D01*
X154746000Y-97272115D01*
X154741525Y-97256876D01*
X154740135Y-97255671D01*
X154732452Y-97254000D01*
X153660116Y-97254000D01*
X153644877Y-97258475D01*
X153643672Y-97259865D01*
X153642001Y-97267548D01*
X153642001Y-97894669D01*
X150418500Y-97894669D01*
X150418500Y-96727885D01*
X153642000Y-96727885D01*
X153646475Y-96743124D01*
X153647865Y-96744329D01*
X153655548Y-96746000D01*
X154727885Y-96746000D01*
X154743124Y-96741525D01*
X154744329Y-96740135D01*
X154746000Y-96732452D01*
X154746000Y-96727885D01*
X155254000Y-96727885D01*
X155258475Y-96743124D01*
X155259865Y-96744329D01*
X155267548Y-96746000D01*
X157267885Y-96746000D01*
X157283124Y-96741525D01*
X157284329Y-96740135D01*
X157286000Y-96732452D01*
X157286000Y-96727885D01*
X157794000Y-96727885D01*
X157798475Y-96743124D01*
X157799865Y-96744329D01*
X157807548Y-96746000D01*
X159807885Y-96746000D01*
X159823124Y-96741525D01*
X159824329Y-96740135D01*
X159826000Y-96732452D01*
X159826000Y-96727885D01*
X160334000Y-96727885D01*
X160338475Y-96743124D01*
X160339865Y-96744329D01*
X160347548Y-96746000D01*
X161398344Y-96746000D01*
X161411875Y-96742027D01*
X161413180Y-96732947D01*
X161371214Y-96565875D01*
X161367894Y-96556124D01*
X161282972Y-96360814D01*
X161278105Y-96351739D01*
X161162426Y-96172926D01*
X161156136Y-96164757D01*
X161012806Y-96007240D01*
X161005273Y-96000215D01*
X160838139Y-95868222D01*
X160829552Y-95862517D01*
X160643117Y-95759599D01*
X160633705Y-95755369D01*
X160432959Y-95684280D01*
X160422988Y-95681646D01*
X160351837Y-95668972D01*
X160338540Y-95670432D01*
X160334000Y-95684989D01*
X160334000Y-96727885D01*
X159826000Y-96727885D01*
X159826000Y-95683102D01*
X159822082Y-95669758D01*
X159807806Y-95667771D01*
X159769324Y-95673660D01*
X159759288Y-95676051D01*
X159556868Y-95742212D01*
X159547359Y-95746209D01*
X159358463Y-95844542D01*
X159349738Y-95850036D01*
X159179433Y-95977905D01*
X159171726Y-95984748D01*
X159024590Y-96138717D01*
X159018104Y-96146727D01*
X158913193Y-96300521D01*
X158858282Y-96345524D01*
X158787757Y-96353695D01*
X158724010Y-96322441D01*
X158703313Y-96297957D01*
X158622427Y-96172926D01*
X158616136Y-96164757D01*
X158472806Y-96007240D01*
X158465273Y-96000215D01*
X158298139Y-95868222D01*
X158289552Y-95862517D01*
X158103117Y-95759599D01*
X158093705Y-95755369D01*
X157892959Y-95684280D01*
X157882988Y-95681646D01*
X157811837Y-95668972D01*
X157798540Y-95670432D01*
X157794000Y-95684989D01*
X157794000Y-96727885D01*
X157286000Y-96727885D01*
X157286000Y-95683102D01*
X157282082Y-95669758D01*
X157267806Y-95667771D01*
X157229324Y-95673660D01*
X157219288Y-95676051D01*
X157016868Y-95742212D01*
X157007359Y-95746209D01*
X156818463Y-95844542D01*
X156809738Y-95850036D01*
X156639433Y-95977905D01*
X156631726Y-95984748D01*
X156554094Y-96065985D01*
X156492570Y-96101415D01*
X156421657Y-96097958D01*
X156363871Y-96056712D01*
X156345018Y-96023164D01*
X156303324Y-95911946D01*
X156294786Y-95896351D01*
X156218285Y-95794276D01*
X156205724Y-95781715D01*
X156103649Y-95705214D01*
X156088054Y-95696676D01*
X155967606Y-95651522D01*
X155952351Y-95647895D01*
X155901486Y-95642369D01*
X155894672Y-95642000D01*
X155272115Y-95642000D01*
X155256876Y-95646475D01*
X155255671Y-95647865D01*
X155254000Y-95655548D01*
X155254000Y-96727885D01*
X154746000Y-96727885D01*
X154746000Y-95660116D01*
X154741525Y-95644877D01*
X154740135Y-95643672D01*
X154732452Y-95642001D01*
X154105331Y-95642001D01*
X154098510Y-95642371D01*
X154047648Y-95647895D01*
X154032396Y-95651521D01*
X153911946Y-95696676D01*
X153896351Y-95705214D01*
X153794276Y-95781715D01*
X153781715Y-95794276D01*
X153705214Y-95896351D01*
X153696676Y-95911946D01*
X153651522Y-96032394D01*
X153647895Y-96047649D01*
X153642369Y-96098514D01*
X153642000Y-96105328D01*
X153642000Y-96727885D01*
X150418500Y-96727885D01*
X150418500Y-95508766D01*
X161617000Y-95508766D01*
X161617337Y-95515282D01*
X161627075Y-95609132D01*
X161629968Y-95622528D01*
X161680488Y-95773953D01*
X161686653Y-95787115D01*
X161770426Y-95922492D01*
X161779460Y-95933890D01*
X161892129Y-96046363D01*
X161903540Y-96055375D01*
X162039063Y-96138912D01*
X162052241Y-96145056D01*
X162203766Y-96195315D01*
X162217132Y-96198181D01*
X162309770Y-96207672D01*
X162316185Y-96208000D01*
X162327885Y-96208000D01*
X162343124Y-96203525D01*
X162344329Y-96202135D01*
X162346000Y-96194452D01*
X162346000Y-96189885D01*
X162854000Y-96189885D01*
X162858475Y-96205124D01*
X162859865Y-96206329D01*
X162867548Y-96208000D01*
X162883766Y-96208000D01*
X162890282Y-96207663D01*
X162984132Y-96197925D01*
X162997528Y-96195032D01*
X163148953Y-96144512D01*
X163162115Y-96138347D01*
X163283591Y-96063176D01*
X163352043Y-96044339D01*
X163416008Y-96063061D01*
X163539059Y-96138910D01*
X163552241Y-96145056D01*
X163703766Y-96195315D01*
X163717132Y-96198181D01*
X163809770Y-96207672D01*
X163816185Y-96208000D01*
X163827885Y-96208000D01*
X163843124Y-96203525D01*
X163844329Y-96202135D01*
X163846000Y-96194452D01*
X163846000Y-96189885D01*
X164354000Y-96189885D01*
X164358475Y-96205124D01*
X164359865Y-96206329D01*
X164367548Y-96208000D01*
X164383766Y-96208000D01*
X164390282Y-96207663D01*
X164484132Y-96197925D01*
X164497528Y-96195032D01*
X164648953Y-96144512D01*
X164662115Y-96138347D01*
X164797492Y-96054574D01*
X164808890Y-96045540D01*
X164921363Y-95932871D01*
X164930375Y-95921460D01*
X165013912Y-95785937D01*
X165020056Y-95772759D01*
X165070315Y-95621234D01*
X165073181Y-95607868D01*
X165082672Y-95515230D01*
X165083000Y-95508815D01*
X165083000Y-95434615D01*
X165078525Y-95419376D01*
X165077135Y-95418171D01*
X165069452Y-95416500D01*
X164372115Y-95416500D01*
X164356876Y-95420975D01*
X164355671Y-95422365D01*
X164354000Y-95430048D01*
X164354000Y-96189885D01*
X163846000Y-96189885D01*
X163846000Y-95434615D01*
X163841525Y-95419376D01*
X163840135Y-95418171D01*
X163832452Y-95416500D01*
X162872115Y-95416500D01*
X162856876Y-95420975D01*
X162855671Y-95422365D01*
X162854000Y-95430048D01*
X162854000Y-96189885D01*
X162346000Y-96189885D01*
X162346000Y-95434615D01*
X162341525Y-95419376D01*
X162340135Y-95418171D01*
X162332452Y-95416500D01*
X161635115Y-95416500D01*
X161619876Y-95420975D01*
X161618671Y-95422365D01*
X161617000Y-95430048D01*
X161617000Y-95508766D01*
X150418500Y-95508766D01*
X150418500Y-91570422D01*
X150438502Y-91502301D01*
X150455405Y-91481327D01*
X151464328Y-90472405D01*
X151526640Y-90438379D01*
X151553423Y-90435500D01*
X161785500Y-90435500D01*
X161853621Y-90455502D01*
X161892933Y-90495666D01*
X161957287Y-90600683D01*
X161957291Y-90600688D01*
X161959987Y-90605088D01*
X162106250Y-90773938D01*
X162240555Y-90885440D01*
X162273577Y-90912855D01*
X162278126Y-90916632D01*
X162471000Y-91029338D01*
X162679692Y-91109030D01*
X162684760Y-91110061D01*
X162684763Y-91110062D01*
X162791359Y-91131749D01*
X162898597Y-91153567D01*
X162903772Y-91153757D01*
X162903774Y-91153757D01*
X163116673Y-91161564D01*
X163116677Y-91161564D01*
X163121837Y-91161753D01*
X163126957Y-91161097D01*
X163126959Y-91161097D01*
X163338288Y-91134025D01*
X163338289Y-91134025D01*
X163343416Y-91133368D01*
X163348366Y-91131883D01*
X163552429Y-91070661D01*
X163552434Y-91070659D01*
X163557384Y-91069174D01*
X163757994Y-90970896D01*
X163939860Y-90841173D01*
X164048091Y-90733319D01*
X164110462Y-90699404D01*
X164181268Y-90704592D01*
X164238030Y-90747238D01*
X164255012Y-90778341D01*
X164277050Y-90837126D01*
X164299385Y-90896705D01*
X164386739Y-91013261D01*
X164503295Y-91100615D01*
X164639684Y-91151745D01*
X164701866Y-91158500D01*
X166047977Y-91158500D01*
X166098016Y-91168862D01*
X166127157Y-91181472D01*
X166137819Y-91186696D01*
X166169746Y-91204248D01*
X166169749Y-91204249D01*
X166176697Y-91208069D01*
X166196415Y-91213132D01*
X166215111Y-91219533D01*
X166233793Y-91227617D01*
X166241617Y-91228856D01*
X166241623Y-91228858D01*
X166277620Y-91234560D01*
X166289240Y-91236966D01*
X166324537Y-91246028D01*
X166332218Y-91248000D01*
X166352566Y-91248000D01*
X166372278Y-91249551D01*
X166392380Y-91252735D01*
X166436555Y-91248559D01*
X166448414Y-91248000D01*
X173553538Y-91248000D01*
X173621659Y-91268002D01*
X173660683Y-91307698D01*
X173673884Y-91329031D01*
X173679065Y-91334203D01*
X173791816Y-91446758D01*
X173791821Y-91446762D01*
X173796997Y-91451929D01*
X173803227Y-91455769D01*
X173803228Y-91455770D01*
X173876433Y-91500894D01*
X173923926Y-91553666D01*
X173935350Y-91623738D01*
X173907076Y-91688862D01*
X173899412Y-91697249D01*
X172958566Y-92638095D01*
X172896254Y-92672121D01*
X172869471Y-92675000D01*
X164982281Y-92675000D01*
X164914160Y-92654998D01*
X164893264Y-92638173D01*
X164808188Y-92553246D01*
X164808183Y-92553242D01*
X164803003Y-92548071D01*
X164751786Y-92516500D01*
X164661150Y-92460631D01*
X164661148Y-92460630D01*
X164654920Y-92456791D01*
X164489809Y-92402026D01*
X164482973Y-92401326D01*
X164482970Y-92401325D01*
X164431474Y-92396049D01*
X164387072Y-92391500D01*
X163812928Y-92391500D01*
X163809682Y-92391837D01*
X163809678Y-92391837D01*
X163715765Y-92401581D01*
X163715761Y-92401582D01*
X163708907Y-92402293D01*
X163702371Y-92404474D01*
X163702369Y-92404474D01*
X163622646Y-92431072D01*
X163543893Y-92457346D01*
X163420198Y-92533891D01*
X163418173Y-92535144D01*
X163351870Y-92554000D01*
X163348336Y-92554000D01*
X163282220Y-92535260D01*
X163161150Y-92460631D01*
X163161148Y-92460630D01*
X163154920Y-92456791D01*
X162989809Y-92402026D01*
X162982973Y-92401326D01*
X162982970Y-92401325D01*
X162931474Y-92396049D01*
X162887072Y-92391500D01*
X162312928Y-92391500D01*
X162309682Y-92391837D01*
X162309678Y-92391837D01*
X162215765Y-92401581D01*
X162215761Y-92401582D01*
X162208907Y-92402293D01*
X162202371Y-92404474D01*
X162202369Y-92404474D01*
X162122646Y-92431072D01*
X162043893Y-92457346D01*
X162037661Y-92461202D01*
X162037662Y-92461202D01*
X161978772Y-92497644D01*
X161912469Y-92516500D01*
X161168605Y-92516500D01*
X161100484Y-92496498D01*
X161075412Y-92475300D01*
X161013148Y-92406873D01*
X161013146Y-92406872D01*
X161009670Y-92403051D01*
X161005619Y-92399852D01*
X161005615Y-92399848D01*
X160838414Y-92267800D01*
X160838410Y-92267798D01*
X160834359Y-92264598D01*
X160638789Y-92156638D01*
X160633920Y-92154914D01*
X160633916Y-92154912D01*
X160433087Y-92083795D01*
X160433083Y-92083794D01*
X160428212Y-92082069D01*
X160423119Y-92081162D01*
X160423116Y-92081161D01*
X160213373Y-92043800D01*
X160213367Y-92043799D01*
X160208284Y-92042894D01*
X160134452Y-92041992D01*
X159990081Y-92040228D01*
X159990079Y-92040228D01*
X159984911Y-92040165D01*
X159764091Y-92073955D01*
X159551756Y-92143357D01*
X159353607Y-92246507D01*
X159349474Y-92249610D01*
X159349471Y-92249612D01*
X159179100Y-92377530D01*
X159174965Y-92380635D01*
X159085436Y-92474322D01*
X159082350Y-92477551D01*
X159020826Y-92512981D01*
X158991256Y-92516500D01*
X158628605Y-92516500D01*
X158560484Y-92496498D01*
X158535412Y-92475300D01*
X158473148Y-92406873D01*
X158473146Y-92406872D01*
X158469670Y-92403051D01*
X158465619Y-92399852D01*
X158465615Y-92399848D01*
X158298414Y-92267800D01*
X158298410Y-92267798D01*
X158294359Y-92264598D01*
X158098789Y-92156638D01*
X158093920Y-92154914D01*
X158093916Y-92154912D01*
X157893087Y-92083795D01*
X157893083Y-92083794D01*
X157888212Y-92082069D01*
X157883119Y-92081162D01*
X157883116Y-92081161D01*
X157673373Y-92043800D01*
X157673367Y-92043799D01*
X157668284Y-92042894D01*
X157594452Y-92041992D01*
X157450081Y-92040228D01*
X157450079Y-92040228D01*
X157444911Y-92040165D01*
X157224091Y-92073955D01*
X157011756Y-92143357D01*
X156813607Y-92246507D01*
X156809474Y-92249610D01*
X156809471Y-92249612D01*
X156639100Y-92377530D01*
X156634965Y-92380635D01*
X156557974Y-92461202D01*
X156554283Y-92465064D01*
X156492759Y-92500494D01*
X156421846Y-92497037D01*
X156364060Y-92455791D01*
X156345207Y-92422243D01*
X156303767Y-92311703D01*
X156300615Y-92303295D01*
X156213261Y-92186739D01*
X156096705Y-92099385D01*
X155960316Y-92048255D01*
X155898134Y-92041500D01*
X154101866Y-92041500D01*
X154039684Y-92048255D01*
X153903295Y-92099385D01*
X153786739Y-92186739D01*
X153699385Y-92303295D01*
X153648255Y-92439684D01*
X153641500Y-92501866D01*
X153641500Y-94298134D01*
X153648255Y-94360316D01*
X153699385Y-94496705D01*
X153786739Y-94613261D01*
X153903295Y-94700615D01*
X154039684Y-94751745D01*
X154101866Y-94758500D01*
X155898134Y-94758500D01*
X155960316Y-94751745D01*
X156096705Y-94700615D01*
X156213261Y-94613261D01*
X156300615Y-94496705D01*
X156344598Y-94379381D01*
X156387240Y-94322617D01*
X156453801Y-94297917D01*
X156523150Y-94313124D01*
X156557814Y-94341111D01*
X156586250Y-94373938D01*
X156758126Y-94516632D01*
X156951000Y-94629338D01*
X156955825Y-94631180D01*
X156955826Y-94631181D01*
X156990027Y-94644241D01*
X157159692Y-94709030D01*
X157164760Y-94710061D01*
X157164763Y-94710062D01*
X157264212Y-94730295D01*
X157378597Y-94753567D01*
X157383772Y-94753757D01*
X157383774Y-94753757D01*
X157596673Y-94761564D01*
X157596677Y-94761564D01*
X157601837Y-94761753D01*
X157606957Y-94761097D01*
X157606959Y-94761097D01*
X157818288Y-94734025D01*
X157818289Y-94734025D01*
X157823416Y-94733368D01*
X157857611Y-94723109D01*
X158032429Y-94670661D01*
X158032434Y-94670659D01*
X158037384Y-94669174D01*
X158237994Y-94570896D01*
X158419860Y-94441173D01*
X158541208Y-94320249D01*
X158603579Y-94286333D01*
X158630147Y-94283500D01*
X158990357Y-94283500D01*
X159058478Y-94303502D01*
X159085589Y-94326998D01*
X159126250Y-94373938D01*
X159298126Y-94516632D01*
X159491000Y-94629338D01*
X159495825Y-94631180D01*
X159495826Y-94631181D01*
X159530027Y-94644241D01*
X159699692Y-94709030D01*
X159704760Y-94710061D01*
X159704763Y-94710062D01*
X159804212Y-94730295D01*
X159918597Y-94753567D01*
X159923772Y-94753757D01*
X159923774Y-94753757D01*
X160136673Y-94761564D01*
X160136677Y-94761564D01*
X160141837Y-94761753D01*
X160146957Y-94761097D01*
X160146959Y-94761097D01*
X160358288Y-94734025D01*
X160358289Y-94734025D01*
X160363416Y-94733368D01*
X160397611Y-94723109D01*
X160572429Y-94670661D01*
X160572434Y-94670659D01*
X160577384Y-94669174D01*
X160777994Y-94570896D01*
X160959860Y-94441173D01*
X161081208Y-94320249D01*
X161143579Y-94286333D01*
X161170147Y-94283500D01*
X161617937Y-94283500D01*
X161686058Y-94303502D01*
X161732551Y-94357158D01*
X161742655Y-94427432D01*
X161725197Y-94475615D01*
X161686090Y-94539059D01*
X161679944Y-94552241D01*
X161629685Y-94703766D01*
X161626819Y-94717132D01*
X161617328Y-94809770D01*
X161617000Y-94816185D01*
X161617000Y-94890385D01*
X161621475Y-94905624D01*
X161622865Y-94906829D01*
X161630548Y-94908500D01*
X165064885Y-94908500D01*
X165080124Y-94904025D01*
X165081329Y-94902635D01*
X165083000Y-94894952D01*
X165083000Y-94816234D01*
X165082663Y-94809718D01*
X165072925Y-94715868D01*
X165070032Y-94702472D01*
X165019512Y-94551047D01*
X165013347Y-94537885D01*
X164925721Y-94396282D01*
X164927330Y-94395286D01*
X164904328Y-94338445D01*
X164917504Y-94268682D01*
X164966305Y-94217117D01*
X165029712Y-94200000D01*
X173170124Y-94200000D01*
X173189074Y-94201433D01*
X173203473Y-94203624D01*
X173203479Y-94203624D01*
X173210708Y-94204724D01*
X173218000Y-94204131D01*
X173218003Y-94204131D01*
X173263683Y-94200415D01*
X173273898Y-94200000D01*
X173282025Y-94200000D01*
X173285661Y-94199576D01*
X173285663Y-94199576D01*
X173289115Y-94199173D01*
X173310424Y-94196689D01*
X173314744Y-94196262D01*
X173387926Y-94190309D01*
X173394888Y-94188053D01*
X173400876Y-94186857D01*
X173406833Y-94185449D01*
X173414107Y-94184601D01*
X173420989Y-94182103D01*
X173420993Y-94182102D01*
X173483107Y-94159555D01*
X173487211Y-94158145D01*
X173557075Y-94135513D01*
X173563338Y-94131713D01*
X173568880Y-94129175D01*
X173574356Y-94126433D01*
X173581241Y-94123934D01*
X173642632Y-94083685D01*
X173646300Y-94081370D01*
X173709081Y-94043273D01*
X173713286Y-94039559D01*
X173713289Y-94039557D01*
X173717505Y-94035833D01*
X173717531Y-94035862D01*
X173720462Y-94033262D01*
X173723816Y-94030458D01*
X173729935Y-94026446D01*
X173783489Y-93969913D01*
X173785866Y-93967472D01*
X176107933Y-91645405D01*
X176170245Y-91611379D01*
X176197028Y-91608500D01*
X176387072Y-91608500D01*
X176390318Y-91608163D01*
X176390322Y-91608163D01*
X176484235Y-91598419D01*
X176484239Y-91598418D01*
X176491093Y-91597707D01*
X176497629Y-91595526D01*
X176497631Y-91595526D01*
X176649159Y-91544972D01*
X176656107Y-91542654D01*
X176804031Y-91451116D01*
X176859008Y-91396043D01*
X176921758Y-91333184D01*
X176921762Y-91333179D01*
X176926929Y-91328003D01*
X176953456Y-91284969D01*
X177014369Y-91186150D01*
X177014370Y-91186148D01*
X177018209Y-91179920D01*
X177072974Y-91014809D01*
X177073869Y-91006081D01*
X177081224Y-90934282D01*
X177083500Y-90912072D01*
X177083500Y-90237928D01*
X177081380Y-90217498D01*
X177073419Y-90140765D01*
X177073418Y-90140761D01*
X177072707Y-90133907D01*
X177067491Y-90118271D01*
X177019972Y-89975841D01*
X177017654Y-89968893D01*
X176975857Y-89901350D01*
X176929969Y-89827195D01*
X176929968Y-89827194D01*
X176926116Y-89820969D01*
X176894213Y-89789121D01*
X176860134Y-89726841D01*
X176865137Y-89656021D01*
X176894057Y-89610933D01*
X176921757Y-89583184D01*
X176926929Y-89578003D01*
X176930770Y-89571772D01*
X177014369Y-89436150D01*
X177014370Y-89436148D01*
X177018209Y-89429920D01*
X177072974Y-89264809D01*
X177083500Y-89162072D01*
X177083500Y-88487928D01*
X177082217Y-88475562D01*
X177073419Y-88390765D01*
X177073418Y-88390761D01*
X177072707Y-88383907D01*
X177062454Y-88353173D01*
X177019972Y-88225841D01*
X177017654Y-88218893D01*
X176926116Y-88070969D01*
X176914419Y-88059292D01*
X176808184Y-87953242D01*
X176808179Y-87953238D01*
X176803003Y-87948071D01*
X176697484Y-87883028D01*
X176661150Y-87860631D01*
X176661148Y-87860630D01*
X176654920Y-87856791D01*
X176489809Y-87802026D01*
X176482973Y-87801326D01*
X176482970Y-87801325D01*
X176431474Y-87796049D01*
X176387072Y-87791500D01*
X175812928Y-87791500D01*
X175809682Y-87791837D01*
X175809678Y-87791837D01*
X175715765Y-87801581D01*
X175715761Y-87801582D01*
X175708907Y-87802293D01*
X175702371Y-87804474D01*
X175702369Y-87804474D01*
X175590073Y-87841939D01*
X175543893Y-87857346D01*
X175537661Y-87861202D01*
X175537662Y-87861202D01*
X175403490Y-87944230D01*
X175395969Y-87948884D01*
X175389077Y-87955788D01*
X175387613Y-87956589D01*
X175385062Y-87958611D01*
X175384716Y-87958174D01*
X175326796Y-87989866D01*
X175255976Y-87984863D01*
X175210890Y-87955944D01*
X175208184Y-87953243D01*
X175208183Y-87953242D01*
X175203003Y-87948071D01*
X175097484Y-87883028D01*
X175061150Y-87860631D01*
X175061148Y-87860630D01*
X175054920Y-87856791D01*
X174889809Y-87802026D01*
X174882973Y-87801326D01*
X174882970Y-87801325D01*
X174831474Y-87796049D01*
X174787072Y-87791500D01*
X174212928Y-87791500D01*
X174209682Y-87791837D01*
X174209678Y-87791837D01*
X174115765Y-87801581D01*
X174115761Y-87801582D01*
X174108907Y-87802293D01*
X174102371Y-87804474D01*
X174102369Y-87804474D01*
X173990073Y-87841939D01*
X173943893Y-87857346D01*
X173795969Y-87948884D01*
X173790796Y-87954066D01*
X173678242Y-88066816D01*
X173678238Y-88066821D01*
X173673071Y-88071997D01*
X173669231Y-88078227D01*
X173669230Y-88078228D01*
X173586364Y-88212662D01*
X173581791Y-88220080D01*
X173527026Y-88385191D01*
X173516500Y-88487928D01*
X173516500Y-89087072D01*
X173516837Y-89090318D01*
X173516837Y-89090322D01*
X173526098Y-89179573D01*
X173527293Y-89191093D01*
X173529474Y-89197629D01*
X173529474Y-89197631D01*
X173553037Y-89268257D01*
X173582346Y-89356107D01*
X173673884Y-89504031D01*
X173679066Y-89509204D01*
X173780786Y-89610747D01*
X173814865Y-89673030D01*
X173809862Y-89743850D01*
X173780941Y-89788937D01*
X173678246Y-89891812D01*
X173678242Y-89891817D01*
X173673071Y-89896997D01*
X173669231Y-89903227D01*
X173660668Y-89917118D01*
X173607895Y-89964610D01*
X173553409Y-89977000D01*
X167084500Y-89977000D01*
X167016379Y-89956998D01*
X166969886Y-89903342D01*
X166958500Y-89851000D01*
X166958500Y-88901866D01*
X166951745Y-88839684D01*
X166900615Y-88703295D01*
X166813261Y-88586739D01*
X166696705Y-88499385D01*
X166560316Y-88448255D01*
X166498134Y-88441500D01*
X164701866Y-88441500D01*
X164639684Y-88448255D01*
X164503295Y-88499385D01*
X164386739Y-88586739D01*
X164299385Y-88703295D01*
X164296233Y-88711703D01*
X164254919Y-88821907D01*
X164212277Y-88878671D01*
X164145716Y-88903371D01*
X164076367Y-88888163D01*
X164043743Y-88862476D01*
X163993151Y-88806875D01*
X163993142Y-88806866D01*
X163989670Y-88803051D01*
X163985619Y-88799852D01*
X163985615Y-88799848D01*
X163818414Y-88667800D01*
X163818410Y-88667798D01*
X163814359Y-88664598D01*
X163618789Y-88556638D01*
X163613920Y-88554914D01*
X163613916Y-88554912D01*
X163413087Y-88483795D01*
X163413083Y-88483794D01*
X163408212Y-88482069D01*
X163403119Y-88481162D01*
X163403116Y-88481161D01*
X163193373Y-88443800D01*
X163193367Y-88443799D01*
X163188284Y-88442894D01*
X163114452Y-88441992D01*
X162970081Y-88440228D01*
X162970079Y-88440228D01*
X162964911Y-88440165D01*
X162744091Y-88473955D01*
X162531756Y-88543357D01*
X162333607Y-88646507D01*
X162329474Y-88649610D01*
X162329471Y-88649612D01*
X162175902Y-88764915D01*
X162154965Y-88780635D01*
X162129501Y-88807282D01*
X162058416Y-88881668D01*
X162000629Y-88942138D01*
X161997715Y-88946410D01*
X161997714Y-88946411D01*
X161982798Y-88968277D01*
X161917299Y-89064296D01*
X161886460Y-89109504D01*
X161831549Y-89154507D01*
X161782372Y-89164500D01*
X151317032Y-89164500D01*
X151305793Y-89163970D01*
X151298281Y-89162291D01*
X151290356Y-89162540D01*
X151290355Y-89162540D01*
X151229970Y-89164438D01*
X151226012Y-89164500D01*
X151198017Y-89164500D01*
X151194083Y-89164997D01*
X151194081Y-89164997D01*
X151193994Y-89165008D01*
X151182160Y-89165940D01*
X151137795Y-89167335D01*
X151130182Y-89169547D01*
X151130181Y-89169547D01*
X151118252Y-89173013D01*
X151098888Y-89177023D01*
X151086560Y-89178580D01*
X151086558Y-89178580D01*
X151078701Y-89179573D01*
X151071337Y-89182489D01*
X151071332Y-89182490D01*
X151037444Y-89195907D01*
X151026215Y-89199752D01*
X151009535Y-89204598D01*
X150983607Y-89212131D01*
X150976780Y-89216169D01*
X150976777Y-89216170D01*
X150966094Y-89222488D01*
X150948336Y-89231188D01*
X150936785Y-89235761D01*
X150936779Y-89235765D01*
X150929412Y-89238681D01*
X150923001Y-89243339D01*
X150922999Y-89243340D01*
X150893512Y-89264764D01*
X150883590Y-89271281D01*
X150852232Y-89289826D01*
X150852228Y-89289829D01*
X150845402Y-89293866D01*
X150831018Y-89308250D01*
X150815984Y-89321091D01*
X150799513Y-89333058D01*
X150794460Y-89339166D01*
X150771223Y-89367255D01*
X150763233Y-89376035D01*
X149389517Y-90749750D01*
X149381191Y-90757326D01*
X149374697Y-90761447D01*
X149358833Y-90778341D01*
X149327915Y-90811265D01*
X149325160Y-90814107D01*
X149305361Y-90833906D01*
X149302937Y-90837031D01*
X149302929Y-90837040D01*
X149302863Y-90837126D01*
X149295155Y-90846151D01*
X149264783Y-90878494D01*
X149260965Y-90885438D01*
X149260964Y-90885440D01*
X149254978Y-90896329D01*
X149244127Y-90912847D01*
X149231650Y-90928933D01*
X149214024Y-90969666D01*
X149208807Y-90980314D01*
X149187431Y-91019197D01*
X149185460Y-91026872D01*
X149185458Y-91026878D01*
X149182369Y-91038911D01*
X149175966Y-91057613D01*
X149167883Y-91076292D01*
X149166644Y-91084117D01*
X149160940Y-91120127D01*
X149158535Y-91131740D01*
X149147500Y-91174718D01*
X149147500Y-91195065D01*
X149145949Y-91214776D01*
X149142765Y-91234879D01*
X149143511Y-91242771D01*
X149146941Y-91279056D01*
X149147500Y-91290914D01*
X149147500Y-100532905D01*
X149127498Y-100601026D01*
X149110595Y-100622000D01*
X145649318Y-104083277D01*
X145640994Y-104090852D01*
X145634497Y-104094975D01*
X145632296Y-104097319D01*
X145568984Y-104124502D01*
X145540898Y-104124348D01*
X145540888Y-104124508D01*
X145538221Y-104124333D01*
X145537463Y-104124329D01*
X145532685Y-104123700D01*
X145528562Y-104123700D01*
X145392801Y-104123701D01*
X145252916Y-104123701D01*
X145248831Y-104124239D01*
X145248827Y-104124239D01*
X145142137Y-104138284D01*
X145142135Y-104138284D01*
X145133950Y-104139362D01*
X145116019Y-104146789D01*
X145045430Y-104154379D01*
X145019582Y-104146790D01*
X145016139Y-104145363D01*
X145009280Y-104142522D01*
X145009277Y-104142521D01*
X145001650Y-104139362D01*
X144949285Y-104132468D01*
X144886772Y-104124238D01*
X144886771Y-104124238D01*
X144882685Y-104123700D01*
X144742817Y-104123700D01*
X144602916Y-104123701D01*
X144598831Y-104124239D01*
X144598827Y-104124239D01*
X144492137Y-104138284D01*
X144492135Y-104138284D01*
X144483950Y-104139362D01*
X144466019Y-104146789D01*
X144395430Y-104154379D01*
X144369582Y-104146790D01*
X144366139Y-104145363D01*
X144359280Y-104142522D01*
X144359277Y-104142521D01*
X144351650Y-104139362D01*
X144299285Y-104132468D01*
X144236772Y-104124238D01*
X144236771Y-104124238D01*
X144232685Y-104123700D01*
X144092817Y-104123700D01*
X143952916Y-104123701D01*
X143948831Y-104124239D01*
X143948827Y-104124239D01*
X143842137Y-104138284D01*
X143842135Y-104138284D01*
X143833950Y-104139362D01*
X143816019Y-104146789D01*
X143745430Y-104154379D01*
X143719582Y-104146790D01*
X143716139Y-104145363D01*
X143709280Y-104142522D01*
X143709277Y-104142521D01*
X143701650Y-104139362D01*
X143649285Y-104132468D01*
X143586772Y-104124238D01*
X143586771Y-104124238D01*
X143582685Y-104123700D01*
X143442817Y-104123700D01*
X143302916Y-104123701D01*
X143298831Y-104124239D01*
X143298827Y-104124239D01*
X143192137Y-104138284D01*
X143192135Y-104138284D01*
X143183950Y-104139362D01*
X143166019Y-104146789D01*
X143095430Y-104154379D01*
X143069582Y-104146790D01*
X143066139Y-104145363D01*
X143059280Y-104142522D01*
X143059277Y-104142521D01*
X143051650Y-104139362D01*
X142999285Y-104132468D01*
X142936772Y-104124238D01*
X142936771Y-104124238D01*
X142932685Y-104123700D01*
X142792817Y-104123700D01*
X142652916Y-104123701D01*
X142648831Y-104124239D01*
X142648827Y-104124239D01*
X142542137Y-104138284D01*
X142542135Y-104138284D01*
X142533950Y-104139362D01*
X142516019Y-104146789D01*
X142445430Y-104154379D01*
X142419582Y-104146790D01*
X142416139Y-104145363D01*
X142409280Y-104142522D01*
X142409277Y-104142521D01*
X142401650Y-104139362D01*
X142349285Y-104132468D01*
X142286772Y-104124238D01*
X142286771Y-104124238D01*
X142282685Y-104123700D01*
X142254300Y-104123700D01*
X142186179Y-104103698D01*
X142139686Y-104050042D01*
X142128300Y-103997700D01*
X142128300Y-103857716D01*
X142128830Y-103846482D01*
X142130508Y-103838977D01*
X142128362Y-103770677D01*
X142128300Y-103766720D01*
X142128300Y-103738713D01*
X142127792Y-103734692D01*
X142126858Y-103722840D01*
X142125714Y-103686414D01*
X142125714Y-103686413D01*
X142125465Y-103678491D01*
X142119787Y-103658947D01*
X142115777Y-103639584D01*
X142114220Y-103627256D01*
X142114220Y-103627254D01*
X142113227Y-103619397D01*
X142110311Y-103612033D01*
X142110310Y-103612028D01*
X142096893Y-103578140D01*
X142093048Y-103566911D01*
X142082880Y-103531915D01*
X142080669Y-103524303D01*
X142070310Y-103506787D01*
X142061613Y-103489037D01*
X142054119Y-103470108D01*
X142028040Y-103434213D01*
X142021522Y-103424291D01*
X142002970Y-103392920D01*
X142002966Y-103392915D01*
X141998934Y-103386097D01*
X141984547Y-103371710D01*
X141971706Y-103356676D01*
X141964402Y-103346623D01*
X141959742Y-103340209D01*
X141925550Y-103311923D01*
X141916771Y-103303934D01*
X140485354Y-101872517D01*
X140477778Y-101864191D01*
X140473657Y-101857697D01*
X140423838Y-101810914D01*
X140420997Y-101808160D01*
X140401198Y-101788361D01*
X140398073Y-101785937D01*
X140398064Y-101785929D01*
X140397978Y-101785863D01*
X140388953Y-101778155D01*
X140362389Y-101753210D01*
X140356610Y-101747783D01*
X140338773Y-101737977D01*
X140322257Y-101727127D01*
X140306171Y-101714650D01*
X140265438Y-101697024D01*
X140254790Y-101691807D01*
X140231068Y-101678766D01*
X140215907Y-101670431D01*
X140208232Y-101668460D01*
X140208226Y-101668458D01*
X140196193Y-101665369D01*
X140177491Y-101658966D01*
X140158812Y-101650883D01*
X140124976Y-101645524D01*
X140114977Y-101643940D01*
X140103364Y-101641535D01*
X140060386Y-101630500D01*
X140040039Y-101630500D01*
X140020328Y-101628949D01*
X140008054Y-101627005D01*
X140000225Y-101625765D01*
X139992333Y-101626511D01*
X139956048Y-101629941D01*
X139944190Y-101630500D01*
X135196500Y-101630500D01*
X135128379Y-101610498D01*
X135081886Y-101556842D01*
X135070500Y-101504500D01*
X135070500Y-98831820D01*
X135071030Y-98820586D01*
X135072708Y-98813081D01*
X135070562Y-98744788D01*
X135070500Y-98740831D01*
X135070500Y-98712817D01*
X135069992Y-98708796D01*
X135069058Y-98696944D01*
X135067914Y-98660518D01*
X135067914Y-98660517D01*
X135067665Y-98652595D01*
X135061987Y-98633051D01*
X135057977Y-98613688D01*
X135056420Y-98601360D01*
X135056420Y-98601358D01*
X135055427Y-98593501D01*
X135052511Y-98586137D01*
X135052510Y-98586132D01*
X135039093Y-98552244D01*
X135035248Y-98541015D01*
X135025081Y-98506022D01*
X135022869Y-98498407D01*
X135018830Y-98491577D01*
X135012512Y-98480894D01*
X135003812Y-98463136D01*
X134999239Y-98451585D01*
X134999235Y-98451579D01*
X134996319Y-98444212D01*
X134970234Y-98408309D01*
X134963719Y-98398390D01*
X134945174Y-98367032D01*
X134945171Y-98367028D01*
X134941134Y-98360202D01*
X134926750Y-98345818D01*
X134913909Y-98330784D01*
X134906602Y-98320727D01*
X134901942Y-98314313D01*
X134867744Y-98286022D01*
X134858965Y-98278033D01*
X133580699Y-96999766D01*
X135454400Y-96999766D01*
X135454737Y-97006282D01*
X135464475Y-97100132D01*
X135467368Y-97113528D01*
X135517888Y-97264953D01*
X135524053Y-97278115D01*
X135607826Y-97413492D01*
X135616860Y-97424890D01*
X135729529Y-97537363D01*
X135740940Y-97546375D01*
X135876463Y-97629912D01*
X135889641Y-97636056D01*
X136041166Y-97686315D01*
X136054532Y-97689181D01*
X136147170Y-97698672D01*
X136153585Y-97699000D01*
X136227785Y-97699000D01*
X136243024Y-97694525D01*
X136244229Y-97693135D01*
X136245900Y-97685452D01*
X136245900Y-96988115D01*
X136241425Y-96972876D01*
X136240035Y-96971671D01*
X136232352Y-96970000D01*
X135472515Y-96970000D01*
X135457276Y-96974475D01*
X135456071Y-96975865D01*
X135454400Y-96983548D01*
X135454400Y-96999766D01*
X133580699Y-96999766D01*
X132861077Y-96280144D01*
X132827051Y-96217832D01*
X132829614Y-96154420D01*
X132831952Y-96146727D01*
X132841570Y-96115069D01*
X132870729Y-95893590D01*
X132871793Y-95850036D01*
X132872274Y-95830365D01*
X132872274Y-95830361D01*
X132872356Y-95827000D01*
X132854052Y-95604361D01*
X132821751Y-95475766D01*
X135429000Y-95475766D01*
X135429337Y-95482282D01*
X135439075Y-95576132D01*
X135441968Y-95589528D01*
X135492488Y-95740953D01*
X135498653Y-95754115D01*
X135582427Y-95889493D01*
X135586504Y-95894637D01*
X135613142Y-95960447D01*
X135599971Y-96030211D01*
X135595019Y-96039018D01*
X135523488Y-96155063D01*
X135517344Y-96168241D01*
X135467085Y-96319766D01*
X135464219Y-96333132D01*
X135454728Y-96425770D01*
X135454400Y-96432185D01*
X135454400Y-96443885D01*
X135458875Y-96459124D01*
X135460265Y-96460329D01*
X135467948Y-96462000D01*
X136227785Y-96462000D01*
X136243024Y-96457525D01*
X136244229Y-96456135D01*
X136245900Y-96448452D01*
X136245900Y-96233115D01*
X136233016Y-96189235D01*
X136225605Y-96177705D01*
X136220500Y-96142202D01*
X136220500Y-95464115D01*
X136216025Y-95448876D01*
X136214635Y-95447671D01*
X136206952Y-95446000D01*
X135447115Y-95446000D01*
X135431876Y-95450475D01*
X135430671Y-95451865D01*
X135429000Y-95459548D01*
X135429000Y-95475766D01*
X132821751Y-95475766D01*
X132799631Y-95387702D01*
X132710554Y-95182840D01*
X132605876Y-95021032D01*
X132592022Y-94999617D01*
X132592020Y-94999614D01*
X132589214Y-94995277D01*
X132438870Y-94830051D01*
X132434819Y-94826852D01*
X132434815Y-94826848D01*
X132267614Y-94694800D01*
X132267610Y-94694798D01*
X132263559Y-94691598D01*
X132067989Y-94583638D01*
X132063120Y-94581914D01*
X132063116Y-94581912D01*
X131862287Y-94510795D01*
X131862283Y-94510794D01*
X131857412Y-94509069D01*
X131852319Y-94508162D01*
X131852316Y-94508161D01*
X131642573Y-94470800D01*
X131642567Y-94470799D01*
X131637484Y-94469894D01*
X131563652Y-94468992D01*
X131419281Y-94467228D01*
X131419279Y-94467228D01*
X131414111Y-94467165D01*
X131193291Y-94500955D01*
X130980956Y-94570357D01*
X130932104Y-94595788D01*
X130791131Y-94669174D01*
X130782807Y-94673507D01*
X130778674Y-94676610D01*
X130778671Y-94676612D01*
X130665274Y-94761753D01*
X130604165Y-94807635D01*
X130532214Y-94882928D01*
X130523483Y-94892064D01*
X130461959Y-94927494D01*
X130391046Y-94924037D01*
X130333260Y-94882791D01*
X130314407Y-94849243D01*
X130272967Y-94738703D01*
X130269815Y-94730295D01*
X130182461Y-94613739D01*
X130065905Y-94526385D01*
X129929516Y-94475255D01*
X129867334Y-94468500D01*
X128071066Y-94468500D01*
X128008884Y-94475255D01*
X127872495Y-94526385D01*
X127755939Y-94613739D01*
X127668585Y-94730295D01*
X127617455Y-94866684D01*
X127610700Y-94928866D01*
X127610700Y-95819777D01*
X127590698Y-95887898D01*
X127537042Y-95934391D01*
X127466768Y-95944495D01*
X127402188Y-95915001D01*
X127395605Y-95908872D01*
X127296250Y-95809517D01*
X127288674Y-95801191D01*
X127284553Y-95794697D01*
X127234734Y-95747914D01*
X127231893Y-95745160D01*
X127212094Y-95725361D01*
X127208969Y-95722937D01*
X127208960Y-95722929D01*
X127208874Y-95722863D01*
X127199849Y-95715155D01*
X127173285Y-95690210D01*
X127167506Y-95684783D01*
X127149669Y-95674977D01*
X127133153Y-95664127D01*
X127117067Y-95651650D01*
X127076334Y-95634024D01*
X127065686Y-95628807D01*
X127040809Y-95615131D01*
X127026803Y-95607431D01*
X127019128Y-95605460D01*
X127019122Y-95605458D01*
X127007089Y-95602369D01*
X126988387Y-95595966D01*
X126969708Y-95587883D01*
X126929913Y-95581580D01*
X126925873Y-95580940D01*
X126914260Y-95578535D01*
X126871282Y-95567500D01*
X126850935Y-95567500D01*
X126831224Y-95565949D01*
X126818950Y-95564005D01*
X126811121Y-95562765D01*
X126803229Y-95563511D01*
X126766944Y-95566941D01*
X126755086Y-95567500D01*
X123454500Y-95567500D01*
X123386379Y-95547498D01*
X123339886Y-95493842D01*
X123328500Y-95441500D01*
X123328500Y-95304866D01*
X123321745Y-95242684D01*
X123270615Y-95106295D01*
X123183261Y-94989739D01*
X123066705Y-94902385D01*
X122930316Y-94851255D01*
X122868134Y-94844500D01*
X121071866Y-94844500D01*
X121009684Y-94851255D01*
X120873295Y-94902385D01*
X120756739Y-94989739D01*
X120669385Y-95106295D01*
X120618255Y-95242684D01*
X120611500Y-95304866D01*
X120611500Y-95440040D01*
X120591498Y-95508161D01*
X120537842Y-95554654D01*
X120489458Y-95565978D01*
X120443318Y-95567428D01*
X120442988Y-95567438D01*
X120439031Y-95567500D01*
X120411017Y-95567500D01*
X120407092Y-95567996D01*
X120407091Y-95567996D01*
X120406996Y-95568008D01*
X120395151Y-95568941D01*
X120365330Y-95569878D01*
X120358718Y-95570086D01*
X120358717Y-95570086D01*
X120350795Y-95570335D01*
X120331252Y-95576013D01*
X120311888Y-95580023D01*
X120299560Y-95581580D01*
X120299558Y-95581580D01*
X120291701Y-95582573D01*
X120284337Y-95585489D01*
X120284332Y-95585490D01*
X120250444Y-95598907D01*
X120239215Y-95602752D01*
X120223111Y-95607431D01*
X120196607Y-95615131D01*
X120189780Y-95619169D01*
X120189777Y-95619170D01*
X120179094Y-95625488D01*
X120161336Y-95634188D01*
X120149785Y-95638761D01*
X120149779Y-95638765D01*
X120142412Y-95641681D01*
X120136001Y-95646339D01*
X120135999Y-95646340D01*
X120106512Y-95667764D01*
X120096590Y-95674281D01*
X120065232Y-95692826D01*
X120065228Y-95692829D01*
X120058402Y-95696866D01*
X120044018Y-95711250D01*
X120028984Y-95724091D01*
X120012513Y-95736058D01*
X120007460Y-95742166D01*
X119984223Y-95770255D01*
X119976233Y-95779035D01*
X118470573Y-97284695D01*
X118408261Y-97318721D01*
X118337446Y-97313656D01*
X118280610Y-97271109D01*
X118255799Y-97204589D01*
X118256857Y-97179910D01*
X118257430Y-97177771D01*
X118258764Y-97152332D01*
X118260907Y-97111433D01*
X118261424Y-97104859D01*
X118263500Y-97085106D01*
X118263500Y-97065245D01*
X118263673Y-97058650D01*
X118266805Y-96998898D01*
X118266805Y-96998894D01*
X118267150Y-96992307D01*
X118265051Y-96979053D01*
X118263500Y-96959344D01*
X118263500Y-91871885D01*
X135430100Y-91871885D01*
X135434575Y-91887124D01*
X135435965Y-91888329D01*
X135443648Y-91890000D01*
X136203485Y-91890000D01*
X136218724Y-91885525D01*
X136219929Y-91884135D01*
X136221600Y-91876452D01*
X136221600Y-90916115D01*
X136217125Y-90900876D01*
X136215735Y-90899671D01*
X136208052Y-90898000D01*
X135448215Y-90898000D01*
X135432976Y-90902475D01*
X135431771Y-90903865D01*
X135430100Y-90911548D01*
X135430100Y-90927766D01*
X135430437Y-90934282D01*
X135440175Y-91028132D01*
X135443068Y-91041528D01*
X135493588Y-91192953D01*
X135499753Y-91206115D01*
X135574924Y-91327591D01*
X135593761Y-91396043D01*
X135575039Y-91460008D01*
X135499190Y-91583059D01*
X135493044Y-91596241D01*
X135442785Y-91747766D01*
X135439919Y-91761132D01*
X135430428Y-91853770D01*
X135430100Y-91860185D01*
X135430100Y-91871885D01*
X118263500Y-91871885D01*
X118263500Y-88269866D01*
X118283502Y-88201745D01*
X118300560Y-88180615D01*
X118300861Y-88180315D01*
X118418096Y-88063489D01*
X118431411Y-88044960D01*
X118545435Y-87886277D01*
X118548453Y-87882077D01*
X118561822Y-87855028D01*
X118645136Y-87686453D01*
X118645137Y-87686451D01*
X118647430Y-87681811D01*
X118697031Y-87518556D01*
X118710865Y-87473023D01*
X118710865Y-87473021D01*
X118712370Y-87468069D01*
X118741529Y-87246590D01*
X118741741Y-87237915D01*
X118743074Y-87183365D01*
X118743074Y-87183361D01*
X118743156Y-87180000D01*
X118724852Y-86957361D01*
X118670431Y-86740702D01*
X118581354Y-86535840D01*
X118460014Y-86348277D01*
X118309670Y-86183051D01*
X118305619Y-86179852D01*
X118305615Y-86179848D01*
X118138414Y-86047800D01*
X118138410Y-86047798D01*
X118134359Y-86044598D01*
X118129311Y-86041811D01*
X118082136Y-86015769D01*
X117938789Y-85936638D01*
X117933920Y-85934914D01*
X117933916Y-85934912D01*
X117733087Y-85863795D01*
X117733083Y-85863794D01*
X117728212Y-85862069D01*
X117723119Y-85861162D01*
X117723116Y-85861161D01*
X117513373Y-85823800D01*
X117513367Y-85823799D01*
X117508284Y-85822894D01*
X117434452Y-85821992D01*
X117290081Y-85820228D01*
X117290079Y-85820228D01*
X117284911Y-85820165D01*
X117064091Y-85853955D01*
X116851756Y-85923357D01*
X116653607Y-86026507D01*
X116649474Y-86029610D01*
X116649471Y-86029612D01*
X116479100Y-86157530D01*
X116474965Y-86160635D01*
X116471393Y-86164373D01*
X116363729Y-86277037D01*
X116320629Y-86322138D01*
X116213201Y-86479621D01*
X116158293Y-86524621D01*
X116087768Y-86532792D01*
X116024021Y-86501538D01*
X116003324Y-86477054D01*
X115922822Y-86352617D01*
X115922820Y-86352614D01*
X115920014Y-86348277D01*
X115769670Y-86183051D01*
X115765619Y-86179852D01*
X115765615Y-86179848D01*
X115598414Y-86047800D01*
X115598410Y-86047798D01*
X115594359Y-86044598D01*
X115589311Y-86041811D01*
X115542136Y-86015769D01*
X115398789Y-85936638D01*
X115393920Y-85934914D01*
X115393916Y-85934912D01*
X115193087Y-85863795D01*
X115193083Y-85863794D01*
X115188212Y-85862069D01*
X115183119Y-85861162D01*
X115183116Y-85861161D01*
X114973373Y-85823800D01*
X114973367Y-85823799D01*
X114968284Y-85822894D01*
X114894452Y-85821992D01*
X114750081Y-85820228D01*
X114750079Y-85820228D01*
X114744911Y-85820165D01*
X114524091Y-85853955D01*
X114311756Y-85923357D01*
X114113607Y-86026507D01*
X114109474Y-86029610D01*
X114109471Y-86029612D01*
X113939100Y-86157530D01*
X113934965Y-86160635D01*
X113856229Y-86243028D01*
X113854283Y-86245064D01*
X113792759Y-86280494D01*
X113721846Y-86277037D01*
X113664060Y-86235791D01*
X113645207Y-86202243D01*
X113603767Y-86091703D01*
X113600615Y-86083295D01*
X113513261Y-85966739D01*
X113396705Y-85879385D01*
X113260316Y-85828255D01*
X113198134Y-85821500D01*
X111401866Y-85821500D01*
X111339684Y-85828255D01*
X111203295Y-85879385D01*
X111086739Y-85966739D01*
X110999385Y-86083295D01*
X110948255Y-86219684D01*
X110941500Y-86281866D01*
X110941500Y-88078134D01*
X110948255Y-88140316D01*
X110999385Y-88276705D01*
X111086739Y-88393261D01*
X111203295Y-88480615D01*
X111339684Y-88531745D01*
X111401866Y-88538500D01*
X111411500Y-88538500D01*
X111479621Y-88558502D01*
X111526114Y-88612158D01*
X111537500Y-88664500D01*
X111537500Y-93197624D01*
X111536067Y-93216574D01*
X111533876Y-93230973D01*
X111533876Y-93230979D01*
X111532776Y-93238208D01*
X111533369Y-93245500D01*
X111533369Y-93245503D01*
X111537085Y-93291183D01*
X111537500Y-93301398D01*
X111537500Y-93309525D01*
X111540811Y-93337924D01*
X111541238Y-93342244D01*
X111547191Y-93415426D01*
X111549447Y-93422388D01*
X111550643Y-93428376D01*
X111552051Y-93434333D01*
X111552899Y-93441607D01*
X111555397Y-93448489D01*
X111555398Y-93448493D01*
X111577945Y-93510607D01*
X111579355Y-93514711D01*
X111601987Y-93584575D01*
X111605787Y-93590838D01*
X111608325Y-93596380D01*
X111611067Y-93601856D01*
X111613566Y-93608741D01*
X111617581Y-93614865D01*
X111653815Y-93670132D01*
X111656130Y-93673800D01*
X111694227Y-93736581D01*
X111697941Y-93740786D01*
X111697943Y-93740789D01*
X111701667Y-93745005D01*
X111701638Y-93745031D01*
X111704238Y-93747962D01*
X111707042Y-93751316D01*
X111711054Y-93757435D01*
X111716366Y-93762467D01*
X111767586Y-93810988D01*
X111770028Y-93813366D01*
X112333067Y-94376405D01*
X112367093Y-94438717D01*
X112362028Y-94509532D01*
X112319481Y-94566368D01*
X112252961Y-94591179D01*
X112243972Y-94591500D01*
X111794600Y-94591500D01*
X111791354Y-94591837D01*
X111791350Y-94591837D01*
X111695692Y-94601762D01*
X111695688Y-94601763D01*
X111688834Y-94602474D01*
X111682298Y-94604655D01*
X111682296Y-94604655D01*
X111602849Y-94631161D01*
X111521054Y-94658450D01*
X111370652Y-94751522D01*
X111365479Y-94756704D01*
X111307686Y-94814598D01*
X111245695Y-94876697D01*
X111241855Y-94882927D01*
X111241854Y-94882928D01*
X111169926Y-94999617D01*
X111152885Y-95027262D01*
X111150581Y-95034209D01*
X111102725Y-95178492D01*
X111097203Y-95195139D01*
X111086500Y-95299600D01*
X111086500Y-96600400D01*
X111086837Y-96603646D01*
X111086837Y-96603650D01*
X111096605Y-96697787D01*
X111097474Y-96706166D01*
X111099655Y-96712702D01*
X111099655Y-96712704D01*
X111139952Y-96833489D01*
X111153450Y-96873946D01*
X111246522Y-97024348D01*
X111371697Y-97149305D01*
X111377927Y-97153145D01*
X111377928Y-97153146D01*
X111428635Y-97184402D01*
X111522262Y-97242115D01*
X111529209Y-97244419D01*
X111531276Y-97245383D01*
X111584561Y-97292299D01*
X111604023Y-97360576D01*
X111583482Y-97428536D01*
X111553681Y-97460337D01*
X111539965Y-97470635D01*
X111385629Y-97632138D01*
X111382720Y-97636403D01*
X111382714Y-97636411D01*
X111335230Y-97706020D01*
X111259743Y-97816680D01*
X111229701Y-97881401D01*
X111171432Y-98006931D01*
X111165688Y-98019305D01*
X111105989Y-98234570D01*
X111082251Y-98456695D01*
X111095110Y-98679715D01*
X111096247Y-98684761D01*
X111096248Y-98684767D01*
X111107136Y-98733079D01*
X111144222Y-98897639D01*
X111202899Y-99042144D01*
X111212408Y-99065561D01*
X111228266Y-99104616D01*
X111266917Y-99167689D01*
X111311142Y-99239857D01*
X111344987Y-99295088D01*
X111491250Y-99463938D01*
X111663126Y-99606632D01*
X111701269Y-99628921D01*
X111736445Y-99649476D01*
X111785169Y-99701114D01*
X111798240Y-99770897D01*
X111771509Y-99836669D01*
X111731055Y-99870027D01*
X111718607Y-99876507D01*
X111714474Y-99879610D01*
X111714471Y-99879612D01*
X111547575Y-100004921D01*
X111539965Y-100010635D01*
X111536393Y-100014373D01*
X111419492Y-100136703D01*
X111385629Y-100172138D01*
X111382715Y-100176410D01*
X111382714Y-100176411D01*
X111325332Y-100260530D01*
X111259743Y-100356680D01*
X111220580Y-100441050D01*
X111169301Y-100551522D01*
X111165688Y-100559305D01*
X111105989Y-100774570D01*
X111082251Y-100996695D01*
X111082548Y-101001848D01*
X111082548Y-101001851D01*
X111094812Y-101214547D01*
X111095110Y-101219715D01*
X111096247Y-101224761D01*
X111096248Y-101224767D01*
X111115366Y-101309596D01*
X111144222Y-101437639D01*
X111202231Y-101580500D01*
X111218178Y-101619771D01*
X111228266Y-101644616D01*
X111256469Y-101690639D01*
X111340313Y-101827460D01*
X111344987Y-101835088D01*
X111491250Y-102003938D01*
X111598336Y-102092842D01*
X111655585Y-102140371D01*
X111663126Y-102146632D01*
X111697126Y-102166500D01*
X111736445Y-102189476D01*
X111785169Y-102241114D01*
X111798240Y-102310897D01*
X111771509Y-102376669D01*
X111731055Y-102410027D01*
X111718607Y-102416507D01*
X111714474Y-102419610D01*
X111714471Y-102419612D01*
X111553422Y-102540531D01*
X111539965Y-102550635D01*
X111385629Y-102712138D01*
X111382715Y-102716410D01*
X111382714Y-102716411D01*
X111351537Y-102762115D01*
X111259743Y-102896680D01*
X111221040Y-102980058D01*
X111169165Y-103091815D01*
X111165688Y-103099305D01*
X111105989Y-103314570D01*
X111082251Y-103536695D01*
X111082548Y-103541848D01*
X111082548Y-103541851D01*
X111092984Y-103722840D01*
X111095110Y-103759715D01*
X111096247Y-103764761D01*
X111096248Y-103764767D01*
X111101866Y-103789695D01*
X111144222Y-103977639D01*
X111190361Y-104091267D01*
X111211174Y-104142522D01*
X111228266Y-104184616D01*
X111270155Y-104252973D01*
X111342291Y-104370688D01*
X111344987Y-104375088D01*
X111491250Y-104543938D01*
X111663126Y-104686632D01*
X111720877Y-104720379D01*
X111736955Y-104729774D01*
X111785679Y-104781412D01*
X111798750Y-104851195D01*
X111772019Y-104916967D01*
X111731562Y-104950327D01*
X111723460Y-104954544D01*
X111714734Y-104960039D01*
X111694677Y-104975099D01*
X111686223Y-104986427D01*
X111692968Y-104998758D01*
X112432188Y-105737978D01*
X112446132Y-105745592D01*
X112447965Y-105745461D01*
X112454580Y-105741210D01*
X113198389Y-104997401D01*
X113205410Y-104984544D01*
X113198611Y-104975213D01*
X113194559Y-104972521D01*
X113157602Y-104952120D01*
X113107631Y-104901687D01*
X113092859Y-104832245D01*
X113117975Y-104765839D01*
X113145327Y-104739232D01*
X113211101Y-104692316D01*
X113324860Y-104611173D01*
X113362816Y-104573350D01*
X113430171Y-104506229D01*
X113483096Y-104453489D01*
X113503335Y-104425324D01*
X113613453Y-104272077D01*
X113614776Y-104273028D01*
X113661645Y-104229857D01*
X113731580Y-104217625D01*
X113797026Y-104245144D01*
X113824875Y-104276994D01*
X113884987Y-104375088D01*
X114031250Y-104543938D01*
X114203126Y-104686632D01*
X114260877Y-104720379D01*
X114276445Y-104729476D01*
X114325169Y-104781114D01*
X114338240Y-104850897D01*
X114311509Y-104916669D01*
X114271055Y-104950027D01*
X114258607Y-104956507D01*
X114254474Y-104959610D01*
X114254471Y-104959612D01*
X114084100Y-105087530D01*
X114079965Y-105090635D01*
X113925629Y-105252138D01*
X113819818Y-105407252D01*
X113817898Y-105410066D01*
X113762987Y-105455069D01*
X113692462Y-105463240D01*
X113628715Y-105431986D01*
X113608017Y-105407501D01*
X113578062Y-105361197D01*
X113567377Y-105351995D01*
X113557812Y-105356398D01*
X112817022Y-106097188D01*
X112809408Y-106111132D01*
X112809539Y-106112965D01*
X112813790Y-106119580D01*
X113555474Y-106861264D01*
X113567484Y-106867823D01*
X113579223Y-106858855D01*
X113613022Y-106811819D01*
X113614277Y-106812721D01*
X113661391Y-106769355D01*
X113731330Y-106757148D01*
X113796767Y-106784691D01*
X113824580Y-106816513D01*
X113882287Y-106910683D01*
X113882291Y-106910688D01*
X113884987Y-106915088D01*
X114031250Y-107083938D01*
X114203126Y-107226632D01*
X114214063Y-107233023D01*
X114276445Y-107269476D01*
X114325169Y-107321114D01*
X114338240Y-107390897D01*
X114311509Y-107456669D01*
X114271055Y-107490027D01*
X114258607Y-107496507D01*
X114254474Y-107499610D01*
X114254471Y-107499612D01*
X114084100Y-107627530D01*
X114079965Y-107630635D01*
X114029164Y-107683795D01*
X113935931Y-107781358D01*
X113925629Y-107792138D01*
X113818201Y-107949621D01*
X113763293Y-107994621D01*
X113692768Y-108002792D01*
X113629021Y-107971538D01*
X113608324Y-107947054D01*
X113527822Y-107822617D01*
X113527820Y-107822614D01*
X113525014Y-107818277D01*
X113374670Y-107653051D01*
X113370619Y-107649852D01*
X113370615Y-107649848D01*
X113203414Y-107517800D01*
X113203410Y-107517798D01*
X113199359Y-107514598D01*
X113186746Y-107507635D01*
X113162259Y-107494118D01*
X113157569Y-107491529D01*
X113107598Y-107441097D01*
X113092826Y-107371654D01*
X113117942Y-107305248D01*
X113145293Y-107278642D01*
X113194247Y-107243723D01*
X113202648Y-107233023D01*
X113195660Y-107219870D01*
X112457812Y-106482022D01*
X112443868Y-106474408D01*
X112442035Y-106474539D01*
X112435420Y-106478790D01*
X111691737Y-107222473D01*
X111684977Y-107234853D01*
X111690258Y-107241907D01*
X111736969Y-107269203D01*
X111785693Y-107320841D01*
X111798764Y-107390624D01*
X111772033Y-107456396D01*
X111731584Y-107489752D01*
X111718607Y-107496507D01*
X111714474Y-107499610D01*
X111714471Y-107499612D01*
X111544100Y-107627530D01*
X111539965Y-107630635D01*
X111489164Y-107683795D01*
X111395931Y-107781358D01*
X111385629Y-107792138D01*
X111382720Y-107796403D01*
X111382714Y-107796411D01*
X111325332Y-107880530D01*
X111259743Y-107976680D01*
X111222557Y-108056791D01*
X111177177Y-108154555D01*
X111165688Y-108179305D01*
X111105989Y-108394570D01*
X111082251Y-108616695D01*
X111082548Y-108621848D01*
X111082548Y-108621851D01*
X111088011Y-108716590D01*
X111095110Y-108839715D01*
X111096247Y-108844761D01*
X111096248Y-108844767D01*
X111101866Y-108869695D01*
X111144222Y-109057639D01*
X111228266Y-109264616D01*
X111266917Y-109327689D01*
X111342291Y-109450688D01*
X111344987Y-109455088D01*
X111491250Y-109623938D01*
X111663126Y-109766632D01*
X111703350Y-109790137D01*
X111736955Y-109809774D01*
X111785679Y-109861412D01*
X111798750Y-109931195D01*
X111772019Y-109996967D01*
X111731562Y-110030327D01*
X111723460Y-110034544D01*
X111714734Y-110040039D01*
X111694677Y-110055099D01*
X111686223Y-110066427D01*
X111692968Y-110078758D01*
X112432188Y-110817978D01*
X112446132Y-110825592D01*
X112447965Y-110825461D01*
X112454580Y-110821210D01*
X113198389Y-110077401D01*
X113205410Y-110064544D01*
X113198611Y-110055213D01*
X113194559Y-110052521D01*
X113157602Y-110032120D01*
X113107631Y-109981687D01*
X113092859Y-109912245D01*
X113117975Y-109845839D01*
X113145327Y-109819232D01*
X113197115Y-109782292D01*
X113324860Y-109691173D01*
X113372568Y-109643632D01*
X113448221Y-109568242D01*
X113483096Y-109533489D01*
X113504114Y-109504240D01*
X113613453Y-109352077D01*
X113614776Y-109353028D01*
X113661645Y-109309857D01*
X113731580Y-109297625D01*
X113797026Y-109325144D01*
X113824875Y-109356994D01*
X113884987Y-109455088D01*
X114031250Y-109623938D01*
X114203126Y-109766632D01*
X114243350Y-109790137D01*
X114276445Y-109809476D01*
X114325169Y-109861114D01*
X114338240Y-109930897D01*
X114311509Y-109996669D01*
X114271055Y-110030027D01*
X114258607Y-110036507D01*
X114254474Y-110039610D01*
X114254471Y-110039612D01*
X114084100Y-110167530D01*
X114079965Y-110170635D01*
X114076393Y-110174373D01*
X113947712Y-110309030D01*
X113925629Y-110332138D01*
X113922715Y-110336410D01*
X113922714Y-110336411D01*
X113872708Y-110409718D01*
X113852693Y-110439059D01*
X113817898Y-110490066D01*
X113762987Y-110535069D01*
X113692462Y-110543240D01*
X113628715Y-110511986D01*
X113608017Y-110487501D01*
X113578062Y-110441197D01*
X113567377Y-110431995D01*
X113557812Y-110436398D01*
X112817022Y-111177188D01*
X112809408Y-111191132D01*
X112809539Y-111192965D01*
X112813790Y-111199580D01*
X113555474Y-111941264D01*
X113567484Y-111947823D01*
X113579223Y-111938855D01*
X113613022Y-111891819D01*
X113614277Y-111892721D01*
X113661391Y-111849355D01*
X113731330Y-111837148D01*
X113796767Y-111864691D01*
X113824580Y-111896513D01*
X113882287Y-111990683D01*
X113882291Y-111990688D01*
X113884987Y-111995088D01*
X114031250Y-112163938D01*
X114203126Y-112306632D01*
X114396000Y-112419338D01*
X114604692Y-112499030D01*
X114609760Y-112500061D01*
X114609763Y-112500062D01*
X114672314Y-112512788D01*
X114823597Y-112543567D01*
X114828772Y-112543757D01*
X114828774Y-112543757D01*
X115041673Y-112551564D01*
X115041677Y-112551564D01*
X115046837Y-112551753D01*
X115051957Y-112551097D01*
X115051959Y-112551097D01*
X115263288Y-112524025D01*
X115263289Y-112524025D01*
X115268416Y-112523368D01*
X115273366Y-112521883D01*
X115477429Y-112460661D01*
X115477434Y-112460659D01*
X115482384Y-112459174D01*
X115682994Y-112360896D01*
X115864860Y-112231173D01*
X116023096Y-112073489D01*
X116153453Y-111892077D01*
X116166702Y-111865271D01*
X116242963Y-111710966D01*
X120638257Y-111710966D01*
X120668565Y-111845446D01*
X120671645Y-111855275D01*
X120751770Y-112052603D01*
X120756413Y-112061794D01*
X120867694Y-112243388D01*
X120873777Y-112251699D01*
X121013213Y-112412667D01*
X121020580Y-112419883D01*
X121184434Y-112555916D01*
X121192881Y-112561831D01*
X121376756Y-112669279D01*
X121386042Y-112673729D01*
X121585001Y-112749703D01*
X121594899Y-112752579D01*
X121698250Y-112773606D01*
X121712299Y-112772410D01*
X121716000Y-112762065D01*
X121716000Y-112761517D01*
X122224000Y-112761517D01*
X122228064Y-112775359D01*
X122241478Y-112777393D01*
X122248184Y-112776534D01*
X122258262Y-112774392D01*
X122462255Y-112713191D01*
X122471842Y-112709433D01*
X122663095Y-112615739D01*
X122671945Y-112610464D01*
X122845328Y-112486792D01*
X122853200Y-112480139D01*
X123004052Y-112329812D01*
X123010730Y-112321965D01*
X123135003Y-112149020D01*
X123140313Y-112140183D01*
X123234670Y-111949267D01*
X123238469Y-111939672D01*
X123300377Y-111735910D01*
X123302555Y-111725837D01*
X123303986Y-111714962D01*
X123301775Y-111700778D01*
X123288617Y-111697000D01*
X122242115Y-111697000D01*
X122226876Y-111701475D01*
X122225671Y-111702865D01*
X122224000Y-111710548D01*
X122224000Y-112761517D01*
X121716000Y-112761517D01*
X121716000Y-111715115D01*
X121711525Y-111699876D01*
X121710135Y-111698671D01*
X121702452Y-111697000D01*
X120653225Y-111697000D01*
X120639694Y-111700973D01*
X120638257Y-111710966D01*
X116242963Y-111710966D01*
X116250136Y-111696453D01*
X116250137Y-111696451D01*
X116252430Y-111691811D01*
X116307077Y-111511946D01*
X116315865Y-111483023D01*
X116315865Y-111483021D01*
X116317370Y-111478069D01*
X116346529Y-111256590D01*
X116346653Y-111251521D01*
X116348074Y-111193365D01*
X116348074Y-111193361D01*
X116348156Y-111190000D01*
X116329852Y-110967361D01*
X116275431Y-110750702D01*
X116186354Y-110545840D01*
X116102508Y-110416234D01*
X116067822Y-110362617D01*
X116067820Y-110362614D01*
X116065014Y-110358277D01*
X115914670Y-110193051D01*
X115910619Y-110189852D01*
X115910615Y-110189848D01*
X115743414Y-110057800D01*
X115743410Y-110057798D01*
X115739359Y-110054598D01*
X115698053Y-110031796D01*
X115648084Y-109981364D01*
X115633312Y-109911921D01*
X115658428Y-109845516D01*
X115685780Y-109818909D01*
X115737115Y-109782292D01*
X115864860Y-109691173D01*
X115912568Y-109643632D01*
X115988221Y-109568242D01*
X116023096Y-109533489D01*
X116044114Y-109504240D01*
X116150435Y-109356277D01*
X116153453Y-109352077D01*
X116171568Y-109315425D01*
X116250136Y-109156453D01*
X116250137Y-109156451D01*
X116252430Y-109151811D01*
X116317370Y-108938069D01*
X116346529Y-108716590D01*
X116346652Y-108711547D01*
X116348074Y-108653365D01*
X116348074Y-108653361D01*
X116348156Y-108650000D01*
X116329852Y-108427361D01*
X116275431Y-108210702D01*
X116186354Y-108005840D01*
X116096388Y-107866774D01*
X116067822Y-107822617D01*
X116067820Y-107822614D01*
X116065014Y-107818277D01*
X115914670Y-107653051D01*
X115910619Y-107649852D01*
X115910615Y-107649848D01*
X115743414Y-107517800D01*
X115743410Y-107517798D01*
X115739359Y-107514598D01*
X115698053Y-107491796D01*
X115648084Y-107441364D01*
X115633312Y-107371921D01*
X115658428Y-107305516D01*
X115685780Y-107278909D01*
X115750110Y-107233023D01*
X115864860Y-107151173D01*
X115869574Y-107146476D01*
X115985282Y-107031171D01*
X116023096Y-106993489D01*
X116044114Y-106964240D01*
X116150435Y-106816277D01*
X116153453Y-106812077D01*
X116156260Y-106806399D01*
X116250136Y-106616453D01*
X116250137Y-106616451D01*
X116252430Y-106611811D01*
X116306260Y-106434636D01*
X116315865Y-106403023D01*
X116315865Y-106403021D01*
X116317370Y-106398069D01*
X116346529Y-106176590D01*
X116347480Y-106137671D01*
X116348074Y-106113365D01*
X116348074Y-106113361D01*
X116348156Y-106110000D01*
X116329852Y-105887361D01*
X116275431Y-105670702D01*
X116186354Y-105465840D01*
X116093139Y-105321752D01*
X116067822Y-105282617D01*
X116067820Y-105282614D01*
X116065014Y-105278277D01*
X115914670Y-105113051D01*
X115910619Y-105109852D01*
X115910615Y-105109848D01*
X115743414Y-104977800D01*
X115743410Y-104977798D01*
X115739359Y-104974598D01*
X115698053Y-104951796D01*
X115648084Y-104901364D01*
X115633312Y-104831921D01*
X115658428Y-104765516D01*
X115685780Y-104738909D01*
X115751101Y-104692316D01*
X115864860Y-104611173D01*
X115902816Y-104573350D01*
X115970171Y-104506229D01*
X116023096Y-104453489D01*
X116043335Y-104425324D01*
X116150435Y-104276277D01*
X116153453Y-104272077D01*
X116171568Y-104235425D01*
X116250136Y-104076453D01*
X116250137Y-104076451D01*
X116252430Y-104071811D01*
X116294452Y-103933500D01*
X116315865Y-103863023D01*
X116315865Y-103863021D01*
X116317370Y-103858069D01*
X116346529Y-103636590D01*
X116347490Y-103597265D01*
X116348074Y-103573365D01*
X116348074Y-103573361D01*
X116348156Y-103570000D01*
X116329852Y-103347361D01*
X116275431Y-103130702D01*
X116273373Y-103125970D01*
X116273369Y-103125957D01*
X116251195Y-103074963D01*
X116242374Y-103004517D01*
X116273040Y-102940485D01*
X116331591Y-102903723D01*
X116364777Y-102894082D01*
X116364780Y-102894081D01*
X116372393Y-102891869D01*
X116379220Y-102887831D01*
X116379223Y-102887830D01*
X116389906Y-102881512D01*
X116407664Y-102872812D01*
X116419215Y-102868239D01*
X116419221Y-102868235D01*
X116426588Y-102865319D01*
X116462491Y-102839234D01*
X116472410Y-102832719D01*
X116503768Y-102814174D01*
X116503772Y-102814171D01*
X116510598Y-102810134D01*
X116524982Y-102795750D01*
X116540016Y-102782909D01*
X116550073Y-102775602D01*
X116556487Y-102770942D01*
X116584778Y-102736744D01*
X116592767Y-102727965D01*
X119905327Y-99415405D01*
X119967639Y-99381379D01*
X119994422Y-99378500D01*
X120695500Y-99378500D01*
X120763621Y-99398502D01*
X120802933Y-99438666D01*
X120867287Y-99543683D01*
X120867291Y-99543688D01*
X120869987Y-99548088D01*
X121016250Y-99716938D01*
X121188126Y-99859632D01*
X121258595Y-99900811D01*
X121261445Y-99902476D01*
X121310169Y-99954114D01*
X121323240Y-100023897D01*
X121296509Y-100089669D01*
X121256055Y-100123027D01*
X121243607Y-100129507D01*
X121239474Y-100132610D01*
X121239471Y-100132612D01*
X121070083Y-100259792D01*
X121064965Y-100263635D01*
X121046605Y-100282848D01*
X120943047Y-100391215D01*
X120910629Y-100425138D01*
X120907715Y-100429410D01*
X120907714Y-100429411D01*
X120859667Y-100499845D01*
X120784743Y-100609680D01*
X120764448Y-100653402D01*
X120695313Y-100802342D01*
X120690688Y-100812305D01*
X120630989Y-101027570D01*
X120607251Y-101249695D01*
X120607548Y-101254848D01*
X120607548Y-101254851D01*
X120618613Y-101446753D01*
X120620110Y-101472715D01*
X120621247Y-101477761D01*
X120621248Y-101477767D01*
X120639069Y-101556842D01*
X120669222Y-101690639D01*
X120716942Y-101808160D01*
X120750355Y-101890446D01*
X120753266Y-101897616D01*
X120784881Y-101949207D01*
X120866859Y-102082983D01*
X120869987Y-102088088D01*
X121016250Y-102256938D01*
X121188126Y-102399632D01*
X121247205Y-102434155D01*
X121261445Y-102442476D01*
X121310169Y-102494114D01*
X121323240Y-102563897D01*
X121296509Y-102629669D01*
X121256055Y-102663027D01*
X121243607Y-102669507D01*
X121239474Y-102672610D01*
X121239471Y-102672612D01*
X121069100Y-102800530D01*
X121064965Y-102803635D01*
X121057983Y-102810941D01*
X120937685Y-102936826D01*
X120910629Y-102965138D01*
X120784743Y-103149680D01*
X120769003Y-103183590D01*
X120694412Y-103344283D01*
X120690688Y-103352305D01*
X120630989Y-103567570D01*
X120607251Y-103789695D01*
X120607548Y-103794848D01*
X120607548Y-103794851D01*
X120618850Y-103990866D01*
X120620110Y-104012715D01*
X120621247Y-104017761D01*
X120621248Y-104017767D01*
X120633428Y-104071811D01*
X120669222Y-104230639D01*
X120753266Y-104437616D01*
X120770877Y-104466355D01*
X120861459Y-104614171D01*
X120869987Y-104628088D01*
X121016250Y-104796938D01*
X121188126Y-104939632D01*
X121244409Y-104972521D01*
X121261445Y-104982476D01*
X121310169Y-105034114D01*
X121323240Y-105103897D01*
X121296509Y-105169669D01*
X121256055Y-105203027D01*
X121243607Y-105209507D01*
X121239474Y-105212610D01*
X121239471Y-105212612D01*
X121094110Y-105321752D01*
X121064965Y-105343635D01*
X121048182Y-105361197D01*
X120919943Y-105495392D01*
X120910629Y-105505138D01*
X120907715Y-105509410D01*
X120907714Y-105509411D01*
X120903011Y-105516305D01*
X120784743Y-105689680D01*
X120747686Y-105769512D01*
X120695313Y-105882342D01*
X120690688Y-105892305D01*
X120630989Y-106107570D01*
X120607251Y-106329695D01*
X120607548Y-106334848D01*
X120607548Y-106334851D01*
X120619812Y-106547547D01*
X120620110Y-106552715D01*
X120621247Y-106557761D01*
X120621248Y-106557767D01*
X120632557Y-106607948D01*
X120669222Y-106770639D01*
X120720258Y-106896326D01*
X120747835Y-106964240D01*
X120753266Y-106977616D01*
X120804942Y-107061944D01*
X120862524Y-107155909D01*
X120869987Y-107168088D01*
X121016250Y-107336938D01*
X121188126Y-107479632D01*
X121246723Y-107513873D01*
X121261445Y-107522476D01*
X121310169Y-107574114D01*
X121323240Y-107643897D01*
X121296509Y-107709669D01*
X121256055Y-107743027D01*
X121243607Y-107749507D01*
X121239474Y-107752610D01*
X121239471Y-107752612D01*
X121072498Y-107877979D01*
X121064965Y-107883635D01*
X121038143Y-107911703D01*
X120922912Y-108032285D01*
X120910629Y-108045138D01*
X120907715Y-108049410D01*
X120907714Y-108049411D01*
X120875226Y-108097037D01*
X120784743Y-108229680D01*
X120745334Y-108314580D01*
X120695313Y-108422342D01*
X120690688Y-108432305D01*
X120630989Y-108647570D01*
X120607251Y-108869695D01*
X120607548Y-108874848D01*
X120607548Y-108874851D01*
X120619812Y-109087547D01*
X120620110Y-109092715D01*
X120621247Y-109097761D01*
X120621248Y-109097767D01*
X120633428Y-109151811D01*
X120669222Y-109310639D01*
X120709346Y-109409453D01*
X120747835Y-109504240D01*
X120753266Y-109517616D01*
X120786090Y-109571180D01*
X120865137Y-109700173D01*
X120869987Y-109708088D01*
X121016250Y-109876938D01*
X121188126Y-110019632D01*
X121244409Y-110052521D01*
X121261955Y-110062774D01*
X121310679Y-110114412D01*
X121323750Y-110184195D01*
X121297019Y-110249967D01*
X121256562Y-110283327D01*
X121248457Y-110287546D01*
X121239738Y-110293036D01*
X121069433Y-110420905D01*
X121061726Y-110427748D01*
X120914590Y-110581717D01*
X120908104Y-110589727D01*
X120788098Y-110765649D01*
X120783000Y-110774623D01*
X120693338Y-110967783D01*
X120689775Y-110977470D01*
X120634389Y-111177183D01*
X120635912Y-111185607D01*
X120648292Y-111189000D01*
X123288344Y-111189000D01*
X123301875Y-111185027D01*
X123303180Y-111175947D01*
X123261214Y-111008875D01*
X123257894Y-110999124D01*
X123172972Y-110803814D01*
X123168105Y-110794739D01*
X123052426Y-110615926D01*
X123046136Y-110607757D01*
X122902806Y-110450240D01*
X122895273Y-110443215D01*
X122728139Y-110311222D01*
X122719556Y-110305520D01*
X122682602Y-110285120D01*
X122632631Y-110234687D01*
X122617859Y-110165245D01*
X122642975Y-110098839D01*
X122670327Y-110072232D01*
X122729496Y-110030027D01*
X122849860Y-109944173D01*
X122862884Y-109931195D01*
X122935449Y-109858883D01*
X123008096Y-109786489D01*
X123024740Y-109763327D01*
X123135435Y-109609277D01*
X123138453Y-109605077D01*
X123152768Y-109576114D01*
X123235136Y-109409453D01*
X123235137Y-109409451D01*
X123237430Y-109404811D01*
X123302370Y-109191069D01*
X123331529Y-108969590D01*
X123332383Y-108934639D01*
X123333074Y-108906365D01*
X123333074Y-108906361D01*
X123333156Y-108903000D01*
X123314852Y-108680361D01*
X123287389Y-108571024D01*
X123290194Y-108500083D01*
X123320498Y-108451234D01*
X123887477Y-107884255D01*
X123895803Y-107876678D01*
X123902303Y-107872553D01*
X123920140Y-107853559D01*
X123949100Y-107822719D01*
X123951855Y-107819877D01*
X123971638Y-107800094D01*
X123974129Y-107796883D01*
X123981838Y-107787856D01*
X124006789Y-107761286D01*
X124012217Y-107755506D01*
X124022022Y-107737671D01*
X124032876Y-107721147D01*
X124040491Y-107711330D01*
X124040492Y-107711329D01*
X124045349Y-107705067D01*
X124062969Y-107664350D01*
X124068192Y-107653689D01*
X124085749Y-107621753D01*
X124085751Y-107621748D01*
X124089569Y-107614803D01*
X124091539Y-107607129D01*
X124091542Y-107607122D01*
X124094632Y-107595087D01*
X124101036Y-107576382D01*
X124105967Y-107564987D01*
X124109117Y-107557708D01*
X124116060Y-107513873D01*
X124118467Y-107502251D01*
X124120554Y-107494124D01*
X124129500Y-107459282D01*
X124129500Y-107438935D01*
X124131051Y-107419224D01*
X124132995Y-107406950D01*
X124134235Y-107399121D01*
X124131421Y-107369352D01*
X124130059Y-107354944D01*
X124129500Y-107343086D01*
X124129500Y-106175423D01*
X124149502Y-106107302D01*
X124166405Y-106086327D01*
X124863329Y-105389404D01*
X124925641Y-105355379D01*
X124952424Y-105352500D01*
X127569991Y-105352500D01*
X127638112Y-105372502D01*
X127684605Y-105426158D01*
X127694709Y-105496432D01*
X127689698Y-105516252D01*
X127689888Y-105516305D01*
X127630189Y-105731570D01*
X127629640Y-105736707D01*
X127628656Y-105745913D01*
X127606451Y-105953695D01*
X127606748Y-105958848D01*
X127606748Y-105958851D01*
X127616789Y-106132989D01*
X127619310Y-106176715D01*
X127620447Y-106181761D01*
X127620448Y-106181767D01*
X127639631Y-106266885D01*
X127668422Y-106394639D01*
X127706661Y-106488811D01*
X127745728Y-106585021D01*
X127752466Y-106601616D01*
X127804142Y-106685944D01*
X127866491Y-106787688D01*
X127869187Y-106792088D01*
X128015450Y-106960938D01*
X128187326Y-107103632D01*
X128257795Y-107144811D01*
X128260645Y-107146476D01*
X128309369Y-107198114D01*
X128322440Y-107267897D01*
X128295709Y-107333669D01*
X128255255Y-107367027D01*
X128242807Y-107373507D01*
X128238674Y-107376610D01*
X128238671Y-107376612D01*
X128068300Y-107504530D01*
X128064165Y-107507635D01*
X128060593Y-107511373D01*
X127914405Y-107664350D01*
X127909829Y-107669138D01*
X127906920Y-107673403D01*
X127906914Y-107673411D01*
X127869007Y-107728981D01*
X127783943Y-107853680D01*
X127744143Y-107939423D01*
X127693957Y-108047540D01*
X127689888Y-108056305D01*
X127630189Y-108271570D01*
X127606451Y-108493695D01*
X127606748Y-108498848D01*
X127606748Y-108498851D01*
X127613247Y-108611562D01*
X127619310Y-108716715D01*
X127620447Y-108721761D01*
X127620448Y-108721767D01*
X127644504Y-108828508D01*
X127668422Y-108934639D01*
X127700923Y-109014680D01*
X127732610Y-109092715D01*
X127752466Y-109141616D01*
X127804142Y-109225944D01*
X127866491Y-109327688D01*
X127869187Y-109332088D01*
X128015450Y-109500938D01*
X128187326Y-109643632D01*
X128380200Y-109756338D01*
X128588892Y-109836030D01*
X128593960Y-109837061D01*
X128593963Y-109837062D01*
X128637104Y-109845839D01*
X128807797Y-109880567D01*
X128812972Y-109880757D01*
X128812974Y-109880757D01*
X129025873Y-109888564D01*
X129025877Y-109888564D01*
X129031037Y-109888753D01*
X129036157Y-109888097D01*
X129036159Y-109888097D01*
X129247488Y-109861025D01*
X129247489Y-109861025D01*
X129252616Y-109860368D01*
X129266072Y-109856331D01*
X129461629Y-109797661D01*
X129461634Y-109797659D01*
X129466584Y-109796174D01*
X129667194Y-109697896D01*
X129849060Y-109568173D01*
X129883866Y-109533489D01*
X130003635Y-109414137D01*
X130007296Y-109410489D01*
X130026435Y-109383855D01*
X130137653Y-109229077D01*
X130138976Y-109230028D01*
X130185845Y-109186857D01*
X130255780Y-109174625D01*
X130321226Y-109202144D01*
X130349075Y-109233994D01*
X130409187Y-109332088D01*
X130555450Y-109500938D01*
X130727326Y-109643632D01*
X130920200Y-109756338D01*
X131128892Y-109836030D01*
X131133960Y-109837061D01*
X131133963Y-109837062D01*
X131177104Y-109845839D01*
X131347797Y-109880567D01*
X131352972Y-109880757D01*
X131352974Y-109880757D01*
X131565873Y-109888564D01*
X131565877Y-109888564D01*
X131571037Y-109888753D01*
X131576157Y-109888097D01*
X131576159Y-109888097D01*
X131787488Y-109861025D01*
X131787489Y-109861025D01*
X131792616Y-109860368D01*
X131806072Y-109856331D01*
X132001629Y-109797661D01*
X132001634Y-109797659D01*
X132006584Y-109796174D01*
X132207194Y-109697896D01*
X132389060Y-109568173D01*
X132389109Y-109568242D01*
X132452398Y-109540279D01*
X132522542Y-109551251D01*
X132557879Y-109576111D01*
X133363376Y-110381609D01*
X133397400Y-110443919D01*
X133392335Y-110514735D01*
X133349788Y-110571570D01*
X133287283Y-110596028D01*
X133262022Y-110598650D01*
X133233765Y-110601581D01*
X133233761Y-110601582D01*
X133226907Y-110602293D01*
X133220371Y-110604474D01*
X133220369Y-110604474D01*
X133087605Y-110648768D01*
X133061893Y-110657346D01*
X132913969Y-110748884D01*
X132908796Y-110754066D01*
X132796242Y-110866816D01*
X132796238Y-110866821D01*
X132791071Y-110871997D01*
X132787231Y-110878227D01*
X132787230Y-110878228D01*
X132704364Y-111012662D01*
X132699791Y-111020080D01*
X132645026Y-111185191D01*
X132644326Y-111192027D01*
X132644325Y-111192030D01*
X132639206Y-111242000D01*
X132634500Y-111287928D01*
X132634500Y-111862072D01*
X132634837Y-111865318D01*
X132634837Y-111865322D01*
X132644007Y-111953695D01*
X132645293Y-111966093D01*
X132700346Y-112131107D01*
X132791884Y-112279031D01*
X132797066Y-112284204D01*
X132819533Y-112306632D01*
X132914997Y-112401929D01*
X132920815Y-112405515D01*
X132961762Y-112463269D01*
X132964994Y-112534192D01*
X132931782Y-112593249D01*
X132911071Y-112613997D01*
X132907231Y-112620227D01*
X132867849Y-112684116D01*
X132815077Y-112731609D01*
X132760589Y-112744000D01*
X132690520Y-112744000D01*
X132679286Y-112743470D01*
X132671781Y-112741792D01*
X132604071Y-112743920D01*
X132603488Y-112743938D01*
X132599531Y-112744000D01*
X132585575Y-112744000D01*
X132561903Y-112741225D01*
X132559316Y-112740255D01*
X132497134Y-112733500D01*
X131000866Y-112733500D01*
X130938684Y-112740255D01*
X130802295Y-112791385D01*
X130685739Y-112878739D01*
X130598385Y-112995295D01*
X130547255Y-113131684D01*
X130540500Y-113193866D01*
X130540500Y-115290134D01*
X130547255Y-115352316D01*
X130598385Y-115488705D01*
X130685739Y-115605261D01*
X130802295Y-115692615D01*
X130938684Y-115743745D01*
X131000866Y-115750500D01*
X132497134Y-115750500D01*
X132559316Y-115743745D01*
X132566712Y-115740973D01*
X132566718Y-115740971D01*
X132685127Y-115696581D01*
X132755934Y-115691398D01*
X132818303Y-115725319D01*
X132836501Y-115748260D01*
X132908429Y-115864496D01*
X132917460Y-115875890D01*
X133030129Y-115988363D01*
X133041540Y-115997375D01*
X133177063Y-116080912D01*
X133190241Y-116087056D01*
X133341766Y-116137315D01*
X133355132Y-116140181D01*
X133447770Y-116149672D01*
X133454185Y-116150000D01*
X133465885Y-116150000D01*
X133481124Y-116145525D01*
X133482329Y-116144135D01*
X133484000Y-116136452D01*
X133484000Y-114976500D01*
X133504002Y-114908379D01*
X133557658Y-114861886D01*
X133610000Y-114850500D01*
X133866000Y-114850500D01*
X133934121Y-114870502D01*
X133980614Y-114924158D01*
X133992000Y-114976500D01*
X133992000Y-116131885D01*
X133996475Y-116147124D01*
X133997865Y-116148329D01*
X134005548Y-116150000D01*
X134021766Y-116150000D01*
X134028282Y-116149663D01*
X134122132Y-116139925D01*
X134135528Y-116137032D01*
X134286953Y-116086512D01*
X134300111Y-116080349D01*
X134421114Y-116005470D01*
X134489566Y-115986633D01*
X134553533Y-116005355D01*
X134675196Y-116080349D01*
X134683080Y-116085209D01*
X134848191Y-116139974D01*
X134855027Y-116140674D01*
X134855030Y-116140675D01*
X134902370Y-116145525D01*
X134950928Y-116150500D01*
X135525072Y-116150500D01*
X135528318Y-116150163D01*
X135528322Y-116150163D01*
X135622235Y-116140419D01*
X135622239Y-116140418D01*
X135629093Y-116139707D01*
X135635629Y-116137526D01*
X135635631Y-116137526D01*
X135768395Y-116093232D01*
X135794107Y-116084654D01*
X135942031Y-115993116D01*
X135991261Y-115943800D01*
X136004556Y-115930482D01*
X136066839Y-115896403D01*
X136093729Y-115893500D01*
X136156035Y-115893500D01*
X136199955Y-115901403D01*
X136244558Y-115917991D01*
X136244568Y-115917994D01*
X136251168Y-115920448D01*
X136258149Y-115921379D01*
X136258151Y-115921380D01*
X136423980Y-115943507D01*
X136423984Y-115943507D01*
X136430961Y-115944438D01*
X136437972Y-115943800D01*
X136437976Y-115943800D01*
X136584306Y-115930482D01*
X136611600Y-115927998D01*
X136618302Y-115925820D01*
X136618304Y-115925820D01*
X136777409Y-115874124D01*
X136777412Y-115874123D01*
X136784108Y-115871947D01*
X136939912Y-115779069D01*
X137071266Y-115653982D01*
X137171643Y-115502902D01*
X137226077Y-115359606D01*
X137233555Y-115339920D01*
X137233556Y-115339918D01*
X137236055Y-115333338D01*
X137237035Y-115326366D01*
X137260748Y-115157639D01*
X137260748Y-115157636D01*
X137261299Y-115153717D01*
X137261616Y-115131000D01*
X137241397Y-114950745D01*
X137239080Y-114944091D01*
X137184064Y-114786106D01*
X137184062Y-114786103D01*
X137181745Y-114779448D01*
X137085626Y-114625624D01*
X137047350Y-114587080D01*
X136962778Y-114501915D01*
X136962774Y-114501912D01*
X136957815Y-114496918D01*
X136804666Y-114399727D01*
X136775463Y-114389328D01*
X136640425Y-114341243D01*
X136640420Y-114341242D01*
X136633790Y-114338881D01*
X136626802Y-114338048D01*
X136626799Y-114338047D01*
X136503698Y-114323368D01*
X136453680Y-114317404D01*
X136446677Y-114318140D01*
X136446676Y-114318140D01*
X136280288Y-114335628D01*
X136280286Y-114335629D01*
X136273288Y-114336364D01*
X136204873Y-114359654D01*
X136198634Y-114361778D01*
X136158029Y-114368500D01*
X136046652Y-114368500D01*
X135978531Y-114348498D01*
X135957663Y-114331701D01*
X135957242Y-114331281D01*
X135923142Y-114269010D01*
X135928123Y-114198188D01*
X135957057Y-114153064D01*
X136064929Y-114045003D01*
X136103682Y-113982135D01*
X136152369Y-113903150D01*
X136152370Y-113903148D01*
X136156209Y-113896920D01*
X136210974Y-113731809D01*
X136221500Y-113629072D01*
X136221500Y-113029928D01*
X136210707Y-112925907D01*
X136199699Y-112892910D01*
X136157972Y-112767841D01*
X136155654Y-112760893D01*
X136065503Y-112615210D01*
X136046665Y-112546759D01*
X136067826Y-112478989D01*
X136106340Y-112441767D01*
X136172031Y-112401116D01*
X136232906Y-112340135D01*
X136289758Y-112283184D01*
X136289762Y-112283179D01*
X136294929Y-112278003D01*
X136379883Y-112140183D01*
X136382369Y-112136150D01*
X136382370Y-112136148D01*
X136386209Y-112129920D01*
X136440974Y-111964809D01*
X136442567Y-111949267D01*
X136451172Y-111865271D01*
X136451500Y-111862072D01*
X136451500Y-111287928D01*
X136451163Y-111284678D01*
X136441419Y-111190765D01*
X136441418Y-111190761D01*
X136440707Y-111183907D01*
X136438466Y-111177188D01*
X136387972Y-111025841D01*
X136385654Y-111018893D01*
X136294116Y-110870969D01*
X136248660Y-110825592D01*
X136176184Y-110753242D01*
X136176179Y-110753238D01*
X136171003Y-110748071D01*
X136164772Y-110744230D01*
X136029150Y-110660631D01*
X136029148Y-110660630D01*
X136022920Y-110656791D01*
X135857809Y-110602026D01*
X135850973Y-110601326D01*
X135850970Y-110601325D01*
X135799276Y-110596029D01*
X135755072Y-110591500D01*
X135422922Y-110591500D01*
X135354801Y-110571498D01*
X135333827Y-110554595D01*
X134163087Y-109383855D01*
X132946176Y-108166943D01*
X132912151Y-108104633D01*
X132917216Y-108033818D01*
X132946177Y-107988755D01*
X134892827Y-106042105D01*
X134955139Y-106008079D01*
X134981922Y-106005200D01*
X137418287Y-106005200D01*
X137486408Y-106025202D01*
X137532901Y-106078858D01*
X137543209Y-106114754D01*
X137546226Y-106137671D01*
X137549962Y-106166050D01*
X137565629Y-106203874D01*
X137608066Y-106306326D01*
X137611276Y-106314076D01*
X137616302Y-106320626D01*
X137702255Y-106432640D01*
X137708813Y-106441187D01*
X137715363Y-106446213D01*
X137715366Y-106446216D01*
X137757810Y-106478784D01*
X137835925Y-106538724D01*
X137983950Y-106600038D01*
X137992138Y-106601116D01*
X138098821Y-106615161D01*
X138102915Y-106615700D01*
X138242783Y-106615700D01*
X138382684Y-106615699D01*
X138386769Y-106615161D01*
X138386773Y-106615161D01*
X138493463Y-106601116D01*
X138493465Y-106601116D01*
X138501650Y-106600038D01*
X138519581Y-106592611D01*
X138590170Y-106585021D01*
X138616018Y-106592610D01*
X138619461Y-106594037D01*
X138626320Y-106596878D01*
X138626323Y-106596879D01*
X138633950Y-106600038D01*
X138642138Y-106601116D01*
X138748821Y-106615161D01*
X138752915Y-106615700D01*
X138781300Y-106615700D01*
X138849421Y-106635702D01*
X138895914Y-106689358D01*
X138907300Y-106741700D01*
X138907300Y-116165777D01*
X138887298Y-116233898D01*
X138870395Y-116254872D01*
X138672672Y-116452595D01*
X138610360Y-116486621D01*
X138583577Y-116489500D01*
X137529046Y-116489500D01*
X137517817Y-116488971D01*
X137510307Y-116487292D01*
X137502381Y-116487541D01*
X137502380Y-116487541D01*
X137442028Y-116489438D01*
X137438070Y-116489500D01*
X137410043Y-116489500D01*
X137405997Y-116490011D01*
X137394169Y-116490942D01*
X137349821Y-116492336D01*
X137342204Y-116494549D01*
X137330279Y-116498013D01*
X137310920Y-116502022D01*
X137309659Y-116502181D01*
X137290727Y-116504573D01*
X137283363Y-116507489D01*
X137283358Y-116507490D01*
X137261447Y-116516166D01*
X137249454Y-116520914D01*
X137238250Y-116524751D01*
X137195633Y-116537132D01*
X137178120Y-116547489D01*
X137160369Y-116556185D01*
X137148811Y-116560761D01*
X137148806Y-116560764D01*
X137141438Y-116563681D01*
X137135023Y-116568342D01*
X137105533Y-116589767D01*
X137095611Y-116596284D01*
X137064254Y-116614828D01*
X137064251Y-116614830D01*
X137057427Y-116618866D01*
X137043040Y-116633253D01*
X137028006Y-116646094D01*
X137011539Y-116658058D01*
X137006486Y-116664166D01*
X136983254Y-116692249D01*
X136975264Y-116701029D01*
X135807698Y-117868595D01*
X135745386Y-117902621D01*
X135718603Y-117905500D01*
X134394716Y-117905500D01*
X134383477Y-117904970D01*
X134375965Y-117903291D01*
X134368040Y-117903540D01*
X134368039Y-117903540D01*
X134307654Y-117905438D01*
X134303696Y-117905500D01*
X134275701Y-117905500D01*
X134271767Y-117905997D01*
X134271765Y-117905997D01*
X134271678Y-117906008D01*
X134259844Y-117906940D01*
X134215479Y-117908335D01*
X134207866Y-117910547D01*
X134207865Y-117910547D01*
X134195936Y-117914013D01*
X134176572Y-117918023D01*
X134164244Y-117919580D01*
X134164242Y-117919580D01*
X134156385Y-117920573D01*
X134149021Y-117923489D01*
X134149016Y-117923490D01*
X134115128Y-117936907D01*
X134103899Y-117940752D01*
X134089925Y-117944812D01*
X134061291Y-117953131D01*
X134054465Y-117957168D01*
X134043775Y-117963490D01*
X134026025Y-117972187D01*
X134007096Y-117979681D01*
X134000682Y-117984341D01*
X133971198Y-118005762D01*
X133961278Y-118012278D01*
X133929913Y-118030827D01*
X133929910Y-118030829D01*
X133923086Y-118034865D01*
X133908698Y-118049253D01*
X133893664Y-118062094D01*
X133877197Y-118074058D01*
X133872144Y-118080166D01*
X133848912Y-118108249D01*
X133840922Y-118117029D01*
X133444856Y-118513095D01*
X133382544Y-118547121D01*
X133355761Y-118550000D01*
X132031862Y-118550000D01*
X132020628Y-118549470D01*
X132013123Y-118547792D01*
X131945413Y-118549920D01*
X131944830Y-118549938D01*
X131940873Y-118550000D01*
X131912859Y-118550000D01*
X131908934Y-118550496D01*
X131908933Y-118550496D01*
X131908838Y-118550508D01*
X131896993Y-118551441D01*
X131867172Y-118552378D01*
X131860560Y-118552586D01*
X131860559Y-118552586D01*
X131852637Y-118552835D01*
X131833094Y-118558513D01*
X131813730Y-118562523D01*
X131801402Y-118564080D01*
X131801400Y-118564080D01*
X131793543Y-118565073D01*
X131786179Y-118567989D01*
X131786174Y-118567990D01*
X131752286Y-118581407D01*
X131741057Y-118585252D01*
X131724377Y-118590098D01*
X131698449Y-118597631D01*
X131691622Y-118601669D01*
X131691619Y-118601670D01*
X131680936Y-118607988D01*
X131663178Y-118616688D01*
X131651627Y-118621261D01*
X131651621Y-118621265D01*
X131644254Y-118624181D01*
X131637843Y-118628839D01*
X131637841Y-118628840D01*
X131608354Y-118650264D01*
X131598432Y-118656781D01*
X131567074Y-118675326D01*
X131567070Y-118675329D01*
X131560244Y-118679366D01*
X131545860Y-118693750D01*
X131530826Y-118706591D01*
X131514355Y-118718558D01*
X131509301Y-118724667D01*
X131486065Y-118752754D01*
X131478076Y-118761533D01*
X131145514Y-119094095D01*
X131083202Y-119128121D01*
X131056419Y-119131000D01*
X129732532Y-119131000D01*
X129721293Y-119130470D01*
X129713781Y-119128791D01*
X129705856Y-119129040D01*
X129705855Y-119129040D01*
X129645470Y-119130938D01*
X129641512Y-119131000D01*
X129613517Y-119131000D01*
X129609583Y-119131497D01*
X129609581Y-119131497D01*
X129609494Y-119131508D01*
X129597660Y-119132440D01*
X129553295Y-119133835D01*
X129545682Y-119136047D01*
X129545681Y-119136047D01*
X129533752Y-119139513D01*
X129514388Y-119143523D01*
X129502060Y-119145080D01*
X129502058Y-119145080D01*
X129494201Y-119146073D01*
X129486837Y-119148989D01*
X129486832Y-119148990D01*
X129452944Y-119162407D01*
X129441715Y-119166252D01*
X129425035Y-119171098D01*
X129399107Y-119178631D01*
X129392280Y-119182669D01*
X129392277Y-119182670D01*
X129381594Y-119188988D01*
X129363836Y-119197688D01*
X129352285Y-119202261D01*
X129352279Y-119202265D01*
X129344912Y-119205181D01*
X129338501Y-119209839D01*
X129338499Y-119209840D01*
X129309012Y-119231264D01*
X129299090Y-119237781D01*
X129267732Y-119256326D01*
X129267728Y-119256329D01*
X129260902Y-119260366D01*
X129246518Y-119274750D01*
X129231484Y-119287591D01*
X129215013Y-119299558D01*
X129209960Y-119305666D01*
X129186723Y-119333755D01*
X129178733Y-119342535D01*
X128816673Y-119704595D01*
X128754361Y-119738621D01*
X128727578Y-119741500D01*
X127421866Y-119741500D01*
X127359684Y-119748255D01*
X127223295Y-119799385D01*
X127106739Y-119886739D01*
X127019385Y-120003295D01*
X126968255Y-120139684D01*
X126961500Y-120201866D01*
X126961500Y-121998134D01*
X126968255Y-122060316D01*
X127019385Y-122196705D01*
X127036276Y-122219242D01*
X127089257Y-122289935D01*
X127114105Y-122356441D01*
X127099052Y-122425824D01*
X127048878Y-122476054D01*
X126988431Y-122491500D01*
X108634500Y-122491500D01*
X108566379Y-122471498D01*
X108519886Y-122417842D01*
X108508500Y-122365500D01*
X108508500Y-115286669D01*
X126391001Y-115286669D01*
X126391371Y-115293490D01*
X126396895Y-115344352D01*
X126400521Y-115359604D01*
X126445676Y-115480054D01*
X126454214Y-115495649D01*
X126530715Y-115597724D01*
X126543276Y-115610285D01*
X126645351Y-115686786D01*
X126660946Y-115695324D01*
X126781394Y-115740478D01*
X126796649Y-115744105D01*
X126847514Y-115749631D01*
X126854328Y-115750000D01*
X127326885Y-115750000D01*
X127342124Y-115745525D01*
X127343329Y-115744135D01*
X127345000Y-115736452D01*
X127345000Y-115731884D01*
X127853000Y-115731884D01*
X127857475Y-115747123D01*
X127858865Y-115748328D01*
X127866548Y-115749999D01*
X128343669Y-115749999D01*
X128350490Y-115749629D01*
X128401352Y-115744105D01*
X128416604Y-115740479D01*
X128537054Y-115695324D01*
X128552649Y-115686786D01*
X128654724Y-115610285D01*
X128667285Y-115597724D01*
X128743786Y-115495649D01*
X128752324Y-115480054D01*
X128797478Y-115359606D01*
X128801105Y-115344351D01*
X128806631Y-115293486D01*
X128807000Y-115286672D01*
X128807000Y-114514115D01*
X128802525Y-114498876D01*
X128801135Y-114497671D01*
X128793452Y-114496000D01*
X127871115Y-114496000D01*
X127855876Y-114500475D01*
X127854671Y-114501865D01*
X127853000Y-114509548D01*
X127853000Y-115731884D01*
X127345000Y-115731884D01*
X127345000Y-114514115D01*
X127340525Y-114498876D01*
X127339135Y-114497671D01*
X127331452Y-114496000D01*
X126409116Y-114496000D01*
X126393877Y-114500475D01*
X126392672Y-114501865D01*
X126391001Y-114509548D01*
X126391001Y-115286669D01*
X108508500Y-115286669D01*
X108508500Y-113969885D01*
X126391000Y-113969885D01*
X126395475Y-113985124D01*
X126396865Y-113986329D01*
X126404548Y-113988000D01*
X127326885Y-113988000D01*
X127342124Y-113983525D01*
X127343329Y-113982135D01*
X127345000Y-113974452D01*
X127345000Y-113969885D01*
X127853000Y-113969885D01*
X127857475Y-113985124D01*
X127858865Y-113986329D01*
X127866548Y-113988000D01*
X128788884Y-113988000D01*
X128804123Y-113983525D01*
X128805328Y-113982135D01*
X128806999Y-113974452D01*
X128806999Y-113197331D01*
X128806629Y-113190510D01*
X128801105Y-113139648D01*
X128797479Y-113124396D01*
X128752324Y-113003946D01*
X128743786Y-112988351D01*
X128667285Y-112886276D01*
X128654724Y-112873715D01*
X128552649Y-112797214D01*
X128537054Y-112788676D01*
X128416606Y-112743522D01*
X128401351Y-112739895D01*
X128350486Y-112734369D01*
X128343672Y-112734000D01*
X127871115Y-112734000D01*
X127855876Y-112738475D01*
X127854671Y-112739865D01*
X127853000Y-112747548D01*
X127853000Y-113969885D01*
X127345000Y-113969885D01*
X127345000Y-112752116D01*
X127340525Y-112736877D01*
X127339135Y-112735672D01*
X127331452Y-112734001D01*
X126854331Y-112734001D01*
X126847510Y-112734371D01*
X126796648Y-112739895D01*
X126781396Y-112743521D01*
X126660946Y-112788676D01*
X126645351Y-112797214D01*
X126543276Y-112873715D01*
X126530715Y-112886276D01*
X126454214Y-112988351D01*
X126445676Y-113003946D01*
X126400522Y-113124394D01*
X126396895Y-113139649D01*
X126391369Y-113190514D01*
X126391000Y-113197328D01*
X126391000Y-113969885D01*
X108508500Y-113969885D01*
X108508500Y-112314853D01*
X111684977Y-112314853D01*
X111690258Y-112321907D01*
X111851756Y-112416279D01*
X111861042Y-112420729D01*
X112060001Y-112496703D01*
X112069899Y-112499579D01*
X112278595Y-112542038D01*
X112288823Y-112543257D01*
X112501650Y-112551062D01*
X112511936Y-112550595D01*
X112723185Y-112523534D01*
X112733262Y-112521392D01*
X112937255Y-112460191D01*
X112946842Y-112456433D01*
X113138098Y-112362738D01*
X113146944Y-112357465D01*
X113194247Y-112323723D01*
X113202648Y-112313023D01*
X113195660Y-112299870D01*
X112457812Y-111562022D01*
X112443868Y-111554408D01*
X112442035Y-111554539D01*
X112435420Y-111558790D01*
X111691737Y-112302473D01*
X111684977Y-112314853D01*
X108508500Y-112314853D01*
X108508500Y-111161863D01*
X111083050Y-111161863D01*
X111095309Y-111374477D01*
X111096745Y-111384697D01*
X111143565Y-111592446D01*
X111146645Y-111602275D01*
X111226770Y-111799603D01*
X111231413Y-111808794D01*
X111311460Y-111939420D01*
X111321916Y-111948880D01*
X111330694Y-111945096D01*
X112072978Y-111202812D01*
X112080592Y-111188868D01*
X112080461Y-111187035D01*
X112076210Y-111180420D01*
X111334849Y-110439059D01*
X111323313Y-110432759D01*
X111311031Y-110442382D01*
X111263089Y-110512662D01*
X111258004Y-110521613D01*
X111168338Y-110714783D01*
X111164775Y-110724470D01*
X111107864Y-110929681D01*
X111105933Y-110939800D01*
X111083302Y-111151574D01*
X111083050Y-111161863D01*
X108508500Y-111161863D01*
X108508500Y-106081863D01*
X111083050Y-106081863D01*
X111095309Y-106294477D01*
X111096745Y-106304697D01*
X111143565Y-106512446D01*
X111146645Y-106522275D01*
X111226770Y-106719603D01*
X111231413Y-106728794D01*
X111311460Y-106859420D01*
X111321916Y-106868880D01*
X111330694Y-106865096D01*
X112072978Y-106122812D01*
X112080592Y-106108868D01*
X112080461Y-106107035D01*
X112076210Y-106100420D01*
X111334849Y-105359059D01*
X111323313Y-105352759D01*
X111311031Y-105362382D01*
X111263089Y-105432662D01*
X111258004Y-105441613D01*
X111168338Y-105634783D01*
X111164775Y-105644470D01*
X111107864Y-105849681D01*
X111105933Y-105859800D01*
X111083302Y-106071574D01*
X111083050Y-106081863D01*
X108508500Y-106081863D01*
X108508500Y-85506695D01*
X129497251Y-85506695D01*
X129510110Y-85729715D01*
X129511247Y-85734761D01*
X129511248Y-85734767D01*
X129530795Y-85821500D01*
X129559222Y-85947639D01*
X129643266Y-86154616D01*
X129683140Y-86219684D01*
X129757291Y-86340688D01*
X129759987Y-86345088D01*
X129906250Y-86513938D01*
X130078126Y-86656632D01*
X130162072Y-86705686D01*
X130210794Y-86757324D01*
X130224500Y-86814473D01*
X130224500Y-88635980D01*
X130223970Y-88647214D01*
X130222292Y-88654719D01*
X130222703Y-88667800D01*
X130224438Y-88723012D01*
X130224500Y-88726969D01*
X130224500Y-88754983D01*
X130224996Y-88758908D01*
X130224996Y-88758909D01*
X130225008Y-88759004D01*
X130225941Y-88770849D01*
X130227335Y-88815205D01*
X130229547Y-88822817D01*
X130233013Y-88834748D01*
X130237023Y-88854112D01*
X130238080Y-88862476D01*
X130239573Y-88874299D01*
X130242489Y-88881663D01*
X130242490Y-88881668D01*
X130255907Y-88915556D01*
X130259752Y-88926785D01*
X130272131Y-88969393D01*
X130276169Y-88976220D01*
X130276170Y-88976223D01*
X130282488Y-88986906D01*
X130291188Y-89004664D01*
X130295761Y-89016215D01*
X130295765Y-89016221D01*
X130298681Y-89023588D01*
X130303339Y-89029999D01*
X130303340Y-89030001D01*
X130324764Y-89059488D01*
X130331281Y-89069410D01*
X130349826Y-89100768D01*
X130349829Y-89100772D01*
X130353866Y-89107598D01*
X130368250Y-89121982D01*
X130381091Y-89137016D01*
X130393058Y-89153487D01*
X130416661Y-89173013D01*
X130427250Y-89181773D01*
X130436031Y-89189763D01*
X130989755Y-89743488D01*
X130997325Y-89751807D01*
X131001447Y-89758303D01*
X131007225Y-89763729D01*
X131007226Y-89763730D01*
X131051265Y-89805085D01*
X131054107Y-89807840D01*
X131073906Y-89827639D01*
X131077037Y-89830068D01*
X131077042Y-89830072D01*
X131077128Y-89830139D01*
X131086153Y-89837847D01*
X131118494Y-89868217D01*
X131125439Y-89872035D01*
X131125443Y-89872038D01*
X131136334Y-89878026D01*
X131152855Y-89888878D01*
X131168934Y-89901350D01*
X131209655Y-89918971D01*
X131220311Y-89924192D01*
X131252245Y-89941748D01*
X131252251Y-89941750D01*
X131259197Y-89945569D01*
X131266872Y-89947540D01*
X131266878Y-89947542D01*
X131278911Y-89950631D01*
X131297613Y-89957034D01*
X131316292Y-89965117D01*
X131324118Y-89966357D01*
X131324123Y-89966358D01*
X131360120Y-89972060D01*
X131371740Y-89974466D01*
X131407037Y-89983528D01*
X131414718Y-89985500D01*
X131435066Y-89985500D01*
X131454778Y-89987051D01*
X131474880Y-89990235D01*
X131519055Y-89986059D01*
X131530914Y-89985500D01*
X135355232Y-89985500D01*
X135423353Y-90005502D01*
X135469846Y-90059158D01*
X135479950Y-90129432D01*
X135474825Y-90151167D01*
X135442785Y-90247765D01*
X135439919Y-90261132D01*
X135430428Y-90353770D01*
X135430100Y-90360185D01*
X135430100Y-90371885D01*
X135434575Y-90387124D01*
X135435965Y-90388329D01*
X135443648Y-90390000D01*
X136603600Y-90390000D01*
X136671721Y-90410002D01*
X136718214Y-90463658D01*
X136729600Y-90516000D01*
X136729600Y-92272000D01*
X136709598Y-92340121D01*
X136655942Y-92386614D01*
X136603600Y-92398000D01*
X135448215Y-92398000D01*
X135432976Y-92402475D01*
X135431771Y-92403865D01*
X135430100Y-92411548D01*
X135430100Y-92430597D01*
X135410098Y-92498718D01*
X135356442Y-92545211D01*
X135286168Y-92555315D01*
X135252851Y-92545704D01*
X135249541Y-92544230D01*
X135238169Y-92539167D01*
X135226319Y-92533891D01*
X135226318Y-92533891D01*
X135220288Y-92531206D01*
X135098331Y-92505283D01*
X135039944Y-92492872D01*
X135039939Y-92492872D01*
X135033487Y-92491500D01*
X134842513Y-92491500D01*
X134836061Y-92492872D01*
X134836056Y-92492872D01*
X134777669Y-92505283D01*
X134655712Y-92531206D01*
X134649682Y-92533891D01*
X134649681Y-92533891D01*
X134487278Y-92606197D01*
X134487276Y-92606198D01*
X134481248Y-92608882D01*
X134475907Y-92612762D01*
X134475906Y-92612763D01*
X134431558Y-92644984D01*
X134326747Y-92721134D01*
X134322326Y-92726044D01*
X134322325Y-92726045D01*
X134212489Y-92848031D01*
X134198960Y-92863056D01*
X134103473Y-93028444D01*
X134044458Y-93210072D01*
X134024496Y-93400000D01*
X134044458Y-93589928D01*
X134103473Y-93771556D01*
X134198960Y-93936944D01*
X134203378Y-93941851D01*
X134203379Y-93941852D01*
X134227552Y-93968699D01*
X134326747Y-94078866D01*
X134388778Y-94123934D01*
X134468839Y-94182102D01*
X134481248Y-94191118D01*
X134487276Y-94193802D01*
X134487278Y-94193803D01*
X134551540Y-94222414D01*
X134655712Y-94268794D01*
X134738226Y-94286333D01*
X134836056Y-94307128D01*
X134836061Y-94307128D01*
X134842513Y-94308500D01*
X135033487Y-94308500D01*
X135039939Y-94307128D01*
X135039944Y-94307128D01*
X135137774Y-94286333D01*
X135220288Y-94268794D01*
X135370890Y-94201742D01*
X135441256Y-94192308D01*
X135505553Y-94222414D01*
X135529282Y-94250546D01*
X135585328Y-94341114D01*
X135590811Y-94349975D01*
X135609649Y-94418427D01*
X135588488Y-94486196D01*
X135582550Y-94494369D01*
X135581625Y-94495540D01*
X135498088Y-94631063D01*
X135491944Y-94644241D01*
X135441685Y-94795766D01*
X135438819Y-94809132D01*
X135429328Y-94901770D01*
X135429000Y-94908185D01*
X135429000Y-94919885D01*
X135433475Y-94935124D01*
X135434865Y-94936329D01*
X135442548Y-94938000D01*
X136602500Y-94938000D01*
X136670621Y-94958002D01*
X136717114Y-95011658D01*
X136728500Y-95064000D01*
X136728500Y-95674885D01*
X136741384Y-95718765D01*
X136748795Y-95730295D01*
X136753900Y-95765798D01*
X136753900Y-97680885D01*
X136758375Y-97696124D01*
X136759765Y-97697329D01*
X136767448Y-97699000D01*
X136846166Y-97699000D01*
X136852682Y-97698663D01*
X136946532Y-97688925D01*
X136959928Y-97686032D01*
X137111353Y-97635512D01*
X137124515Y-97629347D01*
X137259892Y-97545574D01*
X137271294Y-97536536D01*
X137272967Y-97534861D01*
X137274393Y-97534081D01*
X137277027Y-97531993D01*
X137277384Y-97532444D01*
X137335249Y-97500781D01*
X137406069Y-97505784D01*
X137451154Y-97534701D01*
X137452993Y-97536536D01*
X137459397Y-97542929D01*
X137465627Y-97546769D01*
X137465628Y-97546770D01*
X137547416Y-97597185D01*
X137594909Y-97649958D01*
X137607300Y-97704445D01*
X137607300Y-98684861D01*
X137597709Y-98733078D01*
X137549962Y-98848350D01*
X137534300Y-98967315D01*
X137534301Y-100322084D01*
X137534839Y-100326169D01*
X137534839Y-100326173D01*
X137546981Y-100418406D01*
X137549962Y-100441050D01*
X137567556Y-100483525D01*
X137598945Y-100559305D01*
X137611276Y-100589076D01*
X137616302Y-100595626D01*
X137703785Y-100709634D01*
X137708813Y-100716187D01*
X137715363Y-100721213D01*
X137715366Y-100721216D01*
X137772369Y-100764955D01*
X137835925Y-100813724D01*
X137917801Y-100847638D01*
X137975141Y-100871389D01*
X137983950Y-100875038D01*
X137992138Y-100876116D01*
X138098821Y-100890161D01*
X138102915Y-100890700D01*
X138242783Y-100890700D01*
X138382684Y-100890699D01*
X138386769Y-100890161D01*
X138386773Y-100890161D01*
X138493463Y-100876116D01*
X138493465Y-100876116D01*
X138501650Y-100875038D01*
X138519581Y-100867611D01*
X138590170Y-100860021D01*
X138616018Y-100867610D01*
X138619461Y-100869037D01*
X138626320Y-100871878D01*
X138626323Y-100871879D01*
X138633950Y-100875038D01*
X138642138Y-100876116D01*
X138748821Y-100890161D01*
X138752915Y-100890700D01*
X138892783Y-100890700D01*
X139032684Y-100890699D01*
X139036769Y-100890161D01*
X139036773Y-100890161D01*
X139143463Y-100876116D01*
X139143465Y-100876116D01*
X139151650Y-100875038D01*
X139170235Y-100867340D01*
X139240823Y-100859750D01*
X139266674Y-100867340D01*
X139276449Y-100871389D01*
X139292269Y-100875628D01*
X139324840Y-100879916D01*
X139339022Y-100877705D01*
X139342800Y-100864548D01*
X139342800Y-100842769D01*
X139362802Y-100774648D01*
X139392094Y-100742809D01*
X139426787Y-100716187D01*
X139442839Y-100695268D01*
X139500178Y-100653402D01*
X139571049Y-100649182D01*
X139632952Y-100683947D01*
X139642762Y-100695270D01*
X139653783Y-100709633D01*
X139653786Y-100709636D01*
X139658813Y-100716187D01*
X139665363Y-100721213D01*
X139693505Y-100742807D01*
X139735372Y-100800146D01*
X139742800Y-100842769D01*
X139742800Y-100864165D01*
X139746844Y-100877936D01*
X139760383Y-100879965D01*
X139793333Y-100875628D01*
X139809148Y-100871390D01*
X139818926Y-100867340D01*
X139889515Y-100859750D01*
X139915364Y-100867339D01*
X139933950Y-100875038D01*
X139942138Y-100876116D01*
X140048821Y-100890161D01*
X140052915Y-100890700D01*
X140192783Y-100890700D01*
X140332684Y-100890699D01*
X140336769Y-100890161D01*
X140336773Y-100890161D01*
X140443463Y-100876116D01*
X140443465Y-100876116D01*
X140451650Y-100875038D01*
X140469581Y-100867611D01*
X140540170Y-100860021D01*
X140566018Y-100867610D01*
X140569461Y-100869037D01*
X140576320Y-100871878D01*
X140576323Y-100871879D01*
X140583950Y-100875038D01*
X140592138Y-100876116D01*
X140698821Y-100890161D01*
X140702915Y-100890700D01*
X140842783Y-100890700D01*
X140982684Y-100890699D01*
X140986769Y-100890161D01*
X140986773Y-100890161D01*
X141093463Y-100876116D01*
X141093465Y-100876116D01*
X141101650Y-100875038D01*
X141119581Y-100867611D01*
X141190170Y-100860021D01*
X141216018Y-100867610D01*
X141219461Y-100869037D01*
X141226320Y-100871878D01*
X141226323Y-100871879D01*
X141233950Y-100875038D01*
X141242138Y-100876116D01*
X141348821Y-100890161D01*
X141352915Y-100890700D01*
X141492783Y-100890700D01*
X141632684Y-100890699D01*
X141636769Y-100890161D01*
X141636773Y-100890161D01*
X141743463Y-100876116D01*
X141743465Y-100876116D01*
X141751650Y-100875038D01*
X141769581Y-100867611D01*
X141840170Y-100860021D01*
X141866018Y-100867610D01*
X141869461Y-100869037D01*
X141876320Y-100871878D01*
X141876323Y-100871879D01*
X141883950Y-100875038D01*
X141892138Y-100876116D01*
X141998821Y-100890161D01*
X142002915Y-100890700D01*
X142142783Y-100890700D01*
X142282684Y-100890699D01*
X142286769Y-100890161D01*
X142286773Y-100890161D01*
X142393463Y-100876116D01*
X142393465Y-100876116D01*
X142401650Y-100875038D01*
X142419581Y-100867611D01*
X142490170Y-100860021D01*
X142516018Y-100867610D01*
X142519461Y-100869037D01*
X142526320Y-100871878D01*
X142526323Y-100871879D01*
X142533950Y-100875038D01*
X142542138Y-100876116D01*
X142648821Y-100890161D01*
X142652915Y-100890700D01*
X142792783Y-100890700D01*
X142932684Y-100890699D01*
X142936769Y-100890161D01*
X142936773Y-100890161D01*
X143043463Y-100876116D01*
X143043465Y-100876116D01*
X143051650Y-100875038D01*
X143069581Y-100867611D01*
X143140170Y-100860021D01*
X143166018Y-100867610D01*
X143169461Y-100869037D01*
X143176320Y-100871878D01*
X143176323Y-100871879D01*
X143183950Y-100875038D01*
X143192138Y-100876116D01*
X143298821Y-100890161D01*
X143302915Y-100890700D01*
X143442783Y-100890700D01*
X143582684Y-100890699D01*
X143586769Y-100890161D01*
X143586773Y-100890161D01*
X143693463Y-100876116D01*
X143693465Y-100876116D01*
X143701650Y-100875038D01*
X143719581Y-100867611D01*
X143790170Y-100860021D01*
X143816018Y-100867610D01*
X143819461Y-100869037D01*
X143826320Y-100871878D01*
X143826323Y-100871879D01*
X143833950Y-100875038D01*
X143842138Y-100876116D01*
X143948821Y-100890161D01*
X143952915Y-100890700D01*
X144092783Y-100890700D01*
X144232684Y-100890699D01*
X144236769Y-100890161D01*
X144236773Y-100890161D01*
X144343463Y-100876116D01*
X144343465Y-100876116D01*
X144351650Y-100875038D01*
X144369581Y-100867611D01*
X144440170Y-100860021D01*
X144466018Y-100867610D01*
X144469461Y-100869037D01*
X144476320Y-100871878D01*
X144476323Y-100871879D01*
X144483950Y-100875038D01*
X144492138Y-100876116D01*
X144598821Y-100890161D01*
X144602915Y-100890700D01*
X144742783Y-100890700D01*
X144882684Y-100890699D01*
X144886769Y-100890161D01*
X144886773Y-100890161D01*
X144993463Y-100876116D01*
X144993465Y-100876116D01*
X145001650Y-100875038D01*
X145019581Y-100867611D01*
X145090170Y-100860021D01*
X145116018Y-100867610D01*
X145119461Y-100869037D01*
X145126320Y-100871878D01*
X145126323Y-100871879D01*
X145133950Y-100875038D01*
X145142138Y-100876116D01*
X145248821Y-100890161D01*
X145252915Y-100890700D01*
X145392783Y-100890700D01*
X145532684Y-100890699D01*
X145536769Y-100890161D01*
X145536773Y-100890161D01*
X145643463Y-100876116D01*
X145643465Y-100876116D01*
X145651650Y-100875038D01*
X145669581Y-100867611D01*
X145740170Y-100860021D01*
X145766018Y-100867610D01*
X145769461Y-100869037D01*
X145776320Y-100871878D01*
X145776323Y-100871879D01*
X145783950Y-100875038D01*
X145792138Y-100876116D01*
X145898821Y-100890161D01*
X145902915Y-100890700D01*
X146042783Y-100890700D01*
X146182684Y-100890699D01*
X146186769Y-100890161D01*
X146186773Y-100890161D01*
X146293463Y-100876116D01*
X146293465Y-100876116D01*
X146301650Y-100875038D01*
X146319581Y-100867611D01*
X146390170Y-100860021D01*
X146416018Y-100867610D01*
X146419461Y-100869037D01*
X146426320Y-100871878D01*
X146426323Y-100871879D01*
X146433950Y-100875038D01*
X146442138Y-100876116D01*
X146548821Y-100890161D01*
X146552915Y-100890700D01*
X146692783Y-100890700D01*
X146832684Y-100890699D01*
X146836769Y-100890161D01*
X146836773Y-100890161D01*
X146943463Y-100876116D01*
X146943465Y-100876116D01*
X146951650Y-100875038D01*
X147052174Y-100833400D01*
X147092048Y-100816884D01*
X147092050Y-100816883D01*
X147099676Y-100813724D01*
X147150702Y-100774570D01*
X147220236Y-100721214D01*
X147220237Y-100721213D01*
X147226787Y-100716187D01*
X147231814Y-100709636D01*
X147231816Y-100709634D01*
X147293213Y-100629619D01*
X147324324Y-100589075D01*
X147385638Y-100441050D01*
X147396248Y-100360456D01*
X147400762Y-100326172D01*
X147400762Y-100326171D01*
X147401300Y-100322085D01*
X147401299Y-98967316D01*
X147397484Y-98938332D01*
X147389777Y-98879792D01*
X147385638Y-98848350D01*
X147380091Y-98834958D01*
X147370500Y-98786741D01*
X147370500Y-98178243D01*
X147371030Y-98167004D01*
X147372709Y-98159492D01*
X147370562Y-98091180D01*
X147370500Y-98087223D01*
X147370500Y-98059228D01*
X147369992Y-98055205D01*
X147369059Y-98043363D01*
X147368864Y-98037139D01*
X147367665Y-97999006D01*
X147361987Y-97979462D01*
X147357977Y-97960099D01*
X147356420Y-97947771D01*
X147356420Y-97947769D01*
X147355427Y-97939912D01*
X147352511Y-97932548D01*
X147352510Y-97932543D01*
X147339093Y-97898655D01*
X147335248Y-97887426D01*
X147325081Y-97852433D01*
X147322869Y-97844818D01*
X147318830Y-97837988D01*
X147312512Y-97827305D01*
X147303812Y-97809547D01*
X147299239Y-97797996D01*
X147299235Y-97797990D01*
X147296319Y-97790623D01*
X147270234Y-97754720D01*
X147263719Y-97744801D01*
X147245174Y-97713443D01*
X147245171Y-97713439D01*
X147241134Y-97706613D01*
X147226750Y-97692229D01*
X147213909Y-97677195D01*
X147206602Y-97667138D01*
X147201942Y-97660724D01*
X147167750Y-97632438D01*
X147158969Y-97624448D01*
X146321404Y-96786882D01*
X146287379Y-96724570D01*
X146284500Y-96697787D01*
X146284500Y-87698500D01*
X146304502Y-87630379D01*
X146358158Y-87583886D01*
X146410500Y-87572500D01*
X147163980Y-87572500D01*
X147175214Y-87573030D01*
X147182719Y-87574708D01*
X147251012Y-87572562D01*
X147254969Y-87572500D01*
X147282983Y-87572500D01*
X147286908Y-87572004D01*
X147286909Y-87572004D01*
X147287004Y-87571992D01*
X147298849Y-87571059D01*
X147328670Y-87570122D01*
X147335282Y-87569914D01*
X147335283Y-87569914D01*
X147343205Y-87569665D01*
X147362749Y-87563987D01*
X147382112Y-87559977D01*
X147394440Y-87558420D01*
X147394442Y-87558420D01*
X147402299Y-87557427D01*
X147409663Y-87554511D01*
X147409668Y-87554510D01*
X147443556Y-87541093D01*
X147454785Y-87537248D01*
X147471465Y-87532402D01*
X147497393Y-87524869D01*
X147504220Y-87520831D01*
X147504223Y-87520830D01*
X147514906Y-87514512D01*
X147532664Y-87505812D01*
X147544215Y-87501239D01*
X147544221Y-87501235D01*
X147551588Y-87498319D01*
X147587491Y-87472234D01*
X147597410Y-87465719D01*
X147628768Y-87447174D01*
X147628772Y-87447171D01*
X147635598Y-87443134D01*
X147649982Y-87428750D01*
X147665016Y-87415909D01*
X147675073Y-87408602D01*
X147681487Y-87403942D01*
X147709778Y-87369744D01*
X147717767Y-87360965D01*
X148143327Y-86935405D01*
X148205639Y-86901379D01*
X148232422Y-86898500D01*
X149538134Y-86898500D01*
X149600316Y-86891745D01*
X149736705Y-86840615D01*
X149853261Y-86753261D01*
X149940615Y-86636705D01*
X149991745Y-86500316D01*
X149998500Y-86438134D01*
X149998500Y-84641866D01*
X149991745Y-84579684D01*
X149940615Y-84443295D01*
X149853261Y-84326739D01*
X149736705Y-84239385D01*
X149600316Y-84188255D01*
X149538134Y-84181500D01*
X147741866Y-84181500D01*
X147679684Y-84188255D01*
X147543295Y-84239385D01*
X147426739Y-84326739D01*
X147339385Y-84443295D01*
X147336233Y-84451703D01*
X147294919Y-84561907D01*
X147252277Y-84618671D01*
X147185716Y-84643371D01*
X147116367Y-84628163D01*
X147083743Y-84602476D01*
X147033151Y-84546875D01*
X147033142Y-84546866D01*
X147029670Y-84543051D01*
X147025619Y-84539852D01*
X147025615Y-84539848D01*
X146858414Y-84407800D01*
X146858410Y-84407798D01*
X146854359Y-84404598D01*
X146658789Y-84296638D01*
X146653920Y-84294914D01*
X146653916Y-84294912D01*
X146453087Y-84223795D01*
X146453083Y-84223794D01*
X146448212Y-84222069D01*
X146443119Y-84221162D01*
X146443116Y-84221161D01*
X146233373Y-84183800D01*
X146233367Y-84183799D01*
X146228284Y-84182894D01*
X146154452Y-84181992D01*
X146010081Y-84180228D01*
X146010079Y-84180228D01*
X146004911Y-84180165D01*
X145784091Y-84213955D01*
X145571756Y-84283357D01*
X145373607Y-84386507D01*
X145369474Y-84389610D01*
X145369471Y-84389612D01*
X145199100Y-84517530D01*
X145194965Y-84520635D01*
X145155525Y-84561907D01*
X145101280Y-84618671D01*
X145040629Y-84682138D01*
X144933201Y-84839621D01*
X144878293Y-84884621D01*
X144807768Y-84892792D01*
X144744021Y-84861538D01*
X144723324Y-84837054D01*
X144642822Y-84712617D01*
X144642820Y-84712614D01*
X144640014Y-84708277D01*
X144489670Y-84543051D01*
X144485619Y-84539852D01*
X144485615Y-84539848D01*
X144318414Y-84407800D01*
X144318410Y-84407798D01*
X144314359Y-84404598D01*
X144118789Y-84296638D01*
X144113920Y-84294914D01*
X144113916Y-84294912D01*
X143913087Y-84223795D01*
X143913083Y-84223794D01*
X143908212Y-84222069D01*
X143903119Y-84221162D01*
X143903116Y-84221161D01*
X143693373Y-84183800D01*
X143693367Y-84183799D01*
X143688284Y-84182894D01*
X143614452Y-84181992D01*
X143470081Y-84180228D01*
X143470079Y-84180228D01*
X143464911Y-84180165D01*
X143244091Y-84213955D01*
X143031756Y-84283357D01*
X142833607Y-84386507D01*
X142829474Y-84389610D01*
X142829471Y-84389612D01*
X142659100Y-84517530D01*
X142654965Y-84520635D01*
X142615525Y-84561907D01*
X142561280Y-84618671D01*
X142500629Y-84682138D01*
X142393201Y-84839621D01*
X142338293Y-84884621D01*
X142267768Y-84892792D01*
X142204021Y-84861538D01*
X142183324Y-84837054D01*
X142102822Y-84712617D01*
X142102820Y-84712614D01*
X142100014Y-84708277D01*
X141949670Y-84543051D01*
X141945619Y-84539852D01*
X141945615Y-84539848D01*
X141778414Y-84407800D01*
X141778410Y-84407798D01*
X141774359Y-84404598D01*
X141578789Y-84296638D01*
X141573920Y-84294914D01*
X141573916Y-84294912D01*
X141373087Y-84223795D01*
X141373083Y-84223794D01*
X141368212Y-84222069D01*
X141363119Y-84221162D01*
X141363116Y-84221161D01*
X141153373Y-84183800D01*
X141153367Y-84183799D01*
X141148284Y-84182894D01*
X141074452Y-84181992D01*
X140930081Y-84180228D01*
X140930079Y-84180228D01*
X140924911Y-84180165D01*
X140704091Y-84213955D01*
X140491756Y-84283357D01*
X140293607Y-84386507D01*
X140289474Y-84389610D01*
X140289471Y-84389612D01*
X140119100Y-84517530D01*
X140114965Y-84520635D01*
X140075525Y-84561907D01*
X140021280Y-84618671D01*
X139960629Y-84682138D01*
X139853201Y-84839621D01*
X139798293Y-84884621D01*
X139727768Y-84892792D01*
X139664021Y-84861538D01*
X139643324Y-84837054D01*
X139562822Y-84712617D01*
X139562820Y-84712614D01*
X139560014Y-84708277D01*
X139409670Y-84543051D01*
X139405619Y-84539852D01*
X139405615Y-84539848D01*
X139238414Y-84407800D01*
X139238410Y-84407798D01*
X139234359Y-84404598D01*
X139038789Y-84296638D01*
X139033920Y-84294914D01*
X139033916Y-84294912D01*
X138833087Y-84223795D01*
X138833083Y-84223794D01*
X138828212Y-84222069D01*
X138823119Y-84221162D01*
X138823116Y-84221161D01*
X138613373Y-84183800D01*
X138613367Y-84183799D01*
X138608284Y-84182894D01*
X138534452Y-84181992D01*
X138390081Y-84180228D01*
X138390079Y-84180228D01*
X138384911Y-84180165D01*
X138164091Y-84213955D01*
X137951756Y-84283357D01*
X137753607Y-84386507D01*
X137749474Y-84389610D01*
X137749471Y-84389612D01*
X137579100Y-84517530D01*
X137574965Y-84520635D01*
X137535525Y-84561907D01*
X137481280Y-84618671D01*
X137420629Y-84682138D01*
X137313201Y-84839621D01*
X137258293Y-84884621D01*
X137187768Y-84892792D01*
X137124021Y-84861538D01*
X137103324Y-84837054D01*
X137022822Y-84712617D01*
X137022820Y-84712614D01*
X137020014Y-84708277D01*
X136869670Y-84543051D01*
X136865619Y-84539852D01*
X136865615Y-84539848D01*
X136698414Y-84407800D01*
X136698410Y-84407798D01*
X136694359Y-84404598D01*
X136498789Y-84296638D01*
X136493920Y-84294914D01*
X136493916Y-84294912D01*
X136293087Y-84223795D01*
X136293083Y-84223794D01*
X136288212Y-84222069D01*
X136283119Y-84221162D01*
X136283116Y-84221161D01*
X136073373Y-84183800D01*
X136073367Y-84183799D01*
X136068284Y-84182894D01*
X135994452Y-84181992D01*
X135850081Y-84180228D01*
X135850079Y-84180228D01*
X135844911Y-84180165D01*
X135624091Y-84213955D01*
X135411756Y-84283357D01*
X135213607Y-84386507D01*
X135209474Y-84389610D01*
X135209471Y-84389612D01*
X135039100Y-84517530D01*
X135034965Y-84520635D01*
X134995525Y-84561907D01*
X134941280Y-84618671D01*
X134880629Y-84682138D01*
X134773201Y-84839621D01*
X134718293Y-84884621D01*
X134647768Y-84892792D01*
X134584021Y-84861538D01*
X134563324Y-84837054D01*
X134482822Y-84712617D01*
X134482820Y-84712614D01*
X134480014Y-84708277D01*
X134329670Y-84543051D01*
X134325619Y-84539852D01*
X134325615Y-84539848D01*
X134158414Y-84407800D01*
X134158410Y-84407798D01*
X134154359Y-84404598D01*
X133958789Y-84296638D01*
X133953920Y-84294914D01*
X133953916Y-84294912D01*
X133753087Y-84223795D01*
X133753083Y-84223794D01*
X133748212Y-84222069D01*
X133743119Y-84221162D01*
X133743116Y-84221161D01*
X133533373Y-84183800D01*
X133533367Y-84183799D01*
X133528284Y-84182894D01*
X133454452Y-84181992D01*
X133310081Y-84180228D01*
X133310079Y-84180228D01*
X133304911Y-84180165D01*
X133084091Y-84213955D01*
X132871756Y-84283357D01*
X132673607Y-84386507D01*
X132669474Y-84389610D01*
X132669471Y-84389612D01*
X132499100Y-84517530D01*
X132494965Y-84520635D01*
X132455525Y-84561907D01*
X132401280Y-84618671D01*
X132340629Y-84682138D01*
X132233201Y-84839621D01*
X132178293Y-84884621D01*
X132107768Y-84892792D01*
X132044021Y-84861538D01*
X132023324Y-84837054D01*
X131942822Y-84712617D01*
X131942820Y-84712614D01*
X131940014Y-84708277D01*
X131789670Y-84543051D01*
X131785619Y-84539852D01*
X131785615Y-84539848D01*
X131618414Y-84407800D01*
X131618410Y-84407798D01*
X131614359Y-84404598D01*
X131418789Y-84296638D01*
X131413920Y-84294914D01*
X131413916Y-84294912D01*
X131213087Y-84223795D01*
X131213083Y-84223794D01*
X131208212Y-84222069D01*
X131203119Y-84221162D01*
X131203116Y-84221161D01*
X130993373Y-84183800D01*
X130993367Y-84183799D01*
X130988284Y-84182894D01*
X130914452Y-84181992D01*
X130770081Y-84180228D01*
X130770079Y-84180228D01*
X130764911Y-84180165D01*
X130544091Y-84213955D01*
X130331756Y-84283357D01*
X130133607Y-84386507D01*
X130129474Y-84389610D01*
X130129471Y-84389612D01*
X129959100Y-84517530D01*
X129954965Y-84520635D01*
X129915525Y-84561907D01*
X129861280Y-84618671D01*
X129800629Y-84682138D01*
X129674743Y-84866680D01*
X129580688Y-85069305D01*
X129520989Y-85284570D01*
X129497251Y-85506695D01*
X108508500Y-85506695D01*
X108508500Y-83634500D01*
X108528502Y-83566379D01*
X108582158Y-83519886D01*
X108634500Y-83508500D01*
X177365500Y-83508500D01*
X177433621Y-83528502D01*
G37*
G04 #@! TD.AperFunction*
G04 #@! TA.AperFunction,Conductor*
G36*
X173900621Y-100911002D02*
G01*
X173947114Y-100964658D01*
X173958500Y-101017000D01*
X173958500Y-101454500D01*
X173938498Y-101522621D01*
X173884842Y-101569114D01*
X173832500Y-101580500D01*
X173681128Y-101580500D01*
X173613007Y-101560498D01*
X173566514Y-101506842D01*
X173556410Y-101436568D01*
X173558008Y-101427715D01*
X173558500Y-101425453D01*
X173558500Y-101017000D01*
X173578502Y-100948879D01*
X173632158Y-100902386D01*
X173684500Y-100891000D01*
X173832500Y-100891000D01*
X173900621Y-100911002D01*
G37*
G04 #@! TD.AperFunction*
G04 #@! TA.AperFunction,Conductor*
G36*
X140621528Y-90005502D02*
G01*
X140668021Y-90059158D01*
X140678125Y-90129432D01*
X140648631Y-90194012D01*
X140621529Y-90217497D01*
X140580679Y-90243750D01*
X140574778Y-90250560D01*
X140490826Y-90347445D01*
X140490824Y-90347448D01*
X140484924Y-90354257D01*
X140481180Y-90362454D01*
X140481180Y-90362455D01*
X140469914Y-90387124D01*
X140424181Y-90487266D01*
X140403371Y-90632000D01*
X140403371Y-91093047D01*
X140403373Y-91093047D01*
X140403782Y-91096015D01*
X140402603Y-91192438D01*
X140403163Y-91196723D01*
X140403371Y-91203760D01*
X140403371Y-91593047D01*
X140403373Y-91593047D01*
X140403782Y-91596015D01*
X140402603Y-91692438D01*
X140403163Y-91696723D01*
X140403371Y-91703760D01*
X140403371Y-92132000D01*
X140403532Y-92134250D01*
X140407800Y-92193919D01*
X140408600Y-92205111D01*
X140431945Y-92284618D01*
X140437430Y-92303295D01*
X140449796Y-92345411D01*
X140454667Y-92352990D01*
X140523978Y-92460841D01*
X140523980Y-92460844D01*
X140528850Y-92468421D01*
X140535660Y-92474322D01*
X140581752Y-92514261D01*
X140620135Y-92573987D01*
X140620135Y-92644984D01*
X140581751Y-92704710D01*
X140517170Y-92734203D01*
X140459572Y-92729078D01*
X140450428Y-92726045D01*
X140356909Y-92695026D01*
X140350073Y-92694326D01*
X140350070Y-92694325D01*
X140298574Y-92689049D01*
X140254172Y-92684500D01*
X139555028Y-92684500D01*
X139551782Y-92684837D01*
X139551778Y-92684837D01*
X139457865Y-92694581D01*
X139457861Y-92694582D01*
X139451007Y-92695293D01*
X139444471Y-92697474D01*
X139444469Y-92697474D01*
X139387787Y-92716385D01*
X139316838Y-92718969D01*
X139255754Y-92682786D01*
X139223929Y-92619322D01*
X139228317Y-92557196D01*
X139232292Y-92545211D01*
X139236074Y-92533809D01*
X139237848Y-92516500D01*
X139243550Y-92460841D01*
X139246600Y-92431072D01*
X139246600Y-91856928D01*
X139246263Y-91853678D01*
X139236519Y-91759765D01*
X139236518Y-91759761D01*
X139235807Y-91752907D01*
X139217593Y-91698311D01*
X139183072Y-91594841D01*
X139180754Y-91587893D01*
X139101863Y-91460407D01*
X139083027Y-91391957D01*
X139101749Y-91327990D01*
X139177469Y-91205150D01*
X139177470Y-91205148D01*
X139181309Y-91198920D01*
X139236074Y-91033809D01*
X139238722Y-91007970D01*
X139242088Y-90975112D01*
X139246600Y-90931072D01*
X139246600Y-90356928D01*
X139245616Y-90347445D01*
X139236519Y-90259765D01*
X139236518Y-90259761D01*
X139235807Y-90252907D01*
X139233627Y-90246373D01*
X139233626Y-90246368D01*
X139201934Y-90151376D01*
X139199350Y-90080426D01*
X139235534Y-90019342D01*
X139298998Y-89987518D01*
X139321458Y-89985500D01*
X140553407Y-89985500D01*
X140621528Y-90005502D01*
G37*
G04 #@! TD.AperFunction*
G04 #@! TA.AperFunction,Conductor*
G36*
X125779647Y-97371502D02*
G01*
X125800621Y-97388405D01*
X126492083Y-98079868D01*
X127172698Y-98760483D01*
X127180274Y-98768809D01*
X127184395Y-98775303D01*
X127190170Y-98780726D01*
X127234213Y-98822085D01*
X127237055Y-98824840D01*
X127256854Y-98844639D01*
X127259985Y-98847068D01*
X127259990Y-98847072D01*
X127260076Y-98847139D01*
X127269101Y-98854847D01*
X127301442Y-98885217D01*
X127308387Y-98889035D01*
X127308391Y-98889038D01*
X127319282Y-98895026D01*
X127335803Y-98905878D01*
X127351882Y-98918350D01*
X127392603Y-98935971D01*
X127403259Y-98941192D01*
X127435193Y-98958748D01*
X127435199Y-98958750D01*
X127442145Y-98962569D01*
X127449820Y-98964540D01*
X127449826Y-98964542D01*
X127461859Y-98967631D01*
X127480561Y-98974034D01*
X127499240Y-98982117D01*
X127507066Y-98983357D01*
X127507071Y-98983358D01*
X127543068Y-98989060D01*
X127554688Y-98991466D01*
X127589985Y-99000528D01*
X127597666Y-99002500D01*
X127618014Y-99002500D01*
X127637726Y-99004051D01*
X127657828Y-99007235D01*
X127683891Y-99004771D01*
X127753591Y-99018273D01*
X127803182Y-99064377D01*
X127866491Y-99167688D01*
X127869187Y-99172088D01*
X128015450Y-99340938D01*
X128187326Y-99483632D01*
X128257795Y-99524811D01*
X128260645Y-99526476D01*
X128309369Y-99578114D01*
X128322440Y-99647897D01*
X128295709Y-99713669D01*
X128255255Y-99747027D01*
X128242807Y-99753507D01*
X128238674Y-99756610D01*
X128238671Y-99756612D01*
X128068300Y-99884530D01*
X128064165Y-99887635D01*
X128060593Y-99891373D01*
X127949591Y-100007530D01*
X127909829Y-100049138D01*
X127783943Y-100233680D01*
X127767660Y-100268759D01*
X127695072Y-100425138D01*
X127689888Y-100436305D01*
X127630189Y-100651570D01*
X127606451Y-100873695D01*
X127606748Y-100878848D01*
X127606748Y-100878851D01*
X127617511Y-101065522D01*
X127619310Y-101096715D01*
X127620447Y-101101761D01*
X127620448Y-101101767D01*
X127642206Y-101198311D01*
X127668422Y-101314639D01*
X127725213Y-101454500D01*
X127748829Y-101512658D01*
X127752466Y-101521616D01*
X127795473Y-101591798D01*
X127846001Y-101674251D01*
X127869187Y-101712088D01*
X128015450Y-101880938D01*
X128187326Y-102023632D01*
X128216819Y-102040866D01*
X128260645Y-102066476D01*
X128309369Y-102118114D01*
X128322440Y-102187897D01*
X128295709Y-102253669D01*
X128255255Y-102287027D01*
X128242807Y-102293507D01*
X128238674Y-102296610D01*
X128238671Y-102296612D01*
X128068300Y-102424530D01*
X128064165Y-102427635D01*
X128060593Y-102431373D01*
X127949591Y-102547530D01*
X127909829Y-102589138D01*
X127906915Y-102593410D01*
X127906914Y-102593411D01*
X127882215Y-102629619D01*
X127809139Y-102736745D01*
X127795660Y-102756504D01*
X127740749Y-102801507D01*
X127691572Y-102811500D01*
X124965032Y-102811500D01*
X124953793Y-102810970D01*
X124946281Y-102809291D01*
X124938356Y-102809540D01*
X124938355Y-102809540D01*
X124877970Y-102811438D01*
X124874012Y-102811500D01*
X124846017Y-102811500D01*
X124842083Y-102811997D01*
X124842081Y-102811997D01*
X124841994Y-102812008D01*
X124830160Y-102812940D01*
X124785795Y-102814335D01*
X124778182Y-102816547D01*
X124778181Y-102816547D01*
X124766252Y-102820013D01*
X124746888Y-102824023D01*
X124734560Y-102825580D01*
X124734558Y-102825580D01*
X124726701Y-102826573D01*
X124719337Y-102829489D01*
X124719332Y-102829490D01*
X124685444Y-102842907D01*
X124674215Y-102846752D01*
X124657535Y-102851598D01*
X124631607Y-102859131D01*
X124624780Y-102863169D01*
X124624777Y-102863170D01*
X124614094Y-102869488D01*
X124596336Y-102878188D01*
X124584785Y-102882761D01*
X124584779Y-102882765D01*
X124577412Y-102885681D01*
X124571001Y-102890339D01*
X124570999Y-102890340D01*
X124541512Y-102911764D01*
X124531590Y-102918281D01*
X124500232Y-102936826D01*
X124500228Y-102936829D01*
X124493402Y-102940866D01*
X124479018Y-102955250D01*
X124463984Y-102968091D01*
X124447513Y-102980058D01*
X124442460Y-102986166D01*
X124419223Y-103014255D01*
X124411233Y-103023035D01*
X123546662Y-103887606D01*
X123484350Y-103921632D01*
X123413535Y-103916567D01*
X123356699Y-103874020D01*
X123331991Y-103808835D01*
X123330842Y-103794851D01*
X123314852Y-103600361D01*
X123260431Y-103383702D01*
X123171354Y-103178840D01*
X123122438Y-103103228D01*
X123052822Y-102995617D01*
X123052820Y-102995614D01*
X123050014Y-102991277D01*
X122899670Y-102826051D01*
X122895619Y-102822852D01*
X122895615Y-102822848D01*
X122728414Y-102690800D01*
X122728410Y-102690798D01*
X122724359Y-102687598D01*
X122683053Y-102664796D01*
X122633084Y-102614364D01*
X122618312Y-102544921D01*
X122643428Y-102478516D01*
X122670780Y-102451909D01*
X122734691Y-102406322D01*
X122849860Y-102324173D01*
X122863183Y-102310897D01*
X122984144Y-102190357D01*
X123008096Y-102166489D01*
X123024740Y-102143327D01*
X123135435Y-101989277D01*
X123138453Y-101985077D01*
X123141731Y-101978446D01*
X123235136Y-101789453D01*
X123235137Y-101789451D01*
X123237430Y-101784811D01*
X123285752Y-101625765D01*
X123300865Y-101576023D01*
X123300865Y-101576021D01*
X123302370Y-101571069D01*
X123331529Y-101349590D01*
X123331627Y-101345588D01*
X123333074Y-101286365D01*
X123333074Y-101286361D01*
X123333156Y-101283000D01*
X123314852Y-101060361D01*
X123260431Y-100843702D01*
X123171354Y-100638840D01*
X123120425Y-100560116D01*
X123052822Y-100455617D01*
X123052820Y-100455614D01*
X123050014Y-100451277D01*
X122899670Y-100286051D01*
X122895619Y-100282852D01*
X122895615Y-100282848D01*
X122728414Y-100150800D01*
X122728410Y-100150798D01*
X122724359Y-100147598D01*
X122683053Y-100124796D01*
X122633084Y-100074364D01*
X122618312Y-100004921D01*
X122643428Y-99938516D01*
X122670780Y-99911909D01*
X122736412Y-99865094D01*
X122849860Y-99784173D01*
X122863183Y-99770897D01*
X122984144Y-99650357D01*
X123008096Y-99626489D01*
X123024740Y-99603327D01*
X123135435Y-99449277D01*
X123138453Y-99445077D01*
X123141622Y-99438666D01*
X123235136Y-99249453D01*
X123235137Y-99249451D01*
X123237430Y-99244811D01*
X123281479Y-99099829D01*
X123300865Y-99036023D01*
X123300865Y-99036021D01*
X123302370Y-99031069D01*
X123331529Y-98809590D01*
X123333156Y-98743000D01*
X123314852Y-98520361D01*
X123287389Y-98411025D01*
X123290193Y-98340084D01*
X123320498Y-98291235D01*
X124223328Y-97388405D01*
X124285640Y-97354379D01*
X124312423Y-97351500D01*
X125711526Y-97351500D01*
X125779647Y-97371502D01*
G37*
G04 #@! TD.AperFunction*
G04 #@! TA.AperFunction,Conductor*
G36*
X116192026Y-87855144D02*
G01*
X116219875Y-87886994D01*
X116279987Y-87985088D01*
X116426250Y-88153938D01*
X116430230Y-88157242D01*
X116450986Y-88174475D01*
X116490621Y-88233378D01*
X116496500Y-88271418D01*
X116496500Y-95413358D01*
X116476498Y-95481479D01*
X116422842Y-95527972D01*
X116352568Y-95538076D01*
X116287988Y-95508582D01*
X116254951Y-95463601D01*
X116188419Y-95310590D01*
X116186354Y-95305840D01*
X116065014Y-95118277D01*
X115914670Y-94953051D01*
X115910619Y-94949852D01*
X115910615Y-94949848D01*
X115743414Y-94817800D01*
X115743410Y-94817798D01*
X115739359Y-94814598D01*
X115729458Y-94809132D01*
X115643630Y-94761753D01*
X115543789Y-94706638D01*
X115538920Y-94704914D01*
X115538916Y-94704912D01*
X115338087Y-94633795D01*
X115338083Y-94633794D01*
X115333212Y-94632069D01*
X115328119Y-94631162D01*
X115328116Y-94631161D01*
X115118373Y-94593800D01*
X115118367Y-94593799D01*
X115113284Y-94592894D01*
X115039452Y-94591992D01*
X114895081Y-94590228D01*
X114895079Y-94590228D01*
X114889911Y-94590165D01*
X114791292Y-94605256D01*
X114720931Y-94595788D01*
X114683139Y-94569801D01*
X113099405Y-92986067D01*
X113065379Y-92923755D01*
X113062500Y-92896972D01*
X113062500Y-88664500D01*
X113082502Y-88596379D01*
X113136158Y-88549886D01*
X113188500Y-88538500D01*
X113198134Y-88538500D01*
X113260316Y-88531745D01*
X113396705Y-88480615D01*
X113513261Y-88393261D01*
X113600615Y-88276705D01*
X113622799Y-88217529D01*
X113644598Y-88159382D01*
X113687240Y-88102618D01*
X113753802Y-88077918D01*
X113823150Y-88093126D01*
X113857817Y-88121114D01*
X113886250Y-88153938D01*
X113989068Y-88239299D01*
X114050738Y-88290498D01*
X114058126Y-88296632D01*
X114251000Y-88409338D01*
X114459692Y-88489030D01*
X114464760Y-88490061D01*
X114464763Y-88490062D01*
X114537061Y-88504771D01*
X114678597Y-88533567D01*
X114683772Y-88533757D01*
X114683774Y-88533757D01*
X114896673Y-88541564D01*
X114896677Y-88541564D01*
X114901837Y-88541753D01*
X114906957Y-88541097D01*
X114906959Y-88541097D01*
X115118288Y-88514025D01*
X115118289Y-88514025D01*
X115123416Y-88513368D01*
X115152071Y-88504771D01*
X115332429Y-88450661D01*
X115332434Y-88450659D01*
X115337384Y-88449174D01*
X115537994Y-88350896D01*
X115719860Y-88221173D01*
X115756662Y-88184500D01*
X115864340Y-88077197D01*
X115878096Y-88063489D01*
X115891411Y-88044960D01*
X116008453Y-87882077D01*
X116009776Y-87883028D01*
X116056645Y-87839857D01*
X116126580Y-87827625D01*
X116192026Y-87855144D01*
G37*
G04 #@! TD.AperFunction*
M02*
