G04 #@! TF.GenerationSoftware,KiCad,Pcbnew,(5.1.10)-1*
G04 #@! TF.CreationDate,2021-07-14T18:31:49+02:00*
G04 #@! TF.ProjectId,MSPBMP2-stick,4d535042-4d50-4322-9d73-7469636b2e6b,rev?*
G04 #@! TF.SameCoordinates,Original*
G04 #@! TF.FileFunction,Legend,Top*
G04 #@! TF.FilePolarity,Positive*
%FSLAX46Y46*%
G04 Gerber Fmt 4.6, Leading zero omitted, Abs format (unit mm)*
G04 Created by KiCad (PCBNEW (5.1.10)-1) date 2021-07-14 18:31:49*
%MOMM*%
%LPD*%
G01*
G04 APERTURE LIST*
%ADD10C,0.100000*%
%ADD11C,0.150000*%
%ADD12C,0.120000*%
%ADD13C,0.228600*%
%ADD14C,0.200000*%
%ADD15C,0.127000*%
%ADD16C,0.152400*%
%ADD17O,3.350000X1.775000*%
%ADD18C,1.450000*%
%ADD19C,1.708000*%
%ADD20O,1.900000X1.900000*%
G04 APERTURE END LIST*
D10*
G36*
X79248500Y-53269000D02*
G01*
X78550000Y-53650000D01*
X78550000Y-52888000D01*
X79248500Y-53269000D01*
G37*
X79248500Y-53269000D02*
X78550000Y-53650000D01*
X78550000Y-52888000D01*
X79248500Y-53269000D01*
G36*
X74866500Y-59372500D02*
G01*
X74104500Y-59372500D01*
X74485500Y-58674000D01*
X74866500Y-59372500D01*
G37*
X74866500Y-59372500D02*
X74104500Y-59372500D01*
X74485500Y-58674000D01*
X74866500Y-59372500D01*
D11*
X73603152Y-68488076D02*
X74106314Y-68488076D01*
X73835380Y-68817066D01*
X73951495Y-68817066D01*
X74028904Y-68858190D01*
X74067609Y-68899314D01*
X74106314Y-68981561D01*
X74106314Y-69187180D01*
X74067609Y-69269428D01*
X74028904Y-69310552D01*
X73951495Y-69351676D01*
X73719266Y-69351676D01*
X73641857Y-69310552D01*
X73603152Y-69269428D01*
X74377247Y-68775942D02*
X74570771Y-69351676D01*
X74764295Y-68775942D01*
X74996523Y-68488076D02*
X75499685Y-68488076D01*
X75228752Y-68817066D01*
X75344866Y-68817066D01*
X75422276Y-68858190D01*
X75460980Y-68899314D01*
X75499685Y-68981561D01*
X75499685Y-69187180D01*
X75460980Y-69269428D01*
X75422276Y-69310552D01*
X75344866Y-69351676D01*
X75112638Y-69351676D01*
X75035228Y-69310552D01*
X74996523Y-69269428D01*
X75848028Y-69269428D02*
X75886733Y-69310552D01*
X75848028Y-69351676D01*
X75809323Y-69310552D01*
X75848028Y-69269428D01*
X75848028Y-69351676D01*
X75848028Y-68817066D02*
X75886733Y-68858190D01*
X75848028Y-68899314D01*
X75809323Y-68858190D01*
X75848028Y-68817066D01*
X75848028Y-68899314D01*
X76506009Y-68899314D02*
X76622123Y-68940438D01*
X76660828Y-68981561D01*
X76699533Y-69063809D01*
X76699533Y-69187180D01*
X76660828Y-69269428D01*
X76622123Y-69310552D01*
X76544714Y-69351676D01*
X76235076Y-69351676D01*
X76235076Y-68488076D01*
X76506009Y-68488076D01*
X76583419Y-68529200D01*
X76622123Y-68570323D01*
X76660828Y-68652571D01*
X76660828Y-68734819D01*
X76622123Y-68817066D01*
X76583419Y-68858190D01*
X76506009Y-68899314D01*
X76235076Y-68899314D01*
X77202695Y-68488076D02*
X77280104Y-68488076D01*
X77357514Y-68529200D01*
X77396219Y-68570323D01*
X77434923Y-68652571D01*
X77473628Y-68817066D01*
X77473628Y-69022685D01*
X77434923Y-69187180D01*
X77396219Y-69269428D01*
X77357514Y-69310552D01*
X77280104Y-69351676D01*
X77202695Y-69351676D01*
X77125285Y-69310552D01*
X77086580Y-69269428D01*
X77047876Y-69187180D01*
X77009171Y-69022685D01*
X77009171Y-68817066D01*
X77047876Y-68652571D01*
X77086580Y-68570323D01*
X77125285Y-68529200D01*
X77202695Y-68488076D01*
X77821971Y-69269428D02*
X77860676Y-69310552D01*
X77821971Y-69351676D01*
X77783266Y-69310552D01*
X77821971Y-69269428D01*
X77821971Y-69351676D01*
X77821971Y-68817066D02*
X77860676Y-68858190D01*
X77821971Y-68899314D01*
X77783266Y-68858190D01*
X77821971Y-68817066D01*
X77821971Y-68899314D01*
X78673476Y-69351676D02*
X78402542Y-68940438D01*
X78209019Y-69351676D02*
X78209019Y-68488076D01*
X78518657Y-68488076D01*
X78596066Y-68529200D01*
X78634771Y-68570323D01*
X78673476Y-68652571D01*
X78673476Y-68775942D01*
X78634771Y-68858190D01*
X78596066Y-68899314D01*
X78518657Y-68940438D01*
X78209019Y-68940438D01*
X78944409Y-68488076D02*
X79486276Y-69351676D01*
X79486276Y-68488076D02*
X78944409Y-69351676D01*
X79795914Y-69269428D02*
X79834619Y-69310552D01*
X79795914Y-69351676D01*
X79757209Y-69310552D01*
X79795914Y-69269428D01*
X79795914Y-69351676D01*
X79795914Y-68817066D02*
X79834619Y-68858190D01*
X79795914Y-68899314D01*
X79757209Y-68858190D01*
X79795914Y-68817066D01*
X79795914Y-68899314D01*
X80066847Y-68488076D02*
X80531304Y-68488076D01*
X80299076Y-69351676D02*
X80299076Y-68488076D01*
X80724828Y-68488076D02*
X81266695Y-69351676D01*
X81266695Y-68488076D02*
X80724828Y-69351676D01*
X81576333Y-69269428D02*
X81615038Y-69310552D01*
X81576333Y-69351676D01*
X81537628Y-69310552D01*
X81576333Y-69269428D01*
X81576333Y-69351676D01*
X81576333Y-68817066D02*
X81615038Y-68858190D01*
X81576333Y-68899314D01*
X81537628Y-68858190D01*
X81576333Y-68817066D01*
X81576333Y-68899314D01*
X82389133Y-68529200D02*
X82311723Y-68488076D01*
X82195609Y-68488076D01*
X82079495Y-68529200D01*
X82002085Y-68611447D01*
X81963380Y-68693695D01*
X81924676Y-68858190D01*
X81924676Y-68981561D01*
X81963380Y-69146057D01*
X82002085Y-69228304D01*
X82079495Y-69310552D01*
X82195609Y-69351676D01*
X82273019Y-69351676D01*
X82389133Y-69310552D01*
X82427838Y-69269428D01*
X82427838Y-68981561D01*
X82273019Y-68981561D01*
X82776180Y-69351676D02*
X82776180Y-68488076D01*
X83240638Y-69351676D01*
X83240638Y-68488076D01*
X83627685Y-69351676D02*
X83627685Y-68488076D01*
X83821209Y-68488076D01*
X83937323Y-68529200D01*
X84014733Y-68611447D01*
X84053438Y-68693695D01*
X84092142Y-68858190D01*
X84092142Y-68981561D01*
X84053438Y-69146057D01*
X84014733Y-69228304D01*
X83937323Y-69310552D01*
X83821209Y-69351676D01*
X83627685Y-69351676D01*
D12*
X112217795Y-68389500D02*
G75*
G03*
X112217795Y-68389500I-1219795J0D01*
G01*
X112224389Y-63309500D02*
G75*
G03*
X112224389Y-63309500I-1226389J0D01*
G01*
D11*
X67827866Y-52648419D02*
X67760133Y-52609714D01*
X67624666Y-52609714D01*
X67556933Y-52648419D01*
X67489200Y-52725828D01*
X67455333Y-52803238D01*
X67455333Y-52958057D01*
X67489200Y-53035466D01*
X67556933Y-53112876D01*
X67624666Y-53151580D01*
X67760133Y-53151580D01*
X67827866Y-53112876D01*
X67692400Y-52338780D02*
X67523066Y-52377485D01*
X67353733Y-52493600D01*
X67252133Y-52687123D01*
X67218266Y-52880647D01*
X67252133Y-53074171D01*
X67353733Y-53267695D01*
X67523066Y-53383809D01*
X67692400Y-53422514D01*
X67861733Y-53383809D01*
X68031066Y-53267695D01*
X68132666Y-53074171D01*
X68166533Y-52880647D01*
X68132666Y-52687123D01*
X68031066Y-52493600D01*
X67861733Y-52377485D01*
X67692400Y-52338780D01*
X68437466Y-52532304D02*
X68471333Y-52493600D01*
X68539066Y-52454895D01*
X68708400Y-52454895D01*
X68776133Y-52493600D01*
X68810000Y-52532304D01*
X68843866Y-52609714D01*
X68843866Y-52687123D01*
X68810000Y-52803238D01*
X68403600Y-53267695D01*
X68843866Y-53267695D01*
X69284133Y-52454895D02*
X69351866Y-52454895D01*
X69419600Y-52493600D01*
X69453466Y-52532304D01*
X69487333Y-52609714D01*
X69521200Y-52764533D01*
X69521200Y-52958057D01*
X69487333Y-53112876D01*
X69453466Y-53190285D01*
X69419600Y-53228990D01*
X69351866Y-53267695D01*
X69284133Y-53267695D01*
X69216400Y-53228990D01*
X69182533Y-53190285D01*
X69148666Y-53112876D01*
X69114800Y-52958057D01*
X69114800Y-52764533D01*
X69148666Y-52609714D01*
X69182533Y-52532304D01*
X69216400Y-52493600D01*
X69284133Y-52454895D01*
X69792133Y-52532304D02*
X69826000Y-52493600D01*
X69893733Y-52454895D01*
X70063066Y-52454895D01*
X70130800Y-52493600D01*
X70164666Y-52532304D01*
X70198533Y-52609714D01*
X70198533Y-52687123D01*
X70164666Y-52803238D01*
X69758266Y-53267695D01*
X70198533Y-53267695D01*
X70875866Y-53267695D02*
X70469466Y-53267695D01*
X70672666Y-53267695D02*
X70672666Y-52454895D01*
X70604933Y-52571009D01*
X70537200Y-52648419D01*
X70469466Y-52687123D01*
X71180666Y-52958057D02*
X71722533Y-52958057D01*
X72366000Y-52725828D02*
X72366000Y-53383809D01*
X72332133Y-53461219D01*
X72298266Y-53499923D01*
X72230533Y-53538628D01*
X72128933Y-53538628D01*
X72061200Y-53499923D01*
X72366000Y-53228990D02*
X72298266Y-53267695D01*
X72162800Y-53267695D01*
X72095066Y-53228990D01*
X72061200Y-53190285D01*
X72027333Y-53112876D01*
X72027333Y-52880647D01*
X72061200Y-52803238D01*
X72095066Y-52764533D01*
X72162800Y-52725828D01*
X72298266Y-52725828D01*
X72366000Y-52764533D01*
X72704666Y-53267695D02*
X72704666Y-52725828D01*
X72704666Y-52880647D02*
X72738533Y-52803238D01*
X72772400Y-52764533D01*
X72840133Y-52725828D01*
X72907866Y-52725828D01*
X73449733Y-52725828D02*
X73449733Y-53267695D01*
X73144933Y-52725828D02*
X73144933Y-53151580D01*
X73178800Y-53228990D01*
X73246533Y-53267695D01*
X73348133Y-53267695D01*
X73415866Y-53228990D01*
X73449733Y-53190285D01*
X73788400Y-53267695D02*
X73788400Y-52725828D01*
X73788400Y-52803238D02*
X73822266Y-52764533D01*
X73890000Y-52725828D01*
X73991600Y-52725828D01*
X74059333Y-52764533D01*
X74093200Y-52841942D01*
X74093200Y-53267695D01*
X74093200Y-52841942D02*
X74127066Y-52764533D01*
X74194800Y-52725828D01*
X74296400Y-52725828D01*
X74364133Y-52764533D01*
X74398000Y-52841942D01*
X74398000Y-53267695D01*
X75041466Y-53267695D02*
X75041466Y-52841942D01*
X75007600Y-52764533D01*
X74939866Y-52725828D01*
X74804400Y-52725828D01*
X74736666Y-52764533D01*
X75041466Y-53228990D02*
X74973733Y-53267695D01*
X74804400Y-53267695D01*
X74736666Y-53228990D01*
X74702800Y-53151580D01*
X74702800Y-53074171D01*
X74736666Y-52996761D01*
X74804400Y-52958057D01*
X74973733Y-52958057D01*
X75041466Y-52919352D01*
X75278533Y-52725828D02*
X75549466Y-52725828D01*
X75380133Y-52454895D02*
X75380133Y-53151580D01*
X75414000Y-53228990D01*
X75481733Y-53267695D01*
X75549466Y-53267695D01*
D13*
X88139676Y-53620171D02*
X88277561Y-53673390D01*
X88323523Y-53726609D01*
X88369485Y-53833047D01*
X88369485Y-53992704D01*
X88323523Y-54099142D01*
X88277561Y-54152361D01*
X88185638Y-54205580D01*
X87817942Y-54205580D01*
X87817942Y-53087980D01*
X88139676Y-53087980D01*
X88231600Y-53141200D01*
X88277561Y-53194419D01*
X88323523Y-53300857D01*
X88323523Y-53407295D01*
X88277561Y-53513733D01*
X88231600Y-53566952D01*
X88139676Y-53620171D01*
X87817942Y-53620171D01*
X88783142Y-54205580D02*
X88783142Y-53087980D01*
X89104876Y-53886266D01*
X89426609Y-53087980D01*
X89426609Y-54205580D01*
X89886228Y-54205580D02*
X89886228Y-53087980D01*
X90253923Y-53087980D01*
X90345847Y-53141200D01*
X90391809Y-53194419D01*
X90437771Y-53300857D01*
X90437771Y-53460514D01*
X90391809Y-53566952D01*
X90345847Y-53620171D01*
X90253923Y-53673390D01*
X89886228Y-53673390D01*
X90851428Y-53779828D02*
X91586819Y-53779828D01*
X92046438Y-54205580D02*
X92046438Y-53087980D01*
X92368171Y-53886266D01*
X92689904Y-53087980D01*
X92689904Y-54205580D01*
X93103561Y-54152361D02*
X93241447Y-54205580D01*
X93471257Y-54205580D01*
X93563180Y-54152361D01*
X93609142Y-54099142D01*
X93655104Y-53992704D01*
X93655104Y-53886266D01*
X93609142Y-53779828D01*
X93563180Y-53726609D01*
X93471257Y-53673390D01*
X93287409Y-53620171D01*
X93195485Y-53566952D01*
X93149523Y-53513733D01*
X93103561Y-53407295D01*
X93103561Y-53300857D01*
X93149523Y-53194419D01*
X93195485Y-53141200D01*
X93287409Y-53087980D01*
X93517219Y-53087980D01*
X93655104Y-53141200D01*
X94068761Y-54205580D02*
X94068761Y-53087980D01*
X94436457Y-53087980D01*
X94528380Y-53141200D01*
X94574342Y-53194419D01*
X94620304Y-53300857D01*
X94620304Y-53460514D01*
X94574342Y-53566952D01*
X94528380Y-53620171D01*
X94436457Y-53673390D01*
X94068761Y-53673390D01*
X95447619Y-53460514D02*
X95447619Y-54205580D01*
X95217809Y-53034761D02*
X94988000Y-53833047D01*
X95585504Y-53833047D01*
X95861276Y-53087980D02*
X96458780Y-53087980D01*
X96137047Y-53513733D01*
X96274933Y-53513733D01*
X96366857Y-53566952D01*
X96412819Y-53620171D01*
X96458780Y-53726609D01*
X96458780Y-53992704D01*
X96412819Y-54099142D01*
X96366857Y-54152361D01*
X96274933Y-54205580D01*
X95999161Y-54205580D01*
X95907238Y-54152361D01*
X95861276Y-54099142D01*
X97056285Y-53087980D02*
X97148209Y-53087980D01*
X97240133Y-53141200D01*
X97286095Y-53194419D01*
X97332057Y-53300857D01*
X97378019Y-53513733D01*
X97378019Y-53779828D01*
X97332057Y-53992704D01*
X97286095Y-54099142D01*
X97240133Y-54152361D01*
X97148209Y-54205580D01*
X97056285Y-54205580D01*
X96964361Y-54152361D01*
X96918400Y-54099142D01*
X96872438Y-53992704D01*
X96826476Y-53779828D01*
X96826476Y-53513733D01*
X96872438Y-53300857D01*
X96918400Y-53194419D01*
X96964361Y-53141200D01*
X97056285Y-53087980D01*
D11*
X94987533Y-62038895D02*
X94987533Y-61226095D01*
X95393933Y-62038895D02*
X95089133Y-61574438D01*
X95393933Y-61226095D02*
X94987533Y-61690552D01*
X91038733Y-62042695D02*
X91038733Y-61229895D01*
X91445133Y-62042695D02*
X91140333Y-61578238D01*
X91445133Y-61229895D02*
X91038733Y-61694352D01*
X91105666Y-59810466D02*
X91444333Y-59810466D01*
X91037933Y-60042695D02*
X91275000Y-59229895D01*
X91512066Y-60042695D01*
X95004466Y-59774666D02*
X95343133Y-59774666D01*
X94936733Y-60006895D02*
X95173800Y-59194095D01*
X95410866Y-60006895D01*
D10*
G36*
X101800000Y-58900000D02*
G01*
X101038000Y-58900000D01*
X101419000Y-58201500D01*
X101800000Y-58900000D01*
G37*
X101800000Y-58900000D02*
X101038000Y-58900000D01*
X101419000Y-58201500D01*
X101800000Y-58900000D01*
G36*
X82798500Y-65681000D02*
G01*
X82100000Y-65300000D01*
X82798500Y-64919000D01*
X82798500Y-65681000D01*
G37*
X82798500Y-65681000D02*
X82100000Y-65300000D01*
X82798500Y-64919000D01*
X82798500Y-65681000D01*
G36*
X98615500Y-61281000D02*
G01*
X97917000Y-61662000D01*
X97917000Y-60900000D01*
X98615500Y-61281000D01*
G37*
X98615500Y-61281000D02*
X97917000Y-61662000D01*
X97917000Y-60900000D01*
X98615500Y-61281000D01*
D14*
X69575000Y-64325000D02*
G75*
G03*
X69575000Y-64325000I-100000J0D01*
G01*
D15*
X48275000Y-66825000D02*
X63325000Y-66825000D01*
X48275000Y-54825000D02*
X48275000Y-66825000D01*
X63325000Y-54825000D02*
X48275000Y-54825000D01*
X63325000Y-66825000D02*
X64075000Y-66825000D01*
X63325000Y-54825000D02*
X63325000Y-66825000D01*
X64075000Y-54825000D02*
X63325000Y-54825000D01*
D12*
X108400000Y-67180000D02*
X107900000Y-67180000D01*
X108400000Y-64820000D02*
X107900000Y-64820000D01*
X108400000Y-62076500D02*
X107900000Y-62076500D01*
X108400000Y-59716500D02*
X107900000Y-59716500D01*
X98725000Y-58185000D02*
X101175000Y-58185000D01*
X100525000Y-54965000D02*
X98725000Y-54965000D01*
X72240835Y-61410000D02*
X72009165Y-61410000D01*
X72240835Y-60690000D02*
X72009165Y-60690000D01*
X72240835Y-64435000D02*
X72009165Y-64435000D01*
X72240835Y-63715000D02*
X72009165Y-63715000D01*
X106375000Y-53250000D02*
X106375000Y-53850000D01*
X102925000Y-52550000D02*
X105725000Y-52550000D01*
X102275000Y-53850000D02*
X102275000Y-53250000D01*
X105725000Y-54550000D02*
X102925000Y-54550000D01*
X106375000Y-53850000D02*
G75*
G02*
X105675000Y-54550000I-700000J0D01*
G01*
X105675000Y-52550000D02*
G75*
G02*
X106375000Y-53250000I0J-700000D01*
G01*
X102275000Y-53250000D02*
G75*
G02*
X102975000Y-52550000I700000J0D01*
G01*
X102975000Y-54550000D02*
G75*
G02*
X102275000Y-53850000I0J700000D01*
G01*
X96671267Y-63885000D02*
X96378733Y-63885000D01*
X96671267Y-62865000D02*
X96378733Y-62865000D01*
X103560000Y-56353733D02*
X103560000Y-56696267D01*
X102540000Y-56353733D02*
X102540000Y-56696267D01*
X106890000Y-52853733D02*
X106890000Y-53146267D01*
X107910000Y-52853733D02*
X107910000Y-53146267D01*
X77530000Y-54225835D02*
X77530000Y-53994165D01*
X78250000Y-54225835D02*
X78250000Y-53994165D01*
X76865000Y-66160000D02*
X76390000Y-66160000D01*
X76390000Y-66160000D02*
X76390000Y-65685000D01*
X81135000Y-60940000D02*
X81610000Y-60940000D01*
X81610000Y-60940000D02*
X81610000Y-61415000D01*
X76865000Y-60940000D02*
X76390000Y-60940000D01*
X76390000Y-60940000D02*
X76390000Y-61415000D01*
X81135000Y-66160000D02*
X81610000Y-66160000D01*
X84465000Y-59010000D02*
X84465000Y-59075000D01*
X80935000Y-59010000D02*
X80935000Y-59075000D01*
X84465000Y-52605000D02*
X84465000Y-52670000D01*
X80935000Y-52605000D02*
X80935000Y-52670000D01*
X79610000Y-52670000D02*
X80935000Y-52670000D01*
X80935000Y-59075000D02*
X84465000Y-59075000D01*
X80935000Y-52605000D02*
X84465000Y-52605000D01*
X74582379Y-67070000D02*
X74917621Y-67070000D01*
X74582379Y-67830000D02*
X74917621Y-67830000D01*
X87450000Y-65850000D02*
X88550000Y-65850000D01*
X87450000Y-67750000D02*
X88550000Y-67750000D01*
X85300000Y-65900000D02*
X85300000Y-67700000D01*
X91860000Y-66684165D02*
X91860000Y-66915835D01*
X91140000Y-66684165D02*
X91140000Y-66915835D01*
X73767500Y-53901000D02*
X73767500Y-54131000D01*
X73767500Y-58621000D02*
X73767500Y-58391000D01*
X73767500Y-58621000D02*
X71047500Y-58621000D01*
X71047500Y-58621000D02*
X71047500Y-57311000D01*
X74907500Y-58391000D02*
X73767500Y-58391000D01*
X71047500Y-53901000D02*
X73767500Y-53901000D01*
X71047500Y-55211000D02*
X71047500Y-53901000D01*
X104767621Y-69130000D02*
X104432379Y-69130000D01*
X104767621Y-68370000D02*
X104432379Y-68370000D01*
X114980000Y-51832200D02*
X114980000Y-69732200D01*
X114980000Y-69732200D02*
X117640000Y-69732200D01*
X117640000Y-69732200D02*
X117640000Y-51832200D01*
X117640000Y-51832200D02*
X114980000Y-51832200D01*
X117640000Y-52782200D02*
X123640000Y-52782200D01*
X123640000Y-52782200D02*
X123640000Y-53542200D01*
X123640000Y-53542200D02*
X117640000Y-53542200D01*
X117640000Y-52842200D02*
X123640000Y-52842200D01*
X117640000Y-52962200D02*
X123640000Y-52962200D01*
X117640000Y-53082200D02*
X123640000Y-53082200D01*
X117640000Y-53202200D02*
X123640000Y-53202200D01*
X117640000Y-53322200D02*
X123640000Y-53322200D01*
X117640000Y-53442200D02*
X123640000Y-53442200D01*
X114582929Y-52782200D02*
X114980000Y-52782200D01*
X114582929Y-53542200D02*
X114980000Y-53542200D01*
X112110000Y-52782200D02*
X112497071Y-52782200D01*
X112110000Y-53542200D02*
X112497071Y-53542200D01*
X114980000Y-54432200D02*
X117640000Y-54432200D01*
X117640000Y-55322200D02*
X123640000Y-55322200D01*
X123640000Y-55322200D02*
X123640000Y-56082200D01*
X123640000Y-56082200D02*
X117640000Y-56082200D01*
X114582929Y-55322200D02*
X114980000Y-55322200D01*
X114582929Y-56082200D02*
X114980000Y-56082200D01*
X112042929Y-55322200D02*
X112497071Y-55322200D01*
X112042929Y-56082200D02*
X112497071Y-56082200D01*
X114980000Y-56972200D02*
X117640000Y-56972200D01*
X117640000Y-57862200D02*
X123640000Y-57862200D01*
X123640000Y-57862200D02*
X123640000Y-58622200D01*
X123640000Y-58622200D02*
X117640000Y-58622200D01*
X114582929Y-57862200D02*
X114980000Y-57862200D01*
X114582929Y-58622200D02*
X114980000Y-58622200D01*
X112042929Y-57862200D02*
X112497071Y-57862200D01*
X112042929Y-58622200D02*
X112497071Y-58622200D01*
X114980000Y-59512200D02*
X117640000Y-59512200D01*
X117640000Y-60402200D02*
X123640000Y-60402200D01*
X123640000Y-60402200D02*
X123640000Y-61162200D01*
X123640000Y-61162200D02*
X117640000Y-61162200D01*
X114582929Y-60402200D02*
X114980000Y-60402200D01*
X114582929Y-61162200D02*
X114980000Y-61162200D01*
X112042929Y-60402200D02*
X112497071Y-60402200D01*
X112042929Y-61162200D02*
X112497071Y-61162200D01*
X114980000Y-62052200D02*
X117640000Y-62052200D01*
X117640000Y-62942200D02*
X123640000Y-62942200D01*
X123640000Y-62942200D02*
X123640000Y-63702200D01*
X123640000Y-63702200D02*
X117640000Y-63702200D01*
X114582929Y-62942200D02*
X114980000Y-62942200D01*
X114582929Y-63702200D02*
X114980000Y-63702200D01*
X112042929Y-62942200D02*
X112497071Y-62942200D01*
X112042929Y-63702200D02*
X112497071Y-63702200D01*
X114980000Y-64592200D02*
X117640000Y-64592200D01*
X117640000Y-65482200D02*
X123640000Y-65482200D01*
X123640000Y-65482200D02*
X123640000Y-66242200D01*
X123640000Y-66242200D02*
X117640000Y-66242200D01*
X114582929Y-65482200D02*
X114980000Y-65482200D01*
X114582929Y-66242200D02*
X114980000Y-66242200D01*
X112042929Y-65482200D02*
X112497071Y-65482200D01*
X112042929Y-66242200D02*
X112497071Y-66242200D01*
X114980000Y-67132200D02*
X117640000Y-67132200D01*
X117640000Y-68022200D02*
X123640000Y-68022200D01*
X123640000Y-68022200D02*
X123640000Y-68782200D01*
X123640000Y-68782200D02*
X117640000Y-68782200D01*
X114582929Y-68022200D02*
X114980000Y-68022200D01*
X114582929Y-68782200D02*
X114980000Y-68782200D01*
X112042929Y-68022200D02*
X112497071Y-68022200D01*
X112042929Y-68782200D02*
X112497071Y-68782200D01*
X109730000Y-53162200D02*
X109730000Y-51892200D01*
X109730000Y-51892200D02*
X111000000Y-51892200D01*
X102400000Y-68110000D02*
X104600000Y-68110000D01*
X102400000Y-68110000D02*
X100200000Y-68110000D01*
X102400000Y-61340000D02*
X104600000Y-61340000D01*
X102400000Y-61340000D02*
X98800000Y-61340000D01*
X108710000Y-55915835D02*
X108710000Y-55684165D01*
X107990000Y-55915835D02*
X107990000Y-55684165D01*
X84832379Y-63420000D02*
X85167621Y-63420000D01*
X84832379Y-64180000D02*
X85167621Y-64180000D01*
X89829621Y-58546000D02*
X89494379Y-58546000D01*
X89829621Y-57786000D02*
X89494379Y-57786000D01*
X102503621Y-61022500D02*
X102168379Y-61022500D01*
X102503621Y-60262500D02*
X102168379Y-60262500D01*
X108730000Y-57882379D02*
X108730000Y-58217621D01*
X107970000Y-57882379D02*
X107970000Y-58217621D01*
X99842621Y-61022500D02*
X99507379Y-61022500D01*
X99842621Y-60262500D02*
X99507379Y-60262500D01*
X89841721Y-59562000D02*
X89506479Y-59562000D01*
X89841721Y-58802000D02*
X89506479Y-58802000D01*
X85167621Y-62205000D02*
X84832379Y-62205000D01*
X85167621Y-61445000D02*
X84832379Y-61445000D01*
X72303621Y-62431400D02*
X71968379Y-62431400D01*
X72303621Y-61671400D02*
X71968379Y-61671400D01*
X72303621Y-63447400D02*
X71968379Y-63447400D01*
X72303621Y-62687400D02*
X71968379Y-62687400D01*
X95959165Y-56390000D02*
X96190835Y-56390000D01*
X95959165Y-57110000D02*
X96190835Y-57110000D01*
X109010000Y-52334165D02*
X109010000Y-52565835D01*
X108290000Y-52334165D02*
X108290000Y-52565835D01*
X95658767Y-56010000D02*
X95366233Y-56010000D01*
X95658767Y-54990000D02*
X95366233Y-54990000D01*
X104184233Y-58862500D02*
X104476767Y-58862500D01*
X104184233Y-59882500D02*
X104476767Y-59882500D01*
X104468665Y-60282500D02*
X104700335Y-60282500D01*
X104468665Y-61002500D02*
X104700335Y-61002500D01*
X97140835Y-62460000D02*
X96909165Y-62460000D01*
X97140835Y-61740000D02*
X96909165Y-61740000D01*
X84884165Y-64440000D02*
X85115835Y-64440000D01*
X84884165Y-65160000D02*
X85115835Y-65160000D01*
X84860000Y-66684165D02*
X84860000Y-66915835D01*
X84140000Y-66684165D02*
X84140000Y-66915835D01*
X89896733Y-56005000D02*
X90189267Y-56005000D01*
X89896733Y-57025000D02*
X90189267Y-57025000D01*
X74390000Y-61365835D02*
X74390000Y-61134165D01*
X75110000Y-61365835D02*
X75110000Y-61134165D01*
X82365835Y-68135000D02*
X82134165Y-68135000D01*
X82365835Y-67415000D02*
X82134165Y-67415000D01*
X85115835Y-63185000D02*
X84884165Y-63185000D01*
X85115835Y-62465000D02*
X84884165Y-62465000D01*
X77660000Y-56984165D02*
X77660000Y-57215835D01*
X76940000Y-56984165D02*
X76940000Y-57215835D01*
X76560000Y-56953733D02*
X76560000Y-57246267D01*
X75540000Y-56953733D02*
X75540000Y-57246267D01*
X70753733Y-65990000D02*
X71046267Y-65990000D01*
X70753733Y-67010000D02*
X71046267Y-67010000D01*
X70209165Y-64890000D02*
X70440835Y-64890000D01*
X70209165Y-65610000D02*
X70440835Y-65610000D01*
X93245000Y-59906000D02*
X93245000Y-62366000D01*
X93245000Y-62366000D02*
X94715000Y-62366000D01*
X94715000Y-62366000D02*
X94715000Y-59906000D01*
X91721000Y-59906000D02*
X91721000Y-62366000D01*
X91721000Y-62366000D02*
X93191000Y-62366000D01*
X93191000Y-62366000D02*
X93191000Y-59906000D01*
D16*
X68291666Y-54802380D02*
X68291666Y-55516666D01*
X68244047Y-55659523D01*
X68148809Y-55754761D01*
X68005952Y-55802380D01*
X67910714Y-55802380D01*
X69291666Y-55802380D02*
X68720238Y-55802380D01*
X69005952Y-55802380D02*
X69005952Y-54802380D01*
X68910714Y-54945238D01*
X68815476Y-55040476D01*
X68720238Y-55088095D01*
X107092695Y-66491066D02*
X106705647Y-66728133D01*
X107092695Y-66897466D02*
X106279895Y-66897466D01*
X106279895Y-66626533D01*
X106318600Y-66558800D01*
X106357304Y-66524933D01*
X106434714Y-66491066D01*
X106550828Y-66491066D01*
X106628238Y-66524933D01*
X106666942Y-66558800D01*
X106705647Y-66626533D01*
X106705647Y-66897466D01*
X107092695Y-66186266D02*
X106279895Y-66186266D01*
X107092695Y-65779866D01*
X106279895Y-65779866D01*
X106357304Y-65475066D02*
X106318600Y-65441200D01*
X106279895Y-65373466D01*
X106279895Y-65204133D01*
X106318600Y-65136400D01*
X106357304Y-65102533D01*
X106434714Y-65068666D01*
X106512123Y-65068666D01*
X106628238Y-65102533D01*
X107092695Y-65508933D01*
X107092695Y-65068666D01*
X107092695Y-61391066D02*
X106705647Y-61628133D01*
X107092695Y-61797466D02*
X106279895Y-61797466D01*
X106279895Y-61526533D01*
X106318600Y-61458800D01*
X106357304Y-61424933D01*
X106434714Y-61391066D01*
X106550828Y-61391066D01*
X106628238Y-61424933D01*
X106666942Y-61458800D01*
X106705647Y-61526533D01*
X106705647Y-61797466D01*
X107092695Y-61086266D02*
X106279895Y-61086266D01*
X107092695Y-60679866D01*
X106279895Y-60679866D01*
X107092695Y-59968666D02*
X107092695Y-60375066D01*
X107092695Y-60171866D02*
X106279895Y-60171866D01*
X106396009Y-60239600D01*
X106473419Y-60307333D01*
X106512123Y-60375066D01*
X99058133Y-53904895D02*
X99058133Y-54562876D01*
X99092000Y-54640285D01*
X99125866Y-54678990D01*
X99193600Y-54717695D01*
X99329066Y-54717695D01*
X99396800Y-54678990D01*
X99430666Y-54640285D01*
X99464533Y-54562876D01*
X99464533Y-53904895D01*
X99735466Y-53904895D02*
X100175733Y-53904895D01*
X99938666Y-54214533D01*
X100040266Y-54214533D01*
X100108000Y-54253238D01*
X100141866Y-54291942D01*
X100175733Y-54369352D01*
X100175733Y-54562876D01*
X100141866Y-54640285D01*
X100108000Y-54678990D01*
X100040266Y-54717695D01*
X99837066Y-54717695D01*
X99769333Y-54678990D01*
X99735466Y-54640285D01*
X70231466Y-61265285D02*
X70197600Y-61303990D01*
X70096000Y-61342695D01*
X70028266Y-61342695D01*
X69926666Y-61303990D01*
X69858933Y-61226580D01*
X69825066Y-61149171D01*
X69791200Y-60994352D01*
X69791200Y-60878238D01*
X69825066Y-60723419D01*
X69858933Y-60646009D01*
X69926666Y-60568600D01*
X70028266Y-60529895D01*
X70096000Y-60529895D01*
X70197600Y-60568600D01*
X70231466Y-60607304D01*
X70468533Y-60529895D02*
X70908800Y-60529895D01*
X70671733Y-60839533D01*
X70773333Y-60839533D01*
X70841066Y-60878238D01*
X70874933Y-60916942D01*
X70908800Y-60994352D01*
X70908800Y-61187876D01*
X70874933Y-61265285D01*
X70841066Y-61303990D01*
X70773333Y-61342695D01*
X70570133Y-61342695D01*
X70502400Y-61303990D01*
X70468533Y-61265285D01*
X70281466Y-64440285D02*
X70247600Y-64478990D01*
X70146000Y-64517695D01*
X70078266Y-64517695D01*
X69976666Y-64478990D01*
X69908933Y-64401580D01*
X69875066Y-64324171D01*
X69841200Y-64169352D01*
X69841200Y-64053238D01*
X69875066Y-63898419D01*
X69908933Y-63821009D01*
X69976666Y-63743600D01*
X70078266Y-63704895D01*
X70146000Y-63704895D01*
X70247600Y-63743600D01*
X70281466Y-63782304D01*
X70552400Y-63782304D02*
X70586266Y-63743600D01*
X70654000Y-63704895D01*
X70823333Y-63704895D01*
X70891066Y-63743600D01*
X70924933Y-63782304D01*
X70958800Y-63859714D01*
X70958800Y-63937123D01*
X70924933Y-64053238D01*
X70518533Y-64517695D01*
X70958800Y-64517695D01*
X103732333Y-51479895D02*
X103732333Y-52060466D01*
X103698466Y-52176580D01*
X103630733Y-52253990D01*
X103529133Y-52292695D01*
X103461400Y-52292695D01*
X104071000Y-52292695D02*
X104071000Y-51479895D01*
X104341933Y-51479895D01*
X104409666Y-51518600D01*
X104443533Y-51557304D01*
X104477400Y-51634714D01*
X104477400Y-51750828D01*
X104443533Y-51828238D01*
X104409666Y-51866942D01*
X104341933Y-51905647D01*
X104071000Y-51905647D01*
X105154733Y-52292695D02*
X104748333Y-52292695D01*
X104951533Y-52292695D02*
X104951533Y-51479895D01*
X104883800Y-51596009D01*
X104816066Y-51673419D01*
X104748333Y-51712123D01*
D11*
X101391666Y-53002380D02*
X102010714Y-53002380D01*
X101677380Y-53383333D01*
X101820238Y-53383333D01*
X101915476Y-53430952D01*
X101963095Y-53478571D01*
X102010714Y-53573809D01*
X102010714Y-53811904D01*
X101963095Y-53907142D01*
X101915476Y-53954761D01*
X101820238Y-54002380D01*
X101534523Y-54002380D01*
X101439285Y-53954761D01*
X101391666Y-53907142D01*
D16*
X96367800Y-66115285D02*
X96333933Y-66153990D01*
X96232333Y-66192695D01*
X96164600Y-66192695D01*
X96063000Y-66153990D01*
X95995266Y-66076580D01*
X95961400Y-65999171D01*
X95927533Y-65844352D01*
X95927533Y-65728238D01*
X95961400Y-65573419D01*
X95995266Y-65496009D01*
X96063000Y-65418600D01*
X96164600Y-65379895D01*
X96232333Y-65379895D01*
X96333933Y-65418600D01*
X96367800Y-65457304D01*
X97045133Y-66192695D02*
X96638733Y-66192695D01*
X96841933Y-66192695D02*
X96841933Y-65379895D01*
X96774200Y-65496009D01*
X96706466Y-65573419D01*
X96638733Y-65612123D01*
X97688600Y-65379895D02*
X97349933Y-65379895D01*
X97316066Y-65766942D01*
X97349933Y-65728238D01*
X97417666Y-65689533D01*
X97587000Y-65689533D01*
X97654733Y-65728238D01*
X97688600Y-65766942D01*
X97722466Y-65844352D01*
X97722466Y-66037876D01*
X97688600Y-66115285D01*
X97654733Y-66153990D01*
X97587000Y-66192695D01*
X97417666Y-66192695D01*
X97349933Y-66153990D01*
X97316066Y-66115285D01*
X104316942Y-56762066D02*
X104316942Y-56999133D01*
X104742695Y-56999133D02*
X103929895Y-56999133D01*
X103929895Y-56660466D01*
X104742695Y-56017000D02*
X104742695Y-56423400D01*
X104742695Y-56220200D02*
X103929895Y-56220200D01*
X104046009Y-56287933D01*
X104123419Y-56355666D01*
X104162123Y-56423400D01*
X106640285Y-56157200D02*
X106678990Y-56191066D01*
X106717695Y-56292666D01*
X106717695Y-56360400D01*
X106678990Y-56462000D01*
X106601580Y-56529733D01*
X106524171Y-56563600D01*
X106369352Y-56597466D01*
X106253238Y-56597466D01*
X106098419Y-56563600D01*
X106021009Y-56529733D01*
X105943600Y-56462000D01*
X105904895Y-56360400D01*
X105904895Y-56292666D01*
X105943600Y-56191066D01*
X105982304Y-56157200D01*
X105982304Y-55886266D02*
X105943600Y-55852400D01*
X105904895Y-55784666D01*
X105904895Y-55615333D01*
X105943600Y-55547600D01*
X105982304Y-55513733D01*
X106059714Y-55479866D01*
X106137123Y-55479866D01*
X106253238Y-55513733D01*
X106717695Y-55920133D01*
X106717695Y-55479866D01*
X106717695Y-54802533D02*
X106717695Y-55208933D01*
X106717695Y-55005733D02*
X105904895Y-55005733D01*
X106021009Y-55073466D01*
X106098419Y-55141200D01*
X106137123Y-55208933D01*
X77180285Y-54567200D02*
X77218990Y-54601066D01*
X77257695Y-54702666D01*
X77257695Y-54770400D01*
X77218990Y-54872000D01*
X77141580Y-54939733D01*
X77064171Y-54973600D01*
X76909352Y-55007466D01*
X76793238Y-55007466D01*
X76638419Y-54973600D01*
X76561009Y-54939733D01*
X76483600Y-54872000D01*
X76444895Y-54770400D01*
X76444895Y-54702666D01*
X76483600Y-54601066D01*
X76522304Y-54567200D01*
X76522304Y-54296266D02*
X76483600Y-54262400D01*
X76444895Y-54194666D01*
X76444895Y-54025333D01*
X76483600Y-53957600D01*
X76522304Y-53923733D01*
X76599714Y-53889866D01*
X76677123Y-53889866D01*
X76793238Y-53923733D01*
X77257695Y-54330133D01*
X77257695Y-53889866D01*
X76444895Y-53652800D02*
X76444895Y-53212533D01*
X76754533Y-53449600D01*
X76754533Y-53348000D01*
X76793238Y-53280266D01*
X76831942Y-53246400D01*
X76909352Y-53212533D01*
X77102876Y-53212533D01*
X77180285Y-53246400D01*
X77218990Y-53280266D01*
X77257695Y-53348000D01*
X77257695Y-53551200D01*
X77218990Y-53618933D01*
X77180285Y-53652800D01*
D11*
X78458133Y-66704895D02*
X78458133Y-67362876D01*
X78492000Y-67440285D01*
X78525866Y-67478990D01*
X78593600Y-67517695D01*
X78729066Y-67517695D01*
X78796800Y-67478990D01*
X78830666Y-67440285D01*
X78864533Y-67362876D01*
X78864533Y-66704895D01*
X79169333Y-66782304D02*
X79203200Y-66743600D01*
X79270933Y-66704895D01*
X79440266Y-66704895D01*
X79508000Y-66743600D01*
X79541866Y-66782304D01*
X79575733Y-66859714D01*
X79575733Y-66937123D01*
X79541866Y-67053238D01*
X79135466Y-67517695D01*
X79575733Y-67517695D01*
X82462933Y-59354895D02*
X82462933Y-59935466D01*
X82429066Y-60051580D01*
X82361333Y-60128990D01*
X82259733Y-60167695D01*
X82192000Y-60167695D01*
X82733866Y-59354895D02*
X83174133Y-59354895D01*
X82937066Y-59664533D01*
X83038666Y-59664533D01*
X83106400Y-59703238D01*
X83140266Y-59741942D01*
X83174133Y-59819352D01*
X83174133Y-60012876D01*
X83140266Y-60090285D01*
X83106400Y-60128990D01*
X83038666Y-60167695D01*
X82835466Y-60167695D01*
X82767733Y-60128990D01*
X82733866Y-60090285D01*
X74631466Y-66817695D02*
X74394400Y-66430647D01*
X74225066Y-66817695D02*
X74225066Y-66004895D01*
X74496000Y-66004895D01*
X74563733Y-66043600D01*
X74597600Y-66082304D01*
X74631466Y-66159714D01*
X74631466Y-66275828D01*
X74597600Y-66353238D01*
X74563733Y-66391942D01*
X74496000Y-66430647D01*
X74225066Y-66430647D01*
X74868533Y-66004895D02*
X75342666Y-66004895D01*
X75037866Y-66817695D01*
X87661333Y-68530647D02*
X87661333Y-68917695D01*
X87424266Y-68104895D02*
X87661333Y-68530647D01*
X87898400Y-68104895D01*
X88508000Y-68917695D02*
X88101600Y-68917695D01*
X88304800Y-68917695D02*
X88304800Y-68104895D01*
X88237066Y-68221009D01*
X88169333Y-68298419D01*
X88101600Y-68337123D01*
X92815285Y-67257200D02*
X92853990Y-67291066D01*
X92892695Y-67392666D01*
X92892695Y-67460400D01*
X92853990Y-67562000D01*
X92776580Y-67629733D01*
X92699171Y-67663600D01*
X92544352Y-67697466D01*
X92428238Y-67697466D01*
X92273419Y-67663600D01*
X92196009Y-67629733D01*
X92118600Y-67562000D01*
X92079895Y-67460400D01*
X92079895Y-67392666D01*
X92118600Y-67291066D01*
X92157304Y-67257200D01*
X92892695Y-66579866D02*
X92892695Y-66986266D01*
X92892695Y-66783066D02*
X92079895Y-66783066D01*
X92196009Y-66850800D01*
X92273419Y-66918533D01*
X92312123Y-66986266D01*
X92079895Y-66342800D02*
X92079895Y-65902533D01*
X92389533Y-66139600D01*
X92389533Y-66038000D01*
X92428238Y-65970266D01*
X92466942Y-65936400D01*
X92544352Y-65902533D01*
X92737876Y-65902533D01*
X92815285Y-65936400D01*
X92853990Y-65970266D01*
X92892695Y-66038000D01*
X92892695Y-66241200D01*
X92853990Y-66308933D01*
X92815285Y-66342800D01*
X72183133Y-58879895D02*
X72183133Y-59537876D01*
X72217000Y-59615285D01*
X72250866Y-59653990D01*
X72318600Y-59692695D01*
X72454066Y-59692695D01*
X72521800Y-59653990D01*
X72555666Y-59615285D01*
X72589533Y-59537876D01*
X72589533Y-58879895D01*
X73300733Y-59692695D02*
X72894333Y-59692695D01*
X73097533Y-59692695D02*
X73097533Y-58879895D01*
X73029800Y-58996009D01*
X72962066Y-59073419D01*
X72894333Y-59112123D01*
X104142800Y-70133695D02*
X103905733Y-69746647D01*
X103736400Y-70133695D02*
X103736400Y-69320895D01*
X104007333Y-69320895D01*
X104075066Y-69359600D01*
X104108933Y-69398304D01*
X104142800Y-69475714D01*
X104142800Y-69591828D01*
X104108933Y-69669238D01*
X104075066Y-69707942D01*
X104007333Y-69746647D01*
X103736400Y-69746647D01*
X104820133Y-70133695D02*
X104413733Y-70133695D01*
X104616933Y-70133695D02*
X104616933Y-69320895D01*
X104549200Y-69437009D01*
X104481466Y-69514419D01*
X104413733Y-69553123D01*
X105260400Y-69320895D02*
X105328133Y-69320895D01*
X105395866Y-69359600D01*
X105429733Y-69398304D01*
X105463600Y-69475714D01*
X105497466Y-69630533D01*
X105497466Y-69824057D01*
X105463600Y-69978876D01*
X105429733Y-70056285D01*
X105395866Y-70094990D01*
X105328133Y-70133695D01*
X105260400Y-70133695D01*
X105192666Y-70094990D01*
X105158800Y-70056285D01*
X105124933Y-69978876D01*
X105091066Y-69824057D01*
X105091066Y-69630533D01*
X105124933Y-69475714D01*
X105158800Y-69398304D01*
X105192666Y-69359600D01*
X105260400Y-69320895D01*
X108571695Y-68766266D02*
X109152266Y-68766266D01*
X109268380Y-68800133D01*
X109345790Y-68867866D01*
X109384495Y-68969466D01*
X109384495Y-69037200D01*
X108649104Y-68461466D02*
X108610400Y-68427600D01*
X108571695Y-68359866D01*
X108571695Y-68190533D01*
X108610400Y-68122800D01*
X108649104Y-68088933D01*
X108726514Y-68055066D01*
X108803923Y-68055066D01*
X108920038Y-68088933D01*
X109384495Y-68495333D01*
X109384495Y-68055066D01*
X102108133Y-68354895D02*
X102108133Y-69012876D01*
X102142000Y-69090285D01*
X102175866Y-69128990D01*
X102243600Y-69167695D01*
X102379066Y-69167695D01*
X102446800Y-69128990D01*
X102480666Y-69090285D01*
X102514533Y-69012876D01*
X102514533Y-68354895D01*
X103158000Y-68625828D02*
X103158000Y-69167695D01*
X102988666Y-68316190D02*
X102819333Y-68896761D01*
X103259600Y-68896761D01*
X109640285Y-56257200D02*
X109678990Y-56291066D01*
X109717695Y-56392666D01*
X109717695Y-56460400D01*
X109678990Y-56562000D01*
X109601580Y-56629733D01*
X109524171Y-56663600D01*
X109369352Y-56697466D01*
X109253238Y-56697466D01*
X109098419Y-56663600D01*
X109021009Y-56629733D01*
X108943600Y-56562000D01*
X108904895Y-56460400D01*
X108904895Y-56392666D01*
X108943600Y-56291066D01*
X108982304Y-56257200D01*
X109717695Y-55579866D02*
X109717695Y-55986266D01*
X109717695Y-55783066D02*
X108904895Y-55783066D01*
X109021009Y-55850800D01*
X109098419Y-55918533D01*
X109137123Y-55986266D01*
X109175828Y-54970266D02*
X109717695Y-54970266D01*
X108866190Y-55139600D02*
X109446761Y-55308933D01*
X109446761Y-54868666D01*
X86601466Y-64192695D02*
X86364400Y-63805647D01*
X86195066Y-64192695D02*
X86195066Y-63379895D01*
X86466000Y-63379895D01*
X86533733Y-63418600D01*
X86567600Y-63457304D01*
X86601466Y-63534714D01*
X86601466Y-63650828D01*
X86567600Y-63728238D01*
X86533733Y-63766942D01*
X86466000Y-63805647D01*
X86195066Y-63805647D01*
X86838533Y-63379895D02*
X87278800Y-63379895D01*
X87041733Y-63689533D01*
X87143333Y-63689533D01*
X87211066Y-63728238D01*
X87244933Y-63766942D01*
X87278800Y-63844352D01*
X87278800Y-64037876D01*
X87244933Y-64115285D01*
X87211066Y-64153990D01*
X87143333Y-64192695D01*
X86940133Y-64192695D01*
X86872400Y-64153990D01*
X86838533Y-64115285D01*
X87801466Y-58527695D02*
X87564400Y-58140647D01*
X87395066Y-58527695D02*
X87395066Y-57714895D01*
X87666000Y-57714895D01*
X87733733Y-57753600D01*
X87767600Y-57792304D01*
X87801466Y-57869714D01*
X87801466Y-57985828D01*
X87767600Y-58063238D01*
X87733733Y-58101942D01*
X87666000Y-58140647D01*
X87395066Y-58140647D01*
X88411066Y-57714895D02*
X88275600Y-57714895D01*
X88207866Y-57753600D01*
X88174000Y-57792304D01*
X88106266Y-57908419D01*
X88072400Y-58063238D01*
X88072400Y-58372876D01*
X88106266Y-58450285D01*
X88140133Y-58488990D01*
X88207866Y-58527695D01*
X88343333Y-58527695D01*
X88411066Y-58488990D01*
X88444933Y-58450285D01*
X88478800Y-58372876D01*
X88478800Y-58179352D01*
X88444933Y-58101942D01*
X88411066Y-58063238D01*
X88343333Y-58024533D01*
X88207866Y-58024533D01*
X88140133Y-58063238D01*
X88106266Y-58101942D01*
X88072400Y-58179352D01*
X101267800Y-60067695D02*
X101030733Y-59680647D01*
X100861400Y-60067695D02*
X100861400Y-59254895D01*
X101132333Y-59254895D01*
X101200066Y-59293600D01*
X101233933Y-59332304D01*
X101267800Y-59409714D01*
X101267800Y-59525828D01*
X101233933Y-59603238D01*
X101200066Y-59641942D01*
X101132333Y-59680647D01*
X100861400Y-59680647D01*
X101945133Y-60067695D02*
X101538733Y-60067695D01*
X101741933Y-60067695D02*
X101741933Y-59254895D01*
X101674200Y-59371009D01*
X101606466Y-59448419D01*
X101538733Y-59487123D01*
X102622466Y-60067695D02*
X102216066Y-60067695D01*
X102419266Y-60067695D02*
X102419266Y-59254895D01*
X102351533Y-59371009D01*
X102283800Y-59448419D01*
X102216066Y-59487123D01*
X109742695Y-58168533D02*
X109355647Y-58405600D01*
X109742695Y-58574933D02*
X108929895Y-58574933D01*
X108929895Y-58304000D01*
X108968600Y-58236266D01*
X109007304Y-58202400D01*
X109084714Y-58168533D01*
X109200828Y-58168533D01*
X109278238Y-58202400D01*
X109316942Y-58236266D01*
X109355647Y-58304000D01*
X109355647Y-58574933D01*
X109278238Y-57762133D02*
X109239533Y-57829866D01*
X109200828Y-57863733D01*
X109123419Y-57897600D01*
X109084714Y-57897600D01*
X109007304Y-57863733D01*
X108968600Y-57829866D01*
X108929895Y-57762133D01*
X108929895Y-57626666D01*
X108968600Y-57558933D01*
X109007304Y-57525066D01*
X109084714Y-57491200D01*
X109123419Y-57491200D01*
X109200828Y-57525066D01*
X109239533Y-57558933D01*
X109278238Y-57626666D01*
X109278238Y-57762133D01*
X109316942Y-57829866D01*
X109355647Y-57863733D01*
X109433057Y-57897600D01*
X109587876Y-57897600D01*
X109665285Y-57863733D01*
X109703990Y-57829866D01*
X109742695Y-57762133D01*
X109742695Y-57626666D01*
X109703990Y-57558933D01*
X109665285Y-57525066D01*
X109587876Y-57491200D01*
X109433057Y-57491200D01*
X109355647Y-57525066D01*
X109316942Y-57558933D01*
X109278238Y-57626666D01*
X99581866Y-60042695D02*
X99344800Y-59655647D01*
X99175466Y-60042695D02*
X99175466Y-59229895D01*
X99446400Y-59229895D01*
X99514133Y-59268600D01*
X99548000Y-59307304D01*
X99581866Y-59384714D01*
X99581866Y-59500828D01*
X99548000Y-59578238D01*
X99514133Y-59616942D01*
X99446400Y-59655647D01*
X99175466Y-59655647D01*
X99920533Y-60042695D02*
X100056000Y-60042695D01*
X100123733Y-60003990D01*
X100157600Y-59965285D01*
X100225333Y-59849171D01*
X100259200Y-59694352D01*
X100259200Y-59384714D01*
X100225333Y-59307304D01*
X100191466Y-59268600D01*
X100123733Y-59229895D01*
X99988266Y-59229895D01*
X99920533Y-59268600D01*
X99886666Y-59307304D01*
X99852800Y-59384714D01*
X99852800Y-59578238D01*
X99886666Y-59655647D01*
X99920533Y-59694352D01*
X99988266Y-59733057D01*
X100123733Y-59733057D01*
X100191466Y-59694352D01*
X100225333Y-59655647D01*
X100259200Y-59578238D01*
X87801466Y-59549695D02*
X87564400Y-59162647D01*
X87395066Y-59549695D02*
X87395066Y-58736895D01*
X87666000Y-58736895D01*
X87733733Y-58775600D01*
X87767600Y-58814304D01*
X87801466Y-58891714D01*
X87801466Y-59007828D01*
X87767600Y-59085238D01*
X87733733Y-59123942D01*
X87666000Y-59162647D01*
X87395066Y-59162647D01*
X88444933Y-58736895D02*
X88106266Y-58736895D01*
X88072400Y-59123942D01*
X88106266Y-59085238D01*
X88174000Y-59046533D01*
X88343333Y-59046533D01*
X88411066Y-59085238D01*
X88444933Y-59123942D01*
X88478800Y-59201352D01*
X88478800Y-59394876D01*
X88444933Y-59472285D01*
X88411066Y-59510990D01*
X88343333Y-59549695D01*
X88174000Y-59549695D01*
X88106266Y-59510990D01*
X88072400Y-59472285D01*
X86581466Y-62142695D02*
X86344400Y-61755647D01*
X86175066Y-62142695D02*
X86175066Y-61329895D01*
X86446000Y-61329895D01*
X86513733Y-61368600D01*
X86547600Y-61407304D01*
X86581466Y-61484714D01*
X86581466Y-61600828D01*
X86547600Y-61678238D01*
X86513733Y-61716942D01*
X86446000Y-61755647D01*
X86175066Y-61755647D01*
X87191066Y-61600828D02*
X87191066Y-62142695D01*
X87021733Y-61291190D02*
X86852400Y-61871761D01*
X87292666Y-61871761D01*
X70302966Y-62392695D02*
X70065900Y-62005647D01*
X69896566Y-62392695D02*
X69896566Y-61579895D01*
X70167500Y-61579895D01*
X70235233Y-61618600D01*
X70269100Y-61657304D01*
X70302966Y-61734714D01*
X70302966Y-61850828D01*
X70269100Y-61928238D01*
X70235233Y-61966942D01*
X70167500Y-62005647D01*
X69896566Y-62005647D01*
X70573900Y-61657304D02*
X70607766Y-61618600D01*
X70675500Y-61579895D01*
X70844833Y-61579895D01*
X70912566Y-61618600D01*
X70946433Y-61657304D01*
X70980300Y-61734714D01*
X70980300Y-61812123D01*
X70946433Y-61928238D01*
X70540033Y-62392695D01*
X70980300Y-62392695D01*
X70302966Y-63442695D02*
X70065900Y-63055647D01*
X69896566Y-63442695D02*
X69896566Y-62629895D01*
X70167500Y-62629895D01*
X70235233Y-62668600D01*
X70269100Y-62707304D01*
X70302966Y-62784714D01*
X70302966Y-62900828D01*
X70269100Y-62978238D01*
X70235233Y-63016942D01*
X70167500Y-63055647D01*
X69896566Y-63055647D01*
X70980300Y-63442695D02*
X70573900Y-63442695D01*
X70777100Y-63442695D02*
X70777100Y-62629895D01*
X70709366Y-62746009D01*
X70641633Y-62823419D01*
X70573900Y-62862123D01*
X93542800Y-57065285D02*
X93508933Y-57103990D01*
X93407333Y-57142695D01*
X93339600Y-57142695D01*
X93238000Y-57103990D01*
X93170266Y-57026580D01*
X93136400Y-56949171D01*
X93102533Y-56794352D01*
X93102533Y-56678238D01*
X93136400Y-56523419D01*
X93170266Y-56446009D01*
X93238000Y-56368600D01*
X93339600Y-56329895D01*
X93407333Y-56329895D01*
X93508933Y-56368600D01*
X93542800Y-56407304D01*
X94220133Y-57142695D02*
X93813733Y-57142695D01*
X94016933Y-57142695D02*
X94016933Y-56329895D01*
X93949200Y-56446009D01*
X93881466Y-56523419D01*
X93813733Y-56562123D01*
X94558800Y-57142695D02*
X94694266Y-57142695D01*
X94762000Y-57103990D01*
X94795866Y-57065285D01*
X94863600Y-56949171D01*
X94897466Y-56794352D01*
X94897466Y-56484714D01*
X94863600Y-56407304D01*
X94829733Y-56368600D01*
X94762000Y-56329895D01*
X94626533Y-56329895D01*
X94558800Y-56368600D01*
X94524933Y-56407304D01*
X94491066Y-56484714D01*
X94491066Y-56678238D01*
X94524933Y-56755647D01*
X94558800Y-56794352D01*
X94626533Y-56833057D01*
X94762000Y-56833057D01*
X94829733Y-56794352D01*
X94863600Y-56755647D01*
X94897466Y-56678238D01*
X107715285Y-55982200D02*
X107753990Y-56016066D01*
X107792695Y-56117666D01*
X107792695Y-56185400D01*
X107753990Y-56287000D01*
X107676580Y-56354733D01*
X107599171Y-56388600D01*
X107444352Y-56422466D01*
X107328238Y-56422466D01*
X107173419Y-56388600D01*
X107096009Y-56354733D01*
X107018600Y-56287000D01*
X106979895Y-56185400D01*
X106979895Y-56117666D01*
X107018600Y-56016066D01*
X107057304Y-55982200D01*
X107057304Y-55711266D02*
X107018600Y-55677400D01*
X106979895Y-55609666D01*
X106979895Y-55440333D01*
X107018600Y-55372600D01*
X107057304Y-55338733D01*
X107134714Y-55304866D01*
X107212123Y-55304866D01*
X107328238Y-55338733D01*
X107792695Y-55745133D01*
X107792695Y-55304866D01*
X107057304Y-55033933D02*
X107018600Y-55000066D01*
X106979895Y-54932333D01*
X106979895Y-54763000D01*
X107018600Y-54695266D01*
X107057304Y-54661400D01*
X107134714Y-54627533D01*
X107212123Y-54627533D01*
X107328238Y-54661400D01*
X107792695Y-55067800D01*
X107792695Y-54627533D01*
X92467800Y-55790285D02*
X92433933Y-55828990D01*
X92332333Y-55867695D01*
X92264600Y-55867695D01*
X92163000Y-55828990D01*
X92095266Y-55751580D01*
X92061400Y-55674171D01*
X92027533Y-55519352D01*
X92027533Y-55403238D01*
X92061400Y-55248419D01*
X92095266Y-55171009D01*
X92163000Y-55093600D01*
X92264600Y-55054895D01*
X92332333Y-55054895D01*
X92433933Y-55093600D01*
X92467800Y-55132304D01*
X93145133Y-55867695D02*
X92738733Y-55867695D01*
X92941933Y-55867695D02*
X92941933Y-55054895D01*
X92874200Y-55171009D01*
X92806466Y-55248419D01*
X92738733Y-55287123D01*
X93382200Y-55054895D02*
X93856333Y-55054895D01*
X93551533Y-55867695D01*
X106367800Y-58565285D02*
X106333933Y-58603990D01*
X106232333Y-58642695D01*
X106164600Y-58642695D01*
X106063000Y-58603990D01*
X105995266Y-58526580D01*
X105961400Y-58449171D01*
X105927533Y-58294352D01*
X105927533Y-58178238D01*
X105961400Y-58023419D01*
X105995266Y-57946009D01*
X106063000Y-57868600D01*
X106164600Y-57829895D01*
X106232333Y-57829895D01*
X106333933Y-57868600D01*
X106367800Y-57907304D01*
X106638733Y-57907304D02*
X106672600Y-57868600D01*
X106740333Y-57829895D01*
X106909666Y-57829895D01*
X106977400Y-57868600D01*
X107011266Y-57907304D01*
X107045133Y-57984714D01*
X107045133Y-58062123D01*
X107011266Y-58178238D01*
X106604866Y-58642695D01*
X107045133Y-58642695D01*
X107485400Y-57829895D02*
X107553133Y-57829895D01*
X107620866Y-57868600D01*
X107654733Y-57907304D01*
X107688600Y-57984714D01*
X107722466Y-58139533D01*
X107722466Y-58333057D01*
X107688600Y-58487876D01*
X107654733Y-58565285D01*
X107620866Y-58603990D01*
X107553133Y-58642695D01*
X107485400Y-58642695D01*
X107417666Y-58603990D01*
X107383800Y-58565285D01*
X107349933Y-58487876D01*
X107316066Y-58333057D01*
X107316066Y-58139533D01*
X107349933Y-57984714D01*
X107383800Y-57907304D01*
X107417666Y-57868600D01*
X107485400Y-57829895D01*
X106392800Y-59590285D02*
X106358933Y-59628990D01*
X106257333Y-59667695D01*
X106189600Y-59667695D01*
X106088000Y-59628990D01*
X106020266Y-59551580D01*
X105986400Y-59474171D01*
X105952533Y-59319352D01*
X105952533Y-59203238D01*
X105986400Y-59048419D01*
X106020266Y-58971009D01*
X106088000Y-58893600D01*
X106189600Y-58854895D01*
X106257333Y-58854895D01*
X106358933Y-58893600D01*
X106392800Y-58932304D01*
X107070133Y-59667695D02*
X106663733Y-59667695D01*
X106866933Y-59667695D02*
X106866933Y-58854895D01*
X106799200Y-58971009D01*
X106731466Y-59048419D01*
X106663733Y-59087123D01*
X107476533Y-59203238D02*
X107408800Y-59164533D01*
X107374933Y-59125828D01*
X107341066Y-59048419D01*
X107341066Y-59009714D01*
X107374933Y-58932304D01*
X107408800Y-58893600D01*
X107476533Y-58854895D01*
X107612000Y-58854895D01*
X107679733Y-58893600D01*
X107713600Y-58932304D01*
X107747466Y-59009714D01*
X107747466Y-59048419D01*
X107713600Y-59125828D01*
X107679733Y-59164533D01*
X107612000Y-59203238D01*
X107476533Y-59203238D01*
X107408800Y-59241942D01*
X107374933Y-59280647D01*
X107341066Y-59358057D01*
X107341066Y-59512876D01*
X107374933Y-59590285D01*
X107408800Y-59628990D01*
X107476533Y-59667695D01*
X107612000Y-59667695D01*
X107679733Y-59628990D01*
X107713600Y-59590285D01*
X107747466Y-59512876D01*
X107747466Y-59358057D01*
X107713600Y-59280647D01*
X107679733Y-59241942D01*
X107612000Y-59203238D01*
X96567800Y-65040285D02*
X96533933Y-65078990D01*
X96432333Y-65117695D01*
X96364600Y-65117695D01*
X96263000Y-65078990D01*
X96195266Y-65001580D01*
X96161400Y-64924171D01*
X96127533Y-64769352D01*
X96127533Y-64653238D01*
X96161400Y-64498419D01*
X96195266Y-64421009D01*
X96263000Y-64343600D01*
X96364600Y-64304895D01*
X96432333Y-64304895D01*
X96533933Y-64343600D01*
X96567800Y-64382304D01*
X97245133Y-65117695D02*
X96838733Y-65117695D01*
X97041933Y-65117695D02*
X97041933Y-64304895D01*
X96974200Y-64421009D01*
X96906466Y-64498419D01*
X96838733Y-64537123D01*
X97854733Y-64304895D02*
X97719266Y-64304895D01*
X97651533Y-64343600D01*
X97617666Y-64382304D01*
X97549933Y-64498419D01*
X97516066Y-64653238D01*
X97516066Y-64962876D01*
X97549933Y-65040285D01*
X97583800Y-65078990D01*
X97651533Y-65117695D01*
X97787000Y-65117695D01*
X97854733Y-65078990D01*
X97888600Y-65040285D01*
X97922466Y-64962876D01*
X97922466Y-64769352D01*
X97888600Y-64691942D01*
X97854733Y-64653238D01*
X97787000Y-64614533D01*
X97651533Y-64614533D01*
X97583800Y-64653238D01*
X97549933Y-64691942D01*
X97516066Y-64769352D01*
X86601466Y-65165285D02*
X86567600Y-65203990D01*
X86466000Y-65242695D01*
X86398266Y-65242695D01*
X86296666Y-65203990D01*
X86228933Y-65126580D01*
X86195066Y-65049171D01*
X86161200Y-64894352D01*
X86161200Y-64778238D01*
X86195066Y-64623419D01*
X86228933Y-64546009D01*
X86296666Y-64468600D01*
X86398266Y-64429895D01*
X86466000Y-64429895D01*
X86567600Y-64468600D01*
X86601466Y-64507304D01*
X87278800Y-65242695D02*
X86872400Y-65242695D01*
X87075600Y-65242695D02*
X87075600Y-64429895D01*
X87007866Y-64546009D01*
X86940133Y-64623419D01*
X86872400Y-64662123D01*
X83840285Y-66882200D02*
X83878990Y-66916066D01*
X83917695Y-67017666D01*
X83917695Y-67085400D01*
X83878990Y-67187000D01*
X83801580Y-67254733D01*
X83724171Y-67288600D01*
X83569352Y-67322466D01*
X83453238Y-67322466D01*
X83298419Y-67288600D01*
X83221009Y-67254733D01*
X83143600Y-67187000D01*
X83104895Y-67085400D01*
X83104895Y-67017666D01*
X83143600Y-66916066D01*
X83182304Y-66882200D01*
X83917695Y-66204866D02*
X83917695Y-66611266D01*
X83917695Y-66408066D02*
X83104895Y-66408066D01*
X83221009Y-66475800D01*
X83298419Y-66543533D01*
X83337123Y-66611266D01*
X83182304Y-65933933D02*
X83143600Y-65900066D01*
X83104895Y-65832333D01*
X83104895Y-65663000D01*
X83143600Y-65595266D01*
X83182304Y-65561400D01*
X83259714Y-65527533D01*
X83337123Y-65527533D01*
X83453238Y-65561400D01*
X83917695Y-65967800D01*
X83917695Y-65527533D01*
X87032800Y-56810285D02*
X86998933Y-56848990D01*
X86897333Y-56887695D01*
X86829600Y-56887695D01*
X86728000Y-56848990D01*
X86660266Y-56771580D01*
X86626400Y-56694171D01*
X86592533Y-56539352D01*
X86592533Y-56423238D01*
X86626400Y-56268419D01*
X86660266Y-56191009D01*
X86728000Y-56113600D01*
X86829600Y-56074895D01*
X86897333Y-56074895D01*
X86998933Y-56113600D01*
X87032800Y-56152304D01*
X87710133Y-56887695D02*
X87303733Y-56887695D01*
X87506933Y-56887695D02*
X87506933Y-56074895D01*
X87439200Y-56191009D01*
X87371466Y-56268419D01*
X87303733Y-56307123D01*
X88387466Y-56887695D02*
X87981066Y-56887695D01*
X88184266Y-56887695D02*
X88184266Y-56074895D01*
X88116533Y-56191009D01*
X88048800Y-56268419D01*
X87981066Y-56307123D01*
X74087785Y-61309033D02*
X74126490Y-61342900D01*
X74165195Y-61444500D01*
X74165195Y-61512233D01*
X74126490Y-61613833D01*
X74049080Y-61681566D01*
X73971671Y-61715433D01*
X73816852Y-61749300D01*
X73700738Y-61749300D01*
X73545919Y-61715433D01*
X73468509Y-61681566D01*
X73391100Y-61613833D01*
X73352395Y-61512233D01*
X73352395Y-61444500D01*
X73391100Y-61342900D01*
X73429804Y-61309033D01*
X74165195Y-60970366D02*
X74165195Y-60834900D01*
X74126490Y-60767166D01*
X74087785Y-60733300D01*
X73971671Y-60665566D01*
X73816852Y-60631700D01*
X73507214Y-60631700D01*
X73429804Y-60665566D01*
X73391100Y-60699433D01*
X73352395Y-60767166D01*
X73352395Y-60902633D01*
X73391100Y-60970366D01*
X73429804Y-61004233D01*
X73507214Y-61038100D01*
X73700738Y-61038100D01*
X73778147Y-61004233D01*
X73816852Y-60970366D01*
X73855557Y-60902633D01*
X73855557Y-60767166D01*
X73816852Y-60699433D01*
X73778147Y-60665566D01*
X73700738Y-60631700D01*
X80381466Y-68090285D02*
X80347600Y-68128990D01*
X80246000Y-68167695D01*
X80178266Y-68167695D01*
X80076666Y-68128990D01*
X80008933Y-68051580D01*
X79975066Y-67974171D01*
X79941200Y-67819352D01*
X79941200Y-67703238D01*
X79975066Y-67548419D01*
X80008933Y-67471009D01*
X80076666Y-67393600D01*
X80178266Y-67354895D01*
X80246000Y-67354895D01*
X80347600Y-67393600D01*
X80381466Y-67432304D01*
X80787866Y-67703238D02*
X80720133Y-67664533D01*
X80686266Y-67625828D01*
X80652400Y-67548419D01*
X80652400Y-67509714D01*
X80686266Y-67432304D01*
X80720133Y-67393600D01*
X80787866Y-67354895D01*
X80923333Y-67354895D01*
X80991066Y-67393600D01*
X81024933Y-67432304D01*
X81058800Y-67509714D01*
X81058800Y-67548419D01*
X81024933Y-67625828D01*
X80991066Y-67664533D01*
X80923333Y-67703238D01*
X80787866Y-67703238D01*
X80720133Y-67741942D01*
X80686266Y-67780647D01*
X80652400Y-67858057D01*
X80652400Y-68012876D01*
X80686266Y-68090285D01*
X80720133Y-68128990D01*
X80787866Y-68167695D01*
X80923333Y-68167695D01*
X80991066Y-68128990D01*
X81024933Y-68090285D01*
X81058800Y-68012876D01*
X81058800Y-67858057D01*
X81024933Y-67780647D01*
X80991066Y-67741942D01*
X80923333Y-67703238D01*
X86621466Y-63090285D02*
X86587600Y-63128990D01*
X86486000Y-63167695D01*
X86418266Y-63167695D01*
X86316666Y-63128990D01*
X86248933Y-63051580D01*
X86215066Y-62974171D01*
X86181200Y-62819352D01*
X86181200Y-62703238D01*
X86215066Y-62548419D01*
X86248933Y-62471009D01*
X86316666Y-62393600D01*
X86418266Y-62354895D01*
X86486000Y-62354895D01*
X86587600Y-62393600D01*
X86621466Y-62432304D01*
X87231066Y-62354895D02*
X87095600Y-62354895D01*
X87027866Y-62393600D01*
X86994000Y-62432304D01*
X86926266Y-62548419D01*
X86892400Y-62703238D01*
X86892400Y-63012876D01*
X86926266Y-63090285D01*
X86960133Y-63128990D01*
X87027866Y-63167695D01*
X87163333Y-63167695D01*
X87231066Y-63128990D01*
X87264933Y-63090285D01*
X87298800Y-63012876D01*
X87298800Y-62819352D01*
X87264933Y-62741942D01*
X87231066Y-62703238D01*
X87163333Y-62664533D01*
X87027866Y-62664533D01*
X86960133Y-62703238D01*
X86926266Y-62741942D01*
X86892400Y-62819352D01*
X77590285Y-59632200D02*
X77628990Y-59666066D01*
X77667695Y-59767666D01*
X77667695Y-59835400D01*
X77628990Y-59937000D01*
X77551580Y-60004733D01*
X77474171Y-60038600D01*
X77319352Y-60072466D01*
X77203238Y-60072466D01*
X77048419Y-60038600D01*
X76971009Y-60004733D01*
X76893600Y-59937000D01*
X76854895Y-59835400D01*
X76854895Y-59767666D01*
X76893600Y-59666066D01*
X76932304Y-59632200D01*
X77667695Y-58954866D02*
X77667695Y-59361266D01*
X77667695Y-59158066D02*
X76854895Y-59158066D01*
X76971009Y-59225800D01*
X77048419Y-59293533D01*
X77087123Y-59361266D01*
X76854895Y-58514600D02*
X76854895Y-58446866D01*
X76893600Y-58379133D01*
X76932304Y-58345266D01*
X77009714Y-58311400D01*
X77164533Y-58277533D01*
X77358057Y-58277533D01*
X77512876Y-58311400D01*
X77590285Y-58345266D01*
X77628990Y-58379133D01*
X77667695Y-58446866D01*
X77667695Y-58514600D01*
X77628990Y-58582333D01*
X77590285Y-58616200D01*
X77512876Y-58650066D01*
X77358057Y-58683933D01*
X77164533Y-58683933D01*
X77009714Y-58650066D01*
X76932304Y-58616200D01*
X76893600Y-58582333D01*
X76854895Y-58514600D01*
X76340285Y-59743533D02*
X76378990Y-59777400D01*
X76417695Y-59879000D01*
X76417695Y-59946733D01*
X76378990Y-60048333D01*
X76301580Y-60116066D01*
X76224171Y-60149933D01*
X76069352Y-60183800D01*
X75953238Y-60183800D01*
X75798419Y-60149933D01*
X75721009Y-60116066D01*
X75643600Y-60048333D01*
X75604895Y-59946733D01*
X75604895Y-59879000D01*
X75643600Y-59777400D01*
X75682304Y-59743533D01*
X75604895Y-59506466D02*
X75604895Y-59032333D01*
X76417695Y-59337133D01*
X73011466Y-66780285D02*
X72977600Y-66818990D01*
X72876000Y-66857695D01*
X72808266Y-66857695D01*
X72706666Y-66818990D01*
X72638933Y-66741580D01*
X72605066Y-66664171D01*
X72571200Y-66509352D01*
X72571200Y-66393238D01*
X72605066Y-66238419D01*
X72638933Y-66161009D01*
X72706666Y-66083600D01*
X72808266Y-66044895D01*
X72876000Y-66044895D01*
X72977600Y-66083600D01*
X73011466Y-66122304D01*
X73654933Y-66044895D02*
X73316266Y-66044895D01*
X73282400Y-66431942D01*
X73316266Y-66393238D01*
X73384000Y-66354533D01*
X73553333Y-66354533D01*
X73621066Y-66393238D01*
X73654933Y-66431942D01*
X73688800Y-66509352D01*
X73688800Y-66702876D01*
X73654933Y-66780285D01*
X73621066Y-66818990D01*
X73553333Y-66857695D01*
X73384000Y-66857695D01*
X73316266Y-66818990D01*
X73282400Y-66780285D01*
X71906466Y-65540285D02*
X71872600Y-65578990D01*
X71771000Y-65617695D01*
X71703266Y-65617695D01*
X71601666Y-65578990D01*
X71533933Y-65501580D01*
X71500066Y-65424171D01*
X71466200Y-65269352D01*
X71466200Y-65153238D01*
X71500066Y-64998419D01*
X71533933Y-64921009D01*
X71601666Y-64843600D01*
X71703266Y-64804895D01*
X71771000Y-64804895D01*
X71872600Y-64843600D01*
X71906466Y-64882304D01*
X72516066Y-65075828D02*
X72516066Y-65617695D01*
X72346733Y-64766190D02*
X72177400Y-65346761D01*
X72617666Y-65346761D01*
X93455066Y-58978195D02*
X93455066Y-58165395D01*
X93624400Y-58165395D01*
X93726000Y-58204100D01*
X93793733Y-58281509D01*
X93827600Y-58358919D01*
X93861466Y-58513738D01*
X93861466Y-58629852D01*
X93827600Y-58784671D01*
X93793733Y-58862080D01*
X93726000Y-58939490D01*
X93624400Y-58978195D01*
X93455066Y-58978195D01*
X94132400Y-58242804D02*
X94166266Y-58204100D01*
X94234000Y-58165395D01*
X94403333Y-58165395D01*
X94471066Y-58204100D01*
X94504933Y-58242804D01*
X94538800Y-58320214D01*
X94538800Y-58397623D01*
X94504933Y-58513738D01*
X94098533Y-58978195D01*
X94538800Y-58978195D01*
X91931066Y-58978195D02*
X91931066Y-58165395D01*
X92100400Y-58165395D01*
X92202000Y-58204100D01*
X92269733Y-58281509D01*
X92303600Y-58358919D01*
X92337466Y-58513738D01*
X92337466Y-58629852D01*
X92303600Y-58784671D01*
X92269733Y-58862080D01*
X92202000Y-58939490D01*
X92100400Y-58978195D01*
X91931066Y-58978195D01*
X93014800Y-58978195D02*
X92608400Y-58978195D01*
X92811600Y-58978195D02*
X92811600Y-58165395D01*
X92743866Y-58281509D01*
X92676133Y-58358919D01*
X92608400Y-58397623D01*
%LPC*%
D17*
X66075000Y-66525000D03*
X66075000Y-55125000D03*
D18*
X66075000Y-58575000D03*
X66075000Y-63075000D03*
D19*
X68175000Y-57325000D03*
X68175000Y-59825000D03*
X68175000Y-61825000D03*
G36*
G01*
X67421000Y-63471000D02*
X68929000Y-63471000D01*
G75*
G02*
X69029000Y-63571000I0J-100000D01*
G01*
X69029000Y-65079000D01*
G75*
G02*
X68929000Y-65179000I-100000J0D01*
G01*
X67421000Y-65179000D01*
G75*
G02*
X67321000Y-65079000I0J100000D01*
G01*
X67321000Y-63571000D01*
G75*
G02*
X67421000Y-63471000I100000J0D01*
G01*
G37*
G36*
G01*
X107200000Y-65450000D02*
X107200000Y-65050000D01*
G75*
G02*
X107300000Y-64950000I100000J0D01*
G01*
X107900000Y-64950000D01*
G75*
G02*
X108000000Y-65050000I0J-100000D01*
G01*
X108000000Y-65450000D01*
G75*
G02*
X107900000Y-65550000I-100000J0D01*
G01*
X107300000Y-65550000D01*
G75*
G02*
X107200000Y-65450000I0J100000D01*
G01*
G37*
G36*
G01*
X107200000Y-66400000D02*
X107200000Y-66100000D01*
G75*
G02*
X107300000Y-66000000I100000J0D01*
G01*
X107900000Y-66000000D01*
G75*
G02*
X108000000Y-66100000I0J-100000D01*
G01*
X108000000Y-66400000D01*
G75*
G02*
X107900000Y-66500000I-100000J0D01*
G01*
X107300000Y-66500000D01*
G75*
G02*
X107200000Y-66400000I0J100000D01*
G01*
G37*
G36*
G01*
X107200000Y-65900000D02*
X107200000Y-65600000D01*
G75*
G02*
X107300000Y-65500000I100000J0D01*
G01*
X107900000Y-65500000D01*
G75*
G02*
X108000000Y-65600000I0J-100000D01*
G01*
X108000000Y-65900000D01*
G75*
G02*
X107900000Y-66000000I-100000J0D01*
G01*
X107300000Y-66000000D01*
G75*
G02*
X107200000Y-65900000I0J100000D01*
G01*
G37*
G36*
G01*
X107200000Y-66950000D02*
X107200000Y-66550000D01*
G75*
G02*
X107300000Y-66450000I100000J0D01*
G01*
X107900000Y-66450000D01*
G75*
G02*
X108000000Y-66550000I0J-100000D01*
G01*
X108000000Y-66950000D01*
G75*
G02*
X107900000Y-67050000I-100000J0D01*
G01*
X107300000Y-67050000D01*
G75*
G02*
X107200000Y-66950000I0J100000D01*
G01*
G37*
G36*
G01*
X108300000Y-65900000D02*
X108300000Y-65600000D01*
G75*
G02*
X108400000Y-65500000I100000J0D01*
G01*
X109000000Y-65500000D01*
G75*
G02*
X109100000Y-65600000I0J-100000D01*
G01*
X109100000Y-65900000D01*
G75*
G02*
X109000000Y-66000000I-100000J0D01*
G01*
X108400000Y-66000000D01*
G75*
G02*
X108300000Y-65900000I0J100000D01*
G01*
G37*
G36*
G01*
X108300000Y-65450000D02*
X108300000Y-65050000D01*
G75*
G02*
X108400000Y-64950000I100000J0D01*
G01*
X109000000Y-64950000D01*
G75*
G02*
X109100000Y-65050000I0J-100000D01*
G01*
X109100000Y-65450000D01*
G75*
G02*
X109000000Y-65550000I-100000J0D01*
G01*
X108400000Y-65550000D01*
G75*
G02*
X108300000Y-65450000I0J100000D01*
G01*
G37*
G36*
G01*
X108300000Y-66400000D02*
X108300000Y-66100000D01*
G75*
G02*
X108400000Y-66000000I100000J0D01*
G01*
X109000000Y-66000000D01*
G75*
G02*
X109100000Y-66100000I0J-100000D01*
G01*
X109100000Y-66400000D01*
G75*
G02*
X109000000Y-66500000I-100000J0D01*
G01*
X108400000Y-66500000D01*
G75*
G02*
X108300000Y-66400000I0J100000D01*
G01*
G37*
G36*
G01*
X108300000Y-66950000D02*
X108300000Y-66550000D01*
G75*
G02*
X108400000Y-66450000I100000J0D01*
G01*
X109000000Y-66450000D01*
G75*
G02*
X109100000Y-66550000I0J-100000D01*
G01*
X109100000Y-66950000D01*
G75*
G02*
X109000000Y-67050000I-100000J0D01*
G01*
X108400000Y-67050000D01*
G75*
G02*
X108300000Y-66950000I0J100000D01*
G01*
G37*
G36*
G01*
X107200000Y-60346500D02*
X107200000Y-59946500D01*
G75*
G02*
X107300000Y-59846500I100000J0D01*
G01*
X107900000Y-59846500D01*
G75*
G02*
X108000000Y-59946500I0J-100000D01*
G01*
X108000000Y-60346500D01*
G75*
G02*
X107900000Y-60446500I-100000J0D01*
G01*
X107300000Y-60446500D01*
G75*
G02*
X107200000Y-60346500I0J100000D01*
G01*
G37*
G36*
G01*
X107200000Y-61296500D02*
X107200000Y-60996500D01*
G75*
G02*
X107300000Y-60896500I100000J0D01*
G01*
X107900000Y-60896500D01*
G75*
G02*
X108000000Y-60996500I0J-100000D01*
G01*
X108000000Y-61296500D01*
G75*
G02*
X107900000Y-61396500I-100000J0D01*
G01*
X107300000Y-61396500D01*
G75*
G02*
X107200000Y-61296500I0J100000D01*
G01*
G37*
G36*
G01*
X107200000Y-60796500D02*
X107200000Y-60496500D01*
G75*
G02*
X107300000Y-60396500I100000J0D01*
G01*
X107900000Y-60396500D01*
G75*
G02*
X108000000Y-60496500I0J-100000D01*
G01*
X108000000Y-60796500D01*
G75*
G02*
X107900000Y-60896500I-100000J0D01*
G01*
X107300000Y-60896500D01*
G75*
G02*
X107200000Y-60796500I0J100000D01*
G01*
G37*
G36*
G01*
X107200000Y-61846500D02*
X107200000Y-61446500D01*
G75*
G02*
X107300000Y-61346500I100000J0D01*
G01*
X107900000Y-61346500D01*
G75*
G02*
X108000000Y-61446500I0J-100000D01*
G01*
X108000000Y-61846500D01*
G75*
G02*
X107900000Y-61946500I-100000J0D01*
G01*
X107300000Y-61946500D01*
G75*
G02*
X107200000Y-61846500I0J100000D01*
G01*
G37*
G36*
G01*
X108300000Y-60796500D02*
X108300000Y-60496500D01*
G75*
G02*
X108400000Y-60396500I100000J0D01*
G01*
X109000000Y-60396500D01*
G75*
G02*
X109100000Y-60496500I0J-100000D01*
G01*
X109100000Y-60796500D01*
G75*
G02*
X109000000Y-60896500I-100000J0D01*
G01*
X108400000Y-60896500D01*
G75*
G02*
X108300000Y-60796500I0J100000D01*
G01*
G37*
G36*
G01*
X108300000Y-60346500D02*
X108300000Y-59946500D01*
G75*
G02*
X108400000Y-59846500I100000J0D01*
G01*
X109000000Y-59846500D01*
G75*
G02*
X109100000Y-59946500I0J-100000D01*
G01*
X109100000Y-60346500D01*
G75*
G02*
X109000000Y-60446500I-100000J0D01*
G01*
X108400000Y-60446500D01*
G75*
G02*
X108300000Y-60346500I0J100000D01*
G01*
G37*
G36*
G01*
X108300000Y-61296500D02*
X108300000Y-60996500D01*
G75*
G02*
X108400000Y-60896500I100000J0D01*
G01*
X109000000Y-60896500D01*
G75*
G02*
X109100000Y-60996500I0J-100000D01*
G01*
X109100000Y-61296500D01*
G75*
G02*
X109000000Y-61396500I-100000J0D01*
G01*
X108400000Y-61396500D01*
G75*
G02*
X108300000Y-61296500I0J100000D01*
G01*
G37*
G36*
G01*
X108300000Y-61846500D02*
X108300000Y-61446500D01*
G75*
G02*
X108400000Y-61346500I100000J0D01*
G01*
X109000000Y-61346500D01*
G75*
G02*
X109100000Y-61446500I0J-100000D01*
G01*
X109100000Y-61846500D01*
G75*
G02*
X109000000Y-61946500I-100000J0D01*
G01*
X108400000Y-61946500D01*
G75*
G02*
X108300000Y-61846500I0J100000D01*
G01*
G37*
G36*
G01*
X99155000Y-57200000D02*
X99155000Y-57850000D01*
G75*
G02*
X99055000Y-57950000I-100000J0D01*
G01*
X97495000Y-57950000D01*
G75*
G02*
X97395000Y-57850000I0J100000D01*
G01*
X97395000Y-57200000D01*
G75*
G02*
X97495000Y-57100000I100000J0D01*
G01*
X99055000Y-57100000D01*
G75*
G02*
X99155000Y-57200000I0J-100000D01*
G01*
G37*
G36*
G01*
X99155000Y-55300000D02*
X99155000Y-55950000D01*
G75*
G02*
X99055000Y-56050000I-100000J0D01*
G01*
X97495000Y-56050000D01*
G75*
G02*
X97395000Y-55950000I0J100000D01*
G01*
X97395000Y-55300000D01*
G75*
G02*
X97495000Y-55200000I100000J0D01*
G01*
X99055000Y-55200000D01*
G75*
G02*
X99155000Y-55300000I0J-100000D01*
G01*
G37*
G36*
G01*
X101855000Y-55300000D02*
X101855000Y-55950000D01*
G75*
G02*
X101755000Y-56050000I-100000J0D01*
G01*
X100195000Y-56050000D01*
G75*
G02*
X100095000Y-55950000I0J100000D01*
G01*
X100095000Y-55300000D01*
G75*
G02*
X100195000Y-55200000I100000J0D01*
G01*
X101755000Y-55200000D01*
G75*
G02*
X101855000Y-55300000I0J-100000D01*
G01*
G37*
G36*
G01*
X101855000Y-56250000D02*
X101855000Y-56900000D01*
G75*
G02*
X101755000Y-57000000I-100000J0D01*
G01*
X100195000Y-57000000D01*
G75*
G02*
X100095000Y-56900000I0J100000D01*
G01*
X100095000Y-56250000D01*
G75*
G02*
X100195000Y-56150000I100000J0D01*
G01*
X101755000Y-56150000D01*
G75*
G02*
X101855000Y-56250000I0J-100000D01*
G01*
G37*
G36*
G01*
X101855000Y-57200000D02*
X101855000Y-57850000D01*
G75*
G02*
X101755000Y-57950000I-100000J0D01*
G01*
X100195000Y-57950000D01*
G75*
G02*
X100095000Y-57850000I0J100000D01*
G01*
X100095000Y-57200000D01*
G75*
G02*
X100195000Y-57100000I100000J0D01*
G01*
X101755000Y-57100000D01*
G75*
G02*
X101855000Y-57200000I0J-100000D01*
G01*
G37*
G36*
G01*
X72025000Y-60845000D02*
X72025000Y-61255000D01*
G75*
G02*
X71820000Y-61460000I-205000J0D01*
G01*
X71295000Y-61460000D01*
G75*
G02*
X71090000Y-61255000I0J205000D01*
G01*
X71090000Y-60845000D01*
G75*
G02*
X71295000Y-60640000I205000J0D01*
G01*
X71820000Y-60640000D01*
G75*
G02*
X72025000Y-60845000I0J-205000D01*
G01*
G37*
G36*
G01*
X73160000Y-60845000D02*
X73160000Y-61255000D01*
G75*
G02*
X72955000Y-61460000I-205000J0D01*
G01*
X72430000Y-61460000D01*
G75*
G02*
X72225000Y-61255000I0J205000D01*
G01*
X72225000Y-60845000D01*
G75*
G02*
X72430000Y-60640000I205000J0D01*
G01*
X72955000Y-60640000D01*
G75*
G02*
X73160000Y-60845000I0J-205000D01*
G01*
G37*
G36*
G01*
X72025000Y-63870000D02*
X72025000Y-64280000D01*
G75*
G02*
X71820000Y-64485000I-205000J0D01*
G01*
X71295000Y-64485000D01*
G75*
G02*
X71090000Y-64280000I0J205000D01*
G01*
X71090000Y-63870000D01*
G75*
G02*
X71295000Y-63665000I205000J0D01*
G01*
X71820000Y-63665000D01*
G75*
G02*
X72025000Y-63870000I0J-205000D01*
G01*
G37*
G36*
G01*
X73160000Y-63870000D02*
X73160000Y-64280000D01*
G75*
G02*
X72955000Y-64485000I-205000J0D01*
G01*
X72430000Y-64485000D01*
G75*
G02*
X72225000Y-64280000I0J205000D01*
G01*
X72225000Y-63870000D01*
G75*
G02*
X72430000Y-63665000I205000J0D01*
G01*
X72955000Y-63665000D01*
G75*
G02*
X73160000Y-63870000I0J-205000D01*
G01*
G37*
D11*
G36*
X105055491Y-54398079D02*
G01*
X105036732Y-54392388D01*
X105019443Y-54383147D01*
X105004289Y-54370711D01*
X104991853Y-54355557D01*
X104982612Y-54338268D01*
X104976921Y-54319509D01*
X104975000Y-54300000D01*
X104975000Y-52800000D01*
X104976921Y-52780491D01*
X104982612Y-52761732D01*
X104991853Y-52744443D01*
X105004289Y-52729289D01*
X105019443Y-52716853D01*
X105036732Y-52707612D01*
X105055491Y-52701921D01*
X105075000Y-52700000D01*
X105625000Y-52700000D01*
X105631114Y-52700602D01*
X105649534Y-52700602D01*
X105659337Y-52701084D01*
X105708168Y-52705894D01*
X105717873Y-52707333D01*
X105765998Y-52716905D01*
X105775519Y-52719290D01*
X105822474Y-52733534D01*
X105831712Y-52736840D01*
X105877045Y-52755617D01*
X105885919Y-52759814D01*
X105929192Y-52782945D01*
X105937607Y-52787988D01*
X105978406Y-52815248D01*
X105986290Y-52821095D01*
X106024219Y-52852223D01*
X106031490Y-52858813D01*
X106066187Y-52893510D01*
X106072777Y-52900781D01*
X106103905Y-52938710D01*
X106109752Y-52946594D01*
X106137012Y-52987393D01*
X106142055Y-52995808D01*
X106165186Y-53039081D01*
X106169383Y-53047955D01*
X106188160Y-53093288D01*
X106191466Y-53102526D01*
X106205710Y-53149481D01*
X106208095Y-53159002D01*
X106217667Y-53207127D01*
X106219106Y-53216832D01*
X106223916Y-53265663D01*
X106224398Y-53275466D01*
X106224398Y-53293886D01*
X106225000Y-53300000D01*
X106225000Y-53800000D01*
X106224398Y-53806114D01*
X106224398Y-53824534D01*
X106223916Y-53834337D01*
X106219106Y-53883168D01*
X106217667Y-53892873D01*
X106208095Y-53940998D01*
X106205710Y-53950519D01*
X106191466Y-53997474D01*
X106188160Y-54006712D01*
X106169383Y-54052045D01*
X106165186Y-54060919D01*
X106142055Y-54104192D01*
X106137012Y-54112607D01*
X106109752Y-54153406D01*
X106103905Y-54161290D01*
X106072777Y-54199219D01*
X106066187Y-54206490D01*
X106031490Y-54241187D01*
X106024219Y-54247777D01*
X105986290Y-54278905D01*
X105978406Y-54284752D01*
X105937607Y-54312012D01*
X105929192Y-54317055D01*
X105885919Y-54340186D01*
X105877045Y-54344383D01*
X105831712Y-54363160D01*
X105822474Y-54366466D01*
X105775519Y-54380710D01*
X105765998Y-54383095D01*
X105717873Y-54392667D01*
X105708168Y-54394106D01*
X105659337Y-54398916D01*
X105649534Y-54399398D01*
X105631114Y-54399398D01*
X105625000Y-54400000D01*
X105075000Y-54400000D01*
X105055491Y-54398079D01*
G37*
G36*
G01*
X104925000Y-52800000D02*
X104925000Y-54300000D01*
G75*
G02*
X104825000Y-54400000I-100000J0D01*
G01*
X103825000Y-54400000D01*
G75*
G02*
X103725000Y-54300000I0J100000D01*
G01*
X103725000Y-52800000D01*
G75*
G02*
X103825000Y-52700000I100000J0D01*
G01*
X104825000Y-52700000D01*
G75*
G02*
X104925000Y-52800000I0J-100000D01*
G01*
G37*
G36*
X103018886Y-54399398D02*
G01*
X103000466Y-54399398D01*
X102990663Y-54398916D01*
X102941832Y-54394106D01*
X102932127Y-54392667D01*
X102884002Y-54383095D01*
X102874481Y-54380710D01*
X102827526Y-54366466D01*
X102818288Y-54363160D01*
X102772955Y-54344383D01*
X102764081Y-54340186D01*
X102720808Y-54317055D01*
X102712393Y-54312012D01*
X102671594Y-54284752D01*
X102663710Y-54278905D01*
X102625781Y-54247777D01*
X102618510Y-54241187D01*
X102583813Y-54206490D01*
X102577223Y-54199219D01*
X102546095Y-54161290D01*
X102540248Y-54153406D01*
X102512988Y-54112607D01*
X102507945Y-54104192D01*
X102484814Y-54060919D01*
X102480617Y-54052045D01*
X102461840Y-54006712D01*
X102458534Y-53997474D01*
X102444290Y-53950519D01*
X102441905Y-53940998D01*
X102432333Y-53892873D01*
X102430894Y-53883168D01*
X102426084Y-53834337D01*
X102425602Y-53824534D01*
X102425602Y-53806114D01*
X102425000Y-53800000D01*
X102425000Y-53300000D01*
X102425602Y-53293886D01*
X102425602Y-53275466D01*
X102426084Y-53265663D01*
X102430894Y-53216832D01*
X102432333Y-53207127D01*
X102441905Y-53159002D01*
X102444290Y-53149481D01*
X102458534Y-53102526D01*
X102461840Y-53093288D01*
X102480617Y-53047955D01*
X102484814Y-53039081D01*
X102507945Y-52995808D01*
X102512988Y-52987393D01*
X102540248Y-52946594D01*
X102546095Y-52938710D01*
X102577223Y-52900781D01*
X102583813Y-52893510D01*
X102618510Y-52858813D01*
X102625781Y-52852223D01*
X102663710Y-52821095D01*
X102671594Y-52815248D01*
X102712393Y-52787988D01*
X102720808Y-52782945D01*
X102764081Y-52759814D01*
X102772955Y-52755617D01*
X102818288Y-52736840D01*
X102827526Y-52733534D01*
X102874481Y-52719290D01*
X102884002Y-52716905D01*
X102932127Y-52707333D01*
X102941832Y-52705894D01*
X102990663Y-52701084D01*
X103000466Y-52700602D01*
X103018886Y-52700602D01*
X103025000Y-52700000D01*
X103575000Y-52700000D01*
X103594509Y-52701921D01*
X103613268Y-52707612D01*
X103630557Y-52716853D01*
X103645711Y-52729289D01*
X103658147Y-52744443D01*
X103667388Y-52761732D01*
X103673079Y-52780491D01*
X103675000Y-52800000D01*
X103675000Y-54300000D01*
X103673079Y-54319509D01*
X103667388Y-54338268D01*
X103658147Y-54355557D01*
X103645711Y-54370711D01*
X103630557Y-54383147D01*
X103613268Y-54392388D01*
X103594509Y-54398079D01*
X103575000Y-54400000D01*
X103025000Y-54400000D01*
X103018886Y-54399398D01*
G37*
G36*
G01*
X96300000Y-63087500D02*
X96300000Y-63662500D01*
G75*
G02*
X96012500Y-63950000I-287500J0D01*
G01*
X95312500Y-63950000D01*
G75*
G02*
X95025000Y-63662500I0J287500D01*
G01*
X95025000Y-63087500D01*
G75*
G02*
X95312500Y-62800000I287500J0D01*
G01*
X96012500Y-62800000D01*
G75*
G02*
X96300000Y-63087500I0J-287500D01*
G01*
G37*
G36*
G01*
X98025000Y-63087500D02*
X98025000Y-63662500D01*
G75*
G02*
X97737500Y-63950000I-287500J0D01*
G01*
X97037500Y-63950000D01*
G75*
G02*
X96750000Y-63662500I0J287500D01*
G01*
X96750000Y-63087500D01*
G75*
G02*
X97037500Y-62800000I287500J0D01*
G01*
X97737500Y-62800000D01*
G75*
G02*
X98025000Y-63087500I0J-287500D01*
G01*
G37*
G36*
G01*
X102762500Y-56775000D02*
X103337500Y-56775000D01*
G75*
G02*
X103625000Y-57062500I0J-287500D01*
G01*
X103625000Y-57737500D01*
G75*
G02*
X103337500Y-58025000I-287500J0D01*
G01*
X102762500Y-58025000D01*
G75*
G02*
X102475000Y-57737500I0J287500D01*
G01*
X102475000Y-57062500D01*
G75*
G02*
X102762500Y-56775000I287500J0D01*
G01*
G37*
G36*
G01*
X102762500Y-55025000D02*
X103337500Y-55025000D01*
G75*
G02*
X103625000Y-55312500I0J-287500D01*
G01*
X103625000Y-55987500D01*
G75*
G02*
X103337500Y-56275000I-287500J0D01*
G01*
X102762500Y-56275000D01*
G75*
G02*
X102475000Y-55987500I0J287500D01*
G01*
X102475000Y-55312500D01*
G75*
G02*
X102762500Y-55025000I287500J0D01*
G01*
G37*
G36*
G01*
X107112500Y-53225000D02*
X107687500Y-53225000D01*
G75*
G02*
X107975000Y-53512500I0J-287500D01*
G01*
X107975000Y-54212500D01*
G75*
G02*
X107687500Y-54500000I-287500J0D01*
G01*
X107112500Y-54500000D01*
G75*
G02*
X106825000Y-54212500I0J287500D01*
G01*
X106825000Y-53512500D01*
G75*
G02*
X107112500Y-53225000I287500J0D01*
G01*
G37*
G36*
G01*
X107112500Y-51500000D02*
X107687500Y-51500000D01*
G75*
G02*
X107975000Y-51787500I0J-287500D01*
G01*
X107975000Y-52487500D01*
G75*
G02*
X107687500Y-52775000I-287500J0D01*
G01*
X107112500Y-52775000D01*
G75*
G02*
X106825000Y-52487500I0J287500D01*
G01*
X106825000Y-51787500D01*
G75*
G02*
X107112500Y-51500000I287500J0D01*
G01*
G37*
G36*
G01*
X78095000Y-54010000D02*
X77685000Y-54010000D01*
G75*
G02*
X77480000Y-53805000I0J205000D01*
G01*
X77480000Y-53280000D01*
G75*
G02*
X77685000Y-53075000I205000J0D01*
G01*
X78095000Y-53075000D01*
G75*
G02*
X78300000Y-53280000I0J-205000D01*
G01*
X78300000Y-53805000D01*
G75*
G02*
X78095000Y-54010000I-205000J0D01*
G01*
G37*
G36*
G01*
X78095000Y-55145000D02*
X77685000Y-55145000D01*
G75*
G02*
X77480000Y-54940000I0J205000D01*
G01*
X77480000Y-54415000D01*
G75*
G02*
X77685000Y-54210000I205000J0D01*
G01*
X78095000Y-54210000D01*
G75*
G02*
X78300000Y-54415000I0J-205000D01*
G01*
X78300000Y-54940000D01*
G75*
G02*
X78095000Y-55145000I-205000J0D01*
G01*
G37*
G36*
G01*
X80825000Y-61825000D02*
X80825000Y-65275000D01*
G75*
G02*
X80725000Y-65375000I-100000J0D01*
G01*
X77275000Y-65375000D01*
G75*
G02*
X77175000Y-65275000I0J100000D01*
G01*
X77175000Y-61825000D01*
G75*
G02*
X77275000Y-61725000I100000J0D01*
G01*
X80725000Y-61725000D01*
G75*
G02*
X80825000Y-61825000I0J-100000D01*
G01*
G37*
G36*
G01*
X80975000Y-65562500D02*
X80975000Y-66412500D01*
G75*
G02*
X80862500Y-66525000I-112500J0D01*
G01*
X80637500Y-66525000D01*
G75*
G02*
X80525000Y-66412500I0J112500D01*
G01*
X80525000Y-65562500D01*
G75*
G02*
X80637500Y-65450000I112500J0D01*
G01*
X80862500Y-65450000D01*
G75*
G02*
X80975000Y-65562500I0J-112500D01*
G01*
G37*
G36*
G01*
X80475000Y-65562500D02*
X80475000Y-66412500D01*
G75*
G02*
X80362500Y-66525000I-112500J0D01*
G01*
X80137500Y-66525000D01*
G75*
G02*
X80025000Y-66412500I0J112500D01*
G01*
X80025000Y-65562500D01*
G75*
G02*
X80137500Y-65450000I112500J0D01*
G01*
X80362500Y-65450000D01*
G75*
G02*
X80475000Y-65562500I0J-112500D01*
G01*
G37*
G36*
G01*
X79975000Y-65562500D02*
X79975000Y-66412500D01*
G75*
G02*
X79862500Y-66525000I-112500J0D01*
G01*
X79637500Y-66525000D01*
G75*
G02*
X79525000Y-66412500I0J112500D01*
G01*
X79525000Y-65562500D01*
G75*
G02*
X79637500Y-65450000I112500J0D01*
G01*
X79862500Y-65450000D01*
G75*
G02*
X79975000Y-65562500I0J-112500D01*
G01*
G37*
G36*
G01*
X79475000Y-65562500D02*
X79475000Y-66412500D01*
G75*
G02*
X79362500Y-66525000I-112500J0D01*
G01*
X79137500Y-66525000D01*
G75*
G02*
X79025000Y-66412500I0J112500D01*
G01*
X79025000Y-65562500D01*
G75*
G02*
X79137500Y-65450000I112500J0D01*
G01*
X79362500Y-65450000D01*
G75*
G02*
X79475000Y-65562500I0J-112500D01*
G01*
G37*
G36*
G01*
X78975000Y-65562500D02*
X78975000Y-66412500D01*
G75*
G02*
X78862500Y-66525000I-112500J0D01*
G01*
X78637500Y-66525000D01*
G75*
G02*
X78525000Y-66412500I0J112500D01*
G01*
X78525000Y-65562500D01*
G75*
G02*
X78637500Y-65450000I112500J0D01*
G01*
X78862500Y-65450000D01*
G75*
G02*
X78975000Y-65562500I0J-112500D01*
G01*
G37*
G36*
G01*
X78475000Y-65562500D02*
X78475000Y-66412500D01*
G75*
G02*
X78362500Y-66525000I-112500J0D01*
G01*
X78137500Y-66525000D01*
G75*
G02*
X78025000Y-66412500I0J112500D01*
G01*
X78025000Y-65562500D01*
G75*
G02*
X78137500Y-65450000I112500J0D01*
G01*
X78362500Y-65450000D01*
G75*
G02*
X78475000Y-65562500I0J-112500D01*
G01*
G37*
G36*
G01*
X77975000Y-65562500D02*
X77975000Y-66412500D01*
G75*
G02*
X77862500Y-66525000I-112500J0D01*
G01*
X77637500Y-66525000D01*
G75*
G02*
X77525000Y-66412500I0J112500D01*
G01*
X77525000Y-65562500D01*
G75*
G02*
X77637500Y-65450000I112500J0D01*
G01*
X77862500Y-65450000D01*
G75*
G02*
X77975000Y-65562500I0J-112500D01*
G01*
G37*
G36*
G01*
X77475000Y-65562500D02*
X77475000Y-66412500D01*
G75*
G02*
X77362500Y-66525000I-112500J0D01*
G01*
X77137500Y-66525000D01*
G75*
G02*
X77025000Y-66412500I0J112500D01*
G01*
X77025000Y-65562500D01*
G75*
G02*
X77137500Y-65450000I112500J0D01*
G01*
X77362500Y-65450000D01*
G75*
G02*
X77475000Y-65562500I0J-112500D01*
G01*
G37*
G36*
G01*
X77100000Y-65187500D02*
X77100000Y-65412500D01*
G75*
G02*
X76987500Y-65525000I-112500J0D01*
G01*
X76137500Y-65525000D01*
G75*
G02*
X76025000Y-65412500I0J112500D01*
G01*
X76025000Y-65187500D01*
G75*
G02*
X76137500Y-65075000I112500J0D01*
G01*
X76987500Y-65075000D01*
G75*
G02*
X77100000Y-65187500I0J-112500D01*
G01*
G37*
G36*
G01*
X77100000Y-64687500D02*
X77100000Y-64912500D01*
G75*
G02*
X76987500Y-65025000I-112500J0D01*
G01*
X76137500Y-65025000D01*
G75*
G02*
X76025000Y-64912500I0J112500D01*
G01*
X76025000Y-64687500D01*
G75*
G02*
X76137500Y-64575000I112500J0D01*
G01*
X76987500Y-64575000D01*
G75*
G02*
X77100000Y-64687500I0J-112500D01*
G01*
G37*
G36*
G01*
X77100000Y-64187500D02*
X77100000Y-64412500D01*
G75*
G02*
X76987500Y-64525000I-112500J0D01*
G01*
X76137500Y-64525000D01*
G75*
G02*
X76025000Y-64412500I0J112500D01*
G01*
X76025000Y-64187500D01*
G75*
G02*
X76137500Y-64075000I112500J0D01*
G01*
X76987500Y-64075000D01*
G75*
G02*
X77100000Y-64187500I0J-112500D01*
G01*
G37*
G36*
G01*
X77100000Y-63687500D02*
X77100000Y-63912500D01*
G75*
G02*
X76987500Y-64025000I-112500J0D01*
G01*
X76137500Y-64025000D01*
G75*
G02*
X76025000Y-63912500I0J112500D01*
G01*
X76025000Y-63687500D01*
G75*
G02*
X76137500Y-63575000I112500J0D01*
G01*
X76987500Y-63575000D01*
G75*
G02*
X77100000Y-63687500I0J-112500D01*
G01*
G37*
G36*
G01*
X77100000Y-63187500D02*
X77100000Y-63412500D01*
G75*
G02*
X76987500Y-63525000I-112500J0D01*
G01*
X76137500Y-63525000D01*
G75*
G02*
X76025000Y-63412500I0J112500D01*
G01*
X76025000Y-63187500D01*
G75*
G02*
X76137500Y-63075000I112500J0D01*
G01*
X76987500Y-63075000D01*
G75*
G02*
X77100000Y-63187500I0J-112500D01*
G01*
G37*
G36*
G01*
X77100000Y-62687500D02*
X77100000Y-62912500D01*
G75*
G02*
X76987500Y-63025000I-112500J0D01*
G01*
X76137500Y-63025000D01*
G75*
G02*
X76025000Y-62912500I0J112500D01*
G01*
X76025000Y-62687500D01*
G75*
G02*
X76137500Y-62575000I112500J0D01*
G01*
X76987500Y-62575000D01*
G75*
G02*
X77100000Y-62687500I0J-112500D01*
G01*
G37*
G36*
G01*
X77100000Y-62187500D02*
X77100000Y-62412500D01*
G75*
G02*
X76987500Y-62525000I-112500J0D01*
G01*
X76137500Y-62525000D01*
G75*
G02*
X76025000Y-62412500I0J112500D01*
G01*
X76025000Y-62187500D01*
G75*
G02*
X76137500Y-62075000I112500J0D01*
G01*
X76987500Y-62075000D01*
G75*
G02*
X77100000Y-62187500I0J-112500D01*
G01*
G37*
G36*
G01*
X77100000Y-61687500D02*
X77100000Y-61912500D01*
G75*
G02*
X76987500Y-62025000I-112500J0D01*
G01*
X76137500Y-62025000D01*
G75*
G02*
X76025000Y-61912500I0J112500D01*
G01*
X76025000Y-61687500D01*
G75*
G02*
X76137500Y-61575000I112500J0D01*
G01*
X76987500Y-61575000D01*
G75*
G02*
X77100000Y-61687500I0J-112500D01*
G01*
G37*
G36*
G01*
X77475000Y-60687500D02*
X77475000Y-61537500D01*
G75*
G02*
X77362500Y-61650000I-112500J0D01*
G01*
X77137500Y-61650000D01*
G75*
G02*
X77025000Y-61537500I0J112500D01*
G01*
X77025000Y-60687500D01*
G75*
G02*
X77137500Y-60575000I112500J0D01*
G01*
X77362500Y-60575000D01*
G75*
G02*
X77475000Y-60687500I0J-112500D01*
G01*
G37*
G36*
G01*
X77975000Y-60687500D02*
X77975000Y-61537500D01*
G75*
G02*
X77862500Y-61650000I-112500J0D01*
G01*
X77637500Y-61650000D01*
G75*
G02*
X77525000Y-61537500I0J112500D01*
G01*
X77525000Y-60687500D01*
G75*
G02*
X77637500Y-60575000I112500J0D01*
G01*
X77862500Y-60575000D01*
G75*
G02*
X77975000Y-60687500I0J-112500D01*
G01*
G37*
G36*
G01*
X78475000Y-60687500D02*
X78475000Y-61537500D01*
G75*
G02*
X78362500Y-61650000I-112500J0D01*
G01*
X78137500Y-61650000D01*
G75*
G02*
X78025000Y-61537500I0J112500D01*
G01*
X78025000Y-60687500D01*
G75*
G02*
X78137500Y-60575000I112500J0D01*
G01*
X78362500Y-60575000D01*
G75*
G02*
X78475000Y-60687500I0J-112500D01*
G01*
G37*
G36*
G01*
X78975000Y-60687500D02*
X78975000Y-61537500D01*
G75*
G02*
X78862500Y-61650000I-112500J0D01*
G01*
X78637500Y-61650000D01*
G75*
G02*
X78525000Y-61537500I0J112500D01*
G01*
X78525000Y-60687500D01*
G75*
G02*
X78637500Y-60575000I112500J0D01*
G01*
X78862500Y-60575000D01*
G75*
G02*
X78975000Y-60687500I0J-112500D01*
G01*
G37*
G36*
G01*
X79475000Y-60687500D02*
X79475000Y-61537500D01*
G75*
G02*
X79362500Y-61650000I-112500J0D01*
G01*
X79137500Y-61650000D01*
G75*
G02*
X79025000Y-61537500I0J112500D01*
G01*
X79025000Y-60687500D01*
G75*
G02*
X79137500Y-60575000I112500J0D01*
G01*
X79362500Y-60575000D01*
G75*
G02*
X79475000Y-60687500I0J-112500D01*
G01*
G37*
G36*
G01*
X79975000Y-60687500D02*
X79975000Y-61537500D01*
G75*
G02*
X79862500Y-61650000I-112500J0D01*
G01*
X79637500Y-61650000D01*
G75*
G02*
X79525000Y-61537500I0J112500D01*
G01*
X79525000Y-60687500D01*
G75*
G02*
X79637500Y-60575000I112500J0D01*
G01*
X79862500Y-60575000D01*
G75*
G02*
X79975000Y-60687500I0J-112500D01*
G01*
G37*
G36*
G01*
X80475000Y-60687500D02*
X80475000Y-61537500D01*
G75*
G02*
X80362500Y-61650000I-112500J0D01*
G01*
X80137500Y-61650000D01*
G75*
G02*
X80025000Y-61537500I0J112500D01*
G01*
X80025000Y-60687500D01*
G75*
G02*
X80137500Y-60575000I112500J0D01*
G01*
X80362500Y-60575000D01*
G75*
G02*
X80475000Y-60687500I0J-112500D01*
G01*
G37*
G36*
G01*
X80975000Y-60687500D02*
X80975000Y-61537500D01*
G75*
G02*
X80862500Y-61650000I-112500J0D01*
G01*
X80637500Y-61650000D01*
G75*
G02*
X80525000Y-61537500I0J112500D01*
G01*
X80525000Y-60687500D01*
G75*
G02*
X80637500Y-60575000I112500J0D01*
G01*
X80862500Y-60575000D01*
G75*
G02*
X80975000Y-60687500I0J-112500D01*
G01*
G37*
G36*
G01*
X81975000Y-61687500D02*
X81975000Y-61912500D01*
G75*
G02*
X81862500Y-62025000I-112500J0D01*
G01*
X81012500Y-62025000D01*
G75*
G02*
X80900000Y-61912500I0J112500D01*
G01*
X80900000Y-61687500D01*
G75*
G02*
X81012500Y-61575000I112500J0D01*
G01*
X81862500Y-61575000D01*
G75*
G02*
X81975000Y-61687500I0J-112500D01*
G01*
G37*
G36*
G01*
X81975000Y-62187500D02*
X81975000Y-62412500D01*
G75*
G02*
X81862500Y-62525000I-112500J0D01*
G01*
X81012500Y-62525000D01*
G75*
G02*
X80900000Y-62412500I0J112500D01*
G01*
X80900000Y-62187500D01*
G75*
G02*
X81012500Y-62075000I112500J0D01*
G01*
X81862500Y-62075000D01*
G75*
G02*
X81975000Y-62187500I0J-112500D01*
G01*
G37*
G36*
G01*
X81975000Y-62687500D02*
X81975000Y-62912500D01*
G75*
G02*
X81862500Y-63025000I-112500J0D01*
G01*
X81012500Y-63025000D01*
G75*
G02*
X80900000Y-62912500I0J112500D01*
G01*
X80900000Y-62687500D01*
G75*
G02*
X81012500Y-62575000I112500J0D01*
G01*
X81862500Y-62575000D01*
G75*
G02*
X81975000Y-62687500I0J-112500D01*
G01*
G37*
G36*
G01*
X81975000Y-63187500D02*
X81975000Y-63412500D01*
G75*
G02*
X81862500Y-63525000I-112500J0D01*
G01*
X81012500Y-63525000D01*
G75*
G02*
X80900000Y-63412500I0J112500D01*
G01*
X80900000Y-63187500D01*
G75*
G02*
X81012500Y-63075000I112500J0D01*
G01*
X81862500Y-63075000D01*
G75*
G02*
X81975000Y-63187500I0J-112500D01*
G01*
G37*
G36*
G01*
X81975000Y-63687500D02*
X81975000Y-63912500D01*
G75*
G02*
X81862500Y-64025000I-112500J0D01*
G01*
X81012500Y-64025000D01*
G75*
G02*
X80900000Y-63912500I0J112500D01*
G01*
X80900000Y-63687500D01*
G75*
G02*
X81012500Y-63575000I112500J0D01*
G01*
X81862500Y-63575000D01*
G75*
G02*
X81975000Y-63687500I0J-112500D01*
G01*
G37*
G36*
G01*
X81975000Y-64187500D02*
X81975000Y-64412500D01*
G75*
G02*
X81862500Y-64525000I-112500J0D01*
G01*
X81012500Y-64525000D01*
G75*
G02*
X80900000Y-64412500I0J112500D01*
G01*
X80900000Y-64187500D01*
G75*
G02*
X81012500Y-64075000I112500J0D01*
G01*
X81862500Y-64075000D01*
G75*
G02*
X81975000Y-64187500I0J-112500D01*
G01*
G37*
G36*
G01*
X81975000Y-64687500D02*
X81975000Y-64912500D01*
G75*
G02*
X81862500Y-65025000I-112500J0D01*
G01*
X81012500Y-65025000D01*
G75*
G02*
X80900000Y-64912500I0J112500D01*
G01*
X80900000Y-64687500D01*
G75*
G02*
X81012500Y-64575000I112500J0D01*
G01*
X81862500Y-64575000D01*
G75*
G02*
X81975000Y-64687500I0J-112500D01*
G01*
G37*
G36*
G01*
X81975000Y-65187500D02*
X81975000Y-65412500D01*
G75*
G02*
X81862500Y-65525000I-112500J0D01*
G01*
X81012500Y-65525000D01*
G75*
G02*
X80900000Y-65412500I0J112500D01*
G01*
X80900000Y-65187500D01*
G75*
G02*
X81012500Y-65075000I112500J0D01*
G01*
X81862500Y-65075000D01*
G75*
G02*
X81975000Y-65187500I0J-112500D01*
G01*
G37*
G36*
G01*
X83350000Y-58750000D02*
X83350000Y-58010000D01*
G75*
G02*
X83450000Y-57910000I100000J0D01*
G01*
X85850000Y-57910000D01*
G75*
G02*
X85950000Y-58010000I0J-100000D01*
G01*
X85950000Y-58750000D01*
G75*
G02*
X85850000Y-58850000I-100000J0D01*
G01*
X83450000Y-58850000D01*
G75*
G02*
X83350000Y-58750000I0J100000D01*
G01*
G37*
G36*
G01*
X79450000Y-58750000D02*
X79450000Y-58010000D01*
G75*
G02*
X79550000Y-57910000I100000J0D01*
G01*
X81950000Y-57910000D01*
G75*
G02*
X82050000Y-58010000I0J-100000D01*
G01*
X82050000Y-58750000D01*
G75*
G02*
X81950000Y-58850000I-100000J0D01*
G01*
X79550000Y-58850000D01*
G75*
G02*
X79450000Y-58750000I0J100000D01*
G01*
G37*
G36*
G01*
X83350000Y-57480000D02*
X83350000Y-56740000D01*
G75*
G02*
X83450000Y-56640000I100000J0D01*
G01*
X85850000Y-56640000D01*
G75*
G02*
X85950000Y-56740000I0J-100000D01*
G01*
X85950000Y-57480000D01*
G75*
G02*
X85850000Y-57580000I-100000J0D01*
G01*
X83450000Y-57580000D01*
G75*
G02*
X83350000Y-57480000I0J100000D01*
G01*
G37*
G36*
G01*
X79450000Y-57480000D02*
X79450000Y-56740000D01*
G75*
G02*
X79550000Y-56640000I100000J0D01*
G01*
X81950000Y-56640000D01*
G75*
G02*
X82050000Y-56740000I0J-100000D01*
G01*
X82050000Y-57480000D01*
G75*
G02*
X81950000Y-57580000I-100000J0D01*
G01*
X79550000Y-57580000D01*
G75*
G02*
X79450000Y-57480000I0J100000D01*
G01*
G37*
G36*
G01*
X83350000Y-56210000D02*
X83350000Y-55470000D01*
G75*
G02*
X83450000Y-55370000I100000J0D01*
G01*
X85850000Y-55370000D01*
G75*
G02*
X85950000Y-55470000I0J-100000D01*
G01*
X85950000Y-56210000D01*
G75*
G02*
X85850000Y-56310000I-100000J0D01*
G01*
X83450000Y-56310000D01*
G75*
G02*
X83350000Y-56210000I0J100000D01*
G01*
G37*
G36*
G01*
X79450000Y-56210000D02*
X79450000Y-55470000D01*
G75*
G02*
X79550000Y-55370000I100000J0D01*
G01*
X81950000Y-55370000D01*
G75*
G02*
X82050000Y-55470000I0J-100000D01*
G01*
X82050000Y-56210000D01*
G75*
G02*
X81950000Y-56310000I-100000J0D01*
G01*
X79550000Y-56310000D01*
G75*
G02*
X79450000Y-56210000I0J100000D01*
G01*
G37*
G36*
G01*
X83350000Y-54940000D02*
X83350000Y-54200000D01*
G75*
G02*
X83450000Y-54100000I100000J0D01*
G01*
X85850000Y-54100000D01*
G75*
G02*
X85950000Y-54200000I0J-100000D01*
G01*
X85950000Y-54940000D01*
G75*
G02*
X85850000Y-55040000I-100000J0D01*
G01*
X83450000Y-55040000D01*
G75*
G02*
X83350000Y-54940000I0J100000D01*
G01*
G37*
G36*
G01*
X79450000Y-54940000D02*
X79450000Y-54200000D01*
G75*
G02*
X79550000Y-54100000I100000J0D01*
G01*
X81950000Y-54100000D01*
G75*
G02*
X82050000Y-54200000I0J-100000D01*
G01*
X82050000Y-54940000D01*
G75*
G02*
X81950000Y-55040000I-100000J0D01*
G01*
X79550000Y-55040000D01*
G75*
G02*
X79450000Y-54940000I0J100000D01*
G01*
G37*
G36*
G01*
X83350000Y-53670000D02*
X83350000Y-52930000D01*
G75*
G02*
X83450000Y-52830000I100000J0D01*
G01*
X85850000Y-52830000D01*
G75*
G02*
X85950000Y-52930000I0J-100000D01*
G01*
X85950000Y-53670000D01*
G75*
G02*
X85850000Y-53770000I-100000J0D01*
G01*
X83450000Y-53770000D01*
G75*
G02*
X83350000Y-53670000I0J100000D01*
G01*
G37*
G36*
G01*
X79450000Y-53670000D02*
X79450000Y-52930000D01*
G75*
G02*
X79550000Y-52830000I100000J0D01*
G01*
X81950000Y-52830000D01*
G75*
G02*
X82050000Y-52930000I0J-100000D01*
G01*
X82050000Y-53670000D01*
G75*
G02*
X81950000Y-53770000I-100000J0D01*
G01*
X79550000Y-53770000D01*
G75*
G02*
X79450000Y-53670000I0J100000D01*
G01*
G37*
G36*
G01*
X74890000Y-67660000D02*
X74890000Y-67240000D01*
G75*
G02*
X75100000Y-67030000I210000J0D01*
G01*
X75595000Y-67030000D01*
G75*
G02*
X75805000Y-67240000I0J-210000D01*
G01*
X75805000Y-67660000D01*
G75*
G02*
X75595000Y-67870000I-210000J0D01*
G01*
X75100000Y-67870000D01*
G75*
G02*
X74890000Y-67660000I0J210000D01*
G01*
G37*
G36*
G01*
X73695000Y-67660000D02*
X73695000Y-67240000D01*
G75*
G02*
X73905000Y-67030000I210000J0D01*
G01*
X74400000Y-67030000D01*
G75*
G02*
X74610000Y-67240000I0J-210000D01*
G01*
X74610000Y-67660000D01*
G75*
G02*
X74400000Y-67870000I-210000J0D01*
G01*
X73905000Y-67870000D01*
G75*
G02*
X73695000Y-67660000I0J210000D01*
G01*
G37*
G36*
G01*
X88650000Y-67700000D02*
X88650000Y-65900000D01*
G75*
G02*
X88750000Y-65800000I100000J0D01*
G01*
X90500000Y-65800000D01*
G75*
G02*
X90600000Y-65900000I0J-100000D01*
G01*
X90600000Y-67700000D01*
G75*
G02*
X90500000Y-67800000I-100000J0D01*
G01*
X88750000Y-67800000D01*
G75*
G02*
X88650000Y-67700000I0J100000D01*
G01*
G37*
G36*
G01*
X85400000Y-67700000D02*
X85400000Y-65900000D01*
G75*
G02*
X85500000Y-65800000I100000J0D01*
G01*
X87250000Y-65800000D01*
G75*
G02*
X87350000Y-65900000I0J-100000D01*
G01*
X87350000Y-67700000D01*
G75*
G02*
X87250000Y-67800000I-100000J0D01*
G01*
X85500000Y-67800000D01*
G75*
G02*
X85400000Y-67700000I0J100000D01*
G01*
G37*
G36*
G01*
X91295000Y-66900000D02*
X91705000Y-66900000D01*
G75*
G02*
X91910000Y-67105000I0J-205000D01*
G01*
X91910000Y-67630000D01*
G75*
G02*
X91705000Y-67835000I-205000J0D01*
G01*
X91295000Y-67835000D01*
G75*
G02*
X91090000Y-67630000I0J205000D01*
G01*
X91090000Y-67105000D01*
G75*
G02*
X91295000Y-66900000I205000J0D01*
G01*
G37*
G36*
G01*
X91295000Y-65765000D02*
X91705000Y-65765000D01*
G75*
G02*
X91910000Y-65970000I0J-205000D01*
G01*
X91910000Y-66495000D01*
G75*
G02*
X91705000Y-66700000I-205000J0D01*
G01*
X91295000Y-66700000D01*
G75*
G02*
X91090000Y-66495000I0J205000D01*
G01*
X91090000Y-65970000D01*
G75*
G02*
X91295000Y-65765000I205000J0D01*
G01*
G37*
G36*
X70387991Y-57225579D02*
G01*
X70369232Y-57219888D01*
X70351943Y-57210647D01*
X70336789Y-57198211D01*
X70324353Y-57183057D01*
X70315112Y-57165768D01*
X70309421Y-57147009D01*
X70307500Y-57127500D01*
X70307500Y-55394500D01*
X70309421Y-55374991D01*
X70315112Y-55356232D01*
X70324353Y-55338943D01*
X70336789Y-55323789D01*
X70351943Y-55311353D01*
X70369232Y-55302112D01*
X70387991Y-55296421D01*
X70407500Y-55294500D01*
X73532500Y-55294500D01*
X73552009Y-55296421D01*
X73570768Y-55302112D01*
X73588057Y-55311353D01*
X73603211Y-55323789D01*
X73615647Y-55338943D01*
X73624888Y-55356232D01*
X73630579Y-55374991D01*
X73632500Y-55394500D01*
X73632500Y-55711000D01*
X75007500Y-55711000D01*
X75027009Y-55712921D01*
X75045768Y-55718612D01*
X75063057Y-55727853D01*
X75078211Y-55740289D01*
X75090647Y-55755443D01*
X75099888Y-55772732D01*
X75105579Y-55791491D01*
X75107500Y-55811000D01*
X75107500Y-56711000D01*
X75105579Y-56730509D01*
X75099888Y-56749268D01*
X75090647Y-56766557D01*
X75078211Y-56781711D01*
X75063057Y-56794147D01*
X75045768Y-56803388D01*
X75027009Y-56809079D01*
X75007500Y-56811000D01*
X73632500Y-56811000D01*
X73632500Y-57127500D01*
X73630579Y-57147009D01*
X73624888Y-57165768D01*
X73615647Y-57183057D01*
X73603211Y-57198211D01*
X73588057Y-57210647D01*
X73570768Y-57219888D01*
X73552009Y-57225579D01*
X73532500Y-57227500D01*
X70407500Y-57227500D01*
X70387991Y-57225579D01*
G37*
G36*
G01*
X75107500Y-54311000D02*
X75107500Y-55211000D01*
G75*
G02*
X75007500Y-55311000I-100000J0D01*
G01*
X73707500Y-55311000D01*
G75*
G02*
X73607500Y-55211000I0J100000D01*
G01*
X73607500Y-54311000D01*
G75*
G02*
X73707500Y-54211000I100000J0D01*
G01*
X75007500Y-54211000D01*
G75*
G02*
X75107500Y-54311000I0J-100000D01*
G01*
G37*
G36*
G01*
X75107500Y-57311000D02*
X75107500Y-58211000D01*
G75*
G02*
X75007500Y-58311000I-100000J0D01*
G01*
X73707500Y-58311000D01*
G75*
G02*
X73607500Y-58211000I0J100000D01*
G01*
X73607500Y-57311000D01*
G75*
G02*
X73707500Y-57211000I100000J0D01*
G01*
X75007500Y-57211000D01*
G75*
G02*
X75107500Y-57311000I0J-100000D01*
G01*
G37*
G36*
G01*
X104460000Y-68540000D02*
X104460000Y-68960000D01*
G75*
G02*
X104250000Y-69170000I-210000J0D01*
G01*
X103755000Y-69170000D01*
G75*
G02*
X103545000Y-68960000I0J210000D01*
G01*
X103545000Y-68540000D01*
G75*
G02*
X103755000Y-68330000I210000J0D01*
G01*
X104250000Y-68330000D01*
G75*
G02*
X104460000Y-68540000I0J-210000D01*
G01*
G37*
G36*
G01*
X105655000Y-68540000D02*
X105655000Y-68960000D01*
G75*
G02*
X105445000Y-69170000I-210000J0D01*
G01*
X104950000Y-69170000D01*
G75*
G02*
X104740000Y-68960000I0J210000D01*
G01*
X104740000Y-68540000D01*
G75*
G02*
X104950000Y-68330000I210000J0D01*
G01*
X105445000Y-68330000D01*
G75*
G02*
X105655000Y-68540000I0J-210000D01*
G01*
G37*
D20*
X113540000Y-68402200D03*
X111000000Y-68402200D03*
X113540000Y-65862200D03*
X111000000Y-65862200D03*
X113540000Y-63322200D03*
X111000000Y-63322200D03*
X113540000Y-60782200D03*
X111000000Y-60782200D03*
X113540000Y-58242200D03*
X111000000Y-58242200D03*
X113540000Y-55702200D03*
X111000000Y-55702200D03*
X113540000Y-53162200D03*
G36*
G01*
X110050000Y-54012200D02*
X110050000Y-52312200D01*
G75*
G02*
X110150000Y-52212200I100000J0D01*
G01*
X111850000Y-52212200D01*
G75*
G02*
X111950000Y-52312200I0J-100000D01*
G01*
X111950000Y-54012200D01*
G75*
G02*
X111850000Y-54112200I-100000J0D01*
G01*
X110150000Y-54112200D01*
G75*
G02*
X110050000Y-54012200I0J100000D01*
G01*
G37*
G36*
G01*
X104425000Y-61950000D02*
X104425000Y-61650000D01*
G75*
G02*
X104575000Y-61500000I150000J0D01*
G01*
X105950000Y-61500000D01*
G75*
G02*
X106100000Y-61650000I0J-150000D01*
G01*
X106100000Y-61950000D01*
G75*
G02*
X105950000Y-62100000I-150000J0D01*
G01*
X104575000Y-62100000D01*
G75*
G02*
X104425000Y-61950000I0J150000D01*
G01*
G37*
G36*
G01*
X104425000Y-62600000D02*
X104425000Y-62300000D01*
G75*
G02*
X104575000Y-62150000I150000J0D01*
G01*
X105950000Y-62150000D01*
G75*
G02*
X106100000Y-62300000I0J-150000D01*
G01*
X106100000Y-62600000D01*
G75*
G02*
X105950000Y-62750000I-150000J0D01*
G01*
X104575000Y-62750000D01*
G75*
G02*
X104425000Y-62600000I0J150000D01*
G01*
G37*
G36*
G01*
X104425000Y-63250000D02*
X104425000Y-62950000D01*
G75*
G02*
X104575000Y-62800000I150000J0D01*
G01*
X105950000Y-62800000D01*
G75*
G02*
X106100000Y-62950000I0J-150000D01*
G01*
X106100000Y-63250000D01*
G75*
G02*
X105950000Y-63400000I-150000J0D01*
G01*
X104575000Y-63400000D01*
G75*
G02*
X104425000Y-63250000I0J150000D01*
G01*
G37*
G36*
G01*
X104425000Y-63900000D02*
X104425000Y-63600000D01*
G75*
G02*
X104575000Y-63450000I150000J0D01*
G01*
X105950000Y-63450000D01*
G75*
G02*
X106100000Y-63600000I0J-150000D01*
G01*
X106100000Y-63900000D01*
G75*
G02*
X105950000Y-64050000I-150000J0D01*
G01*
X104575000Y-64050000D01*
G75*
G02*
X104425000Y-63900000I0J150000D01*
G01*
G37*
G36*
G01*
X104425000Y-64550000D02*
X104425000Y-64250000D01*
G75*
G02*
X104575000Y-64100000I150000J0D01*
G01*
X105950000Y-64100000D01*
G75*
G02*
X106100000Y-64250000I0J-150000D01*
G01*
X106100000Y-64550000D01*
G75*
G02*
X105950000Y-64700000I-150000J0D01*
G01*
X104575000Y-64700000D01*
G75*
G02*
X104425000Y-64550000I0J150000D01*
G01*
G37*
G36*
G01*
X104425000Y-65200000D02*
X104425000Y-64900000D01*
G75*
G02*
X104575000Y-64750000I150000J0D01*
G01*
X105950000Y-64750000D01*
G75*
G02*
X106100000Y-64900000I0J-150000D01*
G01*
X106100000Y-65200000D01*
G75*
G02*
X105950000Y-65350000I-150000J0D01*
G01*
X104575000Y-65350000D01*
G75*
G02*
X104425000Y-65200000I0J150000D01*
G01*
G37*
G36*
G01*
X104425000Y-65850000D02*
X104425000Y-65550000D01*
G75*
G02*
X104575000Y-65400000I150000J0D01*
G01*
X105950000Y-65400000D01*
G75*
G02*
X106100000Y-65550000I0J-150000D01*
G01*
X106100000Y-65850000D01*
G75*
G02*
X105950000Y-66000000I-150000J0D01*
G01*
X104575000Y-66000000D01*
G75*
G02*
X104425000Y-65850000I0J150000D01*
G01*
G37*
G36*
G01*
X104425000Y-66500000D02*
X104425000Y-66200000D01*
G75*
G02*
X104575000Y-66050000I150000J0D01*
G01*
X105950000Y-66050000D01*
G75*
G02*
X106100000Y-66200000I0J-150000D01*
G01*
X106100000Y-66500000D01*
G75*
G02*
X105950000Y-66650000I-150000J0D01*
G01*
X104575000Y-66650000D01*
G75*
G02*
X104425000Y-66500000I0J150000D01*
G01*
G37*
G36*
G01*
X104425000Y-67150000D02*
X104425000Y-66850000D01*
G75*
G02*
X104575000Y-66700000I150000J0D01*
G01*
X105950000Y-66700000D01*
G75*
G02*
X106100000Y-66850000I0J-150000D01*
G01*
X106100000Y-67150000D01*
G75*
G02*
X105950000Y-67300000I-150000J0D01*
G01*
X104575000Y-67300000D01*
G75*
G02*
X104425000Y-67150000I0J150000D01*
G01*
G37*
G36*
G01*
X104425000Y-67800000D02*
X104425000Y-67500000D01*
G75*
G02*
X104575000Y-67350000I150000J0D01*
G01*
X105950000Y-67350000D01*
G75*
G02*
X106100000Y-67500000I0J-150000D01*
G01*
X106100000Y-67800000D01*
G75*
G02*
X105950000Y-67950000I-150000J0D01*
G01*
X104575000Y-67950000D01*
G75*
G02*
X104425000Y-67800000I0J150000D01*
G01*
G37*
G36*
G01*
X98700000Y-67800000D02*
X98700000Y-67500000D01*
G75*
G02*
X98850000Y-67350000I150000J0D01*
G01*
X100225000Y-67350000D01*
G75*
G02*
X100375000Y-67500000I0J-150000D01*
G01*
X100375000Y-67800000D01*
G75*
G02*
X100225000Y-67950000I-150000J0D01*
G01*
X98850000Y-67950000D01*
G75*
G02*
X98700000Y-67800000I0J150000D01*
G01*
G37*
G36*
G01*
X98700000Y-67150000D02*
X98700000Y-66850000D01*
G75*
G02*
X98850000Y-66700000I150000J0D01*
G01*
X100225000Y-66700000D01*
G75*
G02*
X100375000Y-66850000I0J-150000D01*
G01*
X100375000Y-67150000D01*
G75*
G02*
X100225000Y-67300000I-150000J0D01*
G01*
X98850000Y-67300000D01*
G75*
G02*
X98700000Y-67150000I0J150000D01*
G01*
G37*
G36*
G01*
X98700000Y-66500000D02*
X98700000Y-66200000D01*
G75*
G02*
X98850000Y-66050000I150000J0D01*
G01*
X100225000Y-66050000D01*
G75*
G02*
X100375000Y-66200000I0J-150000D01*
G01*
X100375000Y-66500000D01*
G75*
G02*
X100225000Y-66650000I-150000J0D01*
G01*
X98850000Y-66650000D01*
G75*
G02*
X98700000Y-66500000I0J150000D01*
G01*
G37*
G36*
G01*
X98700000Y-65850000D02*
X98700000Y-65550000D01*
G75*
G02*
X98850000Y-65400000I150000J0D01*
G01*
X100225000Y-65400000D01*
G75*
G02*
X100375000Y-65550000I0J-150000D01*
G01*
X100375000Y-65850000D01*
G75*
G02*
X100225000Y-66000000I-150000J0D01*
G01*
X98850000Y-66000000D01*
G75*
G02*
X98700000Y-65850000I0J150000D01*
G01*
G37*
G36*
G01*
X98700000Y-65200000D02*
X98700000Y-64900000D01*
G75*
G02*
X98850000Y-64750000I150000J0D01*
G01*
X100225000Y-64750000D01*
G75*
G02*
X100375000Y-64900000I0J-150000D01*
G01*
X100375000Y-65200000D01*
G75*
G02*
X100225000Y-65350000I-150000J0D01*
G01*
X98850000Y-65350000D01*
G75*
G02*
X98700000Y-65200000I0J150000D01*
G01*
G37*
G36*
G01*
X98700000Y-64550000D02*
X98700000Y-64250000D01*
G75*
G02*
X98850000Y-64100000I150000J0D01*
G01*
X100225000Y-64100000D01*
G75*
G02*
X100375000Y-64250000I0J-150000D01*
G01*
X100375000Y-64550000D01*
G75*
G02*
X100225000Y-64700000I-150000J0D01*
G01*
X98850000Y-64700000D01*
G75*
G02*
X98700000Y-64550000I0J150000D01*
G01*
G37*
G36*
G01*
X98700000Y-63900000D02*
X98700000Y-63600000D01*
G75*
G02*
X98850000Y-63450000I150000J0D01*
G01*
X100225000Y-63450000D01*
G75*
G02*
X100375000Y-63600000I0J-150000D01*
G01*
X100375000Y-63900000D01*
G75*
G02*
X100225000Y-64050000I-150000J0D01*
G01*
X98850000Y-64050000D01*
G75*
G02*
X98700000Y-63900000I0J150000D01*
G01*
G37*
G36*
G01*
X98700000Y-63250000D02*
X98700000Y-62950000D01*
G75*
G02*
X98850000Y-62800000I150000J0D01*
G01*
X100225000Y-62800000D01*
G75*
G02*
X100375000Y-62950000I0J-150000D01*
G01*
X100375000Y-63250000D01*
G75*
G02*
X100225000Y-63400000I-150000J0D01*
G01*
X98850000Y-63400000D01*
G75*
G02*
X98700000Y-63250000I0J150000D01*
G01*
G37*
G36*
G01*
X98700000Y-62600000D02*
X98700000Y-62300000D01*
G75*
G02*
X98850000Y-62150000I150000J0D01*
G01*
X100225000Y-62150000D01*
G75*
G02*
X100375000Y-62300000I0J-150000D01*
G01*
X100375000Y-62600000D01*
G75*
G02*
X100225000Y-62750000I-150000J0D01*
G01*
X98850000Y-62750000D01*
G75*
G02*
X98700000Y-62600000I0J150000D01*
G01*
G37*
G36*
G01*
X98700000Y-61950000D02*
X98700000Y-61650000D01*
G75*
G02*
X98850000Y-61500000I150000J0D01*
G01*
X100225000Y-61500000D01*
G75*
G02*
X100375000Y-61650000I0J-150000D01*
G01*
X100375000Y-61950000D01*
G75*
G02*
X100225000Y-62100000I-150000J0D01*
G01*
X98850000Y-62100000D01*
G75*
G02*
X98700000Y-61950000I0J150000D01*
G01*
G37*
G36*
G01*
X108555000Y-55700000D02*
X108145000Y-55700000D01*
G75*
G02*
X107940000Y-55495000I0J205000D01*
G01*
X107940000Y-54970000D01*
G75*
G02*
X108145000Y-54765000I205000J0D01*
G01*
X108555000Y-54765000D01*
G75*
G02*
X108760000Y-54970000I0J-205000D01*
G01*
X108760000Y-55495000D01*
G75*
G02*
X108555000Y-55700000I-205000J0D01*
G01*
G37*
G36*
G01*
X108555000Y-56835000D02*
X108145000Y-56835000D01*
G75*
G02*
X107940000Y-56630000I0J205000D01*
G01*
X107940000Y-56105000D01*
G75*
G02*
X108145000Y-55900000I205000J0D01*
G01*
X108555000Y-55900000D01*
G75*
G02*
X108760000Y-56105000I0J-205000D01*
G01*
X108760000Y-56630000D01*
G75*
G02*
X108555000Y-56835000I-205000J0D01*
G01*
G37*
G36*
G01*
X85140000Y-64010000D02*
X85140000Y-63590000D01*
G75*
G02*
X85350000Y-63380000I210000J0D01*
G01*
X85845000Y-63380000D01*
G75*
G02*
X86055000Y-63590000I0J-210000D01*
G01*
X86055000Y-64010000D01*
G75*
G02*
X85845000Y-64220000I-210000J0D01*
G01*
X85350000Y-64220000D01*
G75*
G02*
X85140000Y-64010000I0J210000D01*
G01*
G37*
G36*
G01*
X83945000Y-64010000D02*
X83945000Y-63590000D01*
G75*
G02*
X84155000Y-63380000I210000J0D01*
G01*
X84650000Y-63380000D01*
G75*
G02*
X84860000Y-63590000I0J-210000D01*
G01*
X84860000Y-64010000D01*
G75*
G02*
X84650000Y-64220000I-210000J0D01*
G01*
X84155000Y-64220000D01*
G75*
G02*
X83945000Y-64010000I0J210000D01*
G01*
G37*
G36*
G01*
X89522000Y-57956000D02*
X89522000Y-58376000D01*
G75*
G02*
X89312000Y-58586000I-210000J0D01*
G01*
X88817000Y-58586000D01*
G75*
G02*
X88607000Y-58376000I0J210000D01*
G01*
X88607000Y-57956000D01*
G75*
G02*
X88817000Y-57746000I210000J0D01*
G01*
X89312000Y-57746000D01*
G75*
G02*
X89522000Y-57956000I0J-210000D01*
G01*
G37*
G36*
G01*
X90717000Y-57956000D02*
X90717000Y-58376000D01*
G75*
G02*
X90507000Y-58586000I-210000J0D01*
G01*
X90012000Y-58586000D01*
G75*
G02*
X89802000Y-58376000I0J210000D01*
G01*
X89802000Y-57956000D01*
G75*
G02*
X90012000Y-57746000I210000J0D01*
G01*
X90507000Y-57746000D01*
G75*
G02*
X90717000Y-57956000I0J-210000D01*
G01*
G37*
G36*
G01*
X102196000Y-60432500D02*
X102196000Y-60852500D01*
G75*
G02*
X101986000Y-61062500I-210000J0D01*
G01*
X101491000Y-61062500D01*
G75*
G02*
X101281000Y-60852500I0J210000D01*
G01*
X101281000Y-60432500D01*
G75*
G02*
X101491000Y-60222500I210000J0D01*
G01*
X101986000Y-60222500D01*
G75*
G02*
X102196000Y-60432500I0J-210000D01*
G01*
G37*
G36*
G01*
X103391000Y-60432500D02*
X103391000Y-60852500D01*
G75*
G02*
X103181000Y-61062500I-210000J0D01*
G01*
X102686000Y-61062500D01*
G75*
G02*
X102476000Y-60852500I0J210000D01*
G01*
X102476000Y-60432500D01*
G75*
G02*
X102686000Y-60222500I210000J0D01*
G01*
X103181000Y-60222500D01*
G75*
G02*
X103391000Y-60432500I0J-210000D01*
G01*
G37*
G36*
G01*
X108140000Y-58190000D02*
X108560000Y-58190000D01*
G75*
G02*
X108770000Y-58400000I0J-210000D01*
G01*
X108770000Y-58895000D01*
G75*
G02*
X108560000Y-59105000I-210000J0D01*
G01*
X108140000Y-59105000D01*
G75*
G02*
X107930000Y-58895000I0J210000D01*
G01*
X107930000Y-58400000D01*
G75*
G02*
X108140000Y-58190000I210000J0D01*
G01*
G37*
G36*
G01*
X108140000Y-56995000D02*
X108560000Y-56995000D01*
G75*
G02*
X108770000Y-57205000I0J-210000D01*
G01*
X108770000Y-57700000D01*
G75*
G02*
X108560000Y-57910000I-210000J0D01*
G01*
X108140000Y-57910000D01*
G75*
G02*
X107930000Y-57700000I0J210000D01*
G01*
X107930000Y-57205000D01*
G75*
G02*
X108140000Y-56995000I210000J0D01*
G01*
G37*
G36*
G01*
X99535000Y-60432500D02*
X99535000Y-60852500D01*
G75*
G02*
X99325000Y-61062500I-210000J0D01*
G01*
X98830000Y-61062500D01*
G75*
G02*
X98620000Y-60852500I0J210000D01*
G01*
X98620000Y-60432500D01*
G75*
G02*
X98830000Y-60222500I210000J0D01*
G01*
X99325000Y-60222500D01*
G75*
G02*
X99535000Y-60432500I0J-210000D01*
G01*
G37*
G36*
G01*
X100730000Y-60432500D02*
X100730000Y-60852500D01*
G75*
G02*
X100520000Y-61062500I-210000J0D01*
G01*
X100025000Y-61062500D01*
G75*
G02*
X99815000Y-60852500I0J210000D01*
G01*
X99815000Y-60432500D01*
G75*
G02*
X100025000Y-60222500I210000J0D01*
G01*
X100520000Y-60222500D01*
G75*
G02*
X100730000Y-60432500I0J-210000D01*
G01*
G37*
G36*
G01*
X89534100Y-58972000D02*
X89534100Y-59392000D01*
G75*
G02*
X89324100Y-59602000I-210000J0D01*
G01*
X88829100Y-59602000D01*
G75*
G02*
X88619100Y-59392000I0J210000D01*
G01*
X88619100Y-58972000D01*
G75*
G02*
X88829100Y-58762000I210000J0D01*
G01*
X89324100Y-58762000D01*
G75*
G02*
X89534100Y-58972000I0J-210000D01*
G01*
G37*
G36*
G01*
X90729100Y-58972000D02*
X90729100Y-59392000D01*
G75*
G02*
X90519100Y-59602000I-210000J0D01*
G01*
X90024100Y-59602000D01*
G75*
G02*
X89814100Y-59392000I0J210000D01*
G01*
X89814100Y-58972000D01*
G75*
G02*
X90024100Y-58762000I210000J0D01*
G01*
X90519100Y-58762000D01*
G75*
G02*
X90729100Y-58972000I0J-210000D01*
G01*
G37*
G36*
G01*
X84860000Y-61615000D02*
X84860000Y-62035000D01*
G75*
G02*
X84650000Y-62245000I-210000J0D01*
G01*
X84155000Y-62245000D01*
G75*
G02*
X83945000Y-62035000I0J210000D01*
G01*
X83945000Y-61615000D01*
G75*
G02*
X84155000Y-61405000I210000J0D01*
G01*
X84650000Y-61405000D01*
G75*
G02*
X84860000Y-61615000I0J-210000D01*
G01*
G37*
G36*
G01*
X86055000Y-61615000D02*
X86055000Y-62035000D01*
G75*
G02*
X85845000Y-62245000I-210000J0D01*
G01*
X85350000Y-62245000D01*
G75*
G02*
X85140000Y-62035000I0J210000D01*
G01*
X85140000Y-61615000D01*
G75*
G02*
X85350000Y-61405000I210000J0D01*
G01*
X85845000Y-61405000D01*
G75*
G02*
X86055000Y-61615000I0J-210000D01*
G01*
G37*
G36*
G01*
X71996000Y-61841400D02*
X71996000Y-62261400D01*
G75*
G02*
X71786000Y-62471400I-210000J0D01*
G01*
X71291000Y-62471400D01*
G75*
G02*
X71081000Y-62261400I0J210000D01*
G01*
X71081000Y-61841400D01*
G75*
G02*
X71291000Y-61631400I210000J0D01*
G01*
X71786000Y-61631400D01*
G75*
G02*
X71996000Y-61841400I0J-210000D01*
G01*
G37*
G36*
G01*
X73191000Y-61841400D02*
X73191000Y-62261400D01*
G75*
G02*
X72981000Y-62471400I-210000J0D01*
G01*
X72486000Y-62471400D01*
G75*
G02*
X72276000Y-62261400I0J210000D01*
G01*
X72276000Y-61841400D01*
G75*
G02*
X72486000Y-61631400I210000J0D01*
G01*
X72981000Y-61631400D01*
G75*
G02*
X73191000Y-61841400I0J-210000D01*
G01*
G37*
G36*
G01*
X71996000Y-62857400D02*
X71996000Y-63277400D01*
G75*
G02*
X71786000Y-63487400I-210000J0D01*
G01*
X71291000Y-63487400D01*
G75*
G02*
X71081000Y-63277400I0J210000D01*
G01*
X71081000Y-62857400D01*
G75*
G02*
X71291000Y-62647400I210000J0D01*
G01*
X71786000Y-62647400D01*
G75*
G02*
X71996000Y-62857400I0J-210000D01*
G01*
G37*
G36*
G01*
X73191000Y-62857400D02*
X73191000Y-63277400D01*
G75*
G02*
X72981000Y-63487400I-210000J0D01*
G01*
X72486000Y-63487400D01*
G75*
G02*
X72276000Y-63277400I0J210000D01*
G01*
X72276000Y-62857400D01*
G75*
G02*
X72486000Y-62647400I210000J0D01*
G01*
X72981000Y-62647400D01*
G75*
G02*
X73191000Y-62857400I0J-210000D01*
G01*
G37*
G36*
G01*
X96175000Y-56955000D02*
X96175000Y-56545000D01*
G75*
G02*
X96380000Y-56340000I205000J0D01*
G01*
X96905000Y-56340000D01*
G75*
G02*
X97110000Y-56545000I0J-205000D01*
G01*
X97110000Y-56955000D01*
G75*
G02*
X96905000Y-57160000I-205000J0D01*
G01*
X96380000Y-57160000D01*
G75*
G02*
X96175000Y-56955000I0J205000D01*
G01*
G37*
G36*
G01*
X95040000Y-56955000D02*
X95040000Y-56545000D01*
G75*
G02*
X95245000Y-56340000I205000J0D01*
G01*
X95770000Y-56340000D01*
G75*
G02*
X95975000Y-56545000I0J-205000D01*
G01*
X95975000Y-56955000D01*
G75*
G02*
X95770000Y-57160000I-205000J0D01*
G01*
X95245000Y-57160000D01*
G75*
G02*
X95040000Y-56955000I0J205000D01*
G01*
G37*
G36*
G01*
X108445000Y-52550000D02*
X108855000Y-52550000D01*
G75*
G02*
X109060000Y-52755000I0J-205000D01*
G01*
X109060000Y-53280000D01*
G75*
G02*
X108855000Y-53485000I-205000J0D01*
G01*
X108445000Y-53485000D01*
G75*
G02*
X108240000Y-53280000I0J205000D01*
G01*
X108240000Y-52755000D01*
G75*
G02*
X108445000Y-52550000I205000J0D01*
G01*
G37*
G36*
G01*
X108445000Y-51415000D02*
X108855000Y-51415000D01*
G75*
G02*
X109060000Y-51620000I0J-205000D01*
G01*
X109060000Y-52145000D01*
G75*
G02*
X108855000Y-52350000I-205000J0D01*
G01*
X108445000Y-52350000D01*
G75*
G02*
X108240000Y-52145000I0J205000D01*
G01*
X108240000Y-51620000D01*
G75*
G02*
X108445000Y-51415000I205000J0D01*
G01*
G37*
G36*
G01*
X95287500Y-55212500D02*
X95287500Y-55787500D01*
G75*
G02*
X95000000Y-56075000I-287500J0D01*
G01*
X94300000Y-56075000D01*
G75*
G02*
X94012500Y-55787500I0J287500D01*
G01*
X94012500Y-55212500D01*
G75*
G02*
X94300000Y-54925000I287500J0D01*
G01*
X95000000Y-54925000D01*
G75*
G02*
X95287500Y-55212500I0J-287500D01*
G01*
G37*
G36*
G01*
X97012500Y-55212500D02*
X97012500Y-55787500D01*
G75*
G02*
X96725000Y-56075000I-287500J0D01*
G01*
X96025000Y-56075000D01*
G75*
G02*
X95737500Y-55787500I0J287500D01*
G01*
X95737500Y-55212500D01*
G75*
G02*
X96025000Y-54925000I287500J0D01*
G01*
X96725000Y-54925000D01*
G75*
G02*
X97012500Y-55212500I0J-287500D01*
G01*
G37*
G36*
G01*
X104555500Y-59660000D02*
X104555500Y-59085000D01*
G75*
G02*
X104843000Y-58797500I287500J0D01*
G01*
X105543000Y-58797500D01*
G75*
G02*
X105830500Y-59085000I0J-287500D01*
G01*
X105830500Y-59660000D01*
G75*
G02*
X105543000Y-59947500I-287500J0D01*
G01*
X104843000Y-59947500D01*
G75*
G02*
X104555500Y-59660000I0J287500D01*
G01*
G37*
G36*
G01*
X102830500Y-59660000D02*
X102830500Y-59085000D01*
G75*
G02*
X103118000Y-58797500I287500J0D01*
G01*
X103818000Y-58797500D01*
G75*
G02*
X104105500Y-59085000I0J-287500D01*
G01*
X104105500Y-59660000D01*
G75*
G02*
X103818000Y-59947500I-287500J0D01*
G01*
X103118000Y-59947500D01*
G75*
G02*
X102830500Y-59660000I0J287500D01*
G01*
G37*
G36*
G01*
X104684500Y-60847500D02*
X104684500Y-60437500D01*
G75*
G02*
X104889500Y-60232500I205000J0D01*
G01*
X105414500Y-60232500D01*
G75*
G02*
X105619500Y-60437500I0J-205000D01*
G01*
X105619500Y-60847500D01*
G75*
G02*
X105414500Y-61052500I-205000J0D01*
G01*
X104889500Y-61052500D01*
G75*
G02*
X104684500Y-60847500I0J205000D01*
G01*
G37*
G36*
G01*
X103549500Y-60847500D02*
X103549500Y-60437500D01*
G75*
G02*
X103754500Y-60232500I205000J0D01*
G01*
X104279500Y-60232500D01*
G75*
G02*
X104484500Y-60437500I0J-205000D01*
G01*
X104484500Y-60847500D01*
G75*
G02*
X104279500Y-61052500I-205000J0D01*
G01*
X103754500Y-61052500D01*
G75*
G02*
X103549500Y-60847500I0J205000D01*
G01*
G37*
G36*
G01*
X96925000Y-61895000D02*
X96925000Y-62305000D01*
G75*
G02*
X96720000Y-62510000I-205000J0D01*
G01*
X96195000Y-62510000D01*
G75*
G02*
X95990000Y-62305000I0J205000D01*
G01*
X95990000Y-61895000D01*
G75*
G02*
X96195000Y-61690000I205000J0D01*
G01*
X96720000Y-61690000D01*
G75*
G02*
X96925000Y-61895000I0J-205000D01*
G01*
G37*
G36*
G01*
X98060000Y-61895000D02*
X98060000Y-62305000D01*
G75*
G02*
X97855000Y-62510000I-205000J0D01*
G01*
X97330000Y-62510000D01*
G75*
G02*
X97125000Y-62305000I0J205000D01*
G01*
X97125000Y-61895000D01*
G75*
G02*
X97330000Y-61690000I205000J0D01*
G01*
X97855000Y-61690000D01*
G75*
G02*
X98060000Y-61895000I0J-205000D01*
G01*
G37*
G36*
G01*
X85100000Y-65005000D02*
X85100000Y-64595000D01*
G75*
G02*
X85305000Y-64390000I205000J0D01*
G01*
X85830000Y-64390000D01*
G75*
G02*
X86035000Y-64595000I0J-205000D01*
G01*
X86035000Y-65005000D01*
G75*
G02*
X85830000Y-65210000I-205000J0D01*
G01*
X85305000Y-65210000D01*
G75*
G02*
X85100000Y-65005000I0J205000D01*
G01*
G37*
G36*
G01*
X83965000Y-65005000D02*
X83965000Y-64595000D01*
G75*
G02*
X84170000Y-64390000I205000J0D01*
G01*
X84695000Y-64390000D01*
G75*
G02*
X84900000Y-64595000I0J-205000D01*
G01*
X84900000Y-65005000D01*
G75*
G02*
X84695000Y-65210000I-205000J0D01*
G01*
X84170000Y-65210000D01*
G75*
G02*
X83965000Y-65005000I0J205000D01*
G01*
G37*
G36*
G01*
X84295000Y-66900000D02*
X84705000Y-66900000D01*
G75*
G02*
X84910000Y-67105000I0J-205000D01*
G01*
X84910000Y-67630000D01*
G75*
G02*
X84705000Y-67835000I-205000J0D01*
G01*
X84295000Y-67835000D01*
G75*
G02*
X84090000Y-67630000I0J205000D01*
G01*
X84090000Y-67105000D01*
G75*
G02*
X84295000Y-66900000I205000J0D01*
G01*
G37*
G36*
G01*
X84295000Y-65765000D02*
X84705000Y-65765000D01*
G75*
G02*
X84910000Y-65970000I0J-205000D01*
G01*
X84910000Y-66495000D01*
G75*
G02*
X84705000Y-66700000I-205000J0D01*
G01*
X84295000Y-66700000D01*
G75*
G02*
X84090000Y-66495000I0J205000D01*
G01*
X84090000Y-65970000D01*
G75*
G02*
X84295000Y-65765000I205000J0D01*
G01*
G37*
G36*
G01*
X90268000Y-56802500D02*
X90268000Y-56227500D01*
G75*
G02*
X90555500Y-55940000I287500J0D01*
G01*
X91255500Y-55940000D01*
G75*
G02*
X91543000Y-56227500I0J-287500D01*
G01*
X91543000Y-56802500D01*
G75*
G02*
X91255500Y-57090000I-287500J0D01*
G01*
X90555500Y-57090000D01*
G75*
G02*
X90268000Y-56802500I0J287500D01*
G01*
G37*
G36*
G01*
X88543000Y-56802500D02*
X88543000Y-56227500D01*
G75*
G02*
X88830500Y-55940000I287500J0D01*
G01*
X89530500Y-55940000D01*
G75*
G02*
X89818000Y-56227500I0J-287500D01*
G01*
X89818000Y-56802500D01*
G75*
G02*
X89530500Y-57090000I-287500J0D01*
G01*
X88830500Y-57090000D01*
G75*
G02*
X88543000Y-56802500I0J287500D01*
G01*
G37*
G36*
G01*
X74955000Y-61150000D02*
X74545000Y-61150000D01*
G75*
G02*
X74340000Y-60945000I0J205000D01*
G01*
X74340000Y-60420000D01*
G75*
G02*
X74545000Y-60215000I205000J0D01*
G01*
X74955000Y-60215000D01*
G75*
G02*
X75160000Y-60420000I0J-205000D01*
G01*
X75160000Y-60945000D01*
G75*
G02*
X74955000Y-61150000I-205000J0D01*
G01*
G37*
G36*
G01*
X74955000Y-62285000D02*
X74545000Y-62285000D01*
G75*
G02*
X74340000Y-62080000I0J205000D01*
G01*
X74340000Y-61555000D01*
G75*
G02*
X74545000Y-61350000I205000J0D01*
G01*
X74955000Y-61350000D01*
G75*
G02*
X75160000Y-61555000I0J-205000D01*
G01*
X75160000Y-62080000D01*
G75*
G02*
X74955000Y-62285000I-205000J0D01*
G01*
G37*
G36*
G01*
X82150000Y-67570000D02*
X82150000Y-67980000D01*
G75*
G02*
X81945000Y-68185000I-205000J0D01*
G01*
X81420000Y-68185000D01*
G75*
G02*
X81215000Y-67980000I0J205000D01*
G01*
X81215000Y-67570000D01*
G75*
G02*
X81420000Y-67365000I205000J0D01*
G01*
X81945000Y-67365000D01*
G75*
G02*
X82150000Y-67570000I0J-205000D01*
G01*
G37*
G36*
G01*
X83285000Y-67570000D02*
X83285000Y-67980000D01*
G75*
G02*
X83080000Y-68185000I-205000J0D01*
G01*
X82555000Y-68185000D01*
G75*
G02*
X82350000Y-67980000I0J205000D01*
G01*
X82350000Y-67570000D01*
G75*
G02*
X82555000Y-67365000I205000J0D01*
G01*
X83080000Y-67365000D01*
G75*
G02*
X83285000Y-67570000I0J-205000D01*
G01*
G37*
G36*
G01*
X84900000Y-62620000D02*
X84900000Y-63030000D01*
G75*
G02*
X84695000Y-63235000I-205000J0D01*
G01*
X84170000Y-63235000D01*
G75*
G02*
X83965000Y-63030000I0J205000D01*
G01*
X83965000Y-62620000D01*
G75*
G02*
X84170000Y-62415000I205000J0D01*
G01*
X84695000Y-62415000D01*
G75*
G02*
X84900000Y-62620000I0J-205000D01*
G01*
G37*
G36*
G01*
X86035000Y-62620000D02*
X86035000Y-63030000D01*
G75*
G02*
X85830000Y-63235000I-205000J0D01*
G01*
X85305000Y-63235000D01*
G75*
G02*
X85100000Y-63030000I0J205000D01*
G01*
X85100000Y-62620000D01*
G75*
G02*
X85305000Y-62415000I205000J0D01*
G01*
X85830000Y-62415000D01*
G75*
G02*
X86035000Y-62620000I0J-205000D01*
G01*
G37*
G36*
G01*
X77095000Y-57200000D02*
X77505000Y-57200000D01*
G75*
G02*
X77710000Y-57405000I0J-205000D01*
G01*
X77710000Y-57930000D01*
G75*
G02*
X77505000Y-58135000I-205000J0D01*
G01*
X77095000Y-58135000D01*
G75*
G02*
X76890000Y-57930000I0J205000D01*
G01*
X76890000Y-57405000D01*
G75*
G02*
X77095000Y-57200000I205000J0D01*
G01*
G37*
G36*
G01*
X77095000Y-56065000D02*
X77505000Y-56065000D01*
G75*
G02*
X77710000Y-56270000I0J-205000D01*
G01*
X77710000Y-56795000D01*
G75*
G02*
X77505000Y-57000000I-205000J0D01*
G01*
X77095000Y-57000000D01*
G75*
G02*
X76890000Y-56795000I0J205000D01*
G01*
X76890000Y-56270000D01*
G75*
G02*
X77095000Y-56065000I205000J0D01*
G01*
G37*
G36*
G01*
X75762500Y-57325000D02*
X76337500Y-57325000D01*
G75*
G02*
X76625000Y-57612500I0J-287500D01*
G01*
X76625000Y-58312500D01*
G75*
G02*
X76337500Y-58600000I-287500J0D01*
G01*
X75762500Y-58600000D01*
G75*
G02*
X75475000Y-58312500I0J287500D01*
G01*
X75475000Y-57612500D01*
G75*
G02*
X75762500Y-57325000I287500J0D01*
G01*
G37*
G36*
G01*
X75762500Y-55600000D02*
X76337500Y-55600000D01*
G75*
G02*
X76625000Y-55887500I0J-287500D01*
G01*
X76625000Y-56587500D01*
G75*
G02*
X76337500Y-56875000I-287500J0D01*
G01*
X75762500Y-56875000D01*
G75*
G02*
X75475000Y-56587500I0J287500D01*
G01*
X75475000Y-55887500D01*
G75*
G02*
X75762500Y-55600000I287500J0D01*
G01*
G37*
G36*
G01*
X71125000Y-66787500D02*
X71125000Y-66212500D01*
G75*
G02*
X71412500Y-65925000I287500J0D01*
G01*
X72112500Y-65925000D01*
G75*
G02*
X72400000Y-66212500I0J-287500D01*
G01*
X72400000Y-66787500D01*
G75*
G02*
X72112500Y-67075000I-287500J0D01*
G01*
X71412500Y-67075000D01*
G75*
G02*
X71125000Y-66787500I0J287500D01*
G01*
G37*
G36*
G01*
X69400000Y-66787500D02*
X69400000Y-66212500D01*
G75*
G02*
X69687500Y-65925000I287500J0D01*
G01*
X70387500Y-65925000D01*
G75*
G02*
X70675000Y-66212500I0J-287500D01*
G01*
X70675000Y-66787500D01*
G75*
G02*
X70387500Y-67075000I-287500J0D01*
G01*
X69687500Y-67075000D01*
G75*
G02*
X69400000Y-66787500I0J287500D01*
G01*
G37*
G36*
G01*
X70425000Y-65455000D02*
X70425000Y-65045000D01*
G75*
G02*
X70630000Y-64840000I205000J0D01*
G01*
X71155000Y-64840000D01*
G75*
G02*
X71360000Y-65045000I0J-205000D01*
G01*
X71360000Y-65455000D01*
G75*
G02*
X71155000Y-65660000I-205000J0D01*
G01*
X70630000Y-65660000D01*
G75*
G02*
X70425000Y-65455000I0J205000D01*
G01*
G37*
G36*
G01*
X69290000Y-65455000D02*
X69290000Y-65045000D01*
G75*
G02*
X69495000Y-64840000I205000J0D01*
G01*
X70020000Y-64840000D01*
G75*
G02*
X70225000Y-65045000I0J-205000D01*
G01*
X70225000Y-65455000D01*
G75*
G02*
X70020000Y-65660000I-205000J0D01*
G01*
X69495000Y-65660000D01*
G75*
G02*
X69290000Y-65455000I0J205000D01*
G01*
G37*
G36*
G01*
X94267500Y-60456000D02*
X93692500Y-60456000D01*
G75*
G02*
X93405000Y-60168500I0J287500D01*
G01*
X93405000Y-59493500D01*
G75*
G02*
X93692500Y-59206000I287500J0D01*
G01*
X94267500Y-59206000D01*
G75*
G02*
X94555000Y-59493500I0J-287500D01*
G01*
X94555000Y-60168500D01*
G75*
G02*
X94267500Y-60456000I-287500J0D01*
G01*
G37*
G36*
G01*
X94267500Y-62206000D02*
X93692500Y-62206000D01*
G75*
G02*
X93405000Y-61918500I0J287500D01*
G01*
X93405000Y-61243500D01*
G75*
G02*
X93692500Y-60956000I287500J0D01*
G01*
X94267500Y-60956000D01*
G75*
G02*
X94555000Y-61243500I0J-287500D01*
G01*
X94555000Y-61918500D01*
G75*
G02*
X94267500Y-62206000I-287500J0D01*
G01*
G37*
G36*
G01*
X92743500Y-60456000D02*
X92168500Y-60456000D01*
G75*
G02*
X91881000Y-60168500I0J287500D01*
G01*
X91881000Y-59493500D01*
G75*
G02*
X92168500Y-59206000I287500J0D01*
G01*
X92743500Y-59206000D01*
G75*
G02*
X93031000Y-59493500I0J-287500D01*
G01*
X93031000Y-60168500D01*
G75*
G02*
X92743500Y-60456000I-287500J0D01*
G01*
G37*
G36*
G01*
X92743500Y-62206000D02*
X92168500Y-62206000D01*
G75*
G02*
X91881000Y-61918500I0J287500D01*
G01*
X91881000Y-61243500D01*
G75*
G02*
X92168500Y-60956000I287500J0D01*
G01*
X92743500Y-60956000D01*
G75*
G02*
X93031000Y-61243500I0J-287500D01*
G01*
X93031000Y-61918500D01*
G75*
G02*
X92743500Y-62206000I-287500J0D01*
G01*
G37*
M02*
