M48
; DRILL file {KiCad (5.1.10)-1} date 07/14/21 18:31:56
; FORMAT={-:-/ absolute / metric / decimal}
; #@! TF.CreationDate,2021-07-14T18:31:56+02:00
; #@! TF.GenerationSoftware,Kicad,Pcbnew,(5.1.10)-1
; #@! TF.FileFunction,Plated,1,2,PTH
FMAT,2
METRIC
T1C0.200
T2C0.300
T3C0.400
T4C0.800
T5C1.000
T6C1.050
%
G90
G05
T1
X74.51Y-63.054
X74.85Y-66.85
X75.15Y-62.8
X75.6Y-62.3
X75.75Y-64.8
X76.25Y-65.8
X76.75Y-66.05
X77.79Y-60.24
X78.361Y-59.911
X78.75Y-60.3
X79.75Y-60.3
X79.79Y-66.8
X81.25Y-61.3
X82.16Y-61.42
X82.22Y-63.83
X82.55Y-61.81
X82.71Y-60.54
X83.45Y-61.525
X83.7Y-59.95
X84.65Y-59.53
X86.1Y-59.19
X86.56Y-58.88
X86.91Y-58.45
X91.775Y-60.925
X94.86Y-61.05
X97.4Y-64.4
X97.903Y-64.889
X98.353Y-66.4
X98.4Y-63.1
X98.45Y-61.85
X98.5Y-65.05
X100.6Y-63.75
X100.65Y-65.5
X100.65Y-67.35
X101.025Y-60.642
X102.075Y-55.625
X107.525Y-55.825
T2
X86.4Y-64.6
X86.525Y-63.8
X88.2Y-66.6
X89.075Y-63.8
T3
X71.7Y-58.05
X72.075Y-65.25
X73.05Y-54.5
X73.9Y-61.8
X74.33Y-59.12
X76.1Y-55.15
X78.55Y-55.85
X78.79Y-53.55
X82.3Y-66.6
X87.8Y-55.25
X87.95Y-68.35
X89.16Y-54.35
X92.42Y-66.36
X92.675Y-56.7
X93.1Y-67.4
X95.5Y-66.36
X96.3Y-60.45
X96.375Y-53.4
X97.475Y-53.55
X99.575Y-56.625
X103.15Y-62.4
X103.3Y-66.5
X105.85Y-57.25
X106.6Y-69.0
X107.55Y-59.25
X108.575Y-54.05
T4
X79.1Y-63.5
T5
X68.175Y-57.325
X68.175Y-59.825
X68.175Y-61.825
X68.175Y-64.325
X111.0Y-53.162
X111.0Y-55.702
X111.0Y-58.242
X111.0Y-60.782
X111.0Y-63.322
X111.0Y-65.862
X111.0Y-68.402
X113.54Y-53.162
X113.54Y-55.702
X113.54Y-58.242
X113.54Y-60.782
X113.54Y-63.322
X113.54Y-65.862
X113.54Y-68.402
T6
X66.85Y-55.125G85X65.3Y-55.125
G05
X66.85Y-66.525G85X65.3Y-66.525
G05
T0
M30
