G04 #@! TF.GenerationSoftware,KiCad,Pcbnew,(5.1.10)-1*
G04 #@! TF.CreationDate,2021-07-14T18:31:49+02:00*
G04 #@! TF.ProjectId,MSPBMP2-stick,4d535042-4d50-4322-9d73-7469636b2e6b,rev?*
G04 #@! TF.SameCoordinates,Original*
G04 #@! TF.FileFunction,Soldermask,Bot*
G04 #@! TF.FilePolarity,Negative*
%FSLAX46Y46*%
G04 Gerber Fmt 4.6, Leading zero omitted, Abs format (unit mm)*
G04 Created by KiCad (PCBNEW (5.1.10)-1) date 2021-07-14 18:31:49*
%MOMM*%
%LPD*%
G01*
G04 APERTURE LIST*
%ADD10O,3.350000X1.775000*%
%ADD11C,1.450000*%
%ADD12C,1.708000*%
%ADD13O,1.900000X1.900000*%
%ADD14C,1.700000*%
G04 APERTURE END LIST*
D10*
X66075000Y-66525000D03*
X66075000Y-55125000D03*
D11*
X66075000Y-58575000D03*
X66075000Y-63075000D03*
D12*
X68175000Y-57325000D03*
X68175000Y-59825000D03*
X68175000Y-61825000D03*
G36*
G01*
X67421000Y-63471000D02*
X68929000Y-63471000D01*
G75*
G02*
X69029000Y-63571000I0J-100000D01*
G01*
X69029000Y-65079000D01*
G75*
G02*
X68929000Y-65179000I-100000J0D01*
G01*
X67421000Y-65179000D01*
G75*
G02*
X67321000Y-65079000I0J100000D01*
G01*
X67321000Y-63571000D01*
G75*
G02*
X67421000Y-63471000I100000J0D01*
G01*
G37*
D13*
X113540000Y-68402200D03*
X111000000Y-68402200D03*
X113540000Y-65862200D03*
X111000000Y-65862200D03*
X113540000Y-63322200D03*
X111000000Y-63322200D03*
X113540000Y-60782200D03*
X111000000Y-60782200D03*
X113540000Y-58242200D03*
X111000000Y-58242200D03*
X113540000Y-55702200D03*
X111000000Y-55702200D03*
X113540000Y-53162200D03*
G36*
G01*
X110050000Y-54012200D02*
X110050000Y-52312200D01*
G75*
G02*
X110150000Y-52212200I100000J0D01*
G01*
X111850000Y-52212200D01*
G75*
G02*
X111950000Y-52312200I0J-100000D01*
G01*
X111950000Y-54012200D01*
G75*
G02*
X111850000Y-54112200I-100000J0D01*
G01*
X110150000Y-54112200D01*
G75*
G02*
X110050000Y-54012200I0J100000D01*
G01*
G37*
D14*
X83566000Y-68262500D03*
X81026000Y-68262500D03*
X78486000Y-68262500D03*
X75946000Y-68262500D03*
X73406000Y-68262500D03*
M02*
