G04 #@! TF.GenerationSoftware,KiCad,Pcbnew,(5.1.10)-1*
G04 #@! TF.CreationDate,2021-07-14T18:31:49+02:00*
G04 #@! TF.ProjectId,MSPBMP2-stick,4d535042-4d50-4322-9d73-7469636b2e6b,rev?*
G04 #@! TF.SameCoordinates,Original*
G04 #@! TF.FileFunction,Copper,L2,Bot*
G04 #@! TF.FilePolarity,Positive*
%FSLAX46Y46*%
G04 Gerber Fmt 4.6, Leading zero omitted, Abs format (unit mm)*
G04 Created by KiCad (PCBNEW (5.1.10)-1) date 2021-07-14 18:31:49*
%MOMM*%
%LPD*%
G01*
G04 APERTURE LIST*
G04 #@! TA.AperFunction,ComponentPad*
%ADD10O,3.150000X1.575000*%
G04 #@! TD*
G04 #@! TA.AperFunction,ComponentPad*
%ADD11C,1.508000*%
G04 #@! TD*
G04 #@! TA.AperFunction,ComponentPad*
%ADD12R,1.508000X1.508000*%
G04 #@! TD*
G04 #@! TA.AperFunction,ComponentPad*
%ADD13O,1.700000X1.700000*%
G04 #@! TD*
G04 #@! TA.AperFunction,ComponentPad*
%ADD14R,1.700000X1.700000*%
G04 #@! TD*
G04 #@! TA.AperFunction,SMDPad,CuDef*
%ADD15C,1.500000*%
G04 #@! TD*
G04 #@! TA.AperFunction,ViaPad*
%ADD16C,1.500000*%
G04 #@! TD*
G04 #@! TA.AperFunction,ViaPad*
%ADD17C,0.800000*%
G04 #@! TD*
G04 #@! TA.AperFunction,ViaPad*
%ADD18C,0.600000*%
G04 #@! TD*
G04 #@! TA.AperFunction,ViaPad*
%ADD19C,0.400000*%
G04 #@! TD*
G04 #@! TA.AperFunction,Conductor*
%ADD20C,0.381000*%
G04 #@! TD*
G04 #@! TA.AperFunction,Conductor*
%ADD21C,0.387000*%
G04 #@! TD*
G04 #@! TA.AperFunction,Conductor*
%ADD22C,0.508000*%
G04 #@! TD*
G04 #@! TA.AperFunction,Conductor*
%ADD23C,0.750000*%
G04 #@! TD*
G04 #@! TA.AperFunction,Conductor*
%ADD24C,0.200000*%
G04 #@! TD*
G04 #@! TA.AperFunction,Conductor*
%ADD25C,0.254000*%
G04 #@! TD*
G04 #@! TA.AperFunction,Conductor*
%ADD26C,0.150000*%
G04 #@! TD*
G04 APERTURE END LIST*
D10*
X66075000Y-66525000D03*
X66075000Y-55125000D03*
D11*
X68175000Y-57325000D03*
X68175000Y-59825000D03*
X68175000Y-61825000D03*
D12*
X68175000Y-64325000D03*
D13*
X113540000Y-68402200D03*
X111000000Y-68402200D03*
X113540000Y-65862200D03*
X111000000Y-65862200D03*
X113540000Y-63322200D03*
X111000000Y-63322200D03*
X113540000Y-60782200D03*
X111000000Y-60782200D03*
X113540000Y-58242200D03*
X111000000Y-58242200D03*
X113540000Y-55702200D03*
X111000000Y-55702200D03*
X113540000Y-53162200D03*
D14*
X111000000Y-53162200D03*
D15*
X83566000Y-68262500D03*
X81026000Y-68262500D03*
X78486000Y-68262500D03*
X75946000Y-68262500D03*
X73406000Y-68262500D03*
D16*
X79100000Y-63500000D03*
D17*
X96300000Y-60450000D03*
X93100000Y-67400000D03*
D18*
X86400000Y-64600000D03*
X88200000Y-66600000D03*
D17*
X92675000Y-56700000D03*
X103300000Y-66500000D03*
X106600000Y-69000000D03*
X87950000Y-68350000D03*
X78550000Y-55850000D03*
X87800000Y-55250000D03*
X99575000Y-56625000D03*
X105850000Y-57250000D03*
X108575000Y-54050000D03*
X71700000Y-58050000D03*
X72075000Y-65250000D03*
X74330000Y-59120000D03*
X73050000Y-54500000D03*
X96375000Y-53400000D03*
X78789990Y-53550010D03*
X89159991Y-54350009D03*
D18*
X86525000Y-63800000D03*
X89075000Y-63800000D03*
D17*
X82300000Y-66600000D03*
X92420000Y-66360000D03*
X95500000Y-66360000D03*
X76100000Y-55150000D03*
X73900000Y-61800000D03*
X103150000Y-62400000D03*
X107550000Y-59250000D03*
X97475000Y-53550000D03*
D19*
X82220000Y-63830000D03*
X84650000Y-59530000D03*
X78361090Y-59911090D03*
X91775000Y-60925000D03*
X79790000Y-66800000D03*
X94860000Y-61050001D03*
X107525000Y-55825000D03*
X102075000Y-55625000D03*
X74850000Y-66850000D03*
X75149980Y-62800000D03*
X74510447Y-63053517D03*
X82710000Y-60540000D03*
X101025000Y-60642500D03*
X75599980Y-62300000D03*
X98352851Y-66400001D03*
X77790000Y-60240000D03*
X100650000Y-67350000D03*
X78750000Y-60300000D03*
X98400000Y-63100000D03*
X98450000Y-61850000D03*
X83700000Y-59950000D03*
X79750000Y-60300000D03*
X97400000Y-64400000D03*
X100600000Y-63750000D03*
X83450000Y-61525000D03*
X81250000Y-61300000D03*
X100650000Y-65500000D03*
X97902851Y-64889249D03*
X82160000Y-61420000D03*
X98500000Y-65050000D03*
X82550000Y-61810000D03*
X76250000Y-65800000D03*
X86560000Y-58880000D03*
X75750000Y-64800000D03*
X86910000Y-58450000D03*
X76750000Y-66050000D03*
X86100000Y-59190000D03*
D20*
X80290521Y-64690521D02*
X79100000Y-63500000D01*
D21*
X80293521Y-64693521D02*
X80290521Y-64690521D01*
X86306479Y-64693521D02*
X80293521Y-64693521D01*
X86400000Y-64600000D02*
X86306479Y-64693521D01*
X80293521Y-64693521D02*
X79100000Y-63500000D01*
D22*
X88200000Y-66600000D02*
X88200000Y-67720000D01*
D23*
X71650000Y-60700000D02*
X73047501Y-59302499D01*
X73047501Y-59302499D02*
X73047501Y-54950001D01*
X71650000Y-63325000D02*
X71650000Y-60700000D01*
X70642000Y-64333000D02*
X71650000Y-63325000D01*
X68183000Y-64333000D02*
X70642000Y-64333000D01*
X68175000Y-64325000D02*
X68183000Y-64333000D01*
X73050000Y-54947502D02*
X73047501Y-54950001D01*
X73050000Y-54500000D02*
X73050000Y-54947502D01*
X74974991Y-52575009D02*
X73050000Y-54500000D01*
X88725009Y-52575009D02*
X74974991Y-52575009D01*
X89550000Y-53400000D02*
X88725009Y-52575009D01*
X96375000Y-53400000D02*
X89550000Y-53400000D01*
X89156493Y-54350009D02*
X89159991Y-54350009D01*
X88356494Y-53550010D02*
X89156493Y-54350009D01*
X78789990Y-53550010D02*
X88356494Y-53550010D01*
D22*
X86525000Y-63800000D02*
X89075000Y-63800000D01*
X89656512Y-66360000D02*
X89930000Y-66360000D01*
X89142511Y-65845999D02*
X89656512Y-66360000D01*
X87320479Y-65845999D02*
X89142511Y-65845999D01*
X89930000Y-66360000D02*
X92420000Y-66360000D01*
X87002469Y-66164009D02*
X87320479Y-65845999D01*
X82735990Y-66164010D02*
X87002469Y-66164009D01*
X82300000Y-66600000D02*
X82735990Y-66164010D01*
X95500000Y-66360000D02*
X92420000Y-66360000D01*
D23*
X89184983Y-54375001D02*
X89159991Y-54350009D01*
X76549990Y-53550010D02*
X78789990Y-53550010D01*
X76100000Y-54000000D02*
X76549990Y-53550010D01*
X76100000Y-55150000D02*
X76100000Y-54000000D01*
D22*
X73856446Y-63818554D02*
X73406000Y-64269000D01*
X73856446Y-61843554D02*
X73856446Y-63818554D01*
X73900000Y-61800000D02*
X73856446Y-61843554D01*
X73900000Y-61800000D02*
X75050000Y-61800000D01*
X75050000Y-61800000D02*
X75385949Y-61464051D01*
X75385949Y-61464051D02*
X75385950Y-59170562D01*
X76100000Y-58456512D02*
X76100000Y-55150000D01*
X75385950Y-59170562D02*
X76100000Y-58456512D01*
D21*
X104400000Y-62400000D02*
X107550000Y-59250000D01*
X103150000Y-62400000D02*
X104400000Y-62400000D01*
D23*
X89184982Y-54375000D02*
X89159991Y-54350009D01*
X96924264Y-54375000D02*
X89184982Y-54375000D01*
X97475000Y-53824264D02*
X97475000Y-53550000D01*
X96924264Y-54375000D02*
X97475000Y-53824264D01*
D22*
X73406000Y-64269000D02*
X73406000Y-68262500D01*
D24*
X84269981Y-59149981D02*
X84650000Y-59530000D01*
X78184017Y-59149981D02*
X84269981Y-59149981D01*
X77339999Y-60456001D02*
X77339999Y-59993999D01*
X79900010Y-61150010D02*
X78034008Y-61150010D01*
X77339999Y-59993999D02*
X78184017Y-59149981D01*
X80649975Y-62555929D02*
X80649975Y-61899975D01*
X78034008Y-61150010D02*
X77339999Y-60456001D01*
X81924046Y-63830000D02*
X80649975Y-62555929D01*
X80649975Y-61899975D02*
X79900010Y-61150010D01*
X82220000Y-63830000D02*
X81924046Y-63830000D01*
X90849998Y-59999998D02*
X91775000Y-60925000D01*
X83899995Y-59499991D02*
X84400002Y-59999998D01*
X80610979Y-59499989D02*
X80610981Y-59499991D01*
X84400002Y-59999998D02*
X90849998Y-59999998D01*
X78772191Y-59499989D02*
X80610979Y-59499989D01*
X80610981Y-59499991D02*
X83899995Y-59499991D01*
X78361090Y-59911090D02*
X78772191Y-59499989D01*
X79790000Y-66800000D02*
X79140000Y-66150000D01*
X79140000Y-66150000D02*
X77516002Y-66150000D01*
X77516002Y-66150000D02*
X77100010Y-65734008D01*
X77100010Y-65734008D02*
X77100010Y-60761000D01*
X76989989Y-59849021D02*
X78039039Y-58799971D01*
X76989989Y-60600979D02*
X76989989Y-59849021D01*
X77100010Y-60711000D02*
X76989989Y-60600979D01*
X77100010Y-60761000D02*
X77100010Y-60711000D01*
X84585973Y-58799971D02*
X85435990Y-59649988D01*
X78039039Y-58799971D02*
X84585973Y-58799971D01*
X91165990Y-59649988D02*
X92665993Y-61149991D01*
X85435990Y-59649988D02*
X91165990Y-59649988D01*
X94760010Y-61149991D02*
X94860000Y-61050001D01*
X92665993Y-61149991D02*
X94760010Y-61149991D01*
X113540000Y-55702200D02*
X112439999Y-56802201D01*
X109400000Y-55825000D02*
X107525000Y-55825000D01*
X110377201Y-56802201D02*
X112439999Y-56802201D01*
X109400000Y-55825000D02*
X110377201Y-56802201D01*
X102274999Y-55824999D02*
X102075000Y-55625000D01*
X107525000Y-55825000D02*
X102274999Y-55824999D01*
X74850000Y-66850000D02*
X75149034Y-66850000D01*
X75946000Y-67646966D02*
X75946000Y-68262500D01*
X75149034Y-66850000D02*
X75946000Y-67646966D01*
X74949989Y-64439021D02*
X75149980Y-64239030D01*
X74949989Y-65660979D02*
X74949989Y-64439021D01*
X76139019Y-66850009D02*
X74949989Y-65660979D01*
X78553511Y-66850009D02*
X76139019Y-66850009D01*
X79500000Y-67796498D02*
X78553511Y-66850009D01*
X80559998Y-67796498D02*
X79500000Y-67796498D01*
X81026000Y-68262500D02*
X80559998Y-67796498D01*
X75149980Y-63850020D02*
X75149980Y-62800000D01*
X75149980Y-64239030D02*
X75149980Y-63850020D01*
X74510447Y-63053517D02*
X74510447Y-65716425D01*
X74510447Y-65716425D02*
X75994041Y-67200019D01*
X77423519Y-67200019D02*
X78486000Y-68262500D01*
X75994041Y-67200019D02*
X77423519Y-67200019D01*
X90405030Y-60700018D02*
X83955030Y-60700018D01*
X83955030Y-60700018D02*
X83795012Y-60540000D01*
X91555023Y-61850011D02*
X90405030Y-60700018D01*
X97784009Y-61850011D02*
X91555023Y-61850011D01*
X98253998Y-62320000D02*
X97784009Y-61850011D01*
X99347500Y-62320000D02*
X98253998Y-62320000D01*
X83795012Y-60540000D02*
X82710000Y-60540000D01*
X101025000Y-60642500D02*
X99347500Y-62320000D01*
X87137000Y-65245990D02*
X89325990Y-65245990D01*
X86772989Y-65610001D02*
X87137000Y-65245990D01*
X81599999Y-66930001D02*
X81599999Y-66263999D01*
X81599999Y-66263999D02*
X82253997Y-65610001D01*
X81280000Y-67250000D02*
X81599999Y-66930001D01*
X78749999Y-66500001D02*
X79499999Y-67250001D01*
X76283999Y-66500001D02*
X78749999Y-66500001D01*
X75300000Y-65516002D02*
X76283999Y-66500001D01*
X82253997Y-65610001D02*
X86772989Y-65610001D01*
X75299999Y-64583999D02*
X75300000Y-65516002D01*
X89739999Y-65659999D02*
X97020023Y-65659999D01*
X79499999Y-67250001D02*
X81280000Y-67250000D01*
X75599980Y-64284018D02*
X75299999Y-64583999D01*
X75599980Y-62300000D02*
X75599980Y-64284018D01*
X89325990Y-65245990D02*
X89739999Y-65659999D01*
X97760025Y-66400001D02*
X97020023Y-65659999D01*
X98352851Y-66400001D02*
X97760025Y-66400001D01*
X100650000Y-66150000D02*
X100650000Y-67350000D01*
X78350000Y-60800000D02*
X80083998Y-60800000D01*
X80083998Y-60800000D02*
X80999983Y-61715985D01*
X80999983Y-61715985D02*
X80999983Y-62410949D01*
X80999983Y-62410949D02*
X81964075Y-63375041D01*
X96155093Y-64300081D02*
X97805013Y-65950001D01*
X81964075Y-63375041D02*
X84245913Y-63375041D01*
X84470866Y-63150088D02*
X89385172Y-63150088D01*
X77790000Y-60240000D02*
X78350000Y-60800000D01*
X89385172Y-63150088D02*
X90535165Y-64300081D01*
X90535165Y-64300081D02*
X96155093Y-64300081D01*
X97805013Y-65950001D02*
X100450001Y-65950001D01*
X84245913Y-63375041D02*
X84470866Y-63150088D01*
X100450001Y-65950001D02*
X100650000Y-66150000D01*
X98400000Y-63070000D02*
X98400000Y-63100000D01*
X90260052Y-61050028D02*
X91410045Y-62200021D01*
X82554026Y-61050028D02*
X90260052Y-61050028D01*
X82259999Y-60756001D02*
X82554026Y-61050028D01*
X82259999Y-60309999D02*
X82259999Y-60756001D01*
X97530021Y-62200021D02*
X98400000Y-63070000D01*
X81799999Y-59849999D02*
X82259999Y-60309999D01*
X91410045Y-62200021D02*
X97530021Y-62200021D01*
X79200001Y-59849999D02*
X81799999Y-59849999D01*
X78750000Y-60300000D02*
X79200001Y-59849999D01*
X91299999Y-61099999D02*
X91700001Y-61500001D01*
X91299999Y-61094987D02*
X91299999Y-61099999D01*
X91700001Y-61500001D02*
X98100001Y-61500001D01*
X90555020Y-60350008D02*
X91299999Y-61094987D01*
X98100001Y-61500001D02*
X98450000Y-61850000D01*
X84100008Y-60350008D02*
X90555020Y-60350008D01*
X83700000Y-59950000D02*
X84100008Y-60350008D01*
X80916002Y-60300000D02*
X79750000Y-60300000D01*
X81700001Y-62120991D02*
X81700001Y-61083999D01*
X83955957Y-62675021D02*
X82254031Y-62675021D01*
X89675128Y-62450068D02*
X84180910Y-62450068D01*
X82254031Y-62675021D02*
X81700001Y-62120991D01*
X90825121Y-63600061D02*
X89675128Y-62450068D01*
X84180910Y-62450068D02*
X83955957Y-62675021D01*
X96600061Y-63600061D02*
X90825121Y-63600061D01*
X81700001Y-61083999D02*
X80916002Y-60300000D01*
X97400000Y-64400000D02*
X96600061Y-63600061D01*
X100400001Y-63550001D02*
X100600000Y-63750000D01*
X97184029Y-62550031D02*
X98183999Y-63550001D01*
X91260055Y-62550031D02*
X97184029Y-62550031D01*
X90110062Y-61400038D02*
X91260055Y-62550031D01*
X83599962Y-61400038D02*
X90110062Y-61400038D01*
X83475000Y-61525000D02*
X83599962Y-61400038D01*
X98183999Y-63550001D02*
X100400001Y-63550001D01*
X83450000Y-61525000D02*
X83475000Y-61525000D01*
X81349993Y-62265971D02*
X81349993Y-61399993D01*
X82109053Y-63025031D02*
X81349993Y-62265971D01*
X84100935Y-63025031D02*
X82109053Y-63025031D01*
X84325888Y-62800078D02*
X84100935Y-63025031D01*
X89530150Y-62800078D02*
X84325888Y-62800078D01*
X96300071Y-63950071D02*
X90680143Y-63950071D01*
X97850001Y-65500001D02*
X96300071Y-63950071D01*
X81349993Y-61399993D02*
X81250000Y-61300000D01*
X90680143Y-63950071D02*
X89530150Y-62800078D01*
X100367158Y-65500000D02*
X100650000Y-65500000D01*
X97850001Y-65500001D02*
X100367158Y-65500000D01*
X82099999Y-62026001D02*
X82099999Y-61480001D01*
X83810979Y-62325011D02*
X82399009Y-62325011D01*
X82399009Y-62325011D02*
X82099999Y-62026001D01*
X84035932Y-62100058D02*
X83810979Y-62325011D01*
X89820106Y-62100058D02*
X84035932Y-62100058D01*
X90970099Y-63250051D02*
X89820106Y-62100058D01*
X96894073Y-63250051D02*
X90970099Y-63250051D01*
X97902851Y-64258829D02*
X96894073Y-63250051D01*
X82099999Y-61480001D02*
X82160000Y-61420000D01*
X97902851Y-64889249D02*
X97902851Y-64258829D01*
X91115077Y-62900041D02*
X89965084Y-61750048D01*
X97039051Y-62900041D02*
X91115077Y-62900041D01*
X89965084Y-61750048D02*
X83890954Y-61750048D01*
X98500000Y-64360990D02*
X97039051Y-62900041D01*
X98500000Y-65050000D02*
X98500000Y-64360990D01*
X83666001Y-61975001D02*
X83890954Y-61750048D01*
X83233999Y-61975001D02*
X83666001Y-61975001D01*
X83068998Y-61810000D02*
X83233999Y-61975001D01*
X82550000Y-61810000D02*
X83068998Y-61810000D01*
X76399990Y-65650010D02*
X76250000Y-65800000D01*
X76289969Y-60890935D02*
X76399989Y-61000955D01*
X76289969Y-59545019D02*
X76289969Y-60890935D01*
X76399989Y-61000955D02*
X76399990Y-65650010D01*
X77764978Y-58070010D02*
X76289969Y-59545019D01*
X84845988Y-58070010D02*
X77764978Y-58070010D01*
X86419999Y-58739999D02*
X85515977Y-58739999D01*
X85515977Y-58739999D02*
X84845988Y-58070010D01*
X86560000Y-58880000D02*
X86419999Y-58739999D01*
X76049981Y-61145935D02*
X76049980Y-64500020D01*
X75939959Y-61035913D02*
X76049981Y-61145935D01*
X75939959Y-59400041D02*
X75939959Y-61035913D01*
X77620000Y-57720000D02*
X75939959Y-59400041D01*
X84740000Y-57720000D02*
X77620000Y-57720000D01*
X84990968Y-57720002D02*
X84740002Y-57720002D01*
X85660955Y-58389989D02*
X84990968Y-57720002D01*
X76049980Y-64500020D02*
X75750000Y-64800000D01*
X86849989Y-58389989D02*
X85660955Y-58389989D01*
X84740002Y-57720002D02*
X84740000Y-57720000D01*
X86910000Y-58450000D02*
X86849989Y-58389989D01*
X76639979Y-59704043D02*
X77894061Y-58449961D01*
X76639979Y-60745957D02*
X76639979Y-59704043D01*
X85470990Y-59190000D02*
X86100000Y-59190000D01*
X76749997Y-60855975D02*
X76639979Y-60745957D01*
X84730951Y-58449961D02*
X85470990Y-59190000D01*
X76749997Y-61794039D02*
X76749997Y-60855975D01*
X76750000Y-61860000D02*
X76749997Y-61794039D01*
X77894061Y-58449961D02*
X84730951Y-58449961D01*
X76750000Y-66050000D02*
X76750000Y-61860000D01*
D25*
X114467000Y-52168697D02*
X114405675Y-52107372D01*
X114183254Y-51958756D01*
X113936114Y-51856387D01*
X113673751Y-51804200D01*
X113406249Y-51804200D01*
X113143886Y-51856387D01*
X112896746Y-51958756D01*
X112674325Y-52107372D01*
X112485172Y-52296525D01*
X112360457Y-52483175D01*
X112360457Y-52312200D01*
X112350649Y-52212615D01*
X112321601Y-52116857D01*
X112274429Y-52028605D01*
X112210948Y-51951252D01*
X112133595Y-51887771D01*
X112045343Y-51840599D01*
X111949585Y-51811551D01*
X111850000Y-51801743D01*
X110150000Y-51801743D01*
X110050415Y-51811551D01*
X109954657Y-51840599D01*
X109866405Y-51887771D01*
X109789052Y-51951252D01*
X109725571Y-52028605D01*
X109678399Y-52116857D01*
X109649351Y-52212615D01*
X109639543Y-52312200D01*
X109639543Y-54012200D01*
X109649351Y-54111785D01*
X109678399Y-54207543D01*
X109725571Y-54295795D01*
X109789052Y-54373148D01*
X109866405Y-54436629D01*
X109954657Y-54483801D01*
X110050415Y-54512849D01*
X110150000Y-54522657D01*
X110320975Y-54522657D01*
X110134325Y-54647372D01*
X109945172Y-54836525D01*
X109796556Y-55058946D01*
X109698678Y-55295244D01*
X109633797Y-55260564D01*
X109519189Y-55225798D01*
X109429861Y-55217000D01*
X109429860Y-55217000D01*
X109400000Y-55214059D01*
X109370140Y-55217000D01*
X107889431Y-55217000D01*
X107860364Y-55197578D01*
X107731516Y-55144208D01*
X107594732Y-55117000D01*
X107455268Y-55117000D01*
X107318484Y-55144208D01*
X107189636Y-55197578D01*
X107160568Y-55217001D01*
X102653888Y-55216999D01*
X102624940Y-55173676D01*
X102526324Y-55075060D01*
X102410364Y-54997578D01*
X102281516Y-54944208D01*
X102144732Y-54917000D01*
X102005268Y-54917000D01*
X101868484Y-54944208D01*
X101739636Y-54997578D01*
X101623676Y-55075060D01*
X101525060Y-55173676D01*
X101447578Y-55289636D01*
X101394208Y-55418484D01*
X101367000Y-55555268D01*
X101367000Y-55694732D01*
X101394208Y-55831516D01*
X101447578Y-55960364D01*
X101525060Y-56076324D01*
X101623676Y-56174940D01*
X101739636Y-56252422D01*
X101868484Y-56305792D01*
X101913320Y-56314710D01*
X101935578Y-56332977D01*
X102005218Y-56370200D01*
X102041202Y-56389434D01*
X102155810Y-56424201D01*
X102274998Y-56435940D01*
X102304869Y-56432998D01*
X107160569Y-56433000D01*
X107189636Y-56452422D01*
X107318484Y-56505792D01*
X107455268Y-56533000D01*
X107594732Y-56533000D01*
X107731516Y-56505792D01*
X107860364Y-56452422D01*
X107889431Y-56433000D01*
X109148159Y-56433000D01*
X109926157Y-57210998D01*
X109945200Y-57234202D01*
X110023355Y-57298342D01*
X109945172Y-57376525D01*
X109796556Y-57598946D01*
X109694187Y-57846086D01*
X109642000Y-58108449D01*
X109642000Y-58375951D01*
X109694187Y-58638314D01*
X109796556Y-58885454D01*
X109945172Y-59107875D01*
X110134325Y-59297028D01*
X110356746Y-59445644D01*
X110517426Y-59512200D01*
X110356746Y-59578756D01*
X110134325Y-59727372D01*
X109945172Y-59916525D01*
X109796556Y-60138946D01*
X109694187Y-60386086D01*
X109642000Y-60648449D01*
X109642000Y-60915951D01*
X109694187Y-61178314D01*
X109796556Y-61425454D01*
X109945172Y-61647875D01*
X110134325Y-61837028D01*
X110356746Y-61985644D01*
X110524059Y-62054947D01*
X110470911Y-62071506D01*
X110237079Y-62198758D01*
X110032566Y-62369183D01*
X109865231Y-62576232D01*
X109741504Y-62811948D01*
X109670120Y-63047276D01*
X109770639Y-63258700D01*
X110936500Y-63258700D01*
X110936500Y-63238700D01*
X111063500Y-63238700D01*
X111063500Y-63258700D01*
X111083500Y-63258700D01*
X111083500Y-63385700D01*
X111063500Y-63385700D01*
X111063500Y-63405700D01*
X110936500Y-63405700D01*
X110936500Y-63385700D01*
X109770639Y-63385700D01*
X109670120Y-63597124D01*
X109741504Y-63832452D01*
X109865231Y-64068168D01*
X110032566Y-64275217D01*
X110237079Y-64445642D01*
X110470911Y-64572894D01*
X110524059Y-64589453D01*
X110356746Y-64658756D01*
X110134325Y-64807372D01*
X109945172Y-64996525D01*
X109796556Y-65218946D01*
X109694187Y-65466086D01*
X109642000Y-65728449D01*
X109642000Y-65995951D01*
X109694187Y-66258314D01*
X109796556Y-66505454D01*
X109945172Y-66727875D01*
X110134325Y-66917028D01*
X110356746Y-67065644D01*
X110524059Y-67134947D01*
X110470911Y-67151506D01*
X110237079Y-67278758D01*
X110032566Y-67449183D01*
X109865231Y-67656232D01*
X109741504Y-67891948D01*
X109670120Y-68127276D01*
X109770639Y-68338700D01*
X110936500Y-68338700D01*
X110936500Y-68318700D01*
X111063500Y-68318700D01*
X111063500Y-68338700D01*
X111083500Y-68338700D01*
X111083500Y-68465700D01*
X111063500Y-68465700D01*
X111063500Y-69631717D01*
X111274924Y-69732082D01*
X111529089Y-69652894D01*
X111762921Y-69525642D01*
X111967434Y-69355217D01*
X112134769Y-69148168D01*
X112258496Y-68912452D01*
X112268206Y-68880442D01*
X112336556Y-69045454D01*
X112485172Y-69267875D01*
X112674325Y-69457028D01*
X112896746Y-69605644D01*
X113143886Y-69708013D01*
X113406249Y-69760200D01*
X113673751Y-69760200D01*
X113936114Y-69708013D01*
X114183254Y-69605644D01*
X114405675Y-69457028D01*
X114467001Y-69395702D01*
X114467001Y-70267000D01*
X103700267Y-70267000D01*
X101884098Y-68677853D01*
X101883500Y-68677124D01*
X109670120Y-68677124D01*
X109741504Y-68912452D01*
X109865231Y-69148168D01*
X110032566Y-69355217D01*
X110237079Y-69525642D01*
X110470911Y-69652894D01*
X110725076Y-69732082D01*
X110936500Y-69631717D01*
X110936500Y-68465700D01*
X109770639Y-68465700D01*
X109670120Y-68677124D01*
X101883500Y-68677124D01*
X101878711Y-68671289D01*
X101844645Y-68643332D01*
X101831284Y-68631641D01*
X101824422Y-68626735D01*
X101797551Y-68604683D01*
X101781796Y-68596262D01*
X101767270Y-68585877D01*
X101735612Y-68571576D01*
X101704957Y-68555190D01*
X101687860Y-68550004D01*
X101671588Y-68542653D01*
X101637748Y-68534803D01*
X101604486Y-68524713D01*
X101586706Y-68522962D01*
X101569313Y-68518927D01*
X101534590Y-68517829D01*
X101526175Y-68517000D01*
X101508386Y-68517000D01*
X101464374Y-68515608D01*
X101456001Y-68517000D01*
X90289182Y-68517000D01*
X90276034Y-68515056D01*
X90236824Y-68517000D01*
X90223825Y-68517000D01*
X90210649Y-68518298D01*
X90171171Y-68520255D01*
X90158508Y-68523433D01*
X90145514Y-68524713D01*
X90107674Y-68536192D01*
X90069338Y-68545813D01*
X90057543Y-68551398D01*
X90045043Y-68555190D01*
X90010166Y-68573832D01*
X89998218Y-68579490D01*
X89987090Y-68586167D01*
X89952449Y-68604683D01*
X89942170Y-68613119D01*
X88852369Y-69267000D01*
X84273958Y-69267000D01*
X84323886Y-69110189D01*
X83566000Y-68352303D01*
X82808114Y-69110189D01*
X82858042Y-69267000D01*
X81786999Y-69267000D01*
X81827928Y-69239652D01*
X82003152Y-69064428D01*
X82140825Y-68858386D01*
X82235656Y-68629445D01*
X82284000Y-68386402D01*
X82284000Y-68138598D01*
X82235656Y-67895555D01*
X82140825Y-67666614D01*
X82003152Y-67460572D01*
X82001926Y-67459346D01*
X82035146Y-67473106D01*
X82210570Y-67508000D01*
X82389430Y-67508000D01*
X82564854Y-67473106D01*
X82651083Y-67437388D01*
X82718309Y-67504614D01*
X82507299Y-67571799D01*
X82392892Y-67791613D01*
X82323567Y-68029523D01*
X82301989Y-68276386D01*
X82328985Y-68522716D01*
X82403520Y-68759045D01*
X82507299Y-68953201D01*
X82718311Y-69020386D01*
X83476197Y-68262500D01*
X83655803Y-68262500D01*
X84413689Y-69020386D01*
X84624701Y-68953201D01*
X84739108Y-68733387D01*
X84808433Y-68495477D01*
X84830011Y-68248614D01*
X84803015Y-68002284D01*
X84728480Y-67765955D01*
X84624701Y-67571799D01*
X84413689Y-67504614D01*
X83655803Y-68262500D01*
X83476197Y-68262500D01*
X83462055Y-68248358D01*
X83551858Y-68158555D01*
X83566000Y-68172697D01*
X84323886Y-67414811D01*
X84256701Y-67203799D01*
X84036887Y-67089392D01*
X83798977Y-67020067D01*
X83552114Y-66998489D01*
X83305784Y-67025485D01*
X83069455Y-67100020D01*
X83051541Y-67109595D01*
X83104659Y-67030099D01*
X83147774Y-66926010D01*
X86965036Y-66926008D01*
X87002469Y-66929695D01*
X87151847Y-66914982D01*
X87295484Y-66871410D01*
X87427861Y-66800654D01*
X87514820Y-66729288D01*
X87514821Y-66729287D01*
X87543891Y-66705430D01*
X87567748Y-66676360D01*
X87636109Y-66607999D01*
X88826881Y-66607999D01*
X89091232Y-66872351D01*
X89115090Y-66901422D01*
X89231120Y-66996645D01*
X89363497Y-67067402D01*
X89507134Y-67110974D01*
X89619086Y-67122000D01*
X89619088Y-67122000D01*
X89656511Y-67125686D01*
X89693934Y-67122000D01*
X91926058Y-67122000D01*
X91989901Y-67164659D01*
X92155146Y-67233106D01*
X92330570Y-67268000D01*
X92509430Y-67268000D01*
X92684854Y-67233106D01*
X92850099Y-67164659D01*
X92913942Y-67122000D01*
X95006058Y-67122000D01*
X95069901Y-67164659D01*
X95235146Y-67233106D01*
X95410570Y-67268000D01*
X95589430Y-67268000D01*
X95764854Y-67233106D01*
X95930099Y-67164659D01*
X96078816Y-67065289D01*
X96205289Y-66938816D01*
X96304659Y-66790099D01*
X96373106Y-66624854D01*
X96408000Y-66449430D01*
X96408000Y-66270570D01*
X96407489Y-66267999D01*
X96768182Y-66267999D01*
X97308981Y-66808798D01*
X97328024Y-66832002D01*
X97420604Y-66907980D01*
X97526228Y-66964437D01*
X97640836Y-66999203D01*
X97715087Y-67006516D01*
X97760025Y-67010942D01*
X97789885Y-67008001D01*
X97988420Y-67008001D01*
X98017487Y-67027423D01*
X98146335Y-67080793D01*
X98283119Y-67108001D01*
X98422583Y-67108001D01*
X98559367Y-67080793D01*
X98688215Y-67027423D01*
X98804175Y-66949941D01*
X98902791Y-66851325D01*
X98980273Y-66735365D01*
X99033643Y-66606517D01*
X99043293Y-66558001D01*
X100042000Y-66558001D01*
X100042001Y-66985568D01*
X100022578Y-67014636D01*
X99969208Y-67143484D01*
X99942000Y-67280268D01*
X99942000Y-67419732D01*
X99969208Y-67556516D01*
X100022578Y-67685364D01*
X100100060Y-67801324D01*
X100198676Y-67899940D01*
X100314636Y-67977422D01*
X100443484Y-68030792D01*
X100580268Y-68058000D01*
X100719732Y-68058000D01*
X100856516Y-68030792D01*
X100985364Y-67977422D01*
X101101324Y-67899940D01*
X101199940Y-67801324D01*
X101277422Y-67685364D01*
X101330792Y-67556516D01*
X101358000Y-67419732D01*
X101358000Y-67280268D01*
X101330792Y-67143484D01*
X101277422Y-67014636D01*
X101258000Y-66985569D01*
X101258000Y-66179860D01*
X101260941Y-66149999D01*
X101249202Y-66030811D01*
X101242276Y-66007979D01*
X101217237Y-65925437D01*
X101277422Y-65835364D01*
X101330792Y-65706516D01*
X101358000Y-65569732D01*
X101358000Y-65430268D01*
X101330792Y-65293484D01*
X101277422Y-65164636D01*
X101199940Y-65048676D01*
X101101324Y-64950060D01*
X100985364Y-64872578D01*
X100856516Y-64819208D01*
X100719732Y-64792000D01*
X100580268Y-64792000D01*
X100443484Y-64819208D01*
X100314636Y-64872578D01*
X100285569Y-64892000D01*
X99190443Y-64892001D01*
X99180792Y-64843484D01*
X99127422Y-64714636D01*
X99108000Y-64685569D01*
X99108000Y-64390850D01*
X99110941Y-64360990D01*
X99099202Y-64241801D01*
X99073782Y-64158001D01*
X100021112Y-64158001D01*
X100050060Y-64201324D01*
X100148676Y-64299940D01*
X100264636Y-64377422D01*
X100393484Y-64430792D01*
X100530268Y-64458000D01*
X100669732Y-64458000D01*
X100806516Y-64430792D01*
X100935364Y-64377422D01*
X101051324Y-64299940D01*
X101149940Y-64201324D01*
X101227422Y-64085364D01*
X101280792Y-63956516D01*
X101308000Y-63819732D01*
X101308000Y-63680268D01*
X101280792Y-63543484D01*
X101227422Y-63414636D01*
X101149940Y-63298676D01*
X101051324Y-63200060D01*
X100935364Y-63122578D01*
X100806516Y-63069208D01*
X100761682Y-63060290D01*
X100739422Y-63042022D01*
X100633798Y-62985565D01*
X100519190Y-62950799D01*
X100429862Y-62942001D01*
X100429861Y-62942001D01*
X100400001Y-62939060D01*
X100370141Y-62942001D01*
X99090443Y-62942001D01*
X99087658Y-62928000D01*
X99317640Y-62928000D01*
X99347500Y-62930941D01*
X99377360Y-62928000D01*
X99377361Y-62928000D01*
X99466689Y-62919202D01*
X99581297Y-62884436D01*
X99686921Y-62827979D01*
X99779501Y-62752001D01*
X99798543Y-62728798D01*
X100216771Y-62310570D01*
X102242000Y-62310570D01*
X102242000Y-62489430D01*
X102276894Y-62664854D01*
X102345341Y-62830099D01*
X102444711Y-62978816D01*
X102571184Y-63105289D01*
X102719901Y-63204659D01*
X102885146Y-63273106D01*
X103060570Y-63308000D01*
X103239430Y-63308000D01*
X103414854Y-63273106D01*
X103580099Y-63204659D01*
X103728816Y-63105289D01*
X103732605Y-63101500D01*
X104365549Y-63101500D01*
X104400000Y-63104893D01*
X104434451Y-63101500D01*
X104434461Y-63101500D01*
X104537518Y-63091350D01*
X104669751Y-63051237D01*
X104791618Y-62986098D01*
X104898435Y-62898435D01*
X104920403Y-62871667D01*
X107634071Y-60158000D01*
X107639430Y-60158000D01*
X107814854Y-60123106D01*
X107980099Y-60054659D01*
X108128816Y-59955289D01*
X108255289Y-59828816D01*
X108354659Y-59680099D01*
X108423106Y-59514854D01*
X108458000Y-59339430D01*
X108458000Y-59160570D01*
X108423106Y-58985146D01*
X108354659Y-58819901D01*
X108255289Y-58671184D01*
X108128816Y-58544711D01*
X107980099Y-58445341D01*
X107814854Y-58376894D01*
X107639430Y-58342000D01*
X107460570Y-58342000D01*
X107285146Y-58376894D01*
X107119901Y-58445341D01*
X106971184Y-58544711D01*
X106844711Y-58671184D01*
X106745341Y-58819901D01*
X106676894Y-58985146D01*
X106642000Y-59160570D01*
X106642000Y-59165929D01*
X104109430Y-61698500D01*
X103732605Y-61698500D01*
X103728816Y-61694711D01*
X103580099Y-61595341D01*
X103414854Y-61526894D01*
X103239430Y-61492000D01*
X103060570Y-61492000D01*
X102885146Y-61526894D01*
X102719901Y-61595341D01*
X102571184Y-61694711D01*
X102444711Y-61821184D01*
X102345341Y-61969901D01*
X102276894Y-62135146D01*
X102242000Y-62310570D01*
X100216771Y-62310570D01*
X101197230Y-61330112D01*
X101231516Y-61323292D01*
X101360364Y-61269922D01*
X101476324Y-61192440D01*
X101574940Y-61093824D01*
X101652422Y-60977864D01*
X101705792Y-60849016D01*
X101733000Y-60712232D01*
X101733000Y-60572768D01*
X101705792Y-60435984D01*
X101652422Y-60307136D01*
X101574940Y-60191176D01*
X101476324Y-60092560D01*
X101360364Y-60015078D01*
X101231516Y-59961708D01*
X101094732Y-59934500D01*
X100955268Y-59934500D01*
X100818484Y-59961708D01*
X100689636Y-60015078D01*
X100573676Y-60092560D01*
X100475060Y-60191176D01*
X100397578Y-60307136D01*
X100344208Y-60435984D01*
X100337388Y-60470270D01*
X99136331Y-61671328D01*
X99130792Y-61643484D01*
X99077422Y-61514636D01*
X98999940Y-61398676D01*
X98901324Y-61300060D01*
X98785364Y-61222578D01*
X98656516Y-61169208D01*
X98622229Y-61162388D01*
X98551045Y-61091204D01*
X98532002Y-61068000D01*
X98439422Y-60992022D01*
X98333798Y-60935565D01*
X98219190Y-60900799D01*
X98129862Y-60892001D01*
X98129861Y-60892001D01*
X98100001Y-60889060D01*
X98070141Y-60892001D01*
X95550442Y-60892001D01*
X95540792Y-60843485D01*
X95487422Y-60714637D01*
X95409940Y-60598677D01*
X95311324Y-60500061D01*
X95195364Y-60422579D01*
X95066516Y-60369209D01*
X94929732Y-60342001D01*
X94790268Y-60342001D01*
X94653484Y-60369209D01*
X94524636Y-60422579D01*
X94408676Y-60500061D01*
X94366746Y-60541991D01*
X92917835Y-60541991D01*
X91617033Y-59241190D01*
X91597991Y-59217987D01*
X91505411Y-59142009D01*
X91399787Y-59085552D01*
X91285179Y-59050786D01*
X91195851Y-59041988D01*
X91195850Y-59041988D01*
X91165990Y-59039047D01*
X91136130Y-59041988D01*
X87298395Y-59041988D01*
X87361324Y-58999940D01*
X87459940Y-58901324D01*
X87537422Y-58785364D01*
X87590792Y-58656516D01*
X87618000Y-58519732D01*
X87618000Y-58380268D01*
X87590792Y-58243484D01*
X87537422Y-58114636D01*
X87459940Y-57998676D01*
X87361324Y-57900060D01*
X87245364Y-57822578D01*
X87116516Y-57769208D01*
X86979732Y-57742000D01*
X86840268Y-57742000D01*
X86703484Y-57769208D01*
X86672628Y-57781989D01*
X85912797Y-57781989D01*
X85442011Y-57311204D01*
X85422969Y-57288001D01*
X85330389Y-57212023D01*
X85224765Y-57155566D01*
X85110157Y-57120800D01*
X85020829Y-57112002D01*
X85020828Y-57112002D01*
X84990968Y-57109061D01*
X84961108Y-57112002D01*
X84769881Y-57112002D01*
X84769861Y-57112000D01*
X84769860Y-57112000D01*
X84740000Y-57109059D01*
X84710140Y-57112000D01*
X77649860Y-57112000D01*
X77620000Y-57109059D01*
X77590139Y-57112000D01*
X77500811Y-57120798D01*
X77386203Y-57155564D01*
X77280579Y-57212021D01*
X77187999Y-57287999D01*
X77168961Y-57311197D01*
X76862000Y-57618158D01*
X76862000Y-55643942D01*
X76904659Y-55580099D01*
X76973106Y-55414854D01*
X77008000Y-55239430D01*
X77008000Y-55060570D01*
X76983000Y-54934887D01*
X76983000Y-54433010D01*
X78574877Y-54433010D01*
X78700560Y-54458010D01*
X78879420Y-54458010D01*
X79005103Y-54433010D01*
X87990744Y-54433010D01*
X88390553Y-54832819D01*
X88454702Y-54928825D01*
X88581175Y-55055298D01*
X88729892Y-55154668D01*
X88895137Y-55223115D01*
X89070561Y-55258009D01*
X89141698Y-55258009D01*
X89184982Y-55262272D01*
X89228267Y-55258009D01*
X89249421Y-55258009D01*
X89249466Y-55258000D01*
X96880898Y-55258000D01*
X96924264Y-55262271D01*
X96967630Y-55258000D01*
X96967637Y-55258000D01*
X97097362Y-55245223D01*
X97263808Y-55194732D01*
X97417206Y-55112740D01*
X97551660Y-55002396D01*
X97579316Y-54968697D01*
X98068702Y-54479312D01*
X98102396Y-54451660D01*
X98212740Y-54317206D01*
X98294732Y-54163808D01*
X98341249Y-54010464D01*
X98345223Y-53997363D01*
X98354192Y-53906295D01*
X98358000Y-53867637D01*
X98358000Y-53867631D01*
X98362271Y-53824265D01*
X98358000Y-53780899D01*
X98358000Y-53765113D01*
X98383000Y-53639430D01*
X98383000Y-53460570D01*
X98348106Y-53285146D01*
X98279659Y-53119901D01*
X98255002Y-53083000D01*
X101456001Y-53083000D01*
X101464374Y-53084392D01*
X101508386Y-53083000D01*
X101526175Y-53083000D01*
X101534590Y-53082171D01*
X101569313Y-53081073D01*
X101586706Y-53077038D01*
X101604486Y-53075287D01*
X101637748Y-53065197D01*
X101671588Y-53057347D01*
X101687860Y-53049996D01*
X101704957Y-53044810D01*
X101735612Y-53028424D01*
X101767270Y-53014123D01*
X101781796Y-53003738D01*
X101797551Y-52995317D01*
X101824422Y-52973265D01*
X101831284Y-52968359D01*
X101844645Y-52956668D01*
X101878711Y-52928711D01*
X101884098Y-52922147D01*
X103700267Y-51333000D01*
X114467000Y-51333000D01*
X114467000Y-52168697D01*
G04 #@! TA.AperFunction,Conductor*
D26*
G36*
X114467000Y-52168697D02*
G01*
X114405675Y-52107372D01*
X114183254Y-51958756D01*
X113936114Y-51856387D01*
X113673751Y-51804200D01*
X113406249Y-51804200D01*
X113143886Y-51856387D01*
X112896746Y-51958756D01*
X112674325Y-52107372D01*
X112485172Y-52296525D01*
X112360457Y-52483175D01*
X112360457Y-52312200D01*
X112350649Y-52212615D01*
X112321601Y-52116857D01*
X112274429Y-52028605D01*
X112210948Y-51951252D01*
X112133595Y-51887771D01*
X112045343Y-51840599D01*
X111949585Y-51811551D01*
X111850000Y-51801743D01*
X110150000Y-51801743D01*
X110050415Y-51811551D01*
X109954657Y-51840599D01*
X109866405Y-51887771D01*
X109789052Y-51951252D01*
X109725571Y-52028605D01*
X109678399Y-52116857D01*
X109649351Y-52212615D01*
X109639543Y-52312200D01*
X109639543Y-54012200D01*
X109649351Y-54111785D01*
X109678399Y-54207543D01*
X109725571Y-54295795D01*
X109789052Y-54373148D01*
X109866405Y-54436629D01*
X109954657Y-54483801D01*
X110050415Y-54512849D01*
X110150000Y-54522657D01*
X110320975Y-54522657D01*
X110134325Y-54647372D01*
X109945172Y-54836525D01*
X109796556Y-55058946D01*
X109698678Y-55295244D01*
X109633797Y-55260564D01*
X109519189Y-55225798D01*
X109429861Y-55217000D01*
X109429860Y-55217000D01*
X109400000Y-55214059D01*
X109370140Y-55217000D01*
X107889431Y-55217000D01*
X107860364Y-55197578D01*
X107731516Y-55144208D01*
X107594732Y-55117000D01*
X107455268Y-55117000D01*
X107318484Y-55144208D01*
X107189636Y-55197578D01*
X107160568Y-55217001D01*
X102653888Y-55216999D01*
X102624940Y-55173676D01*
X102526324Y-55075060D01*
X102410364Y-54997578D01*
X102281516Y-54944208D01*
X102144732Y-54917000D01*
X102005268Y-54917000D01*
X101868484Y-54944208D01*
X101739636Y-54997578D01*
X101623676Y-55075060D01*
X101525060Y-55173676D01*
X101447578Y-55289636D01*
X101394208Y-55418484D01*
X101367000Y-55555268D01*
X101367000Y-55694732D01*
X101394208Y-55831516D01*
X101447578Y-55960364D01*
X101525060Y-56076324D01*
X101623676Y-56174940D01*
X101739636Y-56252422D01*
X101868484Y-56305792D01*
X101913320Y-56314710D01*
X101935578Y-56332977D01*
X102005218Y-56370200D01*
X102041202Y-56389434D01*
X102155810Y-56424201D01*
X102274998Y-56435940D01*
X102304869Y-56432998D01*
X107160569Y-56433000D01*
X107189636Y-56452422D01*
X107318484Y-56505792D01*
X107455268Y-56533000D01*
X107594732Y-56533000D01*
X107731516Y-56505792D01*
X107860364Y-56452422D01*
X107889431Y-56433000D01*
X109148159Y-56433000D01*
X109926157Y-57210998D01*
X109945200Y-57234202D01*
X110023355Y-57298342D01*
X109945172Y-57376525D01*
X109796556Y-57598946D01*
X109694187Y-57846086D01*
X109642000Y-58108449D01*
X109642000Y-58375951D01*
X109694187Y-58638314D01*
X109796556Y-58885454D01*
X109945172Y-59107875D01*
X110134325Y-59297028D01*
X110356746Y-59445644D01*
X110517426Y-59512200D01*
X110356746Y-59578756D01*
X110134325Y-59727372D01*
X109945172Y-59916525D01*
X109796556Y-60138946D01*
X109694187Y-60386086D01*
X109642000Y-60648449D01*
X109642000Y-60915951D01*
X109694187Y-61178314D01*
X109796556Y-61425454D01*
X109945172Y-61647875D01*
X110134325Y-61837028D01*
X110356746Y-61985644D01*
X110524059Y-62054947D01*
X110470911Y-62071506D01*
X110237079Y-62198758D01*
X110032566Y-62369183D01*
X109865231Y-62576232D01*
X109741504Y-62811948D01*
X109670120Y-63047276D01*
X109770639Y-63258700D01*
X110936500Y-63258700D01*
X110936500Y-63238700D01*
X111063500Y-63238700D01*
X111063500Y-63258700D01*
X111083500Y-63258700D01*
X111083500Y-63385700D01*
X111063500Y-63385700D01*
X111063500Y-63405700D01*
X110936500Y-63405700D01*
X110936500Y-63385700D01*
X109770639Y-63385700D01*
X109670120Y-63597124D01*
X109741504Y-63832452D01*
X109865231Y-64068168D01*
X110032566Y-64275217D01*
X110237079Y-64445642D01*
X110470911Y-64572894D01*
X110524059Y-64589453D01*
X110356746Y-64658756D01*
X110134325Y-64807372D01*
X109945172Y-64996525D01*
X109796556Y-65218946D01*
X109694187Y-65466086D01*
X109642000Y-65728449D01*
X109642000Y-65995951D01*
X109694187Y-66258314D01*
X109796556Y-66505454D01*
X109945172Y-66727875D01*
X110134325Y-66917028D01*
X110356746Y-67065644D01*
X110524059Y-67134947D01*
X110470911Y-67151506D01*
X110237079Y-67278758D01*
X110032566Y-67449183D01*
X109865231Y-67656232D01*
X109741504Y-67891948D01*
X109670120Y-68127276D01*
X109770639Y-68338700D01*
X110936500Y-68338700D01*
X110936500Y-68318700D01*
X111063500Y-68318700D01*
X111063500Y-68338700D01*
X111083500Y-68338700D01*
X111083500Y-68465700D01*
X111063500Y-68465700D01*
X111063500Y-69631717D01*
X111274924Y-69732082D01*
X111529089Y-69652894D01*
X111762921Y-69525642D01*
X111967434Y-69355217D01*
X112134769Y-69148168D01*
X112258496Y-68912452D01*
X112268206Y-68880442D01*
X112336556Y-69045454D01*
X112485172Y-69267875D01*
X112674325Y-69457028D01*
X112896746Y-69605644D01*
X113143886Y-69708013D01*
X113406249Y-69760200D01*
X113673751Y-69760200D01*
X113936114Y-69708013D01*
X114183254Y-69605644D01*
X114405675Y-69457028D01*
X114467001Y-69395702D01*
X114467001Y-70267000D01*
X103700267Y-70267000D01*
X101884098Y-68677853D01*
X101883500Y-68677124D01*
X109670120Y-68677124D01*
X109741504Y-68912452D01*
X109865231Y-69148168D01*
X110032566Y-69355217D01*
X110237079Y-69525642D01*
X110470911Y-69652894D01*
X110725076Y-69732082D01*
X110936500Y-69631717D01*
X110936500Y-68465700D01*
X109770639Y-68465700D01*
X109670120Y-68677124D01*
X101883500Y-68677124D01*
X101878711Y-68671289D01*
X101844645Y-68643332D01*
X101831284Y-68631641D01*
X101824422Y-68626735D01*
X101797551Y-68604683D01*
X101781796Y-68596262D01*
X101767270Y-68585877D01*
X101735612Y-68571576D01*
X101704957Y-68555190D01*
X101687860Y-68550004D01*
X101671588Y-68542653D01*
X101637748Y-68534803D01*
X101604486Y-68524713D01*
X101586706Y-68522962D01*
X101569313Y-68518927D01*
X101534590Y-68517829D01*
X101526175Y-68517000D01*
X101508386Y-68517000D01*
X101464374Y-68515608D01*
X101456001Y-68517000D01*
X90289182Y-68517000D01*
X90276034Y-68515056D01*
X90236824Y-68517000D01*
X90223825Y-68517000D01*
X90210649Y-68518298D01*
X90171171Y-68520255D01*
X90158508Y-68523433D01*
X90145514Y-68524713D01*
X90107674Y-68536192D01*
X90069338Y-68545813D01*
X90057543Y-68551398D01*
X90045043Y-68555190D01*
X90010166Y-68573832D01*
X89998218Y-68579490D01*
X89987090Y-68586167D01*
X89952449Y-68604683D01*
X89942170Y-68613119D01*
X88852369Y-69267000D01*
X84273958Y-69267000D01*
X84323886Y-69110189D01*
X83566000Y-68352303D01*
X82808114Y-69110189D01*
X82858042Y-69267000D01*
X81786999Y-69267000D01*
X81827928Y-69239652D01*
X82003152Y-69064428D01*
X82140825Y-68858386D01*
X82235656Y-68629445D01*
X82284000Y-68386402D01*
X82284000Y-68138598D01*
X82235656Y-67895555D01*
X82140825Y-67666614D01*
X82003152Y-67460572D01*
X82001926Y-67459346D01*
X82035146Y-67473106D01*
X82210570Y-67508000D01*
X82389430Y-67508000D01*
X82564854Y-67473106D01*
X82651083Y-67437388D01*
X82718309Y-67504614D01*
X82507299Y-67571799D01*
X82392892Y-67791613D01*
X82323567Y-68029523D01*
X82301989Y-68276386D01*
X82328985Y-68522716D01*
X82403520Y-68759045D01*
X82507299Y-68953201D01*
X82718311Y-69020386D01*
X83476197Y-68262500D01*
X83655803Y-68262500D01*
X84413689Y-69020386D01*
X84624701Y-68953201D01*
X84739108Y-68733387D01*
X84808433Y-68495477D01*
X84830011Y-68248614D01*
X84803015Y-68002284D01*
X84728480Y-67765955D01*
X84624701Y-67571799D01*
X84413689Y-67504614D01*
X83655803Y-68262500D01*
X83476197Y-68262500D01*
X83462055Y-68248358D01*
X83551858Y-68158555D01*
X83566000Y-68172697D01*
X84323886Y-67414811D01*
X84256701Y-67203799D01*
X84036887Y-67089392D01*
X83798977Y-67020067D01*
X83552114Y-66998489D01*
X83305784Y-67025485D01*
X83069455Y-67100020D01*
X83051541Y-67109595D01*
X83104659Y-67030099D01*
X83147774Y-66926010D01*
X86965036Y-66926008D01*
X87002469Y-66929695D01*
X87151847Y-66914982D01*
X87295484Y-66871410D01*
X87427861Y-66800654D01*
X87514820Y-66729288D01*
X87514821Y-66729287D01*
X87543891Y-66705430D01*
X87567748Y-66676360D01*
X87636109Y-66607999D01*
X88826881Y-66607999D01*
X89091232Y-66872351D01*
X89115090Y-66901422D01*
X89231120Y-66996645D01*
X89363497Y-67067402D01*
X89507134Y-67110974D01*
X89619086Y-67122000D01*
X89619088Y-67122000D01*
X89656511Y-67125686D01*
X89693934Y-67122000D01*
X91926058Y-67122000D01*
X91989901Y-67164659D01*
X92155146Y-67233106D01*
X92330570Y-67268000D01*
X92509430Y-67268000D01*
X92684854Y-67233106D01*
X92850099Y-67164659D01*
X92913942Y-67122000D01*
X95006058Y-67122000D01*
X95069901Y-67164659D01*
X95235146Y-67233106D01*
X95410570Y-67268000D01*
X95589430Y-67268000D01*
X95764854Y-67233106D01*
X95930099Y-67164659D01*
X96078816Y-67065289D01*
X96205289Y-66938816D01*
X96304659Y-66790099D01*
X96373106Y-66624854D01*
X96408000Y-66449430D01*
X96408000Y-66270570D01*
X96407489Y-66267999D01*
X96768182Y-66267999D01*
X97308981Y-66808798D01*
X97328024Y-66832002D01*
X97420604Y-66907980D01*
X97526228Y-66964437D01*
X97640836Y-66999203D01*
X97715087Y-67006516D01*
X97760025Y-67010942D01*
X97789885Y-67008001D01*
X97988420Y-67008001D01*
X98017487Y-67027423D01*
X98146335Y-67080793D01*
X98283119Y-67108001D01*
X98422583Y-67108001D01*
X98559367Y-67080793D01*
X98688215Y-67027423D01*
X98804175Y-66949941D01*
X98902791Y-66851325D01*
X98980273Y-66735365D01*
X99033643Y-66606517D01*
X99043293Y-66558001D01*
X100042000Y-66558001D01*
X100042001Y-66985568D01*
X100022578Y-67014636D01*
X99969208Y-67143484D01*
X99942000Y-67280268D01*
X99942000Y-67419732D01*
X99969208Y-67556516D01*
X100022578Y-67685364D01*
X100100060Y-67801324D01*
X100198676Y-67899940D01*
X100314636Y-67977422D01*
X100443484Y-68030792D01*
X100580268Y-68058000D01*
X100719732Y-68058000D01*
X100856516Y-68030792D01*
X100985364Y-67977422D01*
X101101324Y-67899940D01*
X101199940Y-67801324D01*
X101277422Y-67685364D01*
X101330792Y-67556516D01*
X101358000Y-67419732D01*
X101358000Y-67280268D01*
X101330792Y-67143484D01*
X101277422Y-67014636D01*
X101258000Y-66985569D01*
X101258000Y-66179860D01*
X101260941Y-66149999D01*
X101249202Y-66030811D01*
X101242276Y-66007979D01*
X101217237Y-65925437D01*
X101277422Y-65835364D01*
X101330792Y-65706516D01*
X101358000Y-65569732D01*
X101358000Y-65430268D01*
X101330792Y-65293484D01*
X101277422Y-65164636D01*
X101199940Y-65048676D01*
X101101324Y-64950060D01*
X100985364Y-64872578D01*
X100856516Y-64819208D01*
X100719732Y-64792000D01*
X100580268Y-64792000D01*
X100443484Y-64819208D01*
X100314636Y-64872578D01*
X100285569Y-64892000D01*
X99190443Y-64892001D01*
X99180792Y-64843484D01*
X99127422Y-64714636D01*
X99108000Y-64685569D01*
X99108000Y-64390850D01*
X99110941Y-64360990D01*
X99099202Y-64241801D01*
X99073782Y-64158001D01*
X100021112Y-64158001D01*
X100050060Y-64201324D01*
X100148676Y-64299940D01*
X100264636Y-64377422D01*
X100393484Y-64430792D01*
X100530268Y-64458000D01*
X100669732Y-64458000D01*
X100806516Y-64430792D01*
X100935364Y-64377422D01*
X101051324Y-64299940D01*
X101149940Y-64201324D01*
X101227422Y-64085364D01*
X101280792Y-63956516D01*
X101308000Y-63819732D01*
X101308000Y-63680268D01*
X101280792Y-63543484D01*
X101227422Y-63414636D01*
X101149940Y-63298676D01*
X101051324Y-63200060D01*
X100935364Y-63122578D01*
X100806516Y-63069208D01*
X100761682Y-63060290D01*
X100739422Y-63042022D01*
X100633798Y-62985565D01*
X100519190Y-62950799D01*
X100429862Y-62942001D01*
X100429861Y-62942001D01*
X100400001Y-62939060D01*
X100370141Y-62942001D01*
X99090443Y-62942001D01*
X99087658Y-62928000D01*
X99317640Y-62928000D01*
X99347500Y-62930941D01*
X99377360Y-62928000D01*
X99377361Y-62928000D01*
X99466689Y-62919202D01*
X99581297Y-62884436D01*
X99686921Y-62827979D01*
X99779501Y-62752001D01*
X99798543Y-62728798D01*
X100216771Y-62310570D01*
X102242000Y-62310570D01*
X102242000Y-62489430D01*
X102276894Y-62664854D01*
X102345341Y-62830099D01*
X102444711Y-62978816D01*
X102571184Y-63105289D01*
X102719901Y-63204659D01*
X102885146Y-63273106D01*
X103060570Y-63308000D01*
X103239430Y-63308000D01*
X103414854Y-63273106D01*
X103580099Y-63204659D01*
X103728816Y-63105289D01*
X103732605Y-63101500D01*
X104365549Y-63101500D01*
X104400000Y-63104893D01*
X104434451Y-63101500D01*
X104434461Y-63101500D01*
X104537518Y-63091350D01*
X104669751Y-63051237D01*
X104791618Y-62986098D01*
X104898435Y-62898435D01*
X104920403Y-62871667D01*
X107634071Y-60158000D01*
X107639430Y-60158000D01*
X107814854Y-60123106D01*
X107980099Y-60054659D01*
X108128816Y-59955289D01*
X108255289Y-59828816D01*
X108354659Y-59680099D01*
X108423106Y-59514854D01*
X108458000Y-59339430D01*
X108458000Y-59160570D01*
X108423106Y-58985146D01*
X108354659Y-58819901D01*
X108255289Y-58671184D01*
X108128816Y-58544711D01*
X107980099Y-58445341D01*
X107814854Y-58376894D01*
X107639430Y-58342000D01*
X107460570Y-58342000D01*
X107285146Y-58376894D01*
X107119901Y-58445341D01*
X106971184Y-58544711D01*
X106844711Y-58671184D01*
X106745341Y-58819901D01*
X106676894Y-58985146D01*
X106642000Y-59160570D01*
X106642000Y-59165929D01*
X104109430Y-61698500D01*
X103732605Y-61698500D01*
X103728816Y-61694711D01*
X103580099Y-61595341D01*
X103414854Y-61526894D01*
X103239430Y-61492000D01*
X103060570Y-61492000D01*
X102885146Y-61526894D01*
X102719901Y-61595341D01*
X102571184Y-61694711D01*
X102444711Y-61821184D01*
X102345341Y-61969901D01*
X102276894Y-62135146D01*
X102242000Y-62310570D01*
X100216771Y-62310570D01*
X101197230Y-61330112D01*
X101231516Y-61323292D01*
X101360364Y-61269922D01*
X101476324Y-61192440D01*
X101574940Y-61093824D01*
X101652422Y-60977864D01*
X101705792Y-60849016D01*
X101733000Y-60712232D01*
X101733000Y-60572768D01*
X101705792Y-60435984D01*
X101652422Y-60307136D01*
X101574940Y-60191176D01*
X101476324Y-60092560D01*
X101360364Y-60015078D01*
X101231516Y-59961708D01*
X101094732Y-59934500D01*
X100955268Y-59934500D01*
X100818484Y-59961708D01*
X100689636Y-60015078D01*
X100573676Y-60092560D01*
X100475060Y-60191176D01*
X100397578Y-60307136D01*
X100344208Y-60435984D01*
X100337388Y-60470270D01*
X99136331Y-61671328D01*
X99130792Y-61643484D01*
X99077422Y-61514636D01*
X98999940Y-61398676D01*
X98901324Y-61300060D01*
X98785364Y-61222578D01*
X98656516Y-61169208D01*
X98622229Y-61162388D01*
X98551045Y-61091204D01*
X98532002Y-61068000D01*
X98439422Y-60992022D01*
X98333798Y-60935565D01*
X98219190Y-60900799D01*
X98129862Y-60892001D01*
X98129861Y-60892001D01*
X98100001Y-60889060D01*
X98070141Y-60892001D01*
X95550442Y-60892001D01*
X95540792Y-60843485D01*
X95487422Y-60714637D01*
X95409940Y-60598677D01*
X95311324Y-60500061D01*
X95195364Y-60422579D01*
X95066516Y-60369209D01*
X94929732Y-60342001D01*
X94790268Y-60342001D01*
X94653484Y-60369209D01*
X94524636Y-60422579D01*
X94408676Y-60500061D01*
X94366746Y-60541991D01*
X92917835Y-60541991D01*
X91617033Y-59241190D01*
X91597991Y-59217987D01*
X91505411Y-59142009D01*
X91399787Y-59085552D01*
X91285179Y-59050786D01*
X91195851Y-59041988D01*
X91195850Y-59041988D01*
X91165990Y-59039047D01*
X91136130Y-59041988D01*
X87298395Y-59041988D01*
X87361324Y-58999940D01*
X87459940Y-58901324D01*
X87537422Y-58785364D01*
X87590792Y-58656516D01*
X87618000Y-58519732D01*
X87618000Y-58380268D01*
X87590792Y-58243484D01*
X87537422Y-58114636D01*
X87459940Y-57998676D01*
X87361324Y-57900060D01*
X87245364Y-57822578D01*
X87116516Y-57769208D01*
X86979732Y-57742000D01*
X86840268Y-57742000D01*
X86703484Y-57769208D01*
X86672628Y-57781989D01*
X85912797Y-57781989D01*
X85442011Y-57311204D01*
X85422969Y-57288001D01*
X85330389Y-57212023D01*
X85224765Y-57155566D01*
X85110157Y-57120800D01*
X85020829Y-57112002D01*
X85020828Y-57112002D01*
X84990968Y-57109061D01*
X84961108Y-57112002D01*
X84769881Y-57112002D01*
X84769861Y-57112000D01*
X84769860Y-57112000D01*
X84740000Y-57109059D01*
X84710140Y-57112000D01*
X77649860Y-57112000D01*
X77620000Y-57109059D01*
X77590139Y-57112000D01*
X77500811Y-57120798D01*
X77386203Y-57155564D01*
X77280579Y-57212021D01*
X77187999Y-57287999D01*
X77168961Y-57311197D01*
X76862000Y-57618158D01*
X76862000Y-55643942D01*
X76904659Y-55580099D01*
X76973106Y-55414854D01*
X77008000Y-55239430D01*
X77008000Y-55060570D01*
X76983000Y-54934887D01*
X76983000Y-54433010D01*
X78574877Y-54433010D01*
X78700560Y-54458010D01*
X78879420Y-54458010D01*
X79005103Y-54433010D01*
X87990744Y-54433010D01*
X88390553Y-54832819D01*
X88454702Y-54928825D01*
X88581175Y-55055298D01*
X88729892Y-55154668D01*
X88895137Y-55223115D01*
X89070561Y-55258009D01*
X89141698Y-55258009D01*
X89184982Y-55262272D01*
X89228267Y-55258009D01*
X89249421Y-55258009D01*
X89249466Y-55258000D01*
X96880898Y-55258000D01*
X96924264Y-55262271D01*
X96967630Y-55258000D01*
X96967637Y-55258000D01*
X97097362Y-55245223D01*
X97263808Y-55194732D01*
X97417206Y-55112740D01*
X97551660Y-55002396D01*
X97579316Y-54968697D01*
X98068702Y-54479312D01*
X98102396Y-54451660D01*
X98212740Y-54317206D01*
X98294732Y-54163808D01*
X98341249Y-54010464D01*
X98345223Y-53997363D01*
X98354192Y-53906295D01*
X98358000Y-53867637D01*
X98358000Y-53867631D01*
X98362271Y-53824265D01*
X98358000Y-53780899D01*
X98358000Y-53765113D01*
X98383000Y-53639430D01*
X98383000Y-53460570D01*
X98348106Y-53285146D01*
X98279659Y-53119901D01*
X98255002Y-53083000D01*
X101456001Y-53083000D01*
X101464374Y-53084392D01*
X101508386Y-53083000D01*
X101526175Y-53083000D01*
X101534590Y-53082171D01*
X101569313Y-53081073D01*
X101586706Y-53077038D01*
X101604486Y-53075287D01*
X101637748Y-53065197D01*
X101671588Y-53057347D01*
X101687860Y-53049996D01*
X101704957Y-53044810D01*
X101735612Y-53028424D01*
X101767270Y-53014123D01*
X101781796Y-53003738D01*
X101797551Y-52995317D01*
X101824422Y-52973265D01*
X101831284Y-52968359D01*
X101844645Y-52956668D01*
X101878711Y-52928711D01*
X101884098Y-52922147D01*
X103700267Y-51333000D01*
X114467000Y-51333000D01*
X114467000Y-52168697D01*
G37*
G04 #@! TD.AperFunction*
D25*
X72577736Y-53723515D02*
X72471184Y-53794711D01*
X72344711Y-53921184D01*
X72245341Y-54069901D01*
X72176894Y-54235146D01*
X72142000Y-54410570D01*
X72142000Y-54589430D01*
X72167000Y-54715113D01*
X72167000Y-54881261D01*
X72160230Y-54950001D01*
X72164502Y-54993377D01*
X72164501Y-58936749D01*
X71056299Y-60044952D01*
X71022605Y-60072604D01*
X70912261Y-60207058D01*
X70844686Y-60333484D01*
X70830269Y-60360456D01*
X70779777Y-60526902D01*
X70762729Y-60700000D01*
X70767001Y-60743376D01*
X70767000Y-62959249D01*
X70276250Y-63450000D01*
X69423153Y-63450000D01*
X69400601Y-63375657D01*
X69353429Y-63287405D01*
X69289948Y-63210052D01*
X69212595Y-63146571D01*
X69124343Y-63099399D01*
X69028585Y-63070351D01*
X68929000Y-63060543D01*
X68432304Y-63060543D01*
X68543112Y-63038502D01*
X68772781Y-62943370D01*
X68979478Y-62805259D01*
X69155259Y-62629478D01*
X69293370Y-62422781D01*
X69388502Y-62193112D01*
X69437000Y-61949296D01*
X69437000Y-61700704D01*
X69388502Y-61456888D01*
X69293370Y-61227219D01*
X69155259Y-61020522D01*
X68979478Y-60844741D01*
X68949934Y-60825000D01*
X68979478Y-60805259D01*
X69155259Y-60629478D01*
X69293370Y-60422781D01*
X69388502Y-60193112D01*
X69437000Y-59949296D01*
X69437000Y-59700704D01*
X69388502Y-59456888D01*
X69293370Y-59227219D01*
X69155259Y-59020522D01*
X68979478Y-58844741D01*
X68772781Y-58706630D01*
X68543112Y-58611498D01*
X68357452Y-58574568D01*
X68435845Y-58565989D01*
X68672938Y-58491255D01*
X68868066Y-58386957D01*
X68935732Y-58175535D01*
X68175000Y-57414803D01*
X67414268Y-58175535D01*
X67481934Y-58386957D01*
X67702429Y-58501762D01*
X67941083Y-58571345D01*
X67988066Y-58575459D01*
X67806888Y-58611498D01*
X67577219Y-58706630D01*
X67370522Y-58844741D01*
X67194741Y-59020522D01*
X67056630Y-59227219D01*
X66961498Y-59456888D01*
X66913000Y-59700704D01*
X66913000Y-59949296D01*
X66961498Y-60193112D01*
X67056630Y-60422781D01*
X67194741Y-60629478D01*
X67370522Y-60805259D01*
X67400066Y-60825000D01*
X67370522Y-60844741D01*
X67194741Y-61020522D01*
X67056630Y-61227219D01*
X66961498Y-61456888D01*
X66913000Y-61700704D01*
X66913000Y-61949296D01*
X66961498Y-62193112D01*
X67056630Y-62422781D01*
X67194741Y-62629478D01*
X67370522Y-62805259D01*
X67577219Y-62943370D01*
X67806888Y-63038502D01*
X67917696Y-63060543D01*
X67421000Y-63060543D01*
X67321415Y-63070351D01*
X67225657Y-63099399D01*
X67208000Y-63108837D01*
X67208000Y-62963409D01*
X67164459Y-62744516D01*
X67079051Y-62538323D01*
X66955058Y-62352755D01*
X66797245Y-62194942D01*
X66611677Y-62070949D01*
X66405484Y-61985541D01*
X66186591Y-61942000D01*
X65963409Y-61942000D01*
X65744516Y-61985541D01*
X65538323Y-62070949D01*
X65352755Y-62194942D01*
X65194942Y-62352755D01*
X65070949Y-62538323D01*
X64985541Y-62744516D01*
X64942000Y-62963409D01*
X64942000Y-63186591D01*
X64985541Y-63405484D01*
X65070949Y-63611677D01*
X65194942Y-63797245D01*
X65352755Y-63955058D01*
X65538323Y-64079051D01*
X65744516Y-64164459D01*
X65963409Y-64208000D01*
X66186591Y-64208000D01*
X66405484Y-64164459D01*
X66611677Y-64079051D01*
X66797245Y-63955058D01*
X66910543Y-63841760D01*
X66910543Y-65079000D01*
X66920351Y-65178585D01*
X66936257Y-65231020D01*
X66926000Y-65229500D01*
X66138500Y-65229500D01*
X66138500Y-66461500D01*
X68029273Y-66461500D01*
X68130579Y-66259865D01*
X68083687Y-66087900D01*
X67974948Y-65858057D01*
X67823458Y-65653844D01*
X67752402Y-65589457D01*
X68929000Y-65589457D01*
X69028585Y-65579649D01*
X69124343Y-65550601D01*
X69212595Y-65503429D01*
X69289948Y-65439948D01*
X69353429Y-65362595D01*
X69400601Y-65274343D01*
X69418299Y-65216000D01*
X70598634Y-65216000D01*
X70642000Y-65220271D01*
X70685366Y-65216000D01*
X70685373Y-65216000D01*
X70815098Y-65203223D01*
X70981544Y-65152732D01*
X71134942Y-65070740D01*
X71269396Y-64960396D01*
X71297052Y-64926697D01*
X72243708Y-63980043D01*
X72277396Y-63952396D01*
X72387740Y-63817942D01*
X72469732Y-63664544D01*
X72518641Y-63503314D01*
X72520223Y-63498099D01*
X72527184Y-63427422D01*
X72533000Y-63368373D01*
X72533000Y-63368367D01*
X72537271Y-63325001D01*
X72533000Y-63281635D01*
X72533000Y-61065749D01*
X73641204Y-59957546D01*
X73674897Y-59929895D01*
X73785241Y-59795441D01*
X73848392Y-59677293D01*
X73867233Y-59642044D01*
X73917724Y-59475598D01*
X73934773Y-59302499D01*
X73930501Y-59259126D01*
X73930501Y-55016247D01*
X73933000Y-54990874D01*
X73933000Y-54990869D01*
X73937271Y-54947503D01*
X73933000Y-54904137D01*
X73933000Y-54865749D01*
X75340742Y-53458009D01*
X75402515Y-53458009D01*
X75362261Y-53507058D01*
X75298208Y-53626894D01*
X75280269Y-53660456D01*
X75229777Y-53826902D01*
X75212729Y-54000000D01*
X75217001Y-54043375D01*
X75217000Y-54934885D01*
X75192000Y-55060570D01*
X75192000Y-55239430D01*
X75226894Y-55414854D01*
X75295341Y-55580099D01*
X75338001Y-55643944D01*
X75338000Y-58140881D01*
X74873599Y-58605283D01*
X74844529Y-58629140D01*
X74820672Y-58658210D01*
X74820671Y-58658211D01*
X74749305Y-58745170D01*
X74678549Y-58877547D01*
X74634977Y-59021184D01*
X74620264Y-59170562D01*
X74623951Y-59207995D01*
X74623949Y-61038000D01*
X74393942Y-61038000D01*
X74330099Y-60995341D01*
X74164854Y-60926894D01*
X73989430Y-60892000D01*
X73810570Y-60892000D01*
X73635146Y-60926894D01*
X73469901Y-60995341D01*
X73321184Y-61094711D01*
X73194711Y-61221184D01*
X73095341Y-61369901D01*
X73026894Y-61535146D01*
X72992000Y-61710570D01*
X72992000Y-61889430D01*
X73026894Y-62064854D01*
X73094446Y-62227939D01*
X73094447Y-63502923D01*
X72893654Y-63703716D01*
X72864578Y-63727578D01*
X72836503Y-63761788D01*
X72769355Y-63843608D01*
X72749967Y-63879881D01*
X72698598Y-63975986D01*
X72655026Y-64119623D01*
X72645901Y-64212272D01*
X72640314Y-64269000D01*
X72644000Y-64306423D01*
X72644001Y-67258668D01*
X72604072Y-67285348D01*
X72428848Y-67460572D01*
X72291175Y-67666614D01*
X72196344Y-67895555D01*
X72148000Y-68138598D01*
X72148000Y-68386402D01*
X72196344Y-68629445D01*
X72291175Y-68858386D01*
X72428848Y-69064428D01*
X72604072Y-69239652D01*
X72645001Y-69267000D01*
X64785253Y-69267000D01*
X64033000Y-68138621D01*
X64033000Y-66839933D01*
X64066313Y-66962100D01*
X64175052Y-67191943D01*
X64326542Y-67396156D01*
X64514961Y-67566891D01*
X64733068Y-67697586D01*
X64972481Y-67783219D01*
X65224000Y-67820500D01*
X66011500Y-67820500D01*
X66011500Y-66588500D01*
X66138500Y-66588500D01*
X66138500Y-67820500D01*
X66926000Y-67820500D01*
X67177519Y-67783219D01*
X67416932Y-67697586D01*
X67635039Y-67566891D01*
X67823458Y-67396156D01*
X67974948Y-67191943D01*
X68083687Y-66962100D01*
X68130579Y-66790135D01*
X68029273Y-66588500D01*
X66138500Y-66588500D01*
X66011500Y-66588500D01*
X65991500Y-66588500D01*
X65991500Y-66461500D01*
X66011500Y-66461500D01*
X66011500Y-65229500D01*
X65224000Y-65229500D01*
X64972481Y-65266781D01*
X64733068Y-65352414D01*
X64514961Y-65483109D01*
X64326542Y-65653844D01*
X64175052Y-65858057D01*
X64066313Y-66087900D01*
X64033000Y-66210067D01*
X64033000Y-58463409D01*
X64942000Y-58463409D01*
X64942000Y-58686591D01*
X64985541Y-58905484D01*
X65070949Y-59111677D01*
X65194942Y-59297245D01*
X65352755Y-59455058D01*
X65538323Y-59579051D01*
X65744516Y-59664459D01*
X65963409Y-59708000D01*
X66186591Y-59708000D01*
X66405484Y-59664459D01*
X66611677Y-59579051D01*
X66797245Y-59455058D01*
X66955058Y-59297245D01*
X67079051Y-59111677D01*
X67164459Y-58905484D01*
X67208000Y-58686591D01*
X67208000Y-58463409D01*
X67164459Y-58244516D01*
X67079051Y-58038323D01*
X66955058Y-57852755D01*
X66797245Y-57694942D01*
X66611677Y-57570949D01*
X66405484Y-57485541D01*
X66186591Y-57442000D01*
X65963409Y-57442000D01*
X65744516Y-57485541D01*
X65538323Y-57570949D01*
X65352755Y-57694942D01*
X65194942Y-57852755D01*
X65070949Y-58038323D01*
X64985541Y-58244516D01*
X64942000Y-58463409D01*
X64033000Y-58463409D01*
X64033000Y-57338728D01*
X66906968Y-57338728D01*
X66934011Y-57585845D01*
X67008745Y-57822938D01*
X67113043Y-58018066D01*
X67324465Y-58085732D01*
X68085197Y-57325000D01*
X68264803Y-57325000D01*
X69025535Y-58085732D01*
X69236957Y-58018066D01*
X69351762Y-57797571D01*
X69421345Y-57558917D01*
X69443032Y-57311272D01*
X69415989Y-57064155D01*
X69341255Y-56827062D01*
X69236957Y-56631934D01*
X69025535Y-56564268D01*
X68264803Y-57325000D01*
X68085197Y-57325000D01*
X67324465Y-56564268D01*
X67113043Y-56631934D01*
X66998238Y-56852429D01*
X66928655Y-57091083D01*
X66906968Y-57338728D01*
X64033000Y-57338728D01*
X64033000Y-56474465D01*
X67414268Y-56474465D01*
X68175000Y-57235197D01*
X68935732Y-56474465D01*
X68868066Y-56263043D01*
X68647571Y-56148238D01*
X68408917Y-56078655D01*
X68161272Y-56056968D01*
X67914155Y-56084011D01*
X67677062Y-56158745D01*
X67481934Y-56263043D01*
X67414268Y-56474465D01*
X64033000Y-56474465D01*
X64033000Y-55439933D01*
X64066313Y-55562100D01*
X64175052Y-55791943D01*
X64326542Y-55996156D01*
X64514961Y-56166891D01*
X64733068Y-56297586D01*
X64972481Y-56383219D01*
X65224000Y-56420500D01*
X66011500Y-56420500D01*
X66011500Y-55188500D01*
X66138500Y-55188500D01*
X66138500Y-56420500D01*
X66926000Y-56420500D01*
X67177519Y-56383219D01*
X67416932Y-56297586D01*
X67635039Y-56166891D01*
X67823458Y-55996156D01*
X67974948Y-55791943D01*
X68083687Y-55562100D01*
X68130579Y-55390135D01*
X68029273Y-55188500D01*
X66138500Y-55188500D01*
X66011500Y-55188500D01*
X65991500Y-55188500D01*
X65991500Y-55061500D01*
X66011500Y-55061500D01*
X66011500Y-53829500D01*
X66138500Y-53829500D01*
X66138500Y-55061500D01*
X68029273Y-55061500D01*
X68130579Y-54859865D01*
X68083687Y-54687900D01*
X67974948Y-54458057D01*
X67823458Y-54253844D01*
X67635039Y-54083109D01*
X67416932Y-53952414D01*
X67177519Y-53866781D01*
X66926000Y-53829500D01*
X66138500Y-53829500D01*
X66011500Y-53829500D01*
X65224000Y-53829500D01*
X64972481Y-53866781D01*
X64733068Y-53952414D01*
X64514961Y-54083109D01*
X64326542Y-54253844D01*
X64175052Y-54458057D01*
X64066313Y-54687900D01*
X64033000Y-54810067D01*
X64033000Y-53461379D01*
X64785253Y-52333000D01*
X73968249Y-52333000D01*
X72577736Y-53723515D01*
G04 #@! TA.AperFunction,Conductor*
D26*
G36*
X72577736Y-53723515D02*
G01*
X72471184Y-53794711D01*
X72344711Y-53921184D01*
X72245341Y-54069901D01*
X72176894Y-54235146D01*
X72142000Y-54410570D01*
X72142000Y-54589430D01*
X72167000Y-54715113D01*
X72167000Y-54881261D01*
X72160230Y-54950001D01*
X72164502Y-54993377D01*
X72164501Y-58936749D01*
X71056299Y-60044952D01*
X71022605Y-60072604D01*
X70912261Y-60207058D01*
X70844686Y-60333484D01*
X70830269Y-60360456D01*
X70779777Y-60526902D01*
X70762729Y-60700000D01*
X70767001Y-60743376D01*
X70767000Y-62959249D01*
X70276250Y-63450000D01*
X69423153Y-63450000D01*
X69400601Y-63375657D01*
X69353429Y-63287405D01*
X69289948Y-63210052D01*
X69212595Y-63146571D01*
X69124343Y-63099399D01*
X69028585Y-63070351D01*
X68929000Y-63060543D01*
X68432304Y-63060543D01*
X68543112Y-63038502D01*
X68772781Y-62943370D01*
X68979478Y-62805259D01*
X69155259Y-62629478D01*
X69293370Y-62422781D01*
X69388502Y-62193112D01*
X69437000Y-61949296D01*
X69437000Y-61700704D01*
X69388502Y-61456888D01*
X69293370Y-61227219D01*
X69155259Y-61020522D01*
X68979478Y-60844741D01*
X68949934Y-60825000D01*
X68979478Y-60805259D01*
X69155259Y-60629478D01*
X69293370Y-60422781D01*
X69388502Y-60193112D01*
X69437000Y-59949296D01*
X69437000Y-59700704D01*
X69388502Y-59456888D01*
X69293370Y-59227219D01*
X69155259Y-59020522D01*
X68979478Y-58844741D01*
X68772781Y-58706630D01*
X68543112Y-58611498D01*
X68357452Y-58574568D01*
X68435845Y-58565989D01*
X68672938Y-58491255D01*
X68868066Y-58386957D01*
X68935732Y-58175535D01*
X68175000Y-57414803D01*
X67414268Y-58175535D01*
X67481934Y-58386957D01*
X67702429Y-58501762D01*
X67941083Y-58571345D01*
X67988066Y-58575459D01*
X67806888Y-58611498D01*
X67577219Y-58706630D01*
X67370522Y-58844741D01*
X67194741Y-59020522D01*
X67056630Y-59227219D01*
X66961498Y-59456888D01*
X66913000Y-59700704D01*
X66913000Y-59949296D01*
X66961498Y-60193112D01*
X67056630Y-60422781D01*
X67194741Y-60629478D01*
X67370522Y-60805259D01*
X67400066Y-60825000D01*
X67370522Y-60844741D01*
X67194741Y-61020522D01*
X67056630Y-61227219D01*
X66961498Y-61456888D01*
X66913000Y-61700704D01*
X66913000Y-61949296D01*
X66961498Y-62193112D01*
X67056630Y-62422781D01*
X67194741Y-62629478D01*
X67370522Y-62805259D01*
X67577219Y-62943370D01*
X67806888Y-63038502D01*
X67917696Y-63060543D01*
X67421000Y-63060543D01*
X67321415Y-63070351D01*
X67225657Y-63099399D01*
X67208000Y-63108837D01*
X67208000Y-62963409D01*
X67164459Y-62744516D01*
X67079051Y-62538323D01*
X66955058Y-62352755D01*
X66797245Y-62194942D01*
X66611677Y-62070949D01*
X66405484Y-61985541D01*
X66186591Y-61942000D01*
X65963409Y-61942000D01*
X65744516Y-61985541D01*
X65538323Y-62070949D01*
X65352755Y-62194942D01*
X65194942Y-62352755D01*
X65070949Y-62538323D01*
X64985541Y-62744516D01*
X64942000Y-62963409D01*
X64942000Y-63186591D01*
X64985541Y-63405484D01*
X65070949Y-63611677D01*
X65194942Y-63797245D01*
X65352755Y-63955058D01*
X65538323Y-64079051D01*
X65744516Y-64164459D01*
X65963409Y-64208000D01*
X66186591Y-64208000D01*
X66405484Y-64164459D01*
X66611677Y-64079051D01*
X66797245Y-63955058D01*
X66910543Y-63841760D01*
X66910543Y-65079000D01*
X66920351Y-65178585D01*
X66936257Y-65231020D01*
X66926000Y-65229500D01*
X66138500Y-65229500D01*
X66138500Y-66461500D01*
X68029273Y-66461500D01*
X68130579Y-66259865D01*
X68083687Y-66087900D01*
X67974948Y-65858057D01*
X67823458Y-65653844D01*
X67752402Y-65589457D01*
X68929000Y-65589457D01*
X69028585Y-65579649D01*
X69124343Y-65550601D01*
X69212595Y-65503429D01*
X69289948Y-65439948D01*
X69353429Y-65362595D01*
X69400601Y-65274343D01*
X69418299Y-65216000D01*
X70598634Y-65216000D01*
X70642000Y-65220271D01*
X70685366Y-65216000D01*
X70685373Y-65216000D01*
X70815098Y-65203223D01*
X70981544Y-65152732D01*
X71134942Y-65070740D01*
X71269396Y-64960396D01*
X71297052Y-64926697D01*
X72243708Y-63980043D01*
X72277396Y-63952396D01*
X72387740Y-63817942D01*
X72469732Y-63664544D01*
X72518641Y-63503314D01*
X72520223Y-63498099D01*
X72527184Y-63427422D01*
X72533000Y-63368373D01*
X72533000Y-63368367D01*
X72537271Y-63325001D01*
X72533000Y-63281635D01*
X72533000Y-61065749D01*
X73641204Y-59957546D01*
X73674897Y-59929895D01*
X73785241Y-59795441D01*
X73848392Y-59677293D01*
X73867233Y-59642044D01*
X73917724Y-59475598D01*
X73934773Y-59302499D01*
X73930501Y-59259126D01*
X73930501Y-55016247D01*
X73933000Y-54990874D01*
X73933000Y-54990869D01*
X73937271Y-54947503D01*
X73933000Y-54904137D01*
X73933000Y-54865749D01*
X75340742Y-53458009D01*
X75402515Y-53458009D01*
X75362261Y-53507058D01*
X75298208Y-53626894D01*
X75280269Y-53660456D01*
X75229777Y-53826902D01*
X75212729Y-54000000D01*
X75217001Y-54043375D01*
X75217000Y-54934885D01*
X75192000Y-55060570D01*
X75192000Y-55239430D01*
X75226894Y-55414854D01*
X75295341Y-55580099D01*
X75338001Y-55643944D01*
X75338000Y-58140881D01*
X74873599Y-58605283D01*
X74844529Y-58629140D01*
X74820672Y-58658210D01*
X74820671Y-58658211D01*
X74749305Y-58745170D01*
X74678549Y-58877547D01*
X74634977Y-59021184D01*
X74620264Y-59170562D01*
X74623951Y-59207995D01*
X74623949Y-61038000D01*
X74393942Y-61038000D01*
X74330099Y-60995341D01*
X74164854Y-60926894D01*
X73989430Y-60892000D01*
X73810570Y-60892000D01*
X73635146Y-60926894D01*
X73469901Y-60995341D01*
X73321184Y-61094711D01*
X73194711Y-61221184D01*
X73095341Y-61369901D01*
X73026894Y-61535146D01*
X72992000Y-61710570D01*
X72992000Y-61889430D01*
X73026894Y-62064854D01*
X73094446Y-62227939D01*
X73094447Y-63502923D01*
X72893654Y-63703716D01*
X72864578Y-63727578D01*
X72836503Y-63761788D01*
X72769355Y-63843608D01*
X72749967Y-63879881D01*
X72698598Y-63975986D01*
X72655026Y-64119623D01*
X72645901Y-64212272D01*
X72640314Y-64269000D01*
X72644000Y-64306423D01*
X72644001Y-67258668D01*
X72604072Y-67285348D01*
X72428848Y-67460572D01*
X72291175Y-67666614D01*
X72196344Y-67895555D01*
X72148000Y-68138598D01*
X72148000Y-68386402D01*
X72196344Y-68629445D01*
X72291175Y-68858386D01*
X72428848Y-69064428D01*
X72604072Y-69239652D01*
X72645001Y-69267000D01*
X64785253Y-69267000D01*
X64033000Y-68138621D01*
X64033000Y-66839933D01*
X64066313Y-66962100D01*
X64175052Y-67191943D01*
X64326542Y-67396156D01*
X64514961Y-67566891D01*
X64733068Y-67697586D01*
X64972481Y-67783219D01*
X65224000Y-67820500D01*
X66011500Y-67820500D01*
X66011500Y-66588500D01*
X66138500Y-66588500D01*
X66138500Y-67820500D01*
X66926000Y-67820500D01*
X67177519Y-67783219D01*
X67416932Y-67697586D01*
X67635039Y-67566891D01*
X67823458Y-67396156D01*
X67974948Y-67191943D01*
X68083687Y-66962100D01*
X68130579Y-66790135D01*
X68029273Y-66588500D01*
X66138500Y-66588500D01*
X66011500Y-66588500D01*
X65991500Y-66588500D01*
X65991500Y-66461500D01*
X66011500Y-66461500D01*
X66011500Y-65229500D01*
X65224000Y-65229500D01*
X64972481Y-65266781D01*
X64733068Y-65352414D01*
X64514961Y-65483109D01*
X64326542Y-65653844D01*
X64175052Y-65858057D01*
X64066313Y-66087900D01*
X64033000Y-66210067D01*
X64033000Y-58463409D01*
X64942000Y-58463409D01*
X64942000Y-58686591D01*
X64985541Y-58905484D01*
X65070949Y-59111677D01*
X65194942Y-59297245D01*
X65352755Y-59455058D01*
X65538323Y-59579051D01*
X65744516Y-59664459D01*
X65963409Y-59708000D01*
X66186591Y-59708000D01*
X66405484Y-59664459D01*
X66611677Y-59579051D01*
X66797245Y-59455058D01*
X66955058Y-59297245D01*
X67079051Y-59111677D01*
X67164459Y-58905484D01*
X67208000Y-58686591D01*
X67208000Y-58463409D01*
X67164459Y-58244516D01*
X67079051Y-58038323D01*
X66955058Y-57852755D01*
X66797245Y-57694942D01*
X66611677Y-57570949D01*
X66405484Y-57485541D01*
X66186591Y-57442000D01*
X65963409Y-57442000D01*
X65744516Y-57485541D01*
X65538323Y-57570949D01*
X65352755Y-57694942D01*
X65194942Y-57852755D01*
X65070949Y-58038323D01*
X64985541Y-58244516D01*
X64942000Y-58463409D01*
X64033000Y-58463409D01*
X64033000Y-57338728D01*
X66906968Y-57338728D01*
X66934011Y-57585845D01*
X67008745Y-57822938D01*
X67113043Y-58018066D01*
X67324465Y-58085732D01*
X68085197Y-57325000D01*
X68264803Y-57325000D01*
X69025535Y-58085732D01*
X69236957Y-58018066D01*
X69351762Y-57797571D01*
X69421345Y-57558917D01*
X69443032Y-57311272D01*
X69415989Y-57064155D01*
X69341255Y-56827062D01*
X69236957Y-56631934D01*
X69025535Y-56564268D01*
X68264803Y-57325000D01*
X68085197Y-57325000D01*
X67324465Y-56564268D01*
X67113043Y-56631934D01*
X66998238Y-56852429D01*
X66928655Y-57091083D01*
X66906968Y-57338728D01*
X64033000Y-57338728D01*
X64033000Y-56474465D01*
X67414268Y-56474465D01*
X68175000Y-57235197D01*
X68935732Y-56474465D01*
X68868066Y-56263043D01*
X68647571Y-56148238D01*
X68408917Y-56078655D01*
X68161272Y-56056968D01*
X67914155Y-56084011D01*
X67677062Y-56158745D01*
X67481934Y-56263043D01*
X67414268Y-56474465D01*
X64033000Y-56474465D01*
X64033000Y-55439933D01*
X64066313Y-55562100D01*
X64175052Y-55791943D01*
X64326542Y-55996156D01*
X64514961Y-56166891D01*
X64733068Y-56297586D01*
X64972481Y-56383219D01*
X65224000Y-56420500D01*
X66011500Y-56420500D01*
X66011500Y-55188500D01*
X66138500Y-55188500D01*
X66138500Y-56420500D01*
X66926000Y-56420500D01*
X67177519Y-56383219D01*
X67416932Y-56297586D01*
X67635039Y-56166891D01*
X67823458Y-55996156D01*
X67974948Y-55791943D01*
X68083687Y-55562100D01*
X68130579Y-55390135D01*
X68029273Y-55188500D01*
X66138500Y-55188500D01*
X66011500Y-55188500D01*
X65991500Y-55188500D01*
X65991500Y-55061500D01*
X66011500Y-55061500D01*
X66011500Y-53829500D01*
X66138500Y-53829500D01*
X66138500Y-55061500D01*
X68029273Y-55061500D01*
X68130579Y-54859865D01*
X68083687Y-54687900D01*
X67974948Y-54458057D01*
X67823458Y-54253844D01*
X67635039Y-54083109D01*
X67416932Y-53952414D01*
X67177519Y-53866781D01*
X66926000Y-53829500D01*
X66138500Y-53829500D01*
X66011500Y-53829500D01*
X65224000Y-53829500D01*
X64972481Y-53866781D01*
X64733068Y-53952414D01*
X64514961Y-54083109D01*
X64326542Y-54253844D01*
X64175052Y-54458057D01*
X64066313Y-54687900D01*
X64033000Y-54810067D01*
X64033000Y-53461379D01*
X64785253Y-52333000D01*
X73968249Y-52333000D01*
X72577736Y-53723515D01*
G37*
G04 #@! TD.AperFunction*
D25*
X77800210Y-61714446D02*
X77913339Y-61748763D01*
X77914819Y-61749212D01*
X78003965Y-61757992D01*
X78034008Y-61760951D01*
X78063868Y-61758010D01*
X79648169Y-61758010D01*
X80041975Y-62151817D01*
X80041975Y-62526069D01*
X80039034Y-62555929D01*
X80043906Y-62605391D01*
X80050773Y-62675117D01*
X80085539Y-62789725D01*
X80141996Y-62895349D01*
X80217974Y-62987930D01*
X80241177Y-63006972D01*
X81473007Y-64238803D01*
X81492045Y-64262001D01*
X81584625Y-64337979D01*
X81690249Y-64394436D01*
X81804857Y-64429202D01*
X81848893Y-64433539D01*
X81884636Y-64457422D01*
X82013484Y-64510792D01*
X82150268Y-64538000D01*
X82289732Y-64538000D01*
X82426516Y-64510792D01*
X82555364Y-64457422D01*
X82671324Y-64379940D01*
X82769940Y-64281324D01*
X82847422Y-64165364D01*
X82900792Y-64036516D01*
X82911429Y-63983041D01*
X84216053Y-63983041D01*
X84245913Y-63985982D01*
X84275773Y-63983041D01*
X84275774Y-63983041D01*
X84365102Y-63974243D01*
X84479710Y-63939477D01*
X84585334Y-63883020D01*
X84677914Y-63807042D01*
X84696957Y-63783838D01*
X84722707Y-63758088D01*
X85717000Y-63758088D01*
X85717000Y-63879581D01*
X85748051Y-64035685D01*
X85808959Y-64182732D01*
X85897385Y-64315070D01*
X86009930Y-64427615D01*
X86142268Y-64516041D01*
X86289315Y-64576949D01*
X86445419Y-64608000D01*
X86604581Y-64608000D01*
X86760685Y-64576949D01*
X86796776Y-64562000D01*
X88803224Y-64562000D01*
X88839315Y-64576949D01*
X88995419Y-64608000D01*
X89154581Y-64608000D01*
X89310685Y-64576949D01*
X89457732Y-64516041D01*
X89590070Y-64427615D01*
X89696464Y-64321221D01*
X90084126Y-64708884D01*
X90103164Y-64732082D01*
X90195744Y-64808060D01*
X90301368Y-64864517D01*
X90415976Y-64899283D01*
X90504269Y-64907979D01*
X90535165Y-64911022D01*
X90565025Y-64908081D01*
X95903252Y-64908081D01*
X96047170Y-65051999D01*
X89991841Y-65051999D01*
X89777033Y-64837192D01*
X89757991Y-64813989D01*
X89665411Y-64738011D01*
X89559787Y-64681554D01*
X89445179Y-64646788D01*
X89355851Y-64637990D01*
X89355850Y-64637990D01*
X89325990Y-64635049D01*
X89296130Y-64637990D01*
X87166860Y-64637990D01*
X87136999Y-64635049D01*
X87107139Y-64637990D01*
X87017811Y-64646788D01*
X86903203Y-64681554D01*
X86797579Y-64738011D01*
X86704999Y-64813989D01*
X86685956Y-64837193D01*
X86521148Y-65002001D01*
X82283857Y-65002001D01*
X82253997Y-64999060D01*
X82224136Y-65002001D01*
X82134808Y-65010799D01*
X82020200Y-65045565D01*
X81914576Y-65102022D01*
X81821996Y-65178000D01*
X81802953Y-65201204D01*
X81191197Y-65812960D01*
X81167999Y-65831998D01*
X81125482Y-65883806D01*
X81092020Y-65924579D01*
X81079500Y-65948002D01*
X81035563Y-66030202D01*
X81000797Y-66144810D01*
X80993588Y-66218001D01*
X80989058Y-66263999D01*
X80991999Y-66293859D01*
X80991999Y-66642000D01*
X80480443Y-66642001D01*
X80470792Y-66593484D01*
X80417422Y-66464636D01*
X80339940Y-66348676D01*
X80241324Y-66250060D01*
X80125364Y-66172578D01*
X79996516Y-66119208D01*
X79962229Y-66112388D01*
X79591044Y-65741203D01*
X79572001Y-65717999D01*
X79479421Y-65642021D01*
X79373797Y-65585564D01*
X79259189Y-65550798D01*
X79169861Y-65542000D01*
X79169860Y-65542000D01*
X79140000Y-65539059D01*
X79110140Y-65542000D01*
X77767844Y-65542000D01*
X77708010Y-65482167D01*
X77708010Y-61665164D01*
X77800210Y-61714446D01*
G04 #@! TA.AperFunction,Conductor*
D26*
G36*
X77800210Y-61714446D02*
G01*
X77913339Y-61748763D01*
X77914819Y-61749212D01*
X78003965Y-61757992D01*
X78034008Y-61760951D01*
X78063868Y-61758010D01*
X79648169Y-61758010D01*
X80041975Y-62151817D01*
X80041975Y-62526069D01*
X80039034Y-62555929D01*
X80043906Y-62605391D01*
X80050773Y-62675117D01*
X80085539Y-62789725D01*
X80141996Y-62895349D01*
X80217974Y-62987930D01*
X80241177Y-63006972D01*
X81473007Y-64238803D01*
X81492045Y-64262001D01*
X81584625Y-64337979D01*
X81690249Y-64394436D01*
X81804857Y-64429202D01*
X81848893Y-64433539D01*
X81884636Y-64457422D01*
X82013484Y-64510792D01*
X82150268Y-64538000D01*
X82289732Y-64538000D01*
X82426516Y-64510792D01*
X82555364Y-64457422D01*
X82671324Y-64379940D01*
X82769940Y-64281324D01*
X82847422Y-64165364D01*
X82900792Y-64036516D01*
X82911429Y-63983041D01*
X84216053Y-63983041D01*
X84245913Y-63985982D01*
X84275773Y-63983041D01*
X84275774Y-63983041D01*
X84365102Y-63974243D01*
X84479710Y-63939477D01*
X84585334Y-63883020D01*
X84677914Y-63807042D01*
X84696957Y-63783838D01*
X84722707Y-63758088D01*
X85717000Y-63758088D01*
X85717000Y-63879581D01*
X85748051Y-64035685D01*
X85808959Y-64182732D01*
X85897385Y-64315070D01*
X86009930Y-64427615D01*
X86142268Y-64516041D01*
X86289315Y-64576949D01*
X86445419Y-64608000D01*
X86604581Y-64608000D01*
X86760685Y-64576949D01*
X86796776Y-64562000D01*
X88803224Y-64562000D01*
X88839315Y-64576949D01*
X88995419Y-64608000D01*
X89154581Y-64608000D01*
X89310685Y-64576949D01*
X89457732Y-64516041D01*
X89590070Y-64427615D01*
X89696464Y-64321221D01*
X90084126Y-64708884D01*
X90103164Y-64732082D01*
X90195744Y-64808060D01*
X90301368Y-64864517D01*
X90415976Y-64899283D01*
X90504269Y-64907979D01*
X90535165Y-64911022D01*
X90565025Y-64908081D01*
X95903252Y-64908081D01*
X96047170Y-65051999D01*
X89991841Y-65051999D01*
X89777033Y-64837192D01*
X89757991Y-64813989D01*
X89665411Y-64738011D01*
X89559787Y-64681554D01*
X89445179Y-64646788D01*
X89355851Y-64637990D01*
X89355850Y-64637990D01*
X89325990Y-64635049D01*
X89296130Y-64637990D01*
X87166860Y-64637990D01*
X87136999Y-64635049D01*
X87107139Y-64637990D01*
X87017811Y-64646788D01*
X86903203Y-64681554D01*
X86797579Y-64738011D01*
X86704999Y-64813989D01*
X86685956Y-64837193D01*
X86521148Y-65002001D01*
X82283857Y-65002001D01*
X82253997Y-64999060D01*
X82224136Y-65002001D01*
X82134808Y-65010799D01*
X82020200Y-65045565D01*
X81914576Y-65102022D01*
X81821996Y-65178000D01*
X81802953Y-65201204D01*
X81191197Y-65812960D01*
X81167999Y-65831998D01*
X81125482Y-65883806D01*
X81092020Y-65924579D01*
X81079500Y-65948002D01*
X81035563Y-66030202D01*
X81000797Y-66144810D01*
X80993588Y-66218001D01*
X80989058Y-66263999D01*
X80991999Y-66293859D01*
X80991999Y-66642000D01*
X80480443Y-66642001D01*
X80470792Y-66593484D01*
X80417422Y-66464636D01*
X80339940Y-66348676D01*
X80241324Y-66250060D01*
X80125364Y-66172578D01*
X79996516Y-66119208D01*
X79962229Y-66112388D01*
X79591044Y-65741203D01*
X79572001Y-65717999D01*
X79479421Y-65642021D01*
X79373797Y-65585564D01*
X79259189Y-65550798D01*
X79169861Y-65542000D01*
X79169860Y-65542000D01*
X79140000Y-65539059D01*
X79110140Y-65542000D01*
X77767844Y-65542000D01*
X77708010Y-65482167D01*
X77708010Y-61665164D01*
X77800210Y-61714446D01*
G37*
G04 #@! TD.AperFunction*
M02*
