G04 #@! TF.GenerationSoftware,KiCad,Pcbnew,(6.0.9)*
G04 #@! TF.CreationDate,2022-12-08T09:02:23+01:00*
G04 #@! TF.ProjectId,STLink-Adapter,53544c69-6e6b-42d4-9164-61707465722e,rev?*
G04 #@! TF.SameCoordinates,Original*
G04 #@! TF.FileFunction,Soldermask,Top*
G04 #@! TF.FilePolarity,Negative*
%FSLAX46Y46*%
G04 Gerber Fmt 4.6, Leading zero omitted, Abs format (unit mm)*
G04 Created by KiCad (PCBNEW (6.0.9)) date 2022-12-08 09:02:23*
%MOMM*%
%LPD*%
G01*
G04 APERTURE LIST*
G04 Aperture macros list*
%AMRoundRect*
0 Rectangle with rounded corners*
0 $1 Rounding radius*
0 $2 $3 $4 $5 $6 $7 $8 $9 X,Y pos of 4 corners*
0 Add a 4 corners polygon primitive as box body*
4,1,4,$2,$3,$4,$5,$6,$7,$8,$9,$2,$3,0*
0 Add four circle primitives for the rounded corners*
1,1,$1+$1,$2,$3*
1,1,$1+$1,$4,$5*
1,1,$1+$1,$6,$7*
1,1,$1+$1,$8,$9*
0 Add four rect primitives between the rounded corners*
20,1,$1+$1,$2,$3,$4,$5,0*
20,1,$1+$1,$4,$5,$6,$7,0*
20,1,$1+$1,$6,$7,$8,$9,0*
20,1,$1+$1,$8,$9,$2,$3,0*%
G04 Aperture macros list end*
%ADD10RoundRect,0.250000X-0.600000X-0.600000X0.600000X-0.600000X0.600000X0.600000X-0.600000X0.600000X0*%
%ADD11C,1.700000*%
%ADD12RoundRect,0.237500X-0.300000X-0.237500X0.300000X-0.237500X0.300000X0.237500X-0.300000X0.237500X0*%
%ADD13RoundRect,0.237500X0.237500X-0.250000X0.237500X0.250000X-0.237500X0.250000X-0.237500X-0.250000X0*%
%ADD14C,0.900000*%
%ADD15R,0.700000X1.500000*%
%ADD16R,1.000000X0.800000*%
%ADD17RoundRect,0.250000X-0.725000X0.600000X-0.725000X-0.600000X0.725000X-0.600000X0.725000X0.600000X0*%
%ADD18O,1.950000X1.700000*%
%ADD19R,1.700000X1.700000*%
%ADD20O,1.700000X1.700000*%
G04 APERTURE END LIST*
D10*
X138430000Y-85090000D03*
D11*
X140970000Y-85090000D03*
X138430000Y-87630000D03*
X140970000Y-87630000D03*
X138430000Y-90170000D03*
X140970000Y-90170000D03*
X138430000Y-92710000D03*
X140970000Y-92710000D03*
X138430000Y-95250000D03*
X140970000Y-95250000D03*
X138430000Y-97790000D03*
X140970000Y-97790000D03*
X138430000Y-100330000D03*
X140970000Y-100330000D03*
D12*
X127534500Y-87630000D03*
X129259500Y-87630000D03*
D13*
X123063000Y-84478500D03*
X123063000Y-82653500D03*
D14*
X129770000Y-82474000D03*
X126770000Y-82474000D03*
D15*
X130520000Y-84234000D03*
X127520000Y-84234000D03*
X126020000Y-84234000D03*
D16*
X131920000Y-81374000D03*
X124620000Y-81374000D03*
X131920000Y-83584000D03*
X124620000Y-83584000D03*
D17*
X128795000Y-91440000D03*
D18*
X128795000Y-93940000D03*
X128795000Y-96440000D03*
X128795000Y-98940000D03*
D19*
X119380000Y-81280000D03*
D20*
X116840000Y-81280000D03*
X119380000Y-83820000D03*
X116840000Y-83820000D03*
X119380000Y-86360000D03*
X116840000Y-86360000D03*
X119380000Y-88900000D03*
X116840000Y-88900000D03*
X119380000Y-91440000D03*
X116840000Y-91440000D03*
X119380000Y-93980000D03*
X116840000Y-93980000D03*
X119380000Y-96520000D03*
X116840000Y-96520000D03*
X119380000Y-99060000D03*
X116840000Y-99060000D03*
X119380000Y-101600000D03*
X116840000Y-101600000D03*
X119380000Y-104140000D03*
X116840000Y-104140000D03*
D12*
X127534500Y-86106000D03*
X129259500Y-86106000D03*
M02*
