G04 #@! TF.GenerationSoftware,KiCad,Pcbnew,(6.0.9)*
G04 #@! TF.CreationDate,2022-12-08T09:02:23+01:00*
G04 #@! TF.ProjectId,STLink-Adapter,53544c69-6e6b-42d4-9164-61707465722e,rev?*
G04 #@! TF.SameCoordinates,Original*
G04 #@! TF.FileFunction,Copper,L2,Bot*
G04 #@! TF.FilePolarity,Positive*
%FSLAX46Y46*%
G04 Gerber Fmt 4.6, Leading zero omitted, Abs format (unit mm)*
G04 Created by KiCad (PCBNEW (6.0.9)) date 2022-12-08 09:02:23*
%MOMM*%
%LPD*%
G01*
G04 APERTURE LIST*
G04 Aperture macros list*
%AMRoundRect*
0 Rectangle with rounded corners*
0 $1 Rounding radius*
0 $2 $3 $4 $5 $6 $7 $8 $9 X,Y pos of 4 corners*
0 Add a 4 corners polygon primitive as box body*
4,1,4,$2,$3,$4,$5,$6,$7,$8,$9,$2,$3,0*
0 Add four circle primitives for the rounded corners*
1,1,$1+$1,$2,$3*
1,1,$1+$1,$4,$5*
1,1,$1+$1,$6,$7*
1,1,$1+$1,$8,$9*
0 Add four rect primitives between the rounded corners*
20,1,$1+$1,$2,$3,$4,$5,0*
20,1,$1+$1,$4,$5,$6,$7,0*
20,1,$1+$1,$6,$7,$8,$9,0*
20,1,$1+$1,$8,$9,$2,$3,0*%
G04 Aperture macros list end*
G04 #@! TA.AperFunction,ComponentPad*
%ADD10RoundRect,0.250000X-0.600000X-0.600000X0.600000X-0.600000X0.600000X0.600000X-0.600000X0.600000X0*%
G04 #@! TD*
G04 #@! TA.AperFunction,ComponentPad*
%ADD11C,1.700000*%
G04 #@! TD*
G04 #@! TA.AperFunction,ComponentPad*
%ADD12RoundRect,0.250000X-0.725000X0.600000X-0.725000X-0.600000X0.725000X-0.600000X0.725000X0.600000X0*%
G04 #@! TD*
G04 #@! TA.AperFunction,ComponentPad*
%ADD13O,1.950000X1.700000*%
G04 #@! TD*
G04 #@! TA.AperFunction,ComponentPad*
%ADD14R,1.700000X1.700000*%
G04 #@! TD*
G04 #@! TA.AperFunction,ComponentPad*
%ADD15O,1.700000X1.700000*%
G04 #@! TD*
G04 #@! TA.AperFunction,ViaPad*
%ADD16C,0.800000*%
G04 #@! TD*
G04 #@! TA.AperFunction,Conductor*
%ADD17C,0.254000*%
G04 #@! TD*
G04 #@! TA.AperFunction,Conductor*
%ADD18C,0.381000*%
G04 #@! TD*
G04 APERTURE END LIST*
D10*
X138430000Y-85090000D03*
D11*
X140970000Y-85090000D03*
X138430000Y-87630000D03*
X140970000Y-87630000D03*
X138430000Y-90170000D03*
X140970000Y-90170000D03*
X138430000Y-92710000D03*
X140970000Y-92710000D03*
X138430000Y-95250000D03*
X140970000Y-95250000D03*
X138430000Y-97790000D03*
X140970000Y-97790000D03*
X138430000Y-100330000D03*
X140970000Y-100330000D03*
D12*
X128795000Y-91440000D03*
D13*
X128795000Y-93940000D03*
X128795000Y-96440000D03*
X128795000Y-98940000D03*
D14*
X119380000Y-81280000D03*
D15*
X116840000Y-81280000D03*
X119380000Y-83820000D03*
X116840000Y-83820000D03*
X119380000Y-86360000D03*
X116840000Y-86360000D03*
X119380000Y-88900000D03*
X116840000Y-88900000D03*
X119380000Y-91440000D03*
X116840000Y-91440000D03*
X119380000Y-93980000D03*
X116840000Y-93980000D03*
X119380000Y-96520000D03*
X116840000Y-96520000D03*
X119380000Y-99060000D03*
X116840000Y-99060000D03*
X119380000Y-101600000D03*
X116840000Y-101600000D03*
X119380000Y-104140000D03*
X116840000Y-104140000D03*
D16*
X133223000Y-89281000D03*
X121920000Y-82550000D03*
X133350000Y-82550000D03*
X122555000Y-95250000D03*
X123190000Y-100330000D03*
X126111000Y-86614000D03*
D17*
X133096000Y-89408000D02*
X133223000Y-89281000D01*
X116840000Y-99060000D02*
X116840000Y-100330000D01*
X123952000Y-87630000D02*
X125730000Y-89408000D01*
X122047000Y-92710000D02*
X122555000Y-93218000D01*
X123190000Y-102870000D02*
X116840000Y-102870000D01*
D18*
X116840000Y-93980000D02*
X116840000Y-95377000D01*
D17*
X123190000Y-100330000D02*
X123190000Y-102870000D01*
X125730000Y-89408000D02*
X133096000Y-89408000D01*
X118110000Y-87630000D02*
X123952000Y-87630000D01*
X116840000Y-102870000D02*
X116840000Y-104140000D01*
X122555000Y-93218000D02*
X122555000Y-95250000D01*
X116840000Y-100330000D02*
X116840000Y-101600000D01*
D18*
X116840000Y-95377000D02*
X116840000Y-96520000D01*
D17*
X122555000Y-95250000D02*
X116967000Y-95250000D01*
X123190000Y-100330000D02*
X116840000Y-100330000D01*
X116840000Y-92710000D02*
X122047000Y-92710000D01*
X116840000Y-86360000D02*
X118110000Y-87630000D01*
X116840000Y-101600000D02*
X116840000Y-102870000D01*
X116967000Y-95250000D02*
X116840000Y-95377000D01*
X116840000Y-91440000D02*
X116840000Y-92710000D01*
D18*
X136906000Y-82677000D02*
X142113000Y-82677000D01*
X119380000Y-83820000D02*
X121285000Y-85725000D01*
X142494000Y-87249000D02*
X142494000Y-91186000D01*
X143129000Y-86614000D02*
X142494000Y-87249000D01*
X143129000Y-83693000D02*
X143129000Y-86614000D01*
X136017000Y-85217000D02*
X135509000Y-85725000D01*
X121285000Y-85725000D02*
X135509000Y-85725000D01*
X142113000Y-82677000D02*
X143129000Y-83693000D01*
X136017000Y-83566000D02*
X136906000Y-82677000D01*
X136017000Y-85217000D02*
X136017000Y-83566000D01*
X142494000Y-91186000D02*
X140970000Y-92710000D01*
X124587000Y-86614000D02*
X125603000Y-87630000D01*
X119380000Y-86360000D02*
X120904000Y-86360000D01*
X125603000Y-87630000D02*
X138430000Y-87630000D01*
X121158000Y-86614000D02*
X124587000Y-86614000D01*
X120904000Y-86360000D02*
X121158000Y-86614000D01*
X128795000Y-93940000D02*
X132755000Y-93940000D01*
X122047000Y-88900000D02*
X127087000Y-93940000D01*
X136525000Y-90170000D02*
X132755000Y-93940000D01*
X119380000Y-88900000D02*
X122047000Y-88900000D01*
X138430000Y-90170000D02*
X136525000Y-90170000D01*
X127087000Y-93940000D02*
X128795000Y-93940000D01*
X128317000Y-96440000D02*
X128795000Y-96440000D01*
X123317000Y-91440000D02*
X128317000Y-96440000D01*
X138430000Y-92710000D02*
X135128000Y-92710000D01*
X119380000Y-91440000D02*
X123317000Y-91440000D01*
X130556000Y-94742000D02*
X128858000Y-96440000D01*
X128858000Y-96440000D02*
X128795000Y-96440000D01*
X133096000Y-94742000D02*
X130556000Y-94742000D01*
X135128000Y-92710000D02*
X133096000Y-94742000D01*
D17*
X136779000Y-97790000D02*
X138430000Y-97790000D01*
X120773000Y-97667000D02*
X136656000Y-97667000D01*
X136656000Y-97667000D02*
X136779000Y-97790000D01*
X119380000Y-99060000D02*
X120773000Y-97667000D01*
D18*
X136779000Y-85471000D02*
X136779000Y-84074000D01*
X141859000Y-83439000D02*
X142367000Y-83947000D01*
X142367000Y-83947000D02*
X142367000Y-86233000D01*
X136779000Y-84074000D02*
X137414000Y-83439000D01*
X137414000Y-83439000D02*
X141859000Y-83439000D01*
X142367000Y-86233000D02*
X140970000Y-87630000D01*
X126111000Y-86614000D02*
X135636000Y-86614000D01*
X135636000Y-86614000D02*
X136779000Y-85471000D01*
G04 #@! TA.AperFunction,Conductor*
G36*
X144213621Y-79903502D02*
G01*
X144260114Y-79957158D01*
X144271500Y-80009500D01*
X144271500Y-105410500D01*
X144251498Y-105478621D01*
X144197842Y-105525114D01*
X144145500Y-105536500D01*
X120155333Y-105536500D01*
X120087212Y-105516498D01*
X120040719Y-105462842D01*
X120030615Y-105392568D01*
X120060109Y-105327988D01*
X120082165Y-105307921D01*
X120150415Y-105259239D01*
X120259860Y-105181173D01*
X120418096Y-105023489D01*
X120548453Y-104842077D01*
X120561995Y-104814678D01*
X120645136Y-104646453D01*
X120645137Y-104646451D01*
X120647430Y-104641811D01*
X120712370Y-104428069D01*
X120741529Y-104206590D01*
X120743156Y-104140000D01*
X120724852Y-103917361D01*
X120670431Y-103700702D01*
X120581354Y-103495840D01*
X120460014Y-103308277D01*
X120309670Y-103143051D01*
X120305619Y-103139852D01*
X120305615Y-103139848D01*
X120138414Y-103007800D01*
X120138410Y-103007798D01*
X120134359Y-103004598D01*
X120093053Y-102981796D01*
X120043084Y-102931364D01*
X120028312Y-102861921D01*
X120053428Y-102795516D01*
X120080780Y-102768909D01*
X120124603Y-102737650D01*
X120259860Y-102641173D01*
X120418096Y-102483489D01*
X120548453Y-102302077D01*
X120561995Y-102274678D01*
X120645136Y-102106453D01*
X120645137Y-102106451D01*
X120647430Y-102101811D01*
X120712370Y-101888069D01*
X120741529Y-101666590D01*
X120742189Y-101639579D01*
X120743074Y-101603365D01*
X120743074Y-101603361D01*
X120743156Y-101600000D01*
X120731223Y-101454853D01*
X137669977Y-101454853D01*
X137675258Y-101461907D01*
X137836756Y-101556279D01*
X137846042Y-101560729D01*
X138045001Y-101636703D01*
X138054899Y-101639579D01*
X138263595Y-101682038D01*
X138273823Y-101683257D01*
X138486650Y-101691062D01*
X138496936Y-101690595D01*
X138708185Y-101663534D01*
X138718262Y-101661392D01*
X138922255Y-101600191D01*
X138931842Y-101596433D01*
X139123098Y-101502738D01*
X139131944Y-101497465D01*
X139179247Y-101463723D01*
X139187648Y-101453023D01*
X139180660Y-101439870D01*
X138442812Y-100702022D01*
X138428868Y-100694408D01*
X138427035Y-100694539D01*
X138420420Y-100698790D01*
X137676737Y-101442473D01*
X137669977Y-101454853D01*
X120731223Y-101454853D01*
X120724852Y-101377361D01*
X120670431Y-101160702D01*
X120581354Y-100955840D01*
X120460014Y-100768277D01*
X120309670Y-100603051D01*
X120305619Y-100599852D01*
X120305615Y-100599848D01*
X120138414Y-100467800D01*
X120138410Y-100467798D01*
X120134359Y-100464598D01*
X120093053Y-100441796D01*
X120043084Y-100391364D01*
X120028312Y-100321921D01*
X120035898Y-100301863D01*
X137068050Y-100301863D01*
X137080309Y-100514477D01*
X137081745Y-100524697D01*
X137128565Y-100732446D01*
X137131645Y-100742275D01*
X137211770Y-100939603D01*
X137216413Y-100948794D01*
X137296460Y-101079420D01*
X137306916Y-101088880D01*
X137315694Y-101085096D01*
X138057978Y-100342812D01*
X138065592Y-100328868D01*
X138065461Y-100327035D01*
X138061210Y-100320420D01*
X137319849Y-99579059D01*
X137308313Y-99572759D01*
X137296031Y-99582382D01*
X137248089Y-99652662D01*
X137243004Y-99661613D01*
X137153338Y-99854783D01*
X137149775Y-99864470D01*
X137092864Y-100069681D01*
X137090933Y-100079800D01*
X137068302Y-100291574D01*
X137068050Y-100301863D01*
X120035898Y-100301863D01*
X120053428Y-100255516D01*
X120080780Y-100228909D01*
X120124603Y-100197650D01*
X120259860Y-100101173D01*
X120418096Y-99943489D01*
X120548453Y-99762077D01*
X120561995Y-99734678D01*
X120645136Y-99566453D01*
X120645137Y-99566451D01*
X120647430Y-99561811D01*
X120712370Y-99348069D01*
X120730735Y-99208580D01*
X127338752Y-99208580D01*
X127363477Y-99326421D01*
X127366537Y-99336617D01*
X127447263Y-99541029D01*
X127451994Y-99550561D01*
X127566016Y-99738462D01*
X127572280Y-99747052D01*
X127716327Y-99913052D01*
X127723958Y-99920472D01*
X127893911Y-100059826D01*
X127902678Y-100065850D01*
X128093682Y-100174576D01*
X128103346Y-100179041D01*
X128309941Y-100254031D01*
X128320208Y-100256802D01*
X128523174Y-100293504D01*
X128536414Y-100292085D01*
X128541000Y-100277450D01*
X128541000Y-100273849D01*
X129049000Y-100273849D01*
X129053310Y-100288527D01*
X129065193Y-100290590D01*
X129144325Y-100283876D01*
X129154797Y-100282086D01*
X129367535Y-100226870D01*
X129377575Y-100223335D01*
X129577970Y-100133063D01*
X129587256Y-100127894D01*
X129769575Y-100005150D01*
X129777870Y-99998481D01*
X129936900Y-99846772D01*
X129943941Y-99838814D01*
X130075141Y-99662475D01*
X130080745Y-99653438D01*
X130180357Y-99457516D01*
X130184357Y-99447665D01*
X130249534Y-99237760D01*
X130251817Y-99227376D01*
X130253861Y-99211957D01*
X130251665Y-99197793D01*
X130238478Y-99194000D01*
X129067115Y-99194000D01*
X129051876Y-99198475D01*
X129050671Y-99199865D01*
X129049000Y-99207548D01*
X129049000Y-100273849D01*
X128541000Y-100273849D01*
X128541000Y-99212115D01*
X128536525Y-99196876D01*
X128535135Y-99195671D01*
X128527452Y-99194000D01*
X127353808Y-99194000D01*
X127340277Y-99197973D01*
X127338752Y-99208580D01*
X120730735Y-99208580D01*
X120741529Y-99126590D01*
X120741657Y-99121364D01*
X120743074Y-99063365D01*
X120743074Y-99063361D01*
X120743156Y-99060000D01*
X120724852Y-98837361D01*
X120697389Y-98728024D01*
X120700194Y-98657083D01*
X120730498Y-98608234D01*
X120999327Y-98339405D01*
X121061639Y-98305379D01*
X121088422Y-98302500D01*
X127274899Y-98302500D01*
X127343020Y-98322502D01*
X127389513Y-98376158D01*
X127399617Y-98446432D01*
X127395232Y-98465864D01*
X127340466Y-98642240D01*
X127338183Y-98652624D01*
X127336139Y-98668043D01*
X127338335Y-98682207D01*
X127351522Y-98686000D01*
X130236192Y-98686000D01*
X130249723Y-98682027D01*
X130251248Y-98671420D01*
X130226523Y-98553579D01*
X130223463Y-98543383D01*
X130196371Y-98474781D01*
X130189953Y-98404076D01*
X130222780Y-98341124D01*
X130284431Y-98305914D01*
X130313563Y-98302500D01*
X136359710Y-98302500D01*
X136427831Y-98322502D01*
X136436938Y-98328941D01*
X136452933Y-98341349D01*
X136460210Y-98344498D01*
X136493650Y-98358969D01*
X136504311Y-98364192D01*
X136536247Y-98381749D01*
X136536252Y-98381751D01*
X136543197Y-98385569D01*
X136550871Y-98387539D01*
X136550878Y-98387542D01*
X136562913Y-98390632D01*
X136581618Y-98397036D01*
X136593013Y-98401967D01*
X136600292Y-98405117D01*
X136627342Y-98409401D01*
X136644127Y-98412060D01*
X136655740Y-98414465D01*
X136698718Y-98425500D01*
X136719065Y-98425500D01*
X136738777Y-98427051D01*
X136758879Y-98430235D01*
X136766771Y-98429489D01*
X136803056Y-98426059D01*
X136814914Y-98425500D01*
X137155500Y-98425500D01*
X137223621Y-98445502D01*
X137262933Y-98485666D01*
X137327287Y-98590683D01*
X137327291Y-98590688D01*
X137329987Y-98595088D01*
X137476250Y-98763938D01*
X137648126Y-98906632D01*
X137721445Y-98949476D01*
X137721955Y-98949774D01*
X137770679Y-99001412D01*
X137783750Y-99071195D01*
X137757019Y-99136967D01*
X137716562Y-99170327D01*
X137708460Y-99174544D01*
X137699734Y-99180039D01*
X137679677Y-99195099D01*
X137671223Y-99206427D01*
X137677968Y-99218758D01*
X138417188Y-99957978D01*
X138431132Y-99965592D01*
X138432965Y-99965461D01*
X138439580Y-99961210D01*
X139183389Y-99217401D01*
X139190410Y-99204544D01*
X139183611Y-99195213D01*
X139179559Y-99192521D01*
X139142602Y-99172120D01*
X139092631Y-99121687D01*
X139077859Y-99052245D01*
X139102975Y-98985839D01*
X139130327Y-98959232D01*
X139153797Y-98942491D01*
X139309860Y-98831173D01*
X139468096Y-98673489D01*
X139598453Y-98492077D01*
X139599776Y-98493028D01*
X139646645Y-98449857D01*
X139716580Y-98437625D01*
X139782026Y-98465144D01*
X139809875Y-98496994D01*
X139869987Y-98595088D01*
X140016250Y-98763938D01*
X140188126Y-98906632D01*
X140258595Y-98947811D01*
X140261445Y-98949476D01*
X140310169Y-99001114D01*
X140323240Y-99070897D01*
X140296509Y-99136669D01*
X140256055Y-99170027D01*
X140243607Y-99176507D01*
X140239474Y-99179610D01*
X140239471Y-99179612D01*
X140069100Y-99307530D01*
X140064965Y-99310635D01*
X139910629Y-99472138D01*
X139837693Y-99579059D01*
X139802898Y-99630066D01*
X139747987Y-99675069D01*
X139677462Y-99683240D01*
X139613715Y-99651986D01*
X139593017Y-99627501D01*
X139563062Y-99581197D01*
X139552377Y-99571995D01*
X139542812Y-99576398D01*
X138802022Y-100317188D01*
X138794408Y-100331132D01*
X138794539Y-100332965D01*
X138798790Y-100339580D01*
X139540474Y-101081264D01*
X139552484Y-101087823D01*
X139564223Y-101078855D01*
X139598022Y-101031819D01*
X139599277Y-101032721D01*
X139646391Y-100989355D01*
X139716330Y-100977148D01*
X139781767Y-101004691D01*
X139809580Y-101036513D01*
X139867287Y-101130683D01*
X139867291Y-101130688D01*
X139869987Y-101135088D01*
X140016250Y-101303938D01*
X140188126Y-101446632D01*
X140381000Y-101559338D01*
X140589692Y-101639030D01*
X140594760Y-101640061D01*
X140594763Y-101640062D01*
X140699604Y-101661392D01*
X140808597Y-101683567D01*
X140813772Y-101683757D01*
X140813774Y-101683757D01*
X141026673Y-101691564D01*
X141026677Y-101691564D01*
X141031837Y-101691753D01*
X141036957Y-101691097D01*
X141036959Y-101691097D01*
X141248288Y-101664025D01*
X141248289Y-101664025D01*
X141253416Y-101663368D01*
X141258366Y-101661883D01*
X141462429Y-101600661D01*
X141462434Y-101600659D01*
X141467384Y-101599174D01*
X141667994Y-101500896D01*
X141849860Y-101371173D01*
X142008096Y-101213489D01*
X142138453Y-101032077D01*
X142159568Y-100989355D01*
X142235136Y-100836453D01*
X142235137Y-100836451D01*
X142237430Y-100831811D01*
X142302370Y-100618069D01*
X142331529Y-100396590D01*
X142333156Y-100330000D01*
X142314852Y-100107361D01*
X142260431Y-99890702D01*
X142171354Y-99685840D01*
X142050014Y-99498277D01*
X141899670Y-99333051D01*
X141895619Y-99329852D01*
X141895615Y-99329848D01*
X141728414Y-99197800D01*
X141728410Y-99197798D01*
X141724359Y-99194598D01*
X141683053Y-99171796D01*
X141633084Y-99121364D01*
X141618312Y-99051921D01*
X141643428Y-98985516D01*
X141670780Y-98958909D01*
X141714603Y-98927650D01*
X141849860Y-98831173D01*
X142008096Y-98673489D01*
X142138453Y-98492077D01*
X142141622Y-98485666D01*
X142235136Y-98296453D01*
X142235137Y-98296451D01*
X142237430Y-98291811D01*
X142302370Y-98078069D01*
X142331529Y-97856590D01*
X142333156Y-97790000D01*
X142314852Y-97567361D01*
X142260431Y-97350702D01*
X142171354Y-97145840D01*
X142112606Y-97055029D01*
X142052822Y-96962617D01*
X142052820Y-96962614D01*
X142050014Y-96958277D01*
X141899670Y-96793051D01*
X141895619Y-96789852D01*
X141895615Y-96789848D01*
X141728414Y-96657800D01*
X141728410Y-96657798D01*
X141724359Y-96654598D01*
X141683053Y-96631796D01*
X141633084Y-96581364D01*
X141618312Y-96511921D01*
X141643428Y-96445516D01*
X141670780Y-96418909D01*
X141735110Y-96373023D01*
X141849860Y-96291173D01*
X142008096Y-96133489D01*
X142138453Y-95952077D01*
X142159568Y-95909355D01*
X142235136Y-95756453D01*
X142235137Y-95756451D01*
X142237430Y-95751811D01*
X142302370Y-95538069D01*
X142331529Y-95316590D01*
X142331657Y-95311364D01*
X142333074Y-95253365D01*
X142333074Y-95253361D01*
X142333156Y-95250000D01*
X142314852Y-95027361D01*
X142260431Y-94810702D01*
X142171354Y-94605840D01*
X142050014Y-94418277D01*
X141899670Y-94253051D01*
X141895619Y-94249852D01*
X141895615Y-94249848D01*
X141728414Y-94117800D01*
X141728410Y-94117798D01*
X141724359Y-94114598D01*
X141683053Y-94091796D01*
X141633084Y-94041364D01*
X141618312Y-93971921D01*
X141643428Y-93905516D01*
X141670780Y-93878909D01*
X141714603Y-93847650D01*
X141849860Y-93751173D01*
X142008096Y-93593489D01*
X142138453Y-93412077D01*
X142159320Y-93369857D01*
X142235136Y-93216453D01*
X142235137Y-93216451D01*
X142237430Y-93211811D01*
X142290671Y-93036576D01*
X142300865Y-93003023D01*
X142300865Y-93003021D01*
X142302370Y-92998069D01*
X142331529Y-92776590D01*
X142332616Y-92732115D01*
X142333074Y-92713365D01*
X142333074Y-92713361D01*
X142333156Y-92710000D01*
X142314852Y-92487361D01*
X142305417Y-92449799D01*
X142308221Y-92378859D01*
X142338526Y-92330009D01*
X142968038Y-91700497D01*
X142974304Y-91694643D01*
X142974614Y-91694373D01*
X143017274Y-91657158D01*
X143053502Y-91605610D01*
X143057435Y-91600316D01*
X143096291Y-91550761D01*
X143099417Y-91543837D01*
X143101264Y-91540788D01*
X143108489Y-91528122D01*
X143110186Y-91524957D01*
X143114556Y-91518739D01*
X143137456Y-91460004D01*
X143139983Y-91453991D01*
X143165912Y-91396565D01*
X143167296Y-91389097D01*
X143168364Y-91385689D01*
X143172364Y-91371650D01*
X143173253Y-91368186D01*
X143176012Y-91361111D01*
X143177004Y-91353579D01*
X143184235Y-91298655D01*
X143185267Y-91292141D01*
X143195360Y-91237683D01*
X143195360Y-91237680D01*
X143196744Y-91230214D01*
X143193209Y-91168905D01*
X143193000Y-91161653D01*
X143193000Y-87590726D01*
X143213002Y-87522605D01*
X143229905Y-87501630D01*
X143401505Y-87330031D01*
X143603053Y-87128483D01*
X143609319Y-87122630D01*
X143646547Y-87090154D01*
X143652274Y-87085158D01*
X143688498Y-87033617D01*
X143692423Y-87028332D01*
X143726607Y-86984735D01*
X143731292Y-86978760D01*
X143734416Y-86971842D01*
X143736245Y-86968821D01*
X143743500Y-86956102D01*
X143745188Y-86952954D01*
X143749556Y-86946739D01*
X143772438Y-86888050D01*
X143774978Y-86882005D01*
X143800913Y-86824565D01*
X143802298Y-86817092D01*
X143803369Y-86813674D01*
X143807354Y-86799685D01*
X143808251Y-86796193D01*
X143811012Y-86789111D01*
X143819233Y-86726670D01*
X143820265Y-86720157D01*
X143830361Y-86665682D01*
X143830361Y-86665680D01*
X143831745Y-86658213D01*
X143828209Y-86596887D01*
X143828000Y-86589635D01*
X143828000Y-83721599D01*
X143828292Y-83713029D01*
X143831654Y-83663723D01*
X143831654Y-83663719D01*
X143832170Y-83656148D01*
X143830865Y-83648672D01*
X143830865Y-83648668D01*
X143821337Y-83594076D01*
X143820374Y-83587551D01*
X143813722Y-83532582D01*
X143813721Y-83532580D01*
X143812809Y-83525040D01*
X143810125Y-83517938D01*
X143809281Y-83514500D01*
X143805417Y-83500377D01*
X143804387Y-83496965D01*
X143803081Y-83489483D01*
X143800029Y-83482530D01*
X143800027Y-83482524D01*
X143777763Y-83431806D01*
X143775270Y-83425698D01*
X143772273Y-83417765D01*
X143758268Y-83380702D01*
X143755692Y-83373885D01*
X143755690Y-83373882D01*
X143753006Y-83366778D01*
X143748701Y-83360514D01*
X143747045Y-83357347D01*
X143739940Y-83344582D01*
X143738132Y-83341525D01*
X143735078Y-83334567D01*
X143696740Y-83284604D01*
X143692862Y-83279267D01*
X143661481Y-83233607D01*
X143661479Y-83233605D01*
X143657179Y-83227348D01*
X143611311Y-83186481D01*
X143606036Y-83181501D01*
X142627497Y-82202962D01*
X142621643Y-82196696D01*
X142605450Y-82178134D01*
X142584158Y-82153726D01*
X142532622Y-82117506D01*
X142527326Y-82113573D01*
X142483737Y-82079394D01*
X142483734Y-82079392D01*
X142477760Y-82074708D01*
X142470836Y-82071582D01*
X142467801Y-82069744D01*
X142455102Y-82062500D01*
X142451954Y-82060812D01*
X142445739Y-82056444D01*
X142387050Y-82033562D01*
X142381005Y-82031022D01*
X142323565Y-82005087D01*
X142316092Y-82003702D01*
X142312674Y-82002631D01*
X142298685Y-81998646D01*
X142295193Y-81997749D01*
X142288111Y-81994988D01*
X142280578Y-81993996D01*
X142280577Y-81993996D01*
X142225670Y-81986767D01*
X142219157Y-81985735D01*
X142164682Y-81975639D01*
X142164680Y-81975639D01*
X142157213Y-81974255D01*
X142149633Y-81974692D01*
X142149632Y-81974692D01*
X142095888Y-81977791D01*
X142088635Y-81978000D01*
X136934600Y-81978000D01*
X136926029Y-81977708D01*
X136876725Y-81974346D01*
X136876721Y-81974346D01*
X136869149Y-81973830D01*
X136861673Y-81975135D01*
X136861669Y-81975135D01*
X136807078Y-81984663D01*
X136800553Y-81985626D01*
X136745582Y-81992278D01*
X136745579Y-81992279D01*
X136738040Y-81993191D01*
X136730938Y-81995875D01*
X136727500Y-81996719D01*
X136713377Y-82000583D01*
X136709965Y-82001613D01*
X136702483Y-82002919D01*
X136695530Y-82005971D01*
X136695524Y-82005973D01*
X136644806Y-82028237D01*
X136638710Y-82030725D01*
X136615276Y-82039580D01*
X136586885Y-82050308D01*
X136586882Y-82050310D01*
X136579778Y-82052994D01*
X136573514Y-82057299D01*
X136570347Y-82058955D01*
X136557582Y-82066060D01*
X136554525Y-82067868D01*
X136547567Y-82070922D01*
X136541539Y-82075547D01*
X136541538Y-82075548D01*
X136497604Y-82109260D01*
X136492267Y-82113138D01*
X136446852Y-82144351D01*
X136440348Y-82148821D01*
X136435296Y-82154491D01*
X136435295Y-82154492D01*
X136399482Y-82194688D01*
X136394501Y-82199964D01*
X135542962Y-83051503D01*
X135536697Y-83057356D01*
X135493726Y-83094842D01*
X135489359Y-83101056D01*
X135457506Y-83146378D01*
X135453573Y-83151674D01*
X135419394Y-83195263D01*
X135419392Y-83195266D01*
X135414708Y-83201240D01*
X135411582Y-83208164D01*
X135409744Y-83211199D01*
X135402500Y-83223898D01*
X135400812Y-83227046D01*
X135396444Y-83233261D01*
X135376427Y-83284604D01*
X135373567Y-83291939D01*
X135371022Y-83297995D01*
X135345087Y-83355435D01*
X135343702Y-83362908D01*
X135342631Y-83366326D01*
X135338646Y-83380315D01*
X135337749Y-83383807D01*
X135334988Y-83390889D01*
X135333996Y-83398422D01*
X135333996Y-83398423D01*
X135326767Y-83453330D01*
X135325735Y-83459843D01*
X135320242Y-83489483D01*
X135314255Y-83521787D01*
X135314692Y-83529367D01*
X135314692Y-83529368D01*
X135317791Y-83583112D01*
X135318000Y-83590365D01*
X135318000Y-84875273D01*
X135297998Y-84943394D01*
X135281097Y-84964367D01*
X135256371Y-84989094D01*
X135194060Y-85023120D01*
X135167274Y-85026000D01*
X121626725Y-85026000D01*
X121558604Y-85005998D01*
X121537630Y-84989095D01*
X120749820Y-84201285D01*
X120715794Y-84138973D01*
X120713993Y-84095743D01*
X120741092Y-83889908D01*
X120741529Y-83886590D01*
X120743156Y-83820000D01*
X120724852Y-83597361D01*
X120670431Y-83380702D01*
X120581354Y-83175840D01*
X120504704Y-83057357D01*
X120462822Y-82992617D01*
X120462820Y-82992614D01*
X120460014Y-82988277D01*
X120451410Y-82978821D01*
X120312798Y-82826488D01*
X120281746Y-82762642D01*
X120290141Y-82692143D01*
X120335317Y-82637375D01*
X120361761Y-82623706D01*
X120468297Y-82583767D01*
X120476705Y-82580615D01*
X120556164Y-82521064D01*
X125807707Y-82521064D01*
X125836825Y-82713599D01*
X125839028Y-82719585D01*
X125839029Y-82719591D01*
X125901860Y-82890360D01*
X125901862Y-82890365D01*
X125904063Y-82896346D01*
X126006674Y-83061840D01*
X126140466Y-83203322D01*
X126145696Y-83206984D01*
X126145697Y-83206985D01*
X126193333Y-83240340D01*
X126299975Y-83315011D01*
X126305838Y-83317548D01*
X126472825Y-83389810D01*
X126472829Y-83389811D01*
X126478684Y-83392345D01*
X126484931Y-83393650D01*
X126484934Y-83393651D01*
X126664557Y-83431176D01*
X126664562Y-83431177D01*
X126669293Y-83432165D01*
X126675685Y-83432500D01*
X126818663Y-83432500D01*
X126887951Y-83425462D01*
X126957378Y-83418410D01*
X126957379Y-83418410D01*
X126963727Y-83417765D01*
X127044843Y-83392345D01*
X127143451Y-83361444D01*
X127143456Y-83361442D01*
X127149541Y-83359535D01*
X127271486Y-83291939D01*
X127314271Y-83268223D01*
X127314274Y-83268221D01*
X127319850Y-83265130D01*
X127324691Y-83260981D01*
X127324695Y-83260978D01*
X127462855Y-83142560D01*
X127467698Y-83138409D01*
X127481927Y-83120066D01*
X127542955Y-83041389D01*
X127587046Y-82984547D01*
X127599912Y-82958401D01*
X127670200Y-82815556D01*
X127673018Y-82809829D01*
X127675413Y-82800635D01*
X127720492Y-82627575D01*
X127720492Y-82627572D01*
X127722102Y-82621393D01*
X127727360Y-82521064D01*
X128807707Y-82521064D01*
X128836825Y-82713599D01*
X128839028Y-82719585D01*
X128839029Y-82719591D01*
X128901860Y-82890360D01*
X128901862Y-82890365D01*
X128904063Y-82896346D01*
X129006674Y-83061840D01*
X129140466Y-83203322D01*
X129145696Y-83206984D01*
X129145697Y-83206985D01*
X129193333Y-83240340D01*
X129299975Y-83315011D01*
X129305838Y-83317548D01*
X129472825Y-83389810D01*
X129472829Y-83389811D01*
X129478684Y-83392345D01*
X129484931Y-83393650D01*
X129484934Y-83393651D01*
X129664557Y-83431176D01*
X129664562Y-83431177D01*
X129669293Y-83432165D01*
X129675685Y-83432500D01*
X129818663Y-83432500D01*
X129887951Y-83425462D01*
X129957378Y-83418410D01*
X129957379Y-83418410D01*
X129963727Y-83417765D01*
X130044843Y-83392345D01*
X130143451Y-83361444D01*
X130143456Y-83361442D01*
X130149541Y-83359535D01*
X130271486Y-83291939D01*
X130314271Y-83268223D01*
X130314274Y-83268221D01*
X130319850Y-83265130D01*
X130324691Y-83260981D01*
X130324695Y-83260978D01*
X130462855Y-83142560D01*
X130467698Y-83138409D01*
X130481927Y-83120066D01*
X130542955Y-83041389D01*
X130587046Y-82984547D01*
X130599912Y-82958401D01*
X130670200Y-82815556D01*
X130673018Y-82809829D01*
X130675413Y-82800635D01*
X130720492Y-82627575D01*
X130720492Y-82627572D01*
X130722102Y-82621393D01*
X130728817Y-82493261D01*
X130731959Y-82433317D01*
X130731959Y-82433313D01*
X130732293Y-82426936D01*
X130703175Y-82234401D01*
X130700972Y-82228415D01*
X130700971Y-82228409D01*
X130638140Y-82057640D01*
X130638138Y-82057635D01*
X130635937Y-82051654D01*
X130533326Y-81886160D01*
X130399534Y-81744678D01*
X130240025Y-81632989D01*
X130192013Y-81612212D01*
X130067175Y-81558190D01*
X130067171Y-81558189D01*
X130061316Y-81555655D01*
X130055069Y-81554350D01*
X130055066Y-81554349D01*
X129875443Y-81516824D01*
X129875438Y-81516823D01*
X129870707Y-81515835D01*
X129864315Y-81515500D01*
X129721337Y-81515500D01*
X129652049Y-81522538D01*
X129582622Y-81529590D01*
X129582621Y-81529590D01*
X129576273Y-81530235D01*
X129519939Y-81547889D01*
X129396549Y-81586556D01*
X129396544Y-81586558D01*
X129390459Y-81588465D01*
X129314713Y-81630452D01*
X129225729Y-81679777D01*
X129225726Y-81679779D01*
X129220150Y-81682870D01*
X129215309Y-81687019D01*
X129215305Y-81687022D01*
X129152311Y-81741015D01*
X129072302Y-81809591D01*
X128952954Y-81963453D01*
X128950138Y-81969176D01*
X128950136Y-81969179D01*
X128898210Y-82074708D01*
X128866982Y-82138171D01*
X128865373Y-82144349D01*
X128865372Y-82144351D01*
X128820263Y-82317529D01*
X128817898Y-82326607D01*
X128814896Y-82383891D01*
X128808322Y-82509338D01*
X128807707Y-82521064D01*
X127727360Y-82521064D01*
X127728817Y-82493261D01*
X127731959Y-82433317D01*
X127731959Y-82433313D01*
X127732293Y-82426936D01*
X127703175Y-82234401D01*
X127700972Y-82228415D01*
X127700971Y-82228409D01*
X127638140Y-82057640D01*
X127638138Y-82057635D01*
X127635937Y-82051654D01*
X127533326Y-81886160D01*
X127399534Y-81744678D01*
X127240025Y-81632989D01*
X127192013Y-81612212D01*
X127067175Y-81558190D01*
X127067171Y-81558189D01*
X127061316Y-81555655D01*
X127055069Y-81554350D01*
X127055066Y-81554349D01*
X126875443Y-81516824D01*
X126875438Y-81516823D01*
X126870707Y-81515835D01*
X126864315Y-81515500D01*
X126721337Y-81515500D01*
X126652049Y-81522538D01*
X126582622Y-81529590D01*
X126582621Y-81529590D01*
X126576273Y-81530235D01*
X126519939Y-81547889D01*
X126396549Y-81586556D01*
X126396544Y-81586558D01*
X126390459Y-81588465D01*
X126314713Y-81630452D01*
X126225729Y-81679777D01*
X126225726Y-81679779D01*
X126220150Y-81682870D01*
X126215309Y-81687019D01*
X126215305Y-81687022D01*
X126152311Y-81741015D01*
X126072302Y-81809591D01*
X125952954Y-81963453D01*
X125950138Y-81969176D01*
X125950136Y-81969179D01*
X125898210Y-82074708D01*
X125866982Y-82138171D01*
X125865373Y-82144349D01*
X125865372Y-82144351D01*
X125820263Y-82317529D01*
X125817898Y-82326607D01*
X125814896Y-82383891D01*
X125808322Y-82509338D01*
X125807707Y-82521064D01*
X120556164Y-82521064D01*
X120593261Y-82493261D01*
X120680615Y-82376705D01*
X120731745Y-82240316D01*
X120738500Y-82178134D01*
X120738500Y-80381866D01*
X120731745Y-80319684D01*
X120680615Y-80183295D01*
X120654013Y-80147800D01*
X120606996Y-80085065D01*
X120582148Y-80018558D01*
X120597201Y-79949176D01*
X120647375Y-79898946D01*
X120707822Y-79883500D01*
X144145500Y-79883500D01*
X144213621Y-79903502D01*
G37*
G04 #@! TD.AperFunction*
G04 #@! TA.AperFunction,Conductor*
G36*
X117036121Y-83586002D02*
G01*
X117082614Y-83639658D01*
X117094000Y-83692000D01*
X117094000Y-104268000D01*
X117073998Y-104336121D01*
X117020342Y-104382614D01*
X116968000Y-104394000D01*
X116712000Y-104394000D01*
X116643879Y-104373998D01*
X116597386Y-104320342D01*
X116586000Y-104268000D01*
X116586000Y-83692000D01*
X116606002Y-83623879D01*
X116659658Y-83577386D01*
X116712000Y-83566000D01*
X116968000Y-83566000D01*
X117036121Y-83586002D01*
G37*
G04 #@! TD.AperFunction*
G04 #@! TA.AperFunction,Conductor*
G36*
X139782026Y-93385144D02*
G01*
X139809875Y-93416994D01*
X139869987Y-93515088D01*
X140016250Y-93683938D01*
X140188126Y-93826632D01*
X140258595Y-93867811D01*
X140261445Y-93869476D01*
X140310169Y-93921114D01*
X140323240Y-93990897D01*
X140296509Y-94056669D01*
X140256055Y-94090027D01*
X140243607Y-94096507D01*
X140239474Y-94099610D01*
X140239471Y-94099612D01*
X140069100Y-94227530D01*
X140064965Y-94230635D01*
X139910629Y-94392138D01*
X139837693Y-94499059D01*
X139802898Y-94550066D01*
X139747987Y-94595069D01*
X139677462Y-94603240D01*
X139613715Y-94571986D01*
X139593017Y-94547501D01*
X139563062Y-94501197D01*
X139552377Y-94491995D01*
X139542812Y-94496398D01*
X138802022Y-95237188D01*
X138794408Y-95251132D01*
X138794539Y-95252965D01*
X138798790Y-95259580D01*
X139540474Y-96001264D01*
X139552484Y-96007823D01*
X139564223Y-95998855D01*
X139598022Y-95951819D01*
X139599277Y-95952721D01*
X139646391Y-95909355D01*
X139716330Y-95897148D01*
X139781767Y-95924691D01*
X139809580Y-95956513D01*
X139867287Y-96050683D01*
X139867291Y-96050688D01*
X139869987Y-96055088D01*
X140016250Y-96223938D01*
X140188126Y-96366632D01*
X140199063Y-96373023D01*
X140261445Y-96409476D01*
X140310169Y-96461114D01*
X140323240Y-96530897D01*
X140296509Y-96596669D01*
X140256055Y-96630027D01*
X140243607Y-96636507D01*
X140239474Y-96639610D01*
X140239471Y-96639612D01*
X140069100Y-96767530D01*
X140064965Y-96770635D01*
X139910629Y-96932138D01*
X139803201Y-97089621D01*
X139748293Y-97134621D01*
X139677768Y-97142792D01*
X139614021Y-97111538D01*
X139593324Y-97087054D01*
X139512822Y-96962617D01*
X139512820Y-96962614D01*
X139510014Y-96958277D01*
X139359670Y-96793051D01*
X139355619Y-96789852D01*
X139355615Y-96789848D01*
X139188414Y-96657800D01*
X139188410Y-96657798D01*
X139184359Y-96654598D01*
X139142569Y-96631529D01*
X139092598Y-96581097D01*
X139077826Y-96511654D01*
X139102942Y-96445248D01*
X139130293Y-96418642D01*
X139179247Y-96383723D01*
X139187648Y-96373023D01*
X139180660Y-96359870D01*
X138442812Y-95622022D01*
X138428868Y-95614408D01*
X138427035Y-95614539D01*
X138420420Y-95618790D01*
X137676737Y-96362473D01*
X137669977Y-96374853D01*
X137675258Y-96381907D01*
X137721969Y-96409203D01*
X137770693Y-96460841D01*
X137783764Y-96530624D01*
X137757033Y-96596396D01*
X137716584Y-96629752D01*
X137703607Y-96636507D01*
X137699474Y-96639610D01*
X137699471Y-96639612D01*
X137529100Y-96767530D01*
X137524965Y-96770635D01*
X137370629Y-96932138D01*
X137257465Y-97098031D01*
X137256460Y-97099504D01*
X137201549Y-97144507D01*
X137152372Y-97154500D01*
X137075291Y-97154500D01*
X137007170Y-97134498D01*
X136998080Y-97128070D01*
X136982067Y-97115650D01*
X136941334Y-97098024D01*
X136930686Y-97092807D01*
X136919058Y-97086415D01*
X136891803Y-97071431D01*
X136884128Y-97069460D01*
X136884122Y-97069458D01*
X136872089Y-97066369D01*
X136853387Y-97059966D01*
X136834708Y-97051883D01*
X136800872Y-97046524D01*
X136790873Y-97044940D01*
X136779260Y-97042535D01*
X136736282Y-97031500D01*
X136715935Y-97031500D01*
X136696224Y-97029949D01*
X136683950Y-97028005D01*
X136676121Y-97026765D01*
X136668229Y-97027511D01*
X136631944Y-97030941D01*
X136620086Y-97031500D01*
X130329908Y-97031500D01*
X130261787Y-97011498D01*
X130215294Y-96957842D01*
X130205190Y-96887568D01*
X130209575Y-96868136D01*
X130219321Y-96836751D01*
X130251607Y-96732773D01*
X130264682Y-96634124D01*
X130281198Y-96509511D01*
X130281198Y-96509506D01*
X130281898Y-96504226D01*
X130280642Y-96470755D01*
X130274012Y-96294171D01*
X130273249Y-96273842D01*
X130242065Y-96125219D01*
X130247652Y-96054444D01*
X130276285Y-96010251D01*
X130808631Y-95477905D01*
X130870943Y-95443879D01*
X130897726Y-95441000D01*
X133067401Y-95441000D01*
X133075971Y-95441292D01*
X133125277Y-95444654D01*
X133125281Y-95444654D01*
X133132852Y-95445170D01*
X133140328Y-95443865D01*
X133140332Y-95443865D01*
X133194924Y-95434337D01*
X133201449Y-95433374D01*
X133256418Y-95426722D01*
X133256420Y-95426721D01*
X133263960Y-95425809D01*
X133271062Y-95423125D01*
X133274500Y-95422281D01*
X133288623Y-95418417D01*
X133292034Y-95417387D01*
X133299517Y-95416081D01*
X133357197Y-95390761D01*
X133363304Y-95388270D01*
X133415117Y-95368691D01*
X133415118Y-95368690D01*
X133422222Y-95366006D01*
X133428477Y-95361707D01*
X133431618Y-95360065D01*
X133444372Y-95352967D01*
X133447478Y-95351130D01*
X133454433Y-95348077D01*
X133460460Y-95343452D01*
X133460464Y-95343450D01*
X133504402Y-95309735D01*
X133509720Y-95305871D01*
X133561652Y-95270179D01*
X133571096Y-95259580D01*
X133602518Y-95224312D01*
X133604830Y-95221863D01*
X137068050Y-95221863D01*
X137080309Y-95434477D01*
X137081745Y-95444697D01*
X137128565Y-95652446D01*
X137131645Y-95662275D01*
X137211770Y-95859603D01*
X137216413Y-95868794D01*
X137296460Y-95999420D01*
X137306916Y-96008880D01*
X137315694Y-96005096D01*
X138057978Y-95262812D01*
X138065592Y-95248868D01*
X138065461Y-95247035D01*
X138061210Y-95240420D01*
X137319849Y-94499059D01*
X137308313Y-94492759D01*
X137296031Y-94502382D01*
X137248089Y-94572662D01*
X137243004Y-94581613D01*
X137153338Y-94774783D01*
X137149775Y-94784470D01*
X137092864Y-94989681D01*
X137090933Y-94999800D01*
X137068302Y-95211574D01*
X137068050Y-95221863D01*
X133604830Y-95221863D01*
X133607499Y-95219036D01*
X135380630Y-93445905D01*
X135442942Y-93411879D01*
X135469725Y-93409000D01*
X137194412Y-93409000D01*
X137262533Y-93429002D01*
X137301844Y-93469165D01*
X137327285Y-93510680D01*
X137327290Y-93510686D01*
X137329987Y-93515088D01*
X137476250Y-93683938D01*
X137648126Y-93826632D01*
X137721445Y-93869476D01*
X137721955Y-93869774D01*
X137770679Y-93921412D01*
X137783750Y-93991195D01*
X137757019Y-94056967D01*
X137716562Y-94090327D01*
X137708460Y-94094544D01*
X137699734Y-94100039D01*
X137679677Y-94115099D01*
X137671223Y-94126427D01*
X137677968Y-94138758D01*
X138417188Y-94877978D01*
X138431132Y-94885592D01*
X138432965Y-94885461D01*
X138439580Y-94881210D01*
X139183389Y-94137401D01*
X139190410Y-94124544D01*
X139183611Y-94115213D01*
X139179559Y-94112521D01*
X139142602Y-94092120D01*
X139092631Y-94041687D01*
X139077859Y-93972245D01*
X139102975Y-93905839D01*
X139130327Y-93879232D01*
X139153797Y-93862491D01*
X139309860Y-93751173D01*
X139468096Y-93593489D01*
X139598453Y-93412077D01*
X139599776Y-93413028D01*
X139646645Y-93369857D01*
X139716580Y-93357625D01*
X139782026Y-93385144D01*
G37*
G04 #@! TD.AperFunction*
G04 #@! TA.AperFunction,Conductor*
G36*
X123043396Y-92159002D02*
G01*
X123064370Y-92175905D01*
X127274852Y-96386387D01*
X127308878Y-96448699D01*
X127311668Y-96470753D01*
X127316751Y-96606158D01*
X127317846Y-96611377D01*
X127322619Y-96634124D01*
X127364093Y-96831791D01*
X127366052Y-96836751D01*
X127374925Y-96859220D01*
X127381342Y-96929926D01*
X127348513Y-96992877D01*
X127286862Y-97028086D01*
X127257732Y-97031500D01*
X120852020Y-97031500D01*
X120840791Y-97030971D01*
X120833281Y-97029292D01*
X120825355Y-97029541D01*
X120825354Y-97029541D01*
X120818927Y-97029743D01*
X120750212Y-97011890D01*
X120702057Y-96959721D01*
X120689751Y-96889799D01*
X120694410Y-96867183D01*
X120712370Y-96808069D01*
X120741529Y-96586590D01*
X120742890Y-96530897D01*
X120743074Y-96523365D01*
X120743074Y-96523361D01*
X120743156Y-96520000D01*
X120724852Y-96297361D01*
X120670431Y-96080702D01*
X120581354Y-95875840D01*
X120460014Y-95688277D01*
X120309670Y-95523051D01*
X120305619Y-95519852D01*
X120305615Y-95519848D01*
X120138414Y-95387800D01*
X120138410Y-95387798D01*
X120134359Y-95384598D01*
X120093053Y-95361796D01*
X120043084Y-95311364D01*
X120028312Y-95241921D01*
X120053428Y-95175516D01*
X120080780Y-95148909D01*
X120142166Y-95105123D01*
X120259860Y-95021173D01*
X120418096Y-94863489D01*
X120548453Y-94682077D01*
X120561995Y-94654678D01*
X120645136Y-94486453D01*
X120645137Y-94486451D01*
X120647430Y-94481811D01*
X120712370Y-94268069D01*
X120741529Y-94046590D01*
X120741657Y-94041364D01*
X120743074Y-93983365D01*
X120743074Y-93983361D01*
X120743156Y-93980000D01*
X120724852Y-93757361D01*
X120670431Y-93540702D01*
X120581354Y-93335840D01*
X120487144Y-93190213D01*
X120462822Y-93152617D01*
X120462820Y-93152614D01*
X120460014Y-93148277D01*
X120309670Y-92983051D01*
X120305619Y-92979852D01*
X120305615Y-92979848D01*
X120138414Y-92847800D01*
X120138410Y-92847798D01*
X120134359Y-92844598D01*
X120093053Y-92821796D01*
X120043084Y-92771364D01*
X120028312Y-92701921D01*
X120053428Y-92635516D01*
X120080780Y-92608909D01*
X120124603Y-92577650D01*
X120259860Y-92481173D01*
X120418096Y-92323489D01*
X120512958Y-92191474D01*
X120568953Y-92147826D01*
X120615281Y-92139000D01*
X122975275Y-92139000D01*
X123043396Y-92159002D01*
G37*
G04 #@! TD.AperFunction*
G04 #@! TA.AperFunction,Conductor*
G36*
X120675828Y-87126883D02*
G01*
X120676203Y-87126466D01*
X120677818Y-87127920D01*
X120678225Y-87128132D01*
X120679262Y-87129220D01*
X120681845Y-87131545D01*
X120686842Y-87137274D01*
X120738386Y-87173499D01*
X120743671Y-87177425D01*
X120787259Y-87211602D01*
X120787263Y-87211604D01*
X120793240Y-87216291D01*
X120800161Y-87219416D01*
X120803226Y-87221272D01*
X120815913Y-87228508D01*
X120819046Y-87230188D01*
X120825261Y-87234556D01*
X120883987Y-87257452D01*
X120890028Y-87259992D01*
X120947435Y-87285912D01*
X120954908Y-87287297D01*
X120958323Y-87288367D01*
X120972358Y-87292366D01*
X120975813Y-87293253D01*
X120982889Y-87296012D01*
X121045353Y-87304235D01*
X121051845Y-87305263D01*
X121113787Y-87316744D01*
X121121367Y-87316307D01*
X121121368Y-87316307D01*
X121175094Y-87313209D01*
X121182347Y-87313000D01*
X124245275Y-87313000D01*
X124313396Y-87333002D01*
X124334370Y-87349905D01*
X125088503Y-88104038D01*
X125094356Y-88110303D01*
X125131842Y-88153274D01*
X125138056Y-88157641D01*
X125183378Y-88189494D01*
X125188674Y-88193427D01*
X125232263Y-88227606D01*
X125232266Y-88227608D01*
X125238240Y-88232292D01*
X125245164Y-88235418D01*
X125248199Y-88237256D01*
X125260898Y-88244500D01*
X125264046Y-88246188D01*
X125270261Y-88250556D01*
X125328950Y-88273438D01*
X125334995Y-88275978D01*
X125392435Y-88301913D01*
X125399908Y-88303298D01*
X125403326Y-88304369D01*
X125417315Y-88308354D01*
X125420807Y-88309251D01*
X125427889Y-88312012D01*
X125435422Y-88313004D01*
X125435423Y-88313004D01*
X125490330Y-88320233D01*
X125496843Y-88321265D01*
X125551318Y-88331361D01*
X125551320Y-88331361D01*
X125558787Y-88332745D01*
X125566367Y-88332308D01*
X125566368Y-88332308D01*
X125620112Y-88329209D01*
X125627365Y-88329000D01*
X137194412Y-88329000D01*
X137262533Y-88349002D01*
X137301844Y-88389165D01*
X137327285Y-88430680D01*
X137327290Y-88430686D01*
X137329987Y-88435088D01*
X137476250Y-88603938D01*
X137648126Y-88746632D01*
X137718595Y-88787811D01*
X137721445Y-88789476D01*
X137770169Y-88841114D01*
X137783240Y-88910897D01*
X137756509Y-88976669D01*
X137716055Y-89010027D01*
X137703607Y-89016507D01*
X137699474Y-89019610D01*
X137699471Y-89019612D01*
X137529100Y-89147530D01*
X137524965Y-89150635D01*
X137370629Y-89312138D01*
X137299775Y-89416007D01*
X137244866Y-89461007D01*
X137195689Y-89471000D01*
X136553599Y-89471000D01*
X136545029Y-89470708D01*
X136495723Y-89467346D01*
X136495719Y-89467346D01*
X136488148Y-89466830D01*
X136480672Y-89468135D01*
X136480668Y-89468135D01*
X136426076Y-89477663D01*
X136419551Y-89478626D01*
X136364582Y-89485278D01*
X136364580Y-89485279D01*
X136357040Y-89486191D01*
X136349938Y-89488875D01*
X136346500Y-89489719D01*
X136332377Y-89493583D01*
X136328966Y-89494613D01*
X136321483Y-89495919D01*
X136314528Y-89498972D01*
X136263802Y-89521239D01*
X136257696Y-89523730D01*
X136198778Y-89545994D01*
X136192523Y-89550293D01*
X136189382Y-89551935D01*
X136176628Y-89559033D01*
X136173522Y-89560870D01*
X136166567Y-89563923D01*
X136160540Y-89568548D01*
X136160536Y-89568550D01*
X136116598Y-89602265D01*
X136111280Y-89606129D01*
X136059348Y-89641821D01*
X136054296Y-89647491D01*
X136054295Y-89647492D01*
X136018482Y-89687688D01*
X136013501Y-89692964D01*
X132502370Y-93204095D01*
X132440058Y-93238121D01*
X132413275Y-93241000D01*
X130155849Y-93241000D01*
X130087728Y-93220998D01*
X130048130Y-93180366D01*
X130031479Y-93152926D01*
X130021623Y-93136683D01*
X130018126Y-93132653D01*
X129874023Y-92966588D01*
X129874021Y-92966586D01*
X129870523Y-92962555D01*
X129834880Y-92933330D01*
X129794886Y-92874671D01*
X129792954Y-92803701D01*
X129829698Y-92742952D01*
X129848468Y-92728752D01*
X129988120Y-92642332D01*
X129994348Y-92638478D01*
X130119305Y-92513303D01*
X130158449Y-92449800D01*
X130208275Y-92368968D01*
X130208276Y-92368966D01*
X130212115Y-92362738D01*
X130252597Y-92240688D01*
X130265632Y-92201389D01*
X130265632Y-92201387D01*
X130267797Y-92194861D01*
X130278500Y-92090400D01*
X130278500Y-90789600D01*
X130275635Y-90761986D01*
X130268238Y-90690692D01*
X130268237Y-90690688D01*
X130267526Y-90683834D01*
X130259252Y-90659032D01*
X130213868Y-90523002D01*
X130211550Y-90516054D01*
X130118478Y-90365652D01*
X129993303Y-90240695D01*
X129978255Y-90231419D01*
X129848968Y-90151725D01*
X129848966Y-90151724D01*
X129842738Y-90147885D01*
X129731876Y-90111114D01*
X129681389Y-90094368D01*
X129681387Y-90094368D01*
X129674861Y-90092203D01*
X129668025Y-90091503D01*
X129668022Y-90091502D01*
X129624969Y-90087091D01*
X129570400Y-90081500D01*
X128019600Y-90081500D01*
X128016354Y-90081837D01*
X128016350Y-90081837D01*
X127920692Y-90091762D01*
X127920688Y-90091763D01*
X127913834Y-90092474D01*
X127907298Y-90094655D01*
X127907296Y-90094655D01*
X127857963Y-90111114D01*
X127746054Y-90148450D01*
X127595652Y-90241522D01*
X127470695Y-90366697D01*
X127466855Y-90372927D01*
X127466854Y-90372928D01*
X127423630Y-90443051D01*
X127377885Y-90517262D01*
X127375581Y-90524209D01*
X127326624Y-90671811D01*
X127322203Y-90685139D01*
X127321503Y-90691975D01*
X127321502Y-90691978D01*
X127318529Y-90720998D01*
X127311500Y-90789600D01*
X127311500Y-92090400D01*
X127311837Y-92093646D01*
X127311837Y-92093650D01*
X127320372Y-92175905D01*
X127322474Y-92196166D01*
X127324655Y-92202702D01*
X127324655Y-92202704D01*
X127367128Y-92330009D01*
X127378450Y-92363946D01*
X127471522Y-92514348D01*
X127596697Y-92639305D01*
X127742340Y-92729081D01*
X127789832Y-92781852D01*
X127801256Y-92851924D01*
X127772982Y-92917048D01*
X127763195Y-92927510D01*
X127648865Y-93036576D01*
X127577382Y-93132653D01*
X127534556Y-93190213D01*
X127477846Y-93232926D01*
X127433467Y-93241000D01*
X127428726Y-93241000D01*
X127360605Y-93220998D01*
X127339631Y-93204095D01*
X122561497Y-88425962D01*
X122555643Y-88419696D01*
X122523152Y-88382451D01*
X122518158Y-88376726D01*
X122466622Y-88340506D01*
X122461326Y-88336573D01*
X122417737Y-88302394D01*
X122417734Y-88302392D01*
X122411760Y-88297708D01*
X122404836Y-88294582D01*
X122401801Y-88292744D01*
X122389102Y-88285500D01*
X122385954Y-88283812D01*
X122379739Y-88279444D01*
X122321050Y-88256562D01*
X122315005Y-88254022D01*
X122257565Y-88228087D01*
X122250092Y-88226702D01*
X122246674Y-88225631D01*
X122232685Y-88221646D01*
X122229193Y-88220749D01*
X122222111Y-88217988D01*
X122214578Y-88216996D01*
X122214577Y-88216996D01*
X122159670Y-88209767D01*
X122153157Y-88208735D01*
X122098682Y-88198639D01*
X122098680Y-88198639D01*
X122091213Y-88197255D01*
X122083633Y-88197692D01*
X122083632Y-88197692D01*
X122029888Y-88200791D01*
X122022635Y-88201000D01*
X120614431Y-88201000D01*
X120546310Y-88180998D01*
X120508639Y-88143440D01*
X120462822Y-88072617D01*
X120462820Y-88072614D01*
X120460014Y-88068277D01*
X120309670Y-87903051D01*
X120305619Y-87899852D01*
X120305615Y-87899848D01*
X120138414Y-87767800D01*
X120138410Y-87767798D01*
X120134359Y-87764598D01*
X120093053Y-87741796D01*
X120043084Y-87691364D01*
X120028312Y-87621921D01*
X120053428Y-87555516D01*
X120080780Y-87528909D01*
X120124603Y-87497650D01*
X120259860Y-87401173D01*
X120311308Y-87349905D01*
X120414435Y-87247137D01*
X120418096Y-87243489D01*
X120434061Y-87221272D01*
X120454896Y-87192276D01*
X120488563Y-87145423D01*
X120544558Y-87101775D01*
X120615261Y-87095329D01*
X120675828Y-87126883D01*
G37*
G04 #@! TD.AperFunction*
G04 #@! TA.AperFunction,Conductor*
G36*
X118191751Y-87034678D02*
G01*
X118219579Y-87066511D01*
X118279987Y-87165088D01*
X118426250Y-87333938D01*
X118598126Y-87476632D01*
X118640905Y-87501630D01*
X118671445Y-87519476D01*
X118720169Y-87571114D01*
X118733240Y-87640897D01*
X118706509Y-87706669D01*
X118666055Y-87740027D01*
X118653607Y-87746507D01*
X118649474Y-87749610D01*
X118649471Y-87749612D01*
X118625247Y-87767800D01*
X118474965Y-87880635D01*
X118320629Y-88042138D01*
X118214816Y-88197255D01*
X118212898Y-88200066D01*
X118157987Y-88245069D01*
X118087462Y-88253240D01*
X118023715Y-88221986D01*
X118003018Y-88197502D01*
X117922426Y-88072926D01*
X117916136Y-88064757D01*
X117772806Y-87907240D01*
X117765273Y-87900215D01*
X117598139Y-87768222D01*
X117589552Y-87762517D01*
X117552116Y-87741851D01*
X117502146Y-87691419D01*
X117487374Y-87621976D01*
X117512490Y-87555571D01*
X117539842Y-87528964D01*
X117715327Y-87403792D01*
X117723200Y-87397139D01*
X117874052Y-87246812D01*
X117880730Y-87238965D01*
X118008022Y-87061819D01*
X118009279Y-87062722D01*
X118056373Y-87019362D01*
X118126311Y-87007145D01*
X118191751Y-87034678D01*
G37*
G04 #@! TD.AperFunction*
M02*
