%TF.GenerationSoftware,KiCad,Pcbnew,(6.0.9)*%
%TF.CreationDate,2022-12-08T09:02:50+01:00*%
%TF.ProjectId,STLink-Adapter,53544c69-6e6b-42d4-9164-61707465722e,rev?*%
%TF.SameCoordinates,Original*%
%TF.FileFunction,Drillmap*%
%TF.FilePolarity,Positive*%
%FSLAX45Y45*%
G04 Gerber Fmt 4.5, Leading zero omitted, Abs format (unit mm)*
G04 Created by KiCad (PCBNEW (6.0.9)) date 2022-12-08 09:02:50*
%MOMM*%
%LPD*%
G01*
G04 APERTURE LIST*
%ADD10C,0.100000*%
%ADD11C,0.200000*%
%ADD12C,0.090000*%
G04 APERTURE END LIST*
D10*
X14478000Y-7937500D02*
X14478000Y-10604500D01*
X11557000Y-7937500D02*
X14478000Y-7937500D01*
X11557000Y-7937500D02*
X11557000Y-10604500D01*
X14478000Y-10604500D02*
X11557000Y-10604500D01*
D11*
D12*
X12632000Y-8202400D02*
X12722000Y-8292400D01*
X12722000Y-8202400D02*
X12632000Y-8292400D01*
X12932000Y-8202400D02*
X13022000Y-8292400D01*
X13022000Y-8202400D02*
X12932000Y-8292400D01*
D11*
X11809619Y-10919976D02*
X11809619Y-10719976D01*
X11857238Y-10719976D01*
X11885809Y-10729500D01*
X11904857Y-10748548D01*
X11914381Y-10767595D01*
X11923905Y-10805690D01*
X11923905Y-10834262D01*
X11914381Y-10872357D01*
X11904857Y-10891405D01*
X11885809Y-10910452D01*
X11857238Y-10919976D01*
X11809619Y-10919976D01*
X12009619Y-10919976D02*
X12009619Y-10786643D01*
X12009619Y-10824738D02*
X12019143Y-10805690D01*
X12028667Y-10796167D01*
X12047714Y-10786643D01*
X12066762Y-10786643D01*
X12133428Y-10919976D02*
X12133428Y-10786643D01*
X12133428Y-10719976D02*
X12123905Y-10729500D01*
X12133428Y-10739024D01*
X12142952Y-10729500D01*
X12133428Y-10719976D01*
X12133428Y-10739024D01*
X12257238Y-10919976D02*
X12238190Y-10910452D01*
X12228667Y-10891405D01*
X12228667Y-10719976D01*
X12362000Y-10919976D02*
X12342952Y-10910452D01*
X12333428Y-10891405D01*
X12333428Y-10719976D01*
X12590571Y-10919976D02*
X12590571Y-10719976D01*
X12657238Y-10862833D01*
X12723905Y-10719976D01*
X12723905Y-10919976D01*
X12904857Y-10919976D02*
X12904857Y-10815214D01*
X12895333Y-10796167D01*
X12876286Y-10786643D01*
X12838190Y-10786643D01*
X12819143Y-10796167D01*
X12904857Y-10910452D02*
X12885809Y-10919976D01*
X12838190Y-10919976D01*
X12819143Y-10910452D01*
X12809619Y-10891405D01*
X12809619Y-10872357D01*
X12819143Y-10853310D01*
X12838190Y-10843786D01*
X12885809Y-10843786D01*
X12904857Y-10834262D01*
X13000095Y-10786643D02*
X13000095Y-10986643D01*
X13000095Y-10796167D02*
X13019143Y-10786643D01*
X13057238Y-10786643D01*
X13076286Y-10796167D01*
X13085809Y-10805690D01*
X13095333Y-10824738D01*
X13095333Y-10881881D01*
X13085809Y-10900929D01*
X13076286Y-10910452D01*
X13057238Y-10919976D01*
X13019143Y-10919976D01*
X13000095Y-10910452D01*
X13181048Y-10900929D02*
X13190571Y-10910452D01*
X13181048Y-10919976D01*
X13171524Y-10910452D01*
X13181048Y-10900929D01*
X13181048Y-10919976D01*
X13181048Y-10796167D02*
X13190571Y-10805690D01*
X13181048Y-10815214D01*
X13171524Y-10805690D01*
X13181048Y-10796167D01*
X13181048Y-10815214D01*
D12*
X11462000Y-11204500D02*
X11552000Y-11294500D01*
X11552000Y-11204500D02*
X11462000Y-11294500D01*
D11*
X11847714Y-11139976D02*
X11866762Y-11139976D01*
X11885809Y-11149500D01*
X11895333Y-11159024D01*
X11904857Y-11178071D01*
X11914381Y-11216167D01*
X11914381Y-11263786D01*
X11904857Y-11301881D01*
X11895333Y-11320928D01*
X11885809Y-11330452D01*
X11866762Y-11339976D01*
X11847714Y-11339976D01*
X11828667Y-11330452D01*
X11819143Y-11320928D01*
X11809619Y-11301881D01*
X11800095Y-11263786D01*
X11800095Y-11216167D01*
X11809619Y-11178071D01*
X11819143Y-11159024D01*
X11828667Y-11149500D01*
X11847714Y-11139976D01*
X12000095Y-11320928D02*
X12009619Y-11330452D01*
X12000095Y-11339976D01*
X11990571Y-11330452D01*
X12000095Y-11320928D01*
X12000095Y-11339976D01*
X12104857Y-11339976D02*
X12142952Y-11339976D01*
X12162000Y-11330452D01*
X12171524Y-11320928D01*
X12190571Y-11292357D01*
X12200095Y-11254262D01*
X12200095Y-11178071D01*
X12190571Y-11159024D01*
X12181048Y-11149500D01*
X12162000Y-11139976D01*
X12123905Y-11139976D01*
X12104857Y-11149500D01*
X12095333Y-11159024D01*
X12085809Y-11178071D01*
X12085809Y-11225690D01*
X12095333Y-11244738D01*
X12104857Y-11254262D01*
X12123905Y-11263786D01*
X12162000Y-11263786D01*
X12181048Y-11254262D01*
X12190571Y-11244738D01*
X12200095Y-11225690D01*
X12323905Y-11139976D02*
X12342952Y-11139976D01*
X12362000Y-11149500D01*
X12371524Y-11159024D01*
X12381048Y-11178071D01*
X12390571Y-11216167D01*
X12390571Y-11263786D01*
X12381048Y-11301881D01*
X12371524Y-11320928D01*
X12362000Y-11330452D01*
X12342952Y-11339976D01*
X12323905Y-11339976D01*
X12304857Y-11330452D01*
X12295333Y-11320928D01*
X12285809Y-11301881D01*
X12276286Y-11263786D01*
X12276286Y-11216167D01*
X12285809Y-11178071D01*
X12295333Y-11159024D01*
X12304857Y-11149500D01*
X12323905Y-11139976D01*
X12514381Y-11139976D02*
X12533428Y-11139976D01*
X12552476Y-11149500D01*
X12562000Y-11159024D01*
X12571524Y-11178071D01*
X12581048Y-11216167D01*
X12581048Y-11263786D01*
X12571524Y-11301881D01*
X12562000Y-11320928D01*
X12552476Y-11330452D01*
X12533428Y-11339976D01*
X12514381Y-11339976D01*
X12495333Y-11330452D01*
X12485809Y-11320928D01*
X12476286Y-11301881D01*
X12466762Y-11263786D01*
X12466762Y-11216167D01*
X12476286Y-11178071D01*
X12485809Y-11159024D01*
X12495333Y-11149500D01*
X12514381Y-11139976D01*
X12666762Y-11339976D02*
X12666762Y-11206643D01*
X12666762Y-11225690D02*
X12676286Y-11216167D01*
X12695333Y-11206643D01*
X12723905Y-11206643D01*
X12742952Y-11216167D01*
X12752476Y-11235214D01*
X12752476Y-11339976D01*
X12752476Y-11235214D02*
X12762000Y-11216167D01*
X12781048Y-11206643D01*
X12809619Y-11206643D01*
X12828667Y-11216167D01*
X12838190Y-11235214D01*
X12838190Y-11339976D01*
X12933428Y-11339976D02*
X12933428Y-11206643D01*
X12933428Y-11225690D02*
X12942952Y-11216167D01*
X12962000Y-11206643D01*
X12990571Y-11206643D01*
X13009619Y-11216167D01*
X13019143Y-11235214D01*
X13019143Y-11339976D01*
X13019143Y-11235214D02*
X13028667Y-11216167D01*
X13047714Y-11206643D01*
X13076286Y-11206643D01*
X13095333Y-11216167D01*
X13104857Y-11235214D01*
X13104857Y-11339976D01*
X13495333Y-11130452D02*
X13323905Y-11387595D01*
X13752476Y-11139976D02*
X13771524Y-11139976D01*
X13790571Y-11149500D01*
X13800095Y-11159024D01*
X13809619Y-11178071D01*
X13819143Y-11216167D01*
X13819143Y-11263786D01*
X13809619Y-11301881D01*
X13800095Y-11320928D01*
X13790571Y-11330452D01*
X13771524Y-11339976D01*
X13752476Y-11339976D01*
X13733428Y-11330452D01*
X13723905Y-11320928D01*
X13714381Y-11301881D01*
X13704857Y-11263786D01*
X13704857Y-11216167D01*
X13714381Y-11178071D01*
X13723905Y-11159024D01*
X13733428Y-11149500D01*
X13752476Y-11139976D01*
X13904857Y-11320928D02*
X13914381Y-11330452D01*
X13904857Y-11339976D01*
X13895333Y-11330452D01*
X13904857Y-11320928D01*
X13904857Y-11339976D01*
X14038190Y-11139976D02*
X14057238Y-11139976D01*
X14076286Y-11149500D01*
X14085809Y-11159024D01*
X14095333Y-11178071D01*
X14104857Y-11216167D01*
X14104857Y-11263786D01*
X14095333Y-11301881D01*
X14085809Y-11320928D01*
X14076286Y-11330452D01*
X14057238Y-11339976D01*
X14038190Y-11339976D01*
X14019143Y-11330452D01*
X14009619Y-11320928D01*
X14000095Y-11301881D01*
X13990571Y-11263786D01*
X13990571Y-11216167D01*
X14000095Y-11178071D01*
X14009619Y-11159024D01*
X14019143Y-11149500D01*
X14038190Y-11139976D01*
X14171524Y-11139976D02*
X14295333Y-11139976D01*
X14228667Y-11216167D01*
X14257238Y-11216167D01*
X14276286Y-11225690D01*
X14285809Y-11235214D01*
X14295333Y-11254262D01*
X14295333Y-11301881D01*
X14285809Y-11320928D01*
X14276286Y-11330452D01*
X14257238Y-11339976D01*
X14200095Y-11339976D01*
X14181048Y-11330452D01*
X14171524Y-11320928D01*
X14476286Y-11139976D02*
X14381048Y-11139976D01*
X14371524Y-11235214D01*
X14381048Y-11225690D01*
X14400095Y-11216167D01*
X14447714Y-11216167D01*
X14466762Y-11225690D01*
X14476286Y-11235214D01*
X14485809Y-11254262D01*
X14485809Y-11301881D01*
X14476286Y-11320928D01*
X14466762Y-11330452D01*
X14447714Y-11339976D01*
X14400095Y-11339976D01*
X14381048Y-11330452D01*
X14371524Y-11320928D01*
X14657238Y-11206643D02*
X14657238Y-11339976D01*
X14609619Y-11130452D02*
X14562000Y-11273309D01*
X14685809Y-11273309D01*
X14752476Y-11139976D02*
X14752476Y-11178071D01*
X14828667Y-11139976D02*
X14828667Y-11178071D01*
X15123905Y-11416167D02*
X15114381Y-11406643D01*
X15095333Y-11378071D01*
X15085809Y-11359024D01*
X15076286Y-11330452D01*
X15066762Y-11282833D01*
X15066762Y-11244738D01*
X15076286Y-11197119D01*
X15085809Y-11168548D01*
X15095333Y-11149500D01*
X15114381Y-11120929D01*
X15123905Y-11111405D01*
X15190571Y-11159024D02*
X15200095Y-11149500D01*
X15219143Y-11139976D01*
X15266762Y-11139976D01*
X15285809Y-11149500D01*
X15295333Y-11159024D01*
X15304857Y-11178071D01*
X15304857Y-11197119D01*
X15295333Y-11225690D01*
X15181048Y-11339976D01*
X15304857Y-11339976D01*
X15542952Y-11339976D02*
X15542952Y-11139976D01*
X15628667Y-11339976D02*
X15628667Y-11235214D01*
X15619143Y-11216167D01*
X15600095Y-11206643D01*
X15571524Y-11206643D01*
X15552476Y-11216167D01*
X15542952Y-11225690D01*
X15752476Y-11339976D02*
X15733428Y-11330452D01*
X15723905Y-11320928D01*
X15714381Y-11301881D01*
X15714381Y-11244738D01*
X15723905Y-11225690D01*
X15733428Y-11216167D01*
X15752476Y-11206643D01*
X15781048Y-11206643D01*
X15800095Y-11216167D01*
X15809619Y-11225690D01*
X15819143Y-11244738D01*
X15819143Y-11301881D01*
X15809619Y-11320928D01*
X15800095Y-11330452D01*
X15781048Y-11339976D01*
X15752476Y-11339976D01*
X15933428Y-11339976D02*
X15914381Y-11330452D01*
X15904857Y-11311405D01*
X15904857Y-11139976D01*
X16085809Y-11330452D02*
X16066762Y-11339976D01*
X16028667Y-11339976D01*
X16009619Y-11330452D01*
X16000095Y-11311405D01*
X16000095Y-11235214D01*
X16009619Y-11216167D01*
X16028667Y-11206643D01*
X16066762Y-11206643D01*
X16085809Y-11216167D01*
X16095333Y-11235214D01*
X16095333Y-11254262D01*
X16000095Y-11273309D01*
X16171524Y-11330452D02*
X16190571Y-11339976D01*
X16228667Y-11339976D01*
X16247714Y-11330452D01*
X16257238Y-11311405D01*
X16257238Y-11301881D01*
X16247714Y-11282833D01*
X16228667Y-11273309D01*
X16200095Y-11273309D01*
X16181048Y-11263786D01*
X16171524Y-11244738D01*
X16171524Y-11235214D01*
X16181048Y-11216167D01*
X16200095Y-11206643D01*
X16228667Y-11206643D01*
X16247714Y-11216167D01*
X16323905Y-11416167D02*
X16333428Y-11406643D01*
X16352476Y-11378071D01*
X16362000Y-11359024D01*
X16371524Y-11330452D01*
X16381048Y-11282833D01*
X16381048Y-11244738D01*
X16371524Y-11197119D01*
X16362000Y-11168548D01*
X16352476Y-11149500D01*
X16333428Y-11120929D01*
X16323905Y-11111405D01*
X16685809Y-11416167D02*
X16676286Y-11406643D01*
X16657238Y-11378071D01*
X16647714Y-11359024D01*
X16638190Y-11330452D01*
X16628667Y-11282833D01*
X16628667Y-11244738D01*
X16638190Y-11197119D01*
X16647714Y-11168548D01*
X16657238Y-11149500D01*
X16676286Y-11120929D01*
X16685809Y-11111405D01*
X16762000Y-11206643D02*
X16762000Y-11339976D01*
X16762000Y-11225690D02*
X16771524Y-11216167D01*
X16790571Y-11206643D01*
X16819143Y-11206643D01*
X16838190Y-11216167D01*
X16847714Y-11235214D01*
X16847714Y-11339976D01*
X16971524Y-11339976D02*
X16952476Y-11330452D01*
X16942952Y-11320928D01*
X16933429Y-11301881D01*
X16933429Y-11244738D01*
X16942952Y-11225690D01*
X16952476Y-11216167D01*
X16971524Y-11206643D01*
X17000095Y-11206643D01*
X17019143Y-11216167D01*
X17028667Y-11225690D01*
X17038190Y-11244738D01*
X17038190Y-11301881D01*
X17028667Y-11320928D01*
X17019143Y-11330452D01*
X17000095Y-11339976D01*
X16971524Y-11339976D01*
X17095333Y-11206643D02*
X17171524Y-11206643D01*
X17123905Y-11139976D02*
X17123905Y-11311405D01*
X17133429Y-11330452D01*
X17152476Y-11339976D01*
X17171524Y-11339976D01*
X17390571Y-11206643D02*
X17390571Y-11406643D01*
X17390571Y-11216167D02*
X17409619Y-11206643D01*
X17447714Y-11206643D01*
X17466762Y-11216167D01*
X17476286Y-11225690D01*
X17485810Y-11244738D01*
X17485810Y-11301881D01*
X17476286Y-11320928D01*
X17466762Y-11330452D01*
X17447714Y-11339976D01*
X17409619Y-11339976D01*
X17390571Y-11330452D01*
X17600095Y-11339976D02*
X17581048Y-11330452D01*
X17571524Y-11311405D01*
X17571524Y-11139976D01*
X17762000Y-11339976D02*
X17762000Y-11235214D01*
X17752476Y-11216167D01*
X17733429Y-11206643D01*
X17695333Y-11206643D01*
X17676286Y-11216167D01*
X17762000Y-11330452D02*
X17742952Y-11339976D01*
X17695333Y-11339976D01*
X17676286Y-11330452D01*
X17666762Y-11311405D01*
X17666762Y-11292357D01*
X17676286Y-11273309D01*
X17695333Y-11263786D01*
X17742952Y-11263786D01*
X17762000Y-11254262D01*
X17828667Y-11206643D02*
X17904857Y-11206643D01*
X17857238Y-11139976D02*
X17857238Y-11311405D01*
X17866762Y-11330452D01*
X17885810Y-11339976D01*
X17904857Y-11339976D01*
X18047714Y-11330452D02*
X18028667Y-11339976D01*
X17990571Y-11339976D01*
X17971524Y-11330452D01*
X17962000Y-11311405D01*
X17962000Y-11235214D01*
X17971524Y-11216167D01*
X17990571Y-11206643D01*
X18028667Y-11206643D01*
X18047714Y-11216167D01*
X18057238Y-11235214D01*
X18057238Y-11254262D01*
X17962000Y-11273309D01*
X18228667Y-11339976D02*
X18228667Y-11139976D01*
X18228667Y-11330452D02*
X18209619Y-11339976D01*
X18171524Y-11339976D01*
X18152476Y-11330452D01*
X18142952Y-11320928D01*
X18133429Y-11301881D01*
X18133429Y-11244738D01*
X18142952Y-11225690D01*
X18152476Y-11216167D01*
X18171524Y-11206643D01*
X18209619Y-11206643D01*
X18228667Y-11216167D01*
X18304857Y-11416167D02*
X18314381Y-11406643D01*
X18333429Y-11378071D01*
X18342952Y-11359024D01*
X18352476Y-11330452D01*
X18362000Y-11282833D01*
X18362000Y-11244738D01*
X18352476Y-11197119D01*
X18342952Y-11168548D01*
X18333429Y-11149500D01*
X18314381Y-11120929D01*
X18304857Y-11111405D01*
M02*
