M48
; DRILL file {KiCad (6.0.9)} date Thu Dec  8 09:02:46 2022
; FORMAT={-:-/ absolute / metric / decimal}
; #@! TF.CreationDate,2022-12-08T09:02:46+01:00
; #@! TF.GenerationSoftware,Kicad,Pcbnew,(6.0.9)
; #@! TF.FileFunction,Plated,1,2,PTH
FMAT,2
METRIC
; #@! TA.AperFunction,Plated,PTH,ViaDrill
T1C0.400
; #@! TA.AperFunction,Plated,PTH,ComponentDrill
T2C0.950
; #@! TA.AperFunction,Plated,PTH,ComponentDrill
T3C1.000
%
G90
G05
T1
X121.92Y-82.55
X122.555Y-95.25
X123.19Y-100.33
X126.111Y-86.614
X133.223Y-89.281
X133.35Y-82.55
T2
X128.795Y-91.44
X128.795Y-93.94
X128.795Y-96.44
X128.795Y-98.94
T3
X116.84Y-81.28
X116.84Y-83.82
X116.84Y-86.36
X116.84Y-88.9
X116.84Y-91.44
X116.84Y-93.98
X116.84Y-96.52
X116.84Y-99.06
X116.84Y-101.6
X116.84Y-104.14
X119.38Y-81.28
X119.38Y-83.82
X119.38Y-86.36
X119.38Y-88.9
X119.38Y-91.44
X119.38Y-93.98
X119.38Y-96.52
X119.38Y-99.06
X119.38Y-101.6
X119.38Y-104.14
X138.43Y-85.09
X138.43Y-87.63
X138.43Y-90.17
X138.43Y-92.71
X138.43Y-95.25
X138.43Y-97.79
X138.43Y-100.33
X140.97Y-85.09
X140.97Y-87.63
X140.97Y-90.17
X140.97Y-92.71
X140.97Y-95.25
X140.97Y-97.79
X140.97Y-100.33
T0
M30
