%FSLAX45Y45*%
G04 Gerber Fmt 4.5, Leading zero omitted, Abs format (unit mm)*
G04 Created by KiCad (PCBNEW (5.1.10)-1) date 2021-06-16 11:20:41*
%MOMM*%
%LPD*%
G01*
G04 APERTURE LIST*
%TA.AperFunction,Profile*%
%ADD10C,0.050000*%
%TD*%
%ADD11C,0.200000*%
%ADD12C,0.300000*%
G04 APERTURE END LIST*
D10*
X6426200Y-7975600D02*
X6477000Y-8255000D01*
X6540500Y-7975600D02*
X6426200Y-7975600D01*
X6540500Y-7797800D02*
X6540500Y-7975600D01*
X6400800Y-7797800D02*
X6540500Y-7797800D01*
X6426200Y-5994400D02*
X6477000Y-5715000D01*
X6540500Y-5994400D02*
X6426200Y-5994400D01*
X6540500Y-6172200D02*
X6540500Y-5994400D01*
X6400800Y-6172200D02*
X6540500Y-6172200D01*
X13639800Y-7975600D02*
X13589000Y-8255000D01*
X13525500Y-7975600D02*
X13639800Y-7975600D01*
X13525500Y-7797800D02*
X13525500Y-7975600D01*
X13665200Y-7797800D02*
X13525500Y-7797800D01*
X13589000Y-5715000D02*
X13639800Y-5994400D01*
X13525500Y-5994400D02*
X13639800Y-5994400D01*
X13525500Y-6172200D02*
X13525500Y-5994400D01*
X13665200Y-6172200D02*
X13525500Y-6172200D01*
X13716000Y-6426200D02*
X13665200Y-6172200D01*
X6604000Y-5588000D02*
X7620000Y-5334000D01*
X6477000Y-5715000D02*
X6604000Y-5588000D01*
X13589000Y-5715000D02*
X13462000Y-5588000D01*
X13462000Y-8382000D02*
X13589000Y-8255000D01*
X6604000Y-8382000D02*
X6477000Y-8255000D01*
X7620000Y-8636000D02*
X6604000Y-8382000D01*
X12573000Y-8636000D02*
X13462000Y-8382000D01*
X13462000Y-5588000D02*
X12573000Y-5334000D01*
X8890000Y-8890000D02*
X7620000Y-8636000D01*
X11176000Y-8890000D02*
X12573000Y-8636000D01*
X6400800Y-7797800D02*
X6350000Y-7543800D01*
X6350000Y-6426200D02*
X6400800Y-6172200D01*
X8890000Y-5080000D02*
X7620000Y-5334000D01*
X12573000Y-5334000D02*
X11176000Y-5080000D01*
X13665200Y-7797800D02*
X13716000Y-7543800D01*
X6350000Y-7543800D02*
X6350000Y-6426200D01*
X11176000Y-8890000D02*
X8890000Y-8890000D01*
X13716000Y-6426200D02*
X13716000Y-7543800D01*
X8890000Y-5080000D02*
X11176000Y-5080000D01*
D11*
X7058900Y-7963140D02*
X7088900Y-7993140D01*
X7088900Y-7963140D02*
X7058900Y-7993140D01*
X7058900Y-8110460D02*
X7088900Y-8140460D01*
X7088900Y-8110460D02*
X7058900Y-8140460D01*
X7137640Y-7691360D02*
X7167640Y-7721360D01*
X7167640Y-7691360D02*
X7137640Y-7721360D01*
X7345920Y-8367000D02*
X7375920Y-8397000D01*
X7375920Y-8367000D02*
X7345920Y-8397000D01*
X8074900Y-8113000D02*
X8104900Y-8143000D01*
X8104900Y-8113000D02*
X8074900Y-8143000D01*
X8233650Y-7643100D02*
X8263650Y-7673100D01*
X8263650Y-7643100D02*
X8233650Y-7673100D01*
X8240000Y-7478000D02*
X8270000Y-7508000D01*
X8270000Y-7478000D02*
X8240000Y-7508000D01*
X8697200Y-7401800D02*
X8727200Y-7431800D01*
X8727200Y-7401800D02*
X8697200Y-7431800D01*
X8859760Y-8113000D02*
X8889760Y-8143000D01*
X8889760Y-8113000D02*
X8859760Y-8143000D01*
X9078200Y-7973300D02*
X9108200Y-8003300D01*
X9108200Y-7973300D02*
X9078200Y-8003300D01*
X9230600Y-8252700D02*
X9260600Y-8282700D01*
X9260600Y-8252700D02*
X9230600Y-8282700D01*
X9294100Y-7224000D02*
X9324100Y-7254000D01*
X9324100Y-7224000D02*
X9294100Y-7254000D01*
X9319500Y-6716000D02*
X9349500Y-6746000D01*
X9349500Y-6716000D02*
X9319500Y-6746000D01*
X9383000Y-6970000D02*
X9413000Y-7000000D01*
X9413000Y-6970000D02*
X9383000Y-7000000D01*
X9383000Y-7122400D02*
X9413000Y-7152400D01*
X9413000Y-7122400D02*
X9383000Y-7152400D01*
X9576040Y-7767560D02*
X9606040Y-7797560D01*
X9606040Y-7767560D02*
X9576040Y-7797560D01*
X9941800Y-6055600D02*
X9971800Y-6085600D01*
X9971800Y-6055600D02*
X9941800Y-6085600D01*
X10138650Y-7789150D02*
X10168650Y-7819150D01*
X10168650Y-7789150D02*
X10138650Y-7819150D01*
X10208500Y-6843000D02*
X10238500Y-6873000D01*
X10238500Y-6843000D02*
X10208500Y-6873000D01*
X10233900Y-7097000D02*
X10263900Y-7127000D01*
X10263900Y-7097000D02*
X10233900Y-7127000D01*
X10259300Y-7224000D02*
X10289300Y-7254000D01*
X10289300Y-7224000D02*
X10259300Y-7254000D01*
X10399000Y-6068300D02*
X10429000Y-6098300D01*
X10429000Y-6068300D02*
X10399000Y-6098300D01*
X10449800Y-6423900D02*
X10479800Y-6453900D01*
X10479800Y-6423900D02*
X10449800Y-6453900D01*
X10462500Y-5979400D02*
X10492500Y-6009400D01*
X10492500Y-5979400D02*
X10462500Y-6009400D01*
X10526000Y-6970000D02*
X10556000Y-7000000D01*
X10556000Y-6970000D02*
X10526000Y-7000000D01*
X10526000Y-7224000D02*
X10556000Y-7254000D01*
X10556000Y-7224000D02*
X10526000Y-7254000D01*
X10551400Y-7401800D02*
X10581400Y-7431800D01*
X10581400Y-7401800D02*
X10551400Y-7431800D01*
X10551400Y-7503400D02*
X10581400Y-7533400D01*
X10581400Y-7503400D02*
X10551400Y-7533400D01*
X10576800Y-6474700D02*
X10606800Y-6504700D01*
X10606800Y-6474700D02*
X10576800Y-6504700D01*
X10589500Y-6792200D02*
X10619500Y-6822200D01*
X10619500Y-6792200D02*
X10589500Y-6822200D01*
X10627600Y-8506700D02*
X10657600Y-8536700D01*
X10657600Y-8506700D02*
X10627600Y-8536700D01*
X10665700Y-6436600D02*
X10695700Y-6466600D01*
X10695700Y-6436600D02*
X10665700Y-6466600D01*
X10683480Y-8115540D02*
X10713480Y-8145540D01*
X10713480Y-8115540D02*
X10683480Y-8145540D01*
X10691100Y-6987780D02*
X10721100Y-7017780D01*
X10721100Y-6987780D02*
X10691100Y-7017780D01*
X10716500Y-8443200D02*
X10746500Y-8473200D01*
X10746500Y-8443200D02*
X10716500Y-8473200D01*
X10881600Y-5814300D02*
X10911600Y-5844300D01*
X10911600Y-5814300D02*
X10881600Y-5844300D01*
X10884140Y-7498320D02*
X10914140Y-7528320D01*
X10914140Y-7498320D02*
X10884140Y-7528320D01*
X10896840Y-6652500D02*
X10926840Y-6682500D01*
X10926840Y-6652500D02*
X10896840Y-6682500D01*
X10937480Y-7970760D02*
X10967480Y-8000760D01*
X10967480Y-7970760D02*
X10937480Y-8000760D01*
X10951450Y-7624050D02*
X10981450Y-7654050D01*
X10981450Y-7624050D02*
X10951450Y-7654050D01*
X10995900Y-7147800D02*
X11025900Y-7177800D01*
X11025900Y-7147800D02*
X10995900Y-7177800D01*
X11021300Y-7566900D02*
X11051300Y-7596900D01*
X11051300Y-7566900D02*
X11021300Y-7596900D01*
X11072100Y-6931900D02*
X11102100Y-6961900D01*
X11102100Y-6931900D02*
X11072100Y-6961900D01*
X11078450Y-7947900D02*
X11108450Y-7977900D01*
X11108450Y-7947900D02*
X11078450Y-7977900D01*
X11089880Y-7485620D02*
X11119880Y-7515620D01*
X11119880Y-7485620D02*
X11089880Y-7515620D01*
X11115280Y-8661640D02*
X11145280Y-8691640D01*
X11145280Y-8661640D02*
X11115280Y-8691640D01*
X11122900Y-6855700D02*
X11152900Y-6885700D01*
X11152900Y-6855700D02*
X11122900Y-6885700D01*
X11199100Y-7541500D02*
X11229100Y-7571500D01*
X11229100Y-7541500D02*
X11199100Y-7571500D01*
X11205380Y-7094460D02*
X11235380Y-7124460D01*
X11235380Y-7094460D02*
X11205380Y-7124460D01*
X11280380Y-7094460D02*
X11310380Y-7124460D01*
X11310380Y-7094460D02*
X11280380Y-7124460D01*
X11282920Y-7546580D02*
X11312920Y-7576580D01*
X11312920Y-7546580D02*
X11282920Y-7576580D01*
X11338800Y-6964920D02*
X11368800Y-6994920D01*
X11368800Y-6964920D02*
X11338800Y-6994920D01*
X11338800Y-7447520D02*
X11368800Y-7477520D01*
X11368800Y-7447520D02*
X11338800Y-7477520D01*
X11338800Y-7681200D02*
X11368800Y-7711200D01*
X11368800Y-7681200D02*
X11338800Y-7711200D01*
X11364200Y-6081000D02*
X11394200Y-6111000D01*
X11394200Y-6081000D02*
X11364200Y-6111000D01*
X11415000Y-7594840D02*
X11445000Y-7624840D01*
X11445000Y-7594840D02*
X11415000Y-7624840D01*
X11415000Y-7681200D02*
X11445000Y-7711200D01*
X11445000Y-7681200D02*
X11415000Y-7711200D01*
X11422620Y-6944600D02*
X11452620Y-6974600D01*
X11452620Y-6944600D02*
X11422620Y-6974600D01*
X11463260Y-6835380D02*
X11493260Y-6865380D01*
X11493260Y-6835380D02*
X11463260Y-6865380D01*
X11465800Y-6322300D02*
X11495800Y-6352300D01*
X11495800Y-6322300D02*
X11465800Y-6352300D01*
X11475960Y-6210540D02*
X11505960Y-6240540D01*
X11505960Y-6210540D02*
X11475960Y-6240540D01*
X11493740Y-6622020D02*
X11523740Y-6652020D01*
X11523740Y-6622020D02*
X11493740Y-6652020D01*
X11504997Y-6705432D02*
X11534997Y-6735432D01*
X11534997Y-6705432D02*
X11504997Y-6735432D01*
X11529300Y-6881100D02*
X11559300Y-6911100D01*
X11559300Y-6881100D02*
X11529300Y-6911100D01*
X11592800Y-5738100D02*
X11622800Y-5768100D01*
X11622800Y-5738100D02*
X11592800Y-5768100D01*
X11620740Y-7364259D02*
X11650740Y-7394259D01*
X11650740Y-7364259D02*
X11620740Y-7394259D01*
X11643600Y-6970000D02*
X11673600Y-7000000D01*
X11673600Y-6970000D02*
X11643600Y-7000000D01*
X11669000Y-7681200D02*
X11699000Y-7711200D01*
X11699000Y-7681200D02*
X11669000Y-7711200D01*
X11669000Y-7757400D02*
X11699000Y-7787400D01*
X11699000Y-7757400D02*
X11669000Y-7787400D01*
X11691860Y-7531340D02*
X11721860Y-7561340D01*
X11721860Y-7531340D02*
X11691860Y-7561340D01*
X11856960Y-7467840D02*
X11886960Y-7497840D01*
X11886960Y-7467840D02*
X11856960Y-7497840D01*
X11981420Y-6693140D02*
X12011420Y-6723140D01*
X12011420Y-6693140D02*
X11981420Y-6723140D01*
X6842440Y-6446520D02*
G75*
G03*
X6842440Y-6446520I-20000J0D01*
G01*
X7424100Y-6045200D02*
G75*
G03*
X7424100Y-6045200I-20000J0D01*
G01*
X7426640Y-6769100D02*
G75*
G03*
X7426640Y-6769100I-20000J0D01*
G01*
X7811450Y-6489700D02*
G75*
G03*
X7811450Y-6489700I-20000J0D01*
G01*
X8503600Y-6858000D02*
G75*
G03*
X8503600Y-6858000I-20000J0D01*
G01*
X8656000Y-5600700D02*
G75*
G03*
X8656000Y-5600700I-20000J0D01*
G01*
X8656000Y-8636000D02*
G75*
G03*
X8656000Y-8636000I-20000J0D01*
G01*
X9189400Y-6235700D02*
G75*
G03*
X9189400Y-6235700I-20000J0D01*
G01*
X10662600Y-8768080D02*
G75*
G03*
X10662600Y-8768080I-20000J0D01*
G01*
X11632880Y-8549640D02*
G75*
G03*
X11632880Y-8549640I-20000J0D01*
G01*
X12224700Y-5588000D02*
G75*
G03*
X12224700Y-5588000I-20000J0D01*
G01*
X12720000Y-8255000D02*
G75*
G03*
X12720000Y-8255000I-20000J0D01*
G01*
X12770800Y-7310120D02*
G75*
G03*
X12770800Y-7310120I-20000J0D01*
G01*
X13344840Y-6156960D02*
G75*
G03*
X13344840Y-6156960I-20000J0D01*
G01*
X9969500Y-5284000D02*
X9969500Y-5384000D01*
X9919500Y-5334000D02*
X10019500Y-5334000D01*
X10223500Y-5284000D02*
X10223500Y-5384000D01*
X10173500Y-5334000D02*
X10273500Y-5334000D01*
X10477500Y-5284000D02*
X10477500Y-5384000D01*
X10427500Y-5334000D02*
X10527500Y-5334000D01*
X10731500Y-5284000D02*
X10731500Y-5384000D01*
X10681500Y-5334000D02*
X10781500Y-5334000D01*
X10985500Y-5284000D02*
X10985500Y-5384000D01*
X10935500Y-5334000D02*
X11035500Y-5334000D01*
X12192000Y-6173000D02*
X12192000Y-6273000D01*
X12142000Y-6223000D02*
X12242000Y-6223000D01*
X12192000Y-6427000D02*
X12192000Y-6527000D01*
X12142000Y-6477000D02*
X12242000Y-6477000D01*
X12192000Y-6681000D02*
X12192000Y-6781000D01*
X12142000Y-6731000D02*
X12242000Y-6731000D01*
X12192000Y-6935000D02*
X12192000Y-7035000D01*
X12142000Y-6985000D02*
X12242000Y-6985000D01*
X12192000Y-7189000D02*
X12192000Y-7289000D01*
X12142000Y-7239000D02*
X12242000Y-7239000D01*
X12192000Y-7443000D02*
X12192000Y-7543000D01*
X12142000Y-7493000D02*
X12242000Y-7493000D01*
X12192000Y-7697000D02*
X12192000Y-7797000D01*
X12142000Y-7747000D02*
X12242000Y-7747000D01*
X12446000Y-6173000D02*
X12446000Y-6273000D01*
X12396000Y-6223000D02*
X12496000Y-6223000D01*
X12446000Y-6427000D02*
X12446000Y-6527000D01*
X12396000Y-6477000D02*
X12496000Y-6477000D01*
X12446000Y-6681000D02*
X12446000Y-6781000D01*
X12396000Y-6731000D02*
X12496000Y-6731000D01*
X12446000Y-6935000D02*
X12446000Y-7035000D01*
X12396000Y-6985000D02*
X12496000Y-6985000D01*
X12446000Y-7189000D02*
X12446000Y-7289000D01*
X12396000Y-7239000D02*
X12496000Y-7239000D01*
X12446000Y-7443000D02*
X12446000Y-7543000D01*
X12396000Y-7493000D02*
X12496000Y-7493000D01*
X12446000Y-7697000D02*
X12446000Y-7797000D01*
X12396000Y-7747000D02*
X12496000Y-7747000D01*
X10011573Y-6646073D02*
X10011573Y-6561927D01*
X9927427Y-6561927D01*
X9927427Y-6646073D01*
X10011573Y-6646073D01*
X10011573Y-6900073D02*
X10011573Y-6815927D01*
X9927427Y-6815927D01*
X9927427Y-6900073D01*
X10011573Y-6900073D01*
X10011573Y-7154073D02*
X10011573Y-7069927D01*
X9927427Y-7069927D01*
X9927427Y-7154073D01*
X10011573Y-7154073D01*
X10011573Y-7408073D02*
X10011573Y-7323927D01*
X9927427Y-7323927D01*
X9927427Y-7408073D01*
X10011573Y-7408073D01*
D12*
X6633928Y-9358214D02*
X6633928Y-9058214D01*
X6705357Y-9058214D01*
X6748214Y-9072500D01*
X6776786Y-9101072D01*
X6791071Y-9129643D01*
X6805357Y-9186786D01*
X6805357Y-9229643D01*
X6791071Y-9286786D01*
X6776786Y-9315357D01*
X6748214Y-9343929D01*
X6705357Y-9358214D01*
X6633928Y-9358214D01*
X6933928Y-9358214D02*
X6933928Y-9158214D01*
X6933928Y-9215357D02*
X6948214Y-9186786D01*
X6962500Y-9172500D01*
X6991071Y-9158214D01*
X7019643Y-9158214D01*
X7119643Y-9358214D02*
X7119643Y-9158214D01*
X7119643Y-9058214D02*
X7105357Y-9072500D01*
X7119643Y-9086786D01*
X7133928Y-9072500D01*
X7119643Y-9058214D01*
X7119643Y-9086786D01*
X7305357Y-9358214D02*
X7276786Y-9343929D01*
X7262500Y-9315357D01*
X7262500Y-9058214D01*
X7462500Y-9358214D02*
X7433928Y-9343929D01*
X7419643Y-9315357D01*
X7419643Y-9058214D01*
X7805357Y-9358214D02*
X7805357Y-9058214D01*
X7905357Y-9272500D01*
X8005357Y-9058214D01*
X8005357Y-9358214D01*
X8276786Y-9358214D02*
X8276786Y-9201072D01*
X8262500Y-9172500D01*
X8233928Y-9158214D01*
X8176786Y-9158214D01*
X8148214Y-9172500D01*
X8276786Y-9343929D02*
X8248214Y-9358214D01*
X8176786Y-9358214D01*
X8148214Y-9343929D01*
X8133928Y-9315357D01*
X8133928Y-9286786D01*
X8148214Y-9258214D01*
X8176786Y-9243929D01*
X8248214Y-9243929D01*
X8276786Y-9229643D01*
X8419643Y-9158214D02*
X8419643Y-9458214D01*
X8419643Y-9172500D02*
X8448214Y-9158214D01*
X8505357Y-9158214D01*
X8533928Y-9172500D01*
X8548214Y-9186786D01*
X8562500Y-9215357D01*
X8562500Y-9301072D01*
X8548214Y-9329643D01*
X8533928Y-9343929D01*
X8505357Y-9358214D01*
X8448214Y-9358214D01*
X8419643Y-9343929D01*
X8691071Y-9329643D02*
X8705357Y-9343929D01*
X8691071Y-9358214D01*
X8676786Y-9343929D01*
X8691071Y-9329643D01*
X8691071Y-9358214D01*
X8691071Y-9172500D02*
X8705357Y-9186786D01*
X8691071Y-9201072D01*
X8676786Y-9186786D01*
X8691071Y-9172500D01*
X8691071Y-9201072D01*
X6317500Y-9837500D02*
X6347500Y-9867500D01*
X6347500Y-9837500D02*
X6317500Y-9867500D01*
X6691071Y-9688214D02*
X6719643Y-9688214D01*
X6748214Y-9702500D01*
X6762500Y-9716786D01*
X6776786Y-9745357D01*
X6791071Y-9802500D01*
X6791071Y-9873929D01*
X6776786Y-9931072D01*
X6762500Y-9959643D01*
X6748214Y-9973929D01*
X6719643Y-9988214D01*
X6691071Y-9988214D01*
X6662500Y-9973929D01*
X6648214Y-9959643D01*
X6633928Y-9931072D01*
X6619643Y-9873929D01*
X6619643Y-9802500D01*
X6633928Y-9745357D01*
X6648214Y-9716786D01*
X6662500Y-9702500D01*
X6691071Y-9688214D01*
X6919643Y-9959643D02*
X6933928Y-9973929D01*
X6919643Y-9988214D01*
X6905357Y-9973929D01*
X6919643Y-9959643D01*
X6919643Y-9988214D01*
X7033928Y-9688214D02*
X7219643Y-9688214D01*
X7119643Y-9802500D01*
X7162500Y-9802500D01*
X7191071Y-9816786D01*
X7205357Y-9831072D01*
X7219643Y-9859643D01*
X7219643Y-9931072D01*
X7205357Y-9959643D01*
X7191071Y-9973929D01*
X7162500Y-9988214D01*
X7076786Y-9988214D01*
X7048214Y-9973929D01*
X7033928Y-9959643D01*
X7405357Y-9688214D02*
X7433928Y-9688214D01*
X7462500Y-9702500D01*
X7476786Y-9716786D01*
X7491071Y-9745357D01*
X7505357Y-9802500D01*
X7505357Y-9873929D01*
X7491071Y-9931072D01*
X7476786Y-9959643D01*
X7462500Y-9973929D01*
X7433928Y-9988214D01*
X7405357Y-9988214D01*
X7376786Y-9973929D01*
X7362500Y-9959643D01*
X7348214Y-9931072D01*
X7333928Y-9873929D01*
X7333928Y-9802500D01*
X7348214Y-9745357D01*
X7362500Y-9716786D01*
X7376786Y-9702500D01*
X7405357Y-9688214D01*
X7691071Y-9688214D02*
X7719643Y-9688214D01*
X7748214Y-9702500D01*
X7762500Y-9716786D01*
X7776786Y-9745357D01*
X7791071Y-9802500D01*
X7791071Y-9873929D01*
X7776786Y-9931072D01*
X7762500Y-9959643D01*
X7748214Y-9973929D01*
X7719643Y-9988214D01*
X7691071Y-9988214D01*
X7662500Y-9973929D01*
X7648214Y-9959643D01*
X7633928Y-9931072D01*
X7619643Y-9873929D01*
X7619643Y-9802500D01*
X7633928Y-9745357D01*
X7648214Y-9716786D01*
X7662500Y-9702500D01*
X7691071Y-9688214D01*
X7919643Y-9988214D02*
X7919643Y-9788214D01*
X7919643Y-9816786D02*
X7933928Y-9802500D01*
X7962500Y-9788214D01*
X8005357Y-9788214D01*
X8033928Y-9802500D01*
X8048214Y-9831072D01*
X8048214Y-9988214D01*
X8048214Y-9831072D02*
X8062500Y-9802500D01*
X8091071Y-9788214D01*
X8133928Y-9788214D01*
X8162500Y-9802500D01*
X8176786Y-9831072D01*
X8176786Y-9988214D01*
X8319643Y-9988214D02*
X8319643Y-9788214D01*
X8319643Y-9816786D02*
X8333928Y-9802500D01*
X8362500Y-9788214D01*
X8405357Y-9788214D01*
X8433928Y-9802500D01*
X8448214Y-9831072D01*
X8448214Y-9988214D01*
X8448214Y-9831072D02*
X8462500Y-9802500D01*
X8491071Y-9788214D01*
X8533928Y-9788214D01*
X8562500Y-9802500D01*
X8576786Y-9831072D01*
X8576786Y-9988214D01*
X9162500Y-9673929D02*
X8905357Y-10059643D01*
X9548214Y-9688214D02*
X9576786Y-9688214D01*
X9605357Y-9702500D01*
X9619643Y-9716786D01*
X9633928Y-9745357D01*
X9648214Y-9802500D01*
X9648214Y-9873929D01*
X9633928Y-9931072D01*
X9619643Y-9959643D01*
X9605357Y-9973929D01*
X9576786Y-9988214D01*
X9548214Y-9988214D01*
X9519643Y-9973929D01*
X9505357Y-9959643D01*
X9491071Y-9931072D01*
X9476786Y-9873929D01*
X9476786Y-9802500D01*
X9491071Y-9745357D01*
X9505357Y-9716786D01*
X9519643Y-9702500D01*
X9548214Y-9688214D01*
X9776786Y-9959643D02*
X9791071Y-9973929D01*
X9776786Y-9988214D01*
X9762500Y-9973929D01*
X9776786Y-9959643D01*
X9776786Y-9988214D01*
X9976786Y-9688214D02*
X10005357Y-9688214D01*
X10033928Y-9702500D01*
X10048214Y-9716786D01*
X10062500Y-9745357D01*
X10076786Y-9802500D01*
X10076786Y-9873929D01*
X10062500Y-9931072D01*
X10048214Y-9959643D01*
X10033928Y-9973929D01*
X10005357Y-9988214D01*
X9976786Y-9988214D01*
X9948214Y-9973929D01*
X9933928Y-9959643D01*
X9919643Y-9931072D01*
X9905357Y-9873929D01*
X9905357Y-9802500D01*
X9919643Y-9745357D01*
X9933928Y-9716786D01*
X9948214Y-9702500D01*
X9976786Y-9688214D01*
X10362500Y-9988214D02*
X10191071Y-9988214D01*
X10276786Y-9988214D02*
X10276786Y-9688214D01*
X10248214Y-9731072D01*
X10219643Y-9759643D01*
X10191071Y-9773929D01*
X10648214Y-9988214D02*
X10476786Y-9988214D01*
X10562500Y-9988214D02*
X10562500Y-9688214D01*
X10533928Y-9731072D01*
X10505357Y-9759643D01*
X10476786Y-9773929D01*
X10819643Y-9816786D02*
X10791071Y-9802500D01*
X10776786Y-9788214D01*
X10762500Y-9759643D01*
X10762500Y-9745357D01*
X10776786Y-9716786D01*
X10791071Y-9702500D01*
X10819643Y-9688214D01*
X10876786Y-9688214D01*
X10905357Y-9702500D01*
X10919643Y-9716786D01*
X10933928Y-9745357D01*
X10933928Y-9759643D01*
X10919643Y-9788214D01*
X10905357Y-9802500D01*
X10876786Y-9816786D01*
X10819643Y-9816786D01*
X10791071Y-9831072D01*
X10776786Y-9845357D01*
X10762500Y-9873929D01*
X10762500Y-9931072D01*
X10776786Y-9959643D01*
X10791071Y-9973929D01*
X10819643Y-9988214D01*
X10876786Y-9988214D01*
X10905357Y-9973929D01*
X10919643Y-9959643D01*
X10933928Y-9931072D01*
X10933928Y-9873929D01*
X10919643Y-9845357D01*
X10905357Y-9831072D01*
X10876786Y-9816786D01*
X11048214Y-9688214D02*
X11048214Y-9745357D01*
X11162500Y-9688214D02*
X11162500Y-9745357D01*
X11605357Y-10102500D02*
X11591071Y-10088214D01*
X11562500Y-10045357D01*
X11548214Y-10016786D01*
X11533928Y-9973929D01*
X11519643Y-9902500D01*
X11519643Y-9845357D01*
X11533928Y-9773929D01*
X11548214Y-9731072D01*
X11562500Y-9702500D01*
X11591071Y-9659643D01*
X11605357Y-9645357D01*
X11691071Y-9688214D02*
X11891071Y-9688214D01*
X11762500Y-9988214D01*
X11991071Y-9716786D02*
X12005357Y-9702500D01*
X12033928Y-9688214D01*
X12105357Y-9688214D01*
X12133928Y-9702500D01*
X12148214Y-9716786D01*
X12162500Y-9745357D01*
X12162500Y-9773929D01*
X12148214Y-9816786D01*
X11976786Y-9988214D01*
X12162500Y-9988214D01*
X12519643Y-9988214D02*
X12519643Y-9688214D01*
X12648214Y-9988214D02*
X12648214Y-9831072D01*
X12633928Y-9802500D01*
X12605357Y-9788214D01*
X12562500Y-9788214D01*
X12533928Y-9802500D01*
X12519643Y-9816786D01*
X12833928Y-9988214D02*
X12805357Y-9973929D01*
X12791071Y-9959643D01*
X12776786Y-9931072D01*
X12776786Y-9845357D01*
X12791071Y-9816786D01*
X12805357Y-9802500D01*
X12833928Y-9788214D01*
X12876786Y-9788214D01*
X12905357Y-9802500D01*
X12919643Y-9816786D01*
X12933928Y-9845357D01*
X12933928Y-9931072D01*
X12919643Y-9959643D01*
X12905357Y-9973929D01*
X12876786Y-9988214D01*
X12833928Y-9988214D01*
X13105357Y-9988214D02*
X13076786Y-9973929D01*
X13062500Y-9945357D01*
X13062500Y-9688214D01*
X13333928Y-9973929D02*
X13305357Y-9988214D01*
X13248214Y-9988214D01*
X13219643Y-9973929D01*
X13205357Y-9945357D01*
X13205357Y-9831072D01*
X13219643Y-9802500D01*
X13248214Y-9788214D01*
X13305357Y-9788214D01*
X13333928Y-9802500D01*
X13348214Y-9831072D01*
X13348214Y-9859643D01*
X13205357Y-9888214D01*
X13462500Y-9973929D02*
X13491071Y-9988214D01*
X13548214Y-9988214D01*
X13576786Y-9973929D01*
X13591071Y-9945357D01*
X13591071Y-9931072D01*
X13576786Y-9902500D01*
X13548214Y-9888214D01*
X13505357Y-9888214D01*
X13476786Y-9873929D01*
X13462500Y-9845357D01*
X13462500Y-9831072D01*
X13476786Y-9802500D01*
X13505357Y-9788214D01*
X13548214Y-9788214D01*
X13576786Y-9802500D01*
X13691071Y-10102500D02*
X13705357Y-10088214D01*
X13733928Y-10045357D01*
X13748214Y-10016786D01*
X13762500Y-9973929D01*
X13776786Y-9902500D01*
X13776786Y-9845357D01*
X13762500Y-9773929D01*
X13748214Y-9731072D01*
X13733928Y-9702500D01*
X13705357Y-9659643D01*
X13691071Y-9645357D01*
X6347500Y-10248500D02*
G75*
G03*
X6347500Y-10248500I-20000J0D01*
G01*
X6691071Y-10084214D02*
X6719643Y-10084214D01*
X6748214Y-10098500D01*
X6762500Y-10112786D01*
X6776786Y-10141357D01*
X6791071Y-10198500D01*
X6791071Y-10269929D01*
X6776786Y-10327072D01*
X6762500Y-10355643D01*
X6748214Y-10369929D01*
X6719643Y-10384214D01*
X6691071Y-10384214D01*
X6662500Y-10369929D01*
X6648214Y-10355643D01*
X6633928Y-10327072D01*
X6619643Y-10269929D01*
X6619643Y-10198500D01*
X6633928Y-10141357D01*
X6648214Y-10112786D01*
X6662500Y-10098500D01*
X6691071Y-10084214D01*
X6919643Y-10355643D02*
X6933928Y-10369929D01*
X6919643Y-10384214D01*
X6905357Y-10369929D01*
X6919643Y-10355643D01*
X6919643Y-10384214D01*
X7191071Y-10184214D02*
X7191071Y-10384214D01*
X7119643Y-10069929D02*
X7048214Y-10284214D01*
X7233928Y-10284214D01*
X7405357Y-10084214D02*
X7433928Y-10084214D01*
X7462500Y-10098500D01*
X7476786Y-10112786D01*
X7491071Y-10141357D01*
X7505357Y-10198500D01*
X7505357Y-10269929D01*
X7491071Y-10327072D01*
X7476786Y-10355643D01*
X7462500Y-10369929D01*
X7433928Y-10384214D01*
X7405357Y-10384214D01*
X7376786Y-10369929D01*
X7362500Y-10355643D01*
X7348214Y-10327072D01*
X7333928Y-10269929D01*
X7333928Y-10198500D01*
X7348214Y-10141357D01*
X7362500Y-10112786D01*
X7376786Y-10098500D01*
X7405357Y-10084214D01*
X7691071Y-10084214D02*
X7719643Y-10084214D01*
X7748214Y-10098500D01*
X7762500Y-10112786D01*
X7776786Y-10141357D01*
X7791071Y-10198500D01*
X7791071Y-10269929D01*
X7776786Y-10327072D01*
X7762500Y-10355643D01*
X7748214Y-10369929D01*
X7719643Y-10384214D01*
X7691071Y-10384214D01*
X7662500Y-10369929D01*
X7648214Y-10355643D01*
X7633928Y-10327072D01*
X7619643Y-10269929D01*
X7619643Y-10198500D01*
X7633928Y-10141357D01*
X7648214Y-10112786D01*
X7662500Y-10098500D01*
X7691071Y-10084214D01*
X7919643Y-10384214D02*
X7919643Y-10184214D01*
X7919643Y-10212786D02*
X7933928Y-10198500D01*
X7962500Y-10184214D01*
X8005357Y-10184214D01*
X8033928Y-10198500D01*
X8048214Y-10227072D01*
X8048214Y-10384214D01*
X8048214Y-10227072D02*
X8062500Y-10198500D01*
X8091071Y-10184214D01*
X8133928Y-10184214D01*
X8162500Y-10198500D01*
X8176786Y-10227072D01*
X8176786Y-10384214D01*
X8319643Y-10384214D02*
X8319643Y-10184214D01*
X8319643Y-10212786D02*
X8333928Y-10198500D01*
X8362500Y-10184214D01*
X8405357Y-10184214D01*
X8433928Y-10198500D01*
X8448214Y-10227072D01*
X8448214Y-10384214D01*
X8448214Y-10227072D02*
X8462500Y-10198500D01*
X8491071Y-10184214D01*
X8533928Y-10184214D01*
X8562500Y-10198500D01*
X8576786Y-10227072D01*
X8576786Y-10384214D01*
X9162500Y-10069929D02*
X8905357Y-10455643D01*
X9548214Y-10084214D02*
X9576786Y-10084214D01*
X9605357Y-10098500D01*
X9619643Y-10112786D01*
X9633928Y-10141357D01*
X9648214Y-10198500D01*
X9648214Y-10269929D01*
X9633928Y-10327072D01*
X9619643Y-10355643D01*
X9605357Y-10369929D01*
X9576786Y-10384214D01*
X9548214Y-10384214D01*
X9519643Y-10369929D01*
X9505357Y-10355643D01*
X9491071Y-10327072D01*
X9476786Y-10269929D01*
X9476786Y-10198500D01*
X9491071Y-10141357D01*
X9505357Y-10112786D01*
X9519643Y-10098500D01*
X9548214Y-10084214D01*
X9776786Y-10355643D02*
X9791071Y-10369929D01*
X9776786Y-10384214D01*
X9762500Y-10369929D01*
X9776786Y-10355643D01*
X9776786Y-10384214D01*
X9976786Y-10084214D02*
X10005357Y-10084214D01*
X10033928Y-10098500D01*
X10048214Y-10112786D01*
X10062500Y-10141357D01*
X10076786Y-10198500D01*
X10076786Y-10269929D01*
X10062500Y-10327072D01*
X10048214Y-10355643D01*
X10033928Y-10369929D01*
X10005357Y-10384214D01*
X9976786Y-10384214D01*
X9948214Y-10369929D01*
X9933928Y-10355643D01*
X9919643Y-10327072D01*
X9905357Y-10269929D01*
X9905357Y-10198500D01*
X9919643Y-10141357D01*
X9933928Y-10112786D01*
X9948214Y-10098500D01*
X9976786Y-10084214D01*
X10362500Y-10384214D02*
X10191071Y-10384214D01*
X10276786Y-10384214D02*
X10276786Y-10084214D01*
X10248214Y-10127072D01*
X10219643Y-10155643D01*
X10191071Y-10169929D01*
X10633928Y-10084214D02*
X10491071Y-10084214D01*
X10476786Y-10227072D01*
X10491071Y-10212786D01*
X10519643Y-10198500D01*
X10591071Y-10198500D01*
X10619643Y-10212786D01*
X10633928Y-10227072D01*
X10648214Y-10255643D01*
X10648214Y-10327072D01*
X10633928Y-10355643D01*
X10619643Y-10369929D01*
X10591071Y-10384214D01*
X10519643Y-10384214D01*
X10491071Y-10369929D01*
X10476786Y-10355643D01*
X10748214Y-10084214D02*
X10948214Y-10084214D01*
X10819643Y-10384214D01*
X11048214Y-10084214D02*
X11048214Y-10141357D01*
X11162500Y-10084214D02*
X11162500Y-10141357D01*
X11605357Y-10498500D02*
X11591071Y-10484214D01*
X11562500Y-10441357D01*
X11548214Y-10412786D01*
X11533928Y-10369929D01*
X11519643Y-10298500D01*
X11519643Y-10241357D01*
X11533928Y-10169929D01*
X11548214Y-10127072D01*
X11562500Y-10098500D01*
X11591071Y-10055643D01*
X11605357Y-10041357D01*
X11876786Y-10384214D02*
X11705357Y-10384214D01*
X11791071Y-10384214D02*
X11791071Y-10084214D01*
X11762500Y-10127072D01*
X11733928Y-10155643D01*
X11705357Y-10169929D01*
X12133928Y-10184214D02*
X12133928Y-10384214D01*
X12062500Y-10069929D02*
X11991071Y-10284214D01*
X12176786Y-10284214D01*
X12519643Y-10384214D02*
X12519643Y-10084214D01*
X12648214Y-10384214D02*
X12648214Y-10227072D01*
X12633928Y-10198500D01*
X12605357Y-10184214D01*
X12562500Y-10184214D01*
X12533928Y-10198500D01*
X12519643Y-10212786D01*
X12833928Y-10384214D02*
X12805357Y-10369929D01*
X12791071Y-10355643D01*
X12776786Y-10327072D01*
X12776786Y-10241357D01*
X12791071Y-10212786D01*
X12805357Y-10198500D01*
X12833928Y-10184214D01*
X12876786Y-10184214D01*
X12905357Y-10198500D01*
X12919643Y-10212786D01*
X12933928Y-10241357D01*
X12933928Y-10327072D01*
X12919643Y-10355643D01*
X12905357Y-10369929D01*
X12876786Y-10384214D01*
X12833928Y-10384214D01*
X13105357Y-10384214D02*
X13076786Y-10369929D01*
X13062500Y-10341357D01*
X13062500Y-10084214D01*
X13333928Y-10369929D02*
X13305357Y-10384214D01*
X13248214Y-10384214D01*
X13219643Y-10369929D01*
X13205357Y-10341357D01*
X13205357Y-10227072D01*
X13219643Y-10198500D01*
X13248214Y-10184214D01*
X13305357Y-10184214D01*
X13333928Y-10198500D01*
X13348214Y-10227072D01*
X13348214Y-10255643D01*
X13205357Y-10284214D01*
X13462500Y-10369929D02*
X13491071Y-10384214D01*
X13548214Y-10384214D01*
X13576786Y-10369929D01*
X13591071Y-10341357D01*
X13591071Y-10327072D01*
X13576786Y-10298500D01*
X13548214Y-10284214D01*
X13505357Y-10284214D01*
X13476786Y-10269929D01*
X13462500Y-10241357D01*
X13462500Y-10227072D01*
X13476786Y-10198500D01*
X13505357Y-10184214D01*
X13548214Y-10184214D01*
X13576786Y-10198500D01*
X13691071Y-10498500D02*
X13705357Y-10484214D01*
X13733928Y-10441357D01*
X13748214Y-10412786D01*
X13762500Y-10369929D01*
X13776786Y-10298500D01*
X13776786Y-10241357D01*
X13762500Y-10169929D01*
X13748214Y-10127072D01*
X13733928Y-10098500D01*
X13705357Y-10055643D01*
X13691071Y-10041357D01*
X6297500Y-10594500D02*
X6297500Y-10694500D01*
X6247500Y-10644500D02*
X6347500Y-10644500D01*
X6791071Y-10780214D02*
X6619643Y-10780214D01*
X6705357Y-10780214D02*
X6705357Y-10480214D01*
X6676786Y-10523072D01*
X6648214Y-10551643D01*
X6619643Y-10565929D01*
X6919643Y-10751643D02*
X6933928Y-10765929D01*
X6919643Y-10780214D01*
X6905357Y-10765929D01*
X6919643Y-10751643D01*
X6919643Y-10780214D01*
X7119643Y-10480214D02*
X7148214Y-10480214D01*
X7176786Y-10494500D01*
X7191071Y-10508786D01*
X7205357Y-10537357D01*
X7219643Y-10594500D01*
X7219643Y-10665929D01*
X7205357Y-10723072D01*
X7191071Y-10751643D01*
X7176786Y-10765929D01*
X7148214Y-10780214D01*
X7119643Y-10780214D01*
X7091071Y-10765929D01*
X7076786Y-10751643D01*
X7062500Y-10723072D01*
X7048214Y-10665929D01*
X7048214Y-10594500D01*
X7062500Y-10537357D01*
X7076786Y-10508786D01*
X7091071Y-10494500D01*
X7119643Y-10480214D01*
X7405357Y-10480214D02*
X7433928Y-10480214D01*
X7462500Y-10494500D01*
X7476786Y-10508786D01*
X7491071Y-10537357D01*
X7505357Y-10594500D01*
X7505357Y-10665929D01*
X7491071Y-10723072D01*
X7476786Y-10751643D01*
X7462500Y-10765929D01*
X7433928Y-10780214D01*
X7405357Y-10780214D01*
X7376786Y-10765929D01*
X7362500Y-10751643D01*
X7348214Y-10723072D01*
X7333928Y-10665929D01*
X7333928Y-10594500D01*
X7348214Y-10537357D01*
X7362500Y-10508786D01*
X7376786Y-10494500D01*
X7405357Y-10480214D01*
X7691071Y-10480214D02*
X7719643Y-10480214D01*
X7748214Y-10494500D01*
X7762500Y-10508786D01*
X7776786Y-10537357D01*
X7791071Y-10594500D01*
X7791071Y-10665929D01*
X7776786Y-10723072D01*
X7762500Y-10751643D01*
X7748214Y-10765929D01*
X7719643Y-10780214D01*
X7691071Y-10780214D01*
X7662500Y-10765929D01*
X7648214Y-10751643D01*
X7633928Y-10723072D01*
X7619643Y-10665929D01*
X7619643Y-10594500D01*
X7633928Y-10537357D01*
X7648214Y-10508786D01*
X7662500Y-10494500D01*
X7691071Y-10480214D01*
X7919643Y-10780214D02*
X7919643Y-10580214D01*
X7919643Y-10608786D02*
X7933928Y-10594500D01*
X7962500Y-10580214D01*
X8005357Y-10580214D01*
X8033928Y-10594500D01*
X8048214Y-10623072D01*
X8048214Y-10780214D01*
X8048214Y-10623072D02*
X8062500Y-10594500D01*
X8091071Y-10580214D01*
X8133928Y-10580214D01*
X8162500Y-10594500D01*
X8176786Y-10623072D01*
X8176786Y-10780214D01*
X8319643Y-10780214D02*
X8319643Y-10580214D01*
X8319643Y-10608786D02*
X8333928Y-10594500D01*
X8362500Y-10580214D01*
X8405357Y-10580214D01*
X8433928Y-10594500D01*
X8448214Y-10623072D01*
X8448214Y-10780214D01*
X8448214Y-10623072D02*
X8462500Y-10594500D01*
X8491071Y-10580214D01*
X8533928Y-10580214D01*
X8562500Y-10594500D01*
X8576786Y-10623072D01*
X8576786Y-10780214D01*
X9162500Y-10465929D02*
X8905357Y-10851643D01*
X9548214Y-10480214D02*
X9576786Y-10480214D01*
X9605357Y-10494500D01*
X9619643Y-10508786D01*
X9633928Y-10537357D01*
X9648214Y-10594500D01*
X9648214Y-10665929D01*
X9633928Y-10723072D01*
X9619643Y-10751643D01*
X9605357Y-10765929D01*
X9576786Y-10780214D01*
X9548214Y-10780214D01*
X9519643Y-10765929D01*
X9505357Y-10751643D01*
X9491071Y-10723072D01*
X9476786Y-10665929D01*
X9476786Y-10594500D01*
X9491071Y-10537357D01*
X9505357Y-10508786D01*
X9519643Y-10494500D01*
X9548214Y-10480214D01*
X9776786Y-10751643D02*
X9791071Y-10765929D01*
X9776786Y-10780214D01*
X9762500Y-10765929D01*
X9776786Y-10751643D01*
X9776786Y-10780214D01*
X9976786Y-10480214D02*
X10005357Y-10480214D01*
X10033928Y-10494500D01*
X10048214Y-10508786D01*
X10062500Y-10537357D01*
X10076786Y-10594500D01*
X10076786Y-10665929D01*
X10062500Y-10723072D01*
X10048214Y-10751643D01*
X10033928Y-10765929D01*
X10005357Y-10780214D01*
X9976786Y-10780214D01*
X9948214Y-10765929D01*
X9933928Y-10751643D01*
X9919643Y-10723072D01*
X9905357Y-10665929D01*
X9905357Y-10594500D01*
X9919643Y-10537357D01*
X9933928Y-10508786D01*
X9948214Y-10494500D01*
X9976786Y-10480214D01*
X10176786Y-10480214D02*
X10362500Y-10480214D01*
X10262500Y-10594500D01*
X10305357Y-10594500D01*
X10333928Y-10608786D01*
X10348214Y-10623072D01*
X10362500Y-10651643D01*
X10362500Y-10723072D01*
X10348214Y-10751643D01*
X10333928Y-10765929D01*
X10305357Y-10780214D01*
X10219643Y-10780214D01*
X10191071Y-10765929D01*
X10176786Y-10751643D01*
X10505357Y-10780214D02*
X10562500Y-10780214D01*
X10591071Y-10765929D01*
X10605357Y-10751643D01*
X10633928Y-10708786D01*
X10648214Y-10651643D01*
X10648214Y-10537357D01*
X10633928Y-10508786D01*
X10619643Y-10494500D01*
X10591071Y-10480214D01*
X10533928Y-10480214D01*
X10505357Y-10494500D01*
X10491071Y-10508786D01*
X10476786Y-10537357D01*
X10476786Y-10608786D01*
X10491071Y-10637357D01*
X10505357Y-10651643D01*
X10533928Y-10665929D01*
X10591071Y-10665929D01*
X10619643Y-10651643D01*
X10633928Y-10637357D01*
X10648214Y-10608786D01*
X10905357Y-10580214D02*
X10905357Y-10780214D01*
X10833928Y-10465929D02*
X10762500Y-10680214D01*
X10948214Y-10680214D01*
X11048214Y-10480214D02*
X11048214Y-10537357D01*
X11162500Y-10480214D02*
X11162500Y-10537357D01*
X11605357Y-10894500D02*
X11591071Y-10880214D01*
X11562500Y-10837357D01*
X11548214Y-10808786D01*
X11533928Y-10765929D01*
X11519643Y-10694500D01*
X11519643Y-10637357D01*
X11533928Y-10565929D01*
X11548214Y-10523072D01*
X11562500Y-10494500D01*
X11591071Y-10451643D01*
X11605357Y-10437357D01*
X11876786Y-10780214D02*
X11705357Y-10780214D01*
X11791071Y-10780214D02*
X11791071Y-10480214D01*
X11762500Y-10523072D01*
X11733928Y-10551643D01*
X11705357Y-10565929D01*
X12019643Y-10780214D02*
X12076786Y-10780214D01*
X12105357Y-10765929D01*
X12119643Y-10751643D01*
X12148214Y-10708786D01*
X12162500Y-10651643D01*
X12162500Y-10537357D01*
X12148214Y-10508786D01*
X12133928Y-10494500D01*
X12105357Y-10480214D01*
X12048214Y-10480214D01*
X12019643Y-10494500D01*
X12005357Y-10508786D01*
X11991071Y-10537357D01*
X11991071Y-10608786D01*
X12005357Y-10637357D01*
X12019643Y-10651643D01*
X12048214Y-10665929D01*
X12105357Y-10665929D01*
X12133928Y-10651643D01*
X12148214Y-10637357D01*
X12162500Y-10608786D01*
X12519643Y-10780214D02*
X12519643Y-10480214D01*
X12648214Y-10780214D02*
X12648214Y-10623072D01*
X12633928Y-10594500D01*
X12605357Y-10580214D01*
X12562500Y-10580214D01*
X12533928Y-10594500D01*
X12519643Y-10608786D01*
X12833928Y-10780214D02*
X12805357Y-10765929D01*
X12791071Y-10751643D01*
X12776786Y-10723072D01*
X12776786Y-10637357D01*
X12791071Y-10608786D01*
X12805357Y-10594500D01*
X12833928Y-10580214D01*
X12876786Y-10580214D01*
X12905357Y-10594500D01*
X12919643Y-10608786D01*
X12933928Y-10637357D01*
X12933928Y-10723072D01*
X12919643Y-10751643D01*
X12905357Y-10765929D01*
X12876786Y-10780214D01*
X12833928Y-10780214D01*
X13105357Y-10780214D02*
X13076786Y-10765929D01*
X13062500Y-10737357D01*
X13062500Y-10480214D01*
X13333928Y-10765929D02*
X13305357Y-10780214D01*
X13248214Y-10780214D01*
X13219643Y-10765929D01*
X13205357Y-10737357D01*
X13205357Y-10623072D01*
X13219643Y-10594500D01*
X13248214Y-10580214D01*
X13305357Y-10580214D01*
X13333928Y-10594500D01*
X13348214Y-10623072D01*
X13348214Y-10651643D01*
X13205357Y-10680214D01*
X13462500Y-10765929D02*
X13491071Y-10780214D01*
X13548214Y-10780214D01*
X13576786Y-10765929D01*
X13591071Y-10737357D01*
X13591071Y-10723072D01*
X13576786Y-10694500D01*
X13548214Y-10680214D01*
X13505357Y-10680214D01*
X13476786Y-10665929D01*
X13462500Y-10637357D01*
X13462500Y-10623072D01*
X13476786Y-10594500D01*
X13505357Y-10580214D01*
X13548214Y-10580214D01*
X13576786Y-10594500D01*
X13691071Y-10894500D02*
X13705357Y-10880214D01*
X13733928Y-10837357D01*
X13748214Y-10808786D01*
X13762500Y-10765929D01*
X13776786Y-10694500D01*
X13776786Y-10637357D01*
X13762500Y-10565929D01*
X13748214Y-10523072D01*
X13733928Y-10494500D01*
X13705357Y-10451643D01*
X13691071Y-10437357D01*
X6330073Y-11082573D02*
X6330073Y-10998427D01*
X6245927Y-10998427D01*
X6245927Y-11082573D01*
X6330073Y-11082573D01*
X6791071Y-11176214D02*
X6619643Y-11176214D01*
X6705357Y-11176214D02*
X6705357Y-10876214D01*
X6676786Y-10919072D01*
X6648214Y-10947643D01*
X6619643Y-10961929D01*
X6919643Y-11147643D02*
X6933928Y-11161929D01*
X6919643Y-11176214D01*
X6905357Y-11161929D01*
X6919643Y-11147643D01*
X6919643Y-11176214D01*
X7219643Y-11176214D02*
X7048214Y-11176214D01*
X7133928Y-11176214D02*
X7133928Y-10876214D01*
X7105357Y-10919072D01*
X7076786Y-10947643D01*
X7048214Y-10961929D01*
X7362500Y-11176214D02*
X7419643Y-11176214D01*
X7448214Y-11161929D01*
X7462500Y-11147643D01*
X7491071Y-11104786D01*
X7505357Y-11047643D01*
X7505357Y-10933357D01*
X7491071Y-10904786D01*
X7476786Y-10890500D01*
X7448214Y-10876214D01*
X7391071Y-10876214D01*
X7362500Y-10890500D01*
X7348214Y-10904786D01*
X7333928Y-10933357D01*
X7333928Y-11004786D01*
X7348214Y-11033357D01*
X7362500Y-11047643D01*
X7391071Y-11061929D01*
X7448214Y-11061929D01*
X7476786Y-11047643D01*
X7491071Y-11033357D01*
X7505357Y-11004786D01*
X7691071Y-10876214D02*
X7719643Y-10876214D01*
X7748214Y-10890500D01*
X7762500Y-10904786D01*
X7776786Y-10933357D01*
X7791071Y-10990500D01*
X7791071Y-11061929D01*
X7776786Y-11119072D01*
X7762500Y-11147643D01*
X7748214Y-11161929D01*
X7719643Y-11176214D01*
X7691071Y-11176214D01*
X7662500Y-11161929D01*
X7648214Y-11147643D01*
X7633928Y-11119072D01*
X7619643Y-11061929D01*
X7619643Y-10990500D01*
X7633928Y-10933357D01*
X7648214Y-10904786D01*
X7662500Y-10890500D01*
X7691071Y-10876214D01*
X7919643Y-11176214D02*
X7919643Y-10976214D01*
X7919643Y-11004786D02*
X7933928Y-10990500D01*
X7962500Y-10976214D01*
X8005357Y-10976214D01*
X8033928Y-10990500D01*
X8048214Y-11019072D01*
X8048214Y-11176214D01*
X8048214Y-11019072D02*
X8062500Y-10990500D01*
X8091071Y-10976214D01*
X8133928Y-10976214D01*
X8162500Y-10990500D01*
X8176786Y-11019072D01*
X8176786Y-11176214D01*
X8319643Y-11176214D02*
X8319643Y-10976214D01*
X8319643Y-11004786D02*
X8333928Y-10990500D01*
X8362500Y-10976214D01*
X8405357Y-10976214D01*
X8433928Y-10990500D01*
X8448214Y-11019072D01*
X8448214Y-11176214D01*
X8448214Y-11019072D02*
X8462500Y-10990500D01*
X8491071Y-10976214D01*
X8533928Y-10976214D01*
X8562500Y-10990500D01*
X8576786Y-11019072D01*
X8576786Y-11176214D01*
X9162500Y-10861929D02*
X8905357Y-11247643D01*
X9548214Y-10876214D02*
X9576786Y-10876214D01*
X9605357Y-10890500D01*
X9619643Y-10904786D01*
X9633928Y-10933357D01*
X9648214Y-10990500D01*
X9648214Y-11061929D01*
X9633928Y-11119072D01*
X9619643Y-11147643D01*
X9605357Y-11161929D01*
X9576786Y-11176214D01*
X9548214Y-11176214D01*
X9519643Y-11161929D01*
X9505357Y-11147643D01*
X9491071Y-11119072D01*
X9476786Y-11061929D01*
X9476786Y-10990500D01*
X9491071Y-10933357D01*
X9505357Y-10904786D01*
X9519643Y-10890500D01*
X9548214Y-10876214D01*
X9776786Y-11147643D02*
X9791071Y-11161929D01*
X9776786Y-11176214D01*
X9762500Y-11161929D01*
X9776786Y-11147643D01*
X9776786Y-11176214D01*
X9976786Y-10876214D02*
X10005357Y-10876214D01*
X10033928Y-10890500D01*
X10048214Y-10904786D01*
X10062500Y-10933357D01*
X10076786Y-10990500D01*
X10076786Y-11061929D01*
X10062500Y-11119072D01*
X10048214Y-11147643D01*
X10033928Y-11161929D01*
X10005357Y-11176214D01*
X9976786Y-11176214D01*
X9948214Y-11161929D01*
X9933928Y-11147643D01*
X9919643Y-11119072D01*
X9905357Y-11061929D01*
X9905357Y-10990500D01*
X9919643Y-10933357D01*
X9933928Y-10904786D01*
X9948214Y-10890500D01*
X9976786Y-10876214D01*
X10333928Y-10976214D02*
X10333928Y-11176214D01*
X10262500Y-10861929D02*
X10191071Y-11076214D01*
X10376786Y-11076214D01*
X10619643Y-10876214D02*
X10562500Y-10876214D01*
X10533928Y-10890500D01*
X10519643Y-10904786D01*
X10491071Y-10947643D01*
X10476786Y-11004786D01*
X10476786Y-11119072D01*
X10491071Y-11147643D01*
X10505357Y-11161929D01*
X10533928Y-11176214D01*
X10591071Y-11176214D01*
X10619643Y-11161929D01*
X10633928Y-11147643D01*
X10648214Y-11119072D01*
X10648214Y-11047643D01*
X10633928Y-11019072D01*
X10619643Y-11004786D01*
X10591071Y-10990500D01*
X10533928Y-10990500D01*
X10505357Y-11004786D01*
X10491071Y-11019072D01*
X10476786Y-11047643D01*
X10791071Y-11176214D02*
X10848214Y-11176214D01*
X10876786Y-11161929D01*
X10891071Y-11147643D01*
X10919643Y-11104786D01*
X10933928Y-11047643D01*
X10933928Y-10933357D01*
X10919643Y-10904786D01*
X10905357Y-10890500D01*
X10876786Y-10876214D01*
X10819643Y-10876214D01*
X10791071Y-10890500D01*
X10776786Y-10904786D01*
X10762500Y-10933357D01*
X10762500Y-11004786D01*
X10776786Y-11033357D01*
X10791071Y-11047643D01*
X10819643Y-11061929D01*
X10876786Y-11061929D01*
X10905357Y-11047643D01*
X10919643Y-11033357D01*
X10933928Y-11004786D01*
X11048214Y-10876214D02*
X11048214Y-10933357D01*
X11162500Y-10876214D02*
X11162500Y-10933357D01*
X11605357Y-11290500D02*
X11591071Y-11276214D01*
X11562500Y-11233357D01*
X11548214Y-11204786D01*
X11533928Y-11161929D01*
X11519643Y-11090500D01*
X11519643Y-11033357D01*
X11533928Y-10961929D01*
X11548214Y-10919072D01*
X11562500Y-10890500D01*
X11591071Y-10847643D01*
X11605357Y-10833357D01*
X11848214Y-10976214D02*
X11848214Y-11176214D01*
X11776786Y-10861929D02*
X11705357Y-11076214D01*
X11891071Y-11076214D01*
X12233928Y-11176214D02*
X12233928Y-10876214D01*
X12362500Y-11176214D02*
X12362500Y-11019072D01*
X12348214Y-10990500D01*
X12319643Y-10976214D01*
X12276786Y-10976214D01*
X12248214Y-10990500D01*
X12233928Y-11004786D01*
X12548214Y-11176214D02*
X12519643Y-11161929D01*
X12505357Y-11147643D01*
X12491071Y-11119072D01*
X12491071Y-11033357D01*
X12505357Y-11004786D01*
X12519643Y-10990500D01*
X12548214Y-10976214D01*
X12591071Y-10976214D01*
X12619643Y-10990500D01*
X12633928Y-11004786D01*
X12648214Y-11033357D01*
X12648214Y-11119072D01*
X12633928Y-11147643D01*
X12619643Y-11161929D01*
X12591071Y-11176214D01*
X12548214Y-11176214D01*
X12819643Y-11176214D02*
X12791071Y-11161929D01*
X12776786Y-11133357D01*
X12776786Y-10876214D01*
X13048214Y-11161929D02*
X13019643Y-11176214D01*
X12962500Y-11176214D01*
X12933928Y-11161929D01*
X12919643Y-11133357D01*
X12919643Y-11019072D01*
X12933928Y-10990500D01*
X12962500Y-10976214D01*
X13019643Y-10976214D01*
X13048214Y-10990500D01*
X13062500Y-11019072D01*
X13062500Y-11047643D01*
X12919643Y-11076214D01*
X13176786Y-11161929D02*
X13205357Y-11176214D01*
X13262500Y-11176214D01*
X13291071Y-11161929D01*
X13305357Y-11133357D01*
X13305357Y-11119072D01*
X13291071Y-11090500D01*
X13262500Y-11076214D01*
X13219643Y-11076214D01*
X13191071Y-11061929D01*
X13176786Y-11033357D01*
X13176786Y-11019072D01*
X13191071Y-10990500D01*
X13219643Y-10976214D01*
X13262500Y-10976214D01*
X13291071Y-10990500D01*
X13405357Y-11290500D02*
X13419643Y-11276214D01*
X13448214Y-11233357D01*
X13462500Y-11204786D01*
X13476786Y-11161929D01*
X13491071Y-11090500D01*
X13491071Y-11033357D01*
X13476786Y-10961929D01*
X13462500Y-10919072D01*
X13448214Y-10890500D01*
X13419643Y-10847643D01*
X13405357Y-10833357D01*
M02*
