M48
; DRILL file {KiCad (5.1.10)-1} date 06/16/21 11:20:40
; FORMAT={-:-/ absolute / metric / decimal}
; #@! TF.CreationDate,2021-06-16T11:20:40+02:00
; #@! TF.GenerationSoftware,Kicad,Pcbnew,(5.1.10)-1
; #@! TF.FileFunction,Plated,1,2,PTH
FMAT,2
METRIC
T1C0.300
T2C0.400
T3C1.000
T4C1.190
%
G90
G05
T1
X70.739Y-79.781
X70.739Y-81.255
X71.526Y-77.064
X73.609Y-83.82
X80.899Y-81.28
X82.486Y-76.581
X82.55Y-74.93
X87.122Y-74.168
X88.748Y-81.28
X90.932Y-79.883
X92.456Y-82.677
X93.091Y-72.39
X93.345Y-67.31
X93.98Y-69.85
X93.98Y-71.374
X95.91Y-77.826
X99.568Y-60.706
X101.536Y-78.041
X102.235Y-68.58
X102.489Y-71.12
X102.743Y-72.39
X104.14Y-60.833
X104.648Y-64.389
X104.775Y-59.944
X105.41Y-69.85
X105.41Y-72.39
X105.664Y-74.168
X105.664Y-75.184
X105.918Y-64.897
X106.045Y-68.072
X106.426Y-85.217
X106.807Y-64.516
X106.985Y-81.305
X107.061Y-70.028
X107.315Y-84.582
X108.966Y-58.293
X108.991Y-75.133
X109.118Y-66.675
X109.525Y-79.858
X109.664Y-76.391
X110.109Y-71.628
X110.363Y-75.819
X110.871Y-69.469
X110.934Y-79.629
X111.049Y-75.006
X111.303Y-86.766
X111.379Y-68.707
X112.141Y-75.565
X112.204Y-71.095
X112.954Y-71.095
X112.979Y-75.616
X113.538Y-69.799
X113.538Y-74.625
X113.538Y-76.962
X113.792Y-60.96
X114.3Y-76.098
X114.3Y-76.962
X114.376Y-69.596
X114.783Y-68.504
X114.808Y-63.373
X114.91Y-62.255
X115.087Y-66.37
X115.2Y-67.204
X115.443Y-68.961
X116.078Y-57.531
X116.357Y-73.793
X116.586Y-69.85
X116.84Y-76.962
X116.84Y-77.724
X117.069Y-75.463
X118.72Y-74.828
X119.964Y-67.081
T2
X68.224Y-64.465
X74.041Y-60.452
X74.066Y-67.691
X77.914Y-64.897
X84.836Y-68.58
X86.36Y-56.007
X86.36Y-86.36
X91.694Y-62.357
X106.426Y-87.681
X116.129Y-85.496
X122.047Y-55.88
X127.0Y-82.55
X127.508Y-73.101
X133.248Y-61.57
T3
X99.695Y-53.34
X102.235Y-53.34
X104.775Y-53.34
X107.315Y-53.34
X109.855Y-53.34
X121.92Y-62.23
X121.92Y-64.77
X121.92Y-67.31
X121.92Y-69.85
X121.92Y-72.39
X121.92Y-74.93
X121.92Y-77.47
X124.46Y-62.23
X124.46Y-64.77
X124.46Y-67.31
X124.46Y-69.85
X124.46Y-72.39
X124.46Y-74.93
X124.46Y-77.47
T4
X99.695Y-66.04
X99.695Y-68.58
X99.695Y-71.12
X99.695Y-73.66
T0
M30
