M48
; DRILL file {KiCad (5.1.10)-1} date 07/15/21 21:28:42
; FORMAT={-:-/ absolute / metric / decimal}
; #@! TF.CreationDate,2021-07-15T21:28:42+02:00
; #@! TF.GenerationSoftware,Kicad,Pcbnew,(5.1.10)-1
; #@! TF.FileFunction,Plated,1,2,PTH
FMAT,2
METRIC
T1C0.300
T2C0.500
T3C1.000
T4C1.190
%
G90
G05
T1
X71.85Y-79.75
X72.525Y-81.325
X87.05Y-80.3
X88.277Y-80.078
X88.65Y-79.427
X89.25Y-78.85
X90.25Y-82.175
X91.05Y-79.1
X92.05Y-78.825
X92.2Y-79.575
X92.6Y-67.3
X92.65Y-68.6
X92.75Y-69.85
X92.8Y-72.4
X92.8Y-78.85
X92.8Y-82.8
X94.0Y-75.225
X94.05Y-77.0
X94.552Y-76.423
X94.8Y-78.0
X94.825Y-75.2
X95.25Y-78.6
X95.513Y-79.302
X96.083Y-79.833
X97.275Y-73.475
X106.96Y-71.54
X106.97Y-70.79
X107.375Y-79.4
X107.4Y-80.325
X107.625Y-75.575
X107.675Y-73.575
X108.225Y-74.975
X109.29Y-77.64
X110.3Y-74.75
X111.125Y-64.625
X111.25Y-72.2
X112.625Y-72.35
X114.225Y-77.625
X114.825Y-78.225
X115.325Y-79.9
X115.525Y-64.65
X118.9Y-60.975
X128.8Y-63.75
T2
X66.125Y-69.8
X70.9Y-59.05
X72.225Y-77.125
X73.275Y-77.125
X74.325Y-77.125
X77.025Y-81.5
X78.85Y-80.38
X81.85Y-66.775
X82.15Y-83.6
X83.9Y-80.9
X84.075Y-86.55
X84.89Y-75.76
X85.11Y-64.1
X87.0Y-73.7
X89.12Y-64.14
X89.975Y-83.6
X90.75Y-56.375
X93.726Y-85.598
X95.2Y-56.425
X95.29Y-63.84
X97.2Y-56.25
X97.23Y-61.85
X100.12Y-81.19
X101.55Y-87.19
X103.325Y-73.975
X105.0Y-63.4
X108.15Y-58.45
X108.75Y-67.85
X112.925Y-68.35
X117.8Y-68.625
X121.575Y-80.575
X133.03Y-62.45
T3
X90.675Y-52.725
X93.215Y-52.725
X95.755Y-52.725
X98.295Y-52.725
X100.835Y-52.725
X121.92Y-62.23
X121.92Y-64.77
X121.92Y-67.31
X121.92Y-69.85
X121.92Y-72.39
X121.92Y-74.93
X121.92Y-77.47
X124.46Y-62.23
X124.46Y-64.77
X124.46Y-67.31
X124.46Y-69.85
X124.46Y-72.39
X124.46Y-74.93
X124.46Y-77.47
T4
X99.695Y-66.04
X99.695Y-68.58
X99.695Y-71.12
X99.695Y-73.66
T0
M30
