G04 #@! TF.GenerationSoftware,KiCad,Pcbnew,(5.1.10)-1*
G04 #@! TF.CreationDate,2021-07-15T21:28:37+02:00*
G04 #@! TF.ProjectId,MSPBMP,4d535042-4d50-42e6-9b69-6361645f7063,rev?*
G04 #@! TF.SameCoordinates,Original*
G04 #@! TF.FileFunction,Soldermask,Top*
G04 #@! TF.FilePolarity,Negative*
%FSLAX46Y46*%
G04 Gerber Fmt 4.6, Leading zero omitted, Abs format (unit mm)*
G04 Created by KiCad (PCBNEW (5.1.10)-1) date 2021-07-15 21:28:37*
%MOMM*%
%LPD*%
G01*
G04 APERTURE LIST*
%ADD10C,0.150000*%
%ADD11C,1.200000*%
%ADD12O,1.900000X1.900000*%
%ADD13C,4.200000*%
%ADD14O,2.390000X1.940000*%
G04 APERTURE END LIST*
G36*
G01*
X108500000Y-74400000D02*
X108200000Y-74400000D01*
G75*
G02*
X108050000Y-74250000I0J150000D01*
G01*
X108050000Y-72875000D01*
G75*
G02*
X108200000Y-72725000I150000J0D01*
G01*
X108500000Y-72725000D01*
G75*
G02*
X108650000Y-72875000I0J-150000D01*
G01*
X108650000Y-74250000D01*
G75*
G02*
X108500000Y-74400000I-150000J0D01*
G01*
G37*
G36*
G01*
X109150000Y-74400000D02*
X108850000Y-74400000D01*
G75*
G02*
X108700000Y-74250000I0J150000D01*
G01*
X108700000Y-72875000D01*
G75*
G02*
X108850000Y-72725000I150000J0D01*
G01*
X109150000Y-72725000D01*
G75*
G02*
X109300000Y-72875000I0J-150000D01*
G01*
X109300000Y-74250000D01*
G75*
G02*
X109150000Y-74400000I-150000J0D01*
G01*
G37*
G36*
G01*
X109800000Y-74400000D02*
X109500000Y-74400000D01*
G75*
G02*
X109350000Y-74250000I0J150000D01*
G01*
X109350000Y-72875000D01*
G75*
G02*
X109500000Y-72725000I150000J0D01*
G01*
X109800000Y-72725000D01*
G75*
G02*
X109950000Y-72875000I0J-150000D01*
G01*
X109950000Y-74250000D01*
G75*
G02*
X109800000Y-74400000I-150000J0D01*
G01*
G37*
G36*
G01*
X110450000Y-74400000D02*
X110150000Y-74400000D01*
G75*
G02*
X110000000Y-74250000I0J150000D01*
G01*
X110000000Y-72875000D01*
G75*
G02*
X110150000Y-72725000I150000J0D01*
G01*
X110450000Y-72725000D01*
G75*
G02*
X110600000Y-72875000I0J-150000D01*
G01*
X110600000Y-74250000D01*
G75*
G02*
X110450000Y-74400000I-150000J0D01*
G01*
G37*
G36*
G01*
X111100000Y-74400000D02*
X110800000Y-74400000D01*
G75*
G02*
X110650000Y-74250000I0J150000D01*
G01*
X110650000Y-72875000D01*
G75*
G02*
X110800000Y-72725000I150000J0D01*
G01*
X111100000Y-72725000D01*
G75*
G02*
X111250000Y-72875000I0J-150000D01*
G01*
X111250000Y-74250000D01*
G75*
G02*
X111100000Y-74400000I-150000J0D01*
G01*
G37*
G36*
G01*
X111750000Y-74400000D02*
X111450000Y-74400000D01*
G75*
G02*
X111300000Y-74250000I0J150000D01*
G01*
X111300000Y-72875000D01*
G75*
G02*
X111450000Y-72725000I150000J0D01*
G01*
X111750000Y-72725000D01*
G75*
G02*
X111900000Y-72875000I0J-150000D01*
G01*
X111900000Y-74250000D01*
G75*
G02*
X111750000Y-74400000I-150000J0D01*
G01*
G37*
G36*
G01*
X112400000Y-74400000D02*
X112100000Y-74400000D01*
G75*
G02*
X111950000Y-74250000I0J150000D01*
G01*
X111950000Y-72875000D01*
G75*
G02*
X112100000Y-72725000I150000J0D01*
G01*
X112400000Y-72725000D01*
G75*
G02*
X112550000Y-72875000I0J-150000D01*
G01*
X112550000Y-74250000D01*
G75*
G02*
X112400000Y-74400000I-150000J0D01*
G01*
G37*
G36*
G01*
X113050000Y-74400000D02*
X112750000Y-74400000D01*
G75*
G02*
X112600000Y-74250000I0J150000D01*
G01*
X112600000Y-72875000D01*
G75*
G02*
X112750000Y-72725000I150000J0D01*
G01*
X113050000Y-72725000D01*
G75*
G02*
X113200000Y-72875000I0J-150000D01*
G01*
X113200000Y-74250000D01*
G75*
G02*
X113050000Y-74400000I-150000J0D01*
G01*
G37*
G36*
G01*
X113700000Y-74400000D02*
X113400000Y-74400000D01*
G75*
G02*
X113250000Y-74250000I0J150000D01*
G01*
X113250000Y-72875000D01*
G75*
G02*
X113400000Y-72725000I150000J0D01*
G01*
X113700000Y-72725000D01*
G75*
G02*
X113850000Y-72875000I0J-150000D01*
G01*
X113850000Y-74250000D01*
G75*
G02*
X113700000Y-74400000I-150000J0D01*
G01*
G37*
G36*
G01*
X114350000Y-74400000D02*
X114050000Y-74400000D01*
G75*
G02*
X113900000Y-74250000I0J150000D01*
G01*
X113900000Y-72875000D01*
G75*
G02*
X114050000Y-72725000I150000J0D01*
G01*
X114350000Y-72725000D01*
G75*
G02*
X114500000Y-72875000I0J-150000D01*
G01*
X114500000Y-74250000D01*
G75*
G02*
X114350000Y-74400000I-150000J0D01*
G01*
G37*
G36*
G01*
X114350000Y-80125000D02*
X114050000Y-80125000D01*
G75*
G02*
X113900000Y-79975000I0J150000D01*
G01*
X113900000Y-78600000D01*
G75*
G02*
X114050000Y-78450000I150000J0D01*
G01*
X114350000Y-78450000D01*
G75*
G02*
X114500000Y-78600000I0J-150000D01*
G01*
X114500000Y-79975000D01*
G75*
G02*
X114350000Y-80125000I-150000J0D01*
G01*
G37*
G36*
G01*
X113700000Y-80125000D02*
X113400000Y-80125000D01*
G75*
G02*
X113250000Y-79975000I0J150000D01*
G01*
X113250000Y-78600000D01*
G75*
G02*
X113400000Y-78450000I150000J0D01*
G01*
X113700000Y-78450000D01*
G75*
G02*
X113850000Y-78600000I0J-150000D01*
G01*
X113850000Y-79975000D01*
G75*
G02*
X113700000Y-80125000I-150000J0D01*
G01*
G37*
G36*
G01*
X113050000Y-80125000D02*
X112750000Y-80125000D01*
G75*
G02*
X112600000Y-79975000I0J150000D01*
G01*
X112600000Y-78600000D01*
G75*
G02*
X112750000Y-78450000I150000J0D01*
G01*
X113050000Y-78450000D01*
G75*
G02*
X113200000Y-78600000I0J-150000D01*
G01*
X113200000Y-79975000D01*
G75*
G02*
X113050000Y-80125000I-150000J0D01*
G01*
G37*
G36*
G01*
X112400000Y-80125000D02*
X112100000Y-80125000D01*
G75*
G02*
X111950000Y-79975000I0J150000D01*
G01*
X111950000Y-78600000D01*
G75*
G02*
X112100000Y-78450000I150000J0D01*
G01*
X112400000Y-78450000D01*
G75*
G02*
X112550000Y-78600000I0J-150000D01*
G01*
X112550000Y-79975000D01*
G75*
G02*
X112400000Y-80125000I-150000J0D01*
G01*
G37*
G36*
G01*
X111750000Y-80125000D02*
X111450000Y-80125000D01*
G75*
G02*
X111300000Y-79975000I0J150000D01*
G01*
X111300000Y-78600000D01*
G75*
G02*
X111450000Y-78450000I150000J0D01*
G01*
X111750000Y-78450000D01*
G75*
G02*
X111900000Y-78600000I0J-150000D01*
G01*
X111900000Y-79975000D01*
G75*
G02*
X111750000Y-80125000I-150000J0D01*
G01*
G37*
G36*
G01*
X111100000Y-80125000D02*
X110800000Y-80125000D01*
G75*
G02*
X110650000Y-79975000I0J150000D01*
G01*
X110650000Y-78600000D01*
G75*
G02*
X110800000Y-78450000I150000J0D01*
G01*
X111100000Y-78450000D01*
G75*
G02*
X111250000Y-78600000I0J-150000D01*
G01*
X111250000Y-79975000D01*
G75*
G02*
X111100000Y-80125000I-150000J0D01*
G01*
G37*
G36*
G01*
X110450000Y-80125000D02*
X110150000Y-80125000D01*
G75*
G02*
X110000000Y-79975000I0J150000D01*
G01*
X110000000Y-78600000D01*
G75*
G02*
X110150000Y-78450000I150000J0D01*
G01*
X110450000Y-78450000D01*
G75*
G02*
X110600000Y-78600000I0J-150000D01*
G01*
X110600000Y-79975000D01*
G75*
G02*
X110450000Y-80125000I-150000J0D01*
G01*
G37*
G36*
G01*
X109800000Y-80125000D02*
X109500000Y-80125000D01*
G75*
G02*
X109350000Y-79975000I0J150000D01*
G01*
X109350000Y-78600000D01*
G75*
G02*
X109500000Y-78450000I150000J0D01*
G01*
X109800000Y-78450000D01*
G75*
G02*
X109950000Y-78600000I0J-150000D01*
G01*
X109950000Y-79975000D01*
G75*
G02*
X109800000Y-80125000I-150000J0D01*
G01*
G37*
G36*
G01*
X109150000Y-80125000D02*
X108850000Y-80125000D01*
G75*
G02*
X108700000Y-79975000I0J150000D01*
G01*
X108700000Y-78600000D01*
G75*
G02*
X108850000Y-78450000I150000J0D01*
G01*
X109150000Y-78450000D01*
G75*
G02*
X109300000Y-78600000I0J-150000D01*
G01*
X109300000Y-79975000D01*
G75*
G02*
X109150000Y-80125000I-150000J0D01*
G01*
G37*
G36*
G01*
X108500000Y-80125000D02*
X108200000Y-80125000D01*
G75*
G02*
X108050000Y-79975000I0J150000D01*
G01*
X108050000Y-78600000D01*
G75*
G02*
X108200000Y-78450000I150000J0D01*
G01*
X108500000Y-78450000D01*
G75*
G02*
X108650000Y-78600000I0J-150000D01*
G01*
X108650000Y-79975000D01*
G75*
G02*
X108500000Y-80125000I-150000J0D01*
G01*
G37*
G36*
G01*
X116250000Y-73825000D02*
X116250000Y-73425000D01*
G75*
G02*
X116350000Y-73325000I100000J0D01*
G01*
X116950000Y-73325000D01*
G75*
G02*
X117050000Y-73425000I0J-100000D01*
G01*
X117050000Y-73825000D01*
G75*
G02*
X116950000Y-73925000I-100000J0D01*
G01*
X116350000Y-73925000D01*
G75*
G02*
X116250000Y-73825000I0J100000D01*
G01*
G37*
G36*
G01*
X116250000Y-74775000D02*
X116250000Y-74475000D01*
G75*
G02*
X116350000Y-74375000I100000J0D01*
G01*
X116950000Y-74375000D01*
G75*
G02*
X117050000Y-74475000I0J-100000D01*
G01*
X117050000Y-74775000D01*
G75*
G02*
X116950000Y-74875000I-100000J0D01*
G01*
X116350000Y-74875000D01*
G75*
G02*
X116250000Y-74775000I0J100000D01*
G01*
G37*
G36*
G01*
X116250000Y-74275000D02*
X116250000Y-73975000D01*
G75*
G02*
X116350000Y-73875000I100000J0D01*
G01*
X116950000Y-73875000D01*
G75*
G02*
X117050000Y-73975000I0J-100000D01*
G01*
X117050000Y-74275000D01*
G75*
G02*
X116950000Y-74375000I-100000J0D01*
G01*
X116350000Y-74375000D01*
G75*
G02*
X116250000Y-74275000I0J100000D01*
G01*
G37*
G36*
G01*
X116250000Y-75325000D02*
X116250000Y-74925000D01*
G75*
G02*
X116350000Y-74825000I100000J0D01*
G01*
X116950000Y-74825000D01*
G75*
G02*
X117050000Y-74925000I0J-100000D01*
G01*
X117050000Y-75325000D01*
G75*
G02*
X116950000Y-75425000I-100000J0D01*
G01*
X116350000Y-75425000D01*
G75*
G02*
X116250000Y-75325000I0J100000D01*
G01*
G37*
G36*
G01*
X117350000Y-74275000D02*
X117350000Y-73975000D01*
G75*
G02*
X117450000Y-73875000I100000J0D01*
G01*
X118050000Y-73875000D01*
G75*
G02*
X118150000Y-73975000I0J-100000D01*
G01*
X118150000Y-74275000D01*
G75*
G02*
X118050000Y-74375000I-100000J0D01*
G01*
X117450000Y-74375000D01*
G75*
G02*
X117350000Y-74275000I0J100000D01*
G01*
G37*
G36*
G01*
X117350000Y-73825000D02*
X117350000Y-73425000D01*
G75*
G02*
X117450000Y-73325000I100000J0D01*
G01*
X118050000Y-73325000D01*
G75*
G02*
X118150000Y-73425000I0J-100000D01*
G01*
X118150000Y-73825000D01*
G75*
G02*
X118050000Y-73925000I-100000J0D01*
G01*
X117450000Y-73925000D01*
G75*
G02*
X117350000Y-73825000I0J100000D01*
G01*
G37*
G36*
G01*
X117350000Y-74775000D02*
X117350000Y-74475000D01*
G75*
G02*
X117450000Y-74375000I100000J0D01*
G01*
X118050000Y-74375000D01*
G75*
G02*
X118150000Y-74475000I0J-100000D01*
G01*
X118150000Y-74775000D01*
G75*
G02*
X118050000Y-74875000I-100000J0D01*
G01*
X117450000Y-74875000D01*
G75*
G02*
X117350000Y-74775000I0J100000D01*
G01*
G37*
G36*
G01*
X117350000Y-75325000D02*
X117350000Y-74925000D01*
G75*
G02*
X117450000Y-74825000I100000J0D01*
G01*
X118050000Y-74825000D01*
G75*
G02*
X118150000Y-74925000I0J-100000D01*
G01*
X118150000Y-75325000D01*
G75*
G02*
X118050000Y-75425000I-100000J0D01*
G01*
X117450000Y-75425000D01*
G75*
G02*
X117350000Y-75325000I0J100000D01*
G01*
G37*
G36*
G01*
X116250000Y-76700000D02*
X116250000Y-76300000D01*
G75*
G02*
X116350000Y-76200000I100000J0D01*
G01*
X116950000Y-76200000D01*
G75*
G02*
X117050000Y-76300000I0J-100000D01*
G01*
X117050000Y-76700000D01*
G75*
G02*
X116950000Y-76800000I-100000J0D01*
G01*
X116350000Y-76800000D01*
G75*
G02*
X116250000Y-76700000I0J100000D01*
G01*
G37*
G36*
G01*
X116250000Y-77650000D02*
X116250000Y-77350000D01*
G75*
G02*
X116350000Y-77250000I100000J0D01*
G01*
X116950000Y-77250000D01*
G75*
G02*
X117050000Y-77350000I0J-100000D01*
G01*
X117050000Y-77650000D01*
G75*
G02*
X116950000Y-77750000I-100000J0D01*
G01*
X116350000Y-77750000D01*
G75*
G02*
X116250000Y-77650000I0J100000D01*
G01*
G37*
G36*
G01*
X116250000Y-77150000D02*
X116250000Y-76850000D01*
G75*
G02*
X116350000Y-76750000I100000J0D01*
G01*
X116950000Y-76750000D01*
G75*
G02*
X117050000Y-76850000I0J-100000D01*
G01*
X117050000Y-77150000D01*
G75*
G02*
X116950000Y-77250000I-100000J0D01*
G01*
X116350000Y-77250000D01*
G75*
G02*
X116250000Y-77150000I0J100000D01*
G01*
G37*
G36*
G01*
X116250000Y-78200000D02*
X116250000Y-77800000D01*
G75*
G02*
X116350000Y-77700000I100000J0D01*
G01*
X116950000Y-77700000D01*
G75*
G02*
X117050000Y-77800000I0J-100000D01*
G01*
X117050000Y-78200000D01*
G75*
G02*
X116950000Y-78300000I-100000J0D01*
G01*
X116350000Y-78300000D01*
G75*
G02*
X116250000Y-78200000I0J100000D01*
G01*
G37*
G36*
G01*
X117350000Y-77150000D02*
X117350000Y-76850000D01*
G75*
G02*
X117450000Y-76750000I100000J0D01*
G01*
X118050000Y-76750000D01*
G75*
G02*
X118150000Y-76850000I0J-100000D01*
G01*
X118150000Y-77150000D01*
G75*
G02*
X118050000Y-77250000I-100000J0D01*
G01*
X117450000Y-77250000D01*
G75*
G02*
X117350000Y-77150000I0J100000D01*
G01*
G37*
G36*
G01*
X117350000Y-76700000D02*
X117350000Y-76300000D01*
G75*
G02*
X117450000Y-76200000I100000J0D01*
G01*
X118050000Y-76200000D01*
G75*
G02*
X118150000Y-76300000I0J-100000D01*
G01*
X118150000Y-76700000D01*
G75*
G02*
X118050000Y-76800000I-100000J0D01*
G01*
X117450000Y-76800000D01*
G75*
G02*
X117350000Y-76700000I0J100000D01*
G01*
G37*
G36*
G01*
X117350000Y-77650000D02*
X117350000Y-77350000D01*
G75*
G02*
X117450000Y-77250000I100000J0D01*
G01*
X118050000Y-77250000D01*
G75*
G02*
X118150000Y-77350000I0J-100000D01*
G01*
X118150000Y-77650000D01*
G75*
G02*
X118050000Y-77750000I-100000J0D01*
G01*
X117450000Y-77750000D01*
G75*
G02*
X117350000Y-77650000I0J100000D01*
G01*
G37*
G36*
G01*
X117350000Y-78200000D02*
X117350000Y-77800000D01*
G75*
G02*
X117450000Y-77700000I100000J0D01*
G01*
X118050000Y-77700000D01*
G75*
G02*
X118150000Y-77800000I0J-100000D01*
G01*
X118150000Y-78200000D01*
G75*
G02*
X118050000Y-78300000I-100000J0D01*
G01*
X117450000Y-78300000D01*
G75*
G02*
X117350000Y-78200000I0J100000D01*
G01*
G37*
G36*
G01*
X110555000Y-66175000D02*
X110555000Y-66825000D01*
G75*
G02*
X110455000Y-66925000I-100000J0D01*
G01*
X108895000Y-66925000D01*
G75*
G02*
X108795000Y-66825000I0J100000D01*
G01*
X108795000Y-66175000D01*
G75*
G02*
X108895000Y-66075000I100000J0D01*
G01*
X110455000Y-66075000D01*
G75*
G02*
X110555000Y-66175000I0J-100000D01*
G01*
G37*
G36*
G01*
X110555000Y-64275000D02*
X110555000Y-64925000D01*
G75*
G02*
X110455000Y-65025000I-100000J0D01*
G01*
X108895000Y-65025000D01*
G75*
G02*
X108795000Y-64925000I0J100000D01*
G01*
X108795000Y-64275000D01*
G75*
G02*
X108895000Y-64175000I100000J0D01*
G01*
X110455000Y-64175000D01*
G75*
G02*
X110555000Y-64275000I0J-100000D01*
G01*
G37*
G36*
G01*
X113255000Y-64275000D02*
X113255000Y-64925000D01*
G75*
G02*
X113155000Y-65025000I-100000J0D01*
G01*
X111595000Y-65025000D01*
G75*
G02*
X111495000Y-64925000I0J100000D01*
G01*
X111495000Y-64275000D01*
G75*
G02*
X111595000Y-64175000I100000J0D01*
G01*
X113155000Y-64175000D01*
G75*
G02*
X113255000Y-64275000I0J-100000D01*
G01*
G37*
G36*
G01*
X113255000Y-65225000D02*
X113255000Y-65875000D01*
G75*
G02*
X113155000Y-65975000I-100000J0D01*
G01*
X111595000Y-65975000D01*
G75*
G02*
X111495000Y-65875000I0J100000D01*
G01*
X111495000Y-65225000D01*
G75*
G02*
X111595000Y-65125000I100000J0D01*
G01*
X113155000Y-65125000D01*
G75*
G02*
X113255000Y-65225000I0J-100000D01*
G01*
G37*
G36*
G01*
X113255000Y-66175000D02*
X113255000Y-66825000D01*
G75*
G02*
X113155000Y-66925000I-100000J0D01*
G01*
X111595000Y-66925000D01*
G75*
G02*
X111495000Y-66825000I0J100000D01*
G01*
X111495000Y-66175000D01*
G75*
G02*
X111595000Y-66075000I100000J0D01*
G01*
X113155000Y-66075000D01*
G75*
G02*
X113255000Y-66175000I0J-100000D01*
G01*
G37*
D10*
G36*
X116076921Y-63880491D02*
G01*
X116082612Y-63861732D01*
X116091853Y-63844443D01*
X116104289Y-63829289D01*
X116119443Y-63816853D01*
X116136732Y-63807612D01*
X116155491Y-63801921D01*
X116175000Y-63800000D01*
X117675000Y-63800000D01*
X117694509Y-63801921D01*
X117713268Y-63807612D01*
X117730557Y-63816853D01*
X117745711Y-63829289D01*
X117758147Y-63844443D01*
X117767388Y-63861732D01*
X117773079Y-63880491D01*
X117775000Y-63900000D01*
X117775000Y-64450000D01*
X117774398Y-64456114D01*
X117774398Y-64474534D01*
X117773916Y-64484337D01*
X117769106Y-64533168D01*
X117767667Y-64542873D01*
X117758095Y-64590998D01*
X117755710Y-64600519D01*
X117741466Y-64647474D01*
X117738160Y-64656712D01*
X117719383Y-64702045D01*
X117715186Y-64710919D01*
X117692055Y-64754192D01*
X117687012Y-64762607D01*
X117659752Y-64803406D01*
X117653905Y-64811290D01*
X117622777Y-64849219D01*
X117616187Y-64856490D01*
X117581490Y-64891187D01*
X117574219Y-64897777D01*
X117536290Y-64928905D01*
X117528406Y-64934752D01*
X117487607Y-64962012D01*
X117479192Y-64967055D01*
X117435919Y-64990186D01*
X117427045Y-64994383D01*
X117381712Y-65013160D01*
X117372474Y-65016466D01*
X117325519Y-65030710D01*
X117315998Y-65033095D01*
X117267873Y-65042667D01*
X117258168Y-65044106D01*
X117209337Y-65048916D01*
X117199534Y-65049398D01*
X117181114Y-65049398D01*
X117175000Y-65050000D01*
X116675000Y-65050000D01*
X116668886Y-65049398D01*
X116650466Y-65049398D01*
X116640663Y-65048916D01*
X116591832Y-65044106D01*
X116582127Y-65042667D01*
X116534002Y-65033095D01*
X116524481Y-65030710D01*
X116477526Y-65016466D01*
X116468288Y-65013160D01*
X116422955Y-64994383D01*
X116414081Y-64990186D01*
X116370808Y-64967055D01*
X116362393Y-64962012D01*
X116321594Y-64934752D01*
X116313710Y-64928905D01*
X116275781Y-64897777D01*
X116268510Y-64891187D01*
X116233813Y-64856490D01*
X116227223Y-64849219D01*
X116196095Y-64811290D01*
X116190248Y-64803406D01*
X116162988Y-64762607D01*
X116157945Y-64754192D01*
X116134814Y-64710919D01*
X116130617Y-64702045D01*
X116111840Y-64656712D01*
X116108534Y-64647474D01*
X116094290Y-64600519D01*
X116091905Y-64590998D01*
X116082333Y-64542873D01*
X116080894Y-64533168D01*
X116076084Y-64484337D01*
X116075602Y-64474534D01*
X116075602Y-64456114D01*
X116075000Y-64450000D01*
X116075000Y-63900000D01*
X116076921Y-63880491D01*
G37*
G36*
G01*
X117675000Y-63750000D02*
X116175000Y-63750000D01*
G75*
G02*
X116075000Y-63650000I0J100000D01*
G01*
X116075000Y-62650000D01*
G75*
G02*
X116175000Y-62550000I100000J0D01*
G01*
X117675000Y-62550000D01*
G75*
G02*
X117775000Y-62650000I0J-100000D01*
G01*
X117775000Y-63650000D01*
G75*
G02*
X117675000Y-63750000I-100000J0D01*
G01*
G37*
G36*
X116075602Y-61843886D02*
G01*
X116075602Y-61825466D01*
X116076084Y-61815663D01*
X116080894Y-61766832D01*
X116082333Y-61757127D01*
X116091905Y-61709002D01*
X116094290Y-61699481D01*
X116108534Y-61652526D01*
X116111840Y-61643288D01*
X116130617Y-61597955D01*
X116134814Y-61589081D01*
X116157945Y-61545808D01*
X116162988Y-61537393D01*
X116190248Y-61496594D01*
X116196095Y-61488710D01*
X116227223Y-61450781D01*
X116233813Y-61443510D01*
X116268510Y-61408813D01*
X116275781Y-61402223D01*
X116313710Y-61371095D01*
X116321594Y-61365248D01*
X116362393Y-61337988D01*
X116370808Y-61332945D01*
X116414081Y-61309814D01*
X116422955Y-61305617D01*
X116468288Y-61286840D01*
X116477526Y-61283534D01*
X116524481Y-61269290D01*
X116534002Y-61266905D01*
X116582127Y-61257333D01*
X116591832Y-61255894D01*
X116640663Y-61251084D01*
X116650466Y-61250602D01*
X116668886Y-61250602D01*
X116675000Y-61250000D01*
X117175000Y-61250000D01*
X117181114Y-61250602D01*
X117199534Y-61250602D01*
X117209337Y-61251084D01*
X117258168Y-61255894D01*
X117267873Y-61257333D01*
X117315998Y-61266905D01*
X117325519Y-61269290D01*
X117372474Y-61283534D01*
X117381712Y-61286840D01*
X117427045Y-61305617D01*
X117435919Y-61309814D01*
X117479192Y-61332945D01*
X117487607Y-61337988D01*
X117528406Y-61365248D01*
X117536290Y-61371095D01*
X117574219Y-61402223D01*
X117581490Y-61408813D01*
X117616187Y-61443510D01*
X117622777Y-61450781D01*
X117653905Y-61488710D01*
X117659752Y-61496594D01*
X117687012Y-61537393D01*
X117692055Y-61545808D01*
X117715186Y-61589081D01*
X117719383Y-61597955D01*
X117738160Y-61643288D01*
X117741466Y-61652526D01*
X117755710Y-61699481D01*
X117758095Y-61709002D01*
X117767667Y-61757127D01*
X117769106Y-61766832D01*
X117773916Y-61815663D01*
X117774398Y-61825466D01*
X117774398Y-61843886D01*
X117775000Y-61850000D01*
X117775000Y-62400000D01*
X117773079Y-62419509D01*
X117767388Y-62438268D01*
X117758147Y-62455557D01*
X117745711Y-62470711D01*
X117730557Y-62483147D01*
X117713268Y-62492388D01*
X117694509Y-62498079D01*
X117675000Y-62500000D01*
X116175000Y-62500000D01*
X116155491Y-62498079D01*
X116136732Y-62492388D01*
X116119443Y-62483147D01*
X116104289Y-62470711D01*
X116091853Y-62455557D01*
X116082612Y-62438268D01*
X116076921Y-62419509D01*
X116075000Y-62400000D01*
X116075000Y-61850000D01*
X116075602Y-61843886D01*
G37*
G36*
G01*
X113912500Y-65775000D02*
X114487500Y-65775000D01*
G75*
G02*
X114775000Y-66062500I0J-287500D01*
G01*
X114775000Y-66737500D01*
G75*
G02*
X114487500Y-67025000I-287500J0D01*
G01*
X113912500Y-67025000D01*
G75*
G02*
X113625000Y-66737500I0J287500D01*
G01*
X113625000Y-66062500D01*
G75*
G02*
X113912500Y-65775000I287500J0D01*
G01*
G37*
G36*
G01*
X113912500Y-64025000D02*
X114487500Y-64025000D01*
G75*
G02*
X114775000Y-64312500I0J-287500D01*
G01*
X114775000Y-64987500D01*
G75*
G02*
X114487500Y-65275000I-287500J0D01*
G01*
X113912500Y-65275000D01*
G75*
G02*
X113625000Y-64987500I0J287500D01*
G01*
X113625000Y-64312500D01*
G75*
G02*
X113912500Y-64025000I287500J0D01*
G01*
G37*
G36*
G01*
X85695000Y-67680000D02*
X85695000Y-66940000D01*
G75*
G02*
X85795000Y-66840000I100000J0D01*
G01*
X88195000Y-66840000D01*
G75*
G02*
X88295000Y-66940000I0J-100000D01*
G01*
X88295000Y-67680000D01*
G75*
G02*
X88195000Y-67780000I-100000J0D01*
G01*
X85795000Y-67780000D01*
G75*
G02*
X85695000Y-67680000I0J100000D01*
G01*
G37*
G36*
G01*
X89595000Y-67680000D02*
X89595000Y-66940000D01*
G75*
G02*
X89695000Y-66840000I100000J0D01*
G01*
X92095000Y-66840000D01*
G75*
G02*
X92195000Y-66940000I0J-100000D01*
G01*
X92195000Y-67680000D01*
G75*
G02*
X92095000Y-67780000I-100000J0D01*
G01*
X89695000Y-67780000D01*
G75*
G02*
X89595000Y-67680000I0J100000D01*
G01*
G37*
G36*
G01*
X85695000Y-68950000D02*
X85695000Y-68210000D01*
G75*
G02*
X85795000Y-68110000I100000J0D01*
G01*
X88195000Y-68110000D01*
G75*
G02*
X88295000Y-68210000I0J-100000D01*
G01*
X88295000Y-68950000D01*
G75*
G02*
X88195000Y-69050000I-100000J0D01*
G01*
X85795000Y-69050000D01*
G75*
G02*
X85695000Y-68950000I0J100000D01*
G01*
G37*
G36*
G01*
X89595000Y-68950000D02*
X89595000Y-68210000D01*
G75*
G02*
X89695000Y-68110000I100000J0D01*
G01*
X92095000Y-68110000D01*
G75*
G02*
X92195000Y-68210000I0J-100000D01*
G01*
X92195000Y-68950000D01*
G75*
G02*
X92095000Y-69050000I-100000J0D01*
G01*
X89695000Y-69050000D01*
G75*
G02*
X89595000Y-68950000I0J100000D01*
G01*
G37*
G36*
G01*
X85695000Y-70220000D02*
X85695000Y-69480000D01*
G75*
G02*
X85795000Y-69380000I100000J0D01*
G01*
X88195000Y-69380000D01*
G75*
G02*
X88295000Y-69480000I0J-100000D01*
G01*
X88295000Y-70220000D01*
G75*
G02*
X88195000Y-70320000I-100000J0D01*
G01*
X85795000Y-70320000D01*
G75*
G02*
X85695000Y-70220000I0J100000D01*
G01*
G37*
G36*
G01*
X89595000Y-70220000D02*
X89595000Y-69480000D01*
G75*
G02*
X89695000Y-69380000I100000J0D01*
G01*
X92095000Y-69380000D01*
G75*
G02*
X92195000Y-69480000I0J-100000D01*
G01*
X92195000Y-70220000D01*
G75*
G02*
X92095000Y-70320000I-100000J0D01*
G01*
X89695000Y-70320000D01*
G75*
G02*
X89595000Y-70220000I0J100000D01*
G01*
G37*
G36*
G01*
X85695000Y-71490000D02*
X85695000Y-70750000D01*
G75*
G02*
X85795000Y-70650000I100000J0D01*
G01*
X88195000Y-70650000D01*
G75*
G02*
X88295000Y-70750000I0J-100000D01*
G01*
X88295000Y-71490000D01*
G75*
G02*
X88195000Y-71590000I-100000J0D01*
G01*
X85795000Y-71590000D01*
G75*
G02*
X85695000Y-71490000I0J100000D01*
G01*
G37*
G36*
G01*
X89595000Y-71490000D02*
X89595000Y-70750000D01*
G75*
G02*
X89695000Y-70650000I100000J0D01*
G01*
X92095000Y-70650000D01*
G75*
G02*
X92195000Y-70750000I0J-100000D01*
G01*
X92195000Y-71490000D01*
G75*
G02*
X92095000Y-71590000I-100000J0D01*
G01*
X89695000Y-71590000D01*
G75*
G02*
X89595000Y-71490000I0J100000D01*
G01*
G37*
G36*
G01*
X85695000Y-72760000D02*
X85695000Y-72020000D01*
G75*
G02*
X85795000Y-71920000I100000J0D01*
G01*
X88195000Y-71920000D01*
G75*
G02*
X88295000Y-72020000I0J-100000D01*
G01*
X88295000Y-72760000D01*
G75*
G02*
X88195000Y-72860000I-100000J0D01*
G01*
X85795000Y-72860000D01*
G75*
G02*
X85695000Y-72760000I0J100000D01*
G01*
G37*
G36*
G01*
X89595000Y-72760000D02*
X89595000Y-72020000D01*
G75*
G02*
X89695000Y-71920000I100000J0D01*
G01*
X92095000Y-71920000D01*
G75*
G02*
X92195000Y-72020000I0J-100000D01*
G01*
X92195000Y-72760000D01*
G75*
G02*
X92095000Y-72860000I-100000J0D01*
G01*
X89695000Y-72860000D01*
G75*
G02*
X89595000Y-72760000I0J100000D01*
G01*
G37*
G36*
G01*
X82955000Y-79440000D02*
X82545000Y-79440000D01*
G75*
G02*
X82340000Y-79235000I0J205000D01*
G01*
X82340000Y-78710000D01*
G75*
G02*
X82545000Y-78505000I205000J0D01*
G01*
X82955000Y-78505000D01*
G75*
G02*
X83160000Y-78710000I0J-205000D01*
G01*
X83160000Y-79235000D01*
G75*
G02*
X82955000Y-79440000I-205000J0D01*
G01*
G37*
G36*
G01*
X82955000Y-80575000D02*
X82545000Y-80575000D01*
G75*
G02*
X82340000Y-80370000I0J205000D01*
G01*
X82340000Y-79845000D01*
G75*
G02*
X82545000Y-79640000I205000J0D01*
G01*
X82955000Y-79640000D01*
G75*
G02*
X83160000Y-79845000I0J-205000D01*
G01*
X83160000Y-80370000D01*
G75*
G02*
X82955000Y-80575000I-205000J0D01*
G01*
G37*
G36*
G01*
X80545000Y-82230000D02*
X80955000Y-82230000D01*
G75*
G02*
X81160000Y-82435000I0J-205000D01*
G01*
X81160000Y-82960000D01*
G75*
G02*
X80955000Y-83165000I-205000J0D01*
G01*
X80545000Y-83165000D01*
G75*
G02*
X80340000Y-82960000I0J205000D01*
G01*
X80340000Y-82435000D01*
G75*
G02*
X80545000Y-82230000I205000J0D01*
G01*
G37*
G36*
G01*
X80545000Y-81095000D02*
X80955000Y-81095000D01*
G75*
G02*
X81160000Y-81300000I0J-205000D01*
G01*
X81160000Y-81825000D01*
G75*
G02*
X80955000Y-82030000I-205000J0D01*
G01*
X80545000Y-82030000D01*
G75*
G02*
X80340000Y-81825000I0J205000D01*
G01*
X80340000Y-81300000D01*
G75*
G02*
X80545000Y-81095000I205000J0D01*
G01*
G37*
G36*
G01*
X105660000Y-71720000D02*
X105660000Y-71300000D01*
G75*
G02*
X105870000Y-71090000I210000J0D01*
G01*
X106365000Y-71090000D01*
G75*
G02*
X106575000Y-71300000I0J-210000D01*
G01*
X106575000Y-71720000D01*
G75*
G02*
X106365000Y-71930000I-210000J0D01*
G01*
X105870000Y-71930000D01*
G75*
G02*
X105660000Y-71720000I0J210000D01*
G01*
G37*
G36*
G01*
X104465000Y-71720000D02*
X104465000Y-71300000D01*
G75*
G02*
X104675000Y-71090000I210000J0D01*
G01*
X105170000Y-71090000D01*
G75*
G02*
X105380000Y-71300000I0J-210000D01*
G01*
X105380000Y-71720000D01*
G75*
G02*
X105170000Y-71930000I-210000J0D01*
G01*
X104675000Y-71930000D01*
G75*
G02*
X104465000Y-71720000I0J210000D01*
G01*
G37*
G36*
G01*
X105660000Y-70720000D02*
X105660000Y-70300000D01*
G75*
G02*
X105870000Y-70090000I210000J0D01*
G01*
X106365000Y-70090000D01*
G75*
G02*
X106575000Y-70300000I0J-210000D01*
G01*
X106575000Y-70720000D01*
G75*
G02*
X106365000Y-70930000I-210000J0D01*
G01*
X105870000Y-70930000D01*
G75*
G02*
X105660000Y-70720000I0J210000D01*
G01*
G37*
G36*
G01*
X104465000Y-70720000D02*
X104465000Y-70300000D01*
G75*
G02*
X104675000Y-70090000I210000J0D01*
G01*
X105170000Y-70090000D01*
G75*
G02*
X105380000Y-70300000I0J-210000D01*
G01*
X105380000Y-70720000D01*
G75*
G02*
X105170000Y-70930000I-210000J0D01*
G01*
X104675000Y-70930000D01*
G75*
G02*
X104465000Y-70720000I0J210000D01*
G01*
G37*
G36*
G01*
X130375000Y-62162500D02*
X130375000Y-62737500D01*
G75*
G02*
X130087500Y-63025000I-287500J0D01*
G01*
X129387500Y-63025000D01*
G75*
G02*
X129100000Y-62737500I0J287500D01*
G01*
X129100000Y-62162500D01*
G75*
G02*
X129387500Y-61875000I287500J0D01*
G01*
X130087500Y-61875000D01*
G75*
G02*
X130375000Y-62162500I0J-287500D01*
G01*
G37*
G36*
G01*
X132100000Y-62162500D02*
X132100000Y-62737500D01*
G75*
G02*
X131812500Y-63025000I-287500J0D01*
G01*
X131112500Y-63025000D01*
G75*
G02*
X130825000Y-62737500I0J287500D01*
G01*
X130825000Y-62162500D01*
G75*
G02*
X131112500Y-61875000I287500J0D01*
G01*
X131812500Y-61875000D01*
G75*
G02*
X132100000Y-62162500I0J-287500D01*
G01*
G37*
G36*
G01*
X99020000Y-57675000D02*
X99020000Y-57265000D01*
G75*
G02*
X99225000Y-57060000I205000J0D01*
G01*
X99750000Y-57060000D01*
G75*
G02*
X99955000Y-57265000I0J-205000D01*
G01*
X99955000Y-57675000D01*
G75*
G02*
X99750000Y-57880000I-205000J0D01*
G01*
X99225000Y-57880000D01*
G75*
G02*
X99020000Y-57675000I0J205000D01*
G01*
G37*
G36*
G01*
X97885000Y-57675000D02*
X97885000Y-57265000D01*
G75*
G02*
X98090000Y-57060000I205000J0D01*
G01*
X98615000Y-57060000D01*
G75*
G02*
X98820000Y-57265000I0J-205000D01*
G01*
X98820000Y-57675000D01*
G75*
G02*
X98615000Y-57880000I-205000J0D01*
G01*
X98090000Y-57880000D01*
G75*
G02*
X97885000Y-57675000I0J205000D01*
G01*
G37*
G36*
G01*
X99002500Y-55942500D02*
X99002500Y-56517500D01*
G75*
G02*
X98715000Y-56805000I-287500J0D01*
G01*
X98015000Y-56805000D01*
G75*
G02*
X97727500Y-56517500I0J287500D01*
G01*
X97727500Y-55942500D01*
G75*
G02*
X98015000Y-55655000I287500J0D01*
G01*
X98715000Y-55655000D01*
G75*
G02*
X99002500Y-55942500I0J-287500D01*
G01*
G37*
G36*
G01*
X100727500Y-55942500D02*
X100727500Y-56517500D01*
G75*
G02*
X100440000Y-56805000I-287500J0D01*
G01*
X99740000Y-56805000D01*
G75*
G02*
X99452500Y-56517500I0J287500D01*
G01*
X99452500Y-55942500D01*
G75*
G02*
X99740000Y-55655000I287500J0D01*
G01*
X100440000Y-55655000D01*
G75*
G02*
X100727500Y-55942500I0J-287500D01*
G01*
G37*
G36*
G01*
X113535000Y-81565000D02*
X113535000Y-81985000D01*
G75*
G02*
X113325000Y-82195000I-210000J0D01*
G01*
X112830000Y-82195000D01*
G75*
G02*
X112620000Y-81985000I0J210000D01*
G01*
X112620000Y-81565000D01*
G75*
G02*
X112830000Y-81355000I210000J0D01*
G01*
X113325000Y-81355000D01*
G75*
G02*
X113535000Y-81565000I0J-210000D01*
G01*
G37*
G36*
G01*
X114730000Y-81565000D02*
X114730000Y-81985000D01*
G75*
G02*
X114520000Y-82195000I-210000J0D01*
G01*
X114025000Y-82195000D01*
G75*
G02*
X113815000Y-81985000I0J210000D01*
G01*
X113815000Y-81565000D01*
G75*
G02*
X114025000Y-81355000I210000J0D01*
G01*
X114520000Y-81355000D01*
G75*
G02*
X114730000Y-81565000I0J-210000D01*
G01*
G37*
G36*
G01*
X113815000Y-82985000D02*
X113815000Y-82565000D01*
G75*
G02*
X114025000Y-82355000I210000J0D01*
G01*
X114520000Y-82355000D01*
G75*
G02*
X114730000Y-82565000I0J-210000D01*
G01*
X114730000Y-82985000D01*
G75*
G02*
X114520000Y-83195000I-210000J0D01*
G01*
X114025000Y-83195000D01*
G75*
G02*
X113815000Y-82985000I0J210000D01*
G01*
G37*
G36*
G01*
X112620000Y-82985000D02*
X112620000Y-82565000D01*
G75*
G02*
X112830000Y-82355000I210000J0D01*
G01*
X113325000Y-82355000D01*
G75*
G02*
X113535000Y-82565000I0J-210000D01*
G01*
X113535000Y-82985000D01*
G75*
G02*
X113325000Y-83195000I-210000J0D01*
G01*
X112830000Y-83195000D01*
G75*
G02*
X112620000Y-82985000I0J210000D01*
G01*
G37*
G36*
G01*
X130412500Y-63540000D02*
X130412500Y-63960000D01*
G75*
G02*
X130202500Y-64170000I-210000J0D01*
G01*
X129707500Y-64170000D01*
G75*
G02*
X129497500Y-63960000I0J210000D01*
G01*
X129497500Y-63540000D01*
G75*
G02*
X129707500Y-63330000I210000J0D01*
G01*
X130202500Y-63330000D01*
G75*
G02*
X130412500Y-63540000I0J-210000D01*
G01*
G37*
G36*
G01*
X131607500Y-63540000D02*
X131607500Y-63960000D01*
G75*
G02*
X131397500Y-64170000I-210000J0D01*
G01*
X130902500Y-64170000D01*
G75*
G02*
X130692500Y-63960000I0J210000D01*
G01*
X130692500Y-63540000D01*
G75*
G02*
X130902500Y-63330000I210000J0D01*
G01*
X131397500Y-63330000D01*
G75*
G02*
X131607500Y-63540000I0J-210000D01*
G01*
G37*
G36*
G01*
X94590000Y-73610000D02*
X94590000Y-73190000D01*
G75*
G02*
X94800000Y-72980000I210000J0D01*
G01*
X95295000Y-72980000D01*
G75*
G02*
X95505000Y-73190000I0J-210000D01*
G01*
X95505000Y-73610000D01*
G75*
G02*
X95295000Y-73820000I-210000J0D01*
G01*
X94800000Y-73820000D01*
G75*
G02*
X94590000Y-73610000I0J210000D01*
G01*
G37*
G36*
G01*
X93395000Y-73610000D02*
X93395000Y-73190000D01*
G75*
G02*
X93605000Y-72980000I210000J0D01*
G01*
X94100000Y-72980000D01*
G75*
G02*
X94310000Y-73190000I0J-210000D01*
G01*
X94310000Y-73610000D01*
G75*
G02*
X94100000Y-73820000I-210000J0D01*
G01*
X93605000Y-73820000D01*
G75*
G02*
X93395000Y-73610000I0J210000D01*
G01*
G37*
G36*
G01*
X74435000Y-81617000D02*
X74435000Y-81197000D01*
G75*
G02*
X74645000Y-80987000I210000J0D01*
G01*
X75140000Y-80987000D01*
G75*
G02*
X75350000Y-81197000I0J-210000D01*
G01*
X75350000Y-81617000D01*
G75*
G02*
X75140000Y-81827000I-210000J0D01*
G01*
X74645000Y-81827000D01*
G75*
G02*
X74435000Y-81617000I0J210000D01*
G01*
G37*
G36*
G01*
X73240000Y-81617000D02*
X73240000Y-81197000D01*
G75*
G02*
X73450000Y-80987000I210000J0D01*
G01*
X73945000Y-80987000D01*
G75*
G02*
X74155000Y-81197000I0J-210000D01*
G01*
X74155000Y-81617000D01*
G75*
G02*
X73945000Y-81827000I-210000J0D01*
G01*
X73450000Y-81827000D01*
G75*
G02*
X73240000Y-81617000I0J210000D01*
G01*
G37*
G36*
G01*
X103410000Y-52960000D02*
X102990000Y-52960000D01*
G75*
G02*
X102780000Y-52750000I0J210000D01*
G01*
X102780000Y-52255000D01*
G75*
G02*
X102990000Y-52045000I210000J0D01*
G01*
X103410000Y-52045000D01*
G75*
G02*
X103620000Y-52255000I0J-210000D01*
G01*
X103620000Y-52750000D01*
G75*
G02*
X103410000Y-52960000I-210000J0D01*
G01*
G37*
G36*
G01*
X103410000Y-54155000D02*
X102990000Y-54155000D01*
G75*
G02*
X102780000Y-53945000I0J210000D01*
G01*
X102780000Y-53450000D01*
G75*
G02*
X102990000Y-53240000I210000J0D01*
G01*
X103410000Y-53240000D01*
G75*
G02*
X103620000Y-53450000I0J-210000D01*
G01*
X103620000Y-53945000D01*
G75*
G02*
X103410000Y-54155000I-210000J0D01*
G01*
G37*
G36*
G01*
X97910000Y-83760000D02*
X97490000Y-83760000D01*
G75*
G02*
X97280000Y-83550000I0J210000D01*
G01*
X97280000Y-83055000D01*
G75*
G02*
X97490000Y-82845000I210000J0D01*
G01*
X97910000Y-82845000D01*
G75*
G02*
X98120000Y-83055000I0J-210000D01*
G01*
X98120000Y-83550000D01*
G75*
G02*
X97910000Y-83760000I-210000J0D01*
G01*
G37*
G36*
G01*
X97910000Y-84955000D02*
X97490000Y-84955000D01*
G75*
G02*
X97280000Y-84745000I0J210000D01*
G01*
X97280000Y-84250000D01*
G75*
G02*
X97490000Y-84040000I210000J0D01*
G01*
X97910000Y-84040000D01*
G75*
G02*
X98120000Y-84250000I0J-210000D01*
G01*
X98120000Y-84745000D01*
G75*
G02*
X97910000Y-84955000I-210000J0D01*
G01*
G37*
G36*
G01*
X74435000Y-79966000D02*
X74435000Y-79546000D01*
G75*
G02*
X74645000Y-79336000I210000J0D01*
G01*
X75140000Y-79336000D01*
G75*
G02*
X75350000Y-79546000I0J-210000D01*
G01*
X75350000Y-79966000D01*
G75*
G02*
X75140000Y-80176000I-210000J0D01*
G01*
X74645000Y-80176000D01*
G75*
G02*
X74435000Y-79966000I0J210000D01*
G01*
G37*
G36*
G01*
X73240000Y-79966000D02*
X73240000Y-79546000D01*
G75*
G02*
X73450000Y-79336000I210000J0D01*
G01*
X73945000Y-79336000D01*
G75*
G02*
X74155000Y-79546000I0J-210000D01*
G01*
X74155000Y-79966000D01*
G75*
G02*
X73945000Y-80176000I-210000J0D01*
G01*
X73450000Y-80176000D01*
G75*
G02*
X73240000Y-79966000I0J210000D01*
G01*
G37*
G36*
G01*
X81960000Y-79420000D02*
X81540000Y-79420000D01*
G75*
G02*
X81330000Y-79210000I0J210000D01*
G01*
X81330000Y-78715000D01*
G75*
G02*
X81540000Y-78505000I210000J0D01*
G01*
X81960000Y-78505000D01*
G75*
G02*
X82170000Y-78715000I0J-210000D01*
G01*
X82170000Y-79210000D01*
G75*
G02*
X81960000Y-79420000I-210000J0D01*
G01*
G37*
G36*
G01*
X81960000Y-80615000D02*
X81540000Y-80615000D01*
G75*
G02*
X81330000Y-80405000I0J210000D01*
G01*
X81330000Y-79910000D01*
G75*
G02*
X81540000Y-79700000I210000J0D01*
G01*
X81960000Y-79700000D01*
G75*
G02*
X82170000Y-79910000I0J-210000D01*
G01*
X82170000Y-80405000D01*
G75*
G02*
X81960000Y-80615000I-210000J0D01*
G01*
G37*
G36*
G01*
X80960000Y-79420000D02*
X80540000Y-79420000D01*
G75*
G02*
X80330000Y-79210000I0J210000D01*
G01*
X80330000Y-78715000D01*
G75*
G02*
X80540000Y-78505000I210000J0D01*
G01*
X80960000Y-78505000D01*
G75*
G02*
X81170000Y-78715000I0J-210000D01*
G01*
X81170000Y-79210000D01*
G75*
G02*
X80960000Y-79420000I-210000J0D01*
G01*
G37*
G36*
G01*
X80960000Y-80615000D02*
X80540000Y-80615000D01*
G75*
G02*
X80330000Y-80405000I0J210000D01*
G01*
X80330000Y-79910000D01*
G75*
G02*
X80540000Y-79700000I210000J0D01*
G01*
X80960000Y-79700000D01*
G75*
G02*
X81170000Y-79910000I0J-210000D01*
G01*
X81170000Y-80405000D01*
G75*
G02*
X80960000Y-80615000I-210000J0D01*
G01*
G37*
G36*
G01*
X79540000Y-79700000D02*
X79960000Y-79700000D01*
G75*
G02*
X80170000Y-79910000I0J-210000D01*
G01*
X80170000Y-80405000D01*
G75*
G02*
X79960000Y-80615000I-210000J0D01*
G01*
X79540000Y-80615000D01*
G75*
G02*
X79330000Y-80405000I0J210000D01*
G01*
X79330000Y-79910000D01*
G75*
G02*
X79540000Y-79700000I210000J0D01*
G01*
G37*
G36*
G01*
X79540000Y-78505000D02*
X79960000Y-78505000D01*
G75*
G02*
X80170000Y-78715000I0J-210000D01*
G01*
X80170000Y-79210000D01*
G75*
G02*
X79960000Y-79420000I-210000J0D01*
G01*
X79540000Y-79420000D01*
G75*
G02*
X79330000Y-79210000I0J210000D01*
G01*
X79330000Y-78715000D01*
G75*
G02*
X79540000Y-78505000I210000J0D01*
G01*
G37*
G36*
G01*
X75140000Y-73901000D02*
X74720000Y-73901000D01*
G75*
G02*
X74510000Y-73691000I0J210000D01*
G01*
X74510000Y-73196000D01*
G75*
G02*
X74720000Y-72986000I210000J0D01*
G01*
X75140000Y-72986000D01*
G75*
G02*
X75350000Y-73196000I0J-210000D01*
G01*
X75350000Y-73691000D01*
G75*
G02*
X75140000Y-73901000I-210000J0D01*
G01*
G37*
G36*
G01*
X75140000Y-75096000D02*
X74720000Y-75096000D01*
G75*
G02*
X74510000Y-74886000I0J210000D01*
G01*
X74510000Y-74391000D01*
G75*
G02*
X74720000Y-74181000I210000J0D01*
G01*
X75140000Y-74181000D01*
G75*
G02*
X75350000Y-74391000I0J-210000D01*
G01*
X75350000Y-74886000D01*
G75*
G02*
X75140000Y-75096000I-210000J0D01*
G01*
G37*
G36*
G01*
X130650000Y-61355000D02*
X130650000Y-60945000D01*
G75*
G02*
X130855000Y-60740000I205000J0D01*
G01*
X131380000Y-60740000D01*
G75*
G02*
X131585000Y-60945000I0J-205000D01*
G01*
X131585000Y-61355000D01*
G75*
G02*
X131380000Y-61560000I-205000J0D01*
G01*
X130855000Y-61560000D01*
G75*
G02*
X130650000Y-61355000I0J205000D01*
G01*
G37*
G36*
G01*
X129515000Y-61355000D02*
X129515000Y-60945000D01*
G75*
G02*
X129720000Y-60740000I205000J0D01*
G01*
X130245000Y-60740000D01*
G75*
G02*
X130450000Y-60945000I0J-205000D01*
G01*
X130450000Y-61355000D01*
G75*
G02*
X130245000Y-61560000I-205000J0D01*
G01*
X129720000Y-61560000D01*
G75*
G02*
X129515000Y-61355000I0J205000D01*
G01*
G37*
G36*
G01*
X110300000Y-68670000D02*
X110300000Y-69080000D01*
G75*
G02*
X110095000Y-69285000I-205000J0D01*
G01*
X109570000Y-69285000D01*
G75*
G02*
X109365000Y-69080000I0J205000D01*
G01*
X109365000Y-68670000D01*
G75*
G02*
X109570000Y-68465000I205000J0D01*
G01*
X110095000Y-68465000D01*
G75*
G02*
X110300000Y-68670000I0J-205000D01*
G01*
G37*
G36*
G01*
X111435000Y-68670000D02*
X111435000Y-69080000D01*
G75*
G02*
X111230000Y-69285000I-205000J0D01*
G01*
X110705000Y-69285000D01*
G75*
G02*
X110500000Y-69080000I0J205000D01*
G01*
X110500000Y-68670000D01*
G75*
G02*
X110705000Y-68465000I205000J0D01*
G01*
X111230000Y-68465000D01*
G75*
G02*
X111435000Y-68670000I0J-205000D01*
G01*
G37*
G36*
G01*
X110500000Y-68080000D02*
X110500000Y-67670000D01*
G75*
G02*
X110705000Y-67465000I205000J0D01*
G01*
X111230000Y-67465000D01*
G75*
G02*
X111435000Y-67670000I0J-205000D01*
G01*
X111435000Y-68080000D01*
G75*
G02*
X111230000Y-68285000I-205000J0D01*
G01*
X110705000Y-68285000D01*
G75*
G02*
X110500000Y-68080000I0J205000D01*
G01*
G37*
G36*
G01*
X109365000Y-68080000D02*
X109365000Y-67670000D01*
G75*
G02*
X109570000Y-67465000I205000J0D01*
G01*
X110095000Y-67465000D01*
G75*
G02*
X110300000Y-67670000I0J-205000D01*
G01*
X110300000Y-68080000D01*
G75*
G02*
X110095000Y-68285000I-205000J0D01*
G01*
X109570000Y-68285000D01*
G75*
G02*
X109365000Y-68080000I0J205000D01*
G01*
G37*
G36*
G01*
X116000000Y-81980000D02*
X116000000Y-81570000D01*
G75*
G02*
X116205000Y-81365000I205000J0D01*
G01*
X116730000Y-81365000D01*
G75*
G02*
X116935000Y-81570000I0J-205000D01*
G01*
X116935000Y-81980000D01*
G75*
G02*
X116730000Y-82185000I-205000J0D01*
G01*
X116205000Y-82185000D01*
G75*
G02*
X116000000Y-81980000I0J205000D01*
G01*
G37*
G36*
G01*
X114865000Y-81980000D02*
X114865000Y-81570000D01*
G75*
G02*
X115070000Y-81365000I205000J0D01*
G01*
X115595000Y-81365000D01*
G75*
G02*
X115800000Y-81570000I0J-205000D01*
G01*
X115800000Y-81980000D01*
G75*
G02*
X115595000Y-82185000I-205000J0D01*
G01*
X115070000Y-82185000D01*
G75*
G02*
X114865000Y-81980000I0J205000D01*
G01*
G37*
G36*
G01*
X116000000Y-81005000D02*
X116000000Y-80595000D01*
G75*
G02*
X116205000Y-80390000I205000J0D01*
G01*
X116730000Y-80390000D01*
G75*
G02*
X116935000Y-80595000I0J-205000D01*
G01*
X116935000Y-81005000D01*
G75*
G02*
X116730000Y-81210000I-205000J0D01*
G01*
X116205000Y-81210000D01*
G75*
G02*
X116000000Y-81005000I0J205000D01*
G01*
G37*
G36*
G01*
X114865000Y-81005000D02*
X114865000Y-80595000D01*
G75*
G02*
X115070000Y-80390000I205000J0D01*
G01*
X115595000Y-80390000D01*
G75*
G02*
X115800000Y-80595000I0J-205000D01*
G01*
X115800000Y-81005000D01*
G75*
G02*
X115595000Y-81210000I-205000J0D01*
G01*
X115070000Y-81210000D01*
G75*
G02*
X114865000Y-81005000I0J205000D01*
G01*
G37*
G36*
G01*
X99800000Y-77405000D02*
X99800000Y-76995000D01*
G75*
G02*
X100005000Y-76790000I205000J0D01*
G01*
X100530000Y-76790000D01*
G75*
G02*
X100735000Y-76995000I0J-205000D01*
G01*
X100735000Y-77405000D01*
G75*
G02*
X100530000Y-77610000I-205000J0D01*
G01*
X100005000Y-77610000D01*
G75*
G02*
X99800000Y-77405000I0J205000D01*
G01*
G37*
G36*
G01*
X98665000Y-77405000D02*
X98665000Y-76995000D01*
G75*
G02*
X98870000Y-76790000I205000J0D01*
G01*
X99395000Y-76790000D01*
G75*
G02*
X99600000Y-76995000I0J-205000D01*
G01*
X99600000Y-77405000D01*
G75*
G02*
X99395000Y-77610000I-205000J0D01*
G01*
X98870000Y-77610000D01*
G75*
G02*
X98665000Y-77405000I0J205000D01*
G01*
G37*
G36*
G01*
X99800000Y-76305000D02*
X99800000Y-75895000D01*
G75*
G02*
X100005000Y-75690000I205000J0D01*
G01*
X100530000Y-75690000D01*
G75*
G02*
X100735000Y-75895000I0J-205000D01*
G01*
X100735000Y-76305000D01*
G75*
G02*
X100530000Y-76510000I-205000J0D01*
G01*
X100005000Y-76510000D01*
G75*
G02*
X99800000Y-76305000I0J205000D01*
G01*
G37*
G36*
G01*
X98665000Y-76305000D02*
X98665000Y-75895000D01*
G75*
G02*
X98870000Y-75690000I205000J0D01*
G01*
X99395000Y-75690000D01*
G75*
G02*
X99600000Y-75895000I0J-205000D01*
G01*
X99600000Y-76305000D01*
G75*
G02*
X99395000Y-76510000I-205000J0D01*
G01*
X98870000Y-76510000D01*
G75*
G02*
X98665000Y-76305000I0J205000D01*
G01*
G37*
G36*
G01*
X105640000Y-73680000D02*
X105640000Y-73270000D01*
G75*
G02*
X105845000Y-73065000I205000J0D01*
G01*
X106370000Y-73065000D01*
G75*
G02*
X106575000Y-73270000I0J-205000D01*
G01*
X106575000Y-73680000D01*
G75*
G02*
X106370000Y-73885000I-205000J0D01*
G01*
X105845000Y-73885000D01*
G75*
G02*
X105640000Y-73680000I0J205000D01*
G01*
G37*
G36*
G01*
X104505000Y-73680000D02*
X104505000Y-73270000D01*
G75*
G02*
X104710000Y-73065000I205000J0D01*
G01*
X105235000Y-73065000D01*
G75*
G02*
X105440000Y-73270000I0J-205000D01*
G01*
X105440000Y-73680000D01*
G75*
G02*
X105235000Y-73885000I-205000J0D01*
G01*
X104710000Y-73885000D01*
G75*
G02*
X104505000Y-73680000I0J205000D01*
G01*
G37*
G36*
G01*
X130417500Y-64545000D02*
X130417500Y-64955000D01*
G75*
G02*
X130212500Y-65160000I-205000J0D01*
G01*
X129687500Y-65160000D01*
G75*
G02*
X129482500Y-64955000I0J205000D01*
G01*
X129482500Y-64545000D01*
G75*
G02*
X129687500Y-64340000I205000J0D01*
G01*
X130212500Y-64340000D01*
G75*
G02*
X130417500Y-64545000I0J-205000D01*
G01*
G37*
G36*
G01*
X131552500Y-64545000D02*
X131552500Y-64955000D01*
G75*
G02*
X131347500Y-65160000I-205000J0D01*
G01*
X130822500Y-65160000D01*
G75*
G02*
X130617500Y-64955000I0J205000D01*
G01*
X130617500Y-64545000D01*
G75*
G02*
X130822500Y-64340000I205000J0D01*
G01*
X131347500Y-64340000D01*
G75*
G02*
X131552500Y-64545000I0J-205000D01*
G01*
G37*
G36*
G01*
X94550000Y-72605000D02*
X94550000Y-72195000D01*
G75*
G02*
X94755000Y-71990000I205000J0D01*
G01*
X95280000Y-71990000D01*
G75*
G02*
X95485000Y-72195000I0J-205000D01*
G01*
X95485000Y-72605000D01*
G75*
G02*
X95280000Y-72810000I-205000J0D01*
G01*
X94755000Y-72810000D01*
G75*
G02*
X94550000Y-72605000I0J205000D01*
G01*
G37*
G36*
G01*
X93415000Y-72605000D02*
X93415000Y-72195000D01*
G75*
G02*
X93620000Y-71990000I205000J0D01*
G01*
X94145000Y-71990000D01*
G75*
G02*
X94350000Y-72195000I0J-205000D01*
G01*
X94350000Y-72605000D01*
G75*
G02*
X94145000Y-72810000I-205000J0D01*
G01*
X93620000Y-72810000D01*
G75*
G02*
X93415000Y-72605000I0J205000D01*
G01*
G37*
G36*
G01*
X85000000Y-76645000D02*
X85000000Y-77055000D01*
G75*
G02*
X84795000Y-77260000I-205000J0D01*
G01*
X84270000Y-77260000D01*
G75*
G02*
X84065000Y-77055000I0J205000D01*
G01*
X84065000Y-76645000D01*
G75*
G02*
X84270000Y-76440000I205000J0D01*
G01*
X84795000Y-76440000D01*
G75*
G02*
X85000000Y-76645000I0J-205000D01*
G01*
G37*
G36*
G01*
X86135000Y-76645000D02*
X86135000Y-77055000D01*
G75*
G02*
X85930000Y-77260000I-205000J0D01*
G01*
X85405000Y-77260000D01*
G75*
G02*
X85200000Y-77055000I0J205000D01*
G01*
X85200000Y-76645000D01*
G75*
G02*
X85405000Y-76440000I205000J0D01*
G01*
X85930000Y-76440000D01*
G75*
G02*
X86135000Y-76645000I0J-205000D01*
G01*
G37*
G36*
G01*
X97495000Y-86250000D02*
X97905000Y-86250000D01*
G75*
G02*
X98110000Y-86455000I0J-205000D01*
G01*
X98110000Y-86980000D01*
G75*
G02*
X97905000Y-87185000I-205000J0D01*
G01*
X97495000Y-87185000D01*
G75*
G02*
X97290000Y-86980000I0J205000D01*
G01*
X97290000Y-86455000D01*
G75*
G02*
X97495000Y-86250000I205000J0D01*
G01*
G37*
G36*
G01*
X97495000Y-85115000D02*
X97905000Y-85115000D01*
G75*
G02*
X98110000Y-85320000I0J-205000D01*
G01*
X98110000Y-85845000D01*
G75*
G02*
X97905000Y-86050000I-205000J0D01*
G01*
X97495000Y-86050000D01*
G75*
G02*
X97290000Y-85845000I0J205000D01*
G01*
X97290000Y-85320000D01*
G75*
G02*
X97495000Y-85115000I205000J0D01*
G01*
G37*
G36*
G01*
X85000000Y-77645000D02*
X85000000Y-78055000D01*
G75*
G02*
X84795000Y-78260000I-205000J0D01*
G01*
X84270000Y-78260000D01*
G75*
G02*
X84065000Y-78055000I0J205000D01*
G01*
X84065000Y-77645000D01*
G75*
G02*
X84270000Y-77440000I205000J0D01*
G01*
X84795000Y-77440000D01*
G75*
G02*
X85000000Y-77645000I0J-205000D01*
G01*
G37*
G36*
G01*
X86135000Y-77645000D02*
X86135000Y-78055000D01*
G75*
G02*
X85930000Y-78260000I-205000J0D01*
G01*
X85405000Y-78260000D01*
G75*
G02*
X85200000Y-78055000I0J205000D01*
G01*
X85200000Y-77645000D01*
G75*
G02*
X85405000Y-77440000I205000J0D01*
G01*
X85930000Y-77440000D01*
G75*
G02*
X86135000Y-77645000I0J-205000D01*
G01*
G37*
G36*
G01*
X105095000Y-86100000D02*
X105505000Y-86100000D01*
G75*
G02*
X105710000Y-86305000I0J-205000D01*
G01*
X105710000Y-86830000D01*
G75*
G02*
X105505000Y-87035000I-205000J0D01*
G01*
X105095000Y-87035000D01*
G75*
G02*
X104890000Y-86830000I0J205000D01*
G01*
X104890000Y-86305000D01*
G75*
G02*
X105095000Y-86100000I205000J0D01*
G01*
G37*
G36*
G01*
X105095000Y-84965000D02*
X105505000Y-84965000D01*
G75*
G02*
X105710000Y-85170000I0J-205000D01*
G01*
X105710000Y-85695000D01*
G75*
G02*
X105505000Y-85900000I-205000J0D01*
G01*
X105095000Y-85900000D01*
G75*
G02*
X104890000Y-85695000I0J205000D01*
G01*
X104890000Y-85170000D01*
G75*
G02*
X105095000Y-84965000I205000J0D01*
G01*
G37*
G36*
G01*
X84205000Y-84450000D02*
X83795000Y-84450000D01*
G75*
G02*
X83590000Y-84245000I0J205000D01*
G01*
X83590000Y-83720000D01*
G75*
G02*
X83795000Y-83515000I205000J0D01*
G01*
X84205000Y-83515000D01*
G75*
G02*
X84410000Y-83720000I0J-205000D01*
G01*
X84410000Y-84245000D01*
G75*
G02*
X84205000Y-84450000I-205000J0D01*
G01*
G37*
G36*
G01*
X84205000Y-85585000D02*
X83795000Y-85585000D01*
G75*
G02*
X83590000Y-85380000I0J205000D01*
G01*
X83590000Y-84855000D01*
G75*
G02*
X83795000Y-84650000I205000J0D01*
G01*
X84205000Y-84650000D01*
G75*
G02*
X84410000Y-84855000I0J-205000D01*
G01*
X84410000Y-85380000D01*
G75*
G02*
X84205000Y-85585000I-205000J0D01*
G01*
G37*
G36*
G01*
X94900000Y-86345000D02*
X94900000Y-86755000D01*
G75*
G02*
X94695000Y-86960000I-205000J0D01*
G01*
X94170000Y-86960000D01*
G75*
G02*
X93965000Y-86755000I0J205000D01*
G01*
X93965000Y-86345000D01*
G75*
G02*
X94170000Y-86140000I205000J0D01*
G01*
X94695000Y-86140000D01*
G75*
G02*
X94900000Y-86345000I0J-205000D01*
G01*
G37*
G36*
G01*
X96035000Y-86345000D02*
X96035000Y-86755000D01*
G75*
G02*
X95830000Y-86960000I-205000J0D01*
G01*
X95305000Y-86960000D01*
G75*
G02*
X95100000Y-86755000I0J205000D01*
G01*
X95100000Y-86345000D01*
G75*
G02*
X95305000Y-86140000I205000J0D01*
G01*
X95830000Y-86140000D01*
G75*
G02*
X96035000Y-86345000I0J-205000D01*
G01*
G37*
G36*
G01*
X86012500Y-61281000D02*
X86422500Y-61281000D01*
G75*
G02*
X86627500Y-61486000I0J-205000D01*
G01*
X86627500Y-62011000D01*
G75*
G02*
X86422500Y-62216000I-205000J0D01*
G01*
X86012500Y-62216000D01*
G75*
G02*
X85807500Y-62011000I0J205000D01*
G01*
X85807500Y-61486000D01*
G75*
G02*
X86012500Y-61281000I205000J0D01*
G01*
G37*
G36*
G01*
X86012500Y-60146000D02*
X86422500Y-60146000D01*
G75*
G02*
X86627500Y-60351000I0J-205000D01*
G01*
X86627500Y-60876000D01*
G75*
G02*
X86422500Y-61081000I-205000J0D01*
G01*
X86012500Y-61081000D01*
G75*
G02*
X85807500Y-60876000I0J205000D01*
G01*
X85807500Y-60351000D01*
G75*
G02*
X86012500Y-60146000I205000J0D01*
G01*
G37*
G36*
G01*
X84305000Y-66400000D02*
X83895000Y-66400000D01*
G75*
G02*
X83690000Y-66195000I0J205000D01*
G01*
X83690000Y-65670000D01*
G75*
G02*
X83895000Y-65465000I205000J0D01*
G01*
X84305000Y-65465000D01*
G75*
G02*
X84510000Y-65670000I0J-205000D01*
G01*
X84510000Y-66195000D01*
G75*
G02*
X84305000Y-66400000I-205000J0D01*
G01*
G37*
G36*
G01*
X84305000Y-67535000D02*
X83895000Y-67535000D01*
G75*
G02*
X83690000Y-67330000I0J205000D01*
G01*
X83690000Y-66805000D01*
G75*
G02*
X83895000Y-66600000I205000J0D01*
G01*
X84305000Y-66600000D01*
G75*
G02*
X84510000Y-66805000I0J-205000D01*
G01*
X84510000Y-67330000D01*
G75*
G02*
X84305000Y-67535000I-205000J0D01*
G01*
G37*
G36*
G01*
X72722000Y-61622000D02*
X72312000Y-61622000D01*
G75*
G02*
X72107000Y-61417000I0J205000D01*
G01*
X72107000Y-60892000D01*
G75*
G02*
X72312000Y-60687000I205000J0D01*
G01*
X72722000Y-60687000D01*
G75*
G02*
X72927000Y-60892000I0J-205000D01*
G01*
X72927000Y-61417000D01*
G75*
G02*
X72722000Y-61622000I-205000J0D01*
G01*
G37*
G36*
G01*
X72722000Y-62757000D02*
X72312000Y-62757000D01*
G75*
G02*
X72107000Y-62552000I0J205000D01*
G01*
X72107000Y-62027000D01*
G75*
G02*
X72312000Y-61822000I205000J0D01*
G01*
X72722000Y-61822000D01*
G75*
G02*
X72927000Y-62027000I0J-205000D01*
G01*
X72927000Y-62552000D01*
G75*
G02*
X72722000Y-62757000I-205000J0D01*
G01*
G37*
G36*
G01*
X98220000Y-80170000D02*
X97800000Y-80170000D01*
G75*
G02*
X97590000Y-79960000I0J210000D01*
G01*
X97590000Y-79465000D01*
G75*
G02*
X97800000Y-79255000I210000J0D01*
G01*
X98220000Y-79255000D01*
G75*
G02*
X98430000Y-79465000I0J-210000D01*
G01*
X98430000Y-79960000D01*
G75*
G02*
X98220000Y-80170000I-210000J0D01*
G01*
G37*
G36*
G01*
X98220000Y-81365000D02*
X97800000Y-81365000D01*
G75*
G02*
X97590000Y-81155000I0J210000D01*
G01*
X97590000Y-80660000D01*
G75*
G02*
X97800000Y-80450000I210000J0D01*
G01*
X98220000Y-80450000D01*
G75*
G02*
X98430000Y-80660000I0J-210000D01*
G01*
X98430000Y-81155000D01*
G75*
G02*
X98220000Y-81365000I-210000J0D01*
G01*
G37*
G36*
G01*
X97205000Y-80200000D02*
X96795000Y-80200000D01*
G75*
G02*
X96590000Y-79995000I0J205000D01*
G01*
X96590000Y-79470000D01*
G75*
G02*
X96795000Y-79265000I205000J0D01*
G01*
X97205000Y-79265000D01*
G75*
G02*
X97410000Y-79470000I0J-205000D01*
G01*
X97410000Y-79995000D01*
G75*
G02*
X97205000Y-80200000I-205000J0D01*
G01*
G37*
G36*
G01*
X97205000Y-81335000D02*
X96795000Y-81335000D01*
G75*
G02*
X96590000Y-81130000I0J205000D01*
G01*
X96590000Y-80605000D01*
G75*
G02*
X96795000Y-80400000I205000J0D01*
G01*
X97205000Y-80400000D01*
G75*
G02*
X97410000Y-80605000I0J-205000D01*
G01*
X97410000Y-81130000D01*
G75*
G02*
X97205000Y-81335000I-205000J0D01*
G01*
G37*
G36*
G01*
X93000000Y-85250000D02*
X93000000Y-86675000D01*
G75*
G02*
X92875000Y-86800000I-125000J0D01*
G01*
X92625000Y-86800000D01*
G75*
G02*
X92500000Y-86675000I0J125000D01*
G01*
X92500000Y-85250000D01*
G75*
G02*
X92625000Y-85125000I125000J0D01*
G01*
X92875000Y-85125000D01*
G75*
G02*
X93000000Y-85250000I0J-125000D01*
G01*
G37*
G36*
G01*
X92500000Y-85250000D02*
X92500000Y-86675000D01*
G75*
G02*
X92375000Y-86800000I-125000J0D01*
G01*
X92125000Y-86800000D01*
G75*
G02*
X92000000Y-86675000I0J125000D01*
G01*
X92000000Y-85250000D01*
G75*
G02*
X92125000Y-85125000I125000J0D01*
G01*
X92375000Y-85125000D01*
G75*
G02*
X92500000Y-85250000I0J-125000D01*
G01*
G37*
G36*
G01*
X92000000Y-85250000D02*
X92000000Y-86675000D01*
G75*
G02*
X91875000Y-86800000I-125000J0D01*
G01*
X91625000Y-86800000D01*
G75*
G02*
X91500000Y-86675000I0J125000D01*
G01*
X91500000Y-85250000D01*
G75*
G02*
X91625000Y-85125000I125000J0D01*
G01*
X91875000Y-85125000D01*
G75*
G02*
X92000000Y-85250000I0J-125000D01*
G01*
G37*
G36*
G01*
X91500000Y-85250000D02*
X91500000Y-86675000D01*
G75*
G02*
X91375000Y-86800000I-125000J0D01*
G01*
X91125000Y-86800000D01*
G75*
G02*
X91000000Y-86675000I0J125000D01*
G01*
X91000000Y-85250000D01*
G75*
G02*
X91125000Y-85125000I125000J0D01*
G01*
X91375000Y-85125000D01*
G75*
G02*
X91500000Y-85250000I0J-125000D01*
G01*
G37*
G36*
G01*
X91000000Y-85250000D02*
X91000000Y-86675000D01*
G75*
G02*
X90875000Y-86800000I-125000J0D01*
G01*
X90625000Y-86800000D01*
G75*
G02*
X90500000Y-86675000I0J125000D01*
G01*
X90500000Y-85250000D01*
G75*
G02*
X90625000Y-85125000I125000J0D01*
G01*
X90875000Y-85125000D01*
G75*
G02*
X91000000Y-85250000I0J-125000D01*
G01*
G37*
G36*
G01*
X90500000Y-85250000D02*
X90500000Y-86675000D01*
G75*
G02*
X90375000Y-86800000I-125000J0D01*
G01*
X90125000Y-86800000D01*
G75*
G02*
X90000000Y-86675000I0J125000D01*
G01*
X90000000Y-85250000D01*
G75*
G02*
X90125000Y-85125000I125000J0D01*
G01*
X90375000Y-85125000D01*
G75*
G02*
X90500000Y-85250000I0J-125000D01*
G01*
G37*
G36*
G01*
X90000000Y-85250000D02*
X90000000Y-86675000D01*
G75*
G02*
X89875000Y-86800000I-125000J0D01*
G01*
X89625000Y-86800000D01*
G75*
G02*
X89500000Y-86675000I0J125000D01*
G01*
X89500000Y-85250000D01*
G75*
G02*
X89625000Y-85125000I125000J0D01*
G01*
X89875000Y-85125000D01*
G75*
G02*
X90000000Y-85250000I0J-125000D01*
G01*
G37*
G36*
G01*
X89500000Y-85250000D02*
X89500000Y-86675000D01*
G75*
G02*
X89375000Y-86800000I-125000J0D01*
G01*
X89125000Y-86800000D01*
G75*
G02*
X89000000Y-86675000I0J125000D01*
G01*
X89000000Y-85250000D01*
G75*
G02*
X89125000Y-85125000I125000J0D01*
G01*
X89375000Y-85125000D01*
G75*
G02*
X89500000Y-85250000I0J-125000D01*
G01*
G37*
G36*
G01*
X89000000Y-85250000D02*
X89000000Y-86675000D01*
G75*
G02*
X88875000Y-86800000I-125000J0D01*
G01*
X88625000Y-86800000D01*
G75*
G02*
X88500000Y-86675000I0J125000D01*
G01*
X88500000Y-85250000D01*
G75*
G02*
X88625000Y-85125000I125000J0D01*
G01*
X88875000Y-85125000D01*
G75*
G02*
X89000000Y-85250000I0J-125000D01*
G01*
G37*
G36*
G01*
X88500000Y-85250000D02*
X88500000Y-86675000D01*
G75*
G02*
X88375000Y-86800000I-125000J0D01*
G01*
X88125000Y-86800000D01*
G75*
G02*
X88000000Y-86675000I0J125000D01*
G01*
X88000000Y-85250000D01*
G75*
G02*
X88125000Y-85125000I125000J0D01*
G01*
X88375000Y-85125000D01*
G75*
G02*
X88500000Y-85250000I0J-125000D01*
G01*
G37*
G36*
G01*
X88000000Y-85250000D02*
X88000000Y-86675000D01*
G75*
G02*
X87875000Y-86800000I-125000J0D01*
G01*
X87625000Y-86800000D01*
G75*
G02*
X87500000Y-86675000I0J125000D01*
G01*
X87500000Y-85250000D01*
G75*
G02*
X87625000Y-85125000I125000J0D01*
G01*
X87875000Y-85125000D01*
G75*
G02*
X88000000Y-85250000I0J-125000D01*
G01*
G37*
G36*
G01*
X87500000Y-85250000D02*
X87500000Y-86675000D01*
G75*
G02*
X87375000Y-86800000I-125000J0D01*
G01*
X87125000Y-86800000D01*
G75*
G02*
X87000000Y-86675000I0J125000D01*
G01*
X87000000Y-85250000D01*
G75*
G02*
X87125000Y-85125000I125000J0D01*
G01*
X87375000Y-85125000D01*
G75*
G02*
X87500000Y-85250000I0J-125000D01*
G01*
G37*
G36*
G01*
X86675000Y-84425000D02*
X86675000Y-84675000D01*
G75*
G02*
X86550000Y-84800000I-125000J0D01*
G01*
X85125000Y-84800000D01*
G75*
G02*
X85000000Y-84675000I0J125000D01*
G01*
X85000000Y-84425000D01*
G75*
G02*
X85125000Y-84300000I125000J0D01*
G01*
X86550000Y-84300000D01*
G75*
G02*
X86675000Y-84425000I0J-125000D01*
G01*
G37*
G36*
G01*
X86675000Y-83925000D02*
X86675000Y-84175000D01*
G75*
G02*
X86550000Y-84300000I-125000J0D01*
G01*
X85125000Y-84300000D01*
G75*
G02*
X85000000Y-84175000I0J125000D01*
G01*
X85000000Y-83925000D01*
G75*
G02*
X85125000Y-83800000I125000J0D01*
G01*
X86550000Y-83800000D01*
G75*
G02*
X86675000Y-83925000I0J-125000D01*
G01*
G37*
G36*
G01*
X86675000Y-83425000D02*
X86675000Y-83675000D01*
G75*
G02*
X86550000Y-83800000I-125000J0D01*
G01*
X85125000Y-83800000D01*
G75*
G02*
X85000000Y-83675000I0J125000D01*
G01*
X85000000Y-83425000D01*
G75*
G02*
X85125000Y-83300000I125000J0D01*
G01*
X86550000Y-83300000D01*
G75*
G02*
X86675000Y-83425000I0J-125000D01*
G01*
G37*
G36*
G01*
X86675000Y-82925000D02*
X86675000Y-83175000D01*
G75*
G02*
X86550000Y-83300000I-125000J0D01*
G01*
X85125000Y-83300000D01*
G75*
G02*
X85000000Y-83175000I0J125000D01*
G01*
X85000000Y-82925000D01*
G75*
G02*
X85125000Y-82800000I125000J0D01*
G01*
X86550000Y-82800000D01*
G75*
G02*
X86675000Y-82925000I0J-125000D01*
G01*
G37*
G36*
G01*
X86675000Y-82425000D02*
X86675000Y-82675000D01*
G75*
G02*
X86550000Y-82800000I-125000J0D01*
G01*
X85125000Y-82800000D01*
G75*
G02*
X85000000Y-82675000I0J125000D01*
G01*
X85000000Y-82425000D01*
G75*
G02*
X85125000Y-82300000I125000J0D01*
G01*
X86550000Y-82300000D01*
G75*
G02*
X86675000Y-82425000I0J-125000D01*
G01*
G37*
G36*
G01*
X86675000Y-81925000D02*
X86675000Y-82175000D01*
G75*
G02*
X86550000Y-82300000I-125000J0D01*
G01*
X85125000Y-82300000D01*
G75*
G02*
X85000000Y-82175000I0J125000D01*
G01*
X85000000Y-81925000D01*
G75*
G02*
X85125000Y-81800000I125000J0D01*
G01*
X86550000Y-81800000D01*
G75*
G02*
X86675000Y-81925000I0J-125000D01*
G01*
G37*
G36*
G01*
X86675000Y-81425000D02*
X86675000Y-81675000D01*
G75*
G02*
X86550000Y-81800000I-125000J0D01*
G01*
X85125000Y-81800000D01*
G75*
G02*
X85000000Y-81675000I0J125000D01*
G01*
X85000000Y-81425000D01*
G75*
G02*
X85125000Y-81300000I125000J0D01*
G01*
X86550000Y-81300000D01*
G75*
G02*
X86675000Y-81425000I0J-125000D01*
G01*
G37*
G36*
G01*
X86675000Y-80925000D02*
X86675000Y-81175000D01*
G75*
G02*
X86550000Y-81300000I-125000J0D01*
G01*
X85125000Y-81300000D01*
G75*
G02*
X85000000Y-81175000I0J125000D01*
G01*
X85000000Y-80925000D01*
G75*
G02*
X85125000Y-80800000I125000J0D01*
G01*
X86550000Y-80800000D01*
G75*
G02*
X86675000Y-80925000I0J-125000D01*
G01*
G37*
G36*
G01*
X86675000Y-80425000D02*
X86675000Y-80675000D01*
G75*
G02*
X86550000Y-80800000I-125000J0D01*
G01*
X85125000Y-80800000D01*
G75*
G02*
X85000000Y-80675000I0J125000D01*
G01*
X85000000Y-80425000D01*
G75*
G02*
X85125000Y-80300000I125000J0D01*
G01*
X86550000Y-80300000D01*
G75*
G02*
X86675000Y-80425000I0J-125000D01*
G01*
G37*
G36*
G01*
X86675000Y-79925000D02*
X86675000Y-80175000D01*
G75*
G02*
X86550000Y-80300000I-125000J0D01*
G01*
X85125000Y-80300000D01*
G75*
G02*
X85000000Y-80175000I0J125000D01*
G01*
X85000000Y-79925000D01*
G75*
G02*
X85125000Y-79800000I125000J0D01*
G01*
X86550000Y-79800000D01*
G75*
G02*
X86675000Y-79925000I0J-125000D01*
G01*
G37*
G36*
G01*
X86675000Y-79425000D02*
X86675000Y-79675000D01*
G75*
G02*
X86550000Y-79800000I-125000J0D01*
G01*
X85125000Y-79800000D01*
G75*
G02*
X85000000Y-79675000I0J125000D01*
G01*
X85000000Y-79425000D01*
G75*
G02*
X85125000Y-79300000I125000J0D01*
G01*
X86550000Y-79300000D01*
G75*
G02*
X86675000Y-79425000I0J-125000D01*
G01*
G37*
G36*
G01*
X86675000Y-78925000D02*
X86675000Y-79175000D01*
G75*
G02*
X86550000Y-79300000I-125000J0D01*
G01*
X85125000Y-79300000D01*
G75*
G02*
X85000000Y-79175000I0J125000D01*
G01*
X85000000Y-78925000D01*
G75*
G02*
X85125000Y-78800000I125000J0D01*
G01*
X86550000Y-78800000D01*
G75*
G02*
X86675000Y-78925000I0J-125000D01*
G01*
G37*
G36*
G01*
X87500000Y-76925000D02*
X87500000Y-78350000D01*
G75*
G02*
X87375000Y-78475000I-125000J0D01*
G01*
X87125000Y-78475000D01*
G75*
G02*
X87000000Y-78350000I0J125000D01*
G01*
X87000000Y-76925000D01*
G75*
G02*
X87125000Y-76800000I125000J0D01*
G01*
X87375000Y-76800000D01*
G75*
G02*
X87500000Y-76925000I0J-125000D01*
G01*
G37*
G36*
G01*
X88000000Y-76925000D02*
X88000000Y-78350000D01*
G75*
G02*
X87875000Y-78475000I-125000J0D01*
G01*
X87625000Y-78475000D01*
G75*
G02*
X87500000Y-78350000I0J125000D01*
G01*
X87500000Y-76925000D01*
G75*
G02*
X87625000Y-76800000I125000J0D01*
G01*
X87875000Y-76800000D01*
G75*
G02*
X88000000Y-76925000I0J-125000D01*
G01*
G37*
G36*
G01*
X88500000Y-76925000D02*
X88500000Y-78350000D01*
G75*
G02*
X88375000Y-78475000I-125000J0D01*
G01*
X88125000Y-78475000D01*
G75*
G02*
X88000000Y-78350000I0J125000D01*
G01*
X88000000Y-76925000D01*
G75*
G02*
X88125000Y-76800000I125000J0D01*
G01*
X88375000Y-76800000D01*
G75*
G02*
X88500000Y-76925000I0J-125000D01*
G01*
G37*
G36*
G01*
X89000000Y-76925000D02*
X89000000Y-78350000D01*
G75*
G02*
X88875000Y-78475000I-125000J0D01*
G01*
X88625000Y-78475000D01*
G75*
G02*
X88500000Y-78350000I0J125000D01*
G01*
X88500000Y-76925000D01*
G75*
G02*
X88625000Y-76800000I125000J0D01*
G01*
X88875000Y-76800000D01*
G75*
G02*
X89000000Y-76925000I0J-125000D01*
G01*
G37*
G36*
G01*
X89500000Y-76925000D02*
X89500000Y-78350000D01*
G75*
G02*
X89375000Y-78475000I-125000J0D01*
G01*
X89125000Y-78475000D01*
G75*
G02*
X89000000Y-78350000I0J125000D01*
G01*
X89000000Y-76925000D01*
G75*
G02*
X89125000Y-76800000I125000J0D01*
G01*
X89375000Y-76800000D01*
G75*
G02*
X89500000Y-76925000I0J-125000D01*
G01*
G37*
G36*
G01*
X90000000Y-76925000D02*
X90000000Y-78350000D01*
G75*
G02*
X89875000Y-78475000I-125000J0D01*
G01*
X89625000Y-78475000D01*
G75*
G02*
X89500000Y-78350000I0J125000D01*
G01*
X89500000Y-76925000D01*
G75*
G02*
X89625000Y-76800000I125000J0D01*
G01*
X89875000Y-76800000D01*
G75*
G02*
X90000000Y-76925000I0J-125000D01*
G01*
G37*
G36*
G01*
X90500000Y-76925000D02*
X90500000Y-78350000D01*
G75*
G02*
X90375000Y-78475000I-125000J0D01*
G01*
X90125000Y-78475000D01*
G75*
G02*
X90000000Y-78350000I0J125000D01*
G01*
X90000000Y-76925000D01*
G75*
G02*
X90125000Y-76800000I125000J0D01*
G01*
X90375000Y-76800000D01*
G75*
G02*
X90500000Y-76925000I0J-125000D01*
G01*
G37*
G36*
G01*
X91000000Y-76925000D02*
X91000000Y-78350000D01*
G75*
G02*
X90875000Y-78475000I-125000J0D01*
G01*
X90625000Y-78475000D01*
G75*
G02*
X90500000Y-78350000I0J125000D01*
G01*
X90500000Y-76925000D01*
G75*
G02*
X90625000Y-76800000I125000J0D01*
G01*
X90875000Y-76800000D01*
G75*
G02*
X91000000Y-76925000I0J-125000D01*
G01*
G37*
G36*
G01*
X91500000Y-76925000D02*
X91500000Y-78350000D01*
G75*
G02*
X91375000Y-78475000I-125000J0D01*
G01*
X91125000Y-78475000D01*
G75*
G02*
X91000000Y-78350000I0J125000D01*
G01*
X91000000Y-76925000D01*
G75*
G02*
X91125000Y-76800000I125000J0D01*
G01*
X91375000Y-76800000D01*
G75*
G02*
X91500000Y-76925000I0J-125000D01*
G01*
G37*
G36*
G01*
X92000000Y-76925000D02*
X92000000Y-78350000D01*
G75*
G02*
X91875000Y-78475000I-125000J0D01*
G01*
X91625000Y-78475000D01*
G75*
G02*
X91500000Y-78350000I0J125000D01*
G01*
X91500000Y-76925000D01*
G75*
G02*
X91625000Y-76800000I125000J0D01*
G01*
X91875000Y-76800000D01*
G75*
G02*
X92000000Y-76925000I0J-125000D01*
G01*
G37*
G36*
G01*
X92500000Y-76925000D02*
X92500000Y-78350000D01*
G75*
G02*
X92375000Y-78475000I-125000J0D01*
G01*
X92125000Y-78475000D01*
G75*
G02*
X92000000Y-78350000I0J125000D01*
G01*
X92000000Y-76925000D01*
G75*
G02*
X92125000Y-76800000I125000J0D01*
G01*
X92375000Y-76800000D01*
G75*
G02*
X92500000Y-76925000I0J-125000D01*
G01*
G37*
G36*
G01*
X93000000Y-76925000D02*
X93000000Y-78350000D01*
G75*
G02*
X92875000Y-78475000I-125000J0D01*
G01*
X92625000Y-78475000D01*
G75*
G02*
X92500000Y-78350000I0J125000D01*
G01*
X92500000Y-76925000D01*
G75*
G02*
X92625000Y-76800000I125000J0D01*
G01*
X92875000Y-76800000D01*
G75*
G02*
X93000000Y-76925000I0J-125000D01*
G01*
G37*
G36*
G01*
X95000000Y-78925000D02*
X95000000Y-79175000D01*
G75*
G02*
X94875000Y-79300000I-125000J0D01*
G01*
X93450000Y-79300000D01*
G75*
G02*
X93325000Y-79175000I0J125000D01*
G01*
X93325000Y-78925000D01*
G75*
G02*
X93450000Y-78800000I125000J0D01*
G01*
X94875000Y-78800000D01*
G75*
G02*
X95000000Y-78925000I0J-125000D01*
G01*
G37*
G36*
G01*
X95000000Y-79425000D02*
X95000000Y-79675000D01*
G75*
G02*
X94875000Y-79800000I-125000J0D01*
G01*
X93450000Y-79800000D01*
G75*
G02*
X93325000Y-79675000I0J125000D01*
G01*
X93325000Y-79425000D01*
G75*
G02*
X93450000Y-79300000I125000J0D01*
G01*
X94875000Y-79300000D01*
G75*
G02*
X95000000Y-79425000I0J-125000D01*
G01*
G37*
G36*
G01*
X95000000Y-79925000D02*
X95000000Y-80175000D01*
G75*
G02*
X94875000Y-80300000I-125000J0D01*
G01*
X93450000Y-80300000D01*
G75*
G02*
X93325000Y-80175000I0J125000D01*
G01*
X93325000Y-79925000D01*
G75*
G02*
X93450000Y-79800000I125000J0D01*
G01*
X94875000Y-79800000D01*
G75*
G02*
X95000000Y-79925000I0J-125000D01*
G01*
G37*
G36*
G01*
X95000000Y-80425000D02*
X95000000Y-80675000D01*
G75*
G02*
X94875000Y-80800000I-125000J0D01*
G01*
X93450000Y-80800000D01*
G75*
G02*
X93325000Y-80675000I0J125000D01*
G01*
X93325000Y-80425000D01*
G75*
G02*
X93450000Y-80300000I125000J0D01*
G01*
X94875000Y-80300000D01*
G75*
G02*
X95000000Y-80425000I0J-125000D01*
G01*
G37*
G36*
G01*
X95000000Y-80925000D02*
X95000000Y-81175000D01*
G75*
G02*
X94875000Y-81300000I-125000J0D01*
G01*
X93450000Y-81300000D01*
G75*
G02*
X93325000Y-81175000I0J125000D01*
G01*
X93325000Y-80925000D01*
G75*
G02*
X93450000Y-80800000I125000J0D01*
G01*
X94875000Y-80800000D01*
G75*
G02*
X95000000Y-80925000I0J-125000D01*
G01*
G37*
G36*
G01*
X95000000Y-81425000D02*
X95000000Y-81675000D01*
G75*
G02*
X94875000Y-81800000I-125000J0D01*
G01*
X93450000Y-81800000D01*
G75*
G02*
X93325000Y-81675000I0J125000D01*
G01*
X93325000Y-81425000D01*
G75*
G02*
X93450000Y-81300000I125000J0D01*
G01*
X94875000Y-81300000D01*
G75*
G02*
X95000000Y-81425000I0J-125000D01*
G01*
G37*
G36*
G01*
X95000000Y-81925000D02*
X95000000Y-82175000D01*
G75*
G02*
X94875000Y-82300000I-125000J0D01*
G01*
X93450000Y-82300000D01*
G75*
G02*
X93325000Y-82175000I0J125000D01*
G01*
X93325000Y-81925000D01*
G75*
G02*
X93450000Y-81800000I125000J0D01*
G01*
X94875000Y-81800000D01*
G75*
G02*
X95000000Y-81925000I0J-125000D01*
G01*
G37*
G36*
G01*
X95000000Y-82425000D02*
X95000000Y-82675000D01*
G75*
G02*
X94875000Y-82800000I-125000J0D01*
G01*
X93450000Y-82800000D01*
G75*
G02*
X93325000Y-82675000I0J125000D01*
G01*
X93325000Y-82425000D01*
G75*
G02*
X93450000Y-82300000I125000J0D01*
G01*
X94875000Y-82300000D01*
G75*
G02*
X95000000Y-82425000I0J-125000D01*
G01*
G37*
G36*
G01*
X95000000Y-82925000D02*
X95000000Y-83175000D01*
G75*
G02*
X94875000Y-83300000I-125000J0D01*
G01*
X93450000Y-83300000D01*
G75*
G02*
X93325000Y-83175000I0J125000D01*
G01*
X93325000Y-82925000D01*
G75*
G02*
X93450000Y-82800000I125000J0D01*
G01*
X94875000Y-82800000D01*
G75*
G02*
X95000000Y-82925000I0J-125000D01*
G01*
G37*
G36*
G01*
X95000000Y-83425000D02*
X95000000Y-83675000D01*
G75*
G02*
X94875000Y-83800000I-125000J0D01*
G01*
X93450000Y-83800000D01*
G75*
G02*
X93325000Y-83675000I0J125000D01*
G01*
X93325000Y-83425000D01*
G75*
G02*
X93450000Y-83300000I125000J0D01*
G01*
X94875000Y-83300000D01*
G75*
G02*
X95000000Y-83425000I0J-125000D01*
G01*
G37*
G36*
G01*
X95000000Y-83925000D02*
X95000000Y-84175000D01*
G75*
G02*
X94875000Y-84300000I-125000J0D01*
G01*
X93450000Y-84300000D01*
G75*
G02*
X93325000Y-84175000I0J125000D01*
G01*
X93325000Y-83925000D01*
G75*
G02*
X93450000Y-83800000I125000J0D01*
G01*
X94875000Y-83800000D01*
G75*
G02*
X95000000Y-83925000I0J-125000D01*
G01*
G37*
G36*
G01*
X95000000Y-84425000D02*
X95000000Y-84675000D01*
G75*
G02*
X94875000Y-84800000I-125000J0D01*
G01*
X93450000Y-84800000D01*
G75*
G02*
X93325000Y-84675000I0J125000D01*
G01*
X93325000Y-84425000D01*
G75*
G02*
X93450000Y-84300000I125000J0D01*
G01*
X94875000Y-84300000D01*
G75*
G02*
X95000000Y-84425000I0J-125000D01*
G01*
G37*
G36*
G01*
X72643665Y-65832000D02*
X73660335Y-65832000D01*
G75*
G02*
X73952000Y-66123665I0J-291665D01*
G01*
X73952000Y-66940335D01*
G75*
G02*
X73660335Y-67232000I-291665J0D01*
G01*
X72643665Y-67232000D01*
G75*
G02*
X72352000Y-66940335I0J291665D01*
G01*
X72352000Y-66123665D01*
G75*
G02*
X72643665Y-65832000I291665J0D01*
G01*
G37*
G36*
G01*
X72643665Y-63832000D02*
X73660335Y-63832000D01*
G75*
G02*
X73952000Y-64123665I0J-291665D01*
G01*
X73952000Y-64940335D01*
G75*
G02*
X73660335Y-65232000I-291665J0D01*
G01*
X72643665Y-65232000D01*
G75*
G02*
X72352000Y-64940335I0J291665D01*
G01*
X72352000Y-64123665D01*
G75*
G02*
X72643665Y-63832000I291665J0D01*
G01*
G37*
G36*
G01*
X72643665Y-74531500D02*
X73660335Y-74531500D01*
G75*
G02*
X73952000Y-74823165I0J-291665D01*
G01*
X73952000Y-75639835D01*
G75*
G02*
X73660335Y-75931500I-291665J0D01*
G01*
X72643665Y-75931500D01*
G75*
G02*
X72352000Y-75639835I0J291665D01*
G01*
X72352000Y-74823165D01*
G75*
G02*
X72643665Y-74531500I291665J0D01*
G01*
G37*
G36*
G01*
X72643665Y-72531500D02*
X73660335Y-72531500D01*
G75*
G02*
X73952000Y-72823165I0J-291665D01*
G01*
X73952000Y-73639835D01*
G75*
G02*
X73660335Y-73931500I-291665J0D01*
G01*
X72643665Y-73931500D01*
G75*
G02*
X72352000Y-73639835I0J291665D01*
G01*
X72352000Y-72823165D01*
G75*
G02*
X72643665Y-72531500I291665J0D01*
G01*
G37*
G36*
G01*
X69375000Y-67900000D02*
X71775000Y-67900000D01*
G75*
G02*
X71875000Y-68000000I0J-100000D01*
G01*
X71875000Y-68500000D01*
G75*
G02*
X71775000Y-68600000I-100000J0D01*
G01*
X69375000Y-68600000D01*
G75*
G02*
X69275000Y-68500000I0J100000D01*
G01*
X69275000Y-68000000D01*
G75*
G02*
X69375000Y-67900000I100000J0D01*
G01*
G37*
G36*
G01*
X69375000Y-68700000D02*
X71775000Y-68700000D01*
G75*
G02*
X71875000Y-68800000I0J-100000D01*
G01*
X71875000Y-69300000D01*
G75*
G02*
X71775000Y-69400000I-100000J0D01*
G01*
X69375000Y-69400000D01*
G75*
G02*
X69275000Y-69300000I0J100000D01*
G01*
X69275000Y-68800000D01*
G75*
G02*
X69375000Y-68700000I100000J0D01*
G01*
G37*
G36*
G01*
X69375000Y-69500000D02*
X71775000Y-69500000D01*
G75*
G02*
X71875000Y-69600000I0J-100000D01*
G01*
X71875000Y-70100000D01*
G75*
G02*
X71775000Y-70200000I-100000J0D01*
G01*
X69375000Y-70200000D01*
G75*
G02*
X69275000Y-70100000I0J100000D01*
G01*
X69275000Y-69600000D01*
G75*
G02*
X69375000Y-69500000I100000J0D01*
G01*
G37*
G36*
G01*
X69375000Y-70300000D02*
X71775000Y-70300000D01*
G75*
G02*
X71875000Y-70400000I0J-100000D01*
G01*
X71875000Y-70900000D01*
G75*
G02*
X71775000Y-71000000I-100000J0D01*
G01*
X69375000Y-71000000D01*
G75*
G02*
X69275000Y-70900000I0J100000D01*
G01*
X69275000Y-70400000D01*
G75*
G02*
X69375000Y-70300000I100000J0D01*
G01*
G37*
G36*
G01*
X69375000Y-71100000D02*
X71775000Y-71100000D01*
G75*
G02*
X71875000Y-71200000I0J-100000D01*
G01*
X71875000Y-71700000D01*
G75*
G02*
X71775000Y-71800000I-100000J0D01*
G01*
X69375000Y-71800000D01*
G75*
G02*
X69275000Y-71700000I0J100000D01*
G01*
X69275000Y-71200000D01*
G75*
G02*
X69375000Y-71100000I100000J0D01*
G01*
G37*
G36*
G01*
X69425000Y-63950000D02*
X71125000Y-63950000D01*
G75*
G02*
X71225000Y-64050000I0J-100000D01*
G01*
X71225000Y-66450000D01*
G75*
G02*
X71125000Y-66550000I-100000J0D01*
G01*
X69425000Y-66550000D01*
G75*
G02*
X69325000Y-66450000I0J100000D01*
G01*
X69325000Y-64050000D01*
G75*
G02*
X69425000Y-63950000I100000J0D01*
G01*
G37*
G36*
G01*
X63975000Y-63850000D02*
X65675000Y-63850000D01*
G75*
G02*
X65775000Y-63950000I0J-100000D01*
G01*
X65775000Y-66350000D01*
G75*
G02*
X65675000Y-66450000I-100000J0D01*
G01*
X63975000Y-66450000D01*
G75*
G02*
X63875000Y-66350000I0J100000D01*
G01*
X63875000Y-63950000D01*
G75*
G02*
X63975000Y-63850000I100000J0D01*
G01*
G37*
G36*
G01*
X69425000Y-73150000D02*
X71125000Y-73150000D01*
G75*
G02*
X71225000Y-73250000I0J-100000D01*
G01*
X71225000Y-75650000D01*
G75*
G02*
X71125000Y-75750000I-100000J0D01*
G01*
X69425000Y-75750000D01*
G75*
G02*
X69325000Y-75650000I0J100000D01*
G01*
X69325000Y-73250000D01*
G75*
G02*
X69425000Y-73150000I100000J0D01*
G01*
G37*
G36*
G01*
X63975000Y-73150000D02*
X65675000Y-73150000D01*
G75*
G02*
X65775000Y-73250000I0J-100000D01*
G01*
X65775000Y-75650000D01*
G75*
G02*
X65675000Y-75750000I-100000J0D01*
G01*
X63975000Y-75750000D01*
G75*
G02*
X63875000Y-75650000I0J100000D01*
G01*
X63875000Y-73250000D01*
G75*
G02*
X63975000Y-73150000I100000J0D01*
G01*
G37*
D11*
X67675000Y-67650000D03*
X67675000Y-72050000D03*
G36*
G01*
X83244000Y-63526000D02*
X83244000Y-65026000D01*
G75*
G02*
X83144000Y-65126000I-100000J0D01*
G01*
X81144000Y-65126000D01*
G75*
G02*
X81044000Y-65026000I0J100000D01*
G01*
X81044000Y-63526000D01*
G75*
G02*
X81144000Y-63426000I100000J0D01*
G01*
X83144000Y-63426000D01*
G75*
G02*
X83244000Y-63526000I0J-100000D01*
G01*
G37*
G36*
G01*
X83244000Y-58926000D02*
X83244000Y-60426000D01*
G75*
G02*
X83144000Y-60526000I-100000J0D01*
G01*
X81144000Y-60526000D01*
G75*
G02*
X81044000Y-60426000I0J100000D01*
G01*
X81044000Y-58926000D01*
G75*
G02*
X81144000Y-58826000I100000J0D01*
G01*
X83144000Y-58826000D01*
G75*
G02*
X83244000Y-58926000I0J-100000D01*
G01*
G37*
G36*
G01*
X83244000Y-61226000D02*
X83244000Y-62726000D01*
G75*
G02*
X83144000Y-62826000I-100000J0D01*
G01*
X81144000Y-62826000D01*
G75*
G02*
X81044000Y-62726000I0J100000D01*
G01*
X81044000Y-61226000D01*
G75*
G02*
X81144000Y-61126000I100000J0D01*
G01*
X83144000Y-61126000D01*
G75*
G02*
X83244000Y-61226000I0J-100000D01*
G01*
G37*
G36*
G01*
X76944000Y-60076000D02*
X76944000Y-63876000D01*
G75*
G02*
X76844000Y-63976000I-100000J0D01*
G01*
X74844000Y-63976000D01*
G75*
G02*
X74744000Y-63876000I0J100000D01*
G01*
X74744000Y-60076000D01*
G75*
G02*
X74844000Y-59976000I100000J0D01*
G01*
X76844000Y-59976000D01*
G75*
G02*
X76944000Y-60076000I0J-100000D01*
G01*
G37*
G36*
G01*
X100500000Y-84000000D02*
X100500000Y-86400000D01*
G75*
G02*
X100400000Y-86500000I-100000J0D01*
G01*
X98500000Y-86500000D01*
G75*
G02*
X98400000Y-86400000I0J100000D01*
G01*
X98400000Y-84000000D01*
G75*
G02*
X98500000Y-83900000I100000J0D01*
G01*
X100400000Y-83900000D01*
G75*
G02*
X100500000Y-84000000I0J-100000D01*
G01*
G37*
G36*
G01*
X104600000Y-84000000D02*
X104600000Y-86400000D01*
G75*
G02*
X104500000Y-86500000I-100000J0D01*
G01*
X102600000Y-86500000D01*
G75*
G02*
X102500000Y-86400000I0J100000D01*
G01*
X102500000Y-84000000D01*
G75*
G02*
X102600000Y-83900000I100000J0D01*
G01*
X104500000Y-83900000D01*
G75*
G02*
X104600000Y-84000000I0J-100000D01*
G01*
G37*
D12*
X100835000Y-52725000D03*
X98295000Y-52725000D03*
X95755000Y-52725000D03*
X93215000Y-52725000D03*
G36*
G01*
X91525000Y-53675000D02*
X89825000Y-53675000D01*
G75*
G02*
X89725000Y-53575000I0J100000D01*
G01*
X89725000Y-51875000D01*
G75*
G02*
X89825000Y-51775000I100000J0D01*
G01*
X91525000Y-51775000D01*
G75*
G02*
X91625000Y-51875000I0J-100000D01*
G01*
X91625000Y-53575000D01*
G75*
G02*
X91525000Y-53675000I-100000J0D01*
G01*
G37*
D13*
X132715000Y-69850000D03*
X80010000Y-69850000D03*
D14*
X99695000Y-73660000D03*
X99695000Y-71120000D03*
X99695000Y-68580000D03*
G36*
G01*
X98778734Y-65070000D02*
X100611266Y-65070000D01*
G75*
G02*
X100890000Y-65348734I0J-278734D01*
G01*
X100890000Y-66731266D01*
G75*
G02*
X100611266Y-67010000I-278734J0D01*
G01*
X98778734Y-67010000D01*
G75*
G02*
X98500000Y-66731266I0J278734D01*
G01*
X98500000Y-65348734D01*
G75*
G02*
X98778734Y-65070000I278734J0D01*
G01*
G37*
D12*
X124460000Y-77470000D03*
X121920000Y-77470000D03*
X124460000Y-74930000D03*
X121920000Y-74930000D03*
X124460000Y-72390000D03*
X121920000Y-72390000D03*
X124460000Y-69850000D03*
X121920000Y-69850000D03*
X124460000Y-67310000D03*
X121920000Y-67310000D03*
X124460000Y-64770000D03*
X121920000Y-64770000D03*
X124460000Y-62230000D03*
G36*
G01*
X120970000Y-63080000D02*
X120970000Y-61380000D01*
G75*
G02*
X121070000Y-61280000I100000J0D01*
G01*
X122770000Y-61280000D01*
G75*
G02*
X122870000Y-61380000I0J-100000D01*
G01*
X122870000Y-63080000D01*
G75*
G02*
X122770000Y-63180000I-100000J0D01*
G01*
X121070000Y-63180000D01*
G75*
G02*
X120970000Y-63080000I0J100000D01*
G01*
G37*
G36*
G01*
X68316000Y-80992500D02*
X68316000Y-81567500D01*
G75*
G02*
X68028500Y-81855000I-287500J0D01*
G01*
X67353500Y-81855000D01*
G75*
G02*
X67066000Y-81567500I0J287500D01*
G01*
X67066000Y-80992500D01*
G75*
G02*
X67353500Y-80705000I287500J0D01*
G01*
X68028500Y-80705000D01*
G75*
G02*
X68316000Y-80992500I0J-287500D01*
G01*
G37*
G36*
G01*
X70066000Y-80992500D02*
X70066000Y-81567500D01*
G75*
G02*
X69778500Y-81855000I-287500J0D01*
G01*
X69103500Y-81855000D01*
G75*
G02*
X68816000Y-81567500I0J287500D01*
G01*
X68816000Y-80992500D01*
G75*
G02*
X69103500Y-80705000I287500J0D01*
G01*
X69778500Y-80705000D01*
G75*
G02*
X70066000Y-80992500I0J-287500D01*
G01*
G37*
G36*
G01*
X68316000Y-79468500D02*
X68316000Y-80043500D01*
G75*
G02*
X68028500Y-80331000I-287500J0D01*
G01*
X67353500Y-80331000D01*
G75*
G02*
X67066000Y-80043500I0J287500D01*
G01*
X67066000Y-79468500D01*
G75*
G02*
X67353500Y-79181000I287500J0D01*
G01*
X68028500Y-79181000D01*
G75*
G02*
X68316000Y-79468500I0J-287500D01*
G01*
G37*
G36*
G01*
X70066000Y-79468500D02*
X70066000Y-80043500D01*
G75*
G02*
X69778500Y-80331000I-287500J0D01*
G01*
X69103500Y-80331000D01*
G75*
G02*
X68816000Y-80043500I0J287500D01*
G01*
X68816000Y-79468500D01*
G75*
G02*
X69103500Y-79181000I287500J0D01*
G01*
X69778500Y-79181000D01*
G75*
G02*
X70066000Y-79468500I0J-287500D01*
G01*
G37*
G36*
G01*
X84279000Y-61406000D02*
X84854000Y-61406000D01*
G75*
G02*
X85141500Y-61693500I0J-287500D01*
G01*
X85141500Y-62393500D01*
G75*
G02*
X84854000Y-62681000I-287500J0D01*
G01*
X84279000Y-62681000D01*
G75*
G02*
X83991500Y-62393500I0J287500D01*
G01*
X83991500Y-61693500D01*
G75*
G02*
X84279000Y-61406000I287500J0D01*
G01*
G37*
G36*
G01*
X84279000Y-59681000D02*
X84854000Y-59681000D01*
G75*
G02*
X85141500Y-59968500I0J-287500D01*
G01*
X85141500Y-60668500D01*
G75*
G02*
X84854000Y-60956000I-287500J0D01*
G01*
X84279000Y-60956000D01*
G75*
G02*
X83991500Y-60668500I0J287500D01*
G01*
X83991500Y-59968500D01*
G75*
G02*
X84279000Y-59681000I287500J0D01*
G01*
G37*
G36*
G01*
X71153500Y-61497000D02*
X70578500Y-61497000D01*
G75*
G02*
X70291000Y-61209500I0J287500D01*
G01*
X70291000Y-60509500D01*
G75*
G02*
X70578500Y-60222000I287500J0D01*
G01*
X71153500Y-60222000D01*
G75*
G02*
X71441000Y-60509500I0J-287500D01*
G01*
X71441000Y-61209500D01*
G75*
G02*
X71153500Y-61497000I-287500J0D01*
G01*
G37*
G36*
G01*
X71153500Y-63222000D02*
X70578500Y-63222000D01*
G75*
G02*
X70291000Y-62934500I0J287500D01*
G01*
X70291000Y-62234500D01*
G75*
G02*
X70578500Y-61947000I287500J0D01*
G01*
X71153500Y-61947000D01*
G75*
G02*
X71441000Y-62234500I0J-287500D01*
G01*
X71441000Y-62934500D01*
G75*
G02*
X71153500Y-63222000I-287500J0D01*
G01*
G37*
D10*
G36*
X98121165Y-84743374D02*
G01*
X98122000Y-84745000D01*
X98122000Y-84790092D01*
X98121990Y-84790288D01*
X98118441Y-84826316D01*
X98118365Y-84826701D01*
X98109288Y-84856625D01*
X98109138Y-84856987D01*
X98094398Y-84884564D01*
X98094180Y-84884890D01*
X98074341Y-84909064D01*
X98074064Y-84909341D01*
X98049890Y-84929180D01*
X98049564Y-84929398D01*
X98016487Y-84947078D01*
X98016310Y-84947162D01*
X98009833Y-84949846D01*
X97993864Y-84960519D01*
X97980284Y-84974102D01*
X97969614Y-84990076D01*
X97962265Y-85007822D01*
X97958518Y-85026666D01*
X97958521Y-85045872D01*
X97962270Y-85064713D01*
X97969625Y-85082462D01*
X97980298Y-85098431D01*
X97993881Y-85112011D01*
X98009926Y-85122731D01*
X98041789Y-85139761D01*
X98042115Y-85139979D01*
X98065529Y-85159194D01*
X98065806Y-85159471D01*
X98085021Y-85182886D01*
X98085239Y-85183212D01*
X98099518Y-85209927D01*
X98099668Y-85210289D01*
X98108462Y-85239276D01*
X98108538Y-85239661D01*
X98111990Y-85274712D01*
X98112000Y-85274908D01*
X98112000Y-85320000D01*
X98111000Y-85321732D01*
X98109000Y-85321732D01*
X98108010Y-85320196D01*
X98104091Y-85280401D01*
X98092538Y-85242319D01*
X98073780Y-85207224D01*
X98048536Y-85176464D01*
X98017776Y-85151220D01*
X97982681Y-85132462D01*
X97944599Y-85120909D01*
X97904906Y-85117000D01*
X97495094Y-85117000D01*
X97455401Y-85120909D01*
X97417319Y-85132462D01*
X97382224Y-85151220D01*
X97351464Y-85176464D01*
X97326220Y-85207224D01*
X97307462Y-85242319D01*
X97295909Y-85280401D01*
X97291990Y-85320196D01*
X97290825Y-85321822D01*
X97288835Y-85321626D01*
X97288000Y-85320000D01*
X97288000Y-85274908D01*
X97288010Y-85274712D01*
X97291462Y-85239661D01*
X97291538Y-85239276D01*
X97300332Y-85210289D01*
X97300482Y-85209927D01*
X97314761Y-85183212D01*
X97314979Y-85182886D01*
X97334194Y-85159471D01*
X97334471Y-85159194D01*
X97357885Y-85139979D01*
X97358211Y-85139761D01*
X97390074Y-85122731D01*
X97406127Y-85112005D01*
X97419708Y-85098424D01*
X97430381Y-85082452D01*
X97437732Y-85064706D01*
X97441480Y-85045862D01*
X97441481Y-85026657D01*
X97437733Y-85007813D01*
X97430382Y-84990067D01*
X97419710Y-84974094D01*
X97406129Y-84960513D01*
X97390159Y-84949841D01*
X97383681Y-84947157D01*
X97383504Y-84947073D01*
X97350436Y-84929398D01*
X97350110Y-84929180D01*
X97325936Y-84909341D01*
X97325659Y-84909064D01*
X97305820Y-84884890D01*
X97305602Y-84884564D01*
X97290862Y-84856987D01*
X97290712Y-84856625D01*
X97281635Y-84826701D01*
X97281559Y-84826316D01*
X97278010Y-84790288D01*
X97278000Y-84790092D01*
X97278000Y-84745000D01*
X97279000Y-84743268D01*
X97281000Y-84743268D01*
X97281990Y-84744804D01*
X97286005Y-84785574D01*
X97297842Y-84824595D01*
X97317062Y-84860554D01*
X97342929Y-84892071D01*
X97374446Y-84917938D01*
X97410405Y-84937158D01*
X97449426Y-84948995D01*
X97490094Y-84953000D01*
X97909906Y-84953000D01*
X97950574Y-84948995D01*
X97989595Y-84937158D01*
X98025554Y-84917938D01*
X98057071Y-84892071D01*
X98082938Y-84860554D01*
X98102158Y-84824595D01*
X98113995Y-84785574D01*
X98118010Y-84744804D01*
X98119175Y-84743178D01*
X98121165Y-84743374D01*
G37*
G36*
X113536165Y-81983374D02*
G01*
X113537000Y-81985000D01*
X113537000Y-82030092D01*
X113536990Y-82030288D01*
X113533441Y-82066316D01*
X113533365Y-82066701D01*
X113524288Y-82096625D01*
X113524138Y-82096987D01*
X113509398Y-82124564D01*
X113509180Y-82124890D01*
X113489341Y-82149064D01*
X113489064Y-82149341D01*
X113464890Y-82169180D01*
X113464564Y-82169398D01*
X113428774Y-82188528D01*
X113412721Y-82199254D01*
X113399140Y-82212835D01*
X113388468Y-82228808D01*
X113381117Y-82246554D01*
X113377369Y-82265398D01*
X113377369Y-82284603D01*
X113381117Y-82303446D01*
X113388468Y-82321192D01*
X113399140Y-82337165D01*
X113412721Y-82350746D01*
X113428774Y-82361472D01*
X113464564Y-82380602D01*
X113464890Y-82380820D01*
X113489064Y-82400659D01*
X113489341Y-82400936D01*
X113509180Y-82425110D01*
X113509398Y-82425436D01*
X113524138Y-82453013D01*
X113524288Y-82453375D01*
X113533365Y-82483299D01*
X113533441Y-82483684D01*
X113536990Y-82519712D01*
X113537000Y-82519908D01*
X113537000Y-82565000D01*
X113536000Y-82566732D01*
X113534000Y-82566732D01*
X113533010Y-82565196D01*
X113528995Y-82524426D01*
X113517158Y-82485405D01*
X113497938Y-82449446D01*
X113472071Y-82417929D01*
X113440554Y-82392062D01*
X113404595Y-82372842D01*
X113365574Y-82361005D01*
X113324906Y-82357000D01*
X112830094Y-82357000D01*
X112789426Y-82361005D01*
X112750405Y-82372842D01*
X112714446Y-82392062D01*
X112682929Y-82417929D01*
X112657062Y-82449446D01*
X112637842Y-82485405D01*
X112626005Y-82524426D01*
X112621990Y-82565196D01*
X112620825Y-82566822D01*
X112618835Y-82566626D01*
X112618000Y-82565000D01*
X112618000Y-82519908D01*
X112618010Y-82519712D01*
X112621559Y-82483684D01*
X112621635Y-82483299D01*
X112630712Y-82453375D01*
X112630862Y-82453013D01*
X112645602Y-82425436D01*
X112645820Y-82425110D01*
X112665659Y-82400936D01*
X112665936Y-82400659D01*
X112690110Y-82380820D01*
X112690436Y-82380602D01*
X112726226Y-82361472D01*
X112742279Y-82350746D01*
X112755860Y-82337165D01*
X112766532Y-82321192D01*
X112773883Y-82303446D01*
X112777631Y-82284602D01*
X112777631Y-82265397D01*
X112773883Y-82246554D01*
X112766532Y-82228808D01*
X112755860Y-82212835D01*
X112742279Y-82199254D01*
X112726226Y-82188528D01*
X112690436Y-82169398D01*
X112690110Y-82169180D01*
X112665936Y-82149341D01*
X112665659Y-82149064D01*
X112645820Y-82124890D01*
X112645602Y-82124564D01*
X112630862Y-82096987D01*
X112630712Y-82096625D01*
X112621635Y-82066701D01*
X112621559Y-82066316D01*
X112618010Y-82030288D01*
X112618000Y-82030092D01*
X112618000Y-81985000D01*
X112619000Y-81983268D01*
X112621000Y-81983268D01*
X112621990Y-81984804D01*
X112626005Y-82025574D01*
X112637842Y-82064595D01*
X112657062Y-82100554D01*
X112682929Y-82132071D01*
X112714446Y-82157938D01*
X112750405Y-82177158D01*
X112789426Y-82188995D01*
X112830094Y-82193000D01*
X113324906Y-82193000D01*
X113365574Y-82188995D01*
X113404595Y-82177158D01*
X113440554Y-82157938D01*
X113472071Y-82132071D01*
X113497938Y-82100554D01*
X113517158Y-82064595D01*
X113528995Y-82025574D01*
X113533010Y-81984804D01*
X113534175Y-81983178D01*
X113536165Y-81983374D01*
G37*
G36*
X115801165Y-81003374D02*
G01*
X115802000Y-81005000D01*
X115802000Y-81050092D01*
X115801990Y-81050288D01*
X115798538Y-81085339D01*
X115798462Y-81085724D01*
X115789668Y-81114711D01*
X115789518Y-81115073D01*
X115775239Y-81141788D01*
X115775021Y-81142114D01*
X115755806Y-81165529D01*
X115755529Y-81165806D01*
X115732114Y-81185021D01*
X115731788Y-81185239D01*
X115702250Y-81201027D01*
X115686197Y-81211753D01*
X115672615Y-81225334D01*
X115661943Y-81241307D01*
X115654592Y-81259053D01*
X115650844Y-81277896D01*
X115650843Y-81297101D01*
X115654592Y-81315945D01*
X115661942Y-81333691D01*
X115672614Y-81349664D01*
X115686195Y-81363246D01*
X115702250Y-81373973D01*
X115731788Y-81389761D01*
X115732114Y-81389979D01*
X115755529Y-81409194D01*
X115755806Y-81409471D01*
X115775021Y-81432886D01*
X115775239Y-81433212D01*
X115789518Y-81459927D01*
X115789668Y-81460289D01*
X115798462Y-81489276D01*
X115798538Y-81489661D01*
X115801990Y-81524712D01*
X115802000Y-81524908D01*
X115802000Y-81570000D01*
X115801000Y-81571732D01*
X115799000Y-81571732D01*
X115798010Y-81570196D01*
X115794091Y-81530401D01*
X115782538Y-81492319D01*
X115763780Y-81457224D01*
X115738536Y-81426464D01*
X115707776Y-81401220D01*
X115672681Y-81382462D01*
X115634599Y-81370909D01*
X115594906Y-81367000D01*
X115070094Y-81367000D01*
X115030401Y-81370909D01*
X114992319Y-81382462D01*
X114957224Y-81401220D01*
X114926464Y-81426464D01*
X114901220Y-81457224D01*
X114882462Y-81492319D01*
X114870909Y-81530401D01*
X114867000Y-81570094D01*
X114867000Y-81979906D01*
X114870909Y-82019599D01*
X114882462Y-82057681D01*
X114901220Y-82092776D01*
X114926464Y-82123536D01*
X114957224Y-82148780D01*
X114992319Y-82167538D01*
X115030401Y-82179091D01*
X115070196Y-82183010D01*
X115071822Y-82184175D01*
X115071626Y-82186165D01*
X115070000Y-82187000D01*
X115024908Y-82187000D01*
X115024712Y-82186990D01*
X114989661Y-82183538D01*
X114989276Y-82183462D01*
X114960289Y-82174668D01*
X114959927Y-82174518D01*
X114933212Y-82160239D01*
X114932886Y-82160021D01*
X114909471Y-82140806D01*
X114909194Y-82140529D01*
X114889979Y-82117114D01*
X114889761Y-82116788D01*
X114885629Y-82109058D01*
X114874903Y-82093006D01*
X114861321Y-82079424D01*
X114845349Y-82068753D01*
X114827603Y-82061402D01*
X114808759Y-82057653D01*
X114789554Y-82057654D01*
X114770710Y-82061402D01*
X114752964Y-82068753D01*
X114736992Y-82079425D01*
X114723410Y-82093007D01*
X114712684Y-82109060D01*
X114704396Y-82124567D01*
X114704178Y-82124893D01*
X114684341Y-82149064D01*
X114684064Y-82149341D01*
X114659890Y-82169180D01*
X114659564Y-82169398D01*
X114623774Y-82188528D01*
X114607721Y-82199254D01*
X114594140Y-82212835D01*
X114583468Y-82228808D01*
X114576117Y-82246554D01*
X114572369Y-82265398D01*
X114572369Y-82284603D01*
X114576117Y-82303446D01*
X114583468Y-82321192D01*
X114594140Y-82337165D01*
X114607721Y-82350746D01*
X114623774Y-82361472D01*
X114659564Y-82380602D01*
X114659890Y-82380820D01*
X114684064Y-82400659D01*
X114684341Y-82400936D01*
X114704180Y-82425110D01*
X114704398Y-82425436D01*
X114719138Y-82453013D01*
X114719288Y-82453375D01*
X114728365Y-82483299D01*
X114728441Y-82483684D01*
X114731990Y-82519712D01*
X114732000Y-82519908D01*
X114732000Y-82565000D01*
X114731000Y-82566732D01*
X114729000Y-82566732D01*
X114728010Y-82565196D01*
X114723995Y-82524426D01*
X114712158Y-82485405D01*
X114692938Y-82449446D01*
X114667071Y-82417929D01*
X114635554Y-82392062D01*
X114599595Y-82372842D01*
X114560574Y-82361005D01*
X114519906Y-82357000D01*
X114025094Y-82357000D01*
X113984426Y-82361005D01*
X113945405Y-82372842D01*
X113909446Y-82392062D01*
X113877929Y-82417929D01*
X113852062Y-82449446D01*
X113832842Y-82485405D01*
X113821005Y-82524426D01*
X113816990Y-82565196D01*
X113815825Y-82566822D01*
X113813835Y-82566626D01*
X113813000Y-82565000D01*
X113813000Y-82519908D01*
X113813010Y-82519712D01*
X113816559Y-82483684D01*
X113816635Y-82483299D01*
X113825712Y-82453375D01*
X113825862Y-82453013D01*
X113840602Y-82425436D01*
X113840820Y-82425110D01*
X113860659Y-82400936D01*
X113860936Y-82400659D01*
X113885110Y-82380820D01*
X113885436Y-82380602D01*
X113921226Y-82361472D01*
X113937279Y-82350746D01*
X113950860Y-82337165D01*
X113961532Y-82321192D01*
X113968883Y-82303446D01*
X113972631Y-82284602D01*
X113972631Y-82265397D01*
X113968883Y-82246554D01*
X113961532Y-82228808D01*
X113950860Y-82212835D01*
X113937279Y-82199254D01*
X113921226Y-82188528D01*
X113885436Y-82169398D01*
X113885110Y-82169180D01*
X113860936Y-82149341D01*
X113860659Y-82149064D01*
X113840820Y-82124890D01*
X113840602Y-82124564D01*
X113825862Y-82096987D01*
X113825712Y-82096625D01*
X113816635Y-82066701D01*
X113816559Y-82066316D01*
X113813010Y-82030288D01*
X113813000Y-82030092D01*
X113813000Y-81985000D01*
X113814000Y-81983268D01*
X113816000Y-81983268D01*
X113816990Y-81984804D01*
X113821005Y-82025574D01*
X113832842Y-82064595D01*
X113852062Y-82100554D01*
X113877929Y-82132071D01*
X113909446Y-82157938D01*
X113945405Y-82177158D01*
X113984426Y-82188995D01*
X114025094Y-82193000D01*
X114519906Y-82193000D01*
X114560574Y-82188995D01*
X114599595Y-82177158D01*
X114635554Y-82157938D01*
X114667071Y-82132071D01*
X114692938Y-82100554D01*
X114712158Y-82064595D01*
X114723995Y-82025574D01*
X114728000Y-81984906D01*
X114728000Y-81565094D01*
X114723995Y-81524426D01*
X114712158Y-81485405D01*
X114692938Y-81449446D01*
X114667071Y-81417929D01*
X114635554Y-81392062D01*
X114599595Y-81372842D01*
X114560574Y-81361005D01*
X114519804Y-81356990D01*
X114518178Y-81355825D01*
X114518374Y-81353835D01*
X114520000Y-81353000D01*
X114565092Y-81353000D01*
X114565288Y-81353010D01*
X114601316Y-81356559D01*
X114601701Y-81356635D01*
X114631625Y-81365712D01*
X114631987Y-81365862D01*
X114659564Y-81380602D01*
X114659890Y-81380820D01*
X114684064Y-81400659D01*
X114684341Y-81400936D01*
X114704178Y-81425107D01*
X114704396Y-81425433D01*
X114712684Y-81440940D01*
X114723410Y-81456993D01*
X114736991Y-81470575D01*
X114752964Y-81481247D01*
X114770710Y-81488598D01*
X114789553Y-81492346D01*
X114808759Y-81492347D01*
X114827602Y-81488598D01*
X114845348Y-81481248D01*
X114861321Y-81470576D01*
X114874903Y-81456995D01*
X114885629Y-81440942D01*
X114889761Y-81433212D01*
X114889979Y-81432886D01*
X114909194Y-81409471D01*
X114909471Y-81409194D01*
X114932886Y-81389979D01*
X114933212Y-81389761D01*
X114962750Y-81373973D01*
X114978803Y-81363247D01*
X114992385Y-81349666D01*
X115003057Y-81333693D01*
X115010408Y-81315947D01*
X115014156Y-81297104D01*
X115014157Y-81277899D01*
X115010408Y-81259055D01*
X115003058Y-81241309D01*
X114992386Y-81225336D01*
X114978805Y-81211754D01*
X114962750Y-81201027D01*
X114933212Y-81185239D01*
X114932886Y-81185021D01*
X114909471Y-81165806D01*
X114909194Y-81165529D01*
X114889979Y-81142114D01*
X114889761Y-81141788D01*
X114875482Y-81115073D01*
X114875332Y-81114711D01*
X114866538Y-81085724D01*
X114866462Y-81085339D01*
X114863010Y-81050288D01*
X114863000Y-81050092D01*
X114863000Y-81005000D01*
X114864000Y-81003268D01*
X114866000Y-81003268D01*
X114866990Y-81004804D01*
X114870909Y-81044599D01*
X114882462Y-81082681D01*
X114901220Y-81117776D01*
X114926464Y-81148536D01*
X114957224Y-81173780D01*
X114992319Y-81192538D01*
X115030401Y-81204091D01*
X115070094Y-81208000D01*
X115594906Y-81208000D01*
X115634599Y-81204091D01*
X115672681Y-81192538D01*
X115707776Y-81173780D01*
X115738536Y-81148536D01*
X115763780Y-81117776D01*
X115782538Y-81082681D01*
X115794091Y-81044599D01*
X115798010Y-81004804D01*
X115799175Y-81003178D01*
X115801165Y-81003374D01*
G37*
G36*
X116936165Y-81003374D02*
G01*
X116937000Y-81005000D01*
X116937000Y-81050092D01*
X116936990Y-81050288D01*
X116933538Y-81085339D01*
X116933462Y-81085724D01*
X116924668Y-81114711D01*
X116924518Y-81115073D01*
X116910239Y-81141788D01*
X116910021Y-81142114D01*
X116890806Y-81165529D01*
X116890529Y-81165806D01*
X116867114Y-81185021D01*
X116866788Y-81185239D01*
X116837250Y-81201027D01*
X116821197Y-81211753D01*
X116807615Y-81225334D01*
X116796943Y-81241307D01*
X116789592Y-81259053D01*
X116785844Y-81277896D01*
X116785843Y-81297101D01*
X116789592Y-81315945D01*
X116796942Y-81333691D01*
X116807614Y-81349664D01*
X116821195Y-81363246D01*
X116837250Y-81373973D01*
X116866788Y-81389761D01*
X116867114Y-81389979D01*
X116890529Y-81409194D01*
X116890806Y-81409471D01*
X116910021Y-81432886D01*
X116910239Y-81433212D01*
X116924518Y-81459927D01*
X116924668Y-81460289D01*
X116933462Y-81489276D01*
X116933538Y-81489661D01*
X116936990Y-81524712D01*
X116937000Y-81524908D01*
X116937000Y-81570000D01*
X116936000Y-81571732D01*
X116934000Y-81571732D01*
X116933010Y-81570196D01*
X116929091Y-81530401D01*
X116917538Y-81492319D01*
X116898780Y-81457224D01*
X116873536Y-81426464D01*
X116842776Y-81401220D01*
X116807681Y-81382462D01*
X116769599Y-81370909D01*
X116729906Y-81367000D01*
X116205094Y-81367000D01*
X116165401Y-81370909D01*
X116127319Y-81382462D01*
X116092224Y-81401220D01*
X116061464Y-81426464D01*
X116036220Y-81457224D01*
X116017462Y-81492319D01*
X116005909Y-81530401D01*
X116001990Y-81570196D01*
X116000825Y-81571822D01*
X115998835Y-81571626D01*
X115998000Y-81570000D01*
X115998000Y-81524908D01*
X115998010Y-81524712D01*
X116001462Y-81489661D01*
X116001538Y-81489276D01*
X116010332Y-81460289D01*
X116010482Y-81459927D01*
X116024761Y-81433212D01*
X116024979Y-81432886D01*
X116044194Y-81409471D01*
X116044471Y-81409194D01*
X116067886Y-81389979D01*
X116068212Y-81389761D01*
X116097750Y-81373973D01*
X116113803Y-81363247D01*
X116127385Y-81349666D01*
X116138057Y-81333693D01*
X116145408Y-81315947D01*
X116149156Y-81297104D01*
X116149157Y-81277899D01*
X116145408Y-81259055D01*
X116138058Y-81241309D01*
X116127386Y-81225336D01*
X116113805Y-81211754D01*
X116097750Y-81201027D01*
X116068212Y-81185239D01*
X116067886Y-81185021D01*
X116044471Y-81165806D01*
X116044194Y-81165529D01*
X116024979Y-81142114D01*
X116024761Y-81141788D01*
X116010482Y-81115073D01*
X116010332Y-81114711D01*
X116001538Y-81085724D01*
X116001462Y-81085339D01*
X115998010Y-81050288D01*
X115998000Y-81050092D01*
X115998000Y-81005000D01*
X115999000Y-81003268D01*
X116001000Y-81003268D01*
X116001990Y-81004804D01*
X116005909Y-81044599D01*
X116017462Y-81082681D01*
X116036220Y-81117776D01*
X116061464Y-81148536D01*
X116092224Y-81173780D01*
X116127319Y-81192538D01*
X116165401Y-81204091D01*
X116205094Y-81208000D01*
X116729906Y-81208000D01*
X116769599Y-81204091D01*
X116807681Y-81192538D01*
X116842776Y-81173780D01*
X116873536Y-81148536D01*
X116898780Y-81117776D01*
X116917538Y-81082681D01*
X116929091Y-81044599D01*
X116933010Y-81004804D01*
X116934175Y-81003178D01*
X116936165Y-81003374D01*
G37*
G36*
X97250288Y-80398010D02*
G01*
X97285339Y-80401462D01*
X97285724Y-80401538D01*
X97314711Y-80410332D01*
X97315073Y-80410482D01*
X97341788Y-80424761D01*
X97342114Y-80424979D01*
X97365529Y-80444194D01*
X97365806Y-80444471D01*
X97385021Y-80467886D01*
X97385239Y-80468212D01*
X97399518Y-80494927D01*
X97399668Y-80495289D01*
X97408462Y-80524276D01*
X97408538Y-80524661D01*
X97409103Y-80530397D01*
X97412870Y-80549340D01*
X97420223Y-80567089D01*
X97430895Y-80583061D01*
X97444477Y-80596642D01*
X97460449Y-80607314D01*
X97478196Y-80614665D01*
X97497039Y-80618413D01*
X97516244Y-80618412D01*
X97535088Y-80614664D01*
X97552834Y-80607312D01*
X97568806Y-80596640D01*
X97582387Y-80583058D01*
X97593059Y-80567086D01*
X97600449Y-80549244D01*
X97600713Y-80548373D01*
X97600863Y-80548010D01*
X97615602Y-80520436D01*
X97615820Y-80520110D01*
X97635659Y-80495936D01*
X97635936Y-80495659D01*
X97660110Y-80475820D01*
X97660436Y-80475602D01*
X97688013Y-80460862D01*
X97688375Y-80460712D01*
X97718299Y-80451635D01*
X97718684Y-80451559D01*
X97754712Y-80448010D01*
X97754908Y-80448000D01*
X97800000Y-80448000D01*
X97801732Y-80449000D01*
X97801732Y-80451000D01*
X97800196Y-80451990D01*
X97759426Y-80456005D01*
X97720405Y-80467842D01*
X97684446Y-80487062D01*
X97652929Y-80512929D01*
X97627062Y-80544446D01*
X97607842Y-80580405D01*
X97596005Y-80619426D01*
X97592000Y-80660094D01*
X97592000Y-81154906D01*
X97596005Y-81195574D01*
X97607842Y-81234595D01*
X97627062Y-81270554D01*
X97652929Y-81302071D01*
X97684446Y-81327938D01*
X97720405Y-81347158D01*
X97759426Y-81358995D01*
X97800196Y-81363010D01*
X97801822Y-81364175D01*
X97801626Y-81366165D01*
X97800000Y-81367000D01*
X97754908Y-81367000D01*
X97754712Y-81366990D01*
X97718684Y-81363441D01*
X97718299Y-81363365D01*
X97688375Y-81354288D01*
X97688013Y-81354138D01*
X97660436Y-81339398D01*
X97660110Y-81339180D01*
X97635936Y-81319341D01*
X97635659Y-81319064D01*
X97615820Y-81294890D01*
X97615602Y-81294564D01*
X97600862Y-81266988D01*
X97600712Y-81266626D01*
X97589915Y-81231031D01*
X97582527Y-81213194D01*
X97571855Y-81197222D01*
X97558273Y-81183640D01*
X97542301Y-81172968D01*
X97524555Y-81165617D01*
X97505711Y-81161869D01*
X97486506Y-81161868D01*
X97467662Y-81165617D01*
X97449916Y-81172967D01*
X97433944Y-81183639D01*
X97420362Y-81197221D01*
X97409690Y-81213193D01*
X97402300Y-81231032D01*
X97399666Y-81239715D01*
X97399516Y-81240077D01*
X97385239Y-81266788D01*
X97385021Y-81267114D01*
X97365806Y-81290529D01*
X97365529Y-81290806D01*
X97342114Y-81310021D01*
X97341788Y-81310239D01*
X97315073Y-81324518D01*
X97314711Y-81324668D01*
X97285724Y-81333462D01*
X97285339Y-81333538D01*
X97250288Y-81336990D01*
X97250092Y-81337000D01*
X97205000Y-81337000D01*
X97203268Y-81336000D01*
X97203268Y-81334000D01*
X97204804Y-81333010D01*
X97244599Y-81329091D01*
X97282681Y-81317538D01*
X97317776Y-81298780D01*
X97348536Y-81273536D01*
X97373780Y-81242776D01*
X97392538Y-81207681D01*
X97404091Y-81169599D01*
X97408000Y-81129906D01*
X97408000Y-80605094D01*
X97404091Y-80565401D01*
X97392538Y-80527319D01*
X97373780Y-80492224D01*
X97348536Y-80461464D01*
X97317776Y-80436220D01*
X97282681Y-80417462D01*
X97244599Y-80405909D01*
X97204804Y-80401990D01*
X97203178Y-80400825D01*
X97203374Y-80398835D01*
X97205000Y-80398000D01*
X97250092Y-80398000D01*
X97250288Y-80398010D01*
G37*
G36*
X80005288Y-79698010D02*
G01*
X80041316Y-79701559D01*
X80041701Y-79701635D01*
X80071625Y-79710712D01*
X80071987Y-79710862D01*
X80099564Y-79725602D01*
X80099890Y-79725820D01*
X80124064Y-79745659D01*
X80124341Y-79745936D01*
X80144180Y-79770110D01*
X80144398Y-79770436D01*
X80163528Y-79806226D01*
X80174254Y-79822279D01*
X80187835Y-79835860D01*
X80203808Y-79846532D01*
X80221554Y-79853883D01*
X80240398Y-79857631D01*
X80259603Y-79857631D01*
X80278446Y-79853883D01*
X80296192Y-79846532D01*
X80312165Y-79835860D01*
X80325746Y-79822279D01*
X80336472Y-79806226D01*
X80355602Y-79770436D01*
X80355820Y-79770110D01*
X80375659Y-79745936D01*
X80375936Y-79745659D01*
X80400110Y-79725820D01*
X80400436Y-79725602D01*
X80428013Y-79710862D01*
X80428375Y-79710712D01*
X80458299Y-79701635D01*
X80458684Y-79701559D01*
X80494712Y-79698010D01*
X80494908Y-79698000D01*
X80540000Y-79698000D01*
X80541732Y-79699000D01*
X80541732Y-79701000D01*
X80540196Y-79701990D01*
X80499426Y-79706005D01*
X80460405Y-79717842D01*
X80424446Y-79737062D01*
X80392929Y-79762929D01*
X80367062Y-79794446D01*
X80347842Y-79830405D01*
X80336005Y-79869426D01*
X80332000Y-79910094D01*
X80332000Y-80404906D01*
X80336005Y-80445574D01*
X80347842Y-80484595D01*
X80367062Y-80520554D01*
X80392929Y-80552071D01*
X80424446Y-80577938D01*
X80460405Y-80597158D01*
X80499426Y-80608995D01*
X80540196Y-80613010D01*
X80541822Y-80614175D01*
X80541626Y-80616165D01*
X80540000Y-80617000D01*
X80494908Y-80617000D01*
X80494712Y-80616990D01*
X80458684Y-80613441D01*
X80458299Y-80613365D01*
X80428375Y-80604288D01*
X80428013Y-80604138D01*
X80400436Y-80589398D01*
X80400110Y-80589180D01*
X80375936Y-80569341D01*
X80375659Y-80569064D01*
X80355820Y-80544890D01*
X80355602Y-80544564D01*
X80336472Y-80508774D01*
X80325746Y-80492721D01*
X80312165Y-80479140D01*
X80296192Y-80468468D01*
X80278446Y-80461117D01*
X80259602Y-80457369D01*
X80240397Y-80457369D01*
X80221554Y-80461117D01*
X80203808Y-80468468D01*
X80187835Y-80479140D01*
X80174254Y-80492721D01*
X80163528Y-80508774D01*
X80144398Y-80544564D01*
X80144180Y-80544890D01*
X80124341Y-80569064D01*
X80124064Y-80569341D01*
X80099890Y-80589180D01*
X80099564Y-80589398D01*
X80071987Y-80604138D01*
X80071625Y-80604288D01*
X80041701Y-80613365D01*
X80041316Y-80613441D01*
X80005288Y-80616990D01*
X80005092Y-80617000D01*
X79960000Y-80617000D01*
X79958268Y-80616000D01*
X79958268Y-80614000D01*
X79959804Y-80613010D01*
X80000574Y-80608995D01*
X80039595Y-80597158D01*
X80075554Y-80577938D01*
X80107071Y-80552071D01*
X80132938Y-80520554D01*
X80152158Y-80484595D01*
X80163995Y-80445574D01*
X80168000Y-80404906D01*
X80168000Y-79910094D01*
X80163995Y-79869426D01*
X80152158Y-79830405D01*
X80132938Y-79794446D01*
X80107071Y-79762929D01*
X80075554Y-79737062D01*
X80039595Y-79717842D01*
X80000574Y-79706005D01*
X79959804Y-79701990D01*
X79958178Y-79700825D01*
X79958374Y-79698835D01*
X79960000Y-79698000D01*
X80005092Y-79698000D01*
X80005288Y-79698010D01*
G37*
G36*
X81005288Y-79698010D02*
G01*
X81041316Y-79701559D01*
X81041701Y-79701635D01*
X81071625Y-79710712D01*
X81071987Y-79710862D01*
X81099564Y-79725602D01*
X81099890Y-79725820D01*
X81124064Y-79745659D01*
X81124341Y-79745936D01*
X81144180Y-79770110D01*
X81144398Y-79770436D01*
X81163528Y-79806226D01*
X81174254Y-79822279D01*
X81187835Y-79835860D01*
X81203808Y-79846532D01*
X81221554Y-79853883D01*
X81240398Y-79857631D01*
X81259603Y-79857631D01*
X81278446Y-79853883D01*
X81296192Y-79846532D01*
X81312165Y-79835860D01*
X81325746Y-79822279D01*
X81336472Y-79806226D01*
X81355602Y-79770436D01*
X81355820Y-79770110D01*
X81375659Y-79745936D01*
X81375936Y-79745659D01*
X81400110Y-79725820D01*
X81400436Y-79725602D01*
X81428013Y-79710862D01*
X81428375Y-79710712D01*
X81458299Y-79701635D01*
X81458684Y-79701559D01*
X81494712Y-79698010D01*
X81494908Y-79698000D01*
X81540000Y-79698000D01*
X81541732Y-79699000D01*
X81541732Y-79701000D01*
X81540196Y-79701990D01*
X81499426Y-79706005D01*
X81460405Y-79717842D01*
X81424446Y-79737062D01*
X81392929Y-79762929D01*
X81367062Y-79794446D01*
X81347842Y-79830405D01*
X81336005Y-79869426D01*
X81332000Y-79910094D01*
X81332000Y-80404906D01*
X81336005Y-80445574D01*
X81347842Y-80484595D01*
X81367062Y-80520554D01*
X81392929Y-80552071D01*
X81424446Y-80577938D01*
X81460405Y-80597158D01*
X81499426Y-80608995D01*
X81540196Y-80613010D01*
X81541822Y-80614175D01*
X81541626Y-80616165D01*
X81540000Y-80617000D01*
X81494908Y-80617000D01*
X81494712Y-80616990D01*
X81458684Y-80613441D01*
X81458299Y-80613365D01*
X81428375Y-80604288D01*
X81428013Y-80604138D01*
X81400436Y-80589398D01*
X81400110Y-80589180D01*
X81375936Y-80569341D01*
X81375659Y-80569064D01*
X81355820Y-80544890D01*
X81355602Y-80544564D01*
X81336472Y-80508774D01*
X81325746Y-80492721D01*
X81312165Y-80479140D01*
X81296192Y-80468468D01*
X81278446Y-80461117D01*
X81259602Y-80457369D01*
X81240397Y-80457369D01*
X81221554Y-80461117D01*
X81203808Y-80468468D01*
X81187835Y-80479140D01*
X81174254Y-80492721D01*
X81163528Y-80508774D01*
X81144398Y-80544564D01*
X81144180Y-80544890D01*
X81124341Y-80569064D01*
X81124064Y-80569341D01*
X81099890Y-80589180D01*
X81099564Y-80589398D01*
X81071987Y-80604138D01*
X81071625Y-80604288D01*
X81041701Y-80613365D01*
X81041316Y-80613441D01*
X81005288Y-80616990D01*
X81005092Y-80617000D01*
X80960000Y-80617000D01*
X80958268Y-80616000D01*
X80958268Y-80614000D01*
X80959804Y-80613010D01*
X81000574Y-80608995D01*
X81039595Y-80597158D01*
X81075554Y-80577938D01*
X81107071Y-80552071D01*
X81132938Y-80520554D01*
X81152158Y-80484595D01*
X81163995Y-80445574D01*
X81168000Y-80404906D01*
X81168000Y-79910094D01*
X81163995Y-79869426D01*
X81152158Y-79830405D01*
X81132938Y-79794446D01*
X81107071Y-79762929D01*
X81075554Y-79737062D01*
X81039595Y-79717842D01*
X81000574Y-79706005D01*
X80959804Y-79701990D01*
X80958178Y-79700825D01*
X80958374Y-79698835D01*
X80960000Y-79698000D01*
X81005092Y-79698000D01*
X81005288Y-79698010D01*
G37*
G36*
X82546732Y-79639000D02*
G01*
X82546732Y-79641000D01*
X82545196Y-79641990D01*
X82505401Y-79645909D01*
X82467319Y-79657462D01*
X82432224Y-79676220D01*
X82401464Y-79701464D01*
X82376220Y-79732224D01*
X82357462Y-79767319D01*
X82345909Y-79805401D01*
X82342000Y-79845094D01*
X82342000Y-80369906D01*
X82345909Y-80409599D01*
X82357462Y-80447681D01*
X82376220Y-80482776D01*
X82401464Y-80513536D01*
X82432224Y-80538780D01*
X82467319Y-80557538D01*
X82505401Y-80569091D01*
X82545196Y-80573010D01*
X82546822Y-80574175D01*
X82546626Y-80576165D01*
X82545000Y-80577000D01*
X82499908Y-80577000D01*
X82499712Y-80576990D01*
X82464661Y-80573538D01*
X82464276Y-80573462D01*
X82435289Y-80564668D01*
X82434927Y-80564518D01*
X82408212Y-80550239D01*
X82407886Y-80550021D01*
X82384471Y-80530806D01*
X82384194Y-80530529D01*
X82364979Y-80507115D01*
X82364761Y-80506789D01*
X82347157Y-80473852D01*
X82336431Y-80457800D01*
X82322850Y-80444218D01*
X82306878Y-80433546D01*
X82289132Y-80426194D01*
X82270288Y-80422446D01*
X82251083Y-80422445D01*
X82232239Y-80426193D01*
X82214493Y-80433544D01*
X82198521Y-80444216D01*
X82184939Y-80457797D01*
X82174267Y-80473768D01*
X82166877Y-80491607D01*
X82159287Y-80516627D01*
X82159137Y-80516989D01*
X82144398Y-80544564D01*
X82144180Y-80544890D01*
X82124341Y-80569064D01*
X82124064Y-80569341D01*
X82099890Y-80589180D01*
X82099564Y-80589398D01*
X82071987Y-80604138D01*
X82071625Y-80604288D01*
X82041701Y-80613365D01*
X82041316Y-80613441D01*
X82005288Y-80616990D01*
X82005092Y-80617000D01*
X81960000Y-80617000D01*
X81958268Y-80616000D01*
X81958268Y-80614000D01*
X81959804Y-80613010D01*
X82000574Y-80608995D01*
X82039595Y-80597158D01*
X82075554Y-80577938D01*
X82107071Y-80552071D01*
X82132938Y-80520554D01*
X82152158Y-80484595D01*
X82163995Y-80445574D01*
X82168000Y-80404906D01*
X82168000Y-79910094D01*
X82163995Y-79869426D01*
X82152158Y-79830405D01*
X82132938Y-79794446D01*
X82107071Y-79762929D01*
X82075554Y-79737062D01*
X82039595Y-79717842D01*
X82000574Y-79706005D01*
X81959804Y-79701990D01*
X81958178Y-79700825D01*
X81958374Y-79698835D01*
X81960000Y-79698000D01*
X82005092Y-79698000D01*
X82005288Y-79698010D01*
X82041316Y-79701559D01*
X82041701Y-79701635D01*
X82071625Y-79710712D01*
X82071987Y-79710862D01*
X82099564Y-79725602D01*
X82099890Y-79725820D01*
X82124064Y-79745659D01*
X82124341Y-79745936D01*
X82144180Y-79770109D01*
X82144398Y-79770435D01*
X82157986Y-79795858D01*
X82168712Y-79811911D01*
X82182293Y-79825492D01*
X82198266Y-79836164D01*
X82216012Y-79843515D01*
X82234855Y-79847263D01*
X82254060Y-79847263D01*
X82272904Y-79843515D01*
X82290650Y-79836164D01*
X82306623Y-79825492D01*
X82320204Y-79811911D01*
X82330876Y-79795938D01*
X82338227Y-79778192D01*
X82339943Y-79769567D01*
X82339991Y-79769376D01*
X82350332Y-79735289D01*
X82350482Y-79734927D01*
X82364761Y-79708212D01*
X82364979Y-79707886D01*
X82384194Y-79684471D01*
X82384471Y-79684194D01*
X82407886Y-79664979D01*
X82408212Y-79664761D01*
X82434927Y-79650482D01*
X82435289Y-79650332D01*
X82464276Y-79641538D01*
X82464661Y-79641462D01*
X82499712Y-79638010D01*
X82499908Y-79638000D01*
X82545000Y-79638000D01*
X82546732Y-79639000D01*
G37*
G36*
X97801732Y-79254000D02*
G01*
X97801732Y-79256000D01*
X97800196Y-79256990D01*
X97759426Y-79261005D01*
X97720405Y-79272842D01*
X97684446Y-79292062D01*
X97652929Y-79317929D01*
X97627062Y-79349446D01*
X97607842Y-79385405D01*
X97596005Y-79424426D01*
X97592000Y-79465094D01*
X97592000Y-79959906D01*
X97596005Y-80000574D01*
X97607842Y-80039595D01*
X97627062Y-80075554D01*
X97652929Y-80107071D01*
X97684446Y-80132938D01*
X97720405Y-80152158D01*
X97759426Y-80163995D01*
X97800196Y-80168010D01*
X97801822Y-80169175D01*
X97801626Y-80171165D01*
X97800000Y-80172000D01*
X97754908Y-80172000D01*
X97754712Y-80171990D01*
X97718684Y-80168441D01*
X97718299Y-80168365D01*
X97688375Y-80159288D01*
X97688013Y-80159138D01*
X97660436Y-80144398D01*
X97660110Y-80144180D01*
X97635936Y-80124341D01*
X97635659Y-80124064D01*
X97615820Y-80099890D01*
X97615602Y-80099564D01*
X97600864Y-80071990D01*
X97600714Y-80071628D01*
X97598961Y-80065850D01*
X97591572Y-80048013D01*
X97580901Y-80032040D01*
X97567319Y-80018458D01*
X97551347Y-80007786D01*
X97533601Y-80000435D01*
X97514758Y-79996686D01*
X97495553Y-79996685D01*
X97476709Y-80000433D01*
X97458963Y-80007784D01*
X97442990Y-80018455D01*
X97429408Y-80032037D01*
X97418736Y-80048009D01*
X97411385Y-80065755D01*
X97411211Y-80066629D01*
X97411163Y-80066820D01*
X97399668Y-80104711D01*
X97399518Y-80105073D01*
X97385239Y-80131788D01*
X97385021Y-80132114D01*
X97365806Y-80155529D01*
X97365529Y-80155806D01*
X97342114Y-80175021D01*
X97341788Y-80175239D01*
X97315073Y-80189518D01*
X97314711Y-80189668D01*
X97285724Y-80198462D01*
X97285339Y-80198538D01*
X97250288Y-80201990D01*
X97250092Y-80202000D01*
X97205000Y-80202000D01*
X97203268Y-80201000D01*
X97203268Y-80199000D01*
X97204804Y-80198010D01*
X97244599Y-80194091D01*
X97282681Y-80182538D01*
X97317776Y-80163780D01*
X97348536Y-80138536D01*
X97373780Y-80107776D01*
X97392538Y-80072681D01*
X97404091Y-80034599D01*
X97408000Y-79994906D01*
X97408000Y-79470094D01*
X97404091Y-79430401D01*
X97392538Y-79392319D01*
X97373779Y-79357223D01*
X97348536Y-79326464D01*
X97317776Y-79301220D01*
X97282681Y-79282462D01*
X97244599Y-79270909D01*
X97204804Y-79266990D01*
X97203178Y-79265825D01*
X97203374Y-79263835D01*
X97205000Y-79263000D01*
X97250092Y-79263000D01*
X97250288Y-79263010D01*
X97285339Y-79266462D01*
X97285724Y-79266538D01*
X97314711Y-79275332D01*
X97315073Y-79275482D01*
X97341788Y-79289761D01*
X97342114Y-79289979D01*
X97365529Y-79309194D01*
X97365806Y-79309471D01*
X97385021Y-79332886D01*
X97385239Y-79333212D01*
X97399517Y-79359925D01*
X97399667Y-79360287D01*
X97405335Y-79378970D01*
X97412725Y-79396807D01*
X97423397Y-79412779D01*
X97436979Y-79426360D01*
X97452951Y-79437032D01*
X97470697Y-79444383D01*
X97489541Y-79448131D01*
X97508746Y-79448130D01*
X97527590Y-79444382D01*
X97545336Y-79437030D01*
X97561308Y-79426358D01*
X97574889Y-79412776D01*
X97585561Y-79396804D01*
X97592949Y-79378967D01*
X97600712Y-79353375D01*
X97600862Y-79353013D01*
X97615602Y-79325436D01*
X97615820Y-79325110D01*
X97635659Y-79300936D01*
X97635936Y-79300659D01*
X97660110Y-79280820D01*
X97660436Y-79280602D01*
X97688013Y-79265862D01*
X97688375Y-79265712D01*
X97718299Y-79256635D01*
X97718684Y-79256559D01*
X97754712Y-79253010D01*
X97754908Y-79253000D01*
X97800000Y-79253000D01*
X97801732Y-79254000D01*
G37*
G36*
X113745288Y-78448010D02*
G01*
X113769609Y-78450405D01*
X113769994Y-78450481D01*
X113788662Y-78456144D01*
X113789024Y-78456294D01*
X113806234Y-78465493D01*
X113806560Y-78465711D01*
X113812758Y-78470797D01*
X113828811Y-78481523D01*
X113846557Y-78488873D01*
X113865401Y-78492621D01*
X113884606Y-78492620D01*
X113903449Y-78488871D01*
X113921195Y-78481520D01*
X113937242Y-78470798D01*
X113943440Y-78465711D01*
X113943766Y-78465493D01*
X113960976Y-78456294D01*
X113961338Y-78456144D01*
X113980006Y-78450481D01*
X113980391Y-78450405D01*
X114004712Y-78448010D01*
X114004908Y-78448000D01*
X114050000Y-78448000D01*
X114051732Y-78449000D01*
X114051732Y-78451000D01*
X114050196Y-78451990D01*
X114021131Y-78454852D01*
X113993366Y-78463275D01*
X113967780Y-78476951D01*
X113945355Y-78495355D01*
X113926951Y-78517780D01*
X113913275Y-78543366D01*
X113904852Y-78571131D01*
X113902000Y-78600094D01*
X113902000Y-79974906D01*
X113904852Y-80003869D01*
X113913275Y-80031634D01*
X113926951Y-80057220D01*
X113945355Y-80079645D01*
X113967780Y-80098049D01*
X113993366Y-80111725D01*
X114021131Y-80120148D01*
X114050196Y-80123010D01*
X114051822Y-80124175D01*
X114051626Y-80126165D01*
X114050000Y-80127000D01*
X114004908Y-80127000D01*
X114004712Y-80126990D01*
X113980391Y-80124595D01*
X113980006Y-80124519D01*
X113961338Y-80118856D01*
X113960976Y-80118706D01*
X113943766Y-80109507D01*
X113943440Y-80109289D01*
X113937242Y-80104203D01*
X113921189Y-80093477D01*
X113903443Y-80086127D01*
X113884599Y-80082379D01*
X113865394Y-80082380D01*
X113846551Y-80086129D01*
X113828805Y-80093480D01*
X113812758Y-80104202D01*
X113806560Y-80109289D01*
X113806234Y-80109507D01*
X113789024Y-80118706D01*
X113788662Y-80118856D01*
X113769994Y-80124519D01*
X113769609Y-80124595D01*
X113745288Y-80126990D01*
X113745092Y-80127000D01*
X113700000Y-80127000D01*
X113698268Y-80126000D01*
X113698268Y-80124000D01*
X113699804Y-80123010D01*
X113728869Y-80120148D01*
X113756634Y-80111725D01*
X113782220Y-80098049D01*
X113804645Y-80079645D01*
X113823049Y-80057220D01*
X113836725Y-80031634D01*
X113845148Y-80003869D01*
X113848000Y-79974906D01*
X113848000Y-78600094D01*
X113845148Y-78571131D01*
X113836725Y-78543366D01*
X113823049Y-78517780D01*
X113804645Y-78495355D01*
X113782220Y-78476951D01*
X113756634Y-78463275D01*
X113728869Y-78454852D01*
X113699804Y-78451990D01*
X113698178Y-78450825D01*
X113698374Y-78448835D01*
X113700000Y-78448000D01*
X113745092Y-78448000D01*
X113745288Y-78448010D01*
G37*
G36*
X113095288Y-78448010D02*
G01*
X113119609Y-78450405D01*
X113119994Y-78450481D01*
X113138662Y-78456144D01*
X113139024Y-78456294D01*
X113156234Y-78465493D01*
X113156560Y-78465711D01*
X113162758Y-78470797D01*
X113178811Y-78481523D01*
X113196557Y-78488873D01*
X113215401Y-78492621D01*
X113234606Y-78492620D01*
X113253449Y-78488871D01*
X113271195Y-78481520D01*
X113287242Y-78470798D01*
X113293440Y-78465711D01*
X113293766Y-78465493D01*
X113310976Y-78456294D01*
X113311338Y-78456144D01*
X113330006Y-78450481D01*
X113330391Y-78450405D01*
X113354712Y-78448010D01*
X113354908Y-78448000D01*
X113400000Y-78448000D01*
X113401732Y-78449000D01*
X113401732Y-78451000D01*
X113400196Y-78451990D01*
X113371131Y-78454852D01*
X113343366Y-78463275D01*
X113317780Y-78476951D01*
X113295355Y-78495355D01*
X113276951Y-78517780D01*
X113263275Y-78543366D01*
X113254852Y-78571131D01*
X113252000Y-78600094D01*
X113252000Y-79974906D01*
X113254852Y-80003869D01*
X113263275Y-80031634D01*
X113276951Y-80057220D01*
X113295355Y-80079645D01*
X113317780Y-80098049D01*
X113343366Y-80111725D01*
X113371131Y-80120148D01*
X113400196Y-80123010D01*
X113401822Y-80124175D01*
X113401626Y-80126165D01*
X113400000Y-80127000D01*
X113354908Y-80127000D01*
X113354712Y-80126990D01*
X113330391Y-80124595D01*
X113330006Y-80124519D01*
X113311338Y-80118856D01*
X113310976Y-80118706D01*
X113293766Y-80109507D01*
X113293440Y-80109289D01*
X113287242Y-80104203D01*
X113271189Y-80093477D01*
X113253443Y-80086127D01*
X113234599Y-80082379D01*
X113215394Y-80082380D01*
X113196551Y-80086129D01*
X113178805Y-80093480D01*
X113162758Y-80104202D01*
X113156560Y-80109289D01*
X113156234Y-80109507D01*
X113139024Y-80118706D01*
X113138662Y-80118856D01*
X113119994Y-80124519D01*
X113119609Y-80124595D01*
X113095288Y-80126990D01*
X113095092Y-80127000D01*
X113050000Y-80127000D01*
X113048268Y-80126000D01*
X113048268Y-80124000D01*
X113049804Y-80123010D01*
X113078869Y-80120148D01*
X113106634Y-80111725D01*
X113132220Y-80098049D01*
X113154645Y-80079645D01*
X113173049Y-80057220D01*
X113186725Y-80031634D01*
X113195148Y-80003869D01*
X113198000Y-79974906D01*
X113198000Y-78600094D01*
X113195148Y-78571131D01*
X113186725Y-78543366D01*
X113173049Y-78517780D01*
X113154645Y-78495355D01*
X113132220Y-78476951D01*
X113106634Y-78463275D01*
X113078869Y-78454852D01*
X113049804Y-78451990D01*
X113048178Y-78450825D01*
X113048374Y-78448835D01*
X113050000Y-78448000D01*
X113095092Y-78448000D01*
X113095288Y-78448010D01*
G37*
G36*
X108545288Y-78448010D02*
G01*
X108569609Y-78450405D01*
X108569994Y-78450481D01*
X108588662Y-78456144D01*
X108589024Y-78456294D01*
X108606234Y-78465493D01*
X108606560Y-78465711D01*
X108612758Y-78470797D01*
X108628811Y-78481523D01*
X108646557Y-78488873D01*
X108665401Y-78492621D01*
X108684606Y-78492620D01*
X108703449Y-78488871D01*
X108721195Y-78481520D01*
X108737242Y-78470798D01*
X108743440Y-78465711D01*
X108743766Y-78465493D01*
X108760976Y-78456294D01*
X108761338Y-78456144D01*
X108780006Y-78450481D01*
X108780391Y-78450405D01*
X108804712Y-78448010D01*
X108804908Y-78448000D01*
X108850000Y-78448000D01*
X108851732Y-78449000D01*
X108851732Y-78451000D01*
X108850196Y-78451990D01*
X108821131Y-78454852D01*
X108793366Y-78463275D01*
X108767780Y-78476951D01*
X108745355Y-78495355D01*
X108726951Y-78517780D01*
X108713275Y-78543366D01*
X108704852Y-78571131D01*
X108702000Y-78600094D01*
X108702000Y-79974906D01*
X108704852Y-80003869D01*
X108713275Y-80031634D01*
X108726951Y-80057220D01*
X108745355Y-80079645D01*
X108767780Y-80098049D01*
X108793366Y-80111725D01*
X108821131Y-80120148D01*
X108850196Y-80123010D01*
X108851822Y-80124175D01*
X108851626Y-80126165D01*
X108850000Y-80127000D01*
X108804908Y-80127000D01*
X108804712Y-80126990D01*
X108780391Y-80124595D01*
X108780006Y-80124519D01*
X108761338Y-80118856D01*
X108760976Y-80118706D01*
X108743766Y-80109507D01*
X108743440Y-80109289D01*
X108737242Y-80104203D01*
X108721189Y-80093477D01*
X108703443Y-80086127D01*
X108684599Y-80082379D01*
X108665394Y-80082380D01*
X108646551Y-80086129D01*
X108628805Y-80093480D01*
X108612758Y-80104202D01*
X108606560Y-80109289D01*
X108606234Y-80109507D01*
X108589024Y-80118706D01*
X108588662Y-80118856D01*
X108569994Y-80124519D01*
X108569609Y-80124595D01*
X108545288Y-80126990D01*
X108545092Y-80127000D01*
X108500000Y-80127000D01*
X108498268Y-80126000D01*
X108498268Y-80124000D01*
X108499804Y-80123010D01*
X108528869Y-80120148D01*
X108556634Y-80111725D01*
X108582220Y-80098049D01*
X108604645Y-80079645D01*
X108623049Y-80057220D01*
X108636725Y-80031634D01*
X108645148Y-80003869D01*
X108648000Y-79974906D01*
X108648000Y-78600094D01*
X108645148Y-78571131D01*
X108636725Y-78543366D01*
X108623049Y-78517780D01*
X108604645Y-78495355D01*
X108582220Y-78476951D01*
X108556634Y-78463275D01*
X108528869Y-78454852D01*
X108499804Y-78451990D01*
X108498178Y-78450825D01*
X108498374Y-78448835D01*
X108500000Y-78448000D01*
X108545092Y-78448000D01*
X108545288Y-78448010D01*
G37*
G36*
X109845288Y-78448010D02*
G01*
X109869609Y-78450405D01*
X109869994Y-78450481D01*
X109888662Y-78456144D01*
X109889024Y-78456294D01*
X109906234Y-78465493D01*
X109906560Y-78465711D01*
X109912758Y-78470797D01*
X109928811Y-78481523D01*
X109946557Y-78488873D01*
X109965401Y-78492621D01*
X109984606Y-78492620D01*
X110003449Y-78488871D01*
X110021195Y-78481520D01*
X110037242Y-78470798D01*
X110043440Y-78465711D01*
X110043766Y-78465493D01*
X110060976Y-78456294D01*
X110061338Y-78456144D01*
X110080006Y-78450481D01*
X110080391Y-78450405D01*
X110104712Y-78448010D01*
X110104908Y-78448000D01*
X110150000Y-78448000D01*
X110151732Y-78449000D01*
X110151732Y-78451000D01*
X110150196Y-78451990D01*
X110121131Y-78454852D01*
X110093366Y-78463275D01*
X110067780Y-78476951D01*
X110045355Y-78495355D01*
X110026951Y-78517780D01*
X110013275Y-78543366D01*
X110004852Y-78571131D01*
X110002000Y-78600094D01*
X110002000Y-79974906D01*
X110004852Y-80003869D01*
X110013275Y-80031634D01*
X110026951Y-80057220D01*
X110045355Y-80079645D01*
X110067780Y-80098049D01*
X110093366Y-80111725D01*
X110121131Y-80120148D01*
X110150196Y-80123010D01*
X110151822Y-80124175D01*
X110151626Y-80126165D01*
X110150000Y-80127000D01*
X110104908Y-80127000D01*
X110104712Y-80126990D01*
X110080391Y-80124595D01*
X110080006Y-80124519D01*
X110061338Y-80118856D01*
X110060976Y-80118706D01*
X110043766Y-80109507D01*
X110043440Y-80109289D01*
X110037242Y-80104203D01*
X110021189Y-80093477D01*
X110003443Y-80086127D01*
X109984599Y-80082379D01*
X109965394Y-80082380D01*
X109946551Y-80086129D01*
X109928805Y-80093480D01*
X109912758Y-80104202D01*
X109906560Y-80109289D01*
X109906234Y-80109507D01*
X109889024Y-80118706D01*
X109888662Y-80118856D01*
X109869994Y-80124519D01*
X109869609Y-80124595D01*
X109845288Y-80126990D01*
X109845092Y-80127000D01*
X109800000Y-80127000D01*
X109798268Y-80126000D01*
X109798268Y-80124000D01*
X109799804Y-80123010D01*
X109828869Y-80120148D01*
X109856634Y-80111725D01*
X109882220Y-80098049D01*
X109904645Y-80079645D01*
X109923049Y-80057220D01*
X109936725Y-80031634D01*
X109945148Y-80003869D01*
X109948000Y-79974906D01*
X109948000Y-78600094D01*
X109945148Y-78571131D01*
X109936725Y-78543366D01*
X109923049Y-78517780D01*
X109904645Y-78495355D01*
X109882220Y-78476951D01*
X109856634Y-78463275D01*
X109828869Y-78454852D01*
X109799804Y-78451990D01*
X109798178Y-78450825D01*
X109798374Y-78448835D01*
X109800000Y-78448000D01*
X109845092Y-78448000D01*
X109845288Y-78448010D01*
G37*
G36*
X111795288Y-78448010D02*
G01*
X111819609Y-78450405D01*
X111819994Y-78450481D01*
X111838662Y-78456144D01*
X111839024Y-78456294D01*
X111856234Y-78465493D01*
X111856560Y-78465711D01*
X111862758Y-78470797D01*
X111878811Y-78481523D01*
X111896557Y-78488873D01*
X111915401Y-78492621D01*
X111934606Y-78492620D01*
X111953449Y-78488871D01*
X111971195Y-78481520D01*
X111987242Y-78470798D01*
X111993440Y-78465711D01*
X111993766Y-78465493D01*
X112010976Y-78456294D01*
X112011338Y-78456144D01*
X112030006Y-78450481D01*
X112030391Y-78450405D01*
X112054712Y-78448010D01*
X112054908Y-78448000D01*
X112100000Y-78448000D01*
X112101732Y-78449000D01*
X112101732Y-78451000D01*
X112100196Y-78451990D01*
X112071131Y-78454852D01*
X112043366Y-78463275D01*
X112017780Y-78476951D01*
X111995355Y-78495355D01*
X111976951Y-78517780D01*
X111963275Y-78543366D01*
X111954852Y-78571131D01*
X111952000Y-78600094D01*
X111952000Y-79974906D01*
X111954852Y-80003869D01*
X111963275Y-80031634D01*
X111976951Y-80057220D01*
X111995355Y-80079645D01*
X112017780Y-80098049D01*
X112043366Y-80111725D01*
X112071131Y-80120148D01*
X112100196Y-80123010D01*
X112101822Y-80124175D01*
X112101626Y-80126165D01*
X112100000Y-80127000D01*
X112054908Y-80127000D01*
X112054712Y-80126990D01*
X112030391Y-80124595D01*
X112030006Y-80124519D01*
X112011338Y-80118856D01*
X112010976Y-80118706D01*
X111993766Y-80109507D01*
X111993440Y-80109289D01*
X111987242Y-80104203D01*
X111971189Y-80093477D01*
X111953443Y-80086127D01*
X111934599Y-80082379D01*
X111915394Y-80082380D01*
X111896551Y-80086129D01*
X111878805Y-80093480D01*
X111862758Y-80104202D01*
X111856560Y-80109289D01*
X111856234Y-80109507D01*
X111839024Y-80118706D01*
X111838662Y-80118856D01*
X111819994Y-80124519D01*
X111819609Y-80124595D01*
X111795288Y-80126990D01*
X111795092Y-80127000D01*
X111750000Y-80127000D01*
X111748268Y-80126000D01*
X111748268Y-80124000D01*
X111749804Y-80123010D01*
X111778869Y-80120148D01*
X111806634Y-80111725D01*
X111832220Y-80098049D01*
X111854645Y-80079645D01*
X111873049Y-80057220D01*
X111886725Y-80031634D01*
X111895148Y-80003869D01*
X111898000Y-79974906D01*
X111898000Y-78600094D01*
X111895148Y-78571131D01*
X111886725Y-78543366D01*
X111873049Y-78517780D01*
X111854645Y-78495355D01*
X111832220Y-78476951D01*
X111806634Y-78463275D01*
X111778869Y-78454852D01*
X111749804Y-78451990D01*
X111748178Y-78450825D01*
X111748374Y-78448835D01*
X111750000Y-78448000D01*
X111795092Y-78448000D01*
X111795288Y-78448010D01*
G37*
G36*
X111145288Y-78448010D02*
G01*
X111169609Y-78450405D01*
X111169994Y-78450481D01*
X111188662Y-78456144D01*
X111189024Y-78456294D01*
X111206234Y-78465493D01*
X111206560Y-78465711D01*
X111212758Y-78470797D01*
X111228811Y-78481523D01*
X111246557Y-78488873D01*
X111265401Y-78492621D01*
X111284606Y-78492620D01*
X111303449Y-78488871D01*
X111321195Y-78481520D01*
X111337242Y-78470798D01*
X111343440Y-78465711D01*
X111343766Y-78465493D01*
X111360976Y-78456294D01*
X111361338Y-78456144D01*
X111380006Y-78450481D01*
X111380391Y-78450405D01*
X111404712Y-78448010D01*
X111404908Y-78448000D01*
X111450000Y-78448000D01*
X111451732Y-78449000D01*
X111451732Y-78451000D01*
X111450196Y-78451990D01*
X111421131Y-78454852D01*
X111393366Y-78463275D01*
X111367780Y-78476951D01*
X111345355Y-78495355D01*
X111326951Y-78517780D01*
X111313275Y-78543366D01*
X111304852Y-78571131D01*
X111302000Y-78600094D01*
X111302000Y-79974906D01*
X111304852Y-80003869D01*
X111313275Y-80031634D01*
X111326951Y-80057220D01*
X111345355Y-80079645D01*
X111367780Y-80098049D01*
X111393366Y-80111725D01*
X111421131Y-80120148D01*
X111450196Y-80123010D01*
X111451822Y-80124175D01*
X111451626Y-80126165D01*
X111450000Y-80127000D01*
X111404908Y-80127000D01*
X111404712Y-80126990D01*
X111380391Y-80124595D01*
X111380006Y-80124519D01*
X111361338Y-80118856D01*
X111360976Y-80118706D01*
X111343766Y-80109507D01*
X111343440Y-80109289D01*
X111337242Y-80104203D01*
X111321189Y-80093477D01*
X111303443Y-80086127D01*
X111284599Y-80082379D01*
X111265394Y-80082380D01*
X111246551Y-80086129D01*
X111228805Y-80093480D01*
X111212758Y-80104202D01*
X111206560Y-80109289D01*
X111206234Y-80109507D01*
X111189024Y-80118706D01*
X111188662Y-80118856D01*
X111169994Y-80124519D01*
X111169609Y-80124595D01*
X111145288Y-80126990D01*
X111145092Y-80127000D01*
X111100000Y-80127000D01*
X111098268Y-80126000D01*
X111098268Y-80124000D01*
X111099804Y-80123010D01*
X111128869Y-80120148D01*
X111156634Y-80111725D01*
X111182220Y-80098049D01*
X111204645Y-80079645D01*
X111223049Y-80057220D01*
X111236725Y-80031634D01*
X111245148Y-80003869D01*
X111248000Y-79974906D01*
X111248000Y-78600094D01*
X111245148Y-78571131D01*
X111236725Y-78543366D01*
X111223049Y-78517780D01*
X111204645Y-78495355D01*
X111182220Y-78476951D01*
X111156634Y-78463275D01*
X111128869Y-78454852D01*
X111099804Y-78451990D01*
X111098178Y-78450825D01*
X111098374Y-78448835D01*
X111100000Y-78448000D01*
X111145092Y-78448000D01*
X111145288Y-78448010D01*
G37*
G36*
X110495288Y-78448010D02*
G01*
X110519609Y-78450405D01*
X110519994Y-78450481D01*
X110538662Y-78456144D01*
X110539024Y-78456294D01*
X110556234Y-78465493D01*
X110556560Y-78465711D01*
X110562758Y-78470797D01*
X110578811Y-78481523D01*
X110596557Y-78488873D01*
X110615401Y-78492621D01*
X110634606Y-78492620D01*
X110653449Y-78488871D01*
X110671195Y-78481520D01*
X110687242Y-78470798D01*
X110693440Y-78465711D01*
X110693766Y-78465493D01*
X110710976Y-78456294D01*
X110711338Y-78456144D01*
X110730006Y-78450481D01*
X110730391Y-78450405D01*
X110754712Y-78448010D01*
X110754908Y-78448000D01*
X110800000Y-78448000D01*
X110801732Y-78449000D01*
X110801732Y-78451000D01*
X110800196Y-78451990D01*
X110771131Y-78454852D01*
X110743366Y-78463275D01*
X110717780Y-78476951D01*
X110695355Y-78495355D01*
X110676951Y-78517780D01*
X110663275Y-78543366D01*
X110654852Y-78571131D01*
X110652000Y-78600094D01*
X110652000Y-79974906D01*
X110654852Y-80003869D01*
X110663275Y-80031634D01*
X110676951Y-80057220D01*
X110695355Y-80079645D01*
X110717780Y-80098049D01*
X110743366Y-80111725D01*
X110771131Y-80120148D01*
X110800196Y-80123010D01*
X110801822Y-80124175D01*
X110801626Y-80126165D01*
X110800000Y-80127000D01*
X110754908Y-80127000D01*
X110754712Y-80126990D01*
X110730391Y-80124595D01*
X110730006Y-80124519D01*
X110711338Y-80118856D01*
X110710976Y-80118706D01*
X110693766Y-80109507D01*
X110693440Y-80109289D01*
X110687242Y-80104203D01*
X110671189Y-80093477D01*
X110653443Y-80086127D01*
X110634599Y-80082379D01*
X110615394Y-80082380D01*
X110596551Y-80086129D01*
X110578805Y-80093480D01*
X110562758Y-80104202D01*
X110556560Y-80109289D01*
X110556234Y-80109507D01*
X110539024Y-80118706D01*
X110538662Y-80118856D01*
X110519994Y-80124519D01*
X110519609Y-80124595D01*
X110495288Y-80126990D01*
X110495092Y-80127000D01*
X110450000Y-80127000D01*
X110448268Y-80126000D01*
X110448268Y-80124000D01*
X110449804Y-80123010D01*
X110478869Y-80120148D01*
X110506634Y-80111725D01*
X110532220Y-80098049D01*
X110554645Y-80079645D01*
X110573049Y-80057220D01*
X110586725Y-80031634D01*
X110595148Y-80003869D01*
X110598000Y-79974906D01*
X110598000Y-78600094D01*
X110595148Y-78571131D01*
X110586725Y-78543366D01*
X110573049Y-78517780D01*
X110554645Y-78495355D01*
X110532220Y-78476951D01*
X110506634Y-78463275D01*
X110478869Y-78454852D01*
X110449804Y-78451990D01*
X110448178Y-78450825D01*
X110448374Y-78448835D01*
X110450000Y-78448000D01*
X110495092Y-78448000D01*
X110495288Y-78448010D01*
G37*
G36*
X109195288Y-78448010D02*
G01*
X109219609Y-78450405D01*
X109219994Y-78450481D01*
X109238662Y-78456144D01*
X109239024Y-78456294D01*
X109256234Y-78465493D01*
X109256560Y-78465711D01*
X109262758Y-78470797D01*
X109278811Y-78481523D01*
X109296557Y-78488873D01*
X109315401Y-78492621D01*
X109334606Y-78492620D01*
X109353449Y-78488871D01*
X109371195Y-78481520D01*
X109387242Y-78470798D01*
X109393440Y-78465711D01*
X109393766Y-78465493D01*
X109410976Y-78456294D01*
X109411338Y-78456144D01*
X109430006Y-78450481D01*
X109430391Y-78450405D01*
X109454712Y-78448010D01*
X109454908Y-78448000D01*
X109500000Y-78448000D01*
X109501732Y-78449000D01*
X109501732Y-78451000D01*
X109500196Y-78451990D01*
X109471131Y-78454852D01*
X109443366Y-78463275D01*
X109417780Y-78476951D01*
X109395355Y-78495355D01*
X109376951Y-78517780D01*
X109363275Y-78543366D01*
X109354852Y-78571131D01*
X109352000Y-78600094D01*
X109352000Y-79974906D01*
X109354852Y-80003869D01*
X109363275Y-80031634D01*
X109376951Y-80057220D01*
X109395355Y-80079645D01*
X109417780Y-80098049D01*
X109443366Y-80111725D01*
X109471131Y-80120148D01*
X109500196Y-80123010D01*
X109501822Y-80124175D01*
X109501626Y-80126165D01*
X109500000Y-80127000D01*
X109454908Y-80127000D01*
X109454712Y-80126990D01*
X109430391Y-80124595D01*
X109430006Y-80124519D01*
X109411338Y-80118856D01*
X109410976Y-80118706D01*
X109393766Y-80109507D01*
X109393440Y-80109289D01*
X109387242Y-80104203D01*
X109371189Y-80093477D01*
X109353443Y-80086127D01*
X109334599Y-80082379D01*
X109315394Y-80082380D01*
X109296551Y-80086129D01*
X109278805Y-80093480D01*
X109262758Y-80104202D01*
X109256560Y-80109289D01*
X109256234Y-80109507D01*
X109239024Y-80118706D01*
X109238662Y-80118856D01*
X109219994Y-80124519D01*
X109219609Y-80124595D01*
X109195288Y-80126990D01*
X109195092Y-80127000D01*
X109150000Y-80127000D01*
X109148268Y-80126000D01*
X109148268Y-80124000D01*
X109149804Y-80123010D01*
X109178869Y-80120148D01*
X109206634Y-80111725D01*
X109232220Y-80098049D01*
X109254645Y-80079645D01*
X109273049Y-80057220D01*
X109286725Y-80031634D01*
X109295148Y-80003869D01*
X109298000Y-79974906D01*
X109298000Y-78600094D01*
X109295148Y-78571131D01*
X109286725Y-78543366D01*
X109273049Y-78517780D01*
X109254645Y-78495355D01*
X109232220Y-78476951D01*
X109206634Y-78463275D01*
X109178869Y-78454852D01*
X109149804Y-78451990D01*
X109148178Y-78450825D01*
X109148374Y-78448835D01*
X109150000Y-78448000D01*
X109195092Y-78448000D01*
X109195288Y-78448010D01*
G37*
G36*
X112445288Y-78448010D02*
G01*
X112469609Y-78450405D01*
X112469994Y-78450481D01*
X112488662Y-78456144D01*
X112489024Y-78456294D01*
X112506234Y-78465493D01*
X112506560Y-78465711D01*
X112512758Y-78470797D01*
X112528811Y-78481523D01*
X112546557Y-78488873D01*
X112565401Y-78492621D01*
X112584606Y-78492620D01*
X112603449Y-78488871D01*
X112621195Y-78481520D01*
X112637242Y-78470798D01*
X112643440Y-78465711D01*
X112643766Y-78465493D01*
X112660976Y-78456294D01*
X112661338Y-78456144D01*
X112680006Y-78450481D01*
X112680391Y-78450405D01*
X112704712Y-78448010D01*
X112704908Y-78448000D01*
X112750000Y-78448000D01*
X112751732Y-78449000D01*
X112751732Y-78451000D01*
X112750196Y-78451990D01*
X112721131Y-78454852D01*
X112693366Y-78463275D01*
X112667780Y-78476951D01*
X112645355Y-78495355D01*
X112626951Y-78517780D01*
X112613275Y-78543366D01*
X112604852Y-78571131D01*
X112602000Y-78600094D01*
X112602000Y-79974906D01*
X112604852Y-80003869D01*
X112613275Y-80031634D01*
X112626951Y-80057220D01*
X112645355Y-80079645D01*
X112667780Y-80098049D01*
X112693366Y-80111725D01*
X112721131Y-80120148D01*
X112750196Y-80123010D01*
X112751822Y-80124175D01*
X112751626Y-80126165D01*
X112750000Y-80127000D01*
X112704908Y-80127000D01*
X112704712Y-80126990D01*
X112680391Y-80124595D01*
X112680006Y-80124519D01*
X112661338Y-80118856D01*
X112660976Y-80118706D01*
X112643766Y-80109507D01*
X112643440Y-80109289D01*
X112637242Y-80104203D01*
X112621189Y-80093477D01*
X112603443Y-80086127D01*
X112584599Y-80082379D01*
X112565394Y-80082380D01*
X112546551Y-80086129D01*
X112528805Y-80093480D01*
X112512758Y-80104202D01*
X112506560Y-80109289D01*
X112506234Y-80109507D01*
X112489024Y-80118706D01*
X112488662Y-80118856D01*
X112469994Y-80124519D01*
X112469609Y-80124595D01*
X112445288Y-80126990D01*
X112445092Y-80127000D01*
X112400000Y-80127000D01*
X112398268Y-80126000D01*
X112398268Y-80124000D01*
X112399804Y-80123010D01*
X112428869Y-80120148D01*
X112456634Y-80111725D01*
X112482220Y-80098049D01*
X112504645Y-80079645D01*
X112523049Y-80057220D01*
X112536725Y-80031634D01*
X112545148Y-80003869D01*
X112548000Y-79974906D01*
X112548000Y-78600094D01*
X112545148Y-78571131D01*
X112536725Y-78543366D01*
X112523049Y-78517780D01*
X112504645Y-78495355D01*
X112482220Y-78476951D01*
X112456634Y-78463275D01*
X112428869Y-78454852D01*
X112399804Y-78451990D01*
X112398178Y-78450825D01*
X112398374Y-78448835D01*
X112400000Y-78448000D01*
X112445092Y-78448000D01*
X112445288Y-78448010D01*
G37*
G36*
X82005288Y-78503010D02*
G01*
X82041316Y-78506559D01*
X82041701Y-78506635D01*
X82071625Y-78515712D01*
X82071987Y-78515862D01*
X82099564Y-78530602D01*
X82099890Y-78530820D01*
X82124064Y-78550659D01*
X82124341Y-78550936D01*
X82144180Y-78575110D01*
X82144398Y-78575436D01*
X82159137Y-78603011D01*
X82159287Y-78603373D01*
X82160535Y-78607487D01*
X82167925Y-78625324D01*
X82178597Y-78641296D01*
X82192179Y-78654878D01*
X82208152Y-78665549D01*
X82225898Y-78672900D01*
X82244741Y-78676648D01*
X82263947Y-78676647D01*
X82282790Y-78672899D01*
X82300536Y-78665547D01*
X82316508Y-78654875D01*
X82330090Y-78641293D01*
X82340761Y-78625320D01*
X82348149Y-78607484D01*
X82350331Y-78600290D01*
X82350481Y-78599928D01*
X82364761Y-78573212D01*
X82364979Y-78572886D01*
X82384194Y-78549471D01*
X82384471Y-78549194D01*
X82407886Y-78529979D01*
X82408212Y-78529761D01*
X82434927Y-78515482D01*
X82435289Y-78515332D01*
X82464276Y-78506538D01*
X82464661Y-78506462D01*
X82499712Y-78503010D01*
X82499908Y-78503000D01*
X82545000Y-78503000D01*
X82546732Y-78504000D01*
X82546732Y-78506000D01*
X82545196Y-78506990D01*
X82505401Y-78510909D01*
X82467319Y-78522462D01*
X82432224Y-78541220D01*
X82401464Y-78566464D01*
X82376220Y-78597224D01*
X82357462Y-78632319D01*
X82345909Y-78670401D01*
X82342000Y-78710094D01*
X82342000Y-79234906D01*
X82345909Y-79274599D01*
X82357462Y-79312681D01*
X82376220Y-79347776D01*
X82401464Y-79378536D01*
X82432224Y-79403780D01*
X82467319Y-79422538D01*
X82505401Y-79434091D01*
X82545196Y-79438010D01*
X82546822Y-79439175D01*
X82546626Y-79441165D01*
X82545000Y-79442000D01*
X82499908Y-79442000D01*
X82499712Y-79441990D01*
X82464661Y-79438538D01*
X82464276Y-79438462D01*
X82435289Y-79429668D01*
X82434927Y-79429518D01*
X82408212Y-79415239D01*
X82407886Y-79415021D01*
X82384471Y-79395806D01*
X82384194Y-79395529D01*
X82364979Y-79372114D01*
X82364761Y-79371788D01*
X82350482Y-79345074D01*
X82350332Y-79344712D01*
X82345115Y-79327514D01*
X82337726Y-79309677D01*
X82327053Y-79293704D01*
X82313472Y-79280123D01*
X82297499Y-79269451D01*
X82279753Y-79262101D01*
X82260909Y-79258352D01*
X82241704Y-79258353D01*
X82222861Y-79262101D01*
X82205115Y-79269452D01*
X82189142Y-79280125D01*
X82175561Y-79293706D01*
X82164889Y-79309679D01*
X82162076Y-79316470D01*
X82161992Y-79316648D01*
X82144398Y-79349564D01*
X82144180Y-79349890D01*
X82124341Y-79374064D01*
X82124064Y-79374341D01*
X82099890Y-79394180D01*
X82099564Y-79394398D01*
X82071987Y-79409138D01*
X82071625Y-79409288D01*
X82041701Y-79418365D01*
X82041316Y-79418441D01*
X82005288Y-79421990D01*
X82005092Y-79422000D01*
X81960000Y-79422000D01*
X81958268Y-79421000D01*
X81958268Y-79419000D01*
X81959804Y-79418010D01*
X82000574Y-79413995D01*
X82039595Y-79402158D01*
X82075554Y-79382938D01*
X82107071Y-79357071D01*
X82132938Y-79325554D01*
X82152158Y-79289595D01*
X82163995Y-79250574D01*
X82168000Y-79209906D01*
X82168000Y-78715094D01*
X82163995Y-78674426D01*
X82152158Y-78635405D01*
X82132938Y-78599446D01*
X82107071Y-78567929D01*
X82075554Y-78542062D01*
X82039595Y-78522842D01*
X82000574Y-78511005D01*
X81959804Y-78506990D01*
X81958178Y-78505825D01*
X81958374Y-78503835D01*
X81960000Y-78503000D01*
X82005092Y-78503000D01*
X82005288Y-78503010D01*
G37*
G36*
X81005288Y-78503010D02*
G01*
X81041316Y-78506559D01*
X81041701Y-78506635D01*
X81071625Y-78515712D01*
X81071987Y-78515862D01*
X81099564Y-78530602D01*
X81099890Y-78530820D01*
X81124064Y-78550659D01*
X81124341Y-78550936D01*
X81144180Y-78575110D01*
X81144398Y-78575436D01*
X81163528Y-78611226D01*
X81174254Y-78627279D01*
X81187835Y-78640860D01*
X81203808Y-78651532D01*
X81221554Y-78658883D01*
X81240398Y-78662631D01*
X81259603Y-78662631D01*
X81278446Y-78658883D01*
X81296192Y-78651532D01*
X81312165Y-78640860D01*
X81325746Y-78627279D01*
X81336472Y-78611226D01*
X81355602Y-78575436D01*
X81355820Y-78575110D01*
X81375659Y-78550936D01*
X81375936Y-78550659D01*
X81400110Y-78530820D01*
X81400436Y-78530602D01*
X81428013Y-78515862D01*
X81428375Y-78515712D01*
X81458299Y-78506635D01*
X81458684Y-78506559D01*
X81494712Y-78503010D01*
X81494908Y-78503000D01*
X81540000Y-78503000D01*
X81541732Y-78504000D01*
X81541732Y-78506000D01*
X81540196Y-78506990D01*
X81499426Y-78511005D01*
X81460405Y-78522842D01*
X81424446Y-78542062D01*
X81392929Y-78567929D01*
X81367062Y-78599446D01*
X81347842Y-78635405D01*
X81336005Y-78674426D01*
X81332000Y-78715094D01*
X81332000Y-79209906D01*
X81336005Y-79250574D01*
X81347842Y-79289595D01*
X81367062Y-79325554D01*
X81392929Y-79357071D01*
X81424446Y-79382938D01*
X81460405Y-79402158D01*
X81499426Y-79413995D01*
X81540196Y-79418010D01*
X81541822Y-79419175D01*
X81541626Y-79421165D01*
X81540000Y-79422000D01*
X81494908Y-79422000D01*
X81494712Y-79421990D01*
X81458684Y-79418441D01*
X81458299Y-79418365D01*
X81428375Y-79409288D01*
X81428013Y-79409138D01*
X81400436Y-79394398D01*
X81400110Y-79394180D01*
X81375936Y-79374341D01*
X81375659Y-79374064D01*
X81355820Y-79349890D01*
X81355602Y-79349564D01*
X81336472Y-79313774D01*
X81325746Y-79297721D01*
X81312165Y-79284140D01*
X81296192Y-79273468D01*
X81278446Y-79266117D01*
X81259602Y-79262369D01*
X81240397Y-79262369D01*
X81221554Y-79266117D01*
X81203808Y-79273468D01*
X81187835Y-79284140D01*
X81174254Y-79297721D01*
X81163528Y-79313774D01*
X81144398Y-79349564D01*
X81144180Y-79349890D01*
X81124341Y-79374064D01*
X81124064Y-79374341D01*
X81099890Y-79394180D01*
X81099564Y-79394398D01*
X81071987Y-79409138D01*
X81071625Y-79409288D01*
X81041701Y-79418365D01*
X81041316Y-79418441D01*
X81005288Y-79421990D01*
X81005092Y-79422000D01*
X80960000Y-79422000D01*
X80958268Y-79421000D01*
X80958268Y-79419000D01*
X80959804Y-79418010D01*
X81000574Y-79413995D01*
X81039595Y-79402158D01*
X81075554Y-79382938D01*
X81107071Y-79357071D01*
X81132938Y-79325554D01*
X81152158Y-79289595D01*
X81163995Y-79250574D01*
X81168000Y-79209906D01*
X81168000Y-78715094D01*
X81163995Y-78674426D01*
X81152158Y-78635405D01*
X81132938Y-78599446D01*
X81107071Y-78567929D01*
X81075554Y-78542062D01*
X81039595Y-78522842D01*
X81000574Y-78511005D01*
X80959804Y-78506990D01*
X80958178Y-78505825D01*
X80958374Y-78503835D01*
X80960000Y-78503000D01*
X81005092Y-78503000D01*
X81005288Y-78503010D01*
G37*
G36*
X80005288Y-78503010D02*
G01*
X80041316Y-78506559D01*
X80041701Y-78506635D01*
X80071625Y-78515712D01*
X80071987Y-78515862D01*
X80099564Y-78530602D01*
X80099890Y-78530820D01*
X80124064Y-78550659D01*
X80124341Y-78550936D01*
X80144180Y-78575110D01*
X80144398Y-78575436D01*
X80163528Y-78611226D01*
X80174254Y-78627279D01*
X80187835Y-78640860D01*
X80203808Y-78651532D01*
X80221554Y-78658883D01*
X80240398Y-78662631D01*
X80259603Y-78662631D01*
X80278446Y-78658883D01*
X80296192Y-78651532D01*
X80312165Y-78640860D01*
X80325746Y-78627279D01*
X80336472Y-78611226D01*
X80355602Y-78575436D01*
X80355820Y-78575110D01*
X80375659Y-78550936D01*
X80375936Y-78550659D01*
X80400110Y-78530820D01*
X80400436Y-78530602D01*
X80428013Y-78515862D01*
X80428375Y-78515712D01*
X80458299Y-78506635D01*
X80458684Y-78506559D01*
X80494712Y-78503010D01*
X80494908Y-78503000D01*
X80540000Y-78503000D01*
X80541732Y-78504000D01*
X80541732Y-78506000D01*
X80540196Y-78506990D01*
X80499426Y-78511005D01*
X80460405Y-78522842D01*
X80424446Y-78542062D01*
X80392929Y-78567929D01*
X80367062Y-78599446D01*
X80347842Y-78635405D01*
X80336005Y-78674426D01*
X80332000Y-78715094D01*
X80332000Y-79209906D01*
X80336005Y-79250574D01*
X80347842Y-79289595D01*
X80367062Y-79325554D01*
X80392929Y-79357071D01*
X80424446Y-79382938D01*
X80460405Y-79402158D01*
X80499426Y-79413995D01*
X80540196Y-79418010D01*
X80541822Y-79419175D01*
X80541626Y-79421165D01*
X80540000Y-79422000D01*
X80494908Y-79422000D01*
X80494712Y-79421990D01*
X80458684Y-79418441D01*
X80458299Y-79418365D01*
X80428375Y-79409288D01*
X80428013Y-79409138D01*
X80400436Y-79394398D01*
X80400110Y-79394180D01*
X80375936Y-79374341D01*
X80375659Y-79374064D01*
X80355820Y-79349890D01*
X80355602Y-79349564D01*
X80336472Y-79313774D01*
X80325746Y-79297721D01*
X80312165Y-79284140D01*
X80296192Y-79273468D01*
X80278446Y-79266117D01*
X80259602Y-79262369D01*
X80240397Y-79262369D01*
X80221554Y-79266117D01*
X80203808Y-79273468D01*
X80187835Y-79284140D01*
X80174254Y-79297721D01*
X80163528Y-79313774D01*
X80144398Y-79349564D01*
X80144180Y-79349890D01*
X80124341Y-79374064D01*
X80124064Y-79374341D01*
X80099890Y-79394180D01*
X80099564Y-79394398D01*
X80071987Y-79409138D01*
X80071625Y-79409288D01*
X80041701Y-79418365D01*
X80041316Y-79418441D01*
X80005288Y-79421990D01*
X80005092Y-79422000D01*
X79960000Y-79422000D01*
X79958268Y-79421000D01*
X79958268Y-79419000D01*
X79959804Y-79418010D01*
X80000574Y-79413995D01*
X80039595Y-79402158D01*
X80075554Y-79382938D01*
X80107071Y-79357071D01*
X80132938Y-79325554D01*
X80152158Y-79289595D01*
X80163995Y-79250574D01*
X80168000Y-79209906D01*
X80168000Y-78715094D01*
X80163995Y-78674426D01*
X80152158Y-78635405D01*
X80132938Y-78599446D01*
X80107071Y-78567929D01*
X80075554Y-78542062D01*
X80039595Y-78522842D01*
X80000574Y-78511005D01*
X79959804Y-78506990D01*
X79958178Y-78505825D01*
X79958374Y-78503835D01*
X79960000Y-78503000D01*
X80005092Y-78503000D01*
X80005288Y-78503010D01*
G37*
G36*
X86136165Y-77053374D02*
G01*
X86137000Y-77055000D01*
X86137000Y-77100092D01*
X86136990Y-77100288D01*
X86133538Y-77135339D01*
X86133462Y-77135724D01*
X86124668Y-77164711D01*
X86124518Y-77165073D01*
X86110239Y-77191788D01*
X86110021Y-77192114D01*
X86090806Y-77215529D01*
X86090529Y-77215806D01*
X86067114Y-77235021D01*
X86066788Y-77235239D01*
X86040073Y-77249518D01*
X86039711Y-77249668D01*
X86018202Y-77256193D01*
X86000365Y-77263582D01*
X85984392Y-77274254D01*
X85970811Y-77287835D01*
X85960139Y-77303808D01*
X85952788Y-77321554D01*
X85949040Y-77340398D01*
X85949040Y-77359603D01*
X85952788Y-77378446D01*
X85960139Y-77396192D01*
X85970811Y-77412165D01*
X85984392Y-77425746D01*
X86000365Y-77436418D01*
X86018202Y-77443807D01*
X86039711Y-77450332D01*
X86040073Y-77450482D01*
X86066788Y-77464761D01*
X86067114Y-77464979D01*
X86090529Y-77484194D01*
X86090806Y-77484471D01*
X86110021Y-77507886D01*
X86110239Y-77508212D01*
X86124518Y-77534927D01*
X86124668Y-77535289D01*
X86133462Y-77564276D01*
X86133538Y-77564661D01*
X86136990Y-77599712D01*
X86137000Y-77599908D01*
X86137000Y-77645000D01*
X86136000Y-77646732D01*
X86134000Y-77646732D01*
X86133010Y-77645196D01*
X86129091Y-77605401D01*
X86117538Y-77567319D01*
X86098780Y-77532224D01*
X86073536Y-77501464D01*
X86042776Y-77476220D01*
X86007681Y-77457462D01*
X85969599Y-77445909D01*
X85929906Y-77442000D01*
X85405094Y-77442000D01*
X85365401Y-77445909D01*
X85327319Y-77457462D01*
X85292224Y-77476220D01*
X85261464Y-77501464D01*
X85236220Y-77532224D01*
X85217462Y-77567319D01*
X85205909Y-77605401D01*
X85201990Y-77645196D01*
X85200825Y-77646822D01*
X85198835Y-77646626D01*
X85198000Y-77645000D01*
X85198000Y-77599908D01*
X85198010Y-77599712D01*
X85201462Y-77564661D01*
X85201538Y-77564276D01*
X85210332Y-77535289D01*
X85210482Y-77534927D01*
X85224761Y-77508212D01*
X85224979Y-77507886D01*
X85244194Y-77484471D01*
X85244471Y-77484194D01*
X85267886Y-77464979D01*
X85268212Y-77464761D01*
X85294927Y-77450482D01*
X85295289Y-77450332D01*
X85316798Y-77443807D01*
X85334635Y-77436418D01*
X85350608Y-77425746D01*
X85364189Y-77412165D01*
X85374861Y-77396192D01*
X85382212Y-77378446D01*
X85385960Y-77359602D01*
X85385960Y-77340397D01*
X85382212Y-77321554D01*
X85374861Y-77303808D01*
X85364189Y-77287835D01*
X85350608Y-77274254D01*
X85334635Y-77263582D01*
X85316798Y-77256193D01*
X85295289Y-77249668D01*
X85294927Y-77249518D01*
X85268212Y-77235239D01*
X85267886Y-77235021D01*
X85244471Y-77215806D01*
X85244194Y-77215529D01*
X85224979Y-77192114D01*
X85224761Y-77191788D01*
X85210482Y-77165073D01*
X85210332Y-77164711D01*
X85201538Y-77135724D01*
X85201462Y-77135339D01*
X85198010Y-77100288D01*
X85198000Y-77100092D01*
X85198000Y-77055000D01*
X85199000Y-77053268D01*
X85201000Y-77053268D01*
X85201990Y-77054804D01*
X85205909Y-77094599D01*
X85217462Y-77132681D01*
X85236220Y-77167776D01*
X85261464Y-77198536D01*
X85292224Y-77223780D01*
X85327319Y-77242538D01*
X85365401Y-77254091D01*
X85405094Y-77258000D01*
X85929906Y-77258000D01*
X85969599Y-77254091D01*
X86007681Y-77242538D01*
X86042776Y-77223780D01*
X86073536Y-77198536D01*
X86098780Y-77167776D01*
X86117538Y-77132681D01*
X86129091Y-77094599D01*
X86133010Y-77054804D01*
X86134175Y-77053178D01*
X86136165Y-77053374D01*
G37*
G36*
X85001165Y-77053374D02*
G01*
X85002000Y-77055000D01*
X85002000Y-77100092D01*
X85001990Y-77100288D01*
X84998538Y-77135339D01*
X84998462Y-77135724D01*
X84989668Y-77164711D01*
X84989518Y-77165073D01*
X84975239Y-77191788D01*
X84975021Y-77192114D01*
X84955806Y-77215529D01*
X84955529Y-77215806D01*
X84932114Y-77235021D01*
X84931788Y-77235239D01*
X84905073Y-77249518D01*
X84904711Y-77249668D01*
X84883202Y-77256193D01*
X84865365Y-77263582D01*
X84849392Y-77274254D01*
X84835811Y-77287835D01*
X84825139Y-77303808D01*
X84817788Y-77321554D01*
X84814040Y-77340398D01*
X84814040Y-77359603D01*
X84817788Y-77378446D01*
X84825139Y-77396192D01*
X84835811Y-77412165D01*
X84849392Y-77425746D01*
X84865365Y-77436418D01*
X84883202Y-77443807D01*
X84904711Y-77450332D01*
X84905073Y-77450482D01*
X84931788Y-77464761D01*
X84932114Y-77464979D01*
X84955529Y-77484194D01*
X84955806Y-77484471D01*
X84975021Y-77507886D01*
X84975239Y-77508212D01*
X84989518Y-77534927D01*
X84989668Y-77535289D01*
X84998462Y-77564276D01*
X84998538Y-77564661D01*
X85001990Y-77599712D01*
X85002000Y-77599908D01*
X85002000Y-77645000D01*
X85001000Y-77646732D01*
X84999000Y-77646732D01*
X84998010Y-77645196D01*
X84994091Y-77605401D01*
X84982538Y-77567319D01*
X84963780Y-77532224D01*
X84938536Y-77501464D01*
X84907776Y-77476220D01*
X84872681Y-77457462D01*
X84834599Y-77445909D01*
X84794906Y-77442000D01*
X84270094Y-77442000D01*
X84230401Y-77445909D01*
X84192319Y-77457462D01*
X84157224Y-77476220D01*
X84126464Y-77501464D01*
X84101220Y-77532224D01*
X84082462Y-77567319D01*
X84070909Y-77605401D01*
X84066990Y-77645196D01*
X84065825Y-77646822D01*
X84063835Y-77646626D01*
X84063000Y-77645000D01*
X84063000Y-77599908D01*
X84063010Y-77599712D01*
X84066462Y-77564661D01*
X84066538Y-77564276D01*
X84075332Y-77535289D01*
X84075482Y-77534927D01*
X84089761Y-77508212D01*
X84089979Y-77507886D01*
X84109194Y-77484471D01*
X84109471Y-77484194D01*
X84132886Y-77464979D01*
X84133212Y-77464761D01*
X84159927Y-77450482D01*
X84160289Y-77450332D01*
X84181798Y-77443807D01*
X84199635Y-77436418D01*
X84215608Y-77425746D01*
X84229189Y-77412165D01*
X84239861Y-77396192D01*
X84247212Y-77378446D01*
X84250960Y-77359602D01*
X84250960Y-77340397D01*
X84247212Y-77321554D01*
X84239861Y-77303808D01*
X84229189Y-77287835D01*
X84215608Y-77274254D01*
X84199635Y-77263582D01*
X84181798Y-77256193D01*
X84160289Y-77249668D01*
X84159927Y-77249518D01*
X84133212Y-77235239D01*
X84132886Y-77235021D01*
X84109471Y-77215806D01*
X84109194Y-77215529D01*
X84089979Y-77192114D01*
X84089761Y-77191788D01*
X84075482Y-77165073D01*
X84075332Y-77164711D01*
X84066538Y-77135724D01*
X84066462Y-77135339D01*
X84063010Y-77100288D01*
X84063000Y-77100092D01*
X84063000Y-77055000D01*
X84064000Y-77053268D01*
X84066000Y-77053268D01*
X84066990Y-77054804D01*
X84070909Y-77094599D01*
X84082462Y-77132681D01*
X84101220Y-77167776D01*
X84126464Y-77198536D01*
X84157224Y-77223780D01*
X84192319Y-77242538D01*
X84230401Y-77254091D01*
X84270094Y-77258000D01*
X84794906Y-77258000D01*
X84834599Y-77254091D01*
X84872681Y-77242538D01*
X84907776Y-77223780D01*
X84938536Y-77198536D01*
X84963780Y-77167776D01*
X84982538Y-77132681D01*
X84994091Y-77094599D01*
X84998010Y-77054804D01*
X84999175Y-77053178D01*
X85001165Y-77053374D01*
G37*
G36*
X113095288Y-72723010D02*
G01*
X113119609Y-72725405D01*
X113119994Y-72725481D01*
X113138662Y-72731144D01*
X113139024Y-72731294D01*
X113156234Y-72740493D01*
X113156560Y-72740711D01*
X113162758Y-72745797D01*
X113178811Y-72756523D01*
X113196557Y-72763873D01*
X113215401Y-72767621D01*
X113234606Y-72767620D01*
X113253449Y-72763871D01*
X113271195Y-72756520D01*
X113287242Y-72745798D01*
X113293440Y-72740711D01*
X113293766Y-72740493D01*
X113310976Y-72731294D01*
X113311338Y-72731144D01*
X113330006Y-72725481D01*
X113330391Y-72725405D01*
X113354712Y-72723010D01*
X113354908Y-72723000D01*
X113400000Y-72723000D01*
X113401732Y-72724000D01*
X113401732Y-72726000D01*
X113400196Y-72726990D01*
X113371131Y-72729852D01*
X113343366Y-72738275D01*
X113317780Y-72751951D01*
X113295355Y-72770355D01*
X113276951Y-72792780D01*
X113263275Y-72818366D01*
X113254852Y-72846131D01*
X113252000Y-72875094D01*
X113252000Y-74249906D01*
X113254852Y-74278869D01*
X113263275Y-74306634D01*
X113276951Y-74332220D01*
X113295355Y-74354645D01*
X113317780Y-74373049D01*
X113343366Y-74386725D01*
X113371131Y-74395148D01*
X113400196Y-74398010D01*
X113401822Y-74399175D01*
X113401626Y-74401165D01*
X113400000Y-74402000D01*
X113354908Y-74402000D01*
X113354712Y-74401990D01*
X113330391Y-74399595D01*
X113330006Y-74399519D01*
X113311338Y-74393856D01*
X113310976Y-74393706D01*
X113293766Y-74384507D01*
X113293440Y-74384289D01*
X113287242Y-74379203D01*
X113271189Y-74368477D01*
X113253443Y-74361127D01*
X113234599Y-74357379D01*
X113215394Y-74357380D01*
X113196551Y-74361129D01*
X113178805Y-74368480D01*
X113162758Y-74379202D01*
X113156560Y-74384289D01*
X113156234Y-74384507D01*
X113139024Y-74393706D01*
X113138662Y-74393856D01*
X113119994Y-74399519D01*
X113119609Y-74399595D01*
X113095288Y-74401990D01*
X113095092Y-74402000D01*
X113050000Y-74402000D01*
X113048268Y-74401000D01*
X113048268Y-74399000D01*
X113049804Y-74398010D01*
X113078869Y-74395148D01*
X113106634Y-74386725D01*
X113132220Y-74373049D01*
X113154645Y-74354645D01*
X113173049Y-74332220D01*
X113186725Y-74306634D01*
X113195148Y-74278869D01*
X113198000Y-74249906D01*
X113198000Y-72875094D01*
X113195148Y-72846131D01*
X113186725Y-72818366D01*
X113173049Y-72792780D01*
X113154645Y-72770355D01*
X113132220Y-72751951D01*
X113106634Y-72738275D01*
X113078869Y-72729852D01*
X113049804Y-72726990D01*
X113048178Y-72725825D01*
X113048374Y-72723835D01*
X113050000Y-72723000D01*
X113095092Y-72723000D01*
X113095288Y-72723010D01*
G37*
G36*
X113745288Y-72723010D02*
G01*
X113769609Y-72725405D01*
X113769994Y-72725481D01*
X113788662Y-72731144D01*
X113789024Y-72731294D01*
X113806234Y-72740493D01*
X113806560Y-72740711D01*
X113812758Y-72745797D01*
X113828811Y-72756523D01*
X113846557Y-72763873D01*
X113865401Y-72767621D01*
X113884606Y-72767620D01*
X113903449Y-72763871D01*
X113921195Y-72756520D01*
X113937242Y-72745798D01*
X113943440Y-72740711D01*
X113943766Y-72740493D01*
X113960976Y-72731294D01*
X113961338Y-72731144D01*
X113980006Y-72725481D01*
X113980391Y-72725405D01*
X114004712Y-72723010D01*
X114004908Y-72723000D01*
X114050000Y-72723000D01*
X114051732Y-72724000D01*
X114051732Y-72726000D01*
X114050196Y-72726990D01*
X114021131Y-72729852D01*
X113993366Y-72738275D01*
X113967780Y-72751951D01*
X113945355Y-72770355D01*
X113926951Y-72792780D01*
X113913275Y-72818366D01*
X113904852Y-72846131D01*
X113902000Y-72875094D01*
X113902000Y-74249906D01*
X113904852Y-74278869D01*
X113913275Y-74306634D01*
X113926951Y-74332220D01*
X113945355Y-74354645D01*
X113967780Y-74373049D01*
X113993366Y-74386725D01*
X114021131Y-74395148D01*
X114050196Y-74398010D01*
X114051822Y-74399175D01*
X114051626Y-74401165D01*
X114050000Y-74402000D01*
X114004908Y-74402000D01*
X114004712Y-74401990D01*
X113980391Y-74399595D01*
X113980006Y-74399519D01*
X113961338Y-74393856D01*
X113960976Y-74393706D01*
X113943766Y-74384507D01*
X113943440Y-74384289D01*
X113937242Y-74379203D01*
X113921189Y-74368477D01*
X113903443Y-74361127D01*
X113884599Y-74357379D01*
X113865394Y-74357380D01*
X113846551Y-74361129D01*
X113828805Y-74368480D01*
X113812758Y-74379202D01*
X113806560Y-74384289D01*
X113806234Y-74384507D01*
X113789024Y-74393706D01*
X113788662Y-74393856D01*
X113769994Y-74399519D01*
X113769609Y-74399595D01*
X113745288Y-74401990D01*
X113745092Y-74402000D01*
X113700000Y-74402000D01*
X113698268Y-74401000D01*
X113698268Y-74399000D01*
X113699804Y-74398010D01*
X113728869Y-74395148D01*
X113756634Y-74386725D01*
X113782220Y-74373049D01*
X113804645Y-74354645D01*
X113823049Y-74332220D01*
X113836725Y-74306634D01*
X113845148Y-74278869D01*
X113848000Y-74249906D01*
X113848000Y-72875094D01*
X113845148Y-72846131D01*
X113836725Y-72818366D01*
X113823049Y-72792780D01*
X113804645Y-72770355D01*
X113782220Y-72751951D01*
X113756634Y-72738275D01*
X113728869Y-72729852D01*
X113699804Y-72726990D01*
X113698178Y-72725825D01*
X113698374Y-72723835D01*
X113700000Y-72723000D01*
X113745092Y-72723000D01*
X113745288Y-72723010D01*
G37*
G36*
X110495288Y-72723010D02*
G01*
X110519609Y-72725405D01*
X110519994Y-72725481D01*
X110538662Y-72731144D01*
X110539024Y-72731294D01*
X110556234Y-72740493D01*
X110556560Y-72740711D01*
X110562758Y-72745797D01*
X110578811Y-72756523D01*
X110596557Y-72763873D01*
X110615401Y-72767621D01*
X110634606Y-72767620D01*
X110653449Y-72763871D01*
X110671195Y-72756520D01*
X110687242Y-72745798D01*
X110693440Y-72740711D01*
X110693766Y-72740493D01*
X110710976Y-72731294D01*
X110711338Y-72731144D01*
X110730006Y-72725481D01*
X110730391Y-72725405D01*
X110754712Y-72723010D01*
X110754908Y-72723000D01*
X110800000Y-72723000D01*
X110801732Y-72724000D01*
X110801732Y-72726000D01*
X110800196Y-72726990D01*
X110771131Y-72729852D01*
X110743366Y-72738275D01*
X110717780Y-72751951D01*
X110695355Y-72770355D01*
X110676951Y-72792780D01*
X110663275Y-72818366D01*
X110654852Y-72846131D01*
X110652000Y-72875094D01*
X110652000Y-74249906D01*
X110654852Y-74278869D01*
X110663275Y-74306634D01*
X110676951Y-74332220D01*
X110695355Y-74354645D01*
X110717780Y-74373049D01*
X110743366Y-74386725D01*
X110771131Y-74395148D01*
X110800196Y-74398010D01*
X110801822Y-74399175D01*
X110801626Y-74401165D01*
X110800000Y-74402000D01*
X110754908Y-74402000D01*
X110754712Y-74401990D01*
X110730391Y-74399595D01*
X110730006Y-74399519D01*
X110711338Y-74393856D01*
X110710976Y-74393706D01*
X110693766Y-74384507D01*
X110693440Y-74384289D01*
X110687242Y-74379203D01*
X110671189Y-74368477D01*
X110653443Y-74361127D01*
X110634599Y-74357379D01*
X110615394Y-74357380D01*
X110596551Y-74361129D01*
X110578805Y-74368480D01*
X110562758Y-74379202D01*
X110556560Y-74384289D01*
X110556234Y-74384507D01*
X110539024Y-74393706D01*
X110538662Y-74393856D01*
X110519994Y-74399519D01*
X110519609Y-74399595D01*
X110495288Y-74401990D01*
X110495092Y-74402000D01*
X110450000Y-74402000D01*
X110448268Y-74401000D01*
X110448268Y-74399000D01*
X110449804Y-74398010D01*
X110478869Y-74395148D01*
X110506634Y-74386725D01*
X110532220Y-74373049D01*
X110554645Y-74354645D01*
X110573049Y-74332220D01*
X110586725Y-74306634D01*
X110595148Y-74278869D01*
X110598000Y-74249906D01*
X110598000Y-72875094D01*
X110595148Y-72846131D01*
X110586725Y-72818366D01*
X110573049Y-72792780D01*
X110554645Y-72770355D01*
X110532220Y-72751951D01*
X110506634Y-72738275D01*
X110478869Y-72729852D01*
X110449804Y-72726990D01*
X110448178Y-72725825D01*
X110448374Y-72723835D01*
X110450000Y-72723000D01*
X110495092Y-72723000D01*
X110495288Y-72723010D01*
G37*
G36*
X109845288Y-72723010D02*
G01*
X109869609Y-72725405D01*
X109869994Y-72725481D01*
X109888662Y-72731144D01*
X109889024Y-72731294D01*
X109906234Y-72740493D01*
X109906560Y-72740711D01*
X109912758Y-72745797D01*
X109928811Y-72756523D01*
X109946557Y-72763873D01*
X109965401Y-72767621D01*
X109984606Y-72767620D01*
X110003449Y-72763871D01*
X110021195Y-72756520D01*
X110037242Y-72745798D01*
X110043440Y-72740711D01*
X110043766Y-72740493D01*
X110060976Y-72731294D01*
X110061338Y-72731144D01*
X110080006Y-72725481D01*
X110080391Y-72725405D01*
X110104712Y-72723010D01*
X110104908Y-72723000D01*
X110150000Y-72723000D01*
X110151732Y-72724000D01*
X110151732Y-72726000D01*
X110150196Y-72726990D01*
X110121131Y-72729852D01*
X110093366Y-72738275D01*
X110067780Y-72751951D01*
X110045355Y-72770355D01*
X110026951Y-72792780D01*
X110013275Y-72818366D01*
X110004852Y-72846131D01*
X110002000Y-72875094D01*
X110002000Y-74249906D01*
X110004852Y-74278869D01*
X110013275Y-74306634D01*
X110026951Y-74332220D01*
X110045355Y-74354645D01*
X110067780Y-74373049D01*
X110093366Y-74386725D01*
X110121131Y-74395148D01*
X110150196Y-74398010D01*
X110151822Y-74399175D01*
X110151626Y-74401165D01*
X110150000Y-74402000D01*
X110104908Y-74402000D01*
X110104712Y-74401990D01*
X110080391Y-74399595D01*
X110080006Y-74399519D01*
X110061338Y-74393856D01*
X110060976Y-74393706D01*
X110043766Y-74384507D01*
X110043440Y-74384289D01*
X110037242Y-74379203D01*
X110021189Y-74368477D01*
X110003443Y-74361127D01*
X109984599Y-74357379D01*
X109965394Y-74357380D01*
X109946551Y-74361129D01*
X109928805Y-74368480D01*
X109912758Y-74379202D01*
X109906560Y-74384289D01*
X109906234Y-74384507D01*
X109889024Y-74393706D01*
X109888662Y-74393856D01*
X109869994Y-74399519D01*
X109869609Y-74399595D01*
X109845288Y-74401990D01*
X109845092Y-74402000D01*
X109800000Y-74402000D01*
X109798268Y-74401000D01*
X109798268Y-74399000D01*
X109799804Y-74398010D01*
X109828869Y-74395148D01*
X109856634Y-74386725D01*
X109882220Y-74373049D01*
X109904645Y-74354645D01*
X109923049Y-74332220D01*
X109936725Y-74306634D01*
X109945148Y-74278869D01*
X109948000Y-74249906D01*
X109948000Y-72875094D01*
X109945148Y-72846131D01*
X109936725Y-72818366D01*
X109923049Y-72792780D01*
X109904645Y-72770355D01*
X109882220Y-72751951D01*
X109856634Y-72738275D01*
X109828869Y-72729852D01*
X109799804Y-72726990D01*
X109798178Y-72725825D01*
X109798374Y-72723835D01*
X109800000Y-72723000D01*
X109845092Y-72723000D01*
X109845288Y-72723010D01*
G37*
G36*
X108545288Y-72723010D02*
G01*
X108569609Y-72725405D01*
X108569994Y-72725481D01*
X108588662Y-72731144D01*
X108589024Y-72731294D01*
X108606234Y-72740493D01*
X108606560Y-72740711D01*
X108612758Y-72745797D01*
X108628811Y-72756523D01*
X108646557Y-72763873D01*
X108665401Y-72767621D01*
X108684606Y-72767620D01*
X108703449Y-72763871D01*
X108721195Y-72756520D01*
X108737242Y-72745798D01*
X108743440Y-72740711D01*
X108743766Y-72740493D01*
X108760976Y-72731294D01*
X108761338Y-72731144D01*
X108780006Y-72725481D01*
X108780391Y-72725405D01*
X108804712Y-72723010D01*
X108804908Y-72723000D01*
X108850000Y-72723000D01*
X108851732Y-72724000D01*
X108851732Y-72726000D01*
X108850196Y-72726990D01*
X108821131Y-72729852D01*
X108793366Y-72738275D01*
X108767780Y-72751951D01*
X108745355Y-72770355D01*
X108726951Y-72792780D01*
X108713275Y-72818366D01*
X108704852Y-72846131D01*
X108702000Y-72875094D01*
X108702000Y-74249906D01*
X108704852Y-74278869D01*
X108713275Y-74306634D01*
X108726951Y-74332220D01*
X108745355Y-74354645D01*
X108767780Y-74373049D01*
X108793366Y-74386725D01*
X108821131Y-74395148D01*
X108850196Y-74398010D01*
X108851822Y-74399175D01*
X108851626Y-74401165D01*
X108850000Y-74402000D01*
X108804908Y-74402000D01*
X108804712Y-74401990D01*
X108780391Y-74399595D01*
X108780006Y-74399519D01*
X108761338Y-74393856D01*
X108760976Y-74393706D01*
X108743766Y-74384507D01*
X108743440Y-74384289D01*
X108737242Y-74379203D01*
X108721189Y-74368477D01*
X108703443Y-74361127D01*
X108684599Y-74357379D01*
X108665394Y-74357380D01*
X108646551Y-74361129D01*
X108628805Y-74368480D01*
X108612758Y-74379202D01*
X108606560Y-74384289D01*
X108606234Y-74384507D01*
X108589024Y-74393706D01*
X108588662Y-74393856D01*
X108569994Y-74399519D01*
X108569609Y-74399595D01*
X108545288Y-74401990D01*
X108545092Y-74402000D01*
X108500000Y-74402000D01*
X108498268Y-74401000D01*
X108498268Y-74399000D01*
X108499804Y-74398010D01*
X108528869Y-74395148D01*
X108556634Y-74386725D01*
X108582220Y-74373049D01*
X108604645Y-74354645D01*
X108623049Y-74332220D01*
X108636725Y-74306634D01*
X108645148Y-74278869D01*
X108648000Y-74249906D01*
X108648000Y-72875094D01*
X108645148Y-72846131D01*
X108636725Y-72818366D01*
X108623049Y-72792780D01*
X108604645Y-72770355D01*
X108582220Y-72751951D01*
X108556634Y-72738275D01*
X108528869Y-72729852D01*
X108499804Y-72726990D01*
X108498178Y-72725825D01*
X108498374Y-72723835D01*
X108500000Y-72723000D01*
X108545092Y-72723000D01*
X108545288Y-72723010D01*
G37*
G36*
X111795288Y-72723010D02*
G01*
X111819609Y-72725405D01*
X111819994Y-72725481D01*
X111838662Y-72731144D01*
X111839024Y-72731294D01*
X111856234Y-72740493D01*
X111856560Y-72740711D01*
X111862758Y-72745797D01*
X111878811Y-72756523D01*
X111896557Y-72763873D01*
X111915401Y-72767621D01*
X111934606Y-72767620D01*
X111953449Y-72763871D01*
X111971195Y-72756520D01*
X111987242Y-72745798D01*
X111993440Y-72740711D01*
X111993766Y-72740493D01*
X112010976Y-72731294D01*
X112011338Y-72731144D01*
X112030006Y-72725481D01*
X112030391Y-72725405D01*
X112054712Y-72723010D01*
X112054908Y-72723000D01*
X112100000Y-72723000D01*
X112101732Y-72724000D01*
X112101732Y-72726000D01*
X112100196Y-72726990D01*
X112071131Y-72729852D01*
X112043366Y-72738275D01*
X112017780Y-72751951D01*
X111995355Y-72770355D01*
X111976951Y-72792780D01*
X111963275Y-72818366D01*
X111954852Y-72846131D01*
X111952000Y-72875094D01*
X111952000Y-74249906D01*
X111954852Y-74278869D01*
X111963275Y-74306634D01*
X111976951Y-74332220D01*
X111995355Y-74354645D01*
X112017780Y-74373049D01*
X112043366Y-74386725D01*
X112071131Y-74395148D01*
X112100196Y-74398010D01*
X112101822Y-74399175D01*
X112101626Y-74401165D01*
X112100000Y-74402000D01*
X112054908Y-74402000D01*
X112054712Y-74401990D01*
X112030391Y-74399595D01*
X112030006Y-74399519D01*
X112011338Y-74393856D01*
X112010976Y-74393706D01*
X111993766Y-74384507D01*
X111993440Y-74384289D01*
X111987242Y-74379203D01*
X111971189Y-74368477D01*
X111953443Y-74361127D01*
X111934599Y-74357379D01*
X111915394Y-74357380D01*
X111896551Y-74361129D01*
X111878805Y-74368480D01*
X111862758Y-74379202D01*
X111856560Y-74384289D01*
X111856234Y-74384507D01*
X111839024Y-74393706D01*
X111838662Y-74393856D01*
X111819994Y-74399519D01*
X111819609Y-74399595D01*
X111795288Y-74401990D01*
X111795092Y-74402000D01*
X111750000Y-74402000D01*
X111748268Y-74401000D01*
X111748268Y-74399000D01*
X111749804Y-74398010D01*
X111778869Y-74395148D01*
X111806634Y-74386725D01*
X111832220Y-74373049D01*
X111854645Y-74354645D01*
X111873049Y-74332220D01*
X111886725Y-74306634D01*
X111895148Y-74278869D01*
X111898000Y-74249906D01*
X111898000Y-72875094D01*
X111895148Y-72846131D01*
X111886725Y-72818366D01*
X111873049Y-72792780D01*
X111854645Y-72770355D01*
X111832220Y-72751951D01*
X111806634Y-72738275D01*
X111778869Y-72729852D01*
X111749804Y-72726990D01*
X111748178Y-72725825D01*
X111748374Y-72723835D01*
X111750000Y-72723000D01*
X111795092Y-72723000D01*
X111795288Y-72723010D01*
G37*
G36*
X109195288Y-72723010D02*
G01*
X109219609Y-72725405D01*
X109219994Y-72725481D01*
X109238662Y-72731144D01*
X109239024Y-72731294D01*
X109256234Y-72740493D01*
X109256560Y-72740711D01*
X109262758Y-72745797D01*
X109278811Y-72756523D01*
X109296557Y-72763873D01*
X109315401Y-72767621D01*
X109334606Y-72767620D01*
X109353449Y-72763871D01*
X109371195Y-72756520D01*
X109387242Y-72745798D01*
X109393440Y-72740711D01*
X109393766Y-72740493D01*
X109410976Y-72731294D01*
X109411338Y-72731144D01*
X109430006Y-72725481D01*
X109430391Y-72725405D01*
X109454712Y-72723010D01*
X109454908Y-72723000D01*
X109500000Y-72723000D01*
X109501732Y-72724000D01*
X109501732Y-72726000D01*
X109500196Y-72726990D01*
X109471131Y-72729852D01*
X109443366Y-72738275D01*
X109417780Y-72751951D01*
X109395355Y-72770355D01*
X109376951Y-72792780D01*
X109363275Y-72818366D01*
X109354852Y-72846131D01*
X109352000Y-72875094D01*
X109352000Y-74249906D01*
X109354852Y-74278869D01*
X109363275Y-74306634D01*
X109376951Y-74332220D01*
X109395355Y-74354645D01*
X109417780Y-74373049D01*
X109443366Y-74386725D01*
X109471131Y-74395148D01*
X109500196Y-74398010D01*
X109501822Y-74399175D01*
X109501626Y-74401165D01*
X109500000Y-74402000D01*
X109454908Y-74402000D01*
X109454712Y-74401990D01*
X109430391Y-74399595D01*
X109430006Y-74399519D01*
X109411338Y-74393856D01*
X109410976Y-74393706D01*
X109393766Y-74384507D01*
X109393440Y-74384289D01*
X109387242Y-74379203D01*
X109371189Y-74368477D01*
X109353443Y-74361127D01*
X109334599Y-74357379D01*
X109315394Y-74357380D01*
X109296551Y-74361129D01*
X109278805Y-74368480D01*
X109262758Y-74379202D01*
X109256560Y-74384289D01*
X109256234Y-74384507D01*
X109239024Y-74393706D01*
X109238662Y-74393856D01*
X109219994Y-74399519D01*
X109219609Y-74399595D01*
X109195288Y-74401990D01*
X109195092Y-74402000D01*
X109150000Y-74402000D01*
X109148268Y-74401000D01*
X109148268Y-74399000D01*
X109149804Y-74398010D01*
X109178869Y-74395148D01*
X109206634Y-74386725D01*
X109232220Y-74373049D01*
X109254645Y-74354645D01*
X109273049Y-74332220D01*
X109286725Y-74306634D01*
X109295148Y-74278869D01*
X109298000Y-74249906D01*
X109298000Y-72875094D01*
X109295148Y-72846131D01*
X109286725Y-72818366D01*
X109273049Y-72792780D01*
X109254645Y-72770355D01*
X109232220Y-72751951D01*
X109206634Y-72738275D01*
X109178869Y-72729852D01*
X109149804Y-72726990D01*
X109148178Y-72725825D01*
X109148374Y-72723835D01*
X109150000Y-72723000D01*
X109195092Y-72723000D01*
X109195288Y-72723010D01*
G37*
G36*
X111145288Y-72723010D02*
G01*
X111169609Y-72725405D01*
X111169994Y-72725481D01*
X111188662Y-72731144D01*
X111189024Y-72731294D01*
X111206234Y-72740493D01*
X111206560Y-72740711D01*
X111212758Y-72745797D01*
X111228811Y-72756523D01*
X111246557Y-72763873D01*
X111265401Y-72767621D01*
X111284606Y-72767620D01*
X111303449Y-72763871D01*
X111321195Y-72756520D01*
X111337242Y-72745798D01*
X111343440Y-72740711D01*
X111343766Y-72740493D01*
X111360976Y-72731294D01*
X111361338Y-72731144D01*
X111380006Y-72725481D01*
X111380391Y-72725405D01*
X111404712Y-72723010D01*
X111404908Y-72723000D01*
X111450000Y-72723000D01*
X111451732Y-72724000D01*
X111451732Y-72726000D01*
X111450196Y-72726990D01*
X111421131Y-72729852D01*
X111393366Y-72738275D01*
X111367780Y-72751951D01*
X111345355Y-72770355D01*
X111326951Y-72792780D01*
X111313275Y-72818366D01*
X111304852Y-72846131D01*
X111302000Y-72875094D01*
X111302000Y-74249906D01*
X111304852Y-74278869D01*
X111313275Y-74306634D01*
X111326951Y-74332220D01*
X111345355Y-74354645D01*
X111367780Y-74373049D01*
X111393366Y-74386725D01*
X111421131Y-74395148D01*
X111450196Y-74398010D01*
X111451822Y-74399175D01*
X111451626Y-74401165D01*
X111450000Y-74402000D01*
X111404908Y-74402000D01*
X111404712Y-74401990D01*
X111380391Y-74399595D01*
X111380006Y-74399519D01*
X111361338Y-74393856D01*
X111360976Y-74393706D01*
X111343766Y-74384507D01*
X111343440Y-74384289D01*
X111337242Y-74379203D01*
X111321189Y-74368477D01*
X111303443Y-74361127D01*
X111284599Y-74357379D01*
X111265394Y-74357380D01*
X111246551Y-74361129D01*
X111228805Y-74368480D01*
X111212758Y-74379202D01*
X111206560Y-74384289D01*
X111206234Y-74384507D01*
X111189024Y-74393706D01*
X111188662Y-74393856D01*
X111169994Y-74399519D01*
X111169609Y-74399595D01*
X111145288Y-74401990D01*
X111145092Y-74402000D01*
X111100000Y-74402000D01*
X111098268Y-74401000D01*
X111098268Y-74399000D01*
X111099804Y-74398010D01*
X111128869Y-74395148D01*
X111156634Y-74386725D01*
X111182220Y-74373049D01*
X111204645Y-74354645D01*
X111223049Y-74332220D01*
X111236725Y-74306634D01*
X111245148Y-74278869D01*
X111248000Y-74249906D01*
X111248000Y-72875094D01*
X111245148Y-72846131D01*
X111236725Y-72818366D01*
X111223049Y-72792780D01*
X111204645Y-72770355D01*
X111182220Y-72751951D01*
X111156634Y-72738275D01*
X111128869Y-72729852D01*
X111099804Y-72726990D01*
X111098178Y-72725825D01*
X111098374Y-72723835D01*
X111100000Y-72723000D01*
X111145092Y-72723000D01*
X111145288Y-72723010D01*
G37*
G36*
X112445288Y-72723010D02*
G01*
X112469609Y-72725405D01*
X112469994Y-72725481D01*
X112488662Y-72731144D01*
X112489024Y-72731294D01*
X112506234Y-72740493D01*
X112506560Y-72740711D01*
X112512758Y-72745797D01*
X112528811Y-72756523D01*
X112546557Y-72763873D01*
X112565401Y-72767621D01*
X112584606Y-72767620D01*
X112603449Y-72763871D01*
X112621195Y-72756520D01*
X112637242Y-72745798D01*
X112643440Y-72740711D01*
X112643766Y-72740493D01*
X112660976Y-72731294D01*
X112661338Y-72731144D01*
X112680006Y-72725481D01*
X112680391Y-72725405D01*
X112704712Y-72723010D01*
X112704908Y-72723000D01*
X112750000Y-72723000D01*
X112751732Y-72724000D01*
X112751732Y-72726000D01*
X112750196Y-72726990D01*
X112721131Y-72729852D01*
X112693366Y-72738275D01*
X112667780Y-72751951D01*
X112645355Y-72770355D01*
X112626951Y-72792780D01*
X112613275Y-72818366D01*
X112604852Y-72846131D01*
X112602000Y-72875094D01*
X112602000Y-74249906D01*
X112604852Y-74278869D01*
X112613275Y-74306634D01*
X112626951Y-74332220D01*
X112645355Y-74354645D01*
X112667780Y-74373049D01*
X112693366Y-74386725D01*
X112721131Y-74395148D01*
X112750196Y-74398010D01*
X112751822Y-74399175D01*
X112751626Y-74401165D01*
X112750000Y-74402000D01*
X112704908Y-74402000D01*
X112704712Y-74401990D01*
X112680391Y-74399595D01*
X112680006Y-74399519D01*
X112661338Y-74393856D01*
X112660976Y-74393706D01*
X112643766Y-74384507D01*
X112643440Y-74384289D01*
X112637242Y-74379203D01*
X112621189Y-74368477D01*
X112603443Y-74361127D01*
X112584599Y-74357379D01*
X112565394Y-74357380D01*
X112546551Y-74361129D01*
X112528805Y-74368480D01*
X112512758Y-74379202D01*
X112506560Y-74384289D01*
X112506234Y-74384507D01*
X112489024Y-74393706D01*
X112488662Y-74393856D01*
X112469994Y-74399519D01*
X112469609Y-74399595D01*
X112445288Y-74401990D01*
X112445092Y-74402000D01*
X112400000Y-74402000D01*
X112398268Y-74401000D01*
X112398268Y-74399000D01*
X112399804Y-74398010D01*
X112428869Y-74395148D01*
X112456634Y-74386725D01*
X112482220Y-74373049D01*
X112504645Y-74354645D01*
X112523049Y-74332220D01*
X112536725Y-74306634D01*
X112545148Y-74278869D01*
X112548000Y-74249906D01*
X112548000Y-72875094D01*
X112545148Y-72846131D01*
X112536725Y-72818366D01*
X112523049Y-72792780D01*
X112504645Y-72770355D01*
X112482220Y-72751951D01*
X112456634Y-72738275D01*
X112428869Y-72729852D01*
X112399804Y-72726990D01*
X112398178Y-72725825D01*
X112398374Y-72723835D01*
X112400000Y-72723000D01*
X112445092Y-72723000D01*
X112445288Y-72723010D01*
G37*
G36*
X94351165Y-72603374D02*
G01*
X94352000Y-72605000D01*
X94352000Y-72650092D01*
X94351990Y-72650288D01*
X94348538Y-72685339D01*
X94348462Y-72685724D01*
X94339668Y-72714711D01*
X94339518Y-72715073D01*
X94325239Y-72741788D01*
X94325021Y-72742114D01*
X94305806Y-72765529D01*
X94305529Y-72765806D01*
X94282114Y-72785021D01*
X94281788Y-72785239D01*
X94255075Y-72799517D01*
X94254713Y-72799667D01*
X94225755Y-72808452D01*
X94207918Y-72815841D01*
X94191946Y-72826514D01*
X94178365Y-72840095D01*
X94167693Y-72856068D01*
X94160342Y-72873814D01*
X94156594Y-72892658D01*
X94156595Y-72911863D01*
X94160343Y-72930707D01*
X94167694Y-72948453D01*
X94178367Y-72964425D01*
X94191948Y-72978006D01*
X94208000Y-72988731D01*
X94239565Y-73005602D01*
X94239891Y-73005820D01*
X94264064Y-73025659D01*
X94264341Y-73025936D01*
X94284180Y-73050110D01*
X94284398Y-73050436D01*
X94299138Y-73078013D01*
X94299288Y-73078375D01*
X94308365Y-73108299D01*
X94308441Y-73108684D01*
X94311990Y-73144712D01*
X94312000Y-73144908D01*
X94312000Y-73190000D01*
X94311000Y-73191732D01*
X94309000Y-73191732D01*
X94308010Y-73190196D01*
X94303995Y-73149426D01*
X94292158Y-73110405D01*
X94272938Y-73074446D01*
X94247071Y-73042929D01*
X94215554Y-73017062D01*
X94179595Y-72997842D01*
X94140574Y-72986005D01*
X94099906Y-72982000D01*
X93605094Y-72982000D01*
X93564426Y-72986005D01*
X93525405Y-72997842D01*
X93489446Y-73017062D01*
X93457929Y-73042929D01*
X93432062Y-73074446D01*
X93412842Y-73110405D01*
X93401005Y-73149426D01*
X93396990Y-73190196D01*
X93395825Y-73191822D01*
X93393835Y-73191626D01*
X93393000Y-73190000D01*
X93393000Y-73144908D01*
X93393010Y-73144712D01*
X93396559Y-73108684D01*
X93396635Y-73108299D01*
X93405712Y-73078375D01*
X93405862Y-73078013D01*
X93420602Y-73050436D01*
X93420820Y-73050110D01*
X93440659Y-73025936D01*
X93440936Y-73025659D01*
X93465110Y-73005820D01*
X93465436Y-73005602D01*
X93493010Y-72990864D01*
X93493372Y-72990714D01*
X93507484Y-72986433D01*
X93525322Y-72979044D01*
X93541294Y-72968372D01*
X93554876Y-72954791D01*
X93565548Y-72938819D01*
X93572900Y-72921073D01*
X93576648Y-72902229D01*
X93576649Y-72883024D01*
X93572901Y-72864181D01*
X93565550Y-72846434D01*
X93554878Y-72830462D01*
X93541297Y-72816880D01*
X93525325Y-72806208D01*
X93512602Y-72800937D01*
X93512424Y-72800853D01*
X93483212Y-72785239D01*
X93482886Y-72785021D01*
X93459471Y-72765806D01*
X93459194Y-72765529D01*
X93439979Y-72742114D01*
X93439761Y-72741788D01*
X93425482Y-72715073D01*
X93425332Y-72714711D01*
X93416538Y-72685724D01*
X93416462Y-72685339D01*
X93413010Y-72650288D01*
X93413000Y-72650092D01*
X93413000Y-72605000D01*
X93414000Y-72603268D01*
X93416000Y-72603268D01*
X93416990Y-72604804D01*
X93420909Y-72644599D01*
X93432462Y-72682681D01*
X93451220Y-72717776D01*
X93476464Y-72748536D01*
X93507224Y-72773780D01*
X93542319Y-72792538D01*
X93580401Y-72804091D01*
X93620094Y-72808000D01*
X94144906Y-72808000D01*
X94184599Y-72804091D01*
X94222681Y-72792538D01*
X94257776Y-72773780D01*
X94288536Y-72748536D01*
X94313780Y-72717776D01*
X94332538Y-72682681D01*
X94344091Y-72644599D01*
X94348010Y-72604804D01*
X94349175Y-72603178D01*
X94351165Y-72603374D01*
G37*
G36*
X95486165Y-72603374D02*
G01*
X95487000Y-72605000D01*
X95487000Y-72650092D01*
X95486990Y-72650288D01*
X95483538Y-72685339D01*
X95483462Y-72685724D01*
X95474668Y-72714711D01*
X95474518Y-72715073D01*
X95460239Y-72741788D01*
X95460021Y-72742114D01*
X95440806Y-72765529D01*
X95440529Y-72765806D01*
X95417114Y-72785021D01*
X95416788Y-72785239D01*
X95387578Y-72800852D01*
X95387400Y-72800936D01*
X95374676Y-72806207D01*
X95358704Y-72816879D01*
X95345122Y-72830461D01*
X95334451Y-72846433D01*
X95327100Y-72864179D01*
X95323351Y-72883023D01*
X95323352Y-72902228D01*
X95327100Y-72921072D01*
X95334451Y-72938818D01*
X95345123Y-72954790D01*
X95358705Y-72968372D01*
X95374677Y-72979043D01*
X95392516Y-72986433D01*
X95406628Y-72990714D01*
X95406990Y-72990864D01*
X95434564Y-73005602D01*
X95434890Y-73005820D01*
X95459064Y-73025659D01*
X95459341Y-73025936D01*
X95479180Y-73050110D01*
X95479398Y-73050436D01*
X95494138Y-73078013D01*
X95494288Y-73078375D01*
X95503365Y-73108299D01*
X95503441Y-73108684D01*
X95506990Y-73144712D01*
X95507000Y-73144908D01*
X95507000Y-73190000D01*
X95506000Y-73191732D01*
X95504000Y-73191732D01*
X95503010Y-73190196D01*
X95498995Y-73149426D01*
X95487158Y-73110405D01*
X95467938Y-73074446D01*
X95442071Y-73042929D01*
X95410554Y-73017062D01*
X95374595Y-72997842D01*
X95335574Y-72986005D01*
X95294906Y-72982000D01*
X94800094Y-72982000D01*
X94759426Y-72986005D01*
X94720405Y-72997842D01*
X94684446Y-73017062D01*
X94652929Y-73042929D01*
X94627062Y-73074446D01*
X94607842Y-73110405D01*
X94596005Y-73149426D01*
X94591990Y-73190196D01*
X94590825Y-73191822D01*
X94588835Y-73191626D01*
X94588000Y-73190000D01*
X94588000Y-73144908D01*
X94588010Y-73144712D01*
X94591559Y-73108684D01*
X94591635Y-73108299D01*
X94600712Y-73078375D01*
X94600862Y-73078013D01*
X94615602Y-73050436D01*
X94615820Y-73050110D01*
X94635659Y-73025936D01*
X94635936Y-73025659D01*
X94660109Y-73005820D01*
X94660435Y-73005602D01*
X94692000Y-72988731D01*
X94708053Y-72978005D01*
X94721634Y-72964424D01*
X94732306Y-72948451D01*
X94739657Y-72930705D01*
X94743405Y-72911862D01*
X94743405Y-72892656D01*
X94739657Y-72873813D01*
X94732306Y-72856067D01*
X94721634Y-72840094D01*
X94708053Y-72826513D01*
X94692080Y-72815841D01*
X94674245Y-72808452D01*
X94645287Y-72799667D01*
X94644925Y-72799517D01*
X94618212Y-72785239D01*
X94617886Y-72785021D01*
X94594471Y-72765806D01*
X94594194Y-72765529D01*
X94574979Y-72742114D01*
X94574761Y-72741788D01*
X94560482Y-72715073D01*
X94560332Y-72714711D01*
X94551538Y-72685724D01*
X94551462Y-72685339D01*
X94548010Y-72650288D01*
X94548000Y-72650092D01*
X94548000Y-72605000D01*
X94549000Y-72603268D01*
X94551000Y-72603268D01*
X94551990Y-72604804D01*
X94555909Y-72644599D01*
X94567462Y-72682681D01*
X94586220Y-72717776D01*
X94611464Y-72748536D01*
X94642224Y-72773780D01*
X94677319Y-72792538D01*
X94715401Y-72804091D01*
X94755094Y-72808000D01*
X95279906Y-72808000D01*
X95319599Y-72804091D01*
X95357681Y-72792538D01*
X95392776Y-72773780D01*
X95423536Y-72748536D01*
X95448780Y-72717776D01*
X95467538Y-72682681D01*
X95479091Y-72644599D01*
X95483010Y-72604804D01*
X95484175Y-72603178D01*
X95486165Y-72603374D01*
G37*
G36*
X105381165Y-70718374D02*
G01*
X105382000Y-70720000D01*
X105382000Y-70765092D01*
X105381990Y-70765288D01*
X105378441Y-70801316D01*
X105378365Y-70801701D01*
X105369288Y-70831625D01*
X105369138Y-70831987D01*
X105354398Y-70859564D01*
X105354180Y-70859890D01*
X105334341Y-70884064D01*
X105334064Y-70884341D01*
X105309890Y-70904180D01*
X105309564Y-70904398D01*
X105273774Y-70923528D01*
X105257721Y-70934254D01*
X105244140Y-70947835D01*
X105233468Y-70963808D01*
X105226117Y-70981554D01*
X105222369Y-71000398D01*
X105222369Y-71019603D01*
X105226117Y-71038446D01*
X105233468Y-71056192D01*
X105244140Y-71072165D01*
X105257721Y-71085746D01*
X105273774Y-71096472D01*
X105309564Y-71115602D01*
X105309890Y-71115820D01*
X105334064Y-71135659D01*
X105334341Y-71135936D01*
X105354180Y-71160110D01*
X105354398Y-71160436D01*
X105369138Y-71188013D01*
X105369288Y-71188375D01*
X105378365Y-71218299D01*
X105378441Y-71218684D01*
X105381990Y-71254712D01*
X105382000Y-71254908D01*
X105382000Y-71300000D01*
X105381000Y-71301732D01*
X105379000Y-71301732D01*
X105378010Y-71300196D01*
X105373995Y-71259426D01*
X105362158Y-71220405D01*
X105342938Y-71184446D01*
X105317071Y-71152929D01*
X105285554Y-71127062D01*
X105249595Y-71107842D01*
X105210574Y-71096005D01*
X105169906Y-71092000D01*
X104675094Y-71092000D01*
X104634426Y-71096005D01*
X104595405Y-71107842D01*
X104559446Y-71127062D01*
X104527929Y-71152929D01*
X104502062Y-71184446D01*
X104482842Y-71220405D01*
X104471005Y-71259426D01*
X104466990Y-71300196D01*
X104465825Y-71301822D01*
X104463835Y-71301626D01*
X104463000Y-71300000D01*
X104463000Y-71254908D01*
X104463010Y-71254712D01*
X104466559Y-71218684D01*
X104466635Y-71218299D01*
X104475712Y-71188375D01*
X104475862Y-71188013D01*
X104490602Y-71160436D01*
X104490820Y-71160110D01*
X104510659Y-71135936D01*
X104510936Y-71135659D01*
X104535110Y-71115820D01*
X104535436Y-71115602D01*
X104571226Y-71096472D01*
X104587279Y-71085746D01*
X104600860Y-71072165D01*
X104611532Y-71056192D01*
X104618883Y-71038446D01*
X104622631Y-71019602D01*
X104622631Y-71000397D01*
X104618883Y-70981554D01*
X104611532Y-70963808D01*
X104600860Y-70947835D01*
X104587279Y-70934254D01*
X104571226Y-70923528D01*
X104535436Y-70904398D01*
X104535110Y-70904180D01*
X104510936Y-70884341D01*
X104510659Y-70884064D01*
X104490820Y-70859890D01*
X104490602Y-70859564D01*
X104475862Y-70831987D01*
X104475712Y-70831625D01*
X104466635Y-70801701D01*
X104466559Y-70801316D01*
X104463010Y-70765288D01*
X104463000Y-70765092D01*
X104463000Y-70720000D01*
X104464000Y-70718268D01*
X104466000Y-70718268D01*
X104466990Y-70719804D01*
X104471005Y-70760574D01*
X104482842Y-70799595D01*
X104502062Y-70835554D01*
X104527929Y-70867071D01*
X104559446Y-70892938D01*
X104595405Y-70912158D01*
X104634426Y-70923995D01*
X104675094Y-70928000D01*
X105169906Y-70928000D01*
X105210574Y-70923995D01*
X105249595Y-70912158D01*
X105285554Y-70892938D01*
X105317071Y-70867071D01*
X105342938Y-70835554D01*
X105362158Y-70799595D01*
X105373995Y-70760574D01*
X105378010Y-70719804D01*
X105379175Y-70718178D01*
X105381165Y-70718374D01*
G37*
G36*
X106576165Y-70718374D02*
G01*
X106577000Y-70720000D01*
X106577000Y-70765092D01*
X106576990Y-70765288D01*
X106573441Y-70801316D01*
X106573365Y-70801701D01*
X106564288Y-70831625D01*
X106564138Y-70831987D01*
X106549398Y-70859564D01*
X106549180Y-70859890D01*
X106529341Y-70884064D01*
X106529064Y-70884341D01*
X106504890Y-70904180D01*
X106504564Y-70904398D01*
X106468774Y-70923528D01*
X106452721Y-70934254D01*
X106439140Y-70947835D01*
X106428468Y-70963808D01*
X106421117Y-70981554D01*
X106417369Y-71000398D01*
X106417369Y-71019603D01*
X106421117Y-71038446D01*
X106428468Y-71056192D01*
X106439140Y-71072165D01*
X106452721Y-71085746D01*
X106468774Y-71096472D01*
X106504564Y-71115602D01*
X106504890Y-71115820D01*
X106529064Y-71135659D01*
X106529341Y-71135936D01*
X106549180Y-71160110D01*
X106549398Y-71160436D01*
X106564138Y-71188013D01*
X106564288Y-71188375D01*
X106573365Y-71218299D01*
X106573441Y-71218684D01*
X106576990Y-71254712D01*
X106577000Y-71254908D01*
X106577000Y-71300000D01*
X106576000Y-71301732D01*
X106574000Y-71301732D01*
X106573010Y-71300196D01*
X106568995Y-71259426D01*
X106557158Y-71220405D01*
X106537938Y-71184446D01*
X106512071Y-71152929D01*
X106480554Y-71127062D01*
X106444595Y-71107842D01*
X106405574Y-71096005D01*
X106364906Y-71092000D01*
X105870094Y-71092000D01*
X105829426Y-71096005D01*
X105790405Y-71107842D01*
X105754446Y-71127062D01*
X105722929Y-71152929D01*
X105697062Y-71184446D01*
X105677842Y-71220405D01*
X105666005Y-71259426D01*
X105661990Y-71300196D01*
X105660825Y-71301822D01*
X105658835Y-71301626D01*
X105658000Y-71300000D01*
X105658000Y-71254908D01*
X105658010Y-71254712D01*
X105661559Y-71218684D01*
X105661635Y-71218299D01*
X105670712Y-71188375D01*
X105670862Y-71188013D01*
X105685602Y-71160436D01*
X105685820Y-71160110D01*
X105705659Y-71135936D01*
X105705936Y-71135659D01*
X105730110Y-71115820D01*
X105730436Y-71115602D01*
X105766226Y-71096472D01*
X105782279Y-71085746D01*
X105795860Y-71072165D01*
X105806532Y-71056192D01*
X105813883Y-71038446D01*
X105817631Y-71019602D01*
X105817631Y-71000397D01*
X105813883Y-70981554D01*
X105806532Y-70963808D01*
X105795860Y-70947835D01*
X105782279Y-70934254D01*
X105766226Y-70923528D01*
X105730436Y-70904398D01*
X105730110Y-70904180D01*
X105705936Y-70884341D01*
X105705659Y-70884064D01*
X105685820Y-70859890D01*
X105685602Y-70859564D01*
X105670862Y-70831987D01*
X105670712Y-70831625D01*
X105661635Y-70801701D01*
X105661559Y-70801316D01*
X105658010Y-70765288D01*
X105658000Y-70765092D01*
X105658000Y-70720000D01*
X105659000Y-70718268D01*
X105661000Y-70718268D01*
X105661990Y-70719804D01*
X105666005Y-70760574D01*
X105677842Y-70799595D01*
X105697062Y-70835554D01*
X105722929Y-70867071D01*
X105754446Y-70892938D01*
X105790405Y-70912158D01*
X105829426Y-70923995D01*
X105870094Y-70928000D01*
X106364906Y-70928000D01*
X106405574Y-70923995D01*
X106444595Y-70912158D01*
X106480554Y-70892938D01*
X106512071Y-70867071D01*
X106537938Y-70835554D01*
X106557158Y-70799595D01*
X106568995Y-70760574D01*
X106573010Y-70719804D01*
X106574175Y-70718178D01*
X106576165Y-70718374D01*
G37*
G36*
X71876732Y-70999000D02*
G01*
X71877000Y-71000000D01*
X71877000Y-71100000D01*
X71876000Y-71101732D01*
X71875000Y-71102000D01*
X69275000Y-71102000D01*
X69273268Y-71101000D01*
X69273000Y-71100000D01*
X69273000Y-71000000D01*
X69274000Y-70998268D01*
X69275000Y-70998000D01*
X71875000Y-70998000D01*
X71876732Y-70999000D01*
G37*
G36*
X71876732Y-70199000D02*
G01*
X71877000Y-70200000D01*
X71877000Y-70300000D01*
X71876000Y-70301732D01*
X71875000Y-70302000D01*
X69275000Y-70302000D01*
X69273268Y-70301000D01*
X69273000Y-70300000D01*
X69273000Y-70200000D01*
X69274000Y-70198268D01*
X69275000Y-70198000D01*
X71875000Y-70198000D01*
X71876732Y-70199000D01*
G37*
G36*
X71876732Y-69399000D02*
G01*
X71877000Y-69400000D01*
X71877000Y-69500000D01*
X71876000Y-69501732D01*
X71875000Y-69502000D01*
X69275000Y-69502000D01*
X69273268Y-69501000D01*
X69273000Y-69500000D01*
X69273000Y-69400000D01*
X69274000Y-69398268D01*
X69275000Y-69398000D01*
X71875000Y-69398000D01*
X71876732Y-69399000D01*
G37*
G36*
X71876732Y-68599000D02*
G01*
X71877000Y-68600000D01*
X71877000Y-68700000D01*
X71876000Y-68701732D01*
X71875000Y-68702000D01*
X69275000Y-68702000D01*
X69273268Y-68701000D01*
X69273000Y-68700000D01*
X69273000Y-68600000D01*
X69274000Y-68598268D01*
X69275000Y-68598000D01*
X71875000Y-68598000D01*
X71876732Y-68599000D01*
G37*
G36*
X111436165Y-68078374D02*
G01*
X111437000Y-68080000D01*
X111437000Y-68125092D01*
X111436990Y-68125288D01*
X111433538Y-68160339D01*
X111433462Y-68160724D01*
X111424668Y-68189711D01*
X111424518Y-68190073D01*
X111410239Y-68216788D01*
X111410021Y-68217114D01*
X111390806Y-68240529D01*
X111390529Y-68240806D01*
X111367114Y-68260021D01*
X111366788Y-68260239D01*
X111340073Y-68274518D01*
X111339711Y-68274668D01*
X111318202Y-68281193D01*
X111300365Y-68288582D01*
X111284392Y-68299254D01*
X111270811Y-68312835D01*
X111260139Y-68328808D01*
X111252788Y-68346554D01*
X111249040Y-68365398D01*
X111249040Y-68384603D01*
X111252788Y-68403446D01*
X111260139Y-68421192D01*
X111270811Y-68437165D01*
X111284392Y-68450746D01*
X111300365Y-68461418D01*
X111318202Y-68468807D01*
X111339711Y-68475332D01*
X111340073Y-68475482D01*
X111366788Y-68489761D01*
X111367114Y-68489979D01*
X111390529Y-68509194D01*
X111390806Y-68509471D01*
X111410021Y-68532886D01*
X111410239Y-68533212D01*
X111424518Y-68559927D01*
X111424668Y-68560289D01*
X111433462Y-68589276D01*
X111433538Y-68589661D01*
X111436990Y-68624712D01*
X111437000Y-68624908D01*
X111437000Y-68670000D01*
X111436000Y-68671732D01*
X111434000Y-68671732D01*
X111433010Y-68670196D01*
X111429091Y-68630401D01*
X111417538Y-68592319D01*
X111398780Y-68557224D01*
X111373536Y-68526464D01*
X111342776Y-68501220D01*
X111307681Y-68482462D01*
X111269599Y-68470909D01*
X111229906Y-68467000D01*
X110705094Y-68467000D01*
X110665401Y-68470909D01*
X110627319Y-68482462D01*
X110592224Y-68501220D01*
X110561464Y-68526464D01*
X110536220Y-68557224D01*
X110517462Y-68592319D01*
X110505909Y-68630401D01*
X110501990Y-68670196D01*
X110500825Y-68671822D01*
X110498835Y-68671626D01*
X110498000Y-68670000D01*
X110498000Y-68624908D01*
X110498010Y-68624712D01*
X110501462Y-68589661D01*
X110501538Y-68589276D01*
X110510332Y-68560289D01*
X110510482Y-68559927D01*
X110524761Y-68533212D01*
X110524979Y-68532886D01*
X110544194Y-68509471D01*
X110544471Y-68509194D01*
X110567886Y-68489979D01*
X110568212Y-68489761D01*
X110594927Y-68475482D01*
X110595289Y-68475332D01*
X110616798Y-68468807D01*
X110634635Y-68461418D01*
X110650608Y-68450746D01*
X110664189Y-68437165D01*
X110674861Y-68421192D01*
X110682212Y-68403446D01*
X110685960Y-68384602D01*
X110685960Y-68365397D01*
X110682212Y-68346554D01*
X110674861Y-68328808D01*
X110664189Y-68312835D01*
X110650608Y-68299254D01*
X110634635Y-68288582D01*
X110616798Y-68281193D01*
X110595289Y-68274668D01*
X110594927Y-68274518D01*
X110568212Y-68260239D01*
X110567886Y-68260021D01*
X110544471Y-68240806D01*
X110544194Y-68240529D01*
X110524979Y-68217114D01*
X110524761Y-68216788D01*
X110510482Y-68190073D01*
X110510332Y-68189711D01*
X110501538Y-68160724D01*
X110501462Y-68160339D01*
X110498010Y-68125288D01*
X110498000Y-68125092D01*
X110498000Y-68080000D01*
X110499000Y-68078268D01*
X110501000Y-68078268D01*
X110501990Y-68079804D01*
X110505909Y-68119599D01*
X110517462Y-68157681D01*
X110536220Y-68192776D01*
X110561464Y-68223536D01*
X110592224Y-68248780D01*
X110627319Y-68267538D01*
X110665401Y-68279091D01*
X110705094Y-68283000D01*
X111229906Y-68283000D01*
X111269599Y-68279091D01*
X111307681Y-68267538D01*
X111342776Y-68248780D01*
X111373536Y-68223536D01*
X111398780Y-68192776D01*
X111417538Y-68157681D01*
X111429091Y-68119599D01*
X111433010Y-68079804D01*
X111434175Y-68078178D01*
X111436165Y-68078374D01*
G37*
G36*
X110301165Y-68078374D02*
G01*
X110302000Y-68080000D01*
X110302000Y-68125092D01*
X110301990Y-68125288D01*
X110298538Y-68160339D01*
X110298462Y-68160724D01*
X110289668Y-68189711D01*
X110289518Y-68190073D01*
X110275239Y-68216788D01*
X110275021Y-68217114D01*
X110255806Y-68240529D01*
X110255529Y-68240806D01*
X110232114Y-68260021D01*
X110231788Y-68260239D01*
X110205073Y-68274518D01*
X110204711Y-68274668D01*
X110183202Y-68281193D01*
X110165365Y-68288582D01*
X110149392Y-68299254D01*
X110135811Y-68312835D01*
X110125139Y-68328808D01*
X110117788Y-68346554D01*
X110114040Y-68365398D01*
X110114040Y-68384603D01*
X110117788Y-68403446D01*
X110125139Y-68421192D01*
X110135811Y-68437165D01*
X110149392Y-68450746D01*
X110165365Y-68461418D01*
X110183202Y-68468807D01*
X110204711Y-68475332D01*
X110205073Y-68475482D01*
X110231788Y-68489761D01*
X110232114Y-68489979D01*
X110255529Y-68509194D01*
X110255806Y-68509471D01*
X110275021Y-68532886D01*
X110275239Y-68533212D01*
X110289518Y-68559927D01*
X110289668Y-68560289D01*
X110298462Y-68589276D01*
X110298538Y-68589661D01*
X110301990Y-68624712D01*
X110302000Y-68624908D01*
X110302000Y-68670000D01*
X110301000Y-68671732D01*
X110299000Y-68671732D01*
X110298010Y-68670196D01*
X110294091Y-68630401D01*
X110282538Y-68592319D01*
X110263780Y-68557224D01*
X110238536Y-68526464D01*
X110207776Y-68501220D01*
X110172681Y-68482462D01*
X110134599Y-68470909D01*
X110094906Y-68467000D01*
X109570094Y-68467000D01*
X109530401Y-68470909D01*
X109492319Y-68482462D01*
X109457224Y-68501220D01*
X109426464Y-68526464D01*
X109401220Y-68557224D01*
X109382462Y-68592319D01*
X109370909Y-68630401D01*
X109366990Y-68670196D01*
X109365825Y-68671822D01*
X109363835Y-68671626D01*
X109363000Y-68670000D01*
X109363000Y-68624908D01*
X109363010Y-68624712D01*
X109366462Y-68589661D01*
X109366538Y-68589276D01*
X109375332Y-68560289D01*
X109375482Y-68559927D01*
X109389761Y-68533212D01*
X109389979Y-68532886D01*
X109409194Y-68509471D01*
X109409471Y-68509194D01*
X109432886Y-68489979D01*
X109433212Y-68489761D01*
X109459927Y-68475482D01*
X109460289Y-68475332D01*
X109481798Y-68468807D01*
X109499635Y-68461418D01*
X109515608Y-68450746D01*
X109529189Y-68437165D01*
X109539861Y-68421192D01*
X109547212Y-68403446D01*
X109550960Y-68384602D01*
X109550960Y-68365397D01*
X109547212Y-68346554D01*
X109539861Y-68328808D01*
X109529189Y-68312835D01*
X109515608Y-68299254D01*
X109499635Y-68288582D01*
X109481798Y-68281193D01*
X109460289Y-68274668D01*
X109459927Y-68274518D01*
X109433212Y-68260239D01*
X109432886Y-68260021D01*
X109409471Y-68240806D01*
X109409194Y-68240529D01*
X109389979Y-68217114D01*
X109389761Y-68216788D01*
X109375482Y-68190073D01*
X109375332Y-68189711D01*
X109366538Y-68160724D01*
X109366462Y-68160339D01*
X109363010Y-68125288D01*
X109363000Y-68125092D01*
X109363000Y-68080000D01*
X109364000Y-68078268D01*
X109366000Y-68078268D01*
X109366990Y-68079804D01*
X109370909Y-68119599D01*
X109382462Y-68157681D01*
X109401220Y-68192776D01*
X109426464Y-68223536D01*
X109457224Y-68248780D01*
X109492319Y-68267538D01*
X109530401Y-68279091D01*
X109570094Y-68283000D01*
X110094906Y-68283000D01*
X110134599Y-68279091D01*
X110172681Y-68267538D01*
X110207776Y-68248780D01*
X110238536Y-68223536D01*
X110263780Y-68192776D01*
X110282538Y-68157681D01*
X110294091Y-68119599D01*
X110298010Y-68079804D01*
X110299175Y-68078178D01*
X110301165Y-68078374D01*
G37*
G36*
X113256732Y-65974000D02*
G01*
X113257000Y-65975000D01*
X113257000Y-66075000D01*
X113256000Y-66076732D01*
X113255000Y-66077000D01*
X111495000Y-66077000D01*
X111493268Y-66076000D01*
X111493000Y-66075000D01*
X111493000Y-65975000D01*
X111494000Y-65973268D01*
X111495000Y-65973000D01*
X113255000Y-65973000D01*
X113256732Y-65974000D01*
G37*
G36*
X113256732Y-65024000D02*
G01*
X113257000Y-65025000D01*
X113257000Y-65125000D01*
X113256000Y-65126732D01*
X113255000Y-65127000D01*
X111495000Y-65127000D01*
X111493268Y-65126000D01*
X111493000Y-65125000D01*
X111493000Y-65025000D01*
X111494000Y-65023268D01*
X111495000Y-65023000D01*
X113255000Y-65023000D01*
X113256732Y-65024000D01*
G37*
G36*
X130413665Y-63958374D02*
G01*
X130414500Y-63960000D01*
X130414500Y-64005092D01*
X130414490Y-64005288D01*
X130410941Y-64041316D01*
X130410865Y-64041701D01*
X130401788Y-64071625D01*
X130401638Y-64071987D01*
X130386898Y-64099564D01*
X130386680Y-64099890D01*
X130366841Y-64124064D01*
X130366564Y-64124341D01*
X130342390Y-64144180D01*
X130342064Y-64144398D01*
X130314491Y-64159136D01*
X130314129Y-64159286D01*
X130312517Y-64159775D01*
X130294680Y-64167163D01*
X130278707Y-64177835D01*
X130265125Y-64191416D01*
X130254453Y-64207388D01*
X130247102Y-64225134D01*
X130243353Y-64243978D01*
X130243352Y-64263183D01*
X130247100Y-64282027D01*
X130254450Y-64299773D01*
X130265122Y-64315746D01*
X130278703Y-64329328D01*
X130294675Y-64340000D01*
X130312513Y-64347389D01*
X130322208Y-64350330D01*
X130322570Y-64350480D01*
X130349288Y-64364761D01*
X130349614Y-64364979D01*
X130373029Y-64384194D01*
X130373306Y-64384471D01*
X130392521Y-64407886D01*
X130392739Y-64408212D01*
X130407018Y-64434927D01*
X130407168Y-64435289D01*
X130415962Y-64464276D01*
X130416038Y-64464661D01*
X130419490Y-64499712D01*
X130419500Y-64499908D01*
X130419500Y-64545000D01*
X130418500Y-64546732D01*
X130416500Y-64546732D01*
X130415510Y-64545196D01*
X130411591Y-64505401D01*
X130400038Y-64467319D01*
X130381280Y-64432224D01*
X130356036Y-64401464D01*
X130325276Y-64376220D01*
X130290181Y-64357462D01*
X130252099Y-64345909D01*
X130212406Y-64342000D01*
X129687594Y-64342000D01*
X129647901Y-64345909D01*
X129609819Y-64357462D01*
X129574724Y-64376220D01*
X129543964Y-64401464D01*
X129518720Y-64432224D01*
X129499962Y-64467319D01*
X129488409Y-64505401D01*
X129484490Y-64545196D01*
X129483325Y-64546822D01*
X129481335Y-64546626D01*
X129480500Y-64545000D01*
X129480500Y-64499908D01*
X129480510Y-64499712D01*
X129483962Y-64464661D01*
X129484038Y-64464276D01*
X129492832Y-64435289D01*
X129492982Y-64434927D01*
X129507261Y-64408212D01*
X129507479Y-64407886D01*
X129526694Y-64384471D01*
X129526971Y-64384194D01*
X129550386Y-64364979D01*
X129550712Y-64364761D01*
X129577428Y-64350481D01*
X129577790Y-64350331D01*
X129592484Y-64345874D01*
X129610321Y-64338486D01*
X129626294Y-64327814D01*
X129639876Y-64314232D01*
X129650548Y-64298260D01*
X129657899Y-64280514D01*
X129661647Y-64261671D01*
X129661648Y-64242465D01*
X129657899Y-64223622D01*
X129650549Y-64205876D01*
X129639877Y-64189903D01*
X129626295Y-64176321D01*
X129610323Y-64165649D01*
X129598729Y-64160846D01*
X129598551Y-64160762D01*
X129567936Y-64144398D01*
X129567610Y-64144180D01*
X129543436Y-64124341D01*
X129543159Y-64124064D01*
X129523320Y-64099890D01*
X129523102Y-64099564D01*
X129508362Y-64071987D01*
X129508212Y-64071625D01*
X129499135Y-64041701D01*
X129499059Y-64041316D01*
X129495510Y-64005288D01*
X129495500Y-64005092D01*
X129495500Y-63960000D01*
X129496500Y-63958268D01*
X129498500Y-63958268D01*
X129499490Y-63959804D01*
X129503505Y-64000574D01*
X129515342Y-64039595D01*
X129534562Y-64075554D01*
X129560429Y-64107071D01*
X129591946Y-64132938D01*
X129627905Y-64152158D01*
X129666926Y-64163995D01*
X129707594Y-64168000D01*
X130202406Y-64168000D01*
X130243074Y-64163995D01*
X130282095Y-64152158D01*
X130318054Y-64132938D01*
X130349571Y-64107071D01*
X130375438Y-64075554D01*
X130394658Y-64039595D01*
X130406495Y-64000574D01*
X130410510Y-63959804D01*
X130411675Y-63958178D01*
X130413665Y-63958374D01*
G37*
G36*
X131608665Y-63958374D02*
G01*
X131609500Y-63960000D01*
X131609500Y-64005092D01*
X131609490Y-64005288D01*
X131605941Y-64041316D01*
X131605865Y-64041701D01*
X131596788Y-64071625D01*
X131596638Y-64071987D01*
X131581898Y-64099564D01*
X131581680Y-64099890D01*
X131561841Y-64124064D01*
X131561564Y-64124341D01*
X131537390Y-64144180D01*
X131537064Y-64144398D01*
X131509487Y-64159138D01*
X131509125Y-64159288D01*
X131474540Y-64169779D01*
X131456703Y-64177167D01*
X131440730Y-64187839D01*
X131427148Y-64201421D01*
X131416476Y-64217393D01*
X131409125Y-64235139D01*
X131405377Y-64253982D01*
X131405376Y-64273188D01*
X131409125Y-64292031D01*
X131416475Y-64309777D01*
X131427147Y-64325750D01*
X131440729Y-64339332D01*
X131456782Y-64350058D01*
X131484286Y-64364759D01*
X131484612Y-64364977D01*
X131508029Y-64384194D01*
X131508306Y-64384471D01*
X131527521Y-64407886D01*
X131527739Y-64408212D01*
X131542018Y-64434927D01*
X131542168Y-64435289D01*
X131550962Y-64464276D01*
X131551038Y-64464661D01*
X131554490Y-64499712D01*
X131554500Y-64499908D01*
X131554500Y-64545000D01*
X131553500Y-64546732D01*
X131551500Y-64546732D01*
X131550510Y-64545196D01*
X131546591Y-64505401D01*
X131535038Y-64467319D01*
X131516280Y-64432224D01*
X131491036Y-64401464D01*
X131460276Y-64376220D01*
X131425181Y-64357462D01*
X131387099Y-64345909D01*
X131347406Y-64342000D01*
X130822594Y-64342000D01*
X130782901Y-64345909D01*
X130744819Y-64357462D01*
X130709724Y-64376220D01*
X130678964Y-64401464D01*
X130653720Y-64432224D01*
X130634962Y-64467319D01*
X130623409Y-64505401D01*
X130619490Y-64545196D01*
X130618325Y-64546822D01*
X130616335Y-64546626D01*
X130615500Y-64545000D01*
X130615500Y-64499908D01*
X130615510Y-64499712D01*
X130618962Y-64464661D01*
X130619038Y-64464276D01*
X130627832Y-64435289D01*
X130627982Y-64434927D01*
X130642261Y-64408212D01*
X130642479Y-64407886D01*
X130661694Y-64384471D01*
X130661971Y-64384194D01*
X130685386Y-64364979D01*
X130685712Y-64364761D01*
X130712427Y-64350482D01*
X130712789Y-64350332D01*
X130741771Y-64341540D01*
X130742156Y-64341464D01*
X130749412Y-64340749D01*
X130768358Y-64336980D01*
X130786104Y-64329630D01*
X130802076Y-64318958D01*
X130815658Y-64305376D01*
X130826330Y-64289404D01*
X130833681Y-64271658D01*
X130837429Y-64252814D01*
X130837430Y-64233609D01*
X130833681Y-64214765D01*
X130826331Y-64197019D01*
X130815659Y-64181047D01*
X130802077Y-64167465D01*
X130786025Y-64156739D01*
X130762934Y-64144396D01*
X130762608Y-64144178D01*
X130738436Y-64124341D01*
X130738159Y-64124064D01*
X130718320Y-64099890D01*
X130718102Y-64099564D01*
X130703362Y-64071987D01*
X130703212Y-64071625D01*
X130694135Y-64041701D01*
X130694059Y-64041316D01*
X130690510Y-64005288D01*
X130690500Y-64005092D01*
X130690500Y-63960000D01*
X130691500Y-63958268D01*
X130693500Y-63958268D01*
X130694490Y-63959804D01*
X130698505Y-64000574D01*
X130710342Y-64039595D01*
X130729562Y-64075554D01*
X130755429Y-64107071D01*
X130786946Y-64132938D01*
X130822905Y-64152158D01*
X130861926Y-64163995D01*
X130902594Y-64168000D01*
X131397406Y-64168000D01*
X131438074Y-64163995D01*
X131477095Y-64152158D01*
X131513054Y-64132938D01*
X131544571Y-64107071D01*
X131570438Y-64075554D01*
X131589658Y-64039595D01*
X131601495Y-64000574D01*
X131605510Y-63959804D01*
X131606675Y-63958178D01*
X131608665Y-63958374D01*
G37*
G36*
X117776732Y-63749000D02*
G01*
X117777000Y-63750000D01*
X117777000Y-63813171D01*
X117776914Y-63813752D01*
X117771716Y-63830885D01*
X117769834Y-63849999D01*
X117771736Y-63869307D01*
X117770911Y-63871129D01*
X117768921Y-63871325D01*
X117767832Y-63870084D01*
X117765531Y-63862501D01*
X117756476Y-63845559D01*
X117744290Y-63830710D01*
X117729441Y-63818524D01*
X117712499Y-63809469D01*
X117694114Y-63803891D01*
X117674906Y-63802000D01*
X116175094Y-63802000D01*
X116155886Y-63803891D01*
X116137501Y-63809469D01*
X116120559Y-63818524D01*
X116105710Y-63830710D01*
X116093524Y-63845559D01*
X116084469Y-63862501D01*
X116080742Y-63874787D01*
X116079282Y-63876154D01*
X116077368Y-63875573D01*
X116076866Y-63873816D01*
X116079693Y-63859604D01*
X116079694Y-63840399D01*
X116075946Y-63821556D01*
X116073152Y-63814809D01*
X116073000Y-63814044D01*
X116073000Y-63750000D01*
X116074000Y-63748268D01*
X116075000Y-63748000D01*
X117775000Y-63748000D01*
X117776732Y-63749000D01*
G37*
G36*
X117772632Y-62424427D02*
G01*
X117773134Y-62426184D01*
X117770307Y-62440396D01*
X117770306Y-62459601D01*
X117774054Y-62478444D01*
X117776848Y-62485191D01*
X117777000Y-62485956D01*
X117777000Y-62550000D01*
X117776000Y-62551732D01*
X117775000Y-62552000D01*
X116075000Y-62552000D01*
X116073268Y-62551000D01*
X116073000Y-62550000D01*
X116073000Y-62486829D01*
X116073086Y-62486248D01*
X116078284Y-62469115D01*
X116080166Y-62450001D01*
X116078264Y-62430693D01*
X116079089Y-62428871D01*
X116081079Y-62428675D01*
X116082168Y-62429916D01*
X116084469Y-62437499D01*
X116093524Y-62454441D01*
X116105710Y-62469290D01*
X116120559Y-62481476D01*
X116137501Y-62490531D01*
X116155886Y-62496109D01*
X116175094Y-62498000D01*
X117674906Y-62498000D01*
X117694114Y-62496109D01*
X117712499Y-62490531D01*
X117729441Y-62481476D01*
X117744290Y-62469290D01*
X117756476Y-62454441D01*
X117765531Y-62437499D01*
X117769258Y-62425213D01*
X117770718Y-62423846D01*
X117772632Y-62424427D01*
G37*
M02*
