%FSLAX45Y45*%
G04 Gerber Fmt 4.5, Leading zero omitted, Abs format (unit mm)*
G04 Created by KiCad (PCBNEW (5.1.10)-1) date 2021-06-16 11:20:41*
%MOMM*%
%LPD*%
G01*
G04 APERTURE LIST*
%TA.AperFunction,Profile*%
%ADD10C,0.050000*%
%TD*%
%ADD11C,0.200000*%
%ADD12C,0.300000*%
G04 APERTURE END LIST*
D10*
X6426200Y-7975600D02*
X6477000Y-8255000D01*
X6540500Y-7975600D02*
X6426200Y-7975600D01*
X6540500Y-7797800D02*
X6540500Y-7975600D01*
X6400800Y-7797800D02*
X6540500Y-7797800D01*
X6426200Y-5994400D02*
X6477000Y-5715000D01*
X6540500Y-5994400D02*
X6426200Y-5994400D01*
X6540500Y-6172200D02*
X6540500Y-5994400D01*
X6400800Y-6172200D02*
X6540500Y-6172200D01*
X13639800Y-7975600D02*
X13589000Y-8255000D01*
X13525500Y-7975600D02*
X13639800Y-7975600D01*
X13525500Y-7797800D02*
X13525500Y-7975600D01*
X13665200Y-7797800D02*
X13525500Y-7797800D01*
X13589000Y-5715000D02*
X13639800Y-5994400D01*
X13525500Y-5994400D02*
X13639800Y-5994400D01*
X13525500Y-6172200D02*
X13525500Y-5994400D01*
X13665200Y-6172200D02*
X13525500Y-6172200D01*
X13716000Y-6426200D02*
X13665200Y-6172200D01*
X6604000Y-5588000D02*
X7620000Y-5334000D01*
X6477000Y-5715000D02*
X6604000Y-5588000D01*
X13589000Y-5715000D02*
X13462000Y-5588000D01*
X13462000Y-8382000D02*
X13589000Y-8255000D01*
X6604000Y-8382000D02*
X6477000Y-8255000D01*
X7620000Y-8636000D02*
X6604000Y-8382000D01*
X12573000Y-8636000D02*
X13462000Y-8382000D01*
X13462000Y-5588000D02*
X12573000Y-5334000D01*
X8890000Y-8890000D02*
X7620000Y-8636000D01*
X11176000Y-8890000D02*
X12573000Y-8636000D01*
X6400800Y-7797800D02*
X6350000Y-7543800D01*
X6350000Y-6426200D02*
X6400800Y-6172200D01*
X8890000Y-5080000D02*
X7620000Y-5334000D01*
X12573000Y-5334000D02*
X11176000Y-5080000D01*
X13665200Y-7797800D02*
X13716000Y-7543800D01*
X6350000Y-7543800D02*
X6350000Y-6426200D01*
X11176000Y-8890000D02*
X8890000Y-8890000D01*
X13716000Y-6426200D02*
X13716000Y-7543800D01*
X8890000Y-5080000D02*
X11176000Y-5080000D01*
D11*
X6731800Y-6715000D02*
X6831800Y-6815000D01*
X6831800Y-6715000D02*
X6731800Y-6815000D01*
X6731800Y-7155000D02*
X6831800Y-7255000D01*
X6831800Y-7155000D02*
X6731800Y-7255000D01*
X8201000Y-6985000D02*
G75*
G03*
X8201000Y-6985000I-200000J0D01*
G01*
X13471500Y-6985000D02*
G75*
G03*
X13471500Y-6985000I-200000J0D01*
G01*
D12*
X6633928Y-9358214D02*
X6633928Y-9058214D01*
X6705357Y-9058214D01*
X6748214Y-9072500D01*
X6776786Y-9101072D01*
X6791071Y-9129643D01*
X6805357Y-9186786D01*
X6805357Y-9229643D01*
X6791071Y-9286786D01*
X6776786Y-9315357D01*
X6748214Y-9343929D01*
X6705357Y-9358214D01*
X6633928Y-9358214D01*
X6933928Y-9358214D02*
X6933928Y-9158214D01*
X6933928Y-9215357D02*
X6948214Y-9186786D01*
X6962500Y-9172500D01*
X6991071Y-9158214D01*
X7019643Y-9158214D01*
X7119643Y-9358214D02*
X7119643Y-9158214D01*
X7119643Y-9058214D02*
X7105357Y-9072500D01*
X7119643Y-9086786D01*
X7133928Y-9072500D01*
X7119643Y-9058214D01*
X7119643Y-9086786D01*
X7305357Y-9358214D02*
X7276786Y-9343929D01*
X7262500Y-9315357D01*
X7262500Y-9058214D01*
X7462500Y-9358214D02*
X7433928Y-9343929D01*
X7419643Y-9315357D01*
X7419643Y-9058214D01*
X7805357Y-9358214D02*
X7805357Y-9058214D01*
X7905357Y-9272500D01*
X8005357Y-9058214D01*
X8005357Y-9358214D01*
X8276786Y-9358214D02*
X8276786Y-9201072D01*
X8262500Y-9172500D01*
X8233928Y-9158214D01*
X8176786Y-9158214D01*
X8148214Y-9172500D01*
X8276786Y-9343929D02*
X8248214Y-9358214D01*
X8176786Y-9358214D01*
X8148214Y-9343929D01*
X8133928Y-9315357D01*
X8133928Y-9286786D01*
X8148214Y-9258214D01*
X8176786Y-9243929D01*
X8248214Y-9243929D01*
X8276786Y-9229643D01*
X8419643Y-9158214D02*
X8419643Y-9458214D01*
X8419643Y-9172500D02*
X8448214Y-9158214D01*
X8505357Y-9158214D01*
X8533928Y-9172500D01*
X8548214Y-9186786D01*
X8562500Y-9215357D01*
X8562500Y-9301072D01*
X8548214Y-9329643D01*
X8533928Y-9343929D01*
X8505357Y-9358214D01*
X8448214Y-9358214D01*
X8419643Y-9343929D01*
X8691071Y-9329643D02*
X8705357Y-9343929D01*
X8691071Y-9358214D01*
X8676786Y-9343929D01*
X8691071Y-9329643D01*
X8691071Y-9358214D01*
X8691071Y-9172500D02*
X8705357Y-9186786D01*
X8691071Y-9201072D01*
X8676786Y-9186786D01*
X8691071Y-9172500D01*
X8691071Y-9201072D01*
X6247500Y-9802500D02*
X6347500Y-9902500D01*
X6347500Y-9802500D02*
X6247500Y-9902500D01*
X6791071Y-9988214D02*
X6619643Y-9988214D01*
X6705357Y-9988214D02*
X6705357Y-9688214D01*
X6676786Y-9731072D01*
X6648214Y-9759643D01*
X6619643Y-9773929D01*
X6919643Y-9959643D02*
X6933928Y-9973929D01*
X6919643Y-9988214D01*
X6905357Y-9973929D01*
X6919643Y-9959643D01*
X6919643Y-9988214D01*
X7119643Y-9688214D02*
X7148214Y-9688214D01*
X7176786Y-9702500D01*
X7191071Y-9716786D01*
X7205357Y-9745357D01*
X7219643Y-9802500D01*
X7219643Y-9873929D01*
X7205357Y-9931072D01*
X7191071Y-9959643D01*
X7176786Y-9973929D01*
X7148214Y-9988214D01*
X7119643Y-9988214D01*
X7091071Y-9973929D01*
X7076786Y-9959643D01*
X7062500Y-9931072D01*
X7048214Y-9873929D01*
X7048214Y-9802500D01*
X7062500Y-9745357D01*
X7076786Y-9716786D01*
X7091071Y-9702500D01*
X7119643Y-9688214D01*
X7405357Y-9688214D02*
X7433928Y-9688214D01*
X7462500Y-9702500D01*
X7476786Y-9716786D01*
X7491071Y-9745357D01*
X7505357Y-9802500D01*
X7505357Y-9873929D01*
X7491071Y-9931072D01*
X7476786Y-9959643D01*
X7462500Y-9973929D01*
X7433928Y-9988214D01*
X7405357Y-9988214D01*
X7376786Y-9973929D01*
X7362500Y-9959643D01*
X7348214Y-9931072D01*
X7333928Y-9873929D01*
X7333928Y-9802500D01*
X7348214Y-9745357D01*
X7362500Y-9716786D01*
X7376786Y-9702500D01*
X7405357Y-9688214D01*
X7691071Y-9688214D02*
X7719643Y-9688214D01*
X7748214Y-9702500D01*
X7762500Y-9716786D01*
X7776786Y-9745357D01*
X7791071Y-9802500D01*
X7791071Y-9873929D01*
X7776786Y-9931072D01*
X7762500Y-9959643D01*
X7748214Y-9973929D01*
X7719643Y-9988214D01*
X7691071Y-9988214D01*
X7662500Y-9973929D01*
X7648214Y-9959643D01*
X7633928Y-9931072D01*
X7619643Y-9873929D01*
X7619643Y-9802500D01*
X7633928Y-9745357D01*
X7648214Y-9716786D01*
X7662500Y-9702500D01*
X7691071Y-9688214D01*
X7919643Y-9988214D02*
X7919643Y-9788214D01*
X7919643Y-9816786D02*
X7933928Y-9802500D01*
X7962500Y-9788214D01*
X8005357Y-9788214D01*
X8033928Y-9802500D01*
X8048214Y-9831072D01*
X8048214Y-9988214D01*
X8048214Y-9831072D02*
X8062500Y-9802500D01*
X8091071Y-9788214D01*
X8133928Y-9788214D01*
X8162500Y-9802500D01*
X8176786Y-9831072D01*
X8176786Y-9988214D01*
X8319643Y-9988214D02*
X8319643Y-9788214D01*
X8319643Y-9816786D02*
X8333928Y-9802500D01*
X8362500Y-9788214D01*
X8405357Y-9788214D01*
X8433928Y-9802500D01*
X8448214Y-9831072D01*
X8448214Y-9988214D01*
X8448214Y-9831072D02*
X8462500Y-9802500D01*
X8491071Y-9788214D01*
X8533928Y-9788214D01*
X8562500Y-9802500D01*
X8576786Y-9831072D01*
X8576786Y-9988214D01*
X9162500Y-9673929D02*
X8905357Y-10059643D01*
X9548214Y-9688214D02*
X9576786Y-9688214D01*
X9605357Y-9702500D01*
X9619643Y-9716786D01*
X9633928Y-9745357D01*
X9648214Y-9802500D01*
X9648214Y-9873929D01*
X9633928Y-9931072D01*
X9619643Y-9959643D01*
X9605357Y-9973929D01*
X9576786Y-9988214D01*
X9548214Y-9988214D01*
X9519643Y-9973929D01*
X9505357Y-9959643D01*
X9491071Y-9931072D01*
X9476786Y-9873929D01*
X9476786Y-9802500D01*
X9491071Y-9745357D01*
X9505357Y-9716786D01*
X9519643Y-9702500D01*
X9548214Y-9688214D01*
X9776786Y-9959643D02*
X9791071Y-9973929D01*
X9776786Y-9988214D01*
X9762500Y-9973929D01*
X9776786Y-9959643D01*
X9776786Y-9988214D01*
X9976786Y-9688214D02*
X10005357Y-9688214D01*
X10033928Y-9702500D01*
X10048214Y-9716786D01*
X10062500Y-9745357D01*
X10076786Y-9802500D01*
X10076786Y-9873929D01*
X10062500Y-9931072D01*
X10048214Y-9959643D01*
X10033928Y-9973929D01*
X10005357Y-9988214D01*
X9976786Y-9988214D01*
X9948214Y-9973929D01*
X9933928Y-9959643D01*
X9919643Y-9931072D01*
X9905357Y-9873929D01*
X9905357Y-9802500D01*
X9919643Y-9745357D01*
X9933928Y-9716786D01*
X9948214Y-9702500D01*
X9976786Y-9688214D01*
X10176786Y-9688214D02*
X10362500Y-9688214D01*
X10262500Y-9802500D01*
X10305357Y-9802500D01*
X10333928Y-9816786D01*
X10348214Y-9831072D01*
X10362500Y-9859643D01*
X10362500Y-9931072D01*
X10348214Y-9959643D01*
X10333928Y-9973929D01*
X10305357Y-9988214D01*
X10219643Y-9988214D01*
X10191071Y-9973929D01*
X10176786Y-9959643D01*
X10505357Y-9988214D02*
X10562500Y-9988214D01*
X10591071Y-9973929D01*
X10605357Y-9959643D01*
X10633928Y-9916786D01*
X10648214Y-9859643D01*
X10648214Y-9745357D01*
X10633928Y-9716786D01*
X10619643Y-9702500D01*
X10591071Y-9688214D01*
X10533928Y-9688214D01*
X10505357Y-9702500D01*
X10491071Y-9716786D01*
X10476786Y-9745357D01*
X10476786Y-9816786D01*
X10491071Y-9845357D01*
X10505357Y-9859643D01*
X10533928Y-9873929D01*
X10591071Y-9873929D01*
X10619643Y-9859643D01*
X10633928Y-9845357D01*
X10648214Y-9816786D01*
X10905357Y-9788214D02*
X10905357Y-9988214D01*
X10833928Y-9673929D02*
X10762500Y-9888214D01*
X10948214Y-9888214D01*
X11048214Y-9688214D02*
X11048214Y-9745357D01*
X11162500Y-9688214D02*
X11162500Y-9745357D01*
X11605357Y-10102500D02*
X11591071Y-10088214D01*
X11562500Y-10045357D01*
X11548214Y-10016786D01*
X11533928Y-9973929D01*
X11519643Y-9902500D01*
X11519643Y-9845357D01*
X11533928Y-9773929D01*
X11548214Y-9731072D01*
X11562500Y-9702500D01*
X11591071Y-9659643D01*
X11605357Y-9645357D01*
X11705357Y-9716786D02*
X11719643Y-9702500D01*
X11748214Y-9688214D01*
X11819643Y-9688214D01*
X11848214Y-9702500D01*
X11862500Y-9716786D01*
X11876786Y-9745357D01*
X11876786Y-9773929D01*
X11862500Y-9816786D01*
X11691071Y-9988214D01*
X11876786Y-9988214D01*
X12233928Y-9988214D02*
X12233928Y-9688214D01*
X12362500Y-9988214D02*
X12362500Y-9831072D01*
X12348214Y-9802500D01*
X12319643Y-9788214D01*
X12276786Y-9788214D01*
X12248214Y-9802500D01*
X12233928Y-9816786D01*
X12548214Y-9988214D02*
X12519643Y-9973929D01*
X12505357Y-9959643D01*
X12491071Y-9931072D01*
X12491071Y-9845357D01*
X12505357Y-9816786D01*
X12519643Y-9802500D01*
X12548214Y-9788214D01*
X12591071Y-9788214D01*
X12619643Y-9802500D01*
X12633928Y-9816786D01*
X12648214Y-9845357D01*
X12648214Y-9931072D01*
X12633928Y-9959643D01*
X12619643Y-9973929D01*
X12591071Y-9988214D01*
X12548214Y-9988214D01*
X12819643Y-9988214D02*
X12791071Y-9973929D01*
X12776786Y-9945357D01*
X12776786Y-9688214D01*
X13048214Y-9973929D02*
X13019643Y-9988214D01*
X12962500Y-9988214D01*
X12933928Y-9973929D01*
X12919643Y-9945357D01*
X12919643Y-9831072D01*
X12933928Y-9802500D01*
X12962500Y-9788214D01*
X13019643Y-9788214D01*
X13048214Y-9802500D01*
X13062500Y-9831072D01*
X13062500Y-9859643D01*
X12919643Y-9888214D01*
X13176786Y-9973929D02*
X13205357Y-9988214D01*
X13262500Y-9988214D01*
X13291071Y-9973929D01*
X13305357Y-9945357D01*
X13305357Y-9931072D01*
X13291071Y-9902500D01*
X13262500Y-9888214D01*
X13219643Y-9888214D01*
X13191071Y-9873929D01*
X13176786Y-9845357D01*
X13176786Y-9831072D01*
X13191071Y-9802500D01*
X13219643Y-9788214D01*
X13262500Y-9788214D01*
X13291071Y-9802500D01*
X13405357Y-10102500D02*
X13419643Y-10088214D01*
X13448214Y-10045357D01*
X13462500Y-10016786D01*
X13476786Y-9973929D01*
X13491071Y-9902500D01*
X13491071Y-9845357D01*
X13476786Y-9773929D01*
X13462500Y-9731072D01*
X13448214Y-9702500D01*
X13419643Y-9659643D01*
X13405357Y-9645357D01*
X13948214Y-10102500D02*
X13933928Y-10088214D01*
X13905357Y-10045357D01*
X13891071Y-10016786D01*
X13876786Y-9973929D01*
X13862500Y-9902500D01*
X13862500Y-9845357D01*
X13876786Y-9773929D01*
X13891071Y-9731072D01*
X13905357Y-9702500D01*
X13933928Y-9659643D01*
X13948214Y-9645357D01*
X14062500Y-9788214D02*
X14062500Y-9988214D01*
X14062500Y-9816786D02*
X14076786Y-9802500D01*
X14105357Y-9788214D01*
X14148214Y-9788214D01*
X14176786Y-9802500D01*
X14191071Y-9831072D01*
X14191071Y-9988214D01*
X14376786Y-9988214D02*
X14348214Y-9973929D01*
X14333928Y-9959643D01*
X14319643Y-9931072D01*
X14319643Y-9845357D01*
X14333928Y-9816786D01*
X14348214Y-9802500D01*
X14376786Y-9788214D01*
X14419643Y-9788214D01*
X14448214Y-9802500D01*
X14462500Y-9816786D01*
X14476786Y-9845357D01*
X14476786Y-9931072D01*
X14462500Y-9959643D01*
X14448214Y-9973929D01*
X14419643Y-9988214D01*
X14376786Y-9988214D01*
X14562500Y-9788214D02*
X14676786Y-9788214D01*
X14605357Y-9688214D02*
X14605357Y-9945357D01*
X14619643Y-9973929D01*
X14648214Y-9988214D01*
X14676786Y-9988214D01*
X15005357Y-9788214D02*
X15005357Y-10088214D01*
X15005357Y-9802500D02*
X15033928Y-9788214D01*
X15091071Y-9788214D01*
X15119643Y-9802500D01*
X15133928Y-9816786D01*
X15148214Y-9845357D01*
X15148214Y-9931072D01*
X15133928Y-9959643D01*
X15119643Y-9973929D01*
X15091071Y-9988214D01*
X15033928Y-9988214D01*
X15005357Y-9973929D01*
X15319643Y-9988214D02*
X15291071Y-9973929D01*
X15276786Y-9945357D01*
X15276786Y-9688214D01*
X15562500Y-9988214D02*
X15562500Y-9831072D01*
X15548214Y-9802500D01*
X15519643Y-9788214D01*
X15462500Y-9788214D01*
X15433928Y-9802500D01*
X15562500Y-9973929D02*
X15533928Y-9988214D01*
X15462500Y-9988214D01*
X15433928Y-9973929D01*
X15419643Y-9945357D01*
X15419643Y-9916786D01*
X15433928Y-9888214D01*
X15462500Y-9873929D01*
X15533928Y-9873929D01*
X15562500Y-9859643D01*
X15662500Y-9788214D02*
X15776786Y-9788214D01*
X15705357Y-9688214D02*
X15705357Y-9945357D01*
X15719643Y-9973929D01*
X15748214Y-9988214D01*
X15776786Y-9988214D01*
X15991071Y-9973929D02*
X15962500Y-9988214D01*
X15905357Y-9988214D01*
X15876786Y-9973929D01*
X15862500Y-9945357D01*
X15862500Y-9831072D01*
X15876786Y-9802500D01*
X15905357Y-9788214D01*
X15962500Y-9788214D01*
X15991071Y-9802500D01*
X16005357Y-9831072D01*
X16005357Y-9859643D01*
X15862500Y-9888214D01*
X16262500Y-9988214D02*
X16262500Y-9688214D01*
X16262500Y-9973929D02*
X16233928Y-9988214D01*
X16176786Y-9988214D01*
X16148214Y-9973929D01*
X16133928Y-9959643D01*
X16119643Y-9931072D01*
X16119643Y-9845357D01*
X16133928Y-9816786D01*
X16148214Y-9802500D01*
X16176786Y-9788214D01*
X16233928Y-9788214D01*
X16262500Y-9802500D01*
X16376786Y-10102500D02*
X16391071Y-10088214D01*
X16419643Y-10045357D01*
X16433928Y-10016786D01*
X16448214Y-9973929D01*
X16462500Y-9902500D01*
X16462500Y-9845357D01*
X16448214Y-9773929D01*
X16433928Y-9731072D01*
X16419643Y-9702500D01*
X16391071Y-9659643D01*
X16376786Y-9645357D01*
X6347500Y-10248500D02*
G75*
G03*
X6347500Y-10248500I-200000J0D01*
G01*
X6762500Y-10184214D02*
X6762500Y-10384214D01*
X6691071Y-10069929D02*
X6619643Y-10284214D01*
X6805357Y-10284214D01*
X6919643Y-10355643D02*
X6933928Y-10369929D01*
X6919643Y-10384214D01*
X6905357Y-10369929D01*
X6919643Y-10355643D01*
X6919643Y-10384214D01*
X7119643Y-10084214D02*
X7148214Y-10084214D01*
X7176786Y-10098500D01*
X7191071Y-10112786D01*
X7205357Y-10141357D01*
X7219643Y-10198500D01*
X7219643Y-10269929D01*
X7205357Y-10327072D01*
X7191071Y-10355643D01*
X7176786Y-10369929D01*
X7148214Y-10384214D01*
X7119643Y-10384214D01*
X7091071Y-10369929D01*
X7076786Y-10355643D01*
X7062500Y-10327072D01*
X7048214Y-10269929D01*
X7048214Y-10198500D01*
X7062500Y-10141357D01*
X7076786Y-10112786D01*
X7091071Y-10098500D01*
X7119643Y-10084214D01*
X7405357Y-10084214D02*
X7433928Y-10084214D01*
X7462500Y-10098500D01*
X7476786Y-10112786D01*
X7491071Y-10141357D01*
X7505357Y-10198500D01*
X7505357Y-10269929D01*
X7491071Y-10327072D01*
X7476786Y-10355643D01*
X7462500Y-10369929D01*
X7433928Y-10384214D01*
X7405357Y-10384214D01*
X7376786Y-10369929D01*
X7362500Y-10355643D01*
X7348214Y-10327072D01*
X7333928Y-10269929D01*
X7333928Y-10198500D01*
X7348214Y-10141357D01*
X7362500Y-10112786D01*
X7376786Y-10098500D01*
X7405357Y-10084214D01*
X7691071Y-10084214D02*
X7719643Y-10084214D01*
X7748214Y-10098500D01*
X7762500Y-10112786D01*
X7776786Y-10141357D01*
X7791071Y-10198500D01*
X7791071Y-10269929D01*
X7776786Y-10327072D01*
X7762500Y-10355643D01*
X7748214Y-10369929D01*
X7719643Y-10384214D01*
X7691071Y-10384214D01*
X7662500Y-10369929D01*
X7648214Y-10355643D01*
X7633928Y-10327072D01*
X7619643Y-10269929D01*
X7619643Y-10198500D01*
X7633928Y-10141357D01*
X7648214Y-10112786D01*
X7662500Y-10098500D01*
X7691071Y-10084214D01*
X7919643Y-10384214D02*
X7919643Y-10184214D01*
X7919643Y-10212786D02*
X7933928Y-10198500D01*
X7962500Y-10184214D01*
X8005357Y-10184214D01*
X8033928Y-10198500D01*
X8048214Y-10227072D01*
X8048214Y-10384214D01*
X8048214Y-10227072D02*
X8062500Y-10198500D01*
X8091071Y-10184214D01*
X8133928Y-10184214D01*
X8162500Y-10198500D01*
X8176786Y-10227072D01*
X8176786Y-10384214D01*
X8319643Y-10384214D02*
X8319643Y-10184214D01*
X8319643Y-10212786D02*
X8333928Y-10198500D01*
X8362500Y-10184214D01*
X8405357Y-10184214D01*
X8433928Y-10198500D01*
X8448214Y-10227072D01*
X8448214Y-10384214D01*
X8448214Y-10227072D02*
X8462500Y-10198500D01*
X8491071Y-10184214D01*
X8533928Y-10184214D01*
X8562500Y-10198500D01*
X8576786Y-10227072D01*
X8576786Y-10384214D01*
X9162500Y-10069929D02*
X8905357Y-10455643D01*
X9548214Y-10084214D02*
X9576786Y-10084214D01*
X9605357Y-10098500D01*
X9619643Y-10112786D01*
X9633928Y-10141357D01*
X9648214Y-10198500D01*
X9648214Y-10269929D01*
X9633928Y-10327072D01*
X9619643Y-10355643D01*
X9605357Y-10369929D01*
X9576786Y-10384214D01*
X9548214Y-10384214D01*
X9519643Y-10369929D01*
X9505357Y-10355643D01*
X9491071Y-10327072D01*
X9476786Y-10269929D01*
X9476786Y-10198500D01*
X9491071Y-10141357D01*
X9505357Y-10112786D01*
X9519643Y-10098500D01*
X9548214Y-10084214D01*
X9776786Y-10355643D02*
X9791071Y-10369929D01*
X9776786Y-10384214D01*
X9762500Y-10369929D01*
X9776786Y-10355643D01*
X9776786Y-10384214D01*
X10076786Y-10384214D02*
X9905357Y-10384214D01*
X9991071Y-10384214D02*
X9991071Y-10084214D01*
X9962500Y-10127072D01*
X9933928Y-10155643D01*
X9905357Y-10169929D01*
X10348214Y-10084214D02*
X10205357Y-10084214D01*
X10191071Y-10227072D01*
X10205357Y-10212786D01*
X10233928Y-10198500D01*
X10305357Y-10198500D01*
X10333928Y-10212786D01*
X10348214Y-10227072D01*
X10362500Y-10255643D01*
X10362500Y-10327072D01*
X10348214Y-10355643D01*
X10333928Y-10369929D01*
X10305357Y-10384214D01*
X10233928Y-10384214D01*
X10205357Y-10369929D01*
X10191071Y-10355643D01*
X10462500Y-10084214D02*
X10662500Y-10084214D01*
X10533928Y-10384214D01*
X10919643Y-10084214D02*
X10776786Y-10084214D01*
X10762500Y-10227072D01*
X10776786Y-10212786D01*
X10805357Y-10198500D01*
X10876786Y-10198500D01*
X10905357Y-10212786D01*
X10919643Y-10227072D01*
X10933928Y-10255643D01*
X10933928Y-10327072D01*
X10919643Y-10355643D01*
X10905357Y-10369929D01*
X10876786Y-10384214D01*
X10805357Y-10384214D01*
X10776786Y-10369929D01*
X10762500Y-10355643D01*
X11048214Y-10084214D02*
X11048214Y-10141357D01*
X11162500Y-10084214D02*
X11162500Y-10141357D01*
X11605357Y-10498500D02*
X11591071Y-10484214D01*
X11562500Y-10441357D01*
X11548214Y-10412786D01*
X11533928Y-10369929D01*
X11519643Y-10298500D01*
X11519643Y-10241357D01*
X11533928Y-10169929D01*
X11548214Y-10127072D01*
X11562500Y-10098500D01*
X11591071Y-10055643D01*
X11605357Y-10041357D01*
X11705357Y-10112786D02*
X11719643Y-10098500D01*
X11748214Y-10084214D01*
X11819643Y-10084214D01*
X11848214Y-10098500D01*
X11862500Y-10112786D01*
X11876786Y-10141357D01*
X11876786Y-10169929D01*
X11862500Y-10212786D01*
X11691071Y-10384214D01*
X11876786Y-10384214D01*
X12233928Y-10384214D02*
X12233928Y-10084214D01*
X12362500Y-10384214D02*
X12362500Y-10227072D01*
X12348214Y-10198500D01*
X12319643Y-10184214D01*
X12276786Y-10184214D01*
X12248214Y-10198500D01*
X12233928Y-10212786D01*
X12548214Y-10384214D02*
X12519643Y-10369929D01*
X12505357Y-10355643D01*
X12491071Y-10327072D01*
X12491071Y-10241357D01*
X12505357Y-10212786D01*
X12519643Y-10198500D01*
X12548214Y-10184214D01*
X12591071Y-10184214D01*
X12619643Y-10198500D01*
X12633928Y-10212786D01*
X12648214Y-10241357D01*
X12648214Y-10327072D01*
X12633928Y-10355643D01*
X12619643Y-10369929D01*
X12591071Y-10384214D01*
X12548214Y-10384214D01*
X12819643Y-10384214D02*
X12791071Y-10369929D01*
X12776786Y-10341357D01*
X12776786Y-10084214D01*
X13048214Y-10369929D02*
X13019643Y-10384214D01*
X12962500Y-10384214D01*
X12933928Y-10369929D01*
X12919643Y-10341357D01*
X12919643Y-10227072D01*
X12933928Y-10198500D01*
X12962500Y-10184214D01*
X13019643Y-10184214D01*
X13048214Y-10198500D01*
X13062500Y-10227072D01*
X13062500Y-10255643D01*
X12919643Y-10284214D01*
X13176786Y-10369929D02*
X13205357Y-10384214D01*
X13262500Y-10384214D01*
X13291071Y-10369929D01*
X13305357Y-10341357D01*
X13305357Y-10327072D01*
X13291071Y-10298500D01*
X13262500Y-10284214D01*
X13219643Y-10284214D01*
X13191071Y-10269929D01*
X13176786Y-10241357D01*
X13176786Y-10227072D01*
X13191071Y-10198500D01*
X13219643Y-10184214D01*
X13262500Y-10184214D01*
X13291071Y-10198500D01*
X13405357Y-10498500D02*
X13419643Y-10484214D01*
X13448214Y-10441357D01*
X13462500Y-10412786D01*
X13476786Y-10369929D01*
X13491071Y-10298500D01*
X13491071Y-10241357D01*
X13476786Y-10169929D01*
X13462500Y-10127072D01*
X13448214Y-10098500D01*
X13419643Y-10055643D01*
X13405357Y-10041357D01*
X13948214Y-10498500D02*
X13933928Y-10484214D01*
X13905357Y-10441357D01*
X13891071Y-10412786D01*
X13876786Y-10369929D01*
X13862500Y-10298500D01*
X13862500Y-10241357D01*
X13876786Y-10169929D01*
X13891071Y-10127072D01*
X13905357Y-10098500D01*
X13933928Y-10055643D01*
X13948214Y-10041357D01*
X14062500Y-10184214D02*
X14062500Y-10384214D01*
X14062500Y-10212786D02*
X14076786Y-10198500D01*
X14105357Y-10184214D01*
X14148214Y-10184214D01*
X14176786Y-10198500D01*
X14191071Y-10227072D01*
X14191071Y-10384214D01*
X14376786Y-10384214D02*
X14348214Y-10369929D01*
X14333928Y-10355643D01*
X14319643Y-10327072D01*
X14319643Y-10241357D01*
X14333928Y-10212786D01*
X14348214Y-10198500D01*
X14376786Y-10184214D01*
X14419643Y-10184214D01*
X14448214Y-10198500D01*
X14462500Y-10212786D01*
X14476786Y-10241357D01*
X14476786Y-10327072D01*
X14462500Y-10355643D01*
X14448214Y-10369929D01*
X14419643Y-10384214D01*
X14376786Y-10384214D01*
X14562500Y-10184214D02*
X14676786Y-10184214D01*
X14605357Y-10084214D02*
X14605357Y-10341357D01*
X14619643Y-10369929D01*
X14648214Y-10384214D01*
X14676786Y-10384214D01*
X15005357Y-10184214D02*
X15005357Y-10484214D01*
X15005357Y-10198500D02*
X15033928Y-10184214D01*
X15091071Y-10184214D01*
X15119643Y-10198500D01*
X15133928Y-10212786D01*
X15148214Y-10241357D01*
X15148214Y-10327072D01*
X15133928Y-10355643D01*
X15119643Y-10369929D01*
X15091071Y-10384214D01*
X15033928Y-10384214D01*
X15005357Y-10369929D01*
X15319643Y-10384214D02*
X15291071Y-10369929D01*
X15276786Y-10341357D01*
X15276786Y-10084214D01*
X15562500Y-10384214D02*
X15562500Y-10227072D01*
X15548214Y-10198500D01*
X15519643Y-10184214D01*
X15462500Y-10184214D01*
X15433928Y-10198500D01*
X15562500Y-10369929D02*
X15533928Y-10384214D01*
X15462500Y-10384214D01*
X15433928Y-10369929D01*
X15419643Y-10341357D01*
X15419643Y-10312786D01*
X15433928Y-10284214D01*
X15462500Y-10269929D01*
X15533928Y-10269929D01*
X15562500Y-10255643D01*
X15662500Y-10184214D02*
X15776786Y-10184214D01*
X15705357Y-10084214D02*
X15705357Y-10341357D01*
X15719643Y-10369929D01*
X15748214Y-10384214D01*
X15776786Y-10384214D01*
X15991071Y-10369929D02*
X15962500Y-10384214D01*
X15905357Y-10384214D01*
X15876786Y-10369929D01*
X15862500Y-10341357D01*
X15862500Y-10227072D01*
X15876786Y-10198500D01*
X15905357Y-10184214D01*
X15962500Y-10184214D01*
X15991071Y-10198500D01*
X16005357Y-10227072D01*
X16005357Y-10255643D01*
X15862500Y-10284214D01*
X16262500Y-10384214D02*
X16262500Y-10084214D01*
X16262500Y-10369929D02*
X16233928Y-10384214D01*
X16176786Y-10384214D01*
X16148214Y-10369929D01*
X16133928Y-10355643D01*
X16119643Y-10327072D01*
X16119643Y-10241357D01*
X16133928Y-10212786D01*
X16148214Y-10198500D01*
X16176786Y-10184214D01*
X16233928Y-10184214D01*
X16262500Y-10198500D01*
X16376786Y-10498500D02*
X16391071Y-10484214D01*
X16419643Y-10441357D01*
X16433928Y-10412786D01*
X16448214Y-10369929D01*
X16462500Y-10298500D01*
X16462500Y-10241357D01*
X16448214Y-10169929D01*
X16433928Y-10127072D01*
X16419643Y-10098500D01*
X16391071Y-10055643D01*
X16376786Y-10041357D01*
M02*
