G04 #@! TF.GenerationSoftware,KiCad,Pcbnew,(5.1.10)-1*
G04 #@! TF.CreationDate,2021-06-16T11:20:36+02:00*
G04 #@! TF.ProjectId,MSPBMP,4d535042-4d50-42e6-9b69-6361645f7063,rev?*
G04 #@! TF.SameCoordinates,Original*
G04 #@! TF.FileFunction,Legend,Top*
G04 #@! TF.FilePolarity,Positive*
%FSLAX46Y46*%
G04 Gerber Fmt 4.6, Leading zero omitted, Abs format (unit mm)*
G04 Created by KiCad (PCBNEW (5.1.10)-1) date 2021-06-16 11:20:36*
%MOMM*%
%LPD*%
G01*
G04 APERTURE LIST*
%ADD10C,0.152400*%
%ADD11C,0.150000*%
%ADD12C,0.100000*%
%ADD13C,0.120000*%
%ADD14C,1.200000*%
%ADD15O,1.900000X1.900000*%
%ADD16C,4.200000*%
%ADD17O,2.390000X1.940000*%
G04 APERTURE END LIST*
D10*
X69446623Y-82981195D02*
X69446623Y-82168395D01*
X69911080Y-82981195D02*
X69562738Y-82516738D01*
X69911080Y-82168395D02*
X69446623Y-82632852D01*
X69383123Y-78853695D02*
X69383123Y-78040895D01*
X69847580Y-78853695D02*
X69499238Y-78389238D01*
X69847580Y-78040895D02*
X69383123Y-78505352D01*
X67370476Y-78621466D02*
X67757523Y-78621466D01*
X67293066Y-78853695D02*
X67564000Y-78040895D01*
X67834933Y-78853695D01*
X67370476Y-82685466D02*
X67757523Y-82685466D01*
X67293066Y-82917695D02*
X67564000Y-82104895D01*
X67834933Y-82917695D01*
D11*
X120324904Y-81478380D02*
X120324904Y-80478380D01*
X120658238Y-81192666D01*
X120991571Y-80478380D01*
X120991571Y-81478380D01*
X121420142Y-81430761D02*
X121563000Y-81478380D01*
X121801095Y-81478380D01*
X121896333Y-81430761D01*
X121943952Y-81383142D01*
X121991571Y-81287904D01*
X121991571Y-81192666D01*
X121943952Y-81097428D01*
X121896333Y-81049809D01*
X121801095Y-81002190D01*
X121610619Y-80954571D01*
X121515380Y-80906952D01*
X121467761Y-80859333D01*
X121420142Y-80764095D01*
X121420142Y-80668857D01*
X121467761Y-80573619D01*
X121515380Y-80526000D01*
X121610619Y-80478380D01*
X121848714Y-80478380D01*
X121991571Y-80526000D01*
X122420142Y-81478380D02*
X122420142Y-80478380D01*
X122801095Y-80478380D01*
X122896333Y-80526000D01*
X122943952Y-80573619D01*
X122991571Y-80668857D01*
X122991571Y-80811714D01*
X122943952Y-80906952D01*
X122896333Y-80954571D01*
X122801095Y-81002190D01*
X122420142Y-81002190D01*
X123848714Y-80811714D02*
X123848714Y-81478380D01*
X123610619Y-80430761D02*
X123372523Y-81145047D01*
X123991571Y-81145047D01*
X124277285Y-80478380D02*
X124896333Y-80478380D01*
X124563000Y-80859333D01*
X124705857Y-80859333D01*
X124801095Y-80906952D01*
X124848714Y-80954571D01*
X124896333Y-81049809D01*
X124896333Y-81287904D01*
X124848714Y-81383142D01*
X124801095Y-81430761D01*
X124705857Y-81478380D01*
X124420142Y-81478380D01*
X124324904Y-81430761D01*
X124277285Y-81383142D01*
X125515380Y-80478380D02*
X125610619Y-80478380D01*
X125705857Y-80526000D01*
X125753476Y-80573619D01*
X125801095Y-80668857D01*
X125848714Y-80859333D01*
X125848714Y-81097428D01*
X125801095Y-81287904D01*
X125753476Y-81383142D01*
X125705857Y-81430761D01*
X125610619Y-81478380D01*
X125515380Y-81478380D01*
X125420142Y-81430761D01*
X125372523Y-81383142D01*
X125324904Y-81287904D01*
X125277285Y-81097428D01*
X125277285Y-80859333D01*
X125324904Y-80668857D01*
X125372523Y-80573619D01*
X125420142Y-80526000D01*
X125515380Y-80478380D01*
D10*
X126488371Y-72884695D02*
X126488371Y-72071895D01*
X126952828Y-72884695D01*
X126952828Y-72071895D01*
X127804333Y-72807285D02*
X127765628Y-72845990D01*
X127649514Y-72884695D01*
X127572104Y-72884695D01*
X127455990Y-72845990D01*
X127378580Y-72768580D01*
X127339876Y-72691171D01*
X127301171Y-72536352D01*
X127301171Y-72420238D01*
X127339876Y-72265419D01*
X127378580Y-72188009D01*
X127455990Y-72110600D01*
X127572104Y-72071895D01*
X127649514Y-72071895D01*
X127765628Y-72110600D01*
X127804333Y-72149304D01*
X126454504Y-62292895D02*
X126918961Y-62292895D01*
X126686733Y-63105695D02*
X126686733Y-62292895D01*
X127306009Y-63105695D02*
X127228600Y-63066990D01*
X127189895Y-63028285D01*
X127151190Y-62950876D01*
X127151190Y-62718647D01*
X127189895Y-62641238D01*
X127228600Y-62602533D01*
X127306009Y-62563828D01*
X127422123Y-62563828D01*
X127499533Y-62602533D01*
X127538238Y-62641238D01*
X127576942Y-62718647D01*
X127576942Y-62950876D01*
X127538238Y-63028285D01*
X127499533Y-63066990D01*
X127422123Y-63105695D01*
X127306009Y-63105695D01*
X128041400Y-63105695D02*
X127963990Y-63066990D01*
X127925285Y-63028285D01*
X127886580Y-62950876D01*
X127886580Y-62718647D01*
X127925285Y-62641238D01*
X127963990Y-62602533D01*
X128041400Y-62563828D01*
X128157514Y-62563828D01*
X128234923Y-62602533D01*
X128273628Y-62641238D01*
X128312333Y-62718647D01*
X128312333Y-62950876D01*
X128273628Y-63028285D01*
X128234923Y-63066990D01*
X128157514Y-63105695D01*
X128041400Y-63105695D01*
X128776790Y-63105695D02*
X128699380Y-63066990D01*
X128660676Y-62989580D01*
X128660676Y-62292895D01*
X126488371Y-67677695D02*
X126488371Y-66864895D01*
X126952828Y-67677695D01*
X126952828Y-66864895D01*
X127804333Y-67600285D02*
X127765628Y-67638990D01*
X127649514Y-67677695D01*
X127572104Y-67677695D01*
X127455990Y-67638990D01*
X127378580Y-67561580D01*
X127339876Y-67484171D01*
X127301171Y-67329352D01*
X127301171Y-67213238D01*
X127339876Y-67058419D01*
X127378580Y-66981009D01*
X127455990Y-66903600D01*
X127572104Y-66864895D01*
X127649514Y-66864895D01*
X127765628Y-66903600D01*
X127804333Y-66942304D01*
D12*
G36*
X107696000Y-82042000D02*
G01*
X106680000Y-82804000D01*
X106680000Y-81280000D01*
X107696000Y-82042000D01*
G37*
X107696000Y-82042000D02*
X106680000Y-82804000D01*
X106680000Y-81280000D01*
X107696000Y-82042000D01*
G36*
X121666000Y-60198000D02*
G01*
X120904000Y-59182000D01*
X122428000Y-59182000D01*
X121666000Y-60198000D01*
G37*
X121666000Y-60198000D02*
X120904000Y-59182000D01*
X122428000Y-59182000D01*
X121666000Y-60198000D01*
G36*
X111633000Y-61341000D02*
G01*
X110871000Y-60325000D01*
X112395000Y-60325000D01*
X111633000Y-61341000D01*
G37*
X111633000Y-61341000D02*
X110871000Y-60325000D01*
X112395000Y-60325000D01*
X111633000Y-61341000D01*
G36*
X86995000Y-65913000D02*
G01*
X86233000Y-64897000D01*
X87757000Y-64897000D01*
X86995000Y-65913000D01*
G37*
X86995000Y-65913000D02*
X86233000Y-64897000D01*
X87757000Y-64897000D01*
X86995000Y-65913000D01*
G36*
X99568000Y-64008000D02*
G01*
X98806000Y-62992000D01*
X100330000Y-62992000D01*
X99568000Y-64008000D01*
G37*
X99568000Y-64008000D02*
X98806000Y-62992000D01*
X100330000Y-62992000D01*
X99568000Y-64008000D01*
D10*
X103260676Y-73341895D02*
X103763838Y-73341895D01*
X103492904Y-73651533D01*
X103609019Y-73651533D01*
X103686428Y-73690238D01*
X103725133Y-73728942D01*
X103763838Y-73806352D01*
X103763838Y-73999876D01*
X103725133Y-74077285D01*
X103686428Y-74115990D01*
X103609019Y-74154695D01*
X103376790Y-74154695D01*
X103299380Y-74115990D01*
X103260676Y-74077285D01*
X103996066Y-73341895D02*
X104267000Y-74154695D01*
X104537933Y-73341895D01*
X104731457Y-73341895D02*
X105234619Y-73341895D01*
X104963685Y-73651533D01*
X105079800Y-73651533D01*
X105157209Y-73690238D01*
X105195914Y-73728942D01*
X105234619Y-73806352D01*
X105234619Y-73999876D01*
X105195914Y-74077285D01*
X105157209Y-74115990D01*
X105079800Y-74154695D01*
X104847571Y-74154695D01*
X104770161Y-74115990D01*
X104731457Y-74077285D01*
X103368323Y-70801895D02*
X103832780Y-70801895D01*
X103600552Y-71614695D02*
X103600552Y-70801895D01*
X104026304Y-70801895D02*
X104568171Y-71614695D01*
X104568171Y-70801895D02*
X104026304Y-71614695D01*
X104877809Y-71614695D02*
X104877809Y-70801895D01*
X105071333Y-70801895D01*
X105187447Y-70840600D01*
X105264857Y-70918009D01*
X105303561Y-70995419D01*
X105342266Y-71150238D01*
X105342266Y-71266352D01*
X105303561Y-71421171D01*
X105264857Y-71498580D01*
X105187447Y-71575990D01*
X105071333Y-71614695D01*
X104877809Y-71614695D01*
X103774723Y-68224400D02*
X103697314Y-68185695D01*
X103581200Y-68185695D01*
X103465085Y-68224400D01*
X103387676Y-68301809D01*
X103348971Y-68379219D01*
X103310266Y-68534038D01*
X103310266Y-68650152D01*
X103348971Y-68804971D01*
X103387676Y-68882380D01*
X103465085Y-68959790D01*
X103581200Y-68998495D01*
X103658609Y-68998495D01*
X103774723Y-68959790D01*
X103813428Y-68921085D01*
X103813428Y-68650152D01*
X103658609Y-68650152D01*
X104161771Y-68998495D02*
X104161771Y-68185695D01*
X104626228Y-68998495D01*
X104626228Y-68185695D01*
X105013276Y-68998495D02*
X105013276Y-68185695D01*
X105206800Y-68185695D01*
X105322914Y-68224400D01*
X105400323Y-68301809D01*
X105439028Y-68379219D01*
X105477733Y-68534038D01*
X105477733Y-68650152D01*
X105439028Y-68804971D01*
X105400323Y-68882380D01*
X105322914Y-68959790D01*
X105206800Y-68998495D01*
X105013276Y-68998495D01*
X103725133Y-66407695D02*
X103454200Y-66020647D01*
X103260676Y-66407695D02*
X103260676Y-65594895D01*
X103570314Y-65594895D01*
X103647723Y-65633600D01*
X103686428Y-65672304D01*
X103725133Y-65749714D01*
X103725133Y-65865828D01*
X103686428Y-65943238D01*
X103647723Y-65981942D01*
X103570314Y-66020647D01*
X103260676Y-66020647D01*
X103996066Y-65594895D02*
X104537933Y-66407695D01*
X104537933Y-65594895D02*
X103996066Y-66407695D01*
X104847571Y-66407695D02*
X104847571Y-65594895D01*
X105041095Y-65594895D01*
X105157209Y-65633600D01*
X105234619Y-65711009D01*
X105273323Y-65788419D01*
X105312028Y-65943238D01*
X105312028Y-66059352D01*
X105273323Y-66214171D01*
X105234619Y-66291580D01*
X105157209Y-66368990D01*
X105041095Y-66407695D01*
X104847571Y-66407695D01*
X67466633Y-59134828D02*
X67466633Y-59792809D01*
X67432766Y-59870219D01*
X67398900Y-59908923D01*
X67331166Y-59947628D01*
X67229566Y-59947628D01*
X67161833Y-59908923D01*
X67466633Y-59637990D02*
X67398900Y-59676695D01*
X67263433Y-59676695D01*
X67195700Y-59637990D01*
X67161833Y-59599285D01*
X67127966Y-59521876D01*
X67127966Y-59289647D01*
X67161833Y-59212238D01*
X67195700Y-59173533D01*
X67263433Y-59134828D01*
X67398900Y-59134828D01*
X67466633Y-59173533D01*
X67805300Y-59676695D02*
X67805300Y-59134828D01*
X67805300Y-58863895D02*
X67771433Y-58902600D01*
X67805300Y-58941304D01*
X67839166Y-58902600D01*
X67805300Y-58863895D01*
X67805300Y-58941304D01*
X68042366Y-59134828D02*
X68313300Y-59134828D01*
X68143966Y-58863895D02*
X68143966Y-59560580D01*
X68177833Y-59637990D01*
X68245566Y-59676695D01*
X68313300Y-59676695D01*
X68550366Y-59676695D02*
X68550366Y-58863895D01*
X68855166Y-59676695D02*
X68855166Y-59250942D01*
X68821300Y-59173533D01*
X68753566Y-59134828D01*
X68651966Y-59134828D01*
X68584233Y-59173533D01*
X68550366Y-59212238D01*
X69498633Y-59134828D02*
X69498633Y-59676695D01*
X69193833Y-59134828D02*
X69193833Y-59560580D01*
X69227700Y-59637990D01*
X69295433Y-59676695D01*
X69397033Y-59676695D01*
X69464766Y-59637990D01*
X69498633Y-59599285D01*
X69837300Y-59676695D02*
X69837300Y-58863895D01*
X69837300Y-59173533D02*
X69905033Y-59134828D01*
X70040500Y-59134828D01*
X70108233Y-59173533D01*
X70142100Y-59212238D01*
X70175966Y-59289647D01*
X70175966Y-59521876D01*
X70142100Y-59599285D01*
X70108233Y-59637990D01*
X70040500Y-59676695D01*
X69905033Y-59676695D01*
X69837300Y-59637990D01*
X70480766Y-59599285D02*
X70514633Y-59637990D01*
X70480766Y-59676695D01*
X70446900Y-59637990D01*
X70480766Y-59599285D01*
X70480766Y-59676695D01*
X71124233Y-59637990D02*
X71056500Y-59676695D01*
X70921033Y-59676695D01*
X70853300Y-59637990D01*
X70819433Y-59599285D01*
X70785566Y-59521876D01*
X70785566Y-59289647D01*
X70819433Y-59212238D01*
X70853300Y-59173533D01*
X70921033Y-59134828D01*
X71056500Y-59134828D01*
X71124233Y-59173533D01*
X71530633Y-59676695D02*
X71462900Y-59637990D01*
X71429033Y-59599285D01*
X71395166Y-59521876D01*
X71395166Y-59289647D01*
X71429033Y-59212238D01*
X71462900Y-59173533D01*
X71530633Y-59134828D01*
X71632233Y-59134828D01*
X71699966Y-59173533D01*
X71733833Y-59212238D01*
X71767700Y-59289647D01*
X71767700Y-59521876D01*
X71733833Y-59599285D01*
X71699966Y-59637990D01*
X71632233Y-59676695D01*
X71530633Y-59676695D01*
X72072500Y-59676695D02*
X72072500Y-59134828D01*
X72072500Y-59212238D02*
X72106366Y-59173533D01*
X72174100Y-59134828D01*
X72275700Y-59134828D01*
X72343433Y-59173533D01*
X72377300Y-59250942D01*
X72377300Y-59676695D01*
X72377300Y-59250942D02*
X72411166Y-59173533D01*
X72478900Y-59134828D01*
X72580500Y-59134828D01*
X72648233Y-59173533D01*
X72682100Y-59250942D01*
X72682100Y-59676695D01*
X73528766Y-58825190D02*
X72919166Y-59870219D01*
X74070633Y-59134828D02*
X74070633Y-59792809D01*
X74036766Y-59870219D01*
X74002900Y-59908923D01*
X73935166Y-59947628D01*
X73833566Y-59947628D01*
X73765833Y-59908923D01*
X74070633Y-59637990D02*
X74002900Y-59676695D01*
X73867433Y-59676695D01*
X73799700Y-59637990D01*
X73765833Y-59599285D01*
X73731966Y-59521876D01*
X73731966Y-59289647D01*
X73765833Y-59212238D01*
X73799700Y-59173533D01*
X73867433Y-59134828D01*
X74002900Y-59134828D01*
X74070633Y-59173533D01*
X74409300Y-59676695D02*
X74409300Y-59134828D01*
X74409300Y-59289647D02*
X74443166Y-59212238D01*
X74477033Y-59173533D01*
X74544766Y-59134828D01*
X74612500Y-59134828D01*
X75154366Y-59134828D02*
X75154366Y-59676695D01*
X74849566Y-59134828D02*
X74849566Y-59560580D01*
X74883433Y-59637990D01*
X74951166Y-59676695D01*
X75052766Y-59676695D01*
X75120500Y-59637990D01*
X75154366Y-59599285D01*
X75493033Y-59676695D02*
X75493033Y-59134828D01*
X75493033Y-59212238D02*
X75526900Y-59173533D01*
X75594633Y-59134828D01*
X75696233Y-59134828D01*
X75763966Y-59173533D01*
X75797833Y-59250942D01*
X75797833Y-59676695D01*
X75797833Y-59250942D02*
X75831700Y-59173533D01*
X75899433Y-59134828D01*
X76001033Y-59134828D01*
X76068766Y-59173533D01*
X76102633Y-59250942D01*
X76102633Y-59676695D01*
X76746100Y-59676695D02*
X76746100Y-59250942D01*
X76712233Y-59173533D01*
X76644500Y-59134828D01*
X76509033Y-59134828D01*
X76441300Y-59173533D01*
X76746100Y-59637990D02*
X76678366Y-59676695D01*
X76509033Y-59676695D01*
X76441300Y-59637990D01*
X76407433Y-59560580D01*
X76407433Y-59483171D01*
X76441300Y-59405761D01*
X76509033Y-59367057D01*
X76678366Y-59367057D01*
X76746100Y-59328352D01*
X76983166Y-59134828D02*
X77254100Y-59134828D01*
X77084766Y-58863895D02*
X77084766Y-59560580D01*
X77118633Y-59637990D01*
X77186366Y-59676695D01*
X77254100Y-59676695D01*
X77999166Y-58825190D02*
X77389566Y-59870219D01*
X78236233Y-59676695D02*
X78236233Y-58863895D01*
X78236233Y-59173533D02*
X78303966Y-59134828D01*
X78439433Y-59134828D01*
X78507166Y-59173533D01*
X78541033Y-59212238D01*
X78574900Y-59289647D01*
X78574900Y-59521876D01*
X78541033Y-59599285D01*
X78507166Y-59637990D01*
X78439433Y-59676695D01*
X78303966Y-59676695D01*
X78236233Y-59637990D01*
X78981300Y-59676695D02*
X78913566Y-59637990D01*
X78879700Y-59560580D01*
X78879700Y-58863895D01*
X79557033Y-59676695D02*
X79557033Y-59250942D01*
X79523166Y-59173533D01*
X79455433Y-59134828D01*
X79319966Y-59134828D01*
X79252233Y-59173533D01*
X79557033Y-59637990D02*
X79489300Y-59676695D01*
X79319966Y-59676695D01*
X79252233Y-59637990D01*
X79218366Y-59560580D01*
X79218366Y-59483171D01*
X79252233Y-59405761D01*
X79319966Y-59367057D01*
X79489300Y-59367057D01*
X79557033Y-59328352D01*
X80200500Y-59637990D02*
X80132766Y-59676695D01*
X79997300Y-59676695D01*
X79929566Y-59637990D01*
X79895700Y-59599285D01*
X79861833Y-59521876D01*
X79861833Y-59289647D01*
X79895700Y-59212238D01*
X79929566Y-59173533D01*
X79997300Y-59134828D01*
X80132766Y-59134828D01*
X80200500Y-59173533D01*
X80505300Y-59676695D02*
X80505300Y-58863895D01*
X80573033Y-59367057D02*
X80776233Y-59676695D01*
X80776233Y-59134828D02*
X80505300Y-59444466D01*
X81081033Y-59367057D02*
X81622900Y-59367057D01*
X81961566Y-59676695D02*
X81961566Y-59134828D01*
X81961566Y-59212238D02*
X81995433Y-59173533D01*
X82063166Y-59134828D01*
X82164766Y-59134828D01*
X82232500Y-59173533D01*
X82266366Y-59250942D01*
X82266366Y-59676695D01*
X82266366Y-59250942D02*
X82300233Y-59173533D01*
X82367966Y-59134828D01*
X82469566Y-59134828D01*
X82537300Y-59173533D01*
X82571166Y-59250942D01*
X82571166Y-59676695D01*
X83214633Y-59676695D02*
X83214633Y-59250942D01*
X83180766Y-59173533D01*
X83113033Y-59134828D01*
X82977566Y-59134828D01*
X82909833Y-59173533D01*
X83214633Y-59637990D02*
X83146900Y-59676695D01*
X82977566Y-59676695D01*
X82909833Y-59637990D01*
X82875966Y-59560580D01*
X82875966Y-59483171D01*
X82909833Y-59405761D01*
X82977566Y-59367057D01*
X83146900Y-59367057D01*
X83214633Y-59328352D01*
X83858100Y-59134828D02*
X83858100Y-59792809D01*
X83824233Y-59870219D01*
X83790366Y-59908923D01*
X83722633Y-59947628D01*
X83621033Y-59947628D01*
X83553300Y-59908923D01*
X83858100Y-59637990D02*
X83790366Y-59676695D01*
X83654900Y-59676695D01*
X83587166Y-59637990D01*
X83553300Y-59599285D01*
X83519433Y-59521876D01*
X83519433Y-59289647D01*
X83553300Y-59212238D01*
X83587166Y-59173533D01*
X83654900Y-59134828D01*
X83790366Y-59134828D01*
X83858100Y-59173533D01*
X84196766Y-59676695D02*
X84196766Y-59134828D01*
X84196766Y-58863895D02*
X84162900Y-58902600D01*
X84196766Y-58941304D01*
X84230633Y-58902600D01*
X84196766Y-58863895D01*
X84196766Y-58941304D01*
X84840233Y-59637990D02*
X84772500Y-59676695D01*
X84637033Y-59676695D01*
X84569300Y-59637990D01*
X84535433Y-59599285D01*
X84501566Y-59521876D01*
X84501566Y-59289647D01*
X84535433Y-59212238D01*
X84569300Y-59173533D01*
X84637033Y-59134828D01*
X84772500Y-59134828D01*
X84840233Y-59173533D01*
X85145033Y-59367057D02*
X85686900Y-59367057D01*
X86025566Y-59134828D02*
X86025566Y-59947628D01*
X86025566Y-59173533D02*
X86093300Y-59134828D01*
X86228766Y-59134828D01*
X86296500Y-59173533D01*
X86330366Y-59212238D01*
X86364233Y-59289647D01*
X86364233Y-59521876D01*
X86330366Y-59599285D01*
X86296500Y-59637990D01*
X86228766Y-59676695D01*
X86093300Y-59676695D01*
X86025566Y-59637990D01*
X86669033Y-59676695D02*
X86669033Y-59134828D01*
X86669033Y-59289647D02*
X86702900Y-59212238D01*
X86736766Y-59173533D01*
X86804500Y-59134828D01*
X86872233Y-59134828D01*
X87210900Y-59676695D02*
X87143166Y-59637990D01*
X87109300Y-59599285D01*
X87075433Y-59521876D01*
X87075433Y-59289647D01*
X87109300Y-59212238D01*
X87143166Y-59173533D01*
X87210900Y-59134828D01*
X87312500Y-59134828D01*
X87380233Y-59173533D01*
X87414100Y-59212238D01*
X87447966Y-59289647D01*
X87447966Y-59521876D01*
X87414100Y-59599285D01*
X87380233Y-59637990D01*
X87312500Y-59676695D01*
X87210900Y-59676695D01*
X87752766Y-59676695D02*
X87752766Y-58863895D01*
X87752766Y-59173533D02*
X87820500Y-59134828D01*
X87955966Y-59134828D01*
X88023700Y-59173533D01*
X88057566Y-59212238D01*
X88091433Y-59289647D01*
X88091433Y-59521876D01*
X88057566Y-59599285D01*
X88023700Y-59637990D01*
X87955966Y-59676695D01*
X87820500Y-59676695D01*
X87752766Y-59637990D01*
X88667166Y-59637990D02*
X88599433Y-59676695D01*
X88463966Y-59676695D01*
X88396233Y-59637990D01*
X88362366Y-59560580D01*
X88362366Y-59250942D01*
X88396233Y-59173533D01*
X88463966Y-59134828D01*
X88599433Y-59134828D01*
X88667166Y-59173533D01*
X88701033Y-59250942D01*
X88701033Y-59328352D01*
X88362366Y-59405761D01*
X89005833Y-59367057D02*
X89547700Y-59367057D01*
X89886366Y-59676695D02*
X89886366Y-59134828D01*
X89886366Y-59212238D02*
X89920233Y-59173533D01*
X89987966Y-59134828D01*
X90089566Y-59134828D01*
X90157300Y-59173533D01*
X90191166Y-59250942D01*
X90191166Y-59676695D01*
X90191166Y-59250942D02*
X90225033Y-59173533D01*
X90292766Y-59134828D01*
X90394366Y-59134828D01*
X90462100Y-59173533D01*
X90495966Y-59250942D01*
X90495966Y-59676695D01*
X90800766Y-59637990D02*
X90868500Y-59676695D01*
X91003966Y-59676695D01*
X91071700Y-59637990D01*
X91105566Y-59560580D01*
X91105566Y-59521876D01*
X91071700Y-59444466D01*
X91003966Y-59405761D01*
X90902366Y-59405761D01*
X90834633Y-59367057D01*
X90800766Y-59289647D01*
X90800766Y-59250942D01*
X90834633Y-59173533D01*
X90902366Y-59134828D01*
X91003966Y-59134828D01*
X91071700Y-59173533D01*
X91410366Y-59134828D02*
X91410366Y-59947628D01*
X91410366Y-59173533D02*
X91478100Y-59134828D01*
X91613566Y-59134828D01*
X91681300Y-59173533D01*
X91715166Y-59212238D01*
X91749033Y-59289647D01*
X91749033Y-59521876D01*
X91715166Y-59599285D01*
X91681300Y-59637990D01*
X91613566Y-59676695D01*
X91478100Y-59676695D01*
X91410366Y-59637990D01*
X92358633Y-59134828D02*
X92358633Y-59676695D01*
X92189300Y-58825190D02*
X92019966Y-59405761D01*
X92460233Y-59405761D01*
X92663433Y-58863895D02*
X93103700Y-58863895D01*
X92866633Y-59173533D01*
X92968233Y-59173533D01*
X93035966Y-59212238D01*
X93069833Y-59250942D01*
X93103700Y-59328352D01*
X93103700Y-59521876D01*
X93069833Y-59599285D01*
X93035966Y-59637990D01*
X92968233Y-59676695D01*
X92765033Y-59676695D01*
X92697300Y-59637990D01*
X92663433Y-59599285D01*
X93543966Y-58863895D02*
X93611700Y-58863895D01*
X93679433Y-58902600D01*
X93713300Y-58941304D01*
X93747166Y-59018714D01*
X93781033Y-59173533D01*
X93781033Y-59367057D01*
X93747166Y-59521876D01*
X93713300Y-59599285D01*
X93679433Y-59637990D01*
X93611700Y-59676695D01*
X93543966Y-59676695D01*
X93476233Y-59637990D01*
X93442366Y-59599285D01*
X93408500Y-59521876D01*
X93374633Y-59367057D01*
X93374633Y-59173533D01*
X93408500Y-59018714D01*
X93442366Y-58941304D01*
X93476233Y-58902600D01*
X93543966Y-58863895D01*
D11*
X80088238Y-55888380D02*
X80088238Y-54888380D01*
X80326333Y-54888380D01*
X80469190Y-54936000D01*
X80564428Y-55031238D01*
X80612047Y-55126476D01*
X80659666Y-55316952D01*
X80659666Y-55459809D01*
X80612047Y-55650285D01*
X80564428Y-55745523D01*
X80469190Y-55840761D01*
X80326333Y-55888380D01*
X80088238Y-55888380D01*
X81469190Y-55840761D02*
X81373952Y-55888380D01*
X81183476Y-55888380D01*
X81088238Y-55840761D01*
X81040619Y-55745523D01*
X81040619Y-55364571D01*
X81088238Y-55269333D01*
X81183476Y-55221714D01*
X81373952Y-55221714D01*
X81469190Y-55269333D01*
X81516809Y-55364571D01*
X81516809Y-55459809D01*
X81040619Y-55555047D01*
X81897761Y-55840761D02*
X81993000Y-55888380D01*
X82183476Y-55888380D01*
X82278714Y-55840761D01*
X82326333Y-55745523D01*
X82326333Y-55697904D01*
X82278714Y-55602666D01*
X82183476Y-55555047D01*
X82040619Y-55555047D01*
X81945380Y-55507428D01*
X81897761Y-55412190D01*
X81897761Y-55364571D01*
X81945380Y-55269333D01*
X82040619Y-55221714D01*
X82183476Y-55221714D01*
X82278714Y-55269333D01*
X82754904Y-55888380D02*
X82754904Y-55221714D01*
X82754904Y-54888380D02*
X82707285Y-54936000D01*
X82754904Y-54983619D01*
X82802523Y-54936000D01*
X82754904Y-54888380D01*
X82754904Y-54983619D01*
X83659666Y-55221714D02*
X83659666Y-56031238D01*
X83612047Y-56126476D01*
X83564428Y-56174095D01*
X83469190Y-56221714D01*
X83326333Y-56221714D01*
X83231095Y-56174095D01*
X83659666Y-55840761D02*
X83564428Y-55888380D01*
X83373952Y-55888380D01*
X83278714Y-55840761D01*
X83231095Y-55793142D01*
X83183476Y-55697904D01*
X83183476Y-55412190D01*
X83231095Y-55316952D01*
X83278714Y-55269333D01*
X83373952Y-55221714D01*
X83564428Y-55221714D01*
X83659666Y-55269333D01*
X84135857Y-55221714D02*
X84135857Y-55888380D01*
X84135857Y-55316952D02*
X84183476Y-55269333D01*
X84278714Y-55221714D01*
X84421571Y-55221714D01*
X84516809Y-55269333D01*
X84564428Y-55364571D01*
X84564428Y-55888380D01*
X85421571Y-55840761D02*
X85326333Y-55888380D01*
X85135857Y-55888380D01*
X85040619Y-55840761D01*
X84993000Y-55745523D01*
X84993000Y-55364571D01*
X85040619Y-55269333D01*
X85135857Y-55221714D01*
X85326333Y-55221714D01*
X85421571Y-55269333D01*
X85469190Y-55364571D01*
X85469190Y-55459809D01*
X84993000Y-55555047D01*
X86326333Y-55888380D02*
X86326333Y-54888380D01*
X86326333Y-55840761D02*
X86231095Y-55888380D01*
X86040619Y-55888380D01*
X85945380Y-55840761D01*
X85897761Y-55793142D01*
X85850142Y-55697904D01*
X85850142Y-55412190D01*
X85897761Y-55316952D01*
X85945380Y-55269333D01*
X86040619Y-55221714D01*
X86231095Y-55221714D01*
X86326333Y-55269333D01*
X87564428Y-55888380D02*
X87564428Y-54888380D01*
X87564428Y-55269333D02*
X87659666Y-55221714D01*
X87850142Y-55221714D01*
X87945380Y-55269333D01*
X87993000Y-55316952D01*
X88040619Y-55412190D01*
X88040619Y-55697904D01*
X87993000Y-55793142D01*
X87945380Y-55840761D01*
X87850142Y-55888380D01*
X87659666Y-55888380D01*
X87564428Y-55840761D01*
X88373952Y-55221714D02*
X88612047Y-55888380D01*
X88850142Y-55221714D02*
X88612047Y-55888380D01*
X88516809Y-56126476D01*
X88469190Y-56174095D01*
X88373952Y-56221714D01*
X70373952Y-56776476D02*
X70278714Y-56728857D01*
X70088238Y-56728857D01*
X69993000Y-56776476D01*
X69897761Y-56871714D01*
X69850142Y-56966952D01*
X69850142Y-57157428D01*
X69897761Y-57252666D01*
X69993000Y-57347904D01*
X70088238Y-57395523D01*
X70278714Y-57395523D01*
X70373952Y-57347904D01*
X70183476Y-56395523D02*
X69945380Y-56443142D01*
X69707285Y-56586000D01*
X69564428Y-56824095D01*
X69516809Y-57062190D01*
X69564428Y-57300285D01*
X69707285Y-57538380D01*
X69945380Y-57681238D01*
X70183476Y-57728857D01*
X70421571Y-57681238D01*
X70659666Y-57538380D01*
X70802523Y-57300285D01*
X70850142Y-57062190D01*
X70802523Y-56824095D01*
X70659666Y-56586000D01*
X70421571Y-56443142D01*
X70183476Y-56395523D01*
X71231095Y-56633619D02*
X71278714Y-56586000D01*
X71373952Y-56538380D01*
X71612047Y-56538380D01*
X71707285Y-56586000D01*
X71754904Y-56633619D01*
X71802523Y-56728857D01*
X71802523Y-56824095D01*
X71754904Y-56966952D01*
X71183476Y-57538380D01*
X71802523Y-57538380D01*
X72421571Y-56538380D02*
X72516809Y-56538380D01*
X72612047Y-56586000D01*
X72659666Y-56633619D01*
X72707285Y-56728857D01*
X72754904Y-56919333D01*
X72754904Y-57157428D01*
X72707285Y-57347904D01*
X72659666Y-57443142D01*
X72612047Y-57490761D01*
X72516809Y-57538380D01*
X72421571Y-57538380D01*
X72326333Y-57490761D01*
X72278714Y-57443142D01*
X72231095Y-57347904D01*
X72183476Y-57157428D01*
X72183476Y-56919333D01*
X72231095Y-56728857D01*
X72278714Y-56633619D01*
X72326333Y-56586000D01*
X72421571Y-56538380D01*
X73135857Y-56633619D02*
X73183476Y-56586000D01*
X73278714Y-56538380D01*
X73516809Y-56538380D01*
X73612047Y-56586000D01*
X73659666Y-56633619D01*
X73707285Y-56728857D01*
X73707285Y-56824095D01*
X73659666Y-56966952D01*
X73088238Y-57538380D01*
X73707285Y-57538380D01*
X74659666Y-57538380D02*
X74088238Y-57538380D01*
X74373952Y-57538380D02*
X74373952Y-56538380D01*
X74278714Y-56681238D01*
X74183476Y-56776476D01*
X74088238Y-56824095D01*
X75850142Y-57157428D02*
X76612047Y-57157428D01*
X77850142Y-57538380D02*
X77850142Y-56538380D01*
X78183476Y-57252666D01*
X78516809Y-56538380D01*
X78516809Y-57538380D01*
X79421571Y-57538380D02*
X79421571Y-57014571D01*
X79373952Y-56919333D01*
X79278714Y-56871714D01*
X79088238Y-56871714D01*
X78993000Y-56919333D01*
X79421571Y-57490761D02*
X79326333Y-57538380D01*
X79088238Y-57538380D01*
X78993000Y-57490761D01*
X78945380Y-57395523D01*
X78945380Y-57300285D01*
X78993000Y-57205047D01*
X79088238Y-57157428D01*
X79326333Y-57157428D01*
X79421571Y-57109809D01*
X79754904Y-56871714D02*
X80135857Y-56871714D01*
X79897761Y-56538380D02*
X79897761Y-57395523D01*
X79945380Y-57490761D01*
X80040619Y-57538380D01*
X80135857Y-57538380D01*
X80469190Y-57538380D02*
X80469190Y-56538380D01*
X80897761Y-57538380D02*
X80897761Y-57014571D01*
X80850142Y-56919333D01*
X80754904Y-56871714D01*
X80612047Y-56871714D01*
X80516809Y-56919333D01*
X80469190Y-56966952D01*
X81373952Y-57538380D02*
X81373952Y-56871714D01*
X81373952Y-56538380D02*
X81326333Y-56586000D01*
X81373952Y-56633619D01*
X81421571Y-56586000D01*
X81373952Y-56538380D01*
X81373952Y-56633619D01*
X82278714Y-57538380D02*
X82278714Y-57014571D01*
X82231095Y-56919333D01*
X82135857Y-56871714D01*
X81945380Y-56871714D01*
X81850142Y-56919333D01*
X82278714Y-57490761D02*
X82183476Y-57538380D01*
X81945380Y-57538380D01*
X81850142Y-57490761D01*
X81802523Y-57395523D01*
X81802523Y-57300285D01*
X81850142Y-57205047D01*
X81945380Y-57157428D01*
X82183476Y-57157428D01*
X82278714Y-57109809D01*
X82707285Y-57490761D02*
X82802523Y-57538380D01*
X82993000Y-57538380D01*
X83088238Y-57490761D01*
X83135857Y-57395523D01*
X83135857Y-57347904D01*
X83088238Y-57252666D01*
X82993000Y-57205047D01*
X82850142Y-57205047D01*
X82754904Y-57157428D01*
X82707285Y-57062190D01*
X82707285Y-57014571D01*
X82754904Y-56919333D01*
X82850142Y-56871714D01*
X82993000Y-56871714D01*
X83088238Y-56919333D01*
X84850142Y-56586000D02*
X84754904Y-56538380D01*
X84612047Y-56538380D01*
X84469190Y-56586000D01*
X84373952Y-56681238D01*
X84326333Y-56776476D01*
X84278714Y-56966952D01*
X84278714Y-57109809D01*
X84326333Y-57300285D01*
X84373952Y-57395523D01*
X84469190Y-57490761D01*
X84612047Y-57538380D01*
X84707285Y-57538380D01*
X84850142Y-57490761D01*
X84897761Y-57443142D01*
X84897761Y-57109809D01*
X84707285Y-57109809D01*
X85326333Y-57538380D02*
X85326333Y-56871714D01*
X85326333Y-57062190D02*
X85373952Y-56966952D01*
X85421571Y-56919333D01*
X85516809Y-56871714D01*
X85612047Y-56871714D01*
X86373952Y-56871714D02*
X86373952Y-57538380D01*
X85945380Y-56871714D02*
X85945380Y-57395523D01*
X85993000Y-57490761D01*
X86088238Y-57538380D01*
X86231095Y-57538380D01*
X86326333Y-57490761D01*
X86373952Y-57443142D01*
X86850142Y-57538380D02*
X86850142Y-56538380D01*
X86850142Y-56919333D02*
X86945380Y-56871714D01*
X87135857Y-56871714D01*
X87231095Y-56919333D01*
X87278714Y-56966952D01*
X87326333Y-57062190D01*
X87326333Y-57347904D01*
X87278714Y-57443142D01*
X87231095Y-57490761D01*
X87135857Y-57538380D01*
X86945380Y-57538380D01*
X86850142Y-57490761D01*
X88135857Y-57490761D02*
X88040619Y-57538380D01*
X87850142Y-57538380D01*
X87754904Y-57490761D01*
X87707285Y-57395523D01*
X87707285Y-57014571D01*
X87754904Y-56919333D01*
X87850142Y-56871714D01*
X88040619Y-56871714D01*
X88135857Y-56919333D01*
X88183476Y-57014571D01*
X88183476Y-57109809D01*
X87707285Y-57205047D01*
X88612047Y-57538380D02*
X88612047Y-56871714D01*
X88612047Y-57062190D02*
X88659666Y-56966952D01*
X88707285Y-56919333D01*
X88802523Y-56871714D01*
X88897761Y-56871714D01*
X79120452Y-83304571D02*
X79263309Y-83352190D01*
X79310928Y-83399809D01*
X79358547Y-83495047D01*
X79358547Y-83637904D01*
X79310928Y-83733142D01*
X79263309Y-83780761D01*
X79168071Y-83828380D01*
X78787119Y-83828380D01*
X78787119Y-82828380D01*
X79120452Y-82828380D01*
X79215690Y-82876000D01*
X79263309Y-82923619D01*
X79310928Y-83018857D01*
X79310928Y-83114095D01*
X79263309Y-83209333D01*
X79215690Y-83256952D01*
X79120452Y-83304571D01*
X78787119Y-83304571D01*
X79929976Y-83828380D02*
X79834738Y-83780761D01*
X79787119Y-83685523D01*
X79787119Y-82828380D01*
X80739500Y-83828380D02*
X80739500Y-83304571D01*
X80691880Y-83209333D01*
X80596642Y-83161714D01*
X80406166Y-83161714D01*
X80310928Y-83209333D01*
X80739500Y-83780761D02*
X80644261Y-83828380D01*
X80406166Y-83828380D01*
X80310928Y-83780761D01*
X80263309Y-83685523D01*
X80263309Y-83590285D01*
X80310928Y-83495047D01*
X80406166Y-83447428D01*
X80644261Y-83447428D01*
X80739500Y-83399809D01*
X81644261Y-83780761D02*
X81549023Y-83828380D01*
X81358547Y-83828380D01*
X81263309Y-83780761D01*
X81215690Y-83733142D01*
X81168071Y-83637904D01*
X81168071Y-83352190D01*
X81215690Y-83256952D01*
X81263309Y-83209333D01*
X81358547Y-83161714D01*
X81549023Y-83161714D01*
X81644261Y-83209333D01*
X82072833Y-83828380D02*
X82072833Y-82828380D01*
X82168071Y-83447428D02*
X82453785Y-83828380D01*
X82453785Y-83161714D02*
X82072833Y-83542666D01*
X83644261Y-83828380D02*
X83644261Y-82828380D01*
X83977595Y-83542666D01*
X84310928Y-82828380D01*
X84310928Y-83828380D01*
X85215690Y-83828380D02*
X85215690Y-83304571D01*
X85168071Y-83209333D01*
X85072833Y-83161714D01*
X84882357Y-83161714D01*
X84787119Y-83209333D01*
X85215690Y-83780761D02*
X85120452Y-83828380D01*
X84882357Y-83828380D01*
X84787119Y-83780761D01*
X84739500Y-83685523D01*
X84739500Y-83590285D01*
X84787119Y-83495047D01*
X84882357Y-83447428D01*
X85120452Y-83447428D01*
X85215690Y-83399809D01*
X86120452Y-83161714D02*
X86120452Y-83971238D01*
X86072833Y-84066476D01*
X86025214Y-84114095D01*
X85929976Y-84161714D01*
X85787119Y-84161714D01*
X85691880Y-84114095D01*
X86120452Y-83780761D02*
X86025214Y-83828380D01*
X85834738Y-83828380D01*
X85739500Y-83780761D01*
X85691880Y-83733142D01*
X85644261Y-83637904D01*
X85644261Y-83352190D01*
X85691880Y-83256952D01*
X85739500Y-83209333D01*
X85834738Y-83161714D01*
X86025214Y-83161714D01*
X86120452Y-83209333D01*
X86596642Y-83828380D02*
X86596642Y-83161714D01*
X86596642Y-82828380D02*
X86549023Y-82876000D01*
X86596642Y-82923619D01*
X86644261Y-82876000D01*
X86596642Y-82828380D01*
X86596642Y-82923619D01*
X87501404Y-83780761D02*
X87406166Y-83828380D01*
X87215690Y-83828380D01*
X87120452Y-83780761D01*
X87072833Y-83733142D01*
X87025214Y-83637904D01*
X87025214Y-83352190D01*
X87072833Y-83256952D01*
X87120452Y-83209333D01*
X87215690Y-83161714D01*
X87406166Y-83161714D01*
X87501404Y-83209333D01*
X88691880Y-83828380D02*
X88691880Y-82828380D01*
X89072833Y-82828380D01*
X89168071Y-82876000D01*
X89215690Y-82923619D01*
X89263309Y-83018857D01*
X89263309Y-83161714D01*
X89215690Y-83256952D01*
X89168071Y-83304571D01*
X89072833Y-83352190D01*
X88691880Y-83352190D01*
X89691880Y-83828380D02*
X89691880Y-83161714D01*
X89691880Y-83352190D02*
X89739500Y-83256952D01*
X89787119Y-83209333D01*
X89882357Y-83161714D01*
X89977595Y-83161714D01*
X90453785Y-83828380D02*
X90358547Y-83780761D01*
X90310928Y-83733142D01*
X90263309Y-83637904D01*
X90263309Y-83352190D01*
X90310928Y-83256952D01*
X90358547Y-83209333D01*
X90453785Y-83161714D01*
X90596642Y-83161714D01*
X90691880Y-83209333D01*
X90739500Y-83256952D01*
X90787119Y-83352190D01*
X90787119Y-83637904D01*
X90739500Y-83733142D01*
X90691880Y-83780761D01*
X90596642Y-83828380D01*
X90453785Y-83828380D01*
X91215690Y-83828380D02*
X91215690Y-82828380D01*
X91215690Y-83209333D02*
X91310928Y-83161714D01*
X91501404Y-83161714D01*
X91596642Y-83209333D01*
X91644261Y-83256952D01*
X91691880Y-83352190D01*
X91691880Y-83637904D01*
X91644261Y-83733142D01*
X91596642Y-83780761D01*
X91501404Y-83828380D01*
X91310928Y-83828380D01*
X91215690Y-83780761D01*
X92501404Y-83780761D02*
X92406166Y-83828380D01*
X92215690Y-83828380D01*
X92120452Y-83780761D01*
X92072833Y-83685523D01*
X92072833Y-83304571D01*
X92120452Y-83209333D01*
X92215690Y-83161714D01*
X92406166Y-83161714D01*
X92501404Y-83209333D01*
X92549023Y-83304571D01*
X92549023Y-83399809D01*
X92072833Y-83495047D01*
X81120452Y-85478380D02*
X81120452Y-84478380D01*
X81453785Y-85192666D01*
X81787119Y-84478380D01*
X81787119Y-85478380D01*
X82215690Y-85430761D02*
X82358547Y-85478380D01*
X82596642Y-85478380D01*
X82691880Y-85430761D01*
X82739499Y-85383142D01*
X82787119Y-85287904D01*
X82787119Y-85192666D01*
X82739499Y-85097428D01*
X82691880Y-85049809D01*
X82596642Y-85002190D01*
X82406166Y-84954571D01*
X82310928Y-84906952D01*
X82263309Y-84859333D01*
X82215690Y-84764095D01*
X82215690Y-84668857D01*
X82263309Y-84573619D01*
X82310928Y-84526000D01*
X82406166Y-84478380D01*
X82644261Y-84478380D01*
X82787119Y-84526000D01*
X83215690Y-85478380D02*
X83215690Y-84478380D01*
X83596642Y-84478380D01*
X83691880Y-84526000D01*
X83739499Y-84573619D01*
X83787119Y-84668857D01*
X83787119Y-84811714D01*
X83739499Y-84906952D01*
X83691880Y-84954571D01*
X83596642Y-85002190D01*
X83215690Y-85002190D01*
X84644261Y-84811714D02*
X84644261Y-85478380D01*
X84406166Y-84430761D02*
X84168071Y-85145047D01*
X84787119Y-85145047D01*
X85072833Y-84478380D02*
X85691880Y-84478380D01*
X85358547Y-84859333D01*
X85501404Y-84859333D01*
X85596642Y-84906952D01*
X85644261Y-84954571D01*
X85691880Y-85049809D01*
X85691880Y-85287904D01*
X85644261Y-85383142D01*
X85596642Y-85430761D01*
X85501404Y-85478380D01*
X85215690Y-85478380D01*
X85120452Y-85430761D01*
X85072833Y-85383142D01*
X86310928Y-84478380D02*
X86406166Y-84478380D01*
X86501404Y-84526000D01*
X86549023Y-84573619D01*
X86596642Y-84668857D01*
X86644261Y-84859333D01*
X86644261Y-85097428D01*
X86596642Y-85287904D01*
X86549023Y-85383142D01*
X86501404Y-85430761D01*
X86406166Y-85478380D01*
X86310928Y-85478380D01*
X86215690Y-85430761D01*
X86168071Y-85383142D01*
X86120452Y-85287904D01*
X86072833Y-85097428D01*
X86072833Y-84859333D01*
X86120452Y-84668857D01*
X86168071Y-84573619D01*
X86215690Y-84526000D01*
X86310928Y-84478380D01*
X87834738Y-84954571D02*
X88168071Y-84954571D01*
X88310928Y-85478380D02*
X87834738Y-85478380D01*
X87834738Y-84478380D01*
X88310928Y-84478380D01*
X89168071Y-85478380D02*
X89168071Y-84478380D01*
X89168071Y-85430761D02*
X89072833Y-85478380D01*
X88882357Y-85478380D01*
X88787119Y-85430761D01*
X88739499Y-85383142D01*
X88691880Y-85287904D01*
X88691880Y-85002190D01*
X88739499Y-84906952D01*
X88787119Y-84859333D01*
X88882357Y-84811714D01*
X89072833Y-84811714D01*
X89168071Y-84859333D01*
X89644261Y-85478380D02*
X89644261Y-84811714D01*
X89644261Y-84478380D02*
X89596642Y-84526000D01*
X89644261Y-84573619D01*
X89691880Y-84526000D01*
X89644261Y-84478380D01*
X89644261Y-84573619D01*
X89977595Y-84811714D02*
X90358547Y-84811714D01*
X90120452Y-84478380D02*
X90120452Y-85335523D01*
X90168071Y-85430761D01*
X90263309Y-85478380D01*
X90358547Y-85478380D01*
X90691880Y-85478380D02*
X90691880Y-84811714D01*
X90691880Y-84478380D02*
X90644261Y-84526000D01*
X90691880Y-84573619D01*
X90739499Y-84526000D01*
X90691880Y-84478380D01*
X90691880Y-84573619D01*
X91310928Y-85478380D02*
X91215690Y-85430761D01*
X91168071Y-85383142D01*
X91120452Y-85287904D01*
X91120452Y-85002190D01*
X91168071Y-84906952D01*
X91215690Y-84859333D01*
X91310928Y-84811714D01*
X91453785Y-84811714D01*
X91549023Y-84859333D01*
X91596642Y-84906952D01*
X91644261Y-85002190D01*
X91644261Y-85287904D01*
X91596642Y-85383142D01*
X91549023Y-85430761D01*
X91453785Y-85478380D01*
X91310928Y-85478380D01*
X92072833Y-84811714D02*
X92072833Y-85478380D01*
X92072833Y-84906952D02*
X92120452Y-84859333D01*
X92215690Y-84811714D01*
X92358547Y-84811714D01*
X92453785Y-84859333D01*
X92501404Y-84954571D01*
X92501404Y-85478380D01*
D10*
X126966133Y-77964695D02*
X126695200Y-77577647D01*
X126501676Y-77964695D02*
X126501676Y-77151895D01*
X126811314Y-77151895D01*
X126888723Y-77190600D01*
X126927428Y-77229304D01*
X126966133Y-77306714D01*
X126966133Y-77422828D01*
X126927428Y-77500238D01*
X126888723Y-77538942D01*
X126811314Y-77577647D01*
X126501676Y-77577647D01*
X127237066Y-77151895D02*
X127778933Y-77964695D01*
X127778933Y-77151895D02*
X127237066Y-77964695D01*
X128088571Y-77964695D02*
X128088571Y-77151895D01*
X128282095Y-77151895D01*
X128398209Y-77190600D01*
X128475619Y-77268009D01*
X128514323Y-77345419D01*
X128553028Y-77500238D01*
X128553028Y-77616352D01*
X128514323Y-77771171D01*
X128475619Y-77848580D01*
X128398209Y-77925990D01*
X128282095Y-77964695D01*
X128088571Y-77964695D01*
X126482323Y-74611895D02*
X126946780Y-74611895D01*
X126714552Y-75424695D02*
X126714552Y-74611895D01*
X127140304Y-74611895D02*
X127682171Y-75424695D01*
X127682171Y-74611895D02*
X127140304Y-75424695D01*
X127991809Y-75424695D02*
X127991809Y-74611895D01*
X128185333Y-74611895D01*
X128301447Y-74650600D01*
X128378857Y-74728009D01*
X128417561Y-74805419D01*
X128456266Y-74960238D01*
X128456266Y-75076352D01*
X128417561Y-75231171D01*
X128378857Y-75308580D01*
X128301447Y-75385990D01*
X128185333Y-75424695D01*
X127991809Y-75424695D01*
X126465390Y-69531895D02*
X126929847Y-69531895D01*
X126697619Y-70344695D02*
X126697619Y-69531895D01*
X127200780Y-69918942D02*
X127471714Y-69918942D01*
X127587828Y-70344695D02*
X127200780Y-70344695D01*
X127200780Y-69531895D01*
X127587828Y-69531895D01*
X127897466Y-70305990D02*
X128013580Y-70344695D01*
X128207104Y-70344695D01*
X128284514Y-70305990D01*
X128323219Y-70267285D01*
X128361923Y-70189876D01*
X128361923Y-70112466D01*
X128323219Y-70035057D01*
X128284514Y-69996352D01*
X128207104Y-69957647D01*
X128052285Y-69918942D01*
X127974876Y-69880238D01*
X127936171Y-69841533D01*
X127897466Y-69764123D01*
X127897466Y-69686714D01*
X127936171Y-69609304D01*
X127974876Y-69570600D01*
X128052285Y-69531895D01*
X128245809Y-69531895D01*
X128361923Y-69570600D01*
X128594152Y-69531895D02*
X129058609Y-69531895D01*
X128826380Y-70344695D02*
X128826380Y-69531895D01*
X126531914Y-64324895D02*
X126802847Y-65137695D01*
X127073780Y-64324895D01*
X127344714Y-65137695D02*
X127344714Y-64595828D01*
X127344714Y-64750647D02*
X127383419Y-64673238D01*
X127422123Y-64634533D01*
X127499533Y-64595828D01*
X127576942Y-64595828D01*
X128157514Y-65098990D02*
X128080104Y-65137695D01*
X127925285Y-65137695D01*
X127847876Y-65098990D01*
X127809171Y-65021580D01*
X127809171Y-64711942D01*
X127847876Y-64634533D01*
X127925285Y-64595828D01*
X128080104Y-64595828D01*
X128157514Y-64634533D01*
X128196219Y-64711942D01*
X128196219Y-64789352D01*
X127809171Y-64866761D01*
X128428447Y-64595828D02*
X128738085Y-64595828D01*
X128544561Y-65137695D02*
X128544561Y-64441009D01*
X128583266Y-64363600D01*
X128660676Y-64324895D01*
X128738085Y-64324895D01*
X126424266Y-61149895D02*
X126695200Y-61962695D01*
X126966133Y-61149895D01*
X127701523Y-61885285D02*
X127662819Y-61923990D01*
X127546704Y-61962695D01*
X127469295Y-61962695D01*
X127353180Y-61923990D01*
X127275771Y-61846580D01*
X127237066Y-61769171D01*
X127198361Y-61614352D01*
X127198361Y-61498238D01*
X127237066Y-61343419D01*
X127275771Y-61266009D01*
X127353180Y-61188600D01*
X127469295Y-61149895D01*
X127546704Y-61149895D01*
X127662819Y-61188600D01*
X127701523Y-61227304D01*
X128514323Y-61885285D02*
X128475619Y-61923990D01*
X128359504Y-61962695D01*
X128282095Y-61962695D01*
X128165980Y-61923990D01*
X128088571Y-61846580D01*
X128049866Y-61769171D01*
X128011161Y-61614352D01*
X128011161Y-61498238D01*
X128049866Y-61343419D01*
X128088571Y-61266009D01*
X128165980Y-61188600D01*
X128282095Y-61149895D01*
X128359504Y-61149895D01*
X128475619Y-61188600D01*
X128514323Y-61227304D01*
X118426895Y-75424695D02*
X118155961Y-75037647D01*
X117962438Y-75424695D02*
X117962438Y-74611895D01*
X118272076Y-74611895D01*
X118349485Y-74650600D01*
X118388190Y-74689304D01*
X118426895Y-74766714D01*
X118426895Y-74882828D01*
X118388190Y-74960238D01*
X118349485Y-74998942D01*
X118272076Y-75037647D01*
X117962438Y-75037647D01*
X118736533Y-75385990D02*
X118852647Y-75424695D01*
X119046171Y-75424695D01*
X119123580Y-75385990D01*
X119162285Y-75347285D01*
X119200990Y-75269876D01*
X119200990Y-75192466D01*
X119162285Y-75115057D01*
X119123580Y-75076352D01*
X119046171Y-75037647D01*
X118891352Y-74998942D01*
X118813942Y-74960238D01*
X118775238Y-74921533D01*
X118736533Y-74844123D01*
X118736533Y-74766714D01*
X118775238Y-74689304D01*
X118813942Y-74650600D01*
X118891352Y-74611895D01*
X119084876Y-74611895D01*
X119200990Y-74650600D01*
X119433219Y-74611895D02*
X119897676Y-74611895D01*
X119665447Y-75424695D02*
X119665447Y-74611895D01*
X118252723Y-77063600D02*
X118175314Y-77024895D01*
X118059200Y-77024895D01*
X117943085Y-77063600D01*
X117865676Y-77141009D01*
X117826971Y-77218419D01*
X117788266Y-77373238D01*
X117788266Y-77489352D01*
X117826971Y-77644171D01*
X117865676Y-77721580D01*
X117943085Y-77798990D01*
X118059200Y-77837695D01*
X118136609Y-77837695D01*
X118252723Y-77798990D01*
X118291428Y-77760285D01*
X118291428Y-77489352D01*
X118136609Y-77489352D01*
X118639771Y-77837695D02*
X118639771Y-77024895D01*
X119104228Y-77837695D01*
X119104228Y-77024895D01*
X119491276Y-77837695D02*
X119491276Y-77024895D01*
X119684800Y-77024895D01*
X119800914Y-77063600D01*
X119878323Y-77141009D01*
X119917028Y-77218419D01*
X119955733Y-77373238D01*
X119955733Y-77489352D01*
X119917028Y-77644171D01*
X119878323Y-77721580D01*
X119800914Y-77798990D01*
X119684800Y-77837695D01*
X119491276Y-77837695D01*
X119100600Y-73136276D02*
X119061895Y-73213685D01*
X119061895Y-73329800D01*
X119100600Y-73445914D01*
X119178009Y-73523323D01*
X119255419Y-73562028D01*
X119410238Y-73600733D01*
X119526352Y-73600733D01*
X119681171Y-73562028D01*
X119758580Y-73523323D01*
X119835990Y-73445914D01*
X119874695Y-73329800D01*
X119874695Y-73252390D01*
X119835990Y-73136276D01*
X119797285Y-73097571D01*
X119526352Y-73097571D01*
X119526352Y-73252390D01*
X119874695Y-72749228D02*
X119061895Y-72749228D01*
X119874695Y-72284771D01*
X119061895Y-72284771D01*
X119874695Y-71897723D02*
X119061895Y-71897723D01*
X119061895Y-71704200D01*
X119100600Y-71588085D01*
X119178009Y-71510676D01*
X119255419Y-71471971D01*
X119410238Y-71433266D01*
X119526352Y-71433266D01*
X119681171Y-71471971D01*
X119758580Y-71510676D01*
X119835990Y-71588085D01*
X119874695Y-71704200D01*
X119874695Y-71897723D01*
X117953971Y-69404895D02*
X118418428Y-69404895D01*
X118186200Y-70217695D02*
X118186200Y-69404895D01*
X119153819Y-70140285D02*
X119115114Y-70178990D01*
X118999000Y-70217695D01*
X118921590Y-70217695D01*
X118805476Y-70178990D01*
X118728066Y-70101580D01*
X118689361Y-70024171D01*
X118650657Y-69869352D01*
X118650657Y-69753238D01*
X118689361Y-69598419D01*
X118728066Y-69521009D01*
X118805476Y-69443600D01*
X118921590Y-69404895D01*
X118999000Y-69404895D01*
X119115114Y-69443600D01*
X119153819Y-69482304D01*
X119502161Y-70217695D02*
X119502161Y-69404895D01*
X119966619Y-70217695D02*
X119618276Y-69753238D01*
X119966619Y-69404895D02*
X119502161Y-69869352D01*
X117915266Y-66864895D02*
X118379723Y-66864895D01*
X118147495Y-67677695D02*
X118147495Y-66864895D01*
X118650657Y-67677695D02*
X118650657Y-66864895D01*
X118921590Y-67445466D01*
X119192523Y-66864895D01*
X119192523Y-67677695D01*
X119540866Y-67638990D02*
X119656980Y-67677695D01*
X119850504Y-67677695D01*
X119927914Y-67638990D01*
X119966619Y-67600285D01*
X120005323Y-67522876D01*
X120005323Y-67445466D01*
X119966619Y-67368057D01*
X119927914Y-67329352D01*
X119850504Y-67290647D01*
X119695685Y-67251942D01*
X119618276Y-67213238D01*
X119579571Y-67174533D01*
X119540866Y-67097123D01*
X119540866Y-67019714D01*
X119579571Y-66942304D01*
X119618276Y-66903600D01*
X119695685Y-66864895D01*
X119889209Y-66864895D01*
X120005323Y-66903600D01*
X118293847Y-64324895D02*
X118758304Y-64324895D01*
X118526076Y-65137695D02*
X118526076Y-64324895D01*
X119029238Y-65137695D02*
X119029238Y-64324895D01*
X119222761Y-64324895D01*
X119338876Y-64363600D01*
X119416285Y-64441009D01*
X119454990Y-64518419D01*
X119493695Y-64673238D01*
X119493695Y-64789352D01*
X119454990Y-64944171D01*
X119416285Y-65021580D01*
X119338876Y-65098990D01*
X119222761Y-65137695D01*
X119029238Y-65137695D01*
X119842038Y-65137695D02*
X119842038Y-64324895D01*
X117807619Y-61784895D02*
X118272076Y-61784895D01*
X118039847Y-62597695D02*
X118039847Y-61784895D01*
X118543009Y-62597695D02*
X118543009Y-61784895D01*
X118736533Y-61784895D01*
X118852647Y-61823600D01*
X118930057Y-61901009D01*
X118968761Y-61978419D01*
X119007466Y-62133238D01*
X119007466Y-62249352D01*
X118968761Y-62404171D01*
X118930057Y-62481580D01*
X118852647Y-62558990D01*
X118736533Y-62597695D01*
X118543009Y-62597695D01*
X119510628Y-61784895D02*
X119665447Y-61784895D01*
X119742857Y-61823600D01*
X119820266Y-61901009D01*
X119858971Y-62055828D01*
X119858971Y-62326761D01*
X119820266Y-62481580D01*
X119742857Y-62558990D01*
X119665447Y-62597695D01*
X119510628Y-62597695D01*
X119433219Y-62558990D01*
X119355809Y-62481580D01*
X119317104Y-62326761D01*
X119317104Y-62055828D01*
X119355809Y-61901009D01*
X119433219Y-61823600D01*
X119510628Y-61784895D01*
D11*
X98226761Y-75271380D02*
X98226761Y-76080904D01*
X98274380Y-76176142D01*
X98322000Y-76223761D01*
X98417238Y-76271380D01*
X98607714Y-76271380D01*
X98702952Y-76223761D01*
X98750571Y-76176142D01*
X98798190Y-76080904D01*
X98798190Y-75271380D01*
X99226761Y-75985666D02*
X99702952Y-75985666D01*
X99131523Y-76271380D02*
X99464857Y-75271380D01*
X99798190Y-76271380D01*
X100702952Y-76271380D02*
X100369619Y-75795190D01*
X100131523Y-76271380D02*
X100131523Y-75271380D01*
X100512476Y-75271380D01*
X100607714Y-75319000D01*
X100655333Y-75366619D01*
X100702952Y-75461857D01*
X100702952Y-75604714D01*
X100655333Y-75699952D01*
X100607714Y-75747571D01*
X100512476Y-75795190D01*
X100131523Y-75795190D01*
X100988666Y-75271380D02*
X101560095Y-75271380D01*
X101274380Y-76271380D02*
X101274380Y-75271380D01*
X84351761Y-71207142D02*
X84399380Y-71064285D01*
X84399380Y-70826190D01*
X84351761Y-70730952D01*
X84304142Y-70683333D01*
X84208904Y-70635714D01*
X84113666Y-70635714D01*
X84018428Y-70683333D01*
X83970809Y-70730952D01*
X83923190Y-70826190D01*
X83875571Y-71016666D01*
X83827952Y-71111904D01*
X83780333Y-71159523D01*
X83685095Y-71207142D01*
X83589857Y-71207142D01*
X83494619Y-71159523D01*
X83447000Y-71111904D01*
X83399380Y-71016666D01*
X83399380Y-70778571D01*
X83447000Y-70635714D01*
X83399380Y-70302380D02*
X84399380Y-70064285D01*
X83685095Y-69873809D01*
X84399380Y-69683333D01*
X83399380Y-69445238D01*
X84399380Y-69064285D02*
X83399380Y-69064285D01*
X83399380Y-68826190D01*
X83447000Y-68683333D01*
X83542238Y-68588095D01*
X83637476Y-68540476D01*
X83827952Y-68492857D01*
X83970809Y-68492857D01*
X84161285Y-68540476D01*
X84256523Y-68588095D01*
X84351761Y-68683333D01*
X84399380Y-68826190D01*
X84399380Y-69064285D01*
X122023333Y-79081380D02*
X122023333Y-79795666D01*
X121975714Y-79938523D01*
X121880476Y-80033761D01*
X121737619Y-80081380D01*
X121642380Y-80081380D01*
X122356666Y-79081380D02*
X122928095Y-79081380D01*
X122642380Y-80081380D02*
X122642380Y-79081380D01*
X123213809Y-79795666D02*
X123690000Y-79795666D01*
X123118571Y-80081380D02*
X123451904Y-79081380D01*
X123785238Y-80081380D01*
X124642380Y-79129000D02*
X124547142Y-79081380D01*
X124404285Y-79081380D01*
X124261428Y-79129000D01*
X124166190Y-79224238D01*
X124118571Y-79319476D01*
X124070952Y-79509952D01*
X124070952Y-79652809D01*
X124118571Y-79843285D01*
X124166190Y-79938523D01*
X124261428Y-80033761D01*
X124404285Y-80081380D01*
X124499523Y-80081380D01*
X124642380Y-80033761D01*
X124690000Y-79986142D01*
X124690000Y-79652809D01*
X124499523Y-79652809D01*
D10*
X99528333Y-55739695D02*
X99195000Y-55352647D01*
X98956904Y-55739695D02*
X98956904Y-54926895D01*
X99337857Y-54926895D01*
X99433095Y-54965600D01*
X99480714Y-55004304D01*
X99528333Y-55081714D01*
X99528333Y-55197828D01*
X99480714Y-55275238D01*
X99433095Y-55313942D01*
X99337857Y-55352647D01*
X98956904Y-55352647D01*
X99861666Y-54926895D02*
X100528333Y-55739695D01*
X100528333Y-54926895D02*
X99861666Y-55739695D01*
X109235723Y-54965600D02*
X109158314Y-54926895D01*
X109042200Y-54926895D01*
X108926085Y-54965600D01*
X108848676Y-55043009D01*
X108809971Y-55120419D01*
X108771266Y-55275238D01*
X108771266Y-55391352D01*
X108809971Y-55546171D01*
X108848676Y-55623580D01*
X108926085Y-55700990D01*
X109042200Y-55739695D01*
X109119609Y-55739695D01*
X109235723Y-55700990D01*
X109274428Y-55662285D01*
X109274428Y-55391352D01*
X109119609Y-55391352D01*
X109622771Y-55739695D02*
X109622771Y-54926895D01*
X110087228Y-55739695D01*
X110087228Y-54926895D01*
X110474276Y-55739695D02*
X110474276Y-54926895D01*
X110667800Y-54926895D01*
X110783914Y-54965600D01*
X110861323Y-55043009D01*
X110900028Y-55120419D01*
X110938733Y-55275238D01*
X110938733Y-55391352D01*
X110900028Y-55546171D01*
X110861323Y-55623580D01*
X110783914Y-55700990D01*
X110667800Y-55739695D01*
X110474276Y-55739695D01*
X107160180Y-54926895D02*
X106773133Y-54926895D01*
X106734428Y-55313942D01*
X106773133Y-55275238D01*
X106850542Y-55236533D01*
X107044066Y-55236533D01*
X107121476Y-55275238D01*
X107160180Y-55313942D01*
X107198885Y-55391352D01*
X107198885Y-55584876D01*
X107160180Y-55662285D01*
X107121476Y-55700990D01*
X107044066Y-55739695D01*
X106850542Y-55739695D01*
X106773133Y-55700990D01*
X106734428Y-55662285D01*
X107431114Y-54926895D02*
X107702047Y-55739695D01*
X107972980Y-54926895D01*
X104446009Y-55313942D02*
X104562123Y-55352647D01*
X104600828Y-55391352D01*
X104639533Y-55468761D01*
X104639533Y-55584876D01*
X104600828Y-55662285D01*
X104562123Y-55700990D01*
X104484714Y-55739695D01*
X104175076Y-55739695D01*
X104175076Y-54926895D01*
X104446009Y-54926895D01*
X104523419Y-54965600D01*
X104562123Y-55004304D01*
X104600828Y-55081714D01*
X104600828Y-55159123D01*
X104562123Y-55236533D01*
X104523419Y-55275238D01*
X104446009Y-55313942D01*
X104175076Y-55313942D01*
X105142695Y-54926895D02*
X105220104Y-54926895D01*
X105297514Y-54965600D01*
X105336219Y-55004304D01*
X105374923Y-55081714D01*
X105413628Y-55236533D01*
X105413628Y-55430057D01*
X105374923Y-55584876D01*
X105336219Y-55662285D01*
X105297514Y-55700990D01*
X105220104Y-55739695D01*
X105142695Y-55739695D01*
X105065285Y-55700990D01*
X105026580Y-55662285D01*
X104987876Y-55584876D01*
X104949171Y-55430057D01*
X104949171Y-55236533D01*
X104987876Y-55081714D01*
X105026580Y-55004304D01*
X105065285Y-54965600D01*
X105142695Y-54926895D01*
X101473095Y-54926895D02*
X102044523Y-54926895D01*
X101758809Y-55739695D02*
X101758809Y-54926895D01*
X102282619Y-54926895D02*
X102949285Y-55739695D01*
X102949285Y-54926895D02*
X102282619Y-55739695D01*
D11*
X111926809Y-53919380D02*
X111926809Y-52919380D01*
X112355380Y-53871761D02*
X112498238Y-53919380D01*
X112736333Y-53919380D01*
X112831571Y-53871761D01*
X112879190Y-53824142D01*
X112926809Y-53728904D01*
X112926809Y-53633666D01*
X112879190Y-53538428D01*
X112831571Y-53490809D01*
X112736333Y-53443190D01*
X112545857Y-53395571D01*
X112450619Y-53347952D01*
X112403000Y-53300333D01*
X112355380Y-53205095D01*
X112355380Y-53109857D01*
X112403000Y-53014619D01*
X112450619Y-52967000D01*
X112545857Y-52919380D01*
X112783952Y-52919380D01*
X112926809Y-52967000D01*
X113355380Y-53919380D02*
X113355380Y-52919380D01*
X113736333Y-52919380D01*
X113831571Y-52967000D01*
X113879190Y-53014619D01*
X113926809Y-53109857D01*
X113926809Y-53252714D01*
X113879190Y-53347952D01*
X113831571Y-53395571D01*
X113736333Y-53443190D01*
X113355380Y-53443190D01*
D13*
X61908000Y-73760000D02*
X61908000Y-65940000D01*
X71228000Y-67740000D02*
X71658000Y-67740000D01*
X61908000Y-73760000D02*
X63858000Y-73760000D01*
X66078000Y-73760000D02*
X69308000Y-73760000D01*
X71228000Y-71960000D02*
X71228000Y-73040000D01*
X71228000Y-66660000D02*
X71228000Y-67740000D01*
X66078000Y-65940000D02*
X69308000Y-65940000D01*
X61908000Y-65940000D02*
X63858000Y-65940000D01*
X94582000Y-86128000D02*
X100482000Y-86128000D01*
X100482000Y-86128000D02*
X100482000Y-82528000D01*
X100482000Y-82528000D02*
X94582000Y-82528000D01*
X92817733Y-75944000D02*
X93110267Y-75944000D01*
X92817733Y-76964000D02*
X93110267Y-76964000D01*
X92817733Y-74293000D02*
X93110267Y-74293000D01*
X92817733Y-75313000D02*
X93110267Y-75313000D01*
X88030267Y-80139000D02*
X87737733Y-80139000D01*
X88030267Y-79119000D02*
X87737733Y-79119000D01*
X113919724Y-58053500D02*
X113410276Y-58053500D01*
X113919724Y-57008500D02*
X113410276Y-57008500D01*
X111185000Y-54670000D02*
X111185000Y-52010000D01*
X100965000Y-54670000D02*
X111185000Y-54670000D01*
X100965000Y-52010000D02*
X111185000Y-52010000D01*
X100965000Y-54670000D02*
X100965000Y-52010000D01*
X99695000Y-54670000D02*
X98365000Y-54670000D01*
X98365000Y-54670000D02*
X98365000Y-53340000D01*
X109107500Y-85724276D02*
X109107500Y-86233724D01*
X108062500Y-85724276D02*
X108062500Y-86233724D01*
X110746000Y-85832733D02*
X110746000Y-86125267D01*
X109726000Y-85832733D02*
X109726000Y-86125267D01*
X113156276Y-84948500D02*
X113665724Y-84948500D01*
X113156276Y-85993500D02*
X113665724Y-85993500D01*
X113156276Y-86472500D02*
X113665724Y-86472500D01*
X113156276Y-87517500D02*
X113665724Y-87517500D01*
X114960000Y-74277500D02*
X114960000Y-73827500D01*
X114960000Y-73827500D02*
X114510000Y-73827500D01*
X114960000Y-80597500D02*
X114960000Y-81047500D01*
X114960000Y-81047500D02*
X114510000Y-81047500D01*
X107740000Y-74277500D02*
X107740000Y-73827500D01*
X107740000Y-73827500D02*
X108190000Y-73827500D01*
X107740000Y-80597500D02*
X107740000Y-81047500D01*
X107740000Y-81047500D02*
X108190000Y-81047500D01*
X108190000Y-81047500D02*
X108190000Y-82337500D01*
X99822000Y-61361000D02*
X101772000Y-61361000D01*
X99822000Y-61361000D02*
X97872000Y-61361000D01*
X99822000Y-56241000D02*
X101772000Y-56241000D01*
X99822000Y-56241000D02*
X96372000Y-56241000D01*
X88030267Y-78488000D02*
X87737733Y-78488000D01*
X88030267Y-77468000D02*
X87737733Y-77468000D01*
X94617000Y-57169267D02*
X94617000Y-56876733D01*
X93597000Y-57169267D02*
X93597000Y-56876733D01*
X130409733Y-62105000D02*
X130702267Y-62105000D01*
X130409733Y-61085000D02*
X130702267Y-61085000D01*
X106660733Y-58803000D02*
X106953267Y-58803000D01*
X106660733Y-57783000D02*
X106953267Y-57783000D01*
X113492233Y-59692000D02*
X113784767Y-59692000D01*
X113492233Y-58672000D02*
X113784767Y-58672000D01*
X95230733Y-81663000D02*
X95523267Y-81663000D01*
X95230733Y-80643000D02*
X95523267Y-80643000D01*
X99206267Y-80643000D02*
X98913733Y-80643000D01*
X99206267Y-81663000D02*
X98913733Y-81663000D01*
X117073633Y-73027000D02*
X117366167Y-73027000D01*
X117073633Y-72007000D02*
X117366167Y-72007000D01*
X107802633Y-71579200D02*
X108095167Y-71579200D01*
X107802633Y-70559200D02*
X108095167Y-70559200D01*
X104650000Y-80182767D02*
X104650000Y-79890233D01*
X103630000Y-80182767D02*
X103630000Y-79890233D01*
X113264733Y-84457000D02*
X113557267Y-84457000D01*
X113264733Y-83437000D02*
X113557267Y-83437000D01*
X80516000Y-63734733D02*
X80516000Y-64027267D01*
X81536000Y-63734733D02*
X81536000Y-64027267D01*
X73027000Y-61868267D02*
X73027000Y-61575733D01*
X72007000Y-61868267D02*
X72007000Y-61575733D01*
X74678000Y-62364500D02*
X74678000Y-63294500D01*
X74678000Y-65524500D02*
X74678000Y-64594500D01*
X74678000Y-65524500D02*
X76838000Y-65524500D01*
X74678000Y-62364500D02*
X76138000Y-62364500D01*
X113606500Y-68413000D02*
X115806500Y-68413000D01*
X113606500Y-68413000D02*
X111406500Y-68413000D01*
X113606500Y-61643000D02*
X115806500Y-61643000D01*
X113606500Y-61643000D02*
X110006500Y-61643000D01*
X106552276Y-62723500D02*
X107061724Y-62723500D01*
X106552276Y-63768500D02*
X107061724Y-63768500D01*
X106552276Y-61072500D02*
X107061724Y-61072500D01*
X106552276Y-62117500D02*
X107061724Y-62117500D01*
X103871500Y-84201724D02*
X103871500Y-83692276D01*
X104916500Y-84201724D02*
X104916500Y-83692276D01*
X103617500Y-76939224D02*
X103617500Y-76429776D01*
X104662500Y-76939224D02*
X104662500Y-76429776D01*
X74040276Y-80884500D02*
X74549724Y-80884500D01*
X74040276Y-81929500D02*
X74549724Y-81929500D01*
X74040276Y-79233500D02*
X74549724Y-79233500D01*
X74040276Y-80278500D02*
X74549724Y-80278500D01*
X80264724Y-75452500D02*
X79755276Y-75452500D01*
X80264724Y-74407500D02*
X79755276Y-74407500D01*
X80264724Y-77103500D02*
X79755276Y-77103500D01*
X80264724Y-76058500D02*
X79755276Y-76058500D01*
X79755276Y-77709500D02*
X80264724Y-77709500D01*
X79755276Y-78754500D02*
X80264724Y-78754500D01*
X74676724Y-75198500D02*
X74167276Y-75198500D01*
X74676724Y-74153500D02*
X74167276Y-74153500D01*
X102725000Y-64660000D02*
X96705000Y-64660000D01*
X96705000Y-64660000D02*
X96705000Y-75040000D01*
X96705000Y-75040000D02*
X102725000Y-75040000D01*
X102725000Y-75040000D02*
X102725000Y-64660000D01*
X101695000Y-64370000D02*
X97695000Y-64370000D01*
X96705000Y-66040000D02*
X97705000Y-66040000D01*
X97705000Y-66040000D02*
X97705000Y-73660000D01*
X97705000Y-73660000D02*
X96705000Y-73660000D01*
X97705000Y-66040000D02*
X98235000Y-66290000D01*
X98235000Y-66290000D02*
X98235000Y-73410000D01*
X98235000Y-73410000D02*
X97705000Y-73660000D01*
X96705000Y-66290000D02*
X97705000Y-66290000D01*
X96705000Y-73410000D02*
X97705000Y-73410000D01*
X102725000Y-65240000D02*
X102125000Y-65240000D01*
X102125000Y-65240000D02*
X102125000Y-66840000D01*
X102125000Y-66840000D02*
X102725000Y-66840000D01*
X102725000Y-67780000D02*
X102125000Y-67780000D01*
X102125000Y-67780000D02*
X102125000Y-69380000D01*
X102125000Y-69380000D02*
X102725000Y-69380000D01*
X102725000Y-70320000D02*
X102125000Y-70320000D01*
X102125000Y-70320000D02*
X102125000Y-71920000D01*
X102125000Y-71920000D02*
X102725000Y-71920000D01*
X102725000Y-72860000D02*
X102125000Y-72860000D01*
X102125000Y-72860000D02*
X102125000Y-74460000D01*
X102125000Y-74460000D02*
X102725000Y-74460000D01*
X120590000Y-78800000D02*
X125790000Y-78800000D01*
X120590000Y-63500000D02*
X120590000Y-78800000D01*
X125790000Y-60900000D02*
X125790000Y-78800000D01*
X120590000Y-63500000D02*
X123190000Y-63500000D01*
X123190000Y-63500000D02*
X123190000Y-60900000D01*
X123190000Y-60900000D02*
X125790000Y-60900000D01*
X120590000Y-62230000D02*
X120590000Y-60900000D01*
X120590000Y-60900000D02*
X121920000Y-60900000D01*
X87180000Y-66615000D02*
X90710000Y-66615000D01*
X87180000Y-73085000D02*
X90710000Y-73085000D01*
X85855000Y-66680000D02*
X87180000Y-66680000D01*
X87180000Y-66615000D02*
X87180000Y-66680000D01*
X90710000Y-66615000D02*
X90710000Y-66680000D01*
X87180000Y-73020000D02*
X87180000Y-73085000D01*
X90710000Y-73020000D02*
X90710000Y-73085000D01*
X67766000Y-82015000D02*
X70226000Y-82015000D01*
X70226000Y-82015000D02*
X70226000Y-80545000D01*
X70226000Y-80545000D02*
X67766000Y-80545000D01*
X67766000Y-80491000D02*
X70226000Y-80491000D01*
X70226000Y-80491000D02*
X70226000Y-79021000D01*
X70226000Y-79021000D02*
X67766000Y-79021000D01*
X92839000Y-56876733D02*
X92839000Y-57169267D01*
X91819000Y-56876733D02*
X91819000Y-57169267D01*
X106660733Y-59434000D02*
X106953267Y-59434000D01*
X106660733Y-60454000D02*
X106953267Y-60454000D01*
X79885000Y-63734733D02*
X79885000Y-64027267D01*
X78865000Y-63734733D02*
X78865000Y-64027267D01*
X70356000Y-61868267D02*
X70356000Y-61575733D01*
X71376000Y-61868267D02*
X71376000Y-61575733D01*
D11*
X72270380Y-70183333D02*
X72984666Y-70183333D01*
X73127523Y-70230952D01*
X73222761Y-70326190D01*
X73270380Y-70469047D01*
X73270380Y-70564285D01*
X73270380Y-69183333D02*
X73270380Y-69754761D01*
X73270380Y-69469047D02*
X72270380Y-69469047D01*
X72413238Y-69564285D01*
X72508476Y-69659523D01*
X72556095Y-69754761D01*
X96805809Y-87104190D02*
X96805809Y-87580380D01*
X96472476Y-86580380D02*
X96805809Y-87104190D01*
X97139142Y-86580380D01*
X97996285Y-87580380D02*
X97424857Y-87580380D01*
X97710571Y-87580380D02*
X97710571Y-86580380D01*
X97615333Y-86723238D01*
X97520095Y-86818476D01*
X97424857Y-86866095D01*
X89647485Y-76925714D02*
X89608780Y-76971676D01*
X89492666Y-77017638D01*
X89415257Y-77017638D01*
X89299142Y-76971676D01*
X89221733Y-76879752D01*
X89183028Y-76787828D01*
X89144323Y-76603980D01*
X89144323Y-76466095D01*
X89183028Y-76282247D01*
X89221733Y-76190323D01*
X89299142Y-76098400D01*
X89415257Y-76052438D01*
X89492666Y-76052438D01*
X89608780Y-76098400D01*
X89647485Y-76144361D01*
X90421580Y-77017638D02*
X89957123Y-77017638D01*
X90189352Y-77017638D02*
X90189352Y-76052438D01*
X90111942Y-76190323D01*
X90034533Y-76282247D01*
X89957123Y-76328209D01*
X91118266Y-76052438D02*
X90963447Y-76052438D01*
X90886038Y-76098400D01*
X90847333Y-76144361D01*
X90769923Y-76282247D01*
X90731219Y-76466095D01*
X90731219Y-76833790D01*
X90769923Y-76925714D01*
X90808628Y-76971676D01*
X90886038Y-77017638D01*
X91040857Y-77017638D01*
X91118266Y-76971676D01*
X91156971Y-76925714D01*
X91195676Y-76833790D01*
X91195676Y-76603980D01*
X91156971Y-76512057D01*
X91118266Y-76466095D01*
X91040857Y-76420133D01*
X90886038Y-76420133D01*
X90808628Y-76466095D01*
X90769923Y-76512057D01*
X90731219Y-76603980D01*
X89647485Y-75274714D02*
X89608780Y-75320676D01*
X89492666Y-75366638D01*
X89415257Y-75366638D01*
X89299142Y-75320676D01*
X89221733Y-75228752D01*
X89183028Y-75136828D01*
X89144323Y-74952980D01*
X89144323Y-74815095D01*
X89183028Y-74631247D01*
X89221733Y-74539323D01*
X89299142Y-74447400D01*
X89415257Y-74401438D01*
X89492666Y-74401438D01*
X89608780Y-74447400D01*
X89647485Y-74493361D01*
X90421580Y-75366638D02*
X89957123Y-75366638D01*
X90189352Y-75366638D02*
X90189352Y-74401438D01*
X90111942Y-74539323D01*
X90034533Y-74631247D01*
X89957123Y-74677209D01*
X91118266Y-74723171D02*
X91118266Y-75366638D01*
X90924742Y-74355476D02*
X90731219Y-75044904D01*
X91234380Y-75044904D01*
X90257333Y-79986142D02*
X90209714Y-80033761D01*
X90066857Y-80081380D01*
X89971619Y-80081380D01*
X89828761Y-80033761D01*
X89733523Y-79938523D01*
X89685904Y-79843285D01*
X89638285Y-79652809D01*
X89638285Y-79509952D01*
X89685904Y-79319476D01*
X89733523Y-79224238D01*
X89828761Y-79129000D01*
X89971619Y-79081380D01*
X90066857Y-79081380D01*
X90209714Y-79129000D01*
X90257333Y-79176619D01*
X90590666Y-79081380D02*
X91209714Y-79081380D01*
X90876380Y-79462333D01*
X91019238Y-79462333D01*
X91114476Y-79509952D01*
X91162095Y-79557571D01*
X91209714Y-79652809D01*
X91209714Y-79890904D01*
X91162095Y-79986142D01*
X91114476Y-80033761D01*
X91019238Y-80081380D01*
X90733523Y-80081380D01*
X90638285Y-80033761D01*
X90590666Y-79986142D01*
X116070142Y-58110380D02*
X115736809Y-57634190D01*
X115498714Y-58110380D02*
X115498714Y-57110380D01*
X115879666Y-57110380D01*
X115974904Y-57158000D01*
X116022523Y-57205619D01*
X116070142Y-57300857D01*
X116070142Y-57443714D01*
X116022523Y-57538952D01*
X115974904Y-57586571D01*
X115879666Y-57634190D01*
X115498714Y-57634190D01*
X117022523Y-58110380D02*
X116451095Y-58110380D01*
X116736809Y-58110380D02*
X116736809Y-57110380D01*
X116641571Y-57253238D01*
X116546333Y-57348476D01*
X116451095Y-57396095D01*
X117974904Y-58110380D02*
X117403476Y-58110380D01*
X117689190Y-58110380D02*
X117689190Y-57110380D01*
X117593952Y-57253238D01*
X117498714Y-57348476D01*
X117403476Y-57396095D01*
X96817380Y-53673333D02*
X97531666Y-53673333D01*
X97674523Y-53720952D01*
X97769761Y-53816190D01*
X97817380Y-53959047D01*
X97817380Y-54054285D01*
X96817380Y-52720952D02*
X96817380Y-53197142D01*
X97293571Y-53244761D01*
X97245952Y-53197142D01*
X97198333Y-53101904D01*
X97198333Y-52863809D01*
X97245952Y-52768571D01*
X97293571Y-52720952D01*
X97388809Y-52673333D01*
X97626904Y-52673333D01*
X97722142Y-52720952D01*
X97769761Y-52768571D01*
X97817380Y-52863809D01*
X97817380Y-53101904D01*
X97769761Y-53197142D01*
X97722142Y-53244761D01*
X107640380Y-86621857D02*
X107164190Y-86955190D01*
X107640380Y-87193285D02*
X106640380Y-87193285D01*
X106640380Y-86812333D01*
X106688000Y-86717095D01*
X106735619Y-86669476D01*
X106830857Y-86621857D01*
X106973714Y-86621857D01*
X107068952Y-86669476D01*
X107116571Y-86717095D01*
X107164190Y-86812333D01*
X107164190Y-87193285D01*
X107640380Y-85669476D02*
X107640380Y-86240904D01*
X107640380Y-85955190D02*
X106640380Y-85955190D01*
X106783238Y-86050428D01*
X106878476Y-86145666D01*
X106926095Y-86240904D01*
X106973714Y-84812333D02*
X107640380Y-84812333D01*
X106592761Y-85050428D02*
X107307047Y-85288523D01*
X107307047Y-84669476D01*
X109593142Y-84177142D02*
X109545523Y-84224761D01*
X109402666Y-84272380D01*
X109307428Y-84272380D01*
X109164571Y-84224761D01*
X109069333Y-84129523D01*
X109021714Y-84034285D01*
X108974095Y-83843809D01*
X108974095Y-83700952D01*
X109021714Y-83510476D01*
X109069333Y-83415238D01*
X109164571Y-83320000D01*
X109307428Y-83272380D01*
X109402666Y-83272380D01*
X109545523Y-83320000D01*
X109593142Y-83367619D01*
X110545523Y-84272380D02*
X109974095Y-84272380D01*
X110259809Y-84272380D02*
X110259809Y-83272380D01*
X110164571Y-83415238D01*
X110069333Y-83510476D01*
X109974095Y-83558095D01*
X110878857Y-83272380D02*
X111497904Y-83272380D01*
X111164571Y-83653333D01*
X111307428Y-83653333D01*
X111402666Y-83700952D01*
X111450285Y-83748571D01*
X111497904Y-83843809D01*
X111497904Y-84081904D01*
X111450285Y-84177142D01*
X111402666Y-84224761D01*
X111307428Y-84272380D01*
X111021714Y-84272380D01*
X110926476Y-84224761D01*
X110878857Y-84177142D01*
X115860533Y-85897980D02*
X115527200Y-85421790D01*
X115289104Y-85897980D02*
X115289104Y-84897980D01*
X115670057Y-84897980D01*
X115765295Y-84945600D01*
X115812914Y-84993219D01*
X115860533Y-85088457D01*
X115860533Y-85231314D01*
X115812914Y-85326552D01*
X115765295Y-85374171D01*
X115670057Y-85421790D01*
X115289104Y-85421790D01*
X116717676Y-84897980D02*
X116527200Y-84897980D01*
X116431961Y-84945600D01*
X116384342Y-84993219D01*
X116289104Y-85136076D01*
X116241485Y-85326552D01*
X116241485Y-85707504D01*
X116289104Y-85802742D01*
X116336723Y-85850361D01*
X116431961Y-85897980D01*
X116622438Y-85897980D01*
X116717676Y-85850361D01*
X116765295Y-85802742D01*
X116812914Y-85707504D01*
X116812914Y-85469409D01*
X116765295Y-85374171D01*
X116717676Y-85326552D01*
X116622438Y-85278933D01*
X116431961Y-85278933D01*
X116336723Y-85326552D01*
X116289104Y-85374171D01*
X116241485Y-85469409D01*
X115860533Y-87421980D02*
X115527200Y-86945790D01*
X115289104Y-87421980D02*
X115289104Y-86421980D01*
X115670057Y-86421980D01*
X115765295Y-86469600D01*
X115812914Y-86517219D01*
X115860533Y-86612457D01*
X115860533Y-86755314D01*
X115812914Y-86850552D01*
X115765295Y-86898171D01*
X115670057Y-86945790D01*
X115289104Y-86945790D01*
X116765295Y-86421980D02*
X116289104Y-86421980D01*
X116241485Y-86898171D01*
X116289104Y-86850552D01*
X116384342Y-86802933D01*
X116622438Y-86802933D01*
X116717676Y-86850552D01*
X116765295Y-86898171D01*
X116812914Y-86993409D01*
X116812914Y-87231504D01*
X116765295Y-87326742D01*
X116717676Y-87374361D01*
X116622438Y-87421980D01*
X116384342Y-87421980D01*
X116289104Y-87374361D01*
X116241485Y-87326742D01*
X104952380Y-78199404D02*
X105761904Y-78199404D01*
X105857142Y-78151785D01*
X105904761Y-78104166D01*
X105952380Y-78008928D01*
X105952380Y-77818452D01*
X105904761Y-77723214D01*
X105857142Y-77675595D01*
X105761904Y-77627976D01*
X104952380Y-77627976D01*
X105047619Y-77199404D02*
X105000000Y-77151785D01*
X104952380Y-77056547D01*
X104952380Y-76818452D01*
X105000000Y-76723214D01*
X105047619Y-76675595D01*
X105142857Y-76627976D01*
X105238095Y-76627976D01*
X105380952Y-76675595D01*
X105952380Y-77247023D01*
X105952380Y-76627976D01*
X96139095Y-54951380D02*
X96139095Y-55760904D01*
X96186714Y-55856142D01*
X96234333Y-55903761D01*
X96329571Y-55951380D01*
X96520047Y-55951380D01*
X96615285Y-55903761D01*
X96662904Y-55856142D01*
X96710523Y-55760904D01*
X96710523Y-54951380D01*
X97091476Y-54951380D02*
X97710523Y-54951380D01*
X97377190Y-55332333D01*
X97520047Y-55332333D01*
X97615285Y-55379952D01*
X97662904Y-55427571D01*
X97710523Y-55522809D01*
X97710523Y-55760904D01*
X97662904Y-55856142D01*
X97615285Y-55903761D01*
X97520047Y-55951380D01*
X97234333Y-55951380D01*
X97139095Y-55903761D01*
X97091476Y-55856142D01*
X90289142Y-78335142D02*
X90241523Y-78382761D01*
X90098666Y-78430380D01*
X90003428Y-78430380D01*
X89860571Y-78382761D01*
X89765333Y-78287523D01*
X89717714Y-78192285D01*
X89670095Y-78001809D01*
X89670095Y-77858952D01*
X89717714Y-77668476D01*
X89765333Y-77573238D01*
X89860571Y-77478000D01*
X90003428Y-77430380D01*
X90098666Y-77430380D01*
X90241523Y-77478000D01*
X90289142Y-77525619D01*
X91241523Y-78430380D02*
X90670095Y-78430380D01*
X90955809Y-78430380D02*
X90955809Y-77430380D01*
X90860571Y-77573238D01*
X90765333Y-77668476D01*
X90670095Y-77716095D01*
X91860571Y-77430380D02*
X91955809Y-77430380D01*
X92051047Y-77478000D01*
X92098666Y-77525619D01*
X92146285Y-77620857D01*
X92193904Y-77811333D01*
X92193904Y-78049428D01*
X92146285Y-78239904D01*
X92098666Y-78335142D01*
X92051047Y-78382761D01*
X91955809Y-78430380D01*
X91860571Y-78430380D01*
X91765333Y-78382761D01*
X91717714Y-78335142D01*
X91670095Y-78239904D01*
X91622476Y-78049428D01*
X91622476Y-77811333D01*
X91670095Y-77620857D01*
X91717714Y-77525619D01*
X91765333Y-77478000D01*
X91860571Y-77430380D01*
X94451714Y-54751514D02*
X94497676Y-54790219D01*
X94543638Y-54906333D01*
X94543638Y-54983742D01*
X94497676Y-55099857D01*
X94405752Y-55177266D01*
X94313828Y-55215971D01*
X94129980Y-55254676D01*
X93992095Y-55254676D01*
X93808247Y-55215971D01*
X93716323Y-55177266D01*
X93624400Y-55099857D01*
X93578438Y-54983742D01*
X93578438Y-54906333D01*
X93624400Y-54790219D01*
X93670361Y-54751514D01*
X93670361Y-54441876D02*
X93624400Y-54403171D01*
X93578438Y-54325761D01*
X93578438Y-54132238D01*
X93624400Y-54054828D01*
X93670361Y-54016123D01*
X93762285Y-53977419D01*
X93854209Y-53977419D01*
X93992095Y-54016123D01*
X94543638Y-54480580D01*
X94543638Y-53977419D01*
X94543638Y-53203323D02*
X94543638Y-53667780D01*
X94543638Y-53435552D02*
X93578438Y-53435552D01*
X93716323Y-53512961D01*
X93808247Y-53590371D01*
X93854209Y-53667780D01*
X129913142Y-60522142D02*
X129865523Y-60569761D01*
X129722666Y-60617380D01*
X129627428Y-60617380D01*
X129484571Y-60569761D01*
X129389333Y-60474523D01*
X129341714Y-60379285D01*
X129294095Y-60188809D01*
X129294095Y-60045952D01*
X129341714Y-59855476D01*
X129389333Y-59760238D01*
X129484571Y-59665000D01*
X129627428Y-59617380D01*
X129722666Y-59617380D01*
X129865523Y-59665000D01*
X129913142Y-59712619D01*
X130294095Y-59712619D02*
X130341714Y-59665000D01*
X130436952Y-59617380D01*
X130675047Y-59617380D01*
X130770285Y-59665000D01*
X130817904Y-59712619D01*
X130865523Y-59807857D01*
X130865523Y-59903095D01*
X130817904Y-60045952D01*
X130246476Y-60617380D01*
X130865523Y-60617380D01*
X131484571Y-59617380D02*
X131579809Y-59617380D01*
X131675047Y-59665000D01*
X131722666Y-59712619D01*
X131770285Y-59807857D01*
X131817904Y-59998333D01*
X131817904Y-60236428D01*
X131770285Y-60426904D01*
X131722666Y-60522142D01*
X131675047Y-60569761D01*
X131579809Y-60617380D01*
X131484571Y-60617380D01*
X131389333Y-60569761D01*
X131341714Y-60522142D01*
X131294095Y-60426904D01*
X131246476Y-60236428D01*
X131246476Y-59998333D01*
X131294095Y-59807857D01*
X131341714Y-59712619D01*
X131389333Y-59665000D01*
X131484571Y-59617380D01*
X109078485Y-58764714D02*
X109039780Y-58810676D01*
X108923666Y-58856638D01*
X108846257Y-58856638D01*
X108730142Y-58810676D01*
X108652733Y-58718752D01*
X108614028Y-58626828D01*
X108575323Y-58442980D01*
X108575323Y-58305095D01*
X108614028Y-58121247D01*
X108652733Y-58029323D01*
X108730142Y-57937400D01*
X108846257Y-57891438D01*
X108923666Y-57891438D01*
X109039780Y-57937400D01*
X109078485Y-57983361D01*
X109852580Y-58856638D02*
X109388123Y-58856638D01*
X109620352Y-58856638D02*
X109620352Y-57891438D01*
X109542942Y-58029323D01*
X109465533Y-58121247D01*
X109388123Y-58167209D01*
X110123514Y-57891438D02*
X110665380Y-57891438D01*
X110317038Y-58856638D01*
X115936485Y-59526714D02*
X115897780Y-59572676D01*
X115781666Y-59618638D01*
X115704257Y-59618638D01*
X115588142Y-59572676D01*
X115510733Y-59480752D01*
X115472028Y-59388828D01*
X115433323Y-59204980D01*
X115433323Y-59067095D01*
X115472028Y-58883247D01*
X115510733Y-58791323D01*
X115588142Y-58699400D01*
X115704257Y-58653438D01*
X115781666Y-58653438D01*
X115897780Y-58699400D01*
X115936485Y-58745361D01*
X116710580Y-59618638D02*
X116246123Y-59618638D01*
X116478352Y-59618638D02*
X116478352Y-58653438D01*
X116400942Y-58791323D01*
X116323533Y-58883247D01*
X116246123Y-58929209D01*
X117445971Y-58653438D02*
X117058923Y-58653438D01*
X117020219Y-59113057D01*
X117058923Y-59067095D01*
X117136333Y-59021133D01*
X117329857Y-59021133D01*
X117407266Y-59067095D01*
X117445971Y-59113057D01*
X117484676Y-59204980D01*
X117484676Y-59434790D01*
X117445971Y-59526714D01*
X117407266Y-59572676D01*
X117329857Y-59618638D01*
X117136333Y-59618638D01*
X117058923Y-59572676D01*
X117020219Y-59526714D01*
X94734142Y-80080142D02*
X94686523Y-80127761D01*
X94543666Y-80175380D01*
X94448428Y-80175380D01*
X94305571Y-80127761D01*
X94210333Y-80032523D01*
X94162714Y-79937285D01*
X94115095Y-79746809D01*
X94115095Y-79603952D01*
X94162714Y-79413476D01*
X94210333Y-79318238D01*
X94305571Y-79223000D01*
X94448428Y-79175380D01*
X94543666Y-79175380D01*
X94686523Y-79223000D01*
X94734142Y-79270619D01*
X95686523Y-80175380D02*
X95115095Y-80175380D01*
X95400809Y-80175380D02*
X95400809Y-79175380D01*
X95305571Y-79318238D01*
X95210333Y-79413476D01*
X95115095Y-79461095D01*
X96067476Y-79270619D02*
X96115095Y-79223000D01*
X96210333Y-79175380D01*
X96448428Y-79175380D01*
X96543666Y-79223000D01*
X96591285Y-79270619D01*
X96638904Y-79365857D01*
X96638904Y-79461095D01*
X96591285Y-79603952D01*
X96019857Y-80175380D01*
X96638904Y-80175380D01*
X98417142Y-80113142D02*
X98369523Y-80160761D01*
X98226666Y-80208380D01*
X98131428Y-80208380D01*
X97988571Y-80160761D01*
X97893333Y-80065523D01*
X97845714Y-79970285D01*
X97798095Y-79779809D01*
X97798095Y-79636952D01*
X97845714Y-79446476D01*
X97893333Y-79351238D01*
X97988571Y-79256000D01*
X98131428Y-79208380D01*
X98226666Y-79208380D01*
X98369523Y-79256000D01*
X98417142Y-79303619D01*
X99369523Y-80208380D02*
X98798095Y-80208380D01*
X99083809Y-80208380D02*
X99083809Y-79208380D01*
X98988571Y-79351238D01*
X98893333Y-79446476D01*
X98798095Y-79494095D01*
X100321904Y-80208380D02*
X99750476Y-80208380D01*
X100036190Y-80208380D02*
X100036190Y-79208380D01*
X99940952Y-79351238D01*
X99845714Y-79446476D01*
X99750476Y-79494095D01*
X117053233Y-71444142D02*
X117005614Y-71491761D01*
X116862757Y-71539380D01*
X116767519Y-71539380D01*
X116624661Y-71491761D01*
X116529423Y-71396523D01*
X116481804Y-71301285D01*
X116434185Y-71110809D01*
X116434185Y-70967952D01*
X116481804Y-70777476D01*
X116529423Y-70682238D01*
X116624661Y-70587000D01*
X116767519Y-70539380D01*
X116862757Y-70539380D01*
X117005614Y-70587000D01*
X117053233Y-70634619D01*
X117529423Y-71539380D02*
X117719900Y-71539380D01*
X117815138Y-71491761D01*
X117862757Y-71444142D01*
X117957995Y-71301285D01*
X118005614Y-71110809D01*
X118005614Y-70729857D01*
X117957995Y-70634619D01*
X117910376Y-70587000D01*
X117815138Y-70539380D01*
X117624661Y-70539380D01*
X117529423Y-70587000D01*
X117481804Y-70634619D01*
X117434185Y-70729857D01*
X117434185Y-70967952D01*
X117481804Y-71063190D01*
X117529423Y-71110809D01*
X117624661Y-71158428D01*
X117815138Y-71158428D01*
X117910376Y-71110809D01*
X117957995Y-71063190D01*
X118005614Y-70967952D01*
X107782233Y-69996342D02*
X107734614Y-70043961D01*
X107591757Y-70091580D01*
X107496519Y-70091580D01*
X107353661Y-70043961D01*
X107258423Y-69948723D01*
X107210804Y-69853485D01*
X107163185Y-69663009D01*
X107163185Y-69520152D01*
X107210804Y-69329676D01*
X107258423Y-69234438D01*
X107353661Y-69139200D01*
X107496519Y-69091580D01*
X107591757Y-69091580D01*
X107734614Y-69139200D01*
X107782233Y-69186819D01*
X108353661Y-69520152D02*
X108258423Y-69472533D01*
X108210804Y-69424914D01*
X108163185Y-69329676D01*
X108163185Y-69282057D01*
X108210804Y-69186819D01*
X108258423Y-69139200D01*
X108353661Y-69091580D01*
X108544138Y-69091580D01*
X108639376Y-69139200D01*
X108686995Y-69186819D01*
X108734614Y-69282057D01*
X108734614Y-69329676D01*
X108686995Y-69424914D01*
X108639376Y-69472533D01*
X108544138Y-69520152D01*
X108353661Y-69520152D01*
X108258423Y-69567771D01*
X108210804Y-69615390D01*
X108163185Y-69710628D01*
X108163185Y-69901104D01*
X108210804Y-69996342D01*
X108258423Y-70043961D01*
X108353661Y-70091580D01*
X108544138Y-70091580D01*
X108639376Y-70043961D01*
X108686995Y-69996342D01*
X108734614Y-69901104D01*
X108734614Y-69710628D01*
X108686995Y-69615390D01*
X108639376Y-69567771D01*
X108544138Y-69520152D01*
X103067142Y-80203166D02*
X103114761Y-80250785D01*
X103162380Y-80393642D01*
X103162380Y-80488880D01*
X103114761Y-80631738D01*
X103019523Y-80726976D01*
X102924285Y-80774595D01*
X102733809Y-80822214D01*
X102590952Y-80822214D01*
X102400476Y-80774595D01*
X102305238Y-80726976D01*
X102210000Y-80631738D01*
X102162380Y-80488880D01*
X102162380Y-80393642D01*
X102210000Y-80250785D01*
X102257619Y-80203166D01*
X102162380Y-79869833D02*
X102162380Y-79203166D01*
X103162380Y-79631738D01*
X115911333Y-84304142D02*
X115863714Y-84351761D01*
X115720857Y-84399380D01*
X115625619Y-84399380D01*
X115482761Y-84351761D01*
X115387523Y-84256523D01*
X115339904Y-84161285D01*
X115292285Y-83970809D01*
X115292285Y-83827952D01*
X115339904Y-83637476D01*
X115387523Y-83542238D01*
X115482761Y-83447000D01*
X115625619Y-83399380D01*
X115720857Y-83399380D01*
X115863714Y-83447000D01*
X115911333Y-83494619D01*
X116768476Y-83399380D02*
X116578000Y-83399380D01*
X116482761Y-83447000D01*
X116435142Y-83494619D01*
X116339904Y-83637476D01*
X116292285Y-83827952D01*
X116292285Y-84208904D01*
X116339904Y-84304142D01*
X116387523Y-84351761D01*
X116482761Y-84399380D01*
X116673238Y-84399380D01*
X116768476Y-84351761D01*
X116816095Y-84304142D01*
X116863714Y-84208904D01*
X116863714Y-83970809D01*
X116816095Y-83875571D01*
X116768476Y-83827952D01*
X116673238Y-83780333D01*
X116482761Y-83780333D01*
X116387523Y-83827952D01*
X116339904Y-83875571D01*
X116292285Y-83970809D01*
X81383142Y-61380666D02*
X81430761Y-61428285D01*
X81478380Y-61571142D01*
X81478380Y-61666380D01*
X81430761Y-61809238D01*
X81335523Y-61904476D01*
X81240285Y-61952095D01*
X81049809Y-61999714D01*
X80906952Y-61999714D01*
X80716476Y-61952095D01*
X80621238Y-61904476D01*
X80526000Y-61809238D01*
X80478380Y-61666380D01*
X80478380Y-61571142D01*
X80526000Y-61428285D01*
X80573619Y-61380666D01*
X80478380Y-60475904D02*
X80478380Y-60952095D01*
X80954571Y-60999714D01*
X80906952Y-60952095D01*
X80859333Y-60856857D01*
X80859333Y-60618761D01*
X80906952Y-60523523D01*
X80954571Y-60475904D01*
X81049809Y-60428285D01*
X81287904Y-60428285D01*
X81383142Y-60475904D01*
X81430761Y-60523523D01*
X81478380Y-60618761D01*
X81478380Y-60856857D01*
X81430761Y-60952095D01*
X81383142Y-60999714D01*
X74207642Y-61888666D02*
X74255261Y-61936285D01*
X74302880Y-62079142D01*
X74302880Y-62174380D01*
X74255261Y-62317238D01*
X74160023Y-62412476D01*
X74064785Y-62460095D01*
X73874309Y-62507714D01*
X73731452Y-62507714D01*
X73540976Y-62460095D01*
X73445738Y-62412476D01*
X73350500Y-62317238D01*
X73302880Y-62174380D01*
X73302880Y-62079142D01*
X73350500Y-61936285D01*
X73398119Y-61888666D01*
X74302880Y-60936285D02*
X74302880Y-61507714D01*
X74302880Y-61222000D02*
X73302880Y-61222000D01*
X73445738Y-61317238D01*
X73540976Y-61412476D01*
X73588595Y-61507714D01*
X74676095Y-65809880D02*
X74676095Y-66619404D01*
X74723714Y-66714642D01*
X74771333Y-66762261D01*
X74866571Y-66809880D01*
X75057047Y-66809880D01*
X75152285Y-66762261D01*
X75199904Y-66714642D01*
X75247523Y-66619404D01*
X75247523Y-65809880D01*
X76247523Y-66809880D02*
X75676095Y-66809880D01*
X75961809Y-66809880D02*
X75961809Y-65809880D01*
X75866571Y-65952738D01*
X75771333Y-66047976D01*
X75676095Y-66095595D01*
X112844595Y-60280380D02*
X112844595Y-61089904D01*
X112892214Y-61185142D01*
X112939833Y-61232761D01*
X113035071Y-61280380D01*
X113225547Y-61280380D01*
X113320785Y-61232761D01*
X113368404Y-61185142D01*
X113416023Y-61089904D01*
X113416023Y-60280380D01*
X114320785Y-60613714D02*
X114320785Y-61280380D01*
X114082690Y-60232761D02*
X113844595Y-60947047D01*
X114463642Y-60947047D01*
X102965642Y-63825380D02*
X102632309Y-63349190D01*
X102394214Y-63825380D02*
X102394214Y-62825380D01*
X102775166Y-62825380D01*
X102870404Y-62873000D01*
X102918023Y-62920619D01*
X102965642Y-63015857D01*
X102965642Y-63158714D01*
X102918023Y-63253952D01*
X102870404Y-63301571D01*
X102775166Y-63349190D01*
X102394214Y-63349190D01*
X103918023Y-63825380D02*
X103346595Y-63825380D01*
X103632309Y-63825380D02*
X103632309Y-62825380D01*
X103537071Y-62968238D01*
X103441833Y-63063476D01*
X103346595Y-63111095D01*
X104298976Y-62920619D02*
X104346595Y-62873000D01*
X104441833Y-62825380D01*
X104679928Y-62825380D01*
X104775166Y-62873000D01*
X104822785Y-62920619D01*
X104870404Y-63015857D01*
X104870404Y-63111095D01*
X104822785Y-63253952D01*
X104251357Y-63825380D01*
X104870404Y-63825380D01*
X103949833Y-62047380D02*
X103616500Y-61571190D01*
X103378404Y-62047380D02*
X103378404Y-61047380D01*
X103759357Y-61047380D01*
X103854595Y-61095000D01*
X103902214Y-61142619D01*
X103949833Y-61237857D01*
X103949833Y-61380714D01*
X103902214Y-61475952D01*
X103854595Y-61523571D01*
X103759357Y-61571190D01*
X103378404Y-61571190D01*
X104521261Y-61475952D02*
X104426023Y-61428333D01*
X104378404Y-61380714D01*
X104330785Y-61285476D01*
X104330785Y-61237857D01*
X104378404Y-61142619D01*
X104426023Y-61095000D01*
X104521261Y-61047380D01*
X104711738Y-61047380D01*
X104806976Y-61095000D01*
X104854595Y-61142619D01*
X104902214Y-61237857D01*
X104902214Y-61285476D01*
X104854595Y-61380714D01*
X104806976Y-61428333D01*
X104711738Y-61475952D01*
X104521261Y-61475952D01*
X104426023Y-61523571D01*
X104378404Y-61571190D01*
X104330785Y-61666428D01*
X104330785Y-61856904D01*
X104378404Y-61952142D01*
X104426023Y-61999761D01*
X104521261Y-62047380D01*
X104711738Y-62047380D01*
X104806976Y-61999761D01*
X104854595Y-61952142D01*
X104902214Y-61856904D01*
X104902214Y-61666428D01*
X104854595Y-61571190D01*
X104806976Y-61523571D01*
X104711738Y-61475952D01*
X103416380Y-84113666D02*
X102940190Y-84447000D01*
X103416380Y-84685095D02*
X102416380Y-84685095D01*
X102416380Y-84304142D01*
X102464000Y-84208904D01*
X102511619Y-84161285D01*
X102606857Y-84113666D01*
X102749714Y-84113666D01*
X102844952Y-84161285D01*
X102892571Y-84208904D01*
X102940190Y-84304142D01*
X102940190Y-84685095D01*
X103416380Y-83637476D02*
X103416380Y-83447000D01*
X103368761Y-83351761D01*
X103321142Y-83304142D01*
X103178285Y-83208904D01*
X102987809Y-83161285D01*
X102606857Y-83161285D01*
X102511619Y-83208904D01*
X102464000Y-83256523D01*
X102416380Y-83351761D01*
X102416380Y-83542238D01*
X102464000Y-83637476D01*
X102511619Y-83685095D01*
X102606857Y-83732714D01*
X102844952Y-83732714D01*
X102940190Y-83685095D01*
X102987809Y-83637476D01*
X103035428Y-83542238D01*
X103035428Y-83351761D01*
X102987809Y-83256523D01*
X102940190Y-83208904D01*
X102844952Y-83161285D01*
X103162380Y-77327357D02*
X102686190Y-77660690D01*
X103162380Y-77898785D02*
X102162380Y-77898785D01*
X102162380Y-77517833D01*
X102210000Y-77422595D01*
X102257619Y-77374976D01*
X102352857Y-77327357D01*
X102495714Y-77327357D01*
X102590952Y-77374976D01*
X102638571Y-77422595D01*
X102686190Y-77517833D01*
X102686190Y-77898785D01*
X103162380Y-76374976D02*
X103162380Y-76946404D01*
X103162380Y-76660690D02*
X102162380Y-76660690D01*
X102305238Y-76755928D01*
X102400476Y-76851166D01*
X102448095Y-76946404D01*
X102162380Y-75755928D02*
X102162380Y-75660690D01*
X102210000Y-75565452D01*
X102257619Y-75517833D01*
X102352857Y-75470214D01*
X102543333Y-75422595D01*
X102781428Y-75422595D01*
X102971904Y-75470214D01*
X103067142Y-75517833D01*
X103114761Y-75565452D01*
X103162380Y-75660690D01*
X103162380Y-75755928D01*
X103114761Y-75851166D01*
X103067142Y-75898785D01*
X102971904Y-75946404D01*
X102781428Y-75994023D01*
X102543333Y-75994023D01*
X102352857Y-75946404D01*
X102257619Y-75898785D01*
X102210000Y-75851166D01*
X102162380Y-75755928D01*
X76295642Y-81859380D02*
X75962309Y-81383190D01*
X75724214Y-81859380D02*
X75724214Y-80859380D01*
X76105166Y-80859380D01*
X76200404Y-80907000D01*
X76248023Y-80954619D01*
X76295642Y-81049857D01*
X76295642Y-81192714D01*
X76248023Y-81287952D01*
X76200404Y-81335571D01*
X76105166Y-81383190D01*
X75724214Y-81383190D01*
X77248023Y-81859380D02*
X76676595Y-81859380D01*
X76962309Y-81859380D02*
X76962309Y-80859380D01*
X76867071Y-81002238D01*
X76771833Y-81097476D01*
X76676595Y-81145095D01*
X77581357Y-80859380D02*
X78200404Y-80859380D01*
X77867071Y-81240333D01*
X78009928Y-81240333D01*
X78105166Y-81287952D01*
X78152785Y-81335571D01*
X78200404Y-81430809D01*
X78200404Y-81668904D01*
X78152785Y-81764142D01*
X78105166Y-81811761D01*
X78009928Y-81859380D01*
X77724214Y-81859380D01*
X77628976Y-81811761D01*
X77581357Y-81764142D01*
X76795333Y-80208380D02*
X76462000Y-79732190D01*
X76223904Y-80208380D02*
X76223904Y-79208380D01*
X76604857Y-79208380D01*
X76700095Y-79256000D01*
X76747714Y-79303619D01*
X76795333Y-79398857D01*
X76795333Y-79541714D01*
X76747714Y-79636952D01*
X76700095Y-79684571D01*
X76604857Y-79732190D01*
X76223904Y-79732190D01*
X77128666Y-79208380D02*
X77795333Y-79208380D01*
X77366761Y-80208380D01*
X82484933Y-75458580D02*
X82151600Y-74982390D01*
X81913504Y-75458580D02*
X81913504Y-74458580D01*
X82294457Y-74458580D01*
X82389695Y-74506200D01*
X82437314Y-74553819D01*
X82484933Y-74649057D01*
X82484933Y-74791914D01*
X82437314Y-74887152D01*
X82389695Y-74934771D01*
X82294457Y-74982390D01*
X81913504Y-74982390D01*
X83342076Y-74791914D02*
X83342076Y-75458580D01*
X83103980Y-74410961D02*
X82865885Y-75125247D01*
X83484933Y-75125247D01*
X82510333Y-77109580D02*
X82177000Y-76633390D01*
X81938904Y-77109580D02*
X81938904Y-76109580D01*
X82319857Y-76109580D01*
X82415095Y-76157200D01*
X82462714Y-76204819D01*
X82510333Y-76300057D01*
X82510333Y-76442914D01*
X82462714Y-76538152D01*
X82415095Y-76585771D01*
X82319857Y-76633390D01*
X81938904Y-76633390D01*
X82843666Y-76109580D02*
X83462714Y-76109580D01*
X83129380Y-76490533D01*
X83272238Y-76490533D01*
X83367476Y-76538152D01*
X83415095Y-76585771D01*
X83462714Y-76681009D01*
X83462714Y-76919104D01*
X83415095Y-77014342D01*
X83367476Y-77061961D01*
X83272238Y-77109580D01*
X82986523Y-77109580D01*
X82891285Y-77061961D01*
X82843666Y-77014342D01*
X82510333Y-78684380D02*
X82177000Y-78208190D01*
X81938904Y-78684380D02*
X81938904Y-77684380D01*
X82319857Y-77684380D01*
X82415095Y-77732000D01*
X82462714Y-77779619D01*
X82510333Y-77874857D01*
X82510333Y-78017714D01*
X82462714Y-78112952D01*
X82415095Y-78160571D01*
X82319857Y-78208190D01*
X81938904Y-78208190D01*
X82891285Y-77779619D02*
X82938904Y-77732000D01*
X83034142Y-77684380D01*
X83272238Y-77684380D01*
X83367476Y-77732000D01*
X83415095Y-77779619D01*
X83462714Y-77874857D01*
X83462714Y-77970095D01*
X83415095Y-78112952D01*
X82843666Y-78684380D01*
X83462714Y-78684380D01*
X76922333Y-75128380D02*
X76589000Y-74652190D01*
X76350904Y-75128380D02*
X76350904Y-74128380D01*
X76731857Y-74128380D01*
X76827095Y-74176000D01*
X76874714Y-74223619D01*
X76922333Y-74318857D01*
X76922333Y-74461714D01*
X76874714Y-74556952D01*
X76827095Y-74604571D01*
X76731857Y-74652190D01*
X76350904Y-74652190D01*
X77874714Y-75128380D02*
X77303285Y-75128380D01*
X77589000Y-75128380D02*
X77589000Y-74128380D01*
X77493761Y-74271238D01*
X77398523Y-74366476D01*
X77303285Y-74414095D01*
X95210380Y-70310333D02*
X95924666Y-70310333D01*
X96067523Y-70357952D01*
X96162761Y-70453190D01*
X96210380Y-70596047D01*
X96210380Y-70691285D01*
X95210380Y-69929380D02*
X95210380Y-69310333D01*
X95591333Y-69643666D01*
X95591333Y-69500809D01*
X95638952Y-69405571D01*
X95686571Y-69357952D01*
X95781809Y-69310333D01*
X96019904Y-69310333D01*
X96115142Y-69357952D01*
X96162761Y-69405571D01*
X96210380Y-69500809D01*
X96210380Y-69786523D01*
X96162761Y-69881761D01*
X96115142Y-69929380D01*
X122856666Y-59352380D02*
X122856666Y-60066666D01*
X122809047Y-60209523D01*
X122713809Y-60304761D01*
X122570952Y-60352380D01*
X122475714Y-60352380D01*
X123761428Y-59685714D02*
X123761428Y-60352380D01*
X123523333Y-59304761D02*
X123285238Y-60019047D01*
X123904285Y-60019047D01*
X88611666Y-65067380D02*
X88611666Y-65781666D01*
X88564047Y-65924523D01*
X88468809Y-66019761D01*
X88325952Y-66067380D01*
X88230714Y-66067380D01*
X89040238Y-65162619D02*
X89087857Y-65115000D01*
X89183095Y-65067380D01*
X89421190Y-65067380D01*
X89516428Y-65115000D01*
X89564047Y-65162619D01*
X89611666Y-65257857D01*
X89611666Y-65353095D01*
X89564047Y-65495952D01*
X88992619Y-66067380D01*
X89611666Y-66067380D01*
X70432704Y-81732380D02*
X70432704Y-80732380D01*
X70670800Y-80732380D01*
X70813657Y-80780000D01*
X70908895Y-80875238D01*
X70956514Y-80970476D01*
X71004133Y-81160952D01*
X71004133Y-81303809D01*
X70956514Y-81494285D01*
X70908895Y-81589523D01*
X70813657Y-81684761D01*
X70670800Y-81732380D01*
X70432704Y-81732380D01*
X71385085Y-80827619D02*
X71432704Y-80780000D01*
X71527942Y-80732380D01*
X71766038Y-80732380D01*
X71861276Y-80780000D01*
X71908895Y-80827619D01*
X71956514Y-80922857D01*
X71956514Y-81018095D01*
X71908895Y-81160952D01*
X71337466Y-81732380D01*
X71956514Y-81732380D01*
X70432704Y-80208380D02*
X70432704Y-79208380D01*
X70670800Y-79208380D01*
X70813657Y-79256000D01*
X70908895Y-79351238D01*
X70956514Y-79446476D01*
X71004133Y-79636952D01*
X71004133Y-79779809D01*
X70956514Y-79970285D01*
X70908895Y-80065523D01*
X70813657Y-80160761D01*
X70670800Y-80208380D01*
X70432704Y-80208380D01*
X71956514Y-80208380D02*
X71385085Y-80208380D01*
X71670800Y-80208380D02*
X71670800Y-79208380D01*
X71575561Y-79351238D01*
X71480323Y-79446476D01*
X71385085Y-79494095D01*
X92673714Y-54751514D02*
X92719676Y-54790219D01*
X92765638Y-54906333D01*
X92765638Y-54983742D01*
X92719676Y-55099857D01*
X92627752Y-55177266D01*
X92535828Y-55215971D01*
X92351980Y-55254676D01*
X92214095Y-55254676D01*
X92030247Y-55215971D01*
X91938323Y-55177266D01*
X91846400Y-55099857D01*
X91800438Y-54983742D01*
X91800438Y-54906333D01*
X91846400Y-54790219D01*
X91892361Y-54751514D01*
X92765638Y-53977419D02*
X92765638Y-54441876D01*
X92765638Y-54209647D02*
X91800438Y-54209647D01*
X91938323Y-54287057D01*
X92030247Y-54364466D01*
X92076209Y-54441876D01*
X92765638Y-53590371D02*
X92765638Y-53435552D01*
X92719676Y-53358142D01*
X92673714Y-53319438D01*
X92535828Y-53242028D01*
X92351980Y-53203323D01*
X91984285Y-53203323D01*
X91892361Y-53242028D01*
X91846400Y-53280733D01*
X91800438Y-53358142D01*
X91800438Y-53512961D01*
X91846400Y-53590371D01*
X91892361Y-53629076D01*
X91984285Y-53667780D01*
X92214095Y-53667780D01*
X92306019Y-53629076D01*
X92351980Y-53590371D01*
X92397942Y-53512961D01*
X92397942Y-53358142D01*
X92351980Y-53280733D01*
X92306019Y-53242028D01*
X92214095Y-53203323D01*
X109078485Y-60288714D02*
X109039780Y-60334676D01*
X108923666Y-60380638D01*
X108846257Y-60380638D01*
X108730142Y-60334676D01*
X108652733Y-60242752D01*
X108614028Y-60150828D01*
X108575323Y-59966980D01*
X108575323Y-59829095D01*
X108614028Y-59645247D01*
X108652733Y-59553323D01*
X108730142Y-59461400D01*
X108846257Y-59415438D01*
X108923666Y-59415438D01*
X109039780Y-59461400D01*
X109078485Y-59507361D01*
X109852580Y-60380638D02*
X109388123Y-60380638D01*
X109620352Y-60380638D02*
X109620352Y-59415438D01*
X109542942Y-59553323D01*
X109465533Y-59645247D01*
X109388123Y-59691209D01*
X110317038Y-59829095D02*
X110239628Y-59783133D01*
X110200923Y-59737171D01*
X110162219Y-59645247D01*
X110162219Y-59599285D01*
X110200923Y-59507361D01*
X110239628Y-59461400D01*
X110317038Y-59415438D01*
X110471857Y-59415438D01*
X110549266Y-59461400D01*
X110587971Y-59507361D01*
X110626676Y-59599285D01*
X110626676Y-59645247D01*
X110587971Y-59737171D01*
X110549266Y-59783133D01*
X110471857Y-59829095D01*
X110317038Y-59829095D01*
X110239628Y-59875057D01*
X110200923Y-59921019D01*
X110162219Y-60012942D01*
X110162219Y-60196790D01*
X110200923Y-60288714D01*
X110239628Y-60334676D01*
X110317038Y-60380638D01*
X110471857Y-60380638D01*
X110549266Y-60334676D01*
X110587971Y-60288714D01*
X110626676Y-60196790D01*
X110626676Y-60012942D01*
X110587971Y-59921019D01*
X110549266Y-59875057D01*
X110471857Y-59829095D01*
X79859142Y-61380666D02*
X79906761Y-61428285D01*
X79954380Y-61571142D01*
X79954380Y-61666380D01*
X79906761Y-61809238D01*
X79811523Y-61904476D01*
X79716285Y-61952095D01*
X79525809Y-61999714D01*
X79382952Y-61999714D01*
X79192476Y-61952095D01*
X79097238Y-61904476D01*
X79002000Y-61809238D01*
X78954380Y-61666380D01*
X78954380Y-61571142D01*
X79002000Y-61428285D01*
X79049619Y-61380666D01*
X79287714Y-60523523D02*
X79954380Y-60523523D01*
X78906761Y-60761619D02*
X79621047Y-60999714D01*
X79621047Y-60380666D01*
X69826142Y-61888666D02*
X69873761Y-61936285D01*
X69921380Y-62079142D01*
X69921380Y-62174380D01*
X69873761Y-62317238D01*
X69778523Y-62412476D01*
X69683285Y-62460095D01*
X69492809Y-62507714D01*
X69349952Y-62507714D01*
X69159476Y-62460095D01*
X69064238Y-62412476D01*
X68969000Y-62317238D01*
X68921380Y-62174380D01*
X68921380Y-62079142D01*
X68969000Y-61936285D01*
X69016619Y-61888666D01*
X69016619Y-61507714D02*
X68969000Y-61460095D01*
X68921380Y-61364857D01*
X68921380Y-61126761D01*
X68969000Y-61031523D01*
X69016619Y-60983904D01*
X69111857Y-60936285D01*
X69207095Y-60936285D01*
X69349952Y-60983904D01*
X69921380Y-61555333D01*
X69921380Y-60936285D01*
%LPC*%
D14*
X67818000Y-72050000D03*
X67818000Y-67650000D03*
G36*
G01*
X64118000Y-73200000D02*
X65818000Y-73200000D01*
G75*
G02*
X65918000Y-73300000I0J-100000D01*
G01*
X65918000Y-75300000D01*
G75*
G02*
X65818000Y-75400000I-100000J0D01*
G01*
X64118000Y-75400000D01*
G75*
G02*
X64018000Y-75300000I0J100000D01*
G01*
X64018000Y-73300000D01*
G75*
G02*
X64118000Y-73200000I100000J0D01*
G01*
G37*
G36*
G01*
X69568000Y-73200000D02*
X71268000Y-73200000D01*
G75*
G02*
X71368000Y-73300000I0J-100000D01*
G01*
X71368000Y-75300000D01*
G75*
G02*
X71268000Y-75400000I-100000J0D01*
G01*
X69568000Y-75400000D01*
G75*
G02*
X69468000Y-75300000I0J100000D01*
G01*
X69468000Y-73300000D01*
G75*
G02*
X69568000Y-73200000I100000J0D01*
G01*
G37*
G36*
G01*
X64118000Y-64300000D02*
X65818000Y-64300000D01*
G75*
G02*
X65918000Y-64400000I0J-100000D01*
G01*
X65918000Y-66400000D01*
G75*
G02*
X65818000Y-66500000I-100000J0D01*
G01*
X64118000Y-66500000D01*
G75*
G02*
X64018000Y-66400000I0J100000D01*
G01*
X64018000Y-64400000D01*
G75*
G02*
X64118000Y-64300000I100000J0D01*
G01*
G37*
G36*
G01*
X69568000Y-64300000D02*
X71268000Y-64300000D01*
G75*
G02*
X71368000Y-64400000I0J-100000D01*
G01*
X71368000Y-66400000D01*
G75*
G02*
X71268000Y-66500000I-100000J0D01*
G01*
X69568000Y-66500000D01*
G75*
G02*
X69468000Y-66400000I0J100000D01*
G01*
X69468000Y-64400000D01*
G75*
G02*
X69568000Y-64300000I100000J0D01*
G01*
G37*
G36*
G01*
X69518000Y-71100000D02*
X71518000Y-71100000D01*
G75*
G02*
X71618000Y-71200000I0J-100000D01*
G01*
X71618000Y-71700000D01*
G75*
G02*
X71518000Y-71800000I-100000J0D01*
G01*
X69518000Y-71800000D01*
G75*
G02*
X69418000Y-71700000I0J100000D01*
G01*
X69418000Y-71200000D01*
G75*
G02*
X69518000Y-71100000I100000J0D01*
G01*
G37*
G36*
G01*
X69518000Y-70300000D02*
X71518000Y-70300000D01*
G75*
G02*
X71618000Y-70400000I0J-100000D01*
G01*
X71618000Y-70900000D01*
G75*
G02*
X71518000Y-71000000I-100000J0D01*
G01*
X69518000Y-71000000D01*
G75*
G02*
X69418000Y-70900000I0J100000D01*
G01*
X69418000Y-70400000D01*
G75*
G02*
X69518000Y-70300000I100000J0D01*
G01*
G37*
G36*
G01*
X69518000Y-69500000D02*
X71518000Y-69500000D01*
G75*
G02*
X71618000Y-69600000I0J-100000D01*
G01*
X71618000Y-70100000D01*
G75*
G02*
X71518000Y-70200000I-100000J0D01*
G01*
X69518000Y-70200000D01*
G75*
G02*
X69418000Y-70100000I0J100000D01*
G01*
X69418000Y-69600000D01*
G75*
G02*
X69518000Y-69500000I100000J0D01*
G01*
G37*
G36*
G01*
X69518000Y-68700000D02*
X71518000Y-68700000D01*
G75*
G02*
X71618000Y-68800000I0J-100000D01*
G01*
X71618000Y-69300000D01*
G75*
G02*
X71518000Y-69400000I-100000J0D01*
G01*
X69518000Y-69400000D01*
G75*
G02*
X69418000Y-69300000I0J100000D01*
G01*
X69418000Y-68800000D01*
G75*
G02*
X69518000Y-68700000I100000J0D01*
G01*
G37*
G36*
G01*
X69518000Y-67900000D02*
X71518000Y-67900000D01*
G75*
G02*
X71618000Y-68000000I0J-100000D01*
G01*
X71618000Y-68500000D01*
G75*
G02*
X71518000Y-68600000I-100000J0D01*
G01*
X69518000Y-68600000D01*
G75*
G02*
X69418000Y-68500000I0J100000D01*
G01*
X69418000Y-68000000D01*
G75*
G02*
X69518000Y-67900000I100000J0D01*
G01*
G37*
G36*
G01*
X96282000Y-83128000D02*
X96282000Y-85528000D01*
G75*
G02*
X96182000Y-85628000I-100000J0D01*
G01*
X94282000Y-85628000D01*
G75*
G02*
X94182000Y-85528000I0J100000D01*
G01*
X94182000Y-83128000D01*
G75*
G02*
X94282000Y-83028000I100000J0D01*
G01*
X96182000Y-83028000D01*
G75*
G02*
X96282000Y-83128000I0J-100000D01*
G01*
G37*
G36*
G01*
X100382000Y-83128000D02*
X100382000Y-85528000D01*
G75*
G02*
X100282000Y-85628000I-100000J0D01*
G01*
X98382000Y-85628000D01*
G75*
G02*
X98282000Y-85528000I0J100000D01*
G01*
X98282000Y-83128000D01*
G75*
G02*
X98382000Y-83028000I100000J0D01*
G01*
X100282000Y-83028000D01*
G75*
G02*
X100382000Y-83128000I0J-100000D01*
G01*
G37*
G36*
G01*
X93189000Y-76741500D02*
X93189000Y-76166500D01*
G75*
G02*
X93476500Y-75879000I287500J0D01*
G01*
X94176500Y-75879000D01*
G75*
G02*
X94464000Y-76166500I0J-287500D01*
G01*
X94464000Y-76741500D01*
G75*
G02*
X94176500Y-77029000I-287500J0D01*
G01*
X93476500Y-77029000D01*
G75*
G02*
X93189000Y-76741500I0J287500D01*
G01*
G37*
G36*
G01*
X91464000Y-76741500D02*
X91464000Y-76166500D01*
G75*
G02*
X91751500Y-75879000I287500J0D01*
G01*
X92451500Y-75879000D01*
G75*
G02*
X92739000Y-76166500I0J-287500D01*
G01*
X92739000Y-76741500D01*
G75*
G02*
X92451500Y-77029000I-287500J0D01*
G01*
X91751500Y-77029000D01*
G75*
G02*
X91464000Y-76741500I0J287500D01*
G01*
G37*
G36*
G01*
X93189000Y-75090500D02*
X93189000Y-74515500D01*
G75*
G02*
X93476500Y-74228000I287500J0D01*
G01*
X94176500Y-74228000D01*
G75*
G02*
X94464000Y-74515500I0J-287500D01*
G01*
X94464000Y-75090500D01*
G75*
G02*
X94176500Y-75378000I-287500J0D01*
G01*
X93476500Y-75378000D01*
G75*
G02*
X93189000Y-75090500I0J287500D01*
G01*
G37*
G36*
G01*
X91464000Y-75090500D02*
X91464000Y-74515500D01*
G75*
G02*
X91751500Y-74228000I287500J0D01*
G01*
X92451500Y-74228000D01*
G75*
G02*
X92739000Y-74515500I0J-287500D01*
G01*
X92739000Y-75090500D01*
G75*
G02*
X92451500Y-75378000I-287500J0D01*
G01*
X91751500Y-75378000D01*
G75*
G02*
X91464000Y-75090500I0J287500D01*
G01*
G37*
G36*
G01*
X87659000Y-79341500D02*
X87659000Y-79916500D01*
G75*
G02*
X87371500Y-80204000I-287500J0D01*
G01*
X86671500Y-80204000D01*
G75*
G02*
X86384000Y-79916500I0J287500D01*
G01*
X86384000Y-79341500D01*
G75*
G02*
X86671500Y-79054000I287500J0D01*
G01*
X87371500Y-79054000D01*
G75*
G02*
X87659000Y-79341500I0J-287500D01*
G01*
G37*
G36*
G01*
X89384000Y-79341500D02*
X89384000Y-79916500D01*
G75*
G02*
X89096500Y-80204000I-287500J0D01*
G01*
X88396500Y-80204000D01*
G75*
G02*
X88109000Y-79916500I0J287500D01*
G01*
X88109000Y-79341500D01*
G75*
G02*
X88396500Y-79054000I287500J0D01*
G01*
X89096500Y-79054000D01*
G75*
G02*
X89384000Y-79341500I0J-287500D01*
G01*
G37*
G36*
G01*
X113340000Y-57243500D02*
X113340000Y-57818500D01*
G75*
G02*
X113052500Y-58106000I-287500J0D01*
G01*
X112452500Y-58106000D01*
G75*
G02*
X112165000Y-57818500I0J287500D01*
G01*
X112165000Y-57243500D01*
G75*
G02*
X112452500Y-56956000I287500J0D01*
G01*
X113052500Y-56956000D01*
G75*
G02*
X113340000Y-57243500I0J-287500D01*
G01*
G37*
G36*
G01*
X115165000Y-57243500D02*
X115165000Y-57818500D01*
G75*
G02*
X114877500Y-58106000I-287500J0D01*
G01*
X114277500Y-58106000D01*
G75*
G02*
X113990000Y-57818500I0J287500D01*
G01*
X113990000Y-57243500D01*
G75*
G02*
X114277500Y-56956000I287500J0D01*
G01*
X114877500Y-56956000D01*
G75*
G02*
X115165000Y-57243500I0J-287500D01*
G01*
G37*
D15*
X109855000Y-53340000D03*
X107315000Y-53340000D03*
X104775000Y-53340000D03*
X102235000Y-53340000D03*
G36*
G01*
X100545000Y-54290000D02*
X98845000Y-54290000D01*
G75*
G02*
X98745000Y-54190000I0J100000D01*
G01*
X98745000Y-52490000D01*
G75*
G02*
X98845000Y-52390000I100000J0D01*
G01*
X100545000Y-52390000D01*
G75*
G02*
X100645000Y-52490000I0J-100000D01*
G01*
X100645000Y-54190000D01*
G75*
G02*
X100545000Y-54290000I-100000J0D01*
G01*
G37*
G36*
G01*
X108297500Y-86304000D02*
X108872500Y-86304000D01*
G75*
G02*
X109160000Y-86591500I0J-287500D01*
G01*
X109160000Y-87191500D01*
G75*
G02*
X108872500Y-87479000I-287500J0D01*
G01*
X108297500Y-87479000D01*
G75*
G02*
X108010000Y-87191500I0J287500D01*
G01*
X108010000Y-86591500D01*
G75*
G02*
X108297500Y-86304000I287500J0D01*
G01*
G37*
G36*
G01*
X108297500Y-84479000D02*
X108872500Y-84479000D01*
G75*
G02*
X109160000Y-84766500I0J-287500D01*
G01*
X109160000Y-85366500D01*
G75*
G02*
X108872500Y-85654000I-287500J0D01*
G01*
X108297500Y-85654000D01*
G75*
G02*
X108010000Y-85366500I0J287500D01*
G01*
X108010000Y-84766500D01*
G75*
G02*
X108297500Y-84479000I287500J0D01*
G01*
G37*
G36*
G01*
X109948500Y-86204000D02*
X110523500Y-86204000D01*
G75*
G02*
X110811000Y-86491500I0J-287500D01*
G01*
X110811000Y-87191500D01*
G75*
G02*
X110523500Y-87479000I-287500J0D01*
G01*
X109948500Y-87479000D01*
G75*
G02*
X109661000Y-87191500I0J287500D01*
G01*
X109661000Y-86491500D01*
G75*
G02*
X109948500Y-86204000I287500J0D01*
G01*
G37*
G36*
G01*
X109948500Y-84479000D02*
X110523500Y-84479000D01*
G75*
G02*
X110811000Y-84766500I0J-287500D01*
G01*
X110811000Y-85466500D01*
G75*
G02*
X110523500Y-85754000I-287500J0D01*
G01*
X109948500Y-85754000D01*
G75*
G02*
X109661000Y-85466500I0J287500D01*
G01*
X109661000Y-84766500D01*
G75*
G02*
X109948500Y-84479000I287500J0D01*
G01*
G37*
G36*
G01*
X113736000Y-85758500D02*
X113736000Y-85183500D01*
G75*
G02*
X114023500Y-84896000I287500J0D01*
G01*
X114623500Y-84896000D01*
G75*
G02*
X114911000Y-85183500I0J-287500D01*
G01*
X114911000Y-85758500D01*
G75*
G02*
X114623500Y-86046000I-287500J0D01*
G01*
X114023500Y-86046000D01*
G75*
G02*
X113736000Y-85758500I0J287500D01*
G01*
G37*
G36*
G01*
X111911000Y-85758500D02*
X111911000Y-85183500D01*
G75*
G02*
X112198500Y-84896000I287500J0D01*
G01*
X112798500Y-84896000D01*
G75*
G02*
X113086000Y-85183500I0J-287500D01*
G01*
X113086000Y-85758500D01*
G75*
G02*
X112798500Y-86046000I-287500J0D01*
G01*
X112198500Y-86046000D01*
G75*
G02*
X111911000Y-85758500I0J287500D01*
G01*
G37*
G36*
G01*
X113736000Y-87282500D02*
X113736000Y-86707500D01*
G75*
G02*
X114023500Y-86420000I287500J0D01*
G01*
X114623500Y-86420000D01*
G75*
G02*
X114911000Y-86707500I0J-287500D01*
G01*
X114911000Y-87282500D01*
G75*
G02*
X114623500Y-87570000I-287500J0D01*
G01*
X114023500Y-87570000D01*
G75*
G02*
X113736000Y-87282500I0J287500D01*
G01*
G37*
G36*
G01*
X111911000Y-87282500D02*
X111911000Y-86707500D01*
G75*
G02*
X112198500Y-86420000I287500J0D01*
G01*
X112798500Y-86420000D01*
G75*
G02*
X113086000Y-86707500I0J-287500D01*
G01*
X113086000Y-87282500D01*
G75*
G02*
X112798500Y-87570000I-287500J0D01*
G01*
X112198500Y-87570000D01*
G75*
G02*
X111911000Y-87282500I0J287500D01*
G01*
G37*
D16*
X132715000Y-69850000D03*
X80010000Y-69850000D03*
G36*
G01*
X107900000Y-80437500D02*
X106475000Y-80437500D01*
G75*
G02*
X106350000Y-80312500I0J125000D01*
G01*
X106350000Y-80062500D01*
G75*
G02*
X106475000Y-79937500I125000J0D01*
G01*
X107900000Y-79937500D01*
G75*
G02*
X108025000Y-80062500I0J-125000D01*
G01*
X108025000Y-80312500D01*
G75*
G02*
X107900000Y-80437500I-125000J0D01*
G01*
G37*
G36*
G01*
X107900000Y-79937500D02*
X106475000Y-79937500D01*
G75*
G02*
X106350000Y-79812500I0J125000D01*
G01*
X106350000Y-79562500D01*
G75*
G02*
X106475000Y-79437500I125000J0D01*
G01*
X107900000Y-79437500D01*
G75*
G02*
X108025000Y-79562500I0J-125000D01*
G01*
X108025000Y-79812500D01*
G75*
G02*
X107900000Y-79937500I-125000J0D01*
G01*
G37*
G36*
G01*
X107900000Y-79437500D02*
X106475000Y-79437500D01*
G75*
G02*
X106350000Y-79312500I0J125000D01*
G01*
X106350000Y-79062500D01*
G75*
G02*
X106475000Y-78937500I125000J0D01*
G01*
X107900000Y-78937500D01*
G75*
G02*
X108025000Y-79062500I0J-125000D01*
G01*
X108025000Y-79312500D01*
G75*
G02*
X107900000Y-79437500I-125000J0D01*
G01*
G37*
G36*
G01*
X107900000Y-78937500D02*
X106475000Y-78937500D01*
G75*
G02*
X106350000Y-78812500I0J125000D01*
G01*
X106350000Y-78562500D01*
G75*
G02*
X106475000Y-78437500I125000J0D01*
G01*
X107900000Y-78437500D01*
G75*
G02*
X108025000Y-78562500I0J-125000D01*
G01*
X108025000Y-78812500D01*
G75*
G02*
X107900000Y-78937500I-125000J0D01*
G01*
G37*
G36*
G01*
X107900000Y-78437500D02*
X106475000Y-78437500D01*
G75*
G02*
X106350000Y-78312500I0J125000D01*
G01*
X106350000Y-78062500D01*
G75*
G02*
X106475000Y-77937500I125000J0D01*
G01*
X107900000Y-77937500D01*
G75*
G02*
X108025000Y-78062500I0J-125000D01*
G01*
X108025000Y-78312500D01*
G75*
G02*
X107900000Y-78437500I-125000J0D01*
G01*
G37*
G36*
G01*
X107900000Y-77937500D02*
X106475000Y-77937500D01*
G75*
G02*
X106350000Y-77812500I0J125000D01*
G01*
X106350000Y-77562500D01*
G75*
G02*
X106475000Y-77437500I125000J0D01*
G01*
X107900000Y-77437500D01*
G75*
G02*
X108025000Y-77562500I0J-125000D01*
G01*
X108025000Y-77812500D01*
G75*
G02*
X107900000Y-77937500I-125000J0D01*
G01*
G37*
G36*
G01*
X107900000Y-77437500D02*
X106475000Y-77437500D01*
G75*
G02*
X106350000Y-77312500I0J125000D01*
G01*
X106350000Y-77062500D01*
G75*
G02*
X106475000Y-76937500I125000J0D01*
G01*
X107900000Y-76937500D01*
G75*
G02*
X108025000Y-77062500I0J-125000D01*
G01*
X108025000Y-77312500D01*
G75*
G02*
X107900000Y-77437500I-125000J0D01*
G01*
G37*
G36*
G01*
X107900000Y-76937500D02*
X106475000Y-76937500D01*
G75*
G02*
X106350000Y-76812500I0J125000D01*
G01*
X106350000Y-76562500D01*
G75*
G02*
X106475000Y-76437500I125000J0D01*
G01*
X107900000Y-76437500D01*
G75*
G02*
X108025000Y-76562500I0J-125000D01*
G01*
X108025000Y-76812500D01*
G75*
G02*
X107900000Y-76937500I-125000J0D01*
G01*
G37*
G36*
G01*
X107900000Y-76437500D02*
X106475000Y-76437500D01*
G75*
G02*
X106350000Y-76312500I0J125000D01*
G01*
X106350000Y-76062500D01*
G75*
G02*
X106475000Y-75937500I125000J0D01*
G01*
X107900000Y-75937500D01*
G75*
G02*
X108025000Y-76062500I0J-125000D01*
G01*
X108025000Y-76312500D01*
G75*
G02*
X107900000Y-76437500I-125000J0D01*
G01*
G37*
G36*
G01*
X107900000Y-75937500D02*
X106475000Y-75937500D01*
G75*
G02*
X106350000Y-75812500I0J125000D01*
G01*
X106350000Y-75562500D01*
G75*
G02*
X106475000Y-75437500I125000J0D01*
G01*
X107900000Y-75437500D01*
G75*
G02*
X108025000Y-75562500I0J-125000D01*
G01*
X108025000Y-75812500D01*
G75*
G02*
X107900000Y-75937500I-125000J0D01*
G01*
G37*
G36*
G01*
X107900000Y-75437500D02*
X106475000Y-75437500D01*
G75*
G02*
X106350000Y-75312500I0J125000D01*
G01*
X106350000Y-75062500D01*
G75*
G02*
X106475000Y-74937500I125000J0D01*
G01*
X107900000Y-74937500D01*
G75*
G02*
X108025000Y-75062500I0J-125000D01*
G01*
X108025000Y-75312500D01*
G75*
G02*
X107900000Y-75437500I-125000J0D01*
G01*
G37*
G36*
G01*
X107900000Y-74937500D02*
X106475000Y-74937500D01*
G75*
G02*
X106350000Y-74812500I0J125000D01*
G01*
X106350000Y-74562500D01*
G75*
G02*
X106475000Y-74437500I125000J0D01*
G01*
X107900000Y-74437500D01*
G75*
G02*
X108025000Y-74562500I0J-125000D01*
G01*
X108025000Y-74812500D01*
G75*
G02*
X107900000Y-74937500I-125000J0D01*
G01*
G37*
G36*
G01*
X108725000Y-74112500D02*
X108475000Y-74112500D01*
G75*
G02*
X108350000Y-73987500I0J125000D01*
G01*
X108350000Y-72562500D01*
G75*
G02*
X108475000Y-72437500I125000J0D01*
G01*
X108725000Y-72437500D01*
G75*
G02*
X108850000Y-72562500I0J-125000D01*
G01*
X108850000Y-73987500D01*
G75*
G02*
X108725000Y-74112500I-125000J0D01*
G01*
G37*
G36*
G01*
X109225000Y-74112500D02*
X108975000Y-74112500D01*
G75*
G02*
X108850000Y-73987500I0J125000D01*
G01*
X108850000Y-72562500D01*
G75*
G02*
X108975000Y-72437500I125000J0D01*
G01*
X109225000Y-72437500D01*
G75*
G02*
X109350000Y-72562500I0J-125000D01*
G01*
X109350000Y-73987500D01*
G75*
G02*
X109225000Y-74112500I-125000J0D01*
G01*
G37*
G36*
G01*
X109725000Y-74112500D02*
X109475000Y-74112500D01*
G75*
G02*
X109350000Y-73987500I0J125000D01*
G01*
X109350000Y-72562500D01*
G75*
G02*
X109475000Y-72437500I125000J0D01*
G01*
X109725000Y-72437500D01*
G75*
G02*
X109850000Y-72562500I0J-125000D01*
G01*
X109850000Y-73987500D01*
G75*
G02*
X109725000Y-74112500I-125000J0D01*
G01*
G37*
G36*
G01*
X110225000Y-74112500D02*
X109975000Y-74112500D01*
G75*
G02*
X109850000Y-73987500I0J125000D01*
G01*
X109850000Y-72562500D01*
G75*
G02*
X109975000Y-72437500I125000J0D01*
G01*
X110225000Y-72437500D01*
G75*
G02*
X110350000Y-72562500I0J-125000D01*
G01*
X110350000Y-73987500D01*
G75*
G02*
X110225000Y-74112500I-125000J0D01*
G01*
G37*
G36*
G01*
X110725000Y-74112500D02*
X110475000Y-74112500D01*
G75*
G02*
X110350000Y-73987500I0J125000D01*
G01*
X110350000Y-72562500D01*
G75*
G02*
X110475000Y-72437500I125000J0D01*
G01*
X110725000Y-72437500D01*
G75*
G02*
X110850000Y-72562500I0J-125000D01*
G01*
X110850000Y-73987500D01*
G75*
G02*
X110725000Y-74112500I-125000J0D01*
G01*
G37*
G36*
G01*
X111225000Y-74112500D02*
X110975000Y-74112500D01*
G75*
G02*
X110850000Y-73987500I0J125000D01*
G01*
X110850000Y-72562500D01*
G75*
G02*
X110975000Y-72437500I125000J0D01*
G01*
X111225000Y-72437500D01*
G75*
G02*
X111350000Y-72562500I0J-125000D01*
G01*
X111350000Y-73987500D01*
G75*
G02*
X111225000Y-74112500I-125000J0D01*
G01*
G37*
G36*
G01*
X111725000Y-74112500D02*
X111475000Y-74112500D01*
G75*
G02*
X111350000Y-73987500I0J125000D01*
G01*
X111350000Y-72562500D01*
G75*
G02*
X111475000Y-72437500I125000J0D01*
G01*
X111725000Y-72437500D01*
G75*
G02*
X111850000Y-72562500I0J-125000D01*
G01*
X111850000Y-73987500D01*
G75*
G02*
X111725000Y-74112500I-125000J0D01*
G01*
G37*
G36*
G01*
X112225000Y-74112500D02*
X111975000Y-74112500D01*
G75*
G02*
X111850000Y-73987500I0J125000D01*
G01*
X111850000Y-72562500D01*
G75*
G02*
X111975000Y-72437500I125000J0D01*
G01*
X112225000Y-72437500D01*
G75*
G02*
X112350000Y-72562500I0J-125000D01*
G01*
X112350000Y-73987500D01*
G75*
G02*
X112225000Y-74112500I-125000J0D01*
G01*
G37*
G36*
G01*
X112725000Y-74112500D02*
X112475000Y-74112500D01*
G75*
G02*
X112350000Y-73987500I0J125000D01*
G01*
X112350000Y-72562500D01*
G75*
G02*
X112475000Y-72437500I125000J0D01*
G01*
X112725000Y-72437500D01*
G75*
G02*
X112850000Y-72562500I0J-125000D01*
G01*
X112850000Y-73987500D01*
G75*
G02*
X112725000Y-74112500I-125000J0D01*
G01*
G37*
G36*
G01*
X113225000Y-74112500D02*
X112975000Y-74112500D01*
G75*
G02*
X112850000Y-73987500I0J125000D01*
G01*
X112850000Y-72562500D01*
G75*
G02*
X112975000Y-72437500I125000J0D01*
G01*
X113225000Y-72437500D01*
G75*
G02*
X113350000Y-72562500I0J-125000D01*
G01*
X113350000Y-73987500D01*
G75*
G02*
X113225000Y-74112500I-125000J0D01*
G01*
G37*
G36*
G01*
X113725000Y-74112500D02*
X113475000Y-74112500D01*
G75*
G02*
X113350000Y-73987500I0J125000D01*
G01*
X113350000Y-72562500D01*
G75*
G02*
X113475000Y-72437500I125000J0D01*
G01*
X113725000Y-72437500D01*
G75*
G02*
X113850000Y-72562500I0J-125000D01*
G01*
X113850000Y-73987500D01*
G75*
G02*
X113725000Y-74112500I-125000J0D01*
G01*
G37*
G36*
G01*
X114225000Y-74112500D02*
X113975000Y-74112500D01*
G75*
G02*
X113850000Y-73987500I0J125000D01*
G01*
X113850000Y-72562500D01*
G75*
G02*
X113975000Y-72437500I125000J0D01*
G01*
X114225000Y-72437500D01*
G75*
G02*
X114350000Y-72562500I0J-125000D01*
G01*
X114350000Y-73987500D01*
G75*
G02*
X114225000Y-74112500I-125000J0D01*
G01*
G37*
G36*
G01*
X116225000Y-74937500D02*
X114800000Y-74937500D01*
G75*
G02*
X114675000Y-74812500I0J125000D01*
G01*
X114675000Y-74562500D01*
G75*
G02*
X114800000Y-74437500I125000J0D01*
G01*
X116225000Y-74437500D01*
G75*
G02*
X116350000Y-74562500I0J-125000D01*
G01*
X116350000Y-74812500D01*
G75*
G02*
X116225000Y-74937500I-125000J0D01*
G01*
G37*
G36*
G01*
X116225000Y-75437500D02*
X114800000Y-75437500D01*
G75*
G02*
X114675000Y-75312500I0J125000D01*
G01*
X114675000Y-75062500D01*
G75*
G02*
X114800000Y-74937500I125000J0D01*
G01*
X116225000Y-74937500D01*
G75*
G02*
X116350000Y-75062500I0J-125000D01*
G01*
X116350000Y-75312500D01*
G75*
G02*
X116225000Y-75437500I-125000J0D01*
G01*
G37*
G36*
G01*
X116225000Y-75937500D02*
X114800000Y-75937500D01*
G75*
G02*
X114675000Y-75812500I0J125000D01*
G01*
X114675000Y-75562500D01*
G75*
G02*
X114800000Y-75437500I125000J0D01*
G01*
X116225000Y-75437500D01*
G75*
G02*
X116350000Y-75562500I0J-125000D01*
G01*
X116350000Y-75812500D01*
G75*
G02*
X116225000Y-75937500I-125000J0D01*
G01*
G37*
G36*
G01*
X116225000Y-76437500D02*
X114800000Y-76437500D01*
G75*
G02*
X114675000Y-76312500I0J125000D01*
G01*
X114675000Y-76062500D01*
G75*
G02*
X114800000Y-75937500I125000J0D01*
G01*
X116225000Y-75937500D01*
G75*
G02*
X116350000Y-76062500I0J-125000D01*
G01*
X116350000Y-76312500D01*
G75*
G02*
X116225000Y-76437500I-125000J0D01*
G01*
G37*
G36*
G01*
X116225000Y-76937500D02*
X114800000Y-76937500D01*
G75*
G02*
X114675000Y-76812500I0J125000D01*
G01*
X114675000Y-76562500D01*
G75*
G02*
X114800000Y-76437500I125000J0D01*
G01*
X116225000Y-76437500D01*
G75*
G02*
X116350000Y-76562500I0J-125000D01*
G01*
X116350000Y-76812500D01*
G75*
G02*
X116225000Y-76937500I-125000J0D01*
G01*
G37*
G36*
G01*
X116225000Y-77437500D02*
X114800000Y-77437500D01*
G75*
G02*
X114675000Y-77312500I0J125000D01*
G01*
X114675000Y-77062500D01*
G75*
G02*
X114800000Y-76937500I125000J0D01*
G01*
X116225000Y-76937500D01*
G75*
G02*
X116350000Y-77062500I0J-125000D01*
G01*
X116350000Y-77312500D01*
G75*
G02*
X116225000Y-77437500I-125000J0D01*
G01*
G37*
G36*
G01*
X116225000Y-77937500D02*
X114800000Y-77937500D01*
G75*
G02*
X114675000Y-77812500I0J125000D01*
G01*
X114675000Y-77562500D01*
G75*
G02*
X114800000Y-77437500I125000J0D01*
G01*
X116225000Y-77437500D01*
G75*
G02*
X116350000Y-77562500I0J-125000D01*
G01*
X116350000Y-77812500D01*
G75*
G02*
X116225000Y-77937500I-125000J0D01*
G01*
G37*
G36*
G01*
X116225000Y-78437500D02*
X114800000Y-78437500D01*
G75*
G02*
X114675000Y-78312500I0J125000D01*
G01*
X114675000Y-78062500D01*
G75*
G02*
X114800000Y-77937500I125000J0D01*
G01*
X116225000Y-77937500D01*
G75*
G02*
X116350000Y-78062500I0J-125000D01*
G01*
X116350000Y-78312500D01*
G75*
G02*
X116225000Y-78437500I-125000J0D01*
G01*
G37*
G36*
G01*
X116225000Y-78937500D02*
X114800000Y-78937500D01*
G75*
G02*
X114675000Y-78812500I0J125000D01*
G01*
X114675000Y-78562500D01*
G75*
G02*
X114800000Y-78437500I125000J0D01*
G01*
X116225000Y-78437500D01*
G75*
G02*
X116350000Y-78562500I0J-125000D01*
G01*
X116350000Y-78812500D01*
G75*
G02*
X116225000Y-78937500I-125000J0D01*
G01*
G37*
G36*
G01*
X116225000Y-79437500D02*
X114800000Y-79437500D01*
G75*
G02*
X114675000Y-79312500I0J125000D01*
G01*
X114675000Y-79062500D01*
G75*
G02*
X114800000Y-78937500I125000J0D01*
G01*
X116225000Y-78937500D01*
G75*
G02*
X116350000Y-79062500I0J-125000D01*
G01*
X116350000Y-79312500D01*
G75*
G02*
X116225000Y-79437500I-125000J0D01*
G01*
G37*
G36*
G01*
X116225000Y-79937500D02*
X114800000Y-79937500D01*
G75*
G02*
X114675000Y-79812500I0J125000D01*
G01*
X114675000Y-79562500D01*
G75*
G02*
X114800000Y-79437500I125000J0D01*
G01*
X116225000Y-79437500D01*
G75*
G02*
X116350000Y-79562500I0J-125000D01*
G01*
X116350000Y-79812500D01*
G75*
G02*
X116225000Y-79937500I-125000J0D01*
G01*
G37*
G36*
G01*
X116225000Y-80437500D02*
X114800000Y-80437500D01*
G75*
G02*
X114675000Y-80312500I0J125000D01*
G01*
X114675000Y-80062500D01*
G75*
G02*
X114800000Y-79937500I125000J0D01*
G01*
X116225000Y-79937500D01*
G75*
G02*
X116350000Y-80062500I0J-125000D01*
G01*
X116350000Y-80312500D01*
G75*
G02*
X116225000Y-80437500I-125000J0D01*
G01*
G37*
G36*
G01*
X114225000Y-82437500D02*
X113975000Y-82437500D01*
G75*
G02*
X113850000Y-82312500I0J125000D01*
G01*
X113850000Y-80887500D01*
G75*
G02*
X113975000Y-80762500I125000J0D01*
G01*
X114225000Y-80762500D01*
G75*
G02*
X114350000Y-80887500I0J-125000D01*
G01*
X114350000Y-82312500D01*
G75*
G02*
X114225000Y-82437500I-125000J0D01*
G01*
G37*
G36*
G01*
X113725000Y-82437500D02*
X113475000Y-82437500D01*
G75*
G02*
X113350000Y-82312500I0J125000D01*
G01*
X113350000Y-80887500D01*
G75*
G02*
X113475000Y-80762500I125000J0D01*
G01*
X113725000Y-80762500D01*
G75*
G02*
X113850000Y-80887500I0J-125000D01*
G01*
X113850000Y-82312500D01*
G75*
G02*
X113725000Y-82437500I-125000J0D01*
G01*
G37*
G36*
G01*
X113225000Y-82437500D02*
X112975000Y-82437500D01*
G75*
G02*
X112850000Y-82312500I0J125000D01*
G01*
X112850000Y-80887500D01*
G75*
G02*
X112975000Y-80762500I125000J0D01*
G01*
X113225000Y-80762500D01*
G75*
G02*
X113350000Y-80887500I0J-125000D01*
G01*
X113350000Y-82312500D01*
G75*
G02*
X113225000Y-82437500I-125000J0D01*
G01*
G37*
G36*
G01*
X112725000Y-82437500D02*
X112475000Y-82437500D01*
G75*
G02*
X112350000Y-82312500I0J125000D01*
G01*
X112350000Y-80887500D01*
G75*
G02*
X112475000Y-80762500I125000J0D01*
G01*
X112725000Y-80762500D01*
G75*
G02*
X112850000Y-80887500I0J-125000D01*
G01*
X112850000Y-82312500D01*
G75*
G02*
X112725000Y-82437500I-125000J0D01*
G01*
G37*
G36*
G01*
X112225000Y-82437500D02*
X111975000Y-82437500D01*
G75*
G02*
X111850000Y-82312500I0J125000D01*
G01*
X111850000Y-80887500D01*
G75*
G02*
X111975000Y-80762500I125000J0D01*
G01*
X112225000Y-80762500D01*
G75*
G02*
X112350000Y-80887500I0J-125000D01*
G01*
X112350000Y-82312500D01*
G75*
G02*
X112225000Y-82437500I-125000J0D01*
G01*
G37*
G36*
G01*
X111725000Y-82437500D02*
X111475000Y-82437500D01*
G75*
G02*
X111350000Y-82312500I0J125000D01*
G01*
X111350000Y-80887500D01*
G75*
G02*
X111475000Y-80762500I125000J0D01*
G01*
X111725000Y-80762500D01*
G75*
G02*
X111850000Y-80887500I0J-125000D01*
G01*
X111850000Y-82312500D01*
G75*
G02*
X111725000Y-82437500I-125000J0D01*
G01*
G37*
G36*
G01*
X111225000Y-82437500D02*
X110975000Y-82437500D01*
G75*
G02*
X110850000Y-82312500I0J125000D01*
G01*
X110850000Y-80887500D01*
G75*
G02*
X110975000Y-80762500I125000J0D01*
G01*
X111225000Y-80762500D01*
G75*
G02*
X111350000Y-80887500I0J-125000D01*
G01*
X111350000Y-82312500D01*
G75*
G02*
X111225000Y-82437500I-125000J0D01*
G01*
G37*
G36*
G01*
X110725000Y-82437500D02*
X110475000Y-82437500D01*
G75*
G02*
X110350000Y-82312500I0J125000D01*
G01*
X110350000Y-80887500D01*
G75*
G02*
X110475000Y-80762500I125000J0D01*
G01*
X110725000Y-80762500D01*
G75*
G02*
X110850000Y-80887500I0J-125000D01*
G01*
X110850000Y-82312500D01*
G75*
G02*
X110725000Y-82437500I-125000J0D01*
G01*
G37*
G36*
G01*
X110225000Y-82437500D02*
X109975000Y-82437500D01*
G75*
G02*
X109850000Y-82312500I0J125000D01*
G01*
X109850000Y-80887500D01*
G75*
G02*
X109975000Y-80762500I125000J0D01*
G01*
X110225000Y-80762500D01*
G75*
G02*
X110350000Y-80887500I0J-125000D01*
G01*
X110350000Y-82312500D01*
G75*
G02*
X110225000Y-82437500I-125000J0D01*
G01*
G37*
G36*
G01*
X109725000Y-82437500D02*
X109475000Y-82437500D01*
G75*
G02*
X109350000Y-82312500I0J125000D01*
G01*
X109350000Y-80887500D01*
G75*
G02*
X109475000Y-80762500I125000J0D01*
G01*
X109725000Y-80762500D01*
G75*
G02*
X109850000Y-80887500I0J-125000D01*
G01*
X109850000Y-82312500D01*
G75*
G02*
X109725000Y-82437500I-125000J0D01*
G01*
G37*
G36*
G01*
X109225000Y-82437500D02*
X108975000Y-82437500D01*
G75*
G02*
X108850000Y-82312500I0J125000D01*
G01*
X108850000Y-80887500D01*
G75*
G02*
X108975000Y-80762500I125000J0D01*
G01*
X109225000Y-80762500D01*
G75*
G02*
X109350000Y-80887500I0J-125000D01*
G01*
X109350000Y-82312500D01*
G75*
G02*
X109225000Y-82437500I-125000J0D01*
G01*
G37*
G36*
G01*
X108725000Y-82437500D02*
X108475000Y-82437500D01*
G75*
G02*
X108350000Y-82312500I0J125000D01*
G01*
X108350000Y-80887500D01*
G75*
G02*
X108475000Y-80762500I125000J0D01*
G01*
X108725000Y-80762500D01*
G75*
G02*
X108850000Y-80887500I0J-125000D01*
G01*
X108850000Y-82312500D01*
G75*
G02*
X108725000Y-82437500I-125000J0D01*
G01*
G37*
G36*
G01*
X101222000Y-57096000D02*
X101222000Y-56696000D01*
G75*
G02*
X101422000Y-56496000I200000J0D01*
G01*
X103172000Y-56496000D01*
G75*
G02*
X103372000Y-56696000I0J-200000D01*
G01*
X103372000Y-57096000D01*
G75*
G02*
X103172000Y-57296000I-200000J0D01*
G01*
X101422000Y-57296000D01*
G75*
G02*
X101222000Y-57096000I0J200000D01*
G01*
G37*
G36*
G01*
X101222000Y-58366000D02*
X101222000Y-57966000D01*
G75*
G02*
X101422000Y-57766000I200000J0D01*
G01*
X103172000Y-57766000D01*
G75*
G02*
X103372000Y-57966000I0J-200000D01*
G01*
X103372000Y-58366000D01*
G75*
G02*
X103172000Y-58566000I-200000J0D01*
G01*
X101422000Y-58566000D01*
G75*
G02*
X101222000Y-58366000I0J200000D01*
G01*
G37*
G36*
G01*
X101222000Y-59636000D02*
X101222000Y-59236000D01*
G75*
G02*
X101422000Y-59036000I200000J0D01*
G01*
X103172000Y-59036000D01*
G75*
G02*
X103372000Y-59236000I0J-200000D01*
G01*
X103372000Y-59636000D01*
G75*
G02*
X103172000Y-59836000I-200000J0D01*
G01*
X101422000Y-59836000D01*
G75*
G02*
X101222000Y-59636000I0J200000D01*
G01*
G37*
G36*
G01*
X101222000Y-60906000D02*
X101222000Y-60506000D01*
G75*
G02*
X101422000Y-60306000I200000J0D01*
G01*
X103172000Y-60306000D01*
G75*
G02*
X103372000Y-60506000I0J-200000D01*
G01*
X103372000Y-60906000D01*
G75*
G02*
X103172000Y-61106000I-200000J0D01*
G01*
X101422000Y-61106000D01*
G75*
G02*
X101222000Y-60906000I0J200000D01*
G01*
G37*
G36*
G01*
X96272000Y-60906000D02*
X96272000Y-60506000D01*
G75*
G02*
X96472000Y-60306000I200000J0D01*
G01*
X98222000Y-60306000D01*
G75*
G02*
X98422000Y-60506000I0J-200000D01*
G01*
X98422000Y-60906000D01*
G75*
G02*
X98222000Y-61106000I-200000J0D01*
G01*
X96472000Y-61106000D01*
G75*
G02*
X96272000Y-60906000I0J200000D01*
G01*
G37*
G36*
G01*
X96272000Y-59636000D02*
X96272000Y-59236000D01*
G75*
G02*
X96472000Y-59036000I200000J0D01*
G01*
X98222000Y-59036000D01*
G75*
G02*
X98422000Y-59236000I0J-200000D01*
G01*
X98422000Y-59636000D01*
G75*
G02*
X98222000Y-59836000I-200000J0D01*
G01*
X96472000Y-59836000D01*
G75*
G02*
X96272000Y-59636000I0J200000D01*
G01*
G37*
G36*
G01*
X96272000Y-58366000D02*
X96272000Y-57966000D01*
G75*
G02*
X96472000Y-57766000I200000J0D01*
G01*
X98222000Y-57766000D01*
G75*
G02*
X98422000Y-57966000I0J-200000D01*
G01*
X98422000Y-58366000D01*
G75*
G02*
X98222000Y-58566000I-200000J0D01*
G01*
X96472000Y-58566000D01*
G75*
G02*
X96272000Y-58366000I0J200000D01*
G01*
G37*
G36*
G01*
X96272000Y-57096000D02*
X96272000Y-56696000D01*
G75*
G02*
X96472000Y-56496000I200000J0D01*
G01*
X98222000Y-56496000D01*
G75*
G02*
X98422000Y-56696000I0J-200000D01*
G01*
X98422000Y-57096000D01*
G75*
G02*
X98222000Y-57296000I-200000J0D01*
G01*
X96472000Y-57296000D01*
G75*
G02*
X96272000Y-57096000I0J200000D01*
G01*
G37*
G36*
G01*
X87659000Y-77690500D02*
X87659000Y-78265500D01*
G75*
G02*
X87371500Y-78553000I-287500J0D01*
G01*
X86671500Y-78553000D01*
G75*
G02*
X86384000Y-78265500I0J287500D01*
G01*
X86384000Y-77690500D01*
G75*
G02*
X86671500Y-77403000I287500J0D01*
G01*
X87371500Y-77403000D01*
G75*
G02*
X87659000Y-77690500I0J-287500D01*
G01*
G37*
G36*
G01*
X89384000Y-77690500D02*
X89384000Y-78265500D01*
G75*
G02*
X89096500Y-78553000I-287500J0D01*
G01*
X88396500Y-78553000D01*
G75*
G02*
X88109000Y-78265500I0J287500D01*
G01*
X88109000Y-77690500D01*
G75*
G02*
X88396500Y-77403000I287500J0D01*
G01*
X89096500Y-77403000D01*
G75*
G02*
X89384000Y-77690500I0J-287500D01*
G01*
G37*
G36*
G01*
X94394500Y-56798000D02*
X93819500Y-56798000D01*
G75*
G02*
X93532000Y-56510500I0J287500D01*
G01*
X93532000Y-55810500D01*
G75*
G02*
X93819500Y-55523000I287500J0D01*
G01*
X94394500Y-55523000D01*
G75*
G02*
X94682000Y-55810500I0J-287500D01*
G01*
X94682000Y-56510500D01*
G75*
G02*
X94394500Y-56798000I-287500J0D01*
G01*
G37*
G36*
G01*
X94394500Y-58523000D02*
X93819500Y-58523000D01*
G75*
G02*
X93532000Y-58235500I0J287500D01*
G01*
X93532000Y-57535500D01*
G75*
G02*
X93819500Y-57248000I287500J0D01*
G01*
X94394500Y-57248000D01*
G75*
G02*
X94682000Y-57535500I0J-287500D01*
G01*
X94682000Y-58235500D01*
G75*
G02*
X94394500Y-58523000I-287500J0D01*
G01*
G37*
G36*
G01*
X130781000Y-61882500D02*
X130781000Y-61307500D01*
G75*
G02*
X131068500Y-61020000I287500J0D01*
G01*
X131768500Y-61020000D01*
G75*
G02*
X132056000Y-61307500I0J-287500D01*
G01*
X132056000Y-61882500D01*
G75*
G02*
X131768500Y-62170000I-287500J0D01*
G01*
X131068500Y-62170000D01*
G75*
G02*
X130781000Y-61882500I0J287500D01*
G01*
G37*
G36*
G01*
X129056000Y-61882500D02*
X129056000Y-61307500D01*
G75*
G02*
X129343500Y-61020000I287500J0D01*
G01*
X130043500Y-61020000D01*
G75*
G02*
X130331000Y-61307500I0J-287500D01*
G01*
X130331000Y-61882500D01*
G75*
G02*
X130043500Y-62170000I-287500J0D01*
G01*
X129343500Y-62170000D01*
G75*
G02*
X129056000Y-61882500I0J287500D01*
G01*
G37*
G36*
G01*
X107032000Y-58580500D02*
X107032000Y-58005500D01*
G75*
G02*
X107319500Y-57718000I287500J0D01*
G01*
X108019500Y-57718000D01*
G75*
G02*
X108307000Y-58005500I0J-287500D01*
G01*
X108307000Y-58580500D01*
G75*
G02*
X108019500Y-58868000I-287500J0D01*
G01*
X107319500Y-58868000D01*
G75*
G02*
X107032000Y-58580500I0J287500D01*
G01*
G37*
G36*
G01*
X105307000Y-58580500D02*
X105307000Y-58005500D01*
G75*
G02*
X105594500Y-57718000I287500J0D01*
G01*
X106294500Y-57718000D01*
G75*
G02*
X106582000Y-58005500I0J-287500D01*
G01*
X106582000Y-58580500D01*
G75*
G02*
X106294500Y-58868000I-287500J0D01*
G01*
X105594500Y-58868000D01*
G75*
G02*
X105307000Y-58580500I0J287500D01*
G01*
G37*
G36*
G01*
X113863500Y-59469500D02*
X113863500Y-58894500D01*
G75*
G02*
X114151000Y-58607000I287500J0D01*
G01*
X114851000Y-58607000D01*
G75*
G02*
X115138500Y-58894500I0J-287500D01*
G01*
X115138500Y-59469500D01*
G75*
G02*
X114851000Y-59757000I-287500J0D01*
G01*
X114151000Y-59757000D01*
G75*
G02*
X113863500Y-59469500I0J287500D01*
G01*
G37*
G36*
G01*
X112138500Y-59469500D02*
X112138500Y-58894500D01*
G75*
G02*
X112426000Y-58607000I287500J0D01*
G01*
X113126000Y-58607000D01*
G75*
G02*
X113413500Y-58894500I0J-287500D01*
G01*
X113413500Y-59469500D01*
G75*
G02*
X113126000Y-59757000I-287500J0D01*
G01*
X112426000Y-59757000D01*
G75*
G02*
X112138500Y-59469500I0J287500D01*
G01*
G37*
G36*
G01*
X95602000Y-81440500D02*
X95602000Y-80865500D01*
G75*
G02*
X95889500Y-80578000I287500J0D01*
G01*
X96589500Y-80578000D01*
G75*
G02*
X96877000Y-80865500I0J-287500D01*
G01*
X96877000Y-81440500D01*
G75*
G02*
X96589500Y-81728000I-287500J0D01*
G01*
X95889500Y-81728000D01*
G75*
G02*
X95602000Y-81440500I0J287500D01*
G01*
G37*
G36*
G01*
X93877000Y-81440500D02*
X93877000Y-80865500D01*
G75*
G02*
X94164500Y-80578000I287500J0D01*
G01*
X94864500Y-80578000D01*
G75*
G02*
X95152000Y-80865500I0J-287500D01*
G01*
X95152000Y-81440500D01*
G75*
G02*
X94864500Y-81728000I-287500J0D01*
G01*
X94164500Y-81728000D01*
G75*
G02*
X93877000Y-81440500I0J287500D01*
G01*
G37*
G36*
G01*
X98835000Y-80865500D02*
X98835000Y-81440500D01*
G75*
G02*
X98547500Y-81728000I-287500J0D01*
G01*
X97847500Y-81728000D01*
G75*
G02*
X97560000Y-81440500I0J287500D01*
G01*
X97560000Y-80865500D01*
G75*
G02*
X97847500Y-80578000I287500J0D01*
G01*
X98547500Y-80578000D01*
G75*
G02*
X98835000Y-80865500I0J-287500D01*
G01*
G37*
G36*
G01*
X100560000Y-80865500D02*
X100560000Y-81440500D01*
G75*
G02*
X100272500Y-81728000I-287500J0D01*
G01*
X99572500Y-81728000D01*
G75*
G02*
X99285000Y-81440500I0J287500D01*
G01*
X99285000Y-80865500D01*
G75*
G02*
X99572500Y-80578000I287500J0D01*
G01*
X100272500Y-80578000D01*
G75*
G02*
X100560000Y-80865500I0J-287500D01*
G01*
G37*
G36*
G01*
X117444900Y-72804500D02*
X117444900Y-72229500D01*
G75*
G02*
X117732400Y-71942000I287500J0D01*
G01*
X118432400Y-71942000D01*
G75*
G02*
X118719900Y-72229500I0J-287500D01*
G01*
X118719900Y-72804500D01*
G75*
G02*
X118432400Y-73092000I-287500J0D01*
G01*
X117732400Y-73092000D01*
G75*
G02*
X117444900Y-72804500I0J287500D01*
G01*
G37*
G36*
G01*
X115719900Y-72804500D02*
X115719900Y-72229500D01*
G75*
G02*
X116007400Y-71942000I287500J0D01*
G01*
X116707400Y-71942000D01*
G75*
G02*
X116994900Y-72229500I0J-287500D01*
G01*
X116994900Y-72804500D01*
G75*
G02*
X116707400Y-73092000I-287500J0D01*
G01*
X116007400Y-73092000D01*
G75*
G02*
X115719900Y-72804500I0J287500D01*
G01*
G37*
G36*
G01*
X108173900Y-71356700D02*
X108173900Y-70781700D01*
G75*
G02*
X108461400Y-70494200I287500J0D01*
G01*
X109161400Y-70494200D01*
G75*
G02*
X109448900Y-70781700I0J-287500D01*
G01*
X109448900Y-71356700D01*
G75*
G02*
X109161400Y-71644200I-287500J0D01*
G01*
X108461400Y-71644200D01*
G75*
G02*
X108173900Y-71356700I0J287500D01*
G01*
G37*
G36*
G01*
X106448900Y-71356700D02*
X106448900Y-70781700D01*
G75*
G02*
X106736400Y-70494200I287500J0D01*
G01*
X107436400Y-70494200D01*
G75*
G02*
X107723900Y-70781700I0J-287500D01*
G01*
X107723900Y-71356700D01*
G75*
G02*
X107436400Y-71644200I-287500J0D01*
G01*
X106736400Y-71644200D01*
G75*
G02*
X106448900Y-71356700I0J287500D01*
G01*
G37*
G36*
G01*
X104427500Y-79811500D02*
X103852500Y-79811500D01*
G75*
G02*
X103565000Y-79524000I0J287500D01*
G01*
X103565000Y-78824000D01*
G75*
G02*
X103852500Y-78536500I287500J0D01*
G01*
X104427500Y-78536500D01*
G75*
G02*
X104715000Y-78824000I0J-287500D01*
G01*
X104715000Y-79524000D01*
G75*
G02*
X104427500Y-79811500I-287500J0D01*
G01*
G37*
G36*
G01*
X104427500Y-81536500D02*
X103852500Y-81536500D01*
G75*
G02*
X103565000Y-81249000I0J287500D01*
G01*
X103565000Y-80549000D01*
G75*
G02*
X103852500Y-80261500I287500J0D01*
G01*
X104427500Y-80261500D01*
G75*
G02*
X104715000Y-80549000I0J-287500D01*
G01*
X104715000Y-81249000D01*
G75*
G02*
X104427500Y-81536500I-287500J0D01*
G01*
G37*
G36*
G01*
X113636000Y-84234500D02*
X113636000Y-83659500D01*
G75*
G02*
X113923500Y-83372000I287500J0D01*
G01*
X114623500Y-83372000D01*
G75*
G02*
X114911000Y-83659500I0J-287500D01*
G01*
X114911000Y-84234500D01*
G75*
G02*
X114623500Y-84522000I-287500J0D01*
G01*
X113923500Y-84522000D01*
G75*
G02*
X113636000Y-84234500I0J287500D01*
G01*
G37*
G36*
G01*
X111911000Y-84234500D02*
X111911000Y-83659500D01*
G75*
G02*
X112198500Y-83372000I287500J0D01*
G01*
X112898500Y-83372000D01*
G75*
G02*
X113186000Y-83659500I0J-287500D01*
G01*
X113186000Y-84234500D01*
G75*
G02*
X112898500Y-84522000I-287500J0D01*
G01*
X112198500Y-84522000D01*
G75*
G02*
X111911000Y-84234500I0J287500D01*
G01*
G37*
G36*
G01*
X80738500Y-64106000D02*
X81313500Y-64106000D01*
G75*
G02*
X81601000Y-64393500I0J-287500D01*
G01*
X81601000Y-65093500D01*
G75*
G02*
X81313500Y-65381000I-287500J0D01*
G01*
X80738500Y-65381000D01*
G75*
G02*
X80451000Y-65093500I0J287500D01*
G01*
X80451000Y-64393500D01*
G75*
G02*
X80738500Y-64106000I287500J0D01*
G01*
G37*
G36*
G01*
X80738500Y-62381000D02*
X81313500Y-62381000D01*
G75*
G02*
X81601000Y-62668500I0J-287500D01*
G01*
X81601000Y-63368500D01*
G75*
G02*
X81313500Y-63656000I-287500J0D01*
G01*
X80738500Y-63656000D01*
G75*
G02*
X80451000Y-63368500I0J287500D01*
G01*
X80451000Y-62668500D01*
G75*
G02*
X80738500Y-62381000I287500J0D01*
G01*
G37*
G36*
G01*
X72804500Y-61497000D02*
X72229500Y-61497000D01*
G75*
G02*
X71942000Y-61209500I0J287500D01*
G01*
X71942000Y-60509500D01*
G75*
G02*
X72229500Y-60222000I287500J0D01*
G01*
X72804500Y-60222000D01*
G75*
G02*
X73092000Y-60509500I0J-287500D01*
G01*
X73092000Y-61209500D01*
G75*
G02*
X72804500Y-61497000I-287500J0D01*
G01*
G37*
G36*
G01*
X72804500Y-63222000D02*
X72229500Y-63222000D01*
G75*
G02*
X71942000Y-62934500I0J287500D01*
G01*
X71942000Y-62234500D01*
G75*
G02*
X72229500Y-61947000I287500J0D01*
G01*
X72804500Y-61947000D01*
G75*
G02*
X73092000Y-62234500I0J-287500D01*
G01*
X73092000Y-62934500D01*
G75*
G02*
X72804500Y-63222000I-287500J0D01*
G01*
G37*
G36*
G01*
X74988000Y-63544500D02*
X74988000Y-64344500D01*
G75*
G02*
X74888000Y-64444500I-100000J0D01*
G01*
X73988000Y-64444500D01*
G75*
G02*
X73888000Y-64344500I0J100000D01*
G01*
X73888000Y-63544500D01*
G75*
G02*
X73988000Y-63444500I100000J0D01*
G01*
X74888000Y-63444500D01*
G75*
G02*
X74988000Y-63544500I0J-100000D01*
G01*
G37*
G36*
G01*
X76988000Y-62594500D02*
X76988000Y-63394500D01*
G75*
G02*
X76888000Y-63494500I-100000J0D01*
G01*
X75988000Y-63494500D01*
G75*
G02*
X75888000Y-63394500I0J100000D01*
G01*
X75888000Y-62594500D01*
G75*
G02*
X75988000Y-62494500I100000J0D01*
G01*
X76888000Y-62494500D01*
G75*
G02*
X76988000Y-62594500I0J-100000D01*
G01*
G37*
G36*
G01*
X76988000Y-64494500D02*
X76988000Y-65294500D01*
G75*
G02*
X76888000Y-65394500I-100000J0D01*
G01*
X75988000Y-65394500D01*
G75*
G02*
X75888000Y-65294500I0J100000D01*
G01*
X75888000Y-64494500D01*
G75*
G02*
X75988000Y-64394500I100000J0D01*
G01*
X76888000Y-64394500D01*
G75*
G02*
X76988000Y-64494500I0J-100000D01*
G01*
G37*
G36*
G01*
X115631500Y-62253000D02*
X115631500Y-61953000D01*
G75*
G02*
X115781500Y-61803000I150000J0D01*
G01*
X117156500Y-61803000D01*
G75*
G02*
X117306500Y-61953000I0J-150000D01*
G01*
X117306500Y-62253000D01*
G75*
G02*
X117156500Y-62403000I-150000J0D01*
G01*
X115781500Y-62403000D01*
G75*
G02*
X115631500Y-62253000I0J150000D01*
G01*
G37*
G36*
G01*
X115631500Y-62903000D02*
X115631500Y-62603000D01*
G75*
G02*
X115781500Y-62453000I150000J0D01*
G01*
X117156500Y-62453000D01*
G75*
G02*
X117306500Y-62603000I0J-150000D01*
G01*
X117306500Y-62903000D01*
G75*
G02*
X117156500Y-63053000I-150000J0D01*
G01*
X115781500Y-63053000D01*
G75*
G02*
X115631500Y-62903000I0J150000D01*
G01*
G37*
G36*
G01*
X115631500Y-63553000D02*
X115631500Y-63253000D01*
G75*
G02*
X115781500Y-63103000I150000J0D01*
G01*
X117156500Y-63103000D01*
G75*
G02*
X117306500Y-63253000I0J-150000D01*
G01*
X117306500Y-63553000D01*
G75*
G02*
X117156500Y-63703000I-150000J0D01*
G01*
X115781500Y-63703000D01*
G75*
G02*
X115631500Y-63553000I0J150000D01*
G01*
G37*
G36*
G01*
X115631500Y-64203000D02*
X115631500Y-63903000D01*
G75*
G02*
X115781500Y-63753000I150000J0D01*
G01*
X117156500Y-63753000D01*
G75*
G02*
X117306500Y-63903000I0J-150000D01*
G01*
X117306500Y-64203000D01*
G75*
G02*
X117156500Y-64353000I-150000J0D01*
G01*
X115781500Y-64353000D01*
G75*
G02*
X115631500Y-64203000I0J150000D01*
G01*
G37*
G36*
G01*
X115631500Y-64853000D02*
X115631500Y-64553000D01*
G75*
G02*
X115781500Y-64403000I150000J0D01*
G01*
X117156500Y-64403000D01*
G75*
G02*
X117306500Y-64553000I0J-150000D01*
G01*
X117306500Y-64853000D01*
G75*
G02*
X117156500Y-65003000I-150000J0D01*
G01*
X115781500Y-65003000D01*
G75*
G02*
X115631500Y-64853000I0J150000D01*
G01*
G37*
G36*
G01*
X115631500Y-65503000D02*
X115631500Y-65203000D01*
G75*
G02*
X115781500Y-65053000I150000J0D01*
G01*
X117156500Y-65053000D01*
G75*
G02*
X117306500Y-65203000I0J-150000D01*
G01*
X117306500Y-65503000D01*
G75*
G02*
X117156500Y-65653000I-150000J0D01*
G01*
X115781500Y-65653000D01*
G75*
G02*
X115631500Y-65503000I0J150000D01*
G01*
G37*
G36*
G01*
X115631500Y-66153000D02*
X115631500Y-65853000D01*
G75*
G02*
X115781500Y-65703000I150000J0D01*
G01*
X117156500Y-65703000D01*
G75*
G02*
X117306500Y-65853000I0J-150000D01*
G01*
X117306500Y-66153000D01*
G75*
G02*
X117156500Y-66303000I-150000J0D01*
G01*
X115781500Y-66303000D01*
G75*
G02*
X115631500Y-66153000I0J150000D01*
G01*
G37*
G36*
G01*
X115631500Y-66803000D02*
X115631500Y-66503000D01*
G75*
G02*
X115781500Y-66353000I150000J0D01*
G01*
X117156500Y-66353000D01*
G75*
G02*
X117306500Y-66503000I0J-150000D01*
G01*
X117306500Y-66803000D01*
G75*
G02*
X117156500Y-66953000I-150000J0D01*
G01*
X115781500Y-66953000D01*
G75*
G02*
X115631500Y-66803000I0J150000D01*
G01*
G37*
G36*
G01*
X115631500Y-67453000D02*
X115631500Y-67153000D01*
G75*
G02*
X115781500Y-67003000I150000J0D01*
G01*
X117156500Y-67003000D01*
G75*
G02*
X117306500Y-67153000I0J-150000D01*
G01*
X117306500Y-67453000D01*
G75*
G02*
X117156500Y-67603000I-150000J0D01*
G01*
X115781500Y-67603000D01*
G75*
G02*
X115631500Y-67453000I0J150000D01*
G01*
G37*
G36*
G01*
X115631500Y-68103000D02*
X115631500Y-67803000D01*
G75*
G02*
X115781500Y-67653000I150000J0D01*
G01*
X117156500Y-67653000D01*
G75*
G02*
X117306500Y-67803000I0J-150000D01*
G01*
X117306500Y-68103000D01*
G75*
G02*
X117156500Y-68253000I-150000J0D01*
G01*
X115781500Y-68253000D01*
G75*
G02*
X115631500Y-68103000I0J150000D01*
G01*
G37*
G36*
G01*
X109906500Y-68103000D02*
X109906500Y-67803000D01*
G75*
G02*
X110056500Y-67653000I150000J0D01*
G01*
X111431500Y-67653000D01*
G75*
G02*
X111581500Y-67803000I0J-150000D01*
G01*
X111581500Y-68103000D01*
G75*
G02*
X111431500Y-68253000I-150000J0D01*
G01*
X110056500Y-68253000D01*
G75*
G02*
X109906500Y-68103000I0J150000D01*
G01*
G37*
G36*
G01*
X109906500Y-67453000D02*
X109906500Y-67153000D01*
G75*
G02*
X110056500Y-67003000I150000J0D01*
G01*
X111431500Y-67003000D01*
G75*
G02*
X111581500Y-67153000I0J-150000D01*
G01*
X111581500Y-67453000D01*
G75*
G02*
X111431500Y-67603000I-150000J0D01*
G01*
X110056500Y-67603000D01*
G75*
G02*
X109906500Y-67453000I0J150000D01*
G01*
G37*
G36*
G01*
X109906500Y-66803000D02*
X109906500Y-66503000D01*
G75*
G02*
X110056500Y-66353000I150000J0D01*
G01*
X111431500Y-66353000D01*
G75*
G02*
X111581500Y-66503000I0J-150000D01*
G01*
X111581500Y-66803000D01*
G75*
G02*
X111431500Y-66953000I-150000J0D01*
G01*
X110056500Y-66953000D01*
G75*
G02*
X109906500Y-66803000I0J150000D01*
G01*
G37*
G36*
G01*
X109906500Y-66153000D02*
X109906500Y-65853000D01*
G75*
G02*
X110056500Y-65703000I150000J0D01*
G01*
X111431500Y-65703000D01*
G75*
G02*
X111581500Y-65853000I0J-150000D01*
G01*
X111581500Y-66153000D01*
G75*
G02*
X111431500Y-66303000I-150000J0D01*
G01*
X110056500Y-66303000D01*
G75*
G02*
X109906500Y-66153000I0J150000D01*
G01*
G37*
G36*
G01*
X109906500Y-65503000D02*
X109906500Y-65203000D01*
G75*
G02*
X110056500Y-65053000I150000J0D01*
G01*
X111431500Y-65053000D01*
G75*
G02*
X111581500Y-65203000I0J-150000D01*
G01*
X111581500Y-65503000D01*
G75*
G02*
X111431500Y-65653000I-150000J0D01*
G01*
X110056500Y-65653000D01*
G75*
G02*
X109906500Y-65503000I0J150000D01*
G01*
G37*
G36*
G01*
X109906500Y-64853000D02*
X109906500Y-64553000D01*
G75*
G02*
X110056500Y-64403000I150000J0D01*
G01*
X111431500Y-64403000D01*
G75*
G02*
X111581500Y-64553000I0J-150000D01*
G01*
X111581500Y-64853000D01*
G75*
G02*
X111431500Y-65003000I-150000J0D01*
G01*
X110056500Y-65003000D01*
G75*
G02*
X109906500Y-64853000I0J150000D01*
G01*
G37*
G36*
G01*
X109906500Y-64203000D02*
X109906500Y-63903000D01*
G75*
G02*
X110056500Y-63753000I150000J0D01*
G01*
X111431500Y-63753000D01*
G75*
G02*
X111581500Y-63903000I0J-150000D01*
G01*
X111581500Y-64203000D01*
G75*
G02*
X111431500Y-64353000I-150000J0D01*
G01*
X110056500Y-64353000D01*
G75*
G02*
X109906500Y-64203000I0J150000D01*
G01*
G37*
G36*
G01*
X109906500Y-63553000D02*
X109906500Y-63253000D01*
G75*
G02*
X110056500Y-63103000I150000J0D01*
G01*
X111431500Y-63103000D01*
G75*
G02*
X111581500Y-63253000I0J-150000D01*
G01*
X111581500Y-63553000D01*
G75*
G02*
X111431500Y-63703000I-150000J0D01*
G01*
X110056500Y-63703000D01*
G75*
G02*
X109906500Y-63553000I0J150000D01*
G01*
G37*
G36*
G01*
X109906500Y-62903000D02*
X109906500Y-62603000D01*
G75*
G02*
X110056500Y-62453000I150000J0D01*
G01*
X111431500Y-62453000D01*
G75*
G02*
X111581500Y-62603000I0J-150000D01*
G01*
X111581500Y-62903000D01*
G75*
G02*
X111431500Y-63053000I-150000J0D01*
G01*
X110056500Y-63053000D01*
G75*
G02*
X109906500Y-62903000I0J150000D01*
G01*
G37*
G36*
G01*
X109906500Y-62253000D02*
X109906500Y-61953000D01*
G75*
G02*
X110056500Y-61803000I150000J0D01*
G01*
X111431500Y-61803000D01*
G75*
G02*
X111581500Y-61953000I0J-150000D01*
G01*
X111581500Y-62253000D01*
G75*
G02*
X111431500Y-62403000I-150000J0D01*
G01*
X110056500Y-62403000D01*
G75*
G02*
X109906500Y-62253000I0J150000D01*
G01*
G37*
G36*
G01*
X107132000Y-63533500D02*
X107132000Y-62958500D01*
G75*
G02*
X107419500Y-62671000I287500J0D01*
G01*
X108019500Y-62671000D01*
G75*
G02*
X108307000Y-62958500I0J-287500D01*
G01*
X108307000Y-63533500D01*
G75*
G02*
X108019500Y-63821000I-287500J0D01*
G01*
X107419500Y-63821000D01*
G75*
G02*
X107132000Y-63533500I0J287500D01*
G01*
G37*
G36*
G01*
X105307000Y-63533500D02*
X105307000Y-62958500D01*
G75*
G02*
X105594500Y-62671000I287500J0D01*
G01*
X106194500Y-62671000D01*
G75*
G02*
X106482000Y-62958500I0J-287500D01*
G01*
X106482000Y-63533500D01*
G75*
G02*
X106194500Y-63821000I-287500J0D01*
G01*
X105594500Y-63821000D01*
G75*
G02*
X105307000Y-63533500I0J287500D01*
G01*
G37*
G36*
G01*
X107132000Y-61882500D02*
X107132000Y-61307500D01*
G75*
G02*
X107419500Y-61020000I287500J0D01*
G01*
X108019500Y-61020000D01*
G75*
G02*
X108307000Y-61307500I0J-287500D01*
G01*
X108307000Y-61882500D01*
G75*
G02*
X108019500Y-62170000I-287500J0D01*
G01*
X107419500Y-62170000D01*
G75*
G02*
X107132000Y-61882500I0J287500D01*
G01*
G37*
G36*
G01*
X105307000Y-61882500D02*
X105307000Y-61307500D01*
G75*
G02*
X105594500Y-61020000I287500J0D01*
G01*
X106194500Y-61020000D01*
G75*
G02*
X106482000Y-61307500I0J-287500D01*
G01*
X106482000Y-61882500D01*
G75*
G02*
X106194500Y-62170000I-287500J0D01*
G01*
X105594500Y-62170000D01*
G75*
G02*
X105307000Y-61882500I0J287500D01*
G01*
G37*
G36*
G01*
X104681500Y-83622000D02*
X104106500Y-83622000D01*
G75*
G02*
X103819000Y-83334500I0J287500D01*
G01*
X103819000Y-82734500D01*
G75*
G02*
X104106500Y-82447000I287500J0D01*
G01*
X104681500Y-82447000D01*
G75*
G02*
X104969000Y-82734500I0J-287500D01*
G01*
X104969000Y-83334500D01*
G75*
G02*
X104681500Y-83622000I-287500J0D01*
G01*
G37*
G36*
G01*
X104681500Y-85447000D02*
X104106500Y-85447000D01*
G75*
G02*
X103819000Y-85159500I0J287500D01*
G01*
X103819000Y-84559500D01*
G75*
G02*
X104106500Y-84272000I287500J0D01*
G01*
X104681500Y-84272000D01*
G75*
G02*
X104969000Y-84559500I0J-287500D01*
G01*
X104969000Y-85159500D01*
G75*
G02*
X104681500Y-85447000I-287500J0D01*
G01*
G37*
G36*
G01*
X104427500Y-76359500D02*
X103852500Y-76359500D01*
G75*
G02*
X103565000Y-76072000I0J287500D01*
G01*
X103565000Y-75472000D01*
G75*
G02*
X103852500Y-75184500I287500J0D01*
G01*
X104427500Y-75184500D01*
G75*
G02*
X104715000Y-75472000I0J-287500D01*
G01*
X104715000Y-76072000D01*
G75*
G02*
X104427500Y-76359500I-287500J0D01*
G01*
G37*
G36*
G01*
X104427500Y-78184500D02*
X103852500Y-78184500D01*
G75*
G02*
X103565000Y-77897000I0J287500D01*
G01*
X103565000Y-77297000D01*
G75*
G02*
X103852500Y-77009500I287500J0D01*
G01*
X104427500Y-77009500D01*
G75*
G02*
X104715000Y-77297000I0J-287500D01*
G01*
X104715000Y-77897000D01*
G75*
G02*
X104427500Y-78184500I-287500J0D01*
G01*
G37*
G36*
G01*
X74620000Y-81694500D02*
X74620000Y-81119500D01*
G75*
G02*
X74907500Y-80832000I287500J0D01*
G01*
X75507500Y-80832000D01*
G75*
G02*
X75795000Y-81119500I0J-287500D01*
G01*
X75795000Y-81694500D01*
G75*
G02*
X75507500Y-81982000I-287500J0D01*
G01*
X74907500Y-81982000D01*
G75*
G02*
X74620000Y-81694500I0J287500D01*
G01*
G37*
G36*
G01*
X72795000Y-81694500D02*
X72795000Y-81119500D01*
G75*
G02*
X73082500Y-80832000I287500J0D01*
G01*
X73682500Y-80832000D01*
G75*
G02*
X73970000Y-81119500I0J-287500D01*
G01*
X73970000Y-81694500D01*
G75*
G02*
X73682500Y-81982000I-287500J0D01*
G01*
X73082500Y-81982000D01*
G75*
G02*
X72795000Y-81694500I0J287500D01*
G01*
G37*
G36*
G01*
X74620000Y-80043500D02*
X74620000Y-79468500D01*
G75*
G02*
X74907500Y-79181000I287500J0D01*
G01*
X75507500Y-79181000D01*
G75*
G02*
X75795000Y-79468500I0J-287500D01*
G01*
X75795000Y-80043500D01*
G75*
G02*
X75507500Y-80331000I-287500J0D01*
G01*
X74907500Y-80331000D01*
G75*
G02*
X74620000Y-80043500I0J287500D01*
G01*
G37*
G36*
G01*
X72795000Y-80043500D02*
X72795000Y-79468500D01*
G75*
G02*
X73082500Y-79181000I287500J0D01*
G01*
X73682500Y-79181000D01*
G75*
G02*
X73970000Y-79468500I0J-287500D01*
G01*
X73970000Y-80043500D01*
G75*
G02*
X73682500Y-80331000I-287500J0D01*
G01*
X73082500Y-80331000D01*
G75*
G02*
X72795000Y-80043500I0J287500D01*
G01*
G37*
G36*
G01*
X79685000Y-74642500D02*
X79685000Y-75217500D01*
G75*
G02*
X79397500Y-75505000I-287500J0D01*
G01*
X78797500Y-75505000D01*
G75*
G02*
X78510000Y-75217500I0J287500D01*
G01*
X78510000Y-74642500D01*
G75*
G02*
X78797500Y-74355000I287500J0D01*
G01*
X79397500Y-74355000D01*
G75*
G02*
X79685000Y-74642500I0J-287500D01*
G01*
G37*
G36*
G01*
X81510000Y-74642500D02*
X81510000Y-75217500D01*
G75*
G02*
X81222500Y-75505000I-287500J0D01*
G01*
X80622500Y-75505000D01*
G75*
G02*
X80335000Y-75217500I0J287500D01*
G01*
X80335000Y-74642500D01*
G75*
G02*
X80622500Y-74355000I287500J0D01*
G01*
X81222500Y-74355000D01*
G75*
G02*
X81510000Y-74642500I0J-287500D01*
G01*
G37*
G36*
G01*
X79685000Y-76293500D02*
X79685000Y-76868500D01*
G75*
G02*
X79397500Y-77156000I-287500J0D01*
G01*
X78797500Y-77156000D01*
G75*
G02*
X78510000Y-76868500I0J287500D01*
G01*
X78510000Y-76293500D01*
G75*
G02*
X78797500Y-76006000I287500J0D01*
G01*
X79397500Y-76006000D01*
G75*
G02*
X79685000Y-76293500I0J-287500D01*
G01*
G37*
G36*
G01*
X81510000Y-76293500D02*
X81510000Y-76868500D01*
G75*
G02*
X81222500Y-77156000I-287500J0D01*
G01*
X80622500Y-77156000D01*
G75*
G02*
X80335000Y-76868500I0J287500D01*
G01*
X80335000Y-76293500D01*
G75*
G02*
X80622500Y-76006000I287500J0D01*
G01*
X81222500Y-76006000D01*
G75*
G02*
X81510000Y-76293500I0J-287500D01*
G01*
G37*
G36*
G01*
X80335000Y-78519500D02*
X80335000Y-77944500D01*
G75*
G02*
X80622500Y-77657000I287500J0D01*
G01*
X81222500Y-77657000D01*
G75*
G02*
X81510000Y-77944500I0J-287500D01*
G01*
X81510000Y-78519500D01*
G75*
G02*
X81222500Y-78807000I-287500J0D01*
G01*
X80622500Y-78807000D01*
G75*
G02*
X80335000Y-78519500I0J287500D01*
G01*
G37*
G36*
G01*
X78510000Y-78519500D02*
X78510000Y-77944500D01*
G75*
G02*
X78797500Y-77657000I287500J0D01*
G01*
X79397500Y-77657000D01*
G75*
G02*
X79685000Y-77944500I0J-287500D01*
G01*
X79685000Y-78519500D01*
G75*
G02*
X79397500Y-78807000I-287500J0D01*
G01*
X78797500Y-78807000D01*
G75*
G02*
X78510000Y-78519500I0J287500D01*
G01*
G37*
G36*
G01*
X74097000Y-74388500D02*
X74097000Y-74963500D01*
G75*
G02*
X73809500Y-75251000I-287500J0D01*
G01*
X73209500Y-75251000D01*
G75*
G02*
X72922000Y-74963500I0J287500D01*
G01*
X72922000Y-74388500D01*
G75*
G02*
X73209500Y-74101000I287500J0D01*
G01*
X73809500Y-74101000D01*
G75*
G02*
X74097000Y-74388500I0J-287500D01*
G01*
G37*
G36*
G01*
X75922000Y-74388500D02*
X75922000Y-74963500D01*
G75*
G02*
X75634500Y-75251000I-287500J0D01*
G01*
X75034500Y-75251000D01*
G75*
G02*
X74747000Y-74963500I0J287500D01*
G01*
X74747000Y-74388500D01*
G75*
G02*
X75034500Y-74101000I287500J0D01*
G01*
X75634500Y-74101000D01*
G75*
G02*
X75922000Y-74388500I0J-287500D01*
G01*
G37*
D17*
X99695000Y-73660000D03*
X99695000Y-71120000D03*
X99695000Y-68580000D03*
G36*
G01*
X98778734Y-65070000D02*
X100611266Y-65070000D01*
G75*
G02*
X100890000Y-65348734I0J-278734D01*
G01*
X100890000Y-66731266D01*
G75*
G02*
X100611266Y-67010000I-278734J0D01*
G01*
X98778734Y-67010000D01*
G75*
G02*
X98500000Y-66731266I0J278734D01*
G01*
X98500000Y-65348734D01*
G75*
G02*
X98778734Y-65070000I278734J0D01*
G01*
G37*
D15*
X124460000Y-77470000D03*
X121920000Y-77470000D03*
X124460000Y-74930000D03*
X121920000Y-74930000D03*
X124460000Y-72390000D03*
X121920000Y-72390000D03*
X124460000Y-69850000D03*
X121920000Y-69850000D03*
X124460000Y-67310000D03*
X121920000Y-67310000D03*
X124460000Y-64770000D03*
X121920000Y-64770000D03*
X124460000Y-62230000D03*
G36*
G01*
X120970000Y-63080000D02*
X120970000Y-61380000D01*
G75*
G02*
X121070000Y-61280000I100000J0D01*
G01*
X122770000Y-61280000D01*
G75*
G02*
X122870000Y-61380000I0J-100000D01*
G01*
X122870000Y-63080000D01*
G75*
G02*
X122770000Y-63180000I-100000J0D01*
G01*
X121070000Y-63180000D01*
G75*
G02*
X120970000Y-63080000I0J100000D01*
G01*
G37*
G36*
G01*
X89595000Y-72760000D02*
X89595000Y-72020000D01*
G75*
G02*
X89695000Y-71920000I100000J0D01*
G01*
X92095000Y-71920000D01*
G75*
G02*
X92195000Y-72020000I0J-100000D01*
G01*
X92195000Y-72760000D01*
G75*
G02*
X92095000Y-72860000I-100000J0D01*
G01*
X89695000Y-72860000D01*
G75*
G02*
X89595000Y-72760000I0J100000D01*
G01*
G37*
G36*
G01*
X85695000Y-72760000D02*
X85695000Y-72020000D01*
G75*
G02*
X85795000Y-71920000I100000J0D01*
G01*
X88195000Y-71920000D01*
G75*
G02*
X88295000Y-72020000I0J-100000D01*
G01*
X88295000Y-72760000D01*
G75*
G02*
X88195000Y-72860000I-100000J0D01*
G01*
X85795000Y-72860000D01*
G75*
G02*
X85695000Y-72760000I0J100000D01*
G01*
G37*
G36*
G01*
X89595000Y-71490000D02*
X89595000Y-70750000D01*
G75*
G02*
X89695000Y-70650000I100000J0D01*
G01*
X92095000Y-70650000D01*
G75*
G02*
X92195000Y-70750000I0J-100000D01*
G01*
X92195000Y-71490000D01*
G75*
G02*
X92095000Y-71590000I-100000J0D01*
G01*
X89695000Y-71590000D01*
G75*
G02*
X89595000Y-71490000I0J100000D01*
G01*
G37*
G36*
G01*
X85695000Y-71490000D02*
X85695000Y-70750000D01*
G75*
G02*
X85795000Y-70650000I100000J0D01*
G01*
X88195000Y-70650000D01*
G75*
G02*
X88295000Y-70750000I0J-100000D01*
G01*
X88295000Y-71490000D01*
G75*
G02*
X88195000Y-71590000I-100000J0D01*
G01*
X85795000Y-71590000D01*
G75*
G02*
X85695000Y-71490000I0J100000D01*
G01*
G37*
G36*
G01*
X89595000Y-70220000D02*
X89595000Y-69480000D01*
G75*
G02*
X89695000Y-69380000I100000J0D01*
G01*
X92095000Y-69380000D01*
G75*
G02*
X92195000Y-69480000I0J-100000D01*
G01*
X92195000Y-70220000D01*
G75*
G02*
X92095000Y-70320000I-100000J0D01*
G01*
X89695000Y-70320000D01*
G75*
G02*
X89595000Y-70220000I0J100000D01*
G01*
G37*
G36*
G01*
X85695000Y-70220000D02*
X85695000Y-69480000D01*
G75*
G02*
X85795000Y-69380000I100000J0D01*
G01*
X88195000Y-69380000D01*
G75*
G02*
X88295000Y-69480000I0J-100000D01*
G01*
X88295000Y-70220000D01*
G75*
G02*
X88195000Y-70320000I-100000J0D01*
G01*
X85795000Y-70320000D01*
G75*
G02*
X85695000Y-70220000I0J100000D01*
G01*
G37*
G36*
G01*
X89595000Y-68950000D02*
X89595000Y-68210000D01*
G75*
G02*
X89695000Y-68110000I100000J0D01*
G01*
X92095000Y-68110000D01*
G75*
G02*
X92195000Y-68210000I0J-100000D01*
G01*
X92195000Y-68950000D01*
G75*
G02*
X92095000Y-69050000I-100000J0D01*
G01*
X89695000Y-69050000D01*
G75*
G02*
X89595000Y-68950000I0J100000D01*
G01*
G37*
G36*
G01*
X85695000Y-68950000D02*
X85695000Y-68210000D01*
G75*
G02*
X85795000Y-68110000I100000J0D01*
G01*
X88195000Y-68110000D01*
G75*
G02*
X88295000Y-68210000I0J-100000D01*
G01*
X88295000Y-68950000D01*
G75*
G02*
X88195000Y-69050000I-100000J0D01*
G01*
X85795000Y-69050000D01*
G75*
G02*
X85695000Y-68950000I0J100000D01*
G01*
G37*
G36*
G01*
X89595000Y-67680000D02*
X89595000Y-66940000D01*
G75*
G02*
X89695000Y-66840000I100000J0D01*
G01*
X92095000Y-66840000D01*
G75*
G02*
X92195000Y-66940000I0J-100000D01*
G01*
X92195000Y-67680000D01*
G75*
G02*
X92095000Y-67780000I-100000J0D01*
G01*
X89695000Y-67780000D01*
G75*
G02*
X89595000Y-67680000I0J100000D01*
G01*
G37*
G36*
G01*
X85695000Y-67680000D02*
X85695000Y-66940000D01*
G75*
G02*
X85795000Y-66840000I100000J0D01*
G01*
X88195000Y-66840000D01*
G75*
G02*
X88295000Y-66940000I0J-100000D01*
G01*
X88295000Y-67680000D01*
G75*
G02*
X88195000Y-67780000I-100000J0D01*
G01*
X85795000Y-67780000D01*
G75*
G02*
X85695000Y-67680000I0J100000D01*
G01*
G37*
G36*
G01*
X68316000Y-80992500D02*
X68316000Y-81567500D01*
G75*
G02*
X68028500Y-81855000I-287500J0D01*
G01*
X67353500Y-81855000D01*
G75*
G02*
X67066000Y-81567500I0J287500D01*
G01*
X67066000Y-80992500D01*
G75*
G02*
X67353500Y-80705000I287500J0D01*
G01*
X68028500Y-80705000D01*
G75*
G02*
X68316000Y-80992500I0J-287500D01*
G01*
G37*
G36*
G01*
X70066000Y-80992500D02*
X70066000Y-81567500D01*
G75*
G02*
X69778500Y-81855000I-287500J0D01*
G01*
X69103500Y-81855000D01*
G75*
G02*
X68816000Y-81567500I0J287500D01*
G01*
X68816000Y-80992500D01*
G75*
G02*
X69103500Y-80705000I287500J0D01*
G01*
X69778500Y-80705000D01*
G75*
G02*
X70066000Y-80992500I0J-287500D01*
G01*
G37*
G36*
G01*
X68316000Y-79468500D02*
X68316000Y-80043500D01*
G75*
G02*
X68028500Y-80331000I-287500J0D01*
G01*
X67353500Y-80331000D01*
G75*
G02*
X67066000Y-80043500I0J287500D01*
G01*
X67066000Y-79468500D01*
G75*
G02*
X67353500Y-79181000I287500J0D01*
G01*
X68028500Y-79181000D01*
G75*
G02*
X68316000Y-79468500I0J-287500D01*
G01*
G37*
G36*
G01*
X70066000Y-79468500D02*
X70066000Y-80043500D01*
G75*
G02*
X69778500Y-80331000I-287500J0D01*
G01*
X69103500Y-80331000D01*
G75*
G02*
X68816000Y-80043500I0J287500D01*
G01*
X68816000Y-79468500D01*
G75*
G02*
X69103500Y-79181000I287500J0D01*
G01*
X69778500Y-79181000D01*
G75*
G02*
X70066000Y-79468500I0J-287500D01*
G01*
G37*
G36*
G01*
X92041500Y-57248000D02*
X92616500Y-57248000D01*
G75*
G02*
X92904000Y-57535500I0J-287500D01*
G01*
X92904000Y-58235500D01*
G75*
G02*
X92616500Y-58523000I-287500J0D01*
G01*
X92041500Y-58523000D01*
G75*
G02*
X91754000Y-58235500I0J287500D01*
G01*
X91754000Y-57535500D01*
G75*
G02*
X92041500Y-57248000I287500J0D01*
G01*
G37*
G36*
G01*
X92041500Y-55523000D02*
X92616500Y-55523000D01*
G75*
G02*
X92904000Y-55810500I0J-287500D01*
G01*
X92904000Y-56510500D01*
G75*
G02*
X92616500Y-56798000I-287500J0D01*
G01*
X92041500Y-56798000D01*
G75*
G02*
X91754000Y-56510500I0J287500D01*
G01*
X91754000Y-55810500D01*
G75*
G02*
X92041500Y-55523000I287500J0D01*
G01*
G37*
G36*
G01*
X107032000Y-60231500D02*
X107032000Y-59656500D01*
G75*
G02*
X107319500Y-59369000I287500J0D01*
G01*
X108019500Y-59369000D01*
G75*
G02*
X108307000Y-59656500I0J-287500D01*
G01*
X108307000Y-60231500D01*
G75*
G02*
X108019500Y-60519000I-287500J0D01*
G01*
X107319500Y-60519000D01*
G75*
G02*
X107032000Y-60231500I0J287500D01*
G01*
G37*
G36*
G01*
X105307000Y-60231500D02*
X105307000Y-59656500D01*
G75*
G02*
X105594500Y-59369000I287500J0D01*
G01*
X106294500Y-59369000D01*
G75*
G02*
X106582000Y-59656500I0J-287500D01*
G01*
X106582000Y-60231500D01*
G75*
G02*
X106294500Y-60519000I-287500J0D01*
G01*
X105594500Y-60519000D01*
G75*
G02*
X105307000Y-60231500I0J287500D01*
G01*
G37*
G36*
G01*
X79087500Y-64106000D02*
X79662500Y-64106000D01*
G75*
G02*
X79950000Y-64393500I0J-287500D01*
G01*
X79950000Y-65093500D01*
G75*
G02*
X79662500Y-65381000I-287500J0D01*
G01*
X79087500Y-65381000D01*
G75*
G02*
X78800000Y-65093500I0J287500D01*
G01*
X78800000Y-64393500D01*
G75*
G02*
X79087500Y-64106000I287500J0D01*
G01*
G37*
G36*
G01*
X79087500Y-62381000D02*
X79662500Y-62381000D01*
G75*
G02*
X79950000Y-62668500I0J-287500D01*
G01*
X79950000Y-63368500D01*
G75*
G02*
X79662500Y-63656000I-287500J0D01*
G01*
X79087500Y-63656000D01*
G75*
G02*
X78800000Y-63368500I0J287500D01*
G01*
X78800000Y-62668500D01*
G75*
G02*
X79087500Y-62381000I287500J0D01*
G01*
G37*
G36*
G01*
X71153500Y-61497000D02*
X70578500Y-61497000D01*
G75*
G02*
X70291000Y-61209500I0J287500D01*
G01*
X70291000Y-60509500D01*
G75*
G02*
X70578500Y-60222000I287500J0D01*
G01*
X71153500Y-60222000D01*
G75*
G02*
X71441000Y-60509500I0J-287500D01*
G01*
X71441000Y-61209500D01*
G75*
G02*
X71153500Y-61497000I-287500J0D01*
G01*
G37*
G36*
G01*
X71153500Y-63222000D02*
X70578500Y-63222000D01*
G75*
G02*
X70291000Y-62934500I0J287500D01*
G01*
X70291000Y-62234500D01*
G75*
G02*
X70578500Y-61947000I287500J0D01*
G01*
X71153500Y-61947000D01*
G75*
G02*
X71441000Y-62234500I0J-287500D01*
G01*
X71441000Y-62934500D01*
G75*
G02*
X71153500Y-63222000I-287500J0D01*
G01*
G37*
M02*
