G04 #@! TF.GenerationSoftware,KiCad,Pcbnew,(5.1.10)-1*
G04 #@! TF.CreationDate,2021-07-15T21:28:37+02:00*
G04 #@! TF.ProjectId,MSPBMP,4d535042-4d50-42e6-9b69-6361645f7063,rev?*
G04 #@! TF.SameCoordinates,Original*
G04 #@! TF.FileFunction,Profile,NP*
%FSLAX46Y46*%
G04 Gerber Fmt 4.6, Leading zero omitted, Abs format (unit mm)*
G04 Created by KiCad (PCBNEW (5.1.10)-1) date 2021-07-15 21:28:37*
%MOMM*%
%LPD*%
G01*
G04 APERTURE LIST*
G04 #@! TA.AperFunction,Profile*
%ADD10C,0.050000*%
G04 #@! TD*
G04 APERTURE END LIST*
D10*
X64262000Y-79756000D02*
X64770000Y-82550000D01*
X65405000Y-79756000D02*
X64262000Y-79756000D01*
X65405000Y-77978000D02*
X65405000Y-79756000D01*
X64008000Y-77978000D02*
X65405000Y-77978000D01*
X64262000Y-59944000D02*
X64770000Y-57150000D01*
X65405000Y-59944000D02*
X64262000Y-59944000D01*
X65405000Y-61722000D02*
X65405000Y-59944000D01*
X64008000Y-61722000D02*
X65405000Y-61722000D01*
X136398000Y-79756000D02*
X135890000Y-82550000D01*
X135255000Y-79756000D02*
X136398000Y-79756000D01*
X135255000Y-77978000D02*
X135255000Y-79756000D01*
X136652000Y-77978000D02*
X135255000Y-77978000D01*
X135890000Y-57150000D02*
X136398000Y-59944000D01*
X135255000Y-59944000D02*
X136398000Y-59944000D01*
X135255000Y-61722000D02*
X135255000Y-59944000D01*
X136652000Y-61722000D02*
X135255000Y-61722000D01*
X137160000Y-64262000D02*
X136652000Y-61722000D01*
X66040000Y-55880000D02*
X76200000Y-53340000D01*
X64770000Y-57150000D02*
X66040000Y-55880000D01*
X135890000Y-57150000D02*
X134620000Y-55880000D01*
X134620000Y-83820000D02*
X135890000Y-82550000D01*
X66040000Y-83820000D02*
X64770000Y-82550000D01*
X76200000Y-86360000D02*
X66040000Y-83820000D01*
X125730000Y-86360000D02*
X134620000Y-83820000D01*
X134620000Y-55880000D02*
X125730000Y-53340000D01*
X88900000Y-88900000D02*
X76200000Y-86360000D01*
X111760000Y-88900000D02*
X125730000Y-86360000D01*
X64008000Y-77978000D02*
X63500000Y-75438000D01*
X63500000Y-64262000D02*
X64008000Y-61722000D01*
X88900000Y-50800000D02*
X76200000Y-53340000D01*
X125730000Y-53340000D02*
X111760000Y-50800000D01*
X136652000Y-77978000D02*
X137160000Y-75438000D01*
X63500000Y-75438000D02*
X63500000Y-64262000D01*
X111760000Y-88900000D02*
X88900000Y-88900000D01*
X137160000Y-64262000D02*
X137160000Y-75438000D01*
X88900000Y-50800000D02*
X111760000Y-50800000D01*
M02*
