G04 #@! TF.GenerationSoftware,KiCad,Pcbnew,(5.1.10)-1*
G04 #@! TF.CreationDate,2021-06-16T11:20:36+02:00*
G04 #@! TF.ProjectId,MSPBMP,4d535042-4d50-42e6-9b69-6361645f7063,rev?*
G04 #@! TF.SameCoordinates,Original*
G04 #@! TF.FileFunction,Soldermask,Bot*
G04 #@! TF.FilePolarity,Negative*
%FSLAX46Y46*%
G04 Gerber Fmt 4.6, Leading zero omitted, Abs format (unit mm)*
G04 Created by KiCad (PCBNEW (5.1.10)-1) date 2021-06-16 11:20:36*
%MOMM*%
%LPD*%
G01*
G04 APERTURE LIST*
%ADD10C,1.200000*%
%ADD11O,1.900000X1.900000*%
%ADD12C,4.200000*%
%ADD13O,2.390000X1.940000*%
G04 APERTURE END LIST*
D10*
X67818000Y-72050000D03*
X67818000Y-67650000D03*
D11*
X109855000Y-53340000D03*
X107315000Y-53340000D03*
X104775000Y-53340000D03*
X102235000Y-53340000D03*
G36*
G01*
X100545000Y-54290000D02*
X98845000Y-54290000D01*
G75*
G02*
X98745000Y-54190000I0J100000D01*
G01*
X98745000Y-52490000D01*
G75*
G02*
X98845000Y-52390000I100000J0D01*
G01*
X100545000Y-52390000D01*
G75*
G02*
X100645000Y-52490000I0J-100000D01*
G01*
X100645000Y-54190000D01*
G75*
G02*
X100545000Y-54290000I-100000J0D01*
G01*
G37*
D12*
X132715000Y-69850000D03*
X80010000Y-69850000D03*
D13*
X99695000Y-73660000D03*
X99695000Y-71120000D03*
X99695000Y-68580000D03*
G36*
G01*
X98778734Y-65070000D02*
X100611266Y-65070000D01*
G75*
G02*
X100890000Y-65348734I0J-278734D01*
G01*
X100890000Y-66731266D01*
G75*
G02*
X100611266Y-67010000I-278734J0D01*
G01*
X98778734Y-67010000D01*
G75*
G02*
X98500000Y-66731266I0J278734D01*
G01*
X98500000Y-65348734D01*
G75*
G02*
X98778734Y-65070000I278734J0D01*
G01*
G37*
D11*
X124460000Y-77470000D03*
X121920000Y-77470000D03*
X124460000Y-74930000D03*
X121920000Y-74930000D03*
X124460000Y-72390000D03*
X121920000Y-72390000D03*
X124460000Y-69850000D03*
X121920000Y-69850000D03*
X124460000Y-67310000D03*
X121920000Y-67310000D03*
X124460000Y-64770000D03*
X121920000Y-64770000D03*
X124460000Y-62230000D03*
G36*
G01*
X120970000Y-63080000D02*
X120970000Y-61380000D01*
G75*
G02*
X121070000Y-61280000I100000J0D01*
G01*
X122770000Y-61280000D01*
G75*
G02*
X122870000Y-61380000I0J-100000D01*
G01*
X122870000Y-63080000D01*
G75*
G02*
X122770000Y-63180000I-100000J0D01*
G01*
X121070000Y-63180000D01*
G75*
G02*
X120970000Y-63080000I0J100000D01*
G01*
G37*
M02*
