G04 #@! TF.GenerationSoftware,KiCad,Pcbnew,(5.1.10)-1*
G04 #@! TF.CreationDate,2021-06-16T11:20:36+02:00*
G04 #@! TF.ProjectId,MSPBMP,4d535042-4d50-42e6-9b69-6361645f7063,rev?*
G04 #@! TF.SameCoordinates,Original*
G04 #@! TF.FileFunction,Soldermask,Top*
G04 #@! TF.FilePolarity,Negative*
%FSLAX46Y46*%
G04 Gerber Fmt 4.6, Leading zero omitted, Abs format (unit mm)*
G04 Created by KiCad (PCBNEW (5.1.10)-1) date 2021-06-16 11:20:36*
%MOMM*%
%LPD*%
G01*
G04 APERTURE LIST*
%ADD10C,1.200000*%
%ADD11O,1.900000X1.900000*%
%ADD12C,4.200000*%
%ADD13O,2.390000X1.940000*%
%ADD14C,0.150000*%
G04 APERTURE END LIST*
D10*
X67818000Y-72050000D03*
X67818000Y-67650000D03*
G36*
G01*
X64118000Y-73200000D02*
X65818000Y-73200000D01*
G75*
G02*
X65918000Y-73300000I0J-100000D01*
G01*
X65918000Y-75300000D01*
G75*
G02*
X65818000Y-75400000I-100000J0D01*
G01*
X64118000Y-75400000D01*
G75*
G02*
X64018000Y-75300000I0J100000D01*
G01*
X64018000Y-73300000D01*
G75*
G02*
X64118000Y-73200000I100000J0D01*
G01*
G37*
G36*
G01*
X69568000Y-73200000D02*
X71268000Y-73200000D01*
G75*
G02*
X71368000Y-73300000I0J-100000D01*
G01*
X71368000Y-75300000D01*
G75*
G02*
X71268000Y-75400000I-100000J0D01*
G01*
X69568000Y-75400000D01*
G75*
G02*
X69468000Y-75300000I0J100000D01*
G01*
X69468000Y-73300000D01*
G75*
G02*
X69568000Y-73200000I100000J0D01*
G01*
G37*
G36*
G01*
X64118000Y-64300000D02*
X65818000Y-64300000D01*
G75*
G02*
X65918000Y-64400000I0J-100000D01*
G01*
X65918000Y-66400000D01*
G75*
G02*
X65818000Y-66500000I-100000J0D01*
G01*
X64118000Y-66500000D01*
G75*
G02*
X64018000Y-66400000I0J100000D01*
G01*
X64018000Y-64400000D01*
G75*
G02*
X64118000Y-64300000I100000J0D01*
G01*
G37*
G36*
G01*
X69568000Y-64300000D02*
X71268000Y-64300000D01*
G75*
G02*
X71368000Y-64400000I0J-100000D01*
G01*
X71368000Y-66400000D01*
G75*
G02*
X71268000Y-66500000I-100000J0D01*
G01*
X69568000Y-66500000D01*
G75*
G02*
X69468000Y-66400000I0J100000D01*
G01*
X69468000Y-64400000D01*
G75*
G02*
X69568000Y-64300000I100000J0D01*
G01*
G37*
G36*
G01*
X69518000Y-71100000D02*
X71518000Y-71100000D01*
G75*
G02*
X71618000Y-71200000I0J-100000D01*
G01*
X71618000Y-71700000D01*
G75*
G02*
X71518000Y-71800000I-100000J0D01*
G01*
X69518000Y-71800000D01*
G75*
G02*
X69418000Y-71700000I0J100000D01*
G01*
X69418000Y-71200000D01*
G75*
G02*
X69518000Y-71100000I100000J0D01*
G01*
G37*
G36*
G01*
X69518000Y-70300000D02*
X71518000Y-70300000D01*
G75*
G02*
X71618000Y-70400000I0J-100000D01*
G01*
X71618000Y-70900000D01*
G75*
G02*
X71518000Y-71000000I-100000J0D01*
G01*
X69518000Y-71000000D01*
G75*
G02*
X69418000Y-70900000I0J100000D01*
G01*
X69418000Y-70400000D01*
G75*
G02*
X69518000Y-70300000I100000J0D01*
G01*
G37*
G36*
G01*
X69518000Y-69500000D02*
X71518000Y-69500000D01*
G75*
G02*
X71618000Y-69600000I0J-100000D01*
G01*
X71618000Y-70100000D01*
G75*
G02*
X71518000Y-70200000I-100000J0D01*
G01*
X69518000Y-70200000D01*
G75*
G02*
X69418000Y-70100000I0J100000D01*
G01*
X69418000Y-69600000D01*
G75*
G02*
X69518000Y-69500000I100000J0D01*
G01*
G37*
G36*
G01*
X69518000Y-68700000D02*
X71518000Y-68700000D01*
G75*
G02*
X71618000Y-68800000I0J-100000D01*
G01*
X71618000Y-69300000D01*
G75*
G02*
X71518000Y-69400000I-100000J0D01*
G01*
X69518000Y-69400000D01*
G75*
G02*
X69418000Y-69300000I0J100000D01*
G01*
X69418000Y-68800000D01*
G75*
G02*
X69518000Y-68700000I100000J0D01*
G01*
G37*
G36*
G01*
X69518000Y-67900000D02*
X71518000Y-67900000D01*
G75*
G02*
X71618000Y-68000000I0J-100000D01*
G01*
X71618000Y-68500000D01*
G75*
G02*
X71518000Y-68600000I-100000J0D01*
G01*
X69518000Y-68600000D01*
G75*
G02*
X69418000Y-68500000I0J100000D01*
G01*
X69418000Y-68000000D01*
G75*
G02*
X69518000Y-67900000I100000J0D01*
G01*
G37*
G36*
G01*
X96282000Y-83128000D02*
X96282000Y-85528000D01*
G75*
G02*
X96182000Y-85628000I-100000J0D01*
G01*
X94282000Y-85628000D01*
G75*
G02*
X94182000Y-85528000I0J100000D01*
G01*
X94182000Y-83128000D01*
G75*
G02*
X94282000Y-83028000I100000J0D01*
G01*
X96182000Y-83028000D01*
G75*
G02*
X96282000Y-83128000I0J-100000D01*
G01*
G37*
G36*
G01*
X100382000Y-83128000D02*
X100382000Y-85528000D01*
G75*
G02*
X100282000Y-85628000I-100000J0D01*
G01*
X98382000Y-85628000D01*
G75*
G02*
X98282000Y-85528000I0J100000D01*
G01*
X98282000Y-83128000D01*
G75*
G02*
X98382000Y-83028000I100000J0D01*
G01*
X100282000Y-83028000D01*
G75*
G02*
X100382000Y-83128000I0J-100000D01*
G01*
G37*
G36*
G01*
X93189000Y-76741500D02*
X93189000Y-76166500D01*
G75*
G02*
X93476500Y-75879000I287500J0D01*
G01*
X94176500Y-75879000D01*
G75*
G02*
X94464000Y-76166500I0J-287500D01*
G01*
X94464000Y-76741500D01*
G75*
G02*
X94176500Y-77029000I-287500J0D01*
G01*
X93476500Y-77029000D01*
G75*
G02*
X93189000Y-76741500I0J287500D01*
G01*
G37*
G36*
G01*
X91464000Y-76741500D02*
X91464000Y-76166500D01*
G75*
G02*
X91751500Y-75879000I287500J0D01*
G01*
X92451500Y-75879000D01*
G75*
G02*
X92739000Y-76166500I0J-287500D01*
G01*
X92739000Y-76741500D01*
G75*
G02*
X92451500Y-77029000I-287500J0D01*
G01*
X91751500Y-77029000D01*
G75*
G02*
X91464000Y-76741500I0J287500D01*
G01*
G37*
G36*
G01*
X93189000Y-75090500D02*
X93189000Y-74515500D01*
G75*
G02*
X93476500Y-74228000I287500J0D01*
G01*
X94176500Y-74228000D01*
G75*
G02*
X94464000Y-74515500I0J-287500D01*
G01*
X94464000Y-75090500D01*
G75*
G02*
X94176500Y-75378000I-287500J0D01*
G01*
X93476500Y-75378000D01*
G75*
G02*
X93189000Y-75090500I0J287500D01*
G01*
G37*
G36*
G01*
X91464000Y-75090500D02*
X91464000Y-74515500D01*
G75*
G02*
X91751500Y-74228000I287500J0D01*
G01*
X92451500Y-74228000D01*
G75*
G02*
X92739000Y-74515500I0J-287500D01*
G01*
X92739000Y-75090500D01*
G75*
G02*
X92451500Y-75378000I-287500J0D01*
G01*
X91751500Y-75378000D01*
G75*
G02*
X91464000Y-75090500I0J287500D01*
G01*
G37*
G36*
G01*
X87659000Y-79341500D02*
X87659000Y-79916500D01*
G75*
G02*
X87371500Y-80204000I-287500J0D01*
G01*
X86671500Y-80204000D01*
G75*
G02*
X86384000Y-79916500I0J287500D01*
G01*
X86384000Y-79341500D01*
G75*
G02*
X86671500Y-79054000I287500J0D01*
G01*
X87371500Y-79054000D01*
G75*
G02*
X87659000Y-79341500I0J-287500D01*
G01*
G37*
G36*
G01*
X89384000Y-79341500D02*
X89384000Y-79916500D01*
G75*
G02*
X89096500Y-80204000I-287500J0D01*
G01*
X88396500Y-80204000D01*
G75*
G02*
X88109000Y-79916500I0J287500D01*
G01*
X88109000Y-79341500D01*
G75*
G02*
X88396500Y-79054000I287500J0D01*
G01*
X89096500Y-79054000D01*
G75*
G02*
X89384000Y-79341500I0J-287500D01*
G01*
G37*
G36*
G01*
X113340000Y-57243500D02*
X113340000Y-57818500D01*
G75*
G02*
X113052500Y-58106000I-287500J0D01*
G01*
X112452500Y-58106000D01*
G75*
G02*
X112165000Y-57818500I0J287500D01*
G01*
X112165000Y-57243500D01*
G75*
G02*
X112452500Y-56956000I287500J0D01*
G01*
X113052500Y-56956000D01*
G75*
G02*
X113340000Y-57243500I0J-287500D01*
G01*
G37*
G36*
G01*
X115165000Y-57243500D02*
X115165000Y-57818500D01*
G75*
G02*
X114877500Y-58106000I-287500J0D01*
G01*
X114277500Y-58106000D01*
G75*
G02*
X113990000Y-57818500I0J287500D01*
G01*
X113990000Y-57243500D01*
G75*
G02*
X114277500Y-56956000I287500J0D01*
G01*
X114877500Y-56956000D01*
G75*
G02*
X115165000Y-57243500I0J-287500D01*
G01*
G37*
D11*
X109855000Y-53340000D03*
X107315000Y-53340000D03*
X104775000Y-53340000D03*
X102235000Y-53340000D03*
G36*
G01*
X100545000Y-54290000D02*
X98845000Y-54290000D01*
G75*
G02*
X98745000Y-54190000I0J100000D01*
G01*
X98745000Y-52490000D01*
G75*
G02*
X98845000Y-52390000I100000J0D01*
G01*
X100545000Y-52390000D01*
G75*
G02*
X100645000Y-52490000I0J-100000D01*
G01*
X100645000Y-54190000D01*
G75*
G02*
X100545000Y-54290000I-100000J0D01*
G01*
G37*
G36*
G01*
X108297500Y-86304000D02*
X108872500Y-86304000D01*
G75*
G02*
X109160000Y-86591500I0J-287500D01*
G01*
X109160000Y-87191500D01*
G75*
G02*
X108872500Y-87479000I-287500J0D01*
G01*
X108297500Y-87479000D01*
G75*
G02*
X108010000Y-87191500I0J287500D01*
G01*
X108010000Y-86591500D01*
G75*
G02*
X108297500Y-86304000I287500J0D01*
G01*
G37*
G36*
G01*
X108297500Y-84479000D02*
X108872500Y-84479000D01*
G75*
G02*
X109160000Y-84766500I0J-287500D01*
G01*
X109160000Y-85366500D01*
G75*
G02*
X108872500Y-85654000I-287500J0D01*
G01*
X108297500Y-85654000D01*
G75*
G02*
X108010000Y-85366500I0J287500D01*
G01*
X108010000Y-84766500D01*
G75*
G02*
X108297500Y-84479000I287500J0D01*
G01*
G37*
G36*
G01*
X109948500Y-86204000D02*
X110523500Y-86204000D01*
G75*
G02*
X110811000Y-86491500I0J-287500D01*
G01*
X110811000Y-87191500D01*
G75*
G02*
X110523500Y-87479000I-287500J0D01*
G01*
X109948500Y-87479000D01*
G75*
G02*
X109661000Y-87191500I0J287500D01*
G01*
X109661000Y-86491500D01*
G75*
G02*
X109948500Y-86204000I287500J0D01*
G01*
G37*
G36*
G01*
X109948500Y-84479000D02*
X110523500Y-84479000D01*
G75*
G02*
X110811000Y-84766500I0J-287500D01*
G01*
X110811000Y-85466500D01*
G75*
G02*
X110523500Y-85754000I-287500J0D01*
G01*
X109948500Y-85754000D01*
G75*
G02*
X109661000Y-85466500I0J287500D01*
G01*
X109661000Y-84766500D01*
G75*
G02*
X109948500Y-84479000I287500J0D01*
G01*
G37*
G36*
G01*
X113736000Y-85758500D02*
X113736000Y-85183500D01*
G75*
G02*
X114023500Y-84896000I287500J0D01*
G01*
X114623500Y-84896000D01*
G75*
G02*
X114911000Y-85183500I0J-287500D01*
G01*
X114911000Y-85758500D01*
G75*
G02*
X114623500Y-86046000I-287500J0D01*
G01*
X114023500Y-86046000D01*
G75*
G02*
X113736000Y-85758500I0J287500D01*
G01*
G37*
G36*
G01*
X111911000Y-85758500D02*
X111911000Y-85183500D01*
G75*
G02*
X112198500Y-84896000I287500J0D01*
G01*
X112798500Y-84896000D01*
G75*
G02*
X113086000Y-85183500I0J-287500D01*
G01*
X113086000Y-85758500D01*
G75*
G02*
X112798500Y-86046000I-287500J0D01*
G01*
X112198500Y-86046000D01*
G75*
G02*
X111911000Y-85758500I0J287500D01*
G01*
G37*
G36*
G01*
X113736000Y-87282500D02*
X113736000Y-86707500D01*
G75*
G02*
X114023500Y-86420000I287500J0D01*
G01*
X114623500Y-86420000D01*
G75*
G02*
X114911000Y-86707500I0J-287500D01*
G01*
X114911000Y-87282500D01*
G75*
G02*
X114623500Y-87570000I-287500J0D01*
G01*
X114023500Y-87570000D01*
G75*
G02*
X113736000Y-87282500I0J287500D01*
G01*
G37*
G36*
G01*
X111911000Y-87282500D02*
X111911000Y-86707500D01*
G75*
G02*
X112198500Y-86420000I287500J0D01*
G01*
X112798500Y-86420000D01*
G75*
G02*
X113086000Y-86707500I0J-287500D01*
G01*
X113086000Y-87282500D01*
G75*
G02*
X112798500Y-87570000I-287500J0D01*
G01*
X112198500Y-87570000D01*
G75*
G02*
X111911000Y-87282500I0J287500D01*
G01*
G37*
D12*
X132715000Y-69850000D03*
X80010000Y-69850000D03*
G36*
G01*
X107900000Y-80437500D02*
X106475000Y-80437500D01*
G75*
G02*
X106350000Y-80312500I0J125000D01*
G01*
X106350000Y-80062500D01*
G75*
G02*
X106475000Y-79937500I125000J0D01*
G01*
X107900000Y-79937500D01*
G75*
G02*
X108025000Y-80062500I0J-125000D01*
G01*
X108025000Y-80312500D01*
G75*
G02*
X107900000Y-80437500I-125000J0D01*
G01*
G37*
G36*
G01*
X107900000Y-79937500D02*
X106475000Y-79937500D01*
G75*
G02*
X106350000Y-79812500I0J125000D01*
G01*
X106350000Y-79562500D01*
G75*
G02*
X106475000Y-79437500I125000J0D01*
G01*
X107900000Y-79437500D01*
G75*
G02*
X108025000Y-79562500I0J-125000D01*
G01*
X108025000Y-79812500D01*
G75*
G02*
X107900000Y-79937500I-125000J0D01*
G01*
G37*
G36*
G01*
X107900000Y-79437500D02*
X106475000Y-79437500D01*
G75*
G02*
X106350000Y-79312500I0J125000D01*
G01*
X106350000Y-79062500D01*
G75*
G02*
X106475000Y-78937500I125000J0D01*
G01*
X107900000Y-78937500D01*
G75*
G02*
X108025000Y-79062500I0J-125000D01*
G01*
X108025000Y-79312500D01*
G75*
G02*
X107900000Y-79437500I-125000J0D01*
G01*
G37*
G36*
G01*
X107900000Y-78937500D02*
X106475000Y-78937500D01*
G75*
G02*
X106350000Y-78812500I0J125000D01*
G01*
X106350000Y-78562500D01*
G75*
G02*
X106475000Y-78437500I125000J0D01*
G01*
X107900000Y-78437500D01*
G75*
G02*
X108025000Y-78562500I0J-125000D01*
G01*
X108025000Y-78812500D01*
G75*
G02*
X107900000Y-78937500I-125000J0D01*
G01*
G37*
G36*
G01*
X107900000Y-78437500D02*
X106475000Y-78437500D01*
G75*
G02*
X106350000Y-78312500I0J125000D01*
G01*
X106350000Y-78062500D01*
G75*
G02*
X106475000Y-77937500I125000J0D01*
G01*
X107900000Y-77937500D01*
G75*
G02*
X108025000Y-78062500I0J-125000D01*
G01*
X108025000Y-78312500D01*
G75*
G02*
X107900000Y-78437500I-125000J0D01*
G01*
G37*
G36*
G01*
X107900000Y-77937500D02*
X106475000Y-77937500D01*
G75*
G02*
X106350000Y-77812500I0J125000D01*
G01*
X106350000Y-77562500D01*
G75*
G02*
X106475000Y-77437500I125000J0D01*
G01*
X107900000Y-77437500D01*
G75*
G02*
X108025000Y-77562500I0J-125000D01*
G01*
X108025000Y-77812500D01*
G75*
G02*
X107900000Y-77937500I-125000J0D01*
G01*
G37*
G36*
G01*
X107900000Y-77437500D02*
X106475000Y-77437500D01*
G75*
G02*
X106350000Y-77312500I0J125000D01*
G01*
X106350000Y-77062500D01*
G75*
G02*
X106475000Y-76937500I125000J0D01*
G01*
X107900000Y-76937500D01*
G75*
G02*
X108025000Y-77062500I0J-125000D01*
G01*
X108025000Y-77312500D01*
G75*
G02*
X107900000Y-77437500I-125000J0D01*
G01*
G37*
G36*
G01*
X107900000Y-76937500D02*
X106475000Y-76937500D01*
G75*
G02*
X106350000Y-76812500I0J125000D01*
G01*
X106350000Y-76562500D01*
G75*
G02*
X106475000Y-76437500I125000J0D01*
G01*
X107900000Y-76437500D01*
G75*
G02*
X108025000Y-76562500I0J-125000D01*
G01*
X108025000Y-76812500D01*
G75*
G02*
X107900000Y-76937500I-125000J0D01*
G01*
G37*
G36*
G01*
X107900000Y-76437500D02*
X106475000Y-76437500D01*
G75*
G02*
X106350000Y-76312500I0J125000D01*
G01*
X106350000Y-76062500D01*
G75*
G02*
X106475000Y-75937500I125000J0D01*
G01*
X107900000Y-75937500D01*
G75*
G02*
X108025000Y-76062500I0J-125000D01*
G01*
X108025000Y-76312500D01*
G75*
G02*
X107900000Y-76437500I-125000J0D01*
G01*
G37*
G36*
G01*
X107900000Y-75937500D02*
X106475000Y-75937500D01*
G75*
G02*
X106350000Y-75812500I0J125000D01*
G01*
X106350000Y-75562500D01*
G75*
G02*
X106475000Y-75437500I125000J0D01*
G01*
X107900000Y-75437500D01*
G75*
G02*
X108025000Y-75562500I0J-125000D01*
G01*
X108025000Y-75812500D01*
G75*
G02*
X107900000Y-75937500I-125000J0D01*
G01*
G37*
G36*
G01*
X107900000Y-75437500D02*
X106475000Y-75437500D01*
G75*
G02*
X106350000Y-75312500I0J125000D01*
G01*
X106350000Y-75062500D01*
G75*
G02*
X106475000Y-74937500I125000J0D01*
G01*
X107900000Y-74937500D01*
G75*
G02*
X108025000Y-75062500I0J-125000D01*
G01*
X108025000Y-75312500D01*
G75*
G02*
X107900000Y-75437500I-125000J0D01*
G01*
G37*
G36*
G01*
X107900000Y-74937500D02*
X106475000Y-74937500D01*
G75*
G02*
X106350000Y-74812500I0J125000D01*
G01*
X106350000Y-74562500D01*
G75*
G02*
X106475000Y-74437500I125000J0D01*
G01*
X107900000Y-74437500D01*
G75*
G02*
X108025000Y-74562500I0J-125000D01*
G01*
X108025000Y-74812500D01*
G75*
G02*
X107900000Y-74937500I-125000J0D01*
G01*
G37*
G36*
G01*
X108725000Y-74112500D02*
X108475000Y-74112500D01*
G75*
G02*
X108350000Y-73987500I0J125000D01*
G01*
X108350000Y-72562500D01*
G75*
G02*
X108475000Y-72437500I125000J0D01*
G01*
X108725000Y-72437500D01*
G75*
G02*
X108850000Y-72562500I0J-125000D01*
G01*
X108850000Y-73987500D01*
G75*
G02*
X108725000Y-74112500I-125000J0D01*
G01*
G37*
G36*
G01*
X109225000Y-74112500D02*
X108975000Y-74112500D01*
G75*
G02*
X108850000Y-73987500I0J125000D01*
G01*
X108850000Y-72562500D01*
G75*
G02*
X108975000Y-72437500I125000J0D01*
G01*
X109225000Y-72437500D01*
G75*
G02*
X109350000Y-72562500I0J-125000D01*
G01*
X109350000Y-73987500D01*
G75*
G02*
X109225000Y-74112500I-125000J0D01*
G01*
G37*
G36*
G01*
X109725000Y-74112500D02*
X109475000Y-74112500D01*
G75*
G02*
X109350000Y-73987500I0J125000D01*
G01*
X109350000Y-72562500D01*
G75*
G02*
X109475000Y-72437500I125000J0D01*
G01*
X109725000Y-72437500D01*
G75*
G02*
X109850000Y-72562500I0J-125000D01*
G01*
X109850000Y-73987500D01*
G75*
G02*
X109725000Y-74112500I-125000J0D01*
G01*
G37*
G36*
G01*
X110225000Y-74112500D02*
X109975000Y-74112500D01*
G75*
G02*
X109850000Y-73987500I0J125000D01*
G01*
X109850000Y-72562500D01*
G75*
G02*
X109975000Y-72437500I125000J0D01*
G01*
X110225000Y-72437500D01*
G75*
G02*
X110350000Y-72562500I0J-125000D01*
G01*
X110350000Y-73987500D01*
G75*
G02*
X110225000Y-74112500I-125000J0D01*
G01*
G37*
G36*
G01*
X110725000Y-74112500D02*
X110475000Y-74112500D01*
G75*
G02*
X110350000Y-73987500I0J125000D01*
G01*
X110350000Y-72562500D01*
G75*
G02*
X110475000Y-72437500I125000J0D01*
G01*
X110725000Y-72437500D01*
G75*
G02*
X110850000Y-72562500I0J-125000D01*
G01*
X110850000Y-73987500D01*
G75*
G02*
X110725000Y-74112500I-125000J0D01*
G01*
G37*
G36*
G01*
X111225000Y-74112500D02*
X110975000Y-74112500D01*
G75*
G02*
X110850000Y-73987500I0J125000D01*
G01*
X110850000Y-72562500D01*
G75*
G02*
X110975000Y-72437500I125000J0D01*
G01*
X111225000Y-72437500D01*
G75*
G02*
X111350000Y-72562500I0J-125000D01*
G01*
X111350000Y-73987500D01*
G75*
G02*
X111225000Y-74112500I-125000J0D01*
G01*
G37*
G36*
G01*
X111725000Y-74112500D02*
X111475000Y-74112500D01*
G75*
G02*
X111350000Y-73987500I0J125000D01*
G01*
X111350000Y-72562500D01*
G75*
G02*
X111475000Y-72437500I125000J0D01*
G01*
X111725000Y-72437500D01*
G75*
G02*
X111850000Y-72562500I0J-125000D01*
G01*
X111850000Y-73987500D01*
G75*
G02*
X111725000Y-74112500I-125000J0D01*
G01*
G37*
G36*
G01*
X112225000Y-74112500D02*
X111975000Y-74112500D01*
G75*
G02*
X111850000Y-73987500I0J125000D01*
G01*
X111850000Y-72562500D01*
G75*
G02*
X111975000Y-72437500I125000J0D01*
G01*
X112225000Y-72437500D01*
G75*
G02*
X112350000Y-72562500I0J-125000D01*
G01*
X112350000Y-73987500D01*
G75*
G02*
X112225000Y-74112500I-125000J0D01*
G01*
G37*
G36*
G01*
X112725000Y-74112500D02*
X112475000Y-74112500D01*
G75*
G02*
X112350000Y-73987500I0J125000D01*
G01*
X112350000Y-72562500D01*
G75*
G02*
X112475000Y-72437500I125000J0D01*
G01*
X112725000Y-72437500D01*
G75*
G02*
X112850000Y-72562500I0J-125000D01*
G01*
X112850000Y-73987500D01*
G75*
G02*
X112725000Y-74112500I-125000J0D01*
G01*
G37*
G36*
G01*
X113225000Y-74112500D02*
X112975000Y-74112500D01*
G75*
G02*
X112850000Y-73987500I0J125000D01*
G01*
X112850000Y-72562500D01*
G75*
G02*
X112975000Y-72437500I125000J0D01*
G01*
X113225000Y-72437500D01*
G75*
G02*
X113350000Y-72562500I0J-125000D01*
G01*
X113350000Y-73987500D01*
G75*
G02*
X113225000Y-74112500I-125000J0D01*
G01*
G37*
G36*
G01*
X113725000Y-74112500D02*
X113475000Y-74112500D01*
G75*
G02*
X113350000Y-73987500I0J125000D01*
G01*
X113350000Y-72562500D01*
G75*
G02*
X113475000Y-72437500I125000J0D01*
G01*
X113725000Y-72437500D01*
G75*
G02*
X113850000Y-72562500I0J-125000D01*
G01*
X113850000Y-73987500D01*
G75*
G02*
X113725000Y-74112500I-125000J0D01*
G01*
G37*
G36*
G01*
X114225000Y-74112500D02*
X113975000Y-74112500D01*
G75*
G02*
X113850000Y-73987500I0J125000D01*
G01*
X113850000Y-72562500D01*
G75*
G02*
X113975000Y-72437500I125000J0D01*
G01*
X114225000Y-72437500D01*
G75*
G02*
X114350000Y-72562500I0J-125000D01*
G01*
X114350000Y-73987500D01*
G75*
G02*
X114225000Y-74112500I-125000J0D01*
G01*
G37*
G36*
G01*
X116225000Y-74937500D02*
X114800000Y-74937500D01*
G75*
G02*
X114675000Y-74812500I0J125000D01*
G01*
X114675000Y-74562500D01*
G75*
G02*
X114800000Y-74437500I125000J0D01*
G01*
X116225000Y-74437500D01*
G75*
G02*
X116350000Y-74562500I0J-125000D01*
G01*
X116350000Y-74812500D01*
G75*
G02*
X116225000Y-74937500I-125000J0D01*
G01*
G37*
G36*
G01*
X116225000Y-75437500D02*
X114800000Y-75437500D01*
G75*
G02*
X114675000Y-75312500I0J125000D01*
G01*
X114675000Y-75062500D01*
G75*
G02*
X114800000Y-74937500I125000J0D01*
G01*
X116225000Y-74937500D01*
G75*
G02*
X116350000Y-75062500I0J-125000D01*
G01*
X116350000Y-75312500D01*
G75*
G02*
X116225000Y-75437500I-125000J0D01*
G01*
G37*
G36*
G01*
X116225000Y-75937500D02*
X114800000Y-75937500D01*
G75*
G02*
X114675000Y-75812500I0J125000D01*
G01*
X114675000Y-75562500D01*
G75*
G02*
X114800000Y-75437500I125000J0D01*
G01*
X116225000Y-75437500D01*
G75*
G02*
X116350000Y-75562500I0J-125000D01*
G01*
X116350000Y-75812500D01*
G75*
G02*
X116225000Y-75937500I-125000J0D01*
G01*
G37*
G36*
G01*
X116225000Y-76437500D02*
X114800000Y-76437500D01*
G75*
G02*
X114675000Y-76312500I0J125000D01*
G01*
X114675000Y-76062500D01*
G75*
G02*
X114800000Y-75937500I125000J0D01*
G01*
X116225000Y-75937500D01*
G75*
G02*
X116350000Y-76062500I0J-125000D01*
G01*
X116350000Y-76312500D01*
G75*
G02*
X116225000Y-76437500I-125000J0D01*
G01*
G37*
G36*
G01*
X116225000Y-76937500D02*
X114800000Y-76937500D01*
G75*
G02*
X114675000Y-76812500I0J125000D01*
G01*
X114675000Y-76562500D01*
G75*
G02*
X114800000Y-76437500I125000J0D01*
G01*
X116225000Y-76437500D01*
G75*
G02*
X116350000Y-76562500I0J-125000D01*
G01*
X116350000Y-76812500D01*
G75*
G02*
X116225000Y-76937500I-125000J0D01*
G01*
G37*
G36*
G01*
X116225000Y-77437500D02*
X114800000Y-77437500D01*
G75*
G02*
X114675000Y-77312500I0J125000D01*
G01*
X114675000Y-77062500D01*
G75*
G02*
X114800000Y-76937500I125000J0D01*
G01*
X116225000Y-76937500D01*
G75*
G02*
X116350000Y-77062500I0J-125000D01*
G01*
X116350000Y-77312500D01*
G75*
G02*
X116225000Y-77437500I-125000J0D01*
G01*
G37*
G36*
G01*
X116225000Y-77937500D02*
X114800000Y-77937500D01*
G75*
G02*
X114675000Y-77812500I0J125000D01*
G01*
X114675000Y-77562500D01*
G75*
G02*
X114800000Y-77437500I125000J0D01*
G01*
X116225000Y-77437500D01*
G75*
G02*
X116350000Y-77562500I0J-125000D01*
G01*
X116350000Y-77812500D01*
G75*
G02*
X116225000Y-77937500I-125000J0D01*
G01*
G37*
G36*
G01*
X116225000Y-78437500D02*
X114800000Y-78437500D01*
G75*
G02*
X114675000Y-78312500I0J125000D01*
G01*
X114675000Y-78062500D01*
G75*
G02*
X114800000Y-77937500I125000J0D01*
G01*
X116225000Y-77937500D01*
G75*
G02*
X116350000Y-78062500I0J-125000D01*
G01*
X116350000Y-78312500D01*
G75*
G02*
X116225000Y-78437500I-125000J0D01*
G01*
G37*
G36*
G01*
X116225000Y-78937500D02*
X114800000Y-78937500D01*
G75*
G02*
X114675000Y-78812500I0J125000D01*
G01*
X114675000Y-78562500D01*
G75*
G02*
X114800000Y-78437500I125000J0D01*
G01*
X116225000Y-78437500D01*
G75*
G02*
X116350000Y-78562500I0J-125000D01*
G01*
X116350000Y-78812500D01*
G75*
G02*
X116225000Y-78937500I-125000J0D01*
G01*
G37*
G36*
G01*
X116225000Y-79437500D02*
X114800000Y-79437500D01*
G75*
G02*
X114675000Y-79312500I0J125000D01*
G01*
X114675000Y-79062500D01*
G75*
G02*
X114800000Y-78937500I125000J0D01*
G01*
X116225000Y-78937500D01*
G75*
G02*
X116350000Y-79062500I0J-125000D01*
G01*
X116350000Y-79312500D01*
G75*
G02*
X116225000Y-79437500I-125000J0D01*
G01*
G37*
G36*
G01*
X116225000Y-79937500D02*
X114800000Y-79937500D01*
G75*
G02*
X114675000Y-79812500I0J125000D01*
G01*
X114675000Y-79562500D01*
G75*
G02*
X114800000Y-79437500I125000J0D01*
G01*
X116225000Y-79437500D01*
G75*
G02*
X116350000Y-79562500I0J-125000D01*
G01*
X116350000Y-79812500D01*
G75*
G02*
X116225000Y-79937500I-125000J0D01*
G01*
G37*
G36*
G01*
X116225000Y-80437500D02*
X114800000Y-80437500D01*
G75*
G02*
X114675000Y-80312500I0J125000D01*
G01*
X114675000Y-80062500D01*
G75*
G02*
X114800000Y-79937500I125000J0D01*
G01*
X116225000Y-79937500D01*
G75*
G02*
X116350000Y-80062500I0J-125000D01*
G01*
X116350000Y-80312500D01*
G75*
G02*
X116225000Y-80437500I-125000J0D01*
G01*
G37*
G36*
G01*
X114225000Y-82437500D02*
X113975000Y-82437500D01*
G75*
G02*
X113850000Y-82312500I0J125000D01*
G01*
X113850000Y-80887500D01*
G75*
G02*
X113975000Y-80762500I125000J0D01*
G01*
X114225000Y-80762500D01*
G75*
G02*
X114350000Y-80887500I0J-125000D01*
G01*
X114350000Y-82312500D01*
G75*
G02*
X114225000Y-82437500I-125000J0D01*
G01*
G37*
G36*
G01*
X113725000Y-82437500D02*
X113475000Y-82437500D01*
G75*
G02*
X113350000Y-82312500I0J125000D01*
G01*
X113350000Y-80887500D01*
G75*
G02*
X113475000Y-80762500I125000J0D01*
G01*
X113725000Y-80762500D01*
G75*
G02*
X113850000Y-80887500I0J-125000D01*
G01*
X113850000Y-82312500D01*
G75*
G02*
X113725000Y-82437500I-125000J0D01*
G01*
G37*
G36*
G01*
X113225000Y-82437500D02*
X112975000Y-82437500D01*
G75*
G02*
X112850000Y-82312500I0J125000D01*
G01*
X112850000Y-80887500D01*
G75*
G02*
X112975000Y-80762500I125000J0D01*
G01*
X113225000Y-80762500D01*
G75*
G02*
X113350000Y-80887500I0J-125000D01*
G01*
X113350000Y-82312500D01*
G75*
G02*
X113225000Y-82437500I-125000J0D01*
G01*
G37*
G36*
G01*
X112725000Y-82437500D02*
X112475000Y-82437500D01*
G75*
G02*
X112350000Y-82312500I0J125000D01*
G01*
X112350000Y-80887500D01*
G75*
G02*
X112475000Y-80762500I125000J0D01*
G01*
X112725000Y-80762500D01*
G75*
G02*
X112850000Y-80887500I0J-125000D01*
G01*
X112850000Y-82312500D01*
G75*
G02*
X112725000Y-82437500I-125000J0D01*
G01*
G37*
G36*
G01*
X112225000Y-82437500D02*
X111975000Y-82437500D01*
G75*
G02*
X111850000Y-82312500I0J125000D01*
G01*
X111850000Y-80887500D01*
G75*
G02*
X111975000Y-80762500I125000J0D01*
G01*
X112225000Y-80762500D01*
G75*
G02*
X112350000Y-80887500I0J-125000D01*
G01*
X112350000Y-82312500D01*
G75*
G02*
X112225000Y-82437500I-125000J0D01*
G01*
G37*
G36*
G01*
X111725000Y-82437500D02*
X111475000Y-82437500D01*
G75*
G02*
X111350000Y-82312500I0J125000D01*
G01*
X111350000Y-80887500D01*
G75*
G02*
X111475000Y-80762500I125000J0D01*
G01*
X111725000Y-80762500D01*
G75*
G02*
X111850000Y-80887500I0J-125000D01*
G01*
X111850000Y-82312500D01*
G75*
G02*
X111725000Y-82437500I-125000J0D01*
G01*
G37*
G36*
G01*
X111225000Y-82437500D02*
X110975000Y-82437500D01*
G75*
G02*
X110850000Y-82312500I0J125000D01*
G01*
X110850000Y-80887500D01*
G75*
G02*
X110975000Y-80762500I125000J0D01*
G01*
X111225000Y-80762500D01*
G75*
G02*
X111350000Y-80887500I0J-125000D01*
G01*
X111350000Y-82312500D01*
G75*
G02*
X111225000Y-82437500I-125000J0D01*
G01*
G37*
G36*
G01*
X110725000Y-82437500D02*
X110475000Y-82437500D01*
G75*
G02*
X110350000Y-82312500I0J125000D01*
G01*
X110350000Y-80887500D01*
G75*
G02*
X110475000Y-80762500I125000J0D01*
G01*
X110725000Y-80762500D01*
G75*
G02*
X110850000Y-80887500I0J-125000D01*
G01*
X110850000Y-82312500D01*
G75*
G02*
X110725000Y-82437500I-125000J0D01*
G01*
G37*
G36*
G01*
X110225000Y-82437500D02*
X109975000Y-82437500D01*
G75*
G02*
X109850000Y-82312500I0J125000D01*
G01*
X109850000Y-80887500D01*
G75*
G02*
X109975000Y-80762500I125000J0D01*
G01*
X110225000Y-80762500D01*
G75*
G02*
X110350000Y-80887500I0J-125000D01*
G01*
X110350000Y-82312500D01*
G75*
G02*
X110225000Y-82437500I-125000J0D01*
G01*
G37*
G36*
G01*
X109725000Y-82437500D02*
X109475000Y-82437500D01*
G75*
G02*
X109350000Y-82312500I0J125000D01*
G01*
X109350000Y-80887500D01*
G75*
G02*
X109475000Y-80762500I125000J0D01*
G01*
X109725000Y-80762500D01*
G75*
G02*
X109850000Y-80887500I0J-125000D01*
G01*
X109850000Y-82312500D01*
G75*
G02*
X109725000Y-82437500I-125000J0D01*
G01*
G37*
G36*
G01*
X109225000Y-82437500D02*
X108975000Y-82437500D01*
G75*
G02*
X108850000Y-82312500I0J125000D01*
G01*
X108850000Y-80887500D01*
G75*
G02*
X108975000Y-80762500I125000J0D01*
G01*
X109225000Y-80762500D01*
G75*
G02*
X109350000Y-80887500I0J-125000D01*
G01*
X109350000Y-82312500D01*
G75*
G02*
X109225000Y-82437500I-125000J0D01*
G01*
G37*
G36*
G01*
X108725000Y-82437500D02*
X108475000Y-82437500D01*
G75*
G02*
X108350000Y-82312500I0J125000D01*
G01*
X108350000Y-80887500D01*
G75*
G02*
X108475000Y-80762500I125000J0D01*
G01*
X108725000Y-80762500D01*
G75*
G02*
X108850000Y-80887500I0J-125000D01*
G01*
X108850000Y-82312500D01*
G75*
G02*
X108725000Y-82437500I-125000J0D01*
G01*
G37*
G36*
G01*
X101222000Y-57096000D02*
X101222000Y-56696000D01*
G75*
G02*
X101422000Y-56496000I200000J0D01*
G01*
X103172000Y-56496000D01*
G75*
G02*
X103372000Y-56696000I0J-200000D01*
G01*
X103372000Y-57096000D01*
G75*
G02*
X103172000Y-57296000I-200000J0D01*
G01*
X101422000Y-57296000D01*
G75*
G02*
X101222000Y-57096000I0J200000D01*
G01*
G37*
G36*
G01*
X101222000Y-58366000D02*
X101222000Y-57966000D01*
G75*
G02*
X101422000Y-57766000I200000J0D01*
G01*
X103172000Y-57766000D01*
G75*
G02*
X103372000Y-57966000I0J-200000D01*
G01*
X103372000Y-58366000D01*
G75*
G02*
X103172000Y-58566000I-200000J0D01*
G01*
X101422000Y-58566000D01*
G75*
G02*
X101222000Y-58366000I0J200000D01*
G01*
G37*
G36*
G01*
X101222000Y-59636000D02*
X101222000Y-59236000D01*
G75*
G02*
X101422000Y-59036000I200000J0D01*
G01*
X103172000Y-59036000D01*
G75*
G02*
X103372000Y-59236000I0J-200000D01*
G01*
X103372000Y-59636000D01*
G75*
G02*
X103172000Y-59836000I-200000J0D01*
G01*
X101422000Y-59836000D01*
G75*
G02*
X101222000Y-59636000I0J200000D01*
G01*
G37*
G36*
G01*
X101222000Y-60906000D02*
X101222000Y-60506000D01*
G75*
G02*
X101422000Y-60306000I200000J0D01*
G01*
X103172000Y-60306000D01*
G75*
G02*
X103372000Y-60506000I0J-200000D01*
G01*
X103372000Y-60906000D01*
G75*
G02*
X103172000Y-61106000I-200000J0D01*
G01*
X101422000Y-61106000D01*
G75*
G02*
X101222000Y-60906000I0J200000D01*
G01*
G37*
G36*
G01*
X96272000Y-60906000D02*
X96272000Y-60506000D01*
G75*
G02*
X96472000Y-60306000I200000J0D01*
G01*
X98222000Y-60306000D01*
G75*
G02*
X98422000Y-60506000I0J-200000D01*
G01*
X98422000Y-60906000D01*
G75*
G02*
X98222000Y-61106000I-200000J0D01*
G01*
X96472000Y-61106000D01*
G75*
G02*
X96272000Y-60906000I0J200000D01*
G01*
G37*
G36*
G01*
X96272000Y-59636000D02*
X96272000Y-59236000D01*
G75*
G02*
X96472000Y-59036000I200000J0D01*
G01*
X98222000Y-59036000D01*
G75*
G02*
X98422000Y-59236000I0J-200000D01*
G01*
X98422000Y-59636000D01*
G75*
G02*
X98222000Y-59836000I-200000J0D01*
G01*
X96472000Y-59836000D01*
G75*
G02*
X96272000Y-59636000I0J200000D01*
G01*
G37*
G36*
G01*
X96272000Y-58366000D02*
X96272000Y-57966000D01*
G75*
G02*
X96472000Y-57766000I200000J0D01*
G01*
X98222000Y-57766000D01*
G75*
G02*
X98422000Y-57966000I0J-200000D01*
G01*
X98422000Y-58366000D01*
G75*
G02*
X98222000Y-58566000I-200000J0D01*
G01*
X96472000Y-58566000D01*
G75*
G02*
X96272000Y-58366000I0J200000D01*
G01*
G37*
G36*
G01*
X96272000Y-57096000D02*
X96272000Y-56696000D01*
G75*
G02*
X96472000Y-56496000I200000J0D01*
G01*
X98222000Y-56496000D01*
G75*
G02*
X98422000Y-56696000I0J-200000D01*
G01*
X98422000Y-57096000D01*
G75*
G02*
X98222000Y-57296000I-200000J0D01*
G01*
X96472000Y-57296000D01*
G75*
G02*
X96272000Y-57096000I0J200000D01*
G01*
G37*
G36*
G01*
X87659000Y-77690500D02*
X87659000Y-78265500D01*
G75*
G02*
X87371500Y-78553000I-287500J0D01*
G01*
X86671500Y-78553000D01*
G75*
G02*
X86384000Y-78265500I0J287500D01*
G01*
X86384000Y-77690500D01*
G75*
G02*
X86671500Y-77403000I287500J0D01*
G01*
X87371500Y-77403000D01*
G75*
G02*
X87659000Y-77690500I0J-287500D01*
G01*
G37*
G36*
G01*
X89384000Y-77690500D02*
X89384000Y-78265500D01*
G75*
G02*
X89096500Y-78553000I-287500J0D01*
G01*
X88396500Y-78553000D01*
G75*
G02*
X88109000Y-78265500I0J287500D01*
G01*
X88109000Y-77690500D01*
G75*
G02*
X88396500Y-77403000I287500J0D01*
G01*
X89096500Y-77403000D01*
G75*
G02*
X89384000Y-77690500I0J-287500D01*
G01*
G37*
G36*
G01*
X94394500Y-56798000D02*
X93819500Y-56798000D01*
G75*
G02*
X93532000Y-56510500I0J287500D01*
G01*
X93532000Y-55810500D01*
G75*
G02*
X93819500Y-55523000I287500J0D01*
G01*
X94394500Y-55523000D01*
G75*
G02*
X94682000Y-55810500I0J-287500D01*
G01*
X94682000Y-56510500D01*
G75*
G02*
X94394500Y-56798000I-287500J0D01*
G01*
G37*
G36*
G01*
X94394500Y-58523000D02*
X93819500Y-58523000D01*
G75*
G02*
X93532000Y-58235500I0J287500D01*
G01*
X93532000Y-57535500D01*
G75*
G02*
X93819500Y-57248000I287500J0D01*
G01*
X94394500Y-57248000D01*
G75*
G02*
X94682000Y-57535500I0J-287500D01*
G01*
X94682000Y-58235500D01*
G75*
G02*
X94394500Y-58523000I-287500J0D01*
G01*
G37*
G36*
G01*
X130781000Y-61882500D02*
X130781000Y-61307500D01*
G75*
G02*
X131068500Y-61020000I287500J0D01*
G01*
X131768500Y-61020000D01*
G75*
G02*
X132056000Y-61307500I0J-287500D01*
G01*
X132056000Y-61882500D01*
G75*
G02*
X131768500Y-62170000I-287500J0D01*
G01*
X131068500Y-62170000D01*
G75*
G02*
X130781000Y-61882500I0J287500D01*
G01*
G37*
G36*
G01*
X129056000Y-61882500D02*
X129056000Y-61307500D01*
G75*
G02*
X129343500Y-61020000I287500J0D01*
G01*
X130043500Y-61020000D01*
G75*
G02*
X130331000Y-61307500I0J-287500D01*
G01*
X130331000Y-61882500D01*
G75*
G02*
X130043500Y-62170000I-287500J0D01*
G01*
X129343500Y-62170000D01*
G75*
G02*
X129056000Y-61882500I0J287500D01*
G01*
G37*
G36*
G01*
X107032000Y-58580500D02*
X107032000Y-58005500D01*
G75*
G02*
X107319500Y-57718000I287500J0D01*
G01*
X108019500Y-57718000D01*
G75*
G02*
X108307000Y-58005500I0J-287500D01*
G01*
X108307000Y-58580500D01*
G75*
G02*
X108019500Y-58868000I-287500J0D01*
G01*
X107319500Y-58868000D01*
G75*
G02*
X107032000Y-58580500I0J287500D01*
G01*
G37*
G36*
G01*
X105307000Y-58580500D02*
X105307000Y-58005500D01*
G75*
G02*
X105594500Y-57718000I287500J0D01*
G01*
X106294500Y-57718000D01*
G75*
G02*
X106582000Y-58005500I0J-287500D01*
G01*
X106582000Y-58580500D01*
G75*
G02*
X106294500Y-58868000I-287500J0D01*
G01*
X105594500Y-58868000D01*
G75*
G02*
X105307000Y-58580500I0J287500D01*
G01*
G37*
G36*
G01*
X113863500Y-59469500D02*
X113863500Y-58894500D01*
G75*
G02*
X114151000Y-58607000I287500J0D01*
G01*
X114851000Y-58607000D01*
G75*
G02*
X115138500Y-58894500I0J-287500D01*
G01*
X115138500Y-59469500D01*
G75*
G02*
X114851000Y-59757000I-287500J0D01*
G01*
X114151000Y-59757000D01*
G75*
G02*
X113863500Y-59469500I0J287500D01*
G01*
G37*
G36*
G01*
X112138500Y-59469500D02*
X112138500Y-58894500D01*
G75*
G02*
X112426000Y-58607000I287500J0D01*
G01*
X113126000Y-58607000D01*
G75*
G02*
X113413500Y-58894500I0J-287500D01*
G01*
X113413500Y-59469500D01*
G75*
G02*
X113126000Y-59757000I-287500J0D01*
G01*
X112426000Y-59757000D01*
G75*
G02*
X112138500Y-59469500I0J287500D01*
G01*
G37*
G36*
G01*
X95602000Y-81440500D02*
X95602000Y-80865500D01*
G75*
G02*
X95889500Y-80578000I287500J0D01*
G01*
X96589500Y-80578000D01*
G75*
G02*
X96877000Y-80865500I0J-287500D01*
G01*
X96877000Y-81440500D01*
G75*
G02*
X96589500Y-81728000I-287500J0D01*
G01*
X95889500Y-81728000D01*
G75*
G02*
X95602000Y-81440500I0J287500D01*
G01*
G37*
G36*
G01*
X93877000Y-81440500D02*
X93877000Y-80865500D01*
G75*
G02*
X94164500Y-80578000I287500J0D01*
G01*
X94864500Y-80578000D01*
G75*
G02*
X95152000Y-80865500I0J-287500D01*
G01*
X95152000Y-81440500D01*
G75*
G02*
X94864500Y-81728000I-287500J0D01*
G01*
X94164500Y-81728000D01*
G75*
G02*
X93877000Y-81440500I0J287500D01*
G01*
G37*
G36*
G01*
X98835000Y-80865500D02*
X98835000Y-81440500D01*
G75*
G02*
X98547500Y-81728000I-287500J0D01*
G01*
X97847500Y-81728000D01*
G75*
G02*
X97560000Y-81440500I0J287500D01*
G01*
X97560000Y-80865500D01*
G75*
G02*
X97847500Y-80578000I287500J0D01*
G01*
X98547500Y-80578000D01*
G75*
G02*
X98835000Y-80865500I0J-287500D01*
G01*
G37*
G36*
G01*
X100560000Y-80865500D02*
X100560000Y-81440500D01*
G75*
G02*
X100272500Y-81728000I-287500J0D01*
G01*
X99572500Y-81728000D01*
G75*
G02*
X99285000Y-81440500I0J287500D01*
G01*
X99285000Y-80865500D01*
G75*
G02*
X99572500Y-80578000I287500J0D01*
G01*
X100272500Y-80578000D01*
G75*
G02*
X100560000Y-80865500I0J-287500D01*
G01*
G37*
G36*
G01*
X117444900Y-72804500D02*
X117444900Y-72229500D01*
G75*
G02*
X117732400Y-71942000I287500J0D01*
G01*
X118432400Y-71942000D01*
G75*
G02*
X118719900Y-72229500I0J-287500D01*
G01*
X118719900Y-72804500D01*
G75*
G02*
X118432400Y-73092000I-287500J0D01*
G01*
X117732400Y-73092000D01*
G75*
G02*
X117444900Y-72804500I0J287500D01*
G01*
G37*
G36*
G01*
X115719900Y-72804500D02*
X115719900Y-72229500D01*
G75*
G02*
X116007400Y-71942000I287500J0D01*
G01*
X116707400Y-71942000D01*
G75*
G02*
X116994900Y-72229500I0J-287500D01*
G01*
X116994900Y-72804500D01*
G75*
G02*
X116707400Y-73092000I-287500J0D01*
G01*
X116007400Y-73092000D01*
G75*
G02*
X115719900Y-72804500I0J287500D01*
G01*
G37*
G36*
G01*
X108173900Y-71356700D02*
X108173900Y-70781700D01*
G75*
G02*
X108461400Y-70494200I287500J0D01*
G01*
X109161400Y-70494200D01*
G75*
G02*
X109448900Y-70781700I0J-287500D01*
G01*
X109448900Y-71356700D01*
G75*
G02*
X109161400Y-71644200I-287500J0D01*
G01*
X108461400Y-71644200D01*
G75*
G02*
X108173900Y-71356700I0J287500D01*
G01*
G37*
G36*
G01*
X106448900Y-71356700D02*
X106448900Y-70781700D01*
G75*
G02*
X106736400Y-70494200I287500J0D01*
G01*
X107436400Y-70494200D01*
G75*
G02*
X107723900Y-70781700I0J-287500D01*
G01*
X107723900Y-71356700D01*
G75*
G02*
X107436400Y-71644200I-287500J0D01*
G01*
X106736400Y-71644200D01*
G75*
G02*
X106448900Y-71356700I0J287500D01*
G01*
G37*
G36*
G01*
X104427500Y-79811500D02*
X103852500Y-79811500D01*
G75*
G02*
X103565000Y-79524000I0J287500D01*
G01*
X103565000Y-78824000D01*
G75*
G02*
X103852500Y-78536500I287500J0D01*
G01*
X104427500Y-78536500D01*
G75*
G02*
X104715000Y-78824000I0J-287500D01*
G01*
X104715000Y-79524000D01*
G75*
G02*
X104427500Y-79811500I-287500J0D01*
G01*
G37*
G36*
G01*
X104427500Y-81536500D02*
X103852500Y-81536500D01*
G75*
G02*
X103565000Y-81249000I0J287500D01*
G01*
X103565000Y-80549000D01*
G75*
G02*
X103852500Y-80261500I287500J0D01*
G01*
X104427500Y-80261500D01*
G75*
G02*
X104715000Y-80549000I0J-287500D01*
G01*
X104715000Y-81249000D01*
G75*
G02*
X104427500Y-81536500I-287500J0D01*
G01*
G37*
G36*
G01*
X113636000Y-84234500D02*
X113636000Y-83659500D01*
G75*
G02*
X113923500Y-83372000I287500J0D01*
G01*
X114623500Y-83372000D01*
G75*
G02*
X114911000Y-83659500I0J-287500D01*
G01*
X114911000Y-84234500D01*
G75*
G02*
X114623500Y-84522000I-287500J0D01*
G01*
X113923500Y-84522000D01*
G75*
G02*
X113636000Y-84234500I0J287500D01*
G01*
G37*
G36*
G01*
X111911000Y-84234500D02*
X111911000Y-83659500D01*
G75*
G02*
X112198500Y-83372000I287500J0D01*
G01*
X112898500Y-83372000D01*
G75*
G02*
X113186000Y-83659500I0J-287500D01*
G01*
X113186000Y-84234500D01*
G75*
G02*
X112898500Y-84522000I-287500J0D01*
G01*
X112198500Y-84522000D01*
G75*
G02*
X111911000Y-84234500I0J287500D01*
G01*
G37*
G36*
G01*
X80738500Y-64106000D02*
X81313500Y-64106000D01*
G75*
G02*
X81601000Y-64393500I0J-287500D01*
G01*
X81601000Y-65093500D01*
G75*
G02*
X81313500Y-65381000I-287500J0D01*
G01*
X80738500Y-65381000D01*
G75*
G02*
X80451000Y-65093500I0J287500D01*
G01*
X80451000Y-64393500D01*
G75*
G02*
X80738500Y-64106000I287500J0D01*
G01*
G37*
G36*
G01*
X80738500Y-62381000D02*
X81313500Y-62381000D01*
G75*
G02*
X81601000Y-62668500I0J-287500D01*
G01*
X81601000Y-63368500D01*
G75*
G02*
X81313500Y-63656000I-287500J0D01*
G01*
X80738500Y-63656000D01*
G75*
G02*
X80451000Y-63368500I0J287500D01*
G01*
X80451000Y-62668500D01*
G75*
G02*
X80738500Y-62381000I287500J0D01*
G01*
G37*
G36*
G01*
X72804500Y-61497000D02*
X72229500Y-61497000D01*
G75*
G02*
X71942000Y-61209500I0J287500D01*
G01*
X71942000Y-60509500D01*
G75*
G02*
X72229500Y-60222000I287500J0D01*
G01*
X72804500Y-60222000D01*
G75*
G02*
X73092000Y-60509500I0J-287500D01*
G01*
X73092000Y-61209500D01*
G75*
G02*
X72804500Y-61497000I-287500J0D01*
G01*
G37*
G36*
G01*
X72804500Y-63222000D02*
X72229500Y-63222000D01*
G75*
G02*
X71942000Y-62934500I0J287500D01*
G01*
X71942000Y-62234500D01*
G75*
G02*
X72229500Y-61947000I287500J0D01*
G01*
X72804500Y-61947000D01*
G75*
G02*
X73092000Y-62234500I0J-287500D01*
G01*
X73092000Y-62934500D01*
G75*
G02*
X72804500Y-63222000I-287500J0D01*
G01*
G37*
G36*
G01*
X74988000Y-63544500D02*
X74988000Y-64344500D01*
G75*
G02*
X74888000Y-64444500I-100000J0D01*
G01*
X73988000Y-64444500D01*
G75*
G02*
X73888000Y-64344500I0J100000D01*
G01*
X73888000Y-63544500D01*
G75*
G02*
X73988000Y-63444500I100000J0D01*
G01*
X74888000Y-63444500D01*
G75*
G02*
X74988000Y-63544500I0J-100000D01*
G01*
G37*
G36*
G01*
X76988000Y-62594500D02*
X76988000Y-63394500D01*
G75*
G02*
X76888000Y-63494500I-100000J0D01*
G01*
X75988000Y-63494500D01*
G75*
G02*
X75888000Y-63394500I0J100000D01*
G01*
X75888000Y-62594500D01*
G75*
G02*
X75988000Y-62494500I100000J0D01*
G01*
X76888000Y-62494500D01*
G75*
G02*
X76988000Y-62594500I0J-100000D01*
G01*
G37*
G36*
G01*
X76988000Y-64494500D02*
X76988000Y-65294500D01*
G75*
G02*
X76888000Y-65394500I-100000J0D01*
G01*
X75988000Y-65394500D01*
G75*
G02*
X75888000Y-65294500I0J100000D01*
G01*
X75888000Y-64494500D01*
G75*
G02*
X75988000Y-64394500I100000J0D01*
G01*
X76888000Y-64394500D01*
G75*
G02*
X76988000Y-64494500I0J-100000D01*
G01*
G37*
G36*
G01*
X115631500Y-62253000D02*
X115631500Y-61953000D01*
G75*
G02*
X115781500Y-61803000I150000J0D01*
G01*
X117156500Y-61803000D01*
G75*
G02*
X117306500Y-61953000I0J-150000D01*
G01*
X117306500Y-62253000D01*
G75*
G02*
X117156500Y-62403000I-150000J0D01*
G01*
X115781500Y-62403000D01*
G75*
G02*
X115631500Y-62253000I0J150000D01*
G01*
G37*
G36*
G01*
X115631500Y-62903000D02*
X115631500Y-62603000D01*
G75*
G02*
X115781500Y-62453000I150000J0D01*
G01*
X117156500Y-62453000D01*
G75*
G02*
X117306500Y-62603000I0J-150000D01*
G01*
X117306500Y-62903000D01*
G75*
G02*
X117156500Y-63053000I-150000J0D01*
G01*
X115781500Y-63053000D01*
G75*
G02*
X115631500Y-62903000I0J150000D01*
G01*
G37*
G36*
G01*
X115631500Y-63553000D02*
X115631500Y-63253000D01*
G75*
G02*
X115781500Y-63103000I150000J0D01*
G01*
X117156500Y-63103000D01*
G75*
G02*
X117306500Y-63253000I0J-150000D01*
G01*
X117306500Y-63553000D01*
G75*
G02*
X117156500Y-63703000I-150000J0D01*
G01*
X115781500Y-63703000D01*
G75*
G02*
X115631500Y-63553000I0J150000D01*
G01*
G37*
G36*
G01*
X115631500Y-64203000D02*
X115631500Y-63903000D01*
G75*
G02*
X115781500Y-63753000I150000J0D01*
G01*
X117156500Y-63753000D01*
G75*
G02*
X117306500Y-63903000I0J-150000D01*
G01*
X117306500Y-64203000D01*
G75*
G02*
X117156500Y-64353000I-150000J0D01*
G01*
X115781500Y-64353000D01*
G75*
G02*
X115631500Y-64203000I0J150000D01*
G01*
G37*
G36*
G01*
X115631500Y-64853000D02*
X115631500Y-64553000D01*
G75*
G02*
X115781500Y-64403000I150000J0D01*
G01*
X117156500Y-64403000D01*
G75*
G02*
X117306500Y-64553000I0J-150000D01*
G01*
X117306500Y-64853000D01*
G75*
G02*
X117156500Y-65003000I-150000J0D01*
G01*
X115781500Y-65003000D01*
G75*
G02*
X115631500Y-64853000I0J150000D01*
G01*
G37*
G36*
G01*
X115631500Y-65503000D02*
X115631500Y-65203000D01*
G75*
G02*
X115781500Y-65053000I150000J0D01*
G01*
X117156500Y-65053000D01*
G75*
G02*
X117306500Y-65203000I0J-150000D01*
G01*
X117306500Y-65503000D01*
G75*
G02*
X117156500Y-65653000I-150000J0D01*
G01*
X115781500Y-65653000D01*
G75*
G02*
X115631500Y-65503000I0J150000D01*
G01*
G37*
G36*
G01*
X115631500Y-66153000D02*
X115631500Y-65853000D01*
G75*
G02*
X115781500Y-65703000I150000J0D01*
G01*
X117156500Y-65703000D01*
G75*
G02*
X117306500Y-65853000I0J-150000D01*
G01*
X117306500Y-66153000D01*
G75*
G02*
X117156500Y-66303000I-150000J0D01*
G01*
X115781500Y-66303000D01*
G75*
G02*
X115631500Y-66153000I0J150000D01*
G01*
G37*
G36*
G01*
X115631500Y-66803000D02*
X115631500Y-66503000D01*
G75*
G02*
X115781500Y-66353000I150000J0D01*
G01*
X117156500Y-66353000D01*
G75*
G02*
X117306500Y-66503000I0J-150000D01*
G01*
X117306500Y-66803000D01*
G75*
G02*
X117156500Y-66953000I-150000J0D01*
G01*
X115781500Y-66953000D01*
G75*
G02*
X115631500Y-66803000I0J150000D01*
G01*
G37*
G36*
G01*
X115631500Y-67453000D02*
X115631500Y-67153000D01*
G75*
G02*
X115781500Y-67003000I150000J0D01*
G01*
X117156500Y-67003000D01*
G75*
G02*
X117306500Y-67153000I0J-150000D01*
G01*
X117306500Y-67453000D01*
G75*
G02*
X117156500Y-67603000I-150000J0D01*
G01*
X115781500Y-67603000D01*
G75*
G02*
X115631500Y-67453000I0J150000D01*
G01*
G37*
G36*
G01*
X115631500Y-68103000D02*
X115631500Y-67803000D01*
G75*
G02*
X115781500Y-67653000I150000J0D01*
G01*
X117156500Y-67653000D01*
G75*
G02*
X117306500Y-67803000I0J-150000D01*
G01*
X117306500Y-68103000D01*
G75*
G02*
X117156500Y-68253000I-150000J0D01*
G01*
X115781500Y-68253000D01*
G75*
G02*
X115631500Y-68103000I0J150000D01*
G01*
G37*
G36*
G01*
X109906500Y-68103000D02*
X109906500Y-67803000D01*
G75*
G02*
X110056500Y-67653000I150000J0D01*
G01*
X111431500Y-67653000D01*
G75*
G02*
X111581500Y-67803000I0J-150000D01*
G01*
X111581500Y-68103000D01*
G75*
G02*
X111431500Y-68253000I-150000J0D01*
G01*
X110056500Y-68253000D01*
G75*
G02*
X109906500Y-68103000I0J150000D01*
G01*
G37*
G36*
G01*
X109906500Y-67453000D02*
X109906500Y-67153000D01*
G75*
G02*
X110056500Y-67003000I150000J0D01*
G01*
X111431500Y-67003000D01*
G75*
G02*
X111581500Y-67153000I0J-150000D01*
G01*
X111581500Y-67453000D01*
G75*
G02*
X111431500Y-67603000I-150000J0D01*
G01*
X110056500Y-67603000D01*
G75*
G02*
X109906500Y-67453000I0J150000D01*
G01*
G37*
G36*
G01*
X109906500Y-66803000D02*
X109906500Y-66503000D01*
G75*
G02*
X110056500Y-66353000I150000J0D01*
G01*
X111431500Y-66353000D01*
G75*
G02*
X111581500Y-66503000I0J-150000D01*
G01*
X111581500Y-66803000D01*
G75*
G02*
X111431500Y-66953000I-150000J0D01*
G01*
X110056500Y-66953000D01*
G75*
G02*
X109906500Y-66803000I0J150000D01*
G01*
G37*
G36*
G01*
X109906500Y-66153000D02*
X109906500Y-65853000D01*
G75*
G02*
X110056500Y-65703000I150000J0D01*
G01*
X111431500Y-65703000D01*
G75*
G02*
X111581500Y-65853000I0J-150000D01*
G01*
X111581500Y-66153000D01*
G75*
G02*
X111431500Y-66303000I-150000J0D01*
G01*
X110056500Y-66303000D01*
G75*
G02*
X109906500Y-66153000I0J150000D01*
G01*
G37*
G36*
G01*
X109906500Y-65503000D02*
X109906500Y-65203000D01*
G75*
G02*
X110056500Y-65053000I150000J0D01*
G01*
X111431500Y-65053000D01*
G75*
G02*
X111581500Y-65203000I0J-150000D01*
G01*
X111581500Y-65503000D01*
G75*
G02*
X111431500Y-65653000I-150000J0D01*
G01*
X110056500Y-65653000D01*
G75*
G02*
X109906500Y-65503000I0J150000D01*
G01*
G37*
G36*
G01*
X109906500Y-64853000D02*
X109906500Y-64553000D01*
G75*
G02*
X110056500Y-64403000I150000J0D01*
G01*
X111431500Y-64403000D01*
G75*
G02*
X111581500Y-64553000I0J-150000D01*
G01*
X111581500Y-64853000D01*
G75*
G02*
X111431500Y-65003000I-150000J0D01*
G01*
X110056500Y-65003000D01*
G75*
G02*
X109906500Y-64853000I0J150000D01*
G01*
G37*
G36*
G01*
X109906500Y-64203000D02*
X109906500Y-63903000D01*
G75*
G02*
X110056500Y-63753000I150000J0D01*
G01*
X111431500Y-63753000D01*
G75*
G02*
X111581500Y-63903000I0J-150000D01*
G01*
X111581500Y-64203000D01*
G75*
G02*
X111431500Y-64353000I-150000J0D01*
G01*
X110056500Y-64353000D01*
G75*
G02*
X109906500Y-64203000I0J150000D01*
G01*
G37*
G36*
G01*
X109906500Y-63553000D02*
X109906500Y-63253000D01*
G75*
G02*
X110056500Y-63103000I150000J0D01*
G01*
X111431500Y-63103000D01*
G75*
G02*
X111581500Y-63253000I0J-150000D01*
G01*
X111581500Y-63553000D01*
G75*
G02*
X111431500Y-63703000I-150000J0D01*
G01*
X110056500Y-63703000D01*
G75*
G02*
X109906500Y-63553000I0J150000D01*
G01*
G37*
G36*
G01*
X109906500Y-62903000D02*
X109906500Y-62603000D01*
G75*
G02*
X110056500Y-62453000I150000J0D01*
G01*
X111431500Y-62453000D01*
G75*
G02*
X111581500Y-62603000I0J-150000D01*
G01*
X111581500Y-62903000D01*
G75*
G02*
X111431500Y-63053000I-150000J0D01*
G01*
X110056500Y-63053000D01*
G75*
G02*
X109906500Y-62903000I0J150000D01*
G01*
G37*
G36*
G01*
X109906500Y-62253000D02*
X109906500Y-61953000D01*
G75*
G02*
X110056500Y-61803000I150000J0D01*
G01*
X111431500Y-61803000D01*
G75*
G02*
X111581500Y-61953000I0J-150000D01*
G01*
X111581500Y-62253000D01*
G75*
G02*
X111431500Y-62403000I-150000J0D01*
G01*
X110056500Y-62403000D01*
G75*
G02*
X109906500Y-62253000I0J150000D01*
G01*
G37*
G36*
G01*
X107132000Y-63533500D02*
X107132000Y-62958500D01*
G75*
G02*
X107419500Y-62671000I287500J0D01*
G01*
X108019500Y-62671000D01*
G75*
G02*
X108307000Y-62958500I0J-287500D01*
G01*
X108307000Y-63533500D01*
G75*
G02*
X108019500Y-63821000I-287500J0D01*
G01*
X107419500Y-63821000D01*
G75*
G02*
X107132000Y-63533500I0J287500D01*
G01*
G37*
G36*
G01*
X105307000Y-63533500D02*
X105307000Y-62958500D01*
G75*
G02*
X105594500Y-62671000I287500J0D01*
G01*
X106194500Y-62671000D01*
G75*
G02*
X106482000Y-62958500I0J-287500D01*
G01*
X106482000Y-63533500D01*
G75*
G02*
X106194500Y-63821000I-287500J0D01*
G01*
X105594500Y-63821000D01*
G75*
G02*
X105307000Y-63533500I0J287500D01*
G01*
G37*
G36*
G01*
X107132000Y-61882500D02*
X107132000Y-61307500D01*
G75*
G02*
X107419500Y-61020000I287500J0D01*
G01*
X108019500Y-61020000D01*
G75*
G02*
X108307000Y-61307500I0J-287500D01*
G01*
X108307000Y-61882500D01*
G75*
G02*
X108019500Y-62170000I-287500J0D01*
G01*
X107419500Y-62170000D01*
G75*
G02*
X107132000Y-61882500I0J287500D01*
G01*
G37*
G36*
G01*
X105307000Y-61882500D02*
X105307000Y-61307500D01*
G75*
G02*
X105594500Y-61020000I287500J0D01*
G01*
X106194500Y-61020000D01*
G75*
G02*
X106482000Y-61307500I0J-287500D01*
G01*
X106482000Y-61882500D01*
G75*
G02*
X106194500Y-62170000I-287500J0D01*
G01*
X105594500Y-62170000D01*
G75*
G02*
X105307000Y-61882500I0J287500D01*
G01*
G37*
G36*
G01*
X104681500Y-83622000D02*
X104106500Y-83622000D01*
G75*
G02*
X103819000Y-83334500I0J287500D01*
G01*
X103819000Y-82734500D01*
G75*
G02*
X104106500Y-82447000I287500J0D01*
G01*
X104681500Y-82447000D01*
G75*
G02*
X104969000Y-82734500I0J-287500D01*
G01*
X104969000Y-83334500D01*
G75*
G02*
X104681500Y-83622000I-287500J0D01*
G01*
G37*
G36*
G01*
X104681500Y-85447000D02*
X104106500Y-85447000D01*
G75*
G02*
X103819000Y-85159500I0J287500D01*
G01*
X103819000Y-84559500D01*
G75*
G02*
X104106500Y-84272000I287500J0D01*
G01*
X104681500Y-84272000D01*
G75*
G02*
X104969000Y-84559500I0J-287500D01*
G01*
X104969000Y-85159500D01*
G75*
G02*
X104681500Y-85447000I-287500J0D01*
G01*
G37*
G36*
G01*
X104427500Y-76359500D02*
X103852500Y-76359500D01*
G75*
G02*
X103565000Y-76072000I0J287500D01*
G01*
X103565000Y-75472000D01*
G75*
G02*
X103852500Y-75184500I287500J0D01*
G01*
X104427500Y-75184500D01*
G75*
G02*
X104715000Y-75472000I0J-287500D01*
G01*
X104715000Y-76072000D01*
G75*
G02*
X104427500Y-76359500I-287500J0D01*
G01*
G37*
G36*
G01*
X104427500Y-78184500D02*
X103852500Y-78184500D01*
G75*
G02*
X103565000Y-77897000I0J287500D01*
G01*
X103565000Y-77297000D01*
G75*
G02*
X103852500Y-77009500I287500J0D01*
G01*
X104427500Y-77009500D01*
G75*
G02*
X104715000Y-77297000I0J-287500D01*
G01*
X104715000Y-77897000D01*
G75*
G02*
X104427500Y-78184500I-287500J0D01*
G01*
G37*
G36*
G01*
X74620000Y-81694500D02*
X74620000Y-81119500D01*
G75*
G02*
X74907500Y-80832000I287500J0D01*
G01*
X75507500Y-80832000D01*
G75*
G02*
X75795000Y-81119500I0J-287500D01*
G01*
X75795000Y-81694500D01*
G75*
G02*
X75507500Y-81982000I-287500J0D01*
G01*
X74907500Y-81982000D01*
G75*
G02*
X74620000Y-81694500I0J287500D01*
G01*
G37*
G36*
G01*
X72795000Y-81694500D02*
X72795000Y-81119500D01*
G75*
G02*
X73082500Y-80832000I287500J0D01*
G01*
X73682500Y-80832000D01*
G75*
G02*
X73970000Y-81119500I0J-287500D01*
G01*
X73970000Y-81694500D01*
G75*
G02*
X73682500Y-81982000I-287500J0D01*
G01*
X73082500Y-81982000D01*
G75*
G02*
X72795000Y-81694500I0J287500D01*
G01*
G37*
G36*
G01*
X74620000Y-80043500D02*
X74620000Y-79468500D01*
G75*
G02*
X74907500Y-79181000I287500J0D01*
G01*
X75507500Y-79181000D01*
G75*
G02*
X75795000Y-79468500I0J-287500D01*
G01*
X75795000Y-80043500D01*
G75*
G02*
X75507500Y-80331000I-287500J0D01*
G01*
X74907500Y-80331000D01*
G75*
G02*
X74620000Y-80043500I0J287500D01*
G01*
G37*
G36*
G01*
X72795000Y-80043500D02*
X72795000Y-79468500D01*
G75*
G02*
X73082500Y-79181000I287500J0D01*
G01*
X73682500Y-79181000D01*
G75*
G02*
X73970000Y-79468500I0J-287500D01*
G01*
X73970000Y-80043500D01*
G75*
G02*
X73682500Y-80331000I-287500J0D01*
G01*
X73082500Y-80331000D01*
G75*
G02*
X72795000Y-80043500I0J287500D01*
G01*
G37*
G36*
G01*
X79685000Y-74642500D02*
X79685000Y-75217500D01*
G75*
G02*
X79397500Y-75505000I-287500J0D01*
G01*
X78797500Y-75505000D01*
G75*
G02*
X78510000Y-75217500I0J287500D01*
G01*
X78510000Y-74642500D01*
G75*
G02*
X78797500Y-74355000I287500J0D01*
G01*
X79397500Y-74355000D01*
G75*
G02*
X79685000Y-74642500I0J-287500D01*
G01*
G37*
G36*
G01*
X81510000Y-74642500D02*
X81510000Y-75217500D01*
G75*
G02*
X81222500Y-75505000I-287500J0D01*
G01*
X80622500Y-75505000D01*
G75*
G02*
X80335000Y-75217500I0J287500D01*
G01*
X80335000Y-74642500D01*
G75*
G02*
X80622500Y-74355000I287500J0D01*
G01*
X81222500Y-74355000D01*
G75*
G02*
X81510000Y-74642500I0J-287500D01*
G01*
G37*
G36*
G01*
X79685000Y-76293500D02*
X79685000Y-76868500D01*
G75*
G02*
X79397500Y-77156000I-287500J0D01*
G01*
X78797500Y-77156000D01*
G75*
G02*
X78510000Y-76868500I0J287500D01*
G01*
X78510000Y-76293500D01*
G75*
G02*
X78797500Y-76006000I287500J0D01*
G01*
X79397500Y-76006000D01*
G75*
G02*
X79685000Y-76293500I0J-287500D01*
G01*
G37*
G36*
G01*
X81510000Y-76293500D02*
X81510000Y-76868500D01*
G75*
G02*
X81222500Y-77156000I-287500J0D01*
G01*
X80622500Y-77156000D01*
G75*
G02*
X80335000Y-76868500I0J287500D01*
G01*
X80335000Y-76293500D01*
G75*
G02*
X80622500Y-76006000I287500J0D01*
G01*
X81222500Y-76006000D01*
G75*
G02*
X81510000Y-76293500I0J-287500D01*
G01*
G37*
G36*
G01*
X80335000Y-78519500D02*
X80335000Y-77944500D01*
G75*
G02*
X80622500Y-77657000I287500J0D01*
G01*
X81222500Y-77657000D01*
G75*
G02*
X81510000Y-77944500I0J-287500D01*
G01*
X81510000Y-78519500D01*
G75*
G02*
X81222500Y-78807000I-287500J0D01*
G01*
X80622500Y-78807000D01*
G75*
G02*
X80335000Y-78519500I0J287500D01*
G01*
G37*
G36*
G01*
X78510000Y-78519500D02*
X78510000Y-77944500D01*
G75*
G02*
X78797500Y-77657000I287500J0D01*
G01*
X79397500Y-77657000D01*
G75*
G02*
X79685000Y-77944500I0J-287500D01*
G01*
X79685000Y-78519500D01*
G75*
G02*
X79397500Y-78807000I-287500J0D01*
G01*
X78797500Y-78807000D01*
G75*
G02*
X78510000Y-78519500I0J287500D01*
G01*
G37*
G36*
G01*
X74097000Y-74388500D02*
X74097000Y-74963500D01*
G75*
G02*
X73809500Y-75251000I-287500J0D01*
G01*
X73209500Y-75251000D01*
G75*
G02*
X72922000Y-74963500I0J287500D01*
G01*
X72922000Y-74388500D01*
G75*
G02*
X73209500Y-74101000I287500J0D01*
G01*
X73809500Y-74101000D01*
G75*
G02*
X74097000Y-74388500I0J-287500D01*
G01*
G37*
G36*
G01*
X75922000Y-74388500D02*
X75922000Y-74963500D01*
G75*
G02*
X75634500Y-75251000I-287500J0D01*
G01*
X75034500Y-75251000D01*
G75*
G02*
X74747000Y-74963500I0J287500D01*
G01*
X74747000Y-74388500D01*
G75*
G02*
X75034500Y-74101000I287500J0D01*
G01*
X75634500Y-74101000D01*
G75*
G02*
X75922000Y-74388500I0J-287500D01*
G01*
G37*
D13*
X99695000Y-73660000D03*
X99695000Y-71120000D03*
X99695000Y-68580000D03*
G36*
G01*
X98778734Y-65070000D02*
X100611266Y-65070000D01*
G75*
G02*
X100890000Y-65348734I0J-278734D01*
G01*
X100890000Y-66731266D01*
G75*
G02*
X100611266Y-67010000I-278734J0D01*
G01*
X98778734Y-67010000D01*
G75*
G02*
X98500000Y-66731266I0J278734D01*
G01*
X98500000Y-65348734D01*
G75*
G02*
X98778734Y-65070000I278734J0D01*
G01*
G37*
D11*
X124460000Y-77470000D03*
X121920000Y-77470000D03*
X124460000Y-74930000D03*
X121920000Y-74930000D03*
X124460000Y-72390000D03*
X121920000Y-72390000D03*
X124460000Y-69850000D03*
X121920000Y-69850000D03*
X124460000Y-67310000D03*
X121920000Y-67310000D03*
X124460000Y-64770000D03*
X121920000Y-64770000D03*
X124460000Y-62230000D03*
G36*
G01*
X120970000Y-63080000D02*
X120970000Y-61380000D01*
G75*
G02*
X121070000Y-61280000I100000J0D01*
G01*
X122770000Y-61280000D01*
G75*
G02*
X122870000Y-61380000I0J-100000D01*
G01*
X122870000Y-63080000D01*
G75*
G02*
X122770000Y-63180000I-100000J0D01*
G01*
X121070000Y-63180000D01*
G75*
G02*
X120970000Y-63080000I0J100000D01*
G01*
G37*
G36*
G01*
X89595000Y-72760000D02*
X89595000Y-72020000D01*
G75*
G02*
X89695000Y-71920000I100000J0D01*
G01*
X92095000Y-71920000D01*
G75*
G02*
X92195000Y-72020000I0J-100000D01*
G01*
X92195000Y-72760000D01*
G75*
G02*
X92095000Y-72860000I-100000J0D01*
G01*
X89695000Y-72860000D01*
G75*
G02*
X89595000Y-72760000I0J100000D01*
G01*
G37*
G36*
G01*
X85695000Y-72760000D02*
X85695000Y-72020000D01*
G75*
G02*
X85795000Y-71920000I100000J0D01*
G01*
X88195000Y-71920000D01*
G75*
G02*
X88295000Y-72020000I0J-100000D01*
G01*
X88295000Y-72760000D01*
G75*
G02*
X88195000Y-72860000I-100000J0D01*
G01*
X85795000Y-72860000D01*
G75*
G02*
X85695000Y-72760000I0J100000D01*
G01*
G37*
G36*
G01*
X89595000Y-71490000D02*
X89595000Y-70750000D01*
G75*
G02*
X89695000Y-70650000I100000J0D01*
G01*
X92095000Y-70650000D01*
G75*
G02*
X92195000Y-70750000I0J-100000D01*
G01*
X92195000Y-71490000D01*
G75*
G02*
X92095000Y-71590000I-100000J0D01*
G01*
X89695000Y-71590000D01*
G75*
G02*
X89595000Y-71490000I0J100000D01*
G01*
G37*
G36*
G01*
X85695000Y-71490000D02*
X85695000Y-70750000D01*
G75*
G02*
X85795000Y-70650000I100000J0D01*
G01*
X88195000Y-70650000D01*
G75*
G02*
X88295000Y-70750000I0J-100000D01*
G01*
X88295000Y-71490000D01*
G75*
G02*
X88195000Y-71590000I-100000J0D01*
G01*
X85795000Y-71590000D01*
G75*
G02*
X85695000Y-71490000I0J100000D01*
G01*
G37*
G36*
G01*
X89595000Y-70220000D02*
X89595000Y-69480000D01*
G75*
G02*
X89695000Y-69380000I100000J0D01*
G01*
X92095000Y-69380000D01*
G75*
G02*
X92195000Y-69480000I0J-100000D01*
G01*
X92195000Y-70220000D01*
G75*
G02*
X92095000Y-70320000I-100000J0D01*
G01*
X89695000Y-70320000D01*
G75*
G02*
X89595000Y-70220000I0J100000D01*
G01*
G37*
G36*
G01*
X85695000Y-70220000D02*
X85695000Y-69480000D01*
G75*
G02*
X85795000Y-69380000I100000J0D01*
G01*
X88195000Y-69380000D01*
G75*
G02*
X88295000Y-69480000I0J-100000D01*
G01*
X88295000Y-70220000D01*
G75*
G02*
X88195000Y-70320000I-100000J0D01*
G01*
X85795000Y-70320000D01*
G75*
G02*
X85695000Y-70220000I0J100000D01*
G01*
G37*
G36*
G01*
X89595000Y-68950000D02*
X89595000Y-68210000D01*
G75*
G02*
X89695000Y-68110000I100000J0D01*
G01*
X92095000Y-68110000D01*
G75*
G02*
X92195000Y-68210000I0J-100000D01*
G01*
X92195000Y-68950000D01*
G75*
G02*
X92095000Y-69050000I-100000J0D01*
G01*
X89695000Y-69050000D01*
G75*
G02*
X89595000Y-68950000I0J100000D01*
G01*
G37*
G36*
G01*
X85695000Y-68950000D02*
X85695000Y-68210000D01*
G75*
G02*
X85795000Y-68110000I100000J0D01*
G01*
X88195000Y-68110000D01*
G75*
G02*
X88295000Y-68210000I0J-100000D01*
G01*
X88295000Y-68950000D01*
G75*
G02*
X88195000Y-69050000I-100000J0D01*
G01*
X85795000Y-69050000D01*
G75*
G02*
X85695000Y-68950000I0J100000D01*
G01*
G37*
G36*
G01*
X89595000Y-67680000D02*
X89595000Y-66940000D01*
G75*
G02*
X89695000Y-66840000I100000J0D01*
G01*
X92095000Y-66840000D01*
G75*
G02*
X92195000Y-66940000I0J-100000D01*
G01*
X92195000Y-67680000D01*
G75*
G02*
X92095000Y-67780000I-100000J0D01*
G01*
X89695000Y-67780000D01*
G75*
G02*
X89595000Y-67680000I0J100000D01*
G01*
G37*
G36*
G01*
X85695000Y-67680000D02*
X85695000Y-66940000D01*
G75*
G02*
X85795000Y-66840000I100000J0D01*
G01*
X88195000Y-66840000D01*
G75*
G02*
X88295000Y-66940000I0J-100000D01*
G01*
X88295000Y-67680000D01*
G75*
G02*
X88195000Y-67780000I-100000J0D01*
G01*
X85795000Y-67780000D01*
G75*
G02*
X85695000Y-67680000I0J100000D01*
G01*
G37*
G36*
G01*
X68316000Y-80992500D02*
X68316000Y-81567500D01*
G75*
G02*
X68028500Y-81855000I-287500J0D01*
G01*
X67353500Y-81855000D01*
G75*
G02*
X67066000Y-81567500I0J287500D01*
G01*
X67066000Y-80992500D01*
G75*
G02*
X67353500Y-80705000I287500J0D01*
G01*
X68028500Y-80705000D01*
G75*
G02*
X68316000Y-80992500I0J-287500D01*
G01*
G37*
G36*
G01*
X70066000Y-80992500D02*
X70066000Y-81567500D01*
G75*
G02*
X69778500Y-81855000I-287500J0D01*
G01*
X69103500Y-81855000D01*
G75*
G02*
X68816000Y-81567500I0J287500D01*
G01*
X68816000Y-80992500D01*
G75*
G02*
X69103500Y-80705000I287500J0D01*
G01*
X69778500Y-80705000D01*
G75*
G02*
X70066000Y-80992500I0J-287500D01*
G01*
G37*
G36*
G01*
X68316000Y-79468500D02*
X68316000Y-80043500D01*
G75*
G02*
X68028500Y-80331000I-287500J0D01*
G01*
X67353500Y-80331000D01*
G75*
G02*
X67066000Y-80043500I0J287500D01*
G01*
X67066000Y-79468500D01*
G75*
G02*
X67353500Y-79181000I287500J0D01*
G01*
X68028500Y-79181000D01*
G75*
G02*
X68316000Y-79468500I0J-287500D01*
G01*
G37*
G36*
G01*
X70066000Y-79468500D02*
X70066000Y-80043500D01*
G75*
G02*
X69778500Y-80331000I-287500J0D01*
G01*
X69103500Y-80331000D01*
G75*
G02*
X68816000Y-80043500I0J287500D01*
G01*
X68816000Y-79468500D01*
G75*
G02*
X69103500Y-79181000I287500J0D01*
G01*
X69778500Y-79181000D01*
G75*
G02*
X70066000Y-79468500I0J-287500D01*
G01*
G37*
G36*
G01*
X92041500Y-57248000D02*
X92616500Y-57248000D01*
G75*
G02*
X92904000Y-57535500I0J-287500D01*
G01*
X92904000Y-58235500D01*
G75*
G02*
X92616500Y-58523000I-287500J0D01*
G01*
X92041500Y-58523000D01*
G75*
G02*
X91754000Y-58235500I0J287500D01*
G01*
X91754000Y-57535500D01*
G75*
G02*
X92041500Y-57248000I287500J0D01*
G01*
G37*
G36*
G01*
X92041500Y-55523000D02*
X92616500Y-55523000D01*
G75*
G02*
X92904000Y-55810500I0J-287500D01*
G01*
X92904000Y-56510500D01*
G75*
G02*
X92616500Y-56798000I-287500J0D01*
G01*
X92041500Y-56798000D01*
G75*
G02*
X91754000Y-56510500I0J287500D01*
G01*
X91754000Y-55810500D01*
G75*
G02*
X92041500Y-55523000I287500J0D01*
G01*
G37*
G36*
G01*
X107032000Y-60231500D02*
X107032000Y-59656500D01*
G75*
G02*
X107319500Y-59369000I287500J0D01*
G01*
X108019500Y-59369000D01*
G75*
G02*
X108307000Y-59656500I0J-287500D01*
G01*
X108307000Y-60231500D01*
G75*
G02*
X108019500Y-60519000I-287500J0D01*
G01*
X107319500Y-60519000D01*
G75*
G02*
X107032000Y-60231500I0J287500D01*
G01*
G37*
G36*
G01*
X105307000Y-60231500D02*
X105307000Y-59656500D01*
G75*
G02*
X105594500Y-59369000I287500J0D01*
G01*
X106294500Y-59369000D01*
G75*
G02*
X106582000Y-59656500I0J-287500D01*
G01*
X106582000Y-60231500D01*
G75*
G02*
X106294500Y-60519000I-287500J0D01*
G01*
X105594500Y-60519000D01*
G75*
G02*
X105307000Y-60231500I0J287500D01*
G01*
G37*
G36*
G01*
X79087500Y-64106000D02*
X79662500Y-64106000D01*
G75*
G02*
X79950000Y-64393500I0J-287500D01*
G01*
X79950000Y-65093500D01*
G75*
G02*
X79662500Y-65381000I-287500J0D01*
G01*
X79087500Y-65381000D01*
G75*
G02*
X78800000Y-65093500I0J287500D01*
G01*
X78800000Y-64393500D01*
G75*
G02*
X79087500Y-64106000I287500J0D01*
G01*
G37*
G36*
G01*
X79087500Y-62381000D02*
X79662500Y-62381000D01*
G75*
G02*
X79950000Y-62668500I0J-287500D01*
G01*
X79950000Y-63368500D01*
G75*
G02*
X79662500Y-63656000I-287500J0D01*
G01*
X79087500Y-63656000D01*
G75*
G02*
X78800000Y-63368500I0J287500D01*
G01*
X78800000Y-62668500D01*
G75*
G02*
X79087500Y-62381000I287500J0D01*
G01*
G37*
G36*
G01*
X71153500Y-61497000D02*
X70578500Y-61497000D01*
G75*
G02*
X70291000Y-61209500I0J287500D01*
G01*
X70291000Y-60509500D01*
G75*
G02*
X70578500Y-60222000I287500J0D01*
G01*
X71153500Y-60222000D01*
G75*
G02*
X71441000Y-60509500I0J-287500D01*
G01*
X71441000Y-61209500D01*
G75*
G02*
X71153500Y-61497000I-287500J0D01*
G01*
G37*
G36*
G01*
X71153500Y-63222000D02*
X70578500Y-63222000D01*
G75*
G02*
X70291000Y-62934500I0J287500D01*
G01*
X70291000Y-62234500D01*
G75*
G02*
X70578500Y-61947000I287500J0D01*
G01*
X71153500Y-61947000D01*
G75*
G02*
X71441000Y-62234500I0J-287500D01*
G01*
X71441000Y-62934500D01*
G75*
G02*
X71153500Y-63222000I-287500J0D01*
G01*
G37*
D14*
G36*
X71619732Y-70999000D02*
G01*
X71620000Y-71000000D01*
X71620000Y-71100000D01*
X71619000Y-71101732D01*
X71618000Y-71102000D01*
X69418000Y-71102000D01*
X69416268Y-71101000D01*
X69416000Y-71100000D01*
X69416000Y-71000000D01*
X69417000Y-70998268D01*
X69418000Y-70998000D01*
X71618000Y-70998000D01*
X71619732Y-70999000D01*
G37*
G36*
X71619732Y-70199000D02*
G01*
X71620000Y-70200000D01*
X71620000Y-70300000D01*
X71619000Y-70301732D01*
X71618000Y-70302000D01*
X69418000Y-70302000D01*
X69416268Y-70301000D01*
X69416000Y-70300000D01*
X69416000Y-70200000D01*
X69417000Y-70198268D01*
X69418000Y-70198000D01*
X71618000Y-70198000D01*
X71619732Y-70199000D01*
G37*
G36*
X71619732Y-69399000D02*
G01*
X71620000Y-69400000D01*
X71620000Y-69500000D01*
X71619000Y-69501732D01*
X71618000Y-69502000D01*
X69418000Y-69502000D01*
X69416268Y-69501000D01*
X69416000Y-69500000D01*
X69416000Y-69400000D01*
X69417000Y-69398268D01*
X69418000Y-69398000D01*
X71618000Y-69398000D01*
X71619732Y-69399000D01*
G37*
G36*
X71619732Y-68599000D02*
G01*
X71620000Y-68600000D01*
X71620000Y-68700000D01*
X71619000Y-68701732D01*
X71618000Y-68702000D01*
X69418000Y-68702000D01*
X69416268Y-68701000D01*
X69416000Y-68700000D01*
X69416000Y-68600000D01*
X69417000Y-68598268D01*
X69418000Y-68598000D01*
X71618000Y-68598000D01*
X71619732Y-68599000D01*
G37*
G36*
X117307665Y-67451374D02*
G01*
X117308500Y-67453000D01*
X117308500Y-67498092D01*
X117308490Y-67498288D01*
X117306095Y-67522609D01*
X117306019Y-67522994D01*
X117300356Y-67541662D01*
X117300206Y-67542024D01*
X117291007Y-67559234D01*
X117290789Y-67559560D01*
X117285703Y-67565758D01*
X117274977Y-67581811D01*
X117267627Y-67599557D01*
X117263879Y-67618401D01*
X117263880Y-67637606D01*
X117267629Y-67656449D01*
X117274980Y-67674195D01*
X117285702Y-67690242D01*
X117290789Y-67696440D01*
X117291007Y-67696766D01*
X117300206Y-67713976D01*
X117300356Y-67714338D01*
X117306019Y-67733006D01*
X117306095Y-67733391D01*
X117308490Y-67757712D01*
X117308500Y-67757908D01*
X117308500Y-67803000D01*
X117307500Y-67804732D01*
X117305500Y-67804732D01*
X117304510Y-67803196D01*
X117301648Y-67774131D01*
X117293225Y-67746366D01*
X117279549Y-67720780D01*
X117261145Y-67698355D01*
X117238720Y-67679951D01*
X117213134Y-67666275D01*
X117185369Y-67657852D01*
X117156406Y-67655000D01*
X115781594Y-67655000D01*
X115752631Y-67657852D01*
X115724866Y-67666275D01*
X115699280Y-67679951D01*
X115676855Y-67698355D01*
X115658451Y-67720780D01*
X115644775Y-67746366D01*
X115636352Y-67774131D01*
X115633490Y-67803196D01*
X115632325Y-67804822D01*
X115630335Y-67804626D01*
X115629500Y-67803000D01*
X115629500Y-67757908D01*
X115629510Y-67757712D01*
X115631905Y-67733391D01*
X115631981Y-67733006D01*
X115637644Y-67714338D01*
X115637794Y-67713976D01*
X115646993Y-67696766D01*
X115647211Y-67696440D01*
X115652297Y-67690242D01*
X115663023Y-67674189D01*
X115670373Y-67656443D01*
X115674121Y-67637599D01*
X115674120Y-67618394D01*
X115670371Y-67599551D01*
X115663020Y-67581805D01*
X115652298Y-67565758D01*
X115647211Y-67559560D01*
X115646993Y-67559234D01*
X115637794Y-67542024D01*
X115637644Y-67541662D01*
X115631981Y-67522994D01*
X115631905Y-67522609D01*
X115629510Y-67498288D01*
X115629500Y-67498092D01*
X115629500Y-67453000D01*
X115630500Y-67451268D01*
X115632500Y-67451268D01*
X115633490Y-67452804D01*
X115636352Y-67481869D01*
X115644775Y-67509634D01*
X115658451Y-67535220D01*
X115676855Y-67557645D01*
X115699280Y-67576049D01*
X115724866Y-67589725D01*
X115752631Y-67598148D01*
X115781594Y-67601000D01*
X117156406Y-67601000D01*
X117185369Y-67598148D01*
X117213134Y-67589725D01*
X117238720Y-67576049D01*
X117261145Y-67557645D01*
X117279549Y-67535220D01*
X117293225Y-67509634D01*
X117301648Y-67481869D01*
X117304510Y-67452804D01*
X117305675Y-67451178D01*
X117307665Y-67451374D01*
G37*
G36*
X111582665Y-67451374D02*
G01*
X111583500Y-67453000D01*
X111583500Y-67498092D01*
X111583490Y-67498288D01*
X111581095Y-67522609D01*
X111581019Y-67522994D01*
X111575356Y-67541662D01*
X111575206Y-67542024D01*
X111566007Y-67559234D01*
X111565789Y-67559560D01*
X111560703Y-67565758D01*
X111549977Y-67581811D01*
X111542627Y-67599557D01*
X111538879Y-67618401D01*
X111538880Y-67637606D01*
X111542629Y-67656449D01*
X111549980Y-67674195D01*
X111560702Y-67690242D01*
X111565789Y-67696440D01*
X111566007Y-67696766D01*
X111575206Y-67713976D01*
X111575356Y-67714338D01*
X111581019Y-67733006D01*
X111581095Y-67733391D01*
X111583490Y-67757712D01*
X111583500Y-67757908D01*
X111583500Y-67803000D01*
X111582500Y-67804732D01*
X111580500Y-67804732D01*
X111579510Y-67803196D01*
X111576648Y-67774131D01*
X111568225Y-67746366D01*
X111554549Y-67720780D01*
X111536145Y-67698355D01*
X111513720Y-67679951D01*
X111488134Y-67666275D01*
X111460369Y-67657852D01*
X111431406Y-67655000D01*
X110056594Y-67655000D01*
X110027631Y-67657852D01*
X109999866Y-67666275D01*
X109974280Y-67679951D01*
X109951855Y-67698355D01*
X109933451Y-67720780D01*
X109919775Y-67746366D01*
X109911352Y-67774131D01*
X109908490Y-67803196D01*
X109907325Y-67804822D01*
X109905335Y-67804626D01*
X109904500Y-67803000D01*
X109904500Y-67757908D01*
X109904510Y-67757712D01*
X109906905Y-67733391D01*
X109906981Y-67733006D01*
X109912644Y-67714338D01*
X109912794Y-67713976D01*
X109921993Y-67696766D01*
X109922211Y-67696440D01*
X109927297Y-67690242D01*
X109938023Y-67674189D01*
X109945373Y-67656443D01*
X109949121Y-67637599D01*
X109949120Y-67618394D01*
X109945371Y-67599551D01*
X109938020Y-67581805D01*
X109927298Y-67565758D01*
X109922211Y-67559560D01*
X109921993Y-67559234D01*
X109912794Y-67542024D01*
X109912644Y-67541662D01*
X109906981Y-67522994D01*
X109906905Y-67522609D01*
X109904510Y-67498288D01*
X109904500Y-67498092D01*
X109904500Y-67453000D01*
X109905500Y-67451268D01*
X109907500Y-67451268D01*
X109908490Y-67452804D01*
X109911352Y-67481869D01*
X109919775Y-67509634D01*
X109933451Y-67535220D01*
X109951855Y-67557645D01*
X109974280Y-67576049D01*
X109999866Y-67589725D01*
X110027631Y-67598148D01*
X110056594Y-67601000D01*
X111431406Y-67601000D01*
X111460369Y-67598148D01*
X111488134Y-67589725D01*
X111513720Y-67576049D01*
X111536145Y-67557645D01*
X111554549Y-67535220D01*
X111568225Y-67509634D01*
X111576648Y-67481869D01*
X111579510Y-67452804D01*
X111580675Y-67451178D01*
X111582665Y-67451374D01*
G37*
G36*
X111582665Y-66801374D02*
G01*
X111583500Y-66803000D01*
X111583500Y-66848092D01*
X111583490Y-66848288D01*
X111581095Y-66872609D01*
X111581019Y-66872994D01*
X111575356Y-66891662D01*
X111575206Y-66892024D01*
X111566007Y-66909234D01*
X111565789Y-66909560D01*
X111560703Y-66915758D01*
X111549977Y-66931811D01*
X111542627Y-66949557D01*
X111538879Y-66968401D01*
X111538880Y-66987606D01*
X111542629Y-67006449D01*
X111549980Y-67024195D01*
X111560702Y-67040242D01*
X111565789Y-67046440D01*
X111566007Y-67046766D01*
X111575206Y-67063976D01*
X111575356Y-67064338D01*
X111581019Y-67083006D01*
X111581095Y-67083391D01*
X111583490Y-67107712D01*
X111583500Y-67107908D01*
X111583500Y-67153000D01*
X111582500Y-67154732D01*
X111580500Y-67154732D01*
X111579510Y-67153196D01*
X111576648Y-67124131D01*
X111568225Y-67096366D01*
X111554549Y-67070780D01*
X111536145Y-67048355D01*
X111513720Y-67029951D01*
X111488134Y-67016275D01*
X111460369Y-67007852D01*
X111431406Y-67005000D01*
X110056594Y-67005000D01*
X110027631Y-67007852D01*
X109999866Y-67016275D01*
X109974280Y-67029951D01*
X109951855Y-67048355D01*
X109933451Y-67070780D01*
X109919775Y-67096366D01*
X109911352Y-67124131D01*
X109908490Y-67153196D01*
X109907325Y-67154822D01*
X109905335Y-67154626D01*
X109904500Y-67153000D01*
X109904500Y-67107908D01*
X109904510Y-67107712D01*
X109906905Y-67083391D01*
X109906981Y-67083006D01*
X109912644Y-67064338D01*
X109912794Y-67063976D01*
X109921993Y-67046766D01*
X109922211Y-67046440D01*
X109927297Y-67040242D01*
X109938023Y-67024189D01*
X109945373Y-67006443D01*
X109949121Y-66987599D01*
X109949120Y-66968394D01*
X109945371Y-66949551D01*
X109938020Y-66931805D01*
X109927298Y-66915758D01*
X109922211Y-66909560D01*
X109921993Y-66909234D01*
X109912794Y-66892024D01*
X109912644Y-66891662D01*
X109906981Y-66872994D01*
X109906905Y-66872609D01*
X109904510Y-66848288D01*
X109904500Y-66848092D01*
X109904500Y-66803000D01*
X109905500Y-66801268D01*
X109907500Y-66801268D01*
X109908490Y-66802804D01*
X109911352Y-66831869D01*
X109919775Y-66859634D01*
X109933451Y-66885220D01*
X109951855Y-66907645D01*
X109974280Y-66926049D01*
X109999866Y-66939725D01*
X110027631Y-66948148D01*
X110056594Y-66951000D01*
X111431406Y-66951000D01*
X111460369Y-66948148D01*
X111488134Y-66939725D01*
X111513720Y-66926049D01*
X111536145Y-66907645D01*
X111554549Y-66885220D01*
X111568225Y-66859634D01*
X111576648Y-66831869D01*
X111579510Y-66802804D01*
X111580675Y-66801178D01*
X111582665Y-66801374D01*
G37*
G36*
X117307665Y-66801374D02*
G01*
X117308500Y-66803000D01*
X117308500Y-66848092D01*
X117308490Y-66848288D01*
X117306095Y-66872609D01*
X117306019Y-66872994D01*
X117300356Y-66891662D01*
X117300206Y-66892024D01*
X117291007Y-66909234D01*
X117290789Y-66909560D01*
X117285703Y-66915758D01*
X117274977Y-66931811D01*
X117267627Y-66949557D01*
X117263879Y-66968401D01*
X117263880Y-66987606D01*
X117267629Y-67006449D01*
X117274980Y-67024195D01*
X117285702Y-67040242D01*
X117290789Y-67046440D01*
X117291007Y-67046766D01*
X117300206Y-67063976D01*
X117300356Y-67064338D01*
X117306019Y-67083006D01*
X117306095Y-67083391D01*
X117308490Y-67107712D01*
X117308500Y-67107908D01*
X117308500Y-67153000D01*
X117307500Y-67154732D01*
X117305500Y-67154732D01*
X117304510Y-67153196D01*
X117301648Y-67124131D01*
X117293225Y-67096366D01*
X117279549Y-67070780D01*
X117261145Y-67048355D01*
X117238720Y-67029951D01*
X117213134Y-67016275D01*
X117185369Y-67007852D01*
X117156406Y-67005000D01*
X115781594Y-67005000D01*
X115752631Y-67007852D01*
X115724866Y-67016275D01*
X115699280Y-67029951D01*
X115676855Y-67048355D01*
X115658451Y-67070780D01*
X115644775Y-67096366D01*
X115636352Y-67124131D01*
X115633490Y-67153196D01*
X115632325Y-67154822D01*
X115630335Y-67154626D01*
X115629500Y-67153000D01*
X115629500Y-67107908D01*
X115629510Y-67107712D01*
X115631905Y-67083391D01*
X115631981Y-67083006D01*
X115637644Y-67064338D01*
X115637794Y-67063976D01*
X115646993Y-67046766D01*
X115647211Y-67046440D01*
X115652297Y-67040242D01*
X115663023Y-67024189D01*
X115670373Y-67006443D01*
X115674121Y-66987599D01*
X115674120Y-66968394D01*
X115670371Y-66949551D01*
X115663020Y-66931805D01*
X115652298Y-66915758D01*
X115647211Y-66909560D01*
X115646993Y-66909234D01*
X115637794Y-66892024D01*
X115637644Y-66891662D01*
X115631981Y-66872994D01*
X115631905Y-66872609D01*
X115629510Y-66848288D01*
X115629500Y-66848092D01*
X115629500Y-66803000D01*
X115630500Y-66801268D01*
X115632500Y-66801268D01*
X115633490Y-66802804D01*
X115636352Y-66831869D01*
X115644775Y-66859634D01*
X115658451Y-66885220D01*
X115676855Y-66907645D01*
X115699280Y-66926049D01*
X115724866Y-66939725D01*
X115752631Y-66948148D01*
X115781594Y-66951000D01*
X117156406Y-66951000D01*
X117185369Y-66948148D01*
X117213134Y-66939725D01*
X117238720Y-66926049D01*
X117261145Y-66907645D01*
X117279549Y-66885220D01*
X117293225Y-66859634D01*
X117301648Y-66831869D01*
X117304510Y-66802804D01*
X117305675Y-66801178D01*
X117307665Y-66801374D01*
G37*
G36*
X117307665Y-66151374D02*
G01*
X117308500Y-66153000D01*
X117308500Y-66198092D01*
X117308490Y-66198288D01*
X117306095Y-66222609D01*
X117306019Y-66222994D01*
X117300356Y-66241662D01*
X117300206Y-66242024D01*
X117291007Y-66259234D01*
X117290789Y-66259560D01*
X117285703Y-66265758D01*
X117274977Y-66281811D01*
X117267627Y-66299557D01*
X117263879Y-66318401D01*
X117263880Y-66337606D01*
X117267629Y-66356449D01*
X117274980Y-66374195D01*
X117285702Y-66390242D01*
X117290789Y-66396440D01*
X117291007Y-66396766D01*
X117300206Y-66413976D01*
X117300356Y-66414338D01*
X117306019Y-66433006D01*
X117306095Y-66433391D01*
X117308490Y-66457712D01*
X117308500Y-66457908D01*
X117308500Y-66503000D01*
X117307500Y-66504732D01*
X117305500Y-66504732D01*
X117304510Y-66503196D01*
X117301648Y-66474131D01*
X117293225Y-66446366D01*
X117279549Y-66420780D01*
X117261145Y-66398355D01*
X117238720Y-66379951D01*
X117213134Y-66366275D01*
X117185369Y-66357852D01*
X117156406Y-66355000D01*
X115781594Y-66355000D01*
X115752631Y-66357852D01*
X115724866Y-66366275D01*
X115699280Y-66379951D01*
X115676855Y-66398355D01*
X115658451Y-66420780D01*
X115644775Y-66446366D01*
X115636352Y-66474131D01*
X115633490Y-66503196D01*
X115632325Y-66504822D01*
X115630335Y-66504626D01*
X115629500Y-66503000D01*
X115629500Y-66457908D01*
X115629510Y-66457712D01*
X115631905Y-66433391D01*
X115631981Y-66433006D01*
X115637644Y-66414338D01*
X115637794Y-66413976D01*
X115646993Y-66396766D01*
X115647211Y-66396440D01*
X115652297Y-66390242D01*
X115663023Y-66374189D01*
X115670373Y-66356443D01*
X115674121Y-66337599D01*
X115674120Y-66318394D01*
X115670371Y-66299551D01*
X115663020Y-66281805D01*
X115652298Y-66265758D01*
X115647211Y-66259560D01*
X115646993Y-66259234D01*
X115637794Y-66242024D01*
X115637644Y-66241662D01*
X115631981Y-66222994D01*
X115631905Y-66222609D01*
X115629510Y-66198288D01*
X115629500Y-66198092D01*
X115629500Y-66153000D01*
X115630500Y-66151268D01*
X115632500Y-66151268D01*
X115633490Y-66152804D01*
X115636352Y-66181869D01*
X115644775Y-66209634D01*
X115658451Y-66235220D01*
X115676855Y-66257645D01*
X115699280Y-66276049D01*
X115724866Y-66289725D01*
X115752631Y-66298148D01*
X115781594Y-66301000D01*
X117156406Y-66301000D01*
X117185369Y-66298148D01*
X117213134Y-66289725D01*
X117238720Y-66276049D01*
X117261145Y-66257645D01*
X117279549Y-66235220D01*
X117293225Y-66209634D01*
X117301648Y-66181869D01*
X117304510Y-66152804D01*
X117305675Y-66151178D01*
X117307665Y-66151374D01*
G37*
G36*
X111582665Y-66151374D02*
G01*
X111583500Y-66153000D01*
X111583500Y-66198092D01*
X111583490Y-66198288D01*
X111581095Y-66222609D01*
X111581019Y-66222994D01*
X111575356Y-66241662D01*
X111575206Y-66242024D01*
X111566007Y-66259234D01*
X111565789Y-66259560D01*
X111560703Y-66265758D01*
X111549977Y-66281811D01*
X111542627Y-66299557D01*
X111538879Y-66318401D01*
X111538880Y-66337606D01*
X111542629Y-66356449D01*
X111549980Y-66374195D01*
X111560702Y-66390242D01*
X111565789Y-66396440D01*
X111566007Y-66396766D01*
X111575206Y-66413976D01*
X111575356Y-66414338D01*
X111581019Y-66433006D01*
X111581095Y-66433391D01*
X111583490Y-66457712D01*
X111583500Y-66457908D01*
X111583500Y-66503000D01*
X111582500Y-66504732D01*
X111580500Y-66504732D01*
X111579510Y-66503196D01*
X111576648Y-66474131D01*
X111568225Y-66446366D01*
X111554549Y-66420780D01*
X111536145Y-66398355D01*
X111513720Y-66379951D01*
X111488134Y-66366275D01*
X111460369Y-66357852D01*
X111431406Y-66355000D01*
X110056594Y-66355000D01*
X110027631Y-66357852D01*
X109999866Y-66366275D01*
X109974280Y-66379951D01*
X109951855Y-66398355D01*
X109933451Y-66420780D01*
X109919775Y-66446366D01*
X109911352Y-66474131D01*
X109908490Y-66503196D01*
X109907325Y-66504822D01*
X109905335Y-66504626D01*
X109904500Y-66503000D01*
X109904500Y-66457908D01*
X109904510Y-66457712D01*
X109906905Y-66433391D01*
X109906981Y-66433006D01*
X109912644Y-66414338D01*
X109912794Y-66413976D01*
X109921993Y-66396766D01*
X109922211Y-66396440D01*
X109927297Y-66390242D01*
X109938023Y-66374189D01*
X109945373Y-66356443D01*
X109949121Y-66337599D01*
X109949120Y-66318394D01*
X109945371Y-66299551D01*
X109938020Y-66281805D01*
X109927298Y-66265758D01*
X109922211Y-66259560D01*
X109921993Y-66259234D01*
X109912794Y-66242024D01*
X109912644Y-66241662D01*
X109906981Y-66222994D01*
X109906905Y-66222609D01*
X109904510Y-66198288D01*
X109904500Y-66198092D01*
X109904500Y-66153000D01*
X109905500Y-66151268D01*
X109907500Y-66151268D01*
X109908490Y-66152804D01*
X109911352Y-66181869D01*
X109919775Y-66209634D01*
X109933451Y-66235220D01*
X109951855Y-66257645D01*
X109974280Y-66276049D01*
X109999866Y-66289725D01*
X110027631Y-66298148D01*
X110056594Y-66301000D01*
X111431406Y-66301000D01*
X111460369Y-66298148D01*
X111488134Y-66289725D01*
X111513720Y-66276049D01*
X111536145Y-66257645D01*
X111554549Y-66235220D01*
X111568225Y-66209634D01*
X111576648Y-66181869D01*
X111579510Y-66152804D01*
X111580675Y-66151178D01*
X111582665Y-66151374D01*
G37*
G36*
X117307665Y-65501374D02*
G01*
X117308500Y-65503000D01*
X117308500Y-65548092D01*
X117308490Y-65548288D01*
X117306095Y-65572609D01*
X117306019Y-65572994D01*
X117300356Y-65591662D01*
X117300206Y-65592024D01*
X117291007Y-65609234D01*
X117290789Y-65609560D01*
X117285703Y-65615758D01*
X117274977Y-65631811D01*
X117267627Y-65649557D01*
X117263879Y-65668401D01*
X117263880Y-65687606D01*
X117267629Y-65706449D01*
X117274980Y-65724195D01*
X117285702Y-65740242D01*
X117290789Y-65746440D01*
X117291007Y-65746766D01*
X117300206Y-65763976D01*
X117300356Y-65764338D01*
X117306019Y-65783006D01*
X117306095Y-65783391D01*
X117308490Y-65807712D01*
X117308500Y-65807908D01*
X117308500Y-65853000D01*
X117307500Y-65854732D01*
X117305500Y-65854732D01*
X117304510Y-65853196D01*
X117301648Y-65824131D01*
X117293225Y-65796366D01*
X117279549Y-65770780D01*
X117261145Y-65748355D01*
X117238720Y-65729951D01*
X117213134Y-65716275D01*
X117185369Y-65707852D01*
X117156406Y-65705000D01*
X115781594Y-65705000D01*
X115752631Y-65707852D01*
X115724866Y-65716275D01*
X115699280Y-65729951D01*
X115676855Y-65748355D01*
X115658451Y-65770780D01*
X115644775Y-65796366D01*
X115636352Y-65824131D01*
X115633490Y-65853196D01*
X115632325Y-65854822D01*
X115630335Y-65854626D01*
X115629500Y-65853000D01*
X115629500Y-65807908D01*
X115629510Y-65807712D01*
X115631905Y-65783391D01*
X115631981Y-65783006D01*
X115637644Y-65764338D01*
X115637794Y-65763976D01*
X115646993Y-65746766D01*
X115647211Y-65746440D01*
X115652297Y-65740242D01*
X115663023Y-65724189D01*
X115670373Y-65706443D01*
X115674121Y-65687599D01*
X115674120Y-65668394D01*
X115670371Y-65649551D01*
X115663020Y-65631805D01*
X115652298Y-65615758D01*
X115647211Y-65609560D01*
X115646993Y-65609234D01*
X115637794Y-65592024D01*
X115637644Y-65591662D01*
X115631981Y-65572994D01*
X115631905Y-65572609D01*
X115629510Y-65548288D01*
X115629500Y-65548092D01*
X115629500Y-65503000D01*
X115630500Y-65501268D01*
X115632500Y-65501268D01*
X115633490Y-65502804D01*
X115636352Y-65531869D01*
X115644775Y-65559634D01*
X115658451Y-65585220D01*
X115676855Y-65607645D01*
X115699280Y-65626049D01*
X115724866Y-65639725D01*
X115752631Y-65648148D01*
X115781594Y-65651000D01*
X117156406Y-65651000D01*
X117185369Y-65648148D01*
X117213134Y-65639725D01*
X117238720Y-65626049D01*
X117261145Y-65607645D01*
X117279549Y-65585220D01*
X117293225Y-65559634D01*
X117301648Y-65531869D01*
X117304510Y-65502804D01*
X117305675Y-65501178D01*
X117307665Y-65501374D01*
G37*
G36*
X111582665Y-65501374D02*
G01*
X111583500Y-65503000D01*
X111583500Y-65548092D01*
X111583490Y-65548288D01*
X111581095Y-65572609D01*
X111581019Y-65572994D01*
X111575356Y-65591662D01*
X111575206Y-65592024D01*
X111566007Y-65609234D01*
X111565789Y-65609560D01*
X111560703Y-65615758D01*
X111549977Y-65631811D01*
X111542627Y-65649557D01*
X111538879Y-65668401D01*
X111538880Y-65687606D01*
X111542629Y-65706449D01*
X111549980Y-65724195D01*
X111560702Y-65740242D01*
X111565789Y-65746440D01*
X111566007Y-65746766D01*
X111575206Y-65763976D01*
X111575356Y-65764338D01*
X111581019Y-65783006D01*
X111581095Y-65783391D01*
X111583490Y-65807712D01*
X111583500Y-65807908D01*
X111583500Y-65853000D01*
X111582500Y-65854732D01*
X111580500Y-65854732D01*
X111579510Y-65853196D01*
X111576648Y-65824131D01*
X111568225Y-65796366D01*
X111554549Y-65770780D01*
X111536145Y-65748355D01*
X111513720Y-65729951D01*
X111488134Y-65716275D01*
X111460369Y-65707852D01*
X111431406Y-65705000D01*
X110056594Y-65705000D01*
X110027631Y-65707852D01*
X109999866Y-65716275D01*
X109974280Y-65729951D01*
X109951855Y-65748355D01*
X109933451Y-65770780D01*
X109919775Y-65796366D01*
X109911352Y-65824131D01*
X109908490Y-65853196D01*
X109907325Y-65854822D01*
X109905335Y-65854626D01*
X109904500Y-65853000D01*
X109904500Y-65807908D01*
X109904510Y-65807712D01*
X109906905Y-65783391D01*
X109906981Y-65783006D01*
X109912644Y-65764338D01*
X109912794Y-65763976D01*
X109921993Y-65746766D01*
X109922211Y-65746440D01*
X109927297Y-65740242D01*
X109938023Y-65724189D01*
X109945373Y-65706443D01*
X109949121Y-65687599D01*
X109949120Y-65668394D01*
X109945371Y-65649551D01*
X109938020Y-65631805D01*
X109927298Y-65615758D01*
X109922211Y-65609560D01*
X109921993Y-65609234D01*
X109912794Y-65592024D01*
X109912644Y-65591662D01*
X109906981Y-65572994D01*
X109906905Y-65572609D01*
X109904510Y-65548288D01*
X109904500Y-65548092D01*
X109904500Y-65503000D01*
X109905500Y-65501268D01*
X109907500Y-65501268D01*
X109908490Y-65502804D01*
X109911352Y-65531869D01*
X109919775Y-65559634D01*
X109933451Y-65585220D01*
X109951855Y-65607645D01*
X109974280Y-65626049D01*
X109999866Y-65639725D01*
X110027631Y-65648148D01*
X110056594Y-65651000D01*
X111431406Y-65651000D01*
X111460369Y-65648148D01*
X111488134Y-65639725D01*
X111513720Y-65626049D01*
X111536145Y-65607645D01*
X111554549Y-65585220D01*
X111568225Y-65559634D01*
X111576648Y-65531869D01*
X111579510Y-65502804D01*
X111580675Y-65501178D01*
X111582665Y-65501374D01*
G37*
G36*
X111582665Y-64851374D02*
G01*
X111583500Y-64853000D01*
X111583500Y-64898092D01*
X111583490Y-64898288D01*
X111581095Y-64922609D01*
X111581019Y-64922994D01*
X111575356Y-64941662D01*
X111575206Y-64942024D01*
X111566007Y-64959234D01*
X111565789Y-64959560D01*
X111560703Y-64965758D01*
X111549977Y-64981811D01*
X111542627Y-64999557D01*
X111538879Y-65018401D01*
X111538880Y-65037606D01*
X111542629Y-65056449D01*
X111549980Y-65074195D01*
X111560702Y-65090242D01*
X111565789Y-65096440D01*
X111566007Y-65096766D01*
X111575206Y-65113976D01*
X111575356Y-65114338D01*
X111581019Y-65133006D01*
X111581095Y-65133391D01*
X111583490Y-65157712D01*
X111583500Y-65157908D01*
X111583500Y-65203000D01*
X111582500Y-65204732D01*
X111580500Y-65204732D01*
X111579510Y-65203196D01*
X111576648Y-65174131D01*
X111568225Y-65146366D01*
X111554549Y-65120780D01*
X111536145Y-65098355D01*
X111513720Y-65079951D01*
X111488134Y-65066275D01*
X111460369Y-65057852D01*
X111431406Y-65055000D01*
X110056594Y-65055000D01*
X110027631Y-65057852D01*
X109999866Y-65066275D01*
X109974280Y-65079951D01*
X109951855Y-65098355D01*
X109933451Y-65120780D01*
X109919775Y-65146366D01*
X109911352Y-65174131D01*
X109908490Y-65203196D01*
X109907325Y-65204822D01*
X109905335Y-65204626D01*
X109904500Y-65203000D01*
X109904500Y-65157908D01*
X109904510Y-65157712D01*
X109906905Y-65133391D01*
X109906981Y-65133006D01*
X109912644Y-65114338D01*
X109912794Y-65113976D01*
X109921993Y-65096766D01*
X109922211Y-65096440D01*
X109927297Y-65090242D01*
X109938023Y-65074189D01*
X109945373Y-65056443D01*
X109949121Y-65037599D01*
X109949120Y-65018394D01*
X109945371Y-64999551D01*
X109938020Y-64981805D01*
X109927298Y-64965758D01*
X109922211Y-64959560D01*
X109921993Y-64959234D01*
X109912794Y-64942024D01*
X109912644Y-64941662D01*
X109906981Y-64922994D01*
X109906905Y-64922609D01*
X109904510Y-64898288D01*
X109904500Y-64898092D01*
X109904500Y-64853000D01*
X109905500Y-64851268D01*
X109907500Y-64851268D01*
X109908490Y-64852804D01*
X109911352Y-64881869D01*
X109919775Y-64909634D01*
X109933451Y-64935220D01*
X109951855Y-64957645D01*
X109974280Y-64976049D01*
X109999866Y-64989725D01*
X110027631Y-64998148D01*
X110056594Y-65001000D01*
X111431406Y-65001000D01*
X111460369Y-64998148D01*
X111488134Y-64989725D01*
X111513720Y-64976049D01*
X111536145Y-64957645D01*
X111554549Y-64935220D01*
X111568225Y-64909634D01*
X111576648Y-64881869D01*
X111579510Y-64852804D01*
X111580675Y-64851178D01*
X111582665Y-64851374D01*
G37*
G36*
X117307665Y-64851374D02*
G01*
X117308500Y-64853000D01*
X117308500Y-64898092D01*
X117308490Y-64898288D01*
X117306095Y-64922609D01*
X117306019Y-64922994D01*
X117300356Y-64941662D01*
X117300206Y-64942024D01*
X117291007Y-64959234D01*
X117290789Y-64959560D01*
X117285703Y-64965758D01*
X117274977Y-64981811D01*
X117267627Y-64999557D01*
X117263879Y-65018401D01*
X117263880Y-65037606D01*
X117267629Y-65056449D01*
X117274980Y-65074195D01*
X117285702Y-65090242D01*
X117290789Y-65096440D01*
X117291007Y-65096766D01*
X117300206Y-65113976D01*
X117300356Y-65114338D01*
X117306019Y-65133006D01*
X117306095Y-65133391D01*
X117308490Y-65157712D01*
X117308500Y-65157908D01*
X117308500Y-65203000D01*
X117307500Y-65204732D01*
X117305500Y-65204732D01*
X117304510Y-65203196D01*
X117301648Y-65174131D01*
X117293225Y-65146366D01*
X117279549Y-65120780D01*
X117261145Y-65098355D01*
X117238720Y-65079951D01*
X117213134Y-65066275D01*
X117185369Y-65057852D01*
X117156406Y-65055000D01*
X115781594Y-65055000D01*
X115752631Y-65057852D01*
X115724866Y-65066275D01*
X115699280Y-65079951D01*
X115676855Y-65098355D01*
X115658451Y-65120780D01*
X115644775Y-65146366D01*
X115636352Y-65174131D01*
X115633490Y-65203196D01*
X115632325Y-65204822D01*
X115630335Y-65204626D01*
X115629500Y-65203000D01*
X115629500Y-65157908D01*
X115629510Y-65157712D01*
X115631905Y-65133391D01*
X115631981Y-65133006D01*
X115637644Y-65114338D01*
X115637794Y-65113976D01*
X115646993Y-65096766D01*
X115647211Y-65096440D01*
X115652297Y-65090242D01*
X115663023Y-65074189D01*
X115670373Y-65056443D01*
X115674121Y-65037599D01*
X115674120Y-65018394D01*
X115670371Y-64999551D01*
X115663020Y-64981805D01*
X115652298Y-64965758D01*
X115647211Y-64959560D01*
X115646993Y-64959234D01*
X115637794Y-64942024D01*
X115637644Y-64941662D01*
X115631981Y-64922994D01*
X115631905Y-64922609D01*
X115629510Y-64898288D01*
X115629500Y-64898092D01*
X115629500Y-64853000D01*
X115630500Y-64851268D01*
X115632500Y-64851268D01*
X115633490Y-64852804D01*
X115636352Y-64881869D01*
X115644775Y-64909634D01*
X115658451Y-64935220D01*
X115676855Y-64957645D01*
X115699280Y-64976049D01*
X115724866Y-64989725D01*
X115752631Y-64998148D01*
X115781594Y-65001000D01*
X117156406Y-65001000D01*
X117185369Y-64998148D01*
X117213134Y-64989725D01*
X117238720Y-64976049D01*
X117261145Y-64957645D01*
X117279549Y-64935220D01*
X117293225Y-64909634D01*
X117301648Y-64881869D01*
X117304510Y-64852804D01*
X117305675Y-64851178D01*
X117307665Y-64851374D01*
G37*
G36*
X117307665Y-64201374D02*
G01*
X117308500Y-64203000D01*
X117308500Y-64248092D01*
X117308490Y-64248288D01*
X117306095Y-64272609D01*
X117306019Y-64272994D01*
X117300356Y-64291662D01*
X117300206Y-64292024D01*
X117291007Y-64309234D01*
X117290789Y-64309560D01*
X117285703Y-64315758D01*
X117274977Y-64331811D01*
X117267627Y-64349557D01*
X117263879Y-64368401D01*
X117263880Y-64387606D01*
X117267629Y-64406449D01*
X117274980Y-64424195D01*
X117285702Y-64440242D01*
X117290789Y-64446440D01*
X117291007Y-64446766D01*
X117300206Y-64463976D01*
X117300356Y-64464338D01*
X117306019Y-64483006D01*
X117306095Y-64483391D01*
X117308490Y-64507712D01*
X117308500Y-64507908D01*
X117308500Y-64553000D01*
X117307500Y-64554732D01*
X117305500Y-64554732D01*
X117304510Y-64553196D01*
X117301648Y-64524131D01*
X117293225Y-64496366D01*
X117279549Y-64470780D01*
X117261145Y-64448355D01*
X117238720Y-64429951D01*
X117213134Y-64416275D01*
X117185369Y-64407852D01*
X117156406Y-64405000D01*
X115781594Y-64405000D01*
X115752631Y-64407852D01*
X115724866Y-64416275D01*
X115699280Y-64429951D01*
X115676855Y-64448355D01*
X115658451Y-64470780D01*
X115644775Y-64496366D01*
X115636352Y-64524131D01*
X115633490Y-64553196D01*
X115632325Y-64554822D01*
X115630335Y-64554626D01*
X115629500Y-64553000D01*
X115629500Y-64507908D01*
X115629510Y-64507712D01*
X115631905Y-64483391D01*
X115631981Y-64483006D01*
X115637644Y-64464338D01*
X115637794Y-64463976D01*
X115646993Y-64446766D01*
X115647211Y-64446440D01*
X115652297Y-64440242D01*
X115663023Y-64424189D01*
X115670373Y-64406443D01*
X115674121Y-64387599D01*
X115674120Y-64368394D01*
X115670371Y-64349551D01*
X115663020Y-64331805D01*
X115652298Y-64315758D01*
X115647211Y-64309560D01*
X115646993Y-64309234D01*
X115637794Y-64292024D01*
X115637644Y-64291662D01*
X115631981Y-64272994D01*
X115631905Y-64272609D01*
X115629510Y-64248288D01*
X115629500Y-64248092D01*
X115629500Y-64203000D01*
X115630500Y-64201268D01*
X115632500Y-64201268D01*
X115633490Y-64202804D01*
X115636352Y-64231869D01*
X115644775Y-64259634D01*
X115658451Y-64285220D01*
X115676855Y-64307645D01*
X115699280Y-64326049D01*
X115724866Y-64339725D01*
X115752631Y-64348148D01*
X115781594Y-64351000D01*
X117156406Y-64351000D01*
X117185369Y-64348148D01*
X117213134Y-64339725D01*
X117238720Y-64326049D01*
X117261145Y-64307645D01*
X117279549Y-64285220D01*
X117293225Y-64259634D01*
X117301648Y-64231869D01*
X117304510Y-64202804D01*
X117305675Y-64201178D01*
X117307665Y-64201374D01*
G37*
G36*
X111582665Y-64201374D02*
G01*
X111583500Y-64203000D01*
X111583500Y-64248092D01*
X111583490Y-64248288D01*
X111581095Y-64272609D01*
X111581019Y-64272994D01*
X111575356Y-64291662D01*
X111575206Y-64292024D01*
X111566007Y-64309234D01*
X111565789Y-64309560D01*
X111560703Y-64315758D01*
X111549977Y-64331811D01*
X111542627Y-64349557D01*
X111538879Y-64368401D01*
X111538880Y-64387606D01*
X111542629Y-64406449D01*
X111549980Y-64424195D01*
X111560702Y-64440242D01*
X111565789Y-64446440D01*
X111566007Y-64446766D01*
X111575206Y-64463976D01*
X111575356Y-64464338D01*
X111581019Y-64483006D01*
X111581095Y-64483391D01*
X111583490Y-64507712D01*
X111583500Y-64507908D01*
X111583500Y-64553000D01*
X111582500Y-64554732D01*
X111580500Y-64554732D01*
X111579510Y-64553196D01*
X111576648Y-64524131D01*
X111568225Y-64496366D01*
X111554549Y-64470780D01*
X111536145Y-64448355D01*
X111513720Y-64429951D01*
X111488134Y-64416275D01*
X111460369Y-64407852D01*
X111431406Y-64405000D01*
X110056594Y-64405000D01*
X110027631Y-64407852D01*
X109999866Y-64416275D01*
X109974280Y-64429951D01*
X109951855Y-64448355D01*
X109933451Y-64470780D01*
X109919775Y-64496366D01*
X109911352Y-64524131D01*
X109908490Y-64553196D01*
X109907325Y-64554822D01*
X109905335Y-64554626D01*
X109904500Y-64553000D01*
X109904500Y-64507908D01*
X109904510Y-64507712D01*
X109906905Y-64483391D01*
X109906981Y-64483006D01*
X109912644Y-64464338D01*
X109912794Y-64463976D01*
X109921993Y-64446766D01*
X109922211Y-64446440D01*
X109927297Y-64440242D01*
X109938023Y-64424189D01*
X109945373Y-64406443D01*
X109949121Y-64387599D01*
X109949120Y-64368394D01*
X109945371Y-64349551D01*
X109938020Y-64331805D01*
X109927298Y-64315758D01*
X109922211Y-64309560D01*
X109921993Y-64309234D01*
X109912794Y-64292024D01*
X109912644Y-64291662D01*
X109906981Y-64272994D01*
X109906905Y-64272609D01*
X109904510Y-64248288D01*
X109904500Y-64248092D01*
X109904500Y-64203000D01*
X109905500Y-64201268D01*
X109907500Y-64201268D01*
X109908490Y-64202804D01*
X109911352Y-64231869D01*
X109919775Y-64259634D01*
X109933451Y-64285220D01*
X109951855Y-64307645D01*
X109974280Y-64326049D01*
X109999866Y-64339725D01*
X110027631Y-64348148D01*
X110056594Y-64351000D01*
X111431406Y-64351000D01*
X111460369Y-64348148D01*
X111488134Y-64339725D01*
X111513720Y-64326049D01*
X111536145Y-64307645D01*
X111554549Y-64285220D01*
X111568225Y-64259634D01*
X111576648Y-64231869D01*
X111579510Y-64202804D01*
X111580675Y-64201178D01*
X111582665Y-64201374D01*
G37*
G36*
X111582665Y-63551374D02*
G01*
X111583500Y-63553000D01*
X111583500Y-63598092D01*
X111583490Y-63598288D01*
X111581095Y-63622609D01*
X111581019Y-63622994D01*
X111575356Y-63641662D01*
X111575206Y-63642024D01*
X111566007Y-63659234D01*
X111565789Y-63659560D01*
X111560703Y-63665758D01*
X111549977Y-63681811D01*
X111542627Y-63699557D01*
X111538879Y-63718401D01*
X111538880Y-63737606D01*
X111542629Y-63756449D01*
X111549980Y-63774195D01*
X111560702Y-63790242D01*
X111565789Y-63796440D01*
X111566007Y-63796766D01*
X111575206Y-63813976D01*
X111575356Y-63814338D01*
X111581019Y-63833006D01*
X111581095Y-63833391D01*
X111583490Y-63857712D01*
X111583500Y-63857908D01*
X111583500Y-63903000D01*
X111582500Y-63904732D01*
X111580500Y-63904732D01*
X111579510Y-63903196D01*
X111576648Y-63874131D01*
X111568225Y-63846366D01*
X111554549Y-63820780D01*
X111536145Y-63798355D01*
X111513720Y-63779951D01*
X111488134Y-63766275D01*
X111460369Y-63757852D01*
X111431406Y-63755000D01*
X110056594Y-63755000D01*
X110027631Y-63757852D01*
X109999866Y-63766275D01*
X109974280Y-63779951D01*
X109951855Y-63798355D01*
X109933451Y-63820780D01*
X109919775Y-63846366D01*
X109911352Y-63874131D01*
X109908490Y-63903196D01*
X109907325Y-63904822D01*
X109905335Y-63904626D01*
X109904500Y-63903000D01*
X109904500Y-63857908D01*
X109904510Y-63857712D01*
X109906905Y-63833391D01*
X109906981Y-63833006D01*
X109912644Y-63814338D01*
X109912794Y-63813976D01*
X109921993Y-63796766D01*
X109922211Y-63796440D01*
X109927297Y-63790242D01*
X109938023Y-63774189D01*
X109945373Y-63756443D01*
X109949121Y-63737599D01*
X109949120Y-63718394D01*
X109945371Y-63699551D01*
X109938020Y-63681805D01*
X109927298Y-63665758D01*
X109922211Y-63659560D01*
X109921993Y-63659234D01*
X109912794Y-63642024D01*
X109912644Y-63641662D01*
X109906981Y-63622994D01*
X109906905Y-63622609D01*
X109904510Y-63598288D01*
X109904500Y-63598092D01*
X109904500Y-63553000D01*
X109905500Y-63551268D01*
X109907500Y-63551268D01*
X109908490Y-63552804D01*
X109911352Y-63581869D01*
X109919775Y-63609634D01*
X109933451Y-63635220D01*
X109951855Y-63657645D01*
X109974280Y-63676049D01*
X109999866Y-63689725D01*
X110027631Y-63698148D01*
X110056594Y-63701000D01*
X111431406Y-63701000D01*
X111460369Y-63698148D01*
X111488134Y-63689725D01*
X111513720Y-63676049D01*
X111536145Y-63657645D01*
X111554549Y-63635220D01*
X111568225Y-63609634D01*
X111576648Y-63581869D01*
X111579510Y-63552804D01*
X111580675Y-63551178D01*
X111582665Y-63551374D01*
G37*
G36*
X117307665Y-63551374D02*
G01*
X117308500Y-63553000D01*
X117308500Y-63598092D01*
X117308490Y-63598288D01*
X117306095Y-63622609D01*
X117306019Y-63622994D01*
X117300356Y-63641662D01*
X117300206Y-63642024D01*
X117291007Y-63659234D01*
X117290789Y-63659560D01*
X117285703Y-63665758D01*
X117274977Y-63681811D01*
X117267627Y-63699557D01*
X117263879Y-63718401D01*
X117263880Y-63737606D01*
X117267629Y-63756449D01*
X117274980Y-63774195D01*
X117285702Y-63790242D01*
X117290789Y-63796440D01*
X117291007Y-63796766D01*
X117300206Y-63813976D01*
X117300356Y-63814338D01*
X117306019Y-63833006D01*
X117306095Y-63833391D01*
X117308490Y-63857712D01*
X117308500Y-63857908D01*
X117308500Y-63903000D01*
X117307500Y-63904732D01*
X117305500Y-63904732D01*
X117304510Y-63903196D01*
X117301648Y-63874131D01*
X117293225Y-63846366D01*
X117279549Y-63820780D01*
X117261145Y-63798355D01*
X117238720Y-63779951D01*
X117213134Y-63766275D01*
X117185369Y-63757852D01*
X117156406Y-63755000D01*
X115781594Y-63755000D01*
X115752631Y-63757852D01*
X115724866Y-63766275D01*
X115699280Y-63779951D01*
X115676855Y-63798355D01*
X115658451Y-63820780D01*
X115644775Y-63846366D01*
X115636352Y-63874131D01*
X115633490Y-63903196D01*
X115632325Y-63904822D01*
X115630335Y-63904626D01*
X115629500Y-63903000D01*
X115629500Y-63857908D01*
X115629510Y-63857712D01*
X115631905Y-63833391D01*
X115631981Y-63833006D01*
X115637644Y-63814338D01*
X115637794Y-63813976D01*
X115646993Y-63796766D01*
X115647211Y-63796440D01*
X115652297Y-63790242D01*
X115663023Y-63774189D01*
X115670373Y-63756443D01*
X115674121Y-63737599D01*
X115674120Y-63718394D01*
X115670371Y-63699551D01*
X115663020Y-63681805D01*
X115652298Y-63665758D01*
X115647211Y-63659560D01*
X115646993Y-63659234D01*
X115637794Y-63642024D01*
X115637644Y-63641662D01*
X115631981Y-63622994D01*
X115631905Y-63622609D01*
X115629510Y-63598288D01*
X115629500Y-63598092D01*
X115629500Y-63553000D01*
X115630500Y-63551268D01*
X115632500Y-63551268D01*
X115633490Y-63552804D01*
X115636352Y-63581869D01*
X115644775Y-63609634D01*
X115658451Y-63635220D01*
X115676855Y-63657645D01*
X115699280Y-63676049D01*
X115724866Y-63689725D01*
X115752631Y-63698148D01*
X115781594Y-63701000D01*
X117156406Y-63701000D01*
X117185369Y-63698148D01*
X117213134Y-63689725D01*
X117238720Y-63676049D01*
X117261145Y-63657645D01*
X117279549Y-63635220D01*
X117293225Y-63609634D01*
X117301648Y-63581869D01*
X117304510Y-63552804D01*
X117305675Y-63551178D01*
X117307665Y-63551374D01*
G37*
G36*
X117307665Y-62901374D02*
G01*
X117308500Y-62903000D01*
X117308500Y-62948092D01*
X117308490Y-62948288D01*
X117306095Y-62972609D01*
X117306019Y-62972994D01*
X117300356Y-62991662D01*
X117300206Y-62992024D01*
X117291007Y-63009234D01*
X117290789Y-63009560D01*
X117285703Y-63015758D01*
X117274977Y-63031811D01*
X117267627Y-63049557D01*
X117263879Y-63068401D01*
X117263880Y-63087606D01*
X117267629Y-63106449D01*
X117274980Y-63124195D01*
X117285702Y-63140242D01*
X117290789Y-63146440D01*
X117291007Y-63146766D01*
X117300206Y-63163976D01*
X117300356Y-63164338D01*
X117306019Y-63183006D01*
X117306095Y-63183391D01*
X117308490Y-63207712D01*
X117308500Y-63207908D01*
X117308500Y-63253000D01*
X117307500Y-63254732D01*
X117305500Y-63254732D01*
X117304510Y-63253196D01*
X117301648Y-63224131D01*
X117293225Y-63196366D01*
X117279549Y-63170780D01*
X117261145Y-63148355D01*
X117238720Y-63129951D01*
X117213134Y-63116275D01*
X117185369Y-63107852D01*
X117156406Y-63105000D01*
X115781594Y-63105000D01*
X115752631Y-63107852D01*
X115724866Y-63116275D01*
X115699280Y-63129951D01*
X115676855Y-63148355D01*
X115658451Y-63170780D01*
X115644775Y-63196366D01*
X115636352Y-63224131D01*
X115633490Y-63253196D01*
X115632325Y-63254822D01*
X115630335Y-63254626D01*
X115629500Y-63253000D01*
X115629500Y-63207908D01*
X115629510Y-63207712D01*
X115631905Y-63183391D01*
X115631981Y-63183006D01*
X115637644Y-63164338D01*
X115637794Y-63163976D01*
X115646993Y-63146766D01*
X115647211Y-63146440D01*
X115652297Y-63140242D01*
X115663023Y-63124189D01*
X115670373Y-63106443D01*
X115674121Y-63087599D01*
X115674120Y-63068394D01*
X115670371Y-63049551D01*
X115663020Y-63031805D01*
X115652298Y-63015758D01*
X115647211Y-63009560D01*
X115646993Y-63009234D01*
X115637794Y-62992024D01*
X115637644Y-62991662D01*
X115631981Y-62972994D01*
X115631905Y-62972609D01*
X115629510Y-62948288D01*
X115629500Y-62948092D01*
X115629500Y-62903000D01*
X115630500Y-62901268D01*
X115632500Y-62901268D01*
X115633490Y-62902804D01*
X115636352Y-62931869D01*
X115644775Y-62959634D01*
X115658451Y-62985220D01*
X115676855Y-63007645D01*
X115699280Y-63026049D01*
X115724866Y-63039725D01*
X115752631Y-63048148D01*
X115781594Y-63051000D01*
X117156406Y-63051000D01*
X117185369Y-63048148D01*
X117213134Y-63039725D01*
X117238720Y-63026049D01*
X117261145Y-63007645D01*
X117279549Y-62985220D01*
X117293225Y-62959634D01*
X117301648Y-62931869D01*
X117304510Y-62902804D01*
X117305675Y-62901178D01*
X117307665Y-62901374D01*
G37*
G36*
X111582665Y-62901374D02*
G01*
X111583500Y-62903000D01*
X111583500Y-62948092D01*
X111583490Y-62948288D01*
X111581095Y-62972609D01*
X111581019Y-62972994D01*
X111575356Y-62991662D01*
X111575206Y-62992024D01*
X111566007Y-63009234D01*
X111565789Y-63009560D01*
X111560703Y-63015758D01*
X111549977Y-63031811D01*
X111542627Y-63049557D01*
X111538879Y-63068401D01*
X111538880Y-63087606D01*
X111542629Y-63106449D01*
X111549980Y-63124195D01*
X111560702Y-63140242D01*
X111565789Y-63146440D01*
X111566007Y-63146766D01*
X111575206Y-63163976D01*
X111575356Y-63164338D01*
X111581019Y-63183006D01*
X111581095Y-63183391D01*
X111583490Y-63207712D01*
X111583500Y-63207908D01*
X111583500Y-63253000D01*
X111582500Y-63254732D01*
X111580500Y-63254732D01*
X111579510Y-63253196D01*
X111576648Y-63224131D01*
X111568225Y-63196366D01*
X111554549Y-63170780D01*
X111536145Y-63148355D01*
X111513720Y-63129951D01*
X111488134Y-63116275D01*
X111460369Y-63107852D01*
X111431406Y-63105000D01*
X110056594Y-63105000D01*
X110027631Y-63107852D01*
X109999866Y-63116275D01*
X109974280Y-63129951D01*
X109951855Y-63148355D01*
X109933451Y-63170780D01*
X109919775Y-63196366D01*
X109911352Y-63224131D01*
X109908490Y-63253196D01*
X109907325Y-63254822D01*
X109905335Y-63254626D01*
X109904500Y-63253000D01*
X109904500Y-63207908D01*
X109904510Y-63207712D01*
X109906905Y-63183391D01*
X109906981Y-63183006D01*
X109912644Y-63164338D01*
X109912794Y-63163976D01*
X109921993Y-63146766D01*
X109922211Y-63146440D01*
X109927297Y-63140242D01*
X109938023Y-63124189D01*
X109945373Y-63106443D01*
X109949121Y-63087599D01*
X109949120Y-63068394D01*
X109945371Y-63049551D01*
X109938020Y-63031805D01*
X109927298Y-63015758D01*
X109922211Y-63009560D01*
X109921993Y-63009234D01*
X109912794Y-62992024D01*
X109912644Y-62991662D01*
X109906981Y-62972994D01*
X109906905Y-62972609D01*
X109904510Y-62948288D01*
X109904500Y-62948092D01*
X109904500Y-62903000D01*
X109905500Y-62901268D01*
X109907500Y-62901268D01*
X109908490Y-62902804D01*
X109911352Y-62931869D01*
X109919775Y-62959634D01*
X109933451Y-62985220D01*
X109951855Y-63007645D01*
X109974280Y-63026049D01*
X109999866Y-63039725D01*
X110027631Y-63048148D01*
X110056594Y-63051000D01*
X111431406Y-63051000D01*
X111460369Y-63048148D01*
X111488134Y-63039725D01*
X111513720Y-63026049D01*
X111536145Y-63007645D01*
X111554549Y-62985220D01*
X111568225Y-62959634D01*
X111576648Y-62931869D01*
X111579510Y-62902804D01*
X111580675Y-62901178D01*
X111582665Y-62901374D01*
G37*
G36*
X111582665Y-62251374D02*
G01*
X111583500Y-62253000D01*
X111583500Y-62298092D01*
X111583490Y-62298288D01*
X111581095Y-62322609D01*
X111581019Y-62322994D01*
X111575356Y-62341662D01*
X111575206Y-62342024D01*
X111566007Y-62359234D01*
X111565789Y-62359560D01*
X111560703Y-62365758D01*
X111549977Y-62381811D01*
X111542627Y-62399557D01*
X111538879Y-62418401D01*
X111538880Y-62437606D01*
X111542629Y-62456449D01*
X111549980Y-62474195D01*
X111560702Y-62490242D01*
X111565789Y-62496440D01*
X111566007Y-62496766D01*
X111575206Y-62513976D01*
X111575356Y-62514338D01*
X111581019Y-62533006D01*
X111581095Y-62533391D01*
X111583490Y-62557712D01*
X111583500Y-62557908D01*
X111583500Y-62603000D01*
X111582500Y-62604732D01*
X111580500Y-62604732D01*
X111579510Y-62603196D01*
X111576648Y-62574131D01*
X111568225Y-62546366D01*
X111554549Y-62520780D01*
X111536145Y-62498355D01*
X111513720Y-62479951D01*
X111488134Y-62466275D01*
X111460369Y-62457852D01*
X111431406Y-62455000D01*
X110056594Y-62455000D01*
X110027631Y-62457852D01*
X109999866Y-62466275D01*
X109974280Y-62479951D01*
X109951855Y-62498355D01*
X109933451Y-62520780D01*
X109919775Y-62546366D01*
X109911352Y-62574131D01*
X109908490Y-62603196D01*
X109907325Y-62604822D01*
X109905335Y-62604626D01*
X109904500Y-62603000D01*
X109904500Y-62557908D01*
X109904510Y-62557712D01*
X109906905Y-62533391D01*
X109906981Y-62533006D01*
X109912644Y-62514338D01*
X109912794Y-62513976D01*
X109921993Y-62496766D01*
X109922211Y-62496440D01*
X109927297Y-62490242D01*
X109938023Y-62474189D01*
X109945373Y-62456443D01*
X109949121Y-62437599D01*
X109949120Y-62418394D01*
X109945371Y-62399551D01*
X109938020Y-62381805D01*
X109927298Y-62365758D01*
X109922211Y-62359560D01*
X109921993Y-62359234D01*
X109912794Y-62342024D01*
X109912644Y-62341662D01*
X109906981Y-62322994D01*
X109906905Y-62322609D01*
X109904510Y-62298288D01*
X109904500Y-62298092D01*
X109904500Y-62253000D01*
X109905500Y-62251268D01*
X109907500Y-62251268D01*
X109908490Y-62252804D01*
X109911352Y-62281869D01*
X109919775Y-62309634D01*
X109933451Y-62335220D01*
X109951855Y-62357645D01*
X109974280Y-62376049D01*
X109999866Y-62389725D01*
X110027631Y-62398148D01*
X110056594Y-62401000D01*
X111431406Y-62401000D01*
X111460369Y-62398148D01*
X111488134Y-62389725D01*
X111513720Y-62376049D01*
X111536145Y-62357645D01*
X111554549Y-62335220D01*
X111568225Y-62309634D01*
X111576648Y-62281869D01*
X111579510Y-62252804D01*
X111580675Y-62251178D01*
X111582665Y-62251374D01*
G37*
G36*
X117307665Y-62251374D02*
G01*
X117308500Y-62253000D01*
X117308500Y-62298092D01*
X117308490Y-62298288D01*
X117306095Y-62322609D01*
X117306019Y-62322994D01*
X117300356Y-62341662D01*
X117300206Y-62342024D01*
X117291007Y-62359234D01*
X117290789Y-62359560D01*
X117285703Y-62365758D01*
X117274977Y-62381811D01*
X117267627Y-62399557D01*
X117263879Y-62418401D01*
X117263880Y-62437606D01*
X117267629Y-62456449D01*
X117274980Y-62474195D01*
X117285702Y-62490242D01*
X117290789Y-62496440D01*
X117291007Y-62496766D01*
X117300206Y-62513976D01*
X117300356Y-62514338D01*
X117306019Y-62533006D01*
X117306095Y-62533391D01*
X117308490Y-62557712D01*
X117308500Y-62557908D01*
X117308500Y-62603000D01*
X117307500Y-62604732D01*
X117305500Y-62604732D01*
X117304510Y-62603196D01*
X117301648Y-62574131D01*
X117293225Y-62546366D01*
X117279549Y-62520780D01*
X117261145Y-62498355D01*
X117238720Y-62479951D01*
X117213134Y-62466275D01*
X117185369Y-62457852D01*
X117156406Y-62455000D01*
X115781594Y-62455000D01*
X115752631Y-62457852D01*
X115724866Y-62466275D01*
X115699280Y-62479951D01*
X115676855Y-62498355D01*
X115658451Y-62520780D01*
X115644775Y-62546366D01*
X115636352Y-62574131D01*
X115633490Y-62603196D01*
X115632325Y-62604822D01*
X115630335Y-62604626D01*
X115629500Y-62603000D01*
X115629500Y-62557908D01*
X115629510Y-62557712D01*
X115631905Y-62533391D01*
X115631981Y-62533006D01*
X115637644Y-62514338D01*
X115637794Y-62513976D01*
X115646993Y-62496766D01*
X115647211Y-62496440D01*
X115652297Y-62490242D01*
X115663023Y-62474189D01*
X115670373Y-62456443D01*
X115674121Y-62437599D01*
X115674120Y-62418394D01*
X115670371Y-62399551D01*
X115663020Y-62381805D01*
X115652298Y-62365758D01*
X115647211Y-62359560D01*
X115646993Y-62359234D01*
X115637794Y-62342024D01*
X115637644Y-62341662D01*
X115631981Y-62322994D01*
X115631905Y-62322609D01*
X115629510Y-62298288D01*
X115629500Y-62298092D01*
X115629500Y-62253000D01*
X115630500Y-62251268D01*
X115632500Y-62251268D01*
X115633490Y-62252804D01*
X115636352Y-62281869D01*
X115644775Y-62309634D01*
X115658451Y-62335220D01*
X115676855Y-62357645D01*
X115699280Y-62376049D01*
X115724866Y-62389725D01*
X115752631Y-62398148D01*
X115781594Y-62401000D01*
X117156406Y-62401000D01*
X117185369Y-62398148D01*
X117213134Y-62389725D01*
X117238720Y-62376049D01*
X117261145Y-62357645D01*
X117279549Y-62335220D01*
X117293225Y-62309634D01*
X117301648Y-62281869D01*
X117304510Y-62252804D01*
X117305675Y-62251178D01*
X117307665Y-62251374D01*
G37*
M02*
