G04 #@! TF.GenerationSoftware,KiCad,Pcbnew,(5.1.10)-1*
G04 #@! TF.CreationDate,2021-06-16T11:20:36+02:00*
G04 #@! TF.ProjectId,MSPBMP,4d535042-4d50-42e6-9b69-6361645f7063,rev?*
G04 #@! TF.SameCoordinates,Original*
G04 #@! TF.FileFunction,Paste,Top*
G04 #@! TF.FilePolarity,Positive*
%FSLAX46Y46*%
G04 Gerber Fmt 4.6, Leading zero omitted, Abs format (unit mm)*
G04 Created by KiCad (PCBNEW (5.1.10)-1) date 2021-06-16 11:20:36*
%MOMM*%
%LPD*%
G01*
G04 APERTURE LIST*
%ADD10R,1.700000X2.000000*%
%ADD11R,2.000000X0.500000*%
%ADD12R,1.900000X2.400000*%
%ADD13R,0.900000X0.800000*%
%ADD14R,2.400000X0.740000*%
G04 APERTURE END LIST*
D10*
X64968000Y-74300000D03*
X70418000Y-74300000D03*
X64968000Y-65400000D03*
X70418000Y-65400000D03*
D11*
X70518000Y-71450000D03*
X70518000Y-70650000D03*
X70518000Y-69850000D03*
X70518000Y-69050000D03*
X70518000Y-68250000D03*
D12*
X95232000Y-84328000D03*
X99332000Y-84328000D03*
G36*
G01*
X93289000Y-76691500D02*
X93289000Y-76216500D01*
G75*
G02*
X93526500Y-75979000I237500J0D01*
G01*
X94126500Y-75979000D01*
G75*
G02*
X94364000Y-76216500I0J-237500D01*
G01*
X94364000Y-76691500D01*
G75*
G02*
X94126500Y-76929000I-237500J0D01*
G01*
X93526500Y-76929000D01*
G75*
G02*
X93289000Y-76691500I0J237500D01*
G01*
G37*
G36*
G01*
X91564000Y-76691500D02*
X91564000Y-76216500D01*
G75*
G02*
X91801500Y-75979000I237500J0D01*
G01*
X92401500Y-75979000D01*
G75*
G02*
X92639000Y-76216500I0J-237500D01*
G01*
X92639000Y-76691500D01*
G75*
G02*
X92401500Y-76929000I-237500J0D01*
G01*
X91801500Y-76929000D01*
G75*
G02*
X91564000Y-76691500I0J237500D01*
G01*
G37*
G36*
G01*
X93289000Y-75040500D02*
X93289000Y-74565500D01*
G75*
G02*
X93526500Y-74328000I237500J0D01*
G01*
X94126500Y-74328000D01*
G75*
G02*
X94364000Y-74565500I0J-237500D01*
G01*
X94364000Y-75040500D01*
G75*
G02*
X94126500Y-75278000I-237500J0D01*
G01*
X93526500Y-75278000D01*
G75*
G02*
X93289000Y-75040500I0J237500D01*
G01*
G37*
G36*
G01*
X91564000Y-75040500D02*
X91564000Y-74565500D01*
G75*
G02*
X91801500Y-74328000I237500J0D01*
G01*
X92401500Y-74328000D01*
G75*
G02*
X92639000Y-74565500I0J-237500D01*
G01*
X92639000Y-75040500D01*
G75*
G02*
X92401500Y-75278000I-237500J0D01*
G01*
X91801500Y-75278000D01*
G75*
G02*
X91564000Y-75040500I0J237500D01*
G01*
G37*
G36*
G01*
X87559000Y-79391500D02*
X87559000Y-79866500D01*
G75*
G02*
X87321500Y-80104000I-237500J0D01*
G01*
X86721500Y-80104000D01*
G75*
G02*
X86484000Y-79866500I0J237500D01*
G01*
X86484000Y-79391500D01*
G75*
G02*
X86721500Y-79154000I237500J0D01*
G01*
X87321500Y-79154000D01*
G75*
G02*
X87559000Y-79391500I0J-237500D01*
G01*
G37*
G36*
G01*
X89284000Y-79391500D02*
X89284000Y-79866500D01*
G75*
G02*
X89046500Y-80104000I-237500J0D01*
G01*
X88446500Y-80104000D01*
G75*
G02*
X88209000Y-79866500I0J237500D01*
G01*
X88209000Y-79391500D01*
G75*
G02*
X88446500Y-79154000I237500J0D01*
G01*
X89046500Y-79154000D01*
G75*
G02*
X89284000Y-79391500I0J-237500D01*
G01*
G37*
G36*
G01*
X113240000Y-57293500D02*
X113240000Y-57768500D01*
G75*
G02*
X113002500Y-58006000I-237500J0D01*
G01*
X112502500Y-58006000D01*
G75*
G02*
X112265000Y-57768500I0J237500D01*
G01*
X112265000Y-57293500D01*
G75*
G02*
X112502500Y-57056000I237500J0D01*
G01*
X113002500Y-57056000D01*
G75*
G02*
X113240000Y-57293500I0J-237500D01*
G01*
G37*
G36*
G01*
X115065000Y-57293500D02*
X115065000Y-57768500D01*
G75*
G02*
X114827500Y-58006000I-237500J0D01*
G01*
X114327500Y-58006000D01*
G75*
G02*
X114090000Y-57768500I0J237500D01*
G01*
X114090000Y-57293500D01*
G75*
G02*
X114327500Y-57056000I237500J0D01*
G01*
X114827500Y-57056000D01*
G75*
G02*
X115065000Y-57293500I0J-237500D01*
G01*
G37*
G36*
G01*
X108347500Y-86404000D02*
X108822500Y-86404000D01*
G75*
G02*
X109060000Y-86641500I0J-237500D01*
G01*
X109060000Y-87141500D01*
G75*
G02*
X108822500Y-87379000I-237500J0D01*
G01*
X108347500Y-87379000D01*
G75*
G02*
X108110000Y-87141500I0J237500D01*
G01*
X108110000Y-86641500D01*
G75*
G02*
X108347500Y-86404000I237500J0D01*
G01*
G37*
G36*
G01*
X108347500Y-84579000D02*
X108822500Y-84579000D01*
G75*
G02*
X109060000Y-84816500I0J-237500D01*
G01*
X109060000Y-85316500D01*
G75*
G02*
X108822500Y-85554000I-237500J0D01*
G01*
X108347500Y-85554000D01*
G75*
G02*
X108110000Y-85316500I0J237500D01*
G01*
X108110000Y-84816500D01*
G75*
G02*
X108347500Y-84579000I237500J0D01*
G01*
G37*
G36*
G01*
X109998500Y-86304000D02*
X110473500Y-86304000D01*
G75*
G02*
X110711000Y-86541500I0J-237500D01*
G01*
X110711000Y-87141500D01*
G75*
G02*
X110473500Y-87379000I-237500J0D01*
G01*
X109998500Y-87379000D01*
G75*
G02*
X109761000Y-87141500I0J237500D01*
G01*
X109761000Y-86541500D01*
G75*
G02*
X109998500Y-86304000I237500J0D01*
G01*
G37*
G36*
G01*
X109998500Y-84579000D02*
X110473500Y-84579000D01*
G75*
G02*
X110711000Y-84816500I0J-237500D01*
G01*
X110711000Y-85416500D01*
G75*
G02*
X110473500Y-85654000I-237500J0D01*
G01*
X109998500Y-85654000D01*
G75*
G02*
X109761000Y-85416500I0J237500D01*
G01*
X109761000Y-84816500D01*
G75*
G02*
X109998500Y-84579000I237500J0D01*
G01*
G37*
G36*
G01*
X113836000Y-85708500D02*
X113836000Y-85233500D01*
G75*
G02*
X114073500Y-84996000I237500J0D01*
G01*
X114573500Y-84996000D01*
G75*
G02*
X114811000Y-85233500I0J-237500D01*
G01*
X114811000Y-85708500D01*
G75*
G02*
X114573500Y-85946000I-237500J0D01*
G01*
X114073500Y-85946000D01*
G75*
G02*
X113836000Y-85708500I0J237500D01*
G01*
G37*
G36*
G01*
X112011000Y-85708500D02*
X112011000Y-85233500D01*
G75*
G02*
X112248500Y-84996000I237500J0D01*
G01*
X112748500Y-84996000D01*
G75*
G02*
X112986000Y-85233500I0J-237500D01*
G01*
X112986000Y-85708500D01*
G75*
G02*
X112748500Y-85946000I-237500J0D01*
G01*
X112248500Y-85946000D01*
G75*
G02*
X112011000Y-85708500I0J237500D01*
G01*
G37*
G36*
G01*
X113836000Y-87232500D02*
X113836000Y-86757500D01*
G75*
G02*
X114073500Y-86520000I237500J0D01*
G01*
X114573500Y-86520000D01*
G75*
G02*
X114811000Y-86757500I0J-237500D01*
G01*
X114811000Y-87232500D01*
G75*
G02*
X114573500Y-87470000I-237500J0D01*
G01*
X114073500Y-87470000D01*
G75*
G02*
X113836000Y-87232500I0J237500D01*
G01*
G37*
G36*
G01*
X112011000Y-87232500D02*
X112011000Y-86757500D01*
G75*
G02*
X112248500Y-86520000I237500J0D01*
G01*
X112748500Y-86520000D01*
G75*
G02*
X112986000Y-86757500I0J-237500D01*
G01*
X112986000Y-87232500D01*
G75*
G02*
X112748500Y-87470000I-237500J0D01*
G01*
X112248500Y-87470000D01*
G75*
G02*
X112011000Y-87232500I0J237500D01*
G01*
G37*
G36*
G01*
X107850000Y-80337500D02*
X106525000Y-80337500D01*
G75*
G02*
X106450000Y-80262500I0J75000D01*
G01*
X106450000Y-80112500D01*
G75*
G02*
X106525000Y-80037500I75000J0D01*
G01*
X107850000Y-80037500D01*
G75*
G02*
X107925000Y-80112500I0J-75000D01*
G01*
X107925000Y-80262500D01*
G75*
G02*
X107850000Y-80337500I-75000J0D01*
G01*
G37*
G36*
G01*
X107850000Y-79837500D02*
X106525000Y-79837500D01*
G75*
G02*
X106450000Y-79762500I0J75000D01*
G01*
X106450000Y-79612500D01*
G75*
G02*
X106525000Y-79537500I75000J0D01*
G01*
X107850000Y-79537500D01*
G75*
G02*
X107925000Y-79612500I0J-75000D01*
G01*
X107925000Y-79762500D01*
G75*
G02*
X107850000Y-79837500I-75000J0D01*
G01*
G37*
G36*
G01*
X107850000Y-79337500D02*
X106525000Y-79337500D01*
G75*
G02*
X106450000Y-79262500I0J75000D01*
G01*
X106450000Y-79112500D01*
G75*
G02*
X106525000Y-79037500I75000J0D01*
G01*
X107850000Y-79037500D01*
G75*
G02*
X107925000Y-79112500I0J-75000D01*
G01*
X107925000Y-79262500D01*
G75*
G02*
X107850000Y-79337500I-75000J0D01*
G01*
G37*
G36*
G01*
X107850000Y-78837500D02*
X106525000Y-78837500D01*
G75*
G02*
X106450000Y-78762500I0J75000D01*
G01*
X106450000Y-78612500D01*
G75*
G02*
X106525000Y-78537500I75000J0D01*
G01*
X107850000Y-78537500D01*
G75*
G02*
X107925000Y-78612500I0J-75000D01*
G01*
X107925000Y-78762500D01*
G75*
G02*
X107850000Y-78837500I-75000J0D01*
G01*
G37*
G36*
G01*
X107850000Y-78337500D02*
X106525000Y-78337500D01*
G75*
G02*
X106450000Y-78262500I0J75000D01*
G01*
X106450000Y-78112500D01*
G75*
G02*
X106525000Y-78037500I75000J0D01*
G01*
X107850000Y-78037500D01*
G75*
G02*
X107925000Y-78112500I0J-75000D01*
G01*
X107925000Y-78262500D01*
G75*
G02*
X107850000Y-78337500I-75000J0D01*
G01*
G37*
G36*
G01*
X107850000Y-77837500D02*
X106525000Y-77837500D01*
G75*
G02*
X106450000Y-77762500I0J75000D01*
G01*
X106450000Y-77612500D01*
G75*
G02*
X106525000Y-77537500I75000J0D01*
G01*
X107850000Y-77537500D01*
G75*
G02*
X107925000Y-77612500I0J-75000D01*
G01*
X107925000Y-77762500D01*
G75*
G02*
X107850000Y-77837500I-75000J0D01*
G01*
G37*
G36*
G01*
X107850000Y-77337500D02*
X106525000Y-77337500D01*
G75*
G02*
X106450000Y-77262500I0J75000D01*
G01*
X106450000Y-77112500D01*
G75*
G02*
X106525000Y-77037500I75000J0D01*
G01*
X107850000Y-77037500D01*
G75*
G02*
X107925000Y-77112500I0J-75000D01*
G01*
X107925000Y-77262500D01*
G75*
G02*
X107850000Y-77337500I-75000J0D01*
G01*
G37*
G36*
G01*
X107850000Y-76837500D02*
X106525000Y-76837500D01*
G75*
G02*
X106450000Y-76762500I0J75000D01*
G01*
X106450000Y-76612500D01*
G75*
G02*
X106525000Y-76537500I75000J0D01*
G01*
X107850000Y-76537500D01*
G75*
G02*
X107925000Y-76612500I0J-75000D01*
G01*
X107925000Y-76762500D01*
G75*
G02*
X107850000Y-76837500I-75000J0D01*
G01*
G37*
G36*
G01*
X107850000Y-76337500D02*
X106525000Y-76337500D01*
G75*
G02*
X106450000Y-76262500I0J75000D01*
G01*
X106450000Y-76112500D01*
G75*
G02*
X106525000Y-76037500I75000J0D01*
G01*
X107850000Y-76037500D01*
G75*
G02*
X107925000Y-76112500I0J-75000D01*
G01*
X107925000Y-76262500D01*
G75*
G02*
X107850000Y-76337500I-75000J0D01*
G01*
G37*
G36*
G01*
X107850000Y-75837500D02*
X106525000Y-75837500D01*
G75*
G02*
X106450000Y-75762500I0J75000D01*
G01*
X106450000Y-75612500D01*
G75*
G02*
X106525000Y-75537500I75000J0D01*
G01*
X107850000Y-75537500D01*
G75*
G02*
X107925000Y-75612500I0J-75000D01*
G01*
X107925000Y-75762500D01*
G75*
G02*
X107850000Y-75837500I-75000J0D01*
G01*
G37*
G36*
G01*
X107850000Y-75337500D02*
X106525000Y-75337500D01*
G75*
G02*
X106450000Y-75262500I0J75000D01*
G01*
X106450000Y-75112500D01*
G75*
G02*
X106525000Y-75037500I75000J0D01*
G01*
X107850000Y-75037500D01*
G75*
G02*
X107925000Y-75112500I0J-75000D01*
G01*
X107925000Y-75262500D01*
G75*
G02*
X107850000Y-75337500I-75000J0D01*
G01*
G37*
G36*
G01*
X107850000Y-74837500D02*
X106525000Y-74837500D01*
G75*
G02*
X106450000Y-74762500I0J75000D01*
G01*
X106450000Y-74612500D01*
G75*
G02*
X106525000Y-74537500I75000J0D01*
G01*
X107850000Y-74537500D01*
G75*
G02*
X107925000Y-74612500I0J-75000D01*
G01*
X107925000Y-74762500D01*
G75*
G02*
X107850000Y-74837500I-75000J0D01*
G01*
G37*
G36*
G01*
X108675000Y-74012500D02*
X108525000Y-74012500D01*
G75*
G02*
X108450000Y-73937500I0J75000D01*
G01*
X108450000Y-72612500D01*
G75*
G02*
X108525000Y-72537500I75000J0D01*
G01*
X108675000Y-72537500D01*
G75*
G02*
X108750000Y-72612500I0J-75000D01*
G01*
X108750000Y-73937500D01*
G75*
G02*
X108675000Y-74012500I-75000J0D01*
G01*
G37*
G36*
G01*
X109175000Y-74012500D02*
X109025000Y-74012500D01*
G75*
G02*
X108950000Y-73937500I0J75000D01*
G01*
X108950000Y-72612500D01*
G75*
G02*
X109025000Y-72537500I75000J0D01*
G01*
X109175000Y-72537500D01*
G75*
G02*
X109250000Y-72612500I0J-75000D01*
G01*
X109250000Y-73937500D01*
G75*
G02*
X109175000Y-74012500I-75000J0D01*
G01*
G37*
G36*
G01*
X109675000Y-74012500D02*
X109525000Y-74012500D01*
G75*
G02*
X109450000Y-73937500I0J75000D01*
G01*
X109450000Y-72612500D01*
G75*
G02*
X109525000Y-72537500I75000J0D01*
G01*
X109675000Y-72537500D01*
G75*
G02*
X109750000Y-72612500I0J-75000D01*
G01*
X109750000Y-73937500D01*
G75*
G02*
X109675000Y-74012500I-75000J0D01*
G01*
G37*
G36*
G01*
X110175000Y-74012500D02*
X110025000Y-74012500D01*
G75*
G02*
X109950000Y-73937500I0J75000D01*
G01*
X109950000Y-72612500D01*
G75*
G02*
X110025000Y-72537500I75000J0D01*
G01*
X110175000Y-72537500D01*
G75*
G02*
X110250000Y-72612500I0J-75000D01*
G01*
X110250000Y-73937500D01*
G75*
G02*
X110175000Y-74012500I-75000J0D01*
G01*
G37*
G36*
G01*
X110675000Y-74012500D02*
X110525000Y-74012500D01*
G75*
G02*
X110450000Y-73937500I0J75000D01*
G01*
X110450000Y-72612500D01*
G75*
G02*
X110525000Y-72537500I75000J0D01*
G01*
X110675000Y-72537500D01*
G75*
G02*
X110750000Y-72612500I0J-75000D01*
G01*
X110750000Y-73937500D01*
G75*
G02*
X110675000Y-74012500I-75000J0D01*
G01*
G37*
G36*
G01*
X111175000Y-74012500D02*
X111025000Y-74012500D01*
G75*
G02*
X110950000Y-73937500I0J75000D01*
G01*
X110950000Y-72612500D01*
G75*
G02*
X111025000Y-72537500I75000J0D01*
G01*
X111175000Y-72537500D01*
G75*
G02*
X111250000Y-72612500I0J-75000D01*
G01*
X111250000Y-73937500D01*
G75*
G02*
X111175000Y-74012500I-75000J0D01*
G01*
G37*
G36*
G01*
X111675000Y-74012500D02*
X111525000Y-74012500D01*
G75*
G02*
X111450000Y-73937500I0J75000D01*
G01*
X111450000Y-72612500D01*
G75*
G02*
X111525000Y-72537500I75000J0D01*
G01*
X111675000Y-72537500D01*
G75*
G02*
X111750000Y-72612500I0J-75000D01*
G01*
X111750000Y-73937500D01*
G75*
G02*
X111675000Y-74012500I-75000J0D01*
G01*
G37*
G36*
G01*
X112175000Y-74012500D02*
X112025000Y-74012500D01*
G75*
G02*
X111950000Y-73937500I0J75000D01*
G01*
X111950000Y-72612500D01*
G75*
G02*
X112025000Y-72537500I75000J0D01*
G01*
X112175000Y-72537500D01*
G75*
G02*
X112250000Y-72612500I0J-75000D01*
G01*
X112250000Y-73937500D01*
G75*
G02*
X112175000Y-74012500I-75000J0D01*
G01*
G37*
G36*
G01*
X112675000Y-74012500D02*
X112525000Y-74012500D01*
G75*
G02*
X112450000Y-73937500I0J75000D01*
G01*
X112450000Y-72612500D01*
G75*
G02*
X112525000Y-72537500I75000J0D01*
G01*
X112675000Y-72537500D01*
G75*
G02*
X112750000Y-72612500I0J-75000D01*
G01*
X112750000Y-73937500D01*
G75*
G02*
X112675000Y-74012500I-75000J0D01*
G01*
G37*
G36*
G01*
X113175000Y-74012500D02*
X113025000Y-74012500D01*
G75*
G02*
X112950000Y-73937500I0J75000D01*
G01*
X112950000Y-72612500D01*
G75*
G02*
X113025000Y-72537500I75000J0D01*
G01*
X113175000Y-72537500D01*
G75*
G02*
X113250000Y-72612500I0J-75000D01*
G01*
X113250000Y-73937500D01*
G75*
G02*
X113175000Y-74012500I-75000J0D01*
G01*
G37*
G36*
G01*
X113675000Y-74012500D02*
X113525000Y-74012500D01*
G75*
G02*
X113450000Y-73937500I0J75000D01*
G01*
X113450000Y-72612500D01*
G75*
G02*
X113525000Y-72537500I75000J0D01*
G01*
X113675000Y-72537500D01*
G75*
G02*
X113750000Y-72612500I0J-75000D01*
G01*
X113750000Y-73937500D01*
G75*
G02*
X113675000Y-74012500I-75000J0D01*
G01*
G37*
G36*
G01*
X114175000Y-74012500D02*
X114025000Y-74012500D01*
G75*
G02*
X113950000Y-73937500I0J75000D01*
G01*
X113950000Y-72612500D01*
G75*
G02*
X114025000Y-72537500I75000J0D01*
G01*
X114175000Y-72537500D01*
G75*
G02*
X114250000Y-72612500I0J-75000D01*
G01*
X114250000Y-73937500D01*
G75*
G02*
X114175000Y-74012500I-75000J0D01*
G01*
G37*
G36*
G01*
X116175000Y-74837500D02*
X114850000Y-74837500D01*
G75*
G02*
X114775000Y-74762500I0J75000D01*
G01*
X114775000Y-74612500D01*
G75*
G02*
X114850000Y-74537500I75000J0D01*
G01*
X116175000Y-74537500D01*
G75*
G02*
X116250000Y-74612500I0J-75000D01*
G01*
X116250000Y-74762500D01*
G75*
G02*
X116175000Y-74837500I-75000J0D01*
G01*
G37*
G36*
G01*
X116175000Y-75337500D02*
X114850000Y-75337500D01*
G75*
G02*
X114775000Y-75262500I0J75000D01*
G01*
X114775000Y-75112500D01*
G75*
G02*
X114850000Y-75037500I75000J0D01*
G01*
X116175000Y-75037500D01*
G75*
G02*
X116250000Y-75112500I0J-75000D01*
G01*
X116250000Y-75262500D01*
G75*
G02*
X116175000Y-75337500I-75000J0D01*
G01*
G37*
G36*
G01*
X116175000Y-75837500D02*
X114850000Y-75837500D01*
G75*
G02*
X114775000Y-75762500I0J75000D01*
G01*
X114775000Y-75612500D01*
G75*
G02*
X114850000Y-75537500I75000J0D01*
G01*
X116175000Y-75537500D01*
G75*
G02*
X116250000Y-75612500I0J-75000D01*
G01*
X116250000Y-75762500D01*
G75*
G02*
X116175000Y-75837500I-75000J0D01*
G01*
G37*
G36*
G01*
X116175000Y-76337500D02*
X114850000Y-76337500D01*
G75*
G02*
X114775000Y-76262500I0J75000D01*
G01*
X114775000Y-76112500D01*
G75*
G02*
X114850000Y-76037500I75000J0D01*
G01*
X116175000Y-76037500D01*
G75*
G02*
X116250000Y-76112500I0J-75000D01*
G01*
X116250000Y-76262500D01*
G75*
G02*
X116175000Y-76337500I-75000J0D01*
G01*
G37*
G36*
G01*
X116175000Y-76837500D02*
X114850000Y-76837500D01*
G75*
G02*
X114775000Y-76762500I0J75000D01*
G01*
X114775000Y-76612500D01*
G75*
G02*
X114850000Y-76537500I75000J0D01*
G01*
X116175000Y-76537500D01*
G75*
G02*
X116250000Y-76612500I0J-75000D01*
G01*
X116250000Y-76762500D01*
G75*
G02*
X116175000Y-76837500I-75000J0D01*
G01*
G37*
G36*
G01*
X116175000Y-77337500D02*
X114850000Y-77337500D01*
G75*
G02*
X114775000Y-77262500I0J75000D01*
G01*
X114775000Y-77112500D01*
G75*
G02*
X114850000Y-77037500I75000J0D01*
G01*
X116175000Y-77037500D01*
G75*
G02*
X116250000Y-77112500I0J-75000D01*
G01*
X116250000Y-77262500D01*
G75*
G02*
X116175000Y-77337500I-75000J0D01*
G01*
G37*
G36*
G01*
X116175000Y-77837500D02*
X114850000Y-77837500D01*
G75*
G02*
X114775000Y-77762500I0J75000D01*
G01*
X114775000Y-77612500D01*
G75*
G02*
X114850000Y-77537500I75000J0D01*
G01*
X116175000Y-77537500D01*
G75*
G02*
X116250000Y-77612500I0J-75000D01*
G01*
X116250000Y-77762500D01*
G75*
G02*
X116175000Y-77837500I-75000J0D01*
G01*
G37*
G36*
G01*
X116175000Y-78337500D02*
X114850000Y-78337500D01*
G75*
G02*
X114775000Y-78262500I0J75000D01*
G01*
X114775000Y-78112500D01*
G75*
G02*
X114850000Y-78037500I75000J0D01*
G01*
X116175000Y-78037500D01*
G75*
G02*
X116250000Y-78112500I0J-75000D01*
G01*
X116250000Y-78262500D01*
G75*
G02*
X116175000Y-78337500I-75000J0D01*
G01*
G37*
G36*
G01*
X116175000Y-78837500D02*
X114850000Y-78837500D01*
G75*
G02*
X114775000Y-78762500I0J75000D01*
G01*
X114775000Y-78612500D01*
G75*
G02*
X114850000Y-78537500I75000J0D01*
G01*
X116175000Y-78537500D01*
G75*
G02*
X116250000Y-78612500I0J-75000D01*
G01*
X116250000Y-78762500D01*
G75*
G02*
X116175000Y-78837500I-75000J0D01*
G01*
G37*
G36*
G01*
X116175000Y-79337500D02*
X114850000Y-79337500D01*
G75*
G02*
X114775000Y-79262500I0J75000D01*
G01*
X114775000Y-79112500D01*
G75*
G02*
X114850000Y-79037500I75000J0D01*
G01*
X116175000Y-79037500D01*
G75*
G02*
X116250000Y-79112500I0J-75000D01*
G01*
X116250000Y-79262500D01*
G75*
G02*
X116175000Y-79337500I-75000J0D01*
G01*
G37*
G36*
G01*
X116175000Y-79837500D02*
X114850000Y-79837500D01*
G75*
G02*
X114775000Y-79762500I0J75000D01*
G01*
X114775000Y-79612500D01*
G75*
G02*
X114850000Y-79537500I75000J0D01*
G01*
X116175000Y-79537500D01*
G75*
G02*
X116250000Y-79612500I0J-75000D01*
G01*
X116250000Y-79762500D01*
G75*
G02*
X116175000Y-79837500I-75000J0D01*
G01*
G37*
G36*
G01*
X116175000Y-80337500D02*
X114850000Y-80337500D01*
G75*
G02*
X114775000Y-80262500I0J75000D01*
G01*
X114775000Y-80112500D01*
G75*
G02*
X114850000Y-80037500I75000J0D01*
G01*
X116175000Y-80037500D01*
G75*
G02*
X116250000Y-80112500I0J-75000D01*
G01*
X116250000Y-80262500D01*
G75*
G02*
X116175000Y-80337500I-75000J0D01*
G01*
G37*
G36*
G01*
X114175000Y-82337500D02*
X114025000Y-82337500D01*
G75*
G02*
X113950000Y-82262500I0J75000D01*
G01*
X113950000Y-80937500D01*
G75*
G02*
X114025000Y-80862500I75000J0D01*
G01*
X114175000Y-80862500D01*
G75*
G02*
X114250000Y-80937500I0J-75000D01*
G01*
X114250000Y-82262500D01*
G75*
G02*
X114175000Y-82337500I-75000J0D01*
G01*
G37*
G36*
G01*
X113675000Y-82337500D02*
X113525000Y-82337500D01*
G75*
G02*
X113450000Y-82262500I0J75000D01*
G01*
X113450000Y-80937500D01*
G75*
G02*
X113525000Y-80862500I75000J0D01*
G01*
X113675000Y-80862500D01*
G75*
G02*
X113750000Y-80937500I0J-75000D01*
G01*
X113750000Y-82262500D01*
G75*
G02*
X113675000Y-82337500I-75000J0D01*
G01*
G37*
G36*
G01*
X113175000Y-82337500D02*
X113025000Y-82337500D01*
G75*
G02*
X112950000Y-82262500I0J75000D01*
G01*
X112950000Y-80937500D01*
G75*
G02*
X113025000Y-80862500I75000J0D01*
G01*
X113175000Y-80862500D01*
G75*
G02*
X113250000Y-80937500I0J-75000D01*
G01*
X113250000Y-82262500D01*
G75*
G02*
X113175000Y-82337500I-75000J0D01*
G01*
G37*
G36*
G01*
X112675000Y-82337500D02*
X112525000Y-82337500D01*
G75*
G02*
X112450000Y-82262500I0J75000D01*
G01*
X112450000Y-80937500D01*
G75*
G02*
X112525000Y-80862500I75000J0D01*
G01*
X112675000Y-80862500D01*
G75*
G02*
X112750000Y-80937500I0J-75000D01*
G01*
X112750000Y-82262500D01*
G75*
G02*
X112675000Y-82337500I-75000J0D01*
G01*
G37*
G36*
G01*
X112175000Y-82337500D02*
X112025000Y-82337500D01*
G75*
G02*
X111950000Y-82262500I0J75000D01*
G01*
X111950000Y-80937500D01*
G75*
G02*
X112025000Y-80862500I75000J0D01*
G01*
X112175000Y-80862500D01*
G75*
G02*
X112250000Y-80937500I0J-75000D01*
G01*
X112250000Y-82262500D01*
G75*
G02*
X112175000Y-82337500I-75000J0D01*
G01*
G37*
G36*
G01*
X111675000Y-82337500D02*
X111525000Y-82337500D01*
G75*
G02*
X111450000Y-82262500I0J75000D01*
G01*
X111450000Y-80937500D01*
G75*
G02*
X111525000Y-80862500I75000J0D01*
G01*
X111675000Y-80862500D01*
G75*
G02*
X111750000Y-80937500I0J-75000D01*
G01*
X111750000Y-82262500D01*
G75*
G02*
X111675000Y-82337500I-75000J0D01*
G01*
G37*
G36*
G01*
X111175000Y-82337500D02*
X111025000Y-82337500D01*
G75*
G02*
X110950000Y-82262500I0J75000D01*
G01*
X110950000Y-80937500D01*
G75*
G02*
X111025000Y-80862500I75000J0D01*
G01*
X111175000Y-80862500D01*
G75*
G02*
X111250000Y-80937500I0J-75000D01*
G01*
X111250000Y-82262500D01*
G75*
G02*
X111175000Y-82337500I-75000J0D01*
G01*
G37*
G36*
G01*
X110675000Y-82337500D02*
X110525000Y-82337500D01*
G75*
G02*
X110450000Y-82262500I0J75000D01*
G01*
X110450000Y-80937500D01*
G75*
G02*
X110525000Y-80862500I75000J0D01*
G01*
X110675000Y-80862500D01*
G75*
G02*
X110750000Y-80937500I0J-75000D01*
G01*
X110750000Y-82262500D01*
G75*
G02*
X110675000Y-82337500I-75000J0D01*
G01*
G37*
G36*
G01*
X110175000Y-82337500D02*
X110025000Y-82337500D01*
G75*
G02*
X109950000Y-82262500I0J75000D01*
G01*
X109950000Y-80937500D01*
G75*
G02*
X110025000Y-80862500I75000J0D01*
G01*
X110175000Y-80862500D01*
G75*
G02*
X110250000Y-80937500I0J-75000D01*
G01*
X110250000Y-82262500D01*
G75*
G02*
X110175000Y-82337500I-75000J0D01*
G01*
G37*
G36*
G01*
X109675000Y-82337500D02*
X109525000Y-82337500D01*
G75*
G02*
X109450000Y-82262500I0J75000D01*
G01*
X109450000Y-80937500D01*
G75*
G02*
X109525000Y-80862500I75000J0D01*
G01*
X109675000Y-80862500D01*
G75*
G02*
X109750000Y-80937500I0J-75000D01*
G01*
X109750000Y-82262500D01*
G75*
G02*
X109675000Y-82337500I-75000J0D01*
G01*
G37*
G36*
G01*
X109175000Y-82337500D02*
X109025000Y-82337500D01*
G75*
G02*
X108950000Y-82262500I0J75000D01*
G01*
X108950000Y-80937500D01*
G75*
G02*
X109025000Y-80862500I75000J0D01*
G01*
X109175000Y-80862500D01*
G75*
G02*
X109250000Y-80937500I0J-75000D01*
G01*
X109250000Y-82262500D01*
G75*
G02*
X109175000Y-82337500I-75000J0D01*
G01*
G37*
G36*
G01*
X108675000Y-82337500D02*
X108525000Y-82337500D01*
G75*
G02*
X108450000Y-82262500I0J75000D01*
G01*
X108450000Y-80937500D01*
G75*
G02*
X108525000Y-80862500I75000J0D01*
G01*
X108675000Y-80862500D01*
G75*
G02*
X108750000Y-80937500I0J-75000D01*
G01*
X108750000Y-82262500D01*
G75*
G02*
X108675000Y-82337500I-75000J0D01*
G01*
G37*
G36*
G01*
X101322000Y-57046000D02*
X101322000Y-56746000D01*
G75*
G02*
X101472000Y-56596000I150000J0D01*
G01*
X103122000Y-56596000D01*
G75*
G02*
X103272000Y-56746000I0J-150000D01*
G01*
X103272000Y-57046000D01*
G75*
G02*
X103122000Y-57196000I-150000J0D01*
G01*
X101472000Y-57196000D01*
G75*
G02*
X101322000Y-57046000I0J150000D01*
G01*
G37*
G36*
G01*
X101322000Y-58316000D02*
X101322000Y-58016000D01*
G75*
G02*
X101472000Y-57866000I150000J0D01*
G01*
X103122000Y-57866000D01*
G75*
G02*
X103272000Y-58016000I0J-150000D01*
G01*
X103272000Y-58316000D01*
G75*
G02*
X103122000Y-58466000I-150000J0D01*
G01*
X101472000Y-58466000D01*
G75*
G02*
X101322000Y-58316000I0J150000D01*
G01*
G37*
G36*
G01*
X101322000Y-59586000D02*
X101322000Y-59286000D01*
G75*
G02*
X101472000Y-59136000I150000J0D01*
G01*
X103122000Y-59136000D01*
G75*
G02*
X103272000Y-59286000I0J-150000D01*
G01*
X103272000Y-59586000D01*
G75*
G02*
X103122000Y-59736000I-150000J0D01*
G01*
X101472000Y-59736000D01*
G75*
G02*
X101322000Y-59586000I0J150000D01*
G01*
G37*
G36*
G01*
X101322000Y-60856000D02*
X101322000Y-60556000D01*
G75*
G02*
X101472000Y-60406000I150000J0D01*
G01*
X103122000Y-60406000D01*
G75*
G02*
X103272000Y-60556000I0J-150000D01*
G01*
X103272000Y-60856000D01*
G75*
G02*
X103122000Y-61006000I-150000J0D01*
G01*
X101472000Y-61006000D01*
G75*
G02*
X101322000Y-60856000I0J150000D01*
G01*
G37*
G36*
G01*
X96372000Y-60856000D02*
X96372000Y-60556000D01*
G75*
G02*
X96522000Y-60406000I150000J0D01*
G01*
X98172000Y-60406000D01*
G75*
G02*
X98322000Y-60556000I0J-150000D01*
G01*
X98322000Y-60856000D01*
G75*
G02*
X98172000Y-61006000I-150000J0D01*
G01*
X96522000Y-61006000D01*
G75*
G02*
X96372000Y-60856000I0J150000D01*
G01*
G37*
G36*
G01*
X96372000Y-59586000D02*
X96372000Y-59286000D01*
G75*
G02*
X96522000Y-59136000I150000J0D01*
G01*
X98172000Y-59136000D01*
G75*
G02*
X98322000Y-59286000I0J-150000D01*
G01*
X98322000Y-59586000D01*
G75*
G02*
X98172000Y-59736000I-150000J0D01*
G01*
X96522000Y-59736000D01*
G75*
G02*
X96372000Y-59586000I0J150000D01*
G01*
G37*
G36*
G01*
X96372000Y-58316000D02*
X96372000Y-58016000D01*
G75*
G02*
X96522000Y-57866000I150000J0D01*
G01*
X98172000Y-57866000D01*
G75*
G02*
X98322000Y-58016000I0J-150000D01*
G01*
X98322000Y-58316000D01*
G75*
G02*
X98172000Y-58466000I-150000J0D01*
G01*
X96522000Y-58466000D01*
G75*
G02*
X96372000Y-58316000I0J150000D01*
G01*
G37*
G36*
G01*
X96372000Y-57046000D02*
X96372000Y-56746000D01*
G75*
G02*
X96522000Y-56596000I150000J0D01*
G01*
X98172000Y-56596000D01*
G75*
G02*
X98322000Y-56746000I0J-150000D01*
G01*
X98322000Y-57046000D01*
G75*
G02*
X98172000Y-57196000I-150000J0D01*
G01*
X96522000Y-57196000D01*
G75*
G02*
X96372000Y-57046000I0J150000D01*
G01*
G37*
G36*
G01*
X87559000Y-77740500D02*
X87559000Y-78215500D01*
G75*
G02*
X87321500Y-78453000I-237500J0D01*
G01*
X86721500Y-78453000D01*
G75*
G02*
X86484000Y-78215500I0J237500D01*
G01*
X86484000Y-77740500D01*
G75*
G02*
X86721500Y-77503000I237500J0D01*
G01*
X87321500Y-77503000D01*
G75*
G02*
X87559000Y-77740500I0J-237500D01*
G01*
G37*
G36*
G01*
X89284000Y-77740500D02*
X89284000Y-78215500D01*
G75*
G02*
X89046500Y-78453000I-237500J0D01*
G01*
X88446500Y-78453000D01*
G75*
G02*
X88209000Y-78215500I0J237500D01*
G01*
X88209000Y-77740500D01*
G75*
G02*
X88446500Y-77503000I237500J0D01*
G01*
X89046500Y-77503000D01*
G75*
G02*
X89284000Y-77740500I0J-237500D01*
G01*
G37*
G36*
G01*
X94344500Y-56698000D02*
X93869500Y-56698000D01*
G75*
G02*
X93632000Y-56460500I0J237500D01*
G01*
X93632000Y-55860500D01*
G75*
G02*
X93869500Y-55623000I237500J0D01*
G01*
X94344500Y-55623000D01*
G75*
G02*
X94582000Y-55860500I0J-237500D01*
G01*
X94582000Y-56460500D01*
G75*
G02*
X94344500Y-56698000I-237500J0D01*
G01*
G37*
G36*
G01*
X94344500Y-58423000D02*
X93869500Y-58423000D01*
G75*
G02*
X93632000Y-58185500I0J237500D01*
G01*
X93632000Y-57585500D01*
G75*
G02*
X93869500Y-57348000I237500J0D01*
G01*
X94344500Y-57348000D01*
G75*
G02*
X94582000Y-57585500I0J-237500D01*
G01*
X94582000Y-58185500D01*
G75*
G02*
X94344500Y-58423000I-237500J0D01*
G01*
G37*
G36*
G01*
X130881000Y-61832500D02*
X130881000Y-61357500D01*
G75*
G02*
X131118500Y-61120000I237500J0D01*
G01*
X131718500Y-61120000D01*
G75*
G02*
X131956000Y-61357500I0J-237500D01*
G01*
X131956000Y-61832500D01*
G75*
G02*
X131718500Y-62070000I-237500J0D01*
G01*
X131118500Y-62070000D01*
G75*
G02*
X130881000Y-61832500I0J237500D01*
G01*
G37*
G36*
G01*
X129156000Y-61832500D02*
X129156000Y-61357500D01*
G75*
G02*
X129393500Y-61120000I237500J0D01*
G01*
X129993500Y-61120000D01*
G75*
G02*
X130231000Y-61357500I0J-237500D01*
G01*
X130231000Y-61832500D01*
G75*
G02*
X129993500Y-62070000I-237500J0D01*
G01*
X129393500Y-62070000D01*
G75*
G02*
X129156000Y-61832500I0J237500D01*
G01*
G37*
G36*
G01*
X107132000Y-58530500D02*
X107132000Y-58055500D01*
G75*
G02*
X107369500Y-57818000I237500J0D01*
G01*
X107969500Y-57818000D01*
G75*
G02*
X108207000Y-58055500I0J-237500D01*
G01*
X108207000Y-58530500D01*
G75*
G02*
X107969500Y-58768000I-237500J0D01*
G01*
X107369500Y-58768000D01*
G75*
G02*
X107132000Y-58530500I0J237500D01*
G01*
G37*
G36*
G01*
X105407000Y-58530500D02*
X105407000Y-58055500D01*
G75*
G02*
X105644500Y-57818000I237500J0D01*
G01*
X106244500Y-57818000D01*
G75*
G02*
X106482000Y-58055500I0J-237500D01*
G01*
X106482000Y-58530500D01*
G75*
G02*
X106244500Y-58768000I-237500J0D01*
G01*
X105644500Y-58768000D01*
G75*
G02*
X105407000Y-58530500I0J237500D01*
G01*
G37*
G36*
G01*
X113963500Y-59419500D02*
X113963500Y-58944500D01*
G75*
G02*
X114201000Y-58707000I237500J0D01*
G01*
X114801000Y-58707000D01*
G75*
G02*
X115038500Y-58944500I0J-237500D01*
G01*
X115038500Y-59419500D01*
G75*
G02*
X114801000Y-59657000I-237500J0D01*
G01*
X114201000Y-59657000D01*
G75*
G02*
X113963500Y-59419500I0J237500D01*
G01*
G37*
G36*
G01*
X112238500Y-59419500D02*
X112238500Y-58944500D01*
G75*
G02*
X112476000Y-58707000I237500J0D01*
G01*
X113076000Y-58707000D01*
G75*
G02*
X113313500Y-58944500I0J-237500D01*
G01*
X113313500Y-59419500D01*
G75*
G02*
X113076000Y-59657000I-237500J0D01*
G01*
X112476000Y-59657000D01*
G75*
G02*
X112238500Y-59419500I0J237500D01*
G01*
G37*
G36*
G01*
X95702000Y-81390500D02*
X95702000Y-80915500D01*
G75*
G02*
X95939500Y-80678000I237500J0D01*
G01*
X96539500Y-80678000D01*
G75*
G02*
X96777000Y-80915500I0J-237500D01*
G01*
X96777000Y-81390500D01*
G75*
G02*
X96539500Y-81628000I-237500J0D01*
G01*
X95939500Y-81628000D01*
G75*
G02*
X95702000Y-81390500I0J237500D01*
G01*
G37*
G36*
G01*
X93977000Y-81390500D02*
X93977000Y-80915500D01*
G75*
G02*
X94214500Y-80678000I237500J0D01*
G01*
X94814500Y-80678000D01*
G75*
G02*
X95052000Y-80915500I0J-237500D01*
G01*
X95052000Y-81390500D01*
G75*
G02*
X94814500Y-81628000I-237500J0D01*
G01*
X94214500Y-81628000D01*
G75*
G02*
X93977000Y-81390500I0J237500D01*
G01*
G37*
G36*
G01*
X98735000Y-80915500D02*
X98735000Y-81390500D01*
G75*
G02*
X98497500Y-81628000I-237500J0D01*
G01*
X97897500Y-81628000D01*
G75*
G02*
X97660000Y-81390500I0J237500D01*
G01*
X97660000Y-80915500D01*
G75*
G02*
X97897500Y-80678000I237500J0D01*
G01*
X98497500Y-80678000D01*
G75*
G02*
X98735000Y-80915500I0J-237500D01*
G01*
G37*
G36*
G01*
X100460000Y-80915500D02*
X100460000Y-81390500D01*
G75*
G02*
X100222500Y-81628000I-237500J0D01*
G01*
X99622500Y-81628000D01*
G75*
G02*
X99385000Y-81390500I0J237500D01*
G01*
X99385000Y-80915500D01*
G75*
G02*
X99622500Y-80678000I237500J0D01*
G01*
X100222500Y-80678000D01*
G75*
G02*
X100460000Y-80915500I0J-237500D01*
G01*
G37*
G36*
G01*
X117544900Y-72754500D02*
X117544900Y-72279500D01*
G75*
G02*
X117782400Y-72042000I237500J0D01*
G01*
X118382400Y-72042000D01*
G75*
G02*
X118619900Y-72279500I0J-237500D01*
G01*
X118619900Y-72754500D01*
G75*
G02*
X118382400Y-72992000I-237500J0D01*
G01*
X117782400Y-72992000D01*
G75*
G02*
X117544900Y-72754500I0J237500D01*
G01*
G37*
G36*
G01*
X115819900Y-72754500D02*
X115819900Y-72279500D01*
G75*
G02*
X116057400Y-72042000I237500J0D01*
G01*
X116657400Y-72042000D01*
G75*
G02*
X116894900Y-72279500I0J-237500D01*
G01*
X116894900Y-72754500D01*
G75*
G02*
X116657400Y-72992000I-237500J0D01*
G01*
X116057400Y-72992000D01*
G75*
G02*
X115819900Y-72754500I0J237500D01*
G01*
G37*
G36*
G01*
X108273900Y-71306700D02*
X108273900Y-70831700D01*
G75*
G02*
X108511400Y-70594200I237500J0D01*
G01*
X109111400Y-70594200D01*
G75*
G02*
X109348900Y-70831700I0J-237500D01*
G01*
X109348900Y-71306700D01*
G75*
G02*
X109111400Y-71544200I-237500J0D01*
G01*
X108511400Y-71544200D01*
G75*
G02*
X108273900Y-71306700I0J237500D01*
G01*
G37*
G36*
G01*
X106548900Y-71306700D02*
X106548900Y-70831700D01*
G75*
G02*
X106786400Y-70594200I237500J0D01*
G01*
X107386400Y-70594200D01*
G75*
G02*
X107623900Y-70831700I0J-237500D01*
G01*
X107623900Y-71306700D01*
G75*
G02*
X107386400Y-71544200I-237500J0D01*
G01*
X106786400Y-71544200D01*
G75*
G02*
X106548900Y-71306700I0J237500D01*
G01*
G37*
G36*
G01*
X104377500Y-79711500D02*
X103902500Y-79711500D01*
G75*
G02*
X103665000Y-79474000I0J237500D01*
G01*
X103665000Y-78874000D01*
G75*
G02*
X103902500Y-78636500I237500J0D01*
G01*
X104377500Y-78636500D01*
G75*
G02*
X104615000Y-78874000I0J-237500D01*
G01*
X104615000Y-79474000D01*
G75*
G02*
X104377500Y-79711500I-237500J0D01*
G01*
G37*
G36*
G01*
X104377500Y-81436500D02*
X103902500Y-81436500D01*
G75*
G02*
X103665000Y-81199000I0J237500D01*
G01*
X103665000Y-80599000D01*
G75*
G02*
X103902500Y-80361500I237500J0D01*
G01*
X104377500Y-80361500D01*
G75*
G02*
X104615000Y-80599000I0J-237500D01*
G01*
X104615000Y-81199000D01*
G75*
G02*
X104377500Y-81436500I-237500J0D01*
G01*
G37*
G36*
G01*
X113736000Y-84184500D02*
X113736000Y-83709500D01*
G75*
G02*
X113973500Y-83472000I237500J0D01*
G01*
X114573500Y-83472000D01*
G75*
G02*
X114811000Y-83709500I0J-237500D01*
G01*
X114811000Y-84184500D01*
G75*
G02*
X114573500Y-84422000I-237500J0D01*
G01*
X113973500Y-84422000D01*
G75*
G02*
X113736000Y-84184500I0J237500D01*
G01*
G37*
G36*
G01*
X112011000Y-84184500D02*
X112011000Y-83709500D01*
G75*
G02*
X112248500Y-83472000I237500J0D01*
G01*
X112848500Y-83472000D01*
G75*
G02*
X113086000Y-83709500I0J-237500D01*
G01*
X113086000Y-84184500D01*
G75*
G02*
X112848500Y-84422000I-237500J0D01*
G01*
X112248500Y-84422000D01*
G75*
G02*
X112011000Y-84184500I0J237500D01*
G01*
G37*
G36*
G01*
X80788500Y-64206000D02*
X81263500Y-64206000D01*
G75*
G02*
X81501000Y-64443500I0J-237500D01*
G01*
X81501000Y-65043500D01*
G75*
G02*
X81263500Y-65281000I-237500J0D01*
G01*
X80788500Y-65281000D01*
G75*
G02*
X80551000Y-65043500I0J237500D01*
G01*
X80551000Y-64443500D01*
G75*
G02*
X80788500Y-64206000I237500J0D01*
G01*
G37*
G36*
G01*
X80788500Y-62481000D02*
X81263500Y-62481000D01*
G75*
G02*
X81501000Y-62718500I0J-237500D01*
G01*
X81501000Y-63318500D01*
G75*
G02*
X81263500Y-63556000I-237500J0D01*
G01*
X80788500Y-63556000D01*
G75*
G02*
X80551000Y-63318500I0J237500D01*
G01*
X80551000Y-62718500D01*
G75*
G02*
X80788500Y-62481000I237500J0D01*
G01*
G37*
G36*
G01*
X72754500Y-61397000D02*
X72279500Y-61397000D01*
G75*
G02*
X72042000Y-61159500I0J237500D01*
G01*
X72042000Y-60559500D01*
G75*
G02*
X72279500Y-60322000I237500J0D01*
G01*
X72754500Y-60322000D01*
G75*
G02*
X72992000Y-60559500I0J-237500D01*
G01*
X72992000Y-61159500D01*
G75*
G02*
X72754500Y-61397000I-237500J0D01*
G01*
G37*
G36*
G01*
X72754500Y-63122000D02*
X72279500Y-63122000D01*
G75*
G02*
X72042000Y-62884500I0J237500D01*
G01*
X72042000Y-62284500D01*
G75*
G02*
X72279500Y-62047000I237500J0D01*
G01*
X72754500Y-62047000D01*
G75*
G02*
X72992000Y-62284500I0J-237500D01*
G01*
X72992000Y-62884500D01*
G75*
G02*
X72754500Y-63122000I-237500J0D01*
G01*
G37*
D13*
X74438000Y-63944500D03*
X76438000Y-62994500D03*
X76438000Y-64894500D03*
G36*
G01*
X115731500Y-62203000D02*
X115731500Y-62003000D01*
G75*
G02*
X115831500Y-61903000I100000J0D01*
G01*
X117106500Y-61903000D01*
G75*
G02*
X117206500Y-62003000I0J-100000D01*
G01*
X117206500Y-62203000D01*
G75*
G02*
X117106500Y-62303000I-100000J0D01*
G01*
X115831500Y-62303000D01*
G75*
G02*
X115731500Y-62203000I0J100000D01*
G01*
G37*
G36*
G01*
X115731500Y-62853000D02*
X115731500Y-62653000D01*
G75*
G02*
X115831500Y-62553000I100000J0D01*
G01*
X117106500Y-62553000D01*
G75*
G02*
X117206500Y-62653000I0J-100000D01*
G01*
X117206500Y-62853000D01*
G75*
G02*
X117106500Y-62953000I-100000J0D01*
G01*
X115831500Y-62953000D01*
G75*
G02*
X115731500Y-62853000I0J100000D01*
G01*
G37*
G36*
G01*
X115731500Y-63503000D02*
X115731500Y-63303000D01*
G75*
G02*
X115831500Y-63203000I100000J0D01*
G01*
X117106500Y-63203000D01*
G75*
G02*
X117206500Y-63303000I0J-100000D01*
G01*
X117206500Y-63503000D01*
G75*
G02*
X117106500Y-63603000I-100000J0D01*
G01*
X115831500Y-63603000D01*
G75*
G02*
X115731500Y-63503000I0J100000D01*
G01*
G37*
G36*
G01*
X115731500Y-64153000D02*
X115731500Y-63953000D01*
G75*
G02*
X115831500Y-63853000I100000J0D01*
G01*
X117106500Y-63853000D01*
G75*
G02*
X117206500Y-63953000I0J-100000D01*
G01*
X117206500Y-64153000D01*
G75*
G02*
X117106500Y-64253000I-100000J0D01*
G01*
X115831500Y-64253000D01*
G75*
G02*
X115731500Y-64153000I0J100000D01*
G01*
G37*
G36*
G01*
X115731500Y-64803000D02*
X115731500Y-64603000D01*
G75*
G02*
X115831500Y-64503000I100000J0D01*
G01*
X117106500Y-64503000D01*
G75*
G02*
X117206500Y-64603000I0J-100000D01*
G01*
X117206500Y-64803000D01*
G75*
G02*
X117106500Y-64903000I-100000J0D01*
G01*
X115831500Y-64903000D01*
G75*
G02*
X115731500Y-64803000I0J100000D01*
G01*
G37*
G36*
G01*
X115731500Y-65453000D02*
X115731500Y-65253000D01*
G75*
G02*
X115831500Y-65153000I100000J0D01*
G01*
X117106500Y-65153000D01*
G75*
G02*
X117206500Y-65253000I0J-100000D01*
G01*
X117206500Y-65453000D01*
G75*
G02*
X117106500Y-65553000I-100000J0D01*
G01*
X115831500Y-65553000D01*
G75*
G02*
X115731500Y-65453000I0J100000D01*
G01*
G37*
G36*
G01*
X115731500Y-66103000D02*
X115731500Y-65903000D01*
G75*
G02*
X115831500Y-65803000I100000J0D01*
G01*
X117106500Y-65803000D01*
G75*
G02*
X117206500Y-65903000I0J-100000D01*
G01*
X117206500Y-66103000D01*
G75*
G02*
X117106500Y-66203000I-100000J0D01*
G01*
X115831500Y-66203000D01*
G75*
G02*
X115731500Y-66103000I0J100000D01*
G01*
G37*
G36*
G01*
X115731500Y-66753000D02*
X115731500Y-66553000D01*
G75*
G02*
X115831500Y-66453000I100000J0D01*
G01*
X117106500Y-66453000D01*
G75*
G02*
X117206500Y-66553000I0J-100000D01*
G01*
X117206500Y-66753000D01*
G75*
G02*
X117106500Y-66853000I-100000J0D01*
G01*
X115831500Y-66853000D01*
G75*
G02*
X115731500Y-66753000I0J100000D01*
G01*
G37*
G36*
G01*
X115731500Y-67403000D02*
X115731500Y-67203000D01*
G75*
G02*
X115831500Y-67103000I100000J0D01*
G01*
X117106500Y-67103000D01*
G75*
G02*
X117206500Y-67203000I0J-100000D01*
G01*
X117206500Y-67403000D01*
G75*
G02*
X117106500Y-67503000I-100000J0D01*
G01*
X115831500Y-67503000D01*
G75*
G02*
X115731500Y-67403000I0J100000D01*
G01*
G37*
G36*
G01*
X115731500Y-68053000D02*
X115731500Y-67853000D01*
G75*
G02*
X115831500Y-67753000I100000J0D01*
G01*
X117106500Y-67753000D01*
G75*
G02*
X117206500Y-67853000I0J-100000D01*
G01*
X117206500Y-68053000D01*
G75*
G02*
X117106500Y-68153000I-100000J0D01*
G01*
X115831500Y-68153000D01*
G75*
G02*
X115731500Y-68053000I0J100000D01*
G01*
G37*
G36*
G01*
X110006500Y-68053000D02*
X110006500Y-67853000D01*
G75*
G02*
X110106500Y-67753000I100000J0D01*
G01*
X111381500Y-67753000D01*
G75*
G02*
X111481500Y-67853000I0J-100000D01*
G01*
X111481500Y-68053000D01*
G75*
G02*
X111381500Y-68153000I-100000J0D01*
G01*
X110106500Y-68153000D01*
G75*
G02*
X110006500Y-68053000I0J100000D01*
G01*
G37*
G36*
G01*
X110006500Y-67403000D02*
X110006500Y-67203000D01*
G75*
G02*
X110106500Y-67103000I100000J0D01*
G01*
X111381500Y-67103000D01*
G75*
G02*
X111481500Y-67203000I0J-100000D01*
G01*
X111481500Y-67403000D01*
G75*
G02*
X111381500Y-67503000I-100000J0D01*
G01*
X110106500Y-67503000D01*
G75*
G02*
X110006500Y-67403000I0J100000D01*
G01*
G37*
G36*
G01*
X110006500Y-66753000D02*
X110006500Y-66553000D01*
G75*
G02*
X110106500Y-66453000I100000J0D01*
G01*
X111381500Y-66453000D01*
G75*
G02*
X111481500Y-66553000I0J-100000D01*
G01*
X111481500Y-66753000D01*
G75*
G02*
X111381500Y-66853000I-100000J0D01*
G01*
X110106500Y-66853000D01*
G75*
G02*
X110006500Y-66753000I0J100000D01*
G01*
G37*
G36*
G01*
X110006500Y-66103000D02*
X110006500Y-65903000D01*
G75*
G02*
X110106500Y-65803000I100000J0D01*
G01*
X111381500Y-65803000D01*
G75*
G02*
X111481500Y-65903000I0J-100000D01*
G01*
X111481500Y-66103000D01*
G75*
G02*
X111381500Y-66203000I-100000J0D01*
G01*
X110106500Y-66203000D01*
G75*
G02*
X110006500Y-66103000I0J100000D01*
G01*
G37*
G36*
G01*
X110006500Y-65453000D02*
X110006500Y-65253000D01*
G75*
G02*
X110106500Y-65153000I100000J0D01*
G01*
X111381500Y-65153000D01*
G75*
G02*
X111481500Y-65253000I0J-100000D01*
G01*
X111481500Y-65453000D01*
G75*
G02*
X111381500Y-65553000I-100000J0D01*
G01*
X110106500Y-65553000D01*
G75*
G02*
X110006500Y-65453000I0J100000D01*
G01*
G37*
G36*
G01*
X110006500Y-64803000D02*
X110006500Y-64603000D01*
G75*
G02*
X110106500Y-64503000I100000J0D01*
G01*
X111381500Y-64503000D01*
G75*
G02*
X111481500Y-64603000I0J-100000D01*
G01*
X111481500Y-64803000D01*
G75*
G02*
X111381500Y-64903000I-100000J0D01*
G01*
X110106500Y-64903000D01*
G75*
G02*
X110006500Y-64803000I0J100000D01*
G01*
G37*
G36*
G01*
X110006500Y-64153000D02*
X110006500Y-63953000D01*
G75*
G02*
X110106500Y-63853000I100000J0D01*
G01*
X111381500Y-63853000D01*
G75*
G02*
X111481500Y-63953000I0J-100000D01*
G01*
X111481500Y-64153000D01*
G75*
G02*
X111381500Y-64253000I-100000J0D01*
G01*
X110106500Y-64253000D01*
G75*
G02*
X110006500Y-64153000I0J100000D01*
G01*
G37*
G36*
G01*
X110006500Y-63503000D02*
X110006500Y-63303000D01*
G75*
G02*
X110106500Y-63203000I100000J0D01*
G01*
X111381500Y-63203000D01*
G75*
G02*
X111481500Y-63303000I0J-100000D01*
G01*
X111481500Y-63503000D01*
G75*
G02*
X111381500Y-63603000I-100000J0D01*
G01*
X110106500Y-63603000D01*
G75*
G02*
X110006500Y-63503000I0J100000D01*
G01*
G37*
G36*
G01*
X110006500Y-62853000D02*
X110006500Y-62653000D01*
G75*
G02*
X110106500Y-62553000I100000J0D01*
G01*
X111381500Y-62553000D01*
G75*
G02*
X111481500Y-62653000I0J-100000D01*
G01*
X111481500Y-62853000D01*
G75*
G02*
X111381500Y-62953000I-100000J0D01*
G01*
X110106500Y-62953000D01*
G75*
G02*
X110006500Y-62853000I0J100000D01*
G01*
G37*
G36*
G01*
X110006500Y-62203000D02*
X110006500Y-62003000D01*
G75*
G02*
X110106500Y-61903000I100000J0D01*
G01*
X111381500Y-61903000D01*
G75*
G02*
X111481500Y-62003000I0J-100000D01*
G01*
X111481500Y-62203000D01*
G75*
G02*
X111381500Y-62303000I-100000J0D01*
G01*
X110106500Y-62303000D01*
G75*
G02*
X110006500Y-62203000I0J100000D01*
G01*
G37*
G36*
G01*
X107232000Y-63483500D02*
X107232000Y-63008500D01*
G75*
G02*
X107469500Y-62771000I237500J0D01*
G01*
X107969500Y-62771000D01*
G75*
G02*
X108207000Y-63008500I0J-237500D01*
G01*
X108207000Y-63483500D01*
G75*
G02*
X107969500Y-63721000I-237500J0D01*
G01*
X107469500Y-63721000D01*
G75*
G02*
X107232000Y-63483500I0J237500D01*
G01*
G37*
G36*
G01*
X105407000Y-63483500D02*
X105407000Y-63008500D01*
G75*
G02*
X105644500Y-62771000I237500J0D01*
G01*
X106144500Y-62771000D01*
G75*
G02*
X106382000Y-63008500I0J-237500D01*
G01*
X106382000Y-63483500D01*
G75*
G02*
X106144500Y-63721000I-237500J0D01*
G01*
X105644500Y-63721000D01*
G75*
G02*
X105407000Y-63483500I0J237500D01*
G01*
G37*
G36*
G01*
X107232000Y-61832500D02*
X107232000Y-61357500D01*
G75*
G02*
X107469500Y-61120000I237500J0D01*
G01*
X107969500Y-61120000D01*
G75*
G02*
X108207000Y-61357500I0J-237500D01*
G01*
X108207000Y-61832500D01*
G75*
G02*
X107969500Y-62070000I-237500J0D01*
G01*
X107469500Y-62070000D01*
G75*
G02*
X107232000Y-61832500I0J237500D01*
G01*
G37*
G36*
G01*
X105407000Y-61832500D02*
X105407000Y-61357500D01*
G75*
G02*
X105644500Y-61120000I237500J0D01*
G01*
X106144500Y-61120000D01*
G75*
G02*
X106382000Y-61357500I0J-237500D01*
G01*
X106382000Y-61832500D01*
G75*
G02*
X106144500Y-62070000I-237500J0D01*
G01*
X105644500Y-62070000D01*
G75*
G02*
X105407000Y-61832500I0J237500D01*
G01*
G37*
G36*
G01*
X104631500Y-83522000D02*
X104156500Y-83522000D01*
G75*
G02*
X103919000Y-83284500I0J237500D01*
G01*
X103919000Y-82784500D01*
G75*
G02*
X104156500Y-82547000I237500J0D01*
G01*
X104631500Y-82547000D01*
G75*
G02*
X104869000Y-82784500I0J-237500D01*
G01*
X104869000Y-83284500D01*
G75*
G02*
X104631500Y-83522000I-237500J0D01*
G01*
G37*
G36*
G01*
X104631500Y-85347000D02*
X104156500Y-85347000D01*
G75*
G02*
X103919000Y-85109500I0J237500D01*
G01*
X103919000Y-84609500D01*
G75*
G02*
X104156500Y-84372000I237500J0D01*
G01*
X104631500Y-84372000D01*
G75*
G02*
X104869000Y-84609500I0J-237500D01*
G01*
X104869000Y-85109500D01*
G75*
G02*
X104631500Y-85347000I-237500J0D01*
G01*
G37*
G36*
G01*
X104377500Y-76259500D02*
X103902500Y-76259500D01*
G75*
G02*
X103665000Y-76022000I0J237500D01*
G01*
X103665000Y-75522000D01*
G75*
G02*
X103902500Y-75284500I237500J0D01*
G01*
X104377500Y-75284500D01*
G75*
G02*
X104615000Y-75522000I0J-237500D01*
G01*
X104615000Y-76022000D01*
G75*
G02*
X104377500Y-76259500I-237500J0D01*
G01*
G37*
G36*
G01*
X104377500Y-78084500D02*
X103902500Y-78084500D01*
G75*
G02*
X103665000Y-77847000I0J237500D01*
G01*
X103665000Y-77347000D01*
G75*
G02*
X103902500Y-77109500I237500J0D01*
G01*
X104377500Y-77109500D01*
G75*
G02*
X104615000Y-77347000I0J-237500D01*
G01*
X104615000Y-77847000D01*
G75*
G02*
X104377500Y-78084500I-237500J0D01*
G01*
G37*
G36*
G01*
X74720000Y-81644500D02*
X74720000Y-81169500D01*
G75*
G02*
X74957500Y-80932000I237500J0D01*
G01*
X75457500Y-80932000D01*
G75*
G02*
X75695000Y-81169500I0J-237500D01*
G01*
X75695000Y-81644500D01*
G75*
G02*
X75457500Y-81882000I-237500J0D01*
G01*
X74957500Y-81882000D01*
G75*
G02*
X74720000Y-81644500I0J237500D01*
G01*
G37*
G36*
G01*
X72895000Y-81644500D02*
X72895000Y-81169500D01*
G75*
G02*
X73132500Y-80932000I237500J0D01*
G01*
X73632500Y-80932000D01*
G75*
G02*
X73870000Y-81169500I0J-237500D01*
G01*
X73870000Y-81644500D01*
G75*
G02*
X73632500Y-81882000I-237500J0D01*
G01*
X73132500Y-81882000D01*
G75*
G02*
X72895000Y-81644500I0J237500D01*
G01*
G37*
G36*
G01*
X74720000Y-79993500D02*
X74720000Y-79518500D01*
G75*
G02*
X74957500Y-79281000I237500J0D01*
G01*
X75457500Y-79281000D01*
G75*
G02*
X75695000Y-79518500I0J-237500D01*
G01*
X75695000Y-79993500D01*
G75*
G02*
X75457500Y-80231000I-237500J0D01*
G01*
X74957500Y-80231000D01*
G75*
G02*
X74720000Y-79993500I0J237500D01*
G01*
G37*
G36*
G01*
X72895000Y-79993500D02*
X72895000Y-79518500D01*
G75*
G02*
X73132500Y-79281000I237500J0D01*
G01*
X73632500Y-79281000D01*
G75*
G02*
X73870000Y-79518500I0J-237500D01*
G01*
X73870000Y-79993500D01*
G75*
G02*
X73632500Y-80231000I-237500J0D01*
G01*
X73132500Y-80231000D01*
G75*
G02*
X72895000Y-79993500I0J237500D01*
G01*
G37*
G36*
G01*
X79585000Y-74692500D02*
X79585000Y-75167500D01*
G75*
G02*
X79347500Y-75405000I-237500J0D01*
G01*
X78847500Y-75405000D01*
G75*
G02*
X78610000Y-75167500I0J237500D01*
G01*
X78610000Y-74692500D01*
G75*
G02*
X78847500Y-74455000I237500J0D01*
G01*
X79347500Y-74455000D01*
G75*
G02*
X79585000Y-74692500I0J-237500D01*
G01*
G37*
G36*
G01*
X81410000Y-74692500D02*
X81410000Y-75167500D01*
G75*
G02*
X81172500Y-75405000I-237500J0D01*
G01*
X80672500Y-75405000D01*
G75*
G02*
X80435000Y-75167500I0J237500D01*
G01*
X80435000Y-74692500D01*
G75*
G02*
X80672500Y-74455000I237500J0D01*
G01*
X81172500Y-74455000D01*
G75*
G02*
X81410000Y-74692500I0J-237500D01*
G01*
G37*
G36*
G01*
X79585000Y-76343500D02*
X79585000Y-76818500D01*
G75*
G02*
X79347500Y-77056000I-237500J0D01*
G01*
X78847500Y-77056000D01*
G75*
G02*
X78610000Y-76818500I0J237500D01*
G01*
X78610000Y-76343500D01*
G75*
G02*
X78847500Y-76106000I237500J0D01*
G01*
X79347500Y-76106000D01*
G75*
G02*
X79585000Y-76343500I0J-237500D01*
G01*
G37*
G36*
G01*
X81410000Y-76343500D02*
X81410000Y-76818500D01*
G75*
G02*
X81172500Y-77056000I-237500J0D01*
G01*
X80672500Y-77056000D01*
G75*
G02*
X80435000Y-76818500I0J237500D01*
G01*
X80435000Y-76343500D01*
G75*
G02*
X80672500Y-76106000I237500J0D01*
G01*
X81172500Y-76106000D01*
G75*
G02*
X81410000Y-76343500I0J-237500D01*
G01*
G37*
G36*
G01*
X80435000Y-78469500D02*
X80435000Y-77994500D01*
G75*
G02*
X80672500Y-77757000I237500J0D01*
G01*
X81172500Y-77757000D01*
G75*
G02*
X81410000Y-77994500I0J-237500D01*
G01*
X81410000Y-78469500D01*
G75*
G02*
X81172500Y-78707000I-237500J0D01*
G01*
X80672500Y-78707000D01*
G75*
G02*
X80435000Y-78469500I0J237500D01*
G01*
G37*
G36*
G01*
X78610000Y-78469500D02*
X78610000Y-77994500D01*
G75*
G02*
X78847500Y-77757000I237500J0D01*
G01*
X79347500Y-77757000D01*
G75*
G02*
X79585000Y-77994500I0J-237500D01*
G01*
X79585000Y-78469500D01*
G75*
G02*
X79347500Y-78707000I-237500J0D01*
G01*
X78847500Y-78707000D01*
G75*
G02*
X78610000Y-78469500I0J237500D01*
G01*
G37*
G36*
G01*
X73997000Y-74438500D02*
X73997000Y-74913500D01*
G75*
G02*
X73759500Y-75151000I-237500J0D01*
G01*
X73259500Y-75151000D01*
G75*
G02*
X73022000Y-74913500I0J237500D01*
G01*
X73022000Y-74438500D01*
G75*
G02*
X73259500Y-74201000I237500J0D01*
G01*
X73759500Y-74201000D01*
G75*
G02*
X73997000Y-74438500I0J-237500D01*
G01*
G37*
G36*
G01*
X75822000Y-74438500D02*
X75822000Y-74913500D01*
G75*
G02*
X75584500Y-75151000I-237500J0D01*
G01*
X75084500Y-75151000D01*
G75*
G02*
X74847000Y-74913500I0J237500D01*
G01*
X74847000Y-74438500D01*
G75*
G02*
X75084500Y-74201000I237500J0D01*
G01*
X75584500Y-74201000D01*
G75*
G02*
X75822000Y-74438500I0J-237500D01*
G01*
G37*
D14*
X90895000Y-72390000D03*
X86995000Y-72390000D03*
X90895000Y-71120000D03*
X86995000Y-71120000D03*
X90895000Y-69850000D03*
X86995000Y-69850000D03*
X90895000Y-68580000D03*
X86995000Y-68580000D03*
X90895000Y-67310000D03*
X86995000Y-67310000D03*
G36*
G01*
X68216000Y-81042500D02*
X68216000Y-81517500D01*
G75*
G02*
X67978500Y-81755000I-237500J0D01*
G01*
X67403500Y-81755000D01*
G75*
G02*
X67166000Y-81517500I0J237500D01*
G01*
X67166000Y-81042500D01*
G75*
G02*
X67403500Y-80805000I237500J0D01*
G01*
X67978500Y-80805000D01*
G75*
G02*
X68216000Y-81042500I0J-237500D01*
G01*
G37*
G36*
G01*
X69966000Y-81042500D02*
X69966000Y-81517500D01*
G75*
G02*
X69728500Y-81755000I-237500J0D01*
G01*
X69153500Y-81755000D01*
G75*
G02*
X68916000Y-81517500I0J237500D01*
G01*
X68916000Y-81042500D01*
G75*
G02*
X69153500Y-80805000I237500J0D01*
G01*
X69728500Y-80805000D01*
G75*
G02*
X69966000Y-81042500I0J-237500D01*
G01*
G37*
G36*
G01*
X68216000Y-79518500D02*
X68216000Y-79993500D01*
G75*
G02*
X67978500Y-80231000I-237500J0D01*
G01*
X67403500Y-80231000D01*
G75*
G02*
X67166000Y-79993500I0J237500D01*
G01*
X67166000Y-79518500D01*
G75*
G02*
X67403500Y-79281000I237500J0D01*
G01*
X67978500Y-79281000D01*
G75*
G02*
X68216000Y-79518500I0J-237500D01*
G01*
G37*
G36*
G01*
X69966000Y-79518500D02*
X69966000Y-79993500D01*
G75*
G02*
X69728500Y-80231000I-237500J0D01*
G01*
X69153500Y-80231000D01*
G75*
G02*
X68916000Y-79993500I0J237500D01*
G01*
X68916000Y-79518500D01*
G75*
G02*
X69153500Y-79281000I237500J0D01*
G01*
X69728500Y-79281000D01*
G75*
G02*
X69966000Y-79518500I0J-237500D01*
G01*
G37*
G36*
G01*
X92091500Y-57348000D02*
X92566500Y-57348000D01*
G75*
G02*
X92804000Y-57585500I0J-237500D01*
G01*
X92804000Y-58185500D01*
G75*
G02*
X92566500Y-58423000I-237500J0D01*
G01*
X92091500Y-58423000D01*
G75*
G02*
X91854000Y-58185500I0J237500D01*
G01*
X91854000Y-57585500D01*
G75*
G02*
X92091500Y-57348000I237500J0D01*
G01*
G37*
G36*
G01*
X92091500Y-55623000D02*
X92566500Y-55623000D01*
G75*
G02*
X92804000Y-55860500I0J-237500D01*
G01*
X92804000Y-56460500D01*
G75*
G02*
X92566500Y-56698000I-237500J0D01*
G01*
X92091500Y-56698000D01*
G75*
G02*
X91854000Y-56460500I0J237500D01*
G01*
X91854000Y-55860500D01*
G75*
G02*
X92091500Y-55623000I237500J0D01*
G01*
G37*
G36*
G01*
X107132000Y-60181500D02*
X107132000Y-59706500D01*
G75*
G02*
X107369500Y-59469000I237500J0D01*
G01*
X107969500Y-59469000D01*
G75*
G02*
X108207000Y-59706500I0J-237500D01*
G01*
X108207000Y-60181500D01*
G75*
G02*
X107969500Y-60419000I-237500J0D01*
G01*
X107369500Y-60419000D01*
G75*
G02*
X107132000Y-60181500I0J237500D01*
G01*
G37*
G36*
G01*
X105407000Y-60181500D02*
X105407000Y-59706500D01*
G75*
G02*
X105644500Y-59469000I237500J0D01*
G01*
X106244500Y-59469000D01*
G75*
G02*
X106482000Y-59706500I0J-237500D01*
G01*
X106482000Y-60181500D01*
G75*
G02*
X106244500Y-60419000I-237500J0D01*
G01*
X105644500Y-60419000D01*
G75*
G02*
X105407000Y-60181500I0J237500D01*
G01*
G37*
G36*
G01*
X79137500Y-64206000D02*
X79612500Y-64206000D01*
G75*
G02*
X79850000Y-64443500I0J-237500D01*
G01*
X79850000Y-65043500D01*
G75*
G02*
X79612500Y-65281000I-237500J0D01*
G01*
X79137500Y-65281000D01*
G75*
G02*
X78900000Y-65043500I0J237500D01*
G01*
X78900000Y-64443500D01*
G75*
G02*
X79137500Y-64206000I237500J0D01*
G01*
G37*
G36*
G01*
X79137500Y-62481000D02*
X79612500Y-62481000D01*
G75*
G02*
X79850000Y-62718500I0J-237500D01*
G01*
X79850000Y-63318500D01*
G75*
G02*
X79612500Y-63556000I-237500J0D01*
G01*
X79137500Y-63556000D01*
G75*
G02*
X78900000Y-63318500I0J237500D01*
G01*
X78900000Y-62718500D01*
G75*
G02*
X79137500Y-62481000I237500J0D01*
G01*
G37*
G36*
G01*
X71103500Y-61397000D02*
X70628500Y-61397000D01*
G75*
G02*
X70391000Y-61159500I0J237500D01*
G01*
X70391000Y-60559500D01*
G75*
G02*
X70628500Y-60322000I237500J0D01*
G01*
X71103500Y-60322000D01*
G75*
G02*
X71341000Y-60559500I0J-237500D01*
G01*
X71341000Y-61159500D01*
G75*
G02*
X71103500Y-61397000I-237500J0D01*
G01*
G37*
G36*
G01*
X71103500Y-63122000D02*
X70628500Y-63122000D01*
G75*
G02*
X70391000Y-62884500I0J237500D01*
G01*
X70391000Y-62284500D01*
G75*
G02*
X70628500Y-62047000I237500J0D01*
G01*
X71103500Y-62047000D01*
G75*
G02*
X71341000Y-62284500I0J-237500D01*
G01*
X71341000Y-62884500D01*
G75*
G02*
X71103500Y-63122000I-237500J0D01*
G01*
G37*
M02*
