%FSLAX45Y45*%
G04 Gerber Fmt 4.5, Leading zero omitted, Abs format (unit mm)*
G04 Created by KiCad (PCBNEW (5.1.10)-1) date 2021-07-15 21:28:44*
%MOMM*%
%LPD*%
G01*
G04 APERTURE LIST*
%TA.AperFunction,Profile*%
%ADD10C,0.050000*%
%TD*%
%ADD11C,0.200000*%
%ADD12C,0.300000*%
G04 APERTURE END LIST*
D10*
X6426200Y-7975600D02*
X6477000Y-8255000D01*
X6540500Y-7975600D02*
X6426200Y-7975600D01*
X6540500Y-7797800D02*
X6540500Y-7975600D01*
X6400800Y-7797800D02*
X6540500Y-7797800D01*
X6426200Y-5994400D02*
X6477000Y-5715000D01*
X6540500Y-5994400D02*
X6426200Y-5994400D01*
X6540500Y-6172200D02*
X6540500Y-5994400D01*
X6400800Y-6172200D02*
X6540500Y-6172200D01*
X13639800Y-7975600D02*
X13589000Y-8255000D01*
X13525500Y-7975600D02*
X13639800Y-7975600D01*
X13525500Y-7797800D02*
X13525500Y-7975600D01*
X13665200Y-7797800D02*
X13525500Y-7797800D01*
X13589000Y-5715000D02*
X13639800Y-5994400D01*
X13525500Y-5994400D02*
X13639800Y-5994400D01*
X13525500Y-6172200D02*
X13525500Y-5994400D01*
X13665200Y-6172200D02*
X13525500Y-6172200D01*
X13716000Y-6426200D02*
X13665200Y-6172200D01*
X6604000Y-5588000D02*
X7620000Y-5334000D01*
X6477000Y-5715000D02*
X6604000Y-5588000D01*
X13589000Y-5715000D02*
X13462000Y-5588000D01*
X13462000Y-8382000D02*
X13589000Y-8255000D01*
X6604000Y-8382000D02*
X6477000Y-8255000D01*
X7620000Y-8636000D02*
X6604000Y-8382000D01*
X12573000Y-8636000D02*
X13462000Y-8382000D01*
X13462000Y-5588000D02*
X12573000Y-5334000D01*
X8890000Y-8890000D02*
X7620000Y-8636000D01*
X11176000Y-8890000D02*
X12573000Y-8636000D01*
X6400800Y-7797800D02*
X6350000Y-7543800D01*
X6350000Y-6426200D02*
X6400800Y-6172200D01*
X8890000Y-5080000D02*
X7620000Y-5334000D01*
X12573000Y-5334000D02*
X11176000Y-5080000D01*
X13665200Y-7797800D02*
X13716000Y-7543800D01*
X6350000Y-7543800D02*
X6350000Y-6426200D01*
X11176000Y-8890000D02*
X8890000Y-8890000D01*
X13716000Y-6426200D02*
X13716000Y-7543800D01*
X8890000Y-5080000D02*
X11176000Y-5080000D01*
D11*
X7170000Y-7960000D02*
X7200000Y-7990000D01*
X7200000Y-7960000D02*
X7170000Y-7990000D01*
X7237500Y-8117500D02*
X7267500Y-8147500D01*
X7267500Y-8117500D02*
X7237500Y-8147500D01*
X8690000Y-8015000D02*
X8720000Y-8045000D01*
X8720000Y-8015000D02*
X8690000Y-8045000D01*
X8812700Y-7992767D02*
X8842700Y-8022767D01*
X8842700Y-7992767D02*
X8812700Y-8022767D01*
X8850000Y-7927700D02*
X8880000Y-7957700D01*
X8880000Y-7927700D02*
X8850000Y-7957700D01*
X8910000Y-7870000D02*
X8940000Y-7900000D01*
X8940000Y-7870000D02*
X8910000Y-7900000D01*
X9010000Y-8202500D02*
X9040000Y-8232500D01*
X9040000Y-8202500D02*
X9010000Y-8232500D01*
X9090000Y-7895000D02*
X9120000Y-7925000D01*
X9120000Y-7895000D02*
X9090000Y-7925000D01*
X9190000Y-7867500D02*
X9220000Y-7897500D01*
X9220000Y-7867500D02*
X9190000Y-7897500D01*
X9205000Y-7942500D02*
X9235000Y-7972500D01*
X9235000Y-7942500D02*
X9205000Y-7972500D01*
X9245000Y-6715000D02*
X9275000Y-6745000D01*
X9275000Y-6715000D02*
X9245000Y-6745000D01*
X9250000Y-6845000D02*
X9280000Y-6875000D01*
X9280000Y-6845000D02*
X9250000Y-6875000D01*
X9260000Y-6970000D02*
X9290000Y-7000000D01*
X9290000Y-6970000D02*
X9260000Y-7000000D01*
X9265000Y-7225000D02*
X9295000Y-7255000D01*
X9295000Y-7225000D02*
X9265000Y-7255000D01*
X9265000Y-7870000D02*
X9295000Y-7900000D01*
X9295000Y-7870000D02*
X9265000Y-7900000D01*
X9265000Y-8265000D02*
X9295000Y-8295000D01*
X9295000Y-8265000D02*
X9265000Y-8295000D01*
X9385000Y-7507500D02*
X9415000Y-7537500D01*
X9415000Y-7507500D02*
X9385000Y-7537500D01*
X9390000Y-7685000D02*
X9420000Y-7715000D01*
X9420000Y-7685000D02*
X9390000Y-7715000D01*
X9440173Y-7627300D02*
X9470173Y-7657300D01*
X9470173Y-7627300D02*
X9440173Y-7657300D01*
X9465000Y-7785000D02*
X9495000Y-7815000D01*
X9495000Y-7785000D02*
X9465000Y-7815000D01*
X9467500Y-7505000D02*
X9497500Y-7535000D01*
X9497500Y-7505000D02*
X9467500Y-7535000D01*
X9510000Y-7845000D02*
X9540000Y-7875000D01*
X9540000Y-7845000D02*
X9510000Y-7875000D01*
X9536334Y-7915225D02*
X9566334Y-7945225D01*
X9566334Y-7915225D02*
X9536334Y-7945225D01*
X9593325Y-7968325D02*
X9623325Y-7998325D01*
X9623325Y-7968325D02*
X9593325Y-7998325D01*
X9712500Y-7332500D02*
X9742500Y-7362500D01*
X9742500Y-7332500D02*
X9712500Y-7362500D01*
X10681000Y-7139000D02*
X10711000Y-7169000D01*
X10711000Y-7139000D02*
X10681000Y-7169000D01*
X10682000Y-7064000D02*
X10712000Y-7094000D01*
X10712000Y-7064000D02*
X10682000Y-7094000D01*
X10722500Y-7925000D02*
X10752500Y-7955000D01*
X10752500Y-7925000D02*
X10722500Y-7955000D01*
X10725000Y-8017500D02*
X10755000Y-8047500D01*
X10755000Y-8017500D02*
X10725000Y-8047500D01*
X10747500Y-7542500D02*
X10777500Y-7572500D01*
X10777500Y-7542500D02*
X10747500Y-7572500D01*
X10752500Y-7342500D02*
X10782500Y-7372500D01*
X10782500Y-7342500D02*
X10752500Y-7372500D01*
X10807500Y-7482500D02*
X10837500Y-7512500D01*
X10837500Y-7482500D02*
X10807500Y-7512500D01*
X10913973Y-7748973D02*
X10943973Y-7778973D01*
X10943973Y-7748973D02*
X10913973Y-7778973D01*
X11015000Y-7460000D02*
X11045000Y-7490000D01*
X11045000Y-7460000D02*
X11015000Y-7490000D01*
X11097500Y-6447500D02*
X11127500Y-6477500D01*
X11127500Y-6447500D02*
X11097500Y-6477500D01*
X11110000Y-7205000D02*
X11140000Y-7235000D01*
X11140000Y-7205000D02*
X11110000Y-7235000D01*
X11247500Y-7220000D02*
X11277500Y-7250000D01*
X11277500Y-7220000D02*
X11247500Y-7250000D01*
X11407500Y-7747500D02*
X11437500Y-7777500D01*
X11437500Y-7747500D02*
X11407500Y-7777500D01*
X11467500Y-7807500D02*
X11497500Y-7837500D01*
X11497500Y-7807500D02*
X11467500Y-7837500D01*
X11517500Y-7975000D02*
X11547500Y-8005000D01*
X11547500Y-7975000D02*
X11517500Y-8005000D01*
X11537500Y-6450000D02*
X11567500Y-6480000D01*
X11567500Y-6450000D02*
X11537500Y-6480000D01*
X11875000Y-6082500D02*
X11905000Y-6112500D01*
X11905000Y-6082500D02*
X11875000Y-6112500D01*
X12865000Y-6360000D02*
X12895000Y-6390000D01*
X12895000Y-6360000D02*
X12865000Y-6390000D01*
X6637500Y-6980000D02*
G75*
G03*
X6637500Y-6980000I-25000J0D01*
G01*
X7115000Y-5905000D02*
G75*
G03*
X7115000Y-5905000I-25000J0D01*
G01*
X7247500Y-7712500D02*
G75*
G03*
X7247500Y-7712500I-25000J0D01*
G01*
X7352500Y-7712500D02*
G75*
G03*
X7352500Y-7712500I-25000J0D01*
G01*
X7457500Y-7712500D02*
G75*
G03*
X7457500Y-7712500I-25000J0D01*
G01*
X7727500Y-8150000D02*
G75*
G03*
X7727500Y-8150000I-25000J0D01*
G01*
X7910000Y-8038000D02*
G75*
G03*
X7910000Y-8038000I-25000J0D01*
G01*
X8210000Y-6677500D02*
G75*
G03*
X8210000Y-6677500I-25000J0D01*
G01*
X8240000Y-8360000D02*
G75*
G03*
X8240000Y-8360000I-25000J0D01*
G01*
X8415000Y-8090000D02*
G75*
G03*
X8415000Y-8090000I-25000J0D01*
G01*
X8432500Y-8655000D02*
G75*
G03*
X8432500Y-8655000I-25000J0D01*
G01*
X8514000Y-7576000D02*
G75*
G03*
X8514000Y-7576000I-25000J0D01*
G01*
X8536000Y-6410000D02*
G75*
G03*
X8536000Y-6410000I-25000J0D01*
G01*
X8725000Y-7370000D02*
G75*
G03*
X8725000Y-7370000I-25000J0D01*
G01*
X8937000Y-6414000D02*
G75*
G03*
X8937000Y-6414000I-25000J0D01*
G01*
X9022500Y-8360000D02*
G75*
G03*
X9022500Y-8360000I-25000J0D01*
G01*
X9100000Y-5637500D02*
G75*
G03*
X9100000Y-5637500I-25000J0D01*
G01*
X9397600Y-8559800D02*
G75*
G03*
X9397600Y-8559800I-25000J0D01*
G01*
X9545000Y-5642500D02*
G75*
G03*
X9545000Y-5642500I-25000J0D01*
G01*
X9554000Y-6384000D02*
G75*
G03*
X9554000Y-6384000I-25000J0D01*
G01*
X9745000Y-5625000D02*
G75*
G03*
X9745000Y-5625000I-25000J0D01*
G01*
X9748000Y-6185000D02*
G75*
G03*
X9748000Y-6185000I-25000J0D01*
G01*
X10037000Y-8119000D02*
G75*
G03*
X10037000Y-8119000I-25000J0D01*
G01*
X10180000Y-8719000D02*
G75*
G03*
X10180000Y-8719000I-25000J0D01*
G01*
X10357500Y-7397500D02*
G75*
G03*
X10357500Y-7397500I-25000J0D01*
G01*
X10525000Y-6340000D02*
G75*
G03*
X10525000Y-6340000I-25000J0D01*
G01*
X10839959Y-5845041D02*
G75*
G03*
X10839959Y-5845041I-25000J0D01*
G01*
X10900000Y-6785000D02*
G75*
G03*
X10900000Y-6785000I-25000J0D01*
G01*
X11317500Y-6835000D02*
G75*
G03*
X11317500Y-6835000I-25000J0D01*
G01*
X11805000Y-6862500D02*
G75*
G03*
X11805000Y-6862500I-25000J0D01*
G01*
X12182500Y-8057500D02*
G75*
G03*
X12182500Y-8057500I-25000J0D01*
G01*
X13328000Y-6245000D02*
G75*
G03*
X13328000Y-6245000I-25000J0D01*
G01*
X9067500Y-5222500D02*
X9067500Y-5322500D01*
X9017500Y-5272500D02*
X9117500Y-5272500D01*
X9321500Y-5222500D02*
X9321500Y-5322500D01*
X9271500Y-5272500D02*
X9371500Y-5272500D01*
X9575500Y-5222500D02*
X9575500Y-5322500D01*
X9525500Y-5272500D02*
X9625500Y-5272500D01*
X9829500Y-5222500D02*
X9829500Y-5322500D01*
X9779500Y-5272500D02*
X9879500Y-5272500D01*
X10083500Y-5222500D02*
X10083500Y-5322500D01*
X10033500Y-5272500D02*
X10133500Y-5272500D01*
X12192000Y-6173000D02*
X12192000Y-6273000D01*
X12142000Y-6223000D02*
X12242000Y-6223000D01*
X12192000Y-6427000D02*
X12192000Y-6527000D01*
X12142000Y-6477000D02*
X12242000Y-6477000D01*
X12192000Y-6681000D02*
X12192000Y-6781000D01*
X12142000Y-6731000D02*
X12242000Y-6731000D01*
X12192000Y-6935000D02*
X12192000Y-7035000D01*
X12142000Y-6985000D02*
X12242000Y-6985000D01*
X12192000Y-7189000D02*
X12192000Y-7289000D01*
X12142000Y-7239000D02*
X12242000Y-7239000D01*
X12192000Y-7443000D02*
X12192000Y-7543000D01*
X12142000Y-7493000D02*
X12242000Y-7493000D01*
X12192000Y-7697000D02*
X12192000Y-7797000D01*
X12142000Y-7747000D02*
X12242000Y-7747000D01*
X12446000Y-6173000D02*
X12446000Y-6273000D01*
X12396000Y-6223000D02*
X12496000Y-6223000D01*
X12446000Y-6427000D02*
X12446000Y-6527000D01*
X12396000Y-6477000D02*
X12496000Y-6477000D01*
X12446000Y-6681000D02*
X12446000Y-6781000D01*
X12396000Y-6731000D02*
X12496000Y-6731000D01*
X12446000Y-6935000D02*
X12446000Y-7035000D01*
X12396000Y-6985000D02*
X12496000Y-6985000D01*
X12446000Y-7189000D02*
X12446000Y-7289000D01*
X12396000Y-7239000D02*
X12496000Y-7239000D01*
X12446000Y-7443000D02*
X12446000Y-7543000D01*
X12396000Y-7493000D02*
X12496000Y-7493000D01*
X12446000Y-7697000D02*
X12446000Y-7797000D01*
X12396000Y-7747000D02*
X12496000Y-7747000D01*
X10011573Y-6646073D02*
X10011573Y-6561927D01*
X9927427Y-6561927D01*
X9927427Y-6646073D01*
X10011573Y-6646073D01*
X10011573Y-6900073D02*
X10011573Y-6815927D01*
X9927427Y-6815927D01*
X9927427Y-6900073D01*
X10011573Y-6900073D01*
X10011573Y-7154073D02*
X10011573Y-7069927D01*
X9927427Y-7069927D01*
X9927427Y-7154073D01*
X10011573Y-7154073D01*
X10011573Y-7408073D02*
X10011573Y-7323927D01*
X9927427Y-7323927D01*
X9927427Y-7408073D01*
X10011573Y-7408073D01*
D12*
X6633928Y-9358214D02*
X6633928Y-9058214D01*
X6705357Y-9058214D01*
X6748214Y-9072500D01*
X6776786Y-9101072D01*
X6791071Y-9129643D01*
X6805357Y-9186786D01*
X6805357Y-9229643D01*
X6791071Y-9286786D01*
X6776786Y-9315357D01*
X6748214Y-9343929D01*
X6705357Y-9358214D01*
X6633928Y-9358214D01*
X6933928Y-9358214D02*
X6933928Y-9158214D01*
X6933928Y-9215357D02*
X6948214Y-9186786D01*
X6962500Y-9172500D01*
X6991071Y-9158214D01*
X7019643Y-9158214D01*
X7119643Y-9358214D02*
X7119643Y-9158214D01*
X7119643Y-9058214D02*
X7105357Y-9072500D01*
X7119643Y-9086786D01*
X7133928Y-9072500D01*
X7119643Y-9058214D01*
X7119643Y-9086786D01*
X7305357Y-9358214D02*
X7276786Y-9343929D01*
X7262500Y-9315357D01*
X7262500Y-9058214D01*
X7462500Y-9358214D02*
X7433928Y-9343929D01*
X7419643Y-9315357D01*
X7419643Y-9058214D01*
X7805357Y-9358214D02*
X7805357Y-9058214D01*
X7905357Y-9272500D01*
X8005357Y-9058214D01*
X8005357Y-9358214D01*
X8276786Y-9358214D02*
X8276786Y-9201072D01*
X8262500Y-9172500D01*
X8233928Y-9158214D01*
X8176786Y-9158214D01*
X8148214Y-9172500D01*
X8276786Y-9343929D02*
X8248214Y-9358214D01*
X8176786Y-9358214D01*
X8148214Y-9343929D01*
X8133928Y-9315357D01*
X8133928Y-9286786D01*
X8148214Y-9258214D01*
X8176786Y-9243929D01*
X8248214Y-9243929D01*
X8276786Y-9229643D01*
X8419643Y-9158214D02*
X8419643Y-9458214D01*
X8419643Y-9172500D02*
X8448214Y-9158214D01*
X8505357Y-9158214D01*
X8533928Y-9172500D01*
X8548214Y-9186786D01*
X8562500Y-9215357D01*
X8562500Y-9301072D01*
X8548214Y-9329643D01*
X8533928Y-9343929D01*
X8505357Y-9358214D01*
X8448214Y-9358214D01*
X8419643Y-9343929D01*
X8691071Y-9329643D02*
X8705357Y-9343929D01*
X8691071Y-9358214D01*
X8676786Y-9343929D01*
X8691071Y-9329643D01*
X8691071Y-9358214D01*
X8691071Y-9172500D02*
X8705357Y-9186786D01*
X8691071Y-9201072D01*
X8676786Y-9186786D01*
X8691071Y-9172500D01*
X8691071Y-9201072D01*
X6317500Y-9837500D02*
X6347500Y-9867500D01*
X6347500Y-9837500D02*
X6317500Y-9867500D01*
X6691071Y-9688214D02*
X6719643Y-9688214D01*
X6748214Y-9702500D01*
X6762500Y-9716786D01*
X6776786Y-9745357D01*
X6791071Y-9802500D01*
X6791071Y-9873929D01*
X6776786Y-9931072D01*
X6762500Y-9959643D01*
X6748214Y-9973929D01*
X6719643Y-9988214D01*
X6691071Y-9988214D01*
X6662500Y-9973929D01*
X6648214Y-9959643D01*
X6633928Y-9931072D01*
X6619643Y-9873929D01*
X6619643Y-9802500D01*
X6633928Y-9745357D01*
X6648214Y-9716786D01*
X6662500Y-9702500D01*
X6691071Y-9688214D01*
X6919643Y-9959643D02*
X6933928Y-9973929D01*
X6919643Y-9988214D01*
X6905357Y-9973929D01*
X6919643Y-9959643D01*
X6919643Y-9988214D01*
X7033928Y-9688214D02*
X7219643Y-9688214D01*
X7119643Y-9802500D01*
X7162500Y-9802500D01*
X7191071Y-9816786D01*
X7205357Y-9831072D01*
X7219643Y-9859643D01*
X7219643Y-9931072D01*
X7205357Y-9959643D01*
X7191071Y-9973929D01*
X7162500Y-9988214D01*
X7076786Y-9988214D01*
X7048214Y-9973929D01*
X7033928Y-9959643D01*
X7405357Y-9688214D02*
X7433928Y-9688214D01*
X7462500Y-9702500D01*
X7476786Y-9716786D01*
X7491071Y-9745357D01*
X7505357Y-9802500D01*
X7505357Y-9873929D01*
X7491071Y-9931072D01*
X7476786Y-9959643D01*
X7462500Y-9973929D01*
X7433928Y-9988214D01*
X7405357Y-9988214D01*
X7376786Y-9973929D01*
X7362500Y-9959643D01*
X7348214Y-9931072D01*
X7333928Y-9873929D01*
X7333928Y-9802500D01*
X7348214Y-9745357D01*
X7362500Y-9716786D01*
X7376786Y-9702500D01*
X7405357Y-9688214D01*
X7691071Y-9688214D02*
X7719643Y-9688214D01*
X7748214Y-9702500D01*
X7762500Y-9716786D01*
X7776786Y-9745357D01*
X7791071Y-9802500D01*
X7791071Y-9873929D01*
X7776786Y-9931072D01*
X7762500Y-9959643D01*
X7748214Y-9973929D01*
X7719643Y-9988214D01*
X7691071Y-9988214D01*
X7662500Y-9973929D01*
X7648214Y-9959643D01*
X7633928Y-9931072D01*
X7619643Y-9873929D01*
X7619643Y-9802500D01*
X7633928Y-9745357D01*
X7648214Y-9716786D01*
X7662500Y-9702500D01*
X7691071Y-9688214D01*
X7919643Y-9988214D02*
X7919643Y-9788214D01*
X7919643Y-9816786D02*
X7933928Y-9802500D01*
X7962500Y-9788214D01*
X8005357Y-9788214D01*
X8033928Y-9802500D01*
X8048214Y-9831072D01*
X8048214Y-9988214D01*
X8048214Y-9831072D02*
X8062500Y-9802500D01*
X8091071Y-9788214D01*
X8133928Y-9788214D01*
X8162500Y-9802500D01*
X8176786Y-9831072D01*
X8176786Y-9988214D01*
X8319643Y-9988214D02*
X8319643Y-9788214D01*
X8319643Y-9816786D02*
X8333928Y-9802500D01*
X8362500Y-9788214D01*
X8405357Y-9788214D01*
X8433928Y-9802500D01*
X8448214Y-9831072D01*
X8448214Y-9988214D01*
X8448214Y-9831072D02*
X8462500Y-9802500D01*
X8491071Y-9788214D01*
X8533928Y-9788214D01*
X8562500Y-9802500D01*
X8576786Y-9831072D01*
X8576786Y-9988214D01*
X9162500Y-9673929D02*
X8905357Y-10059643D01*
X9548214Y-9688214D02*
X9576786Y-9688214D01*
X9605357Y-9702500D01*
X9619643Y-9716786D01*
X9633928Y-9745357D01*
X9648214Y-9802500D01*
X9648214Y-9873929D01*
X9633928Y-9931072D01*
X9619643Y-9959643D01*
X9605357Y-9973929D01*
X9576786Y-9988214D01*
X9548214Y-9988214D01*
X9519643Y-9973929D01*
X9505357Y-9959643D01*
X9491071Y-9931072D01*
X9476786Y-9873929D01*
X9476786Y-9802500D01*
X9491071Y-9745357D01*
X9505357Y-9716786D01*
X9519643Y-9702500D01*
X9548214Y-9688214D01*
X9776786Y-9959643D02*
X9791071Y-9973929D01*
X9776786Y-9988214D01*
X9762500Y-9973929D01*
X9776786Y-9959643D01*
X9776786Y-9988214D01*
X9976786Y-9688214D02*
X10005357Y-9688214D01*
X10033928Y-9702500D01*
X10048214Y-9716786D01*
X10062500Y-9745357D01*
X10076786Y-9802500D01*
X10076786Y-9873929D01*
X10062500Y-9931072D01*
X10048214Y-9959643D01*
X10033928Y-9973929D01*
X10005357Y-9988214D01*
X9976786Y-9988214D01*
X9948214Y-9973929D01*
X9933928Y-9959643D01*
X9919643Y-9931072D01*
X9905357Y-9873929D01*
X9905357Y-9802500D01*
X9919643Y-9745357D01*
X9933928Y-9716786D01*
X9948214Y-9702500D01*
X9976786Y-9688214D01*
X10362500Y-9988214D02*
X10191071Y-9988214D01*
X10276786Y-9988214D02*
X10276786Y-9688214D01*
X10248214Y-9731072D01*
X10219643Y-9759643D01*
X10191071Y-9773929D01*
X10648214Y-9988214D02*
X10476786Y-9988214D01*
X10562500Y-9988214D02*
X10562500Y-9688214D01*
X10533928Y-9731072D01*
X10505357Y-9759643D01*
X10476786Y-9773929D01*
X10819643Y-9816786D02*
X10791071Y-9802500D01*
X10776786Y-9788214D01*
X10762500Y-9759643D01*
X10762500Y-9745357D01*
X10776786Y-9716786D01*
X10791071Y-9702500D01*
X10819643Y-9688214D01*
X10876786Y-9688214D01*
X10905357Y-9702500D01*
X10919643Y-9716786D01*
X10933928Y-9745357D01*
X10933928Y-9759643D01*
X10919643Y-9788214D01*
X10905357Y-9802500D01*
X10876786Y-9816786D01*
X10819643Y-9816786D01*
X10791071Y-9831072D01*
X10776786Y-9845357D01*
X10762500Y-9873929D01*
X10762500Y-9931072D01*
X10776786Y-9959643D01*
X10791071Y-9973929D01*
X10819643Y-9988214D01*
X10876786Y-9988214D01*
X10905357Y-9973929D01*
X10919643Y-9959643D01*
X10933928Y-9931072D01*
X10933928Y-9873929D01*
X10919643Y-9845357D01*
X10905357Y-9831072D01*
X10876786Y-9816786D01*
X11048214Y-9688214D02*
X11048214Y-9745357D01*
X11162500Y-9688214D02*
X11162500Y-9745357D01*
X11605357Y-10102500D02*
X11591071Y-10088214D01*
X11562500Y-10045357D01*
X11548214Y-10016786D01*
X11533928Y-9973929D01*
X11519643Y-9902500D01*
X11519643Y-9845357D01*
X11533928Y-9773929D01*
X11548214Y-9731072D01*
X11562500Y-9702500D01*
X11591071Y-9659643D01*
X11605357Y-9645357D01*
X11848214Y-9788214D02*
X11848214Y-9988214D01*
X11776786Y-9673929D02*
X11705357Y-9888214D01*
X11891071Y-9888214D01*
X11976786Y-9688214D02*
X12162500Y-9688214D01*
X12062500Y-9802500D01*
X12105357Y-9802500D01*
X12133928Y-9816786D01*
X12148214Y-9831072D01*
X12162500Y-9859643D01*
X12162500Y-9931072D01*
X12148214Y-9959643D01*
X12133928Y-9973929D01*
X12105357Y-9988214D01*
X12019643Y-9988214D01*
X11991071Y-9973929D01*
X11976786Y-9959643D01*
X12519643Y-9988214D02*
X12519643Y-9688214D01*
X12648214Y-9988214D02*
X12648214Y-9831072D01*
X12633928Y-9802500D01*
X12605357Y-9788214D01*
X12562500Y-9788214D01*
X12533928Y-9802500D01*
X12519643Y-9816786D01*
X12833928Y-9988214D02*
X12805357Y-9973929D01*
X12791071Y-9959643D01*
X12776786Y-9931072D01*
X12776786Y-9845357D01*
X12791071Y-9816786D01*
X12805357Y-9802500D01*
X12833928Y-9788214D01*
X12876786Y-9788214D01*
X12905357Y-9802500D01*
X12919643Y-9816786D01*
X12933928Y-9845357D01*
X12933928Y-9931072D01*
X12919643Y-9959643D01*
X12905357Y-9973929D01*
X12876786Y-9988214D01*
X12833928Y-9988214D01*
X13105357Y-9988214D02*
X13076786Y-9973929D01*
X13062500Y-9945357D01*
X13062500Y-9688214D01*
X13333928Y-9973929D02*
X13305357Y-9988214D01*
X13248214Y-9988214D01*
X13219643Y-9973929D01*
X13205357Y-9945357D01*
X13205357Y-9831072D01*
X13219643Y-9802500D01*
X13248214Y-9788214D01*
X13305357Y-9788214D01*
X13333928Y-9802500D01*
X13348214Y-9831072D01*
X13348214Y-9859643D01*
X13205357Y-9888214D01*
X13462500Y-9973929D02*
X13491071Y-9988214D01*
X13548214Y-9988214D01*
X13576786Y-9973929D01*
X13591071Y-9945357D01*
X13591071Y-9931072D01*
X13576786Y-9902500D01*
X13548214Y-9888214D01*
X13505357Y-9888214D01*
X13476786Y-9873929D01*
X13462500Y-9845357D01*
X13462500Y-9831072D01*
X13476786Y-9802500D01*
X13505357Y-9788214D01*
X13548214Y-9788214D01*
X13576786Y-9802500D01*
X13691071Y-10102500D02*
X13705357Y-10088214D01*
X13733928Y-10045357D01*
X13748214Y-10016786D01*
X13762500Y-9973929D01*
X13776786Y-9902500D01*
X13776786Y-9845357D01*
X13762500Y-9773929D01*
X13748214Y-9731072D01*
X13733928Y-9702500D01*
X13705357Y-9659643D01*
X13691071Y-9645357D01*
X6347500Y-10248500D02*
G75*
G03*
X6347500Y-10248500I-25000J0D01*
G01*
X6691071Y-10084214D02*
X6719643Y-10084214D01*
X6748214Y-10098500D01*
X6762500Y-10112786D01*
X6776786Y-10141357D01*
X6791071Y-10198500D01*
X6791071Y-10269929D01*
X6776786Y-10327072D01*
X6762500Y-10355643D01*
X6748214Y-10369929D01*
X6719643Y-10384214D01*
X6691071Y-10384214D01*
X6662500Y-10369929D01*
X6648214Y-10355643D01*
X6633928Y-10327072D01*
X6619643Y-10269929D01*
X6619643Y-10198500D01*
X6633928Y-10141357D01*
X6648214Y-10112786D01*
X6662500Y-10098500D01*
X6691071Y-10084214D01*
X6919643Y-10355643D02*
X6933928Y-10369929D01*
X6919643Y-10384214D01*
X6905357Y-10369929D01*
X6919643Y-10355643D01*
X6919643Y-10384214D01*
X7205357Y-10084214D02*
X7062500Y-10084214D01*
X7048214Y-10227072D01*
X7062500Y-10212786D01*
X7091071Y-10198500D01*
X7162500Y-10198500D01*
X7191071Y-10212786D01*
X7205357Y-10227072D01*
X7219643Y-10255643D01*
X7219643Y-10327072D01*
X7205357Y-10355643D01*
X7191071Y-10369929D01*
X7162500Y-10384214D01*
X7091071Y-10384214D01*
X7062500Y-10369929D01*
X7048214Y-10355643D01*
X7405357Y-10084214D02*
X7433928Y-10084214D01*
X7462500Y-10098500D01*
X7476786Y-10112786D01*
X7491071Y-10141357D01*
X7505357Y-10198500D01*
X7505357Y-10269929D01*
X7491071Y-10327072D01*
X7476786Y-10355643D01*
X7462500Y-10369929D01*
X7433928Y-10384214D01*
X7405357Y-10384214D01*
X7376786Y-10369929D01*
X7362500Y-10355643D01*
X7348214Y-10327072D01*
X7333928Y-10269929D01*
X7333928Y-10198500D01*
X7348214Y-10141357D01*
X7362500Y-10112786D01*
X7376786Y-10098500D01*
X7405357Y-10084214D01*
X7691071Y-10084214D02*
X7719643Y-10084214D01*
X7748214Y-10098500D01*
X7762500Y-10112786D01*
X7776786Y-10141357D01*
X7791071Y-10198500D01*
X7791071Y-10269929D01*
X7776786Y-10327072D01*
X7762500Y-10355643D01*
X7748214Y-10369929D01*
X7719643Y-10384214D01*
X7691071Y-10384214D01*
X7662500Y-10369929D01*
X7648214Y-10355643D01*
X7633928Y-10327072D01*
X7619643Y-10269929D01*
X7619643Y-10198500D01*
X7633928Y-10141357D01*
X7648214Y-10112786D01*
X7662500Y-10098500D01*
X7691071Y-10084214D01*
X7919643Y-10384214D02*
X7919643Y-10184214D01*
X7919643Y-10212786D02*
X7933928Y-10198500D01*
X7962500Y-10184214D01*
X8005357Y-10184214D01*
X8033928Y-10198500D01*
X8048214Y-10227072D01*
X8048214Y-10384214D01*
X8048214Y-10227072D02*
X8062500Y-10198500D01*
X8091071Y-10184214D01*
X8133928Y-10184214D01*
X8162500Y-10198500D01*
X8176786Y-10227072D01*
X8176786Y-10384214D01*
X8319643Y-10384214D02*
X8319643Y-10184214D01*
X8319643Y-10212786D02*
X8333928Y-10198500D01*
X8362500Y-10184214D01*
X8405357Y-10184214D01*
X8433928Y-10198500D01*
X8448214Y-10227072D01*
X8448214Y-10384214D01*
X8448214Y-10227072D02*
X8462500Y-10198500D01*
X8491071Y-10184214D01*
X8533928Y-10184214D01*
X8562500Y-10198500D01*
X8576786Y-10227072D01*
X8576786Y-10384214D01*
X9162500Y-10069929D02*
X8905357Y-10455643D01*
X9548214Y-10084214D02*
X9576786Y-10084214D01*
X9605357Y-10098500D01*
X9619643Y-10112786D01*
X9633928Y-10141357D01*
X9648214Y-10198500D01*
X9648214Y-10269929D01*
X9633928Y-10327072D01*
X9619643Y-10355643D01*
X9605357Y-10369929D01*
X9576786Y-10384214D01*
X9548214Y-10384214D01*
X9519643Y-10369929D01*
X9505357Y-10355643D01*
X9491071Y-10327072D01*
X9476786Y-10269929D01*
X9476786Y-10198500D01*
X9491071Y-10141357D01*
X9505357Y-10112786D01*
X9519643Y-10098500D01*
X9548214Y-10084214D01*
X9776786Y-10355643D02*
X9791071Y-10369929D01*
X9776786Y-10384214D01*
X9762500Y-10369929D01*
X9776786Y-10355643D01*
X9776786Y-10384214D01*
X9976786Y-10084214D02*
X10005357Y-10084214D01*
X10033928Y-10098500D01*
X10048214Y-10112786D01*
X10062500Y-10141357D01*
X10076786Y-10198500D01*
X10076786Y-10269929D01*
X10062500Y-10327072D01*
X10048214Y-10355643D01*
X10033928Y-10369929D01*
X10005357Y-10384214D01*
X9976786Y-10384214D01*
X9948214Y-10369929D01*
X9933928Y-10355643D01*
X9919643Y-10327072D01*
X9905357Y-10269929D01*
X9905357Y-10198500D01*
X9919643Y-10141357D01*
X9933928Y-10112786D01*
X9948214Y-10098500D01*
X9976786Y-10084214D01*
X10362500Y-10384214D02*
X10191071Y-10384214D01*
X10276786Y-10384214D02*
X10276786Y-10084214D01*
X10248214Y-10127072D01*
X10219643Y-10155643D01*
X10191071Y-10169929D01*
X10505357Y-10384214D02*
X10562500Y-10384214D01*
X10591071Y-10369929D01*
X10605357Y-10355643D01*
X10633928Y-10312786D01*
X10648214Y-10255643D01*
X10648214Y-10141357D01*
X10633928Y-10112786D01*
X10619643Y-10098500D01*
X10591071Y-10084214D01*
X10533928Y-10084214D01*
X10505357Y-10098500D01*
X10491071Y-10112786D01*
X10476786Y-10141357D01*
X10476786Y-10212786D01*
X10491071Y-10241357D01*
X10505357Y-10255643D01*
X10533928Y-10269929D01*
X10591071Y-10269929D01*
X10619643Y-10255643D01*
X10633928Y-10241357D01*
X10648214Y-10212786D01*
X10748214Y-10084214D02*
X10948214Y-10084214D01*
X10819643Y-10384214D01*
X11048214Y-10084214D02*
X11048214Y-10141357D01*
X11162500Y-10084214D02*
X11162500Y-10141357D01*
X11605357Y-10498500D02*
X11591071Y-10484214D01*
X11562500Y-10441357D01*
X11548214Y-10412786D01*
X11533928Y-10369929D01*
X11519643Y-10298500D01*
X11519643Y-10241357D01*
X11533928Y-10169929D01*
X11548214Y-10127072D01*
X11562500Y-10098500D01*
X11591071Y-10055643D01*
X11605357Y-10041357D01*
X11691071Y-10084214D02*
X11876786Y-10084214D01*
X11776786Y-10198500D01*
X11819643Y-10198500D01*
X11848214Y-10212786D01*
X11862500Y-10227072D01*
X11876786Y-10255643D01*
X11876786Y-10327072D01*
X11862500Y-10355643D01*
X11848214Y-10369929D01*
X11819643Y-10384214D01*
X11733928Y-10384214D01*
X11705357Y-10369929D01*
X11691071Y-10355643D01*
X11991071Y-10112786D02*
X12005357Y-10098500D01*
X12033928Y-10084214D01*
X12105357Y-10084214D01*
X12133928Y-10098500D01*
X12148214Y-10112786D01*
X12162500Y-10141357D01*
X12162500Y-10169929D01*
X12148214Y-10212786D01*
X11976786Y-10384214D01*
X12162500Y-10384214D01*
X12519643Y-10384214D02*
X12519643Y-10084214D01*
X12648214Y-10384214D02*
X12648214Y-10227072D01*
X12633928Y-10198500D01*
X12605357Y-10184214D01*
X12562500Y-10184214D01*
X12533928Y-10198500D01*
X12519643Y-10212786D01*
X12833928Y-10384214D02*
X12805357Y-10369929D01*
X12791071Y-10355643D01*
X12776786Y-10327072D01*
X12776786Y-10241357D01*
X12791071Y-10212786D01*
X12805357Y-10198500D01*
X12833928Y-10184214D01*
X12876786Y-10184214D01*
X12905357Y-10198500D01*
X12919643Y-10212786D01*
X12933928Y-10241357D01*
X12933928Y-10327072D01*
X12919643Y-10355643D01*
X12905357Y-10369929D01*
X12876786Y-10384214D01*
X12833928Y-10384214D01*
X13105357Y-10384214D02*
X13076786Y-10369929D01*
X13062500Y-10341357D01*
X13062500Y-10084214D01*
X13333928Y-10369929D02*
X13305357Y-10384214D01*
X13248214Y-10384214D01*
X13219643Y-10369929D01*
X13205357Y-10341357D01*
X13205357Y-10227072D01*
X13219643Y-10198500D01*
X13248214Y-10184214D01*
X13305357Y-10184214D01*
X13333928Y-10198500D01*
X13348214Y-10227072D01*
X13348214Y-10255643D01*
X13205357Y-10284214D01*
X13462500Y-10369929D02*
X13491071Y-10384214D01*
X13548214Y-10384214D01*
X13576786Y-10369929D01*
X13591071Y-10341357D01*
X13591071Y-10327072D01*
X13576786Y-10298500D01*
X13548214Y-10284214D01*
X13505357Y-10284214D01*
X13476786Y-10269929D01*
X13462500Y-10241357D01*
X13462500Y-10227072D01*
X13476786Y-10198500D01*
X13505357Y-10184214D01*
X13548214Y-10184214D01*
X13576786Y-10198500D01*
X13691071Y-10498500D02*
X13705357Y-10484214D01*
X13733928Y-10441357D01*
X13748214Y-10412786D01*
X13762500Y-10369929D01*
X13776786Y-10298500D01*
X13776786Y-10241357D01*
X13762500Y-10169929D01*
X13748214Y-10127072D01*
X13733928Y-10098500D01*
X13705357Y-10055643D01*
X13691071Y-10041357D01*
X6297500Y-10594500D02*
X6297500Y-10694500D01*
X6247500Y-10644500D02*
X6347500Y-10644500D01*
X6791071Y-10780214D02*
X6619643Y-10780214D01*
X6705357Y-10780214D02*
X6705357Y-10480214D01*
X6676786Y-10523072D01*
X6648214Y-10551643D01*
X6619643Y-10565929D01*
X6919643Y-10751643D02*
X6933928Y-10765929D01*
X6919643Y-10780214D01*
X6905357Y-10765929D01*
X6919643Y-10751643D01*
X6919643Y-10780214D01*
X7119643Y-10480214D02*
X7148214Y-10480214D01*
X7176786Y-10494500D01*
X7191071Y-10508786D01*
X7205357Y-10537357D01*
X7219643Y-10594500D01*
X7219643Y-10665929D01*
X7205357Y-10723072D01*
X7191071Y-10751643D01*
X7176786Y-10765929D01*
X7148214Y-10780214D01*
X7119643Y-10780214D01*
X7091071Y-10765929D01*
X7076786Y-10751643D01*
X7062500Y-10723072D01*
X7048214Y-10665929D01*
X7048214Y-10594500D01*
X7062500Y-10537357D01*
X7076786Y-10508786D01*
X7091071Y-10494500D01*
X7119643Y-10480214D01*
X7405357Y-10480214D02*
X7433928Y-10480214D01*
X7462500Y-10494500D01*
X7476786Y-10508786D01*
X7491071Y-10537357D01*
X7505357Y-10594500D01*
X7505357Y-10665929D01*
X7491071Y-10723072D01*
X7476786Y-10751643D01*
X7462500Y-10765929D01*
X7433928Y-10780214D01*
X7405357Y-10780214D01*
X7376786Y-10765929D01*
X7362500Y-10751643D01*
X7348214Y-10723072D01*
X7333928Y-10665929D01*
X7333928Y-10594500D01*
X7348214Y-10537357D01*
X7362500Y-10508786D01*
X7376786Y-10494500D01*
X7405357Y-10480214D01*
X7691071Y-10480214D02*
X7719643Y-10480214D01*
X7748214Y-10494500D01*
X7762500Y-10508786D01*
X7776786Y-10537357D01*
X7791071Y-10594500D01*
X7791071Y-10665929D01*
X7776786Y-10723072D01*
X7762500Y-10751643D01*
X7748214Y-10765929D01*
X7719643Y-10780214D01*
X7691071Y-10780214D01*
X7662500Y-10765929D01*
X7648214Y-10751643D01*
X7633928Y-10723072D01*
X7619643Y-10665929D01*
X7619643Y-10594500D01*
X7633928Y-10537357D01*
X7648214Y-10508786D01*
X7662500Y-10494500D01*
X7691071Y-10480214D01*
X7919643Y-10780214D02*
X7919643Y-10580214D01*
X7919643Y-10608786D02*
X7933928Y-10594500D01*
X7962500Y-10580214D01*
X8005357Y-10580214D01*
X8033928Y-10594500D01*
X8048214Y-10623072D01*
X8048214Y-10780214D01*
X8048214Y-10623072D02*
X8062500Y-10594500D01*
X8091071Y-10580214D01*
X8133928Y-10580214D01*
X8162500Y-10594500D01*
X8176786Y-10623072D01*
X8176786Y-10780214D01*
X8319643Y-10780214D02*
X8319643Y-10580214D01*
X8319643Y-10608786D02*
X8333928Y-10594500D01*
X8362500Y-10580214D01*
X8405357Y-10580214D01*
X8433928Y-10594500D01*
X8448214Y-10623072D01*
X8448214Y-10780214D01*
X8448214Y-10623072D02*
X8462500Y-10594500D01*
X8491071Y-10580214D01*
X8533928Y-10580214D01*
X8562500Y-10594500D01*
X8576786Y-10623072D01*
X8576786Y-10780214D01*
X9162500Y-10465929D02*
X8905357Y-10851643D01*
X9548214Y-10480214D02*
X9576786Y-10480214D01*
X9605357Y-10494500D01*
X9619643Y-10508786D01*
X9633928Y-10537357D01*
X9648214Y-10594500D01*
X9648214Y-10665929D01*
X9633928Y-10723072D01*
X9619643Y-10751643D01*
X9605357Y-10765929D01*
X9576786Y-10780214D01*
X9548214Y-10780214D01*
X9519643Y-10765929D01*
X9505357Y-10751643D01*
X9491071Y-10723072D01*
X9476786Y-10665929D01*
X9476786Y-10594500D01*
X9491071Y-10537357D01*
X9505357Y-10508786D01*
X9519643Y-10494500D01*
X9548214Y-10480214D01*
X9776786Y-10751643D02*
X9791071Y-10765929D01*
X9776786Y-10780214D01*
X9762500Y-10765929D01*
X9776786Y-10751643D01*
X9776786Y-10780214D01*
X9976786Y-10480214D02*
X10005357Y-10480214D01*
X10033928Y-10494500D01*
X10048214Y-10508786D01*
X10062500Y-10537357D01*
X10076786Y-10594500D01*
X10076786Y-10665929D01*
X10062500Y-10723072D01*
X10048214Y-10751643D01*
X10033928Y-10765929D01*
X10005357Y-10780214D01*
X9976786Y-10780214D01*
X9948214Y-10765929D01*
X9933928Y-10751643D01*
X9919643Y-10723072D01*
X9905357Y-10665929D01*
X9905357Y-10594500D01*
X9919643Y-10537357D01*
X9933928Y-10508786D01*
X9948214Y-10494500D01*
X9976786Y-10480214D01*
X10176786Y-10480214D02*
X10362500Y-10480214D01*
X10262500Y-10594500D01*
X10305357Y-10594500D01*
X10333928Y-10608786D01*
X10348214Y-10623072D01*
X10362500Y-10651643D01*
X10362500Y-10723072D01*
X10348214Y-10751643D01*
X10333928Y-10765929D01*
X10305357Y-10780214D01*
X10219643Y-10780214D01*
X10191071Y-10765929D01*
X10176786Y-10751643D01*
X10505357Y-10780214D02*
X10562500Y-10780214D01*
X10591071Y-10765929D01*
X10605357Y-10751643D01*
X10633928Y-10708786D01*
X10648214Y-10651643D01*
X10648214Y-10537357D01*
X10633928Y-10508786D01*
X10619643Y-10494500D01*
X10591071Y-10480214D01*
X10533928Y-10480214D01*
X10505357Y-10494500D01*
X10491071Y-10508786D01*
X10476786Y-10537357D01*
X10476786Y-10608786D01*
X10491071Y-10637357D01*
X10505357Y-10651643D01*
X10533928Y-10665929D01*
X10591071Y-10665929D01*
X10619643Y-10651643D01*
X10633928Y-10637357D01*
X10648214Y-10608786D01*
X10905357Y-10580214D02*
X10905357Y-10780214D01*
X10833928Y-10465929D02*
X10762500Y-10680214D01*
X10948214Y-10680214D01*
X11048214Y-10480214D02*
X11048214Y-10537357D01*
X11162500Y-10480214D02*
X11162500Y-10537357D01*
X11605357Y-10894500D02*
X11591071Y-10880214D01*
X11562500Y-10837357D01*
X11548214Y-10808786D01*
X11533928Y-10765929D01*
X11519643Y-10694500D01*
X11519643Y-10637357D01*
X11533928Y-10565929D01*
X11548214Y-10523072D01*
X11562500Y-10494500D01*
X11591071Y-10451643D01*
X11605357Y-10437357D01*
X11876786Y-10780214D02*
X11705357Y-10780214D01*
X11791071Y-10780214D02*
X11791071Y-10480214D01*
X11762500Y-10523072D01*
X11733928Y-10551643D01*
X11705357Y-10565929D01*
X12019643Y-10780214D02*
X12076786Y-10780214D01*
X12105357Y-10765929D01*
X12119643Y-10751643D01*
X12148214Y-10708786D01*
X12162500Y-10651643D01*
X12162500Y-10537357D01*
X12148214Y-10508786D01*
X12133928Y-10494500D01*
X12105357Y-10480214D01*
X12048214Y-10480214D01*
X12019643Y-10494500D01*
X12005357Y-10508786D01*
X11991071Y-10537357D01*
X11991071Y-10608786D01*
X12005357Y-10637357D01*
X12019643Y-10651643D01*
X12048214Y-10665929D01*
X12105357Y-10665929D01*
X12133928Y-10651643D01*
X12148214Y-10637357D01*
X12162500Y-10608786D01*
X12519643Y-10780214D02*
X12519643Y-10480214D01*
X12648214Y-10780214D02*
X12648214Y-10623072D01*
X12633928Y-10594500D01*
X12605357Y-10580214D01*
X12562500Y-10580214D01*
X12533928Y-10594500D01*
X12519643Y-10608786D01*
X12833928Y-10780214D02*
X12805357Y-10765929D01*
X12791071Y-10751643D01*
X12776786Y-10723072D01*
X12776786Y-10637357D01*
X12791071Y-10608786D01*
X12805357Y-10594500D01*
X12833928Y-10580214D01*
X12876786Y-10580214D01*
X12905357Y-10594500D01*
X12919643Y-10608786D01*
X12933928Y-10637357D01*
X12933928Y-10723072D01*
X12919643Y-10751643D01*
X12905357Y-10765929D01*
X12876786Y-10780214D01*
X12833928Y-10780214D01*
X13105357Y-10780214D02*
X13076786Y-10765929D01*
X13062500Y-10737357D01*
X13062500Y-10480214D01*
X13333928Y-10765929D02*
X13305357Y-10780214D01*
X13248214Y-10780214D01*
X13219643Y-10765929D01*
X13205357Y-10737357D01*
X13205357Y-10623072D01*
X13219643Y-10594500D01*
X13248214Y-10580214D01*
X13305357Y-10580214D01*
X13333928Y-10594500D01*
X13348214Y-10623072D01*
X13348214Y-10651643D01*
X13205357Y-10680214D01*
X13462500Y-10765929D02*
X13491071Y-10780214D01*
X13548214Y-10780214D01*
X13576786Y-10765929D01*
X13591071Y-10737357D01*
X13591071Y-10723072D01*
X13576786Y-10694500D01*
X13548214Y-10680214D01*
X13505357Y-10680214D01*
X13476786Y-10665929D01*
X13462500Y-10637357D01*
X13462500Y-10623072D01*
X13476786Y-10594500D01*
X13505357Y-10580214D01*
X13548214Y-10580214D01*
X13576786Y-10594500D01*
X13691071Y-10894500D02*
X13705357Y-10880214D01*
X13733928Y-10837357D01*
X13748214Y-10808786D01*
X13762500Y-10765929D01*
X13776786Y-10694500D01*
X13776786Y-10637357D01*
X13762500Y-10565929D01*
X13748214Y-10523072D01*
X13733928Y-10494500D01*
X13705357Y-10451643D01*
X13691071Y-10437357D01*
X6330073Y-11082573D02*
X6330073Y-10998427D01*
X6245927Y-10998427D01*
X6245927Y-11082573D01*
X6330073Y-11082573D01*
X6791071Y-11176214D02*
X6619643Y-11176214D01*
X6705357Y-11176214D02*
X6705357Y-10876214D01*
X6676786Y-10919072D01*
X6648214Y-10947643D01*
X6619643Y-10961929D01*
X6919643Y-11147643D02*
X6933928Y-11161929D01*
X6919643Y-11176214D01*
X6905357Y-11161929D01*
X6919643Y-11147643D01*
X6919643Y-11176214D01*
X7219643Y-11176214D02*
X7048214Y-11176214D01*
X7133928Y-11176214D02*
X7133928Y-10876214D01*
X7105357Y-10919072D01*
X7076786Y-10947643D01*
X7048214Y-10961929D01*
X7362500Y-11176214D02*
X7419643Y-11176214D01*
X7448214Y-11161929D01*
X7462500Y-11147643D01*
X7491071Y-11104786D01*
X7505357Y-11047643D01*
X7505357Y-10933357D01*
X7491071Y-10904786D01*
X7476786Y-10890500D01*
X7448214Y-10876214D01*
X7391071Y-10876214D01*
X7362500Y-10890500D01*
X7348214Y-10904786D01*
X7333928Y-10933357D01*
X7333928Y-11004786D01*
X7348214Y-11033357D01*
X7362500Y-11047643D01*
X7391071Y-11061929D01*
X7448214Y-11061929D01*
X7476786Y-11047643D01*
X7491071Y-11033357D01*
X7505357Y-11004786D01*
X7691071Y-10876214D02*
X7719643Y-10876214D01*
X7748214Y-10890500D01*
X7762500Y-10904786D01*
X7776786Y-10933357D01*
X7791071Y-10990500D01*
X7791071Y-11061929D01*
X7776786Y-11119072D01*
X7762500Y-11147643D01*
X7748214Y-11161929D01*
X7719643Y-11176214D01*
X7691071Y-11176214D01*
X7662500Y-11161929D01*
X7648214Y-11147643D01*
X7633928Y-11119072D01*
X7619643Y-11061929D01*
X7619643Y-10990500D01*
X7633928Y-10933357D01*
X7648214Y-10904786D01*
X7662500Y-10890500D01*
X7691071Y-10876214D01*
X7919643Y-11176214D02*
X7919643Y-10976214D01*
X7919643Y-11004786D02*
X7933928Y-10990500D01*
X7962500Y-10976214D01*
X8005357Y-10976214D01*
X8033928Y-10990500D01*
X8048214Y-11019072D01*
X8048214Y-11176214D01*
X8048214Y-11019072D02*
X8062500Y-10990500D01*
X8091071Y-10976214D01*
X8133928Y-10976214D01*
X8162500Y-10990500D01*
X8176786Y-11019072D01*
X8176786Y-11176214D01*
X8319643Y-11176214D02*
X8319643Y-10976214D01*
X8319643Y-11004786D02*
X8333928Y-10990500D01*
X8362500Y-10976214D01*
X8405357Y-10976214D01*
X8433928Y-10990500D01*
X8448214Y-11019072D01*
X8448214Y-11176214D01*
X8448214Y-11019072D02*
X8462500Y-10990500D01*
X8491071Y-10976214D01*
X8533928Y-10976214D01*
X8562500Y-10990500D01*
X8576786Y-11019072D01*
X8576786Y-11176214D01*
X9162500Y-10861929D02*
X8905357Y-11247643D01*
X9548214Y-10876214D02*
X9576786Y-10876214D01*
X9605357Y-10890500D01*
X9619643Y-10904786D01*
X9633928Y-10933357D01*
X9648214Y-10990500D01*
X9648214Y-11061929D01*
X9633928Y-11119072D01*
X9619643Y-11147643D01*
X9605357Y-11161929D01*
X9576786Y-11176214D01*
X9548214Y-11176214D01*
X9519643Y-11161929D01*
X9505357Y-11147643D01*
X9491071Y-11119072D01*
X9476786Y-11061929D01*
X9476786Y-10990500D01*
X9491071Y-10933357D01*
X9505357Y-10904786D01*
X9519643Y-10890500D01*
X9548214Y-10876214D01*
X9776786Y-11147643D02*
X9791071Y-11161929D01*
X9776786Y-11176214D01*
X9762500Y-11161929D01*
X9776786Y-11147643D01*
X9776786Y-11176214D01*
X9976786Y-10876214D02*
X10005357Y-10876214D01*
X10033928Y-10890500D01*
X10048214Y-10904786D01*
X10062500Y-10933357D01*
X10076786Y-10990500D01*
X10076786Y-11061929D01*
X10062500Y-11119072D01*
X10048214Y-11147643D01*
X10033928Y-11161929D01*
X10005357Y-11176214D01*
X9976786Y-11176214D01*
X9948214Y-11161929D01*
X9933928Y-11147643D01*
X9919643Y-11119072D01*
X9905357Y-11061929D01*
X9905357Y-10990500D01*
X9919643Y-10933357D01*
X9933928Y-10904786D01*
X9948214Y-10890500D01*
X9976786Y-10876214D01*
X10333928Y-10976214D02*
X10333928Y-11176214D01*
X10262500Y-10861929D02*
X10191071Y-11076214D01*
X10376786Y-11076214D01*
X10619643Y-10876214D02*
X10562500Y-10876214D01*
X10533928Y-10890500D01*
X10519643Y-10904786D01*
X10491071Y-10947643D01*
X10476786Y-11004786D01*
X10476786Y-11119072D01*
X10491071Y-11147643D01*
X10505357Y-11161929D01*
X10533928Y-11176214D01*
X10591071Y-11176214D01*
X10619643Y-11161929D01*
X10633928Y-11147643D01*
X10648214Y-11119072D01*
X10648214Y-11047643D01*
X10633928Y-11019072D01*
X10619643Y-11004786D01*
X10591071Y-10990500D01*
X10533928Y-10990500D01*
X10505357Y-11004786D01*
X10491071Y-11019072D01*
X10476786Y-11047643D01*
X10791071Y-11176214D02*
X10848214Y-11176214D01*
X10876786Y-11161929D01*
X10891071Y-11147643D01*
X10919643Y-11104786D01*
X10933928Y-11047643D01*
X10933928Y-10933357D01*
X10919643Y-10904786D01*
X10905357Y-10890500D01*
X10876786Y-10876214D01*
X10819643Y-10876214D01*
X10791071Y-10890500D01*
X10776786Y-10904786D01*
X10762500Y-10933357D01*
X10762500Y-11004786D01*
X10776786Y-11033357D01*
X10791071Y-11047643D01*
X10819643Y-11061929D01*
X10876786Y-11061929D01*
X10905357Y-11047643D01*
X10919643Y-11033357D01*
X10933928Y-11004786D01*
X11048214Y-10876214D02*
X11048214Y-10933357D01*
X11162500Y-10876214D02*
X11162500Y-10933357D01*
X11605357Y-11290500D02*
X11591071Y-11276214D01*
X11562500Y-11233357D01*
X11548214Y-11204786D01*
X11533928Y-11161929D01*
X11519643Y-11090500D01*
X11519643Y-11033357D01*
X11533928Y-10961929D01*
X11548214Y-10919072D01*
X11562500Y-10890500D01*
X11591071Y-10847643D01*
X11605357Y-10833357D01*
X11848214Y-10976214D02*
X11848214Y-11176214D01*
X11776786Y-10861929D02*
X11705357Y-11076214D01*
X11891071Y-11076214D01*
X12233928Y-11176214D02*
X12233928Y-10876214D01*
X12362500Y-11176214D02*
X12362500Y-11019072D01*
X12348214Y-10990500D01*
X12319643Y-10976214D01*
X12276786Y-10976214D01*
X12248214Y-10990500D01*
X12233928Y-11004786D01*
X12548214Y-11176214D02*
X12519643Y-11161929D01*
X12505357Y-11147643D01*
X12491071Y-11119072D01*
X12491071Y-11033357D01*
X12505357Y-11004786D01*
X12519643Y-10990500D01*
X12548214Y-10976214D01*
X12591071Y-10976214D01*
X12619643Y-10990500D01*
X12633928Y-11004786D01*
X12648214Y-11033357D01*
X12648214Y-11119072D01*
X12633928Y-11147643D01*
X12619643Y-11161929D01*
X12591071Y-11176214D01*
X12548214Y-11176214D01*
X12819643Y-11176214D02*
X12791071Y-11161929D01*
X12776786Y-11133357D01*
X12776786Y-10876214D01*
X13048214Y-11161929D02*
X13019643Y-11176214D01*
X12962500Y-11176214D01*
X12933928Y-11161929D01*
X12919643Y-11133357D01*
X12919643Y-11019072D01*
X12933928Y-10990500D01*
X12962500Y-10976214D01*
X13019643Y-10976214D01*
X13048214Y-10990500D01*
X13062500Y-11019072D01*
X13062500Y-11047643D01*
X12919643Y-11076214D01*
X13176786Y-11161929D02*
X13205357Y-11176214D01*
X13262500Y-11176214D01*
X13291071Y-11161929D01*
X13305357Y-11133357D01*
X13305357Y-11119072D01*
X13291071Y-11090500D01*
X13262500Y-11076214D01*
X13219643Y-11076214D01*
X13191071Y-11061929D01*
X13176786Y-11033357D01*
X13176786Y-11019072D01*
X13191071Y-10990500D01*
X13219643Y-10976214D01*
X13262500Y-10976214D01*
X13291071Y-10990500D01*
X13405357Y-11290500D02*
X13419643Y-11276214D01*
X13448214Y-11233357D01*
X13462500Y-11204786D01*
X13476786Y-11161929D01*
X13491071Y-11090500D01*
X13491071Y-11033357D01*
X13476786Y-10961929D01*
X13462500Y-10919072D01*
X13448214Y-10890500D01*
X13419643Y-10847643D01*
X13405357Y-10833357D01*
M02*
