G04 #@! TF.GenerationSoftware,KiCad,Pcbnew,(5.1.10)-1*
G04 #@! TF.CreationDate,2021-08-01T20:36:26+02:00*
G04 #@! TF.ProjectId,Msp-Board,4d73702d-426f-4617-9264-2e6b69636164,rev?*
G04 #@! TF.SameCoordinates,Original*
G04 #@! TF.FileFunction,Paste,Top*
G04 #@! TF.FilePolarity,Positive*
%FSLAX46Y46*%
G04 Gerber Fmt 4.6, Leading zero omitted, Abs format (unit mm)*
G04 Created by KiCad (PCBNEW (5.1.10)-1) date 2021-08-01 20:36:26*
%MOMM*%
%LPD*%
G01*
G04 APERTURE LIST*
%ADD10R,1.800000X2.100000*%
%ADD11R,1.900000X1.500000*%
%ADD12R,1.550000X0.400000*%
%ADD13C,0.100000*%
%ADD14R,2.300000X0.900000*%
%ADD15R,1.800000X1.750000*%
G04 APERTURE END LIST*
D10*
X130250000Y-96200000D03*
X130250000Y-99100000D03*
X127950000Y-99100000D03*
X127950000Y-96200000D03*
G36*
G01*
X142325000Y-115287500D02*
X142325000Y-114812500D01*
G75*
G02*
X142562500Y-114575000I237500J0D01*
G01*
X143162500Y-114575000D01*
G75*
G02*
X143400000Y-114812500I0J-237500D01*
G01*
X143400000Y-115287500D01*
G75*
G02*
X143162500Y-115525000I-237500J0D01*
G01*
X142562500Y-115525000D01*
G75*
G02*
X142325000Y-115287500I0J237500D01*
G01*
G37*
G36*
G01*
X140600000Y-115287500D02*
X140600000Y-114812500D01*
G75*
G02*
X140837500Y-114575000I237500J0D01*
G01*
X141437500Y-114575000D01*
G75*
G02*
X141675000Y-114812500I0J-237500D01*
G01*
X141675000Y-115287500D01*
G75*
G02*
X141437500Y-115525000I-237500J0D01*
G01*
X140837500Y-115525000D01*
G75*
G02*
X140600000Y-115287500I0J237500D01*
G01*
G37*
G36*
G01*
X135725000Y-113312500D02*
X135725000Y-113787500D01*
G75*
G02*
X135487500Y-114025000I-237500J0D01*
G01*
X134887500Y-114025000D01*
G75*
G02*
X134650000Y-113787500I0J237500D01*
G01*
X134650000Y-113312500D01*
G75*
G02*
X134887500Y-113075000I237500J0D01*
G01*
X135487500Y-113075000D01*
G75*
G02*
X135725000Y-113312500I0J-237500D01*
G01*
G37*
G36*
G01*
X137450000Y-113312500D02*
X137450000Y-113787500D01*
G75*
G02*
X137212500Y-114025000I-237500J0D01*
G01*
X136612500Y-114025000D01*
G75*
G02*
X136375000Y-113787500I0J237500D01*
G01*
X136375000Y-113312500D01*
G75*
G02*
X136612500Y-113075000I237500J0D01*
G01*
X137212500Y-113075000D01*
G75*
G02*
X137450000Y-113312500I0J-237500D01*
G01*
G37*
G36*
G01*
X135725000Y-114812500D02*
X135725000Y-115287500D01*
G75*
G02*
X135487500Y-115525000I-237500J0D01*
G01*
X134887500Y-115525000D01*
G75*
G02*
X134650000Y-115287500I0J237500D01*
G01*
X134650000Y-114812500D01*
G75*
G02*
X134887500Y-114575000I237500J0D01*
G01*
X135487500Y-114575000D01*
G75*
G02*
X135725000Y-114812500I0J-237500D01*
G01*
G37*
G36*
G01*
X137450000Y-114812500D02*
X137450000Y-115287500D01*
G75*
G02*
X137212500Y-115525000I-237500J0D01*
G01*
X136612500Y-115525000D01*
G75*
G02*
X136375000Y-115287500I0J237500D01*
G01*
X136375000Y-114812500D01*
G75*
G02*
X136612500Y-114575000I237500J0D01*
G01*
X137212500Y-114575000D01*
G75*
G02*
X137450000Y-114812500I0J-237500D01*
G01*
G37*
D11*
X175547500Y-101950000D03*
D12*
X172760000Y-103600000D03*
X172760000Y-104250000D03*
X172760000Y-101650000D03*
X172760000Y-102300000D03*
X172760000Y-102950000D03*
D11*
X175547500Y-103950000D03*
G36*
G01*
X174262500Y-90125000D02*
X174737500Y-90125000D01*
G75*
G02*
X174975000Y-90362500I0J-237500D01*
G01*
X174975000Y-90862500D01*
G75*
G02*
X174737500Y-91100000I-237500J0D01*
G01*
X174262500Y-91100000D01*
G75*
G02*
X174025000Y-90862500I0J237500D01*
G01*
X174025000Y-90362500D01*
G75*
G02*
X174262500Y-90125000I237500J0D01*
G01*
G37*
G36*
G01*
X174262500Y-88300000D02*
X174737500Y-88300000D01*
G75*
G02*
X174975000Y-88537500I0J-237500D01*
G01*
X174975000Y-89037500D01*
G75*
G02*
X174737500Y-89275000I-237500J0D01*
G01*
X174262500Y-89275000D01*
G75*
G02*
X174025000Y-89037500I0J237500D01*
G01*
X174025000Y-88537500D01*
G75*
G02*
X174262500Y-88300000I237500J0D01*
G01*
G37*
G36*
G01*
X175862500Y-90050000D02*
X176337500Y-90050000D01*
G75*
G02*
X176575000Y-90287500I0J-237500D01*
G01*
X176575000Y-90862500D01*
G75*
G02*
X176337500Y-91100000I-237500J0D01*
G01*
X175862500Y-91100000D01*
G75*
G02*
X175625000Y-90862500I0J237500D01*
G01*
X175625000Y-90287500D01*
G75*
G02*
X175862500Y-90050000I237500J0D01*
G01*
G37*
G36*
G01*
X175862500Y-88300000D02*
X176337500Y-88300000D01*
G75*
G02*
X176575000Y-88537500I0J-237500D01*
G01*
X176575000Y-89112500D01*
G75*
G02*
X176337500Y-89350000I-237500J0D01*
G01*
X175862500Y-89350000D01*
G75*
G02*
X175625000Y-89112500I0J237500D01*
G01*
X175625000Y-88537500D01*
G75*
G02*
X175862500Y-88300000I237500J0D01*
G01*
G37*
G36*
G01*
X162362500Y-94625000D02*
X162837500Y-94625000D01*
G75*
G02*
X163075000Y-94862500I0J-237500D01*
G01*
X163075000Y-95462500D01*
G75*
G02*
X162837500Y-95700000I-237500J0D01*
G01*
X162362500Y-95700000D01*
G75*
G02*
X162125000Y-95462500I0J237500D01*
G01*
X162125000Y-94862500D01*
G75*
G02*
X162362500Y-94625000I237500J0D01*
G01*
G37*
G36*
G01*
X162362500Y-92900000D02*
X162837500Y-92900000D01*
G75*
G02*
X163075000Y-93137500I0J-237500D01*
G01*
X163075000Y-93737500D01*
G75*
G02*
X162837500Y-93975000I-237500J0D01*
G01*
X162362500Y-93975000D01*
G75*
G02*
X162125000Y-93737500I0J237500D01*
G01*
X162125000Y-93137500D01*
G75*
G02*
X162362500Y-92900000I237500J0D01*
G01*
G37*
G36*
G01*
X162362500Y-110225000D02*
X162837500Y-110225000D01*
G75*
G02*
X163075000Y-110462500I0J-237500D01*
G01*
X163075000Y-111062500D01*
G75*
G02*
X162837500Y-111300000I-237500J0D01*
G01*
X162362500Y-111300000D01*
G75*
G02*
X162125000Y-111062500I0J237500D01*
G01*
X162125000Y-110462500D01*
G75*
G02*
X162362500Y-110225000I237500J0D01*
G01*
G37*
G36*
G01*
X162362500Y-108500000D02*
X162837500Y-108500000D01*
G75*
G02*
X163075000Y-108737500I0J-237500D01*
G01*
X163075000Y-109337500D01*
G75*
G02*
X162837500Y-109575000I-237500J0D01*
G01*
X162362500Y-109575000D01*
G75*
G02*
X162125000Y-109337500I0J237500D01*
G01*
X162125000Y-108737500D01*
G75*
G02*
X162362500Y-108500000I237500J0D01*
G01*
G37*
G36*
G01*
X163862500Y-94625000D02*
X164337500Y-94625000D01*
G75*
G02*
X164575000Y-94862500I0J-237500D01*
G01*
X164575000Y-95462500D01*
G75*
G02*
X164337500Y-95700000I-237500J0D01*
G01*
X163862500Y-95700000D01*
G75*
G02*
X163625000Y-95462500I0J237500D01*
G01*
X163625000Y-94862500D01*
G75*
G02*
X163862500Y-94625000I237500J0D01*
G01*
G37*
G36*
G01*
X163862500Y-92900000D02*
X164337500Y-92900000D01*
G75*
G02*
X164575000Y-93137500I0J-237500D01*
G01*
X164575000Y-93737500D01*
G75*
G02*
X164337500Y-93975000I-237500J0D01*
G01*
X163862500Y-93975000D01*
G75*
G02*
X163625000Y-93737500I0J237500D01*
G01*
X163625000Y-93137500D01*
G75*
G02*
X163862500Y-92900000I237500J0D01*
G01*
G37*
G36*
G01*
X163862500Y-110225000D02*
X164337500Y-110225000D01*
G75*
G02*
X164575000Y-110462500I0J-237500D01*
G01*
X164575000Y-111062500D01*
G75*
G02*
X164337500Y-111300000I-237500J0D01*
G01*
X163862500Y-111300000D01*
G75*
G02*
X163625000Y-111062500I0J237500D01*
G01*
X163625000Y-110462500D01*
G75*
G02*
X163862500Y-110225000I237500J0D01*
G01*
G37*
G36*
G01*
X163862500Y-108500000D02*
X164337500Y-108500000D01*
G75*
G02*
X164575000Y-108737500I0J-237500D01*
G01*
X164575000Y-109337500D01*
G75*
G02*
X164337500Y-109575000I-237500J0D01*
G01*
X163862500Y-109575000D01*
G75*
G02*
X163625000Y-109337500I0J237500D01*
G01*
X163625000Y-108737500D01*
G75*
G02*
X163862500Y-108500000I237500J0D01*
G01*
G37*
D13*
G36*
X160762500Y-103866500D02*
G01*
X156637500Y-103866500D01*
X156637500Y-103450000D01*
X154162500Y-103450000D01*
X154162500Y-102550000D01*
X156637500Y-102550000D01*
X156637500Y-102133500D01*
X160762500Y-102133500D01*
X160762500Y-103866500D01*
G37*
D14*
X155312500Y-104500000D03*
X155312500Y-101500000D03*
G36*
G01*
X127937500Y-109825000D02*
X127462500Y-109825000D01*
G75*
G02*
X127225000Y-109587500I0J237500D01*
G01*
X127225000Y-109087500D01*
G75*
G02*
X127462500Y-108850000I237500J0D01*
G01*
X127937500Y-108850000D01*
G75*
G02*
X128175000Y-109087500I0J-237500D01*
G01*
X128175000Y-109587500D01*
G75*
G02*
X127937500Y-109825000I-237500J0D01*
G01*
G37*
G36*
G01*
X127937500Y-111650000D02*
X127462500Y-111650000D01*
G75*
G02*
X127225000Y-111412500I0J237500D01*
G01*
X127225000Y-110912500D01*
G75*
G02*
X127462500Y-110675000I237500J0D01*
G01*
X127937500Y-110675000D01*
G75*
G02*
X128175000Y-110912500I0J-237500D01*
G01*
X128175000Y-111412500D01*
G75*
G02*
X127937500Y-111650000I-237500J0D01*
G01*
G37*
G36*
G01*
X142325000Y-113787500D02*
X142325000Y-113312500D01*
G75*
G02*
X142562500Y-113075000I237500J0D01*
G01*
X143162500Y-113075000D01*
G75*
G02*
X143400000Y-113312500I0J-237500D01*
G01*
X143400000Y-113787500D01*
G75*
G02*
X143162500Y-114025000I-237500J0D01*
G01*
X142562500Y-114025000D01*
G75*
G02*
X142325000Y-113787500I0J237500D01*
G01*
G37*
G36*
G01*
X140600000Y-113787500D02*
X140600000Y-113312500D01*
G75*
G02*
X140837500Y-113075000I237500J0D01*
G01*
X141437500Y-113075000D01*
G75*
G02*
X141675000Y-113312500I0J-237500D01*
G01*
X141675000Y-113787500D01*
G75*
G02*
X141437500Y-114025000I-237500J0D01*
G01*
X140837500Y-114025000D01*
G75*
G02*
X140600000Y-113787500I0J237500D01*
G01*
G37*
G36*
G01*
X127937500Y-106575000D02*
X127462500Y-106575000D01*
G75*
G02*
X127225000Y-106337500I0J237500D01*
G01*
X127225000Y-105737500D01*
G75*
G02*
X127462500Y-105500000I237500J0D01*
G01*
X127937500Y-105500000D01*
G75*
G02*
X128175000Y-105737500I0J-237500D01*
G01*
X128175000Y-106337500D01*
G75*
G02*
X127937500Y-106575000I-237500J0D01*
G01*
G37*
G36*
G01*
X127937500Y-108300000D02*
X127462500Y-108300000D01*
G75*
G02*
X127225000Y-108062500I0J237500D01*
G01*
X127225000Y-107462500D01*
G75*
G02*
X127462500Y-107225000I237500J0D01*
G01*
X127937500Y-107225000D01*
G75*
G02*
X128175000Y-107462500I0J-237500D01*
G01*
X128175000Y-108062500D01*
G75*
G02*
X127937500Y-108300000I-237500J0D01*
G01*
G37*
G36*
G01*
X153337500Y-102675000D02*
X152862500Y-102675000D01*
G75*
G02*
X152625000Y-102437500I0J237500D01*
G01*
X152625000Y-101837500D01*
G75*
G02*
X152862500Y-101600000I237500J0D01*
G01*
X153337500Y-101600000D01*
G75*
G02*
X153575000Y-101837500I0J-237500D01*
G01*
X153575000Y-102437500D01*
G75*
G02*
X153337500Y-102675000I-237500J0D01*
G01*
G37*
G36*
G01*
X153337500Y-104400000D02*
X152862500Y-104400000D01*
G75*
G02*
X152625000Y-104162500I0J237500D01*
G01*
X152625000Y-103562500D01*
G75*
G02*
X152862500Y-103325000I237500J0D01*
G01*
X153337500Y-103325000D01*
G75*
G02*
X153575000Y-103562500I0J-237500D01*
G01*
X153575000Y-104162500D01*
G75*
G02*
X153337500Y-104400000I-237500J0D01*
G01*
G37*
G36*
G01*
X151837500Y-102675000D02*
X151362500Y-102675000D01*
G75*
G02*
X151125000Y-102437500I0J237500D01*
G01*
X151125000Y-101837500D01*
G75*
G02*
X151362500Y-101600000I237500J0D01*
G01*
X151837500Y-101600000D01*
G75*
G02*
X152075000Y-101837500I0J-237500D01*
G01*
X152075000Y-102437500D01*
G75*
G02*
X151837500Y-102675000I-237500J0D01*
G01*
G37*
G36*
G01*
X151837500Y-104400000D02*
X151362500Y-104400000D01*
G75*
G02*
X151125000Y-104162500I0J237500D01*
G01*
X151125000Y-103562500D01*
G75*
G02*
X151362500Y-103325000I237500J0D01*
G01*
X151837500Y-103325000D01*
G75*
G02*
X152075000Y-103562500I0J-237500D01*
G01*
X152075000Y-104162500D01*
G75*
G02*
X151837500Y-104400000I-237500J0D01*
G01*
G37*
G36*
G01*
X161987500Y-102675000D02*
X161512500Y-102675000D01*
G75*
G02*
X161275000Y-102437500I0J237500D01*
G01*
X161275000Y-101837500D01*
G75*
G02*
X161512500Y-101600000I237500J0D01*
G01*
X161987500Y-101600000D01*
G75*
G02*
X162225000Y-101837500I0J-237500D01*
G01*
X162225000Y-102437500D01*
G75*
G02*
X161987500Y-102675000I-237500J0D01*
G01*
G37*
G36*
G01*
X161987500Y-104400000D02*
X161512500Y-104400000D01*
G75*
G02*
X161275000Y-104162500I0J237500D01*
G01*
X161275000Y-103562500D01*
G75*
G02*
X161512500Y-103325000I237500J0D01*
G01*
X161987500Y-103325000D01*
G75*
G02*
X162225000Y-103562500I0J-237500D01*
G01*
X162225000Y-104162500D01*
G75*
G02*
X161987500Y-104400000I-237500J0D01*
G01*
G37*
G36*
G01*
X163487500Y-102675000D02*
X163012500Y-102675000D01*
G75*
G02*
X162775000Y-102437500I0J237500D01*
G01*
X162775000Y-101837500D01*
G75*
G02*
X163012500Y-101600000I237500J0D01*
G01*
X163487500Y-101600000D01*
G75*
G02*
X163725000Y-101837500I0J-237500D01*
G01*
X163725000Y-102437500D01*
G75*
G02*
X163487500Y-102675000I-237500J0D01*
G01*
G37*
G36*
G01*
X163487500Y-104400000D02*
X163012500Y-104400000D01*
G75*
G02*
X162775000Y-104162500I0J237500D01*
G01*
X162775000Y-103562500D01*
G75*
G02*
X163012500Y-103325000I237500J0D01*
G01*
X163487500Y-103325000D01*
G75*
G02*
X163725000Y-103562500I0J-237500D01*
G01*
X163725000Y-104162500D01*
G75*
G02*
X163487500Y-104400000I-237500J0D01*
G01*
G37*
D15*
X139100000Y-117075000D03*
X139100000Y-113825000D03*
G36*
G01*
X129425000Y-94337500D02*
X129425000Y-93862500D01*
G75*
G02*
X129662500Y-93625000I237500J0D01*
G01*
X130262500Y-93625000D01*
G75*
G02*
X130500000Y-93862500I0J-237500D01*
G01*
X130500000Y-94337500D01*
G75*
G02*
X130262500Y-94575000I-237500J0D01*
G01*
X129662500Y-94575000D01*
G75*
G02*
X129425000Y-94337500I0J237500D01*
G01*
G37*
G36*
G01*
X127700000Y-94337500D02*
X127700000Y-93862500D01*
G75*
G02*
X127937500Y-93625000I237500J0D01*
G01*
X128537500Y-93625000D01*
G75*
G02*
X128775000Y-93862500I0J-237500D01*
G01*
X128775000Y-94337500D01*
G75*
G02*
X128537500Y-94575000I-237500J0D01*
G01*
X127937500Y-94575000D01*
G75*
G02*
X127700000Y-94337500I0J237500D01*
G01*
G37*
G36*
G01*
X128825000Y-100962500D02*
X128825000Y-101437500D01*
G75*
G02*
X128587500Y-101675000I-237500J0D01*
G01*
X127987500Y-101675000D01*
G75*
G02*
X127750000Y-101437500I0J237500D01*
G01*
X127750000Y-100962500D01*
G75*
G02*
X127987500Y-100725000I237500J0D01*
G01*
X128587500Y-100725000D01*
G75*
G02*
X128825000Y-100962500I0J-237500D01*
G01*
G37*
G36*
G01*
X130550000Y-100962500D02*
X130550000Y-101437500D01*
G75*
G02*
X130312500Y-101675000I-237500J0D01*
G01*
X129712500Y-101675000D01*
G75*
G02*
X129475000Y-101437500I0J237500D01*
G01*
X129475000Y-100962500D01*
G75*
G02*
X129712500Y-100725000I237500J0D01*
G01*
X130312500Y-100725000D01*
G75*
G02*
X130550000Y-100962500I0J-237500D01*
G01*
G37*
G36*
G01*
X129437500Y-106575000D02*
X128962500Y-106575000D01*
G75*
G02*
X128725000Y-106337500I0J237500D01*
G01*
X128725000Y-105737500D01*
G75*
G02*
X128962500Y-105500000I237500J0D01*
G01*
X129437500Y-105500000D01*
G75*
G02*
X129675000Y-105737500I0J-237500D01*
G01*
X129675000Y-106337500D01*
G75*
G02*
X129437500Y-106575000I-237500J0D01*
G01*
G37*
G36*
G01*
X129437500Y-108300000D02*
X128962500Y-108300000D01*
G75*
G02*
X128725000Y-108062500I0J237500D01*
G01*
X128725000Y-107462500D01*
G75*
G02*
X128962500Y-107225000I237500J0D01*
G01*
X129437500Y-107225000D01*
G75*
G02*
X129675000Y-107462500I0J-237500D01*
G01*
X129675000Y-108062500D01*
G75*
G02*
X129437500Y-108300000I-237500J0D01*
G01*
G37*
G36*
G01*
X131175000Y-109762500D02*
X131175000Y-110237500D01*
G75*
G02*
X130937500Y-110475000I-237500J0D01*
G01*
X130337500Y-110475000D01*
G75*
G02*
X130100000Y-110237500I0J237500D01*
G01*
X130100000Y-109762500D01*
G75*
G02*
X130337500Y-109525000I237500J0D01*
G01*
X130937500Y-109525000D01*
G75*
G02*
X131175000Y-109762500I0J-237500D01*
G01*
G37*
G36*
G01*
X132900000Y-109762500D02*
X132900000Y-110237500D01*
G75*
G02*
X132662500Y-110475000I-237500J0D01*
G01*
X132062500Y-110475000D01*
G75*
G02*
X131825000Y-110237500I0J237500D01*
G01*
X131825000Y-109762500D01*
G75*
G02*
X132062500Y-109525000I237500J0D01*
G01*
X132662500Y-109525000D01*
G75*
G02*
X132900000Y-109762500I0J-237500D01*
G01*
G37*
G36*
G01*
X134025000Y-107400000D02*
X132625000Y-107400000D01*
G75*
G02*
X132550000Y-107325000I0J75000D01*
G01*
X132550000Y-107175000D01*
G75*
G02*
X132625000Y-107100000I75000J0D01*
G01*
X134025000Y-107100000D01*
G75*
G02*
X134100000Y-107175000I0J-75000D01*
G01*
X134100000Y-107325000D01*
G75*
G02*
X134025000Y-107400000I-75000J0D01*
G01*
G37*
G36*
G01*
X134025000Y-106900000D02*
X132625000Y-106900000D01*
G75*
G02*
X132550000Y-106825000I0J75000D01*
G01*
X132550000Y-106675000D01*
G75*
G02*
X132625000Y-106600000I75000J0D01*
G01*
X134025000Y-106600000D01*
G75*
G02*
X134100000Y-106675000I0J-75000D01*
G01*
X134100000Y-106825000D01*
G75*
G02*
X134025000Y-106900000I-75000J0D01*
G01*
G37*
G36*
G01*
X134025000Y-106400000D02*
X132625000Y-106400000D01*
G75*
G02*
X132550000Y-106325000I0J75000D01*
G01*
X132550000Y-106175000D01*
G75*
G02*
X132625000Y-106100000I75000J0D01*
G01*
X134025000Y-106100000D01*
G75*
G02*
X134100000Y-106175000I0J-75000D01*
G01*
X134100000Y-106325000D01*
G75*
G02*
X134025000Y-106400000I-75000J0D01*
G01*
G37*
G36*
G01*
X134025000Y-105900000D02*
X132625000Y-105900000D01*
G75*
G02*
X132550000Y-105825000I0J75000D01*
G01*
X132550000Y-105675000D01*
G75*
G02*
X132625000Y-105600000I75000J0D01*
G01*
X134025000Y-105600000D01*
G75*
G02*
X134100000Y-105675000I0J-75000D01*
G01*
X134100000Y-105825000D01*
G75*
G02*
X134025000Y-105900000I-75000J0D01*
G01*
G37*
G36*
G01*
X134025000Y-105400000D02*
X132625000Y-105400000D01*
G75*
G02*
X132550000Y-105325000I0J75000D01*
G01*
X132550000Y-105175000D01*
G75*
G02*
X132625000Y-105100000I75000J0D01*
G01*
X134025000Y-105100000D01*
G75*
G02*
X134100000Y-105175000I0J-75000D01*
G01*
X134100000Y-105325000D01*
G75*
G02*
X134025000Y-105400000I-75000J0D01*
G01*
G37*
G36*
G01*
X134025000Y-104900000D02*
X132625000Y-104900000D01*
G75*
G02*
X132550000Y-104825000I0J75000D01*
G01*
X132550000Y-104675000D01*
G75*
G02*
X132625000Y-104600000I75000J0D01*
G01*
X134025000Y-104600000D01*
G75*
G02*
X134100000Y-104675000I0J-75000D01*
G01*
X134100000Y-104825000D01*
G75*
G02*
X134025000Y-104900000I-75000J0D01*
G01*
G37*
G36*
G01*
X134025000Y-104400000D02*
X132625000Y-104400000D01*
G75*
G02*
X132550000Y-104325000I0J75000D01*
G01*
X132550000Y-104175000D01*
G75*
G02*
X132625000Y-104100000I75000J0D01*
G01*
X134025000Y-104100000D01*
G75*
G02*
X134100000Y-104175000I0J-75000D01*
G01*
X134100000Y-104325000D01*
G75*
G02*
X134025000Y-104400000I-75000J0D01*
G01*
G37*
G36*
G01*
X134025000Y-103900000D02*
X132625000Y-103900000D01*
G75*
G02*
X132550000Y-103825000I0J75000D01*
G01*
X132550000Y-103675000D01*
G75*
G02*
X132625000Y-103600000I75000J0D01*
G01*
X134025000Y-103600000D01*
G75*
G02*
X134100000Y-103675000I0J-75000D01*
G01*
X134100000Y-103825000D01*
G75*
G02*
X134025000Y-103900000I-75000J0D01*
G01*
G37*
G36*
G01*
X134025000Y-103400000D02*
X132625000Y-103400000D01*
G75*
G02*
X132550000Y-103325000I0J75000D01*
G01*
X132550000Y-103175000D01*
G75*
G02*
X132625000Y-103100000I75000J0D01*
G01*
X134025000Y-103100000D01*
G75*
G02*
X134100000Y-103175000I0J-75000D01*
G01*
X134100000Y-103325000D01*
G75*
G02*
X134025000Y-103400000I-75000J0D01*
G01*
G37*
G36*
G01*
X134025000Y-102900000D02*
X132625000Y-102900000D01*
G75*
G02*
X132550000Y-102825000I0J75000D01*
G01*
X132550000Y-102675000D01*
G75*
G02*
X132625000Y-102600000I75000J0D01*
G01*
X134025000Y-102600000D01*
G75*
G02*
X134100000Y-102675000I0J-75000D01*
G01*
X134100000Y-102825000D01*
G75*
G02*
X134025000Y-102900000I-75000J0D01*
G01*
G37*
G36*
G01*
X134025000Y-102400000D02*
X132625000Y-102400000D01*
G75*
G02*
X132550000Y-102325000I0J75000D01*
G01*
X132550000Y-102175000D01*
G75*
G02*
X132625000Y-102100000I75000J0D01*
G01*
X134025000Y-102100000D01*
G75*
G02*
X134100000Y-102175000I0J-75000D01*
G01*
X134100000Y-102325000D01*
G75*
G02*
X134025000Y-102400000I-75000J0D01*
G01*
G37*
G36*
G01*
X134025000Y-101900000D02*
X132625000Y-101900000D01*
G75*
G02*
X132550000Y-101825000I0J75000D01*
G01*
X132550000Y-101675000D01*
G75*
G02*
X132625000Y-101600000I75000J0D01*
G01*
X134025000Y-101600000D01*
G75*
G02*
X134100000Y-101675000I0J-75000D01*
G01*
X134100000Y-101825000D01*
G75*
G02*
X134025000Y-101900000I-75000J0D01*
G01*
G37*
G36*
G01*
X134025000Y-101400000D02*
X132625000Y-101400000D01*
G75*
G02*
X132550000Y-101325000I0J75000D01*
G01*
X132550000Y-101175000D01*
G75*
G02*
X132625000Y-101100000I75000J0D01*
G01*
X134025000Y-101100000D01*
G75*
G02*
X134100000Y-101175000I0J-75000D01*
G01*
X134100000Y-101325000D01*
G75*
G02*
X134025000Y-101400000I-75000J0D01*
G01*
G37*
G36*
G01*
X134025000Y-100900000D02*
X132625000Y-100900000D01*
G75*
G02*
X132550000Y-100825000I0J75000D01*
G01*
X132550000Y-100675000D01*
G75*
G02*
X132625000Y-100600000I75000J0D01*
G01*
X134025000Y-100600000D01*
G75*
G02*
X134100000Y-100675000I0J-75000D01*
G01*
X134100000Y-100825000D01*
G75*
G02*
X134025000Y-100900000I-75000J0D01*
G01*
G37*
G36*
G01*
X134025000Y-100400000D02*
X132625000Y-100400000D01*
G75*
G02*
X132550000Y-100325000I0J75000D01*
G01*
X132550000Y-100175000D01*
G75*
G02*
X132625000Y-100100000I75000J0D01*
G01*
X134025000Y-100100000D01*
G75*
G02*
X134100000Y-100175000I0J-75000D01*
G01*
X134100000Y-100325000D01*
G75*
G02*
X134025000Y-100400000I-75000J0D01*
G01*
G37*
G36*
G01*
X134025000Y-99900000D02*
X132625000Y-99900000D01*
G75*
G02*
X132550000Y-99825000I0J75000D01*
G01*
X132550000Y-99675000D01*
G75*
G02*
X132625000Y-99600000I75000J0D01*
G01*
X134025000Y-99600000D01*
G75*
G02*
X134100000Y-99675000I0J-75000D01*
G01*
X134100000Y-99825000D01*
G75*
G02*
X134025000Y-99900000I-75000J0D01*
G01*
G37*
G36*
G01*
X135325000Y-98600000D02*
X135175000Y-98600000D01*
G75*
G02*
X135100000Y-98525000I0J75000D01*
G01*
X135100000Y-97125000D01*
G75*
G02*
X135175000Y-97050000I75000J0D01*
G01*
X135325000Y-97050000D01*
G75*
G02*
X135400000Y-97125000I0J-75000D01*
G01*
X135400000Y-98525000D01*
G75*
G02*
X135325000Y-98600000I-75000J0D01*
G01*
G37*
G36*
G01*
X135825000Y-98600000D02*
X135675000Y-98600000D01*
G75*
G02*
X135600000Y-98525000I0J75000D01*
G01*
X135600000Y-97125000D01*
G75*
G02*
X135675000Y-97050000I75000J0D01*
G01*
X135825000Y-97050000D01*
G75*
G02*
X135900000Y-97125000I0J-75000D01*
G01*
X135900000Y-98525000D01*
G75*
G02*
X135825000Y-98600000I-75000J0D01*
G01*
G37*
G36*
G01*
X136325000Y-98600000D02*
X136175000Y-98600000D01*
G75*
G02*
X136100000Y-98525000I0J75000D01*
G01*
X136100000Y-97125000D01*
G75*
G02*
X136175000Y-97050000I75000J0D01*
G01*
X136325000Y-97050000D01*
G75*
G02*
X136400000Y-97125000I0J-75000D01*
G01*
X136400000Y-98525000D01*
G75*
G02*
X136325000Y-98600000I-75000J0D01*
G01*
G37*
G36*
G01*
X136825000Y-98600000D02*
X136675000Y-98600000D01*
G75*
G02*
X136600000Y-98525000I0J75000D01*
G01*
X136600000Y-97125000D01*
G75*
G02*
X136675000Y-97050000I75000J0D01*
G01*
X136825000Y-97050000D01*
G75*
G02*
X136900000Y-97125000I0J-75000D01*
G01*
X136900000Y-98525000D01*
G75*
G02*
X136825000Y-98600000I-75000J0D01*
G01*
G37*
G36*
G01*
X137325000Y-98600000D02*
X137175000Y-98600000D01*
G75*
G02*
X137100000Y-98525000I0J75000D01*
G01*
X137100000Y-97125000D01*
G75*
G02*
X137175000Y-97050000I75000J0D01*
G01*
X137325000Y-97050000D01*
G75*
G02*
X137400000Y-97125000I0J-75000D01*
G01*
X137400000Y-98525000D01*
G75*
G02*
X137325000Y-98600000I-75000J0D01*
G01*
G37*
G36*
G01*
X137825000Y-98600000D02*
X137675000Y-98600000D01*
G75*
G02*
X137600000Y-98525000I0J75000D01*
G01*
X137600000Y-97125000D01*
G75*
G02*
X137675000Y-97050000I75000J0D01*
G01*
X137825000Y-97050000D01*
G75*
G02*
X137900000Y-97125000I0J-75000D01*
G01*
X137900000Y-98525000D01*
G75*
G02*
X137825000Y-98600000I-75000J0D01*
G01*
G37*
G36*
G01*
X138325000Y-98600000D02*
X138175000Y-98600000D01*
G75*
G02*
X138100000Y-98525000I0J75000D01*
G01*
X138100000Y-97125000D01*
G75*
G02*
X138175000Y-97050000I75000J0D01*
G01*
X138325000Y-97050000D01*
G75*
G02*
X138400000Y-97125000I0J-75000D01*
G01*
X138400000Y-98525000D01*
G75*
G02*
X138325000Y-98600000I-75000J0D01*
G01*
G37*
G36*
G01*
X138825000Y-98600000D02*
X138675000Y-98600000D01*
G75*
G02*
X138600000Y-98525000I0J75000D01*
G01*
X138600000Y-97125000D01*
G75*
G02*
X138675000Y-97050000I75000J0D01*
G01*
X138825000Y-97050000D01*
G75*
G02*
X138900000Y-97125000I0J-75000D01*
G01*
X138900000Y-98525000D01*
G75*
G02*
X138825000Y-98600000I-75000J0D01*
G01*
G37*
G36*
G01*
X139325000Y-98600000D02*
X139175000Y-98600000D01*
G75*
G02*
X139100000Y-98525000I0J75000D01*
G01*
X139100000Y-97125000D01*
G75*
G02*
X139175000Y-97050000I75000J0D01*
G01*
X139325000Y-97050000D01*
G75*
G02*
X139400000Y-97125000I0J-75000D01*
G01*
X139400000Y-98525000D01*
G75*
G02*
X139325000Y-98600000I-75000J0D01*
G01*
G37*
G36*
G01*
X139825000Y-98600000D02*
X139675000Y-98600000D01*
G75*
G02*
X139600000Y-98525000I0J75000D01*
G01*
X139600000Y-97125000D01*
G75*
G02*
X139675000Y-97050000I75000J0D01*
G01*
X139825000Y-97050000D01*
G75*
G02*
X139900000Y-97125000I0J-75000D01*
G01*
X139900000Y-98525000D01*
G75*
G02*
X139825000Y-98600000I-75000J0D01*
G01*
G37*
G36*
G01*
X140325000Y-98600000D02*
X140175000Y-98600000D01*
G75*
G02*
X140100000Y-98525000I0J75000D01*
G01*
X140100000Y-97125000D01*
G75*
G02*
X140175000Y-97050000I75000J0D01*
G01*
X140325000Y-97050000D01*
G75*
G02*
X140400000Y-97125000I0J-75000D01*
G01*
X140400000Y-98525000D01*
G75*
G02*
X140325000Y-98600000I-75000J0D01*
G01*
G37*
G36*
G01*
X140825000Y-98600000D02*
X140675000Y-98600000D01*
G75*
G02*
X140600000Y-98525000I0J75000D01*
G01*
X140600000Y-97125000D01*
G75*
G02*
X140675000Y-97050000I75000J0D01*
G01*
X140825000Y-97050000D01*
G75*
G02*
X140900000Y-97125000I0J-75000D01*
G01*
X140900000Y-98525000D01*
G75*
G02*
X140825000Y-98600000I-75000J0D01*
G01*
G37*
G36*
G01*
X141325000Y-98600000D02*
X141175000Y-98600000D01*
G75*
G02*
X141100000Y-98525000I0J75000D01*
G01*
X141100000Y-97125000D01*
G75*
G02*
X141175000Y-97050000I75000J0D01*
G01*
X141325000Y-97050000D01*
G75*
G02*
X141400000Y-97125000I0J-75000D01*
G01*
X141400000Y-98525000D01*
G75*
G02*
X141325000Y-98600000I-75000J0D01*
G01*
G37*
G36*
G01*
X141825000Y-98600000D02*
X141675000Y-98600000D01*
G75*
G02*
X141600000Y-98525000I0J75000D01*
G01*
X141600000Y-97125000D01*
G75*
G02*
X141675000Y-97050000I75000J0D01*
G01*
X141825000Y-97050000D01*
G75*
G02*
X141900000Y-97125000I0J-75000D01*
G01*
X141900000Y-98525000D01*
G75*
G02*
X141825000Y-98600000I-75000J0D01*
G01*
G37*
G36*
G01*
X142325000Y-98600000D02*
X142175000Y-98600000D01*
G75*
G02*
X142100000Y-98525000I0J75000D01*
G01*
X142100000Y-97125000D01*
G75*
G02*
X142175000Y-97050000I75000J0D01*
G01*
X142325000Y-97050000D01*
G75*
G02*
X142400000Y-97125000I0J-75000D01*
G01*
X142400000Y-98525000D01*
G75*
G02*
X142325000Y-98600000I-75000J0D01*
G01*
G37*
G36*
G01*
X142825000Y-98600000D02*
X142675000Y-98600000D01*
G75*
G02*
X142600000Y-98525000I0J75000D01*
G01*
X142600000Y-97125000D01*
G75*
G02*
X142675000Y-97050000I75000J0D01*
G01*
X142825000Y-97050000D01*
G75*
G02*
X142900000Y-97125000I0J-75000D01*
G01*
X142900000Y-98525000D01*
G75*
G02*
X142825000Y-98600000I-75000J0D01*
G01*
G37*
G36*
G01*
X145375000Y-99900000D02*
X143975000Y-99900000D01*
G75*
G02*
X143900000Y-99825000I0J75000D01*
G01*
X143900000Y-99675000D01*
G75*
G02*
X143975000Y-99600000I75000J0D01*
G01*
X145375000Y-99600000D01*
G75*
G02*
X145450000Y-99675000I0J-75000D01*
G01*
X145450000Y-99825000D01*
G75*
G02*
X145375000Y-99900000I-75000J0D01*
G01*
G37*
G36*
G01*
X145375000Y-100400000D02*
X143975000Y-100400000D01*
G75*
G02*
X143900000Y-100325000I0J75000D01*
G01*
X143900000Y-100175000D01*
G75*
G02*
X143975000Y-100100000I75000J0D01*
G01*
X145375000Y-100100000D01*
G75*
G02*
X145450000Y-100175000I0J-75000D01*
G01*
X145450000Y-100325000D01*
G75*
G02*
X145375000Y-100400000I-75000J0D01*
G01*
G37*
G36*
G01*
X145375000Y-100900000D02*
X143975000Y-100900000D01*
G75*
G02*
X143900000Y-100825000I0J75000D01*
G01*
X143900000Y-100675000D01*
G75*
G02*
X143975000Y-100600000I75000J0D01*
G01*
X145375000Y-100600000D01*
G75*
G02*
X145450000Y-100675000I0J-75000D01*
G01*
X145450000Y-100825000D01*
G75*
G02*
X145375000Y-100900000I-75000J0D01*
G01*
G37*
G36*
G01*
X145375000Y-101400000D02*
X143975000Y-101400000D01*
G75*
G02*
X143900000Y-101325000I0J75000D01*
G01*
X143900000Y-101175000D01*
G75*
G02*
X143975000Y-101100000I75000J0D01*
G01*
X145375000Y-101100000D01*
G75*
G02*
X145450000Y-101175000I0J-75000D01*
G01*
X145450000Y-101325000D01*
G75*
G02*
X145375000Y-101400000I-75000J0D01*
G01*
G37*
G36*
G01*
X145375000Y-101900000D02*
X143975000Y-101900000D01*
G75*
G02*
X143900000Y-101825000I0J75000D01*
G01*
X143900000Y-101675000D01*
G75*
G02*
X143975000Y-101600000I75000J0D01*
G01*
X145375000Y-101600000D01*
G75*
G02*
X145450000Y-101675000I0J-75000D01*
G01*
X145450000Y-101825000D01*
G75*
G02*
X145375000Y-101900000I-75000J0D01*
G01*
G37*
G36*
G01*
X145375000Y-102400000D02*
X143975000Y-102400000D01*
G75*
G02*
X143900000Y-102325000I0J75000D01*
G01*
X143900000Y-102175000D01*
G75*
G02*
X143975000Y-102100000I75000J0D01*
G01*
X145375000Y-102100000D01*
G75*
G02*
X145450000Y-102175000I0J-75000D01*
G01*
X145450000Y-102325000D01*
G75*
G02*
X145375000Y-102400000I-75000J0D01*
G01*
G37*
G36*
G01*
X145375000Y-102900000D02*
X143975000Y-102900000D01*
G75*
G02*
X143900000Y-102825000I0J75000D01*
G01*
X143900000Y-102675000D01*
G75*
G02*
X143975000Y-102600000I75000J0D01*
G01*
X145375000Y-102600000D01*
G75*
G02*
X145450000Y-102675000I0J-75000D01*
G01*
X145450000Y-102825000D01*
G75*
G02*
X145375000Y-102900000I-75000J0D01*
G01*
G37*
G36*
G01*
X145375000Y-103400000D02*
X143975000Y-103400000D01*
G75*
G02*
X143900000Y-103325000I0J75000D01*
G01*
X143900000Y-103175000D01*
G75*
G02*
X143975000Y-103100000I75000J0D01*
G01*
X145375000Y-103100000D01*
G75*
G02*
X145450000Y-103175000I0J-75000D01*
G01*
X145450000Y-103325000D01*
G75*
G02*
X145375000Y-103400000I-75000J0D01*
G01*
G37*
G36*
G01*
X145375000Y-103900000D02*
X143975000Y-103900000D01*
G75*
G02*
X143900000Y-103825000I0J75000D01*
G01*
X143900000Y-103675000D01*
G75*
G02*
X143975000Y-103600000I75000J0D01*
G01*
X145375000Y-103600000D01*
G75*
G02*
X145450000Y-103675000I0J-75000D01*
G01*
X145450000Y-103825000D01*
G75*
G02*
X145375000Y-103900000I-75000J0D01*
G01*
G37*
G36*
G01*
X145375000Y-104400000D02*
X143975000Y-104400000D01*
G75*
G02*
X143900000Y-104325000I0J75000D01*
G01*
X143900000Y-104175000D01*
G75*
G02*
X143975000Y-104100000I75000J0D01*
G01*
X145375000Y-104100000D01*
G75*
G02*
X145450000Y-104175000I0J-75000D01*
G01*
X145450000Y-104325000D01*
G75*
G02*
X145375000Y-104400000I-75000J0D01*
G01*
G37*
G36*
G01*
X145375000Y-104900000D02*
X143975000Y-104900000D01*
G75*
G02*
X143900000Y-104825000I0J75000D01*
G01*
X143900000Y-104675000D01*
G75*
G02*
X143975000Y-104600000I75000J0D01*
G01*
X145375000Y-104600000D01*
G75*
G02*
X145450000Y-104675000I0J-75000D01*
G01*
X145450000Y-104825000D01*
G75*
G02*
X145375000Y-104900000I-75000J0D01*
G01*
G37*
G36*
G01*
X145375000Y-105400000D02*
X143975000Y-105400000D01*
G75*
G02*
X143900000Y-105325000I0J75000D01*
G01*
X143900000Y-105175000D01*
G75*
G02*
X143975000Y-105100000I75000J0D01*
G01*
X145375000Y-105100000D01*
G75*
G02*
X145450000Y-105175000I0J-75000D01*
G01*
X145450000Y-105325000D01*
G75*
G02*
X145375000Y-105400000I-75000J0D01*
G01*
G37*
G36*
G01*
X145375000Y-105900000D02*
X143975000Y-105900000D01*
G75*
G02*
X143900000Y-105825000I0J75000D01*
G01*
X143900000Y-105675000D01*
G75*
G02*
X143975000Y-105600000I75000J0D01*
G01*
X145375000Y-105600000D01*
G75*
G02*
X145450000Y-105675000I0J-75000D01*
G01*
X145450000Y-105825000D01*
G75*
G02*
X145375000Y-105900000I-75000J0D01*
G01*
G37*
G36*
G01*
X145375000Y-106400000D02*
X143975000Y-106400000D01*
G75*
G02*
X143900000Y-106325000I0J75000D01*
G01*
X143900000Y-106175000D01*
G75*
G02*
X143975000Y-106100000I75000J0D01*
G01*
X145375000Y-106100000D01*
G75*
G02*
X145450000Y-106175000I0J-75000D01*
G01*
X145450000Y-106325000D01*
G75*
G02*
X145375000Y-106400000I-75000J0D01*
G01*
G37*
G36*
G01*
X145375000Y-106900000D02*
X143975000Y-106900000D01*
G75*
G02*
X143900000Y-106825000I0J75000D01*
G01*
X143900000Y-106675000D01*
G75*
G02*
X143975000Y-106600000I75000J0D01*
G01*
X145375000Y-106600000D01*
G75*
G02*
X145450000Y-106675000I0J-75000D01*
G01*
X145450000Y-106825000D01*
G75*
G02*
X145375000Y-106900000I-75000J0D01*
G01*
G37*
G36*
G01*
X145375000Y-107400000D02*
X143975000Y-107400000D01*
G75*
G02*
X143900000Y-107325000I0J75000D01*
G01*
X143900000Y-107175000D01*
G75*
G02*
X143975000Y-107100000I75000J0D01*
G01*
X145375000Y-107100000D01*
G75*
G02*
X145450000Y-107175000I0J-75000D01*
G01*
X145450000Y-107325000D01*
G75*
G02*
X145375000Y-107400000I-75000J0D01*
G01*
G37*
G36*
G01*
X142825000Y-109950000D02*
X142675000Y-109950000D01*
G75*
G02*
X142600000Y-109875000I0J75000D01*
G01*
X142600000Y-108475000D01*
G75*
G02*
X142675000Y-108400000I75000J0D01*
G01*
X142825000Y-108400000D01*
G75*
G02*
X142900000Y-108475000I0J-75000D01*
G01*
X142900000Y-109875000D01*
G75*
G02*
X142825000Y-109950000I-75000J0D01*
G01*
G37*
G36*
G01*
X142325000Y-109950000D02*
X142175000Y-109950000D01*
G75*
G02*
X142100000Y-109875000I0J75000D01*
G01*
X142100000Y-108475000D01*
G75*
G02*
X142175000Y-108400000I75000J0D01*
G01*
X142325000Y-108400000D01*
G75*
G02*
X142400000Y-108475000I0J-75000D01*
G01*
X142400000Y-109875000D01*
G75*
G02*
X142325000Y-109950000I-75000J0D01*
G01*
G37*
G36*
G01*
X141825000Y-109950000D02*
X141675000Y-109950000D01*
G75*
G02*
X141600000Y-109875000I0J75000D01*
G01*
X141600000Y-108475000D01*
G75*
G02*
X141675000Y-108400000I75000J0D01*
G01*
X141825000Y-108400000D01*
G75*
G02*
X141900000Y-108475000I0J-75000D01*
G01*
X141900000Y-109875000D01*
G75*
G02*
X141825000Y-109950000I-75000J0D01*
G01*
G37*
G36*
G01*
X141325000Y-109950000D02*
X141175000Y-109950000D01*
G75*
G02*
X141100000Y-109875000I0J75000D01*
G01*
X141100000Y-108475000D01*
G75*
G02*
X141175000Y-108400000I75000J0D01*
G01*
X141325000Y-108400000D01*
G75*
G02*
X141400000Y-108475000I0J-75000D01*
G01*
X141400000Y-109875000D01*
G75*
G02*
X141325000Y-109950000I-75000J0D01*
G01*
G37*
G36*
G01*
X140825000Y-109950000D02*
X140675000Y-109950000D01*
G75*
G02*
X140600000Y-109875000I0J75000D01*
G01*
X140600000Y-108475000D01*
G75*
G02*
X140675000Y-108400000I75000J0D01*
G01*
X140825000Y-108400000D01*
G75*
G02*
X140900000Y-108475000I0J-75000D01*
G01*
X140900000Y-109875000D01*
G75*
G02*
X140825000Y-109950000I-75000J0D01*
G01*
G37*
G36*
G01*
X140325000Y-109950000D02*
X140175000Y-109950000D01*
G75*
G02*
X140100000Y-109875000I0J75000D01*
G01*
X140100000Y-108475000D01*
G75*
G02*
X140175000Y-108400000I75000J0D01*
G01*
X140325000Y-108400000D01*
G75*
G02*
X140400000Y-108475000I0J-75000D01*
G01*
X140400000Y-109875000D01*
G75*
G02*
X140325000Y-109950000I-75000J0D01*
G01*
G37*
G36*
G01*
X139825000Y-109950000D02*
X139675000Y-109950000D01*
G75*
G02*
X139600000Y-109875000I0J75000D01*
G01*
X139600000Y-108475000D01*
G75*
G02*
X139675000Y-108400000I75000J0D01*
G01*
X139825000Y-108400000D01*
G75*
G02*
X139900000Y-108475000I0J-75000D01*
G01*
X139900000Y-109875000D01*
G75*
G02*
X139825000Y-109950000I-75000J0D01*
G01*
G37*
G36*
G01*
X139325000Y-109950000D02*
X139175000Y-109950000D01*
G75*
G02*
X139100000Y-109875000I0J75000D01*
G01*
X139100000Y-108475000D01*
G75*
G02*
X139175000Y-108400000I75000J0D01*
G01*
X139325000Y-108400000D01*
G75*
G02*
X139400000Y-108475000I0J-75000D01*
G01*
X139400000Y-109875000D01*
G75*
G02*
X139325000Y-109950000I-75000J0D01*
G01*
G37*
G36*
G01*
X138825000Y-109950000D02*
X138675000Y-109950000D01*
G75*
G02*
X138600000Y-109875000I0J75000D01*
G01*
X138600000Y-108475000D01*
G75*
G02*
X138675000Y-108400000I75000J0D01*
G01*
X138825000Y-108400000D01*
G75*
G02*
X138900000Y-108475000I0J-75000D01*
G01*
X138900000Y-109875000D01*
G75*
G02*
X138825000Y-109950000I-75000J0D01*
G01*
G37*
G36*
G01*
X138325000Y-109950000D02*
X138175000Y-109950000D01*
G75*
G02*
X138100000Y-109875000I0J75000D01*
G01*
X138100000Y-108475000D01*
G75*
G02*
X138175000Y-108400000I75000J0D01*
G01*
X138325000Y-108400000D01*
G75*
G02*
X138400000Y-108475000I0J-75000D01*
G01*
X138400000Y-109875000D01*
G75*
G02*
X138325000Y-109950000I-75000J0D01*
G01*
G37*
G36*
G01*
X137825000Y-109950000D02*
X137675000Y-109950000D01*
G75*
G02*
X137600000Y-109875000I0J75000D01*
G01*
X137600000Y-108475000D01*
G75*
G02*
X137675000Y-108400000I75000J0D01*
G01*
X137825000Y-108400000D01*
G75*
G02*
X137900000Y-108475000I0J-75000D01*
G01*
X137900000Y-109875000D01*
G75*
G02*
X137825000Y-109950000I-75000J0D01*
G01*
G37*
G36*
G01*
X137325000Y-109950000D02*
X137175000Y-109950000D01*
G75*
G02*
X137100000Y-109875000I0J75000D01*
G01*
X137100000Y-108475000D01*
G75*
G02*
X137175000Y-108400000I75000J0D01*
G01*
X137325000Y-108400000D01*
G75*
G02*
X137400000Y-108475000I0J-75000D01*
G01*
X137400000Y-109875000D01*
G75*
G02*
X137325000Y-109950000I-75000J0D01*
G01*
G37*
G36*
G01*
X136825000Y-109950000D02*
X136675000Y-109950000D01*
G75*
G02*
X136600000Y-109875000I0J75000D01*
G01*
X136600000Y-108475000D01*
G75*
G02*
X136675000Y-108400000I75000J0D01*
G01*
X136825000Y-108400000D01*
G75*
G02*
X136900000Y-108475000I0J-75000D01*
G01*
X136900000Y-109875000D01*
G75*
G02*
X136825000Y-109950000I-75000J0D01*
G01*
G37*
G36*
G01*
X136325000Y-109950000D02*
X136175000Y-109950000D01*
G75*
G02*
X136100000Y-109875000I0J75000D01*
G01*
X136100000Y-108475000D01*
G75*
G02*
X136175000Y-108400000I75000J0D01*
G01*
X136325000Y-108400000D01*
G75*
G02*
X136400000Y-108475000I0J-75000D01*
G01*
X136400000Y-109875000D01*
G75*
G02*
X136325000Y-109950000I-75000J0D01*
G01*
G37*
G36*
G01*
X135825000Y-109950000D02*
X135675000Y-109950000D01*
G75*
G02*
X135600000Y-109875000I0J75000D01*
G01*
X135600000Y-108475000D01*
G75*
G02*
X135675000Y-108400000I75000J0D01*
G01*
X135825000Y-108400000D01*
G75*
G02*
X135900000Y-108475000I0J-75000D01*
G01*
X135900000Y-109875000D01*
G75*
G02*
X135825000Y-109950000I-75000J0D01*
G01*
G37*
G36*
G01*
X135325000Y-109950000D02*
X135175000Y-109950000D01*
G75*
G02*
X135100000Y-109875000I0J75000D01*
G01*
X135100000Y-108475000D01*
G75*
G02*
X135175000Y-108400000I75000J0D01*
G01*
X135325000Y-108400000D01*
G75*
G02*
X135400000Y-108475000I0J-75000D01*
G01*
X135400000Y-109875000D01*
G75*
G02*
X135325000Y-109950000I-75000J0D01*
G01*
G37*
G36*
G01*
X121162500Y-105675000D02*
X121637500Y-105675000D01*
G75*
G02*
X121875000Y-105912500I0J-237500D01*
G01*
X121875000Y-106412500D01*
G75*
G02*
X121637500Y-106650000I-237500J0D01*
G01*
X121162500Y-106650000D01*
G75*
G02*
X120925000Y-106412500I0J237500D01*
G01*
X120925000Y-105912500D01*
G75*
G02*
X121162500Y-105675000I237500J0D01*
G01*
G37*
G36*
G01*
X121162500Y-103850000D02*
X121637500Y-103850000D01*
G75*
G02*
X121875000Y-104087500I0J-237500D01*
G01*
X121875000Y-104587500D01*
G75*
G02*
X121637500Y-104825000I-237500J0D01*
G01*
X121162500Y-104825000D01*
G75*
G02*
X120925000Y-104587500I0J237500D01*
G01*
X120925000Y-104087500D01*
G75*
G02*
X121162500Y-103850000I237500J0D01*
G01*
G37*
G36*
G01*
X121162500Y-97875000D02*
X121637500Y-97875000D01*
G75*
G02*
X121875000Y-98112500I0J-237500D01*
G01*
X121875000Y-98612500D01*
G75*
G02*
X121637500Y-98850000I-237500J0D01*
G01*
X121162500Y-98850000D01*
G75*
G02*
X120925000Y-98612500I0J237500D01*
G01*
X120925000Y-98112500D01*
G75*
G02*
X121162500Y-97875000I237500J0D01*
G01*
G37*
G36*
G01*
X121162500Y-96050000D02*
X121637500Y-96050000D01*
G75*
G02*
X121875000Y-96287500I0J-237500D01*
G01*
X121875000Y-96787500D01*
G75*
G02*
X121637500Y-97025000I-237500J0D01*
G01*
X121162500Y-97025000D01*
G75*
G02*
X120925000Y-96787500I0J237500D01*
G01*
X120925000Y-96287500D01*
G75*
G02*
X121162500Y-96050000I237500J0D01*
G01*
G37*
G36*
G01*
X122662500Y-97875000D02*
X123137500Y-97875000D01*
G75*
G02*
X123375000Y-98112500I0J-237500D01*
G01*
X123375000Y-98612500D01*
G75*
G02*
X123137500Y-98850000I-237500J0D01*
G01*
X122662500Y-98850000D01*
G75*
G02*
X122425000Y-98612500I0J237500D01*
G01*
X122425000Y-98112500D01*
G75*
G02*
X122662500Y-97875000I237500J0D01*
G01*
G37*
G36*
G01*
X122662500Y-96050000D02*
X123137500Y-96050000D01*
G75*
G02*
X123375000Y-96287500I0J-237500D01*
G01*
X123375000Y-96787500D01*
G75*
G02*
X123137500Y-97025000I-237500J0D01*
G01*
X122662500Y-97025000D01*
G75*
G02*
X122425000Y-96787500I0J237500D01*
G01*
X122425000Y-96287500D01*
G75*
G02*
X122662500Y-96050000I237500J0D01*
G01*
G37*
G36*
G01*
X121162500Y-101775000D02*
X121637500Y-101775000D01*
G75*
G02*
X121875000Y-102012500I0J-237500D01*
G01*
X121875000Y-102612500D01*
G75*
G02*
X121637500Y-102850000I-237500J0D01*
G01*
X121162500Y-102850000D01*
G75*
G02*
X120925000Y-102612500I0J237500D01*
G01*
X120925000Y-102012500D01*
G75*
G02*
X121162500Y-101775000I237500J0D01*
G01*
G37*
G36*
G01*
X121162500Y-100050000D02*
X121637500Y-100050000D01*
G75*
G02*
X121875000Y-100287500I0J-237500D01*
G01*
X121875000Y-100887500D01*
G75*
G02*
X121637500Y-101125000I-237500J0D01*
G01*
X121162500Y-101125000D01*
G75*
G02*
X120925000Y-100887500I0J237500D01*
G01*
X120925000Y-100287500D01*
G75*
G02*
X121162500Y-100050000I237500J0D01*
G01*
G37*
G36*
G01*
X122662500Y-101775000D02*
X123137500Y-101775000D01*
G75*
G02*
X123375000Y-102012500I0J-237500D01*
G01*
X123375000Y-102612500D01*
G75*
G02*
X123137500Y-102850000I-237500J0D01*
G01*
X122662500Y-102850000D01*
G75*
G02*
X122425000Y-102612500I0J237500D01*
G01*
X122425000Y-102012500D01*
G75*
G02*
X122662500Y-101775000I237500J0D01*
G01*
G37*
G36*
G01*
X122662500Y-100050000D02*
X123137500Y-100050000D01*
G75*
G02*
X123375000Y-100287500I0J-237500D01*
G01*
X123375000Y-100887500D01*
G75*
G02*
X123137500Y-101125000I-237500J0D01*
G01*
X122662500Y-101125000D01*
G75*
G02*
X122425000Y-100887500I0J237500D01*
G01*
X122425000Y-100287500D01*
G75*
G02*
X122662500Y-100050000I237500J0D01*
G01*
G37*
M02*
