G04 #@! TF.GenerationSoftware,KiCad,Pcbnew,(5.1.10)-1*
G04 #@! TF.CreationDate,2021-08-01T20:36:26+02:00*
G04 #@! TF.ProjectId,Msp-Board,4d73702d-426f-4617-9264-2e6b69636164,rev?*
G04 #@! TF.SameCoordinates,Original*
G04 #@! TF.FileFunction,Soldermask,Bot*
G04 #@! TF.FilePolarity,Negative*
%FSLAX46Y46*%
G04 Gerber Fmt 4.6, Leading zero omitted, Abs format (unit mm)*
G04 Created by KiCad (PCBNEW (5.1.10)-1) date 2021-08-01 20:36:26*
%MOMM*%
%LPD*%
G01*
G04 APERTURE LIST*
%ADD10O,1.550000X1.550000*%
%ADD11O,1.900000X1.900000*%
%ADD12C,1.650000*%
%ADD13O,2.100000X1.400000*%
%ADD14C,1.900000*%
%ADD15C,0.100000*%
G04 APERTURE END LIST*
D10*
X169850000Y-105050000D03*
X169850000Y-103050000D03*
X169850000Y-101050000D03*
G36*
G01*
X164575000Y-101725000D02*
X164575000Y-100375000D01*
G75*
G02*
X164675000Y-100275000I100000J0D01*
G01*
X166025000Y-100275000D01*
G75*
G02*
X166125000Y-100375000I0J-100000D01*
G01*
X166125000Y-101725000D01*
G75*
G02*
X166025000Y-101825000I-100000J0D01*
G01*
X164675000Y-101825000D01*
G75*
G02*
X164575000Y-101725000I0J100000D01*
G01*
G37*
X165350000Y-103050000D03*
X165350000Y-105050000D03*
D11*
X125140000Y-113000000D03*
G36*
G01*
X123450000Y-113950000D02*
X121750000Y-113950000D01*
G75*
G02*
X121650000Y-113850000I0J100000D01*
G01*
X121650000Y-112150000D01*
G75*
G02*
X121750000Y-112050000I100000J0D01*
G01*
X123450000Y-112050000D01*
G75*
G02*
X123550000Y-112150000I0J-100000D01*
G01*
X123550000Y-113850000D01*
G75*
G02*
X123450000Y-113950000I-100000J0D01*
G01*
G37*
X125140000Y-109350000D03*
G36*
G01*
X123450000Y-110300000D02*
X121750000Y-110300000D01*
G75*
G02*
X121650000Y-110200000I0J100000D01*
G01*
X121650000Y-108500000D01*
G75*
G02*
X121750000Y-108400000I100000J0D01*
G01*
X123450000Y-108400000D01*
G75*
G02*
X123550000Y-108500000I0J-100000D01*
G01*
X123550000Y-110200000D01*
G75*
G02*
X123450000Y-110300000I-100000J0D01*
G01*
G37*
D12*
X172847500Y-105400000D03*
X172847500Y-100500000D03*
D13*
X175547500Y-106550000D03*
X175547500Y-99350000D03*
D11*
X163060000Y-89800000D03*
G36*
G01*
X164750000Y-88850000D02*
X166450000Y-88850000D01*
G75*
G02*
X166550000Y-88950000I0J-100000D01*
G01*
X166550000Y-90650000D01*
G75*
G02*
X166450000Y-90750000I-100000J0D01*
G01*
X164750000Y-90750000D01*
G75*
G02*
X164650000Y-90650000I0J100000D01*
G01*
X164650000Y-88950000D01*
G75*
G02*
X164750000Y-88850000I100000J0D01*
G01*
G37*
X160080000Y-109000000D03*
X157540000Y-109000000D03*
G36*
G01*
X155850000Y-109950000D02*
X154150000Y-109950000D01*
G75*
G02*
X154050000Y-109850000I0J100000D01*
G01*
X154050000Y-108150000D01*
G75*
G02*
X154150000Y-108050000I100000J0D01*
G01*
X155850000Y-108050000D01*
G75*
G02*
X155950000Y-108150000I0J-100000D01*
G01*
X155950000Y-109850000D01*
G75*
G02*
X155850000Y-109950000I-100000J0D01*
G01*
G37*
X160080000Y-112600000D03*
X157540000Y-112600000D03*
G36*
G01*
X155850000Y-113550000D02*
X154150000Y-113550000D01*
G75*
G02*
X154050000Y-113450000I0J100000D01*
G01*
X154050000Y-111750000D01*
G75*
G02*
X154150000Y-111650000I100000J0D01*
G01*
X155850000Y-111650000D01*
G75*
G02*
X155950000Y-111750000I0J-100000D01*
G01*
X155950000Y-113450000D01*
G75*
G02*
X155850000Y-113550000I-100000J0D01*
G01*
G37*
X160080000Y-97000000D03*
X157540000Y-97000000D03*
G36*
G01*
X155850000Y-97950000D02*
X154150000Y-97950000D01*
G75*
G02*
X154050000Y-97850000I0J100000D01*
G01*
X154050000Y-96150000D01*
G75*
G02*
X154150000Y-96050000I100000J0D01*
G01*
X155850000Y-96050000D01*
G75*
G02*
X155950000Y-96150000I0J-100000D01*
G01*
X155950000Y-97850000D01*
G75*
G02*
X155850000Y-97950000I-100000J0D01*
G01*
G37*
X160080000Y-93400000D03*
X157540000Y-93400000D03*
G36*
G01*
X155850000Y-94350000D02*
X154150000Y-94350000D01*
G75*
G02*
X154050000Y-94250000I0J100000D01*
G01*
X154050000Y-92550000D01*
G75*
G02*
X154150000Y-92450000I100000J0D01*
G01*
X155850000Y-92450000D01*
G75*
G02*
X155950000Y-92550000I0J-100000D01*
G01*
X155950000Y-94250000D01*
G75*
G02*
X155850000Y-94350000I-100000J0D01*
G01*
G37*
X129590000Y-121053000D03*
X127050000Y-121053000D03*
X124510000Y-121053000D03*
X121970000Y-121053000D03*
X119430000Y-121053000D03*
X116890000Y-121053000D03*
X114350000Y-121053000D03*
G36*
G01*
X112660000Y-122003000D02*
X110960000Y-122003000D01*
G75*
G02*
X110860000Y-121903000I0J100000D01*
G01*
X110860000Y-120203000D01*
G75*
G02*
X110960000Y-120103000I100000J0D01*
G01*
X112660000Y-120103000D01*
G75*
G02*
X112760000Y-120203000I0J-100000D01*
G01*
X112760000Y-121903000D01*
G75*
G02*
X112660000Y-122003000I-100000J0D01*
G01*
G37*
X129590000Y-84985000D03*
X127050000Y-84985000D03*
X124510000Y-84985000D03*
X121970000Y-84985000D03*
X119430000Y-84985000D03*
X116890000Y-84985000D03*
X114350000Y-84985000D03*
G36*
G01*
X112660000Y-85935000D02*
X110960000Y-85935000D01*
G75*
G02*
X110860000Y-85835000I0J100000D01*
G01*
X110860000Y-84135000D01*
G75*
G02*
X110960000Y-84035000I100000J0D01*
G01*
X112660000Y-84035000D01*
G75*
G02*
X112760000Y-84135000I0J-100000D01*
G01*
X112760000Y-85835000D01*
G75*
G02*
X112660000Y-85935000I-100000J0D01*
G01*
G37*
X175310000Y-84985000D03*
X172770000Y-84985000D03*
X170230000Y-84985000D03*
X167690000Y-84985000D03*
X165150000Y-84985000D03*
X162610000Y-84985000D03*
X160070000Y-84985000D03*
G36*
G01*
X158380000Y-85935000D02*
X156680000Y-85935000D01*
G75*
G02*
X156580000Y-85835000I0J100000D01*
G01*
X156580000Y-84135000D01*
G75*
G02*
X156680000Y-84035000I100000J0D01*
G01*
X158380000Y-84035000D01*
G75*
G02*
X158480000Y-84135000I0J-100000D01*
G01*
X158480000Y-85835000D01*
G75*
G02*
X158380000Y-85935000I-100000J0D01*
G01*
G37*
X152450000Y-84985000D03*
X149910000Y-84985000D03*
X147370000Y-84985000D03*
X144830000Y-84985000D03*
X142290000Y-84985000D03*
X139750000Y-84985000D03*
X137210000Y-84985000D03*
G36*
G01*
X135520000Y-85935000D02*
X133820000Y-85935000D01*
G75*
G02*
X133720000Y-85835000I0J100000D01*
G01*
X133720000Y-84135000D01*
G75*
G02*
X133820000Y-84035000I100000J0D01*
G01*
X135520000Y-84035000D01*
G75*
G02*
X135620000Y-84135000I0J-100000D01*
G01*
X135620000Y-85835000D01*
G75*
G02*
X135520000Y-85935000I-100000J0D01*
G01*
G37*
X175310000Y-121053000D03*
X172770000Y-121053000D03*
X170230000Y-121053000D03*
X167690000Y-121053000D03*
X165150000Y-121053000D03*
X162610000Y-121053000D03*
X160070000Y-121053000D03*
G36*
G01*
X158380000Y-122003000D02*
X156680000Y-122003000D01*
G75*
G02*
X156580000Y-121903000I0J100000D01*
G01*
X156580000Y-120203000D01*
G75*
G02*
X156680000Y-120103000I100000J0D01*
G01*
X158380000Y-120103000D01*
G75*
G02*
X158480000Y-120203000I0J-100000D01*
G01*
X158480000Y-121903000D01*
G75*
G02*
X158380000Y-122003000I-100000J0D01*
G01*
G37*
X152450000Y-121053000D03*
X149910000Y-121053000D03*
X147370000Y-121053000D03*
X144830000Y-121053000D03*
X142290000Y-121053000D03*
X139750000Y-121053000D03*
X137210000Y-121053000D03*
G36*
G01*
X135520000Y-122003000D02*
X133820000Y-122003000D01*
G75*
G02*
X133720000Y-121903000I0J100000D01*
G01*
X133720000Y-120203000D01*
G75*
G02*
X133820000Y-120103000I100000J0D01*
G01*
X135520000Y-120103000D01*
G75*
G02*
X135620000Y-120203000I0J-100000D01*
G01*
X135620000Y-121903000D01*
G75*
G02*
X135520000Y-122003000I-100000J0D01*
G01*
G37*
G36*
G01*
X141875000Y-109500000D02*
X141875000Y-109200000D01*
G75*
G02*
X142025000Y-109050000I150000J0D01*
G01*
X143400000Y-109050000D01*
G75*
G02*
X143550000Y-109200000I0J-150000D01*
G01*
X143550000Y-109500000D01*
G75*
G02*
X143400000Y-109650000I-150000J0D01*
G01*
X142025000Y-109650000D01*
G75*
G02*
X141875000Y-109500000I0J150000D01*
G01*
G37*
G36*
G01*
X141875000Y-108850000D02*
X141875000Y-108550000D01*
G75*
G02*
X142025000Y-108400000I150000J0D01*
G01*
X143400000Y-108400000D01*
G75*
G02*
X143550000Y-108550000I0J-150000D01*
G01*
X143550000Y-108850000D01*
G75*
G02*
X143400000Y-109000000I-150000J0D01*
G01*
X142025000Y-109000000D01*
G75*
G02*
X141875000Y-108850000I0J150000D01*
G01*
G37*
G36*
G01*
X141875000Y-108200000D02*
X141875000Y-107900000D01*
G75*
G02*
X142025000Y-107750000I150000J0D01*
G01*
X143400000Y-107750000D01*
G75*
G02*
X143550000Y-107900000I0J-150000D01*
G01*
X143550000Y-108200000D01*
G75*
G02*
X143400000Y-108350000I-150000J0D01*
G01*
X142025000Y-108350000D01*
G75*
G02*
X141875000Y-108200000I0J150000D01*
G01*
G37*
G36*
G01*
X141875000Y-107550000D02*
X141875000Y-107250000D01*
G75*
G02*
X142025000Y-107100000I150000J0D01*
G01*
X143400000Y-107100000D01*
G75*
G02*
X143550000Y-107250000I0J-150000D01*
G01*
X143550000Y-107550000D01*
G75*
G02*
X143400000Y-107700000I-150000J0D01*
G01*
X142025000Y-107700000D01*
G75*
G02*
X141875000Y-107550000I0J150000D01*
G01*
G37*
G36*
G01*
X141875000Y-106900000D02*
X141875000Y-106600000D01*
G75*
G02*
X142025000Y-106450000I150000J0D01*
G01*
X143400000Y-106450000D01*
G75*
G02*
X143550000Y-106600000I0J-150000D01*
G01*
X143550000Y-106900000D01*
G75*
G02*
X143400000Y-107050000I-150000J0D01*
G01*
X142025000Y-107050000D01*
G75*
G02*
X141875000Y-106900000I0J150000D01*
G01*
G37*
G36*
G01*
X141875000Y-106250000D02*
X141875000Y-105950000D01*
G75*
G02*
X142025000Y-105800000I150000J0D01*
G01*
X143400000Y-105800000D01*
G75*
G02*
X143550000Y-105950000I0J-150000D01*
G01*
X143550000Y-106250000D01*
G75*
G02*
X143400000Y-106400000I-150000J0D01*
G01*
X142025000Y-106400000D01*
G75*
G02*
X141875000Y-106250000I0J150000D01*
G01*
G37*
G36*
G01*
X141875000Y-105600000D02*
X141875000Y-105300000D01*
G75*
G02*
X142025000Y-105150000I150000J0D01*
G01*
X143400000Y-105150000D01*
G75*
G02*
X143550000Y-105300000I0J-150000D01*
G01*
X143550000Y-105600000D01*
G75*
G02*
X143400000Y-105750000I-150000J0D01*
G01*
X142025000Y-105750000D01*
G75*
G02*
X141875000Y-105600000I0J150000D01*
G01*
G37*
G36*
G01*
X141875000Y-104950000D02*
X141875000Y-104650000D01*
G75*
G02*
X142025000Y-104500000I150000J0D01*
G01*
X143400000Y-104500000D01*
G75*
G02*
X143550000Y-104650000I0J-150000D01*
G01*
X143550000Y-104950000D01*
G75*
G02*
X143400000Y-105100000I-150000J0D01*
G01*
X142025000Y-105100000D01*
G75*
G02*
X141875000Y-104950000I0J150000D01*
G01*
G37*
G36*
G01*
X141875000Y-104300000D02*
X141875000Y-104000000D01*
G75*
G02*
X142025000Y-103850000I150000J0D01*
G01*
X143400000Y-103850000D01*
G75*
G02*
X143550000Y-104000000I0J-150000D01*
G01*
X143550000Y-104300000D01*
G75*
G02*
X143400000Y-104450000I-150000J0D01*
G01*
X142025000Y-104450000D01*
G75*
G02*
X141875000Y-104300000I0J150000D01*
G01*
G37*
G36*
G01*
X141875000Y-103650000D02*
X141875000Y-103350000D01*
G75*
G02*
X142025000Y-103200000I150000J0D01*
G01*
X143400000Y-103200000D01*
G75*
G02*
X143550000Y-103350000I0J-150000D01*
G01*
X143550000Y-103650000D01*
G75*
G02*
X143400000Y-103800000I-150000J0D01*
G01*
X142025000Y-103800000D01*
G75*
G02*
X141875000Y-103650000I0J150000D01*
G01*
G37*
G36*
G01*
X141875000Y-103000000D02*
X141875000Y-102700000D01*
G75*
G02*
X142025000Y-102550000I150000J0D01*
G01*
X143400000Y-102550000D01*
G75*
G02*
X143550000Y-102700000I0J-150000D01*
G01*
X143550000Y-103000000D01*
G75*
G02*
X143400000Y-103150000I-150000J0D01*
G01*
X142025000Y-103150000D01*
G75*
G02*
X141875000Y-103000000I0J150000D01*
G01*
G37*
G36*
G01*
X141875000Y-102350000D02*
X141875000Y-102050000D01*
G75*
G02*
X142025000Y-101900000I150000J0D01*
G01*
X143400000Y-101900000D01*
G75*
G02*
X143550000Y-102050000I0J-150000D01*
G01*
X143550000Y-102350000D01*
G75*
G02*
X143400000Y-102500000I-150000J0D01*
G01*
X142025000Y-102500000D01*
G75*
G02*
X141875000Y-102350000I0J150000D01*
G01*
G37*
G36*
G01*
X141875000Y-101700000D02*
X141875000Y-101400000D01*
G75*
G02*
X142025000Y-101250000I150000J0D01*
G01*
X143400000Y-101250000D01*
G75*
G02*
X143550000Y-101400000I0J-150000D01*
G01*
X143550000Y-101700000D01*
G75*
G02*
X143400000Y-101850000I-150000J0D01*
G01*
X142025000Y-101850000D01*
G75*
G02*
X141875000Y-101700000I0J150000D01*
G01*
G37*
G36*
G01*
X141875000Y-101050000D02*
X141875000Y-100750000D01*
G75*
G02*
X142025000Y-100600000I150000J0D01*
G01*
X143400000Y-100600000D01*
G75*
G02*
X143550000Y-100750000I0J-150000D01*
G01*
X143550000Y-101050000D01*
G75*
G02*
X143400000Y-101200000I-150000J0D01*
G01*
X142025000Y-101200000D01*
G75*
G02*
X141875000Y-101050000I0J150000D01*
G01*
G37*
G36*
G01*
X141875000Y-100400000D02*
X141875000Y-100100000D01*
G75*
G02*
X142025000Y-99950000I150000J0D01*
G01*
X143400000Y-99950000D01*
G75*
G02*
X143550000Y-100100000I0J-150000D01*
G01*
X143550000Y-100400000D01*
G75*
G02*
X143400000Y-100550000I-150000J0D01*
G01*
X142025000Y-100550000D01*
G75*
G02*
X141875000Y-100400000I0J150000D01*
G01*
G37*
G36*
G01*
X141875000Y-99750000D02*
X141875000Y-99450000D01*
G75*
G02*
X142025000Y-99300000I150000J0D01*
G01*
X143400000Y-99300000D01*
G75*
G02*
X143550000Y-99450000I0J-150000D01*
G01*
X143550000Y-99750000D01*
G75*
G02*
X143400000Y-99900000I-150000J0D01*
G01*
X142025000Y-99900000D01*
G75*
G02*
X141875000Y-99750000I0J150000D01*
G01*
G37*
G36*
G01*
X141875000Y-99100000D02*
X141875000Y-98800000D01*
G75*
G02*
X142025000Y-98650000I150000J0D01*
G01*
X143400000Y-98650000D01*
G75*
G02*
X143550000Y-98800000I0J-150000D01*
G01*
X143550000Y-99100000D01*
G75*
G02*
X143400000Y-99250000I-150000J0D01*
G01*
X142025000Y-99250000D01*
G75*
G02*
X141875000Y-99100000I0J150000D01*
G01*
G37*
G36*
G01*
X141875000Y-98450000D02*
X141875000Y-98150000D01*
G75*
G02*
X142025000Y-98000000I150000J0D01*
G01*
X143400000Y-98000000D01*
G75*
G02*
X143550000Y-98150000I0J-150000D01*
G01*
X143550000Y-98450000D01*
G75*
G02*
X143400000Y-98600000I-150000J0D01*
G01*
X142025000Y-98600000D01*
G75*
G02*
X141875000Y-98450000I0J150000D01*
G01*
G37*
G36*
G01*
X141875000Y-97800000D02*
X141875000Y-97500000D01*
G75*
G02*
X142025000Y-97350000I150000J0D01*
G01*
X143400000Y-97350000D01*
G75*
G02*
X143550000Y-97500000I0J-150000D01*
G01*
X143550000Y-97800000D01*
G75*
G02*
X143400000Y-97950000I-150000J0D01*
G01*
X142025000Y-97950000D01*
G75*
G02*
X141875000Y-97800000I0J150000D01*
G01*
G37*
G36*
G01*
X134450000Y-97800000D02*
X134450000Y-97500000D01*
G75*
G02*
X134600000Y-97350000I150000J0D01*
G01*
X135975000Y-97350000D01*
G75*
G02*
X136125000Y-97500000I0J-150000D01*
G01*
X136125000Y-97800000D01*
G75*
G02*
X135975000Y-97950000I-150000J0D01*
G01*
X134600000Y-97950000D01*
G75*
G02*
X134450000Y-97800000I0J150000D01*
G01*
G37*
G36*
G01*
X134450000Y-98450000D02*
X134450000Y-98150000D01*
G75*
G02*
X134600000Y-98000000I150000J0D01*
G01*
X135975000Y-98000000D01*
G75*
G02*
X136125000Y-98150000I0J-150000D01*
G01*
X136125000Y-98450000D01*
G75*
G02*
X135975000Y-98600000I-150000J0D01*
G01*
X134600000Y-98600000D01*
G75*
G02*
X134450000Y-98450000I0J150000D01*
G01*
G37*
G36*
G01*
X134450000Y-99100000D02*
X134450000Y-98800000D01*
G75*
G02*
X134600000Y-98650000I150000J0D01*
G01*
X135975000Y-98650000D01*
G75*
G02*
X136125000Y-98800000I0J-150000D01*
G01*
X136125000Y-99100000D01*
G75*
G02*
X135975000Y-99250000I-150000J0D01*
G01*
X134600000Y-99250000D01*
G75*
G02*
X134450000Y-99100000I0J150000D01*
G01*
G37*
G36*
G01*
X134450000Y-99750000D02*
X134450000Y-99450000D01*
G75*
G02*
X134600000Y-99300000I150000J0D01*
G01*
X135975000Y-99300000D01*
G75*
G02*
X136125000Y-99450000I0J-150000D01*
G01*
X136125000Y-99750000D01*
G75*
G02*
X135975000Y-99900000I-150000J0D01*
G01*
X134600000Y-99900000D01*
G75*
G02*
X134450000Y-99750000I0J150000D01*
G01*
G37*
G36*
G01*
X134450000Y-100400000D02*
X134450000Y-100100000D01*
G75*
G02*
X134600000Y-99950000I150000J0D01*
G01*
X135975000Y-99950000D01*
G75*
G02*
X136125000Y-100100000I0J-150000D01*
G01*
X136125000Y-100400000D01*
G75*
G02*
X135975000Y-100550000I-150000J0D01*
G01*
X134600000Y-100550000D01*
G75*
G02*
X134450000Y-100400000I0J150000D01*
G01*
G37*
G36*
G01*
X134450000Y-101050000D02*
X134450000Y-100750000D01*
G75*
G02*
X134600000Y-100600000I150000J0D01*
G01*
X135975000Y-100600000D01*
G75*
G02*
X136125000Y-100750000I0J-150000D01*
G01*
X136125000Y-101050000D01*
G75*
G02*
X135975000Y-101200000I-150000J0D01*
G01*
X134600000Y-101200000D01*
G75*
G02*
X134450000Y-101050000I0J150000D01*
G01*
G37*
G36*
G01*
X134450000Y-101700000D02*
X134450000Y-101400000D01*
G75*
G02*
X134600000Y-101250000I150000J0D01*
G01*
X135975000Y-101250000D01*
G75*
G02*
X136125000Y-101400000I0J-150000D01*
G01*
X136125000Y-101700000D01*
G75*
G02*
X135975000Y-101850000I-150000J0D01*
G01*
X134600000Y-101850000D01*
G75*
G02*
X134450000Y-101700000I0J150000D01*
G01*
G37*
G36*
G01*
X134450000Y-102350000D02*
X134450000Y-102050000D01*
G75*
G02*
X134600000Y-101900000I150000J0D01*
G01*
X135975000Y-101900000D01*
G75*
G02*
X136125000Y-102050000I0J-150000D01*
G01*
X136125000Y-102350000D01*
G75*
G02*
X135975000Y-102500000I-150000J0D01*
G01*
X134600000Y-102500000D01*
G75*
G02*
X134450000Y-102350000I0J150000D01*
G01*
G37*
G36*
G01*
X134450000Y-103000000D02*
X134450000Y-102700000D01*
G75*
G02*
X134600000Y-102550000I150000J0D01*
G01*
X135975000Y-102550000D01*
G75*
G02*
X136125000Y-102700000I0J-150000D01*
G01*
X136125000Y-103000000D01*
G75*
G02*
X135975000Y-103150000I-150000J0D01*
G01*
X134600000Y-103150000D01*
G75*
G02*
X134450000Y-103000000I0J150000D01*
G01*
G37*
G36*
G01*
X134450000Y-103650000D02*
X134450000Y-103350000D01*
G75*
G02*
X134600000Y-103200000I150000J0D01*
G01*
X135975000Y-103200000D01*
G75*
G02*
X136125000Y-103350000I0J-150000D01*
G01*
X136125000Y-103650000D01*
G75*
G02*
X135975000Y-103800000I-150000J0D01*
G01*
X134600000Y-103800000D01*
G75*
G02*
X134450000Y-103650000I0J150000D01*
G01*
G37*
G36*
G01*
X134450000Y-104300000D02*
X134450000Y-104000000D01*
G75*
G02*
X134600000Y-103850000I150000J0D01*
G01*
X135975000Y-103850000D01*
G75*
G02*
X136125000Y-104000000I0J-150000D01*
G01*
X136125000Y-104300000D01*
G75*
G02*
X135975000Y-104450000I-150000J0D01*
G01*
X134600000Y-104450000D01*
G75*
G02*
X134450000Y-104300000I0J150000D01*
G01*
G37*
G36*
G01*
X134450000Y-104950000D02*
X134450000Y-104650000D01*
G75*
G02*
X134600000Y-104500000I150000J0D01*
G01*
X135975000Y-104500000D01*
G75*
G02*
X136125000Y-104650000I0J-150000D01*
G01*
X136125000Y-104950000D01*
G75*
G02*
X135975000Y-105100000I-150000J0D01*
G01*
X134600000Y-105100000D01*
G75*
G02*
X134450000Y-104950000I0J150000D01*
G01*
G37*
G36*
G01*
X134450000Y-105600000D02*
X134450000Y-105300000D01*
G75*
G02*
X134600000Y-105150000I150000J0D01*
G01*
X135975000Y-105150000D01*
G75*
G02*
X136125000Y-105300000I0J-150000D01*
G01*
X136125000Y-105600000D01*
G75*
G02*
X135975000Y-105750000I-150000J0D01*
G01*
X134600000Y-105750000D01*
G75*
G02*
X134450000Y-105600000I0J150000D01*
G01*
G37*
G36*
G01*
X134450000Y-106250000D02*
X134450000Y-105950000D01*
G75*
G02*
X134600000Y-105800000I150000J0D01*
G01*
X135975000Y-105800000D01*
G75*
G02*
X136125000Y-105950000I0J-150000D01*
G01*
X136125000Y-106250000D01*
G75*
G02*
X135975000Y-106400000I-150000J0D01*
G01*
X134600000Y-106400000D01*
G75*
G02*
X134450000Y-106250000I0J150000D01*
G01*
G37*
G36*
G01*
X134450000Y-106900000D02*
X134450000Y-106600000D01*
G75*
G02*
X134600000Y-106450000I150000J0D01*
G01*
X135975000Y-106450000D01*
G75*
G02*
X136125000Y-106600000I0J-150000D01*
G01*
X136125000Y-106900000D01*
G75*
G02*
X135975000Y-107050000I-150000J0D01*
G01*
X134600000Y-107050000D01*
G75*
G02*
X134450000Y-106900000I0J150000D01*
G01*
G37*
G36*
G01*
X134450000Y-107550000D02*
X134450000Y-107250000D01*
G75*
G02*
X134600000Y-107100000I150000J0D01*
G01*
X135975000Y-107100000D01*
G75*
G02*
X136125000Y-107250000I0J-150000D01*
G01*
X136125000Y-107550000D01*
G75*
G02*
X135975000Y-107700000I-150000J0D01*
G01*
X134600000Y-107700000D01*
G75*
G02*
X134450000Y-107550000I0J150000D01*
G01*
G37*
G36*
G01*
X134450000Y-108200000D02*
X134450000Y-107900000D01*
G75*
G02*
X134600000Y-107750000I150000J0D01*
G01*
X135975000Y-107750000D01*
G75*
G02*
X136125000Y-107900000I0J-150000D01*
G01*
X136125000Y-108200000D01*
G75*
G02*
X135975000Y-108350000I-150000J0D01*
G01*
X134600000Y-108350000D01*
G75*
G02*
X134450000Y-108200000I0J150000D01*
G01*
G37*
G36*
G01*
X134450000Y-108850000D02*
X134450000Y-108550000D01*
G75*
G02*
X134600000Y-108400000I150000J0D01*
G01*
X135975000Y-108400000D01*
G75*
G02*
X136125000Y-108550000I0J-150000D01*
G01*
X136125000Y-108850000D01*
G75*
G02*
X135975000Y-109000000I-150000J0D01*
G01*
X134600000Y-109000000D01*
G75*
G02*
X134450000Y-108850000I0J150000D01*
G01*
G37*
G36*
G01*
X134450000Y-109500000D02*
X134450000Y-109200000D01*
G75*
G02*
X134600000Y-109050000I150000J0D01*
G01*
X135975000Y-109050000D01*
G75*
G02*
X136125000Y-109200000I0J-150000D01*
G01*
X136125000Y-109500000D01*
G75*
G02*
X135975000Y-109650000I-150000J0D01*
G01*
X134600000Y-109650000D01*
G75*
G02*
X134450000Y-109500000I0J150000D01*
G01*
G37*
X126530000Y-91050000D03*
X123990000Y-91050000D03*
G36*
G01*
X122300000Y-92000000D02*
X120600000Y-92000000D01*
G75*
G02*
X120500000Y-91900000I0J100000D01*
G01*
X120500000Y-90200000D01*
G75*
G02*
X120600000Y-90100000I100000J0D01*
G01*
X122300000Y-90100000D01*
G75*
G02*
X122400000Y-90200000I0J-100000D01*
G01*
X122400000Y-91900000D01*
G75*
G02*
X122300000Y-92000000I-100000J0D01*
G01*
G37*
D14*
X115940000Y-111190000D03*
X115940000Y-108650000D03*
X115940000Y-106110000D03*
X115940000Y-103570000D03*
X115940000Y-101030000D03*
X115940000Y-98490000D03*
X115940000Y-95950000D03*
X113400000Y-111190000D03*
X113400000Y-108650000D03*
X113400000Y-106110000D03*
X113400000Y-103570000D03*
X113400000Y-101030000D03*
X113400000Y-98490000D03*
G36*
G01*
X112450000Y-96620589D02*
X112450000Y-95279411D01*
G75*
G02*
X112729411Y-95000000I279411J0D01*
G01*
X114070589Y-95000000D01*
G75*
G02*
X114350000Y-95279411I0J-279411D01*
G01*
X114350000Y-96620589D01*
G75*
G02*
X114070589Y-96900000I-279411J0D01*
G01*
X112729411Y-96900000D01*
G75*
G02*
X112450000Y-96620589I0J279411D01*
G01*
G37*
D15*
G36*
X143551165Y-108848374D02*
G01*
X143552000Y-108850000D01*
X143552000Y-108895092D01*
X143551990Y-108895288D01*
X143549595Y-108919609D01*
X143549519Y-108919994D01*
X143543856Y-108938662D01*
X143543706Y-108939024D01*
X143534507Y-108956234D01*
X143534289Y-108956560D01*
X143529203Y-108962758D01*
X143518477Y-108978811D01*
X143511127Y-108996557D01*
X143507379Y-109015401D01*
X143507380Y-109034606D01*
X143511129Y-109053449D01*
X143518480Y-109071195D01*
X143529202Y-109087242D01*
X143534289Y-109093440D01*
X143534507Y-109093766D01*
X143543706Y-109110976D01*
X143543856Y-109111338D01*
X143549519Y-109130006D01*
X143549595Y-109130391D01*
X143551990Y-109154712D01*
X143552000Y-109154908D01*
X143552000Y-109200000D01*
X143551000Y-109201732D01*
X143549000Y-109201732D01*
X143548010Y-109200196D01*
X143545148Y-109171131D01*
X143536725Y-109143366D01*
X143523049Y-109117780D01*
X143504645Y-109095355D01*
X143482220Y-109076951D01*
X143456634Y-109063275D01*
X143428869Y-109054852D01*
X143399906Y-109052000D01*
X142025094Y-109052000D01*
X141996131Y-109054852D01*
X141968366Y-109063275D01*
X141942780Y-109076951D01*
X141920355Y-109095355D01*
X141901951Y-109117780D01*
X141888275Y-109143366D01*
X141879852Y-109171131D01*
X141876990Y-109200196D01*
X141875825Y-109201822D01*
X141873835Y-109201626D01*
X141873000Y-109200000D01*
X141873000Y-109154908D01*
X141873010Y-109154712D01*
X141875405Y-109130391D01*
X141875481Y-109130006D01*
X141881144Y-109111338D01*
X141881294Y-109110976D01*
X141890493Y-109093766D01*
X141890711Y-109093440D01*
X141895797Y-109087242D01*
X141906523Y-109071189D01*
X141913873Y-109053443D01*
X141917621Y-109034599D01*
X141917620Y-109015394D01*
X141913871Y-108996551D01*
X141906520Y-108978805D01*
X141895798Y-108962758D01*
X141890711Y-108956560D01*
X141890493Y-108956234D01*
X141881294Y-108939024D01*
X141881144Y-108938662D01*
X141875481Y-108919994D01*
X141875405Y-108919609D01*
X141873010Y-108895288D01*
X141873000Y-108895092D01*
X141873000Y-108850000D01*
X141874000Y-108848268D01*
X141876000Y-108848268D01*
X141876990Y-108849804D01*
X141879852Y-108878869D01*
X141888275Y-108906634D01*
X141901951Y-108932220D01*
X141920355Y-108954645D01*
X141942780Y-108973049D01*
X141968366Y-108986725D01*
X141996131Y-108995148D01*
X142025094Y-108998000D01*
X143399906Y-108998000D01*
X143428869Y-108995148D01*
X143456634Y-108986725D01*
X143482220Y-108973049D01*
X143504645Y-108954645D01*
X143523049Y-108932220D01*
X143536725Y-108906634D01*
X143545148Y-108878869D01*
X143548010Y-108849804D01*
X143549175Y-108848178D01*
X143551165Y-108848374D01*
G37*
G36*
X136126165Y-108848374D02*
G01*
X136127000Y-108850000D01*
X136127000Y-108895092D01*
X136126990Y-108895288D01*
X136124595Y-108919609D01*
X136124519Y-108919994D01*
X136118856Y-108938662D01*
X136118706Y-108939024D01*
X136109507Y-108956234D01*
X136109289Y-108956560D01*
X136104203Y-108962758D01*
X136093477Y-108978811D01*
X136086127Y-108996557D01*
X136082379Y-109015401D01*
X136082380Y-109034606D01*
X136086129Y-109053449D01*
X136093480Y-109071195D01*
X136104202Y-109087242D01*
X136109289Y-109093440D01*
X136109507Y-109093766D01*
X136118706Y-109110976D01*
X136118856Y-109111338D01*
X136124519Y-109130006D01*
X136124595Y-109130391D01*
X136126990Y-109154712D01*
X136127000Y-109154908D01*
X136127000Y-109200000D01*
X136126000Y-109201732D01*
X136124000Y-109201732D01*
X136123010Y-109200196D01*
X136120148Y-109171131D01*
X136111725Y-109143366D01*
X136098049Y-109117780D01*
X136079645Y-109095355D01*
X136057220Y-109076951D01*
X136031634Y-109063275D01*
X136003869Y-109054852D01*
X135974906Y-109052000D01*
X134600094Y-109052000D01*
X134571131Y-109054852D01*
X134543366Y-109063275D01*
X134517780Y-109076951D01*
X134495355Y-109095355D01*
X134476951Y-109117780D01*
X134463275Y-109143366D01*
X134454852Y-109171131D01*
X134451990Y-109200196D01*
X134450825Y-109201822D01*
X134448835Y-109201626D01*
X134448000Y-109200000D01*
X134448000Y-109154908D01*
X134448010Y-109154712D01*
X134450405Y-109130391D01*
X134450481Y-109130006D01*
X134456144Y-109111338D01*
X134456294Y-109110976D01*
X134465493Y-109093766D01*
X134465711Y-109093440D01*
X134470797Y-109087242D01*
X134481523Y-109071189D01*
X134488873Y-109053443D01*
X134492621Y-109034599D01*
X134492620Y-109015394D01*
X134488871Y-108996551D01*
X134481520Y-108978805D01*
X134470798Y-108962758D01*
X134465711Y-108956560D01*
X134465493Y-108956234D01*
X134456294Y-108939024D01*
X134456144Y-108938662D01*
X134450481Y-108919994D01*
X134450405Y-108919609D01*
X134448010Y-108895288D01*
X134448000Y-108895092D01*
X134448000Y-108850000D01*
X134449000Y-108848268D01*
X134451000Y-108848268D01*
X134451990Y-108849804D01*
X134454852Y-108878869D01*
X134463275Y-108906634D01*
X134476951Y-108932220D01*
X134495355Y-108954645D01*
X134517780Y-108973049D01*
X134543366Y-108986725D01*
X134571131Y-108995148D01*
X134600094Y-108998000D01*
X135974906Y-108998000D01*
X136003869Y-108995148D01*
X136031634Y-108986725D01*
X136057220Y-108973049D01*
X136079645Y-108954645D01*
X136098049Y-108932220D01*
X136111725Y-108906634D01*
X136120148Y-108878869D01*
X136123010Y-108849804D01*
X136124175Y-108848178D01*
X136126165Y-108848374D01*
G37*
G36*
X143551165Y-108198374D02*
G01*
X143552000Y-108200000D01*
X143552000Y-108245092D01*
X143551990Y-108245288D01*
X143549595Y-108269609D01*
X143549519Y-108269994D01*
X143543856Y-108288662D01*
X143543706Y-108289024D01*
X143534507Y-108306234D01*
X143534289Y-108306560D01*
X143529203Y-108312758D01*
X143518477Y-108328811D01*
X143511127Y-108346557D01*
X143507379Y-108365401D01*
X143507380Y-108384606D01*
X143511129Y-108403449D01*
X143518480Y-108421195D01*
X143529202Y-108437242D01*
X143534289Y-108443440D01*
X143534507Y-108443766D01*
X143543706Y-108460976D01*
X143543856Y-108461338D01*
X143549519Y-108480006D01*
X143549595Y-108480391D01*
X143551990Y-108504712D01*
X143552000Y-108504908D01*
X143552000Y-108550000D01*
X143551000Y-108551732D01*
X143549000Y-108551732D01*
X143548010Y-108550196D01*
X143545148Y-108521131D01*
X143536725Y-108493366D01*
X143523049Y-108467780D01*
X143504645Y-108445355D01*
X143482220Y-108426951D01*
X143456634Y-108413275D01*
X143428869Y-108404852D01*
X143399906Y-108402000D01*
X142025094Y-108402000D01*
X141996131Y-108404852D01*
X141968366Y-108413275D01*
X141942780Y-108426951D01*
X141920355Y-108445355D01*
X141901951Y-108467780D01*
X141888275Y-108493366D01*
X141879852Y-108521131D01*
X141876990Y-108550196D01*
X141875825Y-108551822D01*
X141873835Y-108551626D01*
X141873000Y-108550000D01*
X141873000Y-108504908D01*
X141873010Y-108504712D01*
X141875405Y-108480391D01*
X141875481Y-108480006D01*
X141881144Y-108461338D01*
X141881294Y-108460976D01*
X141890493Y-108443766D01*
X141890711Y-108443440D01*
X141895797Y-108437242D01*
X141906523Y-108421189D01*
X141913873Y-108403443D01*
X141917621Y-108384599D01*
X141917620Y-108365394D01*
X141913871Y-108346551D01*
X141906520Y-108328805D01*
X141895798Y-108312758D01*
X141890711Y-108306560D01*
X141890493Y-108306234D01*
X141881294Y-108289024D01*
X141881144Y-108288662D01*
X141875481Y-108269994D01*
X141875405Y-108269609D01*
X141873010Y-108245288D01*
X141873000Y-108245092D01*
X141873000Y-108200000D01*
X141874000Y-108198268D01*
X141876000Y-108198268D01*
X141876990Y-108199804D01*
X141879852Y-108228869D01*
X141888275Y-108256634D01*
X141901951Y-108282220D01*
X141920355Y-108304645D01*
X141942780Y-108323049D01*
X141968366Y-108336725D01*
X141996131Y-108345148D01*
X142025094Y-108348000D01*
X143399906Y-108348000D01*
X143428869Y-108345148D01*
X143456634Y-108336725D01*
X143482220Y-108323049D01*
X143504645Y-108304645D01*
X143523049Y-108282220D01*
X143536725Y-108256634D01*
X143545148Y-108228869D01*
X143548010Y-108199804D01*
X143549175Y-108198178D01*
X143551165Y-108198374D01*
G37*
G36*
X136126165Y-108198374D02*
G01*
X136127000Y-108200000D01*
X136127000Y-108245092D01*
X136126990Y-108245288D01*
X136124595Y-108269609D01*
X136124519Y-108269994D01*
X136118856Y-108288662D01*
X136118706Y-108289024D01*
X136109507Y-108306234D01*
X136109289Y-108306560D01*
X136104203Y-108312758D01*
X136093477Y-108328811D01*
X136086127Y-108346557D01*
X136082379Y-108365401D01*
X136082380Y-108384606D01*
X136086129Y-108403449D01*
X136093480Y-108421195D01*
X136104202Y-108437242D01*
X136109289Y-108443440D01*
X136109507Y-108443766D01*
X136118706Y-108460976D01*
X136118856Y-108461338D01*
X136124519Y-108480006D01*
X136124595Y-108480391D01*
X136126990Y-108504712D01*
X136127000Y-108504908D01*
X136127000Y-108550000D01*
X136126000Y-108551732D01*
X136124000Y-108551732D01*
X136123010Y-108550196D01*
X136120148Y-108521131D01*
X136111725Y-108493366D01*
X136098049Y-108467780D01*
X136079645Y-108445355D01*
X136057220Y-108426951D01*
X136031634Y-108413275D01*
X136003869Y-108404852D01*
X135974906Y-108402000D01*
X134600094Y-108402000D01*
X134571131Y-108404852D01*
X134543366Y-108413275D01*
X134517780Y-108426951D01*
X134495355Y-108445355D01*
X134476951Y-108467780D01*
X134463275Y-108493366D01*
X134454852Y-108521131D01*
X134451990Y-108550196D01*
X134450825Y-108551822D01*
X134448835Y-108551626D01*
X134448000Y-108550000D01*
X134448000Y-108504908D01*
X134448010Y-108504712D01*
X134450405Y-108480391D01*
X134450481Y-108480006D01*
X134456144Y-108461338D01*
X134456294Y-108460976D01*
X134465493Y-108443766D01*
X134465711Y-108443440D01*
X134470797Y-108437242D01*
X134481523Y-108421189D01*
X134488873Y-108403443D01*
X134492621Y-108384599D01*
X134492620Y-108365394D01*
X134488871Y-108346551D01*
X134481520Y-108328805D01*
X134470798Y-108312758D01*
X134465711Y-108306560D01*
X134465493Y-108306234D01*
X134456294Y-108289024D01*
X134456144Y-108288662D01*
X134450481Y-108269994D01*
X134450405Y-108269609D01*
X134448010Y-108245288D01*
X134448000Y-108245092D01*
X134448000Y-108200000D01*
X134449000Y-108198268D01*
X134451000Y-108198268D01*
X134451990Y-108199804D01*
X134454852Y-108228869D01*
X134463275Y-108256634D01*
X134476951Y-108282220D01*
X134495355Y-108304645D01*
X134517780Y-108323049D01*
X134543366Y-108336725D01*
X134571131Y-108345148D01*
X134600094Y-108348000D01*
X135974906Y-108348000D01*
X136003869Y-108345148D01*
X136031634Y-108336725D01*
X136057220Y-108323049D01*
X136079645Y-108304645D01*
X136098049Y-108282220D01*
X136111725Y-108256634D01*
X136120148Y-108228869D01*
X136123010Y-108199804D01*
X136124175Y-108198178D01*
X136126165Y-108198374D01*
G37*
G36*
X136126165Y-107548374D02*
G01*
X136127000Y-107550000D01*
X136127000Y-107595092D01*
X136126990Y-107595288D01*
X136124595Y-107619609D01*
X136124519Y-107619994D01*
X136118856Y-107638662D01*
X136118706Y-107639024D01*
X136109507Y-107656234D01*
X136109289Y-107656560D01*
X136104203Y-107662758D01*
X136093477Y-107678811D01*
X136086127Y-107696557D01*
X136082379Y-107715401D01*
X136082380Y-107734606D01*
X136086129Y-107753449D01*
X136093480Y-107771195D01*
X136104202Y-107787242D01*
X136109289Y-107793440D01*
X136109507Y-107793766D01*
X136118706Y-107810976D01*
X136118856Y-107811338D01*
X136124519Y-107830006D01*
X136124595Y-107830391D01*
X136126990Y-107854712D01*
X136127000Y-107854908D01*
X136127000Y-107900000D01*
X136126000Y-107901732D01*
X136124000Y-107901732D01*
X136123010Y-107900196D01*
X136120148Y-107871131D01*
X136111725Y-107843366D01*
X136098049Y-107817780D01*
X136079645Y-107795355D01*
X136057220Y-107776951D01*
X136031634Y-107763275D01*
X136003869Y-107754852D01*
X135974906Y-107752000D01*
X134600094Y-107752000D01*
X134571131Y-107754852D01*
X134543366Y-107763275D01*
X134517780Y-107776951D01*
X134495355Y-107795355D01*
X134476951Y-107817780D01*
X134463275Y-107843366D01*
X134454852Y-107871131D01*
X134451990Y-107900196D01*
X134450825Y-107901822D01*
X134448835Y-107901626D01*
X134448000Y-107900000D01*
X134448000Y-107854908D01*
X134448010Y-107854712D01*
X134450405Y-107830391D01*
X134450481Y-107830006D01*
X134456144Y-107811338D01*
X134456294Y-107810976D01*
X134465493Y-107793766D01*
X134465711Y-107793440D01*
X134470797Y-107787242D01*
X134481523Y-107771189D01*
X134488873Y-107753443D01*
X134492621Y-107734599D01*
X134492620Y-107715394D01*
X134488871Y-107696551D01*
X134481520Y-107678805D01*
X134470798Y-107662758D01*
X134465711Y-107656560D01*
X134465493Y-107656234D01*
X134456294Y-107639024D01*
X134456144Y-107638662D01*
X134450481Y-107619994D01*
X134450405Y-107619609D01*
X134448010Y-107595288D01*
X134448000Y-107595092D01*
X134448000Y-107550000D01*
X134449000Y-107548268D01*
X134451000Y-107548268D01*
X134451990Y-107549804D01*
X134454852Y-107578869D01*
X134463275Y-107606634D01*
X134476951Y-107632220D01*
X134495355Y-107654645D01*
X134517780Y-107673049D01*
X134543366Y-107686725D01*
X134571131Y-107695148D01*
X134600094Y-107698000D01*
X135974906Y-107698000D01*
X136003869Y-107695148D01*
X136031634Y-107686725D01*
X136057220Y-107673049D01*
X136079645Y-107654645D01*
X136098049Y-107632220D01*
X136111725Y-107606634D01*
X136120148Y-107578869D01*
X136123010Y-107549804D01*
X136124175Y-107548178D01*
X136126165Y-107548374D01*
G37*
G36*
X143551165Y-107548374D02*
G01*
X143552000Y-107550000D01*
X143552000Y-107595092D01*
X143551990Y-107595288D01*
X143549595Y-107619609D01*
X143549519Y-107619994D01*
X143543856Y-107638662D01*
X143543706Y-107639024D01*
X143534507Y-107656234D01*
X143534289Y-107656560D01*
X143529203Y-107662758D01*
X143518477Y-107678811D01*
X143511127Y-107696557D01*
X143507379Y-107715401D01*
X143507380Y-107734606D01*
X143511129Y-107753449D01*
X143518480Y-107771195D01*
X143529202Y-107787242D01*
X143534289Y-107793440D01*
X143534507Y-107793766D01*
X143543706Y-107810976D01*
X143543856Y-107811338D01*
X143549519Y-107830006D01*
X143549595Y-107830391D01*
X143551990Y-107854712D01*
X143552000Y-107854908D01*
X143552000Y-107900000D01*
X143551000Y-107901732D01*
X143549000Y-107901732D01*
X143548010Y-107900196D01*
X143545148Y-107871131D01*
X143536725Y-107843366D01*
X143523049Y-107817780D01*
X143504645Y-107795355D01*
X143482220Y-107776951D01*
X143456634Y-107763275D01*
X143428869Y-107754852D01*
X143399906Y-107752000D01*
X142025094Y-107752000D01*
X141996131Y-107754852D01*
X141968366Y-107763275D01*
X141942780Y-107776951D01*
X141920355Y-107795355D01*
X141901951Y-107817780D01*
X141888275Y-107843366D01*
X141879852Y-107871131D01*
X141876990Y-107900196D01*
X141875825Y-107901822D01*
X141873835Y-107901626D01*
X141873000Y-107900000D01*
X141873000Y-107854908D01*
X141873010Y-107854712D01*
X141875405Y-107830391D01*
X141875481Y-107830006D01*
X141881144Y-107811338D01*
X141881294Y-107810976D01*
X141890493Y-107793766D01*
X141890711Y-107793440D01*
X141895797Y-107787242D01*
X141906523Y-107771189D01*
X141913873Y-107753443D01*
X141917621Y-107734599D01*
X141917620Y-107715394D01*
X141913871Y-107696551D01*
X141906520Y-107678805D01*
X141895798Y-107662758D01*
X141890711Y-107656560D01*
X141890493Y-107656234D01*
X141881294Y-107639024D01*
X141881144Y-107638662D01*
X141875481Y-107619994D01*
X141875405Y-107619609D01*
X141873010Y-107595288D01*
X141873000Y-107595092D01*
X141873000Y-107550000D01*
X141874000Y-107548268D01*
X141876000Y-107548268D01*
X141876990Y-107549804D01*
X141879852Y-107578869D01*
X141888275Y-107606634D01*
X141901951Y-107632220D01*
X141920355Y-107654645D01*
X141942780Y-107673049D01*
X141968366Y-107686725D01*
X141996131Y-107695148D01*
X142025094Y-107698000D01*
X143399906Y-107698000D01*
X143428869Y-107695148D01*
X143456634Y-107686725D01*
X143482220Y-107673049D01*
X143504645Y-107654645D01*
X143523049Y-107632220D01*
X143536725Y-107606634D01*
X143545148Y-107578869D01*
X143548010Y-107549804D01*
X143549175Y-107548178D01*
X143551165Y-107548374D01*
G37*
G36*
X143551165Y-106898374D02*
G01*
X143552000Y-106900000D01*
X143552000Y-106945092D01*
X143551990Y-106945288D01*
X143549595Y-106969609D01*
X143549519Y-106969994D01*
X143543856Y-106988662D01*
X143543706Y-106989024D01*
X143534507Y-107006234D01*
X143534289Y-107006560D01*
X143529203Y-107012758D01*
X143518477Y-107028811D01*
X143511127Y-107046557D01*
X143507379Y-107065401D01*
X143507380Y-107084606D01*
X143511129Y-107103449D01*
X143518480Y-107121195D01*
X143529202Y-107137242D01*
X143534289Y-107143440D01*
X143534507Y-107143766D01*
X143543706Y-107160976D01*
X143543856Y-107161338D01*
X143549519Y-107180006D01*
X143549595Y-107180391D01*
X143551990Y-107204712D01*
X143552000Y-107204908D01*
X143552000Y-107250000D01*
X143551000Y-107251732D01*
X143549000Y-107251732D01*
X143548010Y-107250196D01*
X143545148Y-107221131D01*
X143536725Y-107193366D01*
X143523049Y-107167780D01*
X143504645Y-107145355D01*
X143482220Y-107126951D01*
X143456634Y-107113275D01*
X143428869Y-107104852D01*
X143399906Y-107102000D01*
X142025094Y-107102000D01*
X141996131Y-107104852D01*
X141968366Y-107113275D01*
X141942780Y-107126951D01*
X141920355Y-107145355D01*
X141901951Y-107167780D01*
X141888275Y-107193366D01*
X141879852Y-107221131D01*
X141876990Y-107250196D01*
X141875825Y-107251822D01*
X141873835Y-107251626D01*
X141873000Y-107250000D01*
X141873000Y-107204908D01*
X141873010Y-107204712D01*
X141875405Y-107180391D01*
X141875481Y-107180006D01*
X141881144Y-107161338D01*
X141881294Y-107160976D01*
X141890493Y-107143766D01*
X141890711Y-107143440D01*
X141895797Y-107137242D01*
X141906523Y-107121189D01*
X141913873Y-107103443D01*
X141917621Y-107084599D01*
X141917620Y-107065394D01*
X141913871Y-107046551D01*
X141906520Y-107028805D01*
X141895798Y-107012758D01*
X141890711Y-107006560D01*
X141890493Y-107006234D01*
X141881294Y-106989024D01*
X141881144Y-106988662D01*
X141875481Y-106969994D01*
X141875405Y-106969609D01*
X141873010Y-106945288D01*
X141873000Y-106945092D01*
X141873000Y-106900000D01*
X141874000Y-106898268D01*
X141876000Y-106898268D01*
X141876990Y-106899804D01*
X141879852Y-106928869D01*
X141888275Y-106956634D01*
X141901951Y-106982220D01*
X141920355Y-107004645D01*
X141942780Y-107023049D01*
X141968366Y-107036725D01*
X141996131Y-107045148D01*
X142025094Y-107048000D01*
X143399906Y-107048000D01*
X143428869Y-107045148D01*
X143456634Y-107036725D01*
X143482220Y-107023049D01*
X143504645Y-107004645D01*
X143523049Y-106982220D01*
X143536725Y-106956634D01*
X143545148Y-106928869D01*
X143548010Y-106899804D01*
X143549175Y-106898178D01*
X143551165Y-106898374D01*
G37*
G36*
X136126165Y-106898374D02*
G01*
X136127000Y-106900000D01*
X136127000Y-106945092D01*
X136126990Y-106945288D01*
X136124595Y-106969609D01*
X136124519Y-106969994D01*
X136118856Y-106988662D01*
X136118706Y-106989024D01*
X136109507Y-107006234D01*
X136109289Y-107006560D01*
X136104203Y-107012758D01*
X136093477Y-107028811D01*
X136086127Y-107046557D01*
X136082379Y-107065401D01*
X136082380Y-107084606D01*
X136086129Y-107103449D01*
X136093480Y-107121195D01*
X136104202Y-107137242D01*
X136109289Y-107143440D01*
X136109507Y-107143766D01*
X136118706Y-107160976D01*
X136118856Y-107161338D01*
X136124519Y-107180006D01*
X136124595Y-107180391D01*
X136126990Y-107204712D01*
X136127000Y-107204908D01*
X136127000Y-107250000D01*
X136126000Y-107251732D01*
X136124000Y-107251732D01*
X136123010Y-107250196D01*
X136120148Y-107221131D01*
X136111725Y-107193366D01*
X136098049Y-107167780D01*
X136079645Y-107145355D01*
X136057220Y-107126951D01*
X136031634Y-107113275D01*
X136003869Y-107104852D01*
X135974906Y-107102000D01*
X134600094Y-107102000D01*
X134571131Y-107104852D01*
X134543366Y-107113275D01*
X134517780Y-107126951D01*
X134495355Y-107145355D01*
X134476951Y-107167780D01*
X134463275Y-107193366D01*
X134454852Y-107221131D01*
X134451990Y-107250196D01*
X134450825Y-107251822D01*
X134448835Y-107251626D01*
X134448000Y-107250000D01*
X134448000Y-107204908D01*
X134448010Y-107204712D01*
X134450405Y-107180391D01*
X134450481Y-107180006D01*
X134456144Y-107161338D01*
X134456294Y-107160976D01*
X134465493Y-107143766D01*
X134465711Y-107143440D01*
X134470797Y-107137242D01*
X134481523Y-107121189D01*
X134488873Y-107103443D01*
X134492621Y-107084599D01*
X134492620Y-107065394D01*
X134488871Y-107046551D01*
X134481520Y-107028805D01*
X134470798Y-107012758D01*
X134465711Y-107006560D01*
X134465493Y-107006234D01*
X134456294Y-106989024D01*
X134456144Y-106988662D01*
X134450481Y-106969994D01*
X134450405Y-106969609D01*
X134448010Y-106945288D01*
X134448000Y-106945092D01*
X134448000Y-106900000D01*
X134449000Y-106898268D01*
X134451000Y-106898268D01*
X134451990Y-106899804D01*
X134454852Y-106928869D01*
X134463275Y-106956634D01*
X134476951Y-106982220D01*
X134495355Y-107004645D01*
X134517780Y-107023049D01*
X134543366Y-107036725D01*
X134571131Y-107045148D01*
X134600094Y-107048000D01*
X135974906Y-107048000D01*
X136003869Y-107045148D01*
X136031634Y-107036725D01*
X136057220Y-107023049D01*
X136079645Y-107004645D01*
X136098049Y-106982220D01*
X136111725Y-106956634D01*
X136120148Y-106928869D01*
X136123010Y-106899804D01*
X136124175Y-106898178D01*
X136126165Y-106898374D01*
G37*
G36*
X136126165Y-106248374D02*
G01*
X136127000Y-106250000D01*
X136127000Y-106295092D01*
X136126990Y-106295288D01*
X136124595Y-106319609D01*
X136124519Y-106319994D01*
X136118856Y-106338662D01*
X136118706Y-106339024D01*
X136109507Y-106356234D01*
X136109289Y-106356560D01*
X136104203Y-106362758D01*
X136093477Y-106378811D01*
X136086127Y-106396557D01*
X136082379Y-106415401D01*
X136082380Y-106434606D01*
X136086129Y-106453449D01*
X136093480Y-106471195D01*
X136104202Y-106487242D01*
X136109289Y-106493440D01*
X136109507Y-106493766D01*
X136118706Y-106510976D01*
X136118856Y-106511338D01*
X136124519Y-106530006D01*
X136124595Y-106530391D01*
X136126990Y-106554712D01*
X136127000Y-106554908D01*
X136127000Y-106600000D01*
X136126000Y-106601732D01*
X136124000Y-106601732D01*
X136123010Y-106600196D01*
X136120148Y-106571131D01*
X136111725Y-106543366D01*
X136098049Y-106517780D01*
X136079645Y-106495355D01*
X136057220Y-106476951D01*
X136031634Y-106463275D01*
X136003869Y-106454852D01*
X135974906Y-106452000D01*
X134600094Y-106452000D01*
X134571131Y-106454852D01*
X134543366Y-106463275D01*
X134517780Y-106476951D01*
X134495355Y-106495355D01*
X134476951Y-106517780D01*
X134463275Y-106543366D01*
X134454852Y-106571131D01*
X134451990Y-106600196D01*
X134450825Y-106601822D01*
X134448835Y-106601626D01*
X134448000Y-106600000D01*
X134448000Y-106554908D01*
X134448010Y-106554712D01*
X134450405Y-106530391D01*
X134450481Y-106530006D01*
X134456144Y-106511338D01*
X134456294Y-106510976D01*
X134465493Y-106493766D01*
X134465711Y-106493440D01*
X134470797Y-106487242D01*
X134481523Y-106471189D01*
X134488873Y-106453443D01*
X134492621Y-106434599D01*
X134492620Y-106415394D01*
X134488871Y-106396551D01*
X134481520Y-106378805D01*
X134470798Y-106362758D01*
X134465711Y-106356560D01*
X134465493Y-106356234D01*
X134456294Y-106339024D01*
X134456144Y-106338662D01*
X134450481Y-106319994D01*
X134450405Y-106319609D01*
X134448010Y-106295288D01*
X134448000Y-106295092D01*
X134448000Y-106250000D01*
X134449000Y-106248268D01*
X134451000Y-106248268D01*
X134451990Y-106249804D01*
X134454852Y-106278869D01*
X134463275Y-106306634D01*
X134476951Y-106332220D01*
X134495355Y-106354645D01*
X134517780Y-106373049D01*
X134543366Y-106386725D01*
X134571131Y-106395148D01*
X134600094Y-106398000D01*
X135974906Y-106398000D01*
X136003869Y-106395148D01*
X136031634Y-106386725D01*
X136057220Y-106373049D01*
X136079645Y-106354645D01*
X136098049Y-106332220D01*
X136111725Y-106306634D01*
X136120148Y-106278869D01*
X136123010Y-106249804D01*
X136124175Y-106248178D01*
X136126165Y-106248374D01*
G37*
G36*
X143551165Y-106248374D02*
G01*
X143552000Y-106250000D01*
X143552000Y-106295092D01*
X143551990Y-106295288D01*
X143549595Y-106319609D01*
X143549519Y-106319994D01*
X143543856Y-106338662D01*
X143543706Y-106339024D01*
X143534507Y-106356234D01*
X143534289Y-106356560D01*
X143529203Y-106362758D01*
X143518477Y-106378811D01*
X143511127Y-106396557D01*
X143507379Y-106415401D01*
X143507380Y-106434606D01*
X143511129Y-106453449D01*
X143518480Y-106471195D01*
X143529202Y-106487242D01*
X143534289Y-106493440D01*
X143534507Y-106493766D01*
X143543706Y-106510976D01*
X143543856Y-106511338D01*
X143549519Y-106530006D01*
X143549595Y-106530391D01*
X143551990Y-106554712D01*
X143552000Y-106554908D01*
X143552000Y-106600000D01*
X143551000Y-106601732D01*
X143549000Y-106601732D01*
X143548010Y-106600196D01*
X143545148Y-106571131D01*
X143536725Y-106543366D01*
X143523049Y-106517780D01*
X143504645Y-106495355D01*
X143482220Y-106476951D01*
X143456634Y-106463275D01*
X143428869Y-106454852D01*
X143399906Y-106452000D01*
X142025094Y-106452000D01*
X141996131Y-106454852D01*
X141968366Y-106463275D01*
X141942780Y-106476951D01*
X141920355Y-106495355D01*
X141901951Y-106517780D01*
X141888275Y-106543366D01*
X141879852Y-106571131D01*
X141876990Y-106600196D01*
X141875825Y-106601822D01*
X141873835Y-106601626D01*
X141873000Y-106600000D01*
X141873000Y-106554908D01*
X141873010Y-106554712D01*
X141875405Y-106530391D01*
X141875481Y-106530006D01*
X141881144Y-106511338D01*
X141881294Y-106510976D01*
X141890493Y-106493766D01*
X141890711Y-106493440D01*
X141895797Y-106487242D01*
X141906523Y-106471189D01*
X141913873Y-106453443D01*
X141917621Y-106434599D01*
X141917620Y-106415394D01*
X141913871Y-106396551D01*
X141906520Y-106378805D01*
X141895798Y-106362758D01*
X141890711Y-106356560D01*
X141890493Y-106356234D01*
X141881294Y-106339024D01*
X141881144Y-106338662D01*
X141875481Y-106319994D01*
X141875405Y-106319609D01*
X141873010Y-106295288D01*
X141873000Y-106295092D01*
X141873000Y-106250000D01*
X141874000Y-106248268D01*
X141876000Y-106248268D01*
X141876990Y-106249804D01*
X141879852Y-106278869D01*
X141888275Y-106306634D01*
X141901951Y-106332220D01*
X141920355Y-106354645D01*
X141942780Y-106373049D01*
X141968366Y-106386725D01*
X141996131Y-106395148D01*
X142025094Y-106398000D01*
X143399906Y-106398000D01*
X143428869Y-106395148D01*
X143456634Y-106386725D01*
X143482220Y-106373049D01*
X143504645Y-106354645D01*
X143523049Y-106332220D01*
X143536725Y-106306634D01*
X143545148Y-106278869D01*
X143548010Y-106249804D01*
X143549175Y-106248178D01*
X143551165Y-106248374D01*
G37*
G36*
X136126165Y-105598374D02*
G01*
X136127000Y-105600000D01*
X136127000Y-105645092D01*
X136126990Y-105645288D01*
X136124595Y-105669609D01*
X136124519Y-105669994D01*
X136118856Y-105688662D01*
X136118706Y-105689024D01*
X136109507Y-105706234D01*
X136109289Y-105706560D01*
X136104203Y-105712758D01*
X136093477Y-105728811D01*
X136086127Y-105746557D01*
X136082379Y-105765401D01*
X136082380Y-105784606D01*
X136086129Y-105803449D01*
X136093480Y-105821195D01*
X136104202Y-105837242D01*
X136109289Y-105843440D01*
X136109507Y-105843766D01*
X136118706Y-105860976D01*
X136118856Y-105861338D01*
X136124519Y-105880006D01*
X136124595Y-105880391D01*
X136126990Y-105904712D01*
X136127000Y-105904908D01*
X136127000Y-105950000D01*
X136126000Y-105951732D01*
X136124000Y-105951732D01*
X136123010Y-105950196D01*
X136120148Y-105921131D01*
X136111725Y-105893366D01*
X136098049Y-105867780D01*
X136079645Y-105845355D01*
X136057220Y-105826951D01*
X136031634Y-105813275D01*
X136003869Y-105804852D01*
X135974906Y-105802000D01*
X134600094Y-105802000D01*
X134571131Y-105804852D01*
X134543366Y-105813275D01*
X134517780Y-105826951D01*
X134495355Y-105845355D01*
X134476951Y-105867780D01*
X134463275Y-105893366D01*
X134454852Y-105921131D01*
X134451990Y-105950196D01*
X134450825Y-105951822D01*
X134448835Y-105951626D01*
X134448000Y-105950000D01*
X134448000Y-105904908D01*
X134448010Y-105904712D01*
X134450405Y-105880391D01*
X134450481Y-105880006D01*
X134456144Y-105861338D01*
X134456294Y-105860976D01*
X134465493Y-105843766D01*
X134465711Y-105843440D01*
X134470797Y-105837242D01*
X134481523Y-105821189D01*
X134488873Y-105803443D01*
X134492621Y-105784599D01*
X134492620Y-105765394D01*
X134488871Y-105746551D01*
X134481520Y-105728805D01*
X134470798Y-105712758D01*
X134465711Y-105706560D01*
X134465493Y-105706234D01*
X134456294Y-105689024D01*
X134456144Y-105688662D01*
X134450481Y-105669994D01*
X134450405Y-105669609D01*
X134448010Y-105645288D01*
X134448000Y-105645092D01*
X134448000Y-105600000D01*
X134449000Y-105598268D01*
X134451000Y-105598268D01*
X134451990Y-105599804D01*
X134454852Y-105628869D01*
X134463275Y-105656634D01*
X134476951Y-105682220D01*
X134495355Y-105704645D01*
X134517780Y-105723049D01*
X134543366Y-105736725D01*
X134571131Y-105745148D01*
X134600094Y-105748000D01*
X135974906Y-105748000D01*
X136003869Y-105745148D01*
X136031634Y-105736725D01*
X136057220Y-105723049D01*
X136079645Y-105704645D01*
X136098049Y-105682220D01*
X136111725Y-105656634D01*
X136120148Y-105628869D01*
X136123010Y-105599804D01*
X136124175Y-105598178D01*
X136126165Y-105598374D01*
G37*
G36*
X143551165Y-105598374D02*
G01*
X143552000Y-105600000D01*
X143552000Y-105645092D01*
X143551990Y-105645288D01*
X143549595Y-105669609D01*
X143549519Y-105669994D01*
X143543856Y-105688662D01*
X143543706Y-105689024D01*
X143534507Y-105706234D01*
X143534289Y-105706560D01*
X143529203Y-105712758D01*
X143518477Y-105728811D01*
X143511127Y-105746557D01*
X143507379Y-105765401D01*
X143507380Y-105784606D01*
X143511129Y-105803449D01*
X143518480Y-105821195D01*
X143529202Y-105837242D01*
X143534289Y-105843440D01*
X143534507Y-105843766D01*
X143543706Y-105860976D01*
X143543856Y-105861338D01*
X143549519Y-105880006D01*
X143549595Y-105880391D01*
X143551990Y-105904712D01*
X143552000Y-105904908D01*
X143552000Y-105950000D01*
X143551000Y-105951732D01*
X143549000Y-105951732D01*
X143548010Y-105950196D01*
X143545148Y-105921131D01*
X143536725Y-105893366D01*
X143523049Y-105867780D01*
X143504645Y-105845355D01*
X143482220Y-105826951D01*
X143456634Y-105813275D01*
X143428869Y-105804852D01*
X143399906Y-105802000D01*
X142025094Y-105802000D01*
X141996131Y-105804852D01*
X141968366Y-105813275D01*
X141942780Y-105826951D01*
X141920355Y-105845355D01*
X141901951Y-105867780D01*
X141888275Y-105893366D01*
X141879852Y-105921131D01*
X141876990Y-105950196D01*
X141875825Y-105951822D01*
X141873835Y-105951626D01*
X141873000Y-105950000D01*
X141873000Y-105904908D01*
X141873010Y-105904712D01*
X141875405Y-105880391D01*
X141875481Y-105880006D01*
X141881144Y-105861338D01*
X141881294Y-105860976D01*
X141890493Y-105843766D01*
X141890711Y-105843440D01*
X141895797Y-105837242D01*
X141906523Y-105821189D01*
X141913873Y-105803443D01*
X141917621Y-105784599D01*
X141917620Y-105765394D01*
X141913871Y-105746551D01*
X141906520Y-105728805D01*
X141895798Y-105712758D01*
X141890711Y-105706560D01*
X141890493Y-105706234D01*
X141881294Y-105689024D01*
X141881144Y-105688662D01*
X141875481Y-105669994D01*
X141875405Y-105669609D01*
X141873010Y-105645288D01*
X141873000Y-105645092D01*
X141873000Y-105600000D01*
X141874000Y-105598268D01*
X141876000Y-105598268D01*
X141876990Y-105599804D01*
X141879852Y-105628869D01*
X141888275Y-105656634D01*
X141901951Y-105682220D01*
X141920355Y-105704645D01*
X141942780Y-105723049D01*
X141968366Y-105736725D01*
X141996131Y-105745148D01*
X142025094Y-105748000D01*
X143399906Y-105748000D01*
X143428869Y-105745148D01*
X143456634Y-105736725D01*
X143482220Y-105723049D01*
X143504645Y-105704645D01*
X143523049Y-105682220D01*
X143536725Y-105656634D01*
X143545148Y-105628869D01*
X143548010Y-105599804D01*
X143549175Y-105598178D01*
X143551165Y-105598374D01*
G37*
G36*
X143551165Y-104948374D02*
G01*
X143552000Y-104950000D01*
X143552000Y-104995092D01*
X143551990Y-104995288D01*
X143549595Y-105019609D01*
X143549519Y-105019994D01*
X143543856Y-105038662D01*
X143543706Y-105039024D01*
X143534507Y-105056234D01*
X143534289Y-105056560D01*
X143529203Y-105062758D01*
X143518477Y-105078811D01*
X143511127Y-105096557D01*
X143507379Y-105115401D01*
X143507380Y-105134606D01*
X143511129Y-105153449D01*
X143518480Y-105171195D01*
X143529202Y-105187242D01*
X143534289Y-105193440D01*
X143534507Y-105193766D01*
X143543706Y-105210976D01*
X143543856Y-105211338D01*
X143549519Y-105230006D01*
X143549595Y-105230391D01*
X143551990Y-105254712D01*
X143552000Y-105254908D01*
X143552000Y-105300000D01*
X143551000Y-105301732D01*
X143549000Y-105301732D01*
X143548010Y-105300196D01*
X143545148Y-105271131D01*
X143536725Y-105243366D01*
X143523049Y-105217780D01*
X143504645Y-105195355D01*
X143482220Y-105176951D01*
X143456634Y-105163275D01*
X143428869Y-105154852D01*
X143399906Y-105152000D01*
X142025094Y-105152000D01*
X141996131Y-105154852D01*
X141968366Y-105163275D01*
X141942780Y-105176951D01*
X141920355Y-105195355D01*
X141901951Y-105217780D01*
X141888275Y-105243366D01*
X141879852Y-105271131D01*
X141876990Y-105300196D01*
X141875825Y-105301822D01*
X141873835Y-105301626D01*
X141873000Y-105300000D01*
X141873000Y-105254908D01*
X141873010Y-105254712D01*
X141875405Y-105230391D01*
X141875481Y-105230006D01*
X141881144Y-105211338D01*
X141881294Y-105210976D01*
X141890493Y-105193766D01*
X141890711Y-105193440D01*
X141895797Y-105187242D01*
X141906523Y-105171189D01*
X141913873Y-105153443D01*
X141917621Y-105134599D01*
X141917620Y-105115394D01*
X141913871Y-105096551D01*
X141906520Y-105078805D01*
X141895798Y-105062758D01*
X141890711Y-105056560D01*
X141890493Y-105056234D01*
X141881294Y-105039024D01*
X141881144Y-105038662D01*
X141875481Y-105019994D01*
X141875405Y-105019609D01*
X141873010Y-104995288D01*
X141873000Y-104995092D01*
X141873000Y-104950000D01*
X141874000Y-104948268D01*
X141876000Y-104948268D01*
X141876990Y-104949804D01*
X141879852Y-104978869D01*
X141888275Y-105006634D01*
X141901951Y-105032220D01*
X141920355Y-105054645D01*
X141942780Y-105073049D01*
X141968366Y-105086725D01*
X141996131Y-105095148D01*
X142025094Y-105098000D01*
X143399906Y-105098000D01*
X143428869Y-105095148D01*
X143456634Y-105086725D01*
X143482220Y-105073049D01*
X143504645Y-105054645D01*
X143523049Y-105032220D01*
X143536725Y-105006634D01*
X143545148Y-104978869D01*
X143548010Y-104949804D01*
X143549175Y-104948178D01*
X143551165Y-104948374D01*
G37*
G36*
X136126165Y-104948374D02*
G01*
X136127000Y-104950000D01*
X136127000Y-104995092D01*
X136126990Y-104995288D01*
X136124595Y-105019609D01*
X136124519Y-105019994D01*
X136118856Y-105038662D01*
X136118706Y-105039024D01*
X136109507Y-105056234D01*
X136109289Y-105056560D01*
X136104203Y-105062758D01*
X136093477Y-105078811D01*
X136086127Y-105096557D01*
X136082379Y-105115401D01*
X136082380Y-105134606D01*
X136086129Y-105153449D01*
X136093480Y-105171195D01*
X136104202Y-105187242D01*
X136109289Y-105193440D01*
X136109507Y-105193766D01*
X136118706Y-105210976D01*
X136118856Y-105211338D01*
X136124519Y-105230006D01*
X136124595Y-105230391D01*
X136126990Y-105254712D01*
X136127000Y-105254908D01*
X136127000Y-105300000D01*
X136126000Y-105301732D01*
X136124000Y-105301732D01*
X136123010Y-105300196D01*
X136120148Y-105271131D01*
X136111725Y-105243366D01*
X136098049Y-105217780D01*
X136079645Y-105195355D01*
X136057220Y-105176951D01*
X136031634Y-105163275D01*
X136003869Y-105154852D01*
X135974906Y-105152000D01*
X134600094Y-105152000D01*
X134571131Y-105154852D01*
X134543366Y-105163275D01*
X134517780Y-105176951D01*
X134495355Y-105195355D01*
X134476951Y-105217780D01*
X134463275Y-105243366D01*
X134454852Y-105271131D01*
X134451990Y-105300196D01*
X134450825Y-105301822D01*
X134448835Y-105301626D01*
X134448000Y-105300000D01*
X134448000Y-105254908D01*
X134448010Y-105254712D01*
X134450405Y-105230391D01*
X134450481Y-105230006D01*
X134456144Y-105211338D01*
X134456294Y-105210976D01*
X134465493Y-105193766D01*
X134465711Y-105193440D01*
X134470797Y-105187242D01*
X134481523Y-105171189D01*
X134488873Y-105153443D01*
X134492621Y-105134599D01*
X134492620Y-105115394D01*
X134488871Y-105096551D01*
X134481520Y-105078805D01*
X134470798Y-105062758D01*
X134465711Y-105056560D01*
X134465493Y-105056234D01*
X134456294Y-105039024D01*
X134456144Y-105038662D01*
X134450481Y-105019994D01*
X134450405Y-105019609D01*
X134448010Y-104995288D01*
X134448000Y-104995092D01*
X134448000Y-104950000D01*
X134449000Y-104948268D01*
X134451000Y-104948268D01*
X134451990Y-104949804D01*
X134454852Y-104978869D01*
X134463275Y-105006634D01*
X134476951Y-105032220D01*
X134495355Y-105054645D01*
X134517780Y-105073049D01*
X134543366Y-105086725D01*
X134571131Y-105095148D01*
X134600094Y-105098000D01*
X135974906Y-105098000D01*
X136003869Y-105095148D01*
X136031634Y-105086725D01*
X136057220Y-105073049D01*
X136079645Y-105054645D01*
X136098049Y-105032220D01*
X136111725Y-105006634D01*
X136120148Y-104978869D01*
X136123010Y-104949804D01*
X136124175Y-104948178D01*
X136126165Y-104948374D01*
G37*
G36*
X136126165Y-104298374D02*
G01*
X136127000Y-104300000D01*
X136127000Y-104345092D01*
X136126990Y-104345288D01*
X136124595Y-104369609D01*
X136124519Y-104369994D01*
X136118856Y-104388662D01*
X136118706Y-104389024D01*
X136109507Y-104406234D01*
X136109289Y-104406560D01*
X136104203Y-104412758D01*
X136093477Y-104428811D01*
X136086127Y-104446557D01*
X136082379Y-104465401D01*
X136082380Y-104484606D01*
X136086129Y-104503449D01*
X136093480Y-104521195D01*
X136104202Y-104537242D01*
X136109289Y-104543440D01*
X136109507Y-104543766D01*
X136118706Y-104560976D01*
X136118856Y-104561338D01*
X136124519Y-104580006D01*
X136124595Y-104580391D01*
X136126990Y-104604712D01*
X136127000Y-104604908D01*
X136127000Y-104650000D01*
X136126000Y-104651732D01*
X136124000Y-104651732D01*
X136123010Y-104650196D01*
X136120148Y-104621131D01*
X136111725Y-104593366D01*
X136098049Y-104567780D01*
X136079645Y-104545355D01*
X136057220Y-104526951D01*
X136031634Y-104513275D01*
X136003869Y-104504852D01*
X135974906Y-104502000D01*
X134600094Y-104502000D01*
X134571131Y-104504852D01*
X134543366Y-104513275D01*
X134517780Y-104526951D01*
X134495355Y-104545355D01*
X134476951Y-104567780D01*
X134463275Y-104593366D01*
X134454852Y-104621131D01*
X134451990Y-104650196D01*
X134450825Y-104651822D01*
X134448835Y-104651626D01*
X134448000Y-104650000D01*
X134448000Y-104604908D01*
X134448010Y-104604712D01*
X134450405Y-104580391D01*
X134450481Y-104580006D01*
X134456144Y-104561338D01*
X134456294Y-104560976D01*
X134465493Y-104543766D01*
X134465711Y-104543440D01*
X134470797Y-104537242D01*
X134481523Y-104521189D01*
X134488873Y-104503443D01*
X134492621Y-104484599D01*
X134492620Y-104465394D01*
X134488871Y-104446551D01*
X134481520Y-104428805D01*
X134470798Y-104412758D01*
X134465711Y-104406560D01*
X134465493Y-104406234D01*
X134456294Y-104389024D01*
X134456144Y-104388662D01*
X134450481Y-104369994D01*
X134450405Y-104369609D01*
X134448010Y-104345288D01*
X134448000Y-104345092D01*
X134448000Y-104300000D01*
X134449000Y-104298268D01*
X134451000Y-104298268D01*
X134451990Y-104299804D01*
X134454852Y-104328869D01*
X134463275Y-104356634D01*
X134476951Y-104382220D01*
X134495355Y-104404645D01*
X134517780Y-104423049D01*
X134543366Y-104436725D01*
X134571131Y-104445148D01*
X134600094Y-104448000D01*
X135974906Y-104448000D01*
X136003869Y-104445148D01*
X136031634Y-104436725D01*
X136057220Y-104423049D01*
X136079645Y-104404645D01*
X136098049Y-104382220D01*
X136111725Y-104356634D01*
X136120148Y-104328869D01*
X136123010Y-104299804D01*
X136124175Y-104298178D01*
X136126165Y-104298374D01*
G37*
G36*
X143551165Y-104298374D02*
G01*
X143552000Y-104300000D01*
X143552000Y-104345092D01*
X143551990Y-104345288D01*
X143549595Y-104369609D01*
X143549519Y-104369994D01*
X143543856Y-104388662D01*
X143543706Y-104389024D01*
X143534507Y-104406234D01*
X143534289Y-104406560D01*
X143529203Y-104412758D01*
X143518477Y-104428811D01*
X143511127Y-104446557D01*
X143507379Y-104465401D01*
X143507380Y-104484606D01*
X143511129Y-104503449D01*
X143518480Y-104521195D01*
X143529202Y-104537242D01*
X143534289Y-104543440D01*
X143534507Y-104543766D01*
X143543706Y-104560976D01*
X143543856Y-104561338D01*
X143549519Y-104580006D01*
X143549595Y-104580391D01*
X143551990Y-104604712D01*
X143552000Y-104604908D01*
X143552000Y-104650000D01*
X143551000Y-104651732D01*
X143549000Y-104651732D01*
X143548010Y-104650196D01*
X143545148Y-104621131D01*
X143536725Y-104593366D01*
X143523049Y-104567780D01*
X143504645Y-104545355D01*
X143482220Y-104526951D01*
X143456634Y-104513275D01*
X143428869Y-104504852D01*
X143399906Y-104502000D01*
X142025094Y-104502000D01*
X141996131Y-104504852D01*
X141968366Y-104513275D01*
X141942780Y-104526951D01*
X141920355Y-104545355D01*
X141901951Y-104567780D01*
X141888275Y-104593366D01*
X141879852Y-104621131D01*
X141876990Y-104650196D01*
X141875825Y-104651822D01*
X141873835Y-104651626D01*
X141873000Y-104650000D01*
X141873000Y-104604908D01*
X141873010Y-104604712D01*
X141875405Y-104580391D01*
X141875481Y-104580006D01*
X141881144Y-104561338D01*
X141881294Y-104560976D01*
X141890493Y-104543766D01*
X141890711Y-104543440D01*
X141895797Y-104537242D01*
X141906523Y-104521189D01*
X141913873Y-104503443D01*
X141917621Y-104484599D01*
X141917620Y-104465394D01*
X141913871Y-104446551D01*
X141906520Y-104428805D01*
X141895798Y-104412758D01*
X141890711Y-104406560D01*
X141890493Y-104406234D01*
X141881294Y-104389024D01*
X141881144Y-104388662D01*
X141875481Y-104369994D01*
X141875405Y-104369609D01*
X141873010Y-104345288D01*
X141873000Y-104345092D01*
X141873000Y-104300000D01*
X141874000Y-104298268D01*
X141876000Y-104298268D01*
X141876990Y-104299804D01*
X141879852Y-104328869D01*
X141888275Y-104356634D01*
X141901951Y-104382220D01*
X141920355Y-104404645D01*
X141942780Y-104423049D01*
X141968366Y-104436725D01*
X141996131Y-104445148D01*
X142025094Y-104448000D01*
X143399906Y-104448000D01*
X143428869Y-104445148D01*
X143456634Y-104436725D01*
X143482220Y-104423049D01*
X143504645Y-104404645D01*
X143523049Y-104382220D01*
X143536725Y-104356634D01*
X143545148Y-104328869D01*
X143548010Y-104299804D01*
X143549175Y-104298178D01*
X143551165Y-104298374D01*
G37*
G36*
X143551165Y-103648374D02*
G01*
X143552000Y-103650000D01*
X143552000Y-103695092D01*
X143551990Y-103695288D01*
X143549595Y-103719609D01*
X143549519Y-103719994D01*
X143543856Y-103738662D01*
X143543706Y-103739024D01*
X143534507Y-103756234D01*
X143534289Y-103756560D01*
X143529203Y-103762758D01*
X143518477Y-103778811D01*
X143511127Y-103796557D01*
X143507379Y-103815401D01*
X143507380Y-103834606D01*
X143511129Y-103853449D01*
X143518480Y-103871195D01*
X143529202Y-103887242D01*
X143534289Y-103893440D01*
X143534507Y-103893766D01*
X143543706Y-103910976D01*
X143543856Y-103911338D01*
X143549519Y-103930006D01*
X143549595Y-103930391D01*
X143551990Y-103954712D01*
X143552000Y-103954908D01*
X143552000Y-104000000D01*
X143551000Y-104001732D01*
X143549000Y-104001732D01*
X143548010Y-104000196D01*
X143545148Y-103971131D01*
X143536725Y-103943366D01*
X143523049Y-103917780D01*
X143504645Y-103895355D01*
X143482220Y-103876951D01*
X143456634Y-103863275D01*
X143428869Y-103854852D01*
X143399906Y-103852000D01*
X142025094Y-103852000D01*
X141996131Y-103854852D01*
X141968366Y-103863275D01*
X141942780Y-103876951D01*
X141920355Y-103895355D01*
X141901951Y-103917780D01*
X141888275Y-103943366D01*
X141879852Y-103971131D01*
X141876990Y-104000196D01*
X141875825Y-104001822D01*
X141873835Y-104001626D01*
X141873000Y-104000000D01*
X141873000Y-103954908D01*
X141873010Y-103954712D01*
X141875405Y-103930391D01*
X141875481Y-103930006D01*
X141881144Y-103911338D01*
X141881294Y-103910976D01*
X141890493Y-103893766D01*
X141890711Y-103893440D01*
X141895797Y-103887242D01*
X141906523Y-103871189D01*
X141913873Y-103853443D01*
X141917621Y-103834599D01*
X141917620Y-103815394D01*
X141913871Y-103796551D01*
X141906520Y-103778805D01*
X141895798Y-103762758D01*
X141890711Y-103756560D01*
X141890493Y-103756234D01*
X141881294Y-103739024D01*
X141881144Y-103738662D01*
X141875481Y-103719994D01*
X141875405Y-103719609D01*
X141873010Y-103695288D01*
X141873000Y-103695092D01*
X141873000Y-103650000D01*
X141874000Y-103648268D01*
X141876000Y-103648268D01*
X141876990Y-103649804D01*
X141879852Y-103678869D01*
X141888275Y-103706634D01*
X141901951Y-103732220D01*
X141920355Y-103754645D01*
X141942780Y-103773049D01*
X141968366Y-103786725D01*
X141996131Y-103795148D01*
X142025094Y-103798000D01*
X143399906Y-103798000D01*
X143428869Y-103795148D01*
X143456634Y-103786725D01*
X143482220Y-103773049D01*
X143504645Y-103754645D01*
X143523049Y-103732220D01*
X143536725Y-103706634D01*
X143545148Y-103678869D01*
X143548010Y-103649804D01*
X143549175Y-103648178D01*
X143551165Y-103648374D01*
G37*
G36*
X136126165Y-103648374D02*
G01*
X136127000Y-103650000D01*
X136127000Y-103695092D01*
X136126990Y-103695288D01*
X136124595Y-103719609D01*
X136124519Y-103719994D01*
X136118856Y-103738662D01*
X136118706Y-103739024D01*
X136109507Y-103756234D01*
X136109289Y-103756560D01*
X136104203Y-103762758D01*
X136093477Y-103778811D01*
X136086127Y-103796557D01*
X136082379Y-103815401D01*
X136082380Y-103834606D01*
X136086129Y-103853449D01*
X136093480Y-103871195D01*
X136104202Y-103887242D01*
X136109289Y-103893440D01*
X136109507Y-103893766D01*
X136118706Y-103910976D01*
X136118856Y-103911338D01*
X136124519Y-103930006D01*
X136124595Y-103930391D01*
X136126990Y-103954712D01*
X136127000Y-103954908D01*
X136127000Y-104000000D01*
X136126000Y-104001732D01*
X136124000Y-104001732D01*
X136123010Y-104000196D01*
X136120148Y-103971131D01*
X136111725Y-103943366D01*
X136098049Y-103917780D01*
X136079645Y-103895355D01*
X136057220Y-103876951D01*
X136031634Y-103863275D01*
X136003869Y-103854852D01*
X135974906Y-103852000D01*
X134600094Y-103852000D01*
X134571131Y-103854852D01*
X134543366Y-103863275D01*
X134517780Y-103876951D01*
X134495355Y-103895355D01*
X134476951Y-103917780D01*
X134463275Y-103943366D01*
X134454852Y-103971131D01*
X134451990Y-104000196D01*
X134450825Y-104001822D01*
X134448835Y-104001626D01*
X134448000Y-104000000D01*
X134448000Y-103954908D01*
X134448010Y-103954712D01*
X134450405Y-103930391D01*
X134450481Y-103930006D01*
X134456144Y-103911338D01*
X134456294Y-103910976D01*
X134465493Y-103893766D01*
X134465711Y-103893440D01*
X134470797Y-103887242D01*
X134481523Y-103871189D01*
X134488873Y-103853443D01*
X134492621Y-103834599D01*
X134492620Y-103815394D01*
X134488871Y-103796551D01*
X134481520Y-103778805D01*
X134470798Y-103762758D01*
X134465711Y-103756560D01*
X134465493Y-103756234D01*
X134456294Y-103739024D01*
X134456144Y-103738662D01*
X134450481Y-103719994D01*
X134450405Y-103719609D01*
X134448010Y-103695288D01*
X134448000Y-103695092D01*
X134448000Y-103650000D01*
X134449000Y-103648268D01*
X134451000Y-103648268D01*
X134451990Y-103649804D01*
X134454852Y-103678869D01*
X134463275Y-103706634D01*
X134476951Y-103732220D01*
X134495355Y-103754645D01*
X134517780Y-103773049D01*
X134543366Y-103786725D01*
X134571131Y-103795148D01*
X134600094Y-103798000D01*
X135974906Y-103798000D01*
X136003869Y-103795148D01*
X136031634Y-103786725D01*
X136057220Y-103773049D01*
X136079645Y-103754645D01*
X136098049Y-103732220D01*
X136111725Y-103706634D01*
X136120148Y-103678869D01*
X136123010Y-103649804D01*
X136124175Y-103648178D01*
X136126165Y-103648374D01*
G37*
G36*
X143551165Y-102998374D02*
G01*
X143552000Y-103000000D01*
X143552000Y-103045092D01*
X143551990Y-103045288D01*
X143549595Y-103069609D01*
X143549519Y-103069994D01*
X143543856Y-103088662D01*
X143543706Y-103089024D01*
X143534507Y-103106234D01*
X143534289Y-103106560D01*
X143529203Y-103112758D01*
X143518477Y-103128811D01*
X143511127Y-103146557D01*
X143507379Y-103165401D01*
X143507380Y-103184606D01*
X143511129Y-103203449D01*
X143518480Y-103221195D01*
X143529202Y-103237242D01*
X143534289Y-103243440D01*
X143534507Y-103243766D01*
X143543706Y-103260976D01*
X143543856Y-103261338D01*
X143549519Y-103280006D01*
X143549595Y-103280391D01*
X143551990Y-103304712D01*
X143552000Y-103304908D01*
X143552000Y-103350000D01*
X143551000Y-103351732D01*
X143549000Y-103351732D01*
X143548010Y-103350196D01*
X143545148Y-103321131D01*
X143536725Y-103293366D01*
X143523049Y-103267780D01*
X143504645Y-103245355D01*
X143482220Y-103226951D01*
X143456634Y-103213275D01*
X143428869Y-103204852D01*
X143399906Y-103202000D01*
X142025094Y-103202000D01*
X141996131Y-103204852D01*
X141968366Y-103213275D01*
X141942780Y-103226951D01*
X141920355Y-103245355D01*
X141901951Y-103267780D01*
X141888275Y-103293366D01*
X141879852Y-103321131D01*
X141876990Y-103350196D01*
X141875825Y-103351822D01*
X141873835Y-103351626D01*
X141873000Y-103350000D01*
X141873000Y-103304908D01*
X141873010Y-103304712D01*
X141875405Y-103280391D01*
X141875481Y-103280006D01*
X141881144Y-103261338D01*
X141881294Y-103260976D01*
X141890493Y-103243766D01*
X141890711Y-103243440D01*
X141895797Y-103237242D01*
X141906523Y-103221189D01*
X141913873Y-103203443D01*
X141917621Y-103184599D01*
X141917620Y-103165394D01*
X141913871Y-103146551D01*
X141906520Y-103128805D01*
X141895798Y-103112758D01*
X141890711Y-103106560D01*
X141890493Y-103106234D01*
X141881294Y-103089024D01*
X141881144Y-103088662D01*
X141875481Y-103069994D01*
X141875405Y-103069609D01*
X141873010Y-103045288D01*
X141873000Y-103045092D01*
X141873000Y-103000000D01*
X141874000Y-102998268D01*
X141876000Y-102998268D01*
X141876990Y-102999804D01*
X141879852Y-103028869D01*
X141888275Y-103056634D01*
X141901951Y-103082220D01*
X141920355Y-103104645D01*
X141942780Y-103123049D01*
X141968366Y-103136725D01*
X141996131Y-103145148D01*
X142025094Y-103148000D01*
X143399906Y-103148000D01*
X143428869Y-103145148D01*
X143456634Y-103136725D01*
X143482220Y-103123049D01*
X143504645Y-103104645D01*
X143523049Y-103082220D01*
X143536725Y-103056634D01*
X143545148Y-103028869D01*
X143548010Y-102999804D01*
X143549175Y-102998178D01*
X143551165Y-102998374D01*
G37*
G36*
X136126165Y-102998374D02*
G01*
X136127000Y-103000000D01*
X136127000Y-103045092D01*
X136126990Y-103045288D01*
X136124595Y-103069609D01*
X136124519Y-103069994D01*
X136118856Y-103088662D01*
X136118706Y-103089024D01*
X136109507Y-103106234D01*
X136109289Y-103106560D01*
X136104203Y-103112758D01*
X136093477Y-103128811D01*
X136086127Y-103146557D01*
X136082379Y-103165401D01*
X136082380Y-103184606D01*
X136086129Y-103203449D01*
X136093480Y-103221195D01*
X136104202Y-103237242D01*
X136109289Y-103243440D01*
X136109507Y-103243766D01*
X136118706Y-103260976D01*
X136118856Y-103261338D01*
X136124519Y-103280006D01*
X136124595Y-103280391D01*
X136126990Y-103304712D01*
X136127000Y-103304908D01*
X136127000Y-103350000D01*
X136126000Y-103351732D01*
X136124000Y-103351732D01*
X136123010Y-103350196D01*
X136120148Y-103321131D01*
X136111725Y-103293366D01*
X136098049Y-103267780D01*
X136079645Y-103245355D01*
X136057220Y-103226951D01*
X136031634Y-103213275D01*
X136003869Y-103204852D01*
X135974906Y-103202000D01*
X134600094Y-103202000D01*
X134571131Y-103204852D01*
X134543366Y-103213275D01*
X134517780Y-103226951D01*
X134495355Y-103245355D01*
X134476951Y-103267780D01*
X134463275Y-103293366D01*
X134454852Y-103321131D01*
X134451990Y-103350196D01*
X134450825Y-103351822D01*
X134448835Y-103351626D01*
X134448000Y-103350000D01*
X134448000Y-103304908D01*
X134448010Y-103304712D01*
X134450405Y-103280391D01*
X134450481Y-103280006D01*
X134456144Y-103261338D01*
X134456294Y-103260976D01*
X134465493Y-103243766D01*
X134465711Y-103243440D01*
X134470797Y-103237242D01*
X134481523Y-103221189D01*
X134488873Y-103203443D01*
X134492621Y-103184599D01*
X134492620Y-103165394D01*
X134488871Y-103146551D01*
X134481520Y-103128805D01*
X134470798Y-103112758D01*
X134465711Y-103106560D01*
X134465493Y-103106234D01*
X134456294Y-103089024D01*
X134456144Y-103088662D01*
X134450481Y-103069994D01*
X134450405Y-103069609D01*
X134448010Y-103045288D01*
X134448000Y-103045092D01*
X134448000Y-103000000D01*
X134449000Y-102998268D01*
X134451000Y-102998268D01*
X134451990Y-102999804D01*
X134454852Y-103028869D01*
X134463275Y-103056634D01*
X134476951Y-103082220D01*
X134495355Y-103104645D01*
X134517780Y-103123049D01*
X134543366Y-103136725D01*
X134571131Y-103145148D01*
X134600094Y-103148000D01*
X135974906Y-103148000D01*
X136003869Y-103145148D01*
X136031634Y-103136725D01*
X136057220Y-103123049D01*
X136079645Y-103104645D01*
X136098049Y-103082220D01*
X136111725Y-103056634D01*
X136120148Y-103028869D01*
X136123010Y-102999804D01*
X136124175Y-102998178D01*
X136126165Y-102998374D01*
G37*
G36*
X136126165Y-102348374D02*
G01*
X136127000Y-102350000D01*
X136127000Y-102395092D01*
X136126990Y-102395288D01*
X136124595Y-102419609D01*
X136124519Y-102419994D01*
X136118856Y-102438662D01*
X136118706Y-102439024D01*
X136109507Y-102456234D01*
X136109289Y-102456560D01*
X136104203Y-102462758D01*
X136093477Y-102478811D01*
X136086127Y-102496557D01*
X136082379Y-102515401D01*
X136082380Y-102534606D01*
X136086129Y-102553449D01*
X136093480Y-102571195D01*
X136104202Y-102587242D01*
X136109289Y-102593440D01*
X136109507Y-102593766D01*
X136118706Y-102610976D01*
X136118856Y-102611338D01*
X136124519Y-102630006D01*
X136124595Y-102630391D01*
X136126990Y-102654712D01*
X136127000Y-102654908D01*
X136127000Y-102700000D01*
X136126000Y-102701732D01*
X136124000Y-102701732D01*
X136123010Y-102700196D01*
X136120148Y-102671131D01*
X136111725Y-102643366D01*
X136098049Y-102617780D01*
X136079645Y-102595355D01*
X136057220Y-102576951D01*
X136031634Y-102563275D01*
X136003869Y-102554852D01*
X135974906Y-102552000D01*
X134600094Y-102552000D01*
X134571131Y-102554852D01*
X134543366Y-102563275D01*
X134517780Y-102576951D01*
X134495355Y-102595355D01*
X134476951Y-102617780D01*
X134463275Y-102643366D01*
X134454852Y-102671131D01*
X134451990Y-102700196D01*
X134450825Y-102701822D01*
X134448835Y-102701626D01*
X134448000Y-102700000D01*
X134448000Y-102654908D01*
X134448010Y-102654712D01*
X134450405Y-102630391D01*
X134450481Y-102630006D01*
X134456144Y-102611338D01*
X134456294Y-102610976D01*
X134465493Y-102593766D01*
X134465711Y-102593440D01*
X134470797Y-102587242D01*
X134481523Y-102571189D01*
X134488873Y-102553443D01*
X134492621Y-102534599D01*
X134492620Y-102515394D01*
X134488871Y-102496551D01*
X134481520Y-102478805D01*
X134470798Y-102462758D01*
X134465711Y-102456560D01*
X134465493Y-102456234D01*
X134456294Y-102439024D01*
X134456144Y-102438662D01*
X134450481Y-102419994D01*
X134450405Y-102419609D01*
X134448010Y-102395288D01*
X134448000Y-102395092D01*
X134448000Y-102350000D01*
X134449000Y-102348268D01*
X134451000Y-102348268D01*
X134451990Y-102349804D01*
X134454852Y-102378869D01*
X134463275Y-102406634D01*
X134476951Y-102432220D01*
X134495355Y-102454645D01*
X134517780Y-102473049D01*
X134543366Y-102486725D01*
X134571131Y-102495148D01*
X134600094Y-102498000D01*
X135974906Y-102498000D01*
X136003869Y-102495148D01*
X136031634Y-102486725D01*
X136057220Y-102473049D01*
X136079645Y-102454645D01*
X136098049Y-102432220D01*
X136111725Y-102406634D01*
X136120148Y-102378869D01*
X136123010Y-102349804D01*
X136124175Y-102348178D01*
X136126165Y-102348374D01*
G37*
G36*
X143551165Y-102348374D02*
G01*
X143552000Y-102350000D01*
X143552000Y-102395092D01*
X143551990Y-102395288D01*
X143549595Y-102419609D01*
X143549519Y-102419994D01*
X143543856Y-102438662D01*
X143543706Y-102439024D01*
X143534507Y-102456234D01*
X143534289Y-102456560D01*
X143529203Y-102462758D01*
X143518477Y-102478811D01*
X143511127Y-102496557D01*
X143507379Y-102515401D01*
X143507380Y-102534606D01*
X143511129Y-102553449D01*
X143518480Y-102571195D01*
X143529202Y-102587242D01*
X143534289Y-102593440D01*
X143534507Y-102593766D01*
X143543706Y-102610976D01*
X143543856Y-102611338D01*
X143549519Y-102630006D01*
X143549595Y-102630391D01*
X143551990Y-102654712D01*
X143552000Y-102654908D01*
X143552000Y-102700000D01*
X143551000Y-102701732D01*
X143549000Y-102701732D01*
X143548010Y-102700196D01*
X143545148Y-102671131D01*
X143536725Y-102643366D01*
X143523049Y-102617780D01*
X143504645Y-102595355D01*
X143482220Y-102576951D01*
X143456634Y-102563275D01*
X143428869Y-102554852D01*
X143399906Y-102552000D01*
X142025094Y-102552000D01*
X141996131Y-102554852D01*
X141968366Y-102563275D01*
X141942780Y-102576951D01*
X141920355Y-102595355D01*
X141901951Y-102617780D01*
X141888275Y-102643366D01*
X141879852Y-102671131D01*
X141876990Y-102700196D01*
X141875825Y-102701822D01*
X141873835Y-102701626D01*
X141873000Y-102700000D01*
X141873000Y-102654908D01*
X141873010Y-102654712D01*
X141875405Y-102630391D01*
X141875481Y-102630006D01*
X141881144Y-102611338D01*
X141881294Y-102610976D01*
X141890493Y-102593766D01*
X141890711Y-102593440D01*
X141895797Y-102587242D01*
X141906523Y-102571189D01*
X141913873Y-102553443D01*
X141917621Y-102534599D01*
X141917620Y-102515394D01*
X141913871Y-102496551D01*
X141906520Y-102478805D01*
X141895798Y-102462758D01*
X141890711Y-102456560D01*
X141890493Y-102456234D01*
X141881294Y-102439024D01*
X141881144Y-102438662D01*
X141875481Y-102419994D01*
X141875405Y-102419609D01*
X141873010Y-102395288D01*
X141873000Y-102395092D01*
X141873000Y-102350000D01*
X141874000Y-102348268D01*
X141876000Y-102348268D01*
X141876990Y-102349804D01*
X141879852Y-102378869D01*
X141888275Y-102406634D01*
X141901951Y-102432220D01*
X141920355Y-102454645D01*
X141942780Y-102473049D01*
X141968366Y-102486725D01*
X141996131Y-102495148D01*
X142025094Y-102498000D01*
X143399906Y-102498000D01*
X143428869Y-102495148D01*
X143456634Y-102486725D01*
X143482220Y-102473049D01*
X143504645Y-102454645D01*
X143523049Y-102432220D01*
X143536725Y-102406634D01*
X143545148Y-102378869D01*
X143548010Y-102349804D01*
X143549175Y-102348178D01*
X143551165Y-102348374D01*
G37*
G36*
X143551165Y-101698374D02*
G01*
X143552000Y-101700000D01*
X143552000Y-101745092D01*
X143551990Y-101745288D01*
X143549595Y-101769609D01*
X143549519Y-101769994D01*
X143543856Y-101788662D01*
X143543706Y-101789024D01*
X143534507Y-101806234D01*
X143534289Y-101806560D01*
X143529203Y-101812758D01*
X143518477Y-101828811D01*
X143511127Y-101846557D01*
X143507379Y-101865401D01*
X143507380Y-101884606D01*
X143511129Y-101903449D01*
X143518480Y-101921195D01*
X143529202Y-101937242D01*
X143534289Y-101943440D01*
X143534507Y-101943766D01*
X143543706Y-101960976D01*
X143543856Y-101961338D01*
X143549519Y-101980006D01*
X143549595Y-101980391D01*
X143551990Y-102004712D01*
X143552000Y-102004908D01*
X143552000Y-102050000D01*
X143551000Y-102051732D01*
X143549000Y-102051732D01*
X143548010Y-102050196D01*
X143545148Y-102021131D01*
X143536725Y-101993366D01*
X143523049Y-101967780D01*
X143504645Y-101945355D01*
X143482220Y-101926951D01*
X143456634Y-101913275D01*
X143428869Y-101904852D01*
X143399906Y-101902000D01*
X142025094Y-101902000D01*
X141996131Y-101904852D01*
X141968366Y-101913275D01*
X141942780Y-101926951D01*
X141920355Y-101945355D01*
X141901951Y-101967780D01*
X141888275Y-101993366D01*
X141879852Y-102021131D01*
X141876990Y-102050196D01*
X141875825Y-102051822D01*
X141873835Y-102051626D01*
X141873000Y-102050000D01*
X141873000Y-102004908D01*
X141873010Y-102004712D01*
X141875405Y-101980391D01*
X141875481Y-101980006D01*
X141881144Y-101961338D01*
X141881294Y-101960976D01*
X141890493Y-101943766D01*
X141890711Y-101943440D01*
X141895797Y-101937242D01*
X141906523Y-101921189D01*
X141913873Y-101903443D01*
X141917621Y-101884599D01*
X141917620Y-101865394D01*
X141913871Y-101846551D01*
X141906520Y-101828805D01*
X141895798Y-101812758D01*
X141890711Y-101806560D01*
X141890493Y-101806234D01*
X141881294Y-101789024D01*
X141881144Y-101788662D01*
X141875481Y-101769994D01*
X141875405Y-101769609D01*
X141873010Y-101745288D01*
X141873000Y-101745092D01*
X141873000Y-101700000D01*
X141874000Y-101698268D01*
X141876000Y-101698268D01*
X141876990Y-101699804D01*
X141879852Y-101728869D01*
X141888275Y-101756634D01*
X141901951Y-101782220D01*
X141920355Y-101804645D01*
X141942780Y-101823049D01*
X141968366Y-101836725D01*
X141996131Y-101845148D01*
X142025094Y-101848000D01*
X143399906Y-101848000D01*
X143428869Y-101845148D01*
X143456634Y-101836725D01*
X143482220Y-101823049D01*
X143504645Y-101804645D01*
X143523049Y-101782220D01*
X143536725Y-101756634D01*
X143545148Y-101728869D01*
X143548010Y-101699804D01*
X143549175Y-101698178D01*
X143551165Y-101698374D01*
G37*
G36*
X136126165Y-101698374D02*
G01*
X136127000Y-101700000D01*
X136127000Y-101745092D01*
X136126990Y-101745288D01*
X136124595Y-101769609D01*
X136124519Y-101769994D01*
X136118856Y-101788662D01*
X136118706Y-101789024D01*
X136109507Y-101806234D01*
X136109289Y-101806560D01*
X136104203Y-101812758D01*
X136093477Y-101828811D01*
X136086127Y-101846557D01*
X136082379Y-101865401D01*
X136082380Y-101884606D01*
X136086129Y-101903449D01*
X136093480Y-101921195D01*
X136104202Y-101937242D01*
X136109289Y-101943440D01*
X136109507Y-101943766D01*
X136118706Y-101960976D01*
X136118856Y-101961338D01*
X136124519Y-101980006D01*
X136124595Y-101980391D01*
X136126990Y-102004712D01*
X136127000Y-102004908D01*
X136127000Y-102050000D01*
X136126000Y-102051732D01*
X136124000Y-102051732D01*
X136123010Y-102050196D01*
X136120148Y-102021131D01*
X136111725Y-101993366D01*
X136098049Y-101967780D01*
X136079645Y-101945355D01*
X136057220Y-101926951D01*
X136031634Y-101913275D01*
X136003869Y-101904852D01*
X135974906Y-101902000D01*
X134600094Y-101902000D01*
X134571131Y-101904852D01*
X134543366Y-101913275D01*
X134517780Y-101926951D01*
X134495355Y-101945355D01*
X134476951Y-101967780D01*
X134463275Y-101993366D01*
X134454852Y-102021131D01*
X134451990Y-102050196D01*
X134450825Y-102051822D01*
X134448835Y-102051626D01*
X134448000Y-102050000D01*
X134448000Y-102004908D01*
X134448010Y-102004712D01*
X134450405Y-101980391D01*
X134450481Y-101980006D01*
X134456144Y-101961338D01*
X134456294Y-101960976D01*
X134465493Y-101943766D01*
X134465711Y-101943440D01*
X134470797Y-101937242D01*
X134481523Y-101921189D01*
X134488873Y-101903443D01*
X134492621Y-101884599D01*
X134492620Y-101865394D01*
X134488871Y-101846551D01*
X134481520Y-101828805D01*
X134470798Y-101812758D01*
X134465711Y-101806560D01*
X134465493Y-101806234D01*
X134456294Y-101789024D01*
X134456144Y-101788662D01*
X134450481Y-101769994D01*
X134450405Y-101769609D01*
X134448010Y-101745288D01*
X134448000Y-101745092D01*
X134448000Y-101700000D01*
X134449000Y-101698268D01*
X134451000Y-101698268D01*
X134451990Y-101699804D01*
X134454852Y-101728869D01*
X134463275Y-101756634D01*
X134476951Y-101782220D01*
X134495355Y-101804645D01*
X134517780Y-101823049D01*
X134543366Y-101836725D01*
X134571131Y-101845148D01*
X134600094Y-101848000D01*
X135974906Y-101848000D01*
X136003869Y-101845148D01*
X136031634Y-101836725D01*
X136057220Y-101823049D01*
X136079645Y-101804645D01*
X136098049Y-101782220D01*
X136111725Y-101756634D01*
X136120148Y-101728869D01*
X136123010Y-101699804D01*
X136124175Y-101698178D01*
X136126165Y-101698374D01*
G37*
G36*
X136126165Y-101048374D02*
G01*
X136127000Y-101050000D01*
X136127000Y-101095092D01*
X136126990Y-101095288D01*
X136124595Y-101119609D01*
X136124519Y-101119994D01*
X136118856Y-101138662D01*
X136118706Y-101139024D01*
X136109507Y-101156234D01*
X136109289Y-101156560D01*
X136104203Y-101162758D01*
X136093477Y-101178811D01*
X136086127Y-101196557D01*
X136082379Y-101215401D01*
X136082380Y-101234606D01*
X136086129Y-101253449D01*
X136093480Y-101271195D01*
X136104202Y-101287242D01*
X136109289Y-101293440D01*
X136109507Y-101293766D01*
X136118706Y-101310976D01*
X136118856Y-101311338D01*
X136124519Y-101330006D01*
X136124595Y-101330391D01*
X136126990Y-101354712D01*
X136127000Y-101354908D01*
X136127000Y-101400000D01*
X136126000Y-101401732D01*
X136124000Y-101401732D01*
X136123010Y-101400196D01*
X136120148Y-101371131D01*
X136111725Y-101343366D01*
X136098049Y-101317780D01*
X136079645Y-101295355D01*
X136057220Y-101276951D01*
X136031634Y-101263275D01*
X136003869Y-101254852D01*
X135974906Y-101252000D01*
X134600094Y-101252000D01*
X134571131Y-101254852D01*
X134543366Y-101263275D01*
X134517780Y-101276951D01*
X134495355Y-101295355D01*
X134476951Y-101317780D01*
X134463275Y-101343366D01*
X134454852Y-101371131D01*
X134451990Y-101400196D01*
X134450825Y-101401822D01*
X134448835Y-101401626D01*
X134448000Y-101400000D01*
X134448000Y-101354908D01*
X134448010Y-101354712D01*
X134450405Y-101330391D01*
X134450481Y-101330006D01*
X134456144Y-101311338D01*
X134456294Y-101310976D01*
X134465493Y-101293766D01*
X134465711Y-101293440D01*
X134470797Y-101287242D01*
X134481523Y-101271189D01*
X134488873Y-101253443D01*
X134492621Y-101234599D01*
X134492620Y-101215394D01*
X134488871Y-101196551D01*
X134481520Y-101178805D01*
X134470798Y-101162758D01*
X134465711Y-101156560D01*
X134465493Y-101156234D01*
X134456294Y-101139024D01*
X134456144Y-101138662D01*
X134450481Y-101119994D01*
X134450405Y-101119609D01*
X134448010Y-101095288D01*
X134448000Y-101095092D01*
X134448000Y-101050000D01*
X134449000Y-101048268D01*
X134451000Y-101048268D01*
X134451990Y-101049804D01*
X134454852Y-101078869D01*
X134463275Y-101106634D01*
X134476951Y-101132220D01*
X134495355Y-101154645D01*
X134517780Y-101173049D01*
X134543366Y-101186725D01*
X134571131Y-101195148D01*
X134600094Y-101198000D01*
X135974906Y-101198000D01*
X136003869Y-101195148D01*
X136031634Y-101186725D01*
X136057220Y-101173049D01*
X136079645Y-101154645D01*
X136098049Y-101132220D01*
X136111725Y-101106634D01*
X136120148Y-101078869D01*
X136123010Y-101049804D01*
X136124175Y-101048178D01*
X136126165Y-101048374D01*
G37*
G36*
X143551165Y-101048374D02*
G01*
X143552000Y-101050000D01*
X143552000Y-101095092D01*
X143551990Y-101095288D01*
X143549595Y-101119609D01*
X143549519Y-101119994D01*
X143543856Y-101138662D01*
X143543706Y-101139024D01*
X143534507Y-101156234D01*
X143534289Y-101156560D01*
X143529203Y-101162758D01*
X143518477Y-101178811D01*
X143511127Y-101196557D01*
X143507379Y-101215401D01*
X143507380Y-101234606D01*
X143511129Y-101253449D01*
X143518480Y-101271195D01*
X143529202Y-101287242D01*
X143534289Y-101293440D01*
X143534507Y-101293766D01*
X143543706Y-101310976D01*
X143543856Y-101311338D01*
X143549519Y-101330006D01*
X143549595Y-101330391D01*
X143551990Y-101354712D01*
X143552000Y-101354908D01*
X143552000Y-101400000D01*
X143551000Y-101401732D01*
X143549000Y-101401732D01*
X143548010Y-101400196D01*
X143545148Y-101371131D01*
X143536725Y-101343366D01*
X143523049Y-101317780D01*
X143504645Y-101295355D01*
X143482220Y-101276951D01*
X143456634Y-101263275D01*
X143428869Y-101254852D01*
X143399906Y-101252000D01*
X142025094Y-101252000D01*
X141996131Y-101254852D01*
X141968366Y-101263275D01*
X141942780Y-101276951D01*
X141920355Y-101295355D01*
X141901951Y-101317780D01*
X141888275Y-101343366D01*
X141879852Y-101371131D01*
X141876990Y-101400196D01*
X141875825Y-101401822D01*
X141873835Y-101401626D01*
X141873000Y-101400000D01*
X141873000Y-101354908D01*
X141873010Y-101354712D01*
X141875405Y-101330391D01*
X141875481Y-101330006D01*
X141881144Y-101311338D01*
X141881294Y-101310976D01*
X141890493Y-101293766D01*
X141890711Y-101293440D01*
X141895797Y-101287242D01*
X141906523Y-101271189D01*
X141913873Y-101253443D01*
X141917621Y-101234599D01*
X141917620Y-101215394D01*
X141913871Y-101196551D01*
X141906520Y-101178805D01*
X141895798Y-101162758D01*
X141890711Y-101156560D01*
X141890493Y-101156234D01*
X141881294Y-101139024D01*
X141881144Y-101138662D01*
X141875481Y-101119994D01*
X141875405Y-101119609D01*
X141873010Y-101095288D01*
X141873000Y-101095092D01*
X141873000Y-101050000D01*
X141874000Y-101048268D01*
X141876000Y-101048268D01*
X141876990Y-101049804D01*
X141879852Y-101078869D01*
X141888275Y-101106634D01*
X141901951Y-101132220D01*
X141920355Y-101154645D01*
X141942780Y-101173049D01*
X141968366Y-101186725D01*
X141996131Y-101195148D01*
X142025094Y-101198000D01*
X143399906Y-101198000D01*
X143428869Y-101195148D01*
X143456634Y-101186725D01*
X143482220Y-101173049D01*
X143504645Y-101154645D01*
X143523049Y-101132220D01*
X143536725Y-101106634D01*
X143545148Y-101078869D01*
X143548010Y-101049804D01*
X143549175Y-101048178D01*
X143551165Y-101048374D01*
G37*
G36*
X143551165Y-100398374D02*
G01*
X143552000Y-100400000D01*
X143552000Y-100445092D01*
X143551990Y-100445288D01*
X143549595Y-100469609D01*
X143549519Y-100469994D01*
X143543856Y-100488662D01*
X143543706Y-100489024D01*
X143534507Y-100506234D01*
X143534289Y-100506560D01*
X143529203Y-100512758D01*
X143518477Y-100528811D01*
X143511127Y-100546557D01*
X143507379Y-100565401D01*
X143507380Y-100584606D01*
X143511129Y-100603449D01*
X143518480Y-100621195D01*
X143529202Y-100637242D01*
X143534289Y-100643440D01*
X143534507Y-100643766D01*
X143543706Y-100660976D01*
X143543856Y-100661338D01*
X143549519Y-100680006D01*
X143549595Y-100680391D01*
X143551990Y-100704712D01*
X143552000Y-100704908D01*
X143552000Y-100750000D01*
X143551000Y-100751732D01*
X143549000Y-100751732D01*
X143548010Y-100750196D01*
X143545148Y-100721131D01*
X143536725Y-100693366D01*
X143523049Y-100667780D01*
X143504645Y-100645355D01*
X143482220Y-100626951D01*
X143456634Y-100613275D01*
X143428869Y-100604852D01*
X143399906Y-100602000D01*
X142025094Y-100602000D01*
X141996131Y-100604852D01*
X141968366Y-100613275D01*
X141942780Y-100626951D01*
X141920355Y-100645355D01*
X141901951Y-100667780D01*
X141888275Y-100693366D01*
X141879852Y-100721131D01*
X141876990Y-100750196D01*
X141875825Y-100751822D01*
X141873835Y-100751626D01*
X141873000Y-100750000D01*
X141873000Y-100704908D01*
X141873010Y-100704712D01*
X141875405Y-100680391D01*
X141875481Y-100680006D01*
X141881144Y-100661338D01*
X141881294Y-100660976D01*
X141890493Y-100643766D01*
X141890711Y-100643440D01*
X141895797Y-100637242D01*
X141906523Y-100621189D01*
X141913873Y-100603443D01*
X141917621Y-100584599D01*
X141917620Y-100565394D01*
X141913871Y-100546551D01*
X141906520Y-100528805D01*
X141895798Y-100512758D01*
X141890711Y-100506560D01*
X141890493Y-100506234D01*
X141881294Y-100489024D01*
X141881144Y-100488662D01*
X141875481Y-100469994D01*
X141875405Y-100469609D01*
X141873010Y-100445288D01*
X141873000Y-100445092D01*
X141873000Y-100400000D01*
X141874000Y-100398268D01*
X141876000Y-100398268D01*
X141876990Y-100399804D01*
X141879852Y-100428869D01*
X141888275Y-100456634D01*
X141901951Y-100482220D01*
X141920355Y-100504645D01*
X141942780Y-100523049D01*
X141968366Y-100536725D01*
X141996131Y-100545148D01*
X142025094Y-100548000D01*
X143399906Y-100548000D01*
X143428869Y-100545148D01*
X143456634Y-100536725D01*
X143482220Y-100523049D01*
X143504645Y-100504645D01*
X143523049Y-100482220D01*
X143536725Y-100456634D01*
X143545148Y-100428869D01*
X143548010Y-100399804D01*
X143549175Y-100398178D01*
X143551165Y-100398374D01*
G37*
G36*
X136126165Y-100398374D02*
G01*
X136127000Y-100400000D01*
X136127000Y-100445092D01*
X136126990Y-100445288D01*
X136124595Y-100469609D01*
X136124519Y-100469994D01*
X136118856Y-100488662D01*
X136118706Y-100489024D01*
X136109507Y-100506234D01*
X136109289Y-100506560D01*
X136104203Y-100512758D01*
X136093477Y-100528811D01*
X136086127Y-100546557D01*
X136082379Y-100565401D01*
X136082380Y-100584606D01*
X136086129Y-100603449D01*
X136093480Y-100621195D01*
X136104202Y-100637242D01*
X136109289Y-100643440D01*
X136109507Y-100643766D01*
X136118706Y-100660976D01*
X136118856Y-100661338D01*
X136124519Y-100680006D01*
X136124595Y-100680391D01*
X136126990Y-100704712D01*
X136127000Y-100704908D01*
X136127000Y-100750000D01*
X136126000Y-100751732D01*
X136124000Y-100751732D01*
X136123010Y-100750196D01*
X136120148Y-100721131D01*
X136111725Y-100693366D01*
X136098049Y-100667780D01*
X136079645Y-100645355D01*
X136057220Y-100626951D01*
X136031634Y-100613275D01*
X136003869Y-100604852D01*
X135974906Y-100602000D01*
X134600094Y-100602000D01*
X134571131Y-100604852D01*
X134543366Y-100613275D01*
X134517780Y-100626951D01*
X134495355Y-100645355D01*
X134476951Y-100667780D01*
X134463275Y-100693366D01*
X134454852Y-100721131D01*
X134451990Y-100750196D01*
X134450825Y-100751822D01*
X134448835Y-100751626D01*
X134448000Y-100750000D01*
X134448000Y-100704908D01*
X134448010Y-100704712D01*
X134450405Y-100680391D01*
X134450481Y-100680006D01*
X134456144Y-100661338D01*
X134456294Y-100660976D01*
X134465493Y-100643766D01*
X134465711Y-100643440D01*
X134470797Y-100637242D01*
X134481523Y-100621189D01*
X134488873Y-100603443D01*
X134492621Y-100584599D01*
X134492620Y-100565394D01*
X134488871Y-100546551D01*
X134481520Y-100528805D01*
X134470798Y-100512758D01*
X134465711Y-100506560D01*
X134465493Y-100506234D01*
X134456294Y-100489024D01*
X134456144Y-100488662D01*
X134450481Y-100469994D01*
X134450405Y-100469609D01*
X134448010Y-100445288D01*
X134448000Y-100445092D01*
X134448000Y-100400000D01*
X134449000Y-100398268D01*
X134451000Y-100398268D01*
X134451990Y-100399804D01*
X134454852Y-100428869D01*
X134463275Y-100456634D01*
X134476951Y-100482220D01*
X134495355Y-100504645D01*
X134517780Y-100523049D01*
X134543366Y-100536725D01*
X134571131Y-100545148D01*
X134600094Y-100548000D01*
X135974906Y-100548000D01*
X136003869Y-100545148D01*
X136031634Y-100536725D01*
X136057220Y-100523049D01*
X136079645Y-100504645D01*
X136098049Y-100482220D01*
X136111725Y-100456634D01*
X136120148Y-100428869D01*
X136123010Y-100399804D01*
X136124175Y-100398178D01*
X136126165Y-100398374D01*
G37*
G36*
X143551165Y-99748374D02*
G01*
X143552000Y-99750000D01*
X143552000Y-99795092D01*
X143551990Y-99795288D01*
X143549595Y-99819609D01*
X143549519Y-99819994D01*
X143543856Y-99838662D01*
X143543706Y-99839024D01*
X143534507Y-99856234D01*
X143534289Y-99856560D01*
X143529203Y-99862758D01*
X143518477Y-99878811D01*
X143511127Y-99896557D01*
X143507379Y-99915401D01*
X143507380Y-99934606D01*
X143511129Y-99953449D01*
X143518480Y-99971195D01*
X143529202Y-99987242D01*
X143534289Y-99993440D01*
X143534507Y-99993766D01*
X143543706Y-100010976D01*
X143543856Y-100011338D01*
X143549519Y-100030006D01*
X143549595Y-100030391D01*
X143551990Y-100054712D01*
X143552000Y-100054908D01*
X143552000Y-100100000D01*
X143551000Y-100101732D01*
X143549000Y-100101732D01*
X143548010Y-100100196D01*
X143545148Y-100071131D01*
X143536725Y-100043366D01*
X143523049Y-100017780D01*
X143504645Y-99995355D01*
X143482220Y-99976951D01*
X143456634Y-99963275D01*
X143428869Y-99954852D01*
X143399906Y-99952000D01*
X142025094Y-99952000D01*
X141996131Y-99954852D01*
X141968366Y-99963275D01*
X141942780Y-99976951D01*
X141920355Y-99995355D01*
X141901951Y-100017780D01*
X141888275Y-100043366D01*
X141879852Y-100071131D01*
X141876990Y-100100196D01*
X141875825Y-100101822D01*
X141873835Y-100101626D01*
X141873000Y-100100000D01*
X141873000Y-100054908D01*
X141873010Y-100054712D01*
X141875405Y-100030391D01*
X141875481Y-100030006D01*
X141881144Y-100011338D01*
X141881294Y-100010976D01*
X141890493Y-99993766D01*
X141890711Y-99993440D01*
X141895797Y-99987242D01*
X141906523Y-99971189D01*
X141913873Y-99953443D01*
X141917621Y-99934599D01*
X141917620Y-99915394D01*
X141913871Y-99896551D01*
X141906520Y-99878805D01*
X141895798Y-99862758D01*
X141890711Y-99856560D01*
X141890493Y-99856234D01*
X141881294Y-99839024D01*
X141881144Y-99838662D01*
X141875481Y-99819994D01*
X141875405Y-99819609D01*
X141873010Y-99795288D01*
X141873000Y-99795092D01*
X141873000Y-99750000D01*
X141874000Y-99748268D01*
X141876000Y-99748268D01*
X141876990Y-99749804D01*
X141879852Y-99778869D01*
X141888275Y-99806634D01*
X141901951Y-99832220D01*
X141920355Y-99854645D01*
X141942780Y-99873049D01*
X141968366Y-99886725D01*
X141996131Y-99895148D01*
X142025094Y-99898000D01*
X143399906Y-99898000D01*
X143428869Y-99895148D01*
X143456634Y-99886725D01*
X143482220Y-99873049D01*
X143504645Y-99854645D01*
X143523049Y-99832220D01*
X143536725Y-99806634D01*
X143545148Y-99778869D01*
X143548010Y-99749804D01*
X143549175Y-99748178D01*
X143551165Y-99748374D01*
G37*
G36*
X136126165Y-99748374D02*
G01*
X136127000Y-99750000D01*
X136127000Y-99795092D01*
X136126990Y-99795288D01*
X136124595Y-99819609D01*
X136124519Y-99819994D01*
X136118856Y-99838662D01*
X136118706Y-99839024D01*
X136109507Y-99856234D01*
X136109289Y-99856560D01*
X136104203Y-99862758D01*
X136093477Y-99878811D01*
X136086127Y-99896557D01*
X136082379Y-99915401D01*
X136082380Y-99934606D01*
X136086129Y-99953449D01*
X136093480Y-99971195D01*
X136104202Y-99987242D01*
X136109289Y-99993440D01*
X136109507Y-99993766D01*
X136118706Y-100010976D01*
X136118856Y-100011338D01*
X136124519Y-100030006D01*
X136124595Y-100030391D01*
X136126990Y-100054712D01*
X136127000Y-100054908D01*
X136127000Y-100100000D01*
X136126000Y-100101732D01*
X136124000Y-100101732D01*
X136123010Y-100100196D01*
X136120148Y-100071131D01*
X136111725Y-100043366D01*
X136098049Y-100017780D01*
X136079645Y-99995355D01*
X136057220Y-99976951D01*
X136031634Y-99963275D01*
X136003869Y-99954852D01*
X135974906Y-99952000D01*
X134600094Y-99952000D01*
X134571131Y-99954852D01*
X134543366Y-99963275D01*
X134517780Y-99976951D01*
X134495355Y-99995355D01*
X134476951Y-100017780D01*
X134463275Y-100043366D01*
X134454852Y-100071131D01*
X134451990Y-100100196D01*
X134450825Y-100101822D01*
X134448835Y-100101626D01*
X134448000Y-100100000D01*
X134448000Y-100054908D01*
X134448010Y-100054712D01*
X134450405Y-100030391D01*
X134450481Y-100030006D01*
X134456144Y-100011338D01*
X134456294Y-100010976D01*
X134465493Y-99993766D01*
X134465711Y-99993440D01*
X134470797Y-99987242D01*
X134481523Y-99971189D01*
X134488873Y-99953443D01*
X134492621Y-99934599D01*
X134492620Y-99915394D01*
X134488871Y-99896551D01*
X134481520Y-99878805D01*
X134470798Y-99862758D01*
X134465711Y-99856560D01*
X134465493Y-99856234D01*
X134456294Y-99839024D01*
X134456144Y-99838662D01*
X134450481Y-99819994D01*
X134450405Y-99819609D01*
X134448010Y-99795288D01*
X134448000Y-99795092D01*
X134448000Y-99750000D01*
X134449000Y-99748268D01*
X134451000Y-99748268D01*
X134451990Y-99749804D01*
X134454852Y-99778869D01*
X134463275Y-99806634D01*
X134476951Y-99832220D01*
X134495355Y-99854645D01*
X134517780Y-99873049D01*
X134543366Y-99886725D01*
X134571131Y-99895148D01*
X134600094Y-99898000D01*
X135974906Y-99898000D01*
X136003869Y-99895148D01*
X136031634Y-99886725D01*
X136057220Y-99873049D01*
X136079645Y-99854645D01*
X136098049Y-99832220D01*
X136111725Y-99806634D01*
X136120148Y-99778869D01*
X136123010Y-99749804D01*
X136124175Y-99748178D01*
X136126165Y-99748374D01*
G37*
G36*
X136126165Y-99098374D02*
G01*
X136127000Y-99100000D01*
X136127000Y-99145092D01*
X136126990Y-99145288D01*
X136124595Y-99169609D01*
X136124519Y-99169994D01*
X136118856Y-99188662D01*
X136118706Y-99189024D01*
X136109507Y-99206234D01*
X136109289Y-99206560D01*
X136104203Y-99212758D01*
X136093477Y-99228811D01*
X136086127Y-99246557D01*
X136082379Y-99265401D01*
X136082380Y-99284606D01*
X136086129Y-99303449D01*
X136093480Y-99321195D01*
X136104202Y-99337242D01*
X136109289Y-99343440D01*
X136109507Y-99343766D01*
X136118706Y-99360976D01*
X136118856Y-99361338D01*
X136124519Y-99380006D01*
X136124595Y-99380391D01*
X136126990Y-99404712D01*
X136127000Y-99404908D01*
X136127000Y-99450000D01*
X136126000Y-99451732D01*
X136124000Y-99451732D01*
X136123010Y-99450196D01*
X136120148Y-99421131D01*
X136111725Y-99393366D01*
X136098049Y-99367780D01*
X136079645Y-99345355D01*
X136057220Y-99326951D01*
X136031634Y-99313275D01*
X136003869Y-99304852D01*
X135974906Y-99302000D01*
X134600094Y-99302000D01*
X134571131Y-99304852D01*
X134543366Y-99313275D01*
X134517780Y-99326951D01*
X134495355Y-99345355D01*
X134476951Y-99367780D01*
X134463275Y-99393366D01*
X134454852Y-99421131D01*
X134451990Y-99450196D01*
X134450825Y-99451822D01*
X134448835Y-99451626D01*
X134448000Y-99450000D01*
X134448000Y-99404908D01*
X134448010Y-99404712D01*
X134450405Y-99380391D01*
X134450481Y-99380006D01*
X134456144Y-99361338D01*
X134456294Y-99360976D01*
X134465493Y-99343766D01*
X134465711Y-99343440D01*
X134470797Y-99337242D01*
X134481523Y-99321189D01*
X134488873Y-99303443D01*
X134492621Y-99284599D01*
X134492620Y-99265394D01*
X134488871Y-99246551D01*
X134481520Y-99228805D01*
X134470798Y-99212758D01*
X134465711Y-99206560D01*
X134465493Y-99206234D01*
X134456294Y-99189024D01*
X134456144Y-99188662D01*
X134450481Y-99169994D01*
X134450405Y-99169609D01*
X134448010Y-99145288D01*
X134448000Y-99145092D01*
X134448000Y-99100000D01*
X134449000Y-99098268D01*
X134451000Y-99098268D01*
X134451990Y-99099804D01*
X134454852Y-99128869D01*
X134463275Y-99156634D01*
X134476951Y-99182220D01*
X134495355Y-99204645D01*
X134517780Y-99223049D01*
X134543366Y-99236725D01*
X134571131Y-99245148D01*
X134600094Y-99248000D01*
X135974906Y-99248000D01*
X136003869Y-99245148D01*
X136031634Y-99236725D01*
X136057220Y-99223049D01*
X136079645Y-99204645D01*
X136098049Y-99182220D01*
X136111725Y-99156634D01*
X136120148Y-99128869D01*
X136123010Y-99099804D01*
X136124175Y-99098178D01*
X136126165Y-99098374D01*
G37*
G36*
X143551165Y-99098374D02*
G01*
X143552000Y-99100000D01*
X143552000Y-99145092D01*
X143551990Y-99145288D01*
X143549595Y-99169609D01*
X143549519Y-99169994D01*
X143543856Y-99188662D01*
X143543706Y-99189024D01*
X143534507Y-99206234D01*
X143534289Y-99206560D01*
X143529203Y-99212758D01*
X143518477Y-99228811D01*
X143511127Y-99246557D01*
X143507379Y-99265401D01*
X143507380Y-99284606D01*
X143511129Y-99303449D01*
X143518480Y-99321195D01*
X143529202Y-99337242D01*
X143534289Y-99343440D01*
X143534507Y-99343766D01*
X143543706Y-99360976D01*
X143543856Y-99361338D01*
X143549519Y-99380006D01*
X143549595Y-99380391D01*
X143551990Y-99404712D01*
X143552000Y-99404908D01*
X143552000Y-99450000D01*
X143551000Y-99451732D01*
X143549000Y-99451732D01*
X143548010Y-99450196D01*
X143545148Y-99421131D01*
X143536725Y-99393366D01*
X143523049Y-99367780D01*
X143504645Y-99345355D01*
X143482220Y-99326951D01*
X143456634Y-99313275D01*
X143428869Y-99304852D01*
X143399906Y-99302000D01*
X142025094Y-99302000D01*
X141996131Y-99304852D01*
X141968366Y-99313275D01*
X141942780Y-99326951D01*
X141920355Y-99345355D01*
X141901951Y-99367780D01*
X141888275Y-99393366D01*
X141879852Y-99421131D01*
X141876990Y-99450196D01*
X141875825Y-99451822D01*
X141873835Y-99451626D01*
X141873000Y-99450000D01*
X141873000Y-99404908D01*
X141873010Y-99404712D01*
X141875405Y-99380391D01*
X141875481Y-99380006D01*
X141881144Y-99361338D01*
X141881294Y-99360976D01*
X141890493Y-99343766D01*
X141890711Y-99343440D01*
X141895797Y-99337242D01*
X141906523Y-99321189D01*
X141913873Y-99303443D01*
X141917621Y-99284599D01*
X141917620Y-99265394D01*
X141913871Y-99246551D01*
X141906520Y-99228805D01*
X141895798Y-99212758D01*
X141890711Y-99206560D01*
X141890493Y-99206234D01*
X141881294Y-99189024D01*
X141881144Y-99188662D01*
X141875481Y-99169994D01*
X141875405Y-99169609D01*
X141873010Y-99145288D01*
X141873000Y-99145092D01*
X141873000Y-99100000D01*
X141874000Y-99098268D01*
X141876000Y-99098268D01*
X141876990Y-99099804D01*
X141879852Y-99128869D01*
X141888275Y-99156634D01*
X141901951Y-99182220D01*
X141920355Y-99204645D01*
X141942780Y-99223049D01*
X141968366Y-99236725D01*
X141996131Y-99245148D01*
X142025094Y-99248000D01*
X143399906Y-99248000D01*
X143428869Y-99245148D01*
X143456634Y-99236725D01*
X143482220Y-99223049D01*
X143504645Y-99204645D01*
X143523049Y-99182220D01*
X143536725Y-99156634D01*
X143545148Y-99128869D01*
X143548010Y-99099804D01*
X143549175Y-99098178D01*
X143551165Y-99098374D01*
G37*
G36*
X136126165Y-98448374D02*
G01*
X136127000Y-98450000D01*
X136127000Y-98495092D01*
X136126990Y-98495288D01*
X136124595Y-98519609D01*
X136124519Y-98519994D01*
X136118856Y-98538662D01*
X136118706Y-98539024D01*
X136109507Y-98556234D01*
X136109289Y-98556560D01*
X136104203Y-98562758D01*
X136093477Y-98578811D01*
X136086127Y-98596557D01*
X136082379Y-98615401D01*
X136082380Y-98634606D01*
X136086129Y-98653449D01*
X136093480Y-98671195D01*
X136104202Y-98687242D01*
X136109289Y-98693440D01*
X136109507Y-98693766D01*
X136118706Y-98710976D01*
X136118856Y-98711338D01*
X136124519Y-98730006D01*
X136124595Y-98730391D01*
X136126990Y-98754712D01*
X136127000Y-98754908D01*
X136127000Y-98800000D01*
X136126000Y-98801732D01*
X136124000Y-98801732D01*
X136123010Y-98800196D01*
X136120148Y-98771131D01*
X136111725Y-98743366D01*
X136098049Y-98717780D01*
X136079645Y-98695355D01*
X136057220Y-98676951D01*
X136031634Y-98663275D01*
X136003869Y-98654852D01*
X135974906Y-98652000D01*
X134600094Y-98652000D01*
X134571131Y-98654852D01*
X134543366Y-98663275D01*
X134517780Y-98676951D01*
X134495355Y-98695355D01*
X134476951Y-98717780D01*
X134463275Y-98743366D01*
X134454852Y-98771131D01*
X134451990Y-98800196D01*
X134450825Y-98801822D01*
X134448835Y-98801626D01*
X134448000Y-98800000D01*
X134448000Y-98754908D01*
X134448010Y-98754712D01*
X134450405Y-98730391D01*
X134450481Y-98730006D01*
X134456144Y-98711338D01*
X134456294Y-98710976D01*
X134465493Y-98693766D01*
X134465711Y-98693440D01*
X134470797Y-98687242D01*
X134481523Y-98671189D01*
X134488873Y-98653443D01*
X134492621Y-98634599D01*
X134492620Y-98615394D01*
X134488871Y-98596551D01*
X134481520Y-98578805D01*
X134470798Y-98562758D01*
X134465711Y-98556560D01*
X134465493Y-98556234D01*
X134456294Y-98539024D01*
X134456144Y-98538662D01*
X134450481Y-98519994D01*
X134450405Y-98519609D01*
X134448010Y-98495288D01*
X134448000Y-98495092D01*
X134448000Y-98450000D01*
X134449000Y-98448268D01*
X134451000Y-98448268D01*
X134451990Y-98449804D01*
X134454852Y-98478869D01*
X134463275Y-98506634D01*
X134476951Y-98532220D01*
X134495355Y-98554645D01*
X134517780Y-98573049D01*
X134543366Y-98586725D01*
X134571131Y-98595148D01*
X134600094Y-98598000D01*
X135974906Y-98598000D01*
X136003869Y-98595148D01*
X136031634Y-98586725D01*
X136057220Y-98573049D01*
X136079645Y-98554645D01*
X136098049Y-98532220D01*
X136111725Y-98506634D01*
X136120148Y-98478869D01*
X136123010Y-98449804D01*
X136124175Y-98448178D01*
X136126165Y-98448374D01*
G37*
G36*
X143551165Y-98448374D02*
G01*
X143552000Y-98450000D01*
X143552000Y-98495092D01*
X143551990Y-98495288D01*
X143549595Y-98519609D01*
X143549519Y-98519994D01*
X143543856Y-98538662D01*
X143543706Y-98539024D01*
X143534507Y-98556234D01*
X143534289Y-98556560D01*
X143529203Y-98562758D01*
X143518477Y-98578811D01*
X143511127Y-98596557D01*
X143507379Y-98615401D01*
X143507380Y-98634606D01*
X143511129Y-98653449D01*
X143518480Y-98671195D01*
X143529202Y-98687242D01*
X143534289Y-98693440D01*
X143534507Y-98693766D01*
X143543706Y-98710976D01*
X143543856Y-98711338D01*
X143549519Y-98730006D01*
X143549595Y-98730391D01*
X143551990Y-98754712D01*
X143552000Y-98754908D01*
X143552000Y-98800000D01*
X143551000Y-98801732D01*
X143549000Y-98801732D01*
X143548010Y-98800196D01*
X143545148Y-98771131D01*
X143536725Y-98743366D01*
X143523049Y-98717780D01*
X143504645Y-98695355D01*
X143482220Y-98676951D01*
X143456634Y-98663275D01*
X143428869Y-98654852D01*
X143399906Y-98652000D01*
X142025094Y-98652000D01*
X141996131Y-98654852D01*
X141968366Y-98663275D01*
X141942780Y-98676951D01*
X141920355Y-98695355D01*
X141901951Y-98717780D01*
X141888275Y-98743366D01*
X141879852Y-98771131D01*
X141876990Y-98800196D01*
X141875825Y-98801822D01*
X141873835Y-98801626D01*
X141873000Y-98800000D01*
X141873000Y-98754908D01*
X141873010Y-98754712D01*
X141875405Y-98730391D01*
X141875481Y-98730006D01*
X141881144Y-98711338D01*
X141881294Y-98710976D01*
X141890493Y-98693766D01*
X141890711Y-98693440D01*
X141895797Y-98687242D01*
X141906523Y-98671189D01*
X141913873Y-98653443D01*
X141917621Y-98634599D01*
X141917620Y-98615394D01*
X141913871Y-98596551D01*
X141906520Y-98578805D01*
X141895798Y-98562758D01*
X141890711Y-98556560D01*
X141890493Y-98556234D01*
X141881294Y-98539024D01*
X141881144Y-98538662D01*
X141875481Y-98519994D01*
X141875405Y-98519609D01*
X141873010Y-98495288D01*
X141873000Y-98495092D01*
X141873000Y-98450000D01*
X141874000Y-98448268D01*
X141876000Y-98448268D01*
X141876990Y-98449804D01*
X141879852Y-98478869D01*
X141888275Y-98506634D01*
X141901951Y-98532220D01*
X141920355Y-98554645D01*
X141942780Y-98573049D01*
X141968366Y-98586725D01*
X141996131Y-98595148D01*
X142025094Y-98598000D01*
X143399906Y-98598000D01*
X143428869Y-98595148D01*
X143456634Y-98586725D01*
X143482220Y-98573049D01*
X143504645Y-98554645D01*
X143523049Y-98532220D01*
X143536725Y-98506634D01*
X143545148Y-98478869D01*
X143548010Y-98449804D01*
X143549175Y-98448178D01*
X143551165Y-98448374D01*
G37*
G36*
X136126165Y-97798374D02*
G01*
X136127000Y-97800000D01*
X136127000Y-97845092D01*
X136126990Y-97845288D01*
X136124595Y-97869609D01*
X136124519Y-97869994D01*
X136118856Y-97888662D01*
X136118706Y-97889024D01*
X136109507Y-97906234D01*
X136109289Y-97906560D01*
X136104203Y-97912758D01*
X136093477Y-97928811D01*
X136086127Y-97946557D01*
X136082379Y-97965401D01*
X136082380Y-97984606D01*
X136086129Y-98003449D01*
X136093480Y-98021195D01*
X136104202Y-98037242D01*
X136109289Y-98043440D01*
X136109507Y-98043766D01*
X136118706Y-98060976D01*
X136118856Y-98061338D01*
X136124519Y-98080006D01*
X136124595Y-98080391D01*
X136126990Y-98104712D01*
X136127000Y-98104908D01*
X136127000Y-98150000D01*
X136126000Y-98151732D01*
X136124000Y-98151732D01*
X136123010Y-98150196D01*
X136120148Y-98121131D01*
X136111725Y-98093366D01*
X136098049Y-98067780D01*
X136079645Y-98045355D01*
X136057220Y-98026951D01*
X136031634Y-98013275D01*
X136003869Y-98004852D01*
X135974906Y-98002000D01*
X134600094Y-98002000D01*
X134571131Y-98004852D01*
X134543366Y-98013275D01*
X134517780Y-98026951D01*
X134495355Y-98045355D01*
X134476951Y-98067780D01*
X134463275Y-98093366D01*
X134454852Y-98121131D01*
X134451990Y-98150196D01*
X134450825Y-98151822D01*
X134448835Y-98151626D01*
X134448000Y-98150000D01*
X134448000Y-98104908D01*
X134448010Y-98104712D01*
X134450405Y-98080391D01*
X134450481Y-98080006D01*
X134456144Y-98061338D01*
X134456294Y-98060976D01*
X134465493Y-98043766D01*
X134465711Y-98043440D01*
X134470797Y-98037242D01*
X134481523Y-98021189D01*
X134488873Y-98003443D01*
X134492621Y-97984599D01*
X134492620Y-97965394D01*
X134488871Y-97946551D01*
X134481520Y-97928805D01*
X134470798Y-97912758D01*
X134465711Y-97906560D01*
X134465493Y-97906234D01*
X134456294Y-97889024D01*
X134456144Y-97888662D01*
X134450481Y-97869994D01*
X134450405Y-97869609D01*
X134448010Y-97845288D01*
X134448000Y-97845092D01*
X134448000Y-97800000D01*
X134449000Y-97798268D01*
X134451000Y-97798268D01*
X134451990Y-97799804D01*
X134454852Y-97828869D01*
X134463275Y-97856634D01*
X134476951Y-97882220D01*
X134495355Y-97904645D01*
X134517780Y-97923049D01*
X134543366Y-97936725D01*
X134571131Y-97945148D01*
X134600094Y-97948000D01*
X135974906Y-97948000D01*
X136003869Y-97945148D01*
X136031634Y-97936725D01*
X136057220Y-97923049D01*
X136079645Y-97904645D01*
X136098049Y-97882220D01*
X136111725Y-97856634D01*
X136120148Y-97828869D01*
X136123010Y-97799804D01*
X136124175Y-97798178D01*
X136126165Y-97798374D01*
G37*
G36*
X143551165Y-97798374D02*
G01*
X143552000Y-97800000D01*
X143552000Y-97845092D01*
X143551990Y-97845288D01*
X143549595Y-97869609D01*
X143549519Y-97869994D01*
X143543856Y-97888662D01*
X143543706Y-97889024D01*
X143534507Y-97906234D01*
X143534289Y-97906560D01*
X143529203Y-97912758D01*
X143518477Y-97928811D01*
X143511127Y-97946557D01*
X143507379Y-97965401D01*
X143507380Y-97984606D01*
X143511129Y-98003449D01*
X143518480Y-98021195D01*
X143529202Y-98037242D01*
X143534289Y-98043440D01*
X143534507Y-98043766D01*
X143543706Y-98060976D01*
X143543856Y-98061338D01*
X143549519Y-98080006D01*
X143549595Y-98080391D01*
X143551990Y-98104712D01*
X143552000Y-98104908D01*
X143552000Y-98150000D01*
X143551000Y-98151732D01*
X143549000Y-98151732D01*
X143548010Y-98150196D01*
X143545148Y-98121131D01*
X143536725Y-98093366D01*
X143523049Y-98067780D01*
X143504645Y-98045355D01*
X143482220Y-98026951D01*
X143456634Y-98013275D01*
X143428869Y-98004852D01*
X143399906Y-98002000D01*
X142025094Y-98002000D01*
X141996131Y-98004852D01*
X141968366Y-98013275D01*
X141942780Y-98026951D01*
X141920355Y-98045355D01*
X141901951Y-98067780D01*
X141888275Y-98093366D01*
X141879852Y-98121131D01*
X141876990Y-98150196D01*
X141875825Y-98151822D01*
X141873835Y-98151626D01*
X141873000Y-98150000D01*
X141873000Y-98104908D01*
X141873010Y-98104712D01*
X141875405Y-98080391D01*
X141875481Y-98080006D01*
X141881144Y-98061338D01*
X141881294Y-98060976D01*
X141890493Y-98043766D01*
X141890711Y-98043440D01*
X141895797Y-98037242D01*
X141906523Y-98021189D01*
X141913873Y-98003443D01*
X141917621Y-97984599D01*
X141917620Y-97965394D01*
X141913871Y-97946551D01*
X141906520Y-97928805D01*
X141895798Y-97912758D01*
X141890711Y-97906560D01*
X141890493Y-97906234D01*
X141881294Y-97889024D01*
X141881144Y-97888662D01*
X141875481Y-97869994D01*
X141875405Y-97869609D01*
X141873010Y-97845288D01*
X141873000Y-97845092D01*
X141873000Y-97800000D01*
X141874000Y-97798268D01*
X141876000Y-97798268D01*
X141876990Y-97799804D01*
X141879852Y-97828869D01*
X141888275Y-97856634D01*
X141901951Y-97882220D01*
X141920355Y-97904645D01*
X141942780Y-97923049D01*
X141968366Y-97936725D01*
X141996131Y-97945148D01*
X142025094Y-97948000D01*
X143399906Y-97948000D01*
X143428869Y-97945148D01*
X143456634Y-97936725D01*
X143482220Y-97923049D01*
X143504645Y-97904645D01*
X143523049Y-97882220D01*
X143536725Y-97856634D01*
X143545148Y-97828869D01*
X143548010Y-97799804D01*
X143549175Y-97798178D01*
X143551165Y-97798374D01*
G37*
M02*
