%FSLAX45Y45*%
G04 Gerber Fmt 4.5, Leading zero omitted, Abs format (unit mm)*
G04 Created by KiCad (PCBNEW (5.1.10)-1) date 2021-08-01 20:36:29*
%MOMM*%
%LPD*%
G01*
G04 APERTURE LIST*
%TA.AperFunction,Profile*%
%ADD10C,0.050000*%
%TD*%
%ADD11C,0.200000*%
%ADD12C,0.300000*%
G04 APERTURE END LIST*
D10*
X17800000Y-8300000D02*
X10800000Y-8300000D01*
X17800000Y-12300000D02*
X17800000Y-8300000D01*
X10800000Y-12300000D02*
X17800000Y-12300000D01*
X10800000Y-8300000D02*
X10800000Y-12300000D01*
D11*
D12*
X11083928Y-12768214D02*
X11083928Y-12468214D01*
X11155357Y-12468214D01*
X11198214Y-12482500D01*
X11226786Y-12511071D01*
X11241071Y-12539643D01*
X11255357Y-12596786D01*
X11255357Y-12639643D01*
X11241071Y-12696786D01*
X11226786Y-12725357D01*
X11198214Y-12753929D01*
X11155357Y-12768214D01*
X11083928Y-12768214D01*
X11383928Y-12768214D02*
X11383928Y-12568214D01*
X11383928Y-12625357D02*
X11398214Y-12596786D01*
X11412500Y-12582500D01*
X11441071Y-12568214D01*
X11469643Y-12568214D01*
X11569643Y-12768214D02*
X11569643Y-12568214D01*
X11569643Y-12468214D02*
X11555357Y-12482500D01*
X11569643Y-12496786D01*
X11583928Y-12482500D01*
X11569643Y-12468214D01*
X11569643Y-12496786D01*
X11755357Y-12768214D02*
X11726786Y-12753929D01*
X11712500Y-12725357D01*
X11712500Y-12468214D01*
X11912500Y-12768214D02*
X11883928Y-12753929D01*
X11869643Y-12725357D01*
X11869643Y-12468214D01*
X12255357Y-12768214D02*
X12255357Y-12468214D01*
X12355357Y-12682500D01*
X12455357Y-12468214D01*
X12455357Y-12768214D01*
X12726786Y-12768214D02*
X12726786Y-12611071D01*
X12712500Y-12582500D01*
X12683928Y-12568214D01*
X12626786Y-12568214D01*
X12598214Y-12582500D01*
X12726786Y-12753929D02*
X12698214Y-12768214D01*
X12626786Y-12768214D01*
X12598214Y-12753929D01*
X12583928Y-12725357D01*
X12583928Y-12696786D01*
X12598214Y-12668214D01*
X12626786Y-12653929D01*
X12698214Y-12653929D01*
X12726786Y-12639643D01*
X12869643Y-12568214D02*
X12869643Y-12868214D01*
X12869643Y-12582500D02*
X12898214Y-12568214D01*
X12955357Y-12568214D01*
X12983928Y-12582500D01*
X12998214Y-12596786D01*
X13012500Y-12625357D01*
X13012500Y-12711071D01*
X12998214Y-12739643D01*
X12983928Y-12753929D01*
X12955357Y-12768214D01*
X12898214Y-12768214D01*
X12869643Y-12753929D01*
X13141071Y-12739643D02*
X13155357Y-12753929D01*
X13141071Y-12768214D01*
X13126786Y-12753929D01*
X13141071Y-12739643D01*
X13141071Y-12768214D01*
X13141071Y-12582500D02*
X13155357Y-12596786D01*
X13141071Y-12611071D01*
X13126786Y-12596786D01*
X13141071Y-12582500D01*
X13141071Y-12611071D01*
M02*
