M48
; DRILL file {KiCad (5.1.10)-1} date 08/01/21 20:36:28
; FORMAT={-:-/ absolute / metric / decimal}
; #@! TF.CreationDate,2021-08-01T20:36:28+02:00
; #@! TF.GenerationSoftware,Kicad,Pcbnew,(5.1.10)-1
; #@! TF.FileFunction,Plated,1,2,PTH
FMAT,2
METRIC
T1C0.200
T2C0.300
T3C0.400
T4C0.500
T5C0.600
T6C0.800
T7C0.850
T8C1.000
%
G90
G05
T1
X121.4Y-99.45
X123.9Y-104.75
X129.4Y-111.5
X129.6Y-103.7
X129.9Y-111.8
X130.55Y-111.1
X131.016Y-104.9
X131.1Y-111.1
X131.55Y-105.273
X131.65Y-111.1
X131.924Y-105.723
X131.95Y-101.15
X131.95Y-101.7
X132.15Y-102.25
X137.8Y-99.2
X138.1Y-100.75
X138.25Y-99.8
X138.75Y-99.35
X138.95Y-104.15
X139.1Y-101.3
X139.25Y-98.9
X139.45Y-101.85
X139.5Y-100.7
X139.65Y-102.45
X139.75Y-96.65
X139.9Y-102.95
X140.1Y-100.7
X140.2Y-104.8
X140.4Y-95.95
X140.4Y-106.5
X140.5Y-103.5
X140.65Y-100.7
X140.75Y-96.4
X140.9Y-106.2
X141.15Y-103.25
X141.5Y-104.25
X141.5Y-106.3
X141.7Y-106.864
X142.75Y-110.25
X143.85Y-108.05
X144.3Y-108.7
X144.75Y-109.35
X145.3Y-99.2
X145.9Y-103.75
T2
X119.0Y-99.25
X120.25Y-102.3
X124.3Y-96.55
X125.1Y-106.05
X126.3Y-106.05
X131.8Y-106.9
X132.7Y-108.35
X133.75Y-93.6
X133.8Y-108.7
X134.25Y-93.0
X134.8Y-92.4
X134.8Y-118.0
X135.25Y-94.2
X135.75Y-94.8
X136.25Y-95.4
X136.6Y-100.45
X136.6Y-105.4
X136.65Y-107.4
X136.7Y-99.6
X136.75Y-96.05
X137.25Y-96.65
X138.0Y-105.4
X138.47Y-107.41
X141.8Y-96.0
X142.15Y-90.701
X142.5Y-90.021
X142.85Y-89.35
X144.3Y-91.4
X144.65Y-92.106
X145.0Y-92.81
T3
X132.1Y-113.1
T4
X119.55Y-108.1
X123.0Y-94.2
X128.45Y-112.3
X130.0Y-92.55
X137.8Y-90.3
X146.1Y-109.675
X147.7Y-90.05
X147.89Y-100.9
X148.25Y-114.1
X153.05Y-105.9
T6
X165.35Y-101.05
X165.35Y-103.05
X165.35Y-105.05
X169.85Y-101.05
X169.85Y-103.05
X169.85Y-105.05
T7
X172.847Y-100.5
X172.847Y-105.4
T8
X111.81Y-84.985
X111.81Y-121.053
X113.4Y-95.95
X113.4Y-98.49
X113.4Y-101.03
X113.4Y-103.57
X113.4Y-106.11
X113.4Y-108.65
X113.4Y-111.19
X114.35Y-84.985
X114.35Y-121.053
X115.94Y-95.95
X115.94Y-98.49
X115.94Y-101.03
X115.94Y-103.57
X115.94Y-106.11
X115.94Y-108.65
X115.94Y-111.19
X116.89Y-84.985
X116.89Y-121.053
X119.43Y-84.985
X119.43Y-121.053
X121.45Y-91.05
X121.97Y-84.985
X121.97Y-121.053
X122.6Y-109.35
X122.6Y-113.0
X123.99Y-91.05
X124.51Y-84.985
X124.51Y-121.053
X125.14Y-109.35
X125.14Y-113.0
X126.53Y-91.05
X127.05Y-84.985
X127.05Y-121.053
X129.59Y-84.985
X129.59Y-121.053
X134.67Y-84.985
X134.67Y-121.053
X137.21Y-84.985
X137.21Y-121.053
X139.75Y-84.985
X139.75Y-121.053
X142.29Y-84.985
X142.29Y-121.053
X144.83Y-84.985
X144.83Y-121.053
X147.37Y-84.985
X147.37Y-121.053
X149.91Y-84.985
X149.91Y-121.053
X152.45Y-84.985
X152.45Y-121.053
X155.0Y-93.4
X155.0Y-97.0
X155.0Y-109.0
X155.0Y-112.6
X157.53Y-84.985
X157.53Y-121.053
X157.54Y-93.4
X157.54Y-97.0
X157.54Y-109.0
X157.54Y-112.6
X160.07Y-84.985
X160.07Y-121.053
X160.08Y-93.4
X160.08Y-97.0
X160.08Y-109.0
X160.08Y-112.6
X162.61Y-84.985
X162.61Y-121.053
X163.06Y-89.8
X165.15Y-84.985
X165.15Y-121.053
X165.6Y-89.8
X167.69Y-84.985
X167.69Y-121.053
X170.23Y-84.985
X170.23Y-121.053
X172.77Y-84.985
X172.77Y-121.053
X175.31Y-84.985
X175.31Y-121.053
T5
X175.197Y-99.35G85X175.897Y-99.35
G05
X175.897Y-106.55G85X175.197Y-106.55
G05
T0
M30
