M48
; DRILL file {KiCad (6.0.9)} date Thu Dec  8 08:41:50 2022
; FORMAT={-:-/ absolute / metric / decimal}
; #@! TF.CreationDate,2022-12-08T08:41:50+01:00
; #@! TF.GenerationSoftware,Kicad,Pcbnew,(6.0.9)
; #@! TF.FileFunction,Plated,1,2,PTH
FMAT,2
METRIC
; #@! TA.AperFunction,Plated,PTH,ViaDrill
T1C0.200
; #@! TA.AperFunction,Plated,PTH,ViaDrill
T2C0.300
; #@! TA.AperFunction,Plated,PTH,ViaDrill
T3C0.400
; #@! TA.AperFunction,Plated,PTH,ViaDrill
T4C0.500
; #@! TA.AperFunction,Plated,PTH,ComponentDrill
T5C0.600
; #@! TA.AperFunction,Plated,PTH,ComponentDrill
T6C0.850
; #@! TA.AperFunction,Plated,PTH,ComponentDrill
T7C1.000
; #@! TA.AperFunction,Plated,PTH,ComponentDrill
T8C1.190
%
G90
G05
T1
X77.47Y-74.549
X77.47Y-75.311
X77.47Y-76.073
X83.566Y-75.311
X86.614Y-74.93
X86.614Y-77.176
X87.249Y-73.914
X87.884Y-70.739
X88.406Y-75.184
X88.519Y-74.422
X88.773Y-76.073
X88.9Y-73.787
X89.535Y-63.754
X90.932Y-63.754
X91.846Y-76.733
X92.151Y-75.387
X92.202Y-63.754
X92.227Y-76.2
X92.761Y-73.152
X93.091Y-63.881
X93.421Y-73.152
X95.199Y-78.334
X95.733Y-78.86
X95.756Y-77.807
X96.215Y-79.387
X96.291Y-77.281
X96.681Y-79.913
X97.155Y-80.442
X101.854Y-80.442
X102.743Y-73.66
X103.505Y-76.733
X103.519Y-79.387
X103.6Y-77.807
X105.816Y-59.893
X106.306Y-68.377
X106.375Y-60.452
X106.832Y-65.43
X108.772Y-73.501
X108.954Y-64.255
X109.169Y-67.005
X109.347Y-70.485
X109.604Y-64.262
X109.728Y-75.057
X110.254Y-67.056
X110.896Y-61.214
X111.684Y-61.519
X113.97Y-74.676
X114.503Y-74.138
X114.656Y-70.663
X114.681Y-66.517
X114.706Y-61.519
X114.968Y-71.242
X115.011Y-78.918
X115.018Y-73.635
X115.018Y-75.209
X115.087Y-65.989
X115.189Y-68.961
X115.367Y-71.755
X115.443Y-67.589
X115.545Y-72.644
X115.551Y-77.902
X115.57Y-69.611
X115.57Y-80.67
X115.617Y-65.517
X116.18Y-80.975
X116.713Y-67.573
X117.234Y-83.883
X118.11Y-76.962
T2
X69.342Y-68.326
X71.882Y-69.337
X71.882Y-74.162
X73.279Y-77.597
X87.478Y-79.045
X90.78Y-79.096
X106.045Y-79.502
X111.455Y-83.617
X112.674Y-77.521
X112.776Y-68.326
X113.538Y-80.645
X118.237Y-63.246
X118.364Y-69.088
X118.872Y-71.12
X119.126Y-68.072
X119.634Y-76.2
X119.888Y-62.23
X127.0Y-63.5
X127.127Y-66.04
X127.127Y-68.58
X127.127Y-71.12
X127.127Y-73.66
X127.127Y-76.2
T3
X77.47Y-79.121
X83.566Y-70.739
X92.354Y-69.596
X96.52Y-72.009
X97.028Y-87.884
X104.013Y-73.533
X104.521Y-71.12
X107.569Y-64.364
X107.569Y-73.508
X109.55Y-80.772
X113.293Y-73.295
T4
X70.866Y-58.166
X71.247Y-56.515
X71.247Y-59.69
X72.517Y-56.515
X72.517Y-59.69
X72.517Y-61.976
X73.406Y-65.151
X73.787Y-56.515
X73.787Y-59.69
X73.787Y-81.915
X77.47Y-55.753
X82.423Y-79.629
X83.947Y-84.455
X92.05Y-56.083
X95.047Y-55.982
X97.536Y-66.04
X106.68Y-86.106
X106.705Y-83.693
X108.204Y-58.547
X111.887Y-51.943
X118.237Y-58.547
X119.507Y-56.007
T6
X67.706Y-67.4
X67.706Y-72.3
T7
X85.842Y-58.166
X88.382Y-58.166
X90.922Y-58.166
X93.462Y-58.166
X121.92Y-62.23
X121.92Y-64.77
X121.92Y-67.31
X121.92Y-69.85
X121.92Y-72.39
X121.92Y-74.93
X121.92Y-77.47
X124.46Y-62.23
X124.46Y-64.77
X124.46Y-67.31
X124.46Y-69.85
X124.46Y-72.39
X124.46Y-74.93
X124.46Y-77.47
T8
X99.695Y-66.04
X99.695Y-68.58
X99.695Y-71.12
X99.695Y-73.66
T5
X64.656Y-66.25G85X65.356Y-66.25
G05
X65.356Y-73.45G85X64.656Y-73.45
G05
T0
M30
