%TF.GenerationSoftware,KiCad,Pcbnew,(6.0.9)*%
%TF.CreationDate,2022-12-08T08:41:51+01:00*%
%TF.ProjectId,STLinkForm,53544c69-6e6b-4466-9f72-6d2e6b696361,rev?*%
%TF.SameCoordinates,Original*%
%TF.FileFunction,Drillmap*%
%TF.FilePolarity,Positive*%
%FSLAX45Y45*%
G04 Gerber Fmt 4.5, Leading zero omitted, Abs format (unit mm)*
G04 Created by KiCad (PCBNEW (6.0.9)) date 2022-12-08 08:41:51*
%MOMM*%
%LPD*%
G01*
G04 APERTURE LIST*
%ADD10C,0.050000*%
%ADD11C,0.200000*%
%ADD12C,0.020000*%
%ADD13C,0.030000*%
%ADD14C,0.040000*%
%ADD15C,0.060000*%
%ADD16C,0.085000*%
%ADD17C,0.100000*%
%ADD18C,0.119000*%
G04 APERTURE END LIST*
D10*
X6350000Y-7543800D02*
X6350000Y-6426200D01*
X12573000Y-5334000D02*
X11176000Y-5080000D01*
X6350000Y-6426200D02*
X6400800Y-6172200D01*
X6400800Y-7797800D02*
X6350000Y-7543800D01*
X11176000Y-8890000D02*
X12573000Y-8636000D01*
X8890000Y-8890000D02*
X7620000Y-8636000D01*
X13462000Y-5588000D02*
X12573000Y-5334000D01*
X12573000Y-8636000D02*
X13462000Y-8382000D01*
X6604000Y-8382000D02*
X6477000Y-8255000D01*
X13462000Y-8382000D02*
X13589000Y-8255000D01*
X13589000Y-5715000D02*
X13462000Y-5588000D01*
X6604000Y-5588000D02*
X7620000Y-5334000D01*
X13639800Y-7975600D02*
X13589000Y-8255000D01*
X6426200Y-5994400D02*
X6477000Y-5715000D01*
X6426200Y-7975600D02*
X6477000Y-8255000D01*
X13589000Y-5715000D02*
X13639800Y-5994400D01*
X11176000Y-8890000D02*
X8890000Y-8890000D01*
X13716000Y-6426200D02*
X13716000Y-7543800D01*
X13716000Y-6426200D02*
X13665200Y-6172200D01*
X13525500Y-7975600D02*
X13639800Y-7975600D01*
X13665200Y-7797800D02*
X13525500Y-7797800D01*
X8890000Y-5080000D02*
X7620000Y-5334000D01*
X13525500Y-6172200D02*
X13525500Y-5994400D01*
X6540500Y-6172200D02*
X6540500Y-5994400D01*
X6540500Y-7797800D02*
X6540500Y-7975600D01*
X6540500Y-5994400D02*
X6426200Y-5994400D01*
X13665200Y-7797800D02*
X13716000Y-7543800D01*
X7620000Y-8636000D02*
X6604000Y-8382000D01*
X6400800Y-6172200D02*
X6540500Y-6172200D01*
X6540500Y-7975600D02*
X6426200Y-7975600D01*
X8890000Y-5080000D02*
X11176000Y-5080000D01*
X6400800Y-7797800D02*
X6540500Y-7797800D01*
X13525500Y-7797800D02*
X13525500Y-7975600D01*
X13665200Y-6172200D02*
X13525500Y-6172200D01*
X13525500Y-5994400D02*
X13639800Y-5994400D01*
X6477000Y-5715000D02*
X6604000Y-5588000D01*
D11*
D12*
X7737000Y-7444900D02*
X7757000Y-7464900D01*
X7757000Y-7444900D02*
X7737000Y-7464900D01*
X7737000Y-7521100D02*
X7757000Y-7541100D01*
X7757000Y-7521100D02*
X7737000Y-7541100D01*
X7737000Y-7597300D02*
X7757000Y-7617300D01*
X7757000Y-7597300D02*
X7737000Y-7617300D01*
X8346600Y-7521100D02*
X8366600Y-7541100D01*
X8366600Y-7521100D02*
X8346600Y-7541100D01*
X8651400Y-7483000D02*
X8671400Y-7503000D01*
X8671400Y-7483000D02*
X8651400Y-7503000D01*
X8651400Y-7707650D02*
X8671400Y-7727650D01*
X8671400Y-7707650D02*
X8651400Y-7727650D01*
X8714900Y-7381400D02*
X8734900Y-7401400D01*
X8734900Y-7381400D02*
X8714900Y-7401400D01*
X8778400Y-7063900D02*
X8798400Y-7083900D01*
X8798400Y-7063900D02*
X8778400Y-7083900D01*
X8830650Y-7508400D02*
X8850650Y-7528400D01*
X8850650Y-7508400D02*
X8830650Y-7528400D01*
X8841900Y-7432200D02*
X8861900Y-7452200D01*
X8861900Y-7432200D02*
X8841900Y-7452200D01*
X8867300Y-7597300D02*
X8887300Y-7617300D01*
X8887300Y-7597300D02*
X8867300Y-7617300D01*
X8880000Y-7368700D02*
X8900000Y-7388700D01*
X8900000Y-7368700D02*
X8880000Y-7388700D01*
X8943500Y-6365400D02*
X8963500Y-6385400D01*
X8963500Y-6365400D02*
X8943500Y-6385400D01*
X9083200Y-6365400D02*
X9103200Y-6385400D01*
X9103200Y-6365400D02*
X9083200Y-6385400D01*
X9174640Y-7663340D02*
X9194640Y-7683340D01*
X9194640Y-7663340D02*
X9174640Y-7683340D01*
X9205120Y-7528720D02*
X9225120Y-7548720D01*
X9225120Y-7528720D02*
X9205120Y-7548720D01*
X9210200Y-6365400D02*
X9230200Y-6385400D01*
X9230200Y-6365400D02*
X9210200Y-6385400D01*
X9212740Y-7610000D02*
X9232740Y-7630000D01*
X9232740Y-7610000D02*
X9212740Y-7630000D01*
X9266080Y-7305200D02*
X9286080Y-7325200D01*
X9286080Y-7305200D02*
X9266080Y-7325200D01*
X9299100Y-6378100D02*
X9319100Y-6398100D01*
X9319100Y-6378100D02*
X9299100Y-6398100D01*
X9332120Y-7305200D02*
X9352120Y-7325200D01*
X9352120Y-7305200D02*
X9332120Y-7325200D01*
X9509920Y-7823360D02*
X9529920Y-7843360D01*
X9529920Y-7823360D02*
X9509920Y-7843360D01*
X9563260Y-7876010D02*
X9583260Y-7896010D01*
X9583260Y-7876010D02*
X9563260Y-7896010D01*
X9565614Y-7770710D02*
X9585614Y-7790710D01*
X9585614Y-7770710D02*
X9565614Y-7790710D01*
X9611520Y-7928660D02*
X9631520Y-7948660D01*
X9631520Y-7928660D02*
X9611520Y-7948660D01*
X9619140Y-7718060D02*
X9639140Y-7738060D01*
X9639140Y-7718060D02*
X9619140Y-7738060D01*
X9658068Y-7981310D02*
X9678068Y-8001310D01*
X9678068Y-7981310D02*
X9658068Y-8001310D01*
X9705500Y-8034180D02*
X9725500Y-8054180D01*
X9725500Y-8034180D02*
X9705500Y-8054180D01*
X10175400Y-8034180D02*
X10195400Y-8054180D01*
X10195400Y-8034180D02*
X10175400Y-8054180D01*
X10264300Y-7356000D02*
X10284300Y-7376000D01*
X10284300Y-7356000D02*
X10264300Y-7376000D01*
X10340500Y-7663340D02*
X10360500Y-7683340D01*
X10360500Y-7663340D02*
X10340500Y-7683340D01*
X10341880Y-7928660D02*
X10361880Y-7948660D01*
X10361880Y-7928660D02*
X10341880Y-7948660D01*
X10349970Y-7770710D02*
X10369970Y-7790710D01*
X10369970Y-7770710D02*
X10349970Y-7790710D01*
X10571640Y-5979320D02*
X10591640Y-5999320D01*
X10591640Y-5979320D02*
X10571640Y-5999320D01*
X10620590Y-6827680D02*
X10640590Y-6847680D01*
X10640590Y-6827680D02*
X10620590Y-6847680D01*
X10627520Y-6035200D02*
X10647520Y-6055200D01*
X10647520Y-6035200D02*
X10627520Y-6055200D01*
X10673240Y-6533040D02*
X10693240Y-6553040D01*
X10693240Y-6533040D02*
X10673240Y-6553040D01*
X10867250Y-7340070D02*
X10887250Y-7360070D01*
X10887250Y-7340070D02*
X10867250Y-7360070D01*
X10885450Y-6415451D02*
X10905450Y-6435451D01*
X10905450Y-6415451D02*
X10885450Y-6435451D01*
X10906920Y-6690520D02*
X10926920Y-6710520D01*
X10926920Y-6690520D02*
X10906920Y-6710520D01*
X10924700Y-7038500D02*
X10944700Y-7058500D01*
X10944700Y-7038500D02*
X10924700Y-7058500D01*
X10950396Y-6416234D02*
X10970396Y-6436234D01*
X10970396Y-6416234D02*
X10950396Y-6436234D01*
X10962800Y-7495700D02*
X10982800Y-7515700D01*
X10982800Y-7495700D02*
X10962800Y-7515700D01*
X11015450Y-6695600D02*
X11035450Y-6715600D01*
X11035450Y-6695600D02*
X11015450Y-6715600D01*
X11079640Y-6111400D02*
X11099640Y-6131400D01*
X11099640Y-6111400D02*
X11079640Y-6131400D01*
X11158380Y-6141880D02*
X11178380Y-6161880D01*
X11178380Y-6141880D02*
X11158380Y-6161880D01*
X11386980Y-7457600D02*
X11406980Y-7477600D01*
X11406980Y-7457600D02*
X11386980Y-7477600D01*
X11440320Y-7403750D02*
X11460320Y-7423750D01*
X11460320Y-7403750D02*
X11440320Y-7423750D01*
X11455560Y-7056280D02*
X11475560Y-7076280D01*
X11475560Y-7056280D02*
X11455560Y-7076280D01*
X11458100Y-6641750D02*
X11478100Y-6661750D01*
X11478100Y-6641750D02*
X11458100Y-6661750D01*
X11460640Y-6141880D02*
X11480640Y-6161880D01*
X11480640Y-6141880D02*
X11460640Y-6161880D01*
X11486804Y-7114231D02*
X11506804Y-7134231D01*
X11506804Y-7114231D02*
X11486804Y-7134231D01*
X11491120Y-7881780D02*
X11511120Y-7901780D01*
X11511120Y-7881780D02*
X11491120Y-7901780D01*
X11491810Y-7353460D02*
X11511810Y-7373460D01*
X11511810Y-7353460D02*
X11491810Y-7373460D01*
X11491810Y-7510940D02*
X11511810Y-7530940D01*
X11511810Y-7510940D02*
X11491810Y-7530940D01*
X11498740Y-6588920D02*
X11518740Y-6608920D01*
X11518740Y-6588920D02*
X11498740Y-6608920D01*
X11508900Y-6886100D02*
X11528900Y-6906100D01*
X11528900Y-6886100D02*
X11508900Y-6906100D01*
X11526680Y-7165500D02*
X11546680Y-7185500D01*
X11546680Y-7165500D02*
X11526680Y-7185500D01*
X11534300Y-6748940D02*
X11554300Y-6768940D01*
X11554300Y-6748940D02*
X11534300Y-6768940D01*
X11544460Y-7254400D02*
X11564460Y-7274400D01*
X11564460Y-7254400D02*
X11544460Y-7274400D01*
X11545150Y-7780180D02*
X11565150Y-7800180D01*
X11565150Y-7780180D02*
X11545150Y-7800180D01*
X11547000Y-6951050D02*
X11567000Y-6971050D01*
X11567000Y-6951050D02*
X11547000Y-6971050D01*
X11547000Y-8057040D02*
X11567000Y-8077040D01*
X11567000Y-8057040D02*
X11547000Y-8077040D01*
X11551700Y-6541750D02*
X11571700Y-6561750D01*
X11571700Y-6541750D02*
X11551700Y-6561750D01*
X11607960Y-8087520D02*
X11627960Y-8107520D01*
X11627960Y-8087520D02*
X11607960Y-8107520D01*
X11661300Y-6747280D02*
X11681300Y-6767280D01*
X11681300Y-6747280D02*
X11661300Y-6767280D01*
X11713370Y-8378350D02*
X11733370Y-8398350D01*
X11733370Y-8378350D02*
X11713370Y-8398350D01*
X11801000Y-7686200D02*
X11821000Y-7706200D01*
X11821000Y-7686200D02*
X11801000Y-7706200D01*
D13*
X6949200Y-6832600D02*
G75*
G03*
X6949200Y-6832600I-15000J0D01*
G01*
X7203200Y-6933650D02*
G75*
G03*
X7203200Y-6933650I-15000J0D01*
G01*
X7203200Y-7416250D02*
G75*
G03*
X7203200Y-7416250I-15000J0D01*
G01*
X7342900Y-7759700D02*
G75*
G03*
X7342900Y-7759700I-15000J0D01*
G01*
X8762760Y-7904480D02*
G75*
G03*
X8762760Y-7904480I-15000J0D01*
G01*
X9092960Y-7909560D02*
G75*
G03*
X9092960Y-7909560I-15000J0D01*
G01*
X10619500Y-7950200D02*
G75*
G03*
X10619500Y-7950200I-15000J0D01*
G01*
X11160520Y-8361680D02*
G75*
G03*
X11160520Y-8361680I-15000J0D01*
G01*
X11282440Y-7752080D02*
G75*
G03*
X11282440Y-7752080I-15000J0D01*
G01*
X11292600Y-6832600D02*
G75*
G03*
X11292600Y-6832600I-15000J0D01*
G01*
X11368800Y-8064500D02*
G75*
G03*
X11368800Y-8064500I-15000J0D01*
G01*
X11838700Y-6324600D02*
G75*
G03*
X11838700Y-6324600I-15000J0D01*
G01*
X11851400Y-6908800D02*
G75*
G03*
X11851400Y-6908800I-15000J0D01*
G01*
X11902200Y-7112000D02*
G75*
G03*
X11902200Y-7112000I-15000J0D01*
G01*
X11927600Y-6807200D02*
G75*
G03*
X11927600Y-6807200I-15000J0D01*
G01*
X11978400Y-7620000D02*
G75*
G03*
X11978400Y-7620000I-15000J0D01*
G01*
X12003800Y-6223000D02*
G75*
G03*
X12003800Y-6223000I-15000J0D01*
G01*
X12715000Y-6350000D02*
G75*
G03*
X12715000Y-6350000I-15000J0D01*
G01*
X12727700Y-6604000D02*
G75*
G03*
X12727700Y-6604000I-15000J0D01*
G01*
X12727700Y-6858000D02*
G75*
G03*
X12727700Y-6858000I-15000J0D01*
G01*
X12727700Y-7112000D02*
G75*
G03*
X12727700Y-7112000I-15000J0D01*
G01*
X12727700Y-7366000D02*
G75*
G03*
X12727700Y-7366000I-15000J0D01*
G01*
X12727700Y-7620000D02*
G75*
G03*
X12727700Y-7620000I-15000J0D01*
G01*
D14*
X7747000Y-7892100D02*
X7747000Y-7932100D01*
X7727000Y-7912100D02*
X7767000Y-7912100D01*
X8356600Y-7053900D02*
X8356600Y-7093900D01*
X8336600Y-7073900D02*
X8376600Y-7073900D01*
X9235440Y-6939600D02*
X9235440Y-6979600D01*
X9215440Y-6959600D02*
X9255440Y-6959600D01*
X9652000Y-7180900D02*
X9652000Y-7220900D01*
X9632000Y-7200900D02*
X9672000Y-7200900D01*
X9702800Y-8768400D02*
X9702800Y-8808400D01*
X9682800Y-8788400D02*
X9722800Y-8788400D01*
X10401300Y-7333300D02*
X10401300Y-7373300D01*
X10381300Y-7353300D02*
X10421300Y-7353300D01*
X10452100Y-7092000D02*
X10452100Y-7132000D01*
X10432100Y-7112000D02*
X10472100Y-7112000D01*
X10756900Y-6416360D02*
X10756900Y-6456360D01*
X10736900Y-6436360D02*
X10776900Y-6436360D01*
X10756900Y-7330760D02*
X10756900Y-7370760D01*
X10736900Y-7350760D02*
X10776900Y-7350760D01*
X10955020Y-8057200D02*
X10955020Y-8097200D01*
X10935020Y-8077200D02*
X10975020Y-8077200D01*
X11329330Y-7309545D02*
X11329330Y-7349545D01*
X11309330Y-7329545D02*
X11349330Y-7329545D01*
D10*
X7104278Y-5834278D02*
X7104278Y-5798922D01*
X7068922Y-5798922D01*
X7068922Y-5834278D01*
X7104278Y-5834278D01*
X7142378Y-5669178D02*
X7142378Y-5633822D01*
X7107022Y-5633822D01*
X7107022Y-5669178D01*
X7142378Y-5669178D01*
X7142378Y-5986678D02*
X7142378Y-5951322D01*
X7107022Y-5951322D01*
X7107022Y-5986678D01*
X7142378Y-5986678D01*
X7269378Y-5669178D02*
X7269378Y-5633822D01*
X7234022Y-5633822D01*
X7234022Y-5669178D01*
X7269378Y-5669178D01*
X7269378Y-5986678D02*
X7269378Y-5951322D01*
X7234022Y-5951322D01*
X7234022Y-5986678D01*
X7269378Y-5986678D01*
X7269378Y-6215278D02*
X7269378Y-6179922D01*
X7234022Y-6179922D01*
X7234022Y-6215278D01*
X7269378Y-6215278D01*
X7358278Y-6532778D02*
X7358278Y-6497422D01*
X7322922Y-6497422D01*
X7322922Y-6532778D01*
X7358278Y-6532778D01*
X7396378Y-5669178D02*
X7396378Y-5633822D01*
X7361022Y-5633822D01*
X7361022Y-5669178D01*
X7396378Y-5669178D01*
X7396378Y-5986678D02*
X7396378Y-5951322D01*
X7361022Y-5951322D01*
X7361022Y-5986678D01*
X7396378Y-5986678D01*
X7396378Y-8209178D02*
X7396378Y-8173822D01*
X7361022Y-8173822D01*
X7361022Y-8209178D01*
X7396378Y-8209178D01*
X7764678Y-5592978D02*
X7764678Y-5557622D01*
X7729322Y-5557622D01*
X7729322Y-5592978D01*
X7764678Y-5592978D01*
X8259978Y-7980578D02*
X8259978Y-7945222D01*
X8224622Y-7945222D01*
X8224622Y-7980578D01*
X8259978Y-7980578D01*
X8412378Y-8463178D02*
X8412378Y-8427822D01*
X8377022Y-8427822D01*
X8377022Y-8463178D01*
X8412378Y-8463178D01*
X9222638Y-5625998D02*
X9222638Y-5590642D01*
X9187282Y-5590642D01*
X9187282Y-5625998D01*
X9222638Y-5625998D01*
X9522358Y-5615838D02*
X9522358Y-5580482D01*
X9487002Y-5580482D01*
X9487002Y-5615838D01*
X9522358Y-5615838D01*
X9771278Y-6621678D02*
X9771278Y-6586322D01*
X9735922Y-6586322D01*
X9735922Y-6621678D01*
X9771278Y-6621678D01*
X10685678Y-8628278D02*
X10685678Y-8592922D01*
X10650322Y-8592922D01*
X10650322Y-8628278D01*
X10685678Y-8628278D01*
X10688218Y-8386978D02*
X10688218Y-8351622D01*
X10652862Y-8351622D01*
X10652862Y-8386978D01*
X10688218Y-8386978D01*
X10838078Y-5872378D02*
X10838078Y-5837022D01*
X10802722Y-5837022D01*
X10802722Y-5872378D01*
X10838078Y-5872378D01*
X11206378Y-5211978D02*
X11206378Y-5176622D01*
X11171022Y-5176622D01*
X11171022Y-5211978D01*
X11206378Y-5211978D01*
X11841378Y-5872378D02*
X11841378Y-5837022D01*
X11806022Y-5837022D01*
X11806022Y-5872378D01*
X11841378Y-5872378D01*
X11968378Y-5618378D02*
X11968378Y-5583022D01*
X11933022Y-5583022D01*
X11933022Y-5618378D01*
X11968378Y-5618378D01*
D15*
X6500570Y-6655000D02*
X6530570Y-6625000D01*
X6500570Y-6595000D01*
X6470570Y-6625000D01*
X6500570Y-6655000D01*
D11*
X6465570Y-6655000D02*
X6535570Y-6655000D01*
X6465570Y-6595000D02*
X6535570Y-6595000D01*
X6535570Y-6655000D02*
G75*
G03*
X6535570Y-6595000I0J30000D01*
G01*
X6465570Y-6595000D02*
G75*
G03*
X6465570Y-6655000I0J-30000D01*
G01*
D15*
X6500570Y-7375000D02*
X6530570Y-7345000D01*
X6500570Y-7315000D01*
X6470570Y-7345000D01*
X6500570Y-7375000D01*
D11*
X6535570Y-7315000D02*
X6465570Y-7315000D01*
X6535570Y-7375000D02*
X6465570Y-7375000D01*
X6465570Y-7315000D02*
G75*
G03*
X6465570Y-7375000I0J-30000D01*
G01*
X6535570Y-7375000D02*
G75*
G03*
X6535570Y-7315000I0J30000D01*
G01*
D16*
X6728070Y-6697500D02*
X6813070Y-6782500D01*
X6813070Y-6697500D02*
X6728070Y-6782500D01*
X6813070Y-6740000D02*
G75*
G03*
X6813070Y-6740000I-42500J0D01*
G01*
X6728070Y-7187500D02*
X6813070Y-7272500D01*
X6813070Y-7187500D02*
X6728070Y-7272500D01*
X6813070Y-7230000D02*
G75*
G03*
X6813070Y-7230000I-42500J0D01*
G01*
D17*
X8534200Y-5766600D02*
X8634200Y-5866600D01*
X8634200Y-5766600D02*
X8534200Y-5866600D01*
X8584200Y-5766600D02*
X8584200Y-5866600D01*
X8534200Y-5816600D02*
X8634200Y-5816600D01*
X8788200Y-5766600D02*
X8888200Y-5866600D01*
X8888200Y-5766600D02*
X8788200Y-5866600D01*
X8838200Y-5766600D02*
X8838200Y-5866600D01*
X8788200Y-5816600D02*
X8888200Y-5816600D01*
X9042200Y-5766600D02*
X9142200Y-5866600D01*
X9142200Y-5766600D02*
X9042200Y-5866600D01*
X9092200Y-5766600D02*
X9092200Y-5866600D01*
X9042200Y-5816600D02*
X9142200Y-5816600D01*
X9296200Y-5766600D02*
X9396200Y-5866600D01*
X9396200Y-5766600D02*
X9296200Y-5866600D01*
X9346200Y-5766600D02*
X9346200Y-5866600D01*
X9296200Y-5816600D02*
X9396200Y-5816600D01*
X12142000Y-6173000D02*
X12242000Y-6273000D01*
X12242000Y-6173000D02*
X12142000Y-6273000D01*
X12192000Y-6173000D02*
X12192000Y-6273000D01*
X12142000Y-6223000D02*
X12242000Y-6223000D01*
X12142000Y-6427000D02*
X12242000Y-6527000D01*
X12242000Y-6427000D02*
X12142000Y-6527000D01*
X12192000Y-6427000D02*
X12192000Y-6527000D01*
X12142000Y-6477000D02*
X12242000Y-6477000D01*
X12142000Y-6681000D02*
X12242000Y-6781000D01*
X12242000Y-6681000D02*
X12142000Y-6781000D01*
X12192000Y-6681000D02*
X12192000Y-6781000D01*
X12142000Y-6731000D02*
X12242000Y-6731000D01*
X12142000Y-6935000D02*
X12242000Y-7035000D01*
X12242000Y-6935000D02*
X12142000Y-7035000D01*
X12192000Y-6935000D02*
X12192000Y-7035000D01*
X12142000Y-6985000D02*
X12242000Y-6985000D01*
X12142000Y-7189000D02*
X12242000Y-7289000D01*
X12242000Y-7189000D02*
X12142000Y-7289000D01*
X12192000Y-7189000D02*
X12192000Y-7289000D01*
X12142000Y-7239000D02*
X12242000Y-7239000D01*
X12142000Y-7443000D02*
X12242000Y-7543000D01*
X12242000Y-7443000D02*
X12142000Y-7543000D01*
X12192000Y-7443000D02*
X12192000Y-7543000D01*
X12142000Y-7493000D02*
X12242000Y-7493000D01*
X12142000Y-7697000D02*
X12242000Y-7797000D01*
X12242000Y-7697000D02*
X12142000Y-7797000D01*
X12192000Y-7697000D02*
X12192000Y-7797000D01*
X12142000Y-7747000D02*
X12242000Y-7747000D01*
X12396000Y-6173000D02*
X12496000Y-6273000D01*
X12496000Y-6173000D02*
X12396000Y-6273000D01*
X12446000Y-6173000D02*
X12446000Y-6273000D01*
X12396000Y-6223000D02*
X12496000Y-6223000D01*
X12396000Y-6427000D02*
X12496000Y-6527000D01*
X12496000Y-6427000D02*
X12396000Y-6527000D01*
X12446000Y-6427000D02*
X12446000Y-6527000D01*
X12396000Y-6477000D02*
X12496000Y-6477000D01*
X12396000Y-6681000D02*
X12496000Y-6781000D01*
X12496000Y-6681000D02*
X12396000Y-6781000D01*
X12446000Y-6681000D02*
X12446000Y-6781000D01*
X12396000Y-6731000D02*
X12496000Y-6731000D01*
X12396000Y-6935000D02*
X12496000Y-7035000D01*
X12496000Y-6935000D02*
X12396000Y-7035000D01*
X12446000Y-6935000D02*
X12446000Y-7035000D01*
X12396000Y-6985000D02*
X12496000Y-6985000D01*
X12396000Y-7189000D02*
X12496000Y-7289000D01*
X12496000Y-7189000D02*
X12396000Y-7289000D01*
X12446000Y-7189000D02*
X12446000Y-7289000D01*
X12396000Y-7239000D02*
X12496000Y-7239000D01*
X12396000Y-7443000D02*
X12496000Y-7543000D01*
X12496000Y-7443000D02*
X12396000Y-7543000D01*
X12446000Y-7443000D02*
X12446000Y-7543000D01*
X12396000Y-7493000D02*
X12496000Y-7493000D01*
X12396000Y-7697000D02*
X12496000Y-7797000D01*
X12496000Y-7697000D02*
X12396000Y-7797000D01*
X12446000Y-7697000D02*
X12446000Y-7797000D01*
X12396000Y-7747000D02*
X12496000Y-7747000D01*
D18*
X9910000Y-6544500D02*
X10029000Y-6663500D01*
X10029000Y-6544500D02*
X9910000Y-6663500D01*
X10011573Y-6646073D02*
X10011573Y-6561927D01*
X9927427Y-6561927D01*
X9927427Y-6646073D01*
X10011573Y-6646073D01*
X9910000Y-6798500D02*
X10029000Y-6917500D01*
X10029000Y-6798500D02*
X9910000Y-6917500D01*
X10011573Y-6900073D02*
X10011573Y-6815927D01*
X9927427Y-6815927D01*
X9927427Y-6900073D01*
X10011573Y-6900073D01*
X9910000Y-7052500D02*
X10029000Y-7171500D01*
X10029000Y-7052500D02*
X9910000Y-7171500D01*
X10011573Y-7154073D02*
X10011573Y-7069927D01*
X9927427Y-7069927D01*
X9927427Y-7154073D01*
X10011573Y-7154073D01*
X9910000Y-7306500D02*
X10029000Y-7425500D01*
X10029000Y-7306500D02*
X9910000Y-7425500D01*
X10011573Y-7408073D02*
X10011573Y-7323927D01*
X9927427Y-7323927D01*
X9927427Y-7408073D01*
X10011573Y-7408073D01*
D11*
X6605119Y-9202976D02*
X6605119Y-9002976D01*
X6652738Y-9002976D01*
X6681309Y-9012500D01*
X6700357Y-9031548D01*
X6709881Y-9050595D01*
X6719405Y-9088690D01*
X6719405Y-9117262D01*
X6709881Y-9155357D01*
X6700357Y-9174405D01*
X6681309Y-9193452D01*
X6652738Y-9202976D01*
X6605119Y-9202976D01*
X6805119Y-9202976D02*
X6805119Y-9069643D01*
X6805119Y-9107738D02*
X6814643Y-9088690D01*
X6824167Y-9079167D01*
X6843214Y-9069643D01*
X6862262Y-9069643D01*
X6928928Y-9202976D02*
X6928928Y-9069643D01*
X6928928Y-9002976D02*
X6919405Y-9012500D01*
X6928928Y-9022024D01*
X6938452Y-9012500D01*
X6928928Y-9002976D01*
X6928928Y-9022024D01*
X7052738Y-9202976D02*
X7033690Y-9193452D01*
X7024167Y-9174405D01*
X7024167Y-9002976D01*
X7157500Y-9202976D02*
X7138452Y-9193452D01*
X7128928Y-9174405D01*
X7128928Y-9002976D01*
X7386071Y-9202976D02*
X7386071Y-9002976D01*
X7452738Y-9145833D01*
X7519405Y-9002976D01*
X7519405Y-9202976D01*
X7700357Y-9202976D02*
X7700357Y-9098214D01*
X7690833Y-9079167D01*
X7671786Y-9069643D01*
X7633690Y-9069643D01*
X7614643Y-9079167D01*
X7700357Y-9193452D02*
X7681309Y-9202976D01*
X7633690Y-9202976D01*
X7614643Y-9193452D01*
X7605119Y-9174405D01*
X7605119Y-9155357D01*
X7614643Y-9136310D01*
X7633690Y-9126786D01*
X7681309Y-9126786D01*
X7700357Y-9117262D01*
X7795595Y-9069643D02*
X7795595Y-9269643D01*
X7795595Y-9079167D02*
X7814643Y-9069643D01*
X7852738Y-9069643D01*
X7871786Y-9079167D01*
X7881309Y-9088690D01*
X7890833Y-9107738D01*
X7890833Y-9164881D01*
X7881309Y-9183929D01*
X7871786Y-9193452D01*
X7852738Y-9202976D01*
X7814643Y-9202976D01*
X7795595Y-9193452D01*
X7976548Y-9183929D02*
X7986071Y-9193452D01*
X7976548Y-9202976D01*
X7967024Y-9193452D01*
X7976548Y-9183929D01*
X7976548Y-9202976D01*
X7976548Y-9079167D02*
X7986071Y-9088690D01*
X7976548Y-9098214D01*
X7967024Y-9088690D01*
X7976548Y-9079167D01*
X7976548Y-9098214D01*
D12*
X6327500Y-9522500D02*
X6347500Y-9542500D01*
X6347500Y-9522500D02*
X6327500Y-9542500D01*
D11*
X6643214Y-9422976D02*
X6662262Y-9422976D01*
X6681309Y-9432500D01*
X6690833Y-9442024D01*
X6700357Y-9461071D01*
X6709881Y-9499167D01*
X6709881Y-9546786D01*
X6700357Y-9584881D01*
X6690833Y-9603929D01*
X6681309Y-9613452D01*
X6662262Y-9622976D01*
X6643214Y-9622976D01*
X6624167Y-9613452D01*
X6614643Y-9603929D01*
X6605119Y-9584881D01*
X6595595Y-9546786D01*
X6595595Y-9499167D01*
X6605119Y-9461071D01*
X6614643Y-9442024D01*
X6624167Y-9432500D01*
X6643214Y-9422976D01*
X6795595Y-9603929D02*
X6805119Y-9613452D01*
X6795595Y-9622976D01*
X6786071Y-9613452D01*
X6795595Y-9603929D01*
X6795595Y-9622976D01*
X6881309Y-9442024D02*
X6890833Y-9432500D01*
X6909881Y-9422976D01*
X6957500Y-9422976D01*
X6976548Y-9432500D01*
X6986071Y-9442024D01*
X6995595Y-9461071D01*
X6995595Y-9480119D01*
X6986071Y-9508690D01*
X6871786Y-9622976D01*
X6995595Y-9622976D01*
X7119405Y-9422976D02*
X7138452Y-9422976D01*
X7157500Y-9432500D01*
X7167024Y-9442024D01*
X7176548Y-9461071D01*
X7186071Y-9499167D01*
X7186071Y-9546786D01*
X7176548Y-9584881D01*
X7167024Y-9603929D01*
X7157500Y-9613452D01*
X7138452Y-9622976D01*
X7119405Y-9622976D01*
X7100357Y-9613452D01*
X7090833Y-9603929D01*
X7081309Y-9584881D01*
X7071786Y-9546786D01*
X7071786Y-9499167D01*
X7081309Y-9461071D01*
X7090833Y-9442024D01*
X7100357Y-9432500D01*
X7119405Y-9422976D01*
X7309881Y-9422976D02*
X7328928Y-9422976D01*
X7347976Y-9432500D01*
X7357500Y-9442024D01*
X7367024Y-9461071D01*
X7376548Y-9499167D01*
X7376548Y-9546786D01*
X7367024Y-9584881D01*
X7357500Y-9603929D01*
X7347976Y-9613452D01*
X7328928Y-9622976D01*
X7309881Y-9622976D01*
X7290833Y-9613452D01*
X7281309Y-9603929D01*
X7271786Y-9584881D01*
X7262262Y-9546786D01*
X7262262Y-9499167D01*
X7271786Y-9461071D01*
X7281309Y-9442024D01*
X7290833Y-9432500D01*
X7309881Y-9422976D01*
X7462262Y-9622976D02*
X7462262Y-9489643D01*
X7462262Y-9508690D02*
X7471786Y-9499167D01*
X7490833Y-9489643D01*
X7519405Y-9489643D01*
X7538452Y-9499167D01*
X7547976Y-9518214D01*
X7547976Y-9622976D01*
X7547976Y-9518214D02*
X7557500Y-9499167D01*
X7576548Y-9489643D01*
X7605119Y-9489643D01*
X7624167Y-9499167D01*
X7633690Y-9518214D01*
X7633690Y-9622976D01*
X7728928Y-9622976D02*
X7728928Y-9489643D01*
X7728928Y-9508690D02*
X7738452Y-9499167D01*
X7757500Y-9489643D01*
X7786071Y-9489643D01*
X7805119Y-9499167D01*
X7814643Y-9518214D01*
X7814643Y-9622976D01*
X7814643Y-9518214D02*
X7824167Y-9499167D01*
X7843214Y-9489643D01*
X7871786Y-9489643D01*
X7890833Y-9499167D01*
X7900357Y-9518214D01*
X7900357Y-9622976D01*
X8290833Y-9413452D02*
X8119405Y-9670595D01*
X8547976Y-9422976D02*
X8567024Y-9422976D01*
X8586071Y-9432500D01*
X8595595Y-9442024D01*
X8605119Y-9461071D01*
X8614643Y-9499167D01*
X8614643Y-9546786D01*
X8605119Y-9584881D01*
X8595595Y-9603929D01*
X8586071Y-9613452D01*
X8567024Y-9622976D01*
X8547976Y-9622976D01*
X8528929Y-9613452D01*
X8519405Y-9603929D01*
X8509881Y-9584881D01*
X8500357Y-9546786D01*
X8500357Y-9499167D01*
X8509881Y-9461071D01*
X8519405Y-9442024D01*
X8528929Y-9432500D01*
X8547976Y-9422976D01*
X8700357Y-9603929D02*
X8709881Y-9613452D01*
X8700357Y-9622976D01*
X8690833Y-9613452D01*
X8700357Y-9603929D01*
X8700357Y-9622976D01*
X8833690Y-9422976D02*
X8852738Y-9422976D01*
X8871786Y-9432500D01*
X8881310Y-9442024D01*
X8890833Y-9461071D01*
X8900357Y-9499167D01*
X8900357Y-9546786D01*
X8890833Y-9584881D01*
X8881310Y-9603929D01*
X8871786Y-9613452D01*
X8852738Y-9622976D01*
X8833690Y-9622976D01*
X8814643Y-9613452D01*
X8805119Y-9603929D01*
X8795595Y-9584881D01*
X8786071Y-9546786D01*
X8786071Y-9499167D01*
X8795595Y-9461071D01*
X8805119Y-9442024D01*
X8814643Y-9432500D01*
X8833690Y-9422976D01*
X9024167Y-9422976D02*
X9043214Y-9422976D01*
X9062262Y-9432500D01*
X9071786Y-9442024D01*
X9081310Y-9461071D01*
X9090833Y-9499167D01*
X9090833Y-9546786D01*
X9081310Y-9584881D01*
X9071786Y-9603929D01*
X9062262Y-9613452D01*
X9043214Y-9622976D01*
X9024167Y-9622976D01*
X9005119Y-9613452D01*
X8995595Y-9603929D01*
X8986071Y-9584881D01*
X8976548Y-9546786D01*
X8976548Y-9499167D01*
X8986071Y-9461071D01*
X8995595Y-9442024D01*
X9005119Y-9432500D01*
X9024167Y-9422976D01*
X9157500Y-9422976D02*
X9290833Y-9422976D01*
X9205119Y-9622976D01*
X9376548Y-9622976D02*
X9414643Y-9622976D01*
X9433690Y-9613452D01*
X9443214Y-9603929D01*
X9462262Y-9575357D01*
X9471786Y-9537262D01*
X9471786Y-9461071D01*
X9462262Y-9442024D01*
X9452738Y-9432500D01*
X9433690Y-9422976D01*
X9395595Y-9422976D01*
X9376548Y-9432500D01*
X9367024Y-9442024D01*
X9357500Y-9461071D01*
X9357500Y-9508690D01*
X9367024Y-9527738D01*
X9376548Y-9537262D01*
X9395595Y-9546786D01*
X9433690Y-9546786D01*
X9452738Y-9537262D01*
X9462262Y-9527738D01*
X9471786Y-9508690D01*
X9547976Y-9422976D02*
X9547976Y-9461071D01*
X9624167Y-9422976D02*
X9624167Y-9461071D01*
X9919405Y-9699167D02*
X9909881Y-9689643D01*
X9890833Y-9661071D01*
X9881310Y-9642024D01*
X9871786Y-9613452D01*
X9862262Y-9565833D01*
X9862262Y-9527738D01*
X9871786Y-9480119D01*
X9881310Y-9451548D01*
X9890833Y-9432500D01*
X9909881Y-9403929D01*
X9919405Y-9394405D01*
X10081310Y-9422976D02*
X10043214Y-9422976D01*
X10024167Y-9432500D01*
X10014643Y-9442024D01*
X9995595Y-9470595D01*
X9986071Y-9508690D01*
X9986071Y-9584881D01*
X9995595Y-9603929D01*
X10005119Y-9613452D01*
X10024167Y-9622976D01*
X10062262Y-9622976D01*
X10081310Y-9613452D01*
X10090833Y-9603929D01*
X10100357Y-9584881D01*
X10100357Y-9537262D01*
X10090833Y-9518214D01*
X10081310Y-9508690D01*
X10062262Y-9499167D01*
X10024167Y-9499167D01*
X10005119Y-9508690D01*
X9995595Y-9518214D01*
X9986071Y-9537262D01*
X10214643Y-9508690D02*
X10195595Y-9499167D01*
X10186071Y-9489643D01*
X10176548Y-9470595D01*
X10176548Y-9461071D01*
X10186071Y-9442024D01*
X10195595Y-9432500D01*
X10214643Y-9422976D01*
X10252738Y-9422976D01*
X10271786Y-9432500D01*
X10281310Y-9442024D01*
X10290833Y-9461071D01*
X10290833Y-9470595D01*
X10281310Y-9489643D01*
X10271786Y-9499167D01*
X10252738Y-9508690D01*
X10214643Y-9508690D01*
X10195595Y-9518214D01*
X10186071Y-9527738D01*
X10176548Y-9546786D01*
X10176548Y-9584881D01*
X10186071Y-9603929D01*
X10195595Y-9613452D01*
X10214643Y-9622976D01*
X10252738Y-9622976D01*
X10271786Y-9613452D01*
X10281310Y-9603929D01*
X10290833Y-9584881D01*
X10290833Y-9546786D01*
X10281310Y-9527738D01*
X10271786Y-9518214D01*
X10252738Y-9508690D01*
X10528929Y-9622976D02*
X10528929Y-9422976D01*
X10614643Y-9622976D02*
X10614643Y-9518214D01*
X10605119Y-9499167D01*
X10586071Y-9489643D01*
X10557500Y-9489643D01*
X10538452Y-9499167D01*
X10528929Y-9508690D01*
X10738452Y-9622976D02*
X10719405Y-9613452D01*
X10709881Y-9603929D01*
X10700357Y-9584881D01*
X10700357Y-9527738D01*
X10709881Y-9508690D01*
X10719405Y-9499167D01*
X10738452Y-9489643D01*
X10767024Y-9489643D01*
X10786071Y-9499167D01*
X10795595Y-9508690D01*
X10805119Y-9527738D01*
X10805119Y-9584881D01*
X10795595Y-9603929D01*
X10786071Y-9613452D01*
X10767024Y-9622976D01*
X10738452Y-9622976D01*
X10919405Y-9622976D02*
X10900357Y-9613452D01*
X10890833Y-9594405D01*
X10890833Y-9422976D01*
X11071786Y-9613452D02*
X11052738Y-9622976D01*
X11014643Y-9622976D01*
X10995595Y-9613452D01*
X10986071Y-9594405D01*
X10986071Y-9518214D01*
X10995595Y-9499167D01*
X11014643Y-9489643D01*
X11052738Y-9489643D01*
X11071786Y-9499167D01*
X11081310Y-9518214D01*
X11081310Y-9537262D01*
X10986071Y-9556310D01*
X11157500Y-9613452D02*
X11176548Y-9622976D01*
X11214643Y-9622976D01*
X11233690Y-9613452D01*
X11243214Y-9594405D01*
X11243214Y-9584881D01*
X11233690Y-9565833D01*
X11214643Y-9556310D01*
X11186071Y-9556310D01*
X11167024Y-9546786D01*
X11157500Y-9527738D01*
X11157500Y-9518214D01*
X11167024Y-9499167D01*
X11186071Y-9489643D01*
X11214643Y-9489643D01*
X11233690Y-9499167D01*
X11309881Y-9699167D02*
X11319405Y-9689643D01*
X11338452Y-9661071D01*
X11347976Y-9642024D01*
X11357500Y-9613452D01*
X11367024Y-9565833D01*
X11367024Y-9527738D01*
X11357500Y-9480119D01*
X11347976Y-9451548D01*
X11338452Y-9432500D01*
X11319405Y-9403929D01*
X11309881Y-9394405D01*
D13*
X6347500Y-9796500D02*
G75*
G03*
X6347500Y-9796500I-15000J0D01*
G01*
D11*
X6643214Y-9686976D02*
X6662262Y-9686976D01*
X6681309Y-9696500D01*
X6690833Y-9706024D01*
X6700357Y-9725071D01*
X6709881Y-9763167D01*
X6709881Y-9810786D01*
X6700357Y-9848881D01*
X6690833Y-9867929D01*
X6681309Y-9877452D01*
X6662262Y-9886976D01*
X6643214Y-9886976D01*
X6624167Y-9877452D01*
X6614643Y-9867929D01*
X6605119Y-9848881D01*
X6595595Y-9810786D01*
X6595595Y-9763167D01*
X6605119Y-9725071D01*
X6614643Y-9706024D01*
X6624167Y-9696500D01*
X6643214Y-9686976D01*
X6795595Y-9867929D02*
X6805119Y-9877452D01*
X6795595Y-9886976D01*
X6786071Y-9877452D01*
X6795595Y-9867929D01*
X6795595Y-9886976D01*
X6871786Y-9686976D02*
X6995595Y-9686976D01*
X6928928Y-9763167D01*
X6957500Y-9763167D01*
X6976548Y-9772690D01*
X6986071Y-9782214D01*
X6995595Y-9801262D01*
X6995595Y-9848881D01*
X6986071Y-9867929D01*
X6976548Y-9877452D01*
X6957500Y-9886976D01*
X6900357Y-9886976D01*
X6881309Y-9877452D01*
X6871786Y-9867929D01*
X7119405Y-9686976D02*
X7138452Y-9686976D01*
X7157500Y-9696500D01*
X7167024Y-9706024D01*
X7176548Y-9725071D01*
X7186071Y-9763167D01*
X7186071Y-9810786D01*
X7176548Y-9848881D01*
X7167024Y-9867929D01*
X7157500Y-9877452D01*
X7138452Y-9886976D01*
X7119405Y-9886976D01*
X7100357Y-9877452D01*
X7090833Y-9867929D01*
X7081309Y-9848881D01*
X7071786Y-9810786D01*
X7071786Y-9763167D01*
X7081309Y-9725071D01*
X7090833Y-9706024D01*
X7100357Y-9696500D01*
X7119405Y-9686976D01*
X7309881Y-9686976D02*
X7328928Y-9686976D01*
X7347976Y-9696500D01*
X7357500Y-9706024D01*
X7367024Y-9725071D01*
X7376548Y-9763167D01*
X7376548Y-9810786D01*
X7367024Y-9848881D01*
X7357500Y-9867929D01*
X7347976Y-9877452D01*
X7328928Y-9886976D01*
X7309881Y-9886976D01*
X7290833Y-9877452D01*
X7281309Y-9867929D01*
X7271786Y-9848881D01*
X7262262Y-9810786D01*
X7262262Y-9763167D01*
X7271786Y-9725071D01*
X7281309Y-9706024D01*
X7290833Y-9696500D01*
X7309881Y-9686976D01*
X7462262Y-9886976D02*
X7462262Y-9753643D01*
X7462262Y-9772690D02*
X7471786Y-9763167D01*
X7490833Y-9753643D01*
X7519405Y-9753643D01*
X7538452Y-9763167D01*
X7547976Y-9782214D01*
X7547976Y-9886976D01*
X7547976Y-9782214D02*
X7557500Y-9763167D01*
X7576548Y-9753643D01*
X7605119Y-9753643D01*
X7624167Y-9763167D01*
X7633690Y-9782214D01*
X7633690Y-9886976D01*
X7728928Y-9886976D02*
X7728928Y-9753643D01*
X7728928Y-9772690D02*
X7738452Y-9763167D01*
X7757500Y-9753643D01*
X7786071Y-9753643D01*
X7805119Y-9763167D01*
X7814643Y-9782214D01*
X7814643Y-9886976D01*
X7814643Y-9782214D02*
X7824167Y-9763167D01*
X7843214Y-9753643D01*
X7871786Y-9753643D01*
X7890833Y-9763167D01*
X7900357Y-9782214D01*
X7900357Y-9886976D01*
X8290833Y-9677452D02*
X8119405Y-9934595D01*
X8547976Y-9686976D02*
X8567024Y-9686976D01*
X8586071Y-9696500D01*
X8595595Y-9706024D01*
X8605119Y-9725071D01*
X8614643Y-9763167D01*
X8614643Y-9810786D01*
X8605119Y-9848881D01*
X8595595Y-9867929D01*
X8586071Y-9877452D01*
X8567024Y-9886976D01*
X8547976Y-9886976D01*
X8528929Y-9877452D01*
X8519405Y-9867929D01*
X8509881Y-9848881D01*
X8500357Y-9810786D01*
X8500357Y-9763167D01*
X8509881Y-9725071D01*
X8519405Y-9706024D01*
X8528929Y-9696500D01*
X8547976Y-9686976D01*
X8700357Y-9867929D02*
X8709881Y-9877452D01*
X8700357Y-9886976D01*
X8690833Y-9877452D01*
X8700357Y-9867929D01*
X8700357Y-9886976D01*
X8833690Y-9686976D02*
X8852738Y-9686976D01*
X8871786Y-9696500D01*
X8881310Y-9706024D01*
X8890833Y-9725071D01*
X8900357Y-9763167D01*
X8900357Y-9810786D01*
X8890833Y-9848881D01*
X8881310Y-9867929D01*
X8871786Y-9877452D01*
X8852738Y-9886976D01*
X8833690Y-9886976D01*
X8814643Y-9877452D01*
X8805119Y-9867929D01*
X8795595Y-9848881D01*
X8786071Y-9810786D01*
X8786071Y-9763167D01*
X8795595Y-9725071D01*
X8805119Y-9706024D01*
X8814643Y-9696500D01*
X8833690Y-9686976D01*
X9090833Y-9886976D02*
X8976548Y-9886976D01*
X9033690Y-9886976D02*
X9033690Y-9686976D01*
X9014643Y-9715548D01*
X8995595Y-9734595D01*
X8976548Y-9744119D01*
X9281310Y-9886976D02*
X9167024Y-9886976D01*
X9224167Y-9886976D02*
X9224167Y-9686976D01*
X9205119Y-9715548D01*
X9186071Y-9734595D01*
X9167024Y-9744119D01*
X9395595Y-9772690D02*
X9376548Y-9763167D01*
X9367024Y-9753643D01*
X9357500Y-9734595D01*
X9357500Y-9725071D01*
X9367024Y-9706024D01*
X9376548Y-9696500D01*
X9395595Y-9686976D01*
X9433690Y-9686976D01*
X9452738Y-9696500D01*
X9462262Y-9706024D01*
X9471786Y-9725071D01*
X9471786Y-9734595D01*
X9462262Y-9753643D01*
X9452738Y-9763167D01*
X9433690Y-9772690D01*
X9395595Y-9772690D01*
X9376548Y-9782214D01*
X9367024Y-9791738D01*
X9357500Y-9810786D01*
X9357500Y-9848881D01*
X9367024Y-9867929D01*
X9376548Y-9877452D01*
X9395595Y-9886976D01*
X9433690Y-9886976D01*
X9452738Y-9877452D01*
X9462262Y-9867929D01*
X9471786Y-9848881D01*
X9471786Y-9810786D01*
X9462262Y-9791738D01*
X9452738Y-9782214D01*
X9433690Y-9772690D01*
X9547976Y-9686976D02*
X9547976Y-9725071D01*
X9624167Y-9686976D02*
X9624167Y-9725071D01*
X9919405Y-9963167D02*
X9909881Y-9953643D01*
X9890833Y-9925071D01*
X9881310Y-9906024D01*
X9871786Y-9877452D01*
X9862262Y-9829833D01*
X9862262Y-9791738D01*
X9871786Y-9744119D01*
X9881310Y-9715548D01*
X9890833Y-9696500D01*
X9909881Y-9667929D01*
X9919405Y-9658405D01*
X9986071Y-9706024D02*
X9995595Y-9696500D01*
X10014643Y-9686976D01*
X10062262Y-9686976D01*
X10081310Y-9696500D01*
X10090833Y-9706024D01*
X10100357Y-9725071D01*
X10100357Y-9744119D01*
X10090833Y-9772690D01*
X9976548Y-9886976D01*
X10100357Y-9886976D01*
X10167024Y-9686976D02*
X10290833Y-9686976D01*
X10224167Y-9763167D01*
X10252738Y-9763167D01*
X10271786Y-9772690D01*
X10281310Y-9782214D01*
X10290833Y-9801262D01*
X10290833Y-9848881D01*
X10281310Y-9867929D01*
X10271786Y-9877452D01*
X10252738Y-9886976D01*
X10195595Y-9886976D01*
X10176548Y-9877452D01*
X10167024Y-9867929D01*
X10528929Y-9886976D02*
X10528929Y-9686976D01*
X10614643Y-9886976D02*
X10614643Y-9782214D01*
X10605119Y-9763167D01*
X10586071Y-9753643D01*
X10557500Y-9753643D01*
X10538452Y-9763167D01*
X10528929Y-9772690D01*
X10738452Y-9886976D02*
X10719405Y-9877452D01*
X10709881Y-9867929D01*
X10700357Y-9848881D01*
X10700357Y-9791738D01*
X10709881Y-9772690D01*
X10719405Y-9763167D01*
X10738452Y-9753643D01*
X10767024Y-9753643D01*
X10786071Y-9763167D01*
X10795595Y-9772690D01*
X10805119Y-9791738D01*
X10805119Y-9848881D01*
X10795595Y-9867929D01*
X10786071Y-9877452D01*
X10767024Y-9886976D01*
X10738452Y-9886976D01*
X10919405Y-9886976D02*
X10900357Y-9877452D01*
X10890833Y-9858405D01*
X10890833Y-9686976D01*
X11071786Y-9877452D02*
X11052738Y-9886976D01*
X11014643Y-9886976D01*
X10995595Y-9877452D01*
X10986071Y-9858405D01*
X10986071Y-9782214D01*
X10995595Y-9763167D01*
X11014643Y-9753643D01*
X11052738Y-9753643D01*
X11071786Y-9763167D01*
X11081310Y-9782214D01*
X11081310Y-9801262D01*
X10986071Y-9820310D01*
X11157500Y-9877452D02*
X11176548Y-9886976D01*
X11214643Y-9886976D01*
X11233690Y-9877452D01*
X11243214Y-9858405D01*
X11243214Y-9848881D01*
X11233690Y-9829833D01*
X11214643Y-9820310D01*
X11186071Y-9820310D01*
X11167024Y-9810786D01*
X11157500Y-9791738D01*
X11157500Y-9782214D01*
X11167024Y-9763167D01*
X11186071Y-9753643D01*
X11214643Y-9753643D01*
X11233690Y-9763167D01*
X11309881Y-9963167D02*
X11319405Y-9953643D01*
X11338452Y-9925071D01*
X11347976Y-9906024D01*
X11357500Y-9877452D01*
X11367024Y-9829833D01*
X11367024Y-9791738D01*
X11357500Y-9744119D01*
X11347976Y-9715548D01*
X11338452Y-9696500D01*
X11319405Y-9667929D01*
X11309881Y-9658405D01*
D14*
X6327500Y-10040500D02*
X6327500Y-10080500D01*
X6307500Y-10060500D02*
X6347500Y-10060500D01*
D11*
X6643214Y-9950976D02*
X6662262Y-9950976D01*
X6681309Y-9960500D01*
X6690833Y-9970024D01*
X6700357Y-9989071D01*
X6709881Y-10027167D01*
X6709881Y-10074786D01*
X6700357Y-10112881D01*
X6690833Y-10131929D01*
X6681309Y-10141452D01*
X6662262Y-10150976D01*
X6643214Y-10150976D01*
X6624167Y-10141452D01*
X6614643Y-10131929D01*
X6605119Y-10112881D01*
X6595595Y-10074786D01*
X6595595Y-10027167D01*
X6605119Y-9989071D01*
X6614643Y-9970024D01*
X6624167Y-9960500D01*
X6643214Y-9950976D01*
X6795595Y-10131929D02*
X6805119Y-10141452D01*
X6795595Y-10150976D01*
X6786071Y-10141452D01*
X6795595Y-10131929D01*
X6795595Y-10150976D01*
X6976548Y-10017643D02*
X6976548Y-10150976D01*
X6928928Y-9941452D02*
X6881309Y-10084310D01*
X7005119Y-10084310D01*
X7119405Y-9950976D02*
X7138452Y-9950976D01*
X7157500Y-9960500D01*
X7167024Y-9970024D01*
X7176548Y-9989071D01*
X7186071Y-10027167D01*
X7186071Y-10074786D01*
X7176548Y-10112881D01*
X7167024Y-10131929D01*
X7157500Y-10141452D01*
X7138452Y-10150976D01*
X7119405Y-10150976D01*
X7100357Y-10141452D01*
X7090833Y-10131929D01*
X7081309Y-10112881D01*
X7071786Y-10074786D01*
X7071786Y-10027167D01*
X7081309Y-9989071D01*
X7090833Y-9970024D01*
X7100357Y-9960500D01*
X7119405Y-9950976D01*
X7309881Y-9950976D02*
X7328928Y-9950976D01*
X7347976Y-9960500D01*
X7357500Y-9970024D01*
X7367024Y-9989071D01*
X7376548Y-10027167D01*
X7376548Y-10074786D01*
X7367024Y-10112881D01*
X7357500Y-10131929D01*
X7347976Y-10141452D01*
X7328928Y-10150976D01*
X7309881Y-10150976D01*
X7290833Y-10141452D01*
X7281309Y-10131929D01*
X7271786Y-10112881D01*
X7262262Y-10074786D01*
X7262262Y-10027167D01*
X7271786Y-9989071D01*
X7281309Y-9970024D01*
X7290833Y-9960500D01*
X7309881Y-9950976D01*
X7462262Y-10150976D02*
X7462262Y-10017643D01*
X7462262Y-10036690D02*
X7471786Y-10027167D01*
X7490833Y-10017643D01*
X7519405Y-10017643D01*
X7538452Y-10027167D01*
X7547976Y-10046214D01*
X7547976Y-10150976D01*
X7547976Y-10046214D02*
X7557500Y-10027167D01*
X7576548Y-10017643D01*
X7605119Y-10017643D01*
X7624167Y-10027167D01*
X7633690Y-10046214D01*
X7633690Y-10150976D01*
X7728928Y-10150976D02*
X7728928Y-10017643D01*
X7728928Y-10036690D02*
X7738452Y-10027167D01*
X7757500Y-10017643D01*
X7786071Y-10017643D01*
X7805119Y-10027167D01*
X7814643Y-10046214D01*
X7814643Y-10150976D01*
X7814643Y-10046214D02*
X7824167Y-10027167D01*
X7843214Y-10017643D01*
X7871786Y-10017643D01*
X7890833Y-10027167D01*
X7900357Y-10046214D01*
X7900357Y-10150976D01*
X8290833Y-9941452D02*
X8119405Y-10198595D01*
X8547976Y-9950976D02*
X8567024Y-9950976D01*
X8586071Y-9960500D01*
X8595595Y-9970024D01*
X8605119Y-9989071D01*
X8614643Y-10027167D01*
X8614643Y-10074786D01*
X8605119Y-10112881D01*
X8595595Y-10131929D01*
X8586071Y-10141452D01*
X8567024Y-10150976D01*
X8547976Y-10150976D01*
X8528929Y-10141452D01*
X8519405Y-10131929D01*
X8509881Y-10112881D01*
X8500357Y-10074786D01*
X8500357Y-10027167D01*
X8509881Y-9989071D01*
X8519405Y-9970024D01*
X8528929Y-9960500D01*
X8547976Y-9950976D01*
X8700357Y-10131929D02*
X8709881Y-10141452D01*
X8700357Y-10150976D01*
X8690833Y-10141452D01*
X8700357Y-10131929D01*
X8700357Y-10150976D01*
X8833690Y-9950976D02*
X8852738Y-9950976D01*
X8871786Y-9960500D01*
X8881310Y-9970024D01*
X8890833Y-9989071D01*
X8900357Y-10027167D01*
X8900357Y-10074786D01*
X8890833Y-10112881D01*
X8881310Y-10131929D01*
X8871786Y-10141452D01*
X8852738Y-10150976D01*
X8833690Y-10150976D01*
X8814643Y-10141452D01*
X8805119Y-10131929D01*
X8795595Y-10112881D01*
X8786071Y-10074786D01*
X8786071Y-10027167D01*
X8795595Y-9989071D01*
X8805119Y-9970024D01*
X8814643Y-9960500D01*
X8833690Y-9950976D01*
X9090833Y-10150976D02*
X8976548Y-10150976D01*
X9033690Y-10150976D02*
X9033690Y-9950976D01*
X9014643Y-9979548D01*
X8995595Y-9998595D01*
X8976548Y-10008119D01*
X9271786Y-9950976D02*
X9176548Y-9950976D01*
X9167024Y-10046214D01*
X9176548Y-10036690D01*
X9195595Y-10027167D01*
X9243214Y-10027167D01*
X9262262Y-10036690D01*
X9271786Y-10046214D01*
X9281310Y-10065262D01*
X9281310Y-10112881D01*
X9271786Y-10131929D01*
X9262262Y-10141452D01*
X9243214Y-10150976D01*
X9195595Y-10150976D01*
X9176548Y-10141452D01*
X9167024Y-10131929D01*
X9347976Y-9950976D02*
X9481310Y-9950976D01*
X9395595Y-10150976D01*
X9547976Y-9950976D02*
X9547976Y-9989071D01*
X9624167Y-9950976D02*
X9624167Y-9989071D01*
X9919405Y-10227167D02*
X9909881Y-10217643D01*
X9890833Y-10189071D01*
X9881310Y-10170024D01*
X9871786Y-10141452D01*
X9862262Y-10093833D01*
X9862262Y-10055738D01*
X9871786Y-10008119D01*
X9881310Y-9979548D01*
X9890833Y-9960500D01*
X9909881Y-9931929D01*
X9919405Y-9922405D01*
X10100357Y-10150976D02*
X9986071Y-10150976D01*
X10043214Y-10150976D02*
X10043214Y-9950976D01*
X10024167Y-9979548D01*
X10005119Y-9998595D01*
X9986071Y-10008119D01*
X10290833Y-10150976D02*
X10176548Y-10150976D01*
X10233690Y-10150976D02*
X10233690Y-9950976D01*
X10214643Y-9979548D01*
X10195595Y-9998595D01*
X10176548Y-10008119D01*
X10528929Y-10150976D02*
X10528929Y-9950976D01*
X10614643Y-10150976D02*
X10614643Y-10046214D01*
X10605119Y-10027167D01*
X10586071Y-10017643D01*
X10557500Y-10017643D01*
X10538452Y-10027167D01*
X10528929Y-10036690D01*
X10738452Y-10150976D02*
X10719405Y-10141452D01*
X10709881Y-10131929D01*
X10700357Y-10112881D01*
X10700357Y-10055738D01*
X10709881Y-10036690D01*
X10719405Y-10027167D01*
X10738452Y-10017643D01*
X10767024Y-10017643D01*
X10786071Y-10027167D01*
X10795595Y-10036690D01*
X10805119Y-10055738D01*
X10805119Y-10112881D01*
X10795595Y-10131929D01*
X10786071Y-10141452D01*
X10767024Y-10150976D01*
X10738452Y-10150976D01*
X10919405Y-10150976D02*
X10900357Y-10141452D01*
X10890833Y-10122405D01*
X10890833Y-9950976D01*
X11071786Y-10141452D02*
X11052738Y-10150976D01*
X11014643Y-10150976D01*
X10995595Y-10141452D01*
X10986071Y-10122405D01*
X10986071Y-10046214D01*
X10995595Y-10027167D01*
X11014643Y-10017643D01*
X11052738Y-10017643D01*
X11071786Y-10027167D01*
X11081310Y-10046214D01*
X11081310Y-10065262D01*
X10986071Y-10084310D01*
X11157500Y-10141452D02*
X11176548Y-10150976D01*
X11214643Y-10150976D01*
X11233690Y-10141452D01*
X11243214Y-10122405D01*
X11243214Y-10112881D01*
X11233690Y-10093833D01*
X11214643Y-10084310D01*
X11186071Y-10084310D01*
X11167024Y-10074786D01*
X11157500Y-10055738D01*
X11157500Y-10046214D01*
X11167024Y-10027167D01*
X11186071Y-10017643D01*
X11214643Y-10017643D01*
X11233690Y-10027167D01*
X11309881Y-10227167D02*
X11319405Y-10217643D01*
X11338452Y-10189071D01*
X11347976Y-10170024D01*
X11357500Y-10141452D01*
X11367024Y-10093833D01*
X11367024Y-10055738D01*
X11357500Y-10008119D01*
X11347976Y-9979548D01*
X11338452Y-9960500D01*
X11319405Y-9931929D01*
X11309881Y-9922405D01*
D10*
X6340178Y-10342178D02*
X6340178Y-10306822D01*
X6304822Y-10306822D01*
X6304822Y-10342178D01*
X6340178Y-10342178D01*
D11*
X6643214Y-10214976D02*
X6662262Y-10214976D01*
X6681309Y-10224500D01*
X6690833Y-10234024D01*
X6700357Y-10253071D01*
X6709881Y-10291167D01*
X6709881Y-10338786D01*
X6700357Y-10376881D01*
X6690833Y-10395929D01*
X6681309Y-10405452D01*
X6662262Y-10414976D01*
X6643214Y-10414976D01*
X6624167Y-10405452D01*
X6614643Y-10395929D01*
X6605119Y-10376881D01*
X6595595Y-10338786D01*
X6595595Y-10291167D01*
X6605119Y-10253071D01*
X6614643Y-10234024D01*
X6624167Y-10224500D01*
X6643214Y-10214976D01*
X6795595Y-10395929D02*
X6805119Y-10405452D01*
X6795595Y-10414976D01*
X6786071Y-10405452D01*
X6795595Y-10395929D01*
X6795595Y-10414976D01*
X6986071Y-10214976D02*
X6890833Y-10214976D01*
X6881309Y-10310214D01*
X6890833Y-10300690D01*
X6909881Y-10291167D01*
X6957500Y-10291167D01*
X6976548Y-10300690D01*
X6986071Y-10310214D01*
X6995595Y-10329262D01*
X6995595Y-10376881D01*
X6986071Y-10395929D01*
X6976548Y-10405452D01*
X6957500Y-10414976D01*
X6909881Y-10414976D01*
X6890833Y-10405452D01*
X6881309Y-10395929D01*
X7119405Y-10214976D02*
X7138452Y-10214976D01*
X7157500Y-10224500D01*
X7167024Y-10234024D01*
X7176548Y-10253071D01*
X7186071Y-10291167D01*
X7186071Y-10338786D01*
X7176548Y-10376881D01*
X7167024Y-10395929D01*
X7157500Y-10405452D01*
X7138452Y-10414976D01*
X7119405Y-10414976D01*
X7100357Y-10405452D01*
X7090833Y-10395929D01*
X7081309Y-10376881D01*
X7071786Y-10338786D01*
X7071786Y-10291167D01*
X7081309Y-10253071D01*
X7090833Y-10234024D01*
X7100357Y-10224500D01*
X7119405Y-10214976D01*
X7309881Y-10214976D02*
X7328928Y-10214976D01*
X7347976Y-10224500D01*
X7357500Y-10234024D01*
X7367024Y-10253071D01*
X7376548Y-10291167D01*
X7376548Y-10338786D01*
X7367024Y-10376881D01*
X7357500Y-10395929D01*
X7347976Y-10405452D01*
X7328928Y-10414976D01*
X7309881Y-10414976D01*
X7290833Y-10405452D01*
X7281309Y-10395929D01*
X7271786Y-10376881D01*
X7262262Y-10338786D01*
X7262262Y-10291167D01*
X7271786Y-10253071D01*
X7281309Y-10234024D01*
X7290833Y-10224500D01*
X7309881Y-10214976D01*
X7462262Y-10414976D02*
X7462262Y-10281643D01*
X7462262Y-10300690D02*
X7471786Y-10291167D01*
X7490833Y-10281643D01*
X7519405Y-10281643D01*
X7538452Y-10291167D01*
X7547976Y-10310214D01*
X7547976Y-10414976D01*
X7547976Y-10310214D02*
X7557500Y-10291167D01*
X7576548Y-10281643D01*
X7605119Y-10281643D01*
X7624167Y-10291167D01*
X7633690Y-10310214D01*
X7633690Y-10414976D01*
X7728928Y-10414976D02*
X7728928Y-10281643D01*
X7728928Y-10300690D02*
X7738452Y-10291167D01*
X7757500Y-10281643D01*
X7786071Y-10281643D01*
X7805119Y-10291167D01*
X7814643Y-10310214D01*
X7814643Y-10414976D01*
X7814643Y-10310214D02*
X7824167Y-10291167D01*
X7843214Y-10281643D01*
X7871786Y-10281643D01*
X7890833Y-10291167D01*
X7900357Y-10310214D01*
X7900357Y-10414976D01*
X8290833Y-10205452D02*
X8119405Y-10462595D01*
X8547976Y-10214976D02*
X8567024Y-10214976D01*
X8586071Y-10224500D01*
X8595595Y-10234024D01*
X8605119Y-10253071D01*
X8614643Y-10291167D01*
X8614643Y-10338786D01*
X8605119Y-10376881D01*
X8595595Y-10395929D01*
X8586071Y-10405452D01*
X8567024Y-10414976D01*
X8547976Y-10414976D01*
X8528929Y-10405452D01*
X8519405Y-10395929D01*
X8509881Y-10376881D01*
X8500357Y-10338786D01*
X8500357Y-10291167D01*
X8509881Y-10253071D01*
X8519405Y-10234024D01*
X8528929Y-10224500D01*
X8547976Y-10214976D01*
X8700357Y-10395929D02*
X8709881Y-10405452D01*
X8700357Y-10414976D01*
X8690833Y-10405452D01*
X8700357Y-10395929D01*
X8700357Y-10414976D01*
X8833690Y-10214976D02*
X8852738Y-10214976D01*
X8871786Y-10224500D01*
X8881310Y-10234024D01*
X8890833Y-10253071D01*
X8900357Y-10291167D01*
X8900357Y-10338786D01*
X8890833Y-10376881D01*
X8881310Y-10395929D01*
X8871786Y-10405452D01*
X8852738Y-10414976D01*
X8833690Y-10414976D01*
X8814643Y-10405452D01*
X8805119Y-10395929D01*
X8795595Y-10376881D01*
X8786071Y-10338786D01*
X8786071Y-10291167D01*
X8795595Y-10253071D01*
X8805119Y-10234024D01*
X8814643Y-10224500D01*
X8833690Y-10214976D01*
X9090833Y-10414976D02*
X8976548Y-10414976D01*
X9033690Y-10414976D02*
X9033690Y-10214976D01*
X9014643Y-10243548D01*
X8995595Y-10262595D01*
X8976548Y-10272119D01*
X9186071Y-10414976D02*
X9224167Y-10414976D01*
X9243214Y-10405452D01*
X9252738Y-10395929D01*
X9271786Y-10367357D01*
X9281310Y-10329262D01*
X9281310Y-10253071D01*
X9271786Y-10234024D01*
X9262262Y-10224500D01*
X9243214Y-10214976D01*
X9205119Y-10214976D01*
X9186071Y-10224500D01*
X9176548Y-10234024D01*
X9167024Y-10253071D01*
X9167024Y-10300690D01*
X9176548Y-10319738D01*
X9186071Y-10329262D01*
X9205119Y-10338786D01*
X9243214Y-10338786D01*
X9262262Y-10329262D01*
X9271786Y-10319738D01*
X9281310Y-10300690D01*
X9347976Y-10214976D02*
X9481310Y-10214976D01*
X9395595Y-10414976D01*
X9547976Y-10214976D02*
X9547976Y-10253071D01*
X9624167Y-10214976D02*
X9624167Y-10253071D01*
X9919405Y-10491167D02*
X9909881Y-10481643D01*
X9890833Y-10453071D01*
X9881310Y-10434024D01*
X9871786Y-10405452D01*
X9862262Y-10357833D01*
X9862262Y-10319738D01*
X9871786Y-10272119D01*
X9881310Y-10243548D01*
X9890833Y-10224500D01*
X9909881Y-10195929D01*
X9919405Y-10186405D01*
X9986071Y-10234024D02*
X9995595Y-10224500D01*
X10014643Y-10214976D01*
X10062262Y-10214976D01*
X10081310Y-10224500D01*
X10090833Y-10234024D01*
X10100357Y-10253071D01*
X10100357Y-10272119D01*
X10090833Y-10300690D01*
X9976548Y-10414976D01*
X10100357Y-10414976D01*
X10176548Y-10234024D02*
X10186071Y-10224500D01*
X10205119Y-10214976D01*
X10252738Y-10214976D01*
X10271786Y-10224500D01*
X10281310Y-10234024D01*
X10290833Y-10253071D01*
X10290833Y-10272119D01*
X10281310Y-10300690D01*
X10167024Y-10414976D01*
X10290833Y-10414976D01*
X10528929Y-10414976D02*
X10528929Y-10214976D01*
X10614643Y-10414976D02*
X10614643Y-10310214D01*
X10605119Y-10291167D01*
X10586071Y-10281643D01*
X10557500Y-10281643D01*
X10538452Y-10291167D01*
X10528929Y-10300690D01*
X10738452Y-10414976D02*
X10719405Y-10405452D01*
X10709881Y-10395929D01*
X10700357Y-10376881D01*
X10700357Y-10319738D01*
X10709881Y-10300690D01*
X10719405Y-10291167D01*
X10738452Y-10281643D01*
X10767024Y-10281643D01*
X10786071Y-10291167D01*
X10795595Y-10300690D01*
X10805119Y-10319738D01*
X10805119Y-10376881D01*
X10795595Y-10395929D01*
X10786071Y-10405452D01*
X10767024Y-10414976D01*
X10738452Y-10414976D01*
X10919405Y-10414976D02*
X10900357Y-10405452D01*
X10890833Y-10386405D01*
X10890833Y-10214976D01*
X11071786Y-10405452D02*
X11052738Y-10414976D01*
X11014643Y-10414976D01*
X10995595Y-10405452D01*
X10986071Y-10386405D01*
X10986071Y-10310214D01*
X10995595Y-10291167D01*
X11014643Y-10281643D01*
X11052738Y-10281643D01*
X11071786Y-10291167D01*
X11081310Y-10310214D01*
X11081310Y-10329262D01*
X10986071Y-10348310D01*
X11157500Y-10405452D02*
X11176548Y-10414976D01*
X11214643Y-10414976D01*
X11233690Y-10405452D01*
X11243214Y-10386405D01*
X11243214Y-10376881D01*
X11233690Y-10357833D01*
X11214643Y-10348310D01*
X11186071Y-10348310D01*
X11167024Y-10338786D01*
X11157500Y-10319738D01*
X11157500Y-10310214D01*
X11167024Y-10291167D01*
X11186071Y-10281643D01*
X11214643Y-10281643D01*
X11233690Y-10291167D01*
X11309881Y-10491167D02*
X11319405Y-10481643D01*
X11338452Y-10453071D01*
X11347976Y-10434024D01*
X11357500Y-10405452D01*
X11367024Y-10357833D01*
X11367024Y-10319738D01*
X11357500Y-10272119D01*
X11347976Y-10243548D01*
X11338452Y-10224500D01*
X11319405Y-10195929D01*
X11309881Y-10186405D01*
D15*
X6317500Y-10618500D02*
X6347500Y-10588500D01*
X6317500Y-10558500D01*
X6287500Y-10588500D01*
X6317500Y-10618500D01*
D11*
X6643214Y-10478976D02*
X6662262Y-10478976D01*
X6681309Y-10488500D01*
X6690833Y-10498024D01*
X6700357Y-10517071D01*
X6709881Y-10555167D01*
X6709881Y-10602786D01*
X6700357Y-10640881D01*
X6690833Y-10659929D01*
X6681309Y-10669452D01*
X6662262Y-10678976D01*
X6643214Y-10678976D01*
X6624167Y-10669452D01*
X6614643Y-10659929D01*
X6605119Y-10640881D01*
X6595595Y-10602786D01*
X6595595Y-10555167D01*
X6605119Y-10517071D01*
X6614643Y-10498024D01*
X6624167Y-10488500D01*
X6643214Y-10478976D01*
X6795595Y-10659929D02*
X6805119Y-10669452D01*
X6795595Y-10678976D01*
X6786071Y-10669452D01*
X6795595Y-10659929D01*
X6795595Y-10678976D01*
X6976548Y-10478976D02*
X6938452Y-10478976D01*
X6919405Y-10488500D01*
X6909881Y-10498024D01*
X6890833Y-10526595D01*
X6881309Y-10564690D01*
X6881309Y-10640881D01*
X6890833Y-10659929D01*
X6900357Y-10669452D01*
X6919405Y-10678976D01*
X6957500Y-10678976D01*
X6976548Y-10669452D01*
X6986071Y-10659929D01*
X6995595Y-10640881D01*
X6995595Y-10593262D01*
X6986071Y-10574214D01*
X6976548Y-10564690D01*
X6957500Y-10555167D01*
X6919405Y-10555167D01*
X6900357Y-10564690D01*
X6890833Y-10574214D01*
X6881309Y-10593262D01*
X7119405Y-10478976D02*
X7138452Y-10478976D01*
X7157500Y-10488500D01*
X7167024Y-10498024D01*
X7176548Y-10517071D01*
X7186071Y-10555167D01*
X7186071Y-10602786D01*
X7176548Y-10640881D01*
X7167024Y-10659929D01*
X7157500Y-10669452D01*
X7138452Y-10678976D01*
X7119405Y-10678976D01*
X7100357Y-10669452D01*
X7090833Y-10659929D01*
X7081309Y-10640881D01*
X7071786Y-10602786D01*
X7071786Y-10555167D01*
X7081309Y-10517071D01*
X7090833Y-10498024D01*
X7100357Y-10488500D01*
X7119405Y-10478976D01*
X7309881Y-10478976D02*
X7328928Y-10478976D01*
X7347976Y-10488500D01*
X7357500Y-10498024D01*
X7367024Y-10517071D01*
X7376548Y-10555167D01*
X7376548Y-10602786D01*
X7367024Y-10640881D01*
X7357500Y-10659929D01*
X7347976Y-10669452D01*
X7328928Y-10678976D01*
X7309881Y-10678976D01*
X7290833Y-10669452D01*
X7281309Y-10659929D01*
X7271786Y-10640881D01*
X7262262Y-10602786D01*
X7262262Y-10555167D01*
X7271786Y-10517071D01*
X7281309Y-10498024D01*
X7290833Y-10488500D01*
X7309881Y-10478976D01*
X7462262Y-10678976D02*
X7462262Y-10545643D01*
X7462262Y-10564690D02*
X7471786Y-10555167D01*
X7490833Y-10545643D01*
X7519405Y-10545643D01*
X7538452Y-10555167D01*
X7547976Y-10574214D01*
X7547976Y-10678976D01*
X7547976Y-10574214D02*
X7557500Y-10555167D01*
X7576548Y-10545643D01*
X7605119Y-10545643D01*
X7624167Y-10555167D01*
X7633690Y-10574214D01*
X7633690Y-10678976D01*
X7728928Y-10678976D02*
X7728928Y-10545643D01*
X7728928Y-10564690D02*
X7738452Y-10555167D01*
X7757500Y-10545643D01*
X7786071Y-10545643D01*
X7805119Y-10555167D01*
X7814643Y-10574214D01*
X7814643Y-10678976D01*
X7814643Y-10574214D02*
X7824167Y-10555167D01*
X7843214Y-10545643D01*
X7871786Y-10545643D01*
X7890833Y-10555167D01*
X7900357Y-10574214D01*
X7900357Y-10678976D01*
X8290833Y-10469452D02*
X8119405Y-10726595D01*
X8547976Y-10478976D02*
X8567024Y-10478976D01*
X8586071Y-10488500D01*
X8595595Y-10498024D01*
X8605119Y-10517071D01*
X8614643Y-10555167D01*
X8614643Y-10602786D01*
X8605119Y-10640881D01*
X8595595Y-10659929D01*
X8586071Y-10669452D01*
X8567024Y-10678976D01*
X8547976Y-10678976D01*
X8528929Y-10669452D01*
X8519405Y-10659929D01*
X8509881Y-10640881D01*
X8500357Y-10602786D01*
X8500357Y-10555167D01*
X8509881Y-10517071D01*
X8519405Y-10498024D01*
X8528929Y-10488500D01*
X8547976Y-10478976D01*
X8700357Y-10659929D02*
X8709881Y-10669452D01*
X8700357Y-10678976D01*
X8690833Y-10669452D01*
X8700357Y-10659929D01*
X8700357Y-10678976D01*
X8833690Y-10478976D02*
X8852738Y-10478976D01*
X8871786Y-10488500D01*
X8881310Y-10498024D01*
X8890833Y-10517071D01*
X8900357Y-10555167D01*
X8900357Y-10602786D01*
X8890833Y-10640881D01*
X8881310Y-10659929D01*
X8871786Y-10669452D01*
X8852738Y-10678976D01*
X8833690Y-10678976D01*
X8814643Y-10669452D01*
X8805119Y-10659929D01*
X8795595Y-10640881D01*
X8786071Y-10602786D01*
X8786071Y-10555167D01*
X8795595Y-10517071D01*
X8805119Y-10498024D01*
X8814643Y-10488500D01*
X8833690Y-10478976D01*
X8976548Y-10498024D02*
X8986071Y-10488500D01*
X9005119Y-10478976D01*
X9052738Y-10478976D01*
X9071786Y-10488500D01*
X9081310Y-10498024D01*
X9090833Y-10517071D01*
X9090833Y-10536119D01*
X9081310Y-10564690D01*
X8967024Y-10678976D01*
X9090833Y-10678976D01*
X9157500Y-10478976D02*
X9281310Y-10478976D01*
X9214643Y-10555167D01*
X9243214Y-10555167D01*
X9262262Y-10564690D01*
X9271786Y-10574214D01*
X9281310Y-10593262D01*
X9281310Y-10640881D01*
X9271786Y-10659929D01*
X9262262Y-10669452D01*
X9243214Y-10678976D01*
X9186071Y-10678976D01*
X9167024Y-10669452D01*
X9157500Y-10659929D01*
X9452738Y-10478976D02*
X9414643Y-10478976D01*
X9395595Y-10488500D01*
X9386071Y-10498024D01*
X9367024Y-10526595D01*
X9357500Y-10564690D01*
X9357500Y-10640881D01*
X9367024Y-10659929D01*
X9376548Y-10669452D01*
X9395595Y-10678976D01*
X9433690Y-10678976D01*
X9452738Y-10669452D01*
X9462262Y-10659929D01*
X9471786Y-10640881D01*
X9471786Y-10593262D01*
X9462262Y-10574214D01*
X9452738Y-10564690D01*
X9433690Y-10555167D01*
X9395595Y-10555167D01*
X9376548Y-10564690D01*
X9367024Y-10574214D01*
X9357500Y-10593262D01*
X9547976Y-10478976D02*
X9547976Y-10517071D01*
X9624167Y-10478976D02*
X9624167Y-10517071D01*
X9919405Y-10755167D02*
X9909881Y-10745643D01*
X9890833Y-10717071D01*
X9881310Y-10698024D01*
X9871786Y-10669452D01*
X9862262Y-10621833D01*
X9862262Y-10583738D01*
X9871786Y-10536119D01*
X9881310Y-10507548D01*
X9890833Y-10488500D01*
X9909881Y-10459929D01*
X9919405Y-10450405D01*
X10033690Y-10478976D02*
X10052738Y-10478976D01*
X10071786Y-10488500D01*
X10081310Y-10498024D01*
X10090833Y-10517071D01*
X10100357Y-10555167D01*
X10100357Y-10602786D01*
X10090833Y-10640881D01*
X10081310Y-10659929D01*
X10071786Y-10669452D01*
X10052738Y-10678976D01*
X10033690Y-10678976D01*
X10014643Y-10669452D01*
X10005119Y-10659929D01*
X9995595Y-10640881D01*
X9986071Y-10602786D01*
X9986071Y-10555167D01*
X9995595Y-10517071D01*
X10005119Y-10498024D01*
X10014643Y-10488500D01*
X10033690Y-10478976D01*
X10338452Y-10678976D02*
X10338452Y-10478976D01*
X10424167Y-10678976D02*
X10424167Y-10574214D01*
X10414643Y-10555167D01*
X10395595Y-10545643D01*
X10367024Y-10545643D01*
X10347976Y-10555167D01*
X10338452Y-10564690D01*
X10547976Y-10678976D02*
X10528929Y-10669452D01*
X10519405Y-10659929D01*
X10509881Y-10640881D01*
X10509881Y-10583738D01*
X10519405Y-10564690D01*
X10528929Y-10555167D01*
X10547976Y-10545643D01*
X10576548Y-10545643D01*
X10595595Y-10555167D01*
X10605119Y-10564690D01*
X10614643Y-10583738D01*
X10614643Y-10640881D01*
X10605119Y-10659929D01*
X10595595Y-10669452D01*
X10576548Y-10678976D01*
X10547976Y-10678976D01*
X10728929Y-10678976D02*
X10709881Y-10669452D01*
X10700357Y-10650405D01*
X10700357Y-10478976D01*
X10881310Y-10669452D02*
X10862262Y-10678976D01*
X10824167Y-10678976D01*
X10805119Y-10669452D01*
X10795595Y-10650405D01*
X10795595Y-10574214D01*
X10805119Y-10555167D01*
X10824167Y-10545643D01*
X10862262Y-10545643D01*
X10881310Y-10555167D01*
X10890833Y-10574214D01*
X10890833Y-10593262D01*
X10795595Y-10612310D01*
X10967024Y-10669452D02*
X10986071Y-10678976D01*
X11024167Y-10678976D01*
X11043214Y-10669452D01*
X11052738Y-10650405D01*
X11052738Y-10640881D01*
X11043214Y-10621833D01*
X11024167Y-10612310D01*
X10995595Y-10612310D01*
X10976548Y-10602786D01*
X10967024Y-10583738D01*
X10967024Y-10574214D01*
X10976548Y-10555167D01*
X10995595Y-10545643D01*
X11024167Y-10545643D01*
X11043214Y-10555167D01*
X11290833Y-10602786D02*
X11443214Y-10602786D01*
X11367024Y-10678976D02*
X11367024Y-10526595D01*
X11681309Y-10498024D02*
X11690833Y-10488500D01*
X11709881Y-10478976D01*
X11757500Y-10478976D01*
X11776548Y-10488500D01*
X11786071Y-10498024D01*
X11795595Y-10517071D01*
X11795595Y-10536119D01*
X11786071Y-10564690D01*
X11671786Y-10678976D01*
X11795595Y-10678976D01*
X12024167Y-10669452D02*
X12043214Y-10678976D01*
X12081309Y-10678976D01*
X12100357Y-10669452D01*
X12109881Y-10650405D01*
X12109881Y-10640881D01*
X12100357Y-10621833D01*
X12081309Y-10612310D01*
X12052738Y-10612310D01*
X12033690Y-10602786D01*
X12024167Y-10583738D01*
X12024167Y-10574214D01*
X12033690Y-10555167D01*
X12052738Y-10545643D01*
X12081309Y-10545643D01*
X12100357Y-10555167D01*
X12224167Y-10678976D02*
X12205119Y-10669452D01*
X12195595Y-10650405D01*
X12195595Y-10478976D01*
X12328928Y-10678976D02*
X12309881Y-10669452D01*
X12300357Y-10659929D01*
X12290833Y-10640881D01*
X12290833Y-10583738D01*
X12300357Y-10564690D01*
X12309881Y-10555167D01*
X12328928Y-10545643D01*
X12357500Y-10545643D01*
X12376548Y-10555167D01*
X12386071Y-10564690D01*
X12395595Y-10583738D01*
X12395595Y-10640881D01*
X12386071Y-10659929D01*
X12376548Y-10669452D01*
X12357500Y-10678976D01*
X12328928Y-10678976D01*
X12452738Y-10545643D02*
X12528928Y-10545643D01*
X12481309Y-10478976D02*
X12481309Y-10650405D01*
X12490833Y-10669452D01*
X12509881Y-10678976D01*
X12528928Y-10678976D01*
X12586071Y-10669452D02*
X12605119Y-10678976D01*
X12643214Y-10678976D01*
X12662262Y-10669452D01*
X12671786Y-10650405D01*
X12671786Y-10640881D01*
X12662262Y-10621833D01*
X12643214Y-10612310D01*
X12614643Y-10612310D01*
X12595595Y-10602786D01*
X12586071Y-10583738D01*
X12586071Y-10574214D01*
X12595595Y-10555167D01*
X12614643Y-10545643D01*
X12643214Y-10545643D01*
X12662262Y-10555167D01*
X12738452Y-10755167D02*
X12747976Y-10745643D01*
X12767024Y-10717071D01*
X12776548Y-10698024D01*
X12786071Y-10669452D01*
X12795595Y-10621833D01*
X12795595Y-10583738D01*
X12786071Y-10536119D01*
X12776548Y-10507548D01*
X12767024Y-10488500D01*
X12747976Y-10459929D01*
X12738452Y-10450405D01*
D16*
X6262500Y-10810000D02*
X6347500Y-10895000D01*
X6347500Y-10810000D02*
X6262500Y-10895000D01*
X6347500Y-10852500D02*
G75*
G03*
X6347500Y-10852500I-42500J0D01*
G01*
D11*
X6643214Y-10742976D02*
X6662262Y-10742976D01*
X6681309Y-10752500D01*
X6690833Y-10762024D01*
X6700357Y-10781071D01*
X6709881Y-10819167D01*
X6709881Y-10866786D01*
X6700357Y-10904881D01*
X6690833Y-10923929D01*
X6681309Y-10933452D01*
X6662262Y-10942976D01*
X6643214Y-10942976D01*
X6624167Y-10933452D01*
X6614643Y-10923929D01*
X6605119Y-10904881D01*
X6595595Y-10866786D01*
X6595595Y-10819167D01*
X6605119Y-10781071D01*
X6614643Y-10762024D01*
X6624167Y-10752500D01*
X6643214Y-10742976D01*
X6795595Y-10923929D02*
X6805119Y-10933452D01*
X6795595Y-10942976D01*
X6786071Y-10933452D01*
X6795595Y-10923929D01*
X6795595Y-10942976D01*
X6919405Y-10828690D02*
X6900357Y-10819167D01*
X6890833Y-10809643D01*
X6881309Y-10790595D01*
X6881309Y-10781071D01*
X6890833Y-10762024D01*
X6900357Y-10752500D01*
X6919405Y-10742976D01*
X6957500Y-10742976D01*
X6976548Y-10752500D01*
X6986071Y-10762024D01*
X6995595Y-10781071D01*
X6995595Y-10790595D01*
X6986071Y-10809643D01*
X6976548Y-10819167D01*
X6957500Y-10828690D01*
X6919405Y-10828690D01*
X6900357Y-10838214D01*
X6890833Y-10847738D01*
X6881309Y-10866786D01*
X6881309Y-10904881D01*
X6890833Y-10923929D01*
X6900357Y-10933452D01*
X6919405Y-10942976D01*
X6957500Y-10942976D01*
X6976548Y-10933452D01*
X6986071Y-10923929D01*
X6995595Y-10904881D01*
X6995595Y-10866786D01*
X6986071Y-10847738D01*
X6976548Y-10838214D01*
X6957500Y-10828690D01*
X7176548Y-10742976D02*
X7081309Y-10742976D01*
X7071786Y-10838214D01*
X7081309Y-10828690D01*
X7100357Y-10819167D01*
X7147976Y-10819167D01*
X7167024Y-10828690D01*
X7176548Y-10838214D01*
X7186071Y-10857262D01*
X7186071Y-10904881D01*
X7176548Y-10923929D01*
X7167024Y-10933452D01*
X7147976Y-10942976D01*
X7100357Y-10942976D01*
X7081309Y-10933452D01*
X7071786Y-10923929D01*
X7309881Y-10742976D02*
X7328928Y-10742976D01*
X7347976Y-10752500D01*
X7357500Y-10762024D01*
X7367024Y-10781071D01*
X7376548Y-10819167D01*
X7376548Y-10866786D01*
X7367024Y-10904881D01*
X7357500Y-10923929D01*
X7347976Y-10933452D01*
X7328928Y-10942976D01*
X7309881Y-10942976D01*
X7290833Y-10933452D01*
X7281309Y-10923929D01*
X7271786Y-10904881D01*
X7262262Y-10866786D01*
X7262262Y-10819167D01*
X7271786Y-10781071D01*
X7281309Y-10762024D01*
X7290833Y-10752500D01*
X7309881Y-10742976D01*
X7462262Y-10942976D02*
X7462262Y-10809643D01*
X7462262Y-10828690D02*
X7471786Y-10819167D01*
X7490833Y-10809643D01*
X7519405Y-10809643D01*
X7538452Y-10819167D01*
X7547976Y-10838214D01*
X7547976Y-10942976D01*
X7547976Y-10838214D02*
X7557500Y-10819167D01*
X7576548Y-10809643D01*
X7605119Y-10809643D01*
X7624167Y-10819167D01*
X7633690Y-10838214D01*
X7633690Y-10942976D01*
X7728928Y-10942976D02*
X7728928Y-10809643D01*
X7728928Y-10828690D02*
X7738452Y-10819167D01*
X7757500Y-10809643D01*
X7786071Y-10809643D01*
X7805119Y-10819167D01*
X7814643Y-10838214D01*
X7814643Y-10942976D01*
X7814643Y-10838214D02*
X7824167Y-10819167D01*
X7843214Y-10809643D01*
X7871786Y-10809643D01*
X7890833Y-10819167D01*
X7900357Y-10838214D01*
X7900357Y-10942976D01*
X8290833Y-10733452D02*
X8119405Y-10990595D01*
X8547976Y-10742976D02*
X8567024Y-10742976D01*
X8586071Y-10752500D01*
X8595595Y-10762024D01*
X8605119Y-10781071D01*
X8614643Y-10819167D01*
X8614643Y-10866786D01*
X8605119Y-10904881D01*
X8595595Y-10923929D01*
X8586071Y-10933452D01*
X8567024Y-10942976D01*
X8547976Y-10942976D01*
X8528929Y-10933452D01*
X8519405Y-10923929D01*
X8509881Y-10904881D01*
X8500357Y-10866786D01*
X8500357Y-10819167D01*
X8509881Y-10781071D01*
X8519405Y-10762024D01*
X8528929Y-10752500D01*
X8547976Y-10742976D01*
X8700357Y-10923929D02*
X8709881Y-10933452D01*
X8700357Y-10942976D01*
X8690833Y-10933452D01*
X8700357Y-10923929D01*
X8700357Y-10942976D01*
X8833690Y-10742976D02*
X8852738Y-10742976D01*
X8871786Y-10752500D01*
X8881310Y-10762024D01*
X8890833Y-10781071D01*
X8900357Y-10819167D01*
X8900357Y-10866786D01*
X8890833Y-10904881D01*
X8881310Y-10923929D01*
X8871786Y-10933452D01*
X8852738Y-10942976D01*
X8833690Y-10942976D01*
X8814643Y-10933452D01*
X8805119Y-10923929D01*
X8795595Y-10904881D01*
X8786071Y-10866786D01*
X8786071Y-10819167D01*
X8795595Y-10781071D01*
X8805119Y-10762024D01*
X8814643Y-10752500D01*
X8833690Y-10742976D01*
X8967024Y-10742976D02*
X9090833Y-10742976D01*
X9024167Y-10819167D01*
X9052738Y-10819167D01*
X9071786Y-10828690D01*
X9081310Y-10838214D01*
X9090833Y-10857262D01*
X9090833Y-10904881D01*
X9081310Y-10923929D01*
X9071786Y-10933452D01*
X9052738Y-10942976D01*
X8995595Y-10942976D01*
X8976548Y-10933452D01*
X8967024Y-10923929D01*
X9157500Y-10742976D02*
X9281310Y-10742976D01*
X9214643Y-10819167D01*
X9243214Y-10819167D01*
X9262262Y-10828690D01*
X9271786Y-10838214D01*
X9281310Y-10857262D01*
X9281310Y-10904881D01*
X9271786Y-10923929D01*
X9262262Y-10933452D01*
X9243214Y-10942976D01*
X9186071Y-10942976D01*
X9167024Y-10933452D01*
X9157500Y-10923929D01*
X9462262Y-10742976D02*
X9367024Y-10742976D01*
X9357500Y-10838214D01*
X9367024Y-10828690D01*
X9386071Y-10819167D01*
X9433690Y-10819167D01*
X9452738Y-10828690D01*
X9462262Y-10838214D01*
X9471786Y-10857262D01*
X9471786Y-10904881D01*
X9462262Y-10923929D01*
X9452738Y-10933452D01*
X9433690Y-10942976D01*
X9386071Y-10942976D01*
X9367024Y-10933452D01*
X9357500Y-10923929D01*
X9547976Y-10742976D02*
X9547976Y-10781071D01*
X9624167Y-10742976D02*
X9624167Y-10781071D01*
X9919405Y-11019167D02*
X9909881Y-11009643D01*
X9890833Y-10981071D01*
X9881310Y-10962024D01*
X9871786Y-10933452D01*
X9862262Y-10885833D01*
X9862262Y-10847738D01*
X9871786Y-10800119D01*
X9881310Y-10771548D01*
X9890833Y-10752500D01*
X9909881Y-10723929D01*
X9919405Y-10714405D01*
X9986071Y-10762024D02*
X9995595Y-10752500D01*
X10014643Y-10742976D01*
X10062262Y-10742976D01*
X10081310Y-10752500D01*
X10090833Y-10762024D01*
X10100357Y-10781071D01*
X10100357Y-10800119D01*
X10090833Y-10828690D01*
X9976548Y-10942976D01*
X10100357Y-10942976D01*
X10338452Y-10942976D02*
X10338452Y-10742976D01*
X10424167Y-10942976D02*
X10424167Y-10838214D01*
X10414643Y-10819167D01*
X10395595Y-10809643D01*
X10367024Y-10809643D01*
X10347976Y-10819167D01*
X10338452Y-10828690D01*
X10547976Y-10942976D02*
X10528929Y-10933452D01*
X10519405Y-10923929D01*
X10509881Y-10904881D01*
X10509881Y-10847738D01*
X10519405Y-10828690D01*
X10528929Y-10819167D01*
X10547976Y-10809643D01*
X10576548Y-10809643D01*
X10595595Y-10819167D01*
X10605119Y-10828690D01*
X10614643Y-10847738D01*
X10614643Y-10904881D01*
X10605119Y-10923929D01*
X10595595Y-10933452D01*
X10576548Y-10942976D01*
X10547976Y-10942976D01*
X10728929Y-10942976D02*
X10709881Y-10933452D01*
X10700357Y-10914405D01*
X10700357Y-10742976D01*
X10881310Y-10933452D02*
X10862262Y-10942976D01*
X10824167Y-10942976D01*
X10805119Y-10933452D01*
X10795595Y-10914405D01*
X10795595Y-10838214D01*
X10805119Y-10819167D01*
X10824167Y-10809643D01*
X10862262Y-10809643D01*
X10881310Y-10819167D01*
X10890833Y-10838214D01*
X10890833Y-10857262D01*
X10795595Y-10876310D01*
X10967024Y-10933452D02*
X10986071Y-10942976D01*
X11024167Y-10942976D01*
X11043214Y-10933452D01*
X11052738Y-10914405D01*
X11052738Y-10904881D01*
X11043214Y-10885833D01*
X11024167Y-10876310D01*
X10995595Y-10876310D01*
X10976548Y-10866786D01*
X10967024Y-10847738D01*
X10967024Y-10838214D01*
X10976548Y-10819167D01*
X10995595Y-10809643D01*
X11024167Y-10809643D01*
X11043214Y-10819167D01*
X11119405Y-11019167D02*
X11128929Y-11009643D01*
X11147976Y-10981071D01*
X11157500Y-10962024D01*
X11167024Y-10933452D01*
X11176548Y-10885833D01*
X11176548Y-10847738D01*
X11167024Y-10800119D01*
X11157500Y-10771548D01*
X11147976Y-10752500D01*
X11128929Y-10723929D01*
X11119405Y-10714405D01*
D17*
X6247500Y-11066500D02*
X6347500Y-11166500D01*
X6347500Y-11066500D02*
X6247500Y-11166500D01*
X6297500Y-11066500D02*
X6297500Y-11166500D01*
X6247500Y-11116500D02*
X6347500Y-11116500D01*
D11*
X6709881Y-11206976D02*
X6595595Y-11206976D01*
X6652738Y-11206976D02*
X6652738Y-11006976D01*
X6633690Y-11035548D01*
X6614643Y-11054595D01*
X6595595Y-11064119D01*
X6795595Y-11187928D02*
X6805119Y-11197452D01*
X6795595Y-11206976D01*
X6786071Y-11197452D01*
X6795595Y-11187928D01*
X6795595Y-11206976D01*
X6928928Y-11006976D02*
X6947976Y-11006976D01*
X6967024Y-11016500D01*
X6976548Y-11026024D01*
X6986071Y-11045071D01*
X6995595Y-11083167D01*
X6995595Y-11130786D01*
X6986071Y-11168881D01*
X6976548Y-11187928D01*
X6967024Y-11197452D01*
X6947976Y-11206976D01*
X6928928Y-11206976D01*
X6909881Y-11197452D01*
X6900357Y-11187928D01*
X6890833Y-11168881D01*
X6881309Y-11130786D01*
X6881309Y-11083167D01*
X6890833Y-11045071D01*
X6900357Y-11026024D01*
X6909881Y-11016500D01*
X6928928Y-11006976D01*
X7119405Y-11006976D02*
X7138452Y-11006976D01*
X7157500Y-11016500D01*
X7167024Y-11026024D01*
X7176548Y-11045071D01*
X7186071Y-11083167D01*
X7186071Y-11130786D01*
X7176548Y-11168881D01*
X7167024Y-11187928D01*
X7157500Y-11197452D01*
X7138452Y-11206976D01*
X7119405Y-11206976D01*
X7100357Y-11197452D01*
X7090833Y-11187928D01*
X7081309Y-11168881D01*
X7071786Y-11130786D01*
X7071786Y-11083167D01*
X7081309Y-11045071D01*
X7090833Y-11026024D01*
X7100357Y-11016500D01*
X7119405Y-11006976D01*
X7309881Y-11006976D02*
X7328928Y-11006976D01*
X7347976Y-11016500D01*
X7357500Y-11026024D01*
X7367024Y-11045071D01*
X7376548Y-11083167D01*
X7376548Y-11130786D01*
X7367024Y-11168881D01*
X7357500Y-11187928D01*
X7347976Y-11197452D01*
X7328928Y-11206976D01*
X7309881Y-11206976D01*
X7290833Y-11197452D01*
X7281309Y-11187928D01*
X7271786Y-11168881D01*
X7262262Y-11130786D01*
X7262262Y-11083167D01*
X7271786Y-11045071D01*
X7281309Y-11026024D01*
X7290833Y-11016500D01*
X7309881Y-11006976D01*
X7462262Y-11206976D02*
X7462262Y-11073643D01*
X7462262Y-11092690D02*
X7471786Y-11083167D01*
X7490833Y-11073643D01*
X7519405Y-11073643D01*
X7538452Y-11083167D01*
X7547976Y-11102214D01*
X7547976Y-11206976D01*
X7547976Y-11102214D02*
X7557500Y-11083167D01*
X7576548Y-11073643D01*
X7605119Y-11073643D01*
X7624167Y-11083167D01*
X7633690Y-11102214D01*
X7633690Y-11206976D01*
X7728928Y-11206976D02*
X7728928Y-11073643D01*
X7728928Y-11092690D02*
X7738452Y-11083167D01*
X7757500Y-11073643D01*
X7786071Y-11073643D01*
X7805119Y-11083167D01*
X7814643Y-11102214D01*
X7814643Y-11206976D01*
X7814643Y-11102214D02*
X7824167Y-11083167D01*
X7843214Y-11073643D01*
X7871786Y-11073643D01*
X7890833Y-11083167D01*
X7900357Y-11102214D01*
X7900357Y-11206976D01*
X8290833Y-10997452D02*
X8119405Y-11254595D01*
X8547976Y-11006976D02*
X8567024Y-11006976D01*
X8586071Y-11016500D01*
X8595595Y-11026024D01*
X8605119Y-11045071D01*
X8614643Y-11083167D01*
X8614643Y-11130786D01*
X8605119Y-11168881D01*
X8595595Y-11187928D01*
X8586071Y-11197452D01*
X8567024Y-11206976D01*
X8547976Y-11206976D01*
X8528929Y-11197452D01*
X8519405Y-11187928D01*
X8509881Y-11168881D01*
X8500357Y-11130786D01*
X8500357Y-11083167D01*
X8509881Y-11045071D01*
X8519405Y-11026024D01*
X8528929Y-11016500D01*
X8547976Y-11006976D01*
X8700357Y-11187928D02*
X8709881Y-11197452D01*
X8700357Y-11206976D01*
X8690833Y-11197452D01*
X8700357Y-11187928D01*
X8700357Y-11206976D01*
X8833690Y-11006976D02*
X8852738Y-11006976D01*
X8871786Y-11016500D01*
X8881310Y-11026024D01*
X8890833Y-11045071D01*
X8900357Y-11083167D01*
X8900357Y-11130786D01*
X8890833Y-11168881D01*
X8881310Y-11187928D01*
X8871786Y-11197452D01*
X8852738Y-11206976D01*
X8833690Y-11206976D01*
X8814643Y-11197452D01*
X8805119Y-11187928D01*
X8795595Y-11168881D01*
X8786071Y-11130786D01*
X8786071Y-11083167D01*
X8795595Y-11045071D01*
X8805119Y-11026024D01*
X8814643Y-11016500D01*
X8833690Y-11006976D01*
X8967024Y-11006976D02*
X9090833Y-11006976D01*
X9024167Y-11083167D01*
X9052738Y-11083167D01*
X9071786Y-11092690D01*
X9081310Y-11102214D01*
X9090833Y-11121262D01*
X9090833Y-11168881D01*
X9081310Y-11187928D01*
X9071786Y-11197452D01*
X9052738Y-11206976D01*
X8995595Y-11206976D01*
X8976548Y-11197452D01*
X8967024Y-11187928D01*
X9186071Y-11206976D02*
X9224167Y-11206976D01*
X9243214Y-11197452D01*
X9252738Y-11187928D01*
X9271786Y-11159357D01*
X9281310Y-11121262D01*
X9281310Y-11045071D01*
X9271786Y-11026024D01*
X9262262Y-11016500D01*
X9243214Y-11006976D01*
X9205119Y-11006976D01*
X9186071Y-11016500D01*
X9176548Y-11026024D01*
X9167024Y-11045071D01*
X9167024Y-11092690D01*
X9176548Y-11111738D01*
X9186071Y-11121262D01*
X9205119Y-11130786D01*
X9243214Y-11130786D01*
X9262262Y-11121262D01*
X9271786Y-11111738D01*
X9281310Y-11092690D01*
X9452738Y-11073643D02*
X9452738Y-11206976D01*
X9405119Y-10997452D02*
X9357500Y-11140310D01*
X9481310Y-11140310D01*
X9547976Y-11006976D02*
X9547976Y-11045071D01*
X9624167Y-11006976D02*
X9624167Y-11045071D01*
X9919405Y-11283167D02*
X9909881Y-11273643D01*
X9890833Y-11245071D01*
X9881310Y-11226024D01*
X9871786Y-11197452D01*
X9862262Y-11149833D01*
X9862262Y-11111738D01*
X9871786Y-11064119D01*
X9881310Y-11035548D01*
X9890833Y-11016500D01*
X9909881Y-10987929D01*
X9919405Y-10978405D01*
X10100357Y-11206976D02*
X9986071Y-11206976D01*
X10043214Y-11206976D02*
X10043214Y-11006976D01*
X10024167Y-11035548D01*
X10005119Y-11054595D01*
X9986071Y-11064119D01*
X10214643Y-11092690D02*
X10195595Y-11083167D01*
X10186071Y-11073643D01*
X10176548Y-11054595D01*
X10176548Y-11045071D01*
X10186071Y-11026024D01*
X10195595Y-11016500D01*
X10214643Y-11006976D01*
X10252738Y-11006976D01*
X10271786Y-11016500D01*
X10281310Y-11026024D01*
X10290833Y-11045071D01*
X10290833Y-11054595D01*
X10281310Y-11073643D01*
X10271786Y-11083167D01*
X10252738Y-11092690D01*
X10214643Y-11092690D01*
X10195595Y-11102214D01*
X10186071Y-11111738D01*
X10176548Y-11130786D01*
X10176548Y-11168881D01*
X10186071Y-11187928D01*
X10195595Y-11197452D01*
X10214643Y-11206976D01*
X10252738Y-11206976D01*
X10271786Y-11197452D01*
X10281310Y-11187928D01*
X10290833Y-11168881D01*
X10290833Y-11130786D01*
X10281310Y-11111738D01*
X10271786Y-11102214D01*
X10252738Y-11092690D01*
X10528929Y-11206976D02*
X10528929Y-11006976D01*
X10614643Y-11206976D02*
X10614643Y-11102214D01*
X10605119Y-11083167D01*
X10586071Y-11073643D01*
X10557500Y-11073643D01*
X10538452Y-11083167D01*
X10528929Y-11092690D01*
X10738452Y-11206976D02*
X10719405Y-11197452D01*
X10709881Y-11187928D01*
X10700357Y-11168881D01*
X10700357Y-11111738D01*
X10709881Y-11092690D01*
X10719405Y-11083167D01*
X10738452Y-11073643D01*
X10767024Y-11073643D01*
X10786071Y-11083167D01*
X10795595Y-11092690D01*
X10805119Y-11111738D01*
X10805119Y-11168881D01*
X10795595Y-11187928D01*
X10786071Y-11197452D01*
X10767024Y-11206976D01*
X10738452Y-11206976D01*
X10919405Y-11206976D02*
X10900357Y-11197452D01*
X10890833Y-11178405D01*
X10890833Y-11006976D01*
X11071786Y-11197452D02*
X11052738Y-11206976D01*
X11014643Y-11206976D01*
X10995595Y-11197452D01*
X10986071Y-11178405D01*
X10986071Y-11102214D01*
X10995595Y-11083167D01*
X11014643Y-11073643D01*
X11052738Y-11073643D01*
X11071786Y-11083167D01*
X11081310Y-11102214D01*
X11081310Y-11121262D01*
X10986071Y-11140310D01*
X11157500Y-11197452D02*
X11176548Y-11206976D01*
X11214643Y-11206976D01*
X11233690Y-11197452D01*
X11243214Y-11178405D01*
X11243214Y-11168881D01*
X11233690Y-11149833D01*
X11214643Y-11140310D01*
X11186071Y-11140310D01*
X11167024Y-11130786D01*
X11157500Y-11111738D01*
X11157500Y-11102214D01*
X11167024Y-11083167D01*
X11186071Y-11073643D01*
X11214643Y-11073643D01*
X11233690Y-11083167D01*
X11309881Y-11283167D02*
X11319405Y-11273643D01*
X11338452Y-11245071D01*
X11347976Y-11226024D01*
X11357500Y-11197452D01*
X11367024Y-11149833D01*
X11367024Y-11111738D01*
X11357500Y-11064119D01*
X11347976Y-11035548D01*
X11338452Y-11016500D01*
X11319405Y-10987929D01*
X11309881Y-10978405D01*
D18*
X6228500Y-11321000D02*
X6347500Y-11440000D01*
X6347500Y-11321000D02*
X6228500Y-11440000D01*
X6330073Y-11422573D02*
X6330073Y-11338427D01*
X6245927Y-11338427D01*
X6245927Y-11422573D01*
X6330073Y-11422573D01*
D11*
X6709881Y-11470976D02*
X6595595Y-11470976D01*
X6652738Y-11470976D02*
X6652738Y-11270976D01*
X6633690Y-11299548D01*
X6614643Y-11318595D01*
X6595595Y-11328119D01*
X6795595Y-11451928D02*
X6805119Y-11461452D01*
X6795595Y-11470976D01*
X6786071Y-11461452D01*
X6795595Y-11451928D01*
X6795595Y-11470976D01*
X6995595Y-11470976D02*
X6881309Y-11470976D01*
X6938452Y-11470976D02*
X6938452Y-11270976D01*
X6919405Y-11299548D01*
X6900357Y-11318595D01*
X6881309Y-11328119D01*
X7090833Y-11470976D02*
X7128928Y-11470976D01*
X7147976Y-11461452D01*
X7157500Y-11451928D01*
X7176548Y-11423357D01*
X7186071Y-11385262D01*
X7186071Y-11309071D01*
X7176548Y-11290024D01*
X7167024Y-11280500D01*
X7147976Y-11270976D01*
X7109881Y-11270976D01*
X7090833Y-11280500D01*
X7081309Y-11290024D01*
X7071786Y-11309071D01*
X7071786Y-11356690D01*
X7081309Y-11375738D01*
X7090833Y-11385262D01*
X7109881Y-11394786D01*
X7147976Y-11394786D01*
X7167024Y-11385262D01*
X7176548Y-11375738D01*
X7186071Y-11356690D01*
X7309881Y-11270976D02*
X7328928Y-11270976D01*
X7347976Y-11280500D01*
X7357500Y-11290024D01*
X7367024Y-11309071D01*
X7376548Y-11347167D01*
X7376548Y-11394786D01*
X7367024Y-11432881D01*
X7357500Y-11451928D01*
X7347976Y-11461452D01*
X7328928Y-11470976D01*
X7309881Y-11470976D01*
X7290833Y-11461452D01*
X7281309Y-11451928D01*
X7271786Y-11432881D01*
X7262262Y-11394786D01*
X7262262Y-11347167D01*
X7271786Y-11309071D01*
X7281309Y-11290024D01*
X7290833Y-11280500D01*
X7309881Y-11270976D01*
X7462262Y-11470976D02*
X7462262Y-11337643D01*
X7462262Y-11356690D02*
X7471786Y-11347167D01*
X7490833Y-11337643D01*
X7519405Y-11337643D01*
X7538452Y-11347167D01*
X7547976Y-11366214D01*
X7547976Y-11470976D01*
X7547976Y-11366214D02*
X7557500Y-11347167D01*
X7576548Y-11337643D01*
X7605119Y-11337643D01*
X7624167Y-11347167D01*
X7633690Y-11366214D01*
X7633690Y-11470976D01*
X7728928Y-11470976D02*
X7728928Y-11337643D01*
X7728928Y-11356690D02*
X7738452Y-11347167D01*
X7757500Y-11337643D01*
X7786071Y-11337643D01*
X7805119Y-11347167D01*
X7814643Y-11366214D01*
X7814643Y-11470976D01*
X7814643Y-11366214D02*
X7824167Y-11347167D01*
X7843214Y-11337643D01*
X7871786Y-11337643D01*
X7890833Y-11347167D01*
X7900357Y-11366214D01*
X7900357Y-11470976D01*
X8290833Y-11261452D02*
X8119405Y-11518595D01*
X8547976Y-11270976D02*
X8567024Y-11270976D01*
X8586071Y-11280500D01*
X8595595Y-11290024D01*
X8605119Y-11309071D01*
X8614643Y-11347167D01*
X8614643Y-11394786D01*
X8605119Y-11432881D01*
X8595595Y-11451928D01*
X8586071Y-11461452D01*
X8567024Y-11470976D01*
X8547976Y-11470976D01*
X8528929Y-11461452D01*
X8519405Y-11451928D01*
X8509881Y-11432881D01*
X8500357Y-11394786D01*
X8500357Y-11347167D01*
X8509881Y-11309071D01*
X8519405Y-11290024D01*
X8528929Y-11280500D01*
X8547976Y-11270976D01*
X8700357Y-11451928D02*
X8709881Y-11461452D01*
X8700357Y-11470976D01*
X8690833Y-11461452D01*
X8700357Y-11451928D01*
X8700357Y-11470976D01*
X8833690Y-11270976D02*
X8852738Y-11270976D01*
X8871786Y-11280500D01*
X8881310Y-11290024D01*
X8890833Y-11309071D01*
X8900357Y-11347167D01*
X8900357Y-11394786D01*
X8890833Y-11432881D01*
X8881310Y-11451928D01*
X8871786Y-11461452D01*
X8852738Y-11470976D01*
X8833690Y-11470976D01*
X8814643Y-11461452D01*
X8805119Y-11451928D01*
X8795595Y-11432881D01*
X8786071Y-11394786D01*
X8786071Y-11347167D01*
X8795595Y-11309071D01*
X8805119Y-11290024D01*
X8814643Y-11280500D01*
X8833690Y-11270976D01*
X9071786Y-11337643D02*
X9071786Y-11470976D01*
X9024167Y-11261452D02*
X8976548Y-11404309D01*
X9100357Y-11404309D01*
X9262262Y-11270976D02*
X9224167Y-11270976D01*
X9205119Y-11280500D01*
X9195595Y-11290024D01*
X9176548Y-11318595D01*
X9167024Y-11356690D01*
X9167024Y-11432881D01*
X9176548Y-11451928D01*
X9186071Y-11461452D01*
X9205119Y-11470976D01*
X9243214Y-11470976D01*
X9262262Y-11461452D01*
X9271786Y-11451928D01*
X9281310Y-11432881D01*
X9281310Y-11385262D01*
X9271786Y-11366214D01*
X9262262Y-11356690D01*
X9243214Y-11347167D01*
X9205119Y-11347167D01*
X9186071Y-11356690D01*
X9176548Y-11366214D01*
X9167024Y-11385262D01*
X9376548Y-11470976D02*
X9414643Y-11470976D01*
X9433690Y-11461452D01*
X9443214Y-11451928D01*
X9462262Y-11423357D01*
X9471786Y-11385262D01*
X9471786Y-11309071D01*
X9462262Y-11290024D01*
X9452738Y-11280500D01*
X9433690Y-11270976D01*
X9395595Y-11270976D01*
X9376548Y-11280500D01*
X9367024Y-11290024D01*
X9357500Y-11309071D01*
X9357500Y-11356690D01*
X9367024Y-11375738D01*
X9376548Y-11385262D01*
X9395595Y-11394786D01*
X9433690Y-11394786D01*
X9452738Y-11385262D01*
X9462262Y-11375738D01*
X9471786Y-11356690D01*
X9547976Y-11270976D02*
X9547976Y-11309071D01*
X9624167Y-11270976D02*
X9624167Y-11309071D01*
X9919405Y-11547167D02*
X9909881Y-11537643D01*
X9890833Y-11509071D01*
X9881310Y-11490024D01*
X9871786Y-11461452D01*
X9862262Y-11413833D01*
X9862262Y-11375738D01*
X9871786Y-11328119D01*
X9881310Y-11299548D01*
X9890833Y-11280500D01*
X9909881Y-11251928D01*
X9919405Y-11242405D01*
X10081310Y-11337643D02*
X10081310Y-11470976D01*
X10033690Y-11261452D02*
X9986071Y-11404309D01*
X10109881Y-11404309D01*
X10338452Y-11470976D02*
X10338452Y-11270976D01*
X10424167Y-11470976D02*
X10424167Y-11366214D01*
X10414643Y-11347167D01*
X10395595Y-11337643D01*
X10367024Y-11337643D01*
X10347976Y-11347167D01*
X10338452Y-11356690D01*
X10547976Y-11470976D02*
X10528929Y-11461452D01*
X10519405Y-11451928D01*
X10509881Y-11432881D01*
X10509881Y-11375738D01*
X10519405Y-11356690D01*
X10528929Y-11347167D01*
X10547976Y-11337643D01*
X10576548Y-11337643D01*
X10595595Y-11347167D01*
X10605119Y-11356690D01*
X10614643Y-11375738D01*
X10614643Y-11432881D01*
X10605119Y-11451928D01*
X10595595Y-11461452D01*
X10576548Y-11470976D01*
X10547976Y-11470976D01*
X10728929Y-11470976D02*
X10709881Y-11461452D01*
X10700357Y-11442405D01*
X10700357Y-11270976D01*
X10881310Y-11461452D02*
X10862262Y-11470976D01*
X10824167Y-11470976D01*
X10805119Y-11461452D01*
X10795595Y-11442405D01*
X10795595Y-11366214D01*
X10805119Y-11347167D01*
X10824167Y-11337643D01*
X10862262Y-11337643D01*
X10881310Y-11347167D01*
X10890833Y-11366214D01*
X10890833Y-11385262D01*
X10795595Y-11404309D01*
X10967024Y-11461452D02*
X10986071Y-11470976D01*
X11024167Y-11470976D01*
X11043214Y-11461452D01*
X11052738Y-11442405D01*
X11052738Y-11432881D01*
X11043214Y-11413833D01*
X11024167Y-11404309D01*
X10995595Y-11404309D01*
X10976548Y-11394786D01*
X10967024Y-11375738D01*
X10967024Y-11366214D01*
X10976548Y-11347167D01*
X10995595Y-11337643D01*
X11024167Y-11337643D01*
X11043214Y-11347167D01*
X11119405Y-11547167D02*
X11128929Y-11537643D01*
X11147976Y-11509071D01*
X11157500Y-11490024D01*
X11167024Y-11461452D01*
X11176548Y-11413833D01*
X11176548Y-11375738D01*
X11167024Y-11328119D01*
X11157500Y-11299548D01*
X11147976Y-11280500D01*
X11128929Y-11251928D01*
X11119405Y-11242405D01*
M02*
