G04 #@! TF.GenerationSoftware,KiCad,Pcbnew,(6.0.9)*
G04 #@! TF.CreationDate,2022-12-08T08:51:43+01:00*
G04 #@! TF.ProjectId,STLinkV2,53544c69-6e6b-4563-922e-6b696361645f,rev?*
G04 #@! TF.SameCoordinates,Original*
G04 #@! TF.FileFunction,Legend,Top*
G04 #@! TF.FilePolarity,Positive*
%FSLAX46Y46*%
G04 Gerber Fmt 4.6, Leading zero omitted, Abs format (unit mm)*
G04 Created by KiCad (PCBNEW (6.0.9)) date 2022-12-08 08:51:43*
%MOMM*%
%LPD*%
G01*
G04 APERTURE LIST*
G04 Aperture macros list*
%AMRoundRect*
0 Rectangle with rounded corners*
0 $1 Rounding radius*
0 $2 $3 $4 $5 $6 $7 $8 $9 X,Y pos of 4 corners*
0 Add a 4 corners polygon primitive as box body*
4,1,4,$2,$3,$4,$5,$6,$7,$8,$9,$2,$3,0*
0 Add four circle primitives for the rounded corners*
1,1,$1+$1,$2,$3*
1,1,$1+$1,$4,$5*
1,1,$1+$1,$6,$7*
1,1,$1+$1,$8,$9*
0 Add four rect primitives between the rounded corners*
20,1,$1+$1,$2,$3,$4,$5,0*
20,1,$1+$1,$4,$5,$6,$7,0*
20,1,$1+$1,$6,$7,$8,$9,0*
20,1,$1+$1,$8,$9,$2,$3,0*%
%AMFreePoly0*
4,1,9,3.862500,-0.866500,0.737500,-0.866500,0.737500,-0.450000,-0.737500,-0.450000,-0.737500,0.450000,0.737500,0.450000,0.737500,0.866500,3.862500,0.866500,3.862500,-0.866500,3.862500,-0.866500,$1*%
G04 Aperture macros list end*
%ADD10C,0.100000*%
%ADD11C,0.300000*%
%ADD12C,0.152400*%
%ADD13C,0.150000*%
%ADD14C,0.200000*%
%ADD15C,0.120000*%
%ADD16RoundRect,0.225000X0.250000X-0.225000X0.250000X0.225000X-0.250000X0.225000X-0.250000X-0.225000X0*%
%ADD17R,2.400000X0.740000*%
%ADD18RoundRect,0.200000X-0.200000X-0.275000X0.200000X-0.275000X0.200000X0.275000X-0.200000X0.275000X0*%
%ADD19RoundRect,0.200000X-0.275000X0.200000X-0.275000X-0.200000X0.275000X-0.200000X0.275000X0.200000X0*%
%ADD20RoundRect,0.200000X0.275000X-0.200000X0.275000X0.200000X-0.275000X0.200000X-0.275000X-0.200000X0*%
%ADD21RoundRect,0.225000X-0.225000X-0.250000X0.225000X-0.250000X0.225000X0.250000X-0.225000X0.250000X0*%
%ADD22C,4.000000*%
%ADD23R,1.700000X1.700000*%
%ADD24O,1.700000X1.700000*%
%ADD25RoundRect,0.218750X0.218750X0.256250X-0.218750X0.256250X-0.218750X-0.256250X0.218750X-0.256250X0*%
%ADD26R,1.300000X0.900000*%
%ADD27FreePoly0,180.000000*%
%ADD28RoundRect,0.218750X-0.256250X0.218750X-0.256250X-0.218750X0.256250X-0.218750X0.256250X0.218750X0*%
%ADD29RoundRect,0.225000X0.225000X0.250000X-0.225000X0.250000X-0.225000X-0.250000X0.225000X-0.250000X0*%
%ADD30R,1.550000X0.400000*%
%ADD31R,1.900000X1.500000*%
%ADD32C,1.450000*%
%ADD33O,1.900000X1.200000*%
%ADD34R,1.900000X1.200000*%
%ADD35RoundRect,0.075000X0.075000X-0.662500X0.075000X0.662500X-0.075000X0.662500X-0.075000X-0.662500X0*%
%ADD36RoundRect,0.075000X0.662500X-0.075000X0.662500X0.075000X-0.662500X0.075000X-0.662500X-0.075000X0*%
%ADD37RoundRect,0.225000X-0.250000X0.225000X-0.250000X-0.225000X0.250000X-0.225000X0.250000X0.225000X0*%
%ADD38R,1.400000X1.200000*%
%ADD39RoundRect,0.200000X0.200000X0.275000X-0.200000X0.275000X-0.200000X-0.275000X0.200000X-0.275000X0*%
%ADD40RoundRect,0.250000X-0.845000X0.620000X-0.845000X-0.620000X0.845000X-0.620000X0.845000X0.620000X0*%
%ADD41O,2.190000X1.740000*%
%ADD42R,0.500000X0.400000*%
%ADD43R,0.500000X0.300000*%
%ADD44R,0.800000X0.300000*%
%ADD45RoundRect,0.150000X-0.512500X-0.150000X0.512500X-0.150000X0.512500X0.150000X-0.512500X0.150000X0*%
%ADD46RoundRect,0.150000X0.150000X-0.512500X0.150000X0.512500X-0.150000X0.512500X-0.150000X-0.512500X0*%
%ADD47R,0.900000X1.200000*%
G04 APERTURE END LIST*
D10*
G36*
X90068400Y-59080400D02*
G01*
X89306400Y-58064400D01*
X90830400Y-58064400D01*
X90068400Y-59080400D01*
G37*
X90068400Y-59080400D02*
X89306400Y-58064400D01*
X90830400Y-58064400D01*
X90068400Y-59080400D01*
G36*
X121869200Y-56540400D02*
G01*
X121107200Y-55524400D01*
X122631200Y-55524400D01*
X121869200Y-56540400D01*
G37*
X121869200Y-56540400D02*
X121107200Y-55524400D01*
X122631200Y-55524400D01*
X121869200Y-56540400D01*
G36*
X83616800Y-81280000D02*
G01*
X82786800Y-81860000D01*
X82786800Y-80700000D01*
X83616800Y-81280000D01*
G37*
X83616800Y-81280000D02*
X82786800Y-81860000D01*
X82786800Y-80700000D01*
X83616800Y-81280000D01*
D11*
X69357492Y-58404508D02*
G75*
G03*
X69357492Y-58404508I-1691892J0D01*
G01*
D10*
G36*
X99670000Y-64175000D02*
G01*
X98908000Y-63159000D01*
X100432000Y-63159000D01*
X99670000Y-64175000D01*
G37*
X99670000Y-64175000D02*
X98908000Y-63159000D01*
X100432000Y-63159000D01*
X99670000Y-64175000D01*
D12*
X98588285Y-55855809D02*
X98626990Y-55894514D01*
X98665695Y-56010628D01*
X98665695Y-56088038D01*
X98626990Y-56204152D01*
X98549580Y-56281561D01*
X98472171Y-56320266D01*
X98317352Y-56358971D01*
X98201238Y-56358971D01*
X98046419Y-56320266D01*
X97969009Y-56281561D01*
X97891600Y-56204152D01*
X97852895Y-56088038D01*
X97852895Y-56010628D01*
X97891600Y-55894514D01*
X97930304Y-55855809D01*
X98665695Y-55120419D02*
X98665695Y-55507466D01*
X97852895Y-55507466D01*
X98665695Y-54849485D02*
X97852895Y-54849485D01*
X98665695Y-54385028D02*
X98201238Y-54733371D01*
X97852895Y-54385028D02*
X98317352Y-54849485D01*
X92772895Y-56212619D02*
X92772895Y-55709457D01*
X93082533Y-55980390D01*
X93082533Y-55864276D01*
X93121238Y-55786866D01*
X93159942Y-55748161D01*
X93237352Y-55709457D01*
X93430876Y-55709457D01*
X93508285Y-55748161D01*
X93546990Y-55786866D01*
X93585695Y-55864276D01*
X93585695Y-56096504D01*
X93546990Y-56173914D01*
X93508285Y-56212619D01*
X93043828Y-55438523D02*
X93585695Y-55245000D01*
X93043828Y-55051476D01*
X92772895Y-54819247D02*
X92772895Y-54316085D01*
X93082533Y-54587019D01*
X93082533Y-54470904D01*
X93121238Y-54393495D01*
X93159942Y-54354790D01*
X93237352Y-54316085D01*
X93430876Y-54316085D01*
X93508285Y-54354790D01*
X93546990Y-54393495D01*
X93585695Y-54470904D01*
X93585695Y-54703133D01*
X93546990Y-54780542D01*
X93508285Y-54819247D01*
X100431600Y-56042076D02*
X100392895Y-56119485D01*
X100392895Y-56235600D01*
X100431600Y-56351714D01*
X100509009Y-56429123D01*
X100586419Y-56467828D01*
X100741238Y-56506533D01*
X100857352Y-56506533D01*
X101012171Y-56467828D01*
X101089580Y-56429123D01*
X101166990Y-56351714D01*
X101205695Y-56235600D01*
X101205695Y-56158190D01*
X101166990Y-56042076D01*
X101128285Y-56003371D01*
X100857352Y-56003371D01*
X100857352Y-56158190D01*
X101205695Y-55655028D02*
X100392895Y-55655028D01*
X101205695Y-55190571D01*
X100392895Y-55190571D01*
X101205695Y-54803523D02*
X100392895Y-54803523D01*
X100392895Y-54610000D01*
X100431600Y-54493885D01*
X100509009Y-54416476D01*
X100586419Y-54377771D01*
X100741238Y-54339066D01*
X100857352Y-54339066D01*
X101012171Y-54377771D01*
X101089580Y-54416476D01*
X101166990Y-54493885D01*
X101205695Y-54610000D01*
X101205695Y-54803523D01*
D13*
X121972533Y-83221580D02*
X121972533Y-83935866D01*
X121924914Y-84078723D01*
X121829676Y-84173961D01*
X121686819Y-84221580D01*
X121591580Y-84221580D01*
X122305866Y-83221580D02*
X122877295Y-83221580D01*
X122591580Y-84221580D02*
X122591580Y-83221580D01*
X123163009Y-83935866D02*
X123639200Y-83935866D01*
X123067771Y-84221580D02*
X123401104Y-83221580D01*
X123734438Y-84221580D01*
X124591580Y-83269200D02*
X124496342Y-83221580D01*
X124353485Y-83221580D01*
X124210628Y-83269200D01*
X124115390Y-83364438D01*
X124067771Y-83459676D01*
X124020152Y-83650152D01*
X124020152Y-83793009D01*
X124067771Y-83983485D01*
X124115390Y-84078723D01*
X124210628Y-84173961D01*
X124353485Y-84221580D01*
X124448723Y-84221580D01*
X124591580Y-84173961D01*
X124639200Y-84126342D01*
X124639200Y-83793009D01*
X124448723Y-83793009D01*
X89155733Y-66051180D02*
X89155733Y-66765466D01*
X89108114Y-66908323D01*
X89012876Y-67003561D01*
X88870019Y-67051180D01*
X88774780Y-67051180D01*
X89489066Y-66051180D02*
X90060495Y-66051180D01*
X89774780Y-67051180D02*
X89774780Y-66051180D01*
X90346209Y-66765466D02*
X90822400Y-66765466D01*
X90250971Y-67051180D02*
X90584304Y-66051180D01*
X90917638Y-67051180D01*
X91774780Y-66098800D02*
X91679542Y-66051180D01*
X91536685Y-66051180D01*
X91393828Y-66098800D01*
X91298590Y-66194038D01*
X91250971Y-66289276D01*
X91203352Y-66479752D01*
X91203352Y-66622609D01*
X91250971Y-66813085D01*
X91298590Y-66908323D01*
X91393828Y-67003561D01*
X91536685Y-67051180D01*
X91631923Y-67051180D01*
X91774780Y-67003561D01*
X91822400Y-66955942D01*
X91822400Y-66622609D01*
X91631923Y-66622609D01*
X95362780Y-71496038D02*
X96172304Y-71496038D01*
X96267542Y-71448419D01*
X96315161Y-71400800D01*
X96362780Y-71305561D01*
X96362780Y-71115085D01*
X96315161Y-71019847D01*
X96267542Y-70972228D01*
X96172304Y-70924609D01*
X95362780Y-70924609D01*
X96077066Y-70496038D02*
X96077066Y-70019847D01*
X96362780Y-70591276D02*
X95362780Y-70257942D01*
X96362780Y-69924609D01*
X96362780Y-69019847D02*
X95886590Y-69353180D01*
X96362780Y-69591276D02*
X95362780Y-69591276D01*
X95362780Y-69210323D01*
X95410400Y-69115085D01*
X95458019Y-69067466D01*
X95553257Y-69019847D01*
X95696114Y-69019847D01*
X95791352Y-69067466D01*
X95838971Y-69115085D01*
X95886590Y-69210323D01*
X95886590Y-69591276D01*
X95362780Y-68734133D02*
X95362780Y-68162704D01*
X96362780Y-68448419D02*
X95362780Y-68448419D01*
D11*
X94886161Y-60113771D02*
X95114733Y-60199485D01*
X95495685Y-60199485D01*
X95648066Y-60113771D01*
X95724257Y-60028057D01*
X95800447Y-59856628D01*
X95800447Y-59685200D01*
X95724257Y-59513771D01*
X95648066Y-59428057D01*
X95495685Y-59342342D01*
X95190923Y-59256628D01*
X95038542Y-59170914D01*
X94962352Y-59085200D01*
X94886161Y-58913771D01*
X94886161Y-58742342D01*
X94962352Y-58570914D01*
X95038542Y-58485200D01*
X95190923Y-58399485D01*
X95571876Y-58399485D01*
X95800447Y-58485200D01*
X96257590Y-58399485D02*
X97171876Y-58399485D01*
X96714733Y-60199485D02*
X96714733Y-58399485D01*
X98467114Y-60199485D02*
X97705209Y-60199485D01*
X97705209Y-58399485D01*
X99000447Y-60199485D02*
X99000447Y-58999485D01*
X99000447Y-58399485D02*
X98924257Y-58485200D01*
X99000447Y-58570914D01*
X99076638Y-58485200D01*
X99000447Y-58399485D01*
X99000447Y-58570914D01*
X99762352Y-58999485D02*
X99762352Y-60199485D01*
X99762352Y-59170914D02*
X99838542Y-59085200D01*
X99990923Y-58999485D01*
X100219495Y-58999485D01*
X100371876Y-59085200D01*
X100448066Y-59256628D01*
X100448066Y-60199485D01*
X101209971Y-60199485D02*
X101209971Y-58399485D01*
X101362352Y-59513771D02*
X101819495Y-60199485D01*
X101819495Y-58999485D02*
X101209971Y-59685200D01*
X103648066Y-58313771D02*
X102276638Y-60628057D01*
X103952828Y-58399485D02*
X104486161Y-60199485D01*
X105019495Y-58399485D01*
X105476638Y-58570914D02*
X105552828Y-58485200D01*
X105705209Y-58399485D01*
X106086161Y-58399485D01*
X106238542Y-58485200D01*
X106314733Y-58570914D01*
X106390923Y-58742342D01*
X106390923Y-58913771D01*
X106314733Y-59170914D01*
X105400447Y-60199485D01*
X106390923Y-60199485D01*
D13*
X106050342Y-83365780D02*
X105717009Y-82889590D01*
X105478914Y-83365780D02*
X105478914Y-82365780D01*
X105859866Y-82365780D01*
X105955104Y-82413400D01*
X106002723Y-82461019D01*
X106050342Y-82556257D01*
X106050342Y-82699114D01*
X106002723Y-82794352D01*
X105955104Y-82841971D01*
X105859866Y-82889590D01*
X105478914Y-82889590D01*
X106859866Y-83318161D02*
X106764628Y-83365780D01*
X106574152Y-83365780D01*
X106478914Y-83318161D01*
X106431295Y-83222923D01*
X106431295Y-82841971D01*
X106478914Y-82746733D01*
X106574152Y-82699114D01*
X106764628Y-82699114D01*
X106859866Y-82746733D01*
X106907485Y-82841971D01*
X106907485Y-82937209D01*
X106431295Y-83032447D01*
X107764628Y-83365780D02*
X107764628Y-82365780D01*
X107764628Y-83318161D02*
X107669390Y-83365780D01*
X107478914Y-83365780D01*
X107383676Y-83318161D01*
X107336057Y-83270542D01*
X107288438Y-83175304D01*
X107288438Y-82889590D01*
X107336057Y-82794352D01*
X107383676Y-82746733D01*
X107478914Y-82699114D01*
X107669390Y-82699114D01*
X107764628Y-82746733D01*
X108621771Y-83318161D02*
X108526533Y-83365780D01*
X108336057Y-83365780D01*
X108240819Y-83318161D01*
X108193200Y-83222923D01*
X108193200Y-82841971D01*
X108240819Y-82746733D01*
X108336057Y-82699114D01*
X108526533Y-82699114D01*
X108621771Y-82746733D01*
X108669390Y-82841971D01*
X108669390Y-82937209D01*
X108193200Y-83032447D01*
X109050342Y-83318161D02*
X109145580Y-83365780D01*
X109336057Y-83365780D01*
X109431295Y-83318161D01*
X109478914Y-83222923D01*
X109478914Y-83175304D01*
X109431295Y-83080066D01*
X109336057Y-83032447D01*
X109193200Y-83032447D01*
X109097961Y-82984828D01*
X109050342Y-82889590D01*
X109050342Y-82841971D01*
X109097961Y-82746733D01*
X109193200Y-82699114D01*
X109336057Y-82699114D01*
X109431295Y-82746733D01*
X109907485Y-83365780D02*
X109907485Y-82699114D01*
X109907485Y-82365780D02*
X109859866Y-82413400D01*
X109907485Y-82461019D01*
X109955104Y-82413400D01*
X109907485Y-82365780D01*
X109907485Y-82461019D01*
X110812247Y-82699114D02*
X110812247Y-83508638D01*
X110764628Y-83603876D01*
X110717009Y-83651495D01*
X110621771Y-83699114D01*
X110478914Y-83699114D01*
X110383676Y-83651495D01*
X110812247Y-83318161D02*
X110717009Y-83365780D01*
X110526533Y-83365780D01*
X110431295Y-83318161D01*
X110383676Y-83270542D01*
X110336057Y-83175304D01*
X110336057Y-82889590D01*
X110383676Y-82794352D01*
X110431295Y-82746733D01*
X110526533Y-82699114D01*
X110717009Y-82699114D01*
X110812247Y-82746733D01*
X111288438Y-82699114D02*
X111288438Y-83365780D01*
X111288438Y-82794352D02*
X111336057Y-82746733D01*
X111431295Y-82699114D01*
X111574152Y-82699114D01*
X111669390Y-82746733D01*
X111717009Y-82841971D01*
X111717009Y-83365780D01*
X112574152Y-83318161D02*
X112478914Y-83365780D01*
X112288438Y-83365780D01*
X112193200Y-83318161D01*
X112145580Y-83222923D01*
X112145580Y-82841971D01*
X112193200Y-82746733D01*
X112288438Y-82699114D01*
X112478914Y-82699114D01*
X112574152Y-82746733D01*
X112621771Y-82841971D01*
X112621771Y-82937209D01*
X112145580Y-83032447D01*
X113478914Y-83365780D02*
X113478914Y-82365780D01*
X113478914Y-83318161D02*
X113383676Y-83365780D01*
X113193200Y-83365780D01*
X113097961Y-83318161D01*
X113050342Y-83270542D01*
X113002723Y-83175304D01*
X113002723Y-82889590D01*
X113050342Y-82794352D01*
X113097961Y-82746733D01*
X113193200Y-82699114D01*
X113383676Y-82699114D01*
X113478914Y-82746733D01*
X114717009Y-83365780D02*
X114717009Y-82365780D01*
X114717009Y-82746733D02*
X114812247Y-82699114D01*
X115002723Y-82699114D01*
X115097961Y-82746733D01*
X115145580Y-82794352D01*
X115193200Y-82889590D01*
X115193200Y-83175304D01*
X115145580Y-83270542D01*
X115097961Y-83318161D01*
X115002723Y-83365780D01*
X114812247Y-83365780D01*
X114717009Y-83318161D01*
X115526533Y-82699114D02*
X115764628Y-83365780D01*
X116002723Y-82699114D02*
X115764628Y-83365780D01*
X115669390Y-83603876D01*
X115621771Y-83651495D01*
X115526533Y-83699114D01*
X101907485Y-84213876D02*
X101812247Y-84166257D01*
X101621771Y-84166257D01*
X101526533Y-84213876D01*
X101431295Y-84309114D01*
X101383676Y-84404352D01*
X101383676Y-84594828D01*
X101431295Y-84690066D01*
X101526533Y-84785304D01*
X101621771Y-84832923D01*
X101812247Y-84832923D01*
X101907485Y-84785304D01*
X101717009Y-83832923D02*
X101478914Y-83880542D01*
X101240819Y-84023400D01*
X101097961Y-84261495D01*
X101050342Y-84499590D01*
X101097961Y-84737685D01*
X101240819Y-84975780D01*
X101478914Y-85118638D01*
X101717009Y-85166257D01*
X101955104Y-85118638D01*
X102193199Y-84975780D01*
X102336057Y-84737685D01*
X102383676Y-84499590D01*
X102336057Y-84261495D01*
X102193199Y-84023400D01*
X101955104Y-83880542D01*
X101717009Y-83832923D01*
X102764628Y-84071019D02*
X102812247Y-84023400D01*
X102907485Y-83975780D01*
X103145580Y-83975780D01*
X103240819Y-84023400D01*
X103288438Y-84071019D01*
X103336057Y-84166257D01*
X103336057Y-84261495D01*
X103288438Y-84404352D01*
X102717009Y-84975780D01*
X103336057Y-84975780D01*
X103955104Y-83975780D02*
X104050342Y-83975780D01*
X104145580Y-84023400D01*
X104193199Y-84071019D01*
X104240819Y-84166257D01*
X104288438Y-84356733D01*
X104288438Y-84594828D01*
X104240819Y-84785304D01*
X104193199Y-84880542D01*
X104145580Y-84928161D01*
X104050342Y-84975780D01*
X103955104Y-84975780D01*
X103859866Y-84928161D01*
X103812247Y-84880542D01*
X103764628Y-84785304D01*
X103717009Y-84594828D01*
X103717009Y-84356733D01*
X103764628Y-84166257D01*
X103812247Y-84071019D01*
X103859866Y-84023400D01*
X103955104Y-83975780D01*
X104669390Y-84071019D02*
X104717009Y-84023400D01*
X104812247Y-83975780D01*
X105050342Y-83975780D01*
X105145580Y-84023400D01*
X105193199Y-84071019D01*
X105240819Y-84166257D01*
X105240819Y-84261495D01*
X105193199Y-84404352D01*
X104621771Y-84975780D01*
X105240819Y-84975780D01*
X105621771Y-84071019D02*
X105669390Y-84023400D01*
X105764628Y-83975780D01*
X106002723Y-83975780D01*
X106097961Y-84023400D01*
X106145580Y-84071019D01*
X106193199Y-84166257D01*
X106193199Y-84261495D01*
X106145580Y-84404352D01*
X105574152Y-84975780D01*
X106193199Y-84975780D01*
X107383676Y-84594828D02*
X108145580Y-84594828D01*
X109383676Y-84975780D02*
X109383676Y-83975780D01*
X109717009Y-84690066D01*
X110050342Y-83975780D01*
X110050342Y-84975780D01*
X110955104Y-84975780D02*
X110955104Y-84451971D01*
X110907485Y-84356733D01*
X110812247Y-84309114D01*
X110621771Y-84309114D01*
X110526533Y-84356733D01*
X110955104Y-84928161D02*
X110859866Y-84975780D01*
X110621771Y-84975780D01*
X110526533Y-84928161D01*
X110478914Y-84832923D01*
X110478914Y-84737685D01*
X110526533Y-84642447D01*
X110621771Y-84594828D01*
X110859866Y-84594828D01*
X110955104Y-84547209D01*
X111288438Y-84309114D02*
X111669390Y-84309114D01*
X111431295Y-83975780D02*
X111431295Y-84832923D01*
X111478914Y-84928161D01*
X111574152Y-84975780D01*
X111669390Y-84975780D01*
X112002723Y-84975780D02*
X112002723Y-83975780D01*
X112431295Y-84975780D02*
X112431295Y-84451971D01*
X112383676Y-84356733D01*
X112288438Y-84309114D01*
X112145580Y-84309114D01*
X112050342Y-84356733D01*
X112002723Y-84404352D01*
X112907485Y-84975780D02*
X112907485Y-84309114D01*
X112907485Y-83975780D02*
X112859866Y-84023400D01*
X112907485Y-84071019D01*
X112955104Y-84023400D01*
X112907485Y-83975780D01*
X112907485Y-84071019D01*
X113812247Y-84975780D02*
X113812247Y-84451971D01*
X113764628Y-84356733D01*
X113669390Y-84309114D01*
X113478914Y-84309114D01*
X113383676Y-84356733D01*
X113812247Y-84928161D02*
X113717009Y-84975780D01*
X113478914Y-84975780D01*
X113383676Y-84928161D01*
X113336057Y-84832923D01*
X113336057Y-84737685D01*
X113383676Y-84642447D01*
X113478914Y-84594828D01*
X113717009Y-84594828D01*
X113812247Y-84547209D01*
X114240819Y-84928161D02*
X114336057Y-84975780D01*
X114526533Y-84975780D01*
X114621771Y-84928161D01*
X114669390Y-84832923D01*
X114669390Y-84785304D01*
X114621771Y-84690066D01*
X114526533Y-84642447D01*
X114383676Y-84642447D01*
X114288438Y-84594828D01*
X114240819Y-84499590D01*
X114240819Y-84451971D01*
X114288438Y-84356733D01*
X114383676Y-84309114D01*
X114526533Y-84309114D01*
X114621771Y-84356733D01*
X116383676Y-84023400D02*
X116288438Y-83975780D01*
X116145580Y-83975780D01*
X116002723Y-84023400D01*
X115907485Y-84118638D01*
X115859866Y-84213876D01*
X115812247Y-84404352D01*
X115812247Y-84547209D01*
X115859866Y-84737685D01*
X115907485Y-84832923D01*
X116002723Y-84928161D01*
X116145580Y-84975780D01*
X116240819Y-84975780D01*
X116383676Y-84928161D01*
X116431295Y-84880542D01*
X116431295Y-84547209D01*
X116240819Y-84547209D01*
X116859866Y-84975780D02*
X116859866Y-84309114D01*
X116859866Y-84499590D02*
X116907485Y-84404352D01*
X116955104Y-84356733D01*
X117050342Y-84309114D01*
X117145580Y-84309114D01*
X117907485Y-84309114D02*
X117907485Y-84975780D01*
X117478914Y-84309114D02*
X117478914Y-84832923D01*
X117526533Y-84928161D01*
X117621771Y-84975780D01*
X117764628Y-84975780D01*
X117859866Y-84928161D01*
X117907485Y-84880542D01*
X118383676Y-84975780D02*
X118383676Y-83975780D01*
X118383676Y-84356733D02*
X118478914Y-84309114D01*
X118669390Y-84309114D01*
X118764628Y-84356733D01*
X118812247Y-84404352D01*
X118859866Y-84499590D01*
X118859866Y-84785304D01*
X118812247Y-84880542D01*
X118764628Y-84928161D01*
X118669390Y-84975780D01*
X118478914Y-84975780D01*
X118383676Y-84928161D01*
X119669390Y-84928161D02*
X119574152Y-84975780D01*
X119383676Y-84975780D01*
X119288438Y-84928161D01*
X119240819Y-84832923D01*
X119240819Y-84451971D01*
X119288438Y-84356733D01*
X119383676Y-84309114D01*
X119574152Y-84309114D01*
X119669390Y-84356733D01*
X119717009Y-84451971D01*
X119717009Y-84547209D01*
X119240819Y-84642447D01*
X120145580Y-84975780D02*
X120145580Y-84309114D01*
X120145580Y-84499590D02*
X120193199Y-84404352D01*
X120240819Y-84356733D01*
X120336057Y-84309114D01*
X120431295Y-84309114D01*
D12*
X103807695Y-66195466D02*
X103420647Y-66466400D01*
X103807695Y-66659923D02*
X102994895Y-66659923D01*
X102994895Y-66350285D01*
X103033600Y-66272876D01*
X103072304Y-66234171D01*
X103149714Y-66195466D01*
X103265828Y-66195466D01*
X103343238Y-66234171D01*
X103381942Y-66272876D01*
X103420647Y-66350285D01*
X103420647Y-66659923D01*
X102994895Y-65924533D02*
X103807695Y-65382666D01*
X102994895Y-65382666D02*
X103807695Y-65924533D01*
X103033600Y-69159276D02*
X102994895Y-69236685D01*
X102994895Y-69352800D01*
X103033600Y-69468914D01*
X103111009Y-69546323D01*
X103188419Y-69585028D01*
X103343238Y-69623733D01*
X103459352Y-69623733D01*
X103614171Y-69585028D01*
X103691580Y-69546323D01*
X103768990Y-69468914D01*
X103807695Y-69352800D01*
X103807695Y-69275390D01*
X103768990Y-69159276D01*
X103730285Y-69120571D01*
X103459352Y-69120571D01*
X103459352Y-69275390D01*
X103807695Y-68772228D02*
X102994895Y-68772228D01*
X103807695Y-68307771D01*
X102994895Y-68307771D01*
X103807695Y-67920723D02*
X102994895Y-67920723D01*
X102994895Y-67727200D01*
X103033600Y-67611085D01*
X103111009Y-67533676D01*
X103188419Y-67494971D01*
X103343238Y-67456266D01*
X103459352Y-67456266D01*
X103614171Y-67494971D01*
X103691580Y-67533676D01*
X103768990Y-67611085D01*
X103807695Y-67727200D01*
X103807695Y-67920723D01*
X103004895Y-71709276D02*
X103004895Y-71244819D01*
X103817695Y-71477047D02*
X103004895Y-71477047D01*
X103004895Y-71051295D02*
X103817695Y-70509428D01*
X103004895Y-70509428D02*
X103817695Y-71051295D01*
X103014895Y-74763733D02*
X103827695Y-74492800D01*
X103014895Y-74221866D01*
X103750285Y-73486476D02*
X103788990Y-73525180D01*
X103827695Y-73641295D01*
X103827695Y-73718704D01*
X103788990Y-73834819D01*
X103711580Y-73912228D01*
X103634171Y-73950933D01*
X103479352Y-73989638D01*
X103363238Y-73989638D01*
X103208419Y-73950933D01*
X103131009Y-73912228D01*
X103053600Y-73834819D01*
X103014895Y-73718704D01*
X103014895Y-73641295D01*
X103053600Y-73525180D01*
X103092304Y-73486476D01*
X103750285Y-72673676D02*
X103788990Y-72712380D01*
X103827695Y-72828495D01*
X103827695Y-72905904D01*
X103788990Y-73022019D01*
X103711580Y-73099428D01*
X103634171Y-73138133D01*
X103479352Y-73176838D01*
X103363238Y-73176838D01*
X103208419Y-73138133D01*
X103131009Y-73099428D01*
X103053600Y-73022019D01*
X103014895Y-72905904D01*
X103014895Y-72828495D01*
X103053600Y-72712380D01*
X103092304Y-72673676D01*
D11*
X66687504Y-57572406D02*
X67110838Y-59198006D01*
X67534171Y-57572406D01*
X68622742Y-59198006D02*
X67897028Y-59198006D01*
X68259885Y-59198006D02*
X68259885Y-57572406D01*
X68138933Y-57804635D01*
X68017980Y-57959454D01*
X67897028Y-58036863D01*
D12*
X100804133Y-85881028D02*
X100804133Y-86539009D01*
X100770266Y-86616419D01*
X100736400Y-86655123D01*
X100668666Y-86693828D01*
X100567066Y-86693828D01*
X100499333Y-86655123D01*
X100804133Y-86384190D02*
X100736400Y-86422895D01*
X100600933Y-86422895D01*
X100533200Y-86384190D01*
X100499333Y-86345485D01*
X100465466Y-86268076D01*
X100465466Y-86035847D01*
X100499333Y-85958438D01*
X100533200Y-85919733D01*
X100600933Y-85881028D01*
X100736400Y-85881028D01*
X100804133Y-85919733D01*
X101142800Y-86422895D02*
X101142800Y-85881028D01*
X101142800Y-85610095D02*
X101108933Y-85648800D01*
X101142800Y-85687504D01*
X101176666Y-85648800D01*
X101142800Y-85610095D01*
X101142800Y-85687504D01*
X101379866Y-85881028D02*
X101650800Y-85881028D01*
X101481466Y-85610095D02*
X101481466Y-86306780D01*
X101515333Y-86384190D01*
X101583066Y-86422895D01*
X101650800Y-86422895D01*
X101887866Y-86422895D02*
X101887866Y-85610095D01*
X102192666Y-86422895D02*
X102192666Y-85997142D01*
X102158800Y-85919733D01*
X102091066Y-85881028D01*
X101989466Y-85881028D01*
X101921733Y-85919733D01*
X101887866Y-85958438D01*
X102836133Y-85881028D02*
X102836133Y-86422895D01*
X102531333Y-85881028D02*
X102531333Y-86306780D01*
X102565200Y-86384190D01*
X102632933Y-86422895D01*
X102734533Y-86422895D01*
X102802266Y-86384190D01*
X102836133Y-86345485D01*
X103174800Y-86422895D02*
X103174800Y-85610095D01*
X103174800Y-85919733D02*
X103242533Y-85881028D01*
X103378000Y-85881028D01*
X103445733Y-85919733D01*
X103479600Y-85958438D01*
X103513466Y-86035847D01*
X103513466Y-86268076D01*
X103479600Y-86345485D01*
X103445733Y-86384190D01*
X103378000Y-86422895D01*
X103242533Y-86422895D01*
X103174800Y-86384190D01*
X103818266Y-86345485D02*
X103852133Y-86384190D01*
X103818266Y-86422895D01*
X103784400Y-86384190D01*
X103818266Y-86345485D01*
X103818266Y-86422895D01*
X104461733Y-86384190D02*
X104394000Y-86422895D01*
X104258533Y-86422895D01*
X104190800Y-86384190D01*
X104156933Y-86345485D01*
X104123066Y-86268076D01*
X104123066Y-86035847D01*
X104156933Y-85958438D01*
X104190800Y-85919733D01*
X104258533Y-85881028D01*
X104394000Y-85881028D01*
X104461733Y-85919733D01*
X104868133Y-86422895D02*
X104800400Y-86384190D01*
X104766533Y-86345485D01*
X104732666Y-86268076D01*
X104732666Y-86035847D01*
X104766533Y-85958438D01*
X104800400Y-85919733D01*
X104868133Y-85881028D01*
X104969733Y-85881028D01*
X105037466Y-85919733D01*
X105071333Y-85958438D01*
X105105200Y-86035847D01*
X105105200Y-86268076D01*
X105071333Y-86345485D01*
X105037466Y-86384190D01*
X104969733Y-86422895D01*
X104868133Y-86422895D01*
X105410000Y-86422895D02*
X105410000Y-85881028D01*
X105410000Y-85958438D02*
X105443866Y-85919733D01*
X105511600Y-85881028D01*
X105613200Y-85881028D01*
X105680933Y-85919733D01*
X105714800Y-85997142D01*
X105714800Y-86422895D01*
X105714800Y-85997142D02*
X105748666Y-85919733D01*
X105816400Y-85881028D01*
X105918000Y-85881028D01*
X105985733Y-85919733D01*
X106019600Y-85997142D01*
X106019600Y-86422895D01*
X106866266Y-85571390D02*
X106256666Y-86616419D01*
X107408133Y-85881028D02*
X107408133Y-86539009D01*
X107374266Y-86616419D01*
X107340400Y-86655123D01*
X107272666Y-86693828D01*
X107171066Y-86693828D01*
X107103333Y-86655123D01*
X107408133Y-86384190D02*
X107340400Y-86422895D01*
X107204933Y-86422895D01*
X107137200Y-86384190D01*
X107103333Y-86345485D01*
X107069466Y-86268076D01*
X107069466Y-86035847D01*
X107103333Y-85958438D01*
X107137200Y-85919733D01*
X107204933Y-85881028D01*
X107340400Y-85881028D01*
X107408133Y-85919733D01*
X107746800Y-86422895D02*
X107746800Y-85881028D01*
X107746800Y-86035847D02*
X107780666Y-85958438D01*
X107814533Y-85919733D01*
X107882266Y-85881028D01*
X107950000Y-85881028D01*
X108491866Y-85881028D02*
X108491866Y-86422895D01*
X108187066Y-85881028D02*
X108187066Y-86306780D01*
X108220933Y-86384190D01*
X108288666Y-86422895D01*
X108390266Y-86422895D01*
X108458000Y-86384190D01*
X108491866Y-86345485D01*
X108830533Y-86422895D02*
X108830533Y-85881028D01*
X108830533Y-85958438D02*
X108864400Y-85919733D01*
X108932133Y-85881028D01*
X109033733Y-85881028D01*
X109101466Y-85919733D01*
X109135333Y-85997142D01*
X109135333Y-86422895D01*
X109135333Y-85997142D02*
X109169200Y-85919733D01*
X109236933Y-85881028D01*
X109338533Y-85881028D01*
X109406266Y-85919733D01*
X109440133Y-85997142D01*
X109440133Y-86422895D01*
X110083600Y-86422895D02*
X110083600Y-85997142D01*
X110049733Y-85919733D01*
X109982000Y-85881028D01*
X109846533Y-85881028D01*
X109778800Y-85919733D01*
X110083600Y-86384190D02*
X110015866Y-86422895D01*
X109846533Y-86422895D01*
X109778800Y-86384190D01*
X109744933Y-86306780D01*
X109744933Y-86229371D01*
X109778800Y-86151961D01*
X109846533Y-86113257D01*
X110015866Y-86113257D01*
X110083600Y-86074552D01*
X110320666Y-85881028D02*
X110591600Y-85881028D01*
X110422266Y-85610095D02*
X110422266Y-86306780D01*
X110456133Y-86384190D01*
X110523866Y-86422895D01*
X110591600Y-86422895D01*
X111336666Y-85571390D02*
X110727066Y-86616419D01*
X111878533Y-85881028D02*
X111878533Y-86539009D01*
X111844666Y-86616419D01*
X111810800Y-86655123D01*
X111743066Y-86693828D01*
X111641466Y-86693828D01*
X111573733Y-86655123D01*
X111878533Y-86384190D02*
X111810800Y-86422895D01*
X111675333Y-86422895D01*
X111607600Y-86384190D01*
X111573733Y-86345485D01*
X111539866Y-86268076D01*
X111539866Y-86035847D01*
X111573733Y-85958438D01*
X111607600Y-85919733D01*
X111675333Y-85881028D01*
X111810800Y-85881028D01*
X111878533Y-85919733D01*
X112318800Y-86422895D02*
X112251066Y-86384190D01*
X112217200Y-86306780D01*
X112217200Y-85610095D01*
X112691333Y-86422895D02*
X112623600Y-86384190D01*
X112589733Y-86345485D01*
X112555866Y-86268076D01*
X112555866Y-86035847D01*
X112589733Y-85958438D01*
X112623600Y-85919733D01*
X112691333Y-85881028D01*
X112792933Y-85881028D01*
X112860666Y-85919733D01*
X112894533Y-85958438D01*
X112928400Y-86035847D01*
X112928400Y-86268076D01*
X112894533Y-86345485D01*
X112860666Y-86384190D01*
X112792933Y-86422895D01*
X112691333Y-86422895D01*
X113199333Y-86384190D02*
X113267066Y-86422895D01*
X113402533Y-86422895D01*
X113470266Y-86384190D01*
X113504133Y-86306780D01*
X113504133Y-86268076D01*
X113470266Y-86190666D01*
X113402533Y-86151961D01*
X113300933Y-86151961D01*
X113233200Y-86113257D01*
X113199333Y-86035847D01*
X113199333Y-85997142D01*
X113233200Y-85919733D01*
X113300933Y-85881028D01*
X113402533Y-85881028D01*
X113470266Y-85919733D01*
X113775066Y-86384190D02*
X113842800Y-86422895D01*
X113978266Y-86422895D01*
X114046000Y-86384190D01*
X114079866Y-86306780D01*
X114079866Y-86268076D01*
X114046000Y-86190666D01*
X113978266Y-86151961D01*
X113876666Y-86151961D01*
X113808933Y-86113257D01*
X113775066Y-86035847D01*
X113775066Y-85997142D01*
X113808933Y-85919733D01*
X113876666Y-85881028D01*
X113978266Y-85881028D01*
X114046000Y-85919733D01*
X114316933Y-85881028D02*
X114486266Y-86422895D01*
X114655600Y-85881028D02*
X114486266Y-86422895D01*
X114418533Y-86616419D01*
X114384666Y-86655123D01*
X114316933Y-86693828D01*
X114926533Y-86113257D02*
X115468400Y-86113257D01*
X115807066Y-86422895D02*
X115807066Y-85881028D01*
X115807066Y-85958438D02*
X115840933Y-85919733D01*
X115908666Y-85881028D01*
X116010266Y-85881028D01*
X116078000Y-85919733D01*
X116111866Y-85997142D01*
X116111866Y-86422895D01*
X116111866Y-85997142D02*
X116145733Y-85919733D01*
X116213466Y-85881028D01*
X116315066Y-85881028D01*
X116382800Y-85919733D01*
X116416666Y-85997142D01*
X116416666Y-86422895D01*
X116721466Y-86384190D02*
X116789200Y-86422895D01*
X116924666Y-86422895D01*
X116992400Y-86384190D01*
X117026266Y-86306780D01*
X117026266Y-86268076D01*
X116992400Y-86190666D01*
X116924666Y-86151961D01*
X116823066Y-86151961D01*
X116755333Y-86113257D01*
X116721466Y-86035847D01*
X116721466Y-85997142D01*
X116755333Y-85919733D01*
X116823066Y-85881028D01*
X116924666Y-85881028D01*
X116992400Y-85919733D01*
X117331066Y-85881028D02*
X117331066Y-86693828D01*
X117331066Y-85919733D02*
X117398800Y-85881028D01*
X117534266Y-85881028D01*
X117602000Y-85919733D01*
X117635866Y-85958438D01*
X117669733Y-86035847D01*
X117669733Y-86268076D01*
X117635866Y-86345485D01*
X117602000Y-86384190D01*
X117534266Y-86422895D01*
X117398800Y-86422895D01*
X117331066Y-86384190D01*
X118279333Y-85881028D02*
X118279333Y-86422895D01*
X118110000Y-85571390D02*
X117940666Y-86151961D01*
X118380933Y-86151961D01*
X118584133Y-85610095D02*
X119024400Y-85610095D01*
X118787333Y-85919733D01*
X118888933Y-85919733D01*
X118956666Y-85958438D01*
X118990533Y-85997142D01*
X119024400Y-86074552D01*
X119024400Y-86268076D01*
X118990533Y-86345485D01*
X118956666Y-86384190D01*
X118888933Y-86422895D01*
X118685733Y-86422895D01*
X118618000Y-86384190D01*
X118584133Y-86345485D01*
X119464666Y-85610095D02*
X119532400Y-85610095D01*
X119600133Y-85648800D01*
X119634000Y-85687504D01*
X119667866Y-85764914D01*
X119701733Y-85919733D01*
X119701733Y-86113257D01*
X119667866Y-86268076D01*
X119634000Y-86345485D01*
X119600133Y-86384190D01*
X119532400Y-86422895D01*
X119464666Y-86422895D01*
X119396933Y-86384190D01*
X119363066Y-86345485D01*
X119329200Y-86268076D01*
X119295333Y-86113257D01*
X119295333Y-85919733D01*
X119329200Y-85764914D01*
X119363066Y-85687504D01*
X119396933Y-85648800D01*
X119464666Y-85610095D01*
X120006533Y-86345485D02*
X120040400Y-86384190D01*
X120006533Y-86422895D01*
X119972666Y-86384190D01*
X120006533Y-86345485D01*
X120006533Y-86422895D01*
X120650000Y-85881028D02*
X120650000Y-86539009D01*
X120616133Y-86616419D01*
X120582266Y-86655123D01*
X120514533Y-86693828D01*
X120412933Y-86693828D01*
X120345200Y-86655123D01*
X120650000Y-86384190D02*
X120582266Y-86422895D01*
X120446800Y-86422895D01*
X120379066Y-86384190D01*
X120345200Y-86345485D01*
X120311333Y-86268076D01*
X120311333Y-86035847D01*
X120345200Y-85958438D01*
X120379066Y-85919733D01*
X120446800Y-85881028D01*
X120582266Y-85881028D01*
X120650000Y-85919733D01*
X120988666Y-86422895D02*
X120988666Y-85881028D01*
X120988666Y-85610095D02*
X120954800Y-85648800D01*
X120988666Y-85687504D01*
X121022533Y-85648800D01*
X120988666Y-85610095D01*
X120988666Y-85687504D01*
X121225733Y-85881028D02*
X121496666Y-85881028D01*
X121327333Y-85610095D02*
X121327333Y-86306780D01*
X121361200Y-86384190D01*
X121428933Y-86422895D01*
X121496666Y-86422895D01*
X90254895Y-55120419D02*
X90254895Y-55507466D01*
X90641942Y-55546171D01*
X90603238Y-55507466D01*
X90564533Y-55430057D01*
X90564533Y-55236533D01*
X90603238Y-55159123D01*
X90641942Y-55120419D01*
X90719352Y-55081714D01*
X90912876Y-55081714D01*
X90990285Y-55120419D01*
X91028990Y-55159123D01*
X91067695Y-55236533D01*
X91067695Y-55430057D01*
X91028990Y-55507466D01*
X90990285Y-55546171D01*
X90254895Y-54849485D02*
X91067695Y-54578552D01*
X90254895Y-54307619D01*
D14*
X102528857Y-53185961D02*
X102671714Y-53233580D01*
X102909809Y-53233580D01*
X103005047Y-53185961D01*
X103052666Y-53138342D01*
X103100285Y-53043104D01*
X103100285Y-52947866D01*
X103052666Y-52852628D01*
X103005047Y-52805009D01*
X102909809Y-52757390D01*
X102719333Y-52709771D01*
X102624095Y-52662152D01*
X102576476Y-52614533D01*
X102528857Y-52519295D01*
X102528857Y-52424057D01*
X102576476Y-52328819D01*
X102624095Y-52281200D01*
X102719333Y-52233580D01*
X102957428Y-52233580D01*
X103100285Y-52281200D01*
X103433619Y-52233580D02*
X103671714Y-53233580D01*
X103862190Y-52519295D01*
X104052666Y-53233580D01*
X104290761Y-52233580D01*
X104671714Y-53233580D02*
X104671714Y-52233580D01*
X104909809Y-52233580D01*
X105052666Y-52281200D01*
X105147904Y-52376438D01*
X105195523Y-52471676D01*
X105243142Y-52662152D01*
X105243142Y-52805009D01*
X105195523Y-52995485D01*
X105147904Y-53090723D01*
X105052666Y-53185961D01*
X104909809Y-53233580D01*
X104671714Y-53233580D01*
D12*
X96167695Y-56395809D02*
X95354895Y-56395809D01*
X95354895Y-56157714D01*
X95393600Y-56014857D01*
X95471009Y-55919619D01*
X95548419Y-55872000D01*
X95703238Y-55824380D01*
X95819352Y-55824380D01*
X95974171Y-55872000D01*
X96051580Y-55919619D01*
X96128990Y-56014857D01*
X96167695Y-56157714D01*
X96167695Y-56395809D01*
X96167695Y-55395809D02*
X95354895Y-55395809D01*
X95354895Y-54729142D02*
X95354895Y-54538666D01*
X95393600Y-54443428D01*
X95471009Y-54348190D01*
X95625828Y-54300571D01*
X95896761Y-54300571D01*
X96051580Y-54348190D01*
X96128990Y-54443428D01*
X96167695Y-54538666D01*
X96167695Y-54729142D01*
X96128990Y-54824380D01*
X96051580Y-54919619D01*
X95896761Y-54967238D01*
X95625828Y-54967238D01*
X95471009Y-54919619D01*
X95393600Y-54824380D01*
X95354895Y-54729142D01*
D13*
X75505428Y-59890800D02*
X75548285Y-59933657D01*
X75591142Y-60062228D01*
X75591142Y-60147942D01*
X75548285Y-60276514D01*
X75462571Y-60362228D01*
X75376857Y-60405085D01*
X75205428Y-60447942D01*
X75076857Y-60447942D01*
X74905428Y-60405085D01*
X74819714Y-60362228D01*
X74734000Y-60276514D01*
X74691142Y-60147942D01*
X74691142Y-60062228D01*
X74734000Y-59933657D01*
X74776857Y-59890800D01*
X74691142Y-59590800D02*
X74691142Y-58990800D01*
X75591142Y-59376514D01*
X82668228Y-59100171D02*
X82711085Y-59143028D01*
X82753942Y-59271600D01*
X82753942Y-59357314D01*
X82711085Y-59485885D01*
X82625371Y-59571600D01*
X82539657Y-59614457D01*
X82368228Y-59657314D01*
X82239657Y-59657314D01*
X82068228Y-59614457D01*
X81982514Y-59571600D01*
X81896800Y-59485885D01*
X81853942Y-59357314D01*
X81853942Y-59271600D01*
X81896800Y-59143028D01*
X81939657Y-59100171D01*
X82753942Y-58243028D02*
X82753942Y-58757314D01*
X82753942Y-58500171D02*
X81853942Y-58500171D01*
X81982514Y-58585885D01*
X82068228Y-58671600D01*
X82111085Y-58757314D01*
X81939657Y-57900171D02*
X81896800Y-57857314D01*
X81853942Y-57771600D01*
X81853942Y-57557314D01*
X81896800Y-57471600D01*
X81939657Y-57428742D01*
X82025371Y-57385885D01*
X82111085Y-57385885D01*
X82239657Y-57428742D01*
X82753942Y-57943028D01*
X82753942Y-57385885D01*
X84942400Y-62041942D02*
X84942400Y-62684800D01*
X84899542Y-62813371D01*
X84813828Y-62899085D01*
X84685257Y-62941942D01*
X84599542Y-62941942D01*
X85328114Y-62127657D02*
X85370971Y-62084800D01*
X85456685Y-62041942D01*
X85670971Y-62041942D01*
X85756685Y-62084800D01*
X85799542Y-62127657D01*
X85842400Y-62213371D01*
X85842400Y-62299085D01*
X85799542Y-62427657D01*
X85285257Y-62941942D01*
X85842400Y-62941942D01*
X67007600Y-77470742D02*
X66707600Y-77042171D01*
X66493314Y-77470742D02*
X66493314Y-76570742D01*
X66836171Y-76570742D01*
X66921885Y-76613600D01*
X66964742Y-76656457D01*
X67007600Y-76742171D01*
X67007600Y-76870742D01*
X66964742Y-76956457D01*
X66921885Y-76999314D01*
X66836171Y-77042171D01*
X66493314Y-77042171D01*
X67864742Y-77470742D02*
X67350457Y-77470742D01*
X67607600Y-77470742D02*
X67607600Y-76570742D01*
X67521885Y-76699314D01*
X67436171Y-76785028D01*
X67350457Y-76827885D01*
X70003142Y-76858000D02*
X69574571Y-77158000D01*
X70003142Y-77372285D02*
X69103142Y-77372285D01*
X69103142Y-77029428D01*
X69146000Y-76943714D01*
X69188857Y-76900857D01*
X69274571Y-76858000D01*
X69403142Y-76858000D01*
X69488857Y-76900857D01*
X69531714Y-76943714D01*
X69574571Y-77029428D01*
X69574571Y-77372285D01*
X69103142Y-76558000D02*
X69103142Y-76000857D01*
X69446000Y-76300857D01*
X69446000Y-76172285D01*
X69488857Y-76086571D01*
X69531714Y-76043714D01*
X69617428Y-76000857D01*
X69831714Y-76000857D01*
X69917428Y-76043714D01*
X69960285Y-76086571D01*
X70003142Y-76172285D01*
X70003142Y-76429428D01*
X69960285Y-76515142D01*
X69917428Y-76558000D01*
X72746342Y-79093200D02*
X72317771Y-79393200D01*
X72746342Y-79607485D02*
X71846342Y-79607485D01*
X71846342Y-79264628D01*
X71889200Y-79178914D01*
X71932057Y-79136057D01*
X72017771Y-79093200D01*
X72146342Y-79093200D01*
X72232057Y-79136057D01*
X72274914Y-79178914D01*
X72317771Y-79264628D01*
X72317771Y-79607485D01*
X72146342Y-78321771D02*
X72746342Y-78321771D01*
X71803485Y-78536057D02*
X72446342Y-78750342D01*
X72446342Y-78193200D01*
X77318342Y-79093200D02*
X76889771Y-79393200D01*
X77318342Y-79607485D02*
X76418342Y-79607485D01*
X76418342Y-79264628D01*
X76461200Y-79178914D01*
X76504057Y-79136057D01*
X76589771Y-79093200D01*
X76718342Y-79093200D01*
X76804057Y-79136057D01*
X76846914Y-79178914D01*
X76889771Y-79264628D01*
X76889771Y-79607485D01*
X76504057Y-78750342D02*
X76461200Y-78707485D01*
X76418342Y-78621771D01*
X76418342Y-78407485D01*
X76461200Y-78321771D01*
X76504057Y-78278914D01*
X76589771Y-78236057D01*
X76675485Y-78236057D01*
X76804057Y-78278914D01*
X77318342Y-78793200D01*
X77318342Y-78236057D01*
X97079342Y-77772400D02*
X96650771Y-78072400D01*
X97079342Y-78286685D02*
X96179342Y-78286685D01*
X96179342Y-77943828D01*
X96222200Y-77858114D01*
X96265057Y-77815257D01*
X96350771Y-77772400D01*
X96479342Y-77772400D01*
X96565057Y-77815257D01*
X96607914Y-77858114D01*
X96650771Y-77943828D01*
X96650771Y-78286685D01*
X96179342Y-77472400D02*
X96179342Y-76872400D01*
X97079342Y-77258114D01*
X95543142Y-77823200D02*
X95114571Y-78123200D01*
X95543142Y-78337485D02*
X94643142Y-78337485D01*
X94643142Y-77994628D01*
X94686000Y-77908914D01*
X94728857Y-77866057D01*
X94814571Y-77823200D01*
X94943142Y-77823200D01*
X95028857Y-77866057D01*
X95071714Y-77908914D01*
X95114571Y-77994628D01*
X95114571Y-78337485D01*
X94643142Y-77051771D02*
X94643142Y-77223200D01*
X94686000Y-77308914D01*
X94728857Y-77351771D01*
X94857428Y-77437485D01*
X95028857Y-77480342D01*
X95371714Y-77480342D01*
X95457428Y-77437485D01*
X95500285Y-77394628D01*
X95543142Y-77308914D01*
X95543142Y-77137485D01*
X95500285Y-77051771D01*
X95457428Y-77008914D01*
X95371714Y-76966057D01*
X95157428Y-76966057D01*
X95071714Y-77008914D01*
X95028857Y-77051771D01*
X94986000Y-77137485D01*
X94986000Y-77308914D01*
X95028857Y-77394628D01*
X95071714Y-77437485D01*
X95157428Y-77480342D01*
X73981428Y-59890800D02*
X74024285Y-59933657D01*
X74067142Y-60062228D01*
X74067142Y-60147942D01*
X74024285Y-60276514D01*
X73938571Y-60362228D01*
X73852857Y-60405085D01*
X73681428Y-60447942D01*
X73552857Y-60447942D01*
X73381428Y-60405085D01*
X73295714Y-60362228D01*
X73210000Y-60276514D01*
X73167142Y-60147942D01*
X73167142Y-60062228D01*
X73210000Y-59933657D01*
X73252857Y-59890800D01*
X73167142Y-59119371D02*
X73167142Y-59290800D01*
X73210000Y-59376514D01*
X73252857Y-59419371D01*
X73381428Y-59505085D01*
X73552857Y-59547942D01*
X73895714Y-59547942D01*
X73981428Y-59505085D01*
X74024285Y-59462228D01*
X74067142Y-59376514D01*
X74067142Y-59205085D01*
X74024285Y-59119371D01*
X73981428Y-59076514D01*
X73895714Y-59033657D01*
X73681428Y-59033657D01*
X73595714Y-59076514D01*
X73552857Y-59119371D01*
X73510000Y-59205085D01*
X73510000Y-59376514D01*
X73552857Y-59462228D01*
X73595714Y-59505085D01*
X73681428Y-59547942D01*
X95735000Y-84192228D02*
X95692142Y-84235085D01*
X95563571Y-84277942D01*
X95477857Y-84277942D01*
X95349285Y-84235085D01*
X95263571Y-84149371D01*
X95220714Y-84063657D01*
X95177857Y-83892228D01*
X95177857Y-83763657D01*
X95220714Y-83592228D01*
X95263571Y-83506514D01*
X95349285Y-83420800D01*
X95477857Y-83377942D01*
X95563571Y-83377942D01*
X95692142Y-83420800D01*
X95735000Y-83463657D01*
X96249285Y-83763657D02*
X96163571Y-83720800D01*
X96120714Y-83677942D01*
X96077857Y-83592228D01*
X96077857Y-83549371D01*
X96120714Y-83463657D01*
X96163571Y-83420800D01*
X96249285Y-83377942D01*
X96420714Y-83377942D01*
X96506428Y-83420800D01*
X96549285Y-83463657D01*
X96592142Y-83549371D01*
X96592142Y-83592228D01*
X96549285Y-83677942D01*
X96506428Y-83720800D01*
X96420714Y-83763657D01*
X96249285Y-83763657D01*
X96163571Y-83806514D01*
X96120714Y-83849371D01*
X96077857Y-83935085D01*
X96077857Y-84106514D01*
X96120714Y-84192228D01*
X96163571Y-84235085D01*
X96249285Y-84277942D01*
X96420714Y-84277942D01*
X96506428Y-84235085D01*
X96549285Y-84192228D01*
X96592142Y-84106514D01*
X96592142Y-83935085D01*
X96549285Y-83849371D01*
X96506428Y-83806514D01*
X96420714Y-83763657D01*
X79112228Y-80287000D02*
X79155085Y-80329857D01*
X79197942Y-80458428D01*
X79197942Y-80544142D01*
X79155085Y-80672714D01*
X79069371Y-80758428D01*
X78983657Y-80801285D01*
X78812228Y-80844142D01*
X78683657Y-80844142D01*
X78512228Y-80801285D01*
X78426514Y-80758428D01*
X78340800Y-80672714D01*
X78297942Y-80544142D01*
X78297942Y-80458428D01*
X78340800Y-80329857D01*
X78383657Y-80287000D01*
X79197942Y-79858428D02*
X79197942Y-79687000D01*
X79155085Y-79601285D01*
X79112228Y-79558428D01*
X78983657Y-79472714D01*
X78812228Y-79429857D01*
X78469371Y-79429857D01*
X78383657Y-79472714D01*
X78340800Y-79515571D01*
X78297942Y-79601285D01*
X78297942Y-79772714D01*
X78340800Y-79858428D01*
X78383657Y-79901285D01*
X78469371Y-79944142D01*
X78683657Y-79944142D01*
X78769371Y-79901285D01*
X78812228Y-79858428D01*
X78855085Y-79772714D01*
X78855085Y-79601285D01*
X78812228Y-79515571D01*
X78769371Y-79472714D01*
X78683657Y-79429857D01*
X85260428Y-68487428D02*
X85217571Y-68530285D01*
X85089000Y-68573142D01*
X85003285Y-68573142D01*
X84874714Y-68530285D01*
X84789000Y-68444571D01*
X84746142Y-68358857D01*
X84703285Y-68187428D01*
X84703285Y-68058857D01*
X84746142Y-67887428D01*
X84789000Y-67801714D01*
X84874714Y-67716000D01*
X85003285Y-67673142D01*
X85089000Y-67673142D01*
X85217571Y-67716000D01*
X85260428Y-67758857D01*
X86117571Y-68573142D02*
X85603285Y-68573142D01*
X85860428Y-68573142D02*
X85860428Y-67673142D01*
X85774714Y-67801714D01*
X85689000Y-67887428D01*
X85603285Y-67930285D01*
X86674714Y-67673142D02*
X86760428Y-67673142D01*
X86846142Y-67716000D01*
X86889000Y-67758857D01*
X86931857Y-67844571D01*
X86974714Y-68016000D01*
X86974714Y-68230285D01*
X86931857Y-68401714D01*
X86889000Y-68487428D01*
X86846142Y-68530285D01*
X86760428Y-68573142D01*
X86674714Y-68573142D01*
X86589000Y-68530285D01*
X86546142Y-68487428D01*
X86503285Y-68401714D01*
X86460428Y-68230285D01*
X86460428Y-68016000D01*
X86503285Y-67844571D01*
X86546142Y-67758857D01*
X86589000Y-67716000D01*
X86674714Y-67673142D01*
X92334628Y-72838428D02*
X92291771Y-72881285D01*
X92163200Y-72924142D01*
X92077485Y-72924142D01*
X91948914Y-72881285D01*
X91863200Y-72795571D01*
X91820342Y-72709857D01*
X91777485Y-72538428D01*
X91777485Y-72409857D01*
X91820342Y-72238428D01*
X91863200Y-72152714D01*
X91948914Y-72067000D01*
X92077485Y-72024142D01*
X92163200Y-72024142D01*
X92291771Y-72067000D01*
X92334628Y-72109857D01*
X93191771Y-72924142D02*
X92677485Y-72924142D01*
X92934628Y-72924142D02*
X92934628Y-72024142D01*
X92848914Y-72152714D01*
X92763200Y-72238428D01*
X92677485Y-72281285D01*
X94048914Y-72924142D02*
X93534628Y-72924142D01*
X93791771Y-72924142D02*
X93791771Y-72024142D01*
X93706057Y-72152714D01*
X93620342Y-72238428D01*
X93534628Y-72281285D01*
X92334628Y-68774428D02*
X92291771Y-68817285D01*
X92163200Y-68860142D01*
X92077485Y-68860142D01*
X91948914Y-68817285D01*
X91863200Y-68731571D01*
X91820342Y-68645857D01*
X91777485Y-68474428D01*
X91777485Y-68345857D01*
X91820342Y-68174428D01*
X91863200Y-68088714D01*
X91948914Y-68003000D01*
X92077485Y-67960142D01*
X92163200Y-67960142D01*
X92291771Y-68003000D01*
X92334628Y-68045857D01*
X93191771Y-68860142D02*
X92677485Y-68860142D01*
X92934628Y-68860142D02*
X92934628Y-67960142D01*
X92848914Y-68088714D01*
X92763200Y-68174428D01*
X92677485Y-68217285D01*
X93963200Y-68260142D02*
X93963200Y-68860142D01*
X93748914Y-67917285D02*
X93534628Y-68560142D01*
X94091771Y-68560142D01*
X95789028Y-88037142D02*
X95489028Y-87608571D01*
X95274742Y-88037142D02*
X95274742Y-87137142D01*
X95617600Y-87137142D01*
X95703314Y-87180000D01*
X95746171Y-87222857D01*
X95789028Y-87308571D01*
X95789028Y-87437142D01*
X95746171Y-87522857D01*
X95703314Y-87565714D01*
X95617600Y-87608571D01*
X95274742Y-87608571D01*
X96646171Y-88037142D02*
X96131885Y-88037142D01*
X96389028Y-88037142D02*
X96389028Y-87137142D01*
X96303314Y-87265714D01*
X96217600Y-87351428D01*
X96131885Y-87394285D01*
X96946171Y-87137142D02*
X97503314Y-87137142D01*
X97203314Y-87480000D01*
X97331885Y-87480000D01*
X97417600Y-87522857D01*
X97460457Y-87565714D01*
X97503314Y-87651428D01*
X97503314Y-87865714D01*
X97460457Y-87951428D01*
X97417600Y-87994285D01*
X97331885Y-88037142D01*
X97074742Y-88037142D01*
X96989028Y-87994285D01*
X96946171Y-87951428D01*
X87226000Y-57166628D02*
X87183142Y-57209485D01*
X87054571Y-57252342D01*
X86968857Y-57252342D01*
X86840285Y-57209485D01*
X86754571Y-57123771D01*
X86711714Y-57038057D01*
X86668857Y-56866628D01*
X86668857Y-56738057D01*
X86711714Y-56566628D01*
X86754571Y-56480914D01*
X86840285Y-56395200D01*
X86968857Y-56352342D01*
X87054571Y-56352342D01*
X87183142Y-56395200D01*
X87226000Y-56438057D01*
X87526000Y-56352342D02*
X88083142Y-56352342D01*
X87783142Y-56695200D01*
X87911714Y-56695200D01*
X87997428Y-56738057D01*
X88040285Y-56780914D01*
X88083142Y-56866628D01*
X88083142Y-57080914D01*
X88040285Y-57166628D01*
X87997428Y-57209485D01*
X87911714Y-57252342D01*
X87654571Y-57252342D01*
X87568857Y-57209485D01*
X87526000Y-57166628D01*
X98783000Y-84277942D02*
X98354428Y-84277942D01*
X98354428Y-83377942D01*
X99554428Y-84277942D02*
X99040142Y-84277942D01*
X99297285Y-84277942D02*
X99297285Y-83377942D01*
X99211571Y-83506514D01*
X99125857Y-83592228D01*
X99040142Y-83635085D01*
X78054285Y-58485942D02*
X78054285Y-59214514D01*
X78097142Y-59300228D01*
X78140000Y-59343085D01*
X78225714Y-59385942D01*
X78397142Y-59385942D01*
X78482857Y-59343085D01*
X78525714Y-59300228D01*
X78568571Y-59214514D01*
X78568571Y-58485942D01*
X78911428Y-58485942D02*
X79468571Y-58485942D01*
X79168571Y-58828800D01*
X79297142Y-58828800D01*
X79382857Y-58871657D01*
X79425714Y-58914514D01*
X79468571Y-59000228D01*
X79468571Y-59214514D01*
X79425714Y-59300228D01*
X79382857Y-59343085D01*
X79297142Y-59385942D01*
X79040000Y-59385942D01*
X78954285Y-59343085D01*
X78911428Y-59300228D01*
X84243028Y-59100171D02*
X84285885Y-59143028D01*
X84328742Y-59271600D01*
X84328742Y-59357314D01*
X84285885Y-59485885D01*
X84200171Y-59571600D01*
X84114457Y-59614457D01*
X83943028Y-59657314D01*
X83814457Y-59657314D01*
X83643028Y-59614457D01*
X83557314Y-59571600D01*
X83471600Y-59485885D01*
X83428742Y-59357314D01*
X83428742Y-59271600D01*
X83471600Y-59143028D01*
X83514457Y-59100171D01*
X84328742Y-58243028D02*
X84328742Y-58757314D01*
X84328742Y-58500171D02*
X83428742Y-58500171D01*
X83557314Y-58585885D01*
X83643028Y-58671600D01*
X83685885Y-58757314D01*
X83428742Y-57428742D02*
X83428742Y-57857314D01*
X83857314Y-57900171D01*
X83814457Y-57857314D01*
X83771600Y-57771600D01*
X83771600Y-57557314D01*
X83814457Y-57471600D01*
X83857314Y-57428742D01*
X83943028Y-57385885D01*
X84157314Y-57385885D01*
X84243028Y-57428742D01*
X84285885Y-57471600D01*
X84328742Y-57557314D01*
X84328742Y-57771600D01*
X84285885Y-57857314D01*
X84243028Y-57900171D01*
X72543142Y-60252685D02*
X71643142Y-60252685D01*
X71643142Y-60038400D01*
X71686000Y-59909828D01*
X71771714Y-59824114D01*
X71857428Y-59781257D01*
X72028857Y-59738400D01*
X72157428Y-59738400D01*
X72328857Y-59781257D01*
X72414571Y-59824114D01*
X72500285Y-59909828D01*
X72543142Y-60038400D01*
X72543142Y-60252685D01*
X72543142Y-58881257D02*
X72543142Y-59395542D01*
X72543142Y-59138400D02*
X71643142Y-59138400D01*
X71771714Y-59224114D01*
X71857428Y-59309828D01*
X71900285Y-59395542D01*
X92766428Y-87951428D02*
X92723571Y-87994285D01*
X92595000Y-88037142D01*
X92509285Y-88037142D01*
X92380714Y-87994285D01*
X92295000Y-87908571D01*
X92252142Y-87822857D01*
X92209285Y-87651428D01*
X92209285Y-87522857D01*
X92252142Y-87351428D01*
X92295000Y-87265714D01*
X92380714Y-87180000D01*
X92509285Y-87137142D01*
X92595000Y-87137142D01*
X92723571Y-87180000D01*
X92766428Y-87222857D01*
X93623571Y-88037142D02*
X93109285Y-88037142D01*
X93366428Y-88037142D02*
X93366428Y-87137142D01*
X93280714Y-87265714D01*
X93195000Y-87351428D01*
X93109285Y-87394285D01*
X93923571Y-87137142D02*
X94523571Y-87137142D01*
X94137857Y-88037142D01*
X65944700Y-64480342D02*
X65944700Y-65123200D01*
X65901842Y-65251771D01*
X65816128Y-65337485D01*
X65687557Y-65380342D01*
X65601842Y-65380342D01*
X66844700Y-65380342D02*
X66330414Y-65380342D01*
X66587557Y-65380342D02*
X66587557Y-64480342D01*
X66501842Y-64608914D01*
X66416128Y-64694628D01*
X66330414Y-64737485D01*
X81650742Y-81965714D02*
X82379314Y-81965714D01*
X82465028Y-81922857D01*
X82507885Y-81880000D01*
X82550742Y-81794285D01*
X82550742Y-81622857D01*
X82507885Y-81537142D01*
X82465028Y-81494285D01*
X82379314Y-81451428D01*
X81650742Y-81451428D01*
X82550742Y-80551428D02*
X82550742Y-81065714D01*
X82550742Y-80808571D02*
X81650742Y-80808571D01*
X81779314Y-80894285D01*
X81865028Y-80980000D01*
X81907885Y-81065714D01*
X89867600Y-57496828D02*
X89824742Y-57539685D01*
X89696171Y-57582542D01*
X89610457Y-57582542D01*
X89481885Y-57539685D01*
X89396171Y-57453971D01*
X89353314Y-57368257D01*
X89310457Y-57196828D01*
X89310457Y-57068257D01*
X89353314Y-56896828D01*
X89396171Y-56811114D01*
X89481885Y-56725400D01*
X89610457Y-56682542D01*
X89696171Y-56682542D01*
X89824742Y-56725400D01*
X89867600Y-56768257D01*
X90210457Y-56768257D02*
X90253314Y-56725400D01*
X90339028Y-56682542D01*
X90553314Y-56682542D01*
X90639028Y-56725400D01*
X90681885Y-56768257D01*
X90724742Y-56853971D01*
X90724742Y-56939685D01*
X90681885Y-57068257D01*
X90167600Y-57582542D01*
X90724742Y-57582542D01*
X81788742Y-86049571D02*
X81360171Y-86349571D01*
X81788742Y-86563857D02*
X80888742Y-86563857D01*
X80888742Y-86221000D01*
X80931600Y-86135285D01*
X80974457Y-86092428D01*
X81060171Y-86049571D01*
X81188742Y-86049571D01*
X81274457Y-86092428D01*
X81317314Y-86135285D01*
X81360171Y-86221000D01*
X81360171Y-86563857D01*
X81788742Y-85192428D02*
X81788742Y-85706714D01*
X81788742Y-85449571D02*
X80888742Y-85449571D01*
X81017314Y-85535285D01*
X81103028Y-85621000D01*
X81145885Y-85706714D01*
X80974457Y-84849571D02*
X80931600Y-84806714D01*
X80888742Y-84721000D01*
X80888742Y-84506714D01*
X80931600Y-84421000D01*
X80974457Y-84378142D01*
X81060171Y-84335285D01*
X81145885Y-84335285D01*
X81274457Y-84378142D01*
X81788742Y-84892428D01*
X81788742Y-84335285D01*
X89693028Y-83735028D02*
X89650171Y-83777885D01*
X89521600Y-83820742D01*
X89435885Y-83820742D01*
X89307314Y-83777885D01*
X89221600Y-83692171D01*
X89178742Y-83606457D01*
X89135885Y-83435028D01*
X89135885Y-83306457D01*
X89178742Y-83135028D01*
X89221600Y-83049314D01*
X89307314Y-82963600D01*
X89435885Y-82920742D01*
X89521600Y-82920742D01*
X89650171Y-82963600D01*
X89693028Y-83006457D01*
X90550171Y-83820742D02*
X90035885Y-83820742D01*
X90293028Y-83820742D02*
X90293028Y-82920742D01*
X90207314Y-83049314D01*
X90121600Y-83135028D01*
X90035885Y-83177885D01*
X90850171Y-82920742D02*
X91407314Y-82920742D01*
X91107314Y-83263600D01*
X91235885Y-83263600D01*
X91321600Y-83306457D01*
X91364457Y-83349314D01*
X91407314Y-83435028D01*
X91407314Y-83649314D01*
X91364457Y-83735028D01*
X91321600Y-83777885D01*
X91235885Y-83820742D01*
X90978742Y-83820742D01*
X90893028Y-83777885D01*
X90850171Y-83735028D01*
X83190628Y-83735028D02*
X83147771Y-83777885D01*
X83019200Y-83820742D01*
X82933485Y-83820742D01*
X82804914Y-83777885D01*
X82719200Y-83692171D01*
X82676342Y-83606457D01*
X82633485Y-83435028D01*
X82633485Y-83306457D01*
X82676342Y-83135028D01*
X82719200Y-83049314D01*
X82804914Y-82963600D01*
X82933485Y-82920742D01*
X83019200Y-82920742D01*
X83147771Y-82963600D01*
X83190628Y-83006457D01*
X84047771Y-83820742D02*
X83533485Y-83820742D01*
X83790628Y-83820742D02*
X83790628Y-82920742D01*
X83704914Y-83049314D01*
X83619200Y-83135028D01*
X83533485Y-83177885D01*
X84819200Y-82920742D02*
X84647771Y-82920742D01*
X84562057Y-82963600D01*
X84519200Y-83006457D01*
X84433485Y-83135028D01*
X84390628Y-83306457D01*
X84390628Y-83649314D01*
X84433485Y-83735028D01*
X84476342Y-83777885D01*
X84562057Y-83820742D01*
X84733485Y-83820742D01*
X84819200Y-83777885D01*
X84862057Y-83735028D01*
X84904914Y-83649314D01*
X84904914Y-83435028D01*
X84862057Y-83349314D01*
X84819200Y-83306457D01*
X84733485Y-83263600D01*
X84562057Y-83263600D01*
X84476342Y-83306457D01*
X84433485Y-83349314D01*
X84390628Y-83435028D01*
X86617228Y-83163571D02*
X86617228Y-83592142D01*
X86317228Y-82692142D02*
X86617228Y-83163571D01*
X86917228Y-82692142D01*
X87688657Y-83592142D02*
X87174371Y-83592142D01*
X87431514Y-83592142D02*
X87431514Y-82692142D01*
X87345800Y-82820714D01*
X87260085Y-82906428D01*
X87174371Y-82949285D01*
X74184628Y-79093200D02*
X74227485Y-79136057D01*
X74270342Y-79264628D01*
X74270342Y-79350342D01*
X74227485Y-79478914D01*
X74141771Y-79564628D01*
X74056057Y-79607485D01*
X73884628Y-79650342D01*
X73756057Y-79650342D01*
X73584628Y-79607485D01*
X73498914Y-79564628D01*
X73413200Y-79478914D01*
X73370342Y-79350342D01*
X73370342Y-79264628D01*
X73413200Y-79136057D01*
X73456057Y-79093200D01*
X73370342Y-78278914D02*
X73370342Y-78707485D01*
X73798914Y-78750342D01*
X73756057Y-78707485D01*
X73713200Y-78621771D01*
X73713200Y-78407485D01*
X73756057Y-78321771D01*
X73798914Y-78278914D01*
X73884628Y-78236057D01*
X74098914Y-78236057D01*
X74184628Y-78278914D01*
X74227485Y-78321771D01*
X74270342Y-78407485D01*
X74270342Y-78621771D01*
X74227485Y-78707485D01*
X74184628Y-78750342D01*
X75708628Y-79093200D02*
X75751485Y-79136057D01*
X75794342Y-79264628D01*
X75794342Y-79350342D01*
X75751485Y-79478914D01*
X75665771Y-79564628D01*
X75580057Y-79607485D01*
X75408628Y-79650342D01*
X75280057Y-79650342D01*
X75108628Y-79607485D01*
X75022914Y-79564628D01*
X74937200Y-79478914D01*
X74894342Y-79350342D01*
X74894342Y-79264628D01*
X74937200Y-79136057D01*
X74980057Y-79093200D01*
X75194342Y-78321771D02*
X75794342Y-78321771D01*
X74851485Y-78536057D02*
X75494342Y-78750342D01*
X75494342Y-78193200D01*
X87099000Y-55591828D02*
X87056142Y-55634685D01*
X86927571Y-55677542D01*
X86841857Y-55677542D01*
X86713285Y-55634685D01*
X86627571Y-55548971D01*
X86584714Y-55463257D01*
X86541857Y-55291828D01*
X86541857Y-55163257D01*
X86584714Y-54991828D01*
X86627571Y-54906114D01*
X86713285Y-54820400D01*
X86841857Y-54777542D01*
X86927571Y-54777542D01*
X87056142Y-54820400D01*
X87099000Y-54863257D01*
X87956142Y-55677542D02*
X87441857Y-55677542D01*
X87699000Y-55677542D02*
X87699000Y-54777542D01*
X87613285Y-54906114D01*
X87527571Y-54991828D01*
X87441857Y-55034685D01*
X79197942Y-77591371D02*
X78769371Y-77891371D01*
X79197942Y-78105657D02*
X78297942Y-78105657D01*
X78297942Y-77762800D01*
X78340800Y-77677085D01*
X78383657Y-77634228D01*
X78469371Y-77591371D01*
X78597942Y-77591371D01*
X78683657Y-77634228D01*
X78726514Y-77677085D01*
X78769371Y-77762800D01*
X78769371Y-78105657D01*
X79197942Y-76734228D02*
X79197942Y-77248514D01*
X79197942Y-76991371D02*
X78297942Y-76991371D01*
X78426514Y-77077085D01*
X78512228Y-77162800D01*
X78555085Y-77248514D01*
X79197942Y-75877085D02*
X79197942Y-76391371D01*
X79197942Y-76134228D02*
X78297942Y-76134228D01*
X78426514Y-76219942D01*
X78512228Y-76305657D01*
X78555085Y-76391371D01*
X110533428Y-74108428D02*
X110490571Y-74151285D01*
X110362000Y-74194142D01*
X110276285Y-74194142D01*
X110147714Y-74151285D01*
X110062000Y-74065571D01*
X110019142Y-73979857D01*
X109976285Y-73808428D01*
X109976285Y-73679857D01*
X110019142Y-73508428D01*
X110062000Y-73422714D01*
X110147714Y-73337000D01*
X110276285Y-73294142D01*
X110362000Y-73294142D01*
X110490571Y-73337000D01*
X110533428Y-73379857D01*
X110876285Y-73379857D02*
X110919142Y-73337000D01*
X111004857Y-73294142D01*
X111219142Y-73294142D01*
X111304857Y-73337000D01*
X111347714Y-73379857D01*
X111390571Y-73465571D01*
X111390571Y-73551285D01*
X111347714Y-73679857D01*
X110833428Y-74194142D01*
X111390571Y-74194142D01*
X111690571Y-73294142D02*
X112247714Y-73294142D01*
X111947714Y-73637000D01*
X112076285Y-73637000D01*
X112162000Y-73679857D01*
X112204857Y-73722714D01*
X112247714Y-73808428D01*
X112247714Y-74022714D01*
X112204857Y-74108428D01*
X112162000Y-74151285D01*
X112076285Y-74194142D01*
X111819142Y-74194142D01*
X111733428Y-74151285D01*
X111690571Y-74108428D01*
X74576800Y-82601542D02*
X74276800Y-82172971D01*
X74062514Y-82601542D02*
X74062514Y-81701542D01*
X74405371Y-81701542D01*
X74491085Y-81744400D01*
X74533942Y-81787257D01*
X74576800Y-81872971D01*
X74576800Y-82001542D01*
X74533942Y-82087257D01*
X74491085Y-82130114D01*
X74405371Y-82172971D01*
X74062514Y-82172971D01*
X75391085Y-81701542D02*
X74962514Y-81701542D01*
X74919657Y-82130114D01*
X74962514Y-82087257D01*
X75048228Y-82044400D01*
X75262514Y-82044400D01*
X75348228Y-82087257D01*
X75391085Y-82130114D01*
X75433942Y-82215828D01*
X75433942Y-82430114D01*
X75391085Y-82515828D01*
X75348228Y-82558685D01*
X75262514Y-82601542D01*
X75048228Y-82601542D01*
X74962514Y-82558685D01*
X74919657Y-82515828D01*
X113581428Y-74108428D02*
X113538571Y-74151285D01*
X113410000Y-74194142D01*
X113324285Y-74194142D01*
X113195714Y-74151285D01*
X113110000Y-74065571D01*
X113067142Y-73979857D01*
X113024285Y-73808428D01*
X113024285Y-73679857D01*
X113067142Y-73508428D01*
X113110000Y-73422714D01*
X113195714Y-73337000D01*
X113324285Y-73294142D01*
X113410000Y-73294142D01*
X113538571Y-73337000D01*
X113581428Y-73379857D01*
X113924285Y-73379857D02*
X113967142Y-73337000D01*
X114052857Y-73294142D01*
X114267142Y-73294142D01*
X114352857Y-73337000D01*
X114395714Y-73379857D01*
X114438571Y-73465571D01*
X114438571Y-73551285D01*
X114395714Y-73679857D01*
X113881428Y-74194142D01*
X114438571Y-74194142D01*
X114867142Y-74194142D02*
X115038571Y-74194142D01*
X115124285Y-74151285D01*
X115167142Y-74108428D01*
X115252857Y-73979857D01*
X115295714Y-73808428D01*
X115295714Y-73465571D01*
X115252857Y-73379857D01*
X115210000Y-73337000D01*
X115124285Y-73294142D01*
X114952857Y-73294142D01*
X114867142Y-73337000D01*
X114824285Y-73379857D01*
X114781428Y-73465571D01*
X114781428Y-73679857D01*
X114824285Y-73765571D01*
X114867142Y-73808428D01*
X114952857Y-73851285D01*
X115124285Y-73851285D01*
X115210000Y-73808428D01*
X115252857Y-73765571D01*
X115295714Y-73679857D01*
X107015828Y-56607828D02*
X106972971Y-56650685D01*
X106844400Y-56693542D01*
X106758685Y-56693542D01*
X106630114Y-56650685D01*
X106544400Y-56564971D01*
X106501542Y-56479257D01*
X106458685Y-56307828D01*
X106458685Y-56179257D01*
X106501542Y-56007828D01*
X106544400Y-55922114D01*
X106630114Y-55836400D01*
X106758685Y-55793542D01*
X106844400Y-55793542D01*
X106972971Y-55836400D01*
X107015828Y-55879257D01*
X107872971Y-56693542D02*
X107358685Y-56693542D01*
X107615828Y-56693542D02*
X107615828Y-55793542D01*
X107530114Y-55922114D01*
X107444400Y-56007828D01*
X107358685Y-56050685D01*
X108301542Y-56693542D02*
X108472971Y-56693542D01*
X108558685Y-56650685D01*
X108601542Y-56607828D01*
X108687257Y-56479257D01*
X108730114Y-56307828D01*
X108730114Y-55964971D01*
X108687257Y-55879257D01*
X108644400Y-55836400D01*
X108558685Y-55793542D01*
X108387257Y-55793542D01*
X108301542Y-55836400D01*
X108258685Y-55879257D01*
X108215828Y-55964971D01*
X108215828Y-56179257D01*
X108258685Y-56264971D01*
X108301542Y-56307828D01*
X108387257Y-56350685D01*
X108558685Y-56350685D01*
X108644400Y-56307828D01*
X108687257Y-56264971D01*
X108730114Y-56179257D01*
X106939628Y-55169542D02*
X106639628Y-54740971D01*
X106425342Y-55169542D02*
X106425342Y-54269542D01*
X106768200Y-54269542D01*
X106853914Y-54312400D01*
X106896771Y-54355257D01*
X106939628Y-54440971D01*
X106939628Y-54569542D01*
X106896771Y-54655257D01*
X106853914Y-54698114D01*
X106768200Y-54740971D01*
X106425342Y-54740971D01*
X107796771Y-55169542D02*
X107282485Y-55169542D01*
X107539628Y-55169542D02*
X107539628Y-54269542D01*
X107453914Y-54398114D01*
X107368200Y-54483828D01*
X107282485Y-54526685D01*
X108568200Y-54569542D02*
X108568200Y-55169542D01*
X108353914Y-54226685D02*
X108139628Y-54869542D01*
X108696771Y-54869542D01*
X76480142Y-84859000D02*
X76051571Y-85159000D01*
X76480142Y-85373285D02*
X75580142Y-85373285D01*
X75580142Y-85030428D01*
X75623000Y-84944714D01*
X75665857Y-84901857D01*
X75751571Y-84859000D01*
X75880142Y-84859000D01*
X75965857Y-84901857D01*
X76008714Y-84944714D01*
X76051571Y-85030428D01*
X76051571Y-85373285D01*
X76480142Y-84430428D02*
X76480142Y-84259000D01*
X76437285Y-84173285D01*
X76394428Y-84130428D01*
X76265857Y-84044714D01*
X76094428Y-84001857D01*
X75751571Y-84001857D01*
X75665857Y-84044714D01*
X75623000Y-84087571D01*
X75580142Y-84173285D01*
X75580142Y-84344714D01*
X75623000Y-84430428D01*
X75665857Y-84473285D01*
X75751571Y-84516142D01*
X75965857Y-84516142D01*
X76051571Y-84473285D01*
X76094428Y-84430428D01*
X76137285Y-84344714D01*
X76137285Y-84173285D01*
X76094428Y-84087571D01*
X76051571Y-84044714D01*
X75965857Y-84001857D01*
X74576800Y-81077542D02*
X74276800Y-80648971D01*
X74062514Y-81077542D02*
X74062514Y-80177542D01*
X74405371Y-80177542D01*
X74491085Y-80220400D01*
X74533942Y-80263257D01*
X74576800Y-80348971D01*
X74576800Y-80477542D01*
X74533942Y-80563257D01*
X74491085Y-80606114D01*
X74405371Y-80648971D01*
X74062514Y-80648971D01*
X75091085Y-80563257D02*
X75005371Y-80520400D01*
X74962514Y-80477542D01*
X74919657Y-80391828D01*
X74919657Y-80348971D01*
X74962514Y-80263257D01*
X75005371Y-80220400D01*
X75091085Y-80177542D01*
X75262514Y-80177542D01*
X75348228Y-80220400D01*
X75391085Y-80263257D01*
X75433942Y-80348971D01*
X75433942Y-80391828D01*
X75391085Y-80477542D01*
X75348228Y-80520400D01*
X75262514Y-80563257D01*
X75091085Y-80563257D01*
X75005371Y-80606114D01*
X74962514Y-80648971D01*
X74919657Y-80734685D01*
X74919657Y-80906114D01*
X74962514Y-80991828D01*
X75005371Y-81034685D01*
X75091085Y-81077542D01*
X75262514Y-81077542D01*
X75348228Y-81034685D01*
X75391085Y-80991828D01*
X75433942Y-80906114D01*
X75433942Y-80734685D01*
X75391085Y-80648971D01*
X75348228Y-80606114D01*
X75262514Y-80563257D01*
X130877428Y-79064571D02*
X130920285Y-79107428D01*
X130963142Y-79236000D01*
X130963142Y-79321714D01*
X130920285Y-79450285D01*
X130834571Y-79536000D01*
X130748857Y-79578857D01*
X130577428Y-79621714D01*
X130448857Y-79621714D01*
X130277428Y-79578857D01*
X130191714Y-79536000D01*
X130106000Y-79450285D01*
X130063142Y-79321714D01*
X130063142Y-79236000D01*
X130106000Y-79107428D01*
X130148857Y-79064571D01*
X130148857Y-78721714D02*
X130106000Y-78678857D01*
X130063142Y-78593142D01*
X130063142Y-78378857D01*
X130106000Y-78293142D01*
X130148857Y-78250285D01*
X130234571Y-78207428D01*
X130320285Y-78207428D01*
X130448857Y-78250285D01*
X130963142Y-78764571D01*
X130963142Y-78207428D01*
X130063142Y-77393142D02*
X130063142Y-77821714D01*
X130491714Y-77864571D01*
X130448857Y-77821714D01*
X130406000Y-77736000D01*
X130406000Y-77521714D01*
X130448857Y-77436000D01*
X130491714Y-77393142D01*
X130577428Y-77350285D01*
X130791714Y-77350285D01*
X130877428Y-77393142D01*
X130920285Y-77436000D01*
X130963142Y-77521714D01*
X130963142Y-77736000D01*
X130920285Y-77821714D01*
X130877428Y-77864571D01*
X99369600Y-75351542D02*
X99369600Y-75994400D01*
X99326742Y-76122971D01*
X99241028Y-76208685D01*
X99112457Y-76251542D01*
X99026742Y-76251542D01*
X100183885Y-75651542D02*
X100183885Y-76251542D01*
X99969600Y-75308685D02*
X99755314Y-75951542D01*
X100312457Y-75951542D01*
X105169571Y-68682342D02*
X104869571Y-68253771D01*
X104655285Y-68682342D02*
X104655285Y-67782342D01*
X104998142Y-67782342D01*
X105083857Y-67825200D01*
X105126714Y-67868057D01*
X105169571Y-67953771D01*
X105169571Y-68082342D01*
X105126714Y-68168057D01*
X105083857Y-68210914D01*
X104998142Y-68253771D01*
X104655285Y-68253771D01*
X105555285Y-68682342D02*
X105555285Y-67782342D01*
X106069571Y-68682342D01*
X106069571Y-67782342D01*
X106455285Y-67868057D02*
X106498142Y-67825200D01*
X106583857Y-67782342D01*
X106798142Y-67782342D01*
X106883857Y-67825200D01*
X106926714Y-67868057D01*
X106969571Y-67953771D01*
X106969571Y-68039485D01*
X106926714Y-68168057D01*
X106412428Y-68682342D01*
X106969571Y-68682342D01*
X108381885Y-68341142D02*
X108381885Y-69069714D01*
X108424742Y-69155428D01*
X108467600Y-69198285D01*
X108553314Y-69241142D01*
X108724742Y-69241142D01*
X108810457Y-69198285D01*
X108853314Y-69155428D01*
X108896171Y-69069714D01*
X108896171Y-68341142D01*
X109710457Y-68341142D02*
X109539028Y-68341142D01*
X109453314Y-68384000D01*
X109410457Y-68426857D01*
X109324742Y-68555428D01*
X109281885Y-68726857D01*
X109281885Y-69069714D01*
X109324742Y-69155428D01*
X109367600Y-69198285D01*
X109453314Y-69241142D01*
X109624742Y-69241142D01*
X109710457Y-69198285D01*
X109753314Y-69155428D01*
X109796171Y-69069714D01*
X109796171Y-68855428D01*
X109753314Y-68769714D01*
X109710457Y-68726857D01*
X109624742Y-68684000D01*
X109453314Y-68684000D01*
X109367600Y-68726857D01*
X109324742Y-68769714D01*
X109281885Y-68855428D01*
X109962228Y-65701028D02*
X109919371Y-65743885D01*
X109790800Y-65786742D01*
X109705085Y-65786742D01*
X109576514Y-65743885D01*
X109490800Y-65658171D01*
X109447942Y-65572457D01*
X109405085Y-65401028D01*
X109405085Y-65272457D01*
X109447942Y-65101028D01*
X109490800Y-65015314D01*
X109576514Y-64929600D01*
X109705085Y-64886742D01*
X109790800Y-64886742D01*
X109919371Y-64929600D01*
X109962228Y-64972457D01*
X110819371Y-65786742D02*
X110305085Y-65786742D01*
X110562228Y-65786742D02*
X110562228Y-64886742D01*
X110476514Y-65015314D01*
X110390800Y-65101028D01*
X110305085Y-65143885D01*
X111333657Y-65272457D02*
X111247942Y-65229600D01*
X111205085Y-65186742D01*
X111162228Y-65101028D01*
X111162228Y-65058171D01*
X111205085Y-64972457D01*
X111247942Y-64929600D01*
X111333657Y-64886742D01*
X111505085Y-64886742D01*
X111590800Y-64929600D01*
X111633657Y-64972457D01*
X111676514Y-65058171D01*
X111676514Y-65101028D01*
X111633657Y-65186742D01*
X111590800Y-65229600D01*
X111505085Y-65272457D01*
X111333657Y-65272457D01*
X111247942Y-65315314D01*
X111205085Y-65358171D01*
X111162228Y-65443885D01*
X111162228Y-65615314D01*
X111205085Y-65701028D01*
X111247942Y-65743885D01*
X111333657Y-65786742D01*
X111505085Y-65786742D01*
X111590800Y-65743885D01*
X111633657Y-65701028D01*
X111676514Y-65615314D01*
X111676514Y-65443885D01*
X111633657Y-65358171D01*
X111590800Y-65315314D01*
X111505085Y-65272457D01*
X111988685Y-75961142D02*
X111988685Y-76689714D01*
X112031542Y-76775428D01*
X112074400Y-76818285D01*
X112160114Y-76861142D01*
X112331542Y-76861142D01*
X112417257Y-76818285D01*
X112460114Y-76775428D01*
X112502971Y-76689714D01*
X112502971Y-75961142D01*
X112845828Y-75961142D02*
X113445828Y-75961142D01*
X113060114Y-76861142D01*
X129353428Y-79064571D02*
X129396285Y-79107428D01*
X129439142Y-79236000D01*
X129439142Y-79321714D01*
X129396285Y-79450285D01*
X129310571Y-79536000D01*
X129224857Y-79578857D01*
X129053428Y-79621714D01*
X128924857Y-79621714D01*
X128753428Y-79578857D01*
X128667714Y-79536000D01*
X128582000Y-79450285D01*
X128539142Y-79321714D01*
X128539142Y-79236000D01*
X128582000Y-79107428D01*
X128624857Y-79064571D01*
X128624857Y-78721714D02*
X128582000Y-78678857D01*
X128539142Y-78593142D01*
X128539142Y-78378857D01*
X128582000Y-78293142D01*
X128624857Y-78250285D01*
X128710571Y-78207428D01*
X128796285Y-78207428D01*
X128924857Y-78250285D01*
X129439142Y-78764571D01*
X129439142Y-78207428D01*
X128539142Y-77436000D02*
X128539142Y-77607428D01*
X128582000Y-77693142D01*
X128624857Y-77736000D01*
X128753428Y-77821714D01*
X128924857Y-77864571D01*
X129267714Y-77864571D01*
X129353428Y-77821714D01*
X129396285Y-77778857D01*
X129439142Y-77693142D01*
X129439142Y-77521714D01*
X129396285Y-77436000D01*
X129353428Y-77393142D01*
X129267714Y-77350285D01*
X129053428Y-77350285D01*
X128967714Y-77393142D01*
X128924857Y-77436000D01*
X128882000Y-77521714D01*
X128882000Y-77693142D01*
X128924857Y-77778857D01*
X128967714Y-77821714D01*
X129053428Y-77864571D01*
X123245600Y-55641142D02*
X123245600Y-56284000D01*
X123202742Y-56412571D01*
X123117028Y-56498285D01*
X122988457Y-56541142D01*
X122902742Y-56541142D01*
X124102742Y-55641142D02*
X123674171Y-55641142D01*
X123631314Y-56069714D01*
X123674171Y-56026857D01*
X123759885Y-55984000D01*
X123974171Y-55984000D01*
X124059885Y-56026857D01*
X124102742Y-56069714D01*
X124145600Y-56155428D01*
X124145600Y-56369714D01*
X124102742Y-56455428D01*
X124059885Y-56498285D01*
X123974171Y-56541142D01*
X123759885Y-56541142D01*
X123674171Y-56498285D01*
X123631314Y-56455428D01*
X107015828Y-58131828D02*
X106972971Y-58174685D01*
X106844400Y-58217542D01*
X106758685Y-58217542D01*
X106630114Y-58174685D01*
X106544400Y-58088971D01*
X106501542Y-58003257D01*
X106458685Y-57831828D01*
X106458685Y-57703257D01*
X106501542Y-57531828D01*
X106544400Y-57446114D01*
X106630114Y-57360400D01*
X106758685Y-57317542D01*
X106844400Y-57317542D01*
X106972971Y-57360400D01*
X107015828Y-57403257D01*
X107358685Y-57403257D02*
X107401542Y-57360400D01*
X107487257Y-57317542D01*
X107701542Y-57317542D01*
X107787257Y-57360400D01*
X107830114Y-57403257D01*
X107872971Y-57488971D01*
X107872971Y-57574685D01*
X107830114Y-57703257D01*
X107315828Y-58217542D01*
X107872971Y-58217542D01*
X108430114Y-57317542D02*
X108515828Y-57317542D01*
X108601542Y-57360400D01*
X108644400Y-57403257D01*
X108687257Y-57488971D01*
X108730114Y-57660400D01*
X108730114Y-57874685D01*
X108687257Y-58046114D01*
X108644400Y-58131828D01*
X108601542Y-58174685D01*
X108515828Y-58217542D01*
X108430114Y-58217542D01*
X108344400Y-58174685D01*
X108301542Y-58131828D01*
X108258685Y-58046114D01*
X108215828Y-57874685D01*
X108215828Y-57660400D01*
X108258685Y-57488971D01*
X108301542Y-57403257D01*
X108344400Y-57360400D01*
X108430114Y-57317542D01*
X115265285Y-55793542D02*
X115265285Y-56522114D01*
X115308142Y-56607828D01*
X115351000Y-56650685D01*
X115436714Y-56693542D01*
X115608142Y-56693542D01*
X115693857Y-56650685D01*
X115736714Y-56607828D01*
X115779571Y-56522114D01*
X115779571Y-55793542D01*
X116593857Y-56093542D02*
X116593857Y-56693542D01*
X116379571Y-55750685D02*
X116165285Y-56393542D01*
X116722428Y-56393542D01*
X69052342Y-72821714D02*
X69780914Y-72821714D01*
X69866628Y-72778857D01*
X69909485Y-72736000D01*
X69952342Y-72650285D01*
X69952342Y-72478857D01*
X69909485Y-72393142D01*
X69866628Y-72350285D01*
X69780914Y-72307428D01*
X69052342Y-72307428D01*
X69138057Y-71921714D02*
X69095200Y-71878857D01*
X69052342Y-71793142D01*
X69052342Y-71578857D01*
X69095200Y-71493142D01*
X69138057Y-71450285D01*
X69223771Y-71407428D01*
X69309485Y-71407428D01*
X69438057Y-71450285D01*
X69952342Y-71964571D01*
X69952342Y-71407428D01*
X113111828Y-65701028D02*
X113068971Y-65743885D01*
X112940400Y-65786742D01*
X112854685Y-65786742D01*
X112726114Y-65743885D01*
X112640400Y-65658171D01*
X112597542Y-65572457D01*
X112554685Y-65401028D01*
X112554685Y-65272457D01*
X112597542Y-65101028D01*
X112640400Y-65015314D01*
X112726114Y-64929600D01*
X112854685Y-64886742D01*
X112940400Y-64886742D01*
X113068971Y-64929600D01*
X113111828Y-64972457D01*
X113454685Y-64972457D02*
X113497542Y-64929600D01*
X113583257Y-64886742D01*
X113797542Y-64886742D01*
X113883257Y-64929600D01*
X113926114Y-64972457D01*
X113968971Y-65058171D01*
X113968971Y-65143885D01*
X113926114Y-65272457D01*
X113411828Y-65786742D01*
X113968971Y-65786742D01*
X114311828Y-64972457D02*
X114354685Y-64929600D01*
X114440400Y-64886742D01*
X114654685Y-64886742D01*
X114740400Y-64929600D01*
X114783257Y-64972457D01*
X114826114Y-65058171D01*
X114826114Y-65143885D01*
X114783257Y-65272457D01*
X114268971Y-65786742D01*
X114826114Y-65786742D01*
X128791571Y-62442142D02*
X128491571Y-62013571D01*
X128277285Y-62442142D02*
X128277285Y-61542142D01*
X128620142Y-61542142D01*
X128705857Y-61585000D01*
X128748714Y-61627857D01*
X128791571Y-61713571D01*
X128791571Y-61842142D01*
X128748714Y-61927857D01*
X128705857Y-61970714D01*
X128620142Y-62013571D01*
X128277285Y-62013571D01*
X129177285Y-62442142D02*
X129177285Y-61542142D01*
X129691571Y-62442142D01*
X129691571Y-61542142D01*
X130034428Y-61542142D02*
X130591571Y-61542142D01*
X130291571Y-61885000D01*
X130420142Y-61885000D01*
X130505857Y-61927857D01*
X130548714Y-61970714D01*
X130591571Y-62056428D01*
X130591571Y-62270714D01*
X130548714Y-62356428D01*
X130505857Y-62399285D01*
X130420142Y-62442142D01*
X130163000Y-62442142D01*
X130077285Y-62399285D01*
X130034428Y-62356428D01*
X116345571Y-61671942D02*
X116045571Y-61243371D01*
X115831285Y-61671942D02*
X115831285Y-60771942D01*
X116174142Y-60771942D01*
X116259857Y-60814800D01*
X116302714Y-60857657D01*
X116345571Y-60943371D01*
X116345571Y-61071942D01*
X116302714Y-61157657D01*
X116259857Y-61200514D01*
X116174142Y-61243371D01*
X115831285Y-61243371D01*
X116731285Y-61671942D02*
X116731285Y-60771942D01*
X117245571Y-61671942D01*
X117245571Y-60771942D01*
X118145571Y-61671942D02*
X117631285Y-61671942D01*
X117888428Y-61671942D02*
X117888428Y-60771942D01*
X117802714Y-60900514D01*
X117717000Y-60986228D01*
X117631285Y-61029085D01*
X106121285Y-71693942D02*
X106121285Y-72422514D01*
X106164142Y-72508228D01*
X106207000Y-72551085D01*
X106292714Y-72593942D01*
X106464142Y-72593942D01*
X106549857Y-72551085D01*
X106592714Y-72508228D01*
X106635571Y-72422514D01*
X106635571Y-71693942D01*
X107492714Y-71693942D02*
X107064142Y-71693942D01*
X107021285Y-72122514D01*
X107064142Y-72079657D01*
X107149857Y-72036800D01*
X107364142Y-72036800D01*
X107449857Y-72079657D01*
X107492714Y-72122514D01*
X107535571Y-72208228D01*
X107535571Y-72422514D01*
X107492714Y-72508228D01*
X107449857Y-72551085D01*
X107364142Y-72593942D01*
X107149857Y-72593942D01*
X107064142Y-72551085D01*
X107021285Y-72508228D01*
X68576114Y-83820742D02*
X68576114Y-82920742D01*
X68790400Y-82920742D01*
X68918971Y-82963600D01*
X69004685Y-83049314D01*
X69047542Y-83135028D01*
X69090400Y-83306457D01*
X69090400Y-83435028D01*
X69047542Y-83606457D01*
X69004685Y-83692171D01*
X68918971Y-83777885D01*
X68790400Y-83820742D01*
X68576114Y-83820742D01*
X69433257Y-83006457D02*
X69476114Y-82963600D01*
X69561828Y-82920742D01*
X69776114Y-82920742D01*
X69861828Y-82963600D01*
X69904685Y-83006457D01*
X69947542Y-83092171D01*
X69947542Y-83177885D01*
X69904685Y-83306457D01*
X69390400Y-83820742D01*
X69947542Y-83820742D01*
X77673942Y-85287571D02*
X77245371Y-85587571D01*
X77673942Y-85801857D02*
X76773942Y-85801857D01*
X76773942Y-85459000D01*
X76816800Y-85373285D01*
X76859657Y-85330428D01*
X76945371Y-85287571D01*
X77073942Y-85287571D01*
X77159657Y-85330428D01*
X77202514Y-85373285D01*
X77245371Y-85459000D01*
X77245371Y-85801857D01*
X77673942Y-84430428D02*
X77673942Y-84944714D01*
X77673942Y-84687571D02*
X76773942Y-84687571D01*
X76902514Y-84773285D01*
X76988228Y-84859000D01*
X77031085Y-84944714D01*
X76773942Y-83873285D02*
X76773942Y-83787571D01*
X76816800Y-83701857D01*
X76859657Y-83659000D01*
X76945371Y-83616142D01*
X77116800Y-83573285D01*
X77331085Y-83573285D01*
X77502514Y-83616142D01*
X77588228Y-83659000D01*
X77631085Y-83701857D01*
X77673942Y-83787571D01*
X77673942Y-83873285D01*
X77631085Y-83959000D01*
X77588228Y-84001857D01*
X77502514Y-84044714D01*
X77331085Y-84087571D01*
X77116800Y-84087571D01*
X76945371Y-84044714D01*
X76859657Y-84001857D01*
X76816800Y-83959000D01*
X76773942Y-83873285D01*
X131653000Y-83323914D02*
X131353000Y-83323914D01*
X131353000Y-83795342D02*
X131353000Y-82895342D01*
X131781571Y-82895342D01*
X132081571Y-82981057D02*
X132124428Y-82938200D01*
X132210142Y-82895342D01*
X132424428Y-82895342D01*
X132510142Y-82938200D01*
X132553000Y-82981057D01*
X132595857Y-83066771D01*
X132595857Y-83152485D01*
X132553000Y-83281057D01*
X132038714Y-83795342D01*
X132595857Y-83795342D01*
D15*
X75719400Y-62103580D02*
X75719400Y-61822420D01*
X74699400Y-62103580D02*
X74699400Y-61822420D01*
X82885000Y-61315580D02*
X82885000Y-61034420D01*
X81865000Y-61315580D02*
X81865000Y-61034420D01*
X91980000Y-65704800D02*
X91980000Y-65769800D01*
X88450000Y-59299800D02*
X91980000Y-59299800D01*
X88450000Y-65769800D02*
X91980000Y-65769800D01*
X91980000Y-59299800D02*
X91980000Y-59364800D01*
X88450000Y-65704800D02*
X88450000Y-65769800D01*
X88450000Y-59299800D02*
X88450000Y-59364800D01*
X87125000Y-59364800D02*
X88450000Y-59364800D01*
X66920342Y-75271100D02*
X67394858Y-75271100D01*
X66920342Y-76316100D02*
X67394858Y-76316100D01*
X71312300Y-76470742D02*
X71312300Y-76945258D01*
X70267300Y-76470742D02*
X70267300Y-76945258D01*
X71791300Y-76945258D02*
X71791300Y-76470742D01*
X72836300Y-76945258D02*
X72836300Y-76470742D01*
X77408300Y-76470742D02*
X77408300Y-76945258D01*
X76363300Y-76470742D02*
X76363300Y-76945258D01*
X96137500Y-79645742D02*
X96137500Y-80120258D01*
X97182500Y-79645742D02*
X97182500Y-80120258D01*
X94613500Y-79645742D02*
X94613500Y-80120258D01*
X95658500Y-79645742D02*
X95658500Y-80120258D01*
X73150000Y-62116580D02*
X73150000Y-61835420D01*
X74170000Y-62116580D02*
X74170000Y-61835420D01*
X95744420Y-82077800D02*
X96025580Y-82077800D01*
X95744420Y-83097800D02*
X96025580Y-83097800D01*
X79500000Y-80277580D02*
X79500000Y-79996420D01*
X80520000Y-80277580D02*
X80520000Y-79996420D01*
X85698420Y-70106000D02*
X85979580Y-70106000D01*
X85698420Y-69086000D02*
X85979580Y-69086000D01*
X92772620Y-70737000D02*
X93053780Y-70737000D01*
X92772620Y-71757000D02*
X93053780Y-71757000D01*
X92772620Y-70233000D02*
X93053780Y-70233000D01*
X92772620Y-69213000D02*
X93053780Y-69213000D01*
X96155742Y-85837500D02*
X96630258Y-85837500D01*
X96155742Y-86882500D02*
X96630258Y-86882500D01*
X91945000Y-54055000D02*
X91945000Y-51395000D01*
X89345000Y-54055000D02*
X89345000Y-52725000D01*
X102165000Y-54055000D02*
X102165000Y-51395000D01*
X91945000Y-51395000D02*
X102165000Y-51395000D01*
X90675000Y-54055000D02*
X89345000Y-54055000D01*
X91945000Y-54055000D02*
X102165000Y-54055000D01*
X87235420Y-58549000D02*
X87516580Y-58549000D01*
X87235420Y-57529000D02*
X87516580Y-57529000D01*
X99095779Y-82077800D02*
X98770221Y-82077800D01*
X99095779Y-83097800D02*
X98770221Y-83097800D01*
X77080000Y-59615000D02*
X79800000Y-59615000D01*
X79800000Y-64335000D02*
X79800000Y-64105000D01*
X79800000Y-64335000D02*
X77080000Y-64335000D01*
X79800000Y-59615000D02*
X79800000Y-59845000D01*
X80940000Y-64105000D02*
X79800000Y-64105000D01*
X77080000Y-60925000D02*
X77080000Y-59615000D01*
X77080000Y-64335000D02*
X77080000Y-63025000D01*
X83386200Y-61303780D02*
X83386200Y-61022620D01*
X84406200Y-61303780D02*
X84406200Y-61022620D01*
X72871000Y-60491000D02*
X71401000Y-60491000D01*
X72871000Y-62776000D02*
X72871000Y-60491000D01*
X71401000Y-60491000D02*
X71401000Y-62776000D01*
X93485580Y-85850000D02*
X93204420Y-85850000D01*
X93485580Y-86870000D02*
X93204420Y-86870000D01*
X66157200Y-73750000D02*
X68007200Y-73750000D01*
X68007200Y-73750000D02*
X68007200Y-73300000D01*
X63607200Y-73750000D02*
X63857200Y-73750000D01*
X63607200Y-65950000D02*
X63857200Y-65950000D01*
X68784700Y-68150000D02*
X68784700Y-68600000D01*
X68007200Y-65950000D02*
X68007200Y-66400000D01*
X68755700Y-68150000D02*
X68305700Y-68150000D01*
X66157200Y-65950000D02*
X68007200Y-65950000D01*
X83385000Y-73802000D02*
X83385000Y-73352000D01*
X90605000Y-73352000D02*
X90155000Y-73352000D01*
X90605000Y-73802000D02*
X90605000Y-73352000D01*
X90605000Y-80122000D02*
X90605000Y-80572000D01*
X83385000Y-73352000D02*
X83835000Y-73352000D01*
X90605000Y-80572000D02*
X90155000Y-80572000D01*
X83385000Y-80572000D02*
X83835000Y-80572000D01*
X83385000Y-80122000D02*
X83385000Y-80572000D01*
X83835000Y-80572000D02*
X83835000Y-81862000D01*
X92444180Y-56640000D02*
X92163020Y-56640000D01*
X92444180Y-57660000D02*
X92163020Y-57660000D01*
X82027500Y-85708258D02*
X82027500Y-85233742D01*
X83072500Y-85708258D02*
X83072500Y-85233742D01*
X89660000Y-85330420D02*
X89660000Y-85611580D01*
X90680000Y-85330420D02*
X90680000Y-85611580D01*
X84584000Y-85611580D02*
X84584000Y-85330420D01*
X83564000Y-85611580D02*
X83564000Y-85330420D01*
X89038000Y-87121000D02*
X89038000Y-83821000D01*
X89038000Y-83821000D02*
X85038000Y-83821000D01*
X73327800Y-76567420D02*
X73327800Y-76848580D01*
X74347800Y-76567420D02*
X74347800Y-76848580D01*
X74851800Y-76567420D02*
X74851800Y-76848580D01*
X75871800Y-76567420D02*
X75871800Y-76848580D01*
X87389580Y-53465000D02*
X87108420Y-53465000D01*
X87389580Y-54485000D02*
X87108420Y-54485000D01*
X80532500Y-76826342D02*
X80532500Y-77300858D01*
X79487500Y-76826342D02*
X79487500Y-77300858D01*
X111252580Y-75440000D02*
X110971420Y-75440000D01*
X111252580Y-74420000D02*
X110971420Y-74420000D01*
X72754258Y-81646500D02*
X72279742Y-81646500D01*
X72754258Y-82691500D02*
X72279742Y-82691500D01*
X114313580Y-74420000D02*
X114032420Y-74420000D01*
X114313580Y-75440000D02*
X114032420Y-75440000D01*
X110363580Y-56796400D02*
X110082420Y-56796400D01*
X110363580Y-55776400D02*
X110082420Y-55776400D01*
X109973342Y-54239900D02*
X110447858Y-54239900D01*
X109973342Y-55284900D02*
X110447858Y-55284900D01*
X77920500Y-84946258D02*
X77920500Y-84471742D01*
X78965500Y-84946258D02*
X78965500Y-84471742D01*
X72279742Y-80122500D02*
X72754258Y-80122500D01*
X72279742Y-81167500D02*
X72754258Y-81167500D01*
X131066000Y-81012420D02*
X131066000Y-81293580D01*
X130046000Y-81012420D02*
X130046000Y-81293580D01*
X102725000Y-75040000D02*
X102725000Y-64660000D01*
X102125000Y-69380000D02*
X102725000Y-69380000D01*
X102125000Y-70320000D02*
X102125000Y-71920000D01*
X102125000Y-67780000D02*
X102125000Y-69380000D01*
X96705000Y-66290000D02*
X97705000Y-66290000D01*
X102725000Y-70320000D02*
X102125000Y-70320000D01*
X102725000Y-72860000D02*
X102125000Y-72860000D01*
X96705000Y-75040000D02*
X102725000Y-75040000D01*
X96705000Y-66040000D02*
X97705000Y-66040000D01*
X102725000Y-64660000D02*
X96705000Y-64660000D01*
X97705000Y-66040000D02*
X97705000Y-73660000D01*
X96705000Y-64660000D02*
X96705000Y-75040000D01*
X96705000Y-73410000D02*
X97705000Y-73410000D01*
X97705000Y-66040000D02*
X98235000Y-66290000D01*
X98235000Y-73410000D02*
X97705000Y-73660000D01*
X102125000Y-72860000D02*
X102125000Y-74460000D01*
X102125000Y-65240000D02*
X102125000Y-66840000D01*
X102725000Y-67780000D02*
X102125000Y-67780000D01*
X102125000Y-66840000D02*
X102725000Y-66840000D01*
X97705000Y-73660000D02*
X96705000Y-73660000D01*
X101695000Y-64370000D02*
X97695000Y-64370000D01*
X102725000Y-65240000D02*
X102125000Y-65240000D01*
X102125000Y-74460000D02*
X102725000Y-74460000D01*
X98235000Y-66290000D02*
X98235000Y-73410000D01*
X102125000Y-71920000D02*
X102725000Y-71920000D01*
X106041000Y-71284000D02*
X105541000Y-71284000D01*
X106041000Y-68924000D02*
X105541000Y-68924000D01*
X113241000Y-69934000D02*
X111041000Y-69934000D01*
X113241000Y-67734000D02*
X110241000Y-67734000D01*
X110681380Y-67058000D02*
X110400220Y-67058000D01*
X110681380Y-66038000D02*
X110400220Y-66038000D01*
X113749000Y-77132000D02*
X110749000Y-77132000D01*
X113749000Y-79332000D02*
X111549000Y-79332000D01*
X129542000Y-81293580D02*
X129542000Y-81012420D01*
X128522000Y-81293580D02*
X128522000Y-81012420D01*
X120590000Y-57090000D02*
X121920000Y-57090000D01*
X120590000Y-59690000D02*
X120590000Y-82610000D01*
X120590000Y-59690000D02*
X123190000Y-59690000D01*
X120590000Y-82610000D02*
X125790000Y-82610000D01*
X120590000Y-58420000D02*
X120590000Y-57090000D01*
X123190000Y-59690000D02*
X123190000Y-57090000D01*
X125790000Y-57090000D02*
X125790000Y-82610000D01*
X123190000Y-57090000D02*
X125790000Y-57090000D01*
X110363580Y-57300400D02*
X110082420Y-57300400D01*
X110363580Y-58320400D02*
X110082420Y-58320400D01*
X115951000Y-56987000D02*
X116751000Y-56987000D01*
X115951000Y-60107000D02*
X115151000Y-60107000D01*
X115951000Y-56987000D02*
X114151000Y-56987000D01*
X115951000Y-60107000D02*
X116751000Y-60107000D01*
X73315000Y-72136000D02*
X73315000Y-71336000D01*
X70195000Y-72136000D02*
X70195000Y-71336000D01*
X73315000Y-72136000D02*
X73315000Y-72936000D01*
X70195000Y-72136000D02*
X70195000Y-73936000D01*
X113830980Y-67058000D02*
X113549820Y-67058000D01*
X113830980Y-66038000D02*
X113549820Y-66038000D01*
X129663000Y-62955000D02*
X129163000Y-62955000D01*
X129663000Y-65315000D02*
X129163000Y-65315000D01*
X117217000Y-61939000D02*
X116717000Y-61939000D01*
X117217000Y-64299000D02*
X116717000Y-64299000D01*
X106807000Y-75982000D02*
X107607000Y-75982000D01*
X106807000Y-75982000D02*
X106007000Y-75982000D01*
X106807000Y-72862000D02*
X107607000Y-72862000D01*
X106807000Y-72862000D02*
X105007000Y-72862000D01*
X67860000Y-78935000D02*
X67705000Y-78935000D01*
X70725000Y-78645000D02*
X70725000Y-82355000D01*
X67705000Y-78935000D02*
X67705000Y-82355000D01*
X67860000Y-82355000D02*
X67705000Y-82355000D01*
X70570000Y-82355000D02*
X70725000Y-82355000D01*
X69310000Y-78935000D02*
X69120000Y-78935000D01*
X69310000Y-82355000D02*
X69120000Y-82355000D01*
X80532500Y-84946258D02*
X80532500Y-84471742D01*
X79487500Y-84946258D02*
X79487500Y-84471742D01*
X129956779Y-83949000D02*
X129631221Y-83949000D01*
X129956779Y-82929000D02*
X129631221Y-82929000D01*
%LPC*%
D16*
X75209400Y-62738000D03*
X75209400Y-61188000D03*
X82375000Y-61950000D03*
X82375000Y-60400000D03*
D17*
X88265000Y-59994800D03*
X92165000Y-59994800D03*
X88265000Y-61264800D03*
X92165000Y-61264800D03*
X88265000Y-62534800D03*
X92165000Y-62534800D03*
X88265000Y-63804800D03*
X92165000Y-63804800D03*
X88265000Y-65074800D03*
X92165000Y-65074800D03*
D18*
X66332600Y-75793600D03*
X67982600Y-75793600D03*
D19*
X70789800Y-75883000D03*
X70789800Y-77533000D03*
D20*
X72313800Y-77533000D03*
X72313800Y-75883000D03*
D19*
X76885800Y-75883000D03*
X76885800Y-77533000D03*
X96660000Y-79058000D03*
X96660000Y-80708000D03*
X95136000Y-79058000D03*
X95136000Y-80708000D03*
D16*
X73660000Y-62751000D03*
X73660000Y-61201000D03*
D21*
X95110000Y-82587800D03*
X96660000Y-82587800D03*
D16*
X80010000Y-80912000D03*
X80010000Y-79362000D03*
D21*
X85064000Y-69596000D03*
X86614000Y-69596000D03*
X92138200Y-71247000D03*
X93688200Y-71247000D03*
X92138200Y-69723000D03*
X93688200Y-69723000D03*
D22*
X80010000Y-69850000D03*
X132715000Y-69850000D03*
D18*
X95568000Y-86360000D03*
X97218000Y-86360000D03*
D23*
X90675000Y-52725000D03*
D24*
X93215000Y-52725000D03*
X95755000Y-52725000D03*
X98295000Y-52725000D03*
X100835000Y-52725000D03*
D21*
X86601000Y-58039000D03*
X88151000Y-58039000D03*
D25*
X99720500Y-82587800D03*
X98145500Y-82587800D03*
D26*
X80390000Y-63475000D03*
D27*
X80302500Y-61975000D03*
D26*
X80390000Y-60475000D03*
D16*
X83896200Y-61938200D03*
X83896200Y-60388200D03*
D28*
X72136000Y-61188500D03*
X72136000Y-62763500D03*
D29*
X94120000Y-86360000D03*
X92570000Y-86360000D03*
D30*
X67794700Y-68550000D03*
X67794700Y-69200000D03*
X67794700Y-69850000D03*
X67794700Y-70500000D03*
X67794700Y-71150000D03*
D31*
X65007200Y-68850000D03*
D32*
X67707200Y-67400000D03*
D33*
X65007200Y-73450000D03*
D34*
X65007200Y-66950000D03*
D32*
X67707200Y-72300000D03*
D34*
X65007200Y-72750000D03*
D33*
X65007200Y-66250000D03*
D31*
X65007200Y-70850000D03*
D35*
X84245000Y-81124500D03*
X84745000Y-81124500D03*
X85245000Y-81124500D03*
X85745000Y-81124500D03*
X86245000Y-81124500D03*
X86745000Y-81124500D03*
X87245000Y-81124500D03*
X87745000Y-81124500D03*
X88245000Y-81124500D03*
X88745000Y-81124500D03*
X89245000Y-81124500D03*
X89745000Y-81124500D03*
D36*
X91157500Y-79712000D03*
X91157500Y-79212000D03*
X91157500Y-78712000D03*
X91157500Y-78212000D03*
X91157500Y-77712000D03*
X91157500Y-77212000D03*
X91157500Y-76712000D03*
X91157500Y-76212000D03*
X91157500Y-75712000D03*
X91157500Y-75212000D03*
X91157500Y-74712000D03*
X91157500Y-74212000D03*
D35*
X89745000Y-72799500D03*
X89245000Y-72799500D03*
X88745000Y-72799500D03*
X88245000Y-72799500D03*
X87745000Y-72799500D03*
X87245000Y-72799500D03*
X86745000Y-72799500D03*
X86245000Y-72799500D03*
X85745000Y-72799500D03*
X85245000Y-72799500D03*
X84745000Y-72799500D03*
X84245000Y-72799500D03*
D36*
X82832500Y-74212000D03*
X82832500Y-74712000D03*
X82832500Y-75212000D03*
X82832500Y-75712000D03*
X82832500Y-76212000D03*
X82832500Y-76712000D03*
X82832500Y-77212000D03*
X82832500Y-77712000D03*
X82832500Y-78212000D03*
X82832500Y-78712000D03*
X82832500Y-79212000D03*
X82832500Y-79712000D03*
D29*
X93078600Y-57150000D03*
X91528600Y-57150000D03*
D20*
X82550000Y-86296000D03*
X82550000Y-84646000D03*
D37*
X90170000Y-84696000D03*
X90170000Y-86246000D03*
D16*
X84074000Y-86246000D03*
X84074000Y-84696000D03*
D38*
X88138000Y-84621000D03*
X85938000Y-84621000D03*
X85938000Y-86321000D03*
X88138000Y-86321000D03*
D37*
X73837800Y-75933000D03*
X73837800Y-77483000D03*
X75361800Y-75933000D03*
X75361800Y-77483000D03*
D29*
X88024000Y-53975000D03*
X86474000Y-53975000D03*
D19*
X80010000Y-76238600D03*
X80010000Y-77888600D03*
D29*
X111887000Y-74930000D03*
X110337000Y-74930000D03*
D39*
X73342000Y-82169000D03*
X71692000Y-82169000D03*
D29*
X114948000Y-74930000D03*
X113398000Y-74930000D03*
X110998000Y-56286400D03*
X109448000Y-56286400D03*
D18*
X109385600Y-54762400D03*
X111035600Y-54762400D03*
D20*
X78443000Y-85534000D03*
X78443000Y-83884000D03*
D18*
X71692000Y-80645000D03*
X73342000Y-80645000D03*
D37*
X130556000Y-80378000D03*
X130556000Y-81928000D03*
D40*
X99695000Y-66040000D03*
D41*
X99695000Y-68580000D03*
X99695000Y-71120000D03*
X99695000Y-73660000D03*
D42*
X105291000Y-69354000D03*
D43*
X105291000Y-69854000D03*
X105291000Y-70354000D03*
D42*
X105291000Y-70854000D03*
X106291000Y-70854000D03*
D43*
X106291000Y-70354000D03*
X106291000Y-69854000D03*
D42*
X106291000Y-69354000D03*
D44*
X110591000Y-68084000D03*
X110591000Y-68584000D03*
X110591000Y-69084000D03*
X110591000Y-69584000D03*
X113691000Y-69584000D03*
X113691000Y-69084000D03*
X113691000Y-68584000D03*
X113691000Y-68084000D03*
D29*
X111315800Y-66548000D03*
X109765800Y-66548000D03*
D44*
X111099000Y-77482000D03*
X111099000Y-77982000D03*
X111099000Y-78482000D03*
X111099000Y-78982000D03*
X114199000Y-78982000D03*
X114199000Y-78482000D03*
X114199000Y-77982000D03*
X114199000Y-77482000D03*
D16*
X129032000Y-81928000D03*
X129032000Y-80378000D03*
D23*
X121920000Y-58420000D03*
D24*
X124460000Y-58420000D03*
X121920000Y-60960000D03*
X124460000Y-60960000D03*
X121920000Y-63500000D03*
X124460000Y-63500000D03*
X121920000Y-66040000D03*
X124460000Y-66040000D03*
X121920000Y-68580000D03*
X124460000Y-68580000D03*
X121920000Y-71120000D03*
X124460000Y-71120000D03*
X121920000Y-73660000D03*
X124460000Y-73660000D03*
X121920000Y-76200000D03*
X124460000Y-76200000D03*
X121920000Y-78740000D03*
X124460000Y-78740000D03*
X121920000Y-81280000D03*
X124460000Y-81280000D03*
D29*
X110998000Y-57810400D03*
X109448000Y-57810400D03*
D45*
X114813500Y-57597000D03*
X114813500Y-58547000D03*
X114813500Y-59497000D03*
X117088500Y-59497000D03*
X117088500Y-58547000D03*
X117088500Y-57597000D03*
D46*
X70805000Y-73273500D03*
X71755000Y-73273500D03*
X72705000Y-73273500D03*
X72705000Y-70998500D03*
X71755000Y-70998500D03*
X70805000Y-70998500D03*
D29*
X114465400Y-66548000D03*
X112915400Y-66548000D03*
D42*
X128913000Y-63385000D03*
D43*
X128913000Y-63885000D03*
X128913000Y-64385000D03*
D42*
X128913000Y-64885000D03*
X129913000Y-64885000D03*
D43*
X129913000Y-64385000D03*
X129913000Y-63885000D03*
D42*
X129913000Y-63385000D03*
X116467000Y-62369000D03*
D43*
X116467000Y-62869000D03*
X116467000Y-63369000D03*
D42*
X116467000Y-63869000D03*
X117467000Y-63869000D03*
D43*
X117467000Y-63369000D03*
X117467000Y-62869000D03*
D42*
X117467000Y-62369000D03*
D45*
X105669500Y-73472000D03*
X105669500Y-74422000D03*
X105669500Y-75372000D03*
X107944500Y-75372000D03*
X107944500Y-74422000D03*
X107944500Y-73472000D03*
D47*
X69940000Y-79245000D03*
X69940000Y-82045000D03*
X68490000Y-82045000D03*
X68490000Y-79245000D03*
D20*
X80010000Y-85534000D03*
X80010000Y-83884000D03*
D25*
X130581500Y-83439000D03*
X129006500Y-83439000D03*
M02*
