M48
; DRILL file {KiCad (6.0.9)} date Thu Dec  8 08:51:56 2022
; FORMAT={-:-/ absolute / metric / decimal}
; #@! TF.CreationDate,2022-12-08T08:51:56+01:00
; #@! TF.GenerationSoftware,Kicad,Pcbnew,(6.0.9)
; #@! TF.FileFunction,Plated,1,2,PTH
FMAT,2
METRIC
; #@! TA.AperFunction,Plated,PTH,ViaDrill
T1C0.200
; #@! TA.AperFunction,Plated,PTH,ViaDrill
T2C0.300
; #@! TA.AperFunction,Plated,PTH,ViaDrill
T3C0.400
; #@! TA.AperFunction,Plated,PTH,ViaDrill
T4C0.500
; #@! TA.AperFunction,Plated,PTH,ComponentDrill
T5C0.600
; #@! TA.AperFunction,Plated,PTH,ComponentDrill
T6C0.850
; #@! TA.AperFunction,Plated,PTH,ComponentDrill
T7C1.000
; #@! TA.AperFunction,Plated,PTH,ComponentDrill
T8C1.190
%
G90
G05
T1
X73.107Y-76.663
X76.105Y-76.752
X78.13Y-77.064
X84.115Y-74.016
X84.642Y-74.676
X84.988Y-78.74
X85.168Y-75.184
X85.75Y-71.171
X85.75Y-75.794
X86.614Y-75.794
X86.665Y-76.606
X87.579Y-74.93
X88.595Y-78.08
X88.646Y-71.425
X88.951Y-74.981
X89.459Y-76.403
X90.322Y-71.425
X90.526Y-61.265
X90.526Y-65.481
X90.576Y-62.535
X90.576Y-63.805
X90.627Y-59.995
X90.983Y-72.949
X94.844Y-76.81
X104.242Y-76.149
X104.996Y-77.14
X105.562Y-76.606
X105.867Y-67.056
X106.629Y-67.056
X106.68Y-72.644
X106.68Y-73.457
X106.731Y-75.387
X107.315Y-69.088
X107.315Y-69.828
X107.315Y-76.2
X107.34Y-79.604
X107.95Y-79.045
X108.712Y-79.045
X108.839Y-69.088
X113.436Y-57.607
X113.792Y-63.246
X114.554Y-68.58
X114.706Y-62.789
X115.468Y-63.906
X115.824Y-59.538
X116.027Y-57.607
T2
X69.698Y-68.123
X71.755Y-69.85
X71.755Y-74.549
X75.362Y-78.638
X81.178Y-76.352
X81.178Y-80.924
X87.757Y-79.756
X88.773Y-79.756
X90.983Y-70.561
X94.108Y-82.551
X97.409Y-81.788
X98.654Y-86.36
X99.72Y-83.668
X103.886Y-74.422
X109.982Y-76.454
X110.033Y-79.248
T3
X70.053Y-83.922
X85.496Y-63.195
X93.624Y-84.023
X93.929Y-80.67
X97.739Y-84.582
X102.235Y-61.341
X105.156Y-62.789
X108.306Y-67.005
X109.576Y-82.906
X111.379Y-65.405
X111.887Y-73.787
X112.903Y-65.405
X113.284Y-73.787
X113.284Y-82.906
X118.339Y-58.547
X119.253Y-59.69
X129.794Y-58.826
X131.369Y-64.364
T4
X70.485Y-58.42
X70.485Y-61.468
X70.485Y-64.77
X73.66Y-58.42
X73.66Y-64.77
X74.93Y-60.071
X76.327Y-58.42
X76.327Y-64.77
X78.74Y-58.42
X78.74Y-64.77
X80.899Y-65.024
X82.296Y-63.5
X82.423Y-58.547
X85.242Y-59.944
X87.63Y-68.224
X89.256Y-67.564
X89.764Y-57.556
X110.642Y-85.344
X114.3Y-85.242
X117.145Y-69.494
X117.145Y-74.879
X127.559Y-83.617
T6
X67.707Y-67.4
X67.707Y-72.3
T7
X90.675Y-52.725
X93.215Y-52.725
X95.755Y-52.725
X98.295Y-52.725
X100.835Y-52.725
X121.92Y-58.42
X121.92Y-60.96
X121.92Y-63.5
X121.92Y-66.04
X121.92Y-68.58
X121.92Y-71.12
X121.92Y-73.66
X121.92Y-76.2
X121.92Y-78.74
X121.92Y-81.28
X124.46Y-58.42
X124.46Y-60.96
X124.46Y-63.5
X124.46Y-66.04
X124.46Y-68.58
X124.46Y-71.12
X124.46Y-73.66
X124.46Y-76.2
X124.46Y-78.74
X124.46Y-81.28
T8
X99.695Y-66.04
X99.695Y-68.58
X99.695Y-71.12
X99.695Y-73.66
T5
X64.657Y-66.25G85X65.357Y-66.25
G05
X65.357Y-73.45G85X64.657Y-73.45
G05
T0
M30
