G04 #@! TF.GenerationSoftware,KiCad,Pcbnew,(6.0.9)*
G04 #@! TF.CreationDate,2022-12-08T08:51:44+01:00*
G04 #@! TF.ProjectId,STLinkV2,53544c69-6e6b-4563-922e-6b696361645f,rev?*
G04 #@! TF.SameCoordinates,Original*
G04 #@! TF.FileFunction,Profile,NP*
%FSLAX46Y46*%
G04 Gerber Fmt 4.6, Leading zero omitted, Abs format (unit mm)*
G04 Created by KiCad (PCBNEW (6.0.9)) date 2022-12-08 08:51:44*
%MOMM*%
%LPD*%
G01*
G04 APERTURE LIST*
G04 #@! TA.AperFunction,Profile*
%ADD10C,0.050000*%
G04 #@! TD*
G04 APERTURE END LIST*
D10*
X63500000Y-75438000D02*
X63500000Y-64262000D01*
X125730000Y-53340000D02*
X111760000Y-50800000D01*
X63500000Y-64262000D02*
X64008000Y-61722000D01*
X64008000Y-77978000D02*
X63500000Y-75438000D01*
X111760000Y-88900000D02*
X125730000Y-86360000D01*
X88900000Y-88900000D02*
X76200000Y-86360000D01*
X134620000Y-55880000D02*
X125730000Y-53340000D01*
X125730000Y-86360000D02*
X134620000Y-83820000D01*
X66040000Y-83820000D02*
X64770000Y-82550000D01*
X134620000Y-83820000D02*
X135890000Y-82550000D01*
X135890000Y-57150000D02*
X134620000Y-55880000D01*
X66040000Y-55880000D02*
X76200000Y-53340000D01*
X136398000Y-79756000D02*
X135890000Y-82550000D01*
X64262000Y-59944000D02*
X64770000Y-57150000D01*
X64262000Y-79756000D02*
X64770000Y-82550000D01*
X135890000Y-57150000D02*
X136398000Y-59944000D01*
X111760000Y-88900000D02*
X88900000Y-88900000D01*
X64770000Y-57150000D02*
X66040000Y-55880000D01*
X135255000Y-77978000D02*
X135255000Y-79756000D01*
X137160000Y-64262000D02*
X136652000Y-61722000D01*
X64008000Y-77978000D02*
X65405000Y-77978000D01*
X136652000Y-61722000D02*
X135255000Y-61722000D01*
X88900000Y-50800000D02*
X76200000Y-53340000D01*
X65405000Y-61722000D02*
X65405000Y-59944000D01*
X64008000Y-61722000D02*
X65405000Y-61722000D01*
X135255000Y-61722000D02*
X135255000Y-59944000D01*
X88900000Y-50800000D02*
X111760000Y-50800000D01*
X136652000Y-77978000D02*
X135255000Y-77978000D01*
X137160000Y-64262000D02*
X137160000Y-75438000D01*
X65405000Y-79756000D02*
X64262000Y-79756000D01*
X135255000Y-59944000D02*
X136398000Y-59944000D01*
X65405000Y-59944000D02*
X64262000Y-59944000D01*
X136652000Y-77978000D02*
X137160000Y-75438000D01*
X76200000Y-86360000D02*
X66040000Y-83820000D01*
X135255000Y-79756000D02*
X136398000Y-79756000D01*
X65405000Y-77978000D02*
X65405000Y-79756000D01*
M02*
