%TF.GenerationSoftware,KiCad,Pcbnew,(6.0.9)*%
%TF.CreationDate,2022-12-08T08:51:57+01:00*%
%TF.ProjectId,STLinkV2,53544c69-6e6b-4563-922e-6b696361645f,rev?*%
%TF.SameCoordinates,Original*%
%TF.FileFunction,Drillmap*%
%TF.FilePolarity,Positive*%
%FSLAX45Y45*%
G04 Gerber Fmt 4.5, Leading zero omitted, Abs format (unit mm)*
G04 Created by KiCad (PCBNEW (6.0.9)) date 2022-12-08 08:51:57*
%MOMM*%
%LPD*%
G01*
G04 APERTURE LIST*
%ADD10C,0.050000*%
%ADD11C,0.200000*%
%ADD12C,0.400000*%
G04 APERTURE END LIST*
D10*
X6350000Y-7543800D02*
X6350000Y-6426200D01*
X12573000Y-5334000D02*
X11176000Y-5080000D01*
X6350000Y-6426200D02*
X6400800Y-6172200D01*
X6400800Y-7797800D02*
X6350000Y-7543800D01*
X11176000Y-8890000D02*
X12573000Y-8636000D01*
X8890000Y-8890000D02*
X7620000Y-8636000D01*
X13462000Y-5588000D02*
X12573000Y-5334000D01*
X12573000Y-8636000D02*
X13462000Y-8382000D01*
X6604000Y-8382000D02*
X6477000Y-8255000D01*
X13462000Y-8382000D02*
X13589000Y-8255000D01*
X13589000Y-5715000D02*
X13462000Y-5588000D01*
X6604000Y-5588000D02*
X7620000Y-5334000D01*
X13639800Y-7975600D02*
X13589000Y-8255000D01*
X6426200Y-5994400D02*
X6477000Y-5715000D01*
X6426200Y-7975600D02*
X6477000Y-8255000D01*
X13589000Y-5715000D02*
X13639800Y-5994400D01*
X11176000Y-8890000D02*
X8890000Y-8890000D01*
X6477000Y-5715000D02*
X6604000Y-5588000D01*
X13525500Y-7797800D02*
X13525500Y-7975600D01*
X13716000Y-6426200D02*
X13665200Y-6172200D01*
X6400800Y-7797800D02*
X6540500Y-7797800D01*
X13665200Y-6172200D02*
X13525500Y-6172200D01*
X8890000Y-5080000D02*
X7620000Y-5334000D01*
X6540500Y-6172200D02*
X6540500Y-5994400D01*
X6400800Y-6172200D02*
X6540500Y-6172200D01*
X13525500Y-6172200D02*
X13525500Y-5994400D01*
X8890000Y-5080000D02*
X11176000Y-5080000D01*
X13665200Y-7797800D02*
X13525500Y-7797800D01*
X13716000Y-6426200D02*
X13716000Y-7543800D01*
X6540500Y-7975600D02*
X6426200Y-7975600D01*
X13525500Y-5994400D02*
X13639800Y-5994400D01*
X6540500Y-5994400D02*
X6426200Y-5994400D01*
X13665200Y-7797800D02*
X13716000Y-7543800D01*
X7620000Y-8636000D02*
X6604000Y-8382000D01*
X13525500Y-7975600D02*
X13639800Y-7975600D01*
X6540500Y-7797800D02*
X6540500Y-7975600D01*
D11*
D12*
X7801000Y-6785000D02*
X8201000Y-7185000D01*
X8201000Y-6785000D02*
X7801000Y-7185000D01*
X13071500Y-6785000D02*
X13471500Y-7185000D01*
X13471500Y-6785000D02*
X13071500Y-7185000D01*
D11*
X6605119Y-9202976D02*
X6605119Y-9002976D01*
X6652738Y-9002976D01*
X6681309Y-9012500D01*
X6700357Y-9031548D01*
X6709881Y-9050595D01*
X6719405Y-9088690D01*
X6719405Y-9117262D01*
X6709881Y-9155357D01*
X6700357Y-9174405D01*
X6681309Y-9193452D01*
X6652738Y-9202976D01*
X6605119Y-9202976D01*
X6805119Y-9202976D02*
X6805119Y-9069643D01*
X6805119Y-9107738D02*
X6814643Y-9088690D01*
X6824167Y-9079167D01*
X6843214Y-9069643D01*
X6862262Y-9069643D01*
X6928928Y-9202976D02*
X6928928Y-9069643D01*
X6928928Y-9002976D02*
X6919405Y-9012500D01*
X6928928Y-9022024D01*
X6938452Y-9012500D01*
X6928928Y-9002976D01*
X6928928Y-9022024D01*
X7052738Y-9202976D02*
X7033690Y-9193452D01*
X7024167Y-9174405D01*
X7024167Y-9002976D01*
X7157500Y-9202976D02*
X7138452Y-9193452D01*
X7128928Y-9174405D01*
X7128928Y-9002976D01*
X7386071Y-9202976D02*
X7386071Y-9002976D01*
X7452738Y-9145833D01*
X7519405Y-9002976D01*
X7519405Y-9202976D01*
X7700357Y-9202976D02*
X7700357Y-9098214D01*
X7690833Y-9079167D01*
X7671786Y-9069643D01*
X7633690Y-9069643D01*
X7614643Y-9079167D01*
X7700357Y-9193452D02*
X7681309Y-9202976D01*
X7633690Y-9202976D01*
X7614643Y-9193452D01*
X7605119Y-9174405D01*
X7605119Y-9155357D01*
X7614643Y-9136310D01*
X7633690Y-9126786D01*
X7681309Y-9126786D01*
X7700357Y-9117262D01*
X7795595Y-9069643D02*
X7795595Y-9269643D01*
X7795595Y-9079167D02*
X7814643Y-9069643D01*
X7852738Y-9069643D01*
X7871786Y-9079167D01*
X7881309Y-9088690D01*
X7890833Y-9107738D01*
X7890833Y-9164881D01*
X7881309Y-9183929D01*
X7871786Y-9193452D01*
X7852738Y-9202976D01*
X7814643Y-9202976D01*
X7795595Y-9193452D01*
X7976548Y-9183929D02*
X7986071Y-9193452D01*
X7976548Y-9202976D01*
X7967024Y-9193452D01*
X7976548Y-9183929D01*
X7976548Y-9202976D01*
X7976548Y-9079167D02*
X7986071Y-9088690D01*
X7976548Y-9098214D01*
X7967024Y-9088690D01*
X7976548Y-9079167D01*
X7976548Y-9098214D01*
X6147500Y-9432500D02*
X6347500Y-9632500D01*
X6347500Y-9432500D02*
X6147500Y-9632500D01*
X6690833Y-9489643D02*
X6690833Y-9622976D01*
X6643214Y-9413452D02*
X6595595Y-9556310D01*
X6719405Y-9556310D01*
X6795595Y-9603929D02*
X6805119Y-9613452D01*
X6795595Y-9622976D01*
X6786071Y-9613452D01*
X6795595Y-9603929D01*
X6795595Y-9622976D01*
X6928928Y-9422976D02*
X6947976Y-9422976D01*
X6967024Y-9432500D01*
X6976548Y-9442024D01*
X6986071Y-9461071D01*
X6995595Y-9499167D01*
X6995595Y-9546786D01*
X6986071Y-9584881D01*
X6976548Y-9603929D01*
X6967024Y-9613452D01*
X6947976Y-9622976D01*
X6928928Y-9622976D01*
X6909881Y-9613452D01*
X6900357Y-9603929D01*
X6890833Y-9584881D01*
X6881309Y-9546786D01*
X6881309Y-9499167D01*
X6890833Y-9461071D01*
X6900357Y-9442024D01*
X6909881Y-9432500D01*
X6928928Y-9422976D01*
X7119405Y-9422976D02*
X7138452Y-9422976D01*
X7157500Y-9432500D01*
X7167024Y-9442024D01*
X7176548Y-9461071D01*
X7186071Y-9499167D01*
X7186071Y-9546786D01*
X7176548Y-9584881D01*
X7167024Y-9603929D01*
X7157500Y-9613452D01*
X7138452Y-9622976D01*
X7119405Y-9622976D01*
X7100357Y-9613452D01*
X7090833Y-9603929D01*
X7081309Y-9584881D01*
X7071786Y-9546786D01*
X7071786Y-9499167D01*
X7081309Y-9461071D01*
X7090833Y-9442024D01*
X7100357Y-9432500D01*
X7119405Y-9422976D01*
X7309881Y-9422976D02*
X7328928Y-9422976D01*
X7347976Y-9432500D01*
X7357500Y-9442024D01*
X7367024Y-9461071D01*
X7376548Y-9499167D01*
X7376548Y-9546786D01*
X7367024Y-9584881D01*
X7357500Y-9603929D01*
X7347976Y-9613452D01*
X7328928Y-9622976D01*
X7309881Y-9622976D01*
X7290833Y-9613452D01*
X7281309Y-9603929D01*
X7271786Y-9584881D01*
X7262262Y-9546786D01*
X7262262Y-9499167D01*
X7271786Y-9461071D01*
X7281309Y-9442024D01*
X7290833Y-9432500D01*
X7309881Y-9422976D01*
X7462262Y-9622976D02*
X7462262Y-9489643D01*
X7462262Y-9508690D02*
X7471786Y-9499167D01*
X7490833Y-9489643D01*
X7519405Y-9489643D01*
X7538452Y-9499167D01*
X7547976Y-9518214D01*
X7547976Y-9622976D01*
X7547976Y-9518214D02*
X7557500Y-9499167D01*
X7576548Y-9489643D01*
X7605119Y-9489643D01*
X7624167Y-9499167D01*
X7633690Y-9518214D01*
X7633690Y-9622976D01*
X7728928Y-9622976D02*
X7728928Y-9489643D01*
X7728928Y-9508690D02*
X7738452Y-9499167D01*
X7757500Y-9489643D01*
X7786071Y-9489643D01*
X7805119Y-9499167D01*
X7814643Y-9518214D01*
X7814643Y-9622976D01*
X7814643Y-9518214D02*
X7824167Y-9499167D01*
X7843214Y-9489643D01*
X7871786Y-9489643D01*
X7890833Y-9499167D01*
X7900357Y-9518214D01*
X7900357Y-9622976D01*
X8290833Y-9413452D02*
X8119405Y-9670595D01*
X8547976Y-9422976D02*
X8567024Y-9422976D01*
X8586071Y-9432500D01*
X8595595Y-9442024D01*
X8605119Y-9461071D01*
X8614643Y-9499167D01*
X8614643Y-9546786D01*
X8605119Y-9584881D01*
X8595595Y-9603929D01*
X8586071Y-9613452D01*
X8567024Y-9622976D01*
X8547976Y-9622976D01*
X8528929Y-9613452D01*
X8519405Y-9603929D01*
X8509881Y-9584881D01*
X8500357Y-9546786D01*
X8500357Y-9499167D01*
X8509881Y-9461071D01*
X8519405Y-9442024D01*
X8528929Y-9432500D01*
X8547976Y-9422976D01*
X8700357Y-9603929D02*
X8709881Y-9613452D01*
X8700357Y-9622976D01*
X8690833Y-9613452D01*
X8700357Y-9603929D01*
X8700357Y-9622976D01*
X8900357Y-9622976D02*
X8786071Y-9622976D01*
X8843214Y-9622976D02*
X8843214Y-9422976D01*
X8824167Y-9451548D01*
X8805119Y-9470595D01*
X8786071Y-9480119D01*
X9081310Y-9422976D02*
X8986071Y-9422976D01*
X8976548Y-9518214D01*
X8986071Y-9508690D01*
X9005119Y-9499167D01*
X9052738Y-9499167D01*
X9071786Y-9508690D01*
X9081310Y-9518214D01*
X9090833Y-9537262D01*
X9090833Y-9584881D01*
X9081310Y-9603929D01*
X9071786Y-9613452D01*
X9052738Y-9622976D01*
X9005119Y-9622976D01*
X8986071Y-9613452D01*
X8976548Y-9603929D01*
X9157500Y-9422976D02*
X9290833Y-9422976D01*
X9205119Y-9622976D01*
X9462262Y-9422976D02*
X9367024Y-9422976D01*
X9357500Y-9518214D01*
X9367024Y-9508690D01*
X9386071Y-9499167D01*
X9433690Y-9499167D01*
X9452738Y-9508690D01*
X9462262Y-9518214D01*
X9471786Y-9537262D01*
X9471786Y-9584881D01*
X9462262Y-9603929D01*
X9452738Y-9613452D01*
X9433690Y-9622976D01*
X9386071Y-9622976D01*
X9367024Y-9613452D01*
X9357500Y-9603929D01*
X9547976Y-9422976D02*
X9547976Y-9461071D01*
X9624167Y-9422976D02*
X9624167Y-9461071D01*
X9919405Y-9699167D02*
X9909881Y-9689643D01*
X9890833Y-9661071D01*
X9881310Y-9642024D01*
X9871786Y-9613452D01*
X9862262Y-9565833D01*
X9862262Y-9527738D01*
X9871786Y-9480119D01*
X9881310Y-9451548D01*
X9890833Y-9432500D01*
X9909881Y-9403929D01*
X9919405Y-9394405D01*
X9986071Y-9442024D02*
X9995595Y-9432500D01*
X10014643Y-9422976D01*
X10062262Y-9422976D01*
X10081310Y-9432500D01*
X10090833Y-9442024D01*
X10100357Y-9461071D01*
X10100357Y-9480119D01*
X10090833Y-9508690D01*
X9976548Y-9622976D01*
X10100357Y-9622976D01*
X10338452Y-9622976D02*
X10338452Y-9422976D01*
X10424167Y-9622976D02*
X10424167Y-9518214D01*
X10414643Y-9499167D01*
X10395595Y-9489643D01*
X10367024Y-9489643D01*
X10347976Y-9499167D01*
X10338452Y-9508690D01*
X10547976Y-9622976D02*
X10528929Y-9613452D01*
X10519405Y-9603929D01*
X10509881Y-9584881D01*
X10509881Y-9527738D01*
X10519405Y-9508690D01*
X10528929Y-9499167D01*
X10547976Y-9489643D01*
X10576548Y-9489643D01*
X10595595Y-9499167D01*
X10605119Y-9508690D01*
X10614643Y-9527738D01*
X10614643Y-9584881D01*
X10605119Y-9603929D01*
X10595595Y-9613452D01*
X10576548Y-9622976D01*
X10547976Y-9622976D01*
X10728929Y-9622976D02*
X10709881Y-9613452D01*
X10700357Y-9594405D01*
X10700357Y-9422976D01*
X10881310Y-9613452D02*
X10862262Y-9622976D01*
X10824167Y-9622976D01*
X10805119Y-9613452D01*
X10795595Y-9594405D01*
X10795595Y-9518214D01*
X10805119Y-9499167D01*
X10824167Y-9489643D01*
X10862262Y-9489643D01*
X10881310Y-9499167D01*
X10890833Y-9518214D01*
X10890833Y-9537262D01*
X10795595Y-9556310D01*
X10967024Y-9613452D02*
X10986071Y-9622976D01*
X11024167Y-9622976D01*
X11043214Y-9613452D01*
X11052738Y-9594405D01*
X11052738Y-9584881D01*
X11043214Y-9565833D01*
X11024167Y-9556310D01*
X10995595Y-9556310D01*
X10976548Y-9546786D01*
X10967024Y-9527738D01*
X10967024Y-9518214D01*
X10976548Y-9499167D01*
X10995595Y-9489643D01*
X11024167Y-9489643D01*
X11043214Y-9499167D01*
X11119405Y-9699167D02*
X11128929Y-9689643D01*
X11147976Y-9661071D01*
X11157500Y-9642024D01*
X11167024Y-9613452D01*
X11176548Y-9565833D01*
X11176548Y-9527738D01*
X11167024Y-9480119D01*
X11157500Y-9451548D01*
X11147976Y-9432500D01*
X11128929Y-9403929D01*
X11119405Y-9394405D01*
X11481309Y-9699167D02*
X11471786Y-9689643D01*
X11452738Y-9661071D01*
X11443214Y-9642024D01*
X11433690Y-9613452D01*
X11424167Y-9565833D01*
X11424167Y-9527738D01*
X11433690Y-9480119D01*
X11443214Y-9451548D01*
X11452738Y-9432500D01*
X11471786Y-9403929D01*
X11481309Y-9394405D01*
X11557500Y-9489643D02*
X11557500Y-9622976D01*
X11557500Y-9508690D02*
X11567024Y-9499167D01*
X11586071Y-9489643D01*
X11614643Y-9489643D01*
X11633690Y-9499167D01*
X11643214Y-9518214D01*
X11643214Y-9622976D01*
X11767024Y-9622976D02*
X11747976Y-9613452D01*
X11738452Y-9603929D01*
X11728928Y-9584881D01*
X11728928Y-9527738D01*
X11738452Y-9508690D01*
X11747976Y-9499167D01*
X11767024Y-9489643D01*
X11795595Y-9489643D01*
X11814643Y-9499167D01*
X11824167Y-9508690D01*
X11833690Y-9527738D01*
X11833690Y-9584881D01*
X11824167Y-9603929D01*
X11814643Y-9613452D01*
X11795595Y-9622976D01*
X11767024Y-9622976D01*
X11890833Y-9489643D02*
X11967024Y-9489643D01*
X11919405Y-9422976D02*
X11919405Y-9594405D01*
X11928928Y-9613452D01*
X11947976Y-9622976D01*
X11967024Y-9622976D01*
X12186071Y-9489643D02*
X12186071Y-9689643D01*
X12186071Y-9499167D02*
X12205119Y-9489643D01*
X12243214Y-9489643D01*
X12262262Y-9499167D01*
X12271786Y-9508690D01*
X12281309Y-9527738D01*
X12281309Y-9584881D01*
X12271786Y-9603929D01*
X12262262Y-9613452D01*
X12243214Y-9622976D01*
X12205119Y-9622976D01*
X12186071Y-9613452D01*
X12395595Y-9622976D02*
X12376548Y-9613452D01*
X12367024Y-9594405D01*
X12367024Y-9422976D01*
X12557500Y-9622976D02*
X12557500Y-9518214D01*
X12547976Y-9499167D01*
X12528928Y-9489643D01*
X12490833Y-9489643D01*
X12471786Y-9499167D01*
X12557500Y-9613452D02*
X12538452Y-9622976D01*
X12490833Y-9622976D01*
X12471786Y-9613452D01*
X12462262Y-9594405D01*
X12462262Y-9575357D01*
X12471786Y-9556310D01*
X12490833Y-9546786D01*
X12538452Y-9546786D01*
X12557500Y-9537262D01*
X12624167Y-9489643D02*
X12700357Y-9489643D01*
X12652738Y-9422976D02*
X12652738Y-9594405D01*
X12662262Y-9613452D01*
X12681309Y-9622976D01*
X12700357Y-9622976D01*
X12843214Y-9613452D02*
X12824167Y-9622976D01*
X12786071Y-9622976D01*
X12767024Y-9613452D01*
X12757500Y-9594405D01*
X12757500Y-9518214D01*
X12767024Y-9499167D01*
X12786071Y-9489643D01*
X12824167Y-9489643D01*
X12843214Y-9499167D01*
X12852738Y-9518214D01*
X12852738Y-9537262D01*
X12757500Y-9556310D01*
X13024167Y-9622976D02*
X13024167Y-9422976D01*
X13024167Y-9613452D02*
X13005119Y-9622976D01*
X12967024Y-9622976D01*
X12947976Y-9613452D01*
X12938452Y-9603929D01*
X12928928Y-9584881D01*
X12928928Y-9527738D01*
X12938452Y-9508690D01*
X12947976Y-9499167D01*
X12967024Y-9489643D01*
X13005119Y-9489643D01*
X13024167Y-9499167D01*
X13100357Y-9699167D02*
X13109881Y-9689643D01*
X13128928Y-9661071D01*
X13138452Y-9642024D01*
X13147976Y-9613452D01*
X13157500Y-9565833D01*
X13157500Y-9527738D01*
X13147976Y-9480119D01*
X13138452Y-9451548D01*
X13128928Y-9432500D01*
X13109881Y-9403929D01*
X13100357Y-9394405D01*
M02*
