M48
; DRILL file {KiCad (6.0.9)} date Thu Dec  8 07:48:53 2022
; FORMAT={-:-/ absolute / metric / decimal}
; #@! TF.CreationDate,2022-12-08T07:48:53+01:00
; #@! TF.GenerationSoftware,Kicad,Pcbnew,(6.0.9)
; #@! TF.FileFunction,Plated,1,2,PTH
FMAT,2
METRIC
; #@! TA.AperFunction,Plated,PTH,ViaDrill
T1C0.200
; #@! TA.AperFunction,Plated,PTH,ViaDrill
T2C0.300
; #@! TA.AperFunction,Plated,PTH,ViaDrill
T3C0.400
; #@! TA.AperFunction,Plated,PTH,ViaDrill
T4C0.500
; #@! TA.AperFunction,Plated,PTH,ComponentDrill
T5C0.600
; #@! TA.AperFunction,Plated,PTH,ComponentDrill
T6C0.850
; #@! TA.AperFunction,Plated,PTH,ComponentDrill
T7C0.900
; #@! TA.AperFunction,Plated,PTH,ComponentDrill
T8C1.000
; #@! TA.AperFunction,Plated,PTH,ComponentDrill
T9C1.020
%
G90
G05
T1
X123.722Y-108.458
X147.32Y-105.664
X150.876Y-118.111
X151.511Y-118.618
X153.416Y-84.709
X157.226Y-102.616
X157.734Y-109.728
X159.766Y-85.852
X159.893Y-103.759
X160.401Y-100.584
X161.163Y-90.678
X161.163Y-101.092
X161.544Y-84.836
X161.798Y-93.218
X161.798Y-103.632
X162.306Y-90.678
X162.433Y-100.584
X162.56Y-103.632
X162.954Y-85.344
X166.116Y-101.854
X166.37Y-95.504
X166.624Y-110.109
X167.386Y-104.648
X167.386Y-109.982
X167.514Y-97.026
X167.64Y-89.281
X167.64Y-91.186
X168.021Y-94.234
X168.021Y-98.171
X168.656Y-93.726
X168.656Y-97.533
X168.656Y-101.854
X168.656Y-105.283
X169.418Y-92.71
X169.418Y-99.314
X169.418Y-102.87
X169.426Y-106.291
X169.926Y-99.949
X169.926Y-103.378
X170.815Y-110.617
X172.212Y-89.154
X172.72Y-97.79
X173.482Y-92.075
T2
X114.935Y-96.774
X135.382Y-97.79
X135.509Y-107.95
X139.573Y-101.219
X139.7Y-107.95
X156.464Y-100.584
X158.877Y-107.188
X165.1Y-107.315
X171.577Y-98.552
X171.577Y-104.096
X171.577Y-105.664
X172.847Y-104.648
T3
X108.407Y-87.909
X108.712Y-101.854
X108.975Y-103.409
X110.998Y-100.076
X114.173Y-88.392
X116.84Y-94.107
X116.84Y-97.028
X119.761Y-111.557
X138.532Y-97.815
X147.549Y-98.654
X157.988Y-88.011
X157.988Y-97.663
X164.211Y-97.155
X164.338Y-113.792
X165.1Y-117.856
X166.243Y-105.791
T4
X103.505Y-116.332
X105.664Y-81.28
X108.204Y-105.283
X108.712Y-100.584
X114.097Y-107.594
X115.57Y-118.872
X127.381Y-89.281
X127.635Y-128.905
X128.016Y-104.14
X128.016Y-114.046
X128.27Y-84.201
X128.524Y-79.883
X147.955Y-122.047
X148.082Y-115.951
X148.463Y-79.502
X151.13Y-90.17
X152.4Y-120.142
X159.131Y-119.634
X171.577Y-113.792
X172.466Y-90.17
X175.641Y-116.078
T6
X105.799Y-100.318
X105.799Y-105.218
T7
X109.22Y-116.84
X109.22Y-121.92
X111.76Y-116.84
X111.76Y-121.92
T8
X114.3Y-78.74
X114.3Y-81.28
X114.3Y-83.82
X116.84Y-78.74
X116.84Y-81.28
X116.84Y-83.82
X116.84Y-99.06
X116.84Y-101.6
X116.84Y-104.14
X116.84Y-106.68
X116.84Y-109.22
X116.84Y-111.76
X116.84Y-114.3
X142.24Y-88.9
X142.24Y-91.44
X142.24Y-96.52
X142.24Y-99.06
X142.24Y-101.6
X142.24Y-104.14
X142.24Y-106.68
X142.24Y-109.22
X142.24Y-111.76
X142.24Y-127.0
X144.78Y-127.0
X147.32Y-127.0
X152.4Y-96.52
X152.4Y-99.06
X152.4Y-101.6
X152.4Y-104.14
X152.4Y-106.68
X152.4Y-109.22
X152.4Y-111.76
X152.4Y-127.0
X154.94Y-127.0
X157.48Y-127.0
X162.56Y-127.0
X165.1Y-127.0
X176.53Y-93.98
X176.53Y-96.52
X176.53Y-99.06
X176.53Y-101.6
X176.53Y-104.14
X176.53Y-106.68
X176.53Y-109.22
X179.07Y-93.98
X179.07Y-96.52
X179.07Y-99.06
X179.07Y-101.6
X179.07Y-104.14
X179.07Y-106.68
X179.07Y-109.22
T9
X121.92Y-86.36
X121.92Y-88.9
X121.92Y-91.44
X121.92Y-93.98
X121.92Y-96.52
X121.92Y-99.06
X121.92Y-101.6
X121.92Y-104.14
X121.92Y-106.68
X121.92Y-109.22
X121.92Y-111.76
X121.92Y-114.3
X121.92Y-116.84
X121.92Y-119.38
X121.92Y-121.92
X137.16Y-86.36
X137.16Y-88.9
X137.16Y-91.44
X137.16Y-93.98
X137.16Y-96.52
X137.16Y-99.06
X137.16Y-101.6
X137.16Y-104.14
X137.16Y-106.68
X137.16Y-109.22
X137.16Y-111.76
X137.16Y-114.3
X137.16Y-116.84
X137.16Y-119.38
X137.16Y-121.92
T5
X102.749Y-99.168G85X103.449Y-99.168
G05
X103.449Y-106.368G85X102.749Y-106.368
G05
T0
M30
