%TF.GenerationSoftware,KiCad,Pcbnew,(6.0.9)*%
%TF.CreationDate,2022-12-08T07:48:54+01:00*%
%TF.ProjectId,L432KC,4c343332-4b43-42e6-9b69-6361645f7063,rev?*%
%TF.SameCoordinates,Original*%
%TF.FileFunction,Drillmap*%
%TF.FilePolarity,Positive*%
%FSLAX45Y45*%
G04 Gerber Fmt 4.5, Leading zero omitted, Abs format (unit mm)*
G04 Created by KiCad (PCBNEW (6.0.9)) date 2022-12-08 07:48:54*
%MOMM*%
%LPD*%
G01*
G04 APERTURE LIST*
%ADD10C,0.100000*%
%ADD11C,0.200000*%
%ADD12C,0.020000*%
%ADD13C,0.030000*%
%ADD14C,0.040000*%
%ADD15C,0.050000*%
%ADD16C,0.060000*%
%ADD17C,0.085000*%
%ADD18C,0.090000*%
%ADD19C,0.102000*%
G04 APERTURE END LIST*
D10*
X10160000Y-7493000D02*
X18288000Y-7493000D01*
X18288000Y-7493000D02*
X18288000Y-13081000D01*
X10160000Y-13081000D02*
X10160000Y-7493000D01*
X18288000Y-13081000D02*
X10160000Y-13081000D01*
D11*
D12*
X12362190Y-10835800D02*
X12382190Y-10855800D01*
X12382190Y-10835800D02*
X12362190Y-10855800D01*
X14722000Y-10556400D02*
X14742000Y-10576400D01*
X14742000Y-10556400D02*
X14722000Y-10576400D01*
X15077600Y-11801150D02*
X15097600Y-11821150D01*
X15097600Y-11801150D02*
X15077600Y-11821150D01*
X15141100Y-11851800D02*
X15161100Y-11871800D01*
X15161100Y-11851800D02*
X15141100Y-11871800D01*
X15331600Y-8460900D02*
X15351600Y-8480900D01*
X15351600Y-8460900D02*
X15331600Y-8480900D01*
X15712600Y-10251600D02*
X15732600Y-10271600D01*
X15732600Y-10251600D02*
X15712600Y-10271600D01*
X15763400Y-10962800D02*
X15783400Y-10982800D01*
X15783400Y-10962800D02*
X15763400Y-10982800D01*
X15966600Y-8575200D02*
X15986600Y-8595200D01*
X15986600Y-8575200D02*
X15966600Y-8595200D01*
X15979300Y-10365900D02*
X15999300Y-10385900D01*
X15999300Y-10365900D02*
X15979300Y-10385900D01*
X16030100Y-10048400D02*
X16050100Y-10068400D01*
X16050100Y-10048400D02*
X16030100Y-10068400D01*
X16106300Y-9057800D02*
X16126300Y-9077800D01*
X16126300Y-9057800D02*
X16106300Y-9077800D01*
X16106300Y-10099200D02*
X16126300Y-10119200D01*
X16126300Y-10099200D02*
X16106300Y-10119200D01*
X16144400Y-8473600D02*
X16164400Y-8493600D01*
X16164400Y-8473600D02*
X16144400Y-8493600D01*
X16169800Y-9311800D02*
X16189800Y-9331800D01*
X16189800Y-9311800D02*
X16169800Y-9331800D01*
X16169800Y-10353200D02*
X16189800Y-10373200D01*
X16189800Y-10353200D02*
X16169800Y-10373200D01*
X16220600Y-9057800D02*
X16240600Y-9077800D01*
X16240600Y-9057800D02*
X16220600Y-9077800D01*
X16233300Y-10048400D02*
X16253300Y-10068400D01*
X16253300Y-10048400D02*
X16233300Y-10068400D01*
X16246000Y-10353200D02*
X16266000Y-10373200D01*
X16266000Y-10353200D02*
X16246000Y-10373200D01*
X16285450Y-8524400D02*
X16305450Y-8544400D01*
X16305450Y-8524400D02*
X16285450Y-8544400D01*
X16601600Y-10175400D02*
X16621600Y-10195400D01*
X16621600Y-10175400D02*
X16601600Y-10195400D01*
X16627000Y-9540400D02*
X16647000Y-9560400D01*
X16647000Y-9540400D02*
X16627000Y-9560400D01*
X16652400Y-11000900D02*
X16672400Y-11020900D01*
X16672400Y-11000900D02*
X16652400Y-11020900D01*
X16728600Y-10454800D02*
X16748600Y-10474800D01*
X16748600Y-10454800D02*
X16728600Y-10474800D01*
X16728600Y-10988200D02*
X16748600Y-11008200D01*
X16748600Y-10988200D02*
X16728600Y-11008200D01*
X16741450Y-9692650D02*
X16761450Y-9712650D01*
X16761450Y-9692650D02*
X16741450Y-9712650D01*
X16754000Y-8918100D02*
X16774000Y-8938100D01*
X16774000Y-8918100D02*
X16754000Y-8938100D01*
X16754000Y-9108600D02*
X16774000Y-9128600D01*
X16774000Y-9108600D02*
X16754000Y-9128600D01*
X16792100Y-9413400D02*
X16812100Y-9433400D01*
X16812100Y-9413400D02*
X16792100Y-9433400D01*
X16792100Y-9807100D02*
X16812100Y-9827100D01*
X16812100Y-9807100D02*
X16792100Y-9827100D01*
X16855600Y-9362600D02*
X16875600Y-9382600D01*
X16875600Y-9362600D02*
X16855600Y-9382600D01*
X16855600Y-9743350D02*
X16875600Y-9763350D01*
X16875600Y-9743350D02*
X16855600Y-9763350D01*
X16855600Y-10175400D02*
X16875600Y-10195400D01*
X16875600Y-10175400D02*
X16855600Y-10195400D01*
X16855600Y-10518300D02*
X16875600Y-10538300D01*
X16875600Y-10518300D02*
X16855600Y-10538300D01*
X16931800Y-9261000D02*
X16951800Y-9281000D01*
X16951800Y-9261000D02*
X16931800Y-9281000D01*
X16931800Y-9921400D02*
X16951800Y-9941400D01*
X16951800Y-9921400D02*
X16931800Y-9941400D01*
X16931800Y-10277000D02*
X16951800Y-10297000D01*
X16951800Y-10277000D02*
X16931800Y-10297000D01*
X16932600Y-10619100D02*
X16952600Y-10639100D01*
X16952600Y-10619100D02*
X16932600Y-10639100D01*
X16982600Y-9984900D02*
X17002600Y-10004900D01*
X17002600Y-9984900D02*
X16982600Y-10004900D01*
X16982600Y-10327800D02*
X17002600Y-10347800D01*
X17002600Y-10327800D02*
X16982600Y-10347800D01*
X17071500Y-11051700D02*
X17091500Y-11071700D01*
X17091500Y-11051700D02*
X17071500Y-11071700D01*
X17211200Y-8905400D02*
X17231200Y-8925400D01*
X17231200Y-8905400D02*
X17211200Y-8925400D01*
X17262000Y-9769000D02*
X17282000Y-9789000D01*
X17282000Y-9769000D02*
X17262000Y-9789000D01*
X17338200Y-9197500D02*
X17358200Y-9217500D01*
X17358200Y-9197500D02*
X17338200Y-9217500D01*
D13*
X11508500Y-9677400D02*
G75*
G03*
X11508500Y-9677400I-15000J0D01*
G01*
X13553200Y-9779000D02*
G75*
G03*
X13553200Y-9779000I-15000J0D01*
G01*
X13565900Y-10795000D02*
G75*
G03*
X13565900Y-10795000I-15000J0D01*
G01*
X13972300Y-10121900D02*
G75*
G03*
X13972300Y-10121900I-15000J0D01*
G01*
X13985000Y-10795000D02*
G75*
G03*
X13985000Y-10795000I-15000J0D01*
G01*
X15661400Y-10058400D02*
G75*
G03*
X15661400Y-10058400I-15000J0D01*
G01*
X15902700Y-10718800D02*
G75*
G03*
X15902700Y-10718800I-15000J0D01*
G01*
X16525000Y-10731500D02*
G75*
G03*
X16525000Y-10731500I-15000J0D01*
G01*
X17172700Y-9855200D02*
G75*
G03*
X17172700Y-9855200I-15000J0D01*
G01*
X17172700Y-10409550D02*
G75*
G03*
X17172700Y-10409550I-15000J0D01*
G01*
X17172700Y-10566400D02*
G75*
G03*
X17172700Y-10566400I-15000J0D01*
G01*
X17299700Y-10464800D02*
G75*
G03*
X17299700Y-10464800I-15000J0D01*
G01*
D14*
X10840720Y-8770940D02*
X10840720Y-8810940D01*
X10820720Y-8790940D02*
X10860720Y-8790940D01*
X10871200Y-10165400D02*
X10871200Y-10205400D01*
X10851200Y-10185400D02*
X10891200Y-10185400D01*
X10897529Y-10320922D02*
X10897529Y-10360922D01*
X10877529Y-10340922D02*
X10917529Y-10340922D01*
X11099800Y-9987600D02*
X11099800Y-10027600D01*
X11079800Y-10007600D02*
X11119800Y-10007600D01*
X11417300Y-8819200D02*
X11417300Y-8859200D01*
X11397300Y-8839200D02*
X11437300Y-8839200D01*
X11684000Y-9390700D02*
X11684000Y-9430700D01*
X11664000Y-9410700D02*
X11704000Y-9410700D01*
X11684000Y-9682800D02*
X11684000Y-9722800D01*
X11664000Y-9702800D02*
X11704000Y-9702800D01*
X11976100Y-11135680D02*
X11976100Y-11175680D01*
X11956100Y-11155680D02*
X11996100Y-11155680D01*
X13853160Y-9761540D02*
X13853160Y-9801540D01*
X13833160Y-9781540D02*
X13873160Y-9781540D01*
X14754860Y-9845360D02*
X14754860Y-9885360D01*
X14734860Y-9865360D02*
X14774860Y-9865360D01*
X15798800Y-8781100D02*
X15798800Y-8821100D01*
X15778800Y-8801100D02*
X15818800Y-8801100D01*
X15798800Y-9746300D02*
X15798800Y-9786300D01*
X15778800Y-9766300D02*
X15818800Y-9766300D01*
X16421100Y-9695500D02*
X16421100Y-9735500D01*
X16401100Y-9715500D02*
X16441100Y-9715500D01*
X16433800Y-11359200D02*
X16433800Y-11399200D01*
X16413800Y-11379200D02*
X16453800Y-11379200D01*
X16510000Y-11765600D02*
X16510000Y-11805600D01*
X16490000Y-11785600D02*
X16530000Y-11785600D01*
X16624300Y-10559100D02*
X16624300Y-10599100D01*
X16604300Y-10579100D02*
X16644300Y-10579100D01*
D15*
X10368178Y-11650878D02*
X10368178Y-11615522D01*
X10332822Y-11615522D01*
X10332822Y-11650878D01*
X10368178Y-11650878D01*
X10584078Y-8145678D02*
X10584078Y-8110322D01*
X10548722Y-8110322D01*
X10548722Y-8145678D01*
X10584078Y-8145678D01*
X10838078Y-10545978D02*
X10838078Y-10510622D01*
X10802722Y-10510622D01*
X10802722Y-10545978D01*
X10838078Y-10545978D01*
X10888878Y-10076078D02*
X10888878Y-10040722D01*
X10853522Y-10040722D01*
X10853522Y-10076078D01*
X10888878Y-10076078D01*
X11427358Y-10777118D02*
X11427358Y-10741762D01*
X11392002Y-10741762D01*
X11392002Y-10777118D01*
X11427358Y-10777118D01*
X11574678Y-11904878D02*
X11574678Y-11869522D01*
X11539322Y-11869522D01*
X11539322Y-11904878D01*
X11574678Y-11904878D01*
X12755778Y-8945778D02*
X12755778Y-8910422D01*
X12720422Y-8910422D01*
X12720422Y-8945778D01*
X12755778Y-8945778D01*
X12781178Y-12908178D02*
X12781178Y-12872822D01*
X12745822Y-12872822D01*
X12745822Y-12908178D01*
X12781178Y-12908178D01*
X12819278Y-10431678D02*
X12819278Y-10396322D01*
X12783922Y-10396322D01*
X12783922Y-10431678D01*
X12819278Y-10431678D01*
X12819278Y-11422278D02*
X12819278Y-11386922D01*
X12783922Y-11386922D01*
X12783922Y-11422278D01*
X12819278Y-11422278D01*
X12844678Y-8437778D02*
X12844678Y-8402422D01*
X12809322Y-8402422D01*
X12809322Y-8437778D01*
X12844678Y-8437778D01*
X12870078Y-8005978D02*
X12870078Y-7970622D01*
X12834722Y-7970622D01*
X12834722Y-8005978D01*
X12870078Y-8005978D01*
X14813178Y-12222378D02*
X14813178Y-12187022D01*
X14777822Y-12187022D01*
X14777822Y-12222378D01*
X14813178Y-12222378D01*
X14825878Y-11612778D02*
X14825878Y-11577422D01*
X14790522Y-11577422D01*
X14790522Y-11612778D01*
X14825878Y-11612778D01*
X14863978Y-7967878D02*
X14863978Y-7932522D01*
X14828622Y-7932522D01*
X14828622Y-7967878D01*
X14863978Y-7967878D01*
X15130678Y-9034678D02*
X15130678Y-8999322D01*
X15095322Y-8999322D01*
X15095322Y-9034678D01*
X15130678Y-9034678D01*
X15257678Y-12031878D02*
X15257678Y-11996522D01*
X15222322Y-11996522D01*
X15222322Y-12031878D01*
X15257678Y-12031878D01*
X15930778Y-11981078D02*
X15930778Y-11945722D01*
X15895422Y-11945722D01*
X15895422Y-11981078D01*
X15930778Y-11981078D01*
X17175378Y-11396878D02*
X17175378Y-11361522D01*
X17140022Y-11361522D01*
X17140022Y-11396878D01*
X17175378Y-11396878D01*
X17264278Y-9034678D02*
X17264278Y-8999322D01*
X17228922Y-8999322D01*
X17228922Y-9034678D01*
X17264278Y-9034678D01*
X17581778Y-11625478D02*
X17581778Y-11590122D01*
X17546422Y-11590122D01*
X17546422Y-11625478D01*
X17581778Y-11625478D01*
D16*
X10309860Y-9946840D02*
X10339860Y-9916840D01*
X10309860Y-9886840D01*
X10279860Y-9916840D01*
X10309860Y-9946840D01*
D11*
X10274860Y-9946840D02*
X10344860Y-9946840D01*
X10274860Y-9886840D02*
X10344860Y-9886840D01*
X10344860Y-9946840D02*
G75*
G03*
X10344860Y-9886840I0J30000D01*
G01*
X10274860Y-9886840D02*
G75*
G03*
X10274860Y-9946840I0J-30000D01*
G01*
D16*
X10309860Y-10666840D02*
X10339860Y-10636840D01*
X10309860Y-10606840D01*
X10279860Y-10636840D01*
X10309860Y-10666840D01*
D11*
X10344860Y-10606840D02*
X10274860Y-10606840D01*
X10344860Y-10666840D02*
X10274860Y-10666840D01*
X10274860Y-10606840D02*
G75*
G03*
X10274860Y-10666840I0J-30000D01*
G01*
X10344860Y-10666840D02*
G75*
G03*
X10344860Y-10606840I0J30000D01*
G01*
D17*
X10537360Y-9989340D02*
X10622360Y-10074340D01*
X10622360Y-9989340D02*
X10537360Y-10074340D01*
X10622360Y-10031840D02*
G75*
G03*
X10622360Y-10031840I-42500J0D01*
G01*
X10537360Y-10479340D02*
X10622360Y-10564340D01*
X10622360Y-10479340D02*
X10537360Y-10564340D01*
X10622360Y-10521840D02*
G75*
G03*
X10622360Y-10521840I-42500J0D01*
G01*
D18*
X10877000Y-11639000D02*
X10967000Y-11729000D01*
X10967000Y-11639000D02*
X10877000Y-11729000D01*
X10922000Y-11639000D02*
X10922000Y-11729000D01*
X10877000Y-11684000D02*
X10967000Y-11684000D01*
X10877000Y-12147000D02*
X10967000Y-12237000D01*
X10967000Y-12147000D02*
X10877000Y-12237000D01*
X10922000Y-12147000D02*
X10922000Y-12237000D01*
X10877000Y-12192000D02*
X10967000Y-12192000D01*
X11131000Y-11639000D02*
X11221000Y-11729000D01*
X11221000Y-11639000D02*
X11131000Y-11729000D01*
X11176000Y-11639000D02*
X11176000Y-11729000D01*
X11131000Y-11684000D02*
X11221000Y-11684000D01*
X11131000Y-12147000D02*
X11221000Y-12237000D01*
X11221000Y-12147000D02*
X11131000Y-12237000D01*
X11176000Y-12147000D02*
X11176000Y-12237000D01*
X11131000Y-12192000D02*
X11221000Y-12192000D01*
D10*
X11380000Y-7824000D02*
X11480000Y-7924000D01*
X11480000Y-7824000D02*
X11380000Y-7924000D01*
X11465356Y-7909356D02*
X11465356Y-7838644D01*
X11394644Y-7838644D01*
X11394644Y-7909356D01*
X11465356Y-7909356D01*
X11380000Y-8078000D02*
X11480000Y-8178000D01*
X11480000Y-8078000D02*
X11380000Y-8178000D01*
X11465356Y-8163356D02*
X11465356Y-8092644D01*
X11394644Y-8092644D01*
X11394644Y-8163356D01*
X11465356Y-8163356D01*
X11380000Y-8332000D02*
X11480000Y-8432000D01*
X11480000Y-8332000D02*
X11380000Y-8432000D01*
X11465356Y-8417356D02*
X11465356Y-8346644D01*
X11394644Y-8346644D01*
X11394644Y-8417356D01*
X11465356Y-8417356D01*
X11634000Y-7824000D02*
X11734000Y-7924000D01*
X11734000Y-7824000D02*
X11634000Y-7924000D01*
X11719356Y-7909356D02*
X11719356Y-7838644D01*
X11648644Y-7838644D01*
X11648644Y-7909356D01*
X11719356Y-7909356D01*
X11634000Y-8078000D02*
X11734000Y-8178000D01*
X11734000Y-8078000D02*
X11634000Y-8178000D01*
X11719356Y-8163356D02*
X11719356Y-8092644D01*
X11648644Y-8092644D01*
X11648644Y-8163356D01*
X11719356Y-8163356D01*
X11634000Y-8332000D02*
X11734000Y-8432000D01*
X11734000Y-8332000D02*
X11634000Y-8432000D01*
X11719356Y-8417356D02*
X11719356Y-8346644D01*
X11648644Y-8346644D01*
X11648644Y-8417356D01*
X11719356Y-8417356D01*
X11634000Y-9856000D02*
X11734000Y-9956000D01*
X11734000Y-9856000D02*
X11634000Y-9956000D01*
X11719356Y-9941356D02*
X11719356Y-9870644D01*
X11648644Y-9870644D01*
X11648644Y-9941356D01*
X11719356Y-9941356D01*
X11634000Y-10110000D02*
X11734000Y-10210000D01*
X11734000Y-10110000D02*
X11634000Y-10210000D01*
X11719356Y-10195356D02*
X11719356Y-10124644D01*
X11648644Y-10124644D01*
X11648644Y-10195356D01*
X11719356Y-10195356D01*
X11634000Y-10364000D02*
X11734000Y-10464000D01*
X11734000Y-10364000D02*
X11634000Y-10464000D01*
X11719356Y-10449356D02*
X11719356Y-10378644D01*
X11648644Y-10378644D01*
X11648644Y-10449356D01*
X11719356Y-10449356D01*
X11634000Y-10618000D02*
X11734000Y-10718000D01*
X11734000Y-10618000D02*
X11634000Y-10718000D01*
X11719356Y-10703356D02*
X11719356Y-10632644D01*
X11648644Y-10632644D01*
X11648644Y-10703356D01*
X11719356Y-10703356D01*
X11634000Y-10872000D02*
X11734000Y-10972000D01*
X11734000Y-10872000D02*
X11634000Y-10972000D01*
X11719356Y-10957356D02*
X11719356Y-10886644D01*
X11648644Y-10886644D01*
X11648644Y-10957356D01*
X11719356Y-10957356D01*
X11634000Y-11126000D02*
X11734000Y-11226000D01*
X11734000Y-11126000D02*
X11634000Y-11226000D01*
X11719356Y-11211356D02*
X11719356Y-11140644D01*
X11648644Y-11140644D01*
X11648644Y-11211356D01*
X11719356Y-11211356D01*
X11634000Y-11380000D02*
X11734000Y-11480000D01*
X11734000Y-11380000D02*
X11634000Y-11480000D01*
X11719356Y-11465356D02*
X11719356Y-11394644D01*
X11648644Y-11394644D01*
X11648644Y-11465356D01*
X11719356Y-11465356D01*
X14174000Y-8840000D02*
X14274000Y-8940000D01*
X14274000Y-8840000D02*
X14174000Y-8940000D01*
X14259356Y-8925356D02*
X14259356Y-8854644D01*
X14188644Y-8854644D01*
X14188644Y-8925356D01*
X14259356Y-8925356D01*
X14174000Y-9094000D02*
X14274000Y-9194000D01*
X14274000Y-9094000D02*
X14174000Y-9194000D01*
X14259356Y-9179356D02*
X14259356Y-9108644D01*
X14188644Y-9108644D01*
X14188644Y-9179356D01*
X14259356Y-9179356D01*
X14174000Y-9602000D02*
X14274000Y-9702000D01*
X14274000Y-9602000D02*
X14174000Y-9702000D01*
X14259356Y-9687356D02*
X14259356Y-9616644D01*
X14188644Y-9616644D01*
X14188644Y-9687356D01*
X14259356Y-9687356D01*
X14174000Y-9856000D02*
X14274000Y-9956000D01*
X14274000Y-9856000D02*
X14174000Y-9956000D01*
X14259356Y-9941356D02*
X14259356Y-9870644D01*
X14188644Y-9870644D01*
X14188644Y-9941356D01*
X14259356Y-9941356D01*
X14174000Y-10110000D02*
X14274000Y-10210000D01*
X14274000Y-10110000D02*
X14174000Y-10210000D01*
X14259356Y-10195356D02*
X14259356Y-10124644D01*
X14188644Y-10124644D01*
X14188644Y-10195356D01*
X14259356Y-10195356D01*
X14174000Y-10364000D02*
X14274000Y-10464000D01*
X14274000Y-10364000D02*
X14174000Y-10464000D01*
X14259356Y-10449356D02*
X14259356Y-10378644D01*
X14188644Y-10378644D01*
X14188644Y-10449356D01*
X14259356Y-10449356D01*
X14174000Y-10618000D02*
X14274000Y-10718000D01*
X14274000Y-10618000D02*
X14174000Y-10718000D01*
X14259356Y-10703356D02*
X14259356Y-10632644D01*
X14188644Y-10632644D01*
X14188644Y-10703356D01*
X14259356Y-10703356D01*
X14174000Y-10872000D02*
X14274000Y-10972000D01*
X14274000Y-10872000D02*
X14174000Y-10972000D01*
X14259356Y-10957356D02*
X14259356Y-10886644D01*
X14188644Y-10886644D01*
X14188644Y-10957356D01*
X14259356Y-10957356D01*
X14174000Y-11126000D02*
X14274000Y-11226000D01*
X14274000Y-11126000D02*
X14174000Y-11226000D01*
X14259356Y-11211356D02*
X14259356Y-11140644D01*
X14188644Y-11140644D01*
X14188644Y-11211356D01*
X14259356Y-11211356D01*
X14174000Y-12650000D02*
X14274000Y-12750000D01*
X14274000Y-12650000D02*
X14174000Y-12750000D01*
X14259356Y-12735356D02*
X14259356Y-12664644D01*
X14188644Y-12664644D01*
X14188644Y-12735356D01*
X14259356Y-12735356D01*
X14428000Y-12650000D02*
X14528000Y-12750000D01*
X14528000Y-12650000D02*
X14428000Y-12750000D01*
X14513356Y-12735356D02*
X14513356Y-12664644D01*
X14442644Y-12664644D01*
X14442644Y-12735356D01*
X14513356Y-12735356D01*
X14682000Y-12650000D02*
X14782000Y-12750000D01*
X14782000Y-12650000D02*
X14682000Y-12750000D01*
X14767356Y-12735356D02*
X14767356Y-12664644D01*
X14696644Y-12664644D01*
X14696644Y-12735356D01*
X14767356Y-12735356D01*
X15190000Y-9602000D02*
X15290000Y-9702000D01*
X15290000Y-9602000D02*
X15190000Y-9702000D01*
X15275356Y-9687356D02*
X15275356Y-9616644D01*
X15204644Y-9616644D01*
X15204644Y-9687356D01*
X15275356Y-9687356D01*
X15190000Y-9856000D02*
X15290000Y-9956000D01*
X15290000Y-9856000D02*
X15190000Y-9956000D01*
X15275356Y-9941356D02*
X15275356Y-9870644D01*
X15204644Y-9870644D01*
X15204644Y-9941356D01*
X15275356Y-9941356D01*
X15190000Y-10110000D02*
X15290000Y-10210000D01*
X15290000Y-10110000D02*
X15190000Y-10210000D01*
X15275356Y-10195356D02*
X15275356Y-10124644D01*
X15204644Y-10124644D01*
X15204644Y-10195356D01*
X15275356Y-10195356D01*
X15190000Y-10364000D02*
X15290000Y-10464000D01*
X15290000Y-10364000D02*
X15190000Y-10464000D01*
X15275356Y-10449356D02*
X15275356Y-10378644D01*
X15204644Y-10378644D01*
X15204644Y-10449356D01*
X15275356Y-10449356D01*
X15190000Y-10618000D02*
X15290000Y-10718000D01*
X15290000Y-10618000D02*
X15190000Y-10718000D01*
X15275356Y-10703356D02*
X15275356Y-10632644D01*
X15204644Y-10632644D01*
X15204644Y-10703356D01*
X15275356Y-10703356D01*
X15190000Y-10872000D02*
X15290000Y-10972000D01*
X15290000Y-10872000D02*
X15190000Y-10972000D01*
X15275356Y-10957356D02*
X15275356Y-10886644D01*
X15204644Y-10886644D01*
X15204644Y-10957356D01*
X15275356Y-10957356D01*
X15190000Y-11126000D02*
X15290000Y-11226000D01*
X15290000Y-11126000D02*
X15190000Y-11226000D01*
X15275356Y-11211356D02*
X15275356Y-11140644D01*
X15204644Y-11140644D01*
X15204644Y-11211356D01*
X15275356Y-11211356D01*
X15190000Y-12650000D02*
X15290000Y-12750000D01*
X15290000Y-12650000D02*
X15190000Y-12750000D01*
X15275356Y-12735356D02*
X15275356Y-12664644D01*
X15204644Y-12664644D01*
X15204644Y-12735356D01*
X15275356Y-12735356D01*
X15444000Y-12650000D02*
X15544000Y-12750000D01*
X15544000Y-12650000D02*
X15444000Y-12750000D01*
X15529356Y-12735356D02*
X15529356Y-12664644D01*
X15458644Y-12664644D01*
X15458644Y-12735356D01*
X15529356Y-12735356D01*
X15698000Y-12650000D02*
X15798000Y-12750000D01*
X15798000Y-12650000D02*
X15698000Y-12750000D01*
X15783356Y-12735356D02*
X15783356Y-12664644D01*
X15712644Y-12664644D01*
X15712644Y-12735356D01*
X15783356Y-12735356D01*
X16206000Y-12650000D02*
X16306000Y-12750000D01*
X16306000Y-12650000D02*
X16206000Y-12750000D01*
X16291356Y-12735356D02*
X16291356Y-12664644D01*
X16220644Y-12664644D01*
X16220644Y-12735356D01*
X16291356Y-12735356D01*
X16460000Y-12650000D02*
X16560000Y-12750000D01*
X16560000Y-12650000D02*
X16460000Y-12750000D01*
X16545356Y-12735356D02*
X16545356Y-12664644D01*
X16474644Y-12664644D01*
X16474644Y-12735356D01*
X16545356Y-12735356D01*
X17603000Y-9348000D02*
X17703000Y-9448000D01*
X17703000Y-9348000D02*
X17603000Y-9448000D01*
X17688356Y-9433356D02*
X17688356Y-9362644D01*
X17617644Y-9362644D01*
X17617644Y-9433356D01*
X17688356Y-9433356D01*
X17603000Y-9602000D02*
X17703000Y-9702000D01*
X17703000Y-9602000D02*
X17603000Y-9702000D01*
X17688356Y-9687356D02*
X17688356Y-9616644D01*
X17617644Y-9616644D01*
X17617644Y-9687356D01*
X17688356Y-9687356D01*
X17603000Y-9856000D02*
X17703000Y-9956000D01*
X17703000Y-9856000D02*
X17603000Y-9956000D01*
X17688356Y-9941356D02*
X17688356Y-9870644D01*
X17617644Y-9870644D01*
X17617644Y-9941356D01*
X17688356Y-9941356D01*
X17603000Y-10110000D02*
X17703000Y-10210000D01*
X17703000Y-10110000D02*
X17603000Y-10210000D01*
X17688356Y-10195356D02*
X17688356Y-10124644D01*
X17617644Y-10124644D01*
X17617644Y-10195356D01*
X17688356Y-10195356D01*
X17603000Y-10364000D02*
X17703000Y-10464000D01*
X17703000Y-10364000D02*
X17603000Y-10464000D01*
X17688356Y-10449356D02*
X17688356Y-10378644D01*
X17617644Y-10378644D01*
X17617644Y-10449356D01*
X17688356Y-10449356D01*
X17603000Y-10618000D02*
X17703000Y-10718000D01*
X17703000Y-10618000D02*
X17603000Y-10718000D01*
X17688356Y-10703356D02*
X17688356Y-10632644D01*
X17617644Y-10632644D01*
X17617644Y-10703356D01*
X17688356Y-10703356D01*
X17603000Y-10872000D02*
X17703000Y-10972000D01*
X17703000Y-10872000D02*
X17603000Y-10972000D01*
X17688356Y-10957356D02*
X17688356Y-10886644D01*
X17617644Y-10886644D01*
X17617644Y-10957356D01*
X17688356Y-10957356D01*
X17857000Y-9348000D02*
X17957000Y-9448000D01*
X17957000Y-9348000D02*
X17857000Y-9448000D01*
X17942356Y-9433356D02*
X17942356Y-9362644D01*
X17871644Y-9362644D01*
X17871644Y-9433356D01*
X17942356Y-9433356D01*
X17857000Y-9602000D02*
X17957000Y-9702000D01*
X17957000Y-9602000D02*
X17857000Y-9702000D01*
X17942356Y-9687356D02*
X17942356Y-9616644D01*
X17871644Y-9616644D01*
X17871644Y-9687356D01*
X17942356Y-9687356D01*
X17857000Y-9856000D02*
X17957000Y-9956000D01*
X17957000Y-9856000D02*
X17857000Y-9956000D01*
X17942356Y-9941356D02*
X17942356Y-9870644D01*
X17871644Y-9870644D01*
X17871644Y-9941356D01*
X17942356Y-9941356D01*
X17857000Y-10110000D02*
X17957000Y-10210000D01*
X17957000Y-10110000D02*
X17857000Y-10210000D01*
X17942356Y-10195356D02*
X17942356Y-10124644D01*
X17871644Y-10124644D01*
X17871644Y-10195356D01*
X17942356Y-10195356D01*
X17857000Y-10364000D02*
X17957000Y-10464000D01*
X17957000Y-10364000D02*
X17857000Y-10464000D01*
X17942356Y-10449356D02*
X17942356Y-10378644D01*
X17871644Y-10378644D01*
X17871644Y-10449356D01*
X17942356Y-10449356D01*
X17857000Y-10618000D02*
X17957000Y-10718000D01*
X17957000Y-10618000D02*
X17857000Y-10718000D01*
X17942356Y-10703356D02*
X17942356Y-10632644D01*
X17871644Y-10632644D01*
X17871644Y-10703356D01*
X17942356Y-10703356D01*
X17857000Y-10872000D02*
X17957000Y-10972000D01*
X17957000Y-10872000D02*
X17857000Y-10972000D01*
X17942356Y-10957356D02*
X17942356Y-10886644D01*
X17871644Y-10886644D01*
X17871644Y-10957356D01*
X17942356Y-10957356D01*
D19*
X12141000Y-8585000D02*
X12243000Y-8687000D01*
X12243000Y-8585000D02*
X12141000Y-8687000D01*
X12192000Y-8687000D02*
X12243000Y-8636000D01*
X12192000Y-8585000D01*
X12141000Y-8636000D01*
X12192000Y-8687000D01*
X12141000Y-8839000D02*
X12243000Y-8941000D01*
X12243000Y-8839000D02*
X12141000Y-8941000D01*
X12192000Y-8941000D02*
X12243000Y-8890000D01*
X12192000Y-8839000D01*
X12141000Y-8890000D01*
X12192000Y-8941000D01*
X12141000Y-9093000D02*
X12243000Y-9195000D01*
X12243000Y-9093000D02*
X12141000Y-9195000D01*
X12192000Y-9195000D02*
X12243000Y-9144000D01*
X12192000Y-9093000D01*
X12141000Y-9144000D01*
X12192000Y-9195000D01*
X12141000Y-9347000D02*
X12243000Y-9449000D01*
X12243000Y-9347000D02*
X12141000Y-9449000D01*
X12192000Y-9449000D02*
X12243000Y-9398000D01*
X12192000Y-9347000D01*
X12141000Y-9398000D01*
X12192000Y-9449000D01*
X12141000Y-9601000D02*
X12243000Y-9703000D01*
X12243000Y-9601000D02*
X12141000Y-9703000D01*
X12192000Y-9703000D02*
X12243000Y-9652000D01*
X12192000Y-9601000D01*
X12141000Y-9652000D01*
X12192000Y-9703000D01*
X12141000Y-9855000D02*
X12243000Y-9957000D01*
X12243000Y-9855000D02*
X12141000Y-9957000D01*
X12192000Y-9957000D02*
X12243000Y-9906000D01*
X12192000Y-9855000D01*
X12141000Y-9906000D01*
X12192000Y-9957000D01*
X12141000Y-10109000D02*
X12243000Y-10211000D01*
X12243000Y-10109000D02*
X12141000Y-10211000D01*
X12192000Y-10211000D02*
X12243000Y-10160000D01*
X12192000Y-10109000D01*
X12141000Y-10160000D01*
X12192000Y-10211000D01*
X12141000Y-10363000D02*
X12243000Y-10465000D01*
X12243000Y-10363000D02*
X12141000Y-10465000D01*
X12192000Y-10465000D02*
X12243000Y-10414000D01*
X12192000Y-10363000D01*
X12141000Y-10414000D01*
X12192000Y-10465000D01*
X12141000Y-10617000D02*
X12243000Y-10719000D01*
X12243000Y-10617000D02*
X12141000Y-10719000D01*
X12192000Y-10719000D02*
X12243000Y-10668000D01*
X12192000Y-10617000D01*
X12141000Y-10668000D01*
X12192000Y-10719000D01*
X12141000Y-10871000D02*
X12243000Y-10973000D01*
X12243000Y-10871000D02*
X12141000Y-10973000D01*
X12192000Y-10973000D02*
X12243000Y-10922000D01*
X12192000Y-10871000D01*
X12141000Y-10922000D01*
X12192000Y-10973000D01*
X12141000Y-11125000D02*
X12243000Y-11227000D01*
X12243000Y-11125000D02*
X12141000Y-11227000D01*
X12192000Y-11227000D02*
X12243000Y-11176000D01*
X12192000Y-11125000D01*
X12141000Y-11176000D01*
X12192000Y-11227000D01*
X12141000Y-11379000D02*
X12243000Y-11481000D01*
X12243000Y-11379000D02*
X12141000Y-11481000D01*
X12192000Y-11481000D02*
X12243000Y-11430000D01*
X12192000Y-11379000D01*
X12141000Y-11430000D01*
X12192000Y-11481000D01*
X12141000Y-11633000D02*
X12243000Y-11735000D01*
X12243000Y-11633000D02*
X12141000Y-11735000D01*
X12192000Y-11735000D02*
X12243000Y-11684000D01*
X12192000Y-11633000D01*
X12141000Y-11684000D01*
X12192000Y-11735000D01*
X12141000Y-11887000D02*
X12243000Y-11989000D01*
X12243000Y-11887000D02*
X12141000Y-11989000D01*
X12192000Y-11989000D02*
X12243000Y-11938000D01*
X12192000Y-11887000D01*
X12141000Y-11938000D01*
X12192000Y-11989000D01*
X12141000Y-12141000D02*
X12243000Y-12243000D01*
X12243000Y-12141000D02*
X12141000Y-12243000D01*
X12192000Y-12243000D02*
X12243000Y-12192000D01*
X12192000Y-12141000D01*
X12141000Y-12192000D01*
X12192000Y-12243000D01*
X13665000Y-8585000D02*
X13767000Y-8687000D01*
X13767000Y-8585000D02*
X13665000Y-8687000D01*
X13716000Y-8687000D02*
X13767000Y-8636000D01*
X13716000Y-8585000D01*
X13665000Y-8636000D01*
X13716000Y-8687000D01*
X13665000Y-8839000D02*
X13767000Y-8941000D01*
X13767000Y-8839000D02*
X13665000Y-8941000D01*
X13716000Y-8941000D02*
X13767000Y-8890000D01*
X13716000Y-8839000D01*
X13665000Y-8890000D01*
X13716000Y-8941000D01*
X13665000Y-9093000D02*
X13767000Y-9195000D01*
X13767000Y-9093000D02*
X13665000Y-9195000D01*
X13716000Y-9195000D02*
X13767000Y-9144000D01*
X13716000Y-9093000D01*
X13665000Y-9144000D01*
X13716000Y-9195000D01*
X13665000Y-9347000D02*
X13767000Y-9449000D01*
X13767000Y-9347000D02*
X13665000Y-9449000D01*
X13716000Y-9449000D02*
X13767000Y-9398000D01*
X13716000Y-9347000D01*
X13665000Y-9398000D01*
X13716000Y-9449000D01*
X13665000Y-9601000D02*
X13767000Y-9703000D01*
X13767000Y-9601000D02*
X13665000Y-9703000D01*
X13716000Y-9703000D02*
X13767000Y-9652000D01*
X13716000Y-9601000D01*
X13665000Y-9652000D01*
X13716000Y-9703000D01*
X13665000Y-9855000D02*
X13767000Y-9957000D01*
X13767000Y-9855000D02*
X13665000Y-9957000D01*
X13716000Y-9957000D02*
X13767000Y-9906000D01*
X13716000Y-9855000D01*
X13665000Y-9906000D01*
X13716000Y-9957000D01*
X13665000Y-10109000D02*
X13767000Y-10211000D01*
X13767000Y-10109000D02*
X13665000Y-10211000D01*
X13716000Y-10211000D02*
X13767000Y-10160000D01*
X13716000Y-10109000D01*
X13665000Y-10160000D01*
X13716000Y-10211000D01*
X13665000Y-10363000D02*
X13767000Y-10465000D01*
X13767000Y-10363000D02*
X13665000Y-10465000D01*
X13716000Y-10465000D02*
X13767000Y-10414000D01*
X13716000Y-10363000D01*
X13665000Y-10414000D01*
X13716000Y-10465000D01*
X13665000Y-10617000D02*
X13767000Y-10719000D01*
X13767000Y-10617000D02*
X13665000Y-10719000D01*
X13716000Y-10719000D02*
X13767000Y-10668000D01*
X13716000Y-10617000D01*
X13665000Y-10668000D01*
X13716000Y-10719000D01*
X13665000Y-10871000D02*
X13767000Y-10973000D01*
X13767000Y-10871000D02*
X13665000Y-10973000D01*
X13716000Y-10973000D02*
X13767000Y-10922000D01*
X13716000Y-10871000D01*
X13665000Y-10922000D01*
X13716000Y-10973000D01*
X13665000Y-11125000D02*
X13767000Y-11227000D01*
X13767000Y-11125000D02*
X13665000Y-11227000D01*
X13716000Y-11227000D02*
X13767000Y-11176000D01*
X13716000Y-11125000D01*
X13665000Y-11176000D01*
X13716000Y-11227000D01*
X13665000Y-11379000D02*
X13767000Y-11481000D01*
X13767000Y-11379000D02*
X13665000Y-11481000D01*
X13716000Y-11481000D02*
X13767000Y-11430000D01*
X13716000Y-11379000D01*
X13665000Y-11430000D01*
X13716000Y-11481000D01*
X13665000Y-11633000D02*
X13767000Y-11735000D01*
X13767000Y-11633000D02*
X13665000Y-11735000D01*
X13716000Y-11735000D02*
X13767000Y-11684000D01*
X13716000Y-11633000D01*
X13665000Y-11684000D01*
X13716000Y-11735000D01*
X13665000Y-11887000D02*
X13767000Y-11989000D01*
X13767000Y-11887000D02*
X13665000Y-11989000D01*
X13716000Y-11989000D02*
X13767000Y-11938000D01*
X13716000Y-11887000D01*
X13665000Y-11938000D01*
X13716000Y-11989000D01*
X13665000Y-12141000D02*
X13767000Y-12243000D01*
X13767000Y-12141000D02*
X13665000Y-12243000D01*
X13716000Y-12243000D02*
X13767000Y-12192000D01*
X13716000Y-12141000D01*
X13665000Y-12192000D01*
X13716000Y-12243000D01*
D11*
X10412619Y-13396476D02*
X10412619Y-13196476D01*
X10460238Y-13196476D01*
X10488810Y-13206000D01*
X10507857Y-13225048D01*
X10517381Y-13244095D01*
X10526905Y-13282190D01*
X10526905Y-13310762D01*
X10517381Y-13348857D01*
X10507857Y-13367905D01*
X10488810Y-13386952D01*
X10460238Y-13396476D01*
X10412619Y-13396476D01*
X10612619Y-13396476D02*
X10612619Y-13263143D01*
X10612619Y-13301238D02*
X10622143Y-13282190D01*
X10631667Y-13272667D01*
X10650714Y-13263143D01*
X10669762Y-13263143D01*
X10736429Y-13396476D02*
X10736429Y-13263143D01*
X10736429Y-13196476D02*
X10726905Y-13206000D01*
X10736429Y-13215524D01*
X10745952Y-13206000D01*
X10736429Y-13196476D01*
X10736429Y-13215524D01*
X10860238Y-13396476D02*
X10841190Y-13386952D01*
X10831667Y-13367905D01*
X10831667Y-13196476D01*
X10965000Y-13396476D02*
X10945952Y-13386952D01*
X10936429Y-13367905D01*
X10936429Y-13196476D01*
X11193571Y-13396476D02*
X11193571Y-13196476D01*
X11260238Y-13339333D01*
X11326905Y-13196476D01*
X11326905Y-13396476D01*
X11507857Y-13396476D02*
X11507857Y-13291714D01*
X11498333Y-13272667D01*
X11479286Y-13263143D01*
X11441190Y-13263143D01*
X11422143Y-13272667D01*
X11507857Y-13386952D02*
X11488809Y-13396476D01*
X11441190Y-13396476D01*
X11422143Y-13386952D01*
X11412619Y-13367905D01*
X11412619Y-13348857D01*
X11422143Y-13329809D01*
X11441190Y-13320286D01*
X11488809Y-13320286D01*
X11507857Y-13310762D01*
X11603095Y-13263143D02*
X11603095Y-13463143D01*
X11603095Y-13272667D02*
X11622143Y-13263143D01*
X11660238Y-13263143D01*
X11679286Y-13272667D01*
X11688809Y-13282190D01*
X11698333Y-13301238D01*
X11698333Y-13358381D01*
X11688809Y-13377428D01*
X11679286Y-13386952D01*
X11660238Y-13396476D01*
X11622143Y-13396476D01*
X11603095Y-13386952D01*
X11784048Y-13377428D02*
X11793571Y-13386952D01*
X11784048Y-13396476D01*
X11774524Y-13386952D01*
X11784048Y-13377428D01*
X11784048Y-13396476D01*
X11784048Y-13272667D02*
X11793571Y-13282190D01*
X11784048Y-13291714D01*
X11774524Y-13282190D01*
X11784048Y-13272667D01*
X11784048Y-13291714D01*
D12*
X10135000Y-13716000D02*
X10155000Y-13736000D01*
X10155000Y-13716000D02*
X10135000Y-13736000D01*
D11*
X10450714Y-13616476D02*
X10469762Y-13616476D01*
X10488810Y-13626000D01*
X10498333Y-13635524D01*
X10507857Y-13654571D01*
X10517381Y-13692667D01*
X10517381Y-13740286D01*
X10507857Y-13778381D01*
X10498333Y-13797428D01*
X10488810Y-13806952D01*
X10469762Y-13816476D01*
X10450714Y-13816476D01*
X10431667Y-13806952D01*
X10422143Y-13797428D01*
X10412619Y-13778381D01*
X10403095Y-13740286D01*
X10403095Y-13692667D01*
X10412619Y-13654571D01*
X10422143Y-13635524D01*
X10431667Y-13626000D01*
X10450714Y-13616476D01*
X10603095Y-13797428D02*
X10612619Y-13806952D01*
X10603095Y-13816476D01*
X10593571Y-13806952D01*
X10603095Y-13797428D01*
X10603095Y-13816476D01*
X10688810Y-13635524D02*
X10698333Y-13626000D01*
X10717381Y-13616476D01*
X10765000Y-13616476D01*
X10784048Y-13626000D01*
X10793571Y-13635524D01*
X10803095Y-13654571D01*
X10803095Y-13673619D01*
X10793571Y-13702190D01*
X10679286Y-13816476D01*
X10803095Y-13816476D01*
X10926905Y-13616476D02*
X10945952Y-13616476D01*
X10965000Y-13626000D01*
X10974524Y-13635524D01*
X10984048Y-13654571D01*
X10993571Y-13692667D01*
X10993571Y-13740286D01*
X10984048Y-13778381D01*
X10974524Y-13797428D01*
X10965000Y-13806952D01*
X10945952Y-13816476D01*
X10926905Y-13816476D01*
X10907857Y-13806952D01*
X10898333Y-13797428D01*
X10888810Y-13778381D01*
X10879286Y-13740286D01*
X10879286Y-13692667D01*
X10888810Y-13654571D01*
X10898333Y-13635524D01*
X10907857Y-13626000D01*
X10926905Y-13616476D01*
X11117381Y-13616476D02*
X11136429Y-13616476D01*
X11155476Y-13626000D01*
X11165000Y-13635524D01*
X11174524Y-13654571D01*
X11184048Y-13692667D01*
X11184048Y-13740286D01*
X11174524Y-13778381D01*
X11165000Y-13797428D01*
X11155476Y-13806952D01*
X11136429Y-13816476D01*
X11117381Y-13816476D01*
X11098333Y-13806952D01*
X11088810Y-13797428D01*
X11079286Y-13778381D01*
X11069762Y-13740286D01*
X11069762Y-13692667D01*
X11079286Y-13654571D01*
X11088810Y-13635524D01*
X11098333Y-13626000D01*
X11117381Y-13616476D01*
X11269762Y-13816476D02*
X11269762Y-13683143D01*
X11269762Y-13702190D02*
X11279286Y-13692667D01*
X11298333Y-13683143D01*
X11326905Y-13683143D01*
X11345952Y-13692667D01*
X11355476Y-13711714D01*
X11355476Y-13816476D01*
X11355476Y-13711714D02*
X11365000Y-13692667D01*
X11384048Y-13683143D01*
X11412619Y-13683143D01*
X11431667Y-13692667D01*
X11441190Y-13711714D01*
X11441190Y-13816476D01*
X11536428Y-13816476D02*
X11536428Y-13683143D01*
X11536428Y-13702190D02*
X11545952Y-13692667D01*
X11565000Y-13683143D01*
X11593571Y-13683143D01*
X11612619Y-13692667D01*
X11622143Y-13711714D01*
X11622143Y-13816476D01*
X11622143Y-13711714D02*
X11631667Y-13692667D01*
X11650714Y-13683143D01*
X11679286Y-13683143D01*
X11698333Y-13692667D01*
X11707857Y-13711714D01*
X11707857Y-13816476D01*
X12098333Y-13606952D02*
X11926905Y-13864095D01*
X12355476Y-13616476D02*
X12374524Y-13616476D01*
X12393571Y-13626000D01*
X12403095Y-13635524D01*
X12412619Y-13654571D01*
X12422143Y-13692667D01*
X12422143Y-13740286D01*
X12412619Y-13778381D01*
X12403095Y-13797428D01*
X12393571Y-13806952D01*
X12374524Y-13816476D01*
X12355476Y-13816476D01*
X12336428Y-13806952D01*
X12326905Y-13797428D01*
X12317381Y-13778381D01*
X12307857Y-13740286D01*
X12307857Y-13692667D01*
X12317381Y-13654571D01*
X12326905Y-13635524D01*
X12336428Y-13626000D01*
X12355476Y-13616476D01*
X12507857Y-13797428D02*
X12517381Y-13806952D01*
X12507857Y-13816476D01*
X12498333Y-13806952D01*
X12507857Y-13797428D01*
X12507857Y-13816476D01*
X12641190Y-13616476D02*
X12660238Y-13616476D01*
X12679286Y-13626000D01*
X12688809Y-13635524D01*
X12698333Y-13654571D01*
X12707857Y-13692667D01*
X12707857Y-13740286D01*
X12698333Y-13778381D01*
X12688809Y-13797428D01*
X12679286Y-13806952D01*
X12660238Y-13816476D01*
X12641190Y-13816476D01*
X12622143Y-13806952D01*
X12612619Y-13797428D01*
X12603095Y-13778381D01*
X12593571Y-13740286D01*
X12593571Y-13692667D01*
X12603095Y-13654571D01*
X12612619Y-13635524D01*
X12622143Y-13626000D01*
X12641190Y-13616476D01*
X12831667Y-13616476D02*
X12850714Y-13616476D01*
X12869762Y-13626000D01*
X12879286Y-13635524D01*
X12888809Y-13654571D01*
X12898333Y-13692667D01*
X12898333Y-13740286D01*
X12888809Y-13778381D01*
X12879286Y-13797428D01*
X12869762Y-13806952D01*
X12850714Y-13816476D01*
X12831667Y-13816476D01*
X12812619Y-13806952D01*
X12803095Y-13797428D01*
X12793571Y-13778381D01*
X12784048Y-13740286D01*
X12784048Y-13692667D01*
X12793571Y-13654571D01*
X12803095Y-13635524D01*
X12812619Y-13626000D01*
X12831667Y-13616476D01*
X12965000Y-13616476D02*
X13098333Y-13616476D01*
X13012619Y-13816476D01*
X13184048Y-13816476D02*
X13222143Y-13816476D01*
X13241190Y-13806952D01*
X13250714Y-13797428D01*
X13269762Y-13768857D01*
X13279286Y-13730762D01*
X13279286Y-13654571D01*
X13269762Y-13635524D01*
X13260238Y-13626000D01*
X13241190Y-13616476D01*
X13203095Y-13616476D01*
X13184048Y-13626000D01*
X13174524Y-13635524D01*
X13165000Y-13654571D01*
X13165000Y-13702190D01*
X13174524Y-13721238D01*
X13184048Y-13730762D01*
X13203095Y-13740286D01*
X13241190Y-13740286D01*
X13260238Y-13730762D01*
X13269762Y-13721238D01*
X13279286Y-13702190D01*
X13355476Y-13616476D02*
X13355476Y-13654571D01*
X13431667Y-13616476D02*
X13431667Y-13654571D01*
X13726905Y-13892667D02*
X13717381Y-13883143D01*
X13698333Y-13854571D01*
X13688809Y-13835524D01*
X13679286Y-13806952D01*
X13669762Y-13759333D01*
X13669762Y-13721238D01*
X13679286Y-13673619D01*
X13688809Y-13645048D01*
X13698333Y-13626000D01*
X13717381Y-13597428D01*
X13726905Y-13587905D01*
X13888809Y-13683143D02*
X13888809Y-13816476D01*
X13841190Y-13606952D02*
X13793571Y-13749809D01*
X13917381Y-13749809D01*
X13974524Y-13616476D02*
X14098333Y-13616476D01*
X14031667Y-13692667D01*
X14060238Y-13692667D01*
X14079286Y-13702190D01*
X14088809Y-13711714D01*
X14098333Y-13730762D01*
X14098333Y-13778381D01*
X14088809Y-13797428D01*
X14079286Y-13806952D01*
X14060238Y-13816476D01*
X14003095Y-13816476D01*
X13984048Y-13806952D01*
X13974524Y-13797428D01*
X14336428Y-13816476D02*
X14336428Y-13616476D01*
X14422143Y-13816476D02*
X14422143Y-13711714D01*
X14412619Y-13692667D01*
X14393571Y-13683143D01*
X14365000Y-13683143D01*
X14345952Y-13692667D01*
X14336428Y-13702190D01*
X14545952Y-13816476D02*
X14526905Y-13806952D01*
X14517381Y-13797428D01*
X14507857Y-13778381D01*
X14507857Y-13721238D01*
X14517381Y-13702190D01*
X14526905Y-13692667D01*
X14545952Y-13683143D01*
X14574524Y-13683143D01*
X14593571Y-13692667D01*
X14603095Y-13702190D01*
X14612619Y-13721238D01*
X14612619Y-13778381D01*
X14603095Y-13797428D01*
X14593571Y-13806952D01*
X14574524Y-13816476D01*
X14545952Y-13816476D01*
X14726905Y-13816476D02*
X14707857Y-13806952D01*
X14698333Y-13787905D01*
X14698333Y-13616476D01*
X14879286Y-13806952D02*
X14860238Y-13816476D01*
X14822143Y-13816476D01*
X14803095Y-13806952D01*
X14793571Y-13787905D01*
X14793571Y-13711714D01*
X14803095Y-13692667D01*
X14822143Y-13683143D01*
X14860238Y-13683143D01*
X14879286Y-13692667D01*
X14888809Y-13711714D01*
X14888809Y-13730762D01*
X14793571Y-13749809D01*
X14965000Y-13806952D02*
X14984048Y-13816476D01*
X15022143Y-13816476D01*
X15041190Y-13806952D01*
X15050714Y-13787905D01*
X15050714Y-13778381D01*
X15041190Y-13759333D01*
X15022143Y-13749809D01*
X14993571Y-13749809D01*
X14974524Y-13740286D01*
X14965000Y-13721238D01*
X14965000Y-13711714D01*
X14974524Y-13692667D01*
X14993571Y-13683143D01*
X15022143Y-13683143D01*
X15041190Y-13692667D01*
X15117381Y-13892667D02*
X15126905Y-13883143D01*
X15145952Y-13854571D01*
X15155476Y-13835524D01*
X15165000Y-13806952D01*
X15174524Y-13759333D01*
X15174524Y-13721238D01*
X15165000Y-13673619D01*
X15155476Y-13645048D01*
X15145952Y-13626000D01*
X15126905Y-13597428D01*
X15117381Y-13587905D01*
D13*
X10155000Y-13990000D02*
G75*
G03*
X10155000Y-13990000I-15000J0D01*
G01*
D11*
X10450714Y-13880476D02*
X10469762Y-13880476D01*
X10488810Y-13890000D01*
X10498333Y-13899524D01*
X10507857Y-13918571D01*
X10517381Y-13956667D01*
X10517381Y-14004286D01*
X10507857Y-14042381D01*
X10498333Y-14061428D01*
X10488810Y-14070952D01*
X10469762Y-14080476D01*
X10450714Y-14080476D01*
X10431667Y-14070952D01*
X10422143Y-14061428D01*
X10412619Y-14042381D01*
X10403095Y-14004286D01*
X10403095Y-13956667D01*
X10412619Y-13918571D01*
X10422143Y-13899524D01*
X10431667Y-13890000D01*
X10450714Y-13880476D01*
X10603095Y-14061428D02*
X10612619Y-14070952D01*
X10603095Y-14080476D01*
X10593571Y-14070952D01*
X10603095Y-14061428D01*
X10603095Y-14080476D01*
X10679286Y-13880476D02*
X10803095Y-13880476D01*
X10736429Y-13956667D01*
X10765000Y-13956667D01*
X10784048Y-13966190D01*
X10793571Y-13975714D01*
X10803095Y-13994762D01*
X10803095Y-14042381D01*
X10793571Y-14061428D01*
X10784048Y-14070952D01*
X10765000Y-14080476D01*
X10707857Y-14080476D01*
X10688810Y-14070952D01*
X10679286Y-14061428D01*
X10926905Y-13880476D02*
X10945952Y-13880476D01*
X10965000Y-13890000D01*
X10974524Y-13899524D01*
X10984048Y-13918571D01*
X10993571Y-13956667D01*
X10993571Y-14004286D01*
X10984048Y-14042381D01*
X10974524Y-14061428D01*
X10965000Y-14070952D01*
X10945952Y-14080476D01*
X10926905Y-14080476D01*
X10907857Y-14070952D01*
X10898333Y-14061428D01*
X10888810Y-14042381D01*
X10879286Y-14004286D01*
X10879286Y-13956667D01*
X10888810Y-13918571D01*
X10898333Y-13899524D01*
X10907857Y-13890000D01*
X10926905Y-13880476D01*
X11117381Y-13880476D02*
X11136429Y-13880476D01*
X11155476Y-13890000D01*
X11165000Y-13899524D01*
X11174524Y-13918571D01*
X11184048Y-13956667D01*
X11184048Y-14004286D01*
X11174524Y-14042381D01*
X11165000Y-14061428D01*
X11155476Y-14070952D01*
X11136429Y-14080476D01*
X11117381Y-14080476D01*
X11098333Y-14070952D01*
X11088810Y-14061428D01*
X11079286Y-14042381D01*
X11069762Y-14004286D01*
X11069762Y-13956667D01*
X11079286Y-13918571D01*
X11088810Y-13899524D01*
X11098333Y-13890000D01*
X11117381Y-13880476D01*
X11269762Y-14080476D02*
X11269762Y-13947143D01*
X11269762Y-13966190D02*
X11279286Y-13956667D01*
X11298333Y-13947143D01*
X11326905Y-13947143D01*
X11345952Y-13956667D01*
X11355476Y-13975714D01*
X11355476Y-14080476D01*
X11355476Y-13975714D02*
X11365000Y-13956667D01*
X11384048Y-13947143D01*
X11412619Y-13947143D01*
X11431667Y-13956667D01*
X11441190Y-13975714D01*
X11441190Y-14080476D01*
X11536428Y-14080476D02*
X11536428Y-13947143D01*
X11536428Y-13966190D02*
X11545952Y-13956667D01*
X11565000Y-13947143D01*
X11593571Y-13947143D01*
X11612619Y-13956667D01*
X11622143Y-13975714D01*
X11622143Y-14080476D01*
X11622143Y-13975714D02*
X11631667Y-13956667D01*
X11650714Y-13947143D01*
X11679286Y-13947143D01*
X11698333Y-13956667D01*
X11707857Y-13975714D01*
X11707857Y-14080476D01*
X12098333Y-13870952D02*
X11926905Y-14128095D01*
X12355476Y-13880476D02*
X12374524Y-13880476D01*
X12393571Y-13890000D01*
X12403095Y-13899524D01*
X12412619Y-13918571D01*
X12422143Y-13956667D01*
X12422143Y-14004286D01*
X12412619Y-14042381D01*
X12403095Y-14061428D01*
X12393571Y-14070952D01*
X12374524Y-14080476D01*
X12355476Y-14080476D01*
X12336428Y-14070952D01*
X12326905Y-14061428D01*
X12317381Y-14042381D01*
X12307857Y-14004286D01*
X12307857Y-13956667D01*
X12317381Y-13918571D01*
X12326905Y-13899524D01*
X12336428Y-13890000D01*
X12355476Y-13880476D01*
X12507857Y-14061428D02*
X12517381Y-14070952D01*
X12507857Y-14080476D01*
X12498333Y-14070952D01*
X12507857Y-14061428D01*
X12507857Y-14080476D01*
X12641190Y-13880476D02*
X12660238Y-13880476D01*
X12679286Y-13890000D01*
X12688809Y-13899524D01*
X12698333Y-13918571D01*
X12707857Y-13956667D01*
X12707857Y-14004286D01*
X12698333Y-14042381D01*
X12688809Y-14061428D01*
X12679286Y-14070952D01*
X12660238Y-14080476D01*
X12641190Y-14080476D01*
X12622143Y-14070952D01*
X12612619Y-14061428D01*
X12603095Y-14042381D01*
X12593571Y-14004286D01*
X12593571Y-13956667D01*
X12603095Y-13918571D01*
X12612619Y-13899524D01*
X12622143Y-13890000D01*
X12641190Y-13880476D01*
X12898333Y-14080476D02*
X12784048Y-14080476D01*
X12841190Y-14080476D02*
X12841190Y-13880476D01*
X12822143Y-13909048D01*
X12803095Y-13928095D01*
X12784048Y-13937619D01*
X13088809Y-14080476D02*
X12974524Y-14080476D01*
X13031667Y-14080476D02*
X13031667Y-13880476D01*
X13012619Y-13909048D01*
X12993571Y-13928095D01*
X12974524Y-13937619D01*
X13203095Y-13966190D02*
X13184048Y-13956667D01*
X13174524Y-13947143D01*
X13165000Y-13928095D01*
X13165000Y-13918571D01*
X13174524Y-13899524D01*
X13184048Y-13890000D01*
X13203095Y-13880476D01*
X13241190Y-13880476D01*
X13260238Y-13890000D01*
X13269762Y-13899524D01*
X13279286Y-13918571D01*
X13279286Y-13928095D01*
X13269762Y-13947143D01*
X13260238Y-13956667D01*
X13241190Y-13966190D01*
X13203095Y-13966190D01*
X13184048Y-13975714D01*
X13174524Y-13985238D01*
X13165000Y-14004286D01*
X13165000Y-14042381D01*
X13174524Y-14061428D01*
X13184048Y-14070952D01*
X13203095Y-14080476D01*
X13241190Y-14080476D01*
X13260238Y-14070952D01*
X13269762Y-14061428D01*
X13279286Y-14042381D01*
X13279286Y-14004286D01*
X13269762Y-13985238D01*
X13260238Y-13975714D01*
X13241190Y-13966190D01*
X13355476Y-13880476D02*
X13355476Y-13918571D01*
X13431667Y-13880476D02*
X13431667Y-13918571D01*
X13726905Y-14156667D02*
X13717381Y-14147143D01*
X13698333Y-14118571D01*
X13688809Y-14099524D01*
X13679286Y-14070952D01*
X13669762Y-14023333D01*
X13669762Y-13985238D01*
X13679286Y-13937619D01*
X13688809Y-13909048D01*
X13698333Y-13890000D01*
X13717381Y-13861428D01*
X13726905Y-13851905D01*
X13907857Y-14080476D02*
X13793571Y-14080476D01*
X13850714Y-14080476D02*
X13850714Y-13880476D01*
X13831667Y-13909048D01*
X13812619Y-13928095D01*
X13793571Y-13937619D01*
X13984048Y-13899524D02*
X13993571Y-13890000D01*
X14012619Y-13880476D01*
X14060238Y-13880476D01*
X14079286Y-13890000D01*
X14088809Y-13899524D01*
X14098333Y-13918571D01*
X14098333Y-13937619D01*
X14088809Y-13966190D01*
X13974524Y-14080476D01*
X14098333Y-14080476D01*
X14336428Y-14080476D02*
X14336428Y-13880476D01*
X14422143Y-14080476D02*
X14422143Y-13975714D01*
X14412619Y-13956667D01*
X14393571Y-13947143D01*
X14365000Y-13947143D01*
X14345952Y-13956667D01*
X14336428Y-13966190D01*
X14545952Y-14080476D02*
X14526905Y-14070952D01*
X14517381Y-14061428D01*
X14507857Y-14042381D01*
X14507857Y-13985238D01*
X14517381Y-13966190D01*
X14526905Y-13956667D01*
X14545952Y-13947143D01*
X14574524Y-13947143D01*
X14593571Y-13956667D01*
X14603095Y-13966190D01*
X14612619Y-13985238D01*
X14612619Y-14042381D01*
X14603095Y-14061428D01*
X14593571Y-14070952D01*
X14574524Y-14080476D01*
X14545952Y-14080476D01*
X14726905Y-14080476D02*
X14707857Y-14070952D01*
X14698333Y-14051905D01*
X14698333Y-13880476D01*
X14879286Y-14070952D02*
X14860238Y-14080476D01*
X14822143Y-14080476D01*
X14803095Y-14070952D01*
X14793571Y-14051905D01*
X14793571Y-13975714D01*
X14803095Y-13956667D01*
X14822143Y-13947143D01*
X14860238Y-13947143D01*
X14879286Y-13956667D01*
X14888809Y-13975714D01*
X14888809Y-13994762D01*
X14793571Y-14013809D01*
X14965000Y-14070952D02*
X14984048Y-14080476D01*
X15022143Y-14080476D01*
X15041190Y-14070952D01*
X15050714Y-14051905D01*
X15050714Y-14042381D01*
X15041190Y-14023333D01*
X15022143Y-14013809D01*
X14993571Y-14013809D01*
X14974524Y-14004286D01*
X14965000Y-13985238D01*
X14965000Y-13975714D01*
X14974524Y-13956667D01*
X14993571Y-13947143D01*
X15022143Y-13947143D01*
X15041190Y-13956667D01*
X15117381Y-14156667D02*
X15126905Y-14147143D01*
X15145952Y-14118571D01*
X15155476Y-14099524D01*
X15165000Y-14070952D01*
X15174524Y-14023333D01*
X15174524Y-13985238D01*
X15165000Y-13937619D01*
X15155476Y-13909048D01*
X15145952Y-13890000D01*
X15126905Y-13861428D01*
X15117381Y-13851905D01*
D14*
X10135000Y-14234000D02*
X10135000Y-14274000D01*
X10115000Y-14254000D02*
X10155000Y-14254000D01*
D11*
X10450714Y-14144476D02*
X10469762Y-14144476D01*
X10488810Y-14154000D01*
X10498333Y-14163524D01*
X10507857Y-14182571D01*
X10517381Y-14220667D01*
X10517381Y-14268286D01*
X10507857Y-14306381D01*
X10498333Y-14325428D01*
X10488810Y-14334952D01*
X10469762Y-14344476D01*
X10450714Y-14344476D01*
X10431667Y-14334952D01*
X10422143Y-14325428D01*
X10412619Y-14306381D01*
X10403095Y-14268286D01*
X10403095Y-14220667D01*
X10412619Y-14182571D01*
X10422143Y-14163524D01*
X10431667Y-14154000D01*
X10450714Y-14144476D01*
X10603095Y-14325428D02*
X10612619Y-14334952D01*
X10603095Y-14344476D01*
X10593571Y-14334952D01*
X10603095Y-14325428D01*
X10603095Y-14344476D01*
X10784048Y-14211143D02*
X10784048Y-14344476D01*
X10736429Y-14134952D02*
X10688810Y-14277809D01*
X10812619Y-14277809D01*
X10926905Y-14144476D02*
X10945952Y-14144476D01*
X10965000Y-14154000D01*
X10974524Y-14163524D01*
X10984048Y-14182571D01*
X10993571Y-14220667D01*
X10993571Y-14268286D01*
X10984048Y-14306381D01*
X10974524Y-14325428D01*
X10965000Y-14334952D01*
X10945952Y-14344476D01*
X10926905Y-14344476D01*
X10907857Y-14334952D01*
X10898333Y-14325428D01*
X10888810Y-14306381D01*
X10879286Y-14268286D01*
X10879286Y-14220667D01*
X10888810Y-14182571D01*
X10898333Y-14163524D01*
X10907857Y-14154000D01*
X10926905Y-14144476D01*
X11117381Y-14144476D02*
X11136429Y-14144476D01*
X11155476Y-14154000D01*
X11165000Y-14163524D01*
X11174524Y-14182571D01*
X11184048Y-14220667D01*
X11184048Y-14268286D01*
X11174524Y-14306381D01*
X11165000Y-14325428D01*
X11155476Y-14334952D01*
X11136429Y-14344476D01*
X11117381Y-14344476D01*
X11098333Y-14334952D01*
X11088810Y-14325428D01*
X11079286Y-14306381D01*
X11069762Y-14268286D01*
X11069762Y-14220667D01*
X11079286Y-14182571D01*
X11088810Y-14163524D01*
X11098333Y-14154000D01*
X11117381Y-14144476D01*
X11269762Y-14344476D02*
X11269762Y-14211143D01*
X11269762Y-14230190D02*
X11279286Y-14220667D01*
X11298333Y-14211143D01*
X11326905Y-14211143D01*
X11345952Y-14220667D01*
X11355476Y-14239714D01*
X11355476Y-14344476D01*
X11355476Y-14239714D02*
X11365000Y-14220667D01*
X11384048Y-14211143D01*
X11412619Y-14211143D01*
X11431667Y-14220667D01*
X11441190Y-14239714D01*
X11441190Y-14344476D01*
X11536428Y-14344476D02*
X11536428Y-14211143D01*
X11536428Y-14230190D02*
X11545952Y-14220667D01*
X11565000Y-14211143D01*
X11593571Y-14211143D01*
X11612619Y-14220667D01*
X11622143Y-14239714D01*
X11622143Y-14344476D01*
X11622143Y-14239714D02*
X11631667Y-14220667D01*
X11650714Y-14211143D01*
X11679286Y-14211143D01*
X11698333Y-14220667D01*
X11707857Y-14239714D01*
X11707857Y-14344476D01*
X12098333Y-14134952D02*
X11926905Y-14392095D01*
X12355476Y-14144476D02*
X12374524Y-14144476D01*
X12393571Y-14154000D01*
X12403095Y-14163524D01*
X12412619Y-14182571D01*
X12422143Y-14220667D01*
X12422143Y-14268286D01*
X12412619Y-14306381D01*
X12403095Y-14325428D01*
X12393571Y-14334952D01*
X12374524Y-14344476D01*
X12355476Y-14344476D01*
X12336428Y-14334952D01*
X12326905Y-14325428D01*
X12317381Y-14306381D01*
X12307857Y-14268286D01*
X12307857Y-14220667D01*
X12317381Y-14182571D01*
X12326905Y-14163524D01*
X12336428Y-14154000D01*
X12355476Y-14144476D01*
X12507857Y-14325428D02*
X12517381Y-14334952D01*
X12507857Y-14344476D01*
X12498333Y-14334952D01*
X12507857Y-14325428D01*
X12507857Y-14344476D01*
X12641190Y-14144476D02*
X12660238Y-14144476D01*
X12679286Y-14154000D01*
X12688809Y-14163524D01*
X12698333Y-14182571D01*
X12707857Y-14220667D01*
X12707857Y-14268286D01*
X12698333Y-14306381D01*
X12688809Y-14325428D01*
X12679286Y-14334952D01*
X12660238Y-14344476D01*
X12641190Y-14344476D01*
X12622143Y-14334952D01*
X12612619Y-14325428D01*
X12603095Y-14306381D01*
X12593571Y-14268286D01*
X12593571Y-14220667D01*
X12603095Y-14182571D01*
X12612619Y-14163524D01*
X12622143Y-14154000D01*
X12641190Y-14144476D01*
X12898333Y-14344476D02*
X12784048Y-14344476D01*
X12841190Y-14344476D02*
X12841190Y-14144476D01*
X12822143Y-14173048D01*
X12803095Y-14192095D01*
X12784048Y-14201619D01*
X13079286Y-14144476D02*
X12984048Y-14144476D01*
X12974524Y-14239714D01*
X12984048Y-14230190D01*
X13003095Y-14220667D01*
X13050714Y-14220667D01*
X13069762Y-14230190D01*
X13079286Y-14239714D01*
X13088809Y-14258762D01*
X13088809Y-14306381D01*
X13079286Y-14325428D01*
X13069762Y-14334952D01*
X13050714Y-14344476D01*
X13003095Y-14344476D01*
X12984048Y-14334952D01*
X12974524Y-14325428D01*
X13155476Y-14144476D02*
X13288809Y-14144476D01*
X13203095Y-14344476D01*
X13355476Y-14144476D02*
X13355476Y-14182571D01*
X13431667Y-14144476D02*
X13431667Y-14182571D01*
X13726905Y-14420667D02*
X13717381Y-14411143D01*
X13698333Y-14382571D01*
X13688809Y-14363524D01*
X13679286Y-14334952D01*
X13669762Y-14287333D01*
X13669762Y-14249238D01*
X13679286Y-14201619D01*
X13688809Y-14173048D01*
X13698333Y-14154000D01*
X13717381Y-14125428D01*
X13726905Y-14115905D01*
X13907857Y-14344476D02*
X13793571Y-14344476D01*
X13850714Y-14344476D02*
X13850714Y-14144476D01*
X13831667Y-14173048D01*
X13812619Y-14192095D01*
X13793571Y-14201619D01*
X14079286Y-14144476D02*
X14041190Y-14144476D01*
X14022143Y-14154000D01*
X14012619Y-14163524D01*
X13993571Y-14192095D01*
X13984048Y-14230190D01*
X13984048Y-14306381D01*
X13993571Y-14325428D01*
X14003095Y-14334952D01*
X14022143Y-14344476D01*
X14060238Y-14344476D01*
X14079286Y-14334952D01*
X14088809Y-14325428D01*
X14098333Y-14306381D01*
X14098333Y-14258762D01*
X14088809Y-14239714D01*
X14079286Y-14230190D01*
X14060238Y-14220667D01*
X14022143Y-14220667D01*
X14003095Y-14230190D01*
X13993571Y-14239714D01*
X13984048Y-14258762D01*
X14336428Y-14344476D02*
X14336428Y-14144476D01*
X14422143Y-14344476D02*
X14422143Y-14239714D01*
X14412619Y-14220667D01*
X14393571Y-14211143D01*
X14365000Y-14211143D01*
X14345952Y-14220667D01*
X14336428Y-14230190D01*
X14545952Y-14344476D02*
X14526905Y-14334952D01*
X14517381Y-14325428D01*
X14507857Y-14306381D01*
X14507857Y-14249238D01*
X14517381Y-14230190D01*
X14526905Y-14220667D01*
X14545952Y-14211143D01*
X14574524Y-14211143D01*
X14593571Y-14220667D01*
X14603095Y-14230190D01*
X14612619Y-14249238D01*
X14612619Y-14306381D01*
X14603095Y-14325428D01*
X14593571Y-14334952D01*
X14574524Y-14344476D01*
X14545952Y-14344476D01*
X14726905Y-14344476D02*
X14707857Y-14334952D01*
X14698333Y-14315905D01*
X14698333Y-14144476D01*
X14879286Y-14334952D02*
X14860238Y-14344476D01*
X14822143Y-14344476D01*
X14803095Y-14334952D01*
X14793571Y-14315905D01*
X14793571Y-14239714D01*
X14803095Y-14220667D01*
X14822143Y-14211143D01*
X14860238Y-14211143D01*
X14879286Y-14220667D01*
X14888809Y-14239714D01*
X14888809Y-14258762D01*
X14793571Y-14277809D01*
X14965000Y-14334952D02*
X14984048Y-14344476D01*
X15022143Y-14344476D01*
X15041190Y-14334952D01*
X15050714Y-14315905D01*
X15050714Y-14306381D01*
X15041190Y-14287333D01*
X15022143Y-14277809D01*
X14993571Y-14277809D01*
X14974524Y-14268286D01*
X14965000Y-14249238D01*
X14965000Y-14239714D01*
X14974524Y-14220667D01*
X14993571Y-14211143D01*
X15022143Y-14211143D01*
X15041190Y-14220667D01*
X15117381Y-14420667D02*
X15126905Y-14411143D01*
X15145952Y-14382571D01*
X15155476Y-14363524D01*
X15165000Y-14334952D01*
X15174524Y-14287333D01*
X15174524Y-14249238D01*
X15165000Y-14201619D01*
X15155476Y-14173048D01*
X15145952Y-14154000D01*
X15126905Y-14125428D01*
X15117381Y-14115905D01*
D15*
X10147678Y-14535678D02*
X10147678Y-14500322D01*
X10112322Y-14500322D01*
X10112322Y-14535678D01*
X10147678Y-14535678D01*
D11*
X10450714Y-14408476D02*
X10469762Y-14408476D01*
X10488810Y-14418000D01*
X10498333Y-14427524D01*
X10507857Y-14446571D01*
X10517381Y-14484667D01*
X10517381Y-14532286D01*
X10507857Y-14570381D01*
X10498333Y-14589428D01*
X10488810Y-14598952D01*
X10469762Y-14608476D01*
X10450714Y-14608476D01*
X10431667Y-14598952D01*
X10422143Y-14589428D01*
X10412619Y-14570381D01*
X10403095Y-14532286D01*
X10403095Y-14484667D01*
X10412619Y-14446571D01*
X10422143Y-14427524D01*
X10431667Y-14418000D01*
X10450714Y-14408476D01*
X10603095Y-14589428D02*
X10612619Y-14598952D01*
X10603095Y-14608476D01*
X10593571Y-14598952D01*
X10603095Y-14589428D01*
X10603095Y-14608476D01*
X10793571Y-14408476D02*
X10698333Y-14408476D01*
X10688810Y-14503714D01*
X10698333Y-14494190D01*
X10717381Y-14484667D01*
X10765000Y-14484667D01*
X10784048Y-14494190D01*
X10793571Y-14503714D01*
X10803095Y-14522762D01*
X10803095Y-14570381D01*
X10793571Y-14589428D01*
X10784048Y-14598952D01*
X10765000Y-14608476D01*
X10717381Y-14608476D01*
X10698333Y-14598952D01*
X10688810Y-14589428D01*
X10926905Y-14408476D02*
X10945952Y-14408476D01*
X10965000Y-14418000D01*
X10974524Y-14427524D01*
X10984048Y-14446571D01*
X10993571Y-14484667D01*
X10993571Y-14532286D01*
X10984048Y-14570381D01*
X10974524Y-14589428D01*
X10965000Y-14598952D01*
X10945952Y-14608476D01*
X10926905Y-14608476D01*
X10907857Y-14598952D01*
X10898333Y-14589428D01*
X10888810Y-14570381D01*
X10879286Y-14532286D01*
X10879286Y-14484667D01*
X10888810Y-14446571D01*
X10898333Y-14427524D01*
X10907857Y-14418000D01*
X10926905Y-14408476D01*
X11117381Y-14408476D02*
X11136429Y-14408476D01*
X11155476Y-14418000D01*
X11165000Y-14427524D01*
X11174524Y-14446571D01*
X11184048Y-14484667D01*
X11184048Y-14532286D01*
X11174524Y-14570381D01*
X11165000Y-14589428D01*
X11155476Y-14598952D01*
X11136429Y-14608476D01*
X11117381Y-14608476D01*
X11098333Y-14598952D01*
X11088810Y-14589428D01*
X11079286Y-14570381D01*
X11069762Y-14532286D01*
X11069762Y-14484667D01*
X11079286Y-14446571D01*
X11088810Y-14427524D01*
X11098333Y-14418000D01*
X11117381Y-14408476D01*
X11269762Y-14608476D02*
X11269762Y-14475143D01*
X11269762Y-14494190D02*
X11279286Y-14484667D01*
X11298333Y-14475143D01*
X11326905Y-14475143D01*
X11345952Y-14484667D01*
X11355476Y-14503714D01*
X11355476Y-14608476D01*
X11355476Y-14503714D02*
X11365000Y-14484667D01*
X11384048Y-14475143D01*
X11412619Y-14475143D01*
X11431667Y-14484667D01*
X11441190Y-14503714D01*
X11441190Y-14608476D01*
X11536428Y-14608476D02*
X11536428Y-14475143D01*
X11536428Y-14494190D02*
X11545952Y-14484667D01*
X11565000Y-14475143D01*
X11593571Y-14475143D01*
X11612619Y-14484667D01*
X11622143Y-14503714D01*
X11622143Y-14608476D01*
X11622143Y-14503714D02*
X11631667Y-14484667D01*
X11650714Y-14475143D01*
X11679286Y-14475143D01*
X11698333Y-14484667D01*
X11707857Y-14503714D01*
X11707857Y-14608476D01*
X12098333Y-14398952D02*
X11926905Y-14656095D01*
X12355476Y-14408476D02*
X12374524Y-14408476D01*
X12393571Y-14418000D01*
X12403095Y-14427524D01*
X12412619Y-14446571D01*
X12422143Y-14484667D01*
X12422143Y-14532286D01*
X12412619Y-14570381D01*
X12403095Y-14589428D01*
X12393571Y-14598952D01*
X12374524Y-14608476D01*
X12355476Y-14608476D01*
X12336428Y-14598952D01*
X12326905Y-14589428D01*
X12317381Y-14570381D01*
X12307857Y-14532286D01*
X12307857Y-14484667D01*
X12317381Y-14446571D01*
X12326905Y-14427524D01*
X12336428Y-14418000D01*
X12355476Y-14408476D01*
X12507857Y-14589428D02*
X12517381Y-14598952D01*
X12507857Y-14608476D01*
X12498333Y-14598952D01*
X12507857Y-14589428D01*
X12507857Y-14608476D01*
X12641190Y-14408476D02*
X12660238Y-14408476D01*
X12679286Y-14418000D01*
X12688809Y-14427524D01*
X12698333Y-14446571D01*
X12707857Y-14484667D01*
X12707857Y-14532286D01*
X12698333Y-14570381D01*
X12688809Y-14589428D01*
X12679286Y-14598952D01*
X12660238Y-14608476D01*
X12641190Y-14608476D01*
X12622143Y-14598952D01*
X12612619Y-14589428D01*
X12603095Y-14570381D01*
X12593571Y-14532286D01*
X12593571Y-14484667D01*
X12603095Y-14446571D01*
X12612619Y-14427524D01*
X12622143Y-14418000D01*
X12641190Y-14408476D01*
X12898333Y-14608476D02*
X12784048Y-14608476D01*
X12841190Y-14608476D02*
X12841190Y-14408476D01*
X12822143Y-14437048D01*
X12803095Y-14456095D01*
X12784048Y-14465619D01*
X12993571Y-14608476D02*
X13031667Y-14608476D01*
X13050714Y-14598952D01*
X13060238Y-14589428D01*
X13079286Y-14560857D01*
X13088809Y-14522762D01*
X13088809Y-14446571D01*
X13079286Y-14427524D01*
X13069762Y-14418000D01*
X13050714Y-14408476D01*
X13012619Y-14408476D01*
X12993571Y-14418000D01*
X12984048Y-14427524D01*
X12974524Y-14446571D01*
X12974524Y-14494190D01*
X12984048Y-14513238D01*
X12993571Y-14522762D01*
X13012619Y-14532286D01*
X13050714Y-14532286D01*
X13069762Y-14522762D01*
X13079286Y-14513238D01*
X13088809Y-14494190D01*
X13155476Y-14408476D02*
X13288809Y-14408476D01*
X13203095Y-14608476D01*
X13355476Y-14408476D02*
X13355476Y-14446571D01*
X13431667Y-14408476D02*
X13431667Y-14446571D01*
X13726905Y-14684667D02*
X13717381Y-14675143D01*
X13698333Y-14646571D01*
X13688809Y-14627524D01*
X13679286Y-14598952D01*
X13669762Y-14551333D01*
X13669762Y-14513238D01*
X13679286Y-14465619D01*
X13688809Y-14437048D01*
X13698333Y-14418000D01*
X13717381Y-14389428D01*
X13726905Y-14379905D01*
X13793571Y-14427524D02*
X13803095Y-14418000D01*
X13822143Y-14408476D01*
X13869762Y-14408476D01*
X13888809Y-14418000D01*
X13898333Y-14427524D01*
X13907857Y-14446571D01*
X13907857Y-14465619D01*
X13898333Y-14494190D01*
X13784048Y-14608476D01*
X13907857Y-14608476D01*
X14098333Y-14608476D02*
X13984048Y-14608476D01*
X14041190Y-14608476D02*
X14041190Y-14408476D01*
X14022143Y-14437048D01*
X14003095Y-14456095D01*
X13984048Y-14465619D01*
X14336428Y-14608476D02*
X14336428Y-14408476D01*
X14422143Y-14608476D02*
X14422143Y-14503714D01*
X14412619Y-14484667D01*
X14393571Y-14475143D01*
X14365000Y-14475143D01*
X14345952Y-14484667D01*
X14336428Y-14494190D01*
X14545952Y-14608476D02*
X14526905Y-14598952D01*
X14517381Y-14589428D01*
X14507857Y-14570381D01*
X14507857Y-14513238D01*
X14517381Y-14494190D01*
X14526905Y-14484667D01*
X14545952Y-14475143D01*
X14574524Y-14475143D01*
X14593571Y-14484667D01*
X14603095Y-14494190D01*
X14612619Y-14513238D01*
X14612619Y-14570381D01*
X14603095Y-14589428D01*
X14593571Y-14598952D01*
X14574524Y-14608476D01*
X14545952Y-14608476D01*
X14726905Y-14608476D02*
X14707857Y-14598952D01*
X14698333Y-14579905D01*
X14698333Y-14408476D01*
X14879286Y-14598952D02*
X14860238Y-14608476D01*
X14822143Y-14608476D01*
X14803095Y-14598952D01*
X14793571Y-14579905D01*
X14793571Y-14503714D01*
X14803095Y-14484667D01*
X14822143Y-14475143D01*
X14860238Y-14475143D01*
X14879286Y-14484667D01*
X14888809Y-14503714D01*
X14888809Y-14522762D01*
X14793571Y-14541809D01*
X14965000Y-14598952D02*
X14984048Y-14608476D01*
X15022143Y-14608476D01*
X15041190Y-14598952D01*
X15050714Y-14579905D01*
X15050714Y-14570381D01*
X15041190Y-14551333D01*
X15022143Y-14541809D01*
X14993571Y-14541809D01*
X14974524Y-14532286D01*
X14965000Y-14513238D01*
X14965000Y-14503714D01*
X14974524Y-14484667D01*
X14993571Y-14475143D01*
X15022143Y-14475143D01*
X15041190Y-14484667D01*
X15117381Y-14684667D02*
X15126905Y-14675143D01*
X15145952Y-14646571D01*
X15155476Y-14627524D01*
X15165000Y-14598952D01*
X15174524Y-14551333D01*
X15174524Y-14513238D01*
X15165000Y-14465619D01*
X15155476Y-14437048D01*
X15145952Y-14418000D01*
X15126905Y-14389428D01*
X15117381Y-14379905D01*
D16*
X10125000Y-14812000D02*
X10155000Y-14782000D01*
X10125000Y-14752000D01*
X10095000Y-14782000D01*
X10125000Y-14812000D01*
D11*
X10450714Y-14672476D02*
X10469762Y-14672476D01*
X10488810Y-14682000D01*
X10498333Y-14691524D01*
X10507857Y-14710571D01*
X10517381Y-14748667D01*
X10517381Y-14796286D01*
X10507857Y-14834381D01*
X10498333Y-14853428D01*
X10488810Y-14862952D01*
X10469762Y-14872476D01*
X10450714Y-14872476D01*
X10431667Y-14862952D01*
X10422143Y-14853428D01*
X10412619Y-14834381D01*
X10403095Y-14796286D01*
X10403095Y-14748667D01*
X10412619Y-14710571D01*
X10422143Y-14691524D01*
X10431667Y-14682000D01*
X10450714Y-14672476D01*
X10603095Y-14853428D02*
X10612619Y-14862952D01*
X10603095Y-14872476D01*
X10593571Y-14862952D01*
X10603095Y-14853428D01*
X10603095Y-14872476D01*
X10784048Y-14672476D02*
X10745952Y-14672476D01*
X10726905Y-14682000D01*
X10717381Y-14691524D01*
X10698333Y-14720095D01*
X10688810Y-14758190D01*
X10688810Y-14834381D01*
X10698333Y-14853428D01*
X10707857Y-14862952D01*
X10726905Y-14872476D01*
X10765000Y-14872476D01*
X10784048Y-14862952D01*
X10793571Y-14853428D01*
X10803095Y-14834381D01*
X10803095Y-14786762D01*
X10793571Y-14767714D01*
X10784048Y-14758190D01*
X10765000Y-14748667D01*
X10726905Y-14748667D01*
X10707857Y-14758190D01*
X10698333Y-14767714D01*
X10688810Y-14786762D01*
X10926905Y-14672476D02*
X10945952Y-14672476D01*
X10965000Y-14682000D01*
X10974524Y-14691524D01*
X10984048Y-14710571D01*
X10993571Y-14748667D01*
X10993571Y-14796286D01*
X10984048Y-14834381D01*
X10974524Y-14853428D01*
X10965000Y-14862952D01*
X10945952Y-14872476D01*
X10926905Y-14872476D01*
X10907857Y-14862952D01*
X10898333Y-14853428D01*
X10888810Y-14834381D01*
X10879286Y-14796286D01*
X10879286Y-14748667D01*
X10888810Y-14710571D01*
X10898333Y-14691524D01*
X10907857Y-14682000D01*
X10926905Y-14672476D01*
X11117381Y-14672476D02*
X11136429Y-14672476D01*
X11155476Y-14682000D01*
X11165000Y-14691524D01*
X11174524Y-14710571D01*
X11184048Y-14748667D01*
X11184048Y-14796286D01*
X11174524Y-14834381D01*
X11165000Y-14853428D01*
X11155476Y-14862952D01*
X11136429Y-14872476D01*
X11117381Y-14872476D01*
X11098333Y-14862952D01*
X11088810Y-14853428D01*
X11079286Y-14834381D01*
X11069762Y-14796286D01*
X11069762Y-14748667D01*
X11079286Y-14710571D01*
X11088810Y-14691524D01*
X11098333Y-14682000D01*
X11117381Y-14672476D01*
X11269762Y-14872476D02*
X11269762Y-14739143D01*
X11269762Y-14758190D02*
X11279286Y-14748667D01*
X11298333Y-14739143D01*
X11326905Y-14739143D01*
X11345952Y-14748667D01*
X11355476Y-14767714D01*
X11355476Y-14872476D01*
X11355476Y-14767714D02*
X11365000Y-14748667D01*
X11384048Y-14739143D01*
X11412619Y-14739143D01*
X11431667Y-14748667D01*
X11441190Y-14767714D01*
X11441190Y-14872476D01*
X11536428Y-14872476D02*
X11536428Y-14739143D01*
X11536428Y-14758190D02*
X11545952Y-14748667D01*
X11565000Y-14739143D01*
X11593571Y-14739143D01*
X11612619Y-14748667D01*
X11622143Y-14767714D01*
X11622143Y-14872476D01*
X11622143Y-14767714D02*
X11631667Y-14748667D01*
X11650714Y-14739143D01*
X11679286Y-14739143D01*
X11698333Y-14748667D01*
X11707857Y-14767714D01*
X11707857Y-14872476D01*
X12098333Y-14662952D02*
X11926905Y-14920095D01*
X12355476Y-14672476D02*
X12374524Y-14672476D01*
X12393571Y-14682000D01*
X12403095Y-14691524D01*
X12412619Y-14710571D01*
X12422143Y-14748667D01*
X12422143Y-14796286D01*
X12412619Y-14834381D01*
X12403095Y-14853428D01*
X12393571Y-14862952D01*
X12374524Y-14872476D01*
X12355476Y-14872476D01*
X12336428Y-14862952D01*
X12326905Y-14853428D01*
X12317381Y-14834381D01*
X12307857Y-14796286D01*
X12307857Y-14748667D01*
X12317381Y-14710571D01*
X12326905Y-14691524D01*
X12336428Y-14682000D01*
X12355476Y-14672476D01*
X12507857Y-14853428D02*
X12517381Y-14862952D01*
X12507857Y-14872476D01*
X12498333Y-14862952D01*
X12507857Y-14853428D01*
X12507857Y-14872476D01*
X12641190Y-14672476D02*
X12660238Y-14672476D01*
X12679286Y-14682000D01*
X12688809Y-14691524D01*
X12698333Y-14710571D01*
X12707857Y-14748667D01*
X12707857Y-14796286D01*
X12698333Y-14834381D01*
X12688809Y-14853428D01*
X12679286Y-14862952D01*
X12660238Y-14872476D01*
X12641190Y-14872476D01*
X12622143Y-14862952D01*
X12612619Y-14853428D01*
X12603095Y-14834381D01*
X12593571Y-14796286D01*
X12593571Y-14748667D01*
X12603095Y-14710571D01*
X12612619Y-14691524D01*
X12622143Y-14682000D01*
X12641190Y-14672476D01*
X12784048Y-14691524D02*
X12793571Y-14682000D01*
X12812619Y-14672476D01*
X12860238Y-14672476D01*
X12879286Y-14682000D01*
X12888809Y-14691524D01*
X12898333Y-14710571D01*
X12898333Y-14729619D01*
X12888809Y-14758190D01*
X12774524Y-14872476D01*
X12898333Y-14872476D01*
X12965000Y-14672476D02*
X13088809Y-14672476D01*
X13022143Y-14748667D01*
X13050714Y-14748667D01*
X13069762Y-14758190D01*
X13079286Y-14767714D01*
X13088809Y-14786762D01*
X13088809Y-14834381D01*
X13079286Y-14853428D01*
X13069762Y-14862952D01*
X13050714Y-14872476D01*
X12993571Y-14872476D01*
X12974524Y-14862952D01*
X12965000Y-14853428D01*
X13260238Y-14672476D02*
X13222143Y-14672476D01*
X13203095Y-14682000D01*
X13193571Y-14691524D01*
X13174524Y-14720095D01*
X13165000Y-14758190D01*
X13165000Y-14834381D01*
X13174524Y-14853428D01*
X13184048Y-14862952D01*
X13203095Y-14872476D01*
X13241190Y-14872476D01*
X13260238Y-14862952D01*
X13269762Y-14853428D01*
X13279286Y-14834381D01*
X13279286Y-14786762D01*
X13269762Y-14767714D01*
X13260238Y-14758190D01*
X13241190Y-14748667D01*
X13203095Y-14748667D01*
X13184048Y-14758190D01*
X13174524Y-14767714D01*
X13165000Y-14786762D01*
X13355476Y-14672476D02*
X13355476Y-14710571D01*
X13431667Y-14672476D02*
X13431667Y-14710571D01*
X13726905Y-14948667D02*
X13717381Y-14939143D01*
X13698333Y-14910571D01*
X13688809Y-14891524D01*
X13679286Y-14862952D01*
X13669762Y-14815333D01*
X13669762Y-14777238D01*
X13679286Y-14729619D01*
X13688809Y-14701048D01*
X13698333Y-14682000D01*
X13717381Y-14653428D01*
X13726905Y-14643905D01*
X13841190Y-14672476D02*
X13860238Y-14672476D01*
X13879286Y-14682000D01*
X13888809Y-14691524D01*
X13898333Y-14710571D01*
X13907857Y-14748667D01*
X13907857Y-14796286D01*
X13898333Y-14834381D01*
X13888809Y-14853428D01*
X13879286Y-14862952D01*
X13860238Y-14872476D01*
X13841190Y-14872476D01*
X13822143Y-14862952D01*
X13812619Y-14853428D01*
X13803095Y-14834381D01*
X13793571Y-14796286D01*
X13793571Y-14748667D01*
X13803095Y-14710571D01*
X13812619Y-14691524D01*
X13822143Y-14682000D01*
X13841190Y-14672476D01*
X14145952Y-14872476D02*
X14145952Y-14672476D01*
X14231667Y-14872476D02*
X14231667Y-14767714D01*
X14222143Y-14748667D01*
X14203095Y-14739143D01*
X14174524Y-14739143D01*
X14155476Y-14748667D01*
X14145952Y-14758190D01*
X14355476Y-14872476D02*
X14336428Y-14862952D01*
X14326905Y-14853428D01*
X14317381Y-14834381D01*
X14317381Y-14777238D01*
X14326905Y-14758190D01*
X14336428Y-14748667D01*
X14355476Y-14739143D01*
X14384048Y-14739143D01*
X14403095Y-14748667D01*
X14412619Y-14758190D01*
X14422143Y-14777238D01*
X14422143Y-14834381D01*
X14412619Y-14853428D01*
X14403095Y-14862952D01*
X14384048Y-14872476D01*
X14355476Y-14872476D01*
X14536428Y-14872476D02*
X14517381Y-14862952D01*
X14507857Y-14843905D01*
X14507857Y-14672476D01*
X14688809Y-14862952D02*
X14669762Y-14872476D01*
X14631667Y-14872476D01*
X14612619Y-14862952D01*
X14603095Y-14843905D01*
X14603095Y-14767714D01*
X14612619Y-14748667D01*
X14631667Y-14739143D01*
X14669762Y-14739143D01*
X14688809Y-14748667D01*
X14698333Y-14767714D01*
X14698333Y-14786762D01*
X14603095Y-14805809D01*
X14774524Y-14862952D02*
X14793571Y-14872476D01*
X14831667Y-14872476D01*
X14850714Y-14862952D01*
X14860238Y-14843905D01*
X14860238Y-14834381D01*
X14850714Y-14815333D01*
X14831667Y-14805809D01*
X14803095Y-14805809D01*
X14784048Y-14796286D01*
X14774524Y-14777238D01*
X14774524Y-14767714D01*
X14784048Y-14748667D01*
X14803095Y-14739143D01*
X14831667Y-14739143D01*
X14850714Y-14748667D01*
X15098333Y-14796286D02*
X15250714Y-14796286D01*
X15174524Y-14872476D02*
X15174524Y-14720095D01*
X15488809Y-14691524D02*
X15498333Y-14682000D01*
X15517381Y-14672476D01*
X15565000Y-14672476D01*
X15584048Y-14682000D01*
X15593571Y-14691524D01*
X15603095Y-14710571D01*
X15603095Y-14729619D01*
X15593571Y-14758190D01*
X15479286Y-14872476D01*
X15603095Y-14872476D01*
X15831667Y-14862952D02*
X15850714Y-14872476D01*
X15888809Y-14872476D01*
X15907857Y-14862952D01*
X15917381Y-14843905D01*
X15917381Y-14834381D01*
X15907857Y-14815333D01*
X15888809Y-14805809D01*
X15860238Y-14805809D01*
X15841190Y-14796286D01*
X15831667Y-14777238D01*
X15831667Y-14767714D01*
X15841190Y-14748667D01*
X15860238Y-14739143D01*
X15888809Y-14739143D01*
X15907857Y-14748667D01*
X16031667Y-14872476D02*
X16012619Y-14862952D01*
X16003095Y-14843905D01*
X16003095Y-14672476D01*
X16136428Y-14872476D02*
X16117381Y-14862952D01*
X16107857Y-14853428D01*
X16098333Y-14834381D01*
X16098333Y-14777238D01*
X16107857Y-14758190D01*
X16117381Y-14748667D01*
X16136428Y-14739143D01*
X16165000Y-14739143D01*
X16184048Y-14748667D01*
X16193571Y-14758190D01*
X16203095Y-14777238D01*
X16203095Y-14834381D01*
X16193571Y-14853428D01*
X16184048Y-14862952D01*
X16165000Y-14872476D01*
X16136428Y-14872476D01*
X16260238Y-14739143D02*
X16336428Y-14739143D01*
X16288809Y-14672476D02*
X16288809Y-14843905D01*
X16298333Y-14862952D01*
X16317381Y-14872476D01*
X16336428Y-14872476D01*
X16393571Y-14862952D02*
X16412619Y-14872476D01*
X16450714Y-14872476D01*
X16469762Y-14862952D01*
X16479286Y-14843905D01*
X16479286Y-14834381D01*
X16469762Y-14815333D01*
X16450714Y-14805809D01*
X16422143Y-14805809D01*
X16403095Y-14796286D01*
X16393571Y-14777238D01*
X16393571Y-14767714D01*
X16403095Y-14748667D01*
X16422143Y-14739143D01*
X16450714Y-14739143D01*
X16469762Y-14748667D01*
X16545952Y-14948667D02*
X16555476Y-14939143D01*
X16574524Y-14910571D01*
X16584048Y-14891524D01*
X16593571Y-14862952D01*
X16603095Y-14815333D01*
X16603095Y-14777238D01*
X16593571Y-14729619D01*
X16584048Y-14701048D01*
X16574524Y-14682000D01*
X16555476Y-14653428D01*
X16545952Y-14643905D01*
D17*
X10070000Y-15003500D02*
X10155000Y-15088500D01*
X10155000Y-15003500D02*
X10070000Y-15088500D01*
X10155000Y-15046000D02*
G75*
G03*
X10155000Y-15046000I-42500J0D01*
G01*
D11*
X10450714Y-14936476D02*
X10469762Y-14936476D01*
X10488810Y-14946000D01*
X10498333Y-14955524D01*
X10507857Y-14974571D01*
X10517381Y-15012667D01*
X10517381Y-15060286D01*
X10507857Y-15098381D01*
X10498333Y-15117428D01*
X10488810Y-15126952D01*
X10469762Y-15136476D01*
X10450714Y-15136476D01*
X10431667Y-15126952D01*
X10422143Y-15117428D01*
X10412619Y-15098381D01*
X10403095Y-15060286D01*
X10403095Y-15012667D01*
X10412619Y-14974571D01*
X10422143Y-14955524D01*
X10431667Y-14946000D01*
X10450714Y-14936476D01*
X10603095Y-15117428D02*
X10612619Y-15126952D01*
X10603095Y-15136476D01*
X10593571Y-15126952D01*
X10603095Y-15117428D01*
X10603095Y-15136476D01*
X10726905Y-15022190D02*
X10707857Y-15012667D01*
X10698333Y-15003143D01*
X10688810Y-14984095D01*
X10688810Y-14974571D01*
X10698333Y-14955524D01*
X10707857Y-14946000D01*
X10726905Y-14936476D01*
X10765000Y-14936476D01*
X10784048Y-14946000D01*
X10793571Y-14955524D01*
X10803095Y-14974571D01*
X10803095Y-14984095D01*
X10793571Y-15003143D01*
X10784048Y-15012667D01*
X10765000Y-15022190D01*
X10726905Y-15022190D01*
X10707857Y-15031714D01*
X10698333Y-15041238D01*
X10688810Y-15060286D01*
X10688810Y-15098381D01*
X10698333Y-15117428D01*
X10707857Y-15126952D01*
X10726905Y-15136476D01*
X10765000Y-15136476D01*
X10784048Y-15126952D01*
X10793571Y-15117428D01*
X10803095Y-15098381D01*
X10803095Y-15060286D01*
X10793571Y-15041238D01*
X10784048Y-15031714D01*
X10765000Y-15022190D01*
X10984048Y-14936476D02*
X10888810Y-14936476D01*
X10879286Y-15031714D01*
X10888810Y-15022190D01*
X10907857Y-15012667D01*
X10955476Y-15012667D01*
X10974524Y-15022190D01*
X10984048Y-15031714D01*
X10993571Y-15050762D01*
X10993571Y-15098381D01*
X10984048Y-15117428D01*
X10974524Y-15126952D01*
X10955476Y-15136476D01*
X10907857Y-15136476D01*
X10888810Y-15126952D01*
X10879286Y-15117428D01*
X11117381Y-14936476D02*
X11136429Y-14936476D01*
X11155476Y-14946000D01*
X11165000Y-14955524D01*
X11174524Y-14974571D01*
X11184048Y-15012667D01*
X11184048Y-15060286D01*
X11174524Y-15098381D01*
X11165000Y-15117428D01*
X11155476Y-15126952D01*
X11136429Y-15136476D01*
X11117381Y-15136476D01*
X11098333Y-15126952D01*
X11088810Y-15117428D01*
X11079286Y-15098381D01*
X11069762Y-15060286D01*
X11069762Y-15012667D01*
X11079286Y-14974571D01*
X11088810Y-14955524D01*
X11098333Y-14946000D01*
X11117381Y-14936476D01*
X11269762Y-15136476D02*
X11269762Y-15003143D01*
X11269762Y-15022190D02*
X11279286Y-15012667D01*
X11298333Y-15003143D01*
X11326905Y-15003143D01*
X11345952Y-15012667D01*
X11355476Y-15031714D01*
X11355476Y-15136476D01*
X11355476Y-15031714D02*
X11365000Y-15012667D01*
X11384048Y-15003143D01*
X11412619Y-15003143D01*
X11431667Y-15012667D01*
X11441190Y-15031714D01*
X11441190Y-15136476D01*
X11536428Y-15136476D02*
X11536428Y-15003143D01*
X11536428Y-15022190D02*
X11545952Y-15012667D01*
X11565000Y-15003143D01*
X11593571Y-15003143D01*
X11612619Y-15012667D01*
X11622143Y-15031714D01*
X11622143Y-15136476D01*
X11622143Y-15031714D02*
X11631667Y-15012667D01*
X11650714Y-15003143D01*
X11679286Y-15003143D01*
X11698333Y-15012667D01*
X11707857Y-15031714D01*
X11707857Y-15136476D01*
X12098333Y-14926952D02*
X11926905Y-15184095D01*
X12355476Y-14936476D02*
X12374524Y-14936476D01*
X12393571Y-14946000D01*
X12403095Y-14955524D01*
X12412619Y-14974571D01*
X12422143Y-15012667D01*
X12422143Y-15060286D01*
X12412619Y-15098381D01*
X12403095Y-15117428D01*
X12393571Y-15126952D01*
X12374524Y-15136476D01*
X12355476Y-15136476D01*
X12336428Y-15126952D01*
X12326905Y-15117428D01*
X12317381Y-15098381D01*
X12307857Y-15060286D01*
X12307857Y-15012667D01*
X12317381Y-14974571D01*
X12326905Y-14955524D01*
X12336428Y-14946000D01*
X12355476Y-14936476D01*
X12507857Y-15117428D02*
X12517381Y-15126952D01*
X12507857Y-15136476D01*
X12498333Y-15126952D01*
X12507857Y-15117428D01*
X12507857Y-15136476D01*
X12641190Y-14936476D02*
X12660238Y-14936476D01*
X12679286Y-14946000D01*
X12688809Y-14955524D01*
X12698333Y-14974571D01*
X12707857Y-15012667D01*
X12707857Y-15060286D01*
X12698333Y-15098381D01*
X12688809Y-15117428D01*
X12679286Y-15126952D01*
X12660238Y-15136476D01*
X12641190Y-15136476D01*
X12622143Y-15126952D01*
X12612619Y-15117428D01*
X12603095Y-15098381D01*
X12593571Y-15060286D01*
X12593571Y-15012667D01*
X12603095Y-14974571D01*
X12612619Y-14955524D01*
X12622143Y-14946000D01*
X12641190Y-14936476D01*
X12774524Y-14936476D02*
X12898333Y-14936476D01*
X12831667Y-15012667D01*
X12860238Y-15012667D01*
X12879286Y-15022190D01*
X12888809Y-15031714D01*
X12898333Y-15050762D01*
X12898333Y-15098381D01*
X12888809Y-15117428D01*
X12879286Y-15126952D01*
X12860238Y-15136476D01*
X12803095Y-15136476D01*
X12784048Y-15126952D01*
X12774524Y-15117428D01*
X12965000Y-14936476D02*
X13088809Y-14936476D01*
X13022143Y-15012667D01*
X13050714Y-15012667D01*
X13069762Y-15022190D01*
X13079286Y-15031714D01*
X13088809Y-15050762D01*
X13088809Y-15098381D01*
X13079286Y-15117428D01*
X13069762Y-15126952D01*
X13050714Y-15136476D01*
X12993571Y-15136476D01*
X12974524Y-15126952D01*
X12965000Y-15117428D01*
X13269762Y-14936476D02*
X13174524Y-14936476D01*
X13165000Y-15031714D01*
X13174524Y-15022190D01*
X13193571Y-15012667D01*
X13241190Y-15012667D01*
X13260238Y-15022190D01*
X13269762Y-15031714D01*
X13279286Y-15050762D01*
X13279286Y-15098381D01*
X13269762Y-15117428D01*
X13260238Y-15126952D01*
X13241190Y-15136476D01*
X13193571Y-15136476D01*
X13174524Y-15126952D01*
X13165000Y-15117428D01*
X13355476Y-14936476D02*
X13355476Y-14974571D01*
X13431667Y-14936476D02*
X13431667Y-14974571D01*
X13726905Y-15212667D02*
X13717381Y-15203143D01*
X13698333Y-15174571D01*
X13688809Y-15155524D01*
X13679286Y-15126952D01*
X13669762Y-15079333D01*
X13669762Y-15041238D01*
X13679286Y-14993619D01*
X13688809Y-14965048D01*
X13698333Y-14946000D01*
X13717381Y-14917428D01*
X13726905Y-14907905D01*
X13793571Y-14955524D02*
X13803095Y-14946000D01*
X13822143Y-14936476D01*
X13869762Y-14936476D01*
X13888809Y-14946000D01*
X13898333Y-14955524D01*
X13907857Y-14974571D01*
X13907857Y-14993619D01*
X13898333Y-15022190D01*
X13784048Y-15136476D01*
X13907857Y-15136476D01*
X14145952Y-15136476D02*
X14145952Y-14936476D01*
X14231667Y-15136476D02*
X14231667Y-15031714D01*
X14222143Y-15012667D01*
X14203095Y-15003143D01*
X14174524Y-15003143D01*
X14155476Y-15012667D01*
X14145952Y-15022190D01*
X14355476Y-15136476D02*
X14336428Y-15126952D01*
X14326905Y-15117428D01*
X14317381Y-15098381D01*
X14317381Y-15041238D01*
X14326905Y-15022190D01*
X14336428Y-15012667D01*
X14355476Y-15003143D01*
X14384048Y-15003143D01*
X14403095Y-15012667D01*
X14412619Y-15022190D01*
X14422143Y-15041238D01*
X14422143Y-15098381D01*
X14412619Y-15117428D01*
X14403095Y-15126952D01*
X14384048Y-15136476D01*
X14355476Y-15136476D01*
X14536428Y-15136476D02*
X14517381Y-15126952D01*
X14507857Y-15107905D01*
X14507857Y-14936476D01*
X14688809Y-15126952D02*
X14669762Y-15136476D01*
X14631667Y-15136476D01*
X14612619Y-15126952D01*
X14603095Y-15107905D01*
X14603095Y-15031714D01*
X14612619Y-15012667D01*
X14631667Y-15003143D01*
X14669762Y-15003143D01*
X14688809Y-15012667D01*
X14698333Y-15031714D01*
X14698333Y-15050762D01*
X14603095Y-15069809D01*
X14774524Y-15126952D02*
X14793571Y-15136476D01*
X14831667Y-15136476D01*
X14850714Y-15126952D01*
X14860238Y-15107905D01*
X14860238Y-15098381D01*
X14850714Y-15079333D01*
X14831667Y-15069809D01*
X14803095Y-15069809D01*
X14784048Y-15060286D01*
X14774524Y-15041238D01*
X14774524Y-15031714D01*
X14784048Y-15012667D01*
X14803095Y-15003143D01*
X14831667Y-15003143D01*
X14850714Y-15012667D01*
X14926905Y-15212667D02*
X14936428Y-15203143D01*
X14955476Y-15174571D01*
X14965000Y-15155524D01*
X14974524Y-15126952D01*
X14984048Y-15079333D01*
X14984048Y-15041238D01*
X14974524Y-14993619D01*
X14965000Y-14965048D01*
X14955476Y-14946000D01*
X14936428Y-14917428D01*
X14926905Y-14907905D01*
D18*
X10065000Y-15265000D02*
X10155000Y-15355000D01*
X10155000Y-15265000D02*
X10065000Y-15355000D01*
X10110000Y-15265000D02*
X10110000Y-15355000D01*
X10065000Y-15310000D02*
X10155000Y-15310000D01*
D11*
X10450714Y-15200476D02*
X10469762Y-15200476D01*
X10488810Y-15210000D01*
X10498333Y-15219524D01*
X10507857Y-15238571D01*
X10517381Y-15276667D01*
X10517381Y-15324286D01*
X10507857Y-15362381D01*
X10498333Y-15381428D01*
X10488810Y-15390952D01*
X10469762Y-15400476D01*
X10450714Y-15400476D01*
X10431667Y-15390952D01*
X10422143Y-15381428D01*
X10412619Y-15362381D01*
X10403095Y-15324286D01*
X10403095Y-15276667D01*
X10412619Y-15238571D01*
X10422143Y-15219524D01*
X10431667Y-15210000D01*
X10450714Y-15200476D01*
X10603095Y-15381428D02*
X10612619Y-15390952D01*
X10603095Y-15400476D01*
X10593571Y-15390952D01*
X10603095Y-15381428D01*
X10603095Y-15400476D01*
X10707857Y-15400476D02*
X10745952Y-15400476D01*
X10765000Y-15390952D01*
X10774524Y-15381428D01*
X10793571Y-15352857D01*
X10803095Y-15314762D01*
X10803095Y-15238571D01*
X10793571Y-15219524D01*
X10784048Y-15210000D01*
X10765000Y-15200476D01*
X10726905Y-15200476D01*
X10707857Y-15210000D01*
X10698333Y-15219524D01*
X10688810Y-15238571D01*
X10688810Y-15286190D01*
X10698333Y-15305238D01*
X10707857Y-15314762D01*
X10726905Y-15324286D01*
X10765000Y-15324286D01*
X10784048Y-15314762D01*
X10793571Y-15305238D01*
X10803095Y-15286190D01*
X10926905Y-15200476D02*
X10945952Y-15200476D01*
X10965000Y-15210000D01*
X10974524Y-15219524D01*
X10984048Y-15238571D01*
X10993571Y-15276667D01*
X10993571Y-15324286D01*
X10984048Y-15362381D01*
X10974524Y-15381428D01*
X10965000Y-15390952D01*
X10945952Y-15400476D01*
X10926905Y-15400476D01*
X10907857Y-15390952D01*
X10898333Y-15381428D01*
X10888810Y-15362381D01*
X10879286Y-15324286D01*
X10879286Y-15276667D01*
X10888810Y-15238571D01*
X10898333Y-15219524D01*
X10907857Y-15210000D01*
X10926905Y-15200476D01*
X11117381Y-15200476D02*
X11136429Y-15200476D01*
X11155476Y-15210000D01*
X11165000Y-15219524D01*
X11174524Y-15238571D01*
X11184048Y-15276667D01*
X11184048Y-15324286D01*
X11174524Y-15362381D01*
X11165000Y-15381428D01*
X11155476Y-15390952D01*
X11136429Y-15400476D01*
X11117381Y-15400476D01*
X11098333Y-15390952D01*
X11088810Y-15381428D01*
X11079286Y-15362381D01*
X11069762Y-15324286D01*
X11069762Y-15276667D01*
X11079286Y-15238571D01*
X11088810Y-15219524D01*
X11098333Y-15210000D01*
X11117381Y-15200476D01*
X11269762Y-15400476D02*
X11269762Y-15267143D01*
X11269762Y-15286190D02*
X11279286Y-15276667D01*
X11298333Y-15267143D01*
X11326905Y-15267143D01*
X11345952Y-15276667D01*
X11355476Y-15295714D01*
X11355476Y-15400476D01*
X11355476Y-15295714D02*
X11365000Y-15276667D01*
X11384048Y-15267143D01*
X11412619Y-15267143D01*
X11431667Y-15276667D01*
X11441190Y-15295714D01*
X11441190Y-15400476D01*
X11536428Y-15400476D02*
X11536428Y-15267143D01*
X11536428Y-15286190D02*
X11545952Y-15276667D01*
X11565000Y-15267143D01*
X11593571Y-15267143D01*
X11612619Y-15276667D01*
X11622143Y-15295714D01*
X11622143Y-15400476D01*
X11622143Y-15295714D02*
X11631667Y-15276667D01*
X11650714Y-15267143D01*
X11679286Y-15267143D01*
X11698333Y-15276667D01*
X11707857Y-15295714D01*
X11707857Y-15400476D01*
X12098333Y-15190952D02*
X11926905Y-15448095D01*
X12355476Y-15200476D02*
X12374524Y-15200476D01*
X12393571Y-15210000D01*
X12403095Y-15219524D01*
X12412619Y-15238571D01*
X12422143Y-15276667D01*
X12422143Y-15324286D01*
X12412619Y-15362381D01*
X12403095Y-15381428D01*
X12393571Y-15390952D01*
X12374524Y-15400476D01*
X12355476Y-15400476D01*
X12336428Y-15390952D01*
X12326905Y-15381428D01*
X12317381Y-15362381D01*
X12307857Y-15324286D01*
X12307857Y-15276667D01*
X12317381Y-15238571D01*
X12326905Y-15219524D01*
X12336428Y-15210000D01*
X12355476Y-15200476D01*
X12507857Y-15381428D02*
X12517381Y-15390952D01*
X12507857Y-15400476D01*
X12498333Y-15390952D01*
X12507857Y-15381428D01*
X12507857Y-15400476D01*
X12641190Y-15200476D02*
X12660238Y-15200476D01*
X12679286Y-15210000D01*
X12688809Y-15219524D01*
X12698333Y-15238571D01*
X12707857Y-15276667D01*
X12707857Y-15324286D01*
X12698333Y-15362381D01*
X12688809Y-15381428D01*
X12679286Y-15390952D01*
X12660238Y-15400476D01*
X12641190Y-15400476D01*
X12622143Y-15390952D01*
X12612619Y-15381428D01*
X12603095Y-15362381D01*
X12593571Y-15324286D01*
X12593571Y-15276667D01*
X12603095Y-15238571D01*
X12612619Y-15219524D01*
X12622143Y-15210000D01*
X12641190Y-15200476D01*
X12774524Y-15200476D02*
X12898333Y-15200476D01*
X12831667Y-15276667D01*
X12860238Y-15276667D01*
X12879286Y-15286190D01*
X12888809Y-15295714D01*
X12898333Y-15314762D01*
X12898333Y-15362381D01*
X12888809Y-15381428D01*
X12879286Y-15390952D01*
X12860238Y-15400476D01*
X12803095Y-15400476D01*
X12784048Y-15390952D01*
X12774524Y-15381428D01*
X13079286Y-15200476D02*
X12984048Y-15200476D01*
X12974524Y-15295714D01*
X12984048Y-15286190D01*
X13003095Y-15276667D01*
X13050714Y-15276667D01*
X13069762Y-15286190D01*
X13079286Y-15295714D01*
X13088809Y-15314762D01*
X13088809Y-15362381D01*
X13079286Y-15381428D01*
X13069762Y-15390952D01*
X13050714Y-15400476D01*
X13003095Y-15400476D01*
X12984048Y-15390952D01*
X12974524Y-15381428D01*
X13260238Y-15267143D02*
X13260238Y-15400476D01*
X13212619Y-15190952D02*
X13165000Y-15333809D01*
X13288809Y-15333809D01*
X13355476Y-15200476D02*
X13355476Y-15238571D01*
X13431667Y-15200476D02*
X13431667Y-15238571D01*
X13726905Y-15476667D02*
X13717381Y-15467143D01*
X13698333Y-15438571D01*
X13688809Y-15419524D01*
X13679286Y-15390952D01*
X13669762Y-15343333D01*
X13669762Y-15305238D01*
X13679286Y-15257619D01*
X13688809Y-15229048D01*
X13698333Y-15210000D01*
X13717381Y-15181428D01*
X13726905Y-15171905D01*
X13888809Y-15267143D02*
X13888809Y-15400476D01*
X13841190Y-15190952D02*
X13793571Y-15333809D01*
X13917381Y-15333809D01*
X14145952Y-15400476D02*
X14145952Y-15200476D01*
X14231667Y-15400476D02*
X14231667Y-15295714D01*
X14222143Y-15276667D01*
X14203095Y-15267143D01*
X14174524Y-15267143D01*
X14155476Y-15276667D01*
X14145952Y-15286190D01*
X14355476Y-15400476D02*
X14336428Y-15390952D01*
X14326905Y-15381428D01*
X14317381Y-15362381D01*
X14317381Y-15305238D01*
X14326905Y-15286190D01*
X14336428Y-15276667D01*
X14355476Y-15267143D01*
X14384048Y-15267143D01*
X14403095Y-15276667D01*
X14412619Y-15286190D01*
X14422143Y-15305238D01*
X14422143Y-15362381D01*
X14412619Y-15381428D01*
X14403095Y-15390952D01*
X14384048Y-15400476D01*
X14355476Y-15400476D01*
X14536428Y-15400476D02*
X14517381Y-15390952D01*
X14507857Y-15371905D01*
X14507857Y-15200476D01*
X14688809Y-15390952D02*
X14669762Y-15400476D01*
X14631667Y-15400476D01*
X14612619Y-15390952D01*
X14603095Y-15371905D01*
X14603095Y-15295714D01*
X14612619Y-15276667D01*
X14631667Y-15267143D01*
X14669762Y-15267143D01*
X14688809Y-15276667D01*
X14698333Y-15295714D01*
X14698333Y-15314762D01*
X14603095Y-15333809D01*
X14774524Y-15390952D02*
X14793571Y-15400476D01*
X14831667Y-15400476D01*
X14850714Y-15390952D01*
X14860238Y-15371905D01*
X14860238Y-15362381D01*
X14850714Y-15343333D01*
X14831667Y-15333809D01*
X14803095Y-15333809D01*
X14784048Y-15324286D01*
X14774524Y-15305238D01*
X14774524Y-15295714D01*
X14784048Y-15276667D01*
X14803095Y-15267143D01*
X14831667Y-15267143D01*
X14850714Y-15276667D01*
X14926905Y-15476667D02*
X14936428Y-15467143D01*
X14955476Y-15438571D01*
X14965000Y-15419524D01*
X14974524Y-15390952D01*
X14984048Y-15343333D01*
X14984048Y-15305238D01*
X14974524Y-15257619D01*
X14965000Y-15229048D01*
X14955476Y-15210000D01*
X14936428Y-15181428D01*
X14926905Y-15171905D01*
D10*
X10055000Y-15524000D02*
X10155000Y-15624000D01*
X10155000Y-15524000D02*
X10055000Y-15624000D01*
X10140356Y-15609356D02*
X10140356Y-15538644D01*
X10069644Y-15538644D01*
X10069644Y-15609356D01*
X10140356Y-15609356D01*
D11*
X10517381Y-15664476D02*
X10403095Y-15664476D01*
X10460238Y-15664476D02*
X10460238Y-15464476D01*
X10441190Y-15493048D01*
X10422143Y-15512095D01*
X10403095Y-15521619D01*
X10603095Y-15645428D02*
X10612619Y-15654952D01*
X10603095Y-15664476D01*
X10593571Y-15654952D01*
X10603095Y-15645428D01*
X10603095Y-15664476D01*
X10736429Y-15464476D02*
X10755476Y-15464476D01*
X10774524Y-15474000D01*
X10784048Y-15483524D01*
X10793571Y-15502571D01*
X10803095Y-15540667D01*
X10803095Y-15588286D01*
X10793571Y-15626381D01*
X10784048Y-15645428D01*
X10774524Y-15654952D01*
X10755476Y-15664476D01*
X10736429Y-15664476D01*
X10717381Y-15654952D01*
X10707857Y-15645428D01*
X10698333Y-15626381D01*
X10688810Y-15588286D01*
X10688810Y-15540667D01*
X10698333Y-15502571D01*
X10707857Y-15483524D01*
X10717381Y-15474000D01*
X10736429Y-15464476D01*
X10926905Y-15464476D02*
X10945952Y-15464476D01*
X10965000Y-15474000D01*
X10974524Y-15483524D01*
X10984048Y-15502571D01*
X10993571Y-15540667D01*
X10993571Y-15588286D01*
X10984048Y-15626381D01*
X10974524Y-15645428D01*
X10965000Y-15654952D01*
X10945952Y-15664476D01*
X10926905Y-15664476D01*
X10907857Y-15654952D01*
X10898333Y-15645428D01*
X10888810Y-15626381D01*
X10879286Y-15588286D01*
X10879286Y-15540667D01*
X10888810Y-15502571D01*
X10898333Y-15483524D01*
X10907857Y-15474000D01*
X10926905Y-15464476D01*
X11117381Y-15464476D02*
X11136429Y-15464476D01*
X11155476Y-15474000D01*
X11165000Y-15483524D01*
X11174524Y-15502571D01*
X11184048Y-15540667D01*
X11184048Y-15588286D01*
X11174524Y-15626381D01*
X11165000Y-15645428D01*
X11155476Y-15654952D01*
X11136429Y-15664476D01*
X11117381Y-15664476D01*
X11098333Y-15654952D01*
X11088810Y-15645428D01*
X11079286Y-15626381D01*
X11069762Y-15588286D01*
X11069762Y-15540667D01*
X11079286Y-15502571D01*
X11088810Y-15483524D01*
X11098333Y-15474000D01*
X11117381Y-15464476D01*
X11269762Y-15664476D02*
X11269762Y-15531143D01*
X11269762Y-15550190D02*
X11279286Y-15540667D01*
X11298333Y-15531143D01*
X11326905Y-15531143D01*
X11345952Y-15540667D01*
X11355476Y-15559714D01*
X11355476Y-15664476D01*
X11355476Y-15559714D02*
X11365000Y-15540667D01*
X11384048Y-15531143D01*
X11412619Y-15531143D01*
X11431667Y-15540667D01*
X11441190Y-15559714D01*
X11441190Y-15664476D01*
X11536428Y-15664476D02*
X11536428Y-15531143D01*
X11536428Y-15550190D02*
X11545952Y-15540667D01*
X11565000Y-15531143D01*
X11593571Y-15531143D01*
X11612619Y-15540667D01*
X11622143Y-15559714D01*
X11622143Y-15664476D01*
X11622143Y-15559714D02*
X11631667Y-15540667D01*
X11650714Y-15531143D01*
X11679286Y-15531143D01*
X11698333Y-15540667D01*
X11707857Y-15559714D01*
X11707857Y-15664476D01*
X12098333Y-15454952D02*
X11926905Y-15712095D01*
X12355476Y-15464476D02*
X12374524Y-15464476D01*
X12393571Y-15474000D01*
X12403095Y-15483524D01*
X12412619Y-15502571D01*
X12422143Y-15540667D01*
X12422143Y-15588286D01*
X12412619Y-15626381D01*
X12403095Y-15645428D01*
X12393571Y-15654952D01*
X12374524Y-15664476D01*
X12355476Y-15664476D01*
X12336428Y-15654952D01*
X12326905Y-15645428D01*
X12317381Y-15626381D01*
X12307857Y-15588286D01*
X12307857Y-15540667D01*
X12317381Y-15502571D01*
X12326905Y-15483524D01*
X12336428Y-15474000D01*
X12355476Y-15464476D01*
X12507857Y-15645428D02*
X12517381Y-15654952D01*
X12507857Y-15664476D01*
X12498333Y-15654952D01*
X12507857Y-15645428D01*
X12507857Y-15664476D01*
X12641190Y-15464476D02*
X12660238Y-15464476D01*
X12679286Y-15474000D01*
X12688809Y-15483524D01*
X12698333Y-15502571D01*
X12707857Y-15540667D01*
X12707857Y-15588286D01*
X12698333Y-15626381D01*
X12688809Y-15645428D01*
X12679286Y-15654952D01*
X12660238Y-15664476D01*
X12641190Y-15664476D01*
X12622143Y-15654952D01*
X12612619Y-15645428D01*
X12603095Y-15626381D01*
X12593571Y-15588286D01*
X12593571Y-15540667D01*
X12603095Y-15502571D01*
X12612619Y-15483524D01*
X12622143Y-15474000D01*
X12641190Y-15464476D01*
X12774524Y-15464476D02*
X12898333Y-15464476D01*
X12831667Y-15540667D01*
X12860238Y-15540667D01*
X12879286Y-15550190D01*
X12888809Y-15559714D01*
X12898333Y-15578762D01*
X12898333Y-15626381D01*
X12888809Y-15645428D01*
X12879286Y-15654952D01*
X12860238Y-15664476D01*
X12803095Y-15664476D01*
X12784048Y-15654952D01*
X12774524Y-15645428D01*
X12993571Y-15664476D02*
X13031667Y-15664476D01*
X13050714Y-15654952D01*
X13060238Y-15645428D01*
X13079286Y-15616857D01*
X13088809Y-15578762D01*
X13088809Y-15502571D01*
X13079286Y-15483524D01*
X13069762Y-15474000D01*
X13050714Y-15464476D01*
X13012619Y-15464476D01*
X12993571Y-15474000D01*
X12984048Y-15483524D01*
X12974524Y-15502571D01*
X12974524Y-15550190D01*
X12984048Y-15569238D01*
X12993571Y-15578762D01*
X13012619Y-15588286D01*
X13050714Y-15588286D01*
X13069762Y-15578762D01*
X13079286Y-15569238D01*
X13088809Y-15550190D01*
X13260238Y-15531143D02*
X13260238Y-15664476D01*
X13212619Y-15454952D02*
X13165000Y-15597809D01*
X13288809Y-15597809D01*
X13355476Y-15464476D02*
X13355476Y-15502571D01*
X13431667Y-15464476D02*
X13431667Y-15502571D01*
X13726905Y-15740667D02*
X13717381Y-15731143D01*
X13698333Y-15702571D01*
X13688809Y-15683524D01*
X13679286Y-15654952D01*
X13669762Y-15607333D01*
X13669762Y-15569238D01*
X13679286Y-15521619D01*
X13688809Y-15493048D01*
X13698333Y-15474000D01*
X13717381Y-15445428D01*
X13726905Y-15435905D01*
X13898333Y-15464476D02*
X13803095Y-15464476D01*
X13793571Y-15559714D01*
X13803095Y-15550190D01*
X13822143Y-15540667D01*
X13869762Y-15540667D01*
X13888809Y-15550190D01*
X13898333Y-15559714D01*
X13907857Y-15578762D01*
X13907857Y-15626381D01*
X13898333Y-15645428D01*
X13888809Y-15654952D01*
X13869762Y-15664476D01*
X13822143Y-15664476D01*
X13803095Y-15654952D01*
X13793571Y-15645428D01*
X14098333Y-15664476D02*
X13984048Y-15664476D01*
X14041190Y-15664476D02*
X14041190Y-15464476D01*
X14022143Y-15493048D01*
X14003095Y-15512095D01*
X13984048Y-15521619D01*
X14336428Y-15664476D02*
X14336428Y-15464476D01*
X14422143Y-15664476D02*
X14422143Y-15559714D01*
X14412619Y-15540667D01*
X14393571Y-15531143D01*
X14365000Y-15531143D01*
X14345952Y-15540667D01*
X14336428Y-15550190D01*
X14545952Y-15664476D02*
X14526905Y-15654952D01*
X14517381Y-15645428D01*
X14507857Y-15626381D01*
X14507857Y-15569238D01*
X14517381Y-15550190D01*
X14526905Y-15540667D01*
X14545952Y-15531143D01*
X14574524Y-15531143D01*
X14593571Y-15540667D01*
X14603095Y-15550190D01*
X14612619Y-15569238D01*
X14612619Y-15626381D01*
X14603095Y-15645428D01*
X14593571Y-15654952D01*
X14574524Y-15664476D01*
X14545952Y-15664476D01*
X14726905Y-15664476D02*
X14707857Y-15654952D01*
X14698333Y-15635905D01*
X14698333Y-15464476D01*
X14879286Y-15654952D02*
X14860238Y-15664476D01*
X14822143Y-15664476D01*
X14803095Y-15654952D01*
X14793571Y-15635905D01*
X14793571Y-15559714D01*
X14803095Y-15540667D01*
X14822143Y-15531143D01*
X14860238Y-15531143D01*
X14879286Y-15540667D01*
X14888809Y-15559714D01*
X14888809Y-15578762D01*
X14793571Y-15597809D01*
X14965000Y-15654952D02*
X14984048Y-15664476D01*
X15022143Y-15664476D01*
X15041190Y-15654952D01*
X15050714Y-15635905D01*
X15050714Y-15626381D01*
X15041190Y-15607333D01*
X15022143Y-15597809D01*
X14993571Y-15597809D01*
X14974524Y-15588286D01*
X14965000Y-15569238D01*
X14965000Y-15559714D01*
X14974524Y-15540667D01*
X14993571Y-15531143D01*
X15022143Y-15531143D01*
X15041190Y-15540667D01*
X15117381Y-15740667D02*
X15126905Y-15731143D01*
X15145952Y-15702571D01*
X15155476Y-15683524D01*
X15165000Y-15654952D01*
X15174524Y-15607333D01*
X15174524Y-15569238D01*
X15165000Y-15521619D01*
X15155476Y-15493048D01*
X15145952Y-15474000D01*
X15126905Y-15445428D01*
X15117381Y-15435905D01*
D19*
X10053000Y-15787000D02*
X10155000Y-15889000D01*
X10155000Y-15787000D02*
X10053000Y-15889000D01*
X10104000Y-15889000D02*
X10155000Y-15838000D01*
X10104000Y-15787000D01*
X10053000Y-15838000D01*
X10104000Y-15889000D01*
D11*
X10517381Y-15928476D02*
X10403095Y-15928476D01*
X10460238Y-15928476D02*
X10460238Y-15728476D01*
X10441190Y-15757048D01*
X10422143Y-15776095D01*
X10403095Y-15785619D01*
X10603095Y-15909428D02*
X10612619Y-15918952D01*
X10603095Y-15928476D01*
X10593571Y-15918952D01*
X10603095Y-15909428D01*
X10603095Y-15928476D01*
X10736429Y-15728476D02*
X10755476Y-15728476D01*
X10774524Y-15738000D01*
X10784048Y-15747524D01*
X10793571Y-15766571D01*
X10803095Y-15804667D01*
X10803095Y-15852286D01*
X10793571Y-15890381D01*
X10784048Y-15909428D01*
X10774524Y-15918952D01*
X10755476Y-15928476D01*
X10736429Y-15928476D01*
X10717381Y-15918952D01*
X10707857Y-15909428D01*
X10698333Y-15890381D01*
X10688810Y-15852286D01*
X10688810Y-15804667D01*
X10698333Y-15766571D01*
X10707857Y-15747524D01*
X10717381Y-15738000D01*
X10736429Y-15728476D01*
X10879286Y-15747524D02*
X10888810Y-15738000D01*
X10907857Y-15728476D01*
X10955476Y-15728476D01*
X10974524Y-15738000D01*
X10984048Y-15747524D01*
X10993571Y-15766571D01*
X10993571Y-15785619D01*
X10984048Y-15814190D01*
X10869762Y-15928476D01*
X10993571Y-15928476D01*
X11117381Y-15728476D02*
X11136429Y-15728476D01*
X11155476Y-15738000D01*
X11165000Y-15747524D01*
X11174524Y-15766571D01*
X11184048Y-15804667D01*
X11184048Y-15852286D01*
X11174524Y-15890381D01*
X11165000Y-15909428D01*
X11155476Y-15918952D01*
X11136429Y-15928476D01*
X11117381Y-15928476D01*
X11098333Y-15918952D01*
X11088810Y-15909428D01*
X11079286Y-15890381D01*
X11069762Y-15852286D01*
X11069762Y-15804667D01*
X11079286Y-15766571D01*
X11088810Y-15747524D01*
X11098333Y-15738000D01*
X11117381Y-15728476D01*
X11269762Y-15928476D02*
X11269762Y-15795143D01*
X11269762Y-15814190D02*
X11279286Y-15804667D01*
X11298333Y-15795143D01*
X11326905Y-15795143D01*
X11345952Y-15804667D01*
X11355476Y-15823714D01*
X11355476Y-15928476D01*
X11355476Y-15823714D02*
X11365000Y-15804667D01*
X11384048Y-15795143D01*
X11412619Y-15795143D01*
X11431667Y-15804667D01*
X11441190Y-15823714D01*
X11441190Y-15928476D01*
X11536428Y-15928476D02*
X11536428Y-15795143D01*
X11536428Y-15814190D02*
X11545952Y-15804667D01*
X11565000Y-15795143D01*
X11593571Y-15795143D01*
X11612619Y-15804667D01*
X11622143Y-15823714D01*
X11622143Y-15928476D01*
X11622143Y-15823714D02*
X11631667Y-15804667D01*
X11650714Y-15795143D01*
X11679286Y-15795143D01*
X11698333Y-15804667D01*
X11707857Y-15823714D01*
X11707857Y-15928476D01*
X12098333Y-15718952D02*
X11926905Y-15976095D01*
X12355476Y-15728476D02*
X12374524Y-15728476D01*
X12393571Y-15738000D01*
X12403095Y-15747524D01*
X12412619Y-15766571D01*
X12422143Y-15804667D01*
X12422143Y-15852286D01*
X12412619Y-15890381D01*
X12403095Y-15909428D01*
X12393571Y-15918952D01*
X12374524Y-15928476D01*
X12355476Y-15928476D01*
X12336428Y-15918952D01*
X12326905Y-15909428D01*
X12317381Y-15890381D01*
X12307857Y-15852286D01*
X12307857Y-15804667D01*
X12317381Y-15766571D01*
X12326905Y-15747524D01*
X12336428Y-15738000D01*
X12355476Y-15728476D01*
X12507857Y-15909428D02*
X12517381Y-15918952D01*
X12507857Y-15928476D01*
X12498333Y-15918952D01*
X12507857Y-15909428D01*
X12507857Y-15928476D01*
X12641190Y-15728476D02*
X12660238Y-15728476D01*
X12679286Y-15738000D01*
X12688809Y-15747524D01*
X12698333Y-15766571D01*
X12707857Y-15804667D01*
X12707857Y-15852286D01*
X12698333Y-15890381D01*
X12688809Y-15909428D01*
X12679286Y-15918952D01*
X12660238Y-15928476D01*
X12641190Y-15928476D01*
X12622143Y-15918952D01*
X12612619Y-15909428D01*
X12603095Y-15890381D01*
X12593571Y-15852286D01*
X12593571Y-15804667D01*
X12603095Y-15766571D01*
X12612619Y-15747524D01*
X12622143Y-15738000D01*
X12641190Y-15728476D01*
X12879286Y-15795143D02*
X12879286Y-15928476D01*
X12831667Y-15718952D02*
X12784048Y-15861809D01*
X12907857Y-15861809D01*
X13022143Y-15728476D02*
X13041190Y-15728476D01*
X13060238Y-15738000D01*
X13069762Y-15747524D01*
X13079286Y-15766571D01*
X13088809Y-15804667D01*
X13088809Y-15852286D01*
X13079286Y-15890381D01*
X13069762Y-15909428D01*
X13060238Y-15918952D01*
X13041190Y-15928476D01*
X13022143Y-15928476D01*
X13003095Y-15918952D01*
X12993571Y-15909428D01*
X12984048Y-15890381D01*
X12974524Y-15852286D01*
X12974524Y-15804667D01*
X12984048Y-15766571D01*
X12993571Y-15747524D01*
X13003095Y-15738000D01*
X13022143Y-15728476D01*
X13165000Y-15747524D02*
X13174524Y-15738000D01*
X13193571Y-15728476D01*
X13241190Y-15728476D01*
X13260238Y-15738000D01*
X13269762Y-15747524D01*
X13279286Y-15766571D01*
X13279286Y-15785619D01*
X13269762Y-15814190D01*
X13155476Y-15928476D01*
X13279286Y-15928476D01*
X13355476Y-15728476D02*
X13355476Y-15766571D01*
X13431667Y-15728476D02*
X13431667Y-15766571D01*
X13726905Y-16004667D02*
X13717381Y-15995143D01*
X13698333Y-15966571D01*
X13688809Y-15947524D01*
X13679286Y-15918952D01*
X13669762Y-15871333D01*
X13669762Y-15833238D01*
X13679286Y-15785619D01*
X13688809Y-15757048D01*
X13698333Y-15738000D01*
X13717381Y-15709428D01*
X13726905Y-15699905D01*
X13784048Y-15728476D02*
X13907857Y-15728476D01*
X13841190Y-15804667D01*
X13869762Y-15804667D01*
X13888809Y-15814190D01*
X13898333Y-15823714D01*
X13907857Y-15842762D01*
X13907857Y-15890381D01*
X13898333Y-15909428D01*
X13888809Y-15918952D01*
X13869762Y-15928476D01*
X13812619Y-15928476D01*
X13793571Y-15918952D01*
X13784048Y-15909428D01*
X14031667Y-15728476D02*
X14050714Y-15728476D01*
X14069762Y-15738000D01*
X14079286Y-15747524D01*
X14088809Y-15766571D01*
X14098333Y-15804667D01*
X14098333Y-15852286D01*
X14088809Y-15890381D01*
X14079286Y-15909428D01*
X14069762Y-15918952D01*
X14050714Y-15928476D01*
X14031667Y-15928476D01*
X14012619Y-15918952D01*
X14003095Y-15909428D01*
X13993571Y-15890381D01*
X13984048Y-15852286D01*
X13984048Y-15804667D01*
X13993571Y-15766571D01*
X14003095Y-15747524D01*
X14012619Y-15738000D01*
X14031667Y-15728476D01*
X14336428Y-15928476D02*
X14336428Y-15728476D01*
X14422143Y-15928476D02*
X14422143Y-15823714D01*
X14412619Y-15804667D01*
X14393571Y-15795143D01*
X14365000Y-15795143D01*
X14345952Y-15804667D01*
X14336428Y-15814190D01*
X14545952Y-15928476D02*
X14526905Y-15918952D01*
X14517381Y-15909428D01*
X14507857Y-15890381D01*
X14507857Y-15833238D01*
X14517381Y-15814190D01*
X14526905Y-15804667D01*
X14545952Y-15795143D01*
X14574524Y-15795143D01*
X14593571Y-15804667D01*
X14603095Y-15814190D01*
X14612619Y-15833238D01*
X14612619Y-15890381D01*
X14603095Y-15909428D01*
X14593571Y-15918952D01*
X14574524Y-15928476D01*
X14545952Y-15928476D01*
X14726905Y-15928476D02*
X14707857Y-15918952D01*
X14698333Y-15899905D01*
X14698333Y-15728476D01*
X14879286Y-15918952D02*
X14860238Y-15928476D01*
X14822143Y-15928476D01*
X14803095Y-15918952D01*
X14793571Y-15899905D01*
X14793571Y-15823714D01*
X14803095Y-15804667D01*
X14822143Y-15795143D01*
X14860238Y-15795143D01*
X14879286Y-15804667D01*
X14888809Y-15823714D01*
X14888809Y-15842762D01*
X14793571Y-15861809D01*
X14965000Y-15918952D02*
X14984048Y-15928476D01*
X15022143Y-15928476D01*
X15041190Y-15918952D01*
X15050714Y-15899905D01*
X15050714Y-15890381D01*
X15041190Y-15871333D01*
X15022143Y-15861809D01*
X14993571Y-15861809D01*
X14974524Y-15852286D01*
X14965000Y-15833238D01*
X14965000Y-15823714D01*
X14974524Y-15804667D01*
X14993571Y-15795143D01*
X15022143Y-15795143D01*
X15041190Y-15804667D01*
X15117381Y-16004667D02*
X15126905Y-15995143D01*
X15145952Y-15966571D01*
X15155476Y-15947524D01*
X15165000Y-15918952D01*
X15174524Y-15871333D01*
X15174524Y-15833238D01*
X15165000Y-15785619D01*
X15155476Y-15757048D01*
X15145952Y-15738000D01*
X15126905Y-15709428D01*
X15117381Y-15699905D01*
M02*
