G04 #@! TF.GenerationSoftware,KiCad,Pcbnew,(6.0.9)*
G04 #@! TF.CreationDate,2022-12-08T07:48:34+01:00*
G04 #@! TF.ProjectId,L432KC,4c343332-4b43-42e6-9b69-6361645f7063,rev?*
G04 #@! TF.SameCoordinates,Original*
G04 #@! TF.FileFunction,Paste,Top*
G04 #@! TF.FilePolarity,Positive*
%FSLAX46Y46*%
G04 Gerber Fmt 4.6, Leading zero omitted, Abs format (unit mm)*
G04 Created by KiCad (PCBNEW (6.0.9)) date 2022-12-08 07:48:34*
%MOMM*%
%LPD*%
G01*
G04 APERTURE LIST*
G04 Aperture macros list*
%AMRoundRect*
0 Rectangle with rounded corners*
0 $1 Rounding radius*
0 $2 $3 $4 $5 $6 $7 $8 $9 X,Y pos of 4 corners*
0 Add a 4 corners polygon primitive as box body*
4,1,4,$2,$3,$4,$5,$6,$7,$8,$9,$2,$3,0*
0 Add four circle primitives for the rounded corners*
1,1,$1+$1,$2,$3*
1,1,$1+$1,$4,$5*
1,1,$1+$1,$6,$7*
1,1,$1+$1,$8,$9*
0 Add four rect primitives between the rounded corners*
20,1,$1+$1,$2,$3,$4,$5,0*
20,1,$1+$1,$4,$5,$6,$7,0*
20,1,$1+$1,$6,$7,$8,$9,0*
20,1,$1+$1,$8,$9,$2,$3,0*%
G04 Aperture macros list end*
%ADD10R,0.800000X0.300000*%
%ADD11RoundRect,0.237500X0.237500X-0.300000X0.237500X0.300000X-0.237500X0.300000X-0.237500X-0.300000X0*%
%ADD12RoundRect,0.237500X-0.250000X-0.237500X0.250000X-0.237500X0.250000X0.237500X-0.250000X0.237500X0*%
%ADD13RoundRect,0.237500X0.300000X0.237500X-0.300000X0.237500X-0.300000X-0.237500X0.300000X-0.237500X0*%
%ADD14RoundRect,0.237500X-0.287500X-0.237500X0.287500X-0.237500X0.287500X0.237500X-0.287500X0.237500X0*%
%ADD15R,0.650000X1.560000*%
%ADD16R,0.500000X0.400000*%
%ADD17R,0.500000X0.300000*%
%ADD18RoundRect,0.237500X-0.237500X0.300000X-0.237500X-0.300000X0.237500X-0.300000X0.237500X0.300000X0*%
%ADD19RoundRect,0.100000X0.100000X-0.637500X0.100000X0.637500X-0.100000X0.637500X-0.100000X-0.637500X0*%
%ADD20RoundRect,0.237500X0.237500X-0.250000X0.237500X0.250000X-0.237500X0.250000X-0.237500X-0.250000X0*%
%ADD21R,1.560000X0.650000*%
%ADD22RoundRect,0.237500X0.250000X0.237500X-0.250000X0.237500X-0.250000X-0.237500X0.250000X-0.237500X0*%
%ADD23RoundRect,0.150000X-0.512500X-0.150000X0.512500X-0.150000X0.512500X0.150000X-0.512500X0.150000X0*%
%ADD24RoundRect,0.237500X-0.237500X0.250000X-0.237500X-0.250000X0.237500X-0.250000X0.237500X0.250000X0*%
%ADD25R,1.550000X0.400000*%
%ADD26R,1.900000X1.500000*%
%ADD27R,0.600000X0.450000*%
%ADD28RoundRect,0.237500X-0.300000X-0.237500X0.300000X-0.237500X0.300000X0.237500X-0.300000X0.237500X0*%
G04 APERTURE END LIST*
D10*
X160248000Y-109740000D03*
X160248000Y-110240000D03*
X160248000Y-110740000D03*
X160248000Y-111240000D03*
X163348000Y-111240000D03*
X163348000Y-110740000D03*
X163348000Y-110240000D03*
X163348000Y-109740000D03*
D11*
X157226000Y-120750500D03*
X157226000Y-119025500D03*
D12*
X109831500Y-92964000D03*
X111656500Y-92964000D03*
D13*
X111606500Y-96012000D03*
X109881500Y-96012000D03*
X160628500Y-108204000D03*
X158903500Y-108204000D03*
D14*
X161431000Y-116840000D03*
X163181000Y-116840000D03*
D15*
X110048000Y-104220000D03*
X110998000Y-104220000D03*
X111948000Y-104220000D03*
X111948000Y-101520000D03*
X110998000Y-101520000D03*
X110048000Y-101520000D03*
D16*
X169426000Y-100596000D03*
D17*
X169426000Y-101096000D03*
X169426000Y-101596000D03*
D16*
X169426000Y-102096000D03*
X170426000Y-102096000D03*
D17*
X170426000Y-101596000D03*
X170426000Y-101096000D03*
D16*
X170426000Y-100596000D03*
D18*
X167640000Y-119025500D03*
X167640000Y-120750500D03*
D13*
X111606500Y-94488000D03*
X109881500Y-94488000D03*
X163168500Y-115316000D03*
X161443500Y-115316000D03*
D19*
X159848000Y-104970500D03*
X160498000Y-104970500D03*
X161148000Y-104970500D03*
X161798000Y-104970500D03*
X162448000Y-104970500D03*
X163098000Y-104970500D03*
X163748000Y-104970500D03*
X163748000Y-99245500D03*
X163098000Y-99245500D03*
X162448000Y-99245500D03*
X161798000Y-99245500D03*
X161148000Y-99245500D03*
X160498000Y-99245500D03*
X159848000Y-99245500D03*
D20*
X155702000Y-120800500D03*
X155702000Y-118975500D03*
D13*
X163168500Y-113792000D03*
X161443500Y-113792000D03*
D16*
X169426000Y-93484000D03*
D17*
X169426000Y-93984000D03*
X169426000Y-94484000D03*
D16*
X169426000Y-94984000D03*
X170426000Y-94984000D03*
D17*
X170426000Y-94484000D03*
X170426000Y-93984000D03*
D16*
X170426000Y-93484000D03*
D13*
X111860500Y-109474000D03*
X110135500Y-109474000D03*
D19*
X159848000Y-95064500D03*
X160498000Y-95064500D03*
X161148000Y-95064500D03*
X161798000Y-95064500D03*
X162448000Y-95064500D03*
X163098000Y-95064500D03*
X163748000Y-95064500D03*
X163748000Y-89339500D03*
X163098000Y-89339500D03*
X162448000Y-89339500D03*
X161798000Y-89339500D03*
X161148000Y-89339500D03*
X160498000Y-89339500D03*
X159848000Y-89339500D03*
D16*
X169426000Y-104152000D03*
D17*
X169426000Y-104652000D03*
X169426000Y-105152000D03*
D16*
X169426000Y-105652000D03*
X170426000Y-105652000D03*
D17*
X170426000Y-105152000D03*
X170426000Y-104652000D03*
D16*
X170426000Y-104152000D03*
D21*
X160956000Y-118938000D03*
X160956000Y-119888000D03*
X160956000Y-120838000D03*
X163656000Y-120838000D03*
X163656000Y-118938000D03*
D20*
X107188000Y-122832500D03*
X107188000Y-121007500D03*
D16*
X152138000Y-85840000D03*
D17*
X152138000Y-85340000D03*
X152138000Y-84840000D03*
D16*
X152138000Y-84340000D03*
X151138000Y-84340000D03*
D17*
X151138000Y-84840000D03*
X151138000Y-85340000D03*
D16*
X151138000Y-85840000D03*
D22*
X111656500Y-97536000D03*
X109831500Y-97536000D03*
D23*
X168788500Y-89220000D03*
X168788500Y-90170000D03*
X168788500Y-91120000D03*
X171063500Y-91120000D03*
X171063500Y-90170000D03*
X171063500Y-89220000D03*
D22*
X111910500Y-111506000D03*
X110085500Y-111506000D03*
D24*
X107188000Y-115927500D03*
X107188000Y-117752500D03*
D11*
X157988000Y-100684500D03*
X157988000Y-98959500D03*
X157988000Y-90778500D03*
X157988000Y-89053500D03*
D25*
X105886100Y-101468400D03*
X105886100Y-102118400D03*
X105886100Y-102768400D03*
X105886100Y-103418400D03*
X105886100Y-104068400D03*
D26*
X103098600Y-103768400D03*
X103098600Y-101768400D03*
D16*
X169426000Y-97040000D03*
D17*
X169426000Y-97540000D03*
X169426000Y-98040000D03*
D16*
X169426000Y-98540000D03*
X170426000Y-98540000D03*
D17*
X170426000Y-98040000D03*
X170426000Y-97540000D03*
D16*
X170426000Y-97040000D03*
D11*
X166116000Y-120750500D03*
X166116000Y-119025500D03*
D22*
X111910500Y-107950000D03*
X110085500Y-107950000D03*
D13*
X178916500Y-87376000D03*
X177191500Y-87376000D03*
D12*
X109831500Y-89916000D03*
X111656500Y-89916000D03*
D23*
X168534500Y-108016000D03*
X168534500Y-108966000D03*
X168534500Y-109916000D03*
X170809500Y-109916000D03*
X170809500Y-108966000D03*
X170809500Y-108016000D03*
D27*
X111794000Y-87934800D03*
X109694000Y-87934800D03*
D28*
X162713500Y-108204000D03*
X164438500Y-108204000D03*
D22*
X111934000Y-113030000D03*
X110109000Y-113030000D03*
M02*
