G04 #@! TF.GenerationSoftware,KiCad,Pcbnew,(6.0.9)*
G04 #@! TF.CreationDate,2022-12-08T07:48:34+01:00*
G04 #@! TF.ProjectId,L432KC,4c343332-4b43-42e6-9b69-6361645f7063,rev?*
G04 #@! TF.SameCoordinates,Original*
G04 #@! TF.FileFunction,Legend,Top*
G04 #@! TF.FilePolarity,Positive*
%FSLAX46Y46*%
G04 Gerber Fmt 4.6, Leading zero omitted, Abs format (unit mm)*
G04 Created by KiCad (PCBNEW (6.0.9)) date 2022-12-08 07:48:34*
%MOMM*%
%LPD*%
G01*
G04 APERTURE LIST*
G04 Aperture macros list*
%AMRoundRect*
0 Rectangle with rounded corners*
0 $1 Rounding radius*
0 $2 $3 $4 $5 $6 $7 $8 $9 X,Y pos of 4 corners*
0 Add a 4 corners polygon primitive as box body*
4,1,4,$2,$3,$4,$5,$6,$7,$8,$9,$2,$3,0*
0 Add four circle primitives for the rounded corners*
1,1,$1+$1,$2,$3*
1,1,$1+$1,$4,$5*
1,1,$1+$1,$6,$7*
1,1,$1+$1,$8,$9*
0 Add four rect primitives between the rounded corners*
20,1,$1+$1,$2,$3,$4,$5,0*
20,1,$1+$1,$4,$5,$6,$7,0*
20,1,$1+$1,$6,$7,$8,$9,0*
20,1,$1+$1,$8,$9,$2,$3,0*%
G04 Aperture macros list end*
%ADD10C,0.500000*%
%ADD11C,0.401722*%
%ADD12C,0.150000*%
%ADD13C,0.250000*%
%ADD14C,0.400000*%
%ADD15C,0.127000*%
%ADD16C,0.200000*%
%ADD17C,0.120000*%
%ADD18R,1.530000X1.530000*%
%ADD19C,1.530000*%
%ADD20R,0.800000X0.300000*%
%ADD21RoundRect,0.237500X0.237500X-0.300000X0.237500X0.300000X-0.237500X0.300000X-0.237500X-0.300000X0*%
%ADD22R,1.700000X1.700000*%
%ADD23O,1.700000X1.700000*%
%ADD24RoundRect,0.237500X-0.250000X-0.237500X0.250000X-0.237500X0.250000X0.237500X-0.250000X0.237500X0*%
%ADD25R,1.800000X1.800000*%
%ADD26C,1.800000*%
%ADD27RoundRect,0.237500X0.300000X0.237500X-0.300000X0.237500X-0.300000X-0.237500X0.300000X-0.237500X0*%
%ADD28RoundRect,0.250000X-0.600000X-0.600000X0.600000X-0.600000X0.600000X0.600000X-0.600000X0.600000X0*%
%ADD29C,1.700000*%
%ADD30RoundRect,0.237500X-0.287500X-0.237500X0.287500X-0.237500X0.287500X0.237500X-0.287500X0.237500X0*%
%ADD31R,0.650000X1.560000*%
%ADD32R,0.500000X0.400000*%
%ADD33R,0.500000X0.300000*%
%ADD34RoundRect,0.237500X-0.237500X0.300000X-0.237500X-0.300000X0.237500X-0.300000X0.237500X0.300000X0*%
%ADD35RoundRect,0.100000X0.100000X-0.637500X0.100000X0.637500X-0.100000X0.637500X-0.100000X-0.637500X0*%
%ADD36RoundRect,0.237500X0.237500X-0.250000X0.237500X0.250000X-0.237500X0.250000X-0.237500X-0.250000X0*%
%ADD37R,1.560000X0.650000*%
%ADD38RoundRect,0.237500X0.250000X0.237500X-0.250000X0.237500X-0.250000X-0.237500X0.250000X-0.237500X0*%
%ADD39RoundRect,0.150000X-0.512500X-0.150000X0.512500X-0.150000X0.512500X0.150000X-0.512500X0.150000X0*%
%ADD40RoundRect,0.237500X-0.237500X0.250000X-0.237500X-0.250000X0.237500X-0.250000X0.237500X0.250000X0*%
%ADD41R,1.550000X0.400000*%
%ADD42C,1.450000*%
%ADD43R,1.900000X1.500000*%
%ADD44R,1.900000X1.200000*%
%ADD45O,1.900000X1.200000*%
%ADD46R,0.600000X0.450000*%
%ADD47RoundRect,0.237500X-0.300000X-0.237500X0.300000X-0.237500X0.300000X0.237500X-0.300000X0.237500X0*%
G04 APERTURE END LIST*
D10*
X181928123Y-126949200D02*
G75*
G03*
X181928123Y-126949200I-2731123J0D01*
G01*
D11*
X110245183Y-105537000D02*
G75*
G03*
X110245183Y-105537000I-200861J0D01*
G01*
D12*
X170491928Y-80112428D02*
X170406214Y-80069571D01*
X170234785Y-80069571D01*
X170149071Y-80112428D01*
X170063357Y-80198142D01*
X170020500Y-80283857D01*
X170020500Y-80455285D01*
X170063357Y-80541000D01*
X170149071Y-80626714D01*
X170234785Y-80669571D01*
X170406214Y-80669571D01*
X170491928Y-80626714D01*
X170320500Y-79769571D02*
X170106214Y-79812428D01*
X169891928Y-79941000D01*
X169763357Y-80155285D01*
X169720500Y-80369571D01*
X169763357Y-80583857D01*
X169891928Y-80798142D01*
X170106214Y-80926714D01*
X170320500Y-80969571D01*
X170534785Y-80926714D01*
X170749071Y-80798142D01*
X170877642Y-80583857D01*
X170920500Y-80369571D01*
X170877642Y-80155285D01*
X170749071Y-79941000D01*
X170534785Y-79812428D01*
X170320500Y-79769571D01*
X171263357Y-79983857D02*
X171306214Y-79941000D01*
X171391928Y-79898142D01*
X171606214Y-79898142D01*
X171691928Y-79941000D01*
X171734785Y-79983857D01*
X171777642Y-80069571D01*
X171777642Y-80155285D01*
X171734785Y-80283857D01*
X171220500Y-80798142D01*
X171777642Y-80798142D01*
X172334785Y-79898142D02*
X172420500Y-79898142D01*
X172506214Y-79941000D01*
X172549071Y-79983857D01*
X172591928Y-80069571D01*
X172634785Y-80241000D01*
X172634785Y-80455285D01*
X172591928Y-80626714D01*
X172549071Y-80712428D01*
X172506214Y-80755285D01*
X172420500Y-80798142D01*
X172334785Y-80798142D01*
X172249071Y-80755285D01*
X172206214Y-80712428D01*
X172163357Y-80626714D01*
X172120500Y-80455285D01*
X172120500Y-80241000D01*
X172163357Y-80069571D01*
X172206214Y-79983857D01*
X172249071Y-79941000D01*
X172334785Y-79898142D01*
X172977642Y-79983857D02*
X173020500Y-79941000D01*
X173106214Y-79898142D01*
X173320500Y-79898142D01*
X173406214Y-79941000D01*
X173449071Y-79983857D01*
X173491928Y-80069571D01*
X173491928Y-80155285D01*
X173449071Y-80283857D01*
X172934785Y-80798142D01*
X173491928Y-80798142D01*
X173834785Y-79983857D02*
X173877642Y-79941000D01*
X173963357Y-79898142D01*
X174177642Y-79898142D01*
X174263357Y-79941000D01*
X174306214Y-79983857D01*
X174349071Y-80069571D01*
X174349071Y-80155285D01*
X174306214Y-80283857D01*
X173791928Y-80798142D01*
X174349071Y-80798142D01*
X175420500Y-80798142D02*
X175420500Y-79898142D01*
X175420500Y-80241000D02*
X175506214Y-80198142D01*
X175677642Y-80198142D01*
X175763357Y-80241000D01*
X175806214Y-80283857D01*
X175849071Y-80369571D01*
X175849071Y-80626714D01*
X175806214Y-80712428D01*
X175763357Y-80755285D01*
X175677642Y-80798142D01*
X175506214Y-80798142D01*
X175420500Y-80755285D01*
X176149071Y-80198142D02*
X176363357Y-80798142D01*
X176577642Y-80198142D02*
X176363357Y-80798142D01*
X176277642Y-81012428D01*
X176234785Y-81055285D01*
X176149071Y-81098142D01*
X178077642Y-79941000D02*
X177991928Y-79898142D01*
X177863357Y-79898142D01*
X177734785Y-79941000D01*
X177649071Y-80026714D01*
X177606214Y-80112428D01*
X177563357Y-80283857D01*
X177563357Y-80412428D01*
X177606214Y-80583857D01*
X177649071Y-80669571D01*
X177734785Y-80755285D01*
X177863357Y-80798142D01*
X177949071Y-80798142D01*
X178077642Y-80755285D01*
X178120500Y-80712428D01*
X178120500Y-80412428D01*
X177949071Y-80412428D01*
X178506214Y-80798142D02*
X178506214Y-80198142D01*
X178506214Y-80369571D02*
X178549071Y-80283857D01*
X178591928Y-80241000D01*
X178677642Y-80198142D01*
X178763357Y-80198142D01*
X179449071Y-80198142D02*
X179449071Y-80798142D01*
X179063357Y-80198142D02*
X179063357Y-80669571D01*
X179106214Y-80755285D01*
X179191928Y-80798142D01*
X179320500Y-80798142D01*
X179406214Y-80755285D01*
X179449071Y-80712428D01*
X179877642Y-80798142D02*
X179877642Y-79898142D01*
X180177642Y-80541000D01*
X180477642Y-79898142D01*
X180477642Y-80798142D01*
X181291928Y-80798142D02*
X181291928Y-80326714D01*
X181249071Y-80241000D01*
X181163357Y-80198142D01*
X180991928Y-80198142D01*
X180906214Y-80241000D01*
X181291928Y-80755285D02*
X181206214Y-80798142D01*
X180991928Y-80798142D01*
X180906214Y-80755285D01*
X180863357Y-80669571D01*
X180863357Y-80583857D01*
X180906214Y-80498142D01*
X180991928Y-80455285D01*
X181206214Y-80455285D01*
X181291928Y-80412428D01*
X181591928Y-80198142D02*
X181934785Y-80198142D01*
X181720500Y-79898142D02*
X181720500Y-80669571D01*
X181763357Y-80755285D01*
X181849071Y-80798142D01*
X181934785Y-80798142D01*
X143743690Y-95972380D02*
X144200833Y-95972380D01*
X143972261Y-96972380D02*
X143972261Y-95972380D01*
X144467500Y-96972380D02*
X144467500Y-95972380D01*
X144734166Y-96686666D01*
X145000833Y-95972380D01*
X145000833Y-96972380D01*
X145343690Y-96924761D02*
X145457976Y-96972380D01*
X145648452Y-96972380D01*
X145724642Y-96924761D01*
X145762738Y-96877142D01*
X145800833Y-96781904D01*
X145800833Y-96686666D01*
X145762738Y-96591428D01*
X145724642Y-96543809D01*
X145648452Y-96496190D01*
X145496071Y-96448571D01*
X145419880Y-96400952D01*
X145381785Y-96353333D01*
X145343690Y-96258095D01*
X145343690Y-96162857D01*
X145381785Y-96067619D01*
X145419880Y-96020000D01*
X145496071Y-95972380D01*
X145686547Y-95972380D01*
X145800833Y-96020000D01*
X112970880Y-98512380D02*
X113237547Y-99512380D01*
X113504214Y-98512380D01*
X113770880Y-99512380D02*
X113770880Y-98845714D01*
X113770880Y-99036190D02*
X113808976Y-98940952D01*
X113847071Y-98893333D01*
X113923261Y-98845714D01*
X113999452Y-98845714D01*
X114570880Y-99464761D02*
X114494690Y-99512380D01*
X114342309Y-99512380D01*
X114266119Y-99464761D01*
X114228023Y-99369523D01*
X114228023Y-98988571D01*
X114266119Y-98893333D01*
X114342309Y-98845714D01*
X114494690Y-98845714D01*
X114570880Y-98893333D01*
X114608976Y-98988571D01*
X114608976Y-99083809D01*
X114228023Y-99179047D01*
X114837547Y-98845714D02*
X115142309Y-98845714D01*
X114951833Y-99512380D02*
X114951833Y-98655238D01*
X114989928Y-98560000D01*
X115066119Y-98512380D01*
X115142309Y-98512380D01*
X148857538Y-109672380D02*
X148524204Y-109196190D01*
X148286109Y-109672380D02*
X148286109Y-108672380D01*
X148667061Y-108672380D01*
X148762300Y-108720000D01*
X148809919Y-108767619D01*
X148857538Y-108862857D01*
X148857538Y-109005714D01*
X148809919Y-109100952D01*
X148762300Y-109148571D01*
X148667061Y-109196190D01*
X148286109Y-109196190D01*
X149238490Y-109624761D02*
X149381347Y-109672380D01*
X149619442Y-109672380D01*
X149714680Y-109624761D01*
X149762300Y-109577142D01*
X149809919Y-109481904D01*
X149809919Y-109386666D01*
X149762300Y-109291428D01*
X149714680Y-109243809D01*
X149619442Y-109196190D01*
X149428966Y-109148571D01*
X149333728Y-109100952D01*
X149286109Y-109053333D01*
X149238490Y-108958095D01*
X149238490Y-108862857D01*
X149286109Y-108767619D01*
X149333728Y-108720000D01*
X149428966Y-108672380D01*
X149667061Y-108672380D01*
X149809919Y-108720000D01*
X150095633Y-108672380D02*
X150667061Y-108672380D01*
X150381347Y-109672380D02*
X150381347Y-108672380D01*
X112882023Y-103772380D02*
X113339166Y-103772380D01*
X113110595Y-104772380D02*
X113110595Y-103772380D01*
X113529642Y-104772380D02*
X113948690Y-104105714D01*
X113529642Y-104105714D02*
X113948690Y-104772380D01*
X114634404Y-104772380D02*
X114253452Y-104772380D01*
X114253452Y-103772380D01*
X115243928Y-104105714D02*
X115243928Y-104772380D01*
X115053452Y-103724761D02*
X114862976Y-104439047D01*
X115358214Y-104439047D01*
X143937690Y-98639380D02*
X144394833Y-98639380D01*
X144166261Y-99639380D02*
X144166261Y-98639380D01*
X144661500Y-99639380D02*
X144661500Y-98639380D01*
X144851976Y-98639380D01*
X144966261Y-98687000D01*
X145042452Y-98782238D01*
X145080547Y-98877476D01*
X145118642Y-99067952D01*
X145118642Y-99210809D01*
X145080547Y-99401285D01*
X145042452Y-99496523D01*
X144966261Y-99591761D01*
X144851976Y-99639380D01*
X144661500Y-99639380D01*
X145461500Y-99639380D02*
X145461500Y-98639380D01*
X153749523Y-124420380D02*
X154368571Y-124420380D01*
X154035238Y-124801333D01*
X154178095Y-124801333D01*
X154273333Y-124848952D01*
X154320952Y-124896571D01*
X154368571Y-124991809D01*
X154368571Y-125229904D01*
X154320952Y-125325142D01*
X154273333Y-125372761D01*
X154178095Y-125420380D01*
X153892380Y-125420380D01*
X153797142Y-125372761D01*
X153749523Y-125325142D01*
X154701904Y-124753714D02*
X154940000Y-125420380D01*
X155178095Y-124753714D01*
X155463809Y-124420380D02*
X156082857Y-124420380D01*
X155749523Y-124801333D01*
X155892380Y-124801333D01*
X155987619Y-124848952D01*
X156035238Y-124896571D01*
X156082857Y-124991809D01*
X156082857Y-125229904D01*
X156035238Y-125325142D01*
X155987619Y-125372761D01*
X155892380Y-125420380D01*
X155606666Y-125420380D01*
X155511428Y-125372761D01*
X155463809Y-125325142D01*
X162115714Y-124420380D02*
X162687142Y-124420380D01*
X162401428Y-125420380D02*
X162401428Y-124420380D01*
X162877619Y-124420380D02*
X163210952Y-125420380D01*
X163544285Y-124420380D01*
X164449047Y-125325142D02*
X164401428Y-125372761D01*
X164258571Y-125420380D01*
X164163333Y-125420380D01*
X164020476Y-125372761D01*
X163925238Y-125277523D01*
X163877619Y-125182285D01*
X163830000Y-124991809D01*
X163830000Y-124848952D01*
X163877619Y-124658476D01*
X163925238Y-124563238D01*
X164020476Y-124468000D01*
X164163333Y-124420380D01*
X164258571Y-124420380D01*
X164401428Y-124468000D01*
X164449047Y-124515619D01*
X165449047Y-125325142D02*
X165401428Y-125372761D01*
X165258571Y-125420380D01*
X165163333Y-125420380D01*
X165020476Y-125372761D01*
X164925238Y-125277523D01*
X164877619Y-125182285D01*
X164830000Y-124991809D01*
X164830000Y-124848952D01*
X164877619Y-124658476D01*
X164925238Y-124563238D01*
X165020476Y-124468000D01*
X165163333Y-124420380D01*
X165258571Y-124420380D01*
X165401428Y-124468000D01*
X165449047Y-124515619D01*
D13*
X169720595Y-75646500D02*
X169615833Y-75584595D01*
X169458690Y-75584595D01*
X169301547Y-75646500D01*
X169196785Y-75770309D01*
X169144404Y-75894119D01*
X169092023Y-76141738D01*
X169092023Y-76327452D01*
X169144404Y-76575071D01*
X169196785Y-76698880D01*
X169301547Y-76822690D01*
X169458690Y-76884595D01*
X169563452Y-76884595D01*
X169720595Y-76822690D01*
X169772976Y-76760785D01*
X169772976Y-76327452D01*
X169563452Y-76327452D01*
X170401547Y-76884595D02*
X170296785Y-76822690D01*
X170244404Y-76698880D01*
X170244404Y-75584595D01*
X170977738Y-76884595D02*
X170872976Y-76822690D01*
X170820595Y-76760785D01*
X170768214Y-76636976D01*
X170768214Y-76265547D01*
X170820595Y-76141738D01*
X170872976Y-76079833D01*
X170977738Y-76017928D01*
X171134880Y-76017928D01*
X171239642Y-76079833D01*
X171292023Y-76141738D01*
X171344404Y-76265547D01*
X171344404Y-76636976D01*
X171292023Y-76760785D01*
X171239642Y-76822690D01*
X171134880Y-76884595D01*
X170977738Y-76884595D01*
X171763452Y-76822690D02*
X171868214Y-76884595D01*
X172077738Y-76884595D01*
X172182500Y-76822690D01*
X172234880Y-76698880D01*
X172234880Y-76636976D01*
X172182500Y-76513166D01*
X172077738Y-76451261D01*
X171920595Y-76451261D01*
X171815833Y-76389357D01*
X171763452Y-76265547D01*
X171763452Y-76203642D01*
X171815833Y-76079833D01*
X171920595Y-76017928D01*
X172077738Y-76017928D01*
X172182500Y-76079833D01*
X172653928Y-76822690D02*
X172758690Y-76884595D01*
X172968214Y-76884595D01*
X173072976Y-76822690D01*
X173125357Y-76698880D01*
X173125357Y-76636976D01*
X173072976Y-76513166D01*
X172968214Y-76451261D01*
X172811071Y-76451261D01*
X172706309Y-76389357D01*
X172653928Y-76265547D01*
X172653928Y-76203642D01*
X172706309Y-76079833D01*
X172811071Y-76017928D01*
X172968214Y-76017928D01*
X173072976Y-76079833D01*
X173492023Y-76017928D02*
X173753928Y-76884595D01*
X174015833Y-76017928D02*
X173753928Y-76884595D01*
X173649166Y-77194119D01*
X173596785Y-77256023D01*
X173492023Y-77317928D01*
X174434880Y-76389357D02*
X175272976Y-76389357D01*
X175796785Y-76884595D02*
X175796785Y-75584595D01*
X176163452Y-76513166D01*
X176530119Y-75584595D01*
X176530119Y-76884595D01*
X177001547Y-76822690D02*
X177158690Y-76884595D01*
X177420595Y-76884595D01*
X177525357Y-76822690D01*
X177577738Y-76760785D01*
X177630119Y-76636976D01*
X177630119Y-76513166D01*
X177577738Y-76389357D01*
X177525357Y-76327452D01*
X177420595Y-76265547D01*
X177211071Y-76203642D01*
X177106309Y-76141738D01*
X177053928Y-76079833D01*
X177001547Y-75956023D01*
X177001547Y-75832214D01*
X177053928Y-75708404D01*
X177106309Y-75646500D01*
X177211071Y-75584595D01*
X177472976Y-75584595D01*
X177630119Y-75646500D01*
X178101547Y-76884595D02*
X178101547Y-75584595D01*
X178520595Y-75584595D01*
X178625357Y-75646500D01*
X178677738Y-75708404D01*
X178730119Y-75832214D01*
X178730119Y-76017928D01*
X178677738Y-76141738D01*
X178625357Y-76203642D01*
X178520595Y-76265547D01*
X178101547Y-76265547D01*
X179672976Y-76017928D02*
X179672976Y-76884595D01*
X179411071Y-75522690D02*
X179149166Y-76451261D01*
X179830119Y-76451261D01*
X180144404Y-75584595D02*
X180825357Y-75584595D01*
X180458690Y-76079833D01*
X180615833Y-76079833D01*
X180720595Y-76141738D01*
X180772976Y-76203642D01*
X180825357Y-76327452D01*
X180825357Y-76636976D01*
X180772976Y-76760785D01*
X180720595Y-76822690D01*
X180615833Y-76884595D01*
X180301547Y-76884595D01*
X180196785Y-76822690D01*
X180144404Y-76760785D01*
X181506309Y-75584595D02*
X181611071Y-75584595D01*
X181715833Y-75646500D01*
X181768214Y-75708404D01*
X181820595Y-75832214D01*
X181872976Y-76079833D01*
X181872976Y-76389357D01*
X181820595Y-76636976D01*
X181768214Y-76760785D01*
X181715833Y-76822690D01*
X181611071Y-76884595D01*
X181506309Y-76884595D01*
X181401547Y-76822690D01*
X181349166Y-76760785D01*
X181296785Y-76636976D01*
X181244404Y-76389357D01*
X181244404Y-76079833D01*
X181296785Y-75832214D01*
X181349166Y-75708404D01*
X181401547Y-75646500D01*
X181506309Y-75584595D01*
X158825357Y-78110928D02*
X159244404Y-78110928D01*
X158982500Y-78977595D02*
X158982500Y-77863309D01*
X159034880Y-77739500D01*
X159139642Y-77677595D01*
X159244404Y-77677595D01*
X159768214Y-78977595D02*
X159663452Y-78915690D01*
X159611071Y-78853785D01*
X159558690Y-78729976D01*
X159558690Y-78358547D01*
X159611071Y-78234738D01*
X159663452Y-78172833D01*
X159768214Y-78110928D01*
X159925357Y-78110928D01*
X160030119Y-78172833D01*
X160082500Y-78234738D01*
X160134880Y-78358547D01*
X160134880Y-78729976D01*
X160082500Y-78853785D01*
X160030119Y-78915690D01*
X159925357Y-78977595D01*
X159768214Y-78977595D01*
X160606309Y-78977595D02*
X160606309Y-78110928D01*
X160606309Y-78358547D02*
X160658690Y-78234738D01*
X160711071Y-78172833D01*
X160815833Y-78110928D01*
X160920595Y-78110928D01*
X162125357Y-78977595D02*
X162125357Y-77677595D01*
X162753928Y-78977595D01*
X162753928Y-77677595D01*
X163749166Y-78110928D02*
X163749166Y-78977595D01*
X163277738Y-78110928D02*
X163277738Y-78791880D01*
X163330119Y-78915690D01*
X163434880Y-78977595D01*
X163592023Y-78977595D01*
X163696785Y-78915690D01*
X163749166Y-78853785D01*
X164744404Y-78915690D02*
X164639642Y-78977595D01*
X164430119Y-78977595D01*
X164325357Y-78915690D01*
X164272976Y-78853785D01*
X164220595Y-78729976D01*
X164220595Y-78358547D01*
X164272976Y-78234738D01*
X164325357Y-78172833D01*
X164430119Y-78110928D01*
X164639642Y-78110928D01*
X164744404Y-78172833D01*
X165372976Y-78977595D02*
X165268214Y-78915690D01*
X165215833Y-78791880D01*
X165215833Y-77677595D01*
X166211071Y-78915690D02*
X166106309Y-78977595D01*
X165896785Y-78977595D01*
X165792023Y-78915690D01*
X165739642Y-78791880D01*
X165739642Y-78296642D01*
X165792023Y-78172833D01*
X165896785Y-78110928D01*
X166106309Y-78110928D01*
X166211071Y-78172833D01*
X166263452Y-78296642D01*
X166263452Y-78420452D01*
X165739642Y-78544261D01*
X166892023Y-78977595D02*
X166787261Y-78915690D01*
X166734880Y-78853785D01*
X166682500Y-78729976D01*
X166682500Y-78358547D01*
X166734880Y-78234738D01*
X166787261Y-78172833D01*
X166892023Y-78110928D01*
X167049166Y-78110928D01*
X167153928Y-78172833D01*
X167206309Y-78234738D01*
X167258690Y-78358547D01*
X167258690Y-78729976D01*
X167206309Y-78853785D01*
X167153928Y-78915690D01*
X167049166Y-78977595D01*
X166892023Y-78977595D01*
X169092023Y-78977595D02*
X168568214Y-78977595D01*
X168568214Y-77677595D01*
X169930119Y-78110928D02*
X169930119Y-78977595D01*
X169668214Y-77615690D02*
X169406309Y-78544261D01*
X170087261Y-78544261D01*
X170401547Y-77677595D02*
X171082500Y-77677595D01*
X170715833Y-78172833D01*
X170872976Y-78172833D01*
X170977738Y-78234738D01*
X171030119Y-78296642D01*
X171082500Y-78420452D01*
X171082500Y-78729976D01*
X171030119Y-78853785D01*
X170977738Y-78915690D01*
X170872976Y-78977595D01*
X170558690Y-78977595D01*
X170453928Y-78915690D01*
X170401547Y-78853785D01*
X171501547Y-77801404D02*
X171553928Y-77739500D01*
X171658690Y-77677595D01*
X171920595Y-77677595D01*
X172025357Y-77739500D01*
X172077738Y-77801404D01*
X172130119Y-77925214D01*
X172130119Y-78049023D01*
X172077738Y-78234738D01*
X171449166Y-78977595D01*
X172130119Y-78977595D01*
X172601547Y-78977595D02*
X172601547Y-77677595D01*
X173230119Y-78977595D02*
X172758690Y-78234738D01*
X173230119Y-77677595D02*
X172601547Y-78420452D01*
X174330119Y-78853785D02*
X174277738Y-78915690D01*
X174120595Y-78977595D01*
X174015833Y-78977595D01*
X173858690Y-78915690D01*
X173753928Y-78791880D01*
X173701547Y-78668071D01*
X173649166Y-78420452D01*
X173649166Y-78234738D01*
X173701547Y-77987119D01*
X173753928Y-77863309D01*
X173858690Y-77739500D01*
X174015833Y-77677595D01*
X174120595Y-77677595D01*
X174277738Y-77739500D01*
X174330119Y-77801404D01*
X175587261Y-77615690D02*
X174644404Y-79287119D01*
X176530119Y-77739500D02*
X176425357Y-77677595D01*
X176268214Y-77677595D01*
X176111071Y-77739500D01*
X176006309Y-77863309D01*
X175953928Y-77987119D01*
X175901547Y-78234738D01*
X175901547Y-78420452D01*
X175953928Y-78668071D01*
X176006309Y-78791880D01*
X176111071Y-78915690D01*
X176268214Y-78977595D01*
X176372976Y-78977595D01*
X176530119Y-78915690D01*
X176582500Y-78853785D01*
X176582500Y-78420452D01*
X176372976Y-78420452D01*
X177525357Y-78110928D02*
X177525357Y-78977595D01*
X177263452Y-77615690D02*
X177001547Y-78544261D01*
X177682500Y-78544261D01*
X177996785Y-77677595D02*
X178677738Y-77677595D01*
X178311071Y-78172833D01*
X178468214Y-78172833D01*
X178572976Y-78234738D01*
X178625357Y-78296642D01*
X178677738Y-78420452D01*
X178677738Y-78729976D01*
X178625357Y-78853785D01*
X178572976Y-78915690D01*
X178468214Y-78977595D01*
X178153928Y-78977595D01*
X178049166Y-78915690D01*
X177996785Y-78853785D01*
X179725357Y-78977595D02*
X179096785Y-78977595D01*
X179411071Y-78977595D02*
X179411071Y-77677595D01*
X179306309Y-77863309D01*
X179201547Y-77987119D01*
X179096785Y-78049023D01*
X180196785Y-78977595D02*
X180196785Y-77677595D01*
X180825357Y-78977595D02*
X180353928Y-78234738D01*
X180825357Y-77677595D02*
X180196785Y-78420452D01*
X181768214Y-77677595D02*
X181558690Y-77677595D01*
X181453928Y-77739500D01*
X181401547Y-77801404D01*
X181296785Y-77987119D01*
X181244404Y-78234738D01*
X181244404Y-78729976D01*
X181296785Y-78853785D01*
X181349166Y-78915690D01*
X181453928Y-78977595D01*
X181663452Y-78977595D01*
X181768214Y-78915690D01*
X181820595Y-78853785D01*
X181872976Y-78729976D01*
X181872976Y-78420452D01*
X181820595Y-78296642D01*
X181768214Y-78234738D01*
X181663452Y-78172833D01*
X181453928Y-78172833D01*
X181349166Y-78234738D01*
X181296785Y-78296642D01*
X181244404Y-78420452D01*
D12*
X107307071Y-81732380D02*
X106926119Y-81732380D01*
X106926119Y-80732380D01*
X107573738Y-81208571D02*
X107840404Y-81208571D01*
X107954690Y-81732380D02*
X107573738Y-81732380D01*
X107573738Y-80732380D01*
X107954690Y-80732380D01*
X108297547Y-81732380D02*
X108297547Y-80732380D01*
X108488023Y-80732380D01*
X108602309Y-80780000D01*
X108678500Y-80875238D01*
X108716595Y-80970476D01*
X108754690Y-81160952D01*
X108754690Y-81303809D01*
X108716595Y-81494285D01*
X108678500Y-81589523D01*
X108602309Y-81684761D01*
X108488023Y-81732380D01*
X108297547Y-81732380D01*
X109059452Y-81684761D02*
X109173738Y-81732380D01*
X109364214Y-81732380D01*
X109440404Y-81684761D01*
X109478500Y-81637142D01*
X109516595Y-81541904D01*
X109516595Y-81446666D01*
X109478500Y-81351428D01*
X109440404Y-81303809D01*
X109364214Y-81256190D01*
X109211833Y-81208571D01*
X109135642Y-81160952D01*
X109097547Y-81113333D01*
X109059452Y-81018095D01*
X109059452Y-80922857D01*
X109097547Y-80827619D01*
X109135642Y-80780000D01*
X109211833Y-80732380D01*
X109402309Y-80732380D01*
X109516595Y-80780000D01*
X110430880Y-80684761D02*
X109745166Y-81970476D01*
X110583261Y-80732380D02*
X111040404Y-80732380D01*
X110811833Y-81732380D02*
X110811833Y-80732380D01*
X111230880Y-80732380D02*
X111764214Y-81732380D01*
X111764214Y-80732380D02*
X111230880Y-81732380D01*
X112068976Y-81732380D02*
X112068976Y-80732380D01*
X112259452Y-80732380D01*
X112373738Y-80780000D01*
X112449928Y-80875238D01*
X112488023Y-80970476D01*
X112526119Y-81160952D01*
X112526119Y-81303809D01*
X112488023Y-81494285D01*
X112449928Y-81589523D01*
X112373738Y-81684761D01*
X112259452Y-81732380D01*
X112068976Y-81732380D01*
X110209309Y-78255000D02*
X110133119Y-78207380D01*
X110018833Y-78207380D01*
X109904547Y-78255000D01*
X109828357Y-78350238D01*
X109790261Y-78445476D01*
X109752166Y-78635952D01*
X109752166Y-78778809D01*
X109790261Y-78969285D01*
X109828357Y-79064523D01*
X109904547Y-79159761D01*
X110018833Y-79207380D01*
X110095023Y-79207380D01*
X110209309Y-79159761D01*
X110247404Y-79112142D01*
X110247404Y-78778809D01*
X110095023Y-78778809D01*
X110933119Y-78540714D02*
X110933119Y-79207380D01*
X110742642Y-78159761D02*
X110552166Y-78874047D01*
X111047404Y-78874047D01*
X111275976Y-78207380D02*
X111771214Y-78207380D01*
X111504547Y-78588333D01*
X111618833Y-78588333D01*
X111695023Y-78635952D01*
X111733119Y-78683571D01*
X111771214Y-78778809D01*
X111771214Y-79016904D01*
X111733119Y-79112142D01*
X111695023Y-79159761D01*
X111618833Y-79207380D01*
X111390261Y-79207380D01*
X111314071Y-79159761D01*
X111275976Y-79112142D01*
X112533119Y-79207380D02*
X112075976Y-79207380D01*
X112304547Y-79207380D02*
X112304547Y-78207380D01*
X112228357Y-78350238D01*
X112152166Y-78445476D01*
X112075976Y-78493095D01*
D14*
X177577952Y-125884952D02*
X178244619Y-128384952D01*
X178911285Y-125884952D01*
X179482714Y-126123047D02*
X179577952Y-126004000D01*
X179768428Y-125884952D01*
X180244619Y-125884952D01*
X180435095Y-126004000D01*
X180530333Y-126123047D01*
X180625571Y-126361142D01*
X180625571Y-126599238D01*
X180530333Y-126956380D01*
X179387476Y-128384952D01*
X180625571Y-128384952D01*
D12*
X140047547Y-86066380D02*
X140314214Y-87066380D01*
X140580880Y-86066380D01*
X141304690Y-86971142D02*
X141266595Y-87018761D01*
X141152309Y-87066380D01*
X141076119Y-87066380D01*
X140961833Y-87018761D01*
X140885642Y-86923523D01*
X140847547Y-86828285D01*
X140809452Y-86637809D01*
X140809452Y-86494952D01*
X140847547Y-86304476D01*
X140885642Y-86209238D01*
X140961833Y-86114000D01*
X141076119Y-86066380D01*
X141152309Y-86066380D01*
X141266595Y-86114000D01*
X141304690Y-86161619D01*
X141647547Y-87066380D02*
X141647547Y-86066380D01*
X141952309Y-86066380D01*
X142028500Y-86114000D01*
X142066595Y-86161619D01*
X142104690Y-86256857D01*
X142104690Y-86399714D01*
X142066595Y-86494952D01*
X142028500Y-86542571D01*
X141952309Y-86590190D01*
X141647547Y-86590190D01*
X142257071Y-87161619D02*
X142866595Y-87161619D01*
X143057071Y-86542571D02*
X143323738Y-86542571D01*
X143438023Y-87066380D02*
X143057071Y-87066380D01*
X143057071Y-86066380D01*
X143438023Y-86066380D01*
X143780880Y-87066380D02*
X143780880Y-86066380D01*
X144238023Y-87066380D01*
X144238023Y-86066380D01*
X112729642Y-106312380D02*
X113186785Y-106312380D01*
X112958214Y-107312380D02*
X112958214Y-106312380D01*
X113377261Y-107312380D02*
X113796309Y-106645714D01*
X113377261Y-106645714D02*
X113796309Y-107312380D01*
X114520119Y-106360000D02*
X114443928Y-106312380D01*
X114329642Y-106312380D01*
X114215357Y-106360000D01*
X114139166Y-106455238D01*
X114101071Y-106550476D01*
X114062976Y-106740952D01*
X114062976Y-106883809D01*
X114101071Y-107074285D01*
X114139166Y-107169523D01*
X114215357Y-107264761D01*
X114329642Y-107312380D01*
X114405833Y-107312380D01*
X114520119Y-107264761D01*
X114558214Y-107217142D01*
X114558214Y-106883809D01*
X114405833Y-106883809D01*
X115243928Y-106645714D02*
X115243928Y-107312380D01*
X115053452Y-106264761D02*
X114862976Y-106979047D01*
X115358214Y-106979047D01*
X110316595Y-84272380D02*
X109935642Y-84272380D01*
X109935642Y-83272380D01*
X110926119Y-83605714D02*
X110926119Y-84272380D01*
X110735642Y-83224761D02*
X110545166Y-83939047D01*
X111040404Y-83939047D01*
X111268976Y-83272380D02*
X111764214Y-83272380D01*
X111497547Y-83653333D01*
X111611833Y-83653333D01*
X111688023Y-83700952D01*
X111726119Y-83748571D01*
X111764214Y-83843809D01*
X111764214Y-84081904D01*
X111726119Y-84177142D01*
X111688023Y-84224761D01*
X111611833Y-84272380D01*
X111383261Y-84272380D01*
X111307071Y-84224761D01*
X111268976Y-84177142D01*
X112068976Y-83367619D02*
X112107071Y-83320000D01*
X112183261Y-83272380D01*
X112373738Y-83272380D01*
X112449928Y-83320000D01*
X112488023Y-83367619D01*
X112526119Y-83462857D01*
X112526119Y-83558095D01*
X112488023Y-83700952D01*
X112030880Y-84272380D01*
X112526119Y-84272380D01*
X148194395Y-95972380D02*
X148765823Y-95972380D01*
X148480109Y-96972380D02*
X148480109Y-95972380D01*
X149099157Y-96972380D02*
X149099157Y-95972380D01*
X149432490Y-96686666D01*
X149765823Y-95972380D01*
X149765823Y-96972380D01*
X150194395Y-96924761D02*
X150337252Y-96972380D01*
X150575347Y-96972380D01*
X150670585Y-96924761D01*
X150718204Y-96877142D01*
X150765823Y-96781904D01*
X150765823Y-96686666D01*
X150718204Y-96591428D01*
X150670585Y-96543809D01*
X150575347Y-96496190D01*
X150384871Y-96448571D01*
X150289633Y-96400952D01*
X150242014Y-96353333D01*
X150194395Y-96258095D01*
X150194395Y-96162857D01*
X150242014Y-96067619D01*
X150289633Y-96020000D01*
X150384871Y-95972380D01*
X150622966Y-95972380D01*
X150765823Y-96020000D01*
X148349633Y-98512380D02*
X148921061Y-98512380D01*
X148635347Y-99512380D02*
X148635347Y-98512380D01*
X149825823Y-99417142D02*
X149778204Y-99464761D01*
X149635347Y-99512380D01*
X149540109Y-99512380D01*
X149397252Y-99464761D01*
X149302014Y-99369523D01*
X149254395Y-99274285D01*
X149206776Y-99083809D01*
X149206776Y-98940952D01*
X149254395Y-98750476D01*
X149302014Y-98655238D01*
X149397252Y-98560000D01*
X149540109Y-98512380D01*
X149635347Y-98512380D01*
X149778204Y-98560000D01*
X149825823Y-98607619D01*
X150254395Y-99512380D02*
X150254395Y-98512380D01*
X150825823Y-99512380D02*
X150397252Y-98940952D01*
X150825823Y-98512380D02*
X150254395Y-99083809D01*
X154360619Y-101544761D02*
X154360619Y-101068571D01*
X155360619Y-101068571D01*
X154360619Y-102020952D02*
X154408238Y-101925714D01*
X154455857Y-101878095D01*
X154551095Y-101830476D01*
X154836809Y-101830476D01*
X154932047Y-101878095D01*
X154979666Y-101925714D01*
X155027285Y-102020952D01*
X155027285Y-102163809D01*
X154979666Y-102259047D01*
X154932047Y-102306666D01*
X154836809Y-102354285D01*
X154551095Y-102354285D01*
X154455857Y-102306666D01*
X154408238Y-102259047D01*
X154360619Y-102163809D01*
X154360619Y-102020952D01*
X155027285Y-103211428D02*
X154217761Y-103211428D01*
X154122523Y-103163809D01*
X154074904Y-103116190D01*
X154027285Y-103020952D01*
X154027285Y-102878095D01*
X154074904Y-102782857D01*
X154408238Y-103211428D02*
X154360619Y-103116190D01*
X154360619Y-102925714D01*
X154408238Y-102830476D01*
X154455857Y-102782857D01*
X154551095Y-102735238D01*
X154836809Y-102735238D01*
X154932047Y-102782857D01*
X154979666Y-102830476D01*
X155027285Y-102925714D01*
X155027285Y-103116190D01*
X154979666Y-103211428D01*
X154360619Y-103687619D02*
X155027285Y-103687619D01*
X155360619Y-103687619D02*
X155313000Y-103640000D01*
X155265380Y-103687619D01*
X155313000Y-103735238D01*
X155360619Y-103687619D01*
X155265380Y-103687619D01*
X154408238Y-104592380D02*
X154360619Y-104497142D01*
X154360619Y-104306666D01*
X154408238Y-104211428D01*
X154455857Y-104163809D01*
X154551095Y-104116190D01*
X154836809Y-104116190D01*
X154932047Y-104163809D01*
X154979666Y-104211428D01*
X155027285Y-104306666D01*
X155027285Y-104497142D01*
X154979666Y-104592380D01*
X154646333Y-104973333D02*
X154646333Y-105449523D01*
X154360619Y-104878095D02*
X155360619Y-105211428D01*
X154360619Y-105544761D01*
X155027285Y-105878095D02*
X154360619Y-105878095D01*
X154932047Y-105878095D02*
X154979666Y-105925714D01*
X155027285Y-106020952D01*
X155027285Y-106163809D01*
X154979666Y-106259047D01*
X154884428Y-106306666D01*
X154360619Y-106306666D01*
X154360619Y-107211428D02*
X154884428Y-107211428D01*
X154979666Y-107163809D01*
X155027285Y-107068571D01*
X155027285Y-106878095D01*
X154979666Y-106782857D01*
X154408238Y-107211428D02*
X154360619Y-107116190D01*
X154360619Y-106878095D01*
X154408238Y-106782857D01*
X154503476Y-106735238D01*
X154598714Y-106735238D01*
X154693952Y-106782857D01*
X154741571Y-106878095D01*
X154741571Y-107116190D01*
X154789190Y-107211428D01*
X143937690Y-101052380D02*
X144394833Y-101052380D01*
X144166261Y-102052380D02*
X144166261Y-101052380D01*
X144661500Y-102052380D02*
X144661500Y-101052380D01*
X144851976Y-101052380D01*
X144966261Y-101100000D01*
X145042452Y-101195238D01*
X145080547Y-101290476D01*
X145118642Y-101480952D01*
X145118642Y-101623809D01*
X145080547Y-101814285D01*
X145042452Y-101909523D01*
X144966261Y-102004761D01*
X144851976Y-102052380D01*
X144661500Y-102052380D01*
X145613880Y-101052380D02*
X145766261Y-101052380D01*
X145842452Y-101100000D01*
X145918642Y-101195238D01*
X145956738Y-101385714D01*
X145956738Y-101719047D01*
X145918642Y-101909523D01*
X145842452Y-102004761D01*
X145766261Y-102052380D01*
X145613880Y-102052380D01*
X145537690Y-102004761D01*
X145461500Y-101909523D01*
X145423404Y-101719047D01*
X145423404Y-101385714D01*
X145461500Y-101195238D01*
X145537690Y-101100000D01*
X145613880Y-101052380D01*
X112653452Y-114228571D02*
X112920119Y-114228571D01*
X113034404Y-114752380D02*
X112653452Y-114752380D01*
X112653452Y-113752380D01*
X113034404Y-113752380D01*
X113377261Y-114752380D02*
X113377261Y-113752380D01*
X113834404Y-114752380D01*
X113834404Y-113752380D01*
X114177261Y-114466666D02*
X114558214Y-114466666D01*
X114101071Y-114752380D02*
X114367738Y-113752380D01*
X114634404Y-114752380D01*
X115320119Y-114752380D02*
X114862976Y-114752380D01*
X115091547Y-114752380D02*
X115091547Y-113752380D01*
X115015357Y-113895238D01*
X114939166Y-113990476D01*
X114862976Y-114038095D01*
X113085166Y-108672380D02*
X113542309Y-108672380D01*
X113313738Y-109672380D02*
X113313738Y-108672380D01*
X114266119Y-109577142D02*
X114228023Y-109624761D01*
X114113738Y-109672380D01*
X114037547Y-109672380D01*
X113923261Y-109624761D01*
X113847071Y-109529523D01*
X113808976Y-109434285D01*
X113770880Y-109243809D01*
X113770880Y-109100952D01*
X113808976Y-108910476D01*
X113847071Y-108815238D01*
X113923261Y-108720000D01*
X114037547Y-108672380D01*
X114113738Y-108672380D01*
X114228023Y-108720000D01*
X114266119Y-108767619D01*
X114608976Y-109672380D02*
X114608976Y-108672380D01*
X115066119Y-109672380D02*
X114723261Y-109100952D01*
X115066119Y-108672380D02*
X114608976Y-109243809D01*
X148381347Y-106132380D02*
X148952776Y-106132380D01*
X148667061Y-107132380D02*
X148667061Y-106132380D01*
X149238490Y-107084761D02*
X149381347Y-107132380D01*
X149619442Y-107132380D01*
X149714680Y-107084761D01*
X149762300Y-107037142D01*
X149809919Y-106941904D01*
X149809919Y-106846666D01*
X149762300Y-106751428D01*
X149714680Y-106703809D01*
X149619442Y-106656190D01*
X149428966Y-106608571D01*
X149333728Y-106560952D01*
X149286109Y-106513333D01*
X149238490Y-106418095D01*
X149238490Y-106322857D01*
X149286109Y-106227619D01*
X149333728Y-106180000D01*
X149428966Y-106132380D01*
X149667061Y-106132380D01*
X149809919Y-106180000D01*
X150095633Y-106132380D02*
X150667061Y-106132380D01*
X150381347Y-107132380D02*
X150381347Y-106132380D01*
X112653452Y-111688571D02*
X112920119Y-111688571D01*
X113034404Y-112212380D02*
X112653452Y-112212380D01*
X112653452Y-111212380D01*
X113034404Y-111212380D01*
X113377261Y-112212380D02*
X113377261Y-111212380D01*
X113834404Y-112212380D01*
X113834404Y-111212380D01*
X114177261Y-111926666D02*
X114558214Y-111926666D01*
X114101071Y-112212380D02*
X114367738Y-111212380D01*
X114634404Y-112212380D01*
X114862976Y-111307619D02*
X114901071Y-111260000D01*
X114977261Y-111212380D01*
X115167738Y-111212380D01*
X115243928Y-111260000D01*
X115282023Y-111307619D01*
X115320119Y-111402857D01*
X115320119Y-111498095D01*
X115282023Y-111640952D01*
X114824880Y-112212380D01*
X115320119Y-112212380D01*
X122444761Y-79106380D02*
X122444761Y-78106380D01*
X123016190Y-79106380D01*
X123016190Y-78106380D01*
X123920952Y-78439714D02*
X123920952Y-79106380D01*
X123492380Y-78439714D02*
X123492380Y-78963523D01*
X123540000Y-79058761D01*
X123635238Y-79106380D01*
X123778095Y-79106380D01*
X123873333Y-79058761D01*
X123920952Y-79011142D01*
X124825714Y-79058761D02*
X124730476Y-79106380D01*
X124540000Y-79106380D01*
X124444761Y-79058761D01*
X124397142Y-79011142D01*
X124349523Y-78915904D01*
X124349523Y-78630190D01*
X124397142Y-78534952D01*
X124444761Y-78487333D01*
X124540000Y-78439714D01*
X124730476Y-78439714D01*
X124825714Y-78487333D01*
X125397142Y-79106380D02*
X125301904Y-79058761D01*
X125254285Y-78963523D01*
X125254285Y-78106380D01*
X126159047Y-79058761D02*
X126063809Y-79106380D01*
X125873333Y-79106380D01*
X125778095Y-79058761D01*
X125730476Y-78963523D01*
X125730476Y-78582571D01*
X125778095Y-78487333D01*
X125873333Y-78439714D01*
X126063809Y-78439714D01*
X126159047Y-78487333D01*
X126206666Y-78582571D01*
X126206666Y-78677809D01*
X125730476Y-78773047D01*
X126778095Y-79106380D02*
X126682857Y-79058761D01*
X126635238Y-79011142D01*
X126587619Y-78915904D01*
X126587619Y-78630190D01*
X126635238Y-78534952D01*
X126682857Y-78487333D01*
X126778095Y-78439714D01*
X126920952Y-78439714D01*
X127016190Y-78487333D01*
X127063809Y-78534952D01*
X127111428Y-78630190D01*
X127111428Y-78915904D01*
X127063809Y-79011142D01*
X127016190Y-79058761D01*
X126920952Y-79106380D01*
X126778095Y-79106380D01*
X127540000Y-78725428D02*
X128301904Y-78725428D01*
X128682857Y-78106380D02*
X129301904Y-78106380D01*
X128968571Y-78487333D01*
X129111428Y-78487333D01*
X129206666Y-78534952D01*
X129254285Y-78582571D01*
X129301904Y-78677809D01*
X129301904Y-78915904D01*
X129254285Y-79011142D01*
X129206666Y-79058761D01*
X129111428Y-79106380D01*
X128825714Y-79106380D01*
X128730476Y-79058761D01*
X128682857Y-79011142D01*
X129682857Y-78201619D02*
X129730476Y-78154000D01*
X129825714Y-78106380D01*
X130063809Y-78106380D01*
X130159047Y-78154000D01*
X130206666Y-78201619D01*
X130254285Y-78296857D01*
X130254285Y-78392095D01*
X130206666Y-78534952D01*
X129635238Y-79106380D01*
X130254285Y-79106380D01*
X131920952Y-79106380D02*
X131444761Y-79106380D01*
X131444761Y-78106380D01*
X132682857Y-78439714D02*
X132682857Y-79106380D01*
X132444761Y-78058761D02*
X132206666Y-78773047D01*
X132825714Y-78773047D01*
X133111428Y-78106380D02*
X133730476Y-78106380D01*
X133397142Y-78487333D01*
X133540000Y-78487333D01*
X133635238Y-78534952D01*
X133682857Y-78582571D01*
X133730476Y-78677809D01*
X133730476Y-78915904D01*
X133682857Y-79011142D01*
X133635238Y-79058761D01*
X133540000Y-79106380D01*
X133254285Y-79106380D01*
X133159047Y-79058761D01*
X133111428Y-79011142D01*
X134111428Y-78201619D02*
X134159047Y-78154000D01*
X134254285Y-78106380D01*
X134492380Y-78106380D01*
X134587619Y-78154000D01*
X134635238Y-78201619D01*
X134682857Y-78296857D01*
X134682857Y-78392095D01*
X134635238Y-78534952D01*
X134063809Y-79106380D01*
X134682857Y-79106380D01*
X135111428Y-79106380D02*
X135111428Y-78106380D01*
X135682857Y-79106380D02*
X135254285Y-78534952D01*
X135682857Y-78106380D02*
X135111428Y-78677809D01*
X136682857Y-79011142D02*
X136635238Y-79058761D01*
X136492380Y-79106380D01*
X136397142Y-79106380D01*
X136254285Y-79058761D01*
X136159047Y-78963523D01*
X136111428Y-78868285D01*
X136063809Y-78677809D01*
X136063809Y-78534952D01*
X136111428Y-78344476D01*
X136159047Y-78249238D01*
X136254285Y-78154000D01*
X136397142Y-78106380D01*
X136492380Y-78106380D01*
X136635238Y-78154000D01*
X136682857Y-78201619D01*
X129159047Y-80716380D02*
X129063809Y-80668761D01*
X129016190Y-80621142D01*
X128968571Y-80525904D01*
X128968571Y-80240190D01*
X129016190Y-80144952D01*
X129063809Y-80097333D01*
X129159047Y-80049714D01*
X129301904Y-80049714D01*
X129397142Y-80097333D01*
X129444761Y-80144952D01*
X129492380Y-80240190D01*
X129492380Y-80525904D01*
X129444761Y-80621142D01*
X129397142Y-80668761D01*
X129301904Y-80716380D01*
X129159047Y-80716380D01*
X129920952Y-80716380D02*
X129920952Y-80049714D01*
X129920952Y-80240190D02*
X129968571Y-80144952D01*
X130016190Y-80097333D01*
X130111428Y-80049714D01*
X130206666Y-80049714D01*
X122373333Y-82326380D02*
X122373333Y-81326380D01*
X122944761Y-82326380D01*
X122944761Y-81326380D01*
X123849523Y-81659714D02*
X123849523Y-82326380D01*
X123420952Y-81659714D02*
X123420952Y-82183523D01*
X123468571Y-82278761D01*
X123563809Y-82326380D01*
X123706666Y-82326380D01*
X123801904Y-82278761D01*
X123849523Y-82231142D01*
X124754285Y-82278761D02*
X124659047Y-82326380D01*
X124468571Y-82326380D01*
X124373333Y-82278761D01*
X124325714Y-82231142D01*
X124278095Y-82135904D01*
X124278095Y-81850190D01*
X124325714Y-81754952D01*
X124373333Y-81707333D01*
X124468571Y-81659714D01*
X124659047Y-81659714D01*
X124754285Y-81707333D01*
X125325714Y-82326380D02*
X125230476Y-82278761D01*
X125182857Y-82183523D01*
X125182857Y-81326380D01*
X126087619Y-82278761D02*
X125992380Y-82326380D01*
X125801904Y-82326380D01*
X125706666Y-82278761D01*
X125659047Y-82183523D01*
X125659047Y-81802571D01*
X125706666Y-81707333D01*
X125801904Y-81659714D01*
X125992380Y-81659714D01*
X126087619Y-81707333D01*
X126135238Y-81802571D01*
X126135238Y-81897809D01*
X125659047Y-81993047D01*
X126706666Y-82326380D02*
X126611428Y-82278761D01*
X126563809Y-82231142D01*
X126516190Y-82135904D01*
X126516190Y-81850190D01*
X126563809Y-81754952D01*
X126611428Y-81707333D01*
X126706666Y-81659714D01*
X126849523Y-81659714D01*
X126944761Y-81707333D01*
X126992380Y-81754952D01*
X127040000Y-81850190D01*
X127040000Y-82135904D01*
X126992380Y-82231142D01*
X126944761Y-82278761D01*
X126849523Y-82326380D01*
X126706666Y-82326380D01*
X127468571Y-81945428D02*
X128230476Y-81945428D01*
X128611428Y-81326380D02*
X129230476Y-81326380D01*
X128897142Y-81707333D01*
X129040000Y-81707333D01*
X129135238Y-81754952D01*
X129182857Y-81802571D01*
X129230476Y-81897809D01*
X129230476Y-82135904D01*
X129182857Y-82231142D01*
X129135238Y-82278761D01*
X129040000Y-82326380D01*
X128754285Y-82326380D01*
X128659047Y-82278761D01*
X128611428Y-82231142D01*
X129611428Y-81421619D02*
X129659047Y-81374000D01*
X129754285Y-81326380D01*
X129992380Y-81326380D01*
X130087619Y-81374000D01*
X130135238Y-81421619D01*
X130182857Y-81516857D01*
X130182857Y-81612095D01*
X130135238Y-81754952D01*
X129563809Y-82326380D01*
X130182857Y-82326380D01*
X131897142Y-81374000D02*
X131801904Y-81326380D01*
X131659047Y-81326380D01*
X131516190Y-81374000D01*
X131420952Y-81469238D01*
X131373333Y-81564476D01*
X131325714Y-81754952D01*
X131325714Y-81897809D01*
X131373333Y-82088285D01*
X131420952Y-82183523D01*
X131516190Y-82278761D01*
X131659047Y-82326380D01*
X131754285Y-82326380D01*
X131897142Y-82278761D01*
X131944761Y-82231142D01*
X131944761Y-81897809D01*
X131754285Y-81897809D01*
X132801904Y-81659714D02*
X132801904Y-82326380D01*
X132563809Y-81278761D02*
X132325714Y-81993047D01*
X132944761Y-81993047D01*
X133230476Y-81326380D02*
X133849523Y-81326380D01*
X133516190Y-81707333D01*
X133659047Y-81707333D01*
X133754285Y-81754952D01*
X133801904Y-81802571D01*
X133849523Y-81897809D01*
X133849523Y-82135904D01*
X133801904Y-82231142D01*
X133754285Y-82278761D01*
X133659047Y-82326380D01*
X133373333Y-82326380D01*
X133278095Y-82278761D01*
X133230476Y-82231142D01*
X134801904Y-82326380D02*
X134230476Y-82326380D01*
X134516190Y-82326380D02*
X134516190Y-81326380D01*
X134420952Y-81469238D01*
X134325714Y-81564476D01*
X134230476Y-81612095D01*
X135230476Y-82326380D02*
X135230476Y-81326380D01*
X135801904Y-82326380D02*
X135373333Y-81754952D01*
X135801904Y-81326380D02*
X135230476Y-81897809D01*
X136659047Y-81326380D02*
X136468571Y-81326380D01*
X136373333Y-81374000D01*
X136325714Y-81421619D01*
X136230476Y-81564476D01*
X136182857Y-81754952D01*
X136182857Y-82135904D01*
X136230476Y-82231142D01*
X136278095Y-82278761D01*
X136373333Y-82326380D01*
X136563809Y-82326380D01*
X136659047Y-82278761D01*
X136706666Y-82231142D01*
X136754285Y-82135904D01*
X136754285Y-81897809D01*
X136706666Y-81802571D01*
X136659047Y-81754952D01*
X136563809Y-81707333D01*
X136373333Y-81707333D01*
X136278095Y-81754952D01*
X136230476Y-81802571D01*
X136182857Y-81897809D01*
X176633333Y-114725380D02*
X176633333Y-115439666D01*
X176585714Y-115582523D01*
X176490476Y-115677761D01*
X176347619Y-115725380D01*
X176252380Y-115725380D01*
X176966666Y-114725380D02*
X177538095Y-114725380D01*
X177252380Y-115725380D02*
X177252380Y-114725380D01*
X177823809Y-115439666D02*
X178300000Y-115439666D01*
X177728571Y-115725380D02*
X178061904Y-114725380D01*
X178395238Y-115725380D01*
X179252380Y-114773000D02*
X179157142Y-114725380D01*
X179014285Y-114725380D01*
X178871428Y-114773000D01*
X178776190Y-114868238D01*
X178728571Y-114963476D01*
X178680952Y-115153952D01*
X178680952Y-115296809D01*
X178728571Y-115487285D01*
X178776190Y-115582523D01*
X178871428Y-115677761D01*
X179014285Y-115725380D01*
X179109523Y-115725380D01*
X179252380Y-115677761D01*
X179300000Y-115630142D01*
X179300000Y-115296809D01*
X179109523Y-115296809D01*
X175061904Y-117335380D02*
X175061904Y-116335380D01*
X175395238Y-117049666D01*
X175728571Y-116335380D01*
X175728571Y-117335380D01*
X176157142Y-117287761D02*
X176300000Y-117335380D01*
X176538095Y-117335380D01*
X176633333Y-117287761D01*
X176680952Y-117240142D01*
X176728571Y-117144904D01*
X176728571Y-117049666D01*
X176680952Y-116954428D01*
X176633333Y-116906809D01*
X176538095Y-116859190D01*
X176347619Y-116811571D01*
X176252380Y-116763952D01*
X176204761Y-116716333D01*
X176157142Y-116621095D01*
X176157142Y-116525857D01*
X176204761Y-116430619D01*
X176252380Y-116383000D01*
X176347619Y-116335380D01*
X176585714Y-116335380D01*
X176728571Y-116383000D01*
X177157142Y-117335380D02*
X177157142Y-116335380D01*
X177538095Y-116335380D01*
X177633333Y-116383000D01*
X177680952Y-116430619D01*
X177728571Y-116525857D01*
X177728571Y-116668714D01*
X177680952Y-116763952D01*
X177633333Y-116811571D01*
X177538095Y-116859190D01*
X177157142Y-116859190D01*
X178585714Y-116668714D02*
X178585714Y-117335380D01*
X178347619Y-116287761D02*
X178109523Y-117002047D01*
X178728571Y-117002047D01*
X179014285Y-116335380D02*
X179633333Y-116335380D01*
X179300000Y-116716333D01*
X179442857Y-116716333D01*
X179538095Y-116763952D01*
X179585714Y-116811571D01*
X179633333Y-116906809D01*
X179633333Y-117144904D01*
X179585714Y-117240142D01*
X179538095Y-117287761D01*
X179442857Y-117335380D01*
X179157142Y-117335380D01*
X179061904Y-117287761D01*
X179014285Y-117240142D01*
X180252380Y-116335380D02*
X180347619Y-116335380D01*
X180442857Y-116383000D01*
X180490476Y-116430619D01*
X180538095Y-116525857D01*
X180585714Y-116716333D01*
X180585714Y-116954428D01*
X180538095Y-117144904D01*
X180490476Y-117240142D01*
X180442857Y-117287761D01*
X180347619Y-117335380D01*
X180252380Y-117335380D01*
X180157142Y-117287761D01*
X180109523Y-117240142D01*
X180061904Y-117144904D01*
X180014285Y-116954428D01*
X180014285Y-116716333D01*
X180061904Y-116525857D01*
X180109523Y-116430619D01*
X180157142Y-116383000D01*
X180252380Y-116335380D01*
X143937690Y-106132380D02*
X144394833Y-106132380D01*
X144166261Y-107132380D02*
X144166261Y-106132380D01*
X144547214Y-106132380D02*
X144813880Y-107132380D01*
X145080547Y-106132380D01*
X145690071Y-107084761D02*
X145613880Y-107132380D01*
X145461500Y-107132380D01*
X145385309Y-107084761D01*
X145347214Y-107037142D01*
X145309119Y-106941904D01*
X145309119Y-106656190D01*
X145347214Y-106560952D01*
X145385309Y-106513333D01*
X145461500Y-106465714D01*
X145613880Y-106465714D01*
X145690071Y-106513333D01*
X146375785Y-107084761D02*
X146299595Y-107132380D01*
X146147214Y-107132380D01*
X146071023Y-107084761D01*
X146032928Y-107037142D01*
X145994833Y-106941904D01*
X145994833Y-106656190D01*
X146032928Y-106560952D01*
X146071023Y-106513333D01*
X146147214Y-106465714D01*
X146299595Y-106465714D01*
X146375785Y-106513333D01*
X113758214Y-102232380D02*
X113491547Y-101756190D01*
X113301071Y-102232380D02*
X113301071Y-101232380D01*
X113605833Y-101232380D01*
X113682023Y-101280000D01*
X113720119Y-101327619D01*
X113758214Y-101422857D01*
X113758214Y-101565714D01*
X113720119Y-101660952D01*
X113682023Y-101708571D01*
X113605833Y-101756190D01*
X113301071Y-101756190D01*
X114024880Y-101232380D02*
X114558214Y-102232380D01*
X114558214Y-101232380D02*
X114024880Y-102232380D01*
X114862976Y-102232380D02*
X114862976Y-101232380D01*
X115053452Y-101232380D01*
X115167738Y-101280000D01*
X115243928Y-101375238D01*
X115282023Y-101470476D01*
X115320119Y-101660952D01*
X115320119Y-101803809D01*
X115282023Y-101994285D01*
X115243928Y-102089523D01*
X115167738Y-102184761D01*
X115053452Y-102232380D01*
X114862976Y-102232380D01*
X155749071Y-81700714D02*
X155749071Y-82510238D01*
X155706214Y-82605476D01*
X155663357Y-82653095D01*
X155577642Y-82700714D01*
X155449071Y-82700714D01*
X155363357Y-82653095D01*
X155749071Y-82319761D02*
X155663357Y-82367380D01*
X155491928Y-82367380D01*
X155406214Y-82319761D01*
X155363357Y-82272142D01*
X155320500Y-82176904D01*
X155320500Y-81891190D01*
X155363357Y-81795952D01*
X155406214Y-81748333D01*
X155491928Y-81700714D01*
X155663357Y-81700714D01*
X155749071Y-81748333D01*
X156177642Y-82367380D02*
X156177642Y-81700714D01*
X156177642Y-81367380D02*
X156134785Y-81415000D01*
X156177642Y-81462619D01*
X156220500Y-81415000D01*
X156177642Y-81367380D01*
X156177642Y-81462619D01*
X156477642Y-81700714D02*
X156820500Y-81700714D01*
X156606214Y-81367380D02*
X156606214Y-82224523D01*
X156649071Y-82319761D01*
X156734785Y-82367380D01*
X156820500Y-82367380D01*
X157120500Y-82367380D02*
X157120500Y-81367380D01*
X157506214Y-82367380D02*
X157506214Y-81843571D01*
X157463357Y-81748333D01*
X157377642Y-81700714D01*
X157249071Y-81700714D01*
X157163357Y-81748333D01*
X157120500Y-81795952D01*
X158320500Y-81700714D02*
X158320500Y-82367380D01*
X157934785Y-81700714D02*
X157934785Y-82224523D01*
X157977642Y-82319761D01*
X158063357Y-82367380D01*
X158191928Y-82367380D01*
X158277642Y-82319761D01*
X158320500Y-82272142D01*
X158749071Y-82367380D02*
X158749071Y-81367380D01*
X158749071Y-81748333D02*
X158834785Y-81700714D01*
X159006214Y-81700714D01*
X159091928Y-81748333D01*
X159134785Y-81795952D01*
X159177642Y-81891190D01*
X159177642Y-82176904D01*
X159134785Y-82272142D01*
X159091928Y-82319761D01*
X159006214Y-82367380D01*
X158834785Y-82367380D01*
X158749071Y-82319761D01*
X159563357Y-82272142D02*
X159606214Y-82319761D01*
X159563357Y-82367380D01*
X159520500Y-82319761D01*
X159563357Y-82272142D01*
X159563357Y-82367380D01*
X160377642Y-82319761D02*
X160291928Y-82367380D01*
X160120500Y-82367380D01*
X160034785Y-82319761D01*
X159991928Y-82272142D01*
X159949071Y-82176904D01*
X159949071Y-81891190D01*
X159991928Y-81795952D01*
X160034785Y-81748333D01*
X160120500Y-81700714D01*
X160291928Y-81700714D01*
X160377642Y-81748333D01*
X160891928Y-82367380D02*
X160806214Y-82319761D01*
X160763357Y-82272142D01*
X160720500Y-82176904D01*
X160720500Y-81891190D01*
X160763357Y-81795952D01*
X160806214Y-81748333D01*
X160891928Y-81700714D01*
X161020500Y-81700714D01*
X161106214Y-81748333D01*
X161149071Y-81795952D01*
X161191928Y-81891190D01*
X161191928Y-82176904D01*
X161149071Y-82272142D01*
X161106214Y-82319761D01*
X161020500Y-82367380D01*
X160891928Y-82367380D01*
X161577642Y-82367380D02*
X161577642Y-81700714D01*
X161577642Y-81795952D02*
X161620500Y-81748333D01*
X161706214Y-81700714D01*
X161834785Y-81700714D01*
X161920500Y-81748333D01*
X161963357Y-81843571D01*
X161963357Y-82367380D01*
X161963357Y-81843571D02*
X162006214Y-81748333D01*
X162091928Y-81700714D01*
X162220500Y-81700714D01*
X162306214Y-81748333D01*
X162349071Y-81843571D01*
X162349071Y-82367380D01*
X163420500Y-81319761D02*
X162649071Y-82605476D01*
X164106214Y-81700714D02*
X164106214Y-82510238D01*
X164063357Y-82605476D01*
X164020500Y-82653095D01*
X163934785Y-82700714D01*
X163806214Y-82700714D01*
X163720500Y-82653095D01*
X164106214Y-82319761D02*
X164020500Y-82367380D01*
X163849071Y-82367380D01*
X163763357Y-82319761D01*
X163720500Y-82272142D01*
X163677642Y-82176904D01*
X163677642Y-81891190D01*
X163720500Y-81795952D01*
X163763357Y-81748333D01*
X163849071Y-81700714D01*
X164020500Y-81700714D01*
X164106214Y-81748333D01*
X164534785Y-82367380D02*
X164534785Y-81700714D01*
X164534785Y-81891190D02*
X164577642Y-81795952D01*
X164620500Y-81748333D01*
X164706214Y-81700714D01*
X164791928Y-81700714D01*
X165477642Y-81700714D02*
X165477642Y-82367380D01*
X165091928Y-81700714D02*
X165091928Y-82224523D01*
X165134785Y-82319761D01*
X165220500Y-82367380D01*
X165349071Y-82367380D01*
X165434785Y-82319761D01*
X165477642Y-82272142D01*
X165906214Y-82367380D02*
X165906214Y-81700714D01*
X165906214Y-81795952D02*
X165949071Y-81748333D01*
X166034785Y-81700714D01*
X166163357Y-81700714D01*
X166249071Y-81748333D01*
X166291928Y-81843571D01*
X166291928Y-82367380D01*
X166291928Y-81843571D02*
X166334785Y-81748333D01*
X166420500Y-81700714D01*
X166549071Y-81700714D01*
X166634785Y-81748333D01*
X166677642Y-81843571D01*
X166677642Y-82367380D01*
X167491928Y-82367380D02*
X167491928Y-81843571D01*
X167449071Y-81748333D01*
X167363357Y-81700714D01*
X167191928Y-81700714D01*
X167106214Y-81748333D01*
X167491928Y-82319761D02*
X167406214Y-82367380D01*
X167191928Y-82367380D01*
X167106214Y-82319761D01*
X167063357Y-82224523D01*
X167063357Y-82129285D01*
X167106214Y-82034047D01*
X167191928Y-81986428D01*
X167406214Y-81986428D01*
X167491928Y-81938809D01*
X167791928Y-81700714D02*
X168134785Y-81700714D01*
X167920500Y-81367380D02*
X167920500Y-82224523D01*
X167963357Y-82319761D01*
X168049071Y-82367380D01*
X168134785Y-82367380D01*
X169077642Y-81319761D02*
X168306214Y-82605476D01*
X169763357Y-81700714D02*
X169763357Y-82510238D01*
X169720500Y-82605476D01*
X169677642Y-82653095D01*
X169591928Y-82700714D01*
X169463357Y-82700714D01*
X169377642Y-82653095D01*
X169763357Y-82319761D02*
X169677642Y-82367380D01*
X169506214Y-82367380D01*
X169420500Y-82319761D01*
X169377642Y-82272142D01*
X169334785Y-82176904D01*
X169334785Y-81891190D01*
X169377642Y-81795952D01*
X169420500Y-81748333D01*
X169506214Y-81700714D01*
X169677642Y-81700714D01*
X169763357Y-81748333D01*
X170320500Y-82367380D02*
X170234785Y-82319761D01*
X170191928Y-82224523D01*
X170191928Y-81367380D01*
X170791928Y-82367380D02*
X170706214Y-82319761D01*
X170663357Y-82272142D01*
X170620500Y-82176904D01*
X170620500Y-81891190D01*
X170663357Y-81795952D01*
X170706214Y-81748333D01*
X170791928Y-81700714D01*
X170920500Y-81700714D01*
X171006214Y-81748333D01*
X171049071Y-81795952D01*
X171091928Y-81891190D01*
X171091928Y-82176904D01*
X171049071Y-82272142D01*
X171006214Y-82319761D01*
X170920500Y-82367380D01*
X170791928Y-82367380D01*
X171434785Y-82319761D02*
X171520500Y-82367380D01*
X171691928Y-82367380D01*
X171777642Y-82319761D01*
X171820500Y-82224523D01*
X171820500Y-82176904D01*
X171777642Y-82081666D01*
X171691928Y-82034047D01*
X171563357Y-82034047D01*
X171477642Y-81986428D01*
X171434785Y-81891190D01*
X171434785Y-81843571D01*
X171477642Y-81748333D01*
X171563357Y-81700714D01*
X171691928Y-81700714D01*
X171777642Y-81748333D01*
X172163357Y-82319761D02*
X172249071Y-82367380D01*
X172420500Y-82367380D01*
X172506214Y-82319761D01*
X172549071Y-82224523D01*
X172549071Y-82176904D01*
X172506214Y-82081666D01*
X172420500Y-82034047D01*
X172291928Y-82034047D01*
X172206214Y-81986428D01*
X172163357Y-81891190D01*
X172163357Y-81843571D01*
X172206214Y-81748333D01*
X172291928Y-81700714D01*
X172420500Y-81700714D01*
X172506214Y-81748333D01*
X172849071Y-81700714D02*
X173063357Y-82367380D01*
X173277642Y-81700714D02*
X173063357Y-82367380D01*
X172977642Y-82605476D01*
X172934785Y-82653095D01*
X172849071Y-82700714D01*
X173620500Y-81986428D02*
X174306214Y-81986428D01*
X174734785Y-82367380D02*
X174734785Y-81700714D01*
X174734785Y-81795952D02*
X174777642Y-81748333D01*
X174863357Y-81700714D01*
X174991928Y-81700714D01*
X175077642Y-81748333D01*
X175120500Y-81843571D01*
X175120500Y-82367380D01*
X175120500Y-81843571D02*
X175163357Y-81748333D01*
X175249071Y-81700714D01*
X175377642Y-81700714D01*
X175463357Y-81748333D01*
X175506214Y-81843571D01*
X175506214Y-82367380D01*
X175891928Y-82319761D02*
X175977642Y-82367380D01*
X176149071Y-82367380D01*
X176234785Y-82319761D01*
X176277642Y-82224523D01*
X176277642Y-82176904D01*
X176234785Y-82081666D01*
X176149071Y-82034047D01*
X176020500Y-82034047D01*
X175934785Y-81986428D01*
X175891928Y-81891190D01*
X175891928Y-81843571D01*
X175934785Y-81748333D01*
X176020500Y-81700714D01*
X176149071Y-81700714D01*
X176234785Y-81748333D01*
X176663357Y-81700714D02*
X176663357Y-82700714D01*
X176663357Y-81748333D02*
X176749071Y-81700714D01*
X176920500Y-81700714D01*
X177006214Y-81748333D01*
X177049071Y-81795952D01*
X177091928Y-81891190D01*
X177091928Y-82176904D01*
X177049071Y-82272142D01*
X177006214Y-82319761D01*
X176920500Y-82367380D01*
X176749071Y-82367380D01*
X176663357Y-82319761D01*
X177863357Y-81700714D02*
X177863357Y-82367380D01*
X177649071Y-81319761D02*
X177434785Y-82034047D01*
X177991928Y-82034047D01*
X178249071Y-81367380D02*
X178806214Y-81367380D01*
X178506214Y-81748333D01*
X178634785Y-81748333D01*
X178720500Y-81795952D01*
X178763357Y-81843571D01*
X178806214Y-81938809D01*
X178806214Y-82176904D01*
X178763357Y-82272142D01*
X178720500Y-82319761D01*
X178634785Y-82367380D01*
X178377642Y-82367380D01*
X178291928Y-82319761D01*
X178249071Y-82272142D01*
X179363357Y-81367380D02*
X179449071Y-81367380D01*
X179534785Y-81415000D01*
X179577642Y-81462619D01*
X179620500Y-81557857D01*
X179663357Y-81748333D01*
X179663357Y-81986428D01*
X179620500Y-82176904D01*
X179577642Y-82272142D01*
X179534785Y-82319761D01*
X179449071Y-82367380D01*
X179363357Y-82367380D01*
X179277642Y-82319761D01*
X179234785Y-82272142D01*
X179191928Y-82176904D01*
X179149071Y-81986428D01*
X179149071Y-81748333D01*
X179191928Y-81557857D01*
X179234785Y-81462619D01*
X179277642Y-81415000D01*
X179363357Y-81367380D01*
X180049071Y-82272142D02*
X180091928Y-82319761D01*
X180049071Y-82367380D01*
X180006214Y-82319761D01*
X180049071Y-82272142D01*
X180049071Y-82367380D01*
X180863357Y-81700714D02*
X180863357Y-82510238D01*
X180820500Y-82605476D01*
X180777642Y-82653095D01*
X180691928Y-82700714D01*
X180563357Y-82700714D01*
X180477642Y-82653095D01*
X180863357Y-82319761D02*
X180777642Y-82367380D01*
X180606214Y-82367380D01*
X180520500Y-82319761D01*
X180477642Y-82272142D01*
X180434785Y-82176904D01*
X180434785Y-81891190D01*
X180477642Y-81795952D01*
X180520500Y-81748333D01*
X180606214Y-81700714D01*
X180777642Y-81700714D01*
X180863357Y-81748333D01*
X181291928Y-82367380D02*
X181291928Y-81700714D01*
X181291928Y-81367380D02*
X181249071Y-81415000D01*
X181291928Y-81462619D01*
X181334785Y-81415000D01*
X181291928Y-81367380D01*
X181291928Y-81462619D01*
X181591928Y-81700714D02*
X181934785Y-81700714D01*
X181720500Y-81367380D02*
X181720500Y-82224523D01*
X181763357Y-82319761D01*
X181849071Y-82367380D01*
X181934785Y-82367380D01*
X148730585Y-111260000D02*
X148635347Y-111212380D01*
X148492490Y-111212380D01*
X148349633Y-111260000D01*
X148254395Y-111355238D01*
X148206776Y-111450476D01*
X148159157Y-111640952D01*
X148159157Y-111783809D01*
X148206776Y-111974285D01*
X148254395Y-112069523D01*
X148349633Y-112164761D01*
X148492490Y-112212380D01*
X148587728Y-112212380D01*
X148730585Y-112164761D01*
X148778204Y-112117142D01*
X148778204Y-111783809D01*
X148587728Y-111783809D01*
X149206776Y-112212380D02*
X149206776Y-111212380D01*
X149778204Y-112212380D01*
X149778204Y-111212380D01*
X150254395Y-112212380D02*
X150254395Y-111212380D01*
X150492490Y-111212380D01*
X150635347Y-111260000D01*
X150730585Y-111355238D01*
X150778204Y-111450476D01*
X150825823Y-111640952D01*
X150825823Y-111783809D01*
X150778204Y-111974285D01*
X150730585Y-112069523D01*
X150635347Y-112164761D01*
X150492490Y-112212380D01*
X150254395Y-112212380D01*
X143937690Y-103592380D02*
X144394833Y-103592380D01*
X144166261Y-104592380D02*
X144166261Y-103592380D01*
X145118642Y-104497142D02*
X145080547Y-104544761D01*
X144966261Y-104592380D01*
X144890071Y-104592380D01*
X144775785Y-104544761D01*
X144699595Y-104449523D01*
X144661500Y-104354285D01*
X144623404Y-104163809D01*
X144623404Y-104020952D01*
X144661500Y-103830476D01*
X144699595Y-103735238D01*
X144775785Y-103640000D01*
X144890071Y-103592380D01*
X144966261Y-103592380D01*
X145080547Y-103640000D01*
X145118642Y-103687619D01*
X145461500Y-104592380D02*
X145461500Y-103592380D01*
X145918642Y-104592380D02*
X145575785Y-104020952D01*
X145918642Y-103592380D02*
X145461500Y-104163809D01*
X148619442Y-101052380D02*
X149190871Y-101052380D01*
X148905157Y-102052380D02*
X148905157Y-101052380D01*
X149524204Y-102052380D02*
X149524204Y-101052380D01*
X149762300Y-101052380D01*
X149905157Y-101100000D01*
X150000395Y-101195238D01*
X150048014Y-101290476D01*
X150095633Y-101480952D01*
X150095633Y-101623809D01*
X150048014Y-101814285D01*
X150000395Y-101909523D01*
X149905157Y-102004761D01*
X149762300Y-102052380D01*
X149524204Y-102052380D01*
X150524204Y-102052380D02*
X150524204Y-101052380D01*
X144509119Y-109672380D02*
X144242452Y-109196190D01*
X144051976Y-109672380D02*
X144051976Y-108672380D01*
X144356738Y-108672380D01*
X144432928Y-108720000D01*
X144471023Y-108767619D01*
X144509119Y-108862857D01*
X144509119Y-109005714D01*
X144471023Y-109100952D01*
X144432928Y-109148571D01*
X144356738Y-109196190D01*
X144051976Y-109196190D01*
X144813880Y-109624761D02*
X144928166Y-109672380D01*
X145118642Y-109672380D01*
X145194833Y-109624761D01*
X145232928Y-109577142D01*
X145271023Y-109481904D01*
X145271023Y-109386666D01*
X145232928Y-109291428D01*
X145194833Y-109243809D01*
X145118642Y-109196190D01*
X144966261Y-109148571D01*
X144890071Y-109100952D01*
X144851976Y-109053333D01*
X144813880Y-108958095D01*
X144813880Y-108862857D01*
X144851976Y-108767619D01*
X144890071Y-108720000D01*
X144966261Y-108672380D01*
X145156738Y-108672380D01*
X145271023Y-108720000D01*
X145499595Y-108672380D02*
X145956738Y-108672380D01*
X145728166Y-109672380D02*
X145728166Y-108672380D01*
X107783285Y-100703285D02*
X106783285Y-100703285D01*
X107259476Y-101179476D02*
X107164238Y-101227095D01*
X107116619Y-101322333D01*
X107259476Y-100703285D02*
X107164238Y-100750904D01*
X107116619Y-100846142D01*
X107116619Y-101036619D01*
X107164238Y-101131857D01*
X107259476Y-101179476D01*
X107783285Y-101179476D01*
X108116619Y-101750904D02*
X107307095Y-101750904D01*
X107211857Y-101798523D01*
X107164238Y-101846142D01*
X107116619Y-101941380D01*
X107116619Y-102131857D01*
X107164238Y-102227095D01*
X107211857Y-102274714D01*
X107307095Y-102322333D01*
X108116619Y-102322333D01*
X107164238Y-102750904D02*
X107116619Y-102893761D01*
X107116619Y-103131857D01*
X107164238Y-103227095D01*
X107211857Y-103274714D01*
X107307095Y-103322333D01*
X107402333Y-103322333D01*
X107497571Y-103274714D01*
X107545190Y-103227095D01*
X107592809Y-103131857D01*
X107640428Y-102941380D01*
X107688047Y-102846142D01*
X107735666Y-102798523D01*
X107830904Y-102750904D01*
X107926142Y-102750904D01*
X108021380Y-102798523D01*
X108069000Y-102846142D01*
X108116619Y-102941380D01*
X108116619Y-103179476D01*
X108069000Y-103322333D01*
X107640428Y-104084238D02*
X107592809Y-104227095D01*
X107545190Y-104274714D01*
X107449952Y-104322333D01*
X107307095Y-104322333D01*
X107211857Y-104274714D01*
X107164238Y-104227095D01*
X107116619Y-104131857D01*
X107116619Y-103750904D01*
X108116619Y-103750904D01*
X108116619Y-104084238D01*
X108069000Y-104179476D01*
X108021380Y-104227095D01*
X107926142Y-104274714D01*
X107830904Y-104274714D01*
X107735666Y-104227095D01*
X107688047Y-104179476D01*
X107640428Y-104084238D01*
X107640428Y-103750904D01*
X143937690Y-111212380D02*
X144394833Y-111212380D01*
X144166261Y-112212380D02*
X144166261Y-111212380D01*
X144661500Y-111688571D02*
X144928166Y-111688571D01*
X145042452Y-112212380D02*
X144661500Y-112212380D01*
X144661500Y-111212380D01*
X145042452Y-111212380D01*
X145347214Y-112164761D02*
X145461500Y-112212380D01*
X145651976Y-112212380D01*
X145728166Y-112164761D01*
X145766261Y-112117142D01*
X145804357Y-112021904D01*
X145804357Y-111926666D01*
X145766261Y-111831428D01*
X145728166Y-111783809D01*
X145651976Y-111736190D01*
X145499595Y-111688571D01*
X145423404Y-111640952D01*
X145385309Y-111593333D01*
X145347214Y-111498095D01*
X145347214Y-111402857D01*
X145385309Y-111307619D01*
X145423404Y-111260000D01*
X145499595Y-111212380D01*
X145690071Y-111212380D01*
X145804357Y-111260000D01*
X146032928Y-111212380D02*
X146490071Y-111212380D01*
X146261500Y-112212380D02*
X146261500Y-111212380D01*
X148242014Y-103592380D02*
X148813442Y-103592380D01*
X148527728Y-104592380D02*
X148527728Y-103592380D01*
X149146776Y-104592380D02*
X149146776Y-103592380D01*
X149384871Y-103592380D01*
X149527728Y-103640000D01*
X149622966Y-103735238D01*
X149670585Y-103830476D01*
X149718204Y-104020952D01*
X149718204Y-104163809D01*
X149670585Y-104354285D01*
X149622966Y-104449523D01*
X149527728Y-104544761D01*
X149384871Y-104592380D01*
X149146776Y-104592380D01*
X150337252Y-103592380D02*
X150527728Y-103592380D01*
X150622966Y-103640000D01*
X150718204Y-103735238D01*
X150765823Y-103925714D01*
X150765823Y-104259047D01*
X150718204Y-104449523D01*
X150622966Y-104544761D01*
X150527728Y-104592380D01*
X150337252Y-104592380D01*
X150242014Y-104544761D01*
X150146776Y-104449523D01*
X150099157Y-104259047D01*
X150099157Y-103925714D01*
X150146776Y-103735238D01*
X150242014Y-103640000D01*
X150337252Y-103592380D01*
X144018095Y-124468000D02*
X143922857Y-124420380D01*
X143780000Y-124420380D01*
X143637142Y-124468000D01*
X143541904Y-124563238D01*
X143494285Y-124658476D01*
X143446666Y-124848952D01*
X143446666Y-124991809D01*
X143494285Y-125182285D01*
X143541904Y-125277523D01*
X143637142Y-125372761D01*
X143780000Y-125420380D01*
X143875238Y-125420380D01*
X144018095Y-125372761D01*
X144065714Y-125325142D01*
X144065714Y-124991809D01*
X143875238Y-124991809D01*
X144494285Y-125420380D02*
X144494285Y-124420380D01*
X145065714Y-125420380D01*
X145065714Y-124420380D01*
X145541904Y-125420380D02*
X145541904Y-124420380D01*
X145780000Y-124420380D01*
X145922857Y-124468000D01*
X146018095Y-124563238D01*
X146065714Y-124658476D01*
X146113333Y-124848952D01*
X146113333Y-124991809D01*
X146065714Y-125182285D01*
X146018095Y-125277523D01*
X145922857Y-125372761D01*
X145780000Y-125420380D01*
X145541904Y-125420380D01*
X123063095Y-75992380D02*
X123063095Y-76801904D01*
X123110714Y-76897142D01*
X123158333Y-76944761D01*
X123253571Y-76992380D01*
X123444047Y-76992380D01*
X123539285Y-76944761D01*
X123586904Y-76897142D01*
X123634523Y-76801904D01*
X123634523Y-75992380D01*
X124015476Y-75992380D02*
X124634523Y-75992380D01*
X124301190Y-76373333D01*
X124444047Y-76373333D01*
X124539285Y-76420952D01*
X124586904Y-76468571D01*
X124634523Y-76563809D01*
X124634523Y-76801904D01*
X124586904Y-76897142D01*
X124539285Y-76944761D01*
X124444047Y-76992380D01*
X124158333Y-76992380D01*
X124063095Y-76944761D01*
X124015476Y-76897142D01*
X161036095Y-111847380D02*
X161036095Y-112656904D01*
X161083714Y-112752142D01*
X161131333Y-112799761D01*
X161226571Y-112847380D01*
X161417047Y-112847380D01*
X161512285Y-112799761D01*
X161559904Y-112752142D01*
X161607523Y-112656904D01*
X161607523Y-111847380D01*
X162512285Y-112180714D02*
X162512285Y-112847380D01*
X162274190Y-111799761D02*
X162036095Y-112514047D01*
X162655142Y-112514047D01*
X157583142Y-117514666D02*
X157630761Y-117562285D01*
X157678380Y-117705142D01*
X157678380Y-117800380D01*
X157630761Y-117943238D01*
X157535523Y-118038476D01*
X157440285Y-118086095D01*
X157249809Y-118133714D01*
X157106952Y-118133714D01*
X156916476Y-118086095D01*
X156821238Y-118038476D01*
X156726000Y-117943238D01*
X156678380Y-117800380D01*
X156678380Y-117705142D01*
X156726000Y-117562285D01*
X156773619Y-117514666D01*
X157678380Y-116562285D02*
X157678380Y-117133714D01*
X157678380Y-116848000D02*
X156678380Y-116848000D01*
X156821238Y-116943238D01*
X156916476Y-117038476D01*
X156964095Y-117133714D01*
X115236666Y-75862380D02*
X115236666Y-76576666D01*
X115189047Y-76719523D01*
X115093809Y-76814761D01*
X114950952Y-76862380D01*
X114855714Y-76862380D01*
X115617619Y-75862380D02*
X116236666Y-75862380D01*
X115903333Y-76243333D01*
X116046190Y-76243333D01*
X116141428Y-76290952D01*
X116189047Y-76338571D01*
X116236666Y-76433809D01*
X116236666Y-76671904D01*
X116189047Y-76767142D01*
X116141428Y-76814761D01*
X116046190Y-76862380D01*
X115760476Y-76862380D01*
X115665238Y-76814761D01*
X115617619Y-76767142D01*
X107783333Y-93416380D02*
X107450000Y-92940190D01*
X107211904Y-93416380D02*
X107211904Y-92416380D01*
X107592857Y-92416380D01*
X107688095Y-92464000D01*
X107735714Y-92511619D01*
X107783333Y-92606857D01*
X107783333Y-92749714D01*
X107735714Y-92844952D01*
X107688095Y-92892571D01*
X107592857Y-92940190D01*
X107211904Y-92940190D01*
X108640476Y-92416380D02*
X108450000Y-92416380D01*
X108354761Y-92464000D01*
X108307142Y-92511619D01*
X108211904Y-92654476D01*
X108164285Y-92844952D01*
X108164285Y-93225904D01*
X108211904Y-93321142D01*
X108259523Y-93368761D01*
X108354761Y-93416380D01*
X108545238Y-93416380D01*
X108640476Y-93368761D01*
X108688095Y-93321142D01*
X108735714Y-93225904D01*
X108735714Y-92987809D01*
X108688095Y-92892571D01*
X108640476Y-92844952D01*
X108545238Y-92797333D01*
X108354761Y-92797333D01*
X108259523Y-92844952D01*
X108211904Y-92892571D01*
X108164285Y-92987809D01*
X113074523Y-122372380D02*
X113074523Y-121372380D01*
X113265000Y-121372380D01*
X113379285Y-121420000D01*
X113455476Y-121515238D01*
X113493571Y-121610476D01*
X113531666Y-121800952D01*
X113531666Y-121943809D01*
X113493571Y-122134285D01*
X113455476Y-122229523D01*
X113379285Y-122324761D01*
X113265000Y-122372380D01*
X113074523Y-122372380D01*
X113836428Y-121467619D02*
X113874523Y-121420000D01*
X113950714Y-121372380D01*
X114141190Y-121372380D01*
X114217380Y-121420000D01*
X114255476Y-121467619D01*
X114293571Y-121562857D01*
X114293571Y-121658095D01*
X114255476Y-121800952D01*
X113798333Y-122372380D01*
X114293571Y-122372380D01*
X107783333Y-96369142D02*
X107735714Y-96416761D01*
X107592857Y-96464380D01*
X107497619Y-96464380D01*
X107354761Y-96416761D01*
X107259523Y-96321523D01*
X107211904Y-96226285D01*
X107164285Y-96035809D01*
X107164285Y-95892952D01*
X107211904Y-95702476D01*
X107259523Y-95607238D01*
X107354761Y-95512000D01*
X107497619Y-95464380D01*
X107592857Y-95464380D01*
X107735714Y-95512000D01*
X107783333Y-95559619D01*
X108688095Y-95464380D02*
X108211904Y-95464380D01*
X108164285Y-95940571D01*
X108211904Y-95892952D01*
X108307142Y-95845333D01*
X108545238Y-95845333D01*
X108640476Y-95892952D01*
X108688095Y-95940571D01*
X108735714Y-96035809D01*
X108735714Y-96273904D01*
X108688095Y-96369142D01*
X108640476Y-96416761D01*
X108545238Y-96464380D01*
X108307142Y-96464380D01*
X108211904Y-96416761D01*
X108164285Y-96369142D01*
X159123142Y-107291142D02*
X159075523Y-107338761D01*
X158932666Y-107386380D01*
X158837428Y-107386380D01*
X158694571Y-107338761D01*
X158599333Y-107243523D01*
X158551714Y-107148285D01*
X158504095Y-106957809D01*
X158504095Y-106814952D01*
X158551714Y-106624476D01*
X158599333Y-106529238D01*
X158694571Y-106434000D01*
X158837428Y-106386380D01*
X158932666Y-106386380D01*
X159075523Y-106434000D01*
X159123142Y-106481619D01*
X160075523Y-107386380D02*
X159504095Y-107386380D01*
X159789809Y-107386380D02*
X159789809Y-106386380D01*
X159694571Y-106529238D01*
X159599333Y-106624476D01*
X159504095Y-106672095D01*
X160694571Y-106386380D02*
X160789809Y-106386380D01*
X160885047Y-106434000D01*
X160932666Y-106481619D01*
X160980285Y-106576857D01*
X161027904Y-106767333D01*
X161027904Y-107005428D01*
X160980285Y-107195904D01*
X160932666Y-107291142D01*
X160885047Y-107338761D01*
X160789809Y-107386380D01*
X160694571Y-107386380D01*
X160599333Y-107338761D01*
X160551714Y-107291142D01*
X160504095Y-107195904D01*
X160456476Y-107005428D01*
X160456476Y-106767333D01*
X160504095Y-106576857D01*
X160551714Y-106481619D01*
X160599333Y-106434000D01*
X160694571Y-106386380D01*
X159559666Y-116768571D02*
X159226333Y-116768571D01*
X159226333Y-117292380D02*
X159226333Y-116292380D01*
X159702523Y-116292380D01*
X160607285Y-117292380D02*
X160035857Y-117292380D01*
X160321571Y-117292380D02*
X160321571Y-116292380D01*
X160226333Y-116435238D01*
X160131095Y-116530476D01*
X160035857Y-116578095D01*
X110236095Y-99274380D02*
X110236095Y-100083904D01*
X110283714Y-100179142D01*
X110331333Y-100226761D01*
X110426571Y-100274380D01*
X110617047Y-100274380D01*
X110712285Y-100226761D01*
X110759904Y-100179142D01*
X110807523Y-100083904D01*
X110807523Y-99274380D01*
X111236095Y-99369619D02*
X111283714Y-99322000D01*
X111378952Y-99274380D01*
X111617047Y-99274380D01*
X111712285Y-99322000D01*
X111759904Y-99369619D01*
X111807523Y-99464857D01*
X111807523Y-99560095D01*
X111759904Y-99702952D01*
X111188476Y-100274380D01*
X111807523Y-100274380D01*
X168899380Y-102038476D02*
X168423190Y-102371809D01*
X168899380Y-102609904D02*
X167899380Y-102609904D01*
X167899380Y-102228952D01*
X167947000Y-102133714D01*
X167994619Y-102086095D01*
X168089857Y-102038476D01*
X168232714Y-102038476D01*
X168327952Y-102086095D01*
X168375571Y-102133714D01*
X168423190Y-102228952D01*
X168423190Y-102609904D01*
X168899380Y-101609904D02*
X167899380Y-101609904D01*
X168899380Y-101038476D01*
X167899380Y-101038476D01*
X167899380Y-100086095D02*
X167899380Y-100562285D01*
X168375571Y-100609904D01*
X168327952Y-100562285D01*
X168280333Y-100467047D01*
X168280333Y-100228952D01*
X168327952Y-100133714D01*
X168375571Y-100086095D01*
X168470809Y-100038476D01*
X168708904Y-100038476D01*
X168804142Y-100086095D01*
X168851761Y-100133714D01*
X168899380Y-100228952D01*
X168899380Y-100467047D01*
X168851761Y-100562285D01*
X168804142Y-100609904D01*
X167997142Y-117514666D02*
X168044761Y-117562285D01*
X168092380Y-117705142D01*
X168092380Y-117800380D01*
X168044761Y-117943238D01*
X167949523Y-118038476D01*
X167854285Y-118086095D01*
X167663809Y-118133714D01*
X167520952Y-118133714D01*
X167330476Y-118086095D01*
X167235238Y-118038476D01*
X167140000Y-117943238D01*
X167092380Y-117800380D01*
X167092380Y-117705142D01*
X167140000Y-117562285D01*
X167187619Y-117514666D01*
X167092380Y-116657523D02*
X167092380Y-116848000D01*
X167140000Y-116943238D01*
X167187619Y-116990857D01*
X167330476Y-117086095D01*
X167520952Y-117133714D01*
X167901904Y-117133714D01*
X167997142Y-117086095D01*
X168044761Y-117038476D01*
X168092380Y-116943238D01*
X168092380Y-116752761D01*
X168044761Y-116657523D01*
X167997142Y-116609904D01*
X167901904Y-116562285D01*
X167663809Y-116562285D01*
X167568571Y-116609904D01*
X167520952Y-116657523D01*
X167473333Y-116752761D01*
X167473333Y-116943238D01*
X167520952Y-117038476D01*
X167568571Y-117086095D01*
X167663809Y-117133714D01*
X107783333Y-94845142D02*
X107735714Y-94892761D01*
X107592857Y-94940380D01*
X107497619Y-94940380D01*
X107354761Y-94892761D01*
X107259523Y-94797523D01*
X107211904Y-94702285D01*
X107164285Y-94511809D01*
X107164285Y-94368952D01*
X107211904Y-94178476D01*
X107259523Y-94083238D01*
X107354761Y-93988000D01*
X107497619Y-93940380D01*
X107592857Y-93940380D01*
X107735714Y-93988000D01*
X107783333Y-94035619D01*
X108116666Y-93940380D02*
X108735714Y-93940380D01*
X108402380Y-94321333D01*
X108545238Y-94321333D01*
X108640476Y-94368952D01*
X108688095Y-94416571D01*
X108735714Y-94511809D01*
X108735714Y-94749904D01*
X108688095Y-94845142D01*
X108640476Y-94892761D01*
X108545238Y-94940380D01*
X108259523Y-94940380D01*
X108164285Y-94892761D01*
X108116666Y-94845142D01*
X159599333Y-115673142D02*
X159551714Y-115720761D01*
X159408857Y-115768380D01*
X159313619Y-115768380D01*
X159170761Y-115720761D01*
X159075523Y-115625523D01*
X159027904Y-115530285D01*
X158980285Y-115339809D01*
X158980285Y-115196952D01*
X159027904Y-115006476D01*
X159075523Y-114911238D01*
X159170761Y-114816000D01*
X159313619Y-114768380D01*
X159408857Y-114768380D01*
X159551714Y-114816000D01*
X159599333Y-114863619D01*
X159932666Y-114768380D02*
X160599333Y-114768380D01*
X160170761Y-115768380D01*
X113074523Y-117292380D02*
X113074523Y-116292380D01*
X113265000Y-116292380D01*
X113379285Y-116340000D01*
X113455476Y-116435238D01*
X113493571Y-116530476D01*
X113531666Y-116720952D01*
X113531666Y-116863809D01*
X113493571Y-117054285D01*
X113455476Y-117149523D01*
X113379285Y-117244761D01*
X113265000Y-117292380D01*
X113074523Y-117292380D01*
X113798333Y-116292380D02*
X114293571Y-116292380D01*
X114026904Y-116673333D01*
X114141190Y-116673333D01*
X114217380Y-116720952D01*
X114255476Y-116768571D01*
X114293571Y-116863809D01*
X114293571Y-117101904D01*
X114255476Y-117197142D01*
X114217380Y-117244761D01*
X114141190Y-117292380D01*
X113912619Y-117292380D01*
X113836428Y-117244761D01*
X113798333Y-117197142D01*
X157948380Y-103631904D02*
X158757904Y-103631904D01*
X158853142Y-103584285D01*
X158900761Y-103536666D01*
X158948380Y-103441428D01*
X158948380Y-103250952D01*
X158900761Y-103155714D01*
X158853142Y-103108095D01*
X158757904Y-103060476D01*
X157948380Y-103060476D01*
X157948380Y-102155714D02*
X157948380Y-102346190D01*
X157996000Y-102441428D01*
X158043619Y-102489047D01*
X158186476Y-102584285D01*
X158376952Y-102631904D01*
X158757904Y-102631904D01*
X158853142Y-102584285D01*
X158900761Y-102536666D01*
X158948380Y-102441428D01*
X158948380Y-102250952D01*
X158900761Y-102155714D01*
X158853142Y-102108095D01*
X158757904Y-102060476D01*
X158519809Y-102060476D01*
X158424571Y-102108095D01*
X158376952Y-102155714D01*
X158329333Y-102250952D01*
X158329333Y-102441428D01*
X158376952Y-102536666D01*
X158424571Y-102584285D01*
X158519809Y-102631904D01*
X156154380Y-117514666D02*
X155678190Y-117848000D01*
X156154380Y-118086095D02*
X155154380Y-118086095D01*
X155154380Y-117705142D01*
X155202000Y-117609904D01*
X155249619Y-117562285D01*
X155344857Y-117514666D01*
X155487714Y-117514666D01*
X155582952Y-117562285D01*
X155630571Y-117609904D01*
X155678190Y-117705142D01*
X155678190Y-118086095D01*
X155154380Y-117181333D02*
X155154380Y-116562285D01*
X155535333Y-116895619D01*
X155535333Y-116752761D01*
X155582952Y-116657523D01*
X155630571Y-116609904D01*
X155725809Y-116562285D01*
X155963904Y-116562285D01*
X156059142Y-116609904D01*
X156106761Y-116657523D01*
X156154380Y-116752761D01*
X156154380Y-117038476D01*
X156106761Y-117133714D01*
X156059142Y-117181333D01*
X159599333Y-114149142D02*
X159551714Y-114196761D01*
X159408857Y-114244380D01*
X159313619Y-114244380D01*
X159170761Y-114196761D01*
X159075523Y-114101523D01*
X159027904Y-114006285D01*
X158980285Y-113815809D01*
X158980285Y-113672952D01*
X159027904Y-113482476D01*
X159075523Y-113387238D01*
X159170761Y-113292000D01*
X159313619Y-113244380D01*
X159408857Y-113244380D01*
X159551714Y-113292000D01*
X159599333Y-113339619D01*
X160075523Y-114244380D02*
X160266000Y-114244380D01*
X160361238Y-114196761D01*
X160408857Y-114149142D01*
X160504095Y-114006285D01*
X160551714Y-113815809D01*
X160551714Y-113434857D01*
X160504095Y-113339619D01*
X160456476Y-113292000D01*
X160361238Y-113244380D01*
X160170761Y-113244380D01*
X160075523Y-113292000D01*
X160027904Y-113339619D01*
X159980285Y-113434857D01*
X159980285Y-113672952D01*
X160027904Y-113768190D01*
X160075523Y-113815809D01*
X160170761Y-113863428D01*
X160361238Y-113863428D01*
X160456476Y-113815809D01*
X160504095Y-113768190D01*
X160551714Y-113672952D01*
X168854380Y-94924476D02*
X168378190Y-95257809D01*
X168854380Y-95495904D02*
X167854380Y-95495904D01*
X167854380Y-95114952D01*
X167902000Y-95019714D01*
X167949619Y-94972095D01*
X168044857Y-94924476D01*
X168187714Y-94924476D01*
X168282952Y-94972095D01*
X168330571Y-95019714D01*
X168378190Y-95114952D01*
X168378190Y-95495904D01*
X168854380Y-94495904D02*
X167854380Y-94495904D01*
X168854380Y-93924476D01*
X167854380Y-93924476D01*
X167854380Y-93543523D02*
X167854380Y-92924476D01*
X168235333Y-93257809D01*
X168235333Y-93114952D01*
X168282952Y-93019714D01*
X168330571Y-92972095D01*
X168425809Y-92924476D01*
X168663904Y-92924476D01*
X168759142Y-92972095D01*
X168806761Y-93019714D01*
X168854380Y-93114952D01*
X168854380Y-93400666D01*
X168806761Y-93495904D01*
X168759142Y-93543523D01*
X108164333Y-109831142D02*
X108116714Y-109878761D01*
X107973857Y-109926380D01*
X107878619Y-109926380D01*
X107735761Y-109878761D01*
X107640523Y-109783523D01*
X107592904Y-109688285D01*
X107545285Y-109497809D01*
X107545285Y-109354952D01*
X107592904Y-109164476D01*
X107640523Y-109069238D01*
X107735761Y-108974000D01*
X107878619Y-108926380D01*
X107973857Y-108926380D01*
X108116714Y-108974000D01*
X108164333Y-109021619D01*
X108545285Y-109021619D02*
X108592904Y-108974000D01*
X108688142Y-108926380D01*
X108926238Y-108926380D01*
X109021476Y-108974000D01*
X109069095Y-109021619D01*
X109116714Y-109116857D01*
X109116714Y-109212095D01*
X109069095Y-109354952D01*
X108497666Y-109926380D01*
X109116714Y-109926380D01*
X157948380Y-93725904D02*
X158757904Y-93725904D01*
X158853142Y-93678285D01*
X158900761Y-93630666D01*
X158948380Y-93535428D01*
X158948380Y-93344952D01*
X158900761Y-93249714D01*
X158853142Y-93202095D01*
X158757904Y-93154476D01*
X157948380Y-93154476D01*
X157948380Y-92202095D02*
X157948380Y-92678285D01*
X158424571Y-92725904D01*
X158376952Y-92678285D01*
X158329333Y-92583047D01*
X158329333Y-92344952D01*
X158376952Y-92249714D01*
X158424571Y-92202095D01*
X158519809Y-92154476D01*
X158757904Y-92154476D01*
X158853142Y-92202095D01*
X158900761Y-92249714D01*
X158948380Y-92344952D01*
X158948380Y-92583047D01*
X158900761Y-92678285D01*
X158853142Y-92725904D01*
X168812380Y-105508476D02*
X168336190Y-105841809D01*
X168812380Y-106079904D02*
X167812380Y-106079904D01*
X167812380Y-105698952D01*
X167860000Y-105603714D01*
X167907619Y-105556095D01*
X168002857Y-105508476D01*
X168145714Y-105508476D01*
X168240952Y-105556095D01*
X168288571Y-105603714D01*
X168336190Y-105698952D01*
X168336190Y-106079904D01*
X168812380Y-105079904D02*
X167812380Y-105079904D01*
X168812380Y-104508476D01*
X167812380Y-104508476D01*
X168145714Y-103603714D02*
X168812380Y-103603714D01*
X167764761Y-103841809D02*
X168479047Y-104079904D01*
X168479047Y-103460857D01*
X161544095Y-121753380D02*
X161544095Y-122562904D01*
X161591714Y-122658142D01*
X161639333Y-122705761D01*
X161734571Y-122753380D01*
X161925047Y-122753380D01*
X162020285Y-122705761D01*
X162067904Y-122658142D01*
X162115523Y-122562904D01*
X162115523Y-121753380D01*
X163115523Y-122753380D02*
X162544095Y-122753380D01*
X162829809Y-122753380D02*
X162829809Y-121753380D01*
X162734571Y-121896238D01*
X162639333Y-121991476D01*
X162544095Y-122039095D01*
X106370380Y-122086666D02*
X105894190Y-122420000D01*
X106370380Y-122658095D02*
X105370380Y-122658095D01*
X105370380Y-122277142D01*
X105418000Y-122181904D01*
X105465619Y-122134285D01*
X105560857Y-122086666D01*
X105703714Y-122086666D01*
X105798952Y-122134285D01*
X105846571Y-122181904D01*
X105894190Y-122277142D01*
X105894190Y-122658095D01*
X105798952Y-121515238D02*
X105751333Y-121610476D01*
X105703714Y-121658095D01*
X105608476Y-121705714D01*
X105560857Y-121705714D01*
X105465619Y-121658095D01*
X105418000Y-121610476D01*
X105370380Y-121515238D01*
X105370380Y-121324761D01*
X105418000Y-121229523D01*
X105465619Y-121181904D01*
X105560857Y-121134285D01*
X105608476Y-121134285D01*
X105703714Y-121181904D01*
X105751333Y-121229523D01*
X105798952Y-121324761D01*
X105798952Y-121515238D01*
X105846571Y-121610476D01*
X105894190Y-121658095D01*
X105989428Y-121705714D01*
X106179904Y-121705714D01*
X106275142Y-121658095D01*
X106322761Y-121610476D01*
X106370380Y-121515238D01*
X106370380Y-121324761D01*
X106322761Y-121229523D01*
X106275142Y-121181904D01*
X106179904Y-121134285D01*
X105989428Y-121134285D01*
X105894190Y-121181904D01*
X105846571Y-121229523D01*
X105798952Y-121324761D01*
X150566380Y-85780476D02*
X150090190Y-86113809D01*
X150566380Y-86351904D02*
X149566380Y-86351904D01*
X149566380Y-85970952D01*
X149614000Y-85875714D01*
X149661619Y-85828095D01*
X149756857Y-85780476D01*
X149899714Y-85780476D01*
X149994952Y-85828095D01*
X150042571Y-85875714D01*
X150090190Y-85970952D01*
X150090190Y-86351904D01*
X150566380Y-85351904D02*
X149566380Y-85351904D01*
X150566380Y-84780476D01*
X149566380Y-84780476D01*
X150566380Y-83780476D02*
X150566380Y-84351904D01*
X150566380Y-84066190D02*
X149566380Y-84066190D01*
X149709238Y-84161428D01*
X149804476Y-84256666D01*
X149852095Y-84351904D01*
X107783333Y-97988380D02*
X107450000Y-97512190D01*
X107211904Y-97988380D02*
X107211904Y-96988380D01*
X107592857Y-96988380D01*
X107688095Y-97036000D01*
X107735714Y-97083619D01*
X107783333Y-97178857D01*
X107783333Y-97321714D01*
X107735714Y-97416952D01*
X107688095Y-97464571D01*
X107592857Y-97512190D01*
X107211904Y-97512190D01*
X108116666Y-96988380D02*
X108783333Y-96988380D01*
X108354761Y-97988380D01*
X169164095Y-87336380D02*
X169164095Y-88145904D01*
X169211714Y-88241142D01*
X169259333Y-88288761D01*
X169354571Y-88336380D01*
X169545047Y-88336380D01*
X169640285Y-88288761D01*
X169687904Y-88241142D01*
X169735523Y-88145904D01*
X169735523Y-87336380D01*
X170116476Y-87336380D02*
X170783142Y-87336380D01*
X170354571Y-88336380D01*
X108164333Y-111958380D02*
X107831000Y-111482190D01*
X107592904Y-111958380D02*
X107592904Y-110958380D01*
X107973857Y-110958380D01*
X108069095Y-111006000D01*
X108116714Y-111053619D01*
X108164333Y-111148857D01*
X108164333Y-111291714D01*
X108116714Y-111386952D01*
X108069095Y-111434571D01*
X107973857Y-111482190D01*
X107592904Y-111482190D01*
X108545285Y-111053619D02*
X108592904Y-111006000D01*
X108688142Y-110958380D01*
X108926238Y-110958380D01*
X109021476Y-111006000D01*
X109069095Y-111053619D01*
X109116714Y-111148857D01*
X109116714Y-111244095D01*
X109069095Y-111386952D01*
X108497666Y-111958380D01*
X109116714Y-111958380D01*
X106370380Y-117006666D02*
X105894190Y-117340000D01*
X106370380Y-117578095D02*
X105370380Y-117578095D01*
X105370380Y-117197142D01*
X105418000Y-117101904D01*
X105465619Y-117054285D01*
X105560857Y-117006666D01*
X105703714Y-117006666D01*
X105798952Y-117054285D01*
X105846571Y-117101904D01*
X105894190Y-117197142D01*
X105894190Y-117578095D01*
X106370380Y-116530476D02*
X106370380Y-116340000D01*
X106322761Y-116244761D01*
X106275142Y-116197142D01*
X106132285Y-116101904D01*
X105941809Y-116054285D01*
X105560857Y-116054285D01*
X105465619Y-116101904D01*
X105418000Y-116149523D01*
X105370380Y-116244761D01*
X105370380Y-116435238D01*
X105418000Y-116530476D01*
X105465619Y-116578095D01*
X105560857Y-116625714D01*
X105798952Y-116625714D01*
X105894190Y-116578095D01*
X105941809Y-116530476D01*
X105989428Y-116435238D01*
X105989428Y-116244761D01*
X105941809Y-116149523D01*
X105894190Y-116101904D01*
X105798952Y-116054285D01*
X157075142Y-100464857D02*
X157122761Y-100512476D01*
X157170380Y-100655333D01*
X157170380Y-100750571D01*
X157122761Y-100893428D01*
X157027523Y-100988666D01*
X156932285Y-101036285D01*
X156741809Y-101083904D01*
X156598952Y-101083904D01*
X156408476Y-101036285D01*
X156313238Y-100988666D01*
X156218000Y-100893428D01*
X156170380Y-100750571D01*
X156170380Y-100655333D01*
X156218000Y-100512476D01*
X156265619Y-100464857D01*
X157170380Y-99512476D02*
X157170380Y-100083904D01*
X157170380Y-99798190D02*
X156170380Y-99798190D01*
X156313238Y-99893428D01*
X156408476Y-99988666D01*
X156456095Y-100083904D01*
X156170380Y-99179142D02*
X156170380Y-98560095D01*
X156551333Y-98893428D01*
X156551333Y-98750571D01*
X156598952Y-98655333D01*
X156646571Y-98607714D01*
X156741809Y-98560095D01*
X156979904Y-98560095D01*
X157075142Y-98607714D01*
X157122761Y-98655333D01*
X157170380Y-98750571D01*
X157170380Y-99036285D01*
X157122761Y-99131523D01*
X157075142Y-99179142D01*
X156915142Y-90558857D02*
X156962761Y-90606476D01*
X157010380Y-90749333D01*
X157010380Y-90844571D01*
X156962761Y-90987428D01*
X156867523Y-91082666D01*
X156772285Y-91130285D01*
X156581809Y-91177904D01*
X156438952Y-91177904D01*
X156248476Y-91130285D01*
X156153238Y-91082666D01*
X156058000Y-90987428D01*
X156010380Y-90844571D01*
X156010380Y-90749333D01*
X156058000Y-90606476D01*
X156105619Y-90558857D01*
X157010380Y-89606476D02*
X157010380Y-90177904D01*
X157010380Y-89892190D02*
X156010380Y-89892190D01*
X156153238Y-89987428D01*
X156248476Y-90082666D01*
X156296095Y-90177904D01*
X157010380Y-88654095D02*
X157010380Y-89225523D01*
X157010380Y-88939809D02*
X156010380Y-88939809D01*
X156153238Y-89035047D01*
X156248476Y-89130285D01*
X156296095Y-89225523D01*
X168854380Y-98480476D02*
X168378190Y-98813809D01*
X168854380Y-99051904D02*
X167854380Y-99051904D01*
X167854380Y-98670952D01*
X167902000Y-98575714D01*
X167949619Y-98528095D01*
X168044857Y-98480476D01*
X168187714Y-98480476D01*
X168282952Y-98528095D01*
X168330571Y-98575714D01*
X168378190Y-98670952D01*
X168378190Y-99051904D01*
X168854380Y-98051904D02*
X167854380Y-98051904D01*
X168854380Y-97480476D01*
X167854380Y-97480476D01*
X167949619Y-97051904D02*
X167902000Y-97004285D01*
X167854380Y-96909047D01*
X167854380Y-96670952D01*
X167902000Y-96575714D01*
X167949619Y-96528095D01*
X168044857Y-96480476D01*
X168140095Y-96480476D01*
X168282952Y-96528095D01*
X168854380Y-97099523D01*
X168854380Y-96480476D01*
X166473142Y-117514666D02*
X166520761Y-117562285D01*
X166568380Y-117705142D01*
X166568380Y-117800380D01*
X166520761Y-117943238D01*
X166425523Y-118038476D01*
X166330285Y-118086095D01*
X166139809Y-118133714D01*
X165996952Y-118133714D01*
X165806476Y-118086095D01*
X165711238Y-118038476D01*
X165616000Y-117943238D01*
X165568380Y-117800380D01*
X165568380Y-117705142D01*
X165616000Y-117562285D01*
X165663619Y-117514666D01*
X165901714Y-116657523D02*
X166568380Y-116657523D01*
X165520761Y-116895619D02*
X166235047Y-117133714D01*
X166235047Y-116514666D01*
X108164333Y-108453180D02*
X107831000Y-107976990D01*
X107592904Y-108453180D02*
X107592904Y-107453180D01*
X107973857Y-107453180D01*
X108069095Y-107500800D01*
X108116714Y-107548419D01*
X108164333Y-107643657D01*
X108164333Y-107786514D01*
X108116714Y-107881752D01*
X108069095Y-107929371D01*
X107973857Y-107976990D01*
X107592904Y-107976990D01*
X109021476Y-107786514D02*
X109021476Y-108453180D01*
X108783380Y-107405561D02*
X108545285Y-108119847D01*
X109164333Y-108119847D01*
X177741066Y-86463142D02*
X177693447Y-86510761D01*
X177550590Y-86558380D01*
X177455352Y-86558380D01*
X177312494Y-86510761D01*
X177217256Y-86415523D01*
X177169637Y-86320285D01*
X177122018Y-86129809D01*
X177122018Y-85986952D01*
X177169637Y-85796476D01*
X177217256Y-85701238D01*
X177312494Y-85606000D01*
X177455352Y-85558380D01*
X177550590Y-85558380D01*
X177693447Y-85606000D01*
X177741066Y-85653619D01*
X178312494Y-85986952D02*
X178217256Y-85939333D01*
X178169637Y-85891714D01*
X178122018Y-85796476D01*
X178122018Y-85748857D01*
X178169637Y-85653619D01*
X178217256Y-85606000D01*
X178312494Y-85558380D01*
X178502971Y-85558380D01*
X178598209Y-85606000D01*
X178645828Y-85653619D01*
X178693447Y-85748857D01*
X178693447Y-85796476D01*
X178645828Y-85891714D01*
X178598209Y-85939333D01*
X178502971Y-85986952D01*
X178312494Y-85986952D01*
X178217256Y-86034571D01*
X178169637Y-86082190D01*
X178122018Y-86177428D01*
X178122018Y-86367904D01*
X178169637Y-86463142D01*
X178217256Y-86510761D01*
X178312494Y-86558380D01*
X178502971Y-86558380D01*
X178598209Y-86510761D01*
X178645828Y-86463142D01*
X178693447Y-86367904D01*
X178693447Y-86177428D01*
X178645828Y-86082190D01*
X178598209Y-86034571D01*
X178502971Y-85986952D01*
X107783333Y-90368380D02*
X107450000Y-89892190D01*
X107211904Y-90368380D02*
X107211904Y-89368380D01*
X107592857Y-89368380D01*
X107688095Y-89416000D01*
X107735714Y-89463619D01*
X107783333Y-89558857D01*
X107783333Y-89701714D01*
X107735714Y-89796952D01*
X107688095Y-89844571D01*
X107592857Y-89892190D01*
X107211904Y-89892190D01*
X108688095Y-89368380D02*
X108211904Y-89368380D01*
X108164285Y-89844571D01*
X108211904Y-89796952D01*
X108307142Y-89749333D01*
X108545238Y-89749333D01*
X108640476Y-89796952D01*
X108688095Y-89844571D01*
X108735714Y-89939809D01*
X108735714Y-90177904D01*
X108688095Y-90273142D01*
X108640476Y-90320761D01*
X108545238Y-90368380D01*
X108307142Y-90368380D01*
X108211904Y-90320761D01*
X108164285Y-90273142D01*
X168910095Y-110770380D02*
X168910095Y-111579904D01*
X168957714Y-111675142D01*
X169005333Y-111722761D01*
X169100571Y-111770380D01*
X169291047Y-111770380D01*
X169386285Y-111722761D01*
X169433904Y-111675142D01*
X169481523Y-111579904D01*
X169481523Y-110770380D01*
X170100571Y-111198952D02*
X170005333Y-111151333D01*
X169957714Y-111103714D01*
X169910095Y-111008476D01*
X169910095Y-110960857D01*
X169957714Y-110865619D01*
X170005333Y-110818000D01*
X170100571Y-110770380D01*
X170291047Y-110770380D01*
X170386285Y-110818000D01*
X170433904Y-110865619D01*
X170481523Y-110960857D01*
X170481523Y-111008476D01*
X170433904Y-111103714D01*
X170386285Y-111151333D01*
X170291047Y-111198952D01*
X170100571Y-111198952D01*
X170005333Y-111246571D01*
X169957714Y-111294190D01*
X169910095Y-111389428D01*
X169910095Y-111579904D01*
X169957714Y-111675142D01*
X170005333Y-111722761D01*
X170100571Y-111770380D01*
X170291047Y-111770380D01*
X170386285Y-111722761D01*
X170433904Y-111675142D01*
X170481523Y-111579904D01*
X170481523Y-111389428D01*
X170433904Y-111294190D01*
X170386285Y-111246571D01*
X170291047Y-111198952D01*
X107338904Y-88463380D02*
X107338904Y-87463380D01*
X107577000Y-87463380D01*
X107719857Y-87511000D01*
X107815095Y-87606238D01*
X107862714Y-87701476D01*
X107910333Y-87891952D01*
X107910333Y-88034809D01*
X107862714Y-88225285D01*
X107815095Y-88320523D01*
X107719857Y-88415761D01*
X107577000Y-88463380D01*
X107338904Y-88463380D01*
X108862714Y-88463380D02*
X108291285Y-88463380D01*
X108577000Y-88463380D02*
X108577000Y-87463380D01*
X108481761Y-87606238D01*
X108386523Y-87701476D01*
X108291285Y-87749095D01*
X162933142Y-107291142D02*
X162885523Y-107338761D01*
X162742666Y-107386380D01*
X162647428Y-107386380D01*
X162504571Y-107338761D01*
X162409333Y-107243523D01*
X162361714Y-107148285D01*
X162314095Y-106957809D01*
X162314095Y-106814952D01*
X162361714Y-106624476D01*
X162409333Y-106529238D01*
X162504571Y-106434000D01*
X162647428Y-106386380D01*
X162742666Y-106386380D01*
X162885523Y-106434000D01*
X162933142Y-106481619D01*
X163885523Y-107386380D02*
X163314095Y-107386380D01*
X163599809Y-107386380D02*
X163599809Y-106386380D01*
X163504571Y-106529238D01*
X163409333Y-106624476D01*
X163314095Y-106672095D01*
X164266476Y-106481619D02*
X164314095Y-106434000D01*
X164409333Y-106386380D01*
X164647428Y-106386380D01*
X164742666Y-106434000D01*
X164790285Y-106481619D01*
X164837904Y-106576857D01*
X164837904Y-106672095D01*
X164790285Y-106814952D01*
X164218857Y-107386380D01*
X164837904Y-107386380D01*
X108164333Y-113482380D02*
X107831000Y-113006190D01*
X107592904Y-113482380D02*
X107592904Y-112482380D01*
X107973857Y-112482380D01*
X108069095Y-112530000D01*
X108116714Y-112577619D01*
X108164333Y-112672857D01*
X108164333Y-112815714D01*
X108116714Y-112910952D01*
X108069095Y-112958571D01*
X107973857Y-113006190D01*
X107592904Y-113006190D01*
X109116714Y-113482380D02*
X108545285Y-113482380D01*
X108831000Y-113482380D02*
X108831000Y-112482380D01*
X108735761Y-112625238D01*
X108640523Y-112720476D01*
X108545285Y-112768095D01*
D15*
X120270000Y-77430000D02*
X138810000Y-77430000D01*
X138810000Y-127720000D02*
X120270000Y-127720000D01*
X120270000Y-127720000D02*
X120270000Y-77430000D01*
X138810000Y-77430000D02*
X138810000Y-127720000D01*
D16*
X119640000Y-86075000D02*
G75*
G03*
X119640000Y-86075000I-100000J0D01*
G01*
D17*
X162898000Y-111590000D02*
X160698000Y-111590000D01*
X162898000Y-109390000D02*
X159898000Y-109390000D01*
X156716000Y-120034267D02*
X156716000Y-119741733D01*
X157736000Y-120034267D02*
X157736000Y-119741733D01*
X112970000Y-80010000D02*
X112970000Y-85150000D01*
X112970000Y-80010000D02*
X115570000Y-80010000D01*
X112970000Y-78740000D02*
X112970000Y-77410000D01*
X112970000Y-77410000D02*
X114300000Y-77410000D01*
X115570000Y-80010000D02*
X115570000Y-77410000D01*
X118170000Y-77410000D02*
X118170000Y-85150000D01*
X115570000Y-77410000D02*
X118170000Y-77410000D01*
X112970000Y-85150000D02*
X118170000Y-85150000D01*
X148650000Y-128330000D02*
X148650000Y-125670000D01*
X143510000Y-125670000D02*
X148650000Y-125670000D01*
X143510000Y-128330000D02*
X143510000Y-125670000D01*
X143510000Y-128330000D02*
X148650000Y-128330000D01*
X140910000Y-128330000D02*
X140910000Y-127000000D01*
X142240000Y-128330000D02*
X140910000Y-128330000D01*
X110489276Y-92441500D02*
X110998724Y-92441500D01*
X110489276Y-93486500D02*
X110998724Y-93486500D01*
X112050000Y-123156000D02*
X112050000Y-123000000D01*
X112050000Y-120840000D02*
X112050000Y-120684000D01*
X112050000Y-120684484D02*
G75*
G03*
X108817665Y-120841392I-1560000J-1235516D01*
G01*
X111530961Y-120840000D02*
G75*
G03*
X109448870Y-120840163I-1040961J-1080000D01*
G01*
X108817665Y-122998608D02*
G75*
G03*
X112050000Y-123155516I1672335J1078608D01*
G01*
X109448870Y-122999837D02*
G75*
G03*
X111530961Y-123000000I1041130J1079837D01*
G01*
X163830000Y-128330000D02*
X163830000Y-125670000D01*
X163830000Y-128330000D02*
X166430000Y-128330000D01*
X161230000Y-128330000D02*
X161230000Y-127000000D01*
X166430000Y-128330000D02*
X166430000Y-125670000D01*
X163830000Y-125670000D02*
X166430000Y-125670000D01*
X162560000Y-128330000D02*
X161230000Y-128330000D01*
X110890267Y-95502000D02*
X110597733Y-95502000D01*
X110890267Y-96522000D02*
X110597733Y-96522000D01*
X174550000Y-103650000D02*
X173240000Y-103650000D01*
X174550000Y-113130000D02*
X174550000Y-103650000D01*
X181050000Y-113130000D02*
X174550000Y-113130000D01*
X174550000Y-99550000D02*
X174550000Y-90070000D01*
X171850000Y-93480000D02*
X171850000Y-94480000D01*
X172850000Y-93980000D02*
X171850000Y-93480000D01*
X173240000Y-114430000D02*
X173240000Y-88770000D01*
X182360000Y-114430000D02*
X173240000Y-114430000D01*
X174550000Y-90070000D02*
X181050000Y-90070000D01*
X173240000Y-99550000D02*
X174550000Y-99550000D01*
X182360000Y-88770000D02*
X182360000Y-114430000D01*
X181050000Y-90070000D02*
X181050000Y-113130000D01*
X173240000Y-88770000D02*
X182360000Y-88770000D01*
X171850000Y-94480000D02*
X172850000Y-93980000D01*
X174550000Y-103650000D02*
X174550000Y-103650000D01*
X159912267Y-108714000D02*
X159619733Y-108714000D01*
X159912267Y-107694000D02*
X159619733Y-107694000D01*
X162134733Y-117350000D02*
X162477267Y-117350000D01*
X162134733Y-116330000D02*
X162477267Y-116330000D01*
X109388000Y-101970000D02*
X109388000Y-104920000D01*
X112608000Y-103770000D02*
X112608000Y-101970000D01*
X170176000Y-102526000D02*
X169676000Y-102526000D01*
X170176000Y-100166000D02*
X169676000Y-100166000D01*
X115510000Y-115630000D02*
X118170000Y-115630000D01*
X115510000Y-100330000D02*
X118170000Y-100330000D01*
X115510000Y-97730000D02*
X116840000Y-97730000D01*
X115510000Y-99060000D02*
X115510000Y-97730000D01*
X118170000Y-100330000D02*
X118170000Y-115630000D01*
X115510000Y-100330000D02*
X115510000Y-115630000D01*
X167130000Y-119741733D02*
X167130000Y-120034267D01*
X168150000Y-119741733D02*
X168150000Y-120034267D01*
X140910000Y-97790000D02*
X143570000Y-97790000D01*
X140910000Y-97790000D02*
X140910000Y-113090000D01*
X143570000Y-97790000D02*
X143570000Y-113090000D01*
X140910000Y-95190000D02*
X142240000Y-95190000D01*
X140910000Y-113090000D02*
X143570000Y-113090000D01*
X140910000Y-96520000D02*
X140910000Y-95190000D01*
X110890267Y-94998000D02*
X110597733Y-94998000D01*
X110890267Y-93978000D02*
X110597733Y-93978000D01*
X162452267Y-114806000D02*
X162159733Y-114806000D01*
X162452267Y-115826000D02*
X162159733Y-115826000D01*
X112050000Y-115760000D02*
X112050000Y-115604000D01*
X112050000Y-118076000D02*
X112050000Y-117920000D01*
X111530961Y-115760000D02*
G75*
G03*
X109448870Y-115760163I-1040961J-1080000D01*
G01*
X112050000Y-115604484D02*
G75*
G03*
X108817665Y-115761392I-1560000J-1235516D01*
G01*
X108817665Y-117918608D02*
G75*
G03*
X112050000Y-118075516I1672335J1078608D01*
G01*
X109448870Y-117919837D02*
G75*
G03*
X111530961Y-117920000I1041130J1079837D01*
G01*
X164408000Y-102108000D02*
X164408000Y-99908000D01*
X164408000Y-102108000D02*
X164408000Y-104308000D01*
X159188000Y-102108000D02*
X159188000Y-99908000D01*
X159188000Y-102108000D02*
X159188000Y-105708000D01*
X156224500Y-120142724D02*
X156224500Y-119633276D01*
X155179500Y-120142724D02*
X155179500Y-119633276D01*
X162452267Y-114302000D02*
X162159733Y-114302000D01*
X162452267Y-113282000D02*
X162159733Y-113282000D01*
X170176000Y-93054000D02*
X169676000Y-93054000D01*
X170176000Y-95414000D02*
X169676000Y-95414000D01*
X153670000Y-128330000D02*
X158810000Y-128330000D01*
X158810000Y-128330000D02*
X158810000Y-125670000D01*
X153670000Y-128330000D02*
X153670000Y-125670000D01*
X153670000Y-125670000D02*
X158810000Y-125670000D01*
X152400000Y-128330000D02*
X151070000Y-128330000D01*
X151070000Y-128330000D02*
X151070000Y-127000000D01*
X111144267Y-108964000D02*
X110851733Y-108964000D01*
X111144267Y-109984000D02*
X110851733Y-109984000D01*
X159188000Y-92202000D02*
X159188000Y-95802000D01*
X164408000Y-92202000D02*
X164408000Y-94402000D01*
X164408000Y-92202000D02*
X164408000Y-90002000D01*
X159188000Y-92202000D02*
X159188000Y-90002000D01*
X170176000Y-106082000D02*
X169676000Y-106082000D01*
X170176000Y-103722000D02*
X169676000Y-103722000D01*
X163206000Y-118278000D02*
X160756000Y-118278000D01*
X161406000Y-121498000D02*
X163206000Y-121498000D01*
X107710500Y-122174724D02*
X107710500Y-121665276D01*
X106665500Y-122174724D02*
X106665500Y-121665276D01*
X151388000Y-83910000D02*
X151888000Y-83910000D01*
X151388000Y-86270000D02*
X151888000Y-86270000D01*
X110998724Y-98058500D02*
X110489276Y-98058500D01*
X110998724Y-97013500D02*
X110489276Y-97013500D01*
X169926000Y-91730000D02*
X170726000Y-91730000D01*
X169926000Y-88610000D02*
X170726000Y-88610000D01*
X169926000Y-91730000D02*
X169126000Y-91730000D01*
X169926000Y-88610000D02*
X168126000Y-88610000D01*
X140910000Y-87570000D02*
X142240000Y-87570000D01*
X140910000Y-88900000D02*
X140910000Y-87570000D01*
X143570000Y-90170000D02*
X143570000Y-92770000D01*
X140910000Y-90170000D02*
X140910000Y-92770000D01*
X140910000Y-90170000D02*
X143570000Y-90170000D01*
X140910000Y-92770000D02*
X143570000Y-92770000D01*
X111252724Y-110983500D02*
X110743276Y-110983500D01*
X111252724Y-112028500D02*
X110743276Y-112028500D01*
X106665500Y-116585276D02*
X106665500Y-117094724D01*
X107710500Y-116585276D02*
X107710500Y-117094724D01*
X158498000Y-99968267D02*
X158498000Y-99675733D01*
X157478000Y-99968267D02*
X157478000Y-99675733D01*
X158498000Y-90062267D02*
X158498000Y-89769733D01*
X157478000Y-90062267D02*
X157478000Y-89769733D01*
X151070000Y-113090000D02*
X153730000Y-113090000D01*
X151070000Y-95190000D02*
X152400000Y-95190000D01*
X153730000Y-97790000D02*
X153730000Y-113090000D01*
X151070000Y-96520000D02*
X151070000Y-95190000D01*
X151070000Y-97790000D02*
X151070000Y-113090000D01*
X151070000Y-97790000D02*
X153730000Y-97790000D01*
X104248600Y-98868400D02*
X106098600Y-98868400D01*
X106098600Y-98868400D02*
X106098600Y-99318400D01*
X101698600Y-106668400D02*
X101948600Y-106668400D01*
X106098600Y-106668400D02*
X106098600Y-106218400D01*
X104248600Y-106668400D02*
X106098600Y-106668400D01*
X106847100Y-101068400D02*
X106397100Y-101068400D01*
X101698600Y-98868400D02*
X101948600Y-98868400D01*
X106876100Y-101068400D02*
X106876100Y-101518400D01*
X170176000Y-96610000D02*
X169676000Y-96610000D01*
X170176000Y-98970000D02*
X169676000Y-98970000D01*
X166626000Y-120034267D02*
X166626000Y-119741733D01*
X165606000Y-120034267D02*
X165606000Y-119741733D01*
X111252724Y-108472500D02*
X110743276Y-108472500D01*
X111252724Y-107427500D02*
X110743276Y-107427500D01*
X178200267Y-87886000D02*
X177907733Y-87886000D01*
X178200267Y-86866000D02*
X177907733Y-86866000D01*
X110489276Y-90438500D02*
X110998724Y-90438500D01*
X110489276Y-89393500D02*
X110998724Y-89393500D01*
X169672000Y-107406000D02*
X170472000Y-107406000D01*
X169672000Y-107406000D02*
X167872000Y-107406000D01*
X169672000Y-110526000D02*
X170472000Y-110526000D01*
X169672000Y-110526000D02*
X168872000Y-110526000D01*
X112244000Y-87084800D02*
X109694000Y-87084800D01*
X112244000Y-88784800D02*
X109694000Y-88784800D01*
X112244000Y-88784800D02*
X112244000Y-87084800D01*
X163429733Y-108714000D02*
X163722267Y-108714000D01*
X163429733Y-107694000D02*
X163722267Y-107694000D01*
X111276224Y-112507500D02*
X110766776Y-112507500D01*
X111276224Y-113552500D02*
X110766776Y-113552500D01*
%LPC*%
D18*
X121920000Y-86360000D03*
D19*
X121920000Y-88900000D03*
X121920000Y-91440000D03*
X121920000Y-93980000D03*
X121920000Y-96520000D03*
X121920000Y-99060000D03*
X121920000Y-101600000D03*
X121920000Y-104140000D03*
X121920000Y-106680000D03*
X121920000Y-109220000D03*
X121920000Y-111760000D03*
X121920000Y-114300000D03*
X121920000Y-116840000D03*
X121920000Y-119380000D03*
X121920000Y-121920000D03*
D18*
X137160000Y-86360000D03*
D19*
X137160000Y-88900000D03*
X137160000Y-91440000D03*
X137160000Y-93980000D03*
X137160000Y-96520000D03*
X137160000Y-99060000D03*
X137160000Y-101600000D03*
X137160000Y-104140000D03*
X137160000Y-106680000D03*
X137160000Y-109220000D03*
X137160000Y-111760000D03*
X137160000Y-114300000D03*
X137160000Y-116840000D03*
X137160000Y-119380000D03*
X137160000Y-121920000D03*
D20*
X160248000Y-109740000D03*
X160248000Y-110240000D03*
X160248000Y-110740000D03*
X160248000Y-111240000D03*
X163348000Y-111240000D03*
X163348000Y-110740000D03*
X163348000Y-110240000D03*
X163348000Y-109740000D03*
D21*
X157226000Y-120750500D03*
X157226000Y-119025500D03*
D22*
X114300000Y-78740000D03*
D23*
X116840000Y-78740000D03*
X114300000Y-81280000D03*
X116840000Y-81280000D03*
X114300000Y-83820000D03*
X116840000Y-83820000D03*
D22*
X142240000Y-127000000D03*
D23*
X144780000Y-127000000D03*
X147320000Y-127000000D03*
D24*
X109831500Y-92964000D03*
X111656500Y-92964000D03*
D25*
X111760000Y-121920000D03*
D26*
X109220000Y-121920000D03*
D22*
X162560000Y-127000000D03*
D23*
X165100000Y-127000000D03*
D27*
X111606500Y-96012000D03*
X109881500Y-96012000D03*
D28*
X176530000Y-93980000D03*
D29*
X179070000Y-93980000D03*
X176530000Y-96520000D03*
X179070000Y-96520000D03*
X176530000Y-99060000D03*
X179070000Y-99060000D03*
X176530000Y-101600000D03*
X179070000Y-101600000D03*
X176530000Y-104140000D03*
X179070000Y-104140000D03*
X176530000Y-106680000D03*
X179070000Y-106680000D03*
X176530000Y-109220000D03*
X179070000Y-109220000D03*
D27*
X160628500Y-108204000D03*
X158903500Y-108204000D03*
D30*
X161431000Y-116840000D03*
X163181000Y-116840000D03*
D31*
X110048000Y-104220000D03*
X110998000Y-104220000D03*
X111948000Y-104220000D03*
X111948000Y-101520000D03*
X110998000Y-101520000D03*
X110048000Y-101520000D03*
D32*
X169426000Y-100596000D03*
D33*
X169426000Y-101096000D03*
X169426000Y-101596000D03*
D32*
X169426000Y-102096000D03*
X170426000Y-102096000D03*
D33*
X170426000Y-101596000D03*
X170426000Y-101096000D03*
D32*
X170426000Y-100596000D03*
D22*
X116840000Y-99060000D03*
D23*
X116840000Y-101600000D03*
X116840000Y-104140000D03*
X116840000Y-106680000D03*
X116840000Y-109220000D03*
X116840000Y-111760000D03*
X116840000Y-114300000D03*
D34*
X167640000Y-119025500D03*
X167640000Y-120750500D03*
D22*
X142240000Y-96520000D03*
D23*
X142240000Y-99060000D03*
X142240000Y-101600000D03*
X142240000Y-104140000D03*
X142240000Y-106680000D03*
X142240000Y-109220000D03*
X142240000Y-111760000D03*
D27*
X111606500Y-94488000D03*
X109881500Y-94488000D03*
X163168500Y-115316000D03*
X161443500Y-115316000D03*
D25*
X111760000Y-116840000D03*
D26*
X109220000Y-116840000D03*
D35*
X159848000Y-104970500D03*
X160498000Y-104970500D03*
X161148000Y-104970500D03*
X161798000Y-104970500D03*
X162448000Y-104970500D03*
X163098000Y-104970500D03*
X163748000Y-104970500D03*
X163748000Y-99245500D03*
X163098000Y-99245500D03*
X162448000Y-99245500D03*
X161798000Y-99245500D03*
X161148000Y-99245500D03*
X160498000Y-99245500D03*
X159848000Y-99245500D03*
D36*
X155702000Y-120800500D03*
X155702000Y-118975500D03*
D27*
X163168500Y-113792000D03*
X161443500Y-113792000D03*
D32*
X169426000Y-93484000D03*
D33*
X169426000Y-93984000D03*
X169426000Y-94484000D03*
D32*
X169426000Y-94984000D03*
X170426000Y-94984000D03*
D33*
X170426000Y-94484000D03*
X170426000Y-93984000D03*
D32*
X170426000Y-93484000D03*
D22*
X152400000Y-127000000D03*
D23*
X154940000Y-127000000D03*
X157480000Y-127000000D03*
D27*
X111860500Y-109474000D03*
X110135500Y-109474000D03*
D35*
X159848000Y-95064500D03*
X160498000Y-95064500D03*
X161148000Y-95064500D03*
X161798000Y-95064500D03*
X162448000Y-95064500D03*
X163098000Y-95064500D03*
X163748000Y-95064500D03*
X163748000Y-89339500D03*
X163098000Y-89339500D03*
X162448000Y-89339500D03*
X161798000Y-89339500D03*
X161148000Y-89339500D03*
X160498000Y-89339500D03*
X159848000Y-89339500D03*
D32*
X169426000Y-104152000D03*
D33*
X169426000Y-104652000D03*
X169426000Y-105152000D03*
D32*
X169426000Y-105652000D03*
X170426000Y-105652000D03*
D33*
X170426000Y-105152000D03*
X170426000Y-104652000D03*
D32*
X170426000Y-104152000D03*
D37*
X160956000Y-118938000D03*
X160956000Y-119888000D03*
X160956000Y-120838000D03*
X163656000Y-120838000D03*
X163656000Y-118938000D03*
D36*
X107188000Y-122832500D03*
X107188000Y-121007500D03*
D32*
X152138000Y-85840000D03*
D33*
X152138000Y-85340000D03*
X152138000Y-84840000D03*
D32*
X152138000Y-84340000D03*
X151138000Y-84340000D03*
D33*
X151138000Y-84840000D03*
X151138000Y-85340000D03*
D32*
X151138000Y-85840000D03*
D38*
X111656500Y-97536000D03*
X109831500Y-97536000D03*
D39*
X168788500Y-89220000D03*
X168788500Y-90170000D03*
X168788500Y-91120000D03*
X171063500Y-91120000D03*
X171063500Y-90170000D03*
X171063500Y-89220000D03*
D22*
X142240000Y-88900000D03*
D23*
X142240000Y-91440000D03*
D38*
X111910500Y-111506000D03*
X110085500Y-111506000D03*
D40*
X107188000Y-115927500D03*
X107188000Y-117752500D03*
D21*
X157988000Y-100684500D03*
X157988000Y-98959500D03*
X157988000Y-90778500D03*
X157988000Y-89053500D03*
D22*
X152400000Y-96520000D03*
D23*
X152400000Y-99060000D03*
X152400000Y-101600000D03*
X152400000Y-104140000D03*
X152400000Y-106680000D03*
X152400000Y-109220000D03*
X152400000Y-111760000D03*
D41*
X105886100Y-101468400D03*
X105886100Y-102118400D03*
X105886100Y-102768400D03*
X105886100Y-103418400D03*
X105886100Y-104068400D03*
D42*
X105798600Y-100318400D03*
D43*
X103098600Y-103768400D03*
D42*
X105798600Y-105218400D03*
D44*
X103098600Y-99868400D03*
D45*
X103098600Y-99168400D03*
D43*
X103098600Y-101768400D03*
D44*
X103098600Y-105668400D03*
D45*
X103098600Y-106368400D03*
D32*
X169426000Y-97040000D03*
D33*
X169426000Y-97540000D03*
X169426000Y-98040000D03*
D32*
X169426000Y-98540000D03*
X170426000Y-98540000D03*
D33*
X170426000Y-98040000D03*
X170426000Y-97540000D03*
D32*
X170426000Y-97040000D03*
D21*
X166116000Y-120750500D03*
X166116000Y-119025500D03*
D38*
X111910500Y-107950000D03*
X110085500Y-107950000D03*
D27*
X178916500Y-87376000D03*
X177191500Y-87376000D03*
D24*
X109831500Y-89916000D03*
X111656500Y-89916000D03*
D39*
X168534500Y-108016000D03*
X168534500Y-108966000D03*
X168534500Y-109916000D03*
X170809500Y-109916000D03*
X170809500Y-108966000D03*
X170809500Y-108016000D03*
D46*
X111794000Y-87934800D03*
X109694000Y-87934800D03*
D47*
X162713500Y-108204000D03*
X164438500Y-108204000D03*
D38*
X111934000Y-113030000D03*
X110109000Y-113030000D03*
M02*
